<svg xmlns="http://www.w3.org/2000/svg" style="isolation:isolate" width="256" height="256">
 <path fill="#28851e" d="M53.039 21C16.724 21 13 23.055 13 59.371v52.167h230V79.563c0-36.316-3.724-42.102-40.039-42.102h-89.336L97.198 21H53.039z"/>
 <path fill="#76c22b" d="M53.039 70.384C16.722 70.384 13 74.114 13 110.429v84.524C13 231.269 16.722 235 53.039 235h149.922c36.317 0 40.039-3.731 40.039-40.047V93.969c0-36.316-3.722-40.047-40.039-40.047H119.53l-16.438 16.462H53.039z"/>
 <linearGradient id="a" x2="0" y1=".5" y2="-.5" gradientTransform="matrix(230 0 0 181.078 13 53.922)" gradientUnits="userSpaceOnUse">
  <stop offset="0%" stop-color="#ffffff" stop-opacity=".07"/>
  <stop offset="67.282%" stop-color="#fcefe8" stop-opacity="0"/>
 </linearGradient>
 <path fill="url(#a)" d="M53.039 70.384C16.722 70.384 13 74.114 13 110.429v84.524C13 231.269 16.722 235 53.039 235h149.922c36.317 0 40.039-3.731 40.039-40.047V93.969c0-36.316-3.722-40.047-40.039-40.047H119.53l-16.438 16.462H53.039z"/>
 <g opacity=".4">
  <radialGradient id="b" cx=".5" cy=".5" r=".272" fx=".5" fy=".136" gradientTransform="matrix(230 0 0 60.62 13 21)" gradientUnits="userSpaceOnUse">
   <stop offset="0%" stop-color="#ffffff"/>
   <stop offset="100%" stop-color="#ffffff" stop-opacity=".204"/>
  </radialGradient>
  <path fill="url(#b)" d="M53.039 21C16.724 21 13 23.055 13 59.371v2.059c0-36.316 3.724-38.373 40.039-38.373h44.159l16.427 16.461h89.336c36.315 0 40.039 5.786 40.039 42.102v-2.057c0-36.316-3.724-42.102-40.039-42.102h-89.336L97.198 21H53.039z"/>
 </g>
 <g opacity=".4">
  <radialGradient id="c" cx=".5" cy=".5" r=".272" fx=".482" fy=".211" gradientTransform="matrix(230 0 0 58.565 13 53.922)" gradientUnits="userSpaceOnUse">
   <stop offset="0%" stop-color="#ffffff"/>
   <stop offset="100%" stop-color="#ffffff" stop-opacity=".204"/>
  </radialGradient>
  <path fill="url(#c)" d="M119.53 53.922l-16.438 16.462H53.039C16.724 70.384 13 74.112 13 110.427v2.06c0-36.316 3.724-40.046 40.039-40.046h50.053l16.438-16.46h83.431c36.315 0 40.039 3.727 40.039 40.043v-2.057c0-36.316-3.724-40.045-40.039-40.045H119.53z"/>
 </g>
 <path fill="#ffffff" opacity=".1" d="M243 167.096l-65.715 65.845h25.676c36.315 0 40.039-3.727 40.039-40.043v-25.802z"/>
 <path opacity=".2" d="M13 192.898v2.057C13 231.271 16.724 235 53.039 235h149.922c36.315 0 40.039-3.729 40.039-40.045v-2.057c0 36.316-3.724 40.043-40.039 40.043H53.039c-36.315 0-40.039-3.727-40.039-40.043z"/>
 <g fill="#cfe9b4">
  <path d="M84.771 92v49.46h4.772V96.799h85.888v91.173h-19.086v19.194h-21.736v4.799h25.314l20.28-20.394V92H84.771zm19.087 19.469v4.798h57.258v-4.798h-57.258zm0 14.395v4.799h57.258v-4.799h-57.258zm0 14.396v4.799h57.258v-4.799h-57.258zm-19.112 7.198v11.997h4.771v-11.997h-4.771zm19.112 7.198v4.799h28.629v-4.799h-28.629zm-19.112 10.797v11.996h4.771v-11.996h-4.771zm0 22.554v9.597h-9.543v4.799h9.543V212h4.771v-9.597h9.543v-4.799h-9.543v-9.597h-4.771zm14.077 19.159v4.799h11.929v-4.799H98.823zm17.893 0v4.799h11.929v-4.799h-11.929z"/>
 </g>
</svg>
