<svg xmlns="http://www.w3.org/2000/svg" style="isolation:isolate" width="256" height="256">
 <path fill="#666666" d="M53.039 21C16.724 21 13 23.055 13 59.371v52.167h230V79.563c0-36.316-3.724-42.102-40.039-42.102h-89.336L97.198 21H53.039z"/>
 <path fill="#999999" d="M53.039 70.384C16.722 70.384 13 74.114 13 110.429v84.524C13 231.269 16.722 235 53.039 235h149.922c36.317 0 40.039-3.731 40.039-40.047V93.969c0-36.316-3.722-40.047-40.039-40.047H119.53l-16.438 16.462H53.039z"/>
 <linearGradient id="a" x2="0" y1=".5" y2="-.5" gradientTransform="matrix(230 0 0 181.078 13 53.922)" gradientUnits="userSpaceOnUse">
  <stop offset="0%" stop-color="#ffffff" stop-opacity=".07"/>
  <stop offset="67.282%" stop-color="#fcefe8" stop-opacity="0"/>
 </linearGradient>
 <path fill="url(#a)" d="M53.039 70.384C16.722 70.384 13 74.114 13 110.429v84.524C13 231.269 16.722 235 53.039 235h149.922c36.317 0 40.039-3.731 40.039-40.047V93.969c0-36.316-3.722-40.047-40.039-40.047H119.53l-16.438 16.462H53.039z"/>
 <g opacity=".4">
  <radialGradient id="b" cx=".5" cy=".5" r=".272" fx=".5" fy=".136" gradientTransform="matrix(230 0 0 60.62 13 21)" gradientUnits="userSpaceOnUse">
   <stop offset="0%" stop-color="#ffffff"/>
   <stop offset="100%" stop-color="#ffffff" stop-opacity=".204"/>
  </radialGradient>
  <path fill="url(#b)" d="M53.039 21C16.724 21 13 23.055 13 59.371v2.059c0-36.316 3.724-38.373 40.039-38.373h44.159l16.427 16.461h89.336c36.315 0 40.039 5.786 40.039 42.102v-2.057c0-36.316-3.724-42.102-40.039-42.102h-89.336L97.198 21H53.039z"/>
 </g>
 <g opacity=".4">
  <radialGradient id="c" cx=".5" cy=".5" r=".272" fx=".482" fy=".211" gradientTransform="matrix(230 0 0 58.565 13 53.922)" gradientUnits="userSpaceOnUse">
   <stop offset="0%" stop-color="#ffffff"/>
   <stop offset="100%" stop-color="#ffffff" stop-opacity=".204"/>
  </radialGradient>
  <path fill="url(#c)" d="M119.53 53.922l-16.438 16.462H53.039C16.724 70.384 13 74.112 13 110.427v2.06c0-36.316 3.724-40.046 40.039-40.046h50.053l16.438-16.46h83.431c36.315 0 40.039 3.727 40.039 40.043v-2.057c0-36.316-3.724-40.045-40.039-40.045H119.53z"/>
 </g>
 <path fill="#ffffff" opacity=".1" d="M243 167.096l-65.715 65.845h25.676c36.315 0 40.039-3.727 40.039-40.043v-25.802z"/>
 <path opacity=".2" d="M13 192.898v2.057C13 231.271 16.724 235 53.039 235h149.922c36.315 0 40.039-3.729 40.039-40.045v-2.057c0 36.316-3.724 40.043-40.039 40.043H53.039c-36.315 0-40.039-3.727-40.039-40.043z"/>
 <g fill="#dbdbdb">
  <path d="M90.5 102.25v7.692h7.456c-9.436.112-16.342-.235-21.987 2.96-2.823 1.597-5.049 4.303-6.284 7.677-1.235 3.375-1.685 7.382-1.685 12.44v46.154c0 5.059.449 9.066 1.685 12.44 1.235 3.374 3.461 6.08 6.284 7.677 5.645 3.195 12.551 2.848 21.987 2.96H158.045c9.437-.112 16.342.235 21.988-2.96 2.822-1.597 5.049-4.303 6.284-7.677 1.232-3.374 1.683-7.381 1.683-12.44v-46.154c0-5.058-.449-9.065-1.685-12.44-1.235-3.374-3.461-6.08-6.284-7.677-5.645-3.195-12.551-2.848-21.987-2.96H105.5v-7.692h-15zm7.5 15.385h60c9.439.113 15.654.46 18.398 2.013 1.376.778 2.169 1.636 2.901 3.636.731 1.999 1.201 5.178 1.201 9.735v46.154c0 4.557-.469 7.736-1.201 9.736-.732 1.999-1.525 2.857-2.901 3.635-2.744 1.554-8.959 1.901-18.398 2.014H98c-9.439-.113-15.668-.46-18.413-2.014-1.376-.778-2.154-1.636-2.886-3.635-.732-2-1.201-5.179-1.201-9.736v-46.154c0-4.557.469-7.736 1.201-9.735.732-2 1.51-2.858 2.886-3.636 2.745-1.553 8.974-1.9 18.413-2.013zm30 7.692c-16.569 0-30 13.776-30 30.769 0 16.994 13.431 30.769 30 30.769 16.569 0 30-13.775 30-30.769 0-16.993-13.431-30.769-30-30.769zm41.25 0c-2.071 0-3.75 1.722-3.75 3.846s1.679 3.846 3.75 3.846c2.071 0 3.75-1.722 3.75-3.846s-1.679-3.846-3.75-3.846zM128 133.019c12.426 0 22.5 10.332 22.5 23.077 0 12.745-10.074 23.077-22.5 23.077s-22.5-10.332-22.5-23.077c0-12.745 10.074-23.077 22.5-23.077zm-.63 7.723c-8.026.346-14.361 7.115-14.37 15.354 0 8.497 6.716 15.385 15 15.385 8.284 0 15-6.888 15-15.385-.013-8.189-6.279-14.932-14.253-15.339 3.831.393 6.75 3.698 6.753 7.647 0 4.248-3.358 7.692-7.5 7.692-4.142 0-7.5-3.444-7.5-7.692.001-3.997 2.987-7.327 6.87-7.662z"/>
 </g>
</svg>
