<svg xmlns="http://www.w3.org/2000/svg" style="isolation:isolate" width="16" height="16" viewBox="0 0 16 16">
 <defs>
  <clipPath id="_clipPath_iz0puOzrcW1DrN69mIu4v7NU39gJF2qw">
   <rect width="16" height="16"/>
  </clipPath>
 </defs>
 <g clip-path="url(#_clipPath_iz0puOzrcW1DrN69mIu4v7NU39gJF2qw)">
  <path fill="#d4be98" d="M 6.923 1 L 1 10.423 L 1 12.846 L 6.923 12.846 L 6.923 15 L 9.615 15 L 9.615 10.154 L 10.692 10.154 C 13.385 10.154 15 8 15 5.577 C 15 3.154 13.385 1 10.692 1 L 6.923 1 L 6.923 1 Z M 9.615 3.692 L 10.423 3.692 C 11.769 3.692 12.308 4.769 12.308 5.577 C 12.308 6.385 11.769 7.462 10.423 7.462 L 9.615 7.462 M 6.923 5.794 L 6.923 10.154 L 4.231 10.154"/>
  <rect fill="#d4be98" width="4.625" height="3.594" x="18.19" y="-.16" transform="matrix(1,0,0,1,0,0)"/>
 </g>
</svg>
