<svg xmlns="http://www.w3.org/2000/svg" style="isolation:isolate" width="16" height="16" viewBox="0 0 16 16">
 <path fill="#d4be98" d="M 11.429 2.087 L 11.412 2.087 C 11.408 2.087 11.405 2.087 11.405 2.087 C 11.123 2.087 10.844 2.115 10.569 2.171 C 10.373 2.209 10.18 2.275 9.997 2.362 C 9.743 2.484 9.523 2.671 9.364 2.908 C 9.21 3.148 9.103 3.416 9.051 3.698 C 8.989 4 8.962 4.31 8.962 4.619 C 8.965 4.821 8.972 5.026 8.986 5.228 C 8.993 5.336 8.996 5.444 9 5.551 L 6.935 5.583 C 6.935 5.513 6.932 5.444 6.925 5.378 C 6.907 5.131 6.901 4.884 6.897 4.637 C 6.894 4.185 6.935 3.736 7.024 3.291 C 7.131 2.745 7.341 2.219 7.644 1.753 C 8.012 1.204 8.518 0.762 9.11 0.477 C 9.447 0.313 9.801 0.195 10.166 0.122 C 10.576 0.042 10.992 0 11.408 0 L 11.419 0 C 12.076 -0.007 12.73 0.122 13.339 0.376 C 13.889 0.609 14.381 0.964 14.781 1.412 C 15.152 1.833 15.438 2.327 15.624 2.859 C 15.803 3.374 15.895 3.917 15.892 4.466 C 15.892 5.023 15.799 5.576 15.617 6.105 C 15.431 6.644 15.145 7.144 14.774 7.576 C 14.378 8.035 13.889 8.4 13.342 8.651 C 12.74 8.918 12.09 9.051 11.429 9.044 L 11.405 9.044 L 4.526 9.044 C 4.523 9.044 4.516 9.044 4.513 9.044 C 4.141 9.04 3.776 9.11 3.432 9.252 C 3.171 9.367 2.936 9.534 2.747 9.75 C 2.561 9.965 2.417 10.212 2.324 10.484 C 2.224 10.776 2.173 11.082 2.173 11.391 C 2.173 11.715 2.228 12.038 2.334 12.348 C 2.434 12.64 2.585 12.915 2.785 13.151 C 2.981 13.381 3.219 13.565 3.49 13.69 C 3.814 13.84 4.168 13.916 4.523 13.913 C 4.526 13.913 4.53 13.913 4.53 13.913 L 4.574 13.913 C 4.574 13.913 4.578 13.913 4.578 13.913 C 4.846 13.916 5.111 13.885 5.373 13.823 C 5.559 13.777 5.734 13.708 5.899 13.61 C 6.168 13.447 6.388 13.214 6.539 12.939 C 6.704 12.63 6.815 12.296 6.87 11.948 C 6.925 11.624 6.949 11.294 6.949 10.963 C 6.949 10.835 6.945 10.703 6.938 10.57 C 6.938 10.567 6.938 10.567 6.938 10.564 L 6.935 10.473 L 6.935 10.473 L 9 10.4 L 9.003 10.487 C 9.01 10.643 9.013 10.8 9.013 10.957 C 9.013 11.402 8.979 11.847 8.907 12.289 C 8.814 12.863 8.628 13.419 8.356 13.93 C 8.026 14.543 7.537 15.054 6.945 15.412 C 6.605 15.61 6.236 15.76 5.854 15.854 C 5.431 15.955 4.998 16.003 4.564 16 L 4.526 16 C 3.872 16.003 3.226 15.861 2.63 15.589 C 2.086 15.336 1.605 14.963 1.216 14.504 C 0.848 14.07 0.566 13.569 0.383 13.029 C 0.201 12.504 0.108 11.951 0.108 11.391 C 0.108 10.849 0.197 10.31 0.373 9.798 C 0.555 9.27 0.837 8.779 1.206 8.362 C 1.601 7.917 2.086 7.562 2.634 7.329 C 3.236 7.075 3.879 6.95 4.533 6.957 L 11.412 6.957 L 11.439 6.957 C 11.443 6.957 11.446 6.957 11.45 6.957 C 11.811 6.96 12.172 6.887 12.503 6.741 C 12.774 6.616 13.019 6.435 13.215 6.209 C 13.414 5.976 13.569 5.705 13.669 5.412 C 13.776 5.11 13.831 4.786 13.827 4.463 C 13.831 4.153 13.779 3.844 13.676 3.551 C 13.58 3.277 13.435 3.023 13.242 2.807 C 13.05 2.588 12.809 2.414 12.54 2.299 C 12.193 2.153 11.818 2.084 11.439 2.087"/>
</svg>
