<svg xmlns="http://www.w3.org/2000/svg" style="isolation:isolate" width="16" height="16" viewBox="0 0 16 16">
 <defs>
  <clipPath id="_clipPath_vySmhbbgqezqzduG6YUg3Ih10kpdoLBs">
   <rect width="16" height="16"/>
  </clipPath>
 </defs>
 <g clip-path="url(#_clipPath_vySmhbbgqezqzduG6YUg3Ih10kpdoLBs)">
  <rect fill="#d4be98" width="4.625" height="3.594" x="18.19" y="-.16" transform="matrix(1,0,0,1,0,0)"/>
  <path fill="#d4be98" d="M 5.083 15 L 6.25 15 L 6.25 13.833 L 5.083 13.833 L 5.083 15 Z M 8 8.583 C 8.968 8.583 9.744 7.802 9.744 6.833 L 9.75 3.333 C 9.75 2.365 8.968 1.583 8 1.583 C 7.032 1.583 6.25 2.365 6.25 3.333 L 6.25 6.833 C 6.25 7.802 7.032 8.583 8 8.583 Z M 7.417 15 L 8.583 15 L 8.583 13.833 L 7.417 13.833 L 7.417 15 Z M 9.75 15 L 10.917 15 L 10.917 13.833 L 9.75 13.833 L 9.75 15 Z M 12.083 6.833 L 11.092 6.833 C 11.092 8.583 9.61 9.808 8 9.808 C 6.39 9.808 4.908 8.583 4.908 6.833 L 3.917 6.833 C 3.917 8.823 5.503 10.468 7.417 10.753 L 7.417 12.667 L 8.583 12.667 L 8.583 10.753 C 10.497 10.468 12.083 8.823 12.083 6.833 Z"/>
 </g>
</svg>
