<svg xmlns="http://www.w3.org/2000/svg" style="isolation:isolate" width="16" height="16" viewBox="0 0 16 16">
 <defs>
  <clipPath id="_clipPath_5oTMfU6Y6D65VBA7fi9pjjoNwtCRXCzN">
   <rect width="16" height="16"/>
  </clipPath>
 </defs>
 <g clip-path="url(#_clipPath_5oTMfU6Y6D65VBA7fi9pjjoNwtCRXCzN)">
  <rect fill="#d4be98" width="4.625" height="3.594" x="16.34" y=".34" transform="matrix(1,0,0,1,0,0)"/>
  <path fill="#d4be98" fill-rule="evenodd" d="M 13.988 6.252 L 13.988 9.634 C 13.988 10.112 13.608 10.499 13.137 10.499 C 12.668 10.499 12.287 10.111 12.287 9.634 L 12.287 6.252 C 12.287 5.774 12.665 5.387 13.137 5.387 C 13.608 5.387 13.988 5.775 13.988 6.252 Z M 2.861 5.387 C 2.392 5.387 2.012 5.775 2.012 6.252 L 2.012 9.632 C 2.012 10.11 2.392 10.499 2.861 10.499 C 3.335 10.499 3.713 10.11 3.713 9.632 L 3.713 6.252 C 3.715 6.024 3.627 5.805 3.467 5.642 C 3.307 5.48 3.089 5.388 2.861 5.387 L 2.861 5.387 Z M 4.226 11.588 C 4.226 11.957 4.525 12.253 4.891 12.253 L 5.651 12.253 L 5.651 14.136 C 5.651 14.613 6.033 15 6.502 15 C 6.974 15 7.354 14.613 7.354 14.136 L 7.354 12.253 L 8.679 12.253 L 8.679 14.136 C 8.679 14.613 9.062 15 9.531 15 C 10.003 15 10.383 14.613 10.383 14.136 L 10.383 12.253 L 11.143 12.253 C 11.319 12.253 11.488 12.184 11.612 12.059 C 11.737 11.935 11.807 11.766 11.807 11.59 L 11.807 5.412 L 4.226 5.412 L 4.226 11.588 Z M 11.788 4.864 L 4.21 4.864 C 4.309 3.713 5.089 2.731 6.204 2.213 L 5.504 1.196 C 5.461 1.136 5.471 1.056 5.524 1.018 C 5.579 0.983 5.657 1 5.701 1.06 L 6.427 2.116 C 6.928 1.92 7.462 1.82 8 1.822 C 8.538 1.821 9.072 1.921 9.573 2.116 L 10.299 1.061 C 10.343 1 10.421 0.983 10.476 1.018 C 10.528 1.056 10.539 1.136 10.497 1.195 L 9.796 2.213 C 10.909 2.731 11.692 3.713 11.789 4.864 L 11.788 4.864 Z M 6.822 3.394 C 6.821 3.283 6.777 3.176 6.698 3.098 C 6.619 3.02 6.513 2.976 6.402 2.977 C 6.171 2.976 5.983 3.162 5.981 3.393 C 5.981 3.626 6.169 3.814 6.402 3.814 C 6.634 3.814 6.822 3.626 6.822 3.393 L 6.822 3.394 Z M 10.07 3.394 C 10.07 3.283 10.026 3.176 9.947 3.098 C 9.868 3.02 9.762 2.976 9.651 2.977 C 9.481 2.977 9.328 3.079 9.263 3.236 C 9.198 3.393 9.235 3.573 9.355 3.693 C 9.475 3.813 9.656 3.848 9.812 3.782 C 9.969 3.716 10.07 3.563 10.069 3.393 L 10.07 3.394 Z"/>
 </g>
</svg>
