<svg xmlns="http://www.w3.org/2000/svg" width="16" height="16" version="1.1" viewBox="0 0 4.23 4.23">
 <g transform="translate(0,-292.76665)">
  <path d="m 0.74733373,294.58013 c -0.091883,-0.0274 -0.4033754,0.20158 -0.4033754,0.20158 0.1653456,-0.61175 1.21012637,-1.20904 1.21012637,-1.20904 -0.1009568,-0.0373 -0.60506327,0 -0.60506327,0 0.74399687,-0.72297 1.81520967,-0.40301 1.81520967,-0.40301 0.0274,-0.15783 0.4033755,-0.40301 0.4033755,-0.40301 -0.046055,0.0461 0,0.30226 0,0.30226 0.045948,-0.0836 0.2016876,-0.10068 0.2016876,-0.10068 -0.082618,0.19455 -0.077276,0.58641 -0.077276,0.58641 0.2386991,0.24128 0.5049954,1.07621 0.5049954,1.07621 l 0.1012692,0.14836 c 0.1285681,0.18573 0.076285,0.47694 -0.051124,0.54611 -0.3570507,0.21345 -0.5184613,-0.21193 -0.5184613,-0.21193 -0.3949693,-0.0464 -0.7661514,-0.53318 -0.7661514,-0.53318 -0.5017498,0.28327 0.065869,1.18211 0.2958288,1.48352 0.2953855,0.38634 -0.094131,0.93456 -0.094131,0.93456 0,0 -1.0084386,0.0709 -1.7639663,-0.705 -0.37202858,-0.39853 -0.65636698,-0.84343 -0.25299148,-1.71328 z" style="fill:#d4be98"/>
 </g>
</svg>
