<svg xmlns="http://www.w3.org/2000/svg" style="isolation:isolate" width="16" height="16" viewBox="0 0 16 16">
 <path fill="#d4be98" fill-rule="evenodd" d="M 2.96 6.952 L 5.2 6.952 L 4.35 4.712 L 4.35 4.712 Q 4.153 4.22 4.08 3.937 L 4.08 3.937 L 4.08 3.937 Q 4.006 4.22 3.809 4.712 L 3.809 4.712 L 2.96 6.952 L 2.96 6.952 Z M 12.88 10.386 L 12.88 10.386 L 12.88 10.386 Q 11.907 10.386 11.181 9.998 L 11.181 9.998 L 11.181 9.998 Q 10.455 9.611 10.049 8.952 L 10.049 8.952 L 10.049 8.952 Q 9.643 8.294 9.452 7.543 L 9.452 7.543 L 9.452 7.543 Q 9.261 6.792 9.261 5.943 L 9.261 5.943 L 9.261 5.943 Q 9.261 5.155 9.458 4.411 L 9.458 4.411 L 9.458 4.411 Q 9.655 3.666 10.061 2.995 L 10.061 2.995 L 10.061 2.995 Q 10.467 2.325 11.193 1.912 L 11.193 1.912 L 11.193 1.912 Q 11.92 1.5 12.88 1.5 L 12.88 1.5 L 12.88 1.5 Q 14.036 1.5 14.83 2.066 L 14.83 2.066 L 14.83 2.066 Q 15.624 2.632 15.956 3.445 L 15.956 3.445 L 14.467 4.122 L 14.467 4.122 Q 14.123 3.592 13.766 3.346 L 13.766 3.346 L 13.766 3.346 Q 13.409 3.1 12.88 3.1 L 12.88 3.1 L 12.88 3.1 Q 12.203 3.1 11.753 3.562 L 11.753 3.562 L 11.753 3.562 Q 11.304 4.023 11.144 4.632 L 11.144 4.632 L 11.144 4.632 Q 10.984 5.242 10.984 5.943 L 10.984 5.943 L 10.984 5.943 Q 10.984 7.063 11.47 7.925 L 11.47 7.925 L 11.47 7.925 Q 11.956 8.786 12.88 8.786 L 12.88 8.786 L 12.88 8.786 Q 13.778 8.786 14.443 7.678 L 14.443 7.678 L 15.969 8.257 L 15.969 8.257 Q 15.009 10.386 12.88 10.386 L 12.88 10.386 Z M 8.19 10.251 L 6.406 10.251 L 5.741 8.466 L 2.418 8.466 L 1.753 10.251 L -0.031 10.251 L 3.267 1.635 L 4.892 1.635 L 8.19 10.251 L 8.19 10.251 Z M -0.031 12.5 L 15.969 12.5 L 15.969 14.5 L -0.031 14.5 L -0.031 12.5 Z"/>
</svg>
