<svg xmlns="http://www.w3.org/2000/svg" style="isolation:isolate" width="16" height="16" viewBox="0 0 16 16">
 <defs>
  <clipPath id="_clipPath_VN54H5nLBcJ7HlrpI5lQcji5cfmyzJPc">
   <rect width="16" height="16"/>
  </clipPath>
 </defs>
 <g clip-path="url(#_clipPath_VN54H5nLBcJ7HlrpI5lQcji5cfmyzJPc)">
  <rect fill="#d4be98" width="4.625" height="3.594" x="17.19" y=".06" transform="matrix(1,0,0,1,0,0)"/>
  <path fill="#d4be98" d="M 8 1 C 4.134 1 1 4.134 1 8 C 1 11.866 4.134 15 8 15 C 9.713 15 11.293 14.389 12.51 13.368 L 14.141 15 L 15 14.142 L 13.368 12.51 C 14.39 11.294 15 9.713 15 8.001 C 15 4.134 11.866 1.001 8 1.001 L 8 1 Z M 8 2.077 C 11.141 2.077 13.706 4.523 13.907 7.613 L 4.45 3.273 C 5.44 2.528 6.665 2.078 8 2.078 L 8 2.077 Z M 3.255 4.467 L 7.579 13.906 C 4.505 13.69 2.076 11.129 2.076 8 C 2.076 6.674 2.518 5.454 3.254 4.466 L 3.255 4.467 Z M 4.803 4.82 L 10.036 7.293 L 7.277 10.036 L 4.803 4.82 Z M 11.214 7.832 L 13.822 9.111 C 13.636 10.095 13.202 10.989 12.594 11.736 L 11.568 10.709 L 10.709 11.568 L 11.736 12.594 C 10.985 13.204 10.083 13.638 9.094 13.822 L 7.832 11.214 L 11.214 7.832 Z"/>
 </g>
</svg>
