<svg xmlns="http://www.w3.org/2000/svg" width="16" height="16" version="1.1" viewBox="0 0 16 16">
 <defs>
  <style id="current-color-scheme" type="text/css">
   .ColorScheme-Text { color:#d4be98; } .ColorScheme-Highlight { color:#d4be98; } .ColorScheme-ButtonBackground { color:#d4be98; }
  </style>
 </defs>
 <path style="fill:currentColor" class="ColorScheme-Text" d="m 1.0688911,11.226171 c 0.09069,-0.211941 1.883962,-4.3458169 1.969509,-4.5599419 0.08568,-0.214124 -0.08568,-0.310461 -0.160561,-0.106998 -0.07489,0.203335 -2.194296,4.8489519 -2.312083,5.1165109 -0.11766,0.267688 -0.11766,0.449572 0.342573,0.449572 0.460233,0 6.347567,0 6.347567,0 V 12.5 h 1.4986147 v -0.406798 c 0,0 6.2083292,0 6.4331152,0 0.224786,0 0.428121,-0.04277 0.235447,-0.449572 -0.192673,-0.406798 -2.183634,-4.8061779 -2.27997,-5.0416249 -0.09634,-0.235447 -0.278221,-0.139111 -0.203335,0.0429 0.07489,0.182012 1.926736,4.4100409 2.001621,4.6135039 0.07489,0.203335 0.171223,0.524458 -0.695808,0.524458 -1.166703,0 -3.211226,-0.813468 -4.09971,-0.813468 -0.8884812,0 -1.7228869,0.524458 -2.1458689,1.081027 -0.422983,-0.396008 -0.95823,-1.081155 -2.10361,-1.081155 -1.145381,0 -2.601094,0.802806 -4.088919,0.802806 -0.55657,0 -0.950266,-0.05099 -0.738582,-0.545908 z"/>
 <path style="fill:currentColor" class="ColorScheme-Text" d="m 14.288483,10.669601 c -0.171223,-0.460233 -1.85185,-4.8704029 -1.85185,-4.8704029 0,0 -0.160561,0.05356 -0.492345,0.05356 -1.081156,0 -2.3014232,-0.717131 -2.7831072,-0.717131 -0.503135,0 -1.1611787,0.55657 -1.1611787,0.55657 0,0 -0.765557,-0.55657 -1.129453,-0.55657 -0.674357,0 -1.55205,0.70647 -2.868653,0.70647 -0.28901,0 -0.460233,-0.04277 -0.460233,-0.04277 0,0 -1.787625,4.7311639 -1.916074,5.0522859 -0.128449,0.321123 -0.128578,0.535247 0.353235,0.535247 1.156041,0 3.243338,-1.049043 3.896245,-1.049043 1.198815,0 2.124933,1.348715 2.124933,1.348715 0,0 1.0220687,-1.338054 2.1138859,-1.338054 1.091818,0 2.568982,1.059705 3.928358,1.059705 0.417459,0 0.417459,-0.278349 0.246237,-0.738582 z m -6.5830149,-0.09634 c 0,0 -0.578021,-0.7064704 -1.712611,-0.7064704 -1.177493,0 -2.932878,1.0275934 -3.425351,1.0275934 -0.278349,0 -0.438911,-0.06423 -0.321123,-0.460233 0.117788,-0.396009 1.530728,-4.1745939 1.530728,-4.1745939 0,0 0.203591,0.02145 0.492345,0.02145 1.316603,0 1.798287,-0.610133 2.568981,-0.610133 0.524457,0 0.802806,0.299671 0.867031,0.513796 z m 5.7468119,0.321123 c -0.492346,0 -2.247859,-1.0275934 -3.425352,-1.0275934 -1.1345912,0 -1.7126109,0.7064704 -1.7126109,0.7064704 V 6.1845421 c 0.06422,-0.214124 0.3425727,-0.513796 0.8670307,-0.513796 0.770694,0 1.2523782,0.610133 2.5689822,0.610133 0.288753,0 0.492345,-0.02145 0.492345,-0.02145 0,0 1.412939,3.7785859 1.530727,4.1745939 0.117788,0.396137 -0.04277,0.460362 -0.321122,0.460361 z"/>
</svg>
