<svg xmlns="http://www.w3.org/2000/svg" style="isolation:isolate" width="16" height="16" viewBox="0 0 16 16">
 <defs>
  <clipPath id="_clipPath_he6fytK0Cdllhmyxzea5ws3DkyONcunw">
   <rect width="16" height="16"/>
  </clipPath>
 </defs>
 <g clip-path="url(#_clipPath_he6fytK0Cdllhmyxzea5ws3DkyONcunw)">
  <path fill="#d4be98" fill-rule="evenodd" d="M 10.378 0.057 C 14.304 1.636 15.957 5.081 14.189 8 C 16.012 10.943 14.434 14.357 10.549 15.875 C 13.802 14.738 15.996 11.569 16 8 C 16 4.358 13.722 1.139 10.378 0.057 L 10.378 0.057 Z M 5.45 0.125 C 2.198 1.262 0.005 4.431 0 8 C 0 11.642 2.279 14.861 5.622 15.943 C 1.696 14.364 0.043 10.919 1.811 8 C -0.011 5.057 1.566 1.643 5.45 0.125 L 5.45 0.125 Z M 9.622 3.081 C 11.091 3.937 12.04 5.867 12.041 8 C 12.039 10.134 11.088 12.064 9.618 12.918 C 11.744 12.22 13.181 10.237 13.184 8 C 13.182 5.764 11.746 3.78 9.622 3.081 L 9.622 3.081 Z M 6.382 3.082 C 4.256 3.78 2.819 5.763 2.816 8 C 2.818 10.236 4.253 12.219 6.377 12.919 C 4.909 12.063 3.96 10.133 3.959 8 C 3.961 5.867 4.912 3.937 6.382 3.082 L 6.382 3.082 Z M 5.44 8 C 5.44 6.587 6.587 5.44 8 5.44 C 9.413 5.44 10.56 6.587 10.56 8 C 10.56 9.413 9.413 10.56 8 10.56 C 6.587 10.56 5.44 9.413 5.44 8 Z"/>
  <rect fill="#d4be98" width="4.625" height="3.594" x="17.09" y="-.09" transform="matrix(1,0,0,1,0,0)"/>
 </g>
</svg>
