<svg xmlns="http://www.w3.org/2000/svg" style="isolation:isolate" width="16" height="16" viewBox="0 0 16 16">
 <path fill="#d4be98" d="M 12.361 0.002 C 9.529 0.073 6.83 2.433 4.881 4.028 C 4.182 4.6 3.153 5.752 3.202 5.8 C 3.25 5.848 4.286 5.001 4.795 4.589 C 7.12 2.712 9.79 1.653 11.602 1.656 C 12.277 1.658 13.271 2.055 13.691 2.531 C 14.17 3.076 14.326 3.495 14.337 4.733 C 14.344 5.426 14.029 6.449 14.111 6.398 C 14.311 6.276 15.088 3.985 15.181 3.1 C 15.322 1.762 14.642 0.384 13.583 0.12 C 13.175 0.028 12.765 -0.009 12.361 0.002 Z M 2.541 0.8 C 1.993 0.794 1.556 0.883 1.208 1.077 C -2.221 3.307 2.544 9.54 4.472 11.464 C 4.961 11.944 5.97 12.8 6.03 12.8 C 6.09 12.8 5.052 11.639 4.409 10.786 C 2.589 8.371 1.579 6.101 1.622 4.405 C 1.646 3.438 1.986 2.657 2.658 2.142 C 3.058 1.836 3.53 1.473 4.514 1.592 L 6.4 2.003 C 5.25 1.286 3.995 0.834 2.541 0.8 Z M 9.97 3.2 C 9.91 3.2 10.948 4.361 11.591 5.214 C 13.411 7.629 14.421 9.899 14.378 11.595 C 14.354 12.562 14.014 13.343 13.342 13.858 C 12.942 14.164 12.47 14.527 11.486 14.408 L 9.6 13.997 C 10.75 14.714 12.005 15.166 13.459 15.2 C 14.007 15.206 14.444 15.117 14.792 14.923 C 18.221 12.693 13.456 6.46 11.528 4.536 C 11.039 4.056 10.03 3.2 9.97 3.2 Z M 8 6.4 C 7.116 6.4 6.4 7.116 6.4 8 C 6.4 8.884 7.116 9.6 8 9.6 C 8.884 9.6 9.6 8.884 9.6 8 C 9.6 7.116 8.884 6.4 8 6.4 Z M 1.889 9.602 C 1.689 9.724 0.912 12.015 0.819 12.9 C 0.678 14.238 1.358 15.616 2.417 15.88 C 2.825 15.972 3.235 16.009 3.639 15.998 C 6.471 15.927 9.17 13.567 11.119 11.972 C 11.818 11.4 12.847 10.248 12.798 10.2 C 12.75 10.152 11.714 10.999 11.205 11.411 C 8.88 13.288 6.21 14.347 4.398 14.344 C 3.723 14.343 2.729 13.945 2.309 13.469 C 1.83 12.924 1.674 12.505 1.663 11.267 C 1.656 10.574 1.971 9.551 1.889 9.602 Z"/>
</svg>
