<svg xmlns="http://www.w3.org/2000/svg" style="isolation:isolate" width="16" height="16" viewBox="0 0 16 16">
 <path fill="#d4be98" d="M 8 0 C 1.841 0 1.684 0.004 1.523 0.1 C 1.183 0.304 1.2 0.051 1.2 4.814 C 1.2 9.647 1.194 9.55 1.566 10.487 C 1.993 11.566 2.682 12.477 3.813 13.467 C 4.761 14.298 5.886 15.05 7.141 15.689 C 7.565 15.905 7.784 16.003 8 16 C 8.216 16.003 8.435 15.905 8.859 15.689 C 10.114 15.05 11.239 14.298 12.187 13.467 C 13.318 12.477 14.007 11.566 14.434 10.487 C 14.806 9.55 14.8 9.647 14.8 4.814 C 14.8 0.051 14.817 0.304 14.477 0.1 C 14.316 0.004 14.159 0 8 0 Z M 8 2.4 C 10.475 2.4 11.478 2.404 12.383 2.411 C 12.39 3.051 12.4 3.346 12.4 4.814 C 12.4 7.232 12.394 8.438 12.361 8.958 C 12.327 9.477 12.398 9.112 12.203 9.603 C 11.93 10.292 11.551 10.835 10.606 11.662 C 9.889 12.29 8.985 12.872 8 13.397 L 8 2.4 Z"/>
</svg>
