<svg xmlns="http://www.w3.org/2000/svg" style="isolation:isolate" width="16" height="16" viewBox="0 0 16 16">
 <path fill="#d4be98" fill-rule="evenodd" d="M 6.163 0.947 C 5.875 3.103 6.26 5.404 7.435 7.43 C 6.818 8.403 6.078 9.314 5.215 9.982 C 3.511 7.799 2.856 5.101 3.147 2.552 C 4.015 1.777 5.048 1.226 6.163 0.947 Z M 2.45 3.256 C 2.339 5.748 3.091 8.254 4.66 10.408 C 3.782 11.019 2.816 11.5 1.8 11.815 C 1.081 10.685 0.7 9.365 0.7 8 L 0.7 8 C 0.7 6.251 1.326 4.575 2.45 3.256 Z M 2.156 12.348 C 4.514 11.552 6.622 9.982 7.99 7.734 C 9.162 7.734 10.334 7.977 11.382 8.341 C 10.057 11.407 7.44 13.567 4.387 14.336 C 3.824 14.02 3.305 13.625 2.84 13.16 C 2.587 12.907 2.355 12.638 2.156 12.348 Z M 5.293 14.755 C 8.202 13.77 10.68 11.576 11.938 8.646 C 13.017 9.15 13.989 9.81 14.809 10.577 C 14.464 11.542 13.899 12.421 13.16 13.16 C 11.79 14.53 9.94 15.3 8 15.3 C 7.059 15.3 6.138 15.119 5.293 14.755 Z M 15.05 9.853 C 13.166 8.203 10.722 7.185 7.99 7.126 C 7.374 6.093 7.004 4.999 6.819 3.905 C 7.227 3.859 7.633 3.837 8.034 3.836 C 10.714 3.829 13.203 4.798 15.112 6.456 C 15.243 6.955 15.3 7.474 15.3 8 C 15.3 8.633 15.218 9.256 15.05 9.853 Z M 14.794 5.388 C 12.554 3.713 9.713 2.889 6.757 3.297 C 6.702 2.488 6.702 1.632 6.834 0.812 C 7.213 0.732 7.605 0.7 8 0.7 C 9.94 0.7 11.79 1.47 13.16 2.84 C 13.89 3.57 14.45 4.437 14.794 5.388 Z M 0 8 C 0 3.585 3.585 0 8 0 C 12.415 0 16 3.585 16 8 C 16 12.415 12.415 16 8 16 C 3.585 16 0 12.415 0 8 L 0 8 Z"/>
</svg>
