<svg xmlns="http://www.w3.org/2000/svg" style="isolation:isolate" width="16" height="16" viewBox="0 0 16 16">
 <path fill="#d4be98" fill-rule="evenodd" d="M 5.6 8 L 2.4 8 L 2.4 1.6 L 5.6 1.6 L 5.6 8 L 5.6 8 L 5.6 8 L 5.6 8 Z M 3.2 12.8 C 3.2 12.358 3.558 12 4 12 C 4.442 12 4.8 12.358 4.8 12.8 C 4.8 13.242 4.442 13.6 4 13.6 C 3.558 13.6 3.2 13.242 3.2 12.8 L 3.2 12.8 L 3.2 12.8 Z M 12 14.4 C 11.42 14.413 10.878 14.111 10.584 13.611 C 10.29 13.111 10.29 12.491 10.584 11.99 C 10.878 11.49 11.419 11.188 11.999 11.201 C 12.869 11.22 13.564 11.93 13.564 12.8 C 13.564 13.67 12.869 14.38 12 14.4 L 12 14.4 L 12 14.4 Z M 13.6 8 L 10.4 8 L 10.4 1.6 L 13.6 1.6 L 13.6 8 L 13.6 8 L 13.6 8 Z M 4 14.4 C 3.42 14.413 2.878 14.111 2.584 13.611 C 2.29 13.111 2.29 12.491 2.584 11.99 C 2.878 11.49 3.419 11.188 3.999 11.201 C 4.869 11.22 5.564 11.93 5.564 12.8 C 5.564 13.67 4.869 14.38 4 14.4 L 4 14.4 L 4 14.4 L 4 14.4 Z M 13.6 0 L 10.4 0 C 9.516 0 8.8 0.716 8.8 1.6 L 8.8 14.4 C 8.8 15.284 9.516 16 10.4 16 L 13.6 16 C 14.484 16 15.2 15.284 15.2 14.4 L 15.2 1.6 C 15.2 0.716 14.484 0 13.6 0 L 13.6 0 L 13.6 0 Z M 5.6 0 L 2.4 0 C 1.516 0 0.8 0.716 0.8 1.6 L 0.8 14.4 C 0.8 15.284 1.516 16 2.4 16 L 5.6 16 C 6.484 16 7.2 15.284 7.2 14.4 L 7.2 1.6 C 7.2 0.716 6.484 0 5.6 0 L 5.6 0 L 5.6 0 L 5.6 0 Z M 11.2 12.8 C 11.2 12.358 11.558 12 12 12 C 12.442 12 12.8 12.358 12.8 12.8 C 12.8 13.242 12.442 13.6 12 13.6 C 11.558 13.6 11.2 13.242 11.2 12.8 Z"/>
</svg>
