<svg xmlns="http://www.w3.org/2000/svg" style="isolation:isolate" width="16" height="16" viewBox="0 0 16 16">
 <path fill="#d4be98" d="M 7.976 0 C 7.859 0 7.739 0.061 7.685 0.17 L 7.285 0.991 L 6.375 1.121 C 6.253 1.139 6.152 1.224 6.114 1.341 C 6.077 1.457 6.107 1.586 6.194 1.671 L 6.855 2.312 L 6.705 3.212 C 6.685 3.332 6.726 3.451 6.825 3.522 C 6.924 3.594 7.058 3.609 7.165 3.552 L 7.976 3.122 L 8.786 3.552 C 8.833 3.575 8.884 3.585 8.936 3.582 C 9.002 3.582 9.07 3.563 9.126 3.522 C 9.225 3.451 9.266 3.332 9.246 3.212 L 9.096 2.312 L 9.757 1.671 C 9.844 1.586 9.874 1.457 9.837 1.341 C 9.799 1.224 9.698 1.138 9.577 1.12 L 8.666 0.99 L 8.266 0.17 C 8.212 0.061 8.092 0 7.976 0 Z M 7.976 3.842 L 7.465 4.113 C 7.327 4.185 7.17 4.223 7.015 4.223 C 6.994 4.223 6.976 4.224 6.955 4.223 L 4.553 7.295 C 4.49 7.377 4.464 7.485 4.493 7.585 C 4.523 7.685 4.605 7.762 4.703 7.795 C 4.732 7.804 5.08 7.912 5.574 8.025 C 5.583 8.028 5.594 8.033 5.604 8.035 C 5.755 8.069 5.904 8.093 6.084 8.125 C 6.187 8.144 6.293 8.158 6.405 8.175 C 6.532 8.195 6.659 8.219 6.795 8.235 C 6.97 8.256 7.149 8.271 7.335 8.285 C 7.564 8.301 7.804 8.315 8.046 8.315 C 8.267 8.315 8.477 8.309 8.686 8.295 C 8.825 8.286 8.955 8.269 9.086 8.255 C 9.174 8.246 9.262 8.236 9.346 8.225 L 9.357 8.225 C 9.544 8.2 9.731 8.17 9.917 8.135 C 9.923 8.134 9.93 8.136 9.937 8.135 C 10.071 8.11 10.188 8.091 10.307 8.065 C 10.357 8.054 10.381 8.046 10.427 8.035 C 10.724 7.968 11.018 7.888 11.307 7.795 C 11.404 7.762 11.479 7.683 11.508 7.585 C 11.536 7.486 11.511 7.376 11.448 7.294 L 9.046 4.213 C 9.01 4.216 8.974 4.223 8.936 4.223 C 8.781 4.223 8.623 4.185 8.486 4.113 L 7.976 3.842 Z M 5.124 8.575 L 3.022 11.127 C 2.966 11.194 2.941 11.281 2.952 11.367 C 2.964 11.455 3.011 11.536 3.083 11.587 C 3.11 11.607 3.521 11.884 4.533 12.118 C 4.635 12.141 4.72 12.165 4.834 12.188 C 4.841 12.189 4.846 12.186 4.854 12.188 C 5.044 12.225 5.256 12.255 5.484 12.288 C 5.679 12.315 5.871 12.347 6.094 12.368 L 6.195 12.378 C 6.202 12.379 6.207 12.377 6.214 12.378 C 6.387 12.393 6.575 12.407 6.765 12.418 L 6.775 12.418 C 7.166 12.44 7.586 12.458 8.056 12.458 C 8.283 12.458 8.507 12.454 8.716 12.448 C 11.87 12.361 12.825 11.661 12.929 11.577 C 12.995 11.524 13.04 11.442 13.049 11.357 C 13.058 11.274 13.033 11.191 12.979 11.127 L 10.877 8.585 C 10.246 8.748 9.213 8.956 8.046 8.956 C 6.861 8.956 5.773 8.738 5.124 8.575 L 5.124 8.575 Z M 3.683 12.548 L 1.852 14.559 C 1.787 14.629 1.758 14.725 1.772 14.819 C 1.785 14.914 1.839 15.001 1.922 15.049 C 1.987 15.088 3.558 16 8.075 16 C 12.601 16 14.03 15.078 14.089 15.039 C 14.167 14.991 14.218 14.91 14.229 14.819 C 14.241 14.725 14.212 14.63 14.149 14.559 L 12.328 12.568 C 11.534 12.833 10.203 13.098 8.056 13.098 C 5.871 13.098 4.495 12.811 3.683 12.548 L 3.683 12.548 Z"/>
</svg>
