<svg xmlns="http://www.w3.org/2000/svg" width="16" height="16" version="1.1">
 <g transform="matrix(0.37795287,0,0,0.37795287,-4.5961482,-91.469933)" style="fill:#d4be98">
  <g transform="translate(1.5875197,-1.4176813)" style="fill:#d4be98">
   <path style="fill:#d4be98" d="m 31.739781,244.7551 a 1.9843753,1.9843753 0 0 0 -0.1899,0.0112 c -10.84781,0.10388 -19.653846,8.96044 -19.653846,19.83214 0,10.93591 8.907852,19.84377 19.84375,19.84377 10.869099,0 19.724215,-8.80189 19.832125,-19.6461 a 1.9843753,1.9843753 0 0 0 0.01162,-0.19763 1.9843753,1.9843753 0 0 0 -1.984376,-1.98439 1.9843753,1.9843753 0 0 0 -1.984373,1.98439 c 0,8.79102 -7.083976,15.87499 -15.875001,15.87499 -8.791025,0 -15.875001,-7.08397 -15.875001,-15.87499 0,-8.79101 7.083976,-15.87499 15.875001,-15.87499 a 1.9843753,1.9843753 0 0 0 1.984377,-1.98438 1.9843753,1.9843753 0 0 0 -1.984377,-1.98439 z m 0,7.93752 a 1.9843753,1.9843753 0 0 0 -0.1899,0.007 c -6.464472,0.10312 -11.716347,5.41046 -11.716347,11.89852 0,6.55216 5.354115,11.90626 11.906251,11.90626 6.48539,0 11.787073,-5.24779 11.894627,-11.70859 a 1.9843753,1.9843753 0 0 0 0.01162,-0.19763 1.9843753,1.9843753 0 0 0 -1.984377,-1.98439 1.9843753,1.9843753 0 0 0 -1.984373,1.98439 c 0,4.40727 -3.530235,7.93752 -7.937502,7.93752 -4.407267,0 -7.937502,-3.53025 -7.937502,-7.93752 0,-4.40726 3.530235,-7.93751 7.937502,-7.93751 a 1.9843753,1.9843753 0 0 0 1.984377,-1.98435 1.9843753,1.9843753 0 0 0 -1.984377,-1.98439 z m 0,7.93751 a 3.9687504,3.9687504 0 0 0 -3.968749,3.96874 3.9687504,3.9687504 0 0 0 3.968749,3.96874 3.9687504,3.9687504 0 0 0 3.96875,-3.96874 3.9687504,3.9687504 0 0 0 -3.96875,-3.96874 z"/>
  </g>
 </g>
</svg>
