<svg xmlns="http://www.w3.org/2000/svg" width="16" height="16" version="1.1">
 <path d="m 6.5164237,15.485771 c -0.089,-0.0151 -0.16361,-0.0499 -0.20402,-0.0954 -0.0432,-0.0485 -0.0642,-0.14728 -0.083,-0.38982 -0.0301,-0.38831 0.0178,-0.59623 0.15305,-0.66526 0.15333,-0.0782 0.57096,-0.0885 0.71019,-0.0175 0.0921,0.047 0.14027,0.14692 0.13285,0.27561 l -0.005,0.0887 -0.0926,0.005 c -0.10329,0.006 -0.1359,-0.0179 -0.1359,-0.0989 0,-0.0804 -0.0537,-0.1087 -0.21855,-0.11519 -0.17335,-0.007 -0.26285,0.0213 -0.28925,0.0907 -0.0267,0.0702 -0.0214,0.57372 0.007,0.64105 0.0298,0.0712 0.0934,0.0948 0.25567,0.0948 0.19837,0 0.26231,-0.0413 0.26231,-0.16943 0,-0.0593 0.039,-0.0845 0.13004,-0.0842 0.10367,4.2e-4 0.11358,0.0143 0.10162,0.14238 -0.0188,0.20166 -0.0707,0.26161 -0.25593,0.29577 -0.11231,0.0207 -0.34971,0.0214 -0.46815,10e-4 z m 1.47466,-10e-4 c -0.19916,-0.0353 -0.22916,-0.0905 -0.22916,-0.42177 0,-0.28259 0.0192,-0.33954 0.13343,-0.39573 0.0703,-0.0346 0.33205,-0.0473 0.45415,-0.0221 0.15924,0.0329 0.20922,0.15074 0.19613,0.4624 -0.009,0.22128 -0.0384,0.2968 -0.13276,0.34495 -0.0772,0.0394 -0.28974,0.0556 -0.42179,0.0322 z m 0.30915,-0.19948 c 0.0336,-0.0336 0.0371,-0.0542 0.0371,-0.22226 0,-0.17016 -0.003,-0.18833 -0.0386,-0.22377 -0.0322,-0.0322 -0.0566,-0.0386 -0.14761,-0.0386 -0.091,0 -0.11545,0.006 -0.14761,0.0386 -0.0354,0.0354 -0.0385,0.0537 -0.0385,0.22165 0,0.19218 0.0111,0.22615 0.084,0.25767 0.0627,0.0271 0.21042,0.007 0.25121,-0.0333 z m 1.5978896,0.20112 c -0.2037696,-0.0367 -0.2516296,-0.1244 -0.2449696,-0.4488 0.005,-0.2504 0.0287,-0.31018 0.14421,-0.3661 0.0625,-0.0303 0.1076196,-0.0377 0.2311193,-0.0379 0.17939,-4e-4 0.26342,0.0236 0.32062,0.0916 0.066,0.0784 0.10591,0.33483 0.0571,0.36644 -0.0116,0.008 -0.1392,0.0175 -0.28347,0.0222 l -0.2623097,0.008 0.002,0.0748 c 0.002,0.10361 0.0457,0.13677 0.1790097,0.13677 0.11903,0 0.15845,-0.0174 0.17329,-0.0765 0.0104,-0.0413 0.016,-0.0433 0.10772,-0.0385 0.0894,0.005 0.0971,0.008 0.10178,0.048 0.007,0.0582 -0.0601,0.15382 -0.13215,0.18892 -0.0708,0.0345 -0.28166,0.051 -0.3935997,0.0308 z m 0.3128897,-0.57498 c -0.008,-0.0931 -0.0433,-0.1192 -0.16332,-0.1192 -0.1184997,0 -0.1703597,0.0271 -0.1834897,0.0957 -0.0166,0.0868 -0.006,0.092 0.1801497,0.0867 l 0.17143,-0.005 z m 2.513351,0.57407 c -0.0892,-0.0223 -0.14047,-0.0598 -0.17172,-0.12566 -0.0639,-0.13467 -0.0124,-0.30152 0.11006,-0.35676 0.0928,-0.0418 0.28746,-0.0426 0.36687,-10e-4 0.05,0.0259 0.0563,0.0261 0.0656,0.002 0.0167,-0.0435 -0.006,-0.16062 -0.0375,-0.19571 -0.0222,-0.0245 -0.0522,-0.0325 -0.12185,-0.0325 -0.084,0 -0.0973,0.005 -0.14665,0.0592 -0.0473,0.0516 -0.0645,0.0592 -0.13397,0.0592 -0.0962,0 -0.11182,-0.0253 -0.0772,-0.1253 0.0365,-0.10552 0.1119,-0.13581 0.33704,-0.13538 0.14308,2.8e-4 0.19294,0.007 0.25596,0.0355 0.12138,0.0546 0.13547,0.1085 0.12957,0.49591 l -0.005,0.31308 -0.0951,0.005 c -0.0841,0.004 -0.0962,9.5e-4 -0.10427,-0.0299 l -0.009,-0.035 -0.0569,0.0336 c -0.0675,0.0398 -0.21678,0.0565 -0.30602,0.0342 z m 0.33691,-0.17797 c 0.0336,-0.0336 0.0407,-0.0533 0.032,-0.0888 -0.0182,-0.0745 -0.0511,-0.0943 -0.1684,-0.10178 -0.10033,-0.006 -0.11272,-0.003 -0.15441,0.0384 -0.037,0.037 -0.0434,0.0552 -0.0348,0.0992 0.0149,0.076 0.0516,0.0962 0.1749,0.0962 0.0927,0 0.11349,-0.006 0.1507,-0.0432 z m -7.2604003,0.15229 c -0.73462,-0.10004 -1.45355,-0.44816 -1.98883,-0.96304 -0.37188,-0.35771 -0.67312,-0.79677 -0.8481,-1.2361 -0.23046,-0.57865 -0.34018,-1.00209 -0.42544,-1.64189 -0.0331,-0.2487 -0.0383,-0.36249 -0.0385,-0.84582 -2.2e-4,-0.57664 0.009,-0.70729 0.0937,-1.3115505 0.32466,-2.3201302 1.51763,-4.7884502 3.09503,-6.4038102 0.58712,-0.60124 1.15846,-1.04293 1.76014,-1.36072 0.19636,-0.10371 0.58707,-0.26958 0.7277,-0.30893 0.0797,-0.0223 2.2784393,-0.82216996 2.3926593,-0.87041996 0.0499,-0.0211 0.0636,-0.0224 0.0571,-0.005 -0.005,0.0123 -0.17709,0.44192 -0.38303,0.95474996 -0.20595,0.51283 -0.3744497,0.94323 -0.3744497,0.95645 0,0.0132 0.0605,0.10093 0.1345697,0.19491 l 0.13457,0.17089 0.003,5.75194 c 10e-4,3.3761507 -0.004,5.7519407 -0.0126,5.7519407 -0.008,0 -0.1514497,-0.15231 -0.3180393,-0.33846 -0.16659,-0.18616 -0.31246,-0.33847 -0.32415,-0.33847 -0.0117,0 -0.0603,0.0644 -0.10814,0.14307 -0.0478,0.0787 -0.14117,0.21577 -0.20749,0.30462 -0.17382,0.23286 -0.63356,0.68793 -0.66411,0.65737 -0.004,-0.004 0.0308,-0.0595 0.0784,-0.12238 0.30471,-0.40252 0.51074,-0.96759 0.59276,-1.62576 0.0268,-0.21534 0.0273,-0.85464 7.5e-4,-1.10847 -0.21457,-2.0536505 -1.38993,-4.1681007 -2.86555,-5.1550507 -0.22222,-0.14863 -0.56558,-0.32317 -0.76446,-0.38861 -0.076,-0.025 -0.4803,-0.17036 -0.89839,-0.32301 -0.41808,-0.15264 -0.76641,-0.27127 -0.77406,-0.26362 -0.008,0.008 0.0964,0.28963 0.23131,0.62663 0.13487,0.33701 0.24521,0.62239 0.24521,0.6342 0,0.0118 -0.0381,0.0685 -0.0846,0.12603 l -0.0846,0.10458 v 3.7748207 c 0,2.14019 0.006,3.77482 0.0148,3.77482 0.008,0 0.10522,-0.10269 0.21577,-0.22821 0.11054,-0.12552 0.20644,-0.22833 0.21309,-0.22846 0.007,-1.4e-4 0.0562,0.0662 0.11,0.14751 0.123,0.18564 0.40014,0.47463 0.57796,0.60266 0.18498,0.13318 0.45009,0.26811 0.6538,0.33274 0.0931,0.0295 0.18446,0.0601 0.20307,0.068 0.0532,0.0224 -0.17893,0.0164 -0.37026,-0.01 z m 1.58798,0.005 c -0.004,-0.0117 -0.006,-0.28014 -0.004,-0.59654 l 0.004,-0.57528 h 0.0931 0.0931 l 0.004,0.59655 0.004,0.59654 h -0.0938 c -0.0597,0 -0.0968,-0.008 -0.10198,-0.0213 z m 1.33684,-2.4e-4 c -0.005,-0.0118 -0.006,-0.20031 -0.004,-0.41885 l 0.005,-0.39734 h 0.0931 c 0.0836,0 0.0936,0.004 0.0985,0.0381 0.007,0.0466 0.01,0.0468 0.0687,0.003 0.12092,-0.0894 0.33295,-0.0758 0.42339,0.0272 0.0664,0.0757 0.0718,0.11355 0.0659,0.46473 l -0.005,0.29616 -0.0959,0.005 -0.096,0.005 -0.006,-0.31528 c -0.005,-0.29222 -0.008,-0.31708 -0.0394,-0.34 -0.0551,-0.0403 -0.11198,-0.0469 -0.18508,-0.0217 -0.11165,0.0386 -0.12795,0.0907 -0.12798,0.40878 v 0.26654 h -0.0936 c -0.0601,0 -0.0966,-0.008 -0.10186,-0.0215 z m 1.8147993,0.0106 c -0.006,-0.006 -0.0116,-0.0466 -0.0116,-0.0893 0,-0.0749 0.007,-0.0861 0.20308,-0.31301 0.11169,-0.12944 0.20308,-0.24173 0.20308,-0.24953 0,-0.008 -0.0743,-0.0143 -0.165,-0.0144 -0.0907,-1.3e-4 -0.17505,-0.007 -0.18733,-0.0144 -0.014,-0.009 -0.0203,-0.0388 -0.0169,-0.0801 l 0.005,-0.066 h 0.32154 0.32154 l 0.005,0.0846 0.005,0.0846 -0.21232,0.24439 c -0.11678,0.13441 -0.20643,0.25028 -0.19923,0.25748 0.007,0.007 0.10057,0.0153 0.20747,0.0179 l 0.19436,0.005 v 0.0677 0.0677 l -0.33107,0.005 c -0.18208,0.003 -0.33629,-6.5e-4 -0.34269,-0.007 z m 0.82522,-0.0106 c -0.005,-0.0118 -0.006,-0.20031 -0.004,-0.41885 l 0.005,-0.39734 h 0.0931 0.0931 l 0.005,0.41885 0.005,0.41885 h -0.0939 c -0.0603,0 -0.0968,-0.008 -0.10215,-0.0215 z m 0.39854,-0.57927 v -0.60246 l 0.0973,0.005 0.0973,0.005 v 0.59231 0.59232 l -0.0973,0.005 -0.0973,0.005 z m 0.39694,0.57951 c -0.004,-0.0117 -0.006,-0.28014 -0.004,-0.59654 l 0.004,-0.57528 0.0915,-0.005 c 0.0617,-0.004 0.096,0.002 0.10551,0.0169 0.016,0.0252 0.02,1.1136 0.004,1.1546 -0.013,0.0339 -0.18929,0.0387 -0.20203,0.006 z m -0.79601,-1.03393 c -0.005,-0.0136 -0.007,-0.0501 -0.004,-0.0813 0.005,-0.0564 0.006,-0.0566 0.1037,-0.0617 l 0.0983,-0.005 -0.005,0.0813 -0.005,0.0813 -0.089,0.005 c -0.0659,0.004 -0.0915,-10e-4 -0.0985,-0.0195 z" style="fill:#d4be98"/>
</svg>
