<svg xmlns="http://www.w3.org/2000/svg" style="isolation:isolate" width="16" height="16" viewBox="0 0 16 16">
 <defs>
  <clipPath id="_clipPath_ToMACAUiqRQWGjtzX9sypCbtEL2PWMpN">
   <rect width="16" height="16"/>
  </clipPath>
 </defs>
 <g clip-path="url(#_clipPath_ToMACAUiqRQWGjtzX9sypCbtEL2PWMpN)">
  <rect style="fill:#d4be98" fill-opacity="0" width="16" height="16"/>
  <path fill="#d4be98" fill-rule="evenodd" d="M 14.853 4.559 L 10.815 7.083 L 10.815 8.917 L 14.853 11.441 L 16 9.606 L 13.429 8 L 16 6.394 L 14.853 4.559 L 14.853 4.559 Z M 9.806 4.559 L 5.768 7.083 L 5.768 8.917 L 9.806 11.441 L 10.953 9.606 L 8.382 8 L 10.953 6.394 L 9.806 4.559 L 9.806 4.559 Z M 0 5.26 L 5.047 5.26 L 5.047 7.423 L 0 7.423 L 0 5.26 L 0 5.26 Z M 0 8.504 L 5.047 8.504 L 5.047 10.668 L 0 10.668 L 0 8.504 L 0 8.504 Z"/>
 </g>
</svg>
