<svg xmlns="http://www.w3.org/2000/svg" style="isolation:isolate" width="16" height="16" viewBox="0 0 16 16">
 <defs>
  <clipPath id="_clipPath_3bKltcH80cDbirBnMTOUFJzfU0lVU2HC">
   <rect width="16" height="16"/>
  </clipPath>
 </defs>
 <g clip-path="url(#_clipPath_3bKltcH80cDbirBnMTOUFJzfU0lVU2HC)">
  <rect style="fill:#d4be98" fill-opacity="0" width="16" height="16"/>
  <path fill="#d4be98" d="M 14.769 14.853 C 14.016 15.232 13.231 15.518 12.413 15.711 C 11.596 15.904 10.743 16 9.855 16 C 7.204 16 5.104 15.284 3.555 13.851 C 2.005 12.412 1.231 10.464 1.231 8.005 C 1.231 5.54 2.005 3.591 3.555 2.159 C 5.104 0.72 7.204 0 9.855 0 C 10.743 0 11.596 0.096 12.413 0.289 C 13.231 0.482 14.016 0.768 14.769 1.147 L 14.769 4.468 C 14.009 3.965 13.259 3.597 12.52 3.363 C 11.781 3.129 11.15 3.012 10.333 3.012 C 8.869 3.012 7.718 3.466 6.879 4.375 C 6.041 5.284 5.621 6.408 5.621 8.005 C 5.621 9.596 6.041 10.716 6.879 11.625 C 7.718 12.534 8.869 12.988 10.333 12.988 C 11.15 12.988 11.781 12.872 12.52 12.637 C 13.259 12.403 14.009 12.035 14.769 11.532 L 14.769 14.853 Z"/>
 </g>
</svg>
