<svg xmlns="http://www.w3.org/2000/svg" style="isolation:isolate" width="16" height="16" viewBox="0 0 16 16">
 <path fill="#d4be98" fill-rule="evenodd" d="M 8.286 7.429 C 7.812 7.429 7.429 7.812 7.429 8.286 C 7.429 8.759 7.812 9.143 8.286 9.143 C 8.759 9.143 9.143 8.759 9.143 8.286 C 9.143 7.812 8.759 7.429 8.286 7.429 L 8.286 7.429 L 8.286 7.429 L 8.286 7.429 L 8.286 7.429 L 8.286 7.429 L 8.286 7.429 L 8.286 7.429 L 8.286 7.429 L 8.286 7.429 L 8.286 7.429 L 8.286 7.429 L 8.286 7.429 L 8.286 7.429 L 8.286 7.429 L 8.286 7.429 L 8.286 7.429 Z M 10.571 7.429 C 10.098 7.429 9.714 7.812 9.714 8.286 C 9.714 8.759 10.098 9.143 10.571 9.143 C 11.045 9.143 11.429 8.759 11.429 8.286 C 11.429 7.812 11.045 7.429 10.571 7.429 L 10.571 7.429 L 10.571 7.429 L 10.571 7.429 L 10.571 7.429 L 10.571 7.429 L 10.571 7.429 L 10.571 7.429 L 10.571 7.429 L 10.571 7.429 L 10.571 7.429 L 10.571 7.429 L 10.571 7.429 L 10.571 7.429 L 10.571 7.429 Z M 12.857 7.429 C 12.384 7.429 12 7.812 12 8.286 C 12 8.759 12.384 9.143 12.857 9.143 C 13.331 9.143 13.714 8.759 13.714 8.286 C 13.714 7.812 13.331 7.429 12.857 7.429 L 12.857 7.429 L 12.857 7.429 L 12.857 7.429 L 12.857 7.429 L 12.857 7.429 L 12.857 7.429 L 12.857 7.429 L 12.857 7.429 L 12.857 7.429 L 12.857 7.429 L 12.857 7.429 L 12.857 7.429 Z M 8.286 9.714 C 7.812 9.714 7.429 10.098 7.429 10.571 C 7.429 11.045 7.812 11.429 8.286 11.429 C 8.759 11.429 9.143 11.045 9.143 10.571 C 9.143 10.098 8.759 9.714 8.286 9.714 L 8.286 9.714 L 8.286 9.714 L 8.286 9.714 L 8.286 9.714 L 8.286 9.714 L 8.286 9.714 L 8.286 9.714 L 8.286 9.714 L 8.286 9.714 L 8.286 9.714 Z M 10.571 9.714 C 10.098 9.714 9.714 10.098 9.714 10.571 C 9.714 11.045 10.098 11.429 10.571 11.429 C 11.045 11.429 11.429 11.045 11.429 10.571 C 11.429 10.098 11.045 9.714 10.571 9.714 L 10.571 9.714 L 10.571 9.714 L 10.571 9.714 L 10.571 9.714 L 10.571 9.714 L 10.571 9.714 L 10.571 9.714 L 10.571 9.714 Z M 12.857 9.714 C 12.384 9.714 12 10.098 12 10.571 C 12 11.045 12.384 11.429 12.857 11.429 C 13.331 11.429 13.714 11.045 13.714 10.571 C 13.714 10.098 13.331 9.714 12.857 9.714 L 12.857 9.714 L 12.857 9.714 L 12.857 9.714 L 12.857 9.714 L 12.857 9.714 L 12.857 9.714 Z M 8.286 12 C 7.812 12 7.429 12.384 7.429 12.857 C 7.429 13.331 7.812 13.714 8.286 13.714 C 8.759 13.714 9.143 13.331 9.143 12.857 C 9.143 12.384 8.759 12 8.286 12 L 8.286 12 L 8.286 12 L 8.286 12 L 8.286 12 Z M 10.571 12 C 10.098 12 9.714 12.384 9.714 12.857 C 9.714 13.331 10.098 13.714 10.571 13.714 C 11.045 13.714 11.429 13.331 11.429 12.857 C 11.429 12.384 11.045 12 10.571 12 L 10.571 12 L 10.571 12 Z M 8 1.143 L 0 6.857 L 1.143 6.857 L 1.143 14.29 C 1.143 14.569 1.35 14.857 1.652 14.857 L 14.348 14.857 C 14.65 14.857 14.859 14.569 14.857 14.29 L 14.857 6.857 L 16 6.857 L 8 1.143 L 8 1.143 L 8 1.143 L 8 1.143 L 8 1.143 L 8 1.143 L 8 1.143 L 8 1.143 L 8 1.143 L 8 1.143 L 8 1.143 L 8 1.143 L 8 1.143 L 8 1.143 L 8 1.143 L 8 1.143 L 8 1.143 Z M 12.857 12 C 12.384 12 12 12.384 12 12.857 C 12 13.331 12.384 13.714 12.857 13.714 C 13.331 13.714 13.714 13.331 13.714 12.857 C 13.714 12.384 13.331 12 12.857 12 Z"/>
</svg>
