<svg xmlns="http://www.w3.org/2000/svg" style="isolation:isolate" width="16" height="16" viewBox="0 0 16 16">
 <path fill="#d4be98" d="M 3.2 0 L 3.2 1.6 L 2.4 1.6 C 1.516 1.6 0.8 2.316 0.8 3.2 L 0.8 14.4 C 0.8 15.284 1.516 16 2.4 16 L 13.6 16 C 14.484 16 15.2 15.284 15.2 14.4 L 15.2 3.2 C 15.2 2.316 14.484 1.6 13.6 1.6 L 12.8 1.6 L 12.8 0 L 11.2 0 L 11.2 1.6 L 4.8 1.6 L 4.8 0 L 3.2 0 Z M 2.4 5.6 L 13.6 5.6 L 13.6 14.4 L 2.4 14.4 L 2.4 5.6 Z M 6.575 7.2 C 5.591 7.2 4.8 7.99 4.8 8.975 C 4.8 10.4 8 12.95 8 12.95 C 8 12.95 11.2 10.406 11.2 8.974 C 11.2 7.99 10.41 7.2 9.425 7.2 C 8.841 7.2 8.329 7.494 8 7.925 C 7.665 7.474 7.137 7.205 6.575 7.2 Z"/>
</svg>
