<svg xmlns="http://www.w3.org/2000/svg" style="isolation:isolate" width="16" height="16" viewBox="0 0 16 16">
 <defs>
  <clipPath id="_clipPath_ugcicAqxLDmYJbzBkttaE40sSJ2QiQ6E">
   <rect width="16" height="16"/>
  </clipPath>
 </defs>
 <g clip-path="url(#_clipPath_ugcicAqxLDmYJbzBkttaE40sSJ2QiQ6E)">
  <rect style="fill:#000000" fill-opacity="0" width="16" height="16"/>
  <path fill="#d4be98" d="M 0 0.8 L 0 1.6 L 0.8 1.6 L 0.8 6.4 L 0 6.4 L 0 7.2 L 4 7.2 L 4 6.4 L 4.8 6.4 L 4.8 1.6 L 4 1.6 L 4 0.8 L 0 0.8 Z M 6.4 0.8 L 6.4 1.6 L 5.6 1.6 L 5.6 6.4 L 6.4 6.4 L 6.4 7.2 L 9.6 7.2 L 9.6 6.4 L 10.4 6.4 L 10.4 1.6 L 9.6 1.6 L 9.6 0.8 L 6.4 0.8 Z M 12 0.8 L 12 1.6 L 11.2 1.6 L 11.2 3.2 L 12 3.2 L 12 4 L 13.6 4 L 13.6 4.8 L 14.4 4.8 L 14.4 6.4 L 12.8 6.4 L 12.8 4.8 L 11.2 4.8 L 11.2 6.4 L 12 6.4 L 12 7.2 L 15.2 7.2 L 15.2 6.4 L 16 6.4 L 16 4.8 L 15.2 4.8 L 15.2 4 L 14.4 4 L 14.4 3.2 L 12.8 3.2 L 12.8 1.6 L 14.4 1.6 L 14.4 3.2 L 16 3.2 L 16 1.6 L 15.2 1.6 L 15.2 0.8 L 12 0.8 Z M 2.4 1.6 L 3.2 1.6 L 3.2 6.4 L 2.4 6.4 L 2.4 1.6 Z M 7.2 1.6 L 8.8 1.6 L 8.8 6.4 L 7.2 6.4 L 7.2 1.6 Z M 0 8.8 L 0 9.6 L 0.8 9.6 L 0.8 14.4 L 0 14.4 L 0 15.2 L 4 15.2 L 4 14.4 L 4.8 14.4 L 4.8 12 L 4 12 L 4 11.2 L 4.8 11.2 L 4.8 9.6 L 4 9.6 L 4 8.8 L 0 8.8 Z M 6.4 8.8 L 6.4 9.6 L 5.6 9.6 L 5.6 14.4 L 6.4 14.4 L 6.4 15.2 L 9.6 15.2 L 9.6 14.4 L 10.4 14.4 L 10.4 9.6 L 9.6 9.6 L 9.6 8.8 L 6.4 8.8 Z M 10.4 8.8 L 10.4 9.6 L 11.2 9.6 L 11.2 11.2 L 12 11.2 L 12 12.8 L 11.2 12.8 L 11.2 14.4 L 10.4 14.4 L 10.4 15.2 L 12 15.2 L 12 14.4 L 12.8 14.4 L 12.8 13.6 L 13.6 13.6 L 13.6 14.4 L 14.4 14.4 L 14.4 15.2 L 16 15.2 L 16 14.4 L 15.2 14.4 L 15.2 12.8 L 14.4 12.8 L 14.4 11.2 L 15.2 11.2 L 15.2 9.6 L 16 9.6 L 16 8.8 L 14.4 8.8 L 14.4 9.6 L 13.6 9.6 L 13.6 10.4 L 12.8 10.4 L 12.8 9.6 L 12 9.6 L 12 8.8 L 10.4 8.8 Z M 2.4 9.6 L 3.2 9.6 L 3.2 11.2 L 2.4 11.2 L 2.4 9.6 Z M 7.2 9.6 L 8.8 9.6 L 8.8 14.4 L 7.2 14.4 L 7.2 9.6 Z M 2.4 12 L 3.2 12 L 3.2 14.4 L 2.4 14.4 L 2.4 12 Z"/>
 </g>
</svg>
