<svg xmlns="http://www.w3.org/2000/svg" style="isolation:isolate" width="16" height="16" viewBox="0 0 16 16">
 <defs>
  <clipPath id="_clipPath_3qcBO5GrUEqanBseLwXnQclvK4zRiEh7">
   <rect width="16" height="16"/>
  </clipPath>
 </defs>
 <g clip-path="url(#_clipPath_3qcBO5GrUEqanBseLwXnQclvK4zRiEh7)">
  <rect style="fill:#000000" fill-opacity="0" width="16" height="16"/>
  <path fill="#d4be98" d="M 7.693 0 C 7.516 0 7.373 0.142 7.373 0.32 L 7.373 1.1 C 6.811 1.347 6.413 1.906 6.413 2.559 C 6.413 3.442 7.131 4.159 8.013 4.159 C 8.895 4.159 9.613 3.442 9.613 2.559 C 9.613 1.906 9.215 1.347 8.653 1.1 L 8.653 0.32 C 8.653 0.142 8.51 0 8.333 0 L 7.693 0 Z M 6.124 3.759 L 4.434 8.318 L 2.565 8.318 C 2.473 8.312 2.383 8.346 2.318 8.411 C 2.253 8.476 2.219 8.566 2.225 8.658 C 2.236 8.834 2.389 8.969 2.565 8.957 L 7.373 8.957 L 7.373 9.917 C 7.373 10.095 7.516 10.237 7.693 10.237 L 8.333 10.237 C 8.51 10.237 8.653 10.095 8.653 9.917 L 8.653 8.957 L 13.451 8.957 C 13.567 8.959 13.674 8.899 13.733 8.799 C 13.79 8.699 13.79 8.576 13.733 8.476 C 13.674 8.377 13.566 8.316 13.451 8.318 L 11.592 8.318 L 9.903 3.759 C 9.535 4.342 8.918 4.722 8.233 4.789 L 9.593 8.318 L 8.653 8.318 L 8.653 7.358 C 8.653 7.18 8.51 7.038 8.333 7.038 L 7.693 7.038 C 7.516 7.038 7.373 7.18 7.373 7.358 L 7.373 8.318 L 6.433 8.318 L 7.793 4.789 C 7.107 4.721 6.491 4.341 6.124 3.759 Z M 3.974 9.567 L 2.674 13.066 C 2.652 13.135 2.652 13.208 2.674 13.276 L 3.214 15.076 L 3.214 15.676 C 3.213 15.791 3.273 15.898 3.373 15.957 C 3.473 16.014 3.595 16.014 3.695 15.957 C 3.795 15.898 3.855 15.79 3.854 15.676 L 3.854 15.076 L 5.964 9.567 L 3.974 9.567 Z M 10.062 9.567 L 12.172 15.076 L 12.172 15.676 C 12.171 15.791 12.231 15.898 12.33 15.957 C 12.431 16.014 12.553 16.014 12.653 15.957 C 12.753 15.898 12.813 15.79 12.812 15.676 L 12.812 15.076 L 13.352 13.276 C 13.371 13.209 13.377 13.131 13.352 13.066 L 12.052 9.567 L 10.062 9.567 Z"/>
 </g>
</svg>
