<svg xmlns="http://www.w3.org/2000/svg" style="isolation:isolate" width="16" height="16" viewBox="0 0 16 16">
 <defs>
  <clipPath id="_clipPath_gECkCFXJHkZhAfIcwIk8qgHbyTNQxBiP">
   <rect width="16" height="16"/>
  </clipPath>
 </defs>
 <g clip-path="url(#_clipPath_gECkCFXJHkZhAfIcwIk8qgHbyTNQxBiP)">
  <rect style="fill:#000000" fill-opacity="0" width="16" height="16"/>
  <path fill="#d4be98" d="M 3.111 1.778 L 4.889 4 L 5.778 3.556 L 4.444 2.222 L 5.778 1.778 L 3.111 1.778 Z M 10.222 1.778 L 11.556 2.222 L 10.222 3.556 L 11.111 4 L 12.889 1.778 L 10.222 1.778 Z M 8 2.667 C 6.843 2.67 5.328 3.302 5.333 5.51 L 8 4 L 10.667 5.51 C 10.672 3.302 9.157 2.67 8 2.667 L 8 2.667 Z M 1.333 3.556 L 2.222 6.222 L 2.222 5.333 L 4 5.333 L 4.444 4.444 L 1.333 3.556 Z M 14.667 3.556 L 11.556 4.444 L 12 5.333 L 13.778 5.333 L 13.778 6.222 L 14.667 3.556 Z M 8 4.889 L 6.667 5.689 L 6.844 6.934 L 7.288 5.778 L 8.712 5.778 L 9.156 6.934 L 9.333 5.69 L 8 4.89 L 8 4.889 Z M 3.556 6.222 L 0 7.556 L 1.778 8.444 L 1.778 8 L 3.111 7.556 L 3.556 6.222 Z M 5.778 6.222 L 4 6.934 C 4.011 8.386 4.825 9.758 5.644 10.425 C 6.217 10.881 6.936 11.404 7.288 11.555 C 7.692 11.706 7.468 10.807 7.555 10.666 L 8.444 10.666 C 8.532 10.807 8.307 11.707 8.711 11.555 C 9.064 11.404 9.782 10.882 10.356 10.425 C 11.175 9.757 11.988 8.387 12 6.934 L 10.222 6.222 L 9.778 8 L 8.621 8 L 8 6.222 L 7.379 8 L 6.222 8 L 5.778 6.222 L 5.778 6.222 Z M 12.444 6.222 L 12.889 7.556 L 14.222 8 L 14.222 8.444 L 16 7.556 L 12.444 6.222 Z M 3.556 8.889 L 1.333 9.778 L 4.889 14.222 L 3.556 8.889 Z M 12.444 8.889 L 11.111 14.222 L 14.667 9.778 L 12.444 8.889 Z"/>
 </g>
</svg>
