<svg xmlns="http://www.w3.org/2000/svg" style="isolation:isolate" width="16" height="16" viewBox="0 0 16 16">
 <defs>
  <clipPath id="_clipPath_xWi3VzglsDVAtOmeN1PCr0L9VSKUzI8f">
   <rect width="16" height="16"/>
  </clipPath>
 </defs>
 <g clip-path="url(#_clipPath_xWi3VzglsDVAtOmeN1PCr0L9VSKUzI8f)">
  <rect style="fill:#d4be98" fill-opacity="0" width="16" height="16"/>
  <path fill="#d4be98" fill-rule="evenodd" d="M 5.54 2.46 C 5.54 1.102 6.642 0 8 0 C 9.358 0 10.46 1.102 10.46 2.46 C 10.46 3.817 9.358 4.919 8 4.919 C 6.642 4.919 5.54 3.817 5.54 2.46 Z M 4.838 9.487 L 4.838 16 L 6.243 16 L 6.243 12.116 C 6.746 12.453 7.35 12.65 8 12.65 C 9.745 12.65 11.162 11.233 11.162 9.487 C 11.162 7.742 9.745 6.325 8 6.325 C 6.255 6.325 4.838 7.742 4.838 9.487 Z"/>
 </g>
</svg>
