<svg xmlns="http://www.w3.org/2000/svg" style="isolation:isolate" width="16" height="16" viewBox="0 0 16 16">
 <defs>
  <clipPath id="_clipPath_lYsose02nLln2a2bzefkMn7TnAoBiKgw">
   <rect width="16" height="16"/>
  </clipPath>
 </defs>
 <g clip-path="url(#_clipPath_lYsose02nLln2a2bzefkMn7TnAoBiKgw)">
  <rect fill="#d4be98" width="4.625" height="3.594" x="17.09" y="-.09" transform="matrix(1,0,0,1,0,0)"/>
  <path fill="#d4be98" d="M 6.896 15.001 Q 7.138 15.001 7.351 14.934 Q 7.565 14.866 7.767 14.718 Q 7.969 14.569 8.087 14.282 Q 8.205 13.996 8.205 13.597 L 8.205 11.001 L 7.542 11.001 L 7.542 13.563 Q 7.542 14.366 6.902 14.366 Q 6.453 14.366 6.217 13.911 L 5.644 14.187 Q 5.818 14.574 6.144 14.788 Q 6.469 15.001 6.896 15.001 L 6.896 15.001 Z M 10.852 14.934 C 9.97 15.299 9.002 15.5 7.988 15.5 C 4.948 15.493 2.213 13.652 1.063 10.838 L 6.029 9.986 L 5.861 9 L 0.74 9.877 C 0.622 9.426 0.546 8.965 0.514 8.5 L 5.988 8.5 L 5.988 7.5 L 0.512 7.5 C 0.544 7.034 0.62 6.573 0.738 6.121 L 5.861 7 L 6.029 6.014 L 1.051 5.16 C 2.203 2.343 4.944 0.502 7.988 0.5 C 12.13 0.5 15.488 3.858 15.488 8 C 15.488 9.067 15.266 10.081 14.864 11 L 15.052 11 L 15.052 11.635 L 14.552 11.635 L 14.552 11.635 C 14.666 11.429 14.771 11.218 14.866 11.001 L 12.531 11.001 L 12.531 13.97 C 12.765 13.792 12.988 13.601 13.198 13.397 L 13.198 14.298 L 15.17 14.298 L 15.17 14.933 L 12.53 14.933 L 12.53 13.969 C 12.27 14.167 11.996 14.349 11.711 14.512 L 11.711 14.299 L 9.739 14.299 L 9.739 13.22 L 10.947 13.22 L 10.947 12.586 L 9.739 12.586 L 9.739 11.636 L 11.593 11.636 L 11.593 11.001 L 9.071 11.001 L 9.071 14.934 L 10.852 14.934 Z M 10.86 14.933 L 11.71 14.933 L 11.71 14.515 C 11.437 14.671 11.153 14.811 10.86 14.933 Z M 14.549 11.636 C 14.365 11.968 14.156 12.285 13.925 12.584 L 14.406 12.584 L 14.406 13.219 L 13.377 13.219 C 13.571 13.018 13.755 12.807 13.926 12.586 L 13.2 12.586 L 13.2 11.636 L 14.549 11.636 L 14.549 11.636 Z M 13.373 13.22 C 13.316 13.279 13.259 13.337 13.2 13.394 L 13.2 13.22 L 13.373 13.22 L 13.373 13.22 Z"/>
 </g>
</svg>
