<svg xmlns="http://www.w3.org/2000/svg" style="isolation:isolate" width="16" height="16" viewBox="0 0 16 16">
 <defs>
  <clipPath id="_clipPath_bfvQBcnXrdrdsjDEOb3lB9R3er2GMyNe">
   <rect width="16" height="16"/>
  </clipPath>
 </defs>
 <g clip-path="url(#_clipPath_bfvQBcnXrdrdsjDEOb3lB9R3er2GMyNe)">
  <rect style="fill:#d4be98" fill-opacity="0" width="16" height="16"/>
  <path fill="#d4be98" fill-rule="evenodd" d="M 7.797 14.266 C 7.463 14.193 7.17 13.978 7.051 13.72 C 6.972 13.547 6.985 13.437 7.092 13.373 C 7.221 13.296 7.313 13.347 7.446 13.568 C 7.578 13.789 7.759 13.897 8 13.897 C 8.253 13.897 8.428 13.788 8.56 13.55 C 8.68 13.335 8.769 13.29 8.907 13.372 C 9.016 13.437 9.029 13.546 8.948 13.723 C 8.775 14.1 8.224 14.36 7.797 14.266 L 7.797 14.266 L 7.797 14.266 L 7.797 14.266 L 7.797 14.266 L 7.797 14.266 Z M 4.726 12.788 C 4.676 12.661 4.789 12.281 4.932 12.1 C 5.379 11.531 6.273 11.604 6.604 12.237 C 6.729 12.476 6.755 12.857 6.646 12.857 C 6.611 12.857 6.582 12.842 6.582 12.824 C 6.582 12.805 6.519 12.728 6.443 12.652 C 6.124 12.334 5.623 12.264 5.229 12.483 C 5.108 12.551 4.967 12.662 4.917 12.732 C 4.812 12.874 4.766 12.888 4.726 12.788 L 4.726 12.788 L 4.726 12.788 L 4.726 12.788 L 4.726 12.788 Z M 13.27 11.579 C 13.042 14.011 10.911 16 8.001 16 C 5.091 16 2.98 14.009 2.731 11.579 C 2.481 9.137 5.011 0.037 8.001 0 C 11.011 -0.037 13.507 9.048 13.27 11.579 L 13.27 11.579 L 13.27 11.579 L 13.27 11.579 L 13.27 11.579 Z M 11.274 12.788 C 11.324 12.661 11.211 12.281 11.068 12.1 C 10.621 11.531 9.727 11.604 9.396 12.237 C 9.271 12.476 9.245 12.857 9.354 12.857 C 9.389 12.857 9.418 12.842 9.418 12.824 C 9.418 12.805 9.481 12.728 9.557 12.652 C 9.876 12.334 10.377 12.264 10.771 12.483 C 10.892 12.551 11.033 12.662 11.083 12.732 C 11.188 12.874 11.234 12.888 11.274 12.788 L 11.274 12.788 Z"/>
 </g>
</svg>
