<svg xmlns="http://www.w3.org/2000/svg" style="isolation:isolate" width="16" height="16" viewBox="0 0 16 16">
 <path fill="#d4be98" d="M 6.272 10.662 L 4.916 12.137 L 4.732 13.463 L 3.935 14.38 L 3.935 14.38 C 3.977 14.467 4 14.564 4 14.667 C 4 15.035 3.701 15.333 3.333 15.333 C 2.965 15.333 2.667 15.035 2.667 14.667 C 2.667 14.299 2.965 14 3.333 14 C 3.403 14 3.47 14.011 3.534 14.031 L 4.226 13.233 L 4.412 11.897 L 5.918 10.26 C 5.911 10.253 5.905 10.245 5.898 10.238 C 5.835 10.171 5.772 10.104 5.707 10.038 L 1.304 13.805 L 1.304 13.805 L 1.304 13.805 L 1.304 13.805 L 1.304 13.805 C 1.323 13.867 1.333 13.932 1.333 14 C 1.333 14.368 1.035 14.667 0.667 14.667 C 0.299 14.667 0 14.368 0 14 C 0 13.632 0.299 13.333 0.667 13.333 C 0.77 13.333 0.869 13.357 0.956 13.4 L 5.322 9.665 C 5.234 9.583 5.145 9.504 5.055 9.426 L 3.389 10.633 L 1.942 10.633 L 1.308 11.153 L 1.308 11.153 L 1.308 11.153 C 1.325 11.21 1.333 11.271 1.333 11.333 C 1.333 11.701 1.035 12 0.667 12 C 0.299 12 0 11.701 0 11.333 C 0 10.965 0.299 10.667 0.667 10.667 C 0.776 10.667 0.879 10.693 0.97 10.74 L 1.749 10.1 L 3.216 10.1 L 4.627 9.076 C 3.569 8.256 2.412 7.692 1.408 7.588 C 1.029 7.548 0.725 7.259 0.674 6.887 C 0.623 6.515 0.836 6.157 1.191 6.019 L 14.868 0.723 C 14.967 0.685 15.072 0.666 15.178 0.667 C 15.461 0.669 15.722 0.813 15.873 1.047 C 16.023 1.282 16.041 1.576 15.922 1.828 L 9.705 14.865 C 9.542 15.207 9.16 15.394 8.784 15.316 C 8.407 15.238 8.135 14.916 8.126 14.537 C 8.101 13.53 7.385 11.997 6.272 10.662 Z"/>
</svg>
