<svg xmlns="http://www.w3.org/2000/svg" width="16" height="16" version="1.1" viewBox="0 0 16 16">
 <g transform="translate(-540,-483.99838)">
  <path d="m 547.64286,483.99838 c -2.8404,0 -5.14286,2.30914 -5.14286,5.15571 0,1.68789 0.79443,3.16131 2.04106,4.10143 0.57344,0.43406 1.04787,0.99321 1.04787,1.76464 l 0.0539,0.97822 h 4 l 0.0571,-0.97822 c 0.045,-0.77013 0.4722,-1.33058 1.04461,-1.76464 1.2477,-0.94012 2.0411,-2.41354 2.0411,-4.10143 0,-2.84657 -2.30241,-5.15571 -5.14294,-5.15571 z m 0,2.06035 c 1.70331,0 3.0857,1.38947 3.0857,3.09536 0,0.97457 -0.4438,1.87149 -1.22142,2.45571 -1.16022,0.87789 -1.59994,1.85863 -1.76143,2.67429 h -0.2057 c -0.16047,-0.81566 -0.60069,-1.7964 -1.76143,-2.67429 -0.77554,-0.58474 -1.22144,-1.48165 -1.22144,-2.45571 0,-1.70589 1.38292,-3.09536 3.08572,-3.09536 z m -2,10.93965 v 1 h 4 v -1 z m 1,2 v 1 h 2 v -1 z" style="fill:#d4be98"/>
 </g>
</svg>
