<svg xmlns="http://www.w3.org/2000/svg" style="isolation:isolate" width="16" height="16" viewBox="0 0 16 16">
 <path fill="#d4be98" fill-rule="evenodd" d="M 12.29 15.916 L 9.979 15.916 C 9.796 15.916 9.649 15.768 9.649 15.585 C 9.649 9.139 14.625 5.698 15.592 5.698 C 15.837 5.698 15.933 5.85 15.963 5.916 C 16.075 6.16 15.925 6.333 15.626 6.678 C 14.804 7.627 12.62 10.146 12.62 15.585 C 12.62 15.768 12.472 15.916 12.29 15.916 L 12.29 15.916 Z M 13.634 2.983 C 13.603 2.865 13.497 2.735 13.294 2.726 L 13.258 2.726 C 13.222 2.726 10.05 2.781 8.231 6.921 C 8.63 7.994 8.976 9.233 9.227 10.639 C 9.7 7.857 10.827 5.01 13.322 3.47 C 13.499 3.36 13.7 3.236 13.634 2.983 L 13.634 2.983 Z M 6.353 15.916 L 4.035 15.916 C 3.853 15.916 3.705 15.768 3.705 15.585 C 3.705 10.085 1.301 7.593 0.396 6.656 C 0.084 6.332 -0.073 6.17 0.033 5.922 C 0.055 5.869 0.148 5.698 0.403 5.698 C 1.128 5.698 6.639 8.846 6.677 15.518 C 6.697 15.616 6.672 15.717 6.609 15.794 C 6.547 15.871 6.453 15.916 6.353 15.916 L 6.353 15.916 Z M 8.988 15.519 C 8.964 3.65 2.43 0.084 1.724 0.084 C 1.478 0.084 1.388 0.254 1.367 0.306 C 1.27 0.543 1.426 0.698 1.662 0.932 C 3.565 2.823 4.847 5.614 5.502 9.253 C 6.535 10.866 7.313 12.936 7.337 15.466 C 7.354 15.618 7.336 15.772 7.282 15.915 L 8.665 15.915 C 8.764 15.915 8.858 15.871 8.92 15.794 C 8.983 15.717 9.008 15.616 8.988 15.519 Z"/>
</svg>
