<svg xmlns="http://www.w3.org/2000/svg" style="isolation:isolate" width="16" height="16" viewBox="0 0 16 16">
 <path fill="#d4be98" fill-rule="evenodd" d="M 14.131 1.695 L 13.708 4.182 L 14.843 4.182 L 14.843 4.182 Q 15.266 4.182 15.455 4.215 L 15.455 4.215 L 15.455 4.215 Q 15.644 4.248 15.822 4.446 L 15.822 4.446 L 15.822 4.446 Q 16 4.644 16 5.029 L 16 5.029 L 16 5.029 Q 16 5.414 15.922 5.865 L 15.922 5.865 L 15.922 5.865 Q 15.844 6.316 15.577 6.647 L 15.577 6.647 L 15.577 6.647 Q 15.31 6.977 15.065 7.021 L 15.065 7.021 L 15.065 7.021 Q 14.821 7.065 14.331 7.065 L 14.331 7.065 L 13.218 7.065 L 12.818 9.486 L 13.953 9.486 L 13.953 9.486 Q 14.376 9.486 14.565 9.519 L 14.565 9.519 L 14.565 9.519 Q 14.754 9.552 14.932 9.75 L 14.932 9.75 L 14.932 9.75 Q 15.11 9.948 15.11 10.333 L 15.11 10.333 L 15.11 10.333 Q 15.11 10.718 15.043 11.092 L 15.043 11.092 L 15.043 11.092 Q 14.976 11.466 14.832 11.774 L 14.832 11.774 L 14.832 11.774 Q 14.687 12.083 14.442 12.215 L 14.442 12.215 L 14.442 12.215 Q 14.086 12.391 13.441 12.391 L 13.441 12.391 L 12.328 12.391 L 12.328 12.391 Q 12.106 13.755 12.061 14.085 L 12.061 14.085 L 12.017 14.327 L 12.017 14.327 Q 11.928 14.812 11.872 15.01 L 11.872 15.01 L 11.872 15.01 Q 11.816 15.208 11.638 15.494 L 11.638 15.494 L 11.638 15.494 Q 11.282 16 9.992 16 L 9.992 16 L 9.992 16 Q 8.701 16 8.701 15.186 L 8.701 15.186 L 8.701 15.186 Q 8.701 15.164 8.879 14.041 L 8.879 14.041 L 9.146 12.391 L 5.83 12.391 L 5.83 12.391 Q 5.608 13.755 5.563 14.085 L 5.563 14.085 L 5.519 14.327 L 5.519 14.327 Q 5.43 14.812 5.374 15.01 L 5.374 15.01 L 5.374 15.01 Q 5.319 15.208 5.141 15.494 L 5.141 15.494 L 5.141 15.494 Q 4.784 16 3.494 16 L 3.494 16 L 3.494 16 Q 2.203 16 2.203 15.186 L 2.203 15.186 L 2.203 15.186 Q 2.203 15.164 2.381 14.041 L 2.381 14.041 L 2.648 12.391 L 1.179 12.391 L 1.179 12.391 Q 0.245 12.391 0.067 11.994 L 0.067 11.994 L 0.067 11.994 Q 0 11.818 0 11.477 L 0 11.477 L 0 11.477 Q 0 11.136 0.078 10.685 L 0.078 10.685 L 0.078 10.685 Q 0.156 10.234 0.434 9.904 L 0.434 9.904 L 0.434 9.904 Q 0.712 9.574 0.957 9.53 L 0.957 9.53 L 0.957 9.53 Q 1.202 9.486 1.691 9.486 L 1.691 9.486 L 3.138 9.486 L 3.538 7.065 L 2.07 7.065 L 2.07 7.065 Q 1.113 7.065 0.957 6.691 L 0.957 6.691 L 0.957 6.691 Q 0.89 6.492 0.89 6.162 L 0.89 6.162 L 0.89 6.162 Q 0.89 5.832 0.968 5.381 L 0.968 5.381 L 0.968 5.381 Q 1.046 4.93 1.324 4.6 L 1.324 4.6 L 1.324 4.6 Q 1.602 4.27 1.847 4.226 L 1.847 4.226 L 1.847 4.226 Q 2.092 4.182 2.581 4.182 L 2.581 4.182 L 4.028 4.182 L 4.406 1.915 L 4.406 1.915 Q 4.428 1.783 4.462 1.486 L 4.462 1.486 L 4.462 1.486 Q 4.495 1.188 4.529 1.067 L 4.529 1.067 L 4.529 1.067 Q 4.562 0.946 4.629 0.726 L 4.629 0.726 L 4.629 0.726 Q 4.695 0.506 4.818 0.418 L 4.818 0.418 L 4.818 0.418 Q 4.94 0.33 5.141 0.198 L 5.141 0.198 L 5.141 0.198 Q 5.452 0 6.275 0 L 6.275 0 L 6.275 0 Q 7.099 0 7.421 0.231 L 7.421 0.231 L 7.421 0.231 Q 7.744 0.462 7.744 0.924 L 7.744 0.924 L 7.744 0.924 Q 7.744 0.99 7.633 1.695 L 7.633 1.695 L 7.21 4.182 L 10.526 4.182 L 10.904 1.915 L 10.904 1.915 Q 10.926 1.783 10.96 1.486 L 10.96 1.486 L 10.96 1.486 Q 10.993 1.188 11.026 1.067 L 11.026 1.067 L 11.026 1.067 Q 11.06 0.946 11.127 0.726 L 11.127 0.726 L 11.127 0.726 Q 11.193 0.506 11.316 0.418 L 11.316 0.418 L 11.316 0.418 Q 11.438 0.33 11.638 0.198 L 11.638 0.198 L 11.638 0.198 Q 11.95 0 12.773 0 L 12.773 0 L 12.773 0 Q 13.597 0 13.919 0.231 L 13.919 0.231 L 13.919 0.231 Q 14.242 0.462 14.242 0.924 L 14.242 0.924 L 14.242 0.924 Q 14.242 0.99 14.131 1.695 L 14.131 1.695 Z M 6.32 9.486 L 9.636 9.486 L 10.036 7.065 L 6.743 7.065 L 6.32 9.486 Z"/>
</svg>
