<svg xmlns="http://www.w3.org/2000/svg" style="isolation:isolate" width="16" height="16" viewBox="0 0 16 16">
 <path fill="#d4be98" fill-rule="evenodd" d="M 1.651 0 C 1.186 0.104 0.821 0.393 0.86 0.922 L 1.481 10.87 C 1.505 11.187 1.656 11.474 1.893 11.651 L 7.483 15.825 C 7.796 16.058 8.204 16.058 8.517 15.825 L 14.107 11.651 C 14.344 11.474 14.495 11.187 14.519 10.87 L 15.14 0.922 C 15.179 0.393 14.814 0.104 14.349 0 L 1.651 0 Z M 8.397 4.286 L 7.206 5.6 L 8.397 5.6 L 8.793 6 L 9.587 4.8 L 9.19 4.286 L 8.397 4.286 L 8.397 4.286 Z M 9.984 4.857 L 9.19 6 L 9.587 7.2 L 10.778 6 L 10.778 6.4 L 9.587 7.6 L 9.984 8.4 L 11.571 6.8 L 11.571 7.2 L 9.984 8.8 L 11.571 8.8 L 12.286 8 L 12.286 7.2 L 12 6.8 L 12 6 L 11.174 5.6 L 10.778 4.857 L 9.984 4.857 L 9.984 4.857 Z M 5.619 6.8 L 6.016 8.8 L 6.016 9.2 L 2.672 12.233 L 2.89 12.395 C 3.372 11.955 5.232 10.258 6.412 9.2 L 5.619 6.8 L 5.619 6.8 L 5.619 6.8 Z M 8.397 10.4 L 8.793 10.4 L 6.809 12.8 L 8.397 10.4 L 8.397 10.4 L 8.397 10.4 Z M 6.412 6 L 6.016 6.4 L 6.809 9.2 L 3.53 12.873 L 5.986 14.707 L 9.19 10.4 L 9.984 10.4 L 10.381 10 L 11.174 9.6 L 11.571 9.143 L 9.587 9.143 L 9.19 8 L 8.793 8 L 8.397 9.143 L 7.603 9.143 L 8 8 L 7.206 7.2 L 7.603 6.8 L 8.397 7.6 L 9.19 7.6 L 9.19 7.2 L 8.397 6 L 6.412 6 L 6.412 6 Z"/>
</svg>
