<svg xmlns="http://www.w3.org/2000/svg" style="isolation:isolate" width="16" height="16" viewBox="0 0 16 16">
 <path fill="#d4be98" fill-rule="evenodd" d="M 9.286 6.667 L 11.667 6.667 L 11.667 13.333 L 13 13.333 L 13 6.667 L 16 6.667 L 16 5.333 L 8.884 5.333 C 8.135 3.757 6.528 2.667 4.667 2.667 L 4.667 2.667 C 2.089 2.667 0 4.756 0 7.333 C 0 9.911 2.089 12 4.667 12 C 7.244 12 9.333 9.911 9.333 7.333 C 9.333 7.107 9.317 6.884 9.286 6.667 Z M 4.667 4.067 C 6.471 4.067 7.933 5.529 7.933 7.333 C 7.933 9.137 6.471 10.6 4.667 10.6 C 2.863 10.6 1.4 9.137 1.4 7.333 C 1.4 5.529 2.863 4.067 4.667 4.067 L 4.667 4.067 Z"/>
</svg>
