<svg xmlns="http://www.w3.org/2000/svg" style="isolation:isolate" width="16" height="16" viewBox="0 0 16 16">
 <path fill="#d4be98" fill-rule="evenodd" d="M 4.828 2.055 L 4.858 7.12 L 3.67 7.12 C 3.67 7.12 4.644 9.499 6.049 11.443 C 6.049 11.443 6.05 11.443 6.05 11.442 C 6.051 11.442 6.051 11.442 6.052 11.442 C 6.052 11.441 6.053 11.441 6.053 11.441 C 6.054 11.44 6.054 11.44 6.055 11.44 C 7.504 9.389 8.425 7.12 8.425 7.12 L 7.236 7.12 L 7.219 3.273 C 6.37 2.836 5.566 2.413 4.828 2.055 Z M 0.627 0 L 0.627 16 C 0.627 16 8.742 12.72 15.373 7.995 C 15.373 7.993 15.372 7.992 15.371 7.991 C 15.371 7.989 15.37 7.987 15.368 7.985 C 15.367 7.983 15.366 7.982 15.365 7.98 C 15.364 7.978 15.363 7.977 15.363 7.975 C 8.369 3.099 0.627 0 0.627 0 Z"/>
</svg>
