<svg xmlns="http://www.w3.org/2000/svg" style="isolation:isolate" width="16" height="16" viewBox="0 0 16 16">
 <path fill="#d4be98" fill-rule="evenodd" d="M 3.478 12.87 L 14.609 12.87 L 14.609 0 L 3.478 0 C 2.327 0 1.391 0.936 1.391 2.087 L 1.391 14.058 C 1.391 15.129 2.327 16 3.478 16 L 14.609 16 L 14.609 15.304 L 3.478 15.304 C 2.724 15.304 2.087 14.734 2.087 14.058 C 2.087 13.391 2.698 12.87 3.478 12.87 Z M 8.665 3.6 C 9.254 3.6 9.731 4.077 9.731 4.666 C 9.731 5.255 9.254 5.732 8.665 5.732 L 8.665 5.732 C 8.076 5.732 7.599 5.255 7.599 4.666 C 7.599 4.077 8.076 3.6 8.665 3.6 L 8.665 3.6 L 8.665 3.6 L 8.665 3.6 L 8.665 3.6 Z M 9.198 8.93 L 9.198 7.278 C 10.415 7.031 11.33 5.955 11.33 4.666 C 11.33 3.194 10.137 2.001 8.665 2.001 L 8.665 2.001 C 7.193 2.001 6 3.194 6 4.666 C 6 5.955 6.916 7.031 8.132 7.278 L 8.132 7.278 L 8.132 11.063 L 9.198 11.063 L 9.198 9.996 L 10.264 9.996 L 10.264 8.93 L 9.198 8.93 L 9.198 8.93 L 9.198 8.93 Z"/>
</svg>
