<svg xmlns="http://www.w3.org/2000/svg" style="isolation:isolate" width="16" height="16" viewBox="0 0 16 16">
 <path fill="#d4be98" fill-rule="evenodd" d="M 8.031 5.333 C 9.504 5.333 10.698 6.527 10.698 8 C 10.698 9.473 9.504 10.667 8.031 10.667 C 6.558 10.667 5.365 9.473 5.365 8 C 5.365 6.527 6.558 5.333 8.031 5.333 L 8.031 5.333 L 8.031 5.333 L 8.031 5.333 L 8.031 5.333 Z M 8.031 4.267 C 5.969 4.267 4.298 5.938 4.298 8 C 4.298 10.062 5.969 11.733 8.031 11.733 C 10.093 11.733 11.765 10.062 11.765 8 C 11.765 5.938 10.093 4.267 8.031 4.267 L 8.031 4.267 L 8.031 4.267 L 8.031 4.267 L 8.031 4.267 Z M 8.031 2.667 C 5.96 2.667 4.197 3.896 3.437 5.636 C 1.51 5.914 0.031 7.508 0.031 9.454 C 0.031 11.597 1.822 13.333 4.031 13.333 L 12.532 13.333 C 14.464 13.333 16.031 11.814 16.031 9.939 C 16.031 8.197 14.68 6.77 12.937 6.576 C 12.483 4.352 10.458 2.667 8.031 2.667 L 8.031 2.667 L 8.031 2.667 Z M 6.431 8 C 6.431 7.117 7.148 6.4 8.031 6.4 C 8.914 6.4 9.631 7.117 9.631 8 C 9.631 8.883 8.914 9.6 8.031 9.6 C 7.148 9.6 6.431 8.883 6.431 8 Z"/>
</svg>
