<svg xmlns="http://www.w3.org/2000/svg" style="isolation:isolate" width="16" height="16" viewBox="0 0 16 16">
 <path fill="#d4be98" d="M 9.718 0.474 L 5.059 5.132 L 4.954 5.217 L 4.912 5.343 L 3.289 9.18 L 1.834 10.592 L 1.328 11.056 L 2.024 11.752 L 0 13.776 L 3.584 15.526 L 4.68 14.43 L 4.849 14.577 L 5.312 15.062 L 5.797 14.598 L 7.294 13.186 L 11.131 11.563 L 11.236 11.499 L 11.342 11.415 L 16 6.756 L 15.03 5.808 L 12.606 8.232 L 8.221 3.847 L 10.666 1.423 L 9.718 0.474 Z M 7.294 4.817 L 11.658 9.181 L 10.857 9.981 L 6.493 5.617 L 7.294 4.817 Z M 5.776 6.799 L 9.676 10.698 L 6.62 12.005 L 6.514 12.048 L 6.409 12.132 L 5.333 13.165 L 3.268 11.098 L 4.321 10.087 L 4.406 9.981 L 4.469 9.855 L 5.776 6.799 Z"/>
</svg>
