<svg xmlns="http://www.w3.org/2000/svg" style="isolation:isolate" width="16" height="16" viewBox="0 0 16 16">
 <defs>
  <clipPath id="_clipPath_by28th5D1uTAJJVqJqaplrjuru4sUuKA">
   <rect width="16" height="16"/>
  </clipPath>
 </defs>
 <g clip-path="url(#_clipPath_by28th5D1uTAJJVqJqaplrjuru4sUuKA)">
  <rect style="fill:#d4be98" fill-opacity="0" width="16" height="16"/>
  <g opacity=".6">
   <path fill="#d4be98" d="M 4.635 10.846 L 4.635 11.851 L 0 11.851 L 4.253 7.163 L 16 7.163 L 12.357 11.851 L 10.997 11.851 L 10.997 10.846 L 11.864 10.846 L 13.947 8.167 L 4.698 8.167 L 2.267 10.846 L 4.635 10.846 Z"/>
  </g>
  <path fill="#d4be98" d="M 4.635 4.149 L 4.635 10.512 L 5.639 10.512 L 5.639 6.516 L 7.415 10.512 L 8.217 10.512 L 9.992 6.516 L 9.992 10.512 L 10.997 10.512 L 10.997 4.149 L 9.945 4.149 L 7.816 8.939 L 5.687 4.149 L 4.635 4.149 Z"/>
 </g>
</svg>
