<svg xmlns="http://www.w3.org/2000/svg" width="16" height="16" version="1.1">
 <g transform="translate(-331.99997,-239.99994)">
  <path d="m 336.65882,242.83481 a 0.66673333,0.66673333 0 0 0 -0.63021,0.47396 l -1.85676,6.19271 h -1.50521 -0.66667 v 1.33333 h 0.66667 2 a 0.66673333,0.66673333 0 0 0 0.63802,-0.47396 l 1.35156,-4.50521 2.07812,7.16407 a 0.66673333,0.66673333 0 0 0 1.26563,0.0443 l 1.42708,-3.88543 0.64323,1.28647 a 0.66673333,0.66673333 0 0 0 0.59636,0.36978 h 4.66666 0.66667 v -1.33333 h -0.66667 -4.25521 l -1.14843,-2.29688 a 0.66673333,0.66673333 0 0 0 -1.22136,0.0677 l -1.26041,3.4271 -2.14063,-7.38282 a 0.66673333,0.66673333 0 0 0 -0.64844,-0.4818 z" style="solid-color:#d4be98;fill:#d4be98"/>
 </g>
</svg>
