<svg xmlns="http://www.w3.org/2000/svg" width="16" height="16" version="1.1">
 <g transform="translate(-280.57144,-287.21933)">
  <g style="enable-background:new" transform="translate(117.14153,169.91772)">
   <path style="fill:none;stroke:#d4be98;stroke-width:0.93665677px;stroke-linecap:round;stroke-linejoin:round" d="m 178.05492,120.77738 c 0.023,0.0258 0.0289,0.0507 -0.004,0.068 -2.17155,1.14036 -6.65732,2.83674 -6.69417,2.85067 -5e-4,0.19564 -0.0248,5.94588 -0.0248,8.54 0,0.22872 0.42249,-0.0241 0.56232,-0.0879 1.92689,-0.88048 4.40493,-1.85242 6.21454,-2.86266 0.17,-0.0949 0.2853,-0.30995 0.2853,-0.49977 0,-2.59111 0.0372,-4.85306 0.0372,-7.42053 0,-0.22798 -0.15898,-0.49339 -0.37626,-0.58773 z"/>
   <path style="fill:none;stroke:#d4be98;stroke-width:0.93665677px;stroke-linecap:round;stroke-linejoin:round" d="m 164.80757,120.80176 c -0.0126,0.004 -0.0246,0.008 -0.0372,0.0121 -0.22776,0.0695 -0.37213,0.3608 -0.37213,0.59172 0,2.30196 0.0331,4.82031 0.0331,7.21663 0,0.24598 0.0846,0.55167 0.30184,0.67968 1.57876,0.93033 4.08886,1.91331 6.18559,2.86665 0.13853,0.063 0.44656,0.24798 0.44656,0.1 0,-3.32965 -0.0199,-8.38743 -0.0206,-8.56798 -0.0135,-0.006 -0.36952,-0.1567 -0.91255,-0.38896 -1.55013,-0.663 -4.62445,-1.98849 -5.60797,-2.48969 -0.0101,-0.006 -0.0137,-0.0123 -0.0166,-0.02 z"/>
   <path style="fill:none;stroke:#d4be98;stroke-width:0.93665677px;stroke-linecap:round;stroke-linejoin:round" d="m 171.34469,123.7005 c 0,0 -5.2018,-2.20843 -6.53659,-2.88866 -0.0809,-0.0412 0.0905,-0.17388 0.17481,-0.20768 2.41591,-0.96828 3.7419,-1.45028 5.82342,-2.22106 0.35439,-0.13123 0.83288,-0.12523 1.09502,-0.0481 1.97414,0.58082 3.65529,1.37328 5.85955,2.27765 0.11503,0.0472 0.40096,0.1742 0.29096,0.23195 -2.18049,1.14507 -6.70717,2.85592 -6.70717,2.85592 z"/>
  </g>
 </g>
</svg>
