<svg xmlns="http://www.w3.org/2000/svg" width="16" height="16" version="1.1" viewBox="0 0 16 16">
 <g transform="translate(-516,-507.99841)">
  <path style="fill:#d4be98" d="m 519.5,508.49841 c -1.662,0 -3,1.338 -3,3 v 9 c 0,1.662 1.338,3 3,3 h 9 c 1.662,0 3,-1.338 3,-3 v -9 c 0,-1.662 -1.338,-3 -3,-3 z m -1.5,5.43018 h 2.89746 v 3.31055 h -0.8291 v -2.48145 h -0.82764 v 2.48145 H 518 v -0.41309 z m 3.72363,0 h 2.89746 v 3.31055 h -1.65527 v 0.82763 h -1.24219 z m 3.72364,0 H 528.34473 530 v 3.31055 h -0.82764 v -2.48145 h -0.82763 v 2.48145 h -0.82764 v -2.48145 h -0.82764 v 2.48145 h -1.24218 v -0.41309 z m -2.48145,0.8291 v 1.65381 h 0.82764 v -1.65381 z"/>
 </g>
</svg>
