<svg xmlns="http://www.w3.org/2000/svg" style="isolation:isolate" width="16" height="16" viewBox="0 0 16 16">
 <defs>
  <clipPath id="_clipPath_nT2dfVA12CLMBt4LPOrK21YnK1vZZ8QT">
   <rect width="16" height="16"/>
  </clipPath>
 </defs>
 <g clip-path="url(#_clipPath_nT2dfVA12CLMBt4LPOrK21YnK1vZZ8QT)">
  <rect style="fill:#d4be98" fill-opacity="0" width="16" height="16"/>
  <path fill="#d4be98" fill-rule="evenodd" d="M 8.473 9.57 L 14.154 3.727 L 14.154 3.727 L 6.89 7.732 C 6.482 7.532 6.023 7.419 5.538 7.419 C 3.84 7.419 2.462 8.798 2.462 10.496 C 2.462 12.195 3.84 13.573 5.538 13.573 C 7.237 13.573 8.615 12.195 8.615 10.496 C 8.615 10.174 8.566 9.862 8.473 9.57 Z M 6.154 0.65 C 3.894 0.652 1.73 1.434 0 2.823 L 0 3.18 C 1.383 2.342 2.975 1.883 4.615 1.881 C 7.042 1.882 9.271 2.859 10.895 4.469 L 12.911 3.358 C 11.138 1.678 8.754 0.653 6.154 0.65 L 6.154 0.65 L 6.154 0.65 Z M 14.267 4.935 L 12.536 6.715 C 12.936 7.491 13.235 8.332 13.395 9.228 L 15.887 9.089 C 15.665 7.554 15.096 6.145 14.267 4.935 L 14.267 4.935 L 14.267 4.935 Z M 15.96 9.702 L 13.476 9.84 C 13.514 10.16 13.535 10.482 13.538 10.804 C 13.535 10.907 13.53 11.009 13.523 11.112 L 15.977 11.112 C 15.991 10.907 15.999 10.702 16 10.496 C 15.997 10.231 15.984 9.966 15.96 9.702 L 15.96 9.702 L 15.96 9.702 Z M 13.489 11.727 C 13.442 12.15 13.364 12.57 13.257 12.982 L 15.644 13.115 C 15.766 12.66 15.855 12.196 15.91 11.727 L 13.489 11.727 L 13.489 11.727 L 13.489 11.727 Z M 13.085 13.589 C 12.952 13.99 12.791 14.381 12.602 14.76 L 14.707 15.35 C 15.002 14.83 15.249 14.285 15.445 13.72 L 13.085 13.589 L 13.085 13.589 L 13.085 13.589 Z"/>
 </g>
</svg>
