<svg xmlns="http://www.w3.org/2000/svg" style="isolation:isolate" width="16" height="16" viewBox="0 0 16 16">
 <path fill="#d4be98" fill-rule="evenodd" d="M 4.165 10.073 C 4.165 10.073 4.165 10.073 4.165 10.073 C 4.165 12.191 5.882 13.908 8 13.908 C 10.118 13.908 11.835 12.191 11.835 10.073 C 11.835 7.955 10.118 6.238 8 6.238 L 8 6.238 C 5.978 6.238 4.322 7.803 4.176 9.787 L 4.176 10.073 L 4.165 10.073 L 4.165 10.073 Z M 4.174 5.547 C 5.206 4.673 6.541 4.146 8 4.146 L 8 4.146 C 11.273 4.146 13.927 6.8 13.927 10.073 C 13.927 13.346 11.273 16 8 16 C 4.727 16 2.073 13.346 2.073 10.073 C 2.073 9.951 2.077 9.829 2.084 9.708 L 2.094 0.112 C 2.781 0.055 3.474 0.018 4.171 0 L 4.174 5.547 L 4.174 5.547 Z M 9.046 10.073 C 9.046 9.496 9.515 9.027 10.092 9.027 C 10.669 9.027 11.138 9.496 11.138 10.073 C 11.138 10.65 10.669 11.119 10.092 11.119 C 9.515 11.119 9.046 10.65 9.046 10.073 Z"/>
</svg>
