<svg xmlns="http://www.w3.org/2000/svg" style="isolation:isolate" width="16" height="16" viewBox="0 0 16 16">
 <path fill="#d4be98" fill-rule="evenodd" d="M 8 1.714 C 3.568 1.714 0 5.643 0 8 C 0 10.357 3.568 14.286 8 14.286 C 12.432 14.286 16 10.357 16 8 C 16 5.643 12.432 1.714 8 1.714 Z M 8.861 5.143 C 9.973 5.143 10.859 6.031 10.859 7.142 C 10.859 8.253 9.973 9.142 8.861 9.142 C 7.75 9.142 6.864 8.253 6.864 7.142 C 6.864 6.031 7.75 5.143 8.861 5.143 L 8.861 5.143 L 8.861 5.143 Z M 8.861 4 C 7.133 4 5.705 5.414 5.705 7.142 C 5.705 7.799 5.927 8.403 6.276 8.91 L 4.171 11.016 L 4.532 12.389 L 7.078 9.731 C 7.584 10.08 8.204 10.284 8.861 10.284 C 10.59 10.284 12 8.87 12 7.142 C 12 5.414 10.59 4 8.861 4 L 8.861 4 L 8.861 4 L 8.861 4 Z"/>
</svg>
