<svg xmlns="http://www.w3.org/2000/svg" style="isolation:isolate" width="16" height="16" viewBox="0 0 16 16">
 <path fill="#d4be98" fill-rule="evenodd" d="M 10.465 0.533 C 15.308 0.533 16 1.224 16 6.062 L 16 9.937 C 16 14.776 15.308 15.467 10.465 15.467 L 5.535 15.467 C 0.692 15.467 0 14.776 0 9.937 L 0 6.062 C 0 1.224 0.692 0.533 5.535 0.533 L 10.465 0.533 Z M 6.555 3.65 C 3.685 3.65 3.275 4.066 3.275 6.98 L 3.275 9.314 C 3.275 12.229 3.685 12.645 6.555 12.645 L 9.477 12.645 C 12.347 12.645 12.758 12.229 12.758 9.314 L 12.758 6.98 C 12.758 4.066 12.347 3.65 9.477 3.65 L 6.555 3.65 L 6.555 3.65 L 6.555 3.65 L 6.555 3.65 Z M 6.354 3.029 C 3.087 3.029 2.621 3.503 2.621 6.819 L 2.621 9.475 C 2.621 12.792 3.087 13.265 6.354 13.265 L 9.678 13.265 C 12.945 13.265 13.412 12.792 13.412 9.475 L 13.412 6.819 C 13.412 3.503 12.945 3.029 9.678 3.029 L 6.354 3.029 L 6.354 3.029 L 6.354 3.029 L 6.354 3.029 Z"/>
</svg>
