<svg xmlns="http://www.w3.org/2000/svg" style="isolation:isolate" width="16" height="16" viewBox="0 0 16 16">
 <path fill="#d4be98" fill-rule="evenodd" d="M 5.883 1.452 C 6.915 0.678 8.126 0.268 9.373 0.268 L 9.373 0.268 L 9.373 0.268 C 11.13 0.268 12.816 1.083 14.059 2.533 C 15.302 3.983 16 5.949 16 8 C 16 10.051 15.302 12.017 14.059 13.467 C 12.816 14.917 11.13 15.732 9.373 15.732 C 8.157 15.732 6.976 15.342 5.959 14.607 C 5.895 14.841 5.764 15.049 5.592 15.222 C 5.28 15.534 4.857 15.708 4.418 15.708 C 3.979 15.708 3.56 15.534 3.248 15.222 C 2.938 14.912 2.761 14.49 2.761 14.051 L 2.761 8.533 C 2.751 8.356 2.746 8.179 2.746 8 C 2.746 7.821 2.751 7.643 2.761 7.466 L 2.761 5.897 C 2.441 6.186 2.019 6.336 1.588 6.319 C 1.157 6.3 0.751 6.115 0.453 5.803 C 0.158 5.488 -0.005 5.071 0 4.64 C 0.008 4.209 0.182 3.795 0.486 3.491 L 2.56 1.417 C 4.1 -0.123 5.41 -0.029 5.883 1.452 Z M 6.075 8.447 C 6.253 10.917 7.889 12.418 9.373 12.418 C 10.944 12.418 12.686 10.735 12.686 8 C 12.686 5.265 10.944 3.582 9.373 3.582 L 9.373 3.582 C 7.889 3.582 6.253 5.083 6.075 7.553 L 6.075 8.447 Z"/>
</svg>
