<svg xmlns="http://www.w3.org/2000/svg" style="isolation:isolate" width="16" height="16" viewBox="0 0 16 16">
 <defs>
  <clipPath id="_clipPath_FmQMzLRIZCIhadGmzw7imc2C9axEXgdM">
   <rect width="16" height="16"/>
  </clipPath>
 </defs>
 <g clip-path="url(#_clipPath_FmQMzLRIZCIhadGmzw7imc2C9axEXgdM)">
  <rect style="fill:#d4be98" fill-opacity="0" width="16" height="16"/>
  <path fill="#d4be98" d="M 7.869 6.677 C 7.945 6.67 8.022 6.667 8.1 6.667 C 8.819 6.667 9.471 6.952 9.951 7.415 L 9.951 7.415 L 9.951 7.415 L 10.188 7.257 C 10.131 7.07 10.1 6.872 10.1 6.667 L 10.1 6.667 L 10.1 6.667 C 10.1 5.563 10.996 4.667 12.1 4.667 C 13.204 4.667 14.1 5.563 14.1 6.667 C 14.1 7.771 13.204 8.667 12.1 8.667 C 11.641 8.667 11.219 8.512 10.881 8.252 L 10.881 8.252 L 10.61 8.433 C 10.711 8.714 10.766 9.017 10.766 9.333 C 10.766 9.823 10.634 10.282 10.403 10.677 L 10.403 10.677 L 11.741 11.771 C 12.124 11.495 12.593 11.333 13.1 11.333 C 14.388 11.333 15.433 12.379 15.433 13.667 C 15.433 14.954 14.388 16 13.1 16 C 11.812 16 10.767 14.954 10.767 13.667 L 10.767 13.667 C 10.767 13.325 10.84 13.001 10.972 12.709 L 9.567 11.56 C 9.146 11.838 8.642 12 8.1 12 C 7.461 12 6.874 11.775 6.415 11.4 L 4.639 12.712 C 4.721 12.937 4.766 13.18 4.766 13.433 C 4.766 14.592 3.826 15.533 2.667 15.533 C 1.508 15.533 0.567 14.592 0.567 13.433 L 0.567 13.433 C 0.567 12.274 1.508 11.333 2.667 11.333 C 3.132 11.333 3.563 11.485 3.911 11.742 L 3.911 11.742 L 3.911 11.742 L 5.673 10.44 C 5.519 10.103 5.433 9.728 5.433 9.333 C 5.433 8.456 5.858 7.677 6.513 7.191 L 5.416 4.645 C 5.313 4.659 5.207 4.667 5.1 4.667 C 3.812 4.667 2.766 3.621 2.766 2.333 L 2.766 2.333 L 2.766 2.333 L 2.766 2.333 C 2.766 1.046 3.812 0 5.1 0 C 6.388 0 7.433 1.046 7.433 2.333 C 7.433 3.006 7.148 3.613 6.692 4.039 L 7.869 6.677 Z"/>
 </g>
</svg>
