<svg xmlns="http://www.w3.org/2000/svg" width="16" height="16" version="1.1">
 <g transform="matrix(0.12931034,0,0,0.12931034,-11.913793,-12.948275)" style="enable-background:new;fill:#d4be98">
  <path style="fill:#d4be98" d="m 152,104 c -13.296,0 -24,5.352 -24,12 v 12 4 h 24 v 4 h -24 -4 -4 -12 c -6.648,0 -12,10.704 -12,24 v 4 c 0,13.296 5.352,24 12,24 h 12 4 v -12 c 0,0 0,-16 16,-16 h 32 c 0,0 8,0 8,-8 v -16 -8 -12 c 0,-6.648 -10.704,-12 -24,-12 z m -12,8 c 2.20914,0 4,1.79086 4,4 0,2.20914 -1.79086,4 -4,4 -2.20914,0 -4,-1.79086 -4,-4 0,-2.20914 1.79086,-4 4,-4 z"/>
  <path d="m 156,220 c 13.296,0 24,-5.352 24,-12 v -12 -4 h -24 v -4 h 24 4 4 12 c 6.648,0 12,-10.704 12,-24 v -4 c 0,-13.296 -5.352,-24 -12,-24 h -12 -4 v 16 c 0,12 -12,12 -12,12 h -32 c -12,0 -12,12 -12,12 v 12 8 12 c 0,6.648 10.704,12 24,12 z m 12,-12 c -2.20914,0 -4,-1.79086 -4,-4 0,-2.20914 1.79086,-4 4,-4 2.20914,0 4,1.79086 4,4 0,2.20914 -1.79086,4 -4,4 z" style="fill:#d4be98"/>
 </g>
</svg>
