<svg xmlns="http://www.w3.org/2000/svg" style="isolation:isolate" width="16" height="16" viewBox="0 0 16 16">
 <path fill="#d4be98" fill-rule="evenodd" d="M 6 13.333 L 6 16 L 0 16 L 0 0 L 6 0 L 6 2.667 L 2.667 2.667 L 2.667 13.333 L 6 13.333 Z M 8.687 2.667 L 8.687 0 L 9.313 0 C 11.087 0 12.787 0.7 14.04 1.947 C 15.293 3.2 16 4.893 16 6.667 C 16 6.667 16 6.667 16 6.667 L 16 9.333 C 16 9.333 16 9.333 16 9.333 C 16 11.107 15.293 12.8 14.04 14.053 C 12.787 15.3 11.087 16 9.313 16 L 8.687 16 L 8.687 13.333 L 9.313 13.333 C 9.313 13.333 9.32 13.333 9.32 13.333 C 10.38 13.333 11.4 12.913 12.153 12.167 C 12.907 11.413 13.333 10.393 13.333 9.333 L 13.333 6.667 C 13.333 5.607 12.907 4.587 12.153 3.833 C 11.4 3.087 10.38 2.667 9.32 2.667 C 9.32 2.667 9.313 2.667 9.313 2.667 L 8.687 2.667 Z"/>
</svg>
