<svg xmlns="http://www.w3.org/2000/svg" width="16" height="16" version="1.1">
 <defs>
  <style id="current-color-scheme" type="text/css">
   .ColorScheme-Text { color:#d4be98; } .ColorScheme-Highlight { color:#d4be98; } .ColorScheme-ButtonBackground { color:#d4be98; }
  </style>
 </defs>
 <g style="fill:currentColor" class="ColorScheme-Text" transform="translate(-544.3571,-944.3604)">
  <path style="fill:currentColor" class="ColorScheme-ButtonBackground" d="m 552,944.36 c -2.8404,0 -5.1429,2.3091 -5.1429,5.1557 0,1.6879 0.79443,3.1613 2.0411,4.1014 0.57344,0.43406 1.0479,0.99321 1.0479,1.7646 L 550,956.35992 h 4 l 0.0571,-0.97822 c 0.045,-0.77013 0.4722,-1.3306 1.0446,-1.7646 1.2477,-0.94012 2.0411,-2.4135 2.0411,-4.1014 0,-2.8466 -2.3024,-5.1557 -5.1429,-5.1557 z m 0,2.0604 c 1.7033,0 3.0857,1.3895 3.0857,3.0954 0,0.97457 -0.4438,1.8715 -1.2214,2.4557 -1.1602,0.87789 -1.5999,1.8586 -1.7614,2.6743 h -0.2057 c -0.16047,-0.81566 -0.60069,-1.7964 -1.7614,-2.6743 -0.77554,-0.58474 -1.2214,-1.4816 -1.2214,-2.4557 0,-1.7059 1.3829,-3.0954 3.0857,-3.0954 z m -2,10.94 v 1 h 4 v -1 z m 1,2 v 1 h 2 v -1 z"/>
 </g>
</svg>
