<svg xmlns="http://www.w3.org/2000/svg" width="16" height="16" version="1.1" viewBox="0 0 4.23 4.23">
 <g transform="translate(0,-292.76665)">
  <g style="fill:#d4be98" transform="matrix(0.01763889,0,0,0.01763889,-0.08819458,292.63115)">
   <path d="m 125.18359,180.18359 a 7.5007495,7.5007495 0 0 0 -2.57421,0.38868 L 17.609375,215.89062 20,223 v 7.5 h 210 a 7.5007495,7.5007495 0 0 0 2.39062,-14.60938 l -105,-35.31835 a 7.5007495,7.5007495 0 0 0 -2.20703,-0.38868 z M 125,195.5957 184.17578,215.5 H 65.824219 Z" style="solid-color:#d4be98;fill:#d4be98"/>
   <path d="m 124.77734,13.142578 a 7.5007495,7.5007495 0 0 0 -6.43359,4.039063 l -105,202.363279 a 7.5007495,7.5007495 0 0 0 8.568359,10.70703 L 126.91211,202.57031 A 7.5007495,7.5007495 0 0 0 132.5,195.31836 V 20.636719 a 7.5007495,7.5007495 0 0 0 -7.72266,-7.494141 z M 117.5,51.373047 V 189.53906 l -83.050781,21.89453 z" style="solid-color:#d4be98;fill:#d4be98"/>
   <path d="M 124.93945,13.138672 A 7.5007495,7.5007495 0 0 0 117.5,20.636719 V 195.31836 a 7.5007495,7.5007495 0 0 0 5.58789,7.25195 l 105,27.68164 a 7.5007495,7.5007495 0 0 0 8.56836,-10.70703 l -105,-202.363279 a 7.5007495,7.5007495 0 0 0 -6.7168,-4.042969 z M 132.5,51.373047 215.55078,211.43359 132.5,189.53906 Z" style="solid-color:#d4be98;fill:#d4be98"/>
  </g>
 </g>
</svg>
