<svg xmlns="http://www.w3.org/2000/svg" width="16" height="16" version="1">
 <defs>
  <style id="current-color-scheme" type="text/css">
   .ColorScheme-Text { color:#d4be98; } .ColorScheme-Highlight { color:#d4be98; } .ColorScheme-ButtonBackground { color:#d4be98; }
  </style>
 </defs>
 <path style="fill:currentColor" class="ColorScheme-ButtonBackground" d="M 8,0 C 3.568,0 0,3.568 0,8 c 0,4.432 3.568,8 8,8 4.432,0 8,-3.568 8,-8 C 16,3.568 12.432,0 8,0 Z M 8,1 A 2,2 0 0 1 10,3 2,2 0 0 1 8,5 2,2 0 0 1 6,3 2,2 0 0 1 8,1 Z M 3,6 A 2,2 0 0 1 5,8 2,2 0 0 1 3,10 2,2 0 0 1 1,8 2,2 0 0 1 3,6 Z m 10,0 a 2,2 0 0 1 2,2 2,2 0 0 1 -2,2 2,2 0 0 1 -2,-2 2,2 0 0 1 2,-2 z M 7.4883,6.63477 a 0.5,0.5 0 0 1 0.44531,0.25 0.5,0.5 0 0 1 -0.183,0.681 0.5,0.5 0 0 1 -0.684,-0.181 0.5,0.5 0 0 1 0.184,-0.684 0.5,0.5 0 0 1 0.238,-0.066 z m 1.366,0.365 a 0.5,0.5 0 0 1 0.44531,0.25 0.5,0.5 0 0 1 -0.18359,0.68359 0.5,0.5 0 0 1 -0.682,-0.184 0.5,0.5 0 0 1 0.181,-0.684 0.5,0.5 0 0 1 0.239,-0.066 z m -1.7305,1 a 0.5,0.5 0 0 1 0.44336,0.25 0.5,0.5 0 0 1 -0.18164,0.68359 0.5,0.5 0 0 1 -0.685,-0.184 0.5,0.5 0 0 1 0.184,-0.684 0.5,0.5 0 0 1 0.238,-0.066 z M 8.489,8.365 a 0.5,0.5 0 0 1 0.44531,0.25 0.5,0.5 0 0 1 -0.184,0.684 0.5,0.5 0 0 1 -0.684,-0.184 0.5,0.5 0 0 1 0.184,-0.681 0.5,0.5 0 0 1 0.238,-0.069 z M 8,11 a 2,2 0 0 1 2,2 2,2 0 0 1 -2,2 2,2 0 0 1 -2,-2 2,2 0 0 1 2,-2 z"/>
</svg>
