<svg xmlns="http://www.w3.org/2000/svg" style="isolation:isolate" width="16" height="16" viewBox="0 0 16 16">
 <path fill="#d4be98" d="M 5.039 0.472 L 2.961 1.672 L 4.847 4.937 C 4.34 5.46 3.97 6.1 3.771 6.8 L 0 6.8 L 0 9.2 L 3.768 9.2 C 3.967 9.902 4.337 10.543 4.845 11.066 L 2.961 14.328 L 5.039 15.528 L 6.926 12.261 C 7.277 12.351 7.638 12.398 8 12.4 C 8.363 12.399 8.724 12.353 9.076 12.263 L 10.961 15.528 L 13.039 14.328 L 11.153 11.063 C 11.66 10.54 12.03 9.9 12.229 9.2 L 16 9.2 L 16 6.8 L 12.232 6.8 C 12.033 6.098 11.663 5.457 11.155 4.934 L 13.039 1.672 L 10.961 0.472 L 9.074 3.739 C 8.723 3.649 8.362 3.602 8 3.6 C 7.637 3.601 7.276 3.647 6.924 3.737 L 5.039 0.472 Z M 8 5.2 C 9.546 5.2 10.8 6.454 10.8 8 C 10.8 9.546 9.546 10.8 8 10.8 C 6.454 10.8 5.2 9.546 5.2 8 C 5.2 6.454 6.454 5.2 8 5.2 Z"/>
</svg>
