<svg xmlns="http://www.w3.org/2000/svg" style="isolation:isolate" width="16" height="16" viewBox="0 0 16 16">
 <defs>
  <clipPath id="_clipPath_fZLefABIJ56yHQrvz35jIWoVAKRDKxpJ">
   <rect width="16" height="16"/>
  </clipPath>
 </defs>
 <g clip-path="url(#_clipPath_fZLefABIJ56yHQrvz35jIWoVAKRDKxpJ)">
  <g>
   <path fill="#d4be98" d="M 13.412 8.024 C 13.412 7.86 13.29 7.765 13.141 7.812 L 2.882 11.066 C 2.733 11.113 2.612 11.285 2.612 11.45 L 2.612 14.776 C 2.612 14.94 2.733 15.035 2.882 14.988 L 13.141 11.734 C 13.29 11.686 13.412 11.514 13.412 11.35 L 13.412 8.024 Z"/>
   <path fill="#d4be98" d="M 2.588 7.976 C 2.588 8.14 2.71 8.235 2.859 8.188 L 13.118 4.934 C 13.267 4.887 13.388 4.715 13.388 4.55 L 13.388 1.224 C 13.388 1.06 13.267 0.965 13.118 1.012 L 2.859 4.266 C 2.71 4.314 2.588 4.486 2.588 4.65 L 2.588 7.976 Z"/>
   <path fill="#d4be98" d="M 2.612 7.937 C 2.612 8.101 2.733 8.273 2.882 8.32 L 13.141 11.575 C 13.291 11.622 13.412 11.527 13.412 11.363 L 13.412 8.037 C 13.412 7.873 13.291 7.701 13.141 7.653 L 2.882 4.399 C 2.733 4.351 2.612 4.446 2.612 4.611 L 2.612 7.937 Z"/>
  </g>
 </g>
</svg>
