<svg xmlns="http://www.w3.org/2000/svg" style="isolation:isolate" width="16" height="16" viewBox="0 0 16 16">
 <path fill="#d4be98" d="M 8.022 0 C 7.967 -0.001 7.913 0.019 7.875 0.056 C 7.321 0.591 6.758 1.191 6.248 1.763 C 6.248 1.764 6.247 1.764 6.247 1.765 C 4.992 3.213 4.039 4.7 3.348 6.293 C 2.704 7.776 2.328 9.059 1.986 10.929 C 1.911 11.338 1.835 11.834 1.782 12.233 C 1.756 12.433 1.736 12.608 1.725 12.738 C 1.719 12.802 1.715 12.855 1.715 12.898 C 1.714 12.92 1.714 12.938 1.716 12.96 C 1.717 12.971 1.719 12.983 1.724 13.003 C 1.731 13.024 1.726 13.065 1.813 13.115 C 1.861 13.142 1.867 13.137 1.879 13.139 C 1.891 13.142 1.9 13.144 1.909 13.145 C 1.929 13.148 1.949 13.15 1.972 13.152 C 2.018 13.157 2.076 13.161 2.137 13.164 C 2.618 13.189 3.327 13.302 3.797 13.429 C 4.114 13.515 4.323 13.586 4.633 13.714 C 4.705 13.743 4.77 13.77 4.819 13.789 C 4.844 13.799 4.864 13.807 4.879 13.813 C 4.886 13.815 4.892 13.817 4.898 13.82 C 4.899 13.82 4.899 13.82 4.899 13.82 C 4.9 13.82 4.9 13.82 4.9 13.82 C 4.9 13.82 4.9 13.821 4.901 13.821 C 4.903 13.822 4.905 13.823 4.909 13.824 C 4.909 13.824 4.908 13.823 4.907 13.823 C 4.908 13.823 4.909 13.823 4.91 13.824 C 4.912 13.825 4.915 13.826 4.921 13.827 C 4.923 13.828 4.925 13.829 4.928 13.831 C 4.927 13.83 4.922 13.83 4.921 13.83 C 4.934 13.837 4.951 13.845 4.973 13.857 C 5.025 13.883 5.097 13.92 5.176 13.961 C 5.935 14.356 6.502 14.763 7.408 15.566 C 7.528 15.672 7.639 15.768 7.723 15.839 C 7.765 15.875 7.8 15.904 7.828 15.926 C 7.842 15.937 7.854 15.946 7.866 15.955 C 7.872 15.959 7.878 15.964 7.889 15.97 C 7.894 15.973 7.901 15.976 7.912 15.982 C 7.924 15.987 7.936 15.997 7.99 16 C 8.054 16.002 8.068 15.989 8.081 15.984 C 8.094 15.978 8.101 15.975 8.107 15.972 C 8.118 15.965 8.125 15.961 8.131 15.956 C 8.145 15.946 8.157 15.937 8.172 15.925 C 8.202 15.902 8.24 15.871 8.286 15.832 C 8.378 15.756 8.499 15.652 8.63 15.537 C 9.38 14.879 9.742 14.601 10.264 14.281 C 11.404 13.581 12.42 13.27 13.98 13.148 L 14.106 13.139 C 14.208 13.131 14.286 13.052 14.286 12.958 L 14.286 12.889 C 14.286 12.746 14.249 12.449 14.199 12.083 C 14.149 11.716 14.086 11.298 14.028 10.981 C 13.686 9.095 13.297 7.767 12.645 6.264 C 12.058 4.911 11.217 3.544 10.212 2.307 C 10.21 2.304 10.208 2.301 10.205 2.298 C 9.529 1.558 8.875 0.78 8.161 0.059 C 8.125 0.023 8.075 0.002 8.022 0 Z"/>
</svg>
