<?xml version="1.0" standalone="no"?><!-- Generator: Gravit.io --><svg xmlns="http://www.w3.org/2000/svg" xmlns:xlink="http://www.w3.org/1999/xlink" style="isolation:isolate" viewBox="0 0 16 16" width="16" height="16"><path d=" M 8 0 C 12.418 0 16 3.582 16 8 C 16 12.418 12.418 16 8 16 C 3.582 16 0 12.418 0 8 C 0 3.582 3.582 0 8 0 Z  M 8 1.777 C 4.564 1.777 1.777 4.564 1.777 8 C 1.777 11.436 4.564 14.223 8 14.223 C 11.436 14.223 14.223 11.436 14.223 8 C 14.223 4.564 11.436 1.777 8 1.777 Z  M 10.767 8.889 L 3.577 8.889 L 4.565 7.111 L 11.865 7.111 L 10.767 8.889 Z " fill="#d4be98"/></svg>