<svg xmlns="http://www.w3.org/2000/svg" style="isolation:isolate" width="16" height="16" viewBox="0 0 16 16">
 <path fill="#d4be98" d="M 1.64 0 L 1.002 0.735 C 0.97 1.852 1.282 2.844 1.657 3.814 C 2.309 5.431 4.07 6.031 5.133 7.026 C 5.808 7.672 5.989 8.242 6.086 8.811 C 6.197 9.47 6.265 10.185 6.335 11.285 C 6.57 12.717 6.697 15.049 6.873 15.827 C 7.034 16.008 8.04 16 8.04 16 C 8.04 16 9.046 16.008 9.207 15.827 C 9.383 15.049 9.511 12.717 9.745 11.285 C 9.815 10.185 9.883 9.47 9.995 8.811 C 10.091 8.242 10.273 7.672 10.947 7.026 C 12.01 6.031 13.771 5.431 14.423 3.814 C 14.798 2.844 15.11 1.852 15.078 0.735 L 14.44 0 L 14.44 0.733 L 11.563 2.585 L 8.04 2.535 L 4.517 2.585 L 1.64 0.733 L 1.64 0 Z M 4.314 3.778 L 6.76 5.19 C 6.492 5.548 6.071 5.759 5.623 5.76 C 4.837 5.76 4.2 5.123 4.2 4.337 C 4.2 4.145 4.239 3.955 4.314 3.778 L 4.314 3.778 Z M 11.766 3.778 C 11.841 3.955 11.88 4.145 11.88 4.337 C 11.88 5.123 11.243 5.76 10.457 5.76 C 10.009 5.759 9.589 5.548 9.32 5.19 L 11.766 3.778 Z M 6.696 9.61 C 6.697 9.61 6.697 9.61 6.698 9.61 C 6.872 9.677 7.037 9.758 7.2 9.832 C 7.246 9.851 7.291 9.872 7.337 9.891 C 7.291 9.872 7.246 9.853 7.2 9.832 C 7.037 9.758 6.872 9.677 6.698 9.61 C 6.75 10.209 6.898 10.92 7.4 11.313 L 7.4 10.241 L 8.04 10.241 L 8.68 10.241 L 8.68 11.313 C 9.181 10.921 9.333 10.212 9.383 9.615 L 8.932 14.178 L 8.99 13.582 C 8.852 13.359 8.874 13.159 8.68 13.007 L 8.68 14.08 L 8.04 14.08 L 7.4 14.08 L 7.4 13.007 C 7.206 13.159 7.228 13.359 7.089 13.582 L 6.696 9.61 Z M 7.694 10.009 C 7.711 10.013 7.729 10.017 7.747 10.02 C 7.729 10.017 7.711 10.013 7.694 10.009 Z M 8.923 14.26 C 8.916 14.332 8.909 14.391 8.901 14.438 C 8.909 14.39 8.916 14.332 8.923 14.26 Z M 7.201 14.534 C 7.238 14.635 7.313 14.66 7.504 14.68 C 7.569 14.691 7.624 14.695 7.681 14.703 L 8.04 14.703 L 8.323 14.703 C 8.4 14.695 8.479 14.688 8.568 14.673 C 8.373 14.703 8.221 14.716 8.04 14.71 L 8.04 14.722 C 7.857 14.725 7.703 14.714 7.504 14.682 C 7.313 14.664 7.238 14.637 7.201 14.536 L 7.201 14.534 Z"/>
</svg>
