<svg xmlns="http://www.w3.org/2000/svg" style="isolation:isolate" width="16" height="16" viewBox="0 0 16 16">
 <path fill="#d4be98" fill-rule="evenodd" d="M 11.987 0.577 C 12.436 0.591 12.814 0.626 13.132 0.689 C 13.18 0.683 13.207 0.688 13.211 0.703 C 15.595 1.086 16 2.36 16 6.063 L 16 9.938 C 16 14.776 15.308 15.467 10.465 15.467 L 5.535 15.467 C 0.692 15.467 0 14.776 0 9.938 L 0 6.063 C 0 4.911 0.039 3.994 0.176 3.29 C 0.057 3.291 0.06 3.291 0.065 3.29 C 0.359 1.544 1.138 0.871 3.064 0.652 C 3.185 0.622 3.343 0.606 3.536 0.605 C 3.845 0.567 4.212 0.55 4.617 0.541 C 4.831 0.538 5.043 0.535 5.27 0.535 C 5.354 0.534 5.444 0.533 5.535 0.533 L 5.44 0.533 C 5.38 0.533 5.321 0.533 5.27 0.535 C 5.037 0.534 4.821 0.537 11.987 0.577 Z M 10.369 0.533 L 10.465 0.533 L 10.465 0.533 C 10.8 0.533 11.115 0.537 11.418 0.543 C 11.622 0.55 11.823 0.558 10.369 0.533 Z M 1.178 3.291 L 1.178 3.291 C 1.174 3.303 1.172 3.317 1.17 3.33 C 1.1 3.71 1.06 4.1 1.04 4.49 C 1.01 5.01 1 5.53 1 6.06 C 1 6.06 1 6.06 1 6.06 L 1 9.94 C 1 9.94 1 9.94 1 9.94 C 1 10.47 1.01 10.99 1.04 11.51 C 1.06 11.9 1.1 12.29 1.17 12.67 C 1.21 12.93 1.29 13.17 1.39 13.41 C 1.46 13.56 1.55 13.69 1.66 13.81 C 1.77 13.92 1.91 14.01 2.06 14.08 C 2.29 14.18 2.54 14.25 2.8 14.3 C 3.18 14.37 3.57 14.41 3.96 14.43 C 4.48 14.46 5.01 14.47 5.53 14.47 C 5.53 14.47 5.53 14.47 5.54 14.47 L 10.46 14.47 C 10.47 14.47 10.47 14.47 10.47 14.47 C 10.99 14.47 11.52 14.46 12.04 14.43 C 12.43 14.41 12.82 14.37 13.2 14.3 C 13.46 14.25 13.71 14.18 13.94 14.08 C 14.09 14.01 14.23 13.92 14.34 13.81 C 14.45 13.69 14.54 13.56 14.61 13.41 C 14.71 13.17 14.79 12.93 14.83 12.67 C 14.9 12.29 14.94 11.9 14.96 11.51 C 14.99 10.99 15 10.47 15 9.94 C 15 9.94 15 9.94 15 9.94 L 15 6.06 C 15 6.06 15 6.06 15 6.06 C 15 5.53 14.99 5.01 14.96 4.49 C 14.94 4.1 14.9 3.71 14.83 3.33 C 14.824 3.294 14.818 3.258 14.808 3.225 C 13.817 3.265 1.69 3.315 1.178 3.291 Z"/>
</svg>
