<svg xmlns="http://www.w3.org/2000/svg" style="isolation:isolate" width="16" height="16" viewBox="0 0 16 16">
 <path fill="#d4be98" fill-rule="evenodd" d="M 10.702 9.146 C 10.075 9.304 9.375 9.331 8.593 9.331 C 7.263 9.331 6.233 9.355 5.876 9.495 C 5.698 9.565 5.676 9.58 5.605 9.71 C 5.534 9.84 5.435 10.154 5.435 10.746 C 5.441 11.196 5.204 11.616 4.814 11.843 C 4.425 12.07 3.943 12.07 3.554 11.843 C 3.164 11.616 2.927 11.196 2.933 10.746 C 2.933 9.892 3.061 9.153 3.412 8.511 C 3.764 7.87 4.362 7.399 4.962 7.163 C 6.163 6.692 7.335 6.83 8.593 6.83 C 9.803 6.83 10.352 6.636 10.455 6.552 C 10.558 6.468 10.698 6.263 10.698 5.287 C 10.689 4.598 11.239 4.03 11.928 4.019 L 11.929 4.019 C 12.267 4.013 12.593 4.145 12.833 4.384 C 13.072 4.623 13.205 4.949 13.2 5.287 C 13.2 6.287 13.049 7.246 12.521 7.975 C 12.636 8.033 12.743 8.11 12.836 8.203 C 13.076 8.442 13.208 8.768 13.203 9.106 L 13.203 10.576 C 13.209 11.027 12.972 11.446 12.583 11.673 C 12.193 11.9 11.712 11.9 11.322 11.673 C 10.933 11.446 10.696 11.027 10.702 10.576 L 10.702 9.146 L 10.702 9.146 L 10.702 9.146 Z M 7.965 11.841 C 7.365 13.439 5.872 14.57 4.125 14.57 C 1.847 14.57 0 12.647 0 10.274 C 0 9.255 0.341 8.319 0.912 7.585 C 0.386 6.937 0.074 6.127 0.074 5.248 C 0.074 3.124 1.898 1.402 4.147 1.402 C 5.935 1.402 7.453 2.489 8 4.002 C 8.585 2.401 10.098 1.261 11.871 1.261 C 14.151 1.261 16 3.147 16 5.473 L 16 5.473 C 16 6.459 15.668 7.366 15.109 8.083 C 15.529 8.759 15.772 9.57 15.772 10.443 L 15.772 10.443 C 15.772 12.815 13.975 14.739 11.759 14.739 C 10 14.739 8.506 13.528 7.965 11.841 L 7.965 11.841 L 7.965 11.841 Z M 5.914 5.348 C 5.914 5.726 5.912 6.785 5.912 6.785 C 5.912 6.785 4.856 6.788 4.423 6.788 C 3.6 6.788 2.932 6.143 2.932 5.349 C 2.932 4.553 3.6 3.909 4.423 3.909 C 5.247 3.909 5.914 4.553 5.914 5.349 L 5.914 5.348 Z"/>
</svg>
