<svg xmlns="http://www.w3.org/2000/svg" style="isolation:isolate" width="16" height="16" viewBox="0 0 16 16">
 <path fill="#d4be98" fill-rule="evenodd" d="M 4.688 12.569 C 2.235 12.554 0.405 11.898 0.058 10.729 C -0.471 8.943 2.657 6.633 7.041 5.572 C 11.424 4.51 15.412 5.098 15.942 6.884 C 16.31 8.126 14.958 9.597 12.594 10.75 C 12.769 8.396 9.333 8.974 8 9.297 C 6.487 9.663 3.641 10.594 4.688 12.569 L 4.688 12.569 Z M 4.818 12.12 C 4.618 11.207 6.121 10.064 8.172 9.57 C 10.222 9.077 12.049 9.417 12.249 10.331 C 12.448 11.244 10.945 12.387 8.895 12.88 C 6.844 13.374 5.017 13.034 4.818 12.12 L 4.818 12.12 Z M 3.422 6.516 C 3.965 4.505 4.96 3.338 6.375 2.984 C 8.17 2.595 9.612 3.194 10.672 4.75 C 8.199 4.522 5.792 5.12 3.422 6.516 Z"/>
</svg>
