<svg xmlns="http://www.w3.org/2000/svg" style="isolation:isolate" width="256" height="256" viewBox="0 0 256 256">
 <defs>
  <filter id="i8BWMxdsBG0Q0aDP7LDO1g46P8QrG0bn" width="400%" height="400%" x="-200%" y="-200%" color-interpolation-filters="sRGB" filterUnits="objectBoundingBox">
   <feGaussianBlur xmlns="http://www.w3.org/2000/svg" in="SourceGraphic" stdDeviation="4.294"/>
   <feOffset xmlns="http://www.w3.org/2000/svg" dx="0" dy="4" result="pf_100_offsetBlur"/>
   <feFlood xmlns="http://www.w3.org/2000/svg" flood-opacity=".4"/>
   <feComposite xmlns="http://www.w3.org/2000/svg" in2="pf_100_offsetBlur" operator="in" result="pf_100_dropShadow"/>
   <feBlend xmlns="http://www.w3.org/2000/svg" in="SourceGraphic" in2="pf_100_dropShadow" mode="normal"/>
  </filter>
 </defs>
 <g filter="url(#i8BWMxdsBG0Q0aDP7LDO1g46P8QrG0bn)">
  <linearGradient id="_lgradient_0" x1="0" x2="0" y1="0" y2="1" gradientTransform="matrix(244.648309,0,0,228.338396,5.7,11.9)" gradientUnits="userSpaceOnUse">
   <stop offset="0%" style="stop-color:#ff4500"/>
   <stop offset="100%" style="stop-color:#dc153b"/>
  </linearGradient>
  <path fill="url(#_lgradient_0)" d="M 165.708919 11.9 C 239.764626 11.9 250.348309 22.457198 250.348309 96.443859 L 250.348309 155.694653 C 250.348309 229.68091 239.764626 240.238396 165.708919 240.238396 L 90.339393 240.238396 C 16.28369 240.238396 5.7 229.68091 5.7 155.694653 L 5.7 96.443859 C 5.7 22.457198 16.28369 11.9 90.339393 11.9 L 165.708919 11.9 Z"/>
 </g>
 <g opacity=".7">
  <path fill="#ffffff" d="M 85.526001 238.529999 C 88.733002 235.535995 88.726997 235.647003 85.875 232.908997 C 79.710999 226.990005 72.362999 224.005997 63.969002 224.011002 C 58.591999 224.014008 54.879002 224.880005 50.145 227.235001 C 46.462002 229.067001 42.182999 232.302994 40.464001 234.557007 C 39.504002 235.817001 39.499001 235.845993 40.164001 236.597 C 40.835999 237.354996 40.834 237.358002 39.874001 237.123993 C 39.342999 236.994995 37.362 235.841003 35.472 234.559006 C 31.768 232.048004 25.726999 228.888 22.155001 227.593002 C 20.934999 227.151001 19.660999 226.485001 19.326 226.113998 C 18.657 225.376007 19.017 225.257996 20.368999 225.772003 C 21.171 226.076996 21.427 225.869995 23.483 223.259995 C 31.017 213.695007 41.958 206.998993 54.261002 204.423004 C 58.522999 203.529999 69.254997 203.537003 73.710999 204.434006 C 80.322998 205.766998 86.936996 208.539001 92.875 212.466995 C 96.434998 214.820999 102.290001 220.335007 104.765999 223.664993 L 106.533997 226.042007 L 109.426003 225.205002 C 111.403725 224.650101 113.400673 224.166122 115.413002 223.753998 C 117.115997 223.416 118.573997 223.095001 118.654999 223.039993 C 118.734001 222.985001 117.902 221.589996 116.803001 219.938995 C 107.665001 206.207993 93.806999 196.664993 77.789001 193.072006 C 60.771999 189.255997 43.330002 192.546005 28.669001 202.339005 C 23.413 205.850006 17.737 211.080002 14.101 215.764008 C 13.282 216.817993 13.101 216.910995 12.898 216.382004 C 12.728 215.938995 13.293 214.990997 14.848 213.112 C 16.052 211.656006 17.037001 210.309998 17.037001 210.121002 C 17.037001 209.483994 11.993 205.011993 10.404 204.240005 C 8.971 203.542999 8.178 202.679993 8.592 202.266998 C 9.027 201.830994 13.555 204.774994 15.736 206.912003 L 18.198 209.324005 L 20.212 207.483002 C 21.32 206.470001 22.67 205.313995 23.211 204.914001 C 23.752001 204.514008 24.195 204.011002 24.195 203.796997 C 24.195 203.237 19.297001 198.528 17.395 197.259003 C 15.102 195.729996 12.215 194.317993 9.52 193.408005 C 8.091 192.925003 7.15 192.397995 7.08 192.041 C 6.977 191.509003 7.127 191.505005 8.87 192.003006 C 14.031 193.477005 20.857 197.787003 24.014 201.563995 L 25.35 203.162003 L 28.261999 201.251007 C 29.473 200.460999 30.676001 199.658997 31.871 198.845001 C 32.529999 198.375 32.389 198.164001 29.247999 194.917007 C 23.264 188.731995 16.559999 184.953003 8.267 183.091995 C 6.889 182.781998 6.082 182.412003 6.013 182.057007 C 5.921 181.580994 6.168 181.552002 7.79 181.847 C 16.559 183.440994 26.229 189.082001 31.610001 195.740997 C 32.634998 197.009995 33.537998 197.806 33.859001 197.723007 C 34.154999 197.647003 35.972 196.863007 37.897999 195.981003 L 41.400002 194.376007 L 39.297001 191.742004 C 36.592999 188.356003 32.171001 184.156006 28.809999 181.783005 C 23.518999 178.046997 15.464 174.608002 9.52 173.546997 C 5.688 172.863007 5.583 172.830002 5.583 172.279007 C 5.583 171.628998 5.18 171.608994 9.699 172.481995 C 20.969999 174.656998 32.27 181.270996 39.120998 189.703003 C 40.051064 190.850479 40.985401 191.994492 41.924 193.134995 L 42.652 194.011002 L 45.682999 193.100998 C 47.348999 192.600006 49.997002 191.931 51.566002 191.615005 C 53.134998 191.298004 54.478001 190.979996 54.549999 190.908005 C 54.620998 190.837006 53.833 189.516006 52.798 187.975006 C 44.799999 176.059006 33.316002 167.244995 20.025999 162.820999 C 15.883 161.440994 9.41 159.938004 7.614 159.938004 C 6.362 159.938004 5.583 159.589005 5.583 159.026993 C 5.583 158.692001 5.928 158.604004 6.746 158.729004 C 7.847 158.897003 7.981 158.789001 9.252 156.712997 C 9.99 155.505997 10.594 154.274994 10.594 153.975998 C 10.594 153.102997 8.462 150.382004 6.964 149.343994 C 5.713 148.477005 5.119 147.410004 5.887 147.410004 C 6.584 147.410004 9.279 149.703003 10.323 151.184006 C 10.942 152.061996 11.547 152.779007 11.669 152.779007 C 11.791 152.779007 12.273 152.255997 12.74 151.615997 C 13.207 150.975998 14.365 149.554993 15.313 148.455994 C 16.261 147.358994 17.032 146.311996 17.025999 146.130005 C 16.986 144.880005 11.807 140.723999 8.356 139.171997 C 6.831 138.485992 5.584 137.712997 5.583 137.453995 C 5.583 136.815994 6.528 137.108994 10.187 138.878998 C 12.382 139.940994 13.849 140.983994 15.689 142.791 L 18.198 145.255005 L 20.212 143.414001 C 21.32 142.401001 22.67 141.244995 23.211 140.845001 C 23.752001 140.445007 24.195 139.942001 24.195 139.727997 C 24.195 139.259995 19.537001 134.684998 17.695 133.343994 C 14.986 131.371002 8.139 128.440002 6.24 128.440002 C 5.834 128.440002 5.583 128.181 5.583 127.763 C 5.583 127.164001 5.739 127.120003 6.925 127.389999 C 13.069 128.785004 19.509001 132.511002 23.542999 137.003006 L 25.393999 139.063995 L 28.284 137.167999 C 29.874001 136.125 31.488001 135.048996 31.871 134.776001 C 32.529999 134.307007 32.384998 134.091003 29.190001 130.789001 C 23.216999 124.614998 15.674 120.396004 8.089 118.987999 C 6.418 118.677002 5.731 118.387001 5.648 117.954002 C 5.513 117.252998 6.236 117.329002 10.591 118.473999 C 19.253 120.752998 27.448999 126.092003 32.712002 132.886993 L 33.521999 133.932007 L 34.854 133.276993 C 35.585999 132.917007 37.360001 132.102997 38.796001 131.468002 L 41.404999 130.313995 L 39.304001 127.677002 C 33.089001 119.877998 24.511 113.921997 15.247 110.972 C 12.615 110.134003 6.69 108.754997 5.722 108.754997 C 5.646 108.754997 5.583 108.513 5.583 108.218002 C 5.583 107.921997 5.643 107.681 5.715 107.681 C 6.853 107.681 12.852 109.021004 15.519 109.870003 C 20.247 111.375999 24.173 113.294998 28.566 116.247002 C 33.169998 119.339996 36.702 122.567001 39.985001 126.678001 C 41.388 128.434998 42.652 129.871994 42.794998 129.871994 C 42.937 129.871994 43.957001 129.561005 45.061001 129.181 C 46.166 128.801003 48.723999 128.148003 50.745998 127.728996 C 52.768002 127.309998 54.48 126.908997 54.550999 126.837997 C 54.622002 126.766998 53.834 125.447998 52.799 123.905998 C 46.409 114.387001 37.689999 106.727997 27.649 101.809998 C 23.112 99.588997 15.601 97.160004 10.952 96.411003 C 5.571 95.544998 5.583 95.547997 5.583 94.989998 C 5.583 94.619003 5.896 94.530998 6.746 94.662003 C 7.794 94.822998 7.989 94.705002 8.701 93.475998 C 9.188 92.640999 9.695 91.816002 10.221 91.004997 L 10.95 89.899002 L 9.546 87.962997 C 8.774 86.898003 7.566 85.642998 6.863 85.175003 C 5.699 84.401001 5.136 83.342003 5.887 83.342003 C 6.585 83.342003 9.279 85.634003 10.323 87.115997 C 10.942 87.992996 11.548 88.710999 11.67 88.710999 C 11.791 88.710999 12.273 88.186996 12.74 87.547997 C 13.207 86.907997 14.365 85.486 15.313 84.388 C 16.261 83.290001 17.037001 82.228996 17.037001 82.028999 C 17.037001 81.830002 16.033001 80.663002 14.806 79.435997 C 13.179 77.808998 11.68 76.761002 9.259 75.558998 C 7.434 74.653 5.941 73.688004 5.941 73.413002 C 5.941 72.056999 12.623 75.711998 15.738 78.771004 L 18.198 81.186996 L 20.212 79.345001 C 21.32 78.333 22.67 77.177002 23.211 76.777 C 23.752001 76.375999 24.195 75.865997 24.195 75.641998 C 24.195 75.095001 20.514999 71.402 18.288 69.712997 C 16.040001 68.009003 11.413 65.689003 8.715 64.912998 C 7.446 64.548 6.657 64.125 6.657 63.810001 C 6.657 63.144001 6.828 63.159 9.551 64.048 C 14.726 65.738998 18.796 68.239998 22.726999 72.146004 C 24.183001 73.592003 25.479 74.730003 25.607 74.674004 C 25.733999 74.617996 27.319 73.626999 29.127001 72.472 L 32.416 70.371002 L 31.743999 69.428001 C 30.490999 67.667999 24.743999 62.394001 22.406 60.859001 C 18.447001 58.258999 10.925 55.066002 8.759 55.066002 C 8.335 55.066002 8.089 54.811001 8.089 54.373001 C 8.089 53.688999 8.127 53.689999 10.684 54.398998 C 19.558001 56.855 27.441999 62.015999 32.712002 68.819 L 33.521999 69.864998 L 34.854 69.209999 C 36.152813 68.589531 37.460964 67.988792 38.778 67.407997 L 41.369999 66.262001 L 39.632 63.976002 C 38.674999 62.717999 36.381001 60.234001 34.534 58.456001 C 28.059 52.223999 20.500999 48.075001 11.414 45.765999 C 10.323 45.488998 9.964 45.238998 10.11 44.859001 C 10.349 44.236 10.75 44.312 15.963 45.974998 C 26.033001 49.187 33.987999 54.953999 41.556999 64.529999 L 42.632999 65.890999 L 45.52 64.979 C 47.109001 64.477001 49.754002 63.812 51.398998 63.499001 C 53.043999 63.187 54.457001 62.865002 54.539001 62.783001 C 54.721001 62.602001 51.453999 57.666 49.669998 55.424999 C 45.937 50.734001 40.092999 45.389 34.932999 41.944 C 29.642 38.411999 25.809 36.57 19.059999 34.317001 C 16.059 33.314999 15.287 32.93 15.66 32.622999 C 16.021 32.325001 16.790001 32.43 18.721001 33.042999 L 21.299 33.862 L 23.325001 31.218 C 28.764999 24.115 38.938 16.591 44.073002 15.871 C 45.803001 15.629 45.752998 15.67 42.137001 17.459 C 37.089001 19.955999 32.625 23.087 28.872999 26.761 C 25.288 30.271999 22.495001 33.834999 22.976999 34.283001 C 23.155001 34.449001 24.853001 35.262001 26.750999 36.09 L 30.201 37.596001 L 34.088001 33.675999 C 38.248001 29.481001 40.769001 27.606001 45.264999 25.362 C 51.965 22.018999 57.362999 20.902 65.536003 21.167999 C 71.918999 21.377001 75.499001 22.146999 80.841003 24.462 C 86.239998 26.802 93.325996 32.298 96.841003 36.872002 L 97.573997 37.825001 L 101.482002 35.998001 L 105.390999 34.169998 L 104.264999 32.603001 C 102.045998 29.511999 97.782997 25.291 94.056 22.493 C 88.183998 18.084 81.296997 14.965 73.946999 13.388 L 71.621002 12.889 L 74.251999 12.858 C 78.749001 12.81 86.042999 15.668 92.578003 20.040001 C 96.386002 22.586 102.094002 27.921 104.778 31.441 L 106.630997 33.869999 L 108.564003 33.205002 C 109.627998 32.839001 112.139 32.201 114.144997 31.785999 C 119.192001 30.743 118.875999 30.943001 117.945 29.384001 C 115.228996 24.832001 109.039001 17.679001 104.753998 14.14 C 103.235001 12.885 103.208 12.83 104.113998 12.83 C 104.778 12.83 105.753998 13.478 107.384003 15.003 L 109.707001 17.177 L 111.834 15.003 C 113.365997 13.437 114.223 12.83 114.899002 12.83 C 115.753998 12.83 115.612999 13.042 113.325996 15.2 C 111.944 16.503 110.814003 17.719999 110.814003 17.903999 C 110.814003 18.087 111.747002 19.322001 112.887001 20.646999 C 114.027 21.971001 115.247002 23.452 115.598 23.938 L 116.236 24.820999 L 116.835999 23.929001 C 118.139694 21.962238 119.911377 20.349995 121.991997 19.237 C 124.139 18.073 124.399002 18.02 127.994003 18.02 C 131.447006 18.02 131.921997 18.106001 133.841003 19.077999 C 135.791 20.063999 139.447998 23.497999 139.447998 24.341999 C 139.447998 25.033001 140.076004 24.438 142.746002 21.219 L 145.436005 17.976 L 144.141998 16.488 C 143.429993 15.67 142.222 14.512 141.457001 13.915 L 140.065002 12.83 L 141.080994 12.83 C 141.852997 12.83 142.602005 13.349 144.194 14.987 L 146.292007 17.143 L 148.681 14.987 C 150.238998 13.58 151.376999 12.83 151.951996 12.83 C 152.729004 12.83 152.580002 13.051 150.703995 14.685 C 147.720001 17.284 144.779007 20.4 142.149002 23.747 C 138.957001 27.809 137.162003 30.705999 137.733002 30.871 C 137.987 30.944 139.563995 31.278999 141.237 31.615999 C 142.910995 31.952 145.442001 32.596001 146.863007 33.046001 L 149.447006 33.863998 L 150.959 31.861 C 157.005005 23.853001 166.386993 17.108999 175.886993 13.941 C 178.451004 13.086 179.811996 12.837 181.792999 12.859 L 184.367996 12.889 L 181.862 13.421 C 172.791 15.344 163.559998 20.302999 156.990997 26.782 C 153.410004 30.313999 150.641998 33.845001 151.115005 34.278999 C 151.292999 34.442001 153.013 35.259998 154.936996 36.095001 L 158.436005 37.613998 L 161.380005 34.464001 C 165.143005 30.436001 168.992996 27.589001 173.968994 25.150999 C 179.645004 22.371 183.751999 21.375999 190.453995 21.157 C 196.373001 20.962999 199.199997 21.281 204.080994 22.687 C 211.445007 24.808001 219.050003 29.722 223.809998 35.436001 L 225.794998 37.818001 L 228.608002 36.458 C 230.156006 35.709 231.921005 34.923 232.531006 34.710999 L 233.639008 34.324001 L 232.447998 32.615 C 230.559998 29.908001 224.009003 23.575001 220.876999 21.427999 C 219.302002 20.349001 216.322006 18.606001 214.255005 17.555 C 210.779007 15.788 210.617004 15.662 212.106995 15.867 C 217.149002 16.564 227.423996 24.24 232.865005 31.375 L 234.746994 33.842999 L 237.382996 33.029999 C 239.016006 32.525999 240.102005 32.351 240.237 32.57 C 240.567993 33.105 240.389008 33.193001 235.985001 34.668999 C 223.871002 38.729 212.824005 46.758999 205.279999 56.992001 C 204.100998 58.59 202.742004 60.562 202.261002 61.372002 L 201.384995 62.846001 L 204.492996 63.463001 C 206.203003 63.803001 208.959 64.473999 210.617996 64.955002 C 212.276001 65.434998 213.664001 65.782997 213.701996 65.726997 C 216.429993 61.666 221.774994 56.202 225.973999 53.182999 C 231.102005 49.495998 238.244003 46.144001 243.664993 44.879002 C 245.470001 44.458 245.751999 44.462002 245.751999 44.909 C 245.751999 45.194 245.550995 45.485001 245.304993 45.556999 C 237.421005 47.860001 232.940002 49.827999 227.856003 53.217999 C 223.151993 56.354 213.882004 65.973999 215.149002 66.403 C 215.345993 66.470001 217.104996 67.245003 219.059006 68.125999 L 222.610001 69.726997 L 223.863007 68.213997 C 228.792999 62.255001 235.658005 57.591 243.227005 55.055 C 246.656998 53.905998 247.901001 53.742001 247.897003 54.441002 C 247.895996 54.695999 246.626999 55.237 244.944 55.700001 C 241.475006 56.654999 236.292999 59.069 233.190002 61.175999 C 230.800003 62.798 226.283005 66.945 224.628006 69.035004 L 223.595001 70.338997 L 226.865997 72.457001 C 228.664993 73.621002 230.264008 74.626999 230.419006 74.691002 C 230.574005 74.754997 231.792007 73.700996 233.126007 72.348 C 236.966995 68.455002 242.194 65.288002 247.117996 63.870998 C 248.862 63.369999 249.011993 63.373001 248.908005 63.905998 C 248.837997 64.263 247.897003 64.790001 246.468002 65.272003 C 241.645996 66.901001 238.291 68.973 234.388 72.733002 C 232.061005 74.974998 231.253006 76.184998 232.084 76.184998 C 232.244003 76.184998 233.617004 77.330002 235.134995 78.728996 L 237.895996 81.273003 L 239.766006 79.336998 C 241.912994 77.113998 244.218002 75.459999 246.912003 74.205002 C 249.026993 73.221001 249.694 73.115997 249.679993 73.768997 C 249.675995 74.014999 248.384003 74.825996 246.811005 75.57 C 244.841995 76.501999 243.175003 77.655998 241.451996 79.281998 C 240.076996 80.579002 238.951004 81.791 238.951004 81.974998 C 238.951004 82.158997 239.921997 83.436996 241.108994 84.816002 C 242.294998 86.194 243.462006 87.635002 243.699997 88.017998 C 244.298996 88.975998 244.438004 88.917999 245.604004 87.237 C 246.578995 85.830002 249.449005 83.344002 250.098999 83.344002 C 250.837006 83.344002 250.270004 84.236 248.509003 85.845001 C 247.466995 86.797997 246.313004 88.136002 245.945007 88.819 L 245.276001 90.060997 L 246.727005 92.339996 C 248.026993 94.382004 248.294006 94.612999 249.292007 94.566002 C 249.990005 94.531998 250.404999 94.684998 250.404999 94.974998 C 250.404999 95.523003 249.615997 95.871002 248.373993 95.871002 C 246.593002 95.871002 240.119995 97.370003 236.052002 98.723999 C 223.919006 102.763 212.845001 110.802002 205.279999 121.061996 C 204.100998 122.660004 202.735001 124.644997 202.242996 125.472 L 201.350006 126.974998 L 202.701996 127.195 C 203.791 127.371002 208.860001 128.596001 213.001999 129.682999 C 213.561005 129.828995 214.070007 129.391006 215.328003 127.68 C 217.617996 124.568001 222.628998 119.664001 226.005997 117.233002 C 231.580994 113.219002 239.009003 109.896004 245.246002 108.625 C 250.154999 107.625 250.404999 107.605003 250.404999 108.196999 C 250.404999 108.497002 250.042999 108.819 249.600006 108.911003 C 249.156998 109.003998 247.462997 109.334 245.835999 109.646004 C 236.570999 111.419998 226.623001 116.988998 219.772003 124.238998 C 217.029007 127.140999 214.714005 130.117996 215.007004 130.365997 C 215.085007 130.432999 216.826004 131.233994 218.875 132.147003 L 222.600998 133.807007 L 223.858002 132.287994 C 228.447998 126.741997 234.837006 122.224998 241.815002 119.591003 C 244.197998 118.691002 250.087997 117.267998 250.348007 117.528999 C 250.744995 117.926003 249.964005 118.778 249.203995 118.778 C 247.720001 118.778 242.136002 120.551003 239.020996 122.011002 C 233.682007 124.513 227.901993 128.970001 224.615005 133.119995 L 223.570007 134.440002 L 226.858994 136.542007 C 228.669006 137.697998 230.272995 138.695999 230.425003 138.759995 C 230.576996 138.824005 231.792007 137.770004 233.126007 136.417007 C 237.192001 132.294998 242.354004 129.253998 247.809998 127.764999 C 250.225006 127.106003 250.404999 127.098999 250.404999 127.669998 C 250.404999 128.128998 249.783005 128.444 247.938995 128.918999 C 245.143005 129.639999 241.158997 131.460007 238.667999 133.154999 C 236.772995 134.445007 231.792999 139.128998 231.792999 139.621994 C 231.792999 139.798004 232.315994 140.373993 232.955994 140.901001 C 233.595993 141.427994 234.964005 142.647995 235.996994 143.612 L 237.873993 145.365005 L 239.755005 143.417999 C 241.942993 141.153 244.298004 139.470993 246.927002 138.294998 C 249.778 137.020004 250.404999 136.886993 250.404999 137.557007 C 250.404999 137.871994 250.123001 138.218994 249.779007 138.330002 C 247.421005 139.085007 243.649994 141.296997 241.796997 143.011993 C 238.552002 146.016998 238.563004 145.927002 241.095001 148.867996 C 242.289001 150.255997 243.462006 151.703995 243.699997 152.085999 C 244.298996 153.044998 244.438004 152.987 245.604004 151.306 C 246.578995 149.899002 249.449005 147.412994 250.098999 147.412994 C 250.878998 147.412994 250.233002 148.451004 248.516006 149.955994 C 247.483002 150.862 246.330994 152.171997 245.955994 152.867004 L 245.276001 154.130005 L 246.727005 156.408997 C 248.035995 158.464996 248.289001 158.682007 249.311005 158.632996 C 250.188004 158.589996 250.419006 158.710999 250.330002 159.169006 C 250.246994 159.602005 249.645004 159.828995 248.074005 160.020996 C 234.138 161.720993 219.942993 168.927002 210.212997 179.240997 C 206.988998 182.658997 200.781998 191.080002 201.487 191.080002 C 202.287994 191.080002 207.886993 192.332993 210.438004 193.084 L 213.600006 194.014008 L 214.151993 193.225998 C 221.457993 182.796005 233.686996 174.925995 246.423004 172.459 C 248.309006 172.093994 249.916 171.858994 249.994003 171.936996 C 250.552994 172.496994 249.395996 173.093002 246.955994 173.501999 C 238.289993 174.955002 228.768005 179.778 221.865997 186.212006 C 219.259995 188.641006 214.970001 193.664001 214.970001 194.285995 C 214.970001 194.447998 215.593994 194.830994 216.356003 195.136002 C 217.117996 195.440994 218.820007 196.199997 220.136993 196.822006 L 222.533997 197.953995 L 223.824997 196.395996 C 228.796997 190.393997 235.673996 185.710007 243.173996 183.220001 C 247.360001 181.830002 249.688995 181.490005 249.688995 182.270004 C 249.688995 182.598007 249.397003 182.848007 249.013 182.848007 C 247.507004 182.848007 241.776001 184.772995 238.391006 186.416 C 233.809006 188.639999 229.852997 191.576996 226.334 195.369003 C 224.809006 197.013 223.612 198.408997 223.675003 198.473007 C 223.738998 198.535995 225.330002 199.602997 227.212006 200.843002 L 230.632996 203.098999 L 233.091995 200.561005 C 236.891006 196.639008 242.123993 193.445999 247.093994 192.016998 C 248.852997 191.511002 248.973007 191.516998 248.973007 192.104996 C 248.973007 192.559006 248.481003 192.860001 247.205994 193.186996 C 243.134995 194.229996 238.414993 197.009995 234.710999 200.544006 C 231.589005 203.524002 231.492996 203.763 232.938995 204.955994 C 233.587997 205.490997 234.977997 206.731003 236.028 207.710999 L 237.936005 209.492996 L 239.427994 207.830002 C 241.093002 205.973999 243.723007 203.927002 245.806 202.863998 C 247.098999 202.203995 247.184006 202.199997 247.184006 202.794998 C 247.184006 203.186005 246.535995 203.772995 245.496994 204.324005 C 243.725998 205.263 239.888 208.612 239.279007 209.748001 C 238.985992 210.296997 239.306 210.860992 241.108994 212.953995 C 242.447006 214.509003 243.216003 215.697998 243.091995 216.022003 C 242.979996 216.313004 242.889008 216.639999 242.889008 216.748993 C 242.889008 216.858002 242.533997 216.483002 242.102005 215.914993 C 240.001999 213.160004 236.024002 209.037003 233.085007 206.570999 C 208.098999 185.600998 171.837997 186.673996 148.539001 209.072006 C 142.869995 214.522003 136.561005 222.710999 137.733002 223.100006 C 137.987 223.184006 139.505997 223.511002 141.108002 223.826004 C 143.011993 224.216003 144.897995 224.688004 146.759995 225.242996 L 149.498001 226.087997 L 150.968002 224.063995 C 151.776001 222.951004 154.067993 220.425003 156.059998 218.451004 C 163.203003 211.371994 172.201004 206.561005 182.220001 204.464996 C 186.669006 203.533997 197.296005 203.518997 201.848007 204.434998 C 213.990005 206.882004 224.811005 213.511993 232.626007 223.292007 C 233.806 224.768005 234.865997 225.953995 234.981995 225.927994 C 235.332001 225.834 235.682007 225.733002 236.029007 225.626007 C 236.768997 225.401001 236.822998 225.449997 236.498993 226.056 C 236.296997 226.432999 234.955002 227.195007 233.514999 227.75 C 229.570999 229.270996 224.304993 232.044006 220.516006 234.595001 C 218.651993 235.850006 216.682007 236.972 216.138 237.089005 L 215.149002 237.300995 L 216.003998 236.552002 L 216.858002 235.804001 L 213.845993 232.858994 C 207.761993 226.908997 200.667007 224.007996 192.203003 224.007996 C 185.701996 224.007996 180.373001 225.574005 175.048996 229.050003 C 172.526993 230.695999 167.723999 235.091995 167.723999 235.753006 C 167.723999 235.921005 169.031006 237.173004 170.628006 238.533997 C 173.052002 240.600006 173.403 241.028 172.755997 241.126007 C 172.248001 241.203003 171.460999 240.768005 170.477997 239.867004 C 163.335007 233.320007 153.268005 227.962006 143.350006 225.429993 C 134.320007 223.125 122.110001 223.070999 113.139999 225.298004 C 103.726997 227.634995 94.795998 232.192001 87.132004 238.572006 C 82.942001 242.057999 81.778999 242.028 85.526001 238.529999 L 85.526001 238.529999 Z M 41.384998 232.125 C 47.738998 225.886993 55.150002 222.884995 64.174004 222.893997 C 69.069 222.897995 73.138 223.785004 77.365997 225.766006 C 81.315002 227.617004 83.224998 228.957993 86.674004 232.300995 L 89.557999 235.095993 L 93.011002 232.863007 C 94.910004 231.634995 96.471001 230.542999 96.480003 230.436996 C 96.487999 230.330994 95.447998 229.095001 94.167 227.690994 C 88.277 221.237 80.473999 216.826996 71.800003 215.048004 C 66.575996 213.977005 58.937 214.182999 53.804001 215.533997 C 46.103001 217.561005 38.151001 222.479996 33.265999 228.238007 L 31.319 230.533005 L 34.826 232.809998 C 36.755001 234.061996 38.337002 235.089996 38.341999 235.095001 C 39.362 234.110992 40.375999 233.121002 41.384998 232.125 L 41.384998 232.125 Z M 169.557007 232.102997 C 176.050003 225.792999 183.296997 222.875 192.421005 222.895996 C 197.393997 222.908005 202.005005 223.953003 206.046997 225.985001 C 209.817001 227.880005 211.522995 229.110992 214.843002 232.330002 L 217.757996 235.154999 L 219.496002 233.925995 C 220.613495 233.14653 221.76033 232.410004 222.934006 231.718002 C 223.869003 231.179993 224.634003 230.630997 224.634003 230.5 C 224.634003 229.942001 219.960999 225.145996 217.554001 223.233994 C 212.380997 219.121994 206.520004 216.397995 199.938004 215.044998 C 194.757004 213.979004 187.115005 214.190002 181.942001 215.539993 C 174.220993 217.556 166.192001 222.533005 161.455002 228.240005 L 159.522003 230.567993 L 162.102005 232.169006 C 163.520996 233.048996 165.065994 234.070007 165.535004 234.436005 C 166.005005 234.802002 166.406998 235.102005 166.429993 235.100998 C 166.453003 235.100998 167.860001 233.751999 169.557007 232.102997 L 169.557007 232.102997 Z M 38.804001 221.593994 C 42.110001 219.102997 46.941002 216.565002 50.845001 215.266998 C 59.237 212.477997 70.154999 212.604996 78.072998 215.585999 C 84.541 218.020004 88.642998 220.718002 93.839996 225.953003 L 97.806 229.947998 L 100.553001 228.621994 C 102.063004 227.893005 103.802002 227.121994 104.417 226.908005 L 105.533997 226.518005 L 104.532997 225.173004 C 99.449997 218.347 93.252998 213.306 85.235001 209.475998 C 74.002998 204.110001 60.497002 203.207993 48.632 207.031006 C 41.627998 209.287994 33.962002 213.957001 28.676001 219.184006 C 25.540001 222.285995 22.527 226.037003 22.885 226.395004 C 23.007 226.516998 24.68 227.375 26.604 228.302994 L 30.101 229.990005 L 33.070999 226.832993 C 34.703999 225.097 37.284 222.740005 38.804001 221.593994 Z M 166.835999 221.686005 C 174.335999 216.042007 182.731995 213.268997 192.322006 213.268997 C 204.181 213.268997 214.261002 217.703995 222.733002 226.647995 L 225.886993 229.977997 L 228.662003 228.636993 C 230.188995 227.899994 231.932999 227.123993 232.537994 226.912994 L 233.639999 226.529007 L 232.447998 224.841995 C 230.645996 222.289993 225.149994 216.843994 222.128998 214.615997 C 216.169006 210.220993 209.612 207.253998 202.442993 205.707993 C 197.466003 204.634995 187.475998 204.528 182.682007 205.498001 C 173.365997 207.380997 164.156998 212.151001 157.503998 218.539993 C 154.959 220.983994 150.901993 225.699005 150.901993 226.212997 C 150.901993 226.365997 152.149994 227.057007 153.675003 227.75 C 155.201004 228.442993 156.850998 229.242996 157.343002 229.526993 C 158.216003 230.033005 158.302994 229.973007 161.190994 226.878006 C 162.817001 225.136002 165.356995 222.800003 166.835999 221.686005 L 166.835999 221.686005 Z M 123.928001 222.574997 C 124.450996 222.574997 124.773003 222.363998 124.773003 222.022003 C 124.773003 221.718002 125.167999 221.072998 125.651001 220.589996 C 127.228996 219.011993 130.436005 219.630997 131.209 221.662003 C 131.466003 222.337997 131.875 222.503998 133.766006 222.701996 C 135.403 222.873001 136.087997 222.815002 136.279007 222.488007 C 136.423004 222.240005 137.102005 221.156006 137.787994 220.078003 C 139.011002 218.156998 139.022995 218.098007 138.436005 217.085999 C 135.598999 212.197006 129.182999 209.858994 123.985001 211.820999 C 121.703003 212.682007 118.820999 215.072006 117.819 216.934006 L 117.157997 218.160995 L 118.549004 220.569 L 119.941002 222.975998 L 121.512001 222.776001 C 122.375999 222.664993 123.462997 222.574997 123.928001 222.574997 L 123.928001 222.574997 Z M 130.141998 222.242996 C 130.141998 220.934998 127.646004 220.341995 126.500999 221.378006 C 125.435997 222.341995 125.726997 222.574997 127.994003 222.574997 C 129.175003 222.574997 130.141998 222.425003 130.141998 222.242996 Z M 117.466003 215.371994 C 118.809998 213.432999 121.140999 211.686005 123.643997 210.742004 C 126.524002 209.656006 130.968002 209.876007 133.617996 211.235992 C 135.893005 212.404007 137.733002 213.979004 138.757996 215.636993 C 139.181 216.322006 139.643997 216.834 139.787994 216.774994 C 139.932007 216.716995 141.264999 215.220001 142.75 213.447998 L 145.449997 210.227005 L 144.328003 208.962997 C 137.279007 201.026001 126.119003 199.201996 117.035004 204.501007 C 115.259003 205.537003 110.814003 209.546997 110.814003 210.113007 C 110.814003 210.475998 115.899002 216.781998 116.223 216.820999 C 116.344002 216.837006 116.903 216.184006 117.466003 215.371994 L 117.466003 215.371994 Z M 112.027 207.095001 C 114.700996 204.432999 117.940002 202.444 121.373001 201.356003 C 124.731003 200.292007 131.464996 200.231003 134.436996 201.237 C 138.095001 202.475998 141.339996 204.423996 143.860992 206.897003 L 146.306 209.294998 L 149.468994 206.550003 L 152.632004 203.804993 L 151.334 202.369003 C 146.987 197.557007 141.712006 194.356995 135.332001 192.660004 C 133.429993 192.154999 131.619003 191.998993 127.815002 192.016006 C 123.447998 192.033997 122.400002 192.158997 119.655998 192.992004 C 114.095001 194.679001 110.454002 196.817993 106.25 200.867996 C 103.945 203.089005 103.115997 204.320007 103.924004 204.320999 C 104.070999 204.322006 105.400002 205.440994 106.876999 206.809998 C 108.352997 208.177994 109.610001 209.304993 109.669998 209.315002 C 109.731003 209.322998 110.791 208.324997 112.027 207.095001 L 112.027 207.095001 Z M 109.671997 196.490005 C 112.710999 194.429993 116.475998 192.686005 119.941002 191.733002 C 122.307999 191.082993 123.736 190.947006 128.173004 190.951996 C 132.966995 190.955994 133.880997 191.061005 136.705994 191.921005 C 142.772003 193.764999 147.979004 196.949005 151.690002 201.082001 L 153.550003 203.153 L 156.431 201.248993 C 158.016006 200.201996 159.626007 199.121994 160.009003 198.847 C 160.669006 198.375 160.529007 198.166 157.386002 194.917007 C 150.725998 188.033005 143.050003 184.052994 133.723007 182.645996 C 129.630005 182.029007 127.419998 182.003998 123.162003 182.526001 C 113.725998 183.682007 104.857002 188.242996 98.153 195.386002 L 95.334999 198.388 L 96.182999 198.938004 C 96.649002 199.240997 98.239998 200.296997 99.717003 201.285004 L 102.402 203.082001 L 104.907997 200.550995 C 106.286003 199.158997 108.43 197.330994 109.671997 196.488998 L 109.671997 196.490005 Z M 96.308998 195.710999 C 101.828003 189.013 110.536003 183.891998 119.762001 181.917999 C 123.414001 181.136993 131.959 181.035995 135.494995 181.733002 C 141.117004 182.839996 146.764008 185.167007 151.548004 188.347 C 154.462997 190.285004 158.824997 194.264999 160.386993 196.410995 C 161.029999 197.296005 161.675995 197.826996 161.996994 197.735992 C 162.292999 197.653 164.102005 196.867004 166.018997 195.988998 L 169.503006 194.391998 L 167.772003 192.108002 C 165.253006 188.785995 159.697006 183.626007 155.917999 181.098007 C 147.457001 175.438995 138.412003 172.723007 127.994003 172.712997 C 114.928001 172.701996 102.815002 177.542999 93.311996 186.574997 C 91.061996 188.714005 86.833 193.729004 86.833 194.257996 C 86.833 194.406006 88.081001 195.069 89.607002 195.729996 C 91.132004 196.391006 92.697998 197.145004 93.085999 197.404999 C 94.181 198.139008 94.406998 198.020004 96.308998 195.710999 L 96.308998 195.710999 Z M 87.012001 191.910004 C 89.070999 189.011002 94.476997 183.720993 97.851997 181.302002 C 103.943001 176.936005 111.542999 173.695999 119.045998 172.264999 C 124.056999 171.309998 132.320007 171.365005 137.488007 172.389999 C 144.960999 173.871002 150.537003 176.171997 156.720993 180.326996 C 161.309006 183.410004 164.843994 186.639999 168.123001 190.746994 C 169.526001 192.503998 170.751999 193.940994 170.847 193.940994 C 170.942993 193.940994 172.332993 193.546997 173.936005 193.065994 C 175.839325 192.508469 177.763412 192.024445 179.703995 191.615005 C 181.272995 191.298004 182.613998 190.981995 182.682999 190.912994 C 183.145996 190.449997 177.546997 183 173.848007 179.156006 C 164.697998 169.647003 153.455002 163.436996 140.343002 160.647995 C 135.753998 159.671997 125.652 159.296997 120.594002 159.914001 C 104.527 161.876999 89.719002 169.882004 79.503998 182.128998 C 77.222 184.863998 73.100998 190.709 73.307999 190.916 C 73.371002 190.979004 75.029999 191.358002 76.996002 191.759995 C 78.960999 192.160995 81.455002 192.804001 82.538002 193.188995 C 83.620003 193.574005 84.748001 193.897003 85.042999 193.906998 C 85.337997 193.919006 86.223999 193.018997 87.012001 191.910004 L 87.012001 191.910004 Z M 59.898998 190.494003 C 60.341999 190.375 60.703999 190.070007 60.703999 189.815002 C 60.703999 189.095001 62.808998 187.498001 63.757 187.498001 C 65.114998 187.498001 66.384003 188.244003 66.861 189.320999 C 67.357002 190.442993 68.028999 190.707993 70.391998 190.714996 C 72.012001 190.718994 72.038002 190.699997 73.494003 188.417007 L 74.961998 186.113998 L 73.977997 184.561996 C 70.521004 179.110992 63.396999 177.453995 57.811001 180.802994 C 56.009998 181.882004 53.193001 185.020996 53.188999 185.951996 C 53.188 186.184998 53.792 187.350998 54.529999 188.542999 C 55.849998 190.675995 55.897999 190.712006 57.483002 190.710999 C 58.368 190.710007 59.456001 190.613007 59.898998 190.494003 L 59.898998 190.494003 Z M 188.559006 190.143005 C 190.074997 188.248993 191.016006 187.498001 191.873993 187.498001 C 193.264008 187.498001 194.886002 188.464996 195.130997 189.440002 C 195.373993 190.410004 196.173996 190.707993 198.554993 190.714996 C 200.210007 190.718994 200.220001 190.712997 201.658997 188.417999 L 203.102005 186.117004 L 202.104996 184.570007 C 200.712997 182.412003 199.362 181.240005 197.074005 180.207001 C 193.199005 178.457001 189.533997 178.653 185.949005 180.802994 C 184.147995 181.882004 181.330994 185.020996 181.326996 185.951996 C 181.326004 186.184998 181.929001 187.350998 182.667999 188.542999 L 184.009995 190.712006 L 186.054001 190.716003 C 187.507004 190.718994 188.231003 190.552994 188.559006 190.143005 L 188.559006 190.143005 Z M 65.985001 189.914001 C 65.903 189.667999 65.405998 189.225006 64.880997 188.929993 C 64.030998 188.453003 63.819 188.453003 62.970001 188.929993 C 61.220001 189.912994 61.519001 190.362 63.924999 190.362 C 65.530998 190.362 66.092003 190.240005 65.985001 189.914001 L 65.985001 189.914001 Z M 194.210999 190.011993 C 194.210999 189.820007 193.809006 189.399002 193.317993 189.078003 C 192.240005 188.371002 190.811996 188.639008 190.270996 189.649994 C 189.910995 190.324005 190.005997 190.362 192.050003 190.362 C 193.238998 190.362 194.210999 190.205002 194.210999 190.011993 Z M 55.526001 181.091995 C 57.993999 178.927994 60.453999 178.029999 63.924999 178.024994 C 66.593002 178.022003 67.254997 178.158005 69.293999 179.130005 C 71.718002 180.285995 73.806 182.069 74.896004 183.914001 C 75.246002 184.507004 75.619003 184.990005 75.724998 184.985001 C 75.830002 184.981003 76.363998 184.343994 76.912003 183.570007 C 77.459999 182.794998 78.725998 181.266006 79.726997 180.171005 L 81.545998 178.179993 L 79.088997 175.770004 C 72.460999 169.268005 63.008999 167.600998 54.852001 171.494003 C 52.071999 172.820007 48.681999 175.403 47.451 177.132004 C 46.557999 178.386002 46.388 178.031998 49.921001 182.251999 L 52.202999 184.977005 L 53.171001 183.643005 C 53.702999 182.908997 54.763 181.761002 55.526001 181.091995 L 55.526001 181.091995 Z M 182.718994 182.056 C 183.673004 181.013 185.220993 179.876999 186.649002 179.173996 C 188.751007 178.139008 189.335007 178.014008 192.056 178.016998 C 194.729996 178.022003 195.401001 178.160995 197.5 179.151993 C 199.865997 180.268997 202.925003 182.975998 203.356003 184.335007 C 203.559998 184.977997 204.233002 185.268005 204.233002 184.712997 C 204.233002 184.559998 205.449005 183.020996 206.936005 181.294998 L 209.639008 178.156006 L 207.203995 175.744995 C 202.147995 170.738007 195.319 168.539001 188.557007 169.738998 C 183.658997 170.608002 178.574005 173.455994 175.906998 176.822998 L 174.806 178.212997 L 175.649994 179.238007 C 176.586044 180.38205 177.518051 181.529388 178.445999 182.679993 C 180.181 184.828003 180.440994 185.024002 180.772995 184.438995 C 180.977997 184.076004 181.854004 183.003998 182.718994 182.057007 L 182.718994 182.056 L 182.718994 182.056 Z M 53.372002 170.973999 C 62.208 166.341003 72.306999 167.807999 79.629997 174.787994 L 82.359001 177.388 L 85.345001 174.608002 C 88.848999 171.347 88.859001 171.572006 85.057999 168.102997 C 78.994003 162.569 72.135002 159.938004 63.769001 159.938004 C 56.581001 159.938004 50.147999 162.209 44.405998 166.770996 C 41.867001 168.789001 39.500999 171.317993 39.674 171.830994 C 39.723999 171.979996 41.101002 173.270996 42.734001 174.699997 L 45.703999 177.298004 L 48.287998 174.791 C 49.827 173.298004 51.882 171.755005 53.372002 170.973999 Z M 182.095993 170.744003 C 183.738998 169.964005 185.807999 169.154999 186.694 168.945007 C 194.395996 167.126007 201.916 169.203003 207.725998 174.753998 L 210.557999 177.459 L 211.600998 176.350006 C 212.175003 175.738998 213.570999 174.460999 214.703003 173.509003 L 216.763 171.779007 L 214.561005 169.425003 C 210.606003 165.197006 204.328003 161.677994 198.559998 160.455002 C 194.973999 159.695007 188.565994 159.794998 184.904999 160.669006 C 179.119003 162.048996 171.945007 166.345001 168.804001 170.309998 L 167.593002 171.839005 L 169.533997 173.494995 C 170.600998 174.404999 172.013 175.636993 172.673004 176.231995 L 173.871002 177.315002 L 176.490005 174.738007 C 178.475998 172.783997 179.830994 171.819 182.095993 170.744003 L 182.095993 170.744003 Z M 40.720001 168.666 C 51.594002 157.309998 69.097 155.485992 82.18 164.345001 C 83.065002 164.944 85.087997 166.692993 86.674004 168.231003 L 89.557999 171.026001 L 93.011002 168.792999 C 94.910004 167.565002 96.471001 166.440994 96.480003 166.294998 C 96.514 165.742004 89.768997 159.261002 87.492996 157.660995 C 82.536003 154.177002 75.936996 151.528 69.858002 150.584 C 65.744003 149.945007 57.958 150.378006 53.723999 151.481995 C 46.349998 153.404999 38.02 158.563004 33.293999 164.134995 L 31.297001 166.488998 L 33.025002 167.537003 C 34.21487 168.266846 35.388168 169.023361 36.543999 169.806 C 37.528 170.477997 38.360001 171.029007 38.393002 171.031006 C 38.426998 171.033005 39.473 169.968994 40.720001 168.666 Z M 169.557007 168.033997 C 175.990997 161.781998 183.315002 158.804001 192.259995 158.804001 C 201.042007 158.802994 208.914993 162.130997 215.190002 168.496002 L 217.735992 171.078995 L 220.022003 169.492004 C 221.279007 168.619003 222.830994 167.638 223.470993 167.311996 C 224.110992 166.987 224.634003 166.587006 224.634003 166.423996 C 224.634003 166.261002 223.367996 164.776001 221.820007 163.123001 C 215.574997 156.453995 207.110992 152 197.996002 150.584 C 193.904999 149.947998 186.091003 150.378006 181.942001 151.466995 C 174.240997 153.488007 166.421005 158.320999 161.472 164.117996 L 159.468002 166.466003 L 162.074997 168.084 C 163.509003 168.973007 165.065994 170.001007 165.535004 170.367996 C 166.005005 170.733994 166.406998 171.033997 166.429993 171.033005 C 166.453003 171.033005 167.860001 169.682999 169.557007 168.033997 L 169.557007 168.033997 Z M 39.030998 157.337997 C 42.800999 154.539993 48.931 151.578003 53.366001 150.408997 C 58.584999 149.033997 66.822998 148.813004 72.157997 149.906006 C 81.028999 151.723999 88.089996 155.712997 94.596001 162.580994 L 97.749001 165.910995 L 100.524002 164.570007 C 102.051003 163.832993 103.797997 163.056 104.407997 162.843994 L 105.515999 162.457001 L 104.399002 160.929993 C 96.538002 150.175003 83.626999 142.641998 70.149002 140.945999 C 65.959999 140.419006 58.477001 140.679993 54.303001 141.5 C 42.278999 143.860001 31.077999 150.904999 23.674 160.761002 C 23.089001 161.539993 22.792 162.244003 22.976999 162.410995 C 23.155001 162.572006 24.509001 163.240005 25.985001 163.897995 C 27.462 164.554993 28.983999 165.298996 29.367001 165.552002 C 30.002001 165.970993 30.344 165.714005 33.125999 162.731003 C 34.808998 160.925995 37.466 158.498993 39.030998 157.337997 L 39.030998 157.337997 Z M 166.942001 157.526993 C 171.959 153.746994 178.330994 150.938995 184.585007 149.751999 C 188.839996 148.945007 195.932007 149.029007 200.417999 149.938995 C 209.794998 151.841003 218.412003 157.037994 224.524994 164.479004 L 225.755005 165.975998 L 228.587997 164.606003 C 230.147003 163.852005 231.921005 163.061005 232.531006 162.848999 L 233.639999 162.462006 L 232.457993 160.817001 C 230.190994 157.660004 225.959 153.457001 222.222 150.651001 C 216.25 146.167999 209.354004 143.067993 201.727005 141.440994 C 197.526001 140.544998 187.115005 140.539001 182.692001 141.429993 C 172.994995 143.384003 163.759003 148.272995 156.860001 155.100998 C 153.354996 158.570007 150.662994 161.998993 151.113998 162.419998 C 151.292999 162.585999 152.807007 163.315994 154.481003 164.041 C 156.154007 164.766998 157.675003 165.507996 157.860001 165.688995 C 158.067993 165.891006 159.345993 164.787003 161.188004 162.813004 C 162.832001 161.050995 165.421997 158.671997 166.942001 157.526001 L 166.942001 157.526993 L 166.942001 157.526993 Z M 22.787001 160.029007 C 26.160999 155.520996 31.903 150.279999 36.903999 147.141998 C 41.557999 144.220993 48.457001 141.514008 54.195999 140.356003 C 58.561001 139.475006 69.305 139.477997 73.685997 140.363998 C 80.538002 141.746002 86.882004 144.371002 92.579002 148.182007 C 96.427002 150.755005 102.237999 156.201004 104.768997 159.602997 L 106.539001 161.983994 L 109.853996 160.998993 C 111.676003 160.457001 114.410004 159.804993 115.928001 159.550003 C 117.445999 159.294998 118.688004 158.985992 118.688004 158.865005 C 118.688004 158.388 114.245003 152.167999 111.968002 149.459 C 107.247002 143.839996 99.761002 137.966995 92.737999 134.371002 C 65.478996 120.415001 32.282001 128.052002 13.406 152.621002 C 10.659 156.195999 9.076 158.860001 9.595 159.031998 C 9.849 159.117004 11.351 159.438995 12.932 159.75 C 15.104 160.177002 20.830999 161.772003 21.200001 162.052994 C 21.226 162.072006 21.938999 161.162994 22.787001 160.031006 L 22.787001 160.029007 L 22.787001 160.029007 Z M 152.332993 158.326004 C 158.882996 149.934006 170.201996 143.039993 181.501999 140.559998 C 186.636993 139.432999 195.100006 139.268005 200.473999 140.190002 C 211.113998 142.016006 219.873993 146.410995 227.539001 153.768005 C 229.477997 155.628006 231.889008 158.233002 232.899002 159.557007 L 234.735001 161.964996 L 238.007004 160.996002 C 239.806 160.464005 242.485992 159.820999 243.962006 159.567001 C 245.438995 159.313995 246.699005 159.067001 246.763 159.018997 C 247.399002 158.539993 240.919006 150.026001 236.835999 145.975998 C 212.300995 121.642998 173.080002 121.234001 148.464996 145.054993 C 142.830002 150.507996 136.572006 158.653 137.733002 159.024002 C 137.987 159.104996 139.826996 159.509003 141.822006 159.921005 C 143.817001 160.332993 146.313995 160.975006 147.369995 161.348007 L 149.291 162.024994 L 150.007004 161.207001 C 150.399994 160.757996 151.447006 159.460999 152.332993 158.326004 L 152.332993 158.326004 Z M 123.565002 158.507004 C 124.416 158.507004 124.773003 158.343994 124.773003 157.953995 C 124.773003 157.649994 125.167999 157.005997 125.651001 156.522995 C 127.228996 154.945007 130.436005 155.563004 131.209 157.595001 C 131.466003 158.270004 131.875 158.436996 133.766006 158.634995 C 135.403 158.806 136.087997 158.746994 136.279007 158.419998 C 136.423004 158.173004 137.102005 157.089005 137.787994 156.011002 C 139.013 154.085007 139.024994 154.031998 138.436005 152.992004 C 137.473999 151.291 135.322998 149.302994 133.285995 148.231003 C 131.602997 147.345993 131.018997 147.235992 127.994003 147.235001 C 125.119003 147.235001 124.345001 147.365005 122.983002 148.076004 C 120.057999 149.604996 116.917999 153.173004 117.398003 154.423004 C 117.503998 154.699997 118.169998 155.830994 118.876999 156.936005 C 120.075996 158.811005 120.236 158.932007 121.260002 158.727005 C 121.862999 158.606003 122.900002 158.507996 123.565002 158.507996 L 123.565002 158.507004 L 123.565002 158.507004 Z M 130.141998 158.175003 C 130.141998 156.867004 127.646004 156.274002 126.500999 157.309998 C 125.435997 158.274002 125.726997 158.507996 127.994003 158.507996 C 129.175003 158.507996 130.141998 158.358002 130.141998 158.175003 Z M 117.466003 151.304993 C 118.809998 149.365005 121.140999 147.617996 123.643997 146.673996 C 126.524002 145.589005 130.968002 145.809006 133.617996 147.169006 C 135.893005 148.335999 137.733002 149.912003 138.757996 151.570007 C 139.181 152.253998 139.645996 152.766006 139.791 152.707993 C 139.936996 152.649994 141.279999 151.125 142.776993 149.320999 L 145.498993 146.039993 L 143.175995 143.716003 C 140.453995 140.994995 136.472 138.764008 132.781998 137.893997 C 127.804001 136.720001 121.717003 137.701996 117.035004 140.434006 C 115.241997 141.479004 110.814003 145.481995 110.814003 146.056 C 110.814003 146.233002 111.785004 147.505005 112.971001 148.884003 C 114.157997 150.261993 115.323997 151.703003 115.563004 152.085999 C 116.161003 153.044006 116.301003 152.985992 117.466003 151.304993 L 117.466003 151.304993 Z M 112.017998 143.026993 C 116.135002 138.897995 120.910004 136.735992 126.629997 136.410995 C 131.153 136.154007 133.804993 136.686996 137.947006 138.684006 C 140.507004 139.917999 141.860992 140.860992 143.792007 142.759003 L 146.306 145.227997 L 149.468994 142.481995 L 152.632004 139.737 L 151.348999 138.294998 C 140.882004 126.522003 123.501999 124.360001 110.456001 133.209 C 107.108002 135.479004 102.682999 140.251999 103.924004 140.253998 C 104.070999 140.253998 105.400002 141.373993 106.876999 142.742004 C 108.352997 144.110001 109.612 145.238007 109.674004 145.246994 C 109.736 145.255005 110.791 144.257996 112.017998 143.026993 L 112.017998 143.026993 Z M 159.957993 134.809998 C 160.556 134.380997 160.472 134.192993 158.787003 132.199997 C 154.229996 126.810997 147.511993 122.382004 140.350006 120.043999 C 137.207993 119.018997 131.210999 118.060997 127.947998 118.064003 C 120.452003 118.071999 111.436996 120.913002 104.952003 125.313004 C 102.640999 126.880997 98.117996 131.046997 96.476997 133.119003 L 95.431999 134.438995 L 98.722 136.541 C 100.530998 137.697006 102.136002 138.695007 102.287003 138.759003 C 102.439003 138.822998 103.653999 137.768997 104.987999 136.417007 C 109.021004 132.328003 113.615997 129.576996 119.297997 127.848 C 122.087997 127 123.056999 126.888 127.815002 126.867996 C 133.574005 126.841003 135.425995 127.169998 140.102005 129.037003 C 144.104996 130.634995 147.306 132.761002 150.524002 135.957993 L 153.585999 139.001007 L 156.449005 137.136993 C 158.024002 136.112 159.602997 135.065002 159.957993 134.809998 L 159.957993 134.809998 Z M 96.142998 131.787994 C 99.064003 128.110001 104.297997 124.019997 109.306 121.499001 C 125.052002 113.575996 144.026001 116.419998 156.947998 128.639999 C 158.248993 129.869995 159.796005 131.537994 160.386993 132.348007 C 161.029007 133.229004 161.675995 133.759003 161.996994 133.669006 C 162.292999 133.585999 164.106995 132.796997 166.029007 131.916 L 169.522995 130.315002 L 167.938004 128.214996 C 163.796997 122.730003 156.772003 116.971001 150.365005 113.809998 C 142.977005 110.165001 136.610001 108.672997 128.352005 108.652 C 117.610001 108.625999 108.737 111.305 99.721001 117.294998 C 95.497002 120.101997 86.833 128.793999 86.833 130.225006 C 86.833 130.360001 88.241997 131.076004 89.963997 131.819 C 91.686996 132.561005 93.249001 133.311996 93.435997 133.488998 C 94.078003 134.095993 94.539001 133.807007 96.142998 131.787994 L 96.142998 131.787994 Z M 87.012001 127.843002 C 89.070999 124.944 94.476997 119.653999 97.851997 117.234001 C 103.943001 112.869003 111.542999 109.627998 119.045998 108.197998 C 123.557999 107.336998 132.253006 107.315002 136.843002 108.151001 C 149.425995 110.444 160.738007 117.182999 168.337006 126.916 C 169.608002 128.542999 170.731003 129.873993 170.834 129.873993 C 170.936996 129.873993 172.332993 129.479996 173.936005 128.998001 C 175.839584 128.441406 177.763641 127.95739 179.703995 127.546997 C 181.272995 127.231003 182.619995 126.907997 182.697006 126.831001 C 182.774002 126.753998 182.059998 125.521004 181.110001 124.092003 C 172.729996 111.486 159.908005 102 145.712006 97.903 C 139.072006 95.987 136.662003 95.691002 127.815002 95.705002 C 120.637001 95.716003 119.101997 95.821999 115.824997 96.529999 C 101.085999 99.710999 88.719002 107.078003 79.376999 118.240997 C 76.888 121.216003 73.086998 126.626999 73.320999 126.862 C 73.376999 126.917 75.029999 127.294998 76.996002 127.700996 C 78.960999 128.108002 81.535004 128.748001 82.716003 129.123993 C 83.898003 129.5 85.025002 129.820007 85.222 129.832993 C 85.418999 129.848007 86.223999 128.950996 87.012001 127.843002 L 87.012001 127.843002 Z M 59.898998 126.427002 C 60.341999 126.307999 60.703999 126.001999 60.703999 125.747002 C 60.703999 125.014999 62.816002 123.431 63.792 123.431 C 65.132004 123.431 66.751999 124.413002 66.992996 125.372002 C 67.236 126.339996 68.036003 126.639999 70.391998 126.647003 C 72.012001 126.651001 72.038002 126.632004 73.494003 124.348999 L 74.961998 122.046997 L 73.966003 120.501999 C 72.557999 118.318001 71.226997 117.177002 68.757004 116.037003 C 64.179001 113.921997 58.819 115.035004 55.241001 118.844002 C 52.926998 121.306999 52.863998 121.785004 54.507 124.439003 C 55.852001 126.612 55.895 126.643997 57.483002 126.642998 C 58.368 126.642998 59.456001 126.544998 59.898998 126.427002 L 59.898998 126.427002 Z M 188.787994 125.917999 C 189.130005 124.890999 190.942001 123.431 191.873993 123.431 C 193.264008 123.431 194.886002 124.398003 195.130997 125.372002 C 195.373993 126.342003 196.173996 126.639999 198.554993 126.647003 C 200.209 126.651001 200.220993 126.642998 201.651993 124.362 L 203.087997 122.070999 L 202.371002 120.872002 C 198.613007 114.584 190.539001 113.067001 184.666 117.545998 C 183.479004 118.452003 181.324997 121.290001 181.324997 121.948997 C 181.324997 122.146004 181.929001 123.295998 182.667999 124.503998 L 184.009995 126.699997 L 186.313004 126.566002 C 187.901993 126.472 188.669998 126.272003 188.787994 125.917999 L 188.787994 125.917999 Z M 65.985001 125.847 C 65.903 125.600998 65.405998 125.157997 64.880997 124.862999 C 64.030998 124.385002 63.819 124.385002 62.970001 124.862999 C 61.220001 125.846001 61.519001 126.293999 63.924999 126.293999 C 65.530998 126.293999 66.092003 126.171997 65.985001 125.847 Z M 194.210999 125.945 C 194.210999 125.751999 193.809006 125.332001 193.317993 125.010002 C 192.240005 124.303001 190.811996 124.571999 190.270996 125.583 C 189.910995 126.255997 190.005997 126.293999 192.050003 126.293999 C 193.238998 126.293999 194.210999 126.137001 194.210999 125.945 L 194.210999 125.945 Z M 55.526001 117.024002 C 57.993999 114.860001 60.453999 113.961998 63.924999 113.958 C 66.584 113.955002 67.261002 114.092003 69.293999 115.055 C 71.608002 116.149002 74.803001 118.958 75.216003 120.260002 C 75.517998 121.210999 75.789001 121.089996 76.912003 119.501999 C 77.459999 118.727997 78.725998 117.197998 79.726997 116.103996 L 81.545998 114.112999 L 79.088997 111.702003 C 76.427002 109.091003 73.011002 107.081001 69.473 106.042999 C 66.599998 105.199997 61.248001 105.198997 58.396 106.042 C 54.188 107.283997 49.722 110.111 47.625999 112.858002 C 46.513 114.317001 46.334 113.900002 49.921001 118.184998 L 52.202999 120.910004 L 53.171001 119.575996 C 53.702999 118.842003 54.763 117.694 55.526001 117.025002 L 55.526001 117.024002 L 55.526001 117.024002 Z M 182.718994 117.988998 C 184.692001 115.829002 187.917999 114.200996 190.815994 113.903999 C 195.274002 113.445999 200.300003 115.720001 202.615005 119.241997 C 203.209 120.147003 203.776001 120.891998 203.875 120.898003 C 203.973007 120.905998 204.501999 120.277 205.050003 119.501999 C 205.597 118.727997 206.848007 117.217003 207.828003 116.143997 L 209.610992 114.193001 L 207.800995 112.212997 C 201.511002 105.331001 190.957993 103.389 182.593002 107.574997 C 180.192001 108.776001 177.261002 111.044998 175.914993 112.745003 C 174.660004 114.330002 174.406998 113.726997 178.283005 118.386002 C 180.139999 120.617996 180.479004 120.882004 180.787994 120.338997 C 180.985001 119.994003 181.854004 118.935997 182.718994 117.988998 L 182.718994 117.988998 Z M 53.938999 106.638 C 58.394001 104.431 62.615002 103.769997 67.338997 104.542 C 72.153 105.329002 75.910004 107.186996 79.410004 110.511002 C 80.880997 111.907997 82.197998 113.051003 82.336998 113.051003 C 82.709999 113.051003 88.264 107.912003 88.264 107.566002 C 88.264999 106.862 83.907997 102.795998 81.278999 101.045998 C 75.905998 97.471001 70.461998 95.835999 63.953999 95.842003 C 56.473999 95.849998 50.348999 97.981003 44.532001 102.603996 C 41.887001 104.705002 39.498001 107.241997 39.674 107.762001 C 39.723999 107.911003 41.108002 109.202003 42.749001 110.630997 L 45.734001 113.230003 L 48.298 110.695999 C 50.189999 108.827003 51.669998 107.763 53.938999 106.638 L 53.938999 106.638 Z M 181.509995 106.905998 C 185.162994 104.990997 187.985001 104.327003 192.421005 104.339996 C 195.641998 104.348 196.615997 104.501999 199.237 105.412003 C 202.891998 106.679001 205.781006 108.524002 208.518005 111.337997 L 210.535995 113.414001 L 211.589996 112.292999 C 212.169998 111.677002 213.570999 110.393997 214.703003 109.442001 L 216.763 107.710999 L 214.561005 105.358002 C 211.865005 102.474998 207.261993 99.357002 203.608002 97.939003 C 195.311005 94.717003 185.677994 95.172997 178.035995 99.149002 C 174.608002 100.932999 170.531006 104.061996 168.817993 106.224998 L 167.619995 107.737 L 169.548996 109.410004 C 170.610001 110.330002 172.007996 111.566002 172.654999 112.155998 L 173.832993 113.230003 L 176.421005 110.723999 C 177.957993 109.235001 180.024994 107.684998 181.509995 106.905998 Z M 40.720001 104.598999 C 46.886002 98.158997 54.951 94.721001 63.924999 94.708 C 72.807999 94.696999 80.162003 97.739998 86.653999 104.117996 L 89.516998 106.931 L 92.996002 104.711998 C 94.910004 103.490997 96.480003 102.401001 96.486 102.291 C 96.492996 102.18 95.358002 100.852997 93.966003 99.343002 C 87.709999 92.554001 79.057999 87.949997 69.858002 86.514 C 65.691002 85.863998 57.598 86.325996 53.557999 87.444 C 45.696999 89.619003 38.174999 94.313004 33.254002 100.114998 L 31.320999 102.392998 L 33.932999 104.013 C 35.368999 104.904999 36.928001 105.933998 37.397999 106.300003 C 37.867001 106.666 38.297001 106.966003 38.352001 106.966003 C 38.408001 106.966003 39.473 105.901001 40.720001 104.598999 L 40.720001 104.598999 Z M 168.858002 104.598999 C 175.033005 98.150002 183.113007 94.709 192.063004 94.719002 C 201.621002 94.730003 209.701004 98.303001 216.171997 105.383003 L 217.654999 107.004997 L 221.128006 104.749001 C 223.037994 103.508003 224.608994 102.361 224.617996 102.199997 C 224.626007 102.039001 222.897003 100.186996 220.772995 98.084 C 215.179001 92.544998 209.619995 89.350998 201.845001 87.209 C 199.438004 86.545998 198.082993 86.435997 192.242004 86.428001 C 185.962997 86.419998 185.167007 86.491997 181.862 87.383003 C 174.417007 89.389 166.126007 94.533997 161.447006 100.050003 L 159.464005 102.386002 L 162.013 103.958 C 163.414993 104.821999 164.973007 105.852997 165.475998 106.248001 C 165.977997 106.642998 166.434006 106.966003 166.490005 106.966003 C 166.546005 106.966003 167.610992 105.901001 168.858002 104.598999 L 168.858002 104.598999 Z M 39.030998 93.268997 C 42.810001 90.464996 48.931999 87.507004 53.366001 86.344002 C 57.756001 85.192001 65.911003 84.778 70.304001 85.485001 C 79.720001 86.999001 87.556999 91.153 94.277 98.192001 L 97.755997 101.834999 L 100.528 100.498001 C 102.052002 99.763 103.794998 98.987999 104.401001 98.777 L 105.501999 98.392998 L 104.309998 96.692001 C 102.467003 94.059998 96.267998 88.044998 93.030998 85.745003 C 87.514 81.825996 80.717003 78.899002 73.588997 77.373001 C 69.264 76.446999 58.553001 76.458 54.261002 77.391998 C 44.380001 79.544998 35.602001 84.194 28.853001 90.849998 C 25.264999 94.389999 22.504999 97.912003 22.976999 98.350998 C 23.155001 98.516998 24.67 99.247002 26.343 99.972 C 28.016001 100.697998 29.537001 101.439003 29.723 101.620003 C 29.931 101.821999 31.236 100.686996 33.123001 98.664001 C 34.807999 96.857002 37.466 94.429001 39.030998 93.267998 L 39.030998 93.268997 L 39.030998 93.268997 Z M 232.531006 98.779999 L 233.639999 98.392998 L 232.447998 96.683998 C 230.556 93.972 224.371002 87.973999 221.121002 85.700996 C 215.382004 81.685997 208.983002 78.940002 201.718994 77.375 C 197.412994 76.447998 186.699005 76.457001 182.399002 77.389999 C 172.520996 79.538002 163.679001 84.257004 156.813995 91.046997 C 153.358994 94.463997 150.658005 97.925003 151.115005 98.350998 C 151.292999 98.516998 153.009003 99.337997 154.929001 100.176003 L 158.419998 101.698997 L 161.307007 98.612999 C 165.095993 94.564003 169.046997 91.629997 173.942001 89.233002 C 179.647003 86.438004 183.742004 85.444 190.453995 85.224998 C 196.369003 85.030998 199.216995 85.350998 204.037994 86.747002 C 211.475998 88.903 218.792007 93.614998 223.716995 99.421997 L 225.804001 101.882004 L 228.613007 100.524002 C 230.158005 99.777 231.921005 98.990997 232.531006 98.778999 L 232.531006 98.779999 L 232.531006 98.779999 Z M 23.221001 95.422997 C 30.927999 85.366997 42.741001 78.305 55.512001 76.120003 C 59.125 75.501999 60.75 75.417 65.714996 75.584999 C 76.072998 75.935997 84.226997 78.524002 92.579002 84.111 C 96.427002 86.683998 102.237999 92.129997 104.768997 95.531998 L 106.539001 97.913002 L 109.839996 96.935997 C 111.654999 96.399002 114.348 95.751999 115.824997 95.498001 C 117.301003 95.245003 118.568001 94.990997 118.639999 94.934998 C 118.841003 94.778 116.635002 91.293999 114.811996 88.890999 C 98.998001 68.036003 73.054001 58.953999 47.819 65.440002 C 37.153 68.181999 26.594999 74.360001 18.568001 82.557999 C 13.965 87.259003 8.62 94.643997 9.595 94.955002 C 9.849 95.036003 11.69 95.440002 13.684 95.851997 C 16.431 96.419998 20.613001 97.611 21.193001 97.991997 C 21.216 98.007004 22.128 96.849998 23.221001 95.422997 Z M 152.332993 94.260002 C 157.699997 87.394997 166.996002 80.992996 175.953995 77.992996 C 181.733994 76.057999 186.966003 75.352997 193.852997 75.581001 C 204.787994 75.943001 213.376999 78.834 222.154999 85.109001 C 225.595001 87.568001 230.384995 92.203003 232.936005 95.541 L 234.735001 97.896004 L 238.020004 96.918999 C 239.826996 96.382004 242.548004 95.734001 244.065994 95.478996 C 245.584 95.223999 246.826004 94.892998 246.826004 94.744003 C 246.826004 94.595001 245.899994 93.109001 244.768005 91.442001 C 234.078003 75.699997 217.481003 65.755997 198.429993 63.678001 C 178.910004 61.549 158.727005 69.337997 145.153 84.237999 C 141.085007 88.704002 136.934006 94.698997 137.733002 94.957001 C 137.987 95.038002 139.535004 95.364998 141.173996 95.682999 C 142.811996 96.000999 145.307999 96.636002 146.720993 97.096001 L 149.291 97.931 L 150.007004 97.125999 C 150.399994 96.682999 151.447006 95.393997 152.332993 94.260002 L 152.332993 94.260002 Z M 123.565002 94.439003 C 124.416 94.439003 124.773003 94.275002 124.773003 93.886002 C 124.773003 93.582001 125.167999 92.936996 125.651001 92.454002 C 127.228996 90.875999 130.436005 91.495003 131.209 93.526001 C 131.466003 94.202003 131.875 94.367996 133.766006 94.566002 C 135.403 94.737 136.087997 94.678001 136.279007 94.351997 C 136.423004 94.103996 137.102005 93.019997 137.787994 91.942001 C 139.014008 90.014999 139.024994 89.963997 138.436005 88.915001 C 137.505005 87.255997 134.998001 84.953003 133.110001 84.021004 C 131.673996 83.313004 130.841003 83.175003 127.994003 83.170998 C 125.113998 83.167 124.348 83.294998 122.983002 84.008003 C 120.132004 85.498001 116.917 89.100998 117.375 90.293999 C 117.468002 90.538002 118.139999 91.667 118.866997 92.805 C 120.098999 94.730003 120.264 94.857002 121.273003 94.655998 C 121.869003 94.536003 122.900002 94.439003 123.565002 94.439003 L 123.565002 94.439003 Z M 130.141998 93.915001 C 130.141998 92.710999 127.606003 92.241997 126.500999 93.241997 C 125.435997 94.206001 125.726997 94.439003 127.994003 94.439003 C 129.641998 94.439003 130.141998 94.317001 130.141998 93.915001 Z M 118.027 86.564003 C 119.176003 85.143997 120.303001 84.247002 122.071999 83.343002 C 124.402 82.153999 124.708 82.091003 128.139008 82.098 C 131.186996 82.106003 132.016998 82.236 133.440994 82.936996 C 135.524994 83.963997 138.214996 86.292999 138.944 87.702003 C 139.244003 88.282997 139.617004 88.707001 139.772995 88.644997 C 139.927994 88.584 141.283997 87.052002 142.785004 85.241997 L 145.514999 81.950996 L 143.369003 79.806 C 139.373001 75.808998 134.826004 73.734001 129.348999 73.408997 C 127.556999 73.302002 125.271004 73.407997 123.980003 73.654999 C 120.414001 74.339996 116.189003 76.57 113.310997 79.285004 C 111.936996 80.580002 110.814003 81.791 110.814003 81.973999 C 110.814003 82.157997 111.785004 83.435997 112.971001 84.815002 C 114.157997 86.194 115.323997 87.635002 115.563004 88.017998 C 115.802002 88.401001 116.096001 88.672997 116.216003 88.624001 C 116.335999 88.573997 117.151001 87.647003 118.027 86.565002 L 118.027 86.564003 L 118.027 86.564003 Z M 112.155998 78.778 C 116.217003 74.773003 120.917 72.685997 126.629997 72.349998 C 130.447998 72.125 133.516998 72.570999 136.404999 73.771004 C 139.141998 74.907997 142.804993 77.443001 144.608994 79.448997 L 146.233002 81.254997 L 148.656998 79.101997 C 149.990005 77.917999 151.459 76.650002 151.923004 76.282997 L 152.764999 75.616997 L 150.266006 73.094002 C 139.509003 62.23 123.054001 60.595001 110.456001 69.139999 C 107.108002 71.410004 102.682999 76.182999 103.924004 76.184998 C 104.070999 76.184998 105.400002 77.305 106.876999 78.672997 C 108.352997 80.042 109.593002 81.168999 109.633003 81.178001 C 109.672997 81.185997 110.807999 80.108002 112.155998 78.778 L 112.155998 78.778 Z M 103.989998 73.295998 C 106.961998 69.598 113.460999 65.551003 119.242996 63.798 C 122.083 62.937 123.055 62.823002 127.815002 62.796001 C 132.016006 62.772999 133.723007 62.91 135.658997 63.435001 C 141.738998 65.080002 146.593002 67.861 150.895996 72.162003 C 153.406998 74.671997 153.625 74.809998 154.352997 74.348999 C 154.779999 74.079002 156.274994 73.153 157.675003 72.292 C 159.074997 71.431 160.292007 70.611 160.378998 70.470001 C 160.628006 70.066002 157.192993 66.174004 154.740997 64.082001 C 143.723999 54.681 129.434006 51.705002 115.824997 55.977001 C 112.008003 57.174999 106.704002 59.884998 103.607002 62.220001 C 101.167 64.058998 95.25 70.045998 95.563004 70.359001 C 96.068001 70.863998 102.100998 74.696999 102.431999 74.723 C 102.644997 74.737999 103.346001 74.097 103.989998 73.295998 L 103.989998 73.295998 Z M 96.142998 67.719002 C 99.125999 63.964001 104.306 59.943001 109.560997 57.305 C 119.184998 52.473999 131.007996 51.667 141.416 55.130001 C 148.567993 57.509998 156.376999 63.008999 160.854004 68.819 L 161.660004 69.864998 L 162.992004 69.209999 C 163.723999 68.848999 165.494995 68.037003 166.925995 67.403999 L 169.528 66.252998 L 167.914993 64.105999 C 160.843994 54.700001 149.056 47.506001 136.942001 45.206001 C 131.957993 44.259998 123.294998 44.327999 118.442001 45.353001 C 111.681999 46.779999 105.598 49.334999 99.718002 53.214001 C 94.947998 56.361 85.714996 65.949997 87.014 66.408997 C 87.209 66.477997 88.900002 67.241997 90.769997 68.106003 C 92.639999 68.971001 94.251999 69.692001 94.352997 69.709999 C 94.453003 69.728996 95.259003 68.832001 96.142998 67.719002 L 96.142998 67.719002 Z M 87.012001 63.763 C 87.799004 62.648998 89.900002 60.276001 91.681 58.491001 C 107.408997 42.681999 131.542999 38.833 151.408005 48.966 C 157.811005 52.227001 164.007004 57.300999 168.304993 62.805 C 169.593002 64.455002 170.768997 65.805 170.919006 65.805 C 171.069 65.805 172.141998 65.476997 173.304993 65.077003 C 174.468002 64.676998 177.026993 64.022999 178.992004 63.622002 C 180.957993 63.221001 182.623993 62.834999 182.695007 62.764 C 182.916 62.543999 179.768005 57.889 177.488998 55.067001 C 168.087006 43.421001 154.897003 35.443001 140.076004 32.438999 C 136.557999 31.726 135.003998 31.624001 127.815002 31.636 C 120.621002 31.646999 119.111 31.752001 115.839996 32.462999 C 107.015999 34.382 98.003998 38.286999 91.133003 43.168999 C 85.237999 47.358002 76.989998 56.173 74.017998 61.459999 L 73.249001 62.828999 L 77.087997 63.634998 C 79.198997 64.078999 81.813004 64.731998 82.894997 65.085999 C 83.977997 65.441002 85.025002 65.744003 85.222 65.760002 C 85.418999 65.775002 86.223999 64.876999 87.012001 63.763 L 87.012001 63.763 Z M 59.898998 62.358002 C 60.341999 62.238998 60.703999 61.932999 60.703999 61.679001 C 60.703999 60.946999 62.816002 59.362 63.792 59.362 C 65.128998 59.362 66.751999 60.344002 66.991997 61.298 C 67.221001 62.210999 68.295998 62.583 70.705002 62.583 C 71.938004 62.583 72.123001 62.431 73.487 60.292 L 74.947998 58 L 74.232002 56.801998 C 71.861 52.834 67.271004 50.437 62.908001 50.887001 C 60.195 51.167 56.780998 52.923 54.987999 54.960999 C 52.943001 57.283001 52.900002 57.773998 54.507 60.369999 C 55.852001 62.542999 55.895 62.575001 57.483002 62.575001 C 58.368 62.574001 59.456001 62.476002 59.898998 62.358002 L 59.898998 62.358002 Z M 188.787994 61.849998 C 189.130005 60.821999 190.942001 59.362 191.873993 59.362 C 193.179993 59.362 194.830002 60.283001 195.110992 61.167999 C 195.401001 62.084 196.647995 62.583 198.641998 62.583 C 200.119995 62.583 200.205002 62.518002 201.610001 60.314999 L 203.056 58.048 L 202.406998 56.784 C 202.050003 56.088001 200.927994 54.771999 199.912003 53.859001 C 195.679993 50.054001 189.360992 49.896 184.666 53.478001 C 183.479004 54.382999 181.324997 57.221001 181.324997 57.880001 C 181.324997 58.077 181.929001 59.227001 182.667999 60.435001 L 184.009995 62.632 L 186.313004 62.497002 C 187.901993 62.403999 188.669998 62.202999 188.787994 61.849998 L 188.787994 61.849998 Z M 65.985001 61.778 C 65.903 61.532001 65.405998 61.089001 64.880997 60.793999 C 64.030998 60.317001 63.819 60.317001 62.970001 60.793999 C 61.220001 61.777 61.519001 62.226002 63.924999 62.226002 C 65.530998 62.226002 66.092003 62.104 65.985001 61.778 Z M 194.121994 61.778 C 194.041 61.532001 193.544006 61.089001 193.018997 60.793999 C 192.169006 60.317001 191.957001 60.317001 191.106995 60.793999 C 189.358002 61.777 189.656998 62.226002 192.063004 62.226002 C 193.669006 62.226002 194.229996 62.104 194.121994 61.778 L 194.121994 61.778 Z M 55.380001 53.028 C 57.09 51.409 60.234001 50.073002 62.926998 49.821999 C 67.748001 49.370998 72.767998 51.984001 75.212997 56.215 C 75.536003 56.776001 75.931999 56.449001 78.344002 53.633999 C 79.862999 51.861 81.106003 50.243999 81.106003 50.039001 C 81.106003 49.311001 77.754997 46.101002 75.522003 44.691002 C 71.877998 42.389999 68.358002 41.355999 64.103996 41.337002 C 60.162998 41.318001 57.658001 41.898998 54.261002 43.612999 C 51.784 44.863998 48.91 47.105999 47.625 48.790001 L 46.655998 50.060001 L 47.506001 51.092999 C 47.973 51.660999 49.216999 53.192001 50.271 54.494999 L 52.186001 56.865002 L 53.179001 55.519001 C 53.850761 54.635956 54.586399 53.803387 55.380001 53.028 L 55.380001 53.028 Z M 182.718994 53.919998 C 185.906998 50.429001 190.899994 48.986 195.492004 50.229 C 198.319 50.994999 201.514999 53.238998 202.800995 55.361 C 203.292999 56.173 203.776001 56.838001 203.875 56.839001 C 203.973007 56.84 204.501999 56.208 205.050003 55.432999 C 205.597 54.659 206.848007 53.147999 207.828003 52.075001 L 209.610992 50.124001 L 207.791 48.132999 C 201.393005 41.132 190.983002 39.279999 182.397995 43.613998 C 180.044006 44.801998 176.686996 47.452999 175.595993 48.986 C 174.714005 50.224998 174.460999 49.723999 178.283005 54.317001 C 180.139999 56.549 180.479004 56.813 180.787994 56.27 C 180.985001 55.924999 181.854004 54.868 182.718994 53.919998 L 182.718994 53.919998 Z M 53.903999 42.587002 C 59.417999 39.855 65.361 39.417 71.044998 41.323002 C 74.624001 42.523998 76.516998 43.695 79.583 46.606998 L 82.176003 49.07 L 83.341003 48.143002 C 83.982002 47.632999 85.374001 46.435001 86.433998 45.481998 C 88.731003 43.416 88.719002 43.359001 85.260002 40.123001 C 75.706001 31.186001 61.646999 29.15 49.984001 35.014 C 48.498001 35.762001 46.283001 37.124001 45.063 38.041 C 42.707001 39.813 39.493 43.158001 39.662998 43.661999 C 39.719002 43.827999 41.108002 45.132999 42.749001 46.562 L 45.734001 49.160999 L 48.298 46.626999 C 50.181 44.766998 51.671001 43.693001 53.903999 42.587002 Z M 182.042007 42.587002 C 190.903 38.198002 201.153 39.875 208.134003 46.855999 C 209.302994 48.026001 210.406006 48.981998 210.584 48.981998 C 210.763 48.981998 211.298996 48.557999 211.776001 48.040001 C 212.253006 47.521999 213.580994 46.312 214.727005 45.351002 L 216.809998 43.603001 L 214.595993 41.298 C 209.380005 35.866001 202.651001 32.587 195.195007 31.844999 C 187.059006 31.035 179.154007 33.382 172.671005 38.534 C 170.074005 40.598 167.626999 43.18 167.811996 43.661999 C 167.862 43.792999 169.246994 45.084 170.891006 46.530998 L 173.878006 49.160999 L 176.438995 46.626999 C 178.322998 44.764999 179.806 43.695 182.042007 42.587002 Z M 40.720001 40.529999 C 49.380001 31.485001 62.275002 28.271999 74.119003 32.207001 C 79.271004 33.918999 83.087997 36.34 87.191002 40.499001 L 89.516998 42.856998 L 92.996002 40.639999 C 94.910004 39.421001 96.480003 38.292 96.486 38.131001 C 96.492996 37.970001 94.759003 36.118 92.635002 34.014999 C 87.041 28.476 81.482002 25.282 73.708 23.139999 C 71.313004 22.481001 69.913002 22.365 64.103996 22.343 C 57.742001 22.320999 57.073002 22.381001 53.723999 23.305 C 46.134998 25.399 38.222 30.283001 33.466 35.808998 L 31.313999 38.308998 L 33.868999 39.884998 C 35.275002 40.750999 36.835999 41.784 37.338001 42.179001 C 37.84 42.574001 38.297001 42.896999 38.352001 42.896999 C 38.408001 42.896999 39.473 41.832001 40.720001 40.529999 Z M 168.858002 40.529999 C 175.024002 34.09 183.121994 30.635 192.063004 30.632 C 201.070007 30.628 208.848007 33.867001 215.106003 40.227001 L 217.673004 42.835999 L 221.143005 40.630001 C 223.052002 39.416 224.617996 38.280998 224.623993 38.106998 C 224.630997 37.933998 222.895004 36.082001 220.768005 33.991001 C 215.100998 28.421 209.634995 25.285999 201.850006 23.142 C 199.451004 22.481001 198.054993 22.365 192.242004 22.343 C 185.878998 22.320999 185.210999 22.381001 181.862 23.305 C 174.330002 25.382999 166.104004 30.49 161.447006 35.980999 L 159.464005 38.317001 L 162.013 39.889 C 163.414993 40.752998 164.973007 41.784 165.475998 42.179001 C 165.977997 42.574001 166.434006 42.896999 166.490005 42.896999 C 166.546005 42.896999 167.610992 41.832001 168.858002 40.529999 Z M 123.486 30.370001 C 124.414001 30.370001 124.689003 30.177 125.024002 29.290001 C 125.494003 28.042999 127.405998 27.07 128.742996 27.396999 C 129.847 27.666 130.856003 28.540001 131.248001 29.563999 C 131.483994 30.181 131.841003 30.370001 132.772995 30.370001 C 133.442001 30.370001 134.453003 30.458 135.018997 30.566 C 135.973007 30.747 136.156006 30.584999 137.537994 28.332001 C 139.009995 25.931999 139.020996 25.889 138.432999 24.841999 C 137.462006 23.115 135.080994 20.909 133.175003 19.971001 C 131.662003 19.226999 130.884003 19.096001 127.994003 19.1 C 125.130997 19.104 124.338997 19.237 122.983002 19.941999 C 120.137001 21.424 116.917 25.031 117.375 26.225 C 117.468002 26.469 118.139999 27.598 118.866997 28.736 C 120.098999 30.660999 120.264 30.788 121.273003 30.586 C 122.002998 30.454 122.742996 30.382 123.486 30.370001 L 123.486 30.370001 Z M 130.141998 29.844999 C 130.141998 28.641001 127.606003 28.173 126.500999 29.173 C 125.435997 30.136999 125.726997 30.370001 127.994003 30.370001 C 129.641998 30.370001 130.141998 30.247999 130.141998 29.844999 Z"/>
 </g>
 <g>
  <defs>
   <filter id="hdOsnzKjeyMW0EzOgl9e3VHtSgkUOoXj" width="400%" height="400%" x="-200%" y="-200%" color-interpolation-filters="sRGB" filterUnits="objectBoundingBox">
    <feGaussianBlur xmlns="http://www.w3.org/2000/svg" stdDeviation="4.294"/>
   </filter>
  </defs>
  <g opacity=".4" filter="url(#hdOsnzKjeyMW0EzOgl9e3VHtSgkUOoXj)">
   <path d="M 130.824005 61.715 L 152.253006 51 L 152.253006 187.607006 L 130.824005 200.999996 L 130.824005 61.715 Z"/>
  </g>
  <defs>
   <filter id="grUODeHDKOoju5uCzxVdyhZdgiPx0izV" width="400%" height="400%" x="-200%" y="-200%" color-interpolation-filters="sRGB" filterUnits="objectBoundingBox">
    <feGaussianBlur xmlns="http://www.w3.org/2000/svg" stdDeviation="4.294"/>
   </filter>
  </defs>
  <g opacity=".4" filter="url(#grUODeHDKOoju5uCzxVdyhZdgiPx0izV)">
   <path d="M 55.825001 122.785999 L 55.825001 99.215 L 184.395004 171.535992 L 184.395004 195.643002 L 55.825001 122.785999 L 55.825001 122.785999 Z"/>
  </g>
  <defs>
   <filter id="DszN4fdNVzFPi5F9PTMc2uPZGoIbT2ux" width="400%" height="400%" x="-200%" y="-200%" color-interpolation-filters="sRGB" filterUnits="objectBoundingBox">
    <feGaussianBlur xmlns="http://www.w3.org/2000/svg" stdDeviation="4.294"/>
   </filter>
  </defs>
  <g opacity=".4" filter="url(#DszN4fdNVzFPi5F9PTMc2uPZGoIbT2ux)">
   <path d="M 165.645996 72.428997 L 184.395004 85.822002 L 66.539001 157.072002 L 45.110001 143.678997 L 165.645996 72.428997 Z"/>
  </g>
 </g>
 <g>
  <path fill="#f9f9f9" d="M 130.824005 58.525002 L 152.253006 47.810001 L 152.253006 184.417007 L 130.824005 197.809998 L 130.824005 58.525002 Z"/>
  <path fill="#f9f9f9" d="M 55.825001 119.596001 L 55.825001 96.025002 L 184.395004 168.345993 L 184.395004 192.453003 L 55.825001 119.596001 L 55.825001 119.596001 Z"/>
  <path fill="#f9f9f9" d="M 165.645996 69.238998 L 184.395004 82.632004 L 66.539001 153.882004 L 45.110001 140.488998 L 165.645996 69.238998 Z"/>
 </g>
 <g opacity=".4">
  <linearGradient id="_lgradient_1" x1=".517" x2=".517" y1="0" y2="1" gradientTransform="matrix(244.65,0,0,228.34,5.68,11.95)" gradientUnits="userSpaceOnUse">
   <stop offset="0%" style="stop-color:#ffffff"/>
   <stop offset="12.5%" stop-opacity=".098" style="stop-color:#ffffff"/>
   <stop offset="92.5%" stop-opacity=".098" style="stop-color:#000000"/>
   <stop offset="100%" stop-opacity=".498" style="stop-color:#000000"/>
  </linearGradient>
  <path fill="url(#_lgradient_1)" fill-rule="evenodd" d="M 165.06803 11.951234 C 169.395994 11.941409 173.723944 11.990533 178.051908 12.088781 C 181.927398 12.167379 185.802873 12.31475 189.678362 12.540721 C 193.1309 12.737216 196.583423 13.022134 200.026115 13.395476 C 203.085193 13.729518 206.144271 14.181458 209.173842 14.741469 C 211.888645 15.242533 214.57394 15.881143 217.219897 16.6573 C 219.619947 17.354858 221.970814 18.219439 224.242988 19.241215 C 226.357793 20.184394 228.384061 21.304417 230.302129 22.591462 C 232.141505 23.829383 233.862851 25.244151 235.436659 26.80629 C 237.000621 28.378252 238.417046 30.087764 239.656409 31.924995 C 240.944972 33.840824 242.066305 35.864728 243.020409 37.967229 C 244.043389 40.246576 244.908985 42.584873 245.617197 44.972292 C 246.394255 47.615155 247.033606 50.297317 247.535265 53.008956 C 248.095924 56.034984 248.548399 59.080665 248.882828 62.13617 C 249.256611 65.574836 249.541856 69.013506 249.738578 72.462003 C 249.964823 76.323139 250.112361 80.194101 250.200884 84.055237 C 250.289421 88.378131 250.338591 92.701032 250.32876 97.014106 L 250.32876 155.225886 C 250.338591 159.54878 250.289421 163.861854 250.200884 168.184747 C 250.112361 172.05571 249.964823 175.916853 249.738578 179.777981 C 249.541856 183.226485 249.256611 186.674975 248.882828 190.103826 C 248.548399 193.15933 248.095924 196.214835 247.535265 199.240851 C 247.033606 201.942664 246.394255 204.624837 245.617197 207.267703 C 244.908985 209.655115 244.043389 212.003235 243.020409 214.272755 C 242.066305 216.38509 240.944972 218.399156 239.656409 220.314999 C 238.417046 222.152226 237.000621 223.871561 235.436659 225.433697 C 233.862851 226.995832 232.141505 228.410601 230.302129 229.648532 C 228.384061 230.935575 226.357793 232.055598 224.242988 232.998768 C 221.970814 234.020552 219.619947 234.885137 217.219897 235.592507 C 214.57394 236.368672 211.888645 237.007276 209.173842 237.498515 C 206.144271 238.068354 203.085193 238.510465 200.026115 238.844519 C 196.583423 239.21785 193.1309 239.502777 189.678362 239.699269 C 185.802873 239.925235 181.927398 240.072615 178.051908 240.161035 C 173.723944 240.249454 169.395994 240.298581 165.06803 240.288762 L 90.941963 240.288762 C 86.614006 240.298581 82.286049 240.249454 77.9581 240.161035 C 74.08261 240.072615 70.20712 239.925235 66.331638 239.699269 C 62.879108 239.502777 59.426578 239.21785 55.983886 238.844519 C 52.924808 238.510465 49.865733 238.068354 46.836162 237.498515 C 44.121356 237.007276 41.436057 236.368672 38.7901 235.592507 C 36.390053 234.885137 34.039187 234.020552 31.767009 232.998768 C 29.652213 232.055598 27.625943 230.935575 25.707871 229.648532 C 23.868489 228.410601 22.147143 226.995832 20.573343 225.433697 C 19.009377 223.871561 17.592955 222.152226 16.353586 220.314999 C 15.065036 218.399156 13.943701 216.38509 12.989584 214.272755 C 11.966612 212.003235 11.101021 209.655115 10.392811 207.267703 C 9.615746 204.624837 8.976389 201.942664 8.47474 199.240851 C 7.914072 196.214835 7.461604 193.15933 7.127172 190.103826 C 6.753394 186.674975 6.468142 183.226485 6.271417 179.777981 C 6.045183 175.916853 5.897639 172.05571 5.809112 168.184747 C 5.720586 163.861854 5.671405 159.54878 5.681241 155.225886 L 5.681241 97.014106 C 5.671405 92.701032 5.720586 88.378131 5.809112 84.055237 C 5.897639 80.194101 6.045183 76.323139 6.271417 72.462003 C 6.468142 69.013506 6.753394 65.574836 7.127172 62.13617 C 7.461604 59.080665 7.914072 56.034984 8.47474 53.008956 C 8.976389 50.297317 9.615746 47.615155 10.392811 44.972292 C 11.101021 42.584873 11.966612 40.246576 12.989584 37.967229 C 13.943701 35.864728 15.065036 33.840824 16.353586 31.924995 C 17.592955 30.087764 19.009377 28.378252 20.573343 26.80629 C 22.147143 25.244151 23.868489 23.829383 25.707871 22.591462 C 27.625943 21.304417 29.652213 20.184394 31.767009 19.241215 C 34.039187 18.219439 36.390053 17.354858 38.7901 16.6573 C 41.436057 15.881143 44.121356 15.242533 46.836162 14.741469 C 49.865733 14.181458 52.924808 13.729518 55.983886 13.395476 C 59.426578 13.022134 62.879108 12.737216 66.331638 12.540721 C 70.20712 12.31475 74.08261 12.167379 77.9581 12.088781 C 82.286049 11.990533 86.614006 11.941409 90.941963 11.951234 L 165.06803 11.951234 Z M 165.077876 15.959741 C 169.376317 15.949916 173.674759 15.99904 177.973216 16.087463 C 181.799522 16.175886 185.625827 16.323257 189.452133 16.539402 C 192.835809 16.735898 196.219486 17.010992 199.583486 17.384332 C 202.554026 17.698726 205.514751 18.131016 208.445953 18.681203 C 211.023049 19.152792 213.580483 19.761928 216.098564 20.498786 C 218.321569 21.147221 220.495374 21.952852 222.600334 22.896029 C 224.508571 23.750785 226.338116 24.762737 228.069293 25.922059 C 229.692286 27.012609 231.207063 28.260355 232.59398 29.645648 C 233.980897 31.030941 235.230091 32.543956 236.331763 34.165043 C 237.492434 35.894202 238.505568 37.711787 239.361333 39.607968 C 240.305606 41.720292 241.112187 43.891565 241.761369 46.102139 C 242.508934 48.617282 243.108947 51.161898 243.590914 53.735987 C 244.131912 56.663768 244.564709 59.6112 244.889308 62.578282 C 245.263091 65.938355 245.538505 69.308252 245.735227 72.687976 C 245.951626 76.509812 246.10901 80.321821 246.187687 84.143656 C 246.276225 88.437084 246.325394 92.720685 246.325394 97.014106 C 246.325394 97.014106 246.325394 97.014106 246.325394 97.014106 L 246.325394 155.225886 C 246.325394 155.225886 246.325394 155.225886 246.325394 155.225886 C 246.325394 159.519306 246.276225 163.802907 246.187687 168.096328 C 246.10901 171.918164 245.951626 175.739999 245.735227 179.552015 C 245.538505 182.931739 245.263091 186.301629 244.889308 189.671533 C 244.564709 192.628784 244.131912 195.576216 243.590914 198.503994 C 243.108947 201.078094 242.508934 203.622706 241.761369 206.137845 C 241.112187 208.358253 240.305606 210.5197 239.361333 212.63202 C 238.505568 214.528209 237.492434 216.355617 236.331763 218.074952 C 235.230091 219.705853 233.980897 221.218876 232.59398 222.604172 C 231.207063 223.979634 229.692286 225.227385 228.069293 226.317935 C 226.338116 227.477251 224.508571 228.489201 222.600334 229.343951 C 220.495374 230.296956 218.321569 231.092775 216.098564 231.741198 C 213.580483 232.478056 211.023049 233.087202 208.445953 233.558787 C 205.514751 234.108972 202.554026 234.541264 199.583486 234.865483 C 196.219486 235.228995 192.835809 235.513922 189.452133 235.70058 C 185.625827 235.916726 181.799522 236.073926 177.973216 236.152526 C 173.674759 236.25078 169.376317 236.290072 165.077876 236.290072 C 165.077876 236.290072 165.077876 236.290072 165.06803 236.290072 L 90.941963 236.290072 C 90.932125 236.290072 90.932125 236.290072 90.932125 236.290072 C 86.633683 236.290072 82.335234 236.25078 78.036784 236.152526 C 74.210479 236.073926 70.384173 235.916726 66.557868 235.70058 C 63.174195 235.513922 59.790522 235.228995 56.426518 234.865483 C 53.455967 234.541264 50.495253 234.108972 47.564048 233.558787 C 44.986944 233.087202 42.429517 232.478056 39.911433 231.741198 C 37.688439 231.092775 35.514626 230.296956 33.409665 229.343951 C 31.501429 228.489201 29.671886 227.477251 27.940703 226.317935 C 26.31772 225.227385 24.802935 223.979634 23.416022 222.604172 C 22.029109 221.218876 20.779904 219.705853 19.678243 218.074952 C 18.517564 216.355617 17.504428 214.528209 16.648674 212.63202 C 15.704392 210.5197 14.897819 208.358253 14.248626 206.137845 C 13.50107 203.622706 12.901057 201.078094 12.419081 198.503994 C 11.878086 195.576216 11.445291 192.628784 11.120694 189.671533 C 10.746916 186.301629 10.471501 182.931739 10.274776 179.552015 C 10.058378 175.739999 9.900997 171.918164 9.822307 168.096328 C 9.733781 163.802907 9.6846 159.519306 9.6846 155.225886 C 9.6846 155.225886 9.6846 155.225886 9.6846 155.225886 L 9.6846 97.014106 C 9.6846 97.014106 9.6846 97.014106 9.6846 97.014106 C 9.6846 92.720685 9.733781 88.437084 9.822307 84.143656 C 9.900997 80.321821 10.058378 76.509812 10.274776 72.687976 C 10.471501 69.308252 10.746916 65.938355 11.120694 62.578282 C 11.445291 59.6112 11.878086 56.663768 12.419081 53.735987 C 12.901057 51.161898 13.50107 48.617282 14.248626 46.102139 C 14.897819 43.891565 15.704392 41.720292 16.648674 39.607968 C 17.504428 37.711787 18.517564 35.894202 19.678243 34.165043 C 20.779904 32.543956 22.029109 31.030941 23.416022 29.645648 C 24.802935 28.260355 26.31772 27.012609 27.940703 25.922059 C 29.671886 24.762737 31.501429 23.750785 33.409665 22.896029 C 35.514626 21.952852 37.688439 21.147221 39.911433 20.498786 C 42.429517 19.761928 44.986944 19.152792 47.564048 18.681203 C 50.495253 18.131016 53.455967 17.698726 56.426518 17.384332 C 59.790522 17.010992 63.174195 16.735898 66.557868 16.539402 C 70.384173 16.323257 74.210479 16.175886 78.036784 16.087463 C 82.335234 15.99904 86.633683 15.949916 90.932125 15.959741 C 90.932125 15.959741 90.932125 15.959741 90.941963 15.959741 L 165.06803 15.959741 C 165.077876 15.959741 165.077876 15.959741 165.077876 15.959741 Z"/>
 </g>
</svg>
