<svg xmlns="http://www.w3.org/2000/svg" style="isolation:isolate" width="256" height="256">
 <defs>
  <filter id="a" width="400%" height="400%" x="-200%" y="-200%" color-interpolation-filters="sRGB" filterUnits="objectBoundingBox">
   <feGaussianBlur xmlns="http://www.w3.org/2000/svg" in="SourceGraphic" stdDeviation="4.294"/>
   <feOffset xmlns="http://www.w3.org/2000/svg" dy="4" result="pf_100_offsetBlur"/>
   <feFlood xmlns="http://www.w3.org/2000/svg" flood-opacity=".4"/>
   <feComposite xmlns="http://www.w3.org/2000/svg" in2="pf_100_offsetBlur" operator="in" result="pf_100_dropShadow"/>
   <feBlend xmlns="http://www.w3.org/2000/svg" in="SourceGraphic" in2="pf_100_dropShadow"/>
  </filter>
 </defs>
 <path fill="#f7f7f7" d="M165.689 11.95c74.056 0 84.639 10.557 84.639 84.544v59.251c0 73.986-10.583 84.543-84.639 84.543h-75.37c-74.055 0-84.639-10.557-84.639-84.543V96.494c0-73.987 10.584-84.544 84.639-84.544h75.37z" filter="url(#a)"/>
 <g opacity=".6">
  <linearGradient id="b" x1="1.036" x2="1.036" y1="-.014" y2="1.014" gradientTransform="matrix(44.804 0 0 218.062 30.5 17.063)" gradientUnits="userSpaceOnUse">
   <stop offset="0%" stop-color="#999999"/>
   <stop offset="100%" stop-color="#808080"/>
  </linearGradient>
  <path fill="url(#b)" d="M30.67 19.438l-.17 213.185c1.583.747 3.614 1.591 6.062 2.502l-.093-40.207 27.093-.031-.008-5.809-27.08.024.024-29.057 27.064-.014-.008-5.818-27.052.016.024-29.225 38.778-.016v-5.816l-38.774.023.023-28.879 38.751-.023v-5.816l-38.747.023.024-29.055 26.981-.015-.008-5.819-26.969.024-.022-32.572a77.353 77.353 0 0 0-5.893 2.375z"/>
 </g>
 <path fill="#1a7fd4" d="M71.634 46.524h11.744c1.627 0 2.936 1.295 2.936 2.905v11.622c0 1.61-1.309 2.905-2.936 2.905H71.634c-1.627 0-2.936-1.296-2.936-2.905V49.429c0-1.61 1.309-2.905 2.936-2.905zm28.899.002c-1.345.087-2.492 1.124-2.474 2.23v12.97c-.015 1.171 1.292 2.241 2.721 2.23h100.255c1.428.011 2.735-1.059 2.721-2.23v-12.97c.015-1.171-1.293-2.242-2.721-2.23H100.78a3.39 3.39 0 0 0-.247 0z"/>
 <path fill="#a6d74f" d="M83.378 81.389h11.745c1.626 0 2.936 1.295 2.936 2.905v11.622c0 1.61-1.31 2.905-2.936 2.905H83.378c-1.626 0-2.936-1.296-2.936-2.905V84.294c0-1.61 1.31-2.905 2.936-2.905zm28.899.002c-1.345.087-2.491 1.124-2.474 2.23v12.97c-.015 1.171 1.293 2.241 2.721 2.23h100.255c1.428.011 2.735-1.059 2.721-2.23v-12.97c.015-1.171-1.292-2.242-2.721-2.23H112.524a3.39 3.39 0 0 0-.247 0z"/>
 <path fill="#fb7c38" d="M83.378 116.254h11.745c1.626 0 2.936 1.296 2.936 2.905v11.622c0 1.61-1.31 2.905-2.936 2.905H83.378c-1.626 0-2.936-1.296-2.936-2.905v-11.622c0-1.61 1.31-2.905 2.936-2.905zm28.899.002c-1.345.087-2.491 1.124-2.474 2.23v12.971c-.015 1.17 1.293 2.24 2.721 2.229h100.255c1.428.011 2.735-1.059 2.721-2.229v-12.971c.015-1.171-1.292-2.242-2.721-2.23H112.524a3.39 3.39 0 0 0-.247 0z"/>
 <path fill="#1a7fd4" d="M71.634 151.119h11.744c1.627 0 2.936 1.296 2.936 2.905v11.622c0 1.61-1.309 2.905-2.936 2.905H71.634c-1.627 0-2.936-1.295-2.936-2.905v-11.622c0-1.61 1.309-2.905 2.936-2.905zm28.899.002c-1.345.088-2.492 1.125-2.474 2.23v12.971c-.015 1.17 1.292 2.241 2.721 2.229h100.255c1.428.011 2.735-1.059 2.721-2.229v-12.971c.015-1.171-1.293-2.242-2.721-2.23H100.78a3.39 3.39 0 0 0-.247 0zm-28.899 34.863h11.744c1.627 0 2.936 1.296 2.936 2.905v11.622c0 1.61-1.309 2.905-2.936 2.905H71.634c-1.627 0-2.936-1.295-2.936-2.905v-11.622c0-1.61 1.309-2.905 2.936-2.905zm28.899.002c-1.345.088-2.492 1.125-2.474 2.23v12.971c-.015 1.17 1.292 2.241 2.721 2.229h100.255c1.428.011 2.735-1.059 2.721-2.229v-12.971c.015-1.171-1.293-2.242-2.721-2.23H100.78a3.39 3.39 0 0 0-.247 0z"/>
 <g opacity=".4">
  <linearGradient id="c" x1=".517" x2=".517" y2="1" gradientTransform="matrix(244.65 0 0 228.34 5.68 11.95)" gradientUnits="userSpaceOnUse">
   <stop offset="0%" stop-color="#ffffff"/>
   <stop offset="12.5%" stop-color="#ffffff" stop-opacity=".098"/>
   <stop offset="92.5%" stop-opacity=".098"/>
   <stop offset="100%" stop-opacity=".498"/>
  </linearGradient>
  <path fill="url(#c)" fill-rule="evenodd" d="M165.068 11.951c4.328-.01 8.656.04 12.984.138 3.875.078 7.75.226 11.626.452 3.453.196 6.905.481 10.348.854 3.06.335 6.118.786 9.148 1.346a80.47 80.47 0 0 1 8.046 1.916 53.64 53.64 0 0 1 7.023 2.584 40.413 40.413 0 0 1 6.06 3.35 35.176 35.176 0 0 1 5.134 4.215 35.072 35.072 0 0 1 4.22 5.119 41.692 41.692 0 0 1 3.363 6.042 55.982 55.982 0 0 1 2.597 7.005 80.224 80.224 0 0 1 1.918 8.037 124.43 124.43 0 0 1 1.348 9.127c.374 3.439.659 6.878.856 10.326.226 3.861.373 7.732.462 11.593.088 4.323.138 8.646.128 12.96v58.21c.01 4.324-.04 8.637-.128 12.96a325.177 325.177 0 0 1-.462 11.593 200.984 200.984 0 0 1-.856 10.326 124.691 124.691 0 0 1-1.348 9.137 80.687 80.687 0 0 1-1.918 8.027 55.414 55.414 0 0 1-2.597 7.005 41.18 41.18 0 0 1-3.364 6.042 34.559 34.559 0 0 1-4.22 5.119 35.177 35.177 0 0 1-5.134 4.215 40.412 40.412 0 0 1-6.059 3.35 55.138 55.138 0 0 1-7.023 2.594 77.806 77.806 0 0 1-8.046 1.906 120 120 0 0 1-9.148 1.346c-3.443.373-6.895.658-10.348.854-3.875.226-7.75.374-11.626.462-4.328.088-8.656.138-12.984.128H90.942c-4.328.01-8.656-.04-12.984-.128a328.387 328.387 0 0 1-11.626-.462 203.003 203.003 0 0 1-10.348-.854 120 120 0 0 1-9.148-1.346 77.806 77.806 0 0 1-8.046-1.906 55.139 55.139 0 0 1-7.023-2.594 40.413 40.413 0 0 1-6.06-3.35 35.176 35.176 0 0 1-5.134-4.215 34.56 34.56 0 0 1-4.22-5.119 41.183 41.183 0 0 1-3.363-6.042 55.415 55.415 0 0 1-2.597-7.005 80.682 80.682 0 0 1-1.918-8.027 124.688 124.688 0 0 1-1.348-9.137 200.993 200.993 0 0 1-.856-10.326 325.212 325.212 0 0 1-.462-11.593 569.197 569.197 0 0 1-.128-12.96v-58.21c-.01-4.314.04-8.637.128-12.96.089-3.86.236-7.732.462-11.593.197-3.448.482-6.887.856-10.326.335-3.055.787-6.101 1.348-9.127a80.219 80.219 0 0 1 1.918-8.037 55.983 55.983 0 0 1 2.597-7.005 41.695 41.695 0 0 1 3.364-6.042 35.072 35.072 0 0 1 4.22-5.119 35.176 35.176 0 0 1 5.134-4.215 40.413 40.413 0 0 1 6.059-3.35 53.64 53.64 0 0 1 7.023-2.584 80.47 80.47 0 0 1 8.046-1.916 125.11 125.11 0 0 1 9.148-1.346c3.443-.373 6.895-.658 10.348-.854 3.875-.226 7.75-.374 11.626-.452 4.328-.098 8.656-.148 12.984-.138h74.126zm.01 4.009c4.298-.01 8.597.039 12.895.127 3.827.089 7.653.236 11.48.452 3.383.197 6.766.472 10.13.845 2.971.315 5.932.747 8.863 1.297a75.943 75.943 0 0 1 7.653 1.818 50.493 50.493 0 0 1 6.501 2.397 37.038 37.038 0 0 1 5.47 3.026 30.383 30.383 0 0 1 4.524 3.724 31.05 31.05 0 0 1 3.738 4.519 37.271 37.271 0 0 1 3.03 5.443 51.46 51.46 0 0 1 2.4 6.494 75.563 75.563 0 0 1 1.829 7.634c.54 2.928.974 5.875 1.298 8.842.374 3.36.65 6.73.846 10.11.217 3.822.374 7.634.453 11.456.088 4.293.137 8.577.137 12.87v58.212c0 4.293-.049 8.577-.137 12.87a317.503 317.503 0 0 1-.453 11.456c-.196 3.38-.472 6.75-.846 10.12a121.689 121.689 0 0 1-1.298 8.832 75.562 75.562 0 0 1-1.83 7.634 50.902 50.902 0 0 1-2.4 6.494 36.767 36.767 0 0 1-3.03 5.443 30.615 30.615 0 0 1-3.737 4.53 30.938 30.938 0 0 1-4.525 3.713 37.038 37.038 0 0 1-5.469 3.026 49.07 49.07 0 0 1-6.501 2.397 75.942 75.942 0 0 1-7.653 1.818c-2.931.55-5.892.982-8.863 1.306-3.364.364-6.747.649-10.13.836-3.827.216-7.653.373-11.48.452-4.298.098-8.597.137-12.895.137H90.932c-4.298 0-8.597-.04-12.895-.137a320.093 320.093 0 0 1-11.48-.452 193.696 193.696 0 0 1-10.13-.836 116.71 116.71 0 0 1-8.863-1.306 75.942 75.942 0 0 1-7.653-1.818 49.07 49.07 0 0 1-6.501-2.397 37.038 37.038 0 0 1-5.47-3.026 30.938 30.938 0 0 1-4.524-3.714 30.615 30.615 0 0 1-3.738-4.529 36.766 36.766 0 0 1-3.03-5.443 50.903 50.903 0 0 1-2.4-6.494 75.567 75.567 0 0 1-1.829-7.634 121.69 121.69 0 0 1-1.298-8.832c-.374-3.37-.65-6.74-.846-10.12a317.535 317.535 0 0 1-.453-11.456 623.851 623.851 0 0 1-.137-12.87V97.014c0-4.293.049-8.577.137-12.87.079-3.822.236-7.634.453-11.456.197-3.38.472-6.75.846-10.11.324-2.967.757-5.914 1.298-8.842a75.568 75.568 0 0 1 1.83-7.634 51.46 51.46 0 0 1 2.4-6.494 37.27 37.27 0 0 1 3.03-5.443 31.05 31.05 0 0 1 3.737-4.52 30.384 30.384 0 0 1 4.525-3.723 37.039 37.039 0 0 1 5.469-3.026 50.494 50.494 0 0 1 6.501-2.397 75.943 75.943 0 0 1 7.653-1.818c2.931-.55 5.892-.982 8.863-1.297 3.364-.373 6.747-.648 10.13-.845a344.71 344.71 0 0 1 11.48-.452c4.298-.088 8.597-.137 12.895-.127H165.078z"/>
 </g>
</svg>
