<svg xmlns="http://www.w3.org/2000/svg" style="isolation:isolate" width="256" height="256" viewBox="0 0 256 256">
 <defs>
  <filter id="UeQsFmXxJIb0mnAj40CfnyQb5jDMROer" width="400%" height="400%" x="-200%" y="-200%" color-interpolation-filters="sRGB" filterUnits="objectBoundingBox">
   <feGaussianBlur xmlns="http://www.w3.org/2000/svg" in="SourceGraphic" stdDeviation="4.294"/>
   <feOffset xmlns="http://www.w3.org/2000/svg" dx="0" dy="4" result="pf_100_offsetBlur"/>
   <feFlood xmlns="http://www.w3.org/2000/svg" flood-opacity=".4"/>
   <feComposite xmlns="http://www.w3.org/2000/svg" in2="pf_100_offsetBlur" operator="in" result="pf_100_dropShadow"/>
   <feBlend xmlns="http://www.w3.org/2000/svg" in="SourceGraphic" in2="pf_100_dropShadow" mode="normal"/>
  </filter>
 </defs>
 <g filter="url(#UeQsFmXxJIb0mnAj40CfnyQb5jDMROer)">
  <linearGradient id="_lgradient_5" x1=".516" x2=".52" y1="1.651" y2=".098" gradientTransform="matrix(244.648309,0,0,228.338396,5.681691,11.95)" gradientUnits="userSpaceOnUse">
   <stop offset="0%" style="stop-color:#0575e6"/>
   <stop offset="100%" style="stop-color:#00f260"/>
  </linearGradient>
  <path fill="url(#_lgradient_5)" d="M 165.690609 11.95 C 239.746317 11.95 250.33 22.507198 250.33 96.493859 L 250.33 155.744653 C 250.33 229.73091 239.746317 240.288396 165.690609 240.288396 L 90.321084 240.288396 C 16.26538 240.288396 5.681691 229.73091 5.681691 155.744653 L 5.681691 96.493859 C 5.681691 22.507198 16.26538 11.95 90.321084 11.95 L 165.690609 11.95 Z"/>
 </g>
 <g opacity=".4">
  <linearGradient id="_lgradient_6" x1=".517" x2=".517" y1="0" y2="1" gradientTransform="matrix(244.65,0,0,228.34,5.68,11.95)" gradientUnits="userSpaceOnUse">
   <stop offset="0%" style="stop-color:#ffffff"/>
   <stop offset="12.5%" stop-opacity=".098" style="stop-color:#ffffff"/>
   <stop offset="92.5%" stop-opacity=".098" style="stop-color:#000000"/>
   <stop offset="100%" stop-opacity=".498" style="stop-color:#000000"/>
  </linearGradient>
  <path fill="url(#_lgradient_6)" fill-rule="evenodd" d="M 165.06803 11.951234 C 169.395994 11.941409 173.723944 11.990533 178.051908 12.088781 C 181.927398 12.167379 185.802873 12.31475 189.678362 12.540721 C 193.1309 12.737216 196.583423 13.022134 200.026115 13.395476 C 203.085193 13.729518 206.144271 14.181458 209.173842 14.741469 C 211.888645 15.242533 214.57394 15.881143 217.219897 16.6573 C 219.619947 17.354858 221.970814 18.219439 224.242988 19.241215 C 226.357793 20.184394 228.384061 21.304417 230.302129 22.591462 C 232.141505 23.829383 233.862851 25.244151 235.436659 26.80629 C 237.000621 28.378252 238.417046 30.087764 239.656409 31.924995 C 240.944972 33.840824 242.066305 35.864728 243.020409 37.967229 C 244.043389 40.246576 244.908985 42.584873 245.617197 44.972292 C 246.394255 47.615155 247.033606 50.297317 247.535265 53.008956 C 248.095924 56.034984 248.548399 59.080665 248.882828 62.13617 C 249.256611 65.574836 249.541856 69.013506 249.738578 72.462003 C 249.964823 76.323139 250.112361 80.194101 250.200884 84.055237 C 250.289421 88.378131 250.338591 92.701032 250.32876 97.014106 L 250.32876 155.225886 C 250.338591 159.54878 250.289421 163.861854 250.200884 168.184747 C 250.112361 172.05571 249.964823 175.916853 249.738578 179.777981 C 249.541856 183.226485 249.256611 186.674975 248.882828 190.103826 C 248.548399 193.15933 248.095924 196.214835 247.535265 199.240851 C 247.033606 201.942664 246.394255 204.624837 245.617197 207.267703 C 244.908985 209.655115 244.043389 212.003235 243.020409 214.272755 C 242.066305 216.38509 240.944972 218.399156 239.656409 220.314999 C 238.417046 222.152226 237.000621 223.871561 235.436659 225.433697 C 233.862851 226.995832 232.141505 228.410601 230.302129 229.648532 C 228.384061 230.935575 226.357793 232.055598 224.242988 232.998768 C 221.970814 234.020552 219.619947 234.885137 217.219897 235.592507 C 214.57394 236.368672 211.888645 237.007276 209.173842 237.498515 C 206.144271 238.068354 203.085193 238.510465 200.026115 238.844519 C 196.583423 239.21785 193.1309 239.502777 189.678362 239.699269 C 185.802873 239.925235 181.927398 240.072615 178.051908 240.161035 C 173.723944 240.249454 169.395994 240.298581 165.06803 240.288762 L 90.941963 240.288762 C 86.614006 240.298581 82.286049 240.249454 77.9581 240.161035 C 74.08261 240.072615 70.20712 239.925235 66.331638 239.699269 C 62.879108 239.502777 59.426578 239.21785 55.983886 238.844519 C 52.924808 238.510465 49.865733 238.068354 46.836162 237.498515 C 44.121356 237.007276 41.436057 236.368672 38.7901 235.592507 C 36.390053 234.885137 34.039187 234.020552 31.767009 232.998768 C 29.652213 232.055598 27.625943 230.935575 25.707871 229.648532 C 23.868489 228.410601 22.147143 226.995832 20.573343 225.433697 C 19.009377 223.871561 17.592955 222.152226 16.353586 220.314999 C 15.065036 218.399156 13.943701 216.38509 12.989584 214.272755 C 11.966612 212.003235 11.101021 209.655115 10.392811 207.267703 C 9.615746 204.624837 8.976389 201.942664 8.47474 199.240851 C 7.914072 196.214835 7.461604 193.15933 7.127172 190.103826 C 6.753394 186.674975 6.468142 183.226485 6.271417 179.777981 C 6.045183 175.916853 5.897639 172.05571 5.809112 168.184747 C 5.720586 163.861854 5.671405 159.54878 5.681241 155.225886 L 5.681241 97.014106 C 5.671405 92.701032 5.720586 88.378131 5.809112 84.055237 C 5.897639 80.194101 6.045183 76.323139 6.271417 72.462003 C 6.468142 69.013506 6.753394 65.574836 7.127172 62.13617 C 7.461604 59.080665 7.914072 56.034984 8.47474 53.008956 C 8.976389 50.297317 9.615746 47.615155 10.392811 44.972292 C 11.101021 42.584873 11.966612 40.246576 12.989584 37.967229 C 13.943701 35.864728 15.065036 33.840824 16.353586 31.924995 C 17.592955 30.087764 19.009377 28.378252 20.573343 26.80629 C 22.147143 25.244151 23.868489 23.829383 25.707871 22.591462 C 27.625943 21.304417 29.652213 20.184394 31.767009 19.241215 C 34.039187 18.219439 36.390053 17.354858 38.7901 16.6573 C 41.436057 15.881143 44.121356 15.242533 46.836162 14.741469 C 49.865733 14.181458 52.924808 13.729518 55.983886 13.395476 C 59.426578 13.022134 62.879108 12.737216 66.331638 12.540721 C 70.20712 12.31475 74.08261 12.167379 77.9581 12.088781 C 82.286049 11.990533 86.614006 11.941409 90.941963 11.951234 L 165.06803 11.951234 Z M 165.077876 15.959741 C 169.376317 15.949916 173.674759 15.99904 177.973216 16.087463 C 181.799522 16.175886 185.625827 16.323257 189.452133 16.539402 C 192.835809 16.735898 196.219486 17.010992 199.583486 17.384332 C 202.554026 17.698726 205.514751 18.131016 208.445953 18.681203 C 211.023049 19.152792 213.580483 19.761928 216.098564 20.498786 C 218.321569 21.147221 220.495374 21.952852 222.600334 22.896029 C 224.508571 23.750785 226.338116 24.762737 228.069293 25.922059 C 229.692286 27.012609 231.207063 28.260355 232.59398 29.645648 C 233.980897 31.030941 235.230091 32.543956 236.331763 34.165043 C 237.492434 35.894202 238.505568 37.711787 239.361333 39.607968 C 240.305606 41.720292 241.112187 43.891565 241.761369 46.102139 C 242.508934 48.617282 243.108947 51.161898 243.590914 53.735987 C 244.131912 56.663768 244.564709 59.6112 244.889308 62.578282 C 245.263091 65.938355 245.538505 69.308252 245.735227 72.687976 C 245.951626 76.509812 246.10901 80.321821 246.187687 84.143656 C 246.276225 88.437084 246.325394 92.720685 246.325394 97.014106 C 246.325394 97.014106 246.325394 97.014106 246.325394 97.014106 L 246.325394 155.225886 C 246.325394 155.225886 246.325394 155.225886 246.325394 155.225886 C 246.325394 159.519306 246.276225 163.802907 246.187687 168.096328 C 246.10901 171.918164 245.951626 175.739999 245.735227 179.552015 C 245.538505 182.931739 245.263091 186.301629 244.889308 189.671533 C 244.564709 192.628784 244.131912 195.576216 243.590914 198.503994 C 243.108947 201.078094 242.508934 203.622706 241.761369 206.137845 C 241.112187 208.358253 240.305606 210.5197 239.361333 212.63202 C 238.505568 214.528209 237.492434 216.355617 236.331763 218.074952 C 235.230091 219.705853 233.980897 221.218876 232.59398 222.604172 C 231.207063 223.979634 229.692286 225.227385 228.069293 226.317935 C 226.338116 227.477251 224.508571 228.489201 222.600334 229.343951 C 220.495374 230.296956 218.321569 231.092775 216.098564 231.741198 C 213.580483 232.478056 211.023049 233.087202 208.445953 233.558787 C 205.514751 234.108972 202.554026 234.541264 199.583486 234.865483 C 196.219486 235.228995 192.835809 235.513922 189.452133 235.70058 C 185.625827 235.916726 181.799522 236.073926 177.973216 236.152526 C 173.674759 236.25078 169.376317 236.290072 165.077876 236.290072 C 165.077876 236.290072 165.077876 236.290072 165.06803 236.290072 L 90.941963 236.290072 C 90.932125 236.290072 90.932125 236.290072 90.932125 236.290072 C 86.633683 236.290072 82.335234 236.25078 78.036784 236.152526 C 74.210479 236.073926 70.384173 235.916726 66.557868 235.70058 C 63.174195 235.513922 59.790522 235.228995 56.426518 234.865483 C 53.455967 234.541264 50.495253 234.108972 47.564048 233.558787 C 44.986944 233.087202 42.429517 232.478056 39.911433 231.741198 C 37.688439 231.092775 35.514626 230.296956 33.409665 229.343951 C 31.501429 228.489201 29.671886 227.477251 27.940703 226.317935 C 26.31772 225.227385 24.802935 223.979634 23.416022 222.604172 C 22.029109 221.218876 20.779904 219.705853 19.678243 218.074952 C 18.517564 216.355617 17.504428 214.528209 16.648674 212.63202 C 15.704392 210.5197 14.897819 208.358253 14.248626 206.137845 C 13.50107 203.622706 12.901057 201.078094 12.419081 198.503994 C 11.878086 195.576216 11.445291 192.628784 11.120694 189.671533 C 10.746916 186.301629 10.471501 182.931739 10.274776 179.552015 C 10.058378 175.739999 9.900997 171.918164 9.822307 168.096328 C 9.733781 163.802907 9.6846 159.519306 9.6846 155.225886 C 9.6846 155.225886 9.6846 155.225886 9.6846 155.225886 L 9.6846 97.014106 C 9.6846 97.014106 9.6846 97.014106 9.6846 97.014106 C 9.6846 92.720685 9.733781 88.437084 9.822307 84.143656 C 9.900997 80.321821 10.058378 76.509812 10.274776 72.687976 C 10.471501 69.308252 10.746916 65.938355 11.120694 62.578282 C 11.445291 59.6112 11.878086 56.663768 12.419081 53.735987 C 12.901057 51.161898 13.50107 48.617282 14.248626 46.102139 C 14.897819 43.891565 15.704392 41.720292 16.648674 39.607968 C 17.504428 37.711787 18.517564 35.894202 19.678243 34.165043 C 20.779904 32.543956 22.029109 31.030941 23.416022 29.645648 C 24.802935 28.260355 26.31772 27.012609 27.940703 25.922059 C 29.671886 24.762737 31.501429 23.750785 33.409665 22.896029 C 35.514626 21.952852 37.688439 21.147221 39.911433 20.498786 C 42.429517 19.761928 44.986944 19.152792 47.564048 18.681203 C 50.495253 18.131016 53.455967 17.698726 56.426518 17.384332 C 59.790522 17.010992 63.174195 16.735898 66.557868 16.539402 C 70.384173 16.323257 74.210479 16.175886 78.036784 16.087463 C 82.335234 15.99904 86.633683 15.949916 90.932125 15.959741 C 90.932125 15.959741 90.932125 15.959741 90.941963 15.959741 L 165.06803 15.959741 C 165.077876 15.959741 165.077876 15.959741 165.077876 15.959741 Z"/>
 </g>
 <g>
  <path fill="#616161" d="M 51.684212 135.631577 L 204.315796 135.631577 L 204.315796 108.921051 C 204.315796 100.49144 197.482239 93.657898 189.052628 93.657898 L 66.947365 93.657898 C 58.517757 93.657898 51.684212 100.49144 51.684212 108.921051 L 51.684212 135.631577 Z"/>
  <g>
   <rect fill="#424242" width="114.474" height="11.447" x="70.76" y="82.21" transform="matrix(1,0,0,1,0,0)"/>
   <path fill="#424242" d="M 66.947365 177.60527 L 189.052628 177.60527 C 197.482239 177.60527 204.315796 170.771713 204.315796 162.342102 L 204.315796 131.815796 L 51.684212 131.815796 L 51.684212 162.342102 C 51.684212 170.771713 58.517757 177.60527 66.947365 177.60527 Z"/>
  </g>
  <path fill="#00e676" d="M 185.236847 108.921051 C 185.236847 111.028458 186.945236 112.736839 189.052628 112.736839 C 191.160034 112.736839 192.868423 111.028458 192.868423 108.921051 C 192.868423 106.813652 191.160034 105.105263 189.052628 105.105263 C 186.945236 105.105263 185.236847 106.813652 185.236847 108.921051 Z"/>
  <path fill="#242424" d="M 179.513153 158.526321 L 76.486839 158.526321 C 73.325737 158.526321 70.763161 155.96373 70.763161 152.802628 C 70.763161 149.641525 73.325737 147.078949 76.486839 147.078949 L 179.513153 147.078949 C 182.674255 147.078949 185.236847 149.641525 185.236847 152.802628 C 185.236847 155.96373 182.674255 158.526321 179.513153 158.526321 Z"/>
  <g>
   <rect fill="#f2f2f2" width="99.211" height="38.158" x="78.39" y="55.5" transform="matrix(1,0,0,1,0,0)"/>
   <rect fill="#f2f2f2" width="99.211" height="41.974" x="78.39" y="158.53" transform="matrix(1,0,0,1,0,0)"/>
  </g>
  <rect fill="#666666" width="99.211" height="7.632" x="78.39" y="150.9" transform="matrix(1,0,0,1,0,0)"/>
  <path fill="#1463a5" fill-rule="evenodd" d="M 147.086319 167.790447 L 146.19193 167.790447 L 144.924866 171.069881 C 144.80065 171.392859 144.750961 171.475673 144.543923 171.517075 L 144.237516 171.583326 L 144.237516 172.005681 L 146.00974 172.005681 L 146.092553 171.591612 L 145.728164 171.508798 C 145.488008 171.450824 145.43832 171.343171 145.537697 171.061604 L 146.440371 168.568896 L 146.481774 168.568896 L 147.384448 171.119569 C 147.492111 171.409422 147.450699 171.500513 147.227106 171.533638 L 146.829591 171.591612 L 146.829591 172.005681 L 148.93307 172.005681 L 149.015884 171.566764 L 148.72604 171.500513 C 148.494162 171.442547 148.469313 171.368011 148.36166 171.078167 L 147.086319 167.790447 Z M 141.794497 167.674508 C 140.999485 167.674508 140.428065 168.105139 140.113373 168.527485 L 140.428065 168.842186 C 140.66822 168.610299 141.03261 168.353581 141.579181 168.353581 C 142.365916 168.353581 142.81311 168.908437 142.846236 169.802826 L 140.287277 169.802826 C 140.212749 170.06783 140.171338 170.357683 140.171338 170.622687 C 140.171338 171.566764 140.833857 172.12162 141.728246 172.12162 C 142.92905 172.12162 143.782036 171.260357 143.782036 169.819389 C 143.782036 168.635147 143.127803 167.674508 141.794497 167.674508 Z M 142.846236 170.307994 C 142.788262 170.962228 142.556383 171.633015 141.827622 171.633015 C 141.33074 171.633015 141.049173 171.343171 141.049173 170.7055 C 141.049173 170.556436 141.05745 170.415648 141.074012 170.307994 L 142.846236 170.307994 Z M 139.508828 167.790447 L 137.231436 167.790447 L 137.231436 168.212793 L 137.670353 168.295606 C 137.902232 168.337018 137.92708 168.436394 137.92708 168.676559 L 137.92708 174.042909 L 138.018171 174.134008 L 139.467416 174.092597 L 139.517105 173.645403 L 139.152724 173.579152 C 138.838032 173.529463 138.804906 173.438364 138.804906 173.098832 L 138.804906 168.701398 C 138.804906 168.452957 138.813192 168.337018 139.061633 168.295606 L 139.508828 168.221079 L 139.508828 167.790447 Z M 134.920927 165.893998 C 133.513084 165.893998 132.643535 166.41573 132.643535 167.409495 C 132.643535 168.320455 133.314331 168.510922 134.142469 168.510922 L 135.23562 168.510922 C 135.616563 168.510922 135.823602 168.568896 135.823602 168.842186 C 135.823602 169.007814 135.707663 169.156879 135.583437 169.297657 C 135.392961 169.239692 135.094832 169.206567 134.904365 169.206567 C 133.844339 169.206567 133.148704 169.761424 133.148704 170.664089 C 133.148704 171.069881 133.289483 171.368011 133.479959 171.591612 C 133.430271 171.740677 133.355734 171.906305 133.231518 172.080218 L 133.156981 171.906305 C 133.082453 171.765526 132.991353 171.66614 132.809163 171.66614 C 132.560722 171.66614 132.328843 171.898028 132.328843 172.163032 C 132.328843 172.469438 132.61041 172.626789 132.900263 172.626789 C 133.347457 172.626789 133.629024 172.254122 133.794651 171.856616 C 134.101067 172.038807 134.50685 172.12162 134.887802 172.12162 C 135.922978 172.12162 136.660016 171.550201 136.660016 170.614401 C 136.660016 170.051267 136.428138 169.686887 136.038918 169.488134 L 136.038918 169.463285 C 136.403298 169.098904 136.568926 168.867026 136.568926 168.552334 C 136.568926 168.337018 136.444701 168.022326 136.072043 167.906386 L 136.072043 167.873261 C 136.552363 167.657945 136.850493 167.392932 136.850493 166.920898 C 136.850493 166.341193 136.419861 165.893998 134.920927 165.893998 Z M 134.887802 169.67861 C 135.401247 169.67861 135.757351 170.034704 135.757351 170.664089 C 135.757351 171.218946 135.566875 171.657863 134.929204 171.657863 C 134.366071 171.657863 134.043092 171.27692 134.043092 170.630964 C 134.043092 170.034704 134.349508 169.67861 134.887802 169.67861 Z M 134.838114 166.448855 C 135.633126 166.448855 135.980944 166.622768 135.980944 167.0534 C 135.980944 167.35153 135.823602 167.541997 135.62484 167.699347 L 134.283257 167.699347 C 133.786374 167.699347 133.554487 167.550283 133.554487 167.219028 C 133.554487 166.78011 133.976841 166.448855 134.838114 166.448855 Z M 129.943798 167.674508 C 129.148777 167.674508 128.577366 168.105139 128.262665 168.527485 L 128.577366 168.842186 C 128.817522 168.610299 129.181902 168.353581 129.728482 168.353581 C 130.515217 168.353581 130.962412 168.908437 130.995537 169.802826 L 128.436578 169.802826 C 128.362041 170.06783 128.320639 170.357683 128.320639 170.622687 C 128.320639 171.566764 128.983149 172.12162 129.877547 172.12162 C 131.078351 172.12162 131.931337 171.260357 131.931337 169.819389 C 131.931337 168.635147 131.277104 167.674508 129.943798 167.674508 Z M 130.995537 170.307994 C 130.937563 170.962228 130.705684 171.633015 129.976923 171.633015 C 129.480041 171.633015 129.198465 171.343171 129.198465 170.7055 C 129.198465 170.556436 129.206751 170.415648 129.223314 170.307994 L 130.995537 170.307994 Z M 127.567029 167.790447 L 125.446988 167.790447 L 125.446988 168.19623 L 125.861061 168.28733 C 126.043252 168.328732 126.068096 168.411546 126.068096 168.643433 L 126.068096 170.324557 C 126.068096 171.127855 125.562927 171.45911 125.008075 171.45911 C 124.295872 171.45911 124.229621 171.011916 124.229621 170.423934 L 124.229621 168.610299 C 124.229621 168.37842 124.262747 168.303892 124.478062 168.262481 L 124.825885 168.19623 L 124.825885 167.790447 L 122.705839 167.790447 L 122.705839 168.204516 L 123.095068 168.270767 C 123.326947 168.312169 123.351791 168.386706 123.351791 168.610299 L 123.351791 170.7055 C 123.351791 171.467387 123.658202 172.12162 124.709941 172.12162 C 125.463551 172.12162 125.91075 171.657863 126.134347 171.268634 L 126.159191 171.268634 L 126.21716 172.005681 L 126.316537 172.063655 L 127.583592 171.972556 L 127.641566 171.541924 L 127.235774 171.48395 C 126.979052 171.442547 126.954207 171.343171 126.954207 170.970504 L 126.954207 168.676559 C 126.954207 168.444671 126.954207 168.320455 127.169523 168.279044 L 127.567029 168.204516 L 127.567029 167.790447 Z M 120.3622 165.893998 C 118.954362 165.893998 118.084813 166.41573 118.084813 167.409495 C 118.084813 168.320455 118.755609 168.510922 119.583747 168.510922 L 120.676897 168.510922 C 121.057841 168.510922 121.264875 168.568896 121.264875 168.842186 C 121.264875 169.007814 121.148936 169.156879 121.024715 169.297657 C 120.834243 169.239692 120.536109 169.206567 120.345638 169.206567 C 119.285617 169.206567 118.589981 169.761424 118.589981 170.664089 C 118.589981 171.069881 118.730765 171.368011 118.921236 171.591612 C 118.871548 171.740677 118.797016 171.906305 118.672795 172.080218 L 118.598263 171.906305 C 118.523726 171.765526 118.432631 171.66614 118.25044 171.66614 C 118.001999 171.66614 117.770121 171.898028 117.770121 172.163032 C 117.770121 172.469438 118.051687 172.626789 118.341536 172.626789 C 118.788734 172.626789 119.070301 172.254122 119.235929 171.856616 C 119.54234 172.038807 119.948132 172.12162 120.329075 172.12162 C 121.364251 172.12162 122.101298 171.550201 122.101298 170.614401 C 122.101298 170.051267 121.86942 169.686887 121.480191 169.488134 L 121.480191 169.463285 C 121.844576 169.098904 122.010203 168.867026 122.010203 168.552334 C 122.010203 168.337018 121.885983 168.022326 121.513316 167.906386 L 121.513316 167.873261 C 121.993641 167.657945 122.29177 167.392932 122.29177 166.920898 C 122.29177 166.341193 121.861139 165.893998 120.3622 165.893998 Z M 120.329075 169.67861 C 120.842525 169.67861 121.198624 170.034704 121.198624 170.664089 C 121.198624 171.218946 121.008152 171.657863 120.370482 171.657863 C 119.807348 171.657863 119.48437 171.27692 119.48437 170.630964 C 119.48437 170.034704 119.790785 169.67861 120.329075 169.67861 Z M 120.279387 166.448855 C 121.074403 166.448855 121.422221 166.622768 121.422221 167.0534 C 121.422221 167.35153 121.264875 167.541997 121.066122 167.699347 L 119.724534 167.699347 C 119.227647 167.699347 118.995769 167.550283 118.995769 167.219028 C 118.995769 166.78011 119.418119 166.448855 120.279387 166.448855 Z M 117.331203 167.790447 L 115.211162 167.790447 L 115.211162 168.19623 L 115.625235 168.28733 C 115.807425 168.328732 115.83227 168.411546 115.83227 168.643433 L 115.83227 170.324557 C 115.83227 171.127855 115.327101 171.45911 114.772249 171.45911 C 114.060046 171.45911 113.993795 171.011916 113.993795 170.423934 L 113.993795 168.610299 C 113.993795 168.37842 114.026921 168.303892 114.242236 168.262481 L 114.590059 168.19623 L 114.590059 167.790447 L 112.470017 167.790447 L 112.470017 168.204516 L 112.859242 168.270767 C 113.091121 168.312169 113.115965 168.386706 113.115965 168.610299 L 113.115965 170.7055 C 113.115965 171.467387 113.42238 172.12162 114.474119 172.12162 C 115.227725 172.12162 115.674923 171.657863 115.898521 171.268634 L 115.923365 171.268634 L 115.981334 172.005681 L 116.080711 172.063655 L 117.347766 171.972556 L 117.405736 171.541924 L 116.999948 171.48395 C 116.743225 171.442547 116.718381 171.343171 116.718381 170.970504 L 116.718381 168.676559 C 116.718381 168.444671 116.718381 168.320455 116.933697 168.279044 L 117.331203 168.204516 L 117.331203 167.790447 Z M 110.896547 172.908356 C 110.523885 172.908356 110.267158 173.156797 110.267158 173.504615 C 110.267158 173.860718 110.515604 174.100883 110.896547 174.100883 C 111.260927 174.100883 111.509373 173.852441 111.509373 173.504615 C 111.509373 173.14852 111.260927 172.908356 110.896547 172.908356 Z M 111.923442 167.790447 L 109.629492 167.790447 L 109.629492 168.212793 L 110.068405 168.295606 C 110.300288 168.337018 110.325132 168.436394 110.325132 168.676559 L 110.325132 171.997404 L 110.424508 172.038807 L 111.840628 171.964279 L 111.898598 171.525361 L 111.509373 171.467387 C 111.236083 171.434262 111.211239 171.326608 111.211239 170.953942 L 111.211239 168.701398 C 111.211239 168.452957 111.219521 168.337018 111.459685 168.295606 L 111.923442 168.221079 L 111.923442 167.790447 Z M 108.279623 169.380471 L 107.782736 169.380471 L 107.782736 169.893926 C 107.782736 171.27692 107.418355 172.527412 107.418355 173.156797 C 107.418355 173.521177 107.650234 173.703368 107.98977 173.703368 C 108.32103 173.703368 108.602597 173.529463 108.602597 173.140234 C 108.602597 172.486001 108.279623 171.210669 108.279623 169.902202 L 108.279623 169.380471 Z M 108.022896 167.674508 C 107.658515 167.674508 107.410074 167.906386 107.410074 168.270767 C 107.410074 168.643433 107.658515 168.867026 108.022896 168.867026 C 108.378999 168.867026 108.635722 168.635147 108.635722 168.262481 C 108.635722 167.8981 108.378999 167.674508 108.022896 167.674508 Z M 118.797016 177.612195 C 118.267003 177.612195 117.819809 177.877199 117.513393 178.191901 L 117.728714 178.523156 C 117.952311 178.374091 118.192471 178.258152 118.498882 178.258152 C 118.904674 178.258152 119.06202 178.498307 119.06202 178.945501 L 119.06202 181.388521 L 117.794965 181.388521 L 117.794965 181.943378 L 119.06202 181.943378 L 119.06202 183.334658 L 119.177959 183.384346 L 119.650002 183.326372 C 119.716253 182.365732 119.923287 181.901966 120.585798 181.844001 L 120.585798 181.388521 L 119.948132 181.388521 L 119.948132 178.846125 C 119.948132 178.084238 119.625158 177.612195 118.797016 177.612195 Z M 116.130399 182.846052 C 115.757737 182.846052 115.501015 183.094493 115.501015 183.442311 C 115.501015 183.798415 115.749456 184.03857 116.130399 184.03857 C 116.49478 184.03857 116.743225 183.790129 116.743225 183.442311 C 116.743225 183.086207 116.49478 182.846052 116.130399 182.846052 Z M 117.157294 177.728134 L 114.863344 177.728134 L 114.863344 178.150489 L 115.302257 178.233303 C 115.53414 178.274714 115.558984 178.374091 115.558984 178.614246 L 115.558984 181.935092 L 115.658361 181.976503 L 117.074481 181.901966 L 117.13245 181.463058 L 116.743225 181.405084 C 116.469936 181.371958 116.445091 181.264305 116.445091 180.891638 L 116.445091 178.639095 C 116.445091 178.390654 116.453373 178.274714 116.693537 178.233303 L 117.157294 178.158775 L 117.157294 177.728134 Z M 114.358176 177.728134 L 112.080788 177.728134 L 112.080788 178.150489 L 112.519706 178.233303 C 112.751584 178.274714 112.776428 178.374091 112.776428 178.614246 L 112.776428 183.980605 L 112.867523 184.071696 L 114.316769 184.030293 L 114.366457 183.583099 L 114.002076 183.516848 C 113.687384 183.46716 113.654259 183.37606 113.654259 183.036519 L 113.654259 178.639095 C 113.654259 178.390654 113.66254 178.274714 113.910981 178.233303 L 114.358176 178.158775 L 114.358176 177.728134 Z M 145.189879 177.728134 L 142.912487 177.728134 L 142.912487 178.150489 L 143.351404 178.233303 C 143.583283 178.274714 143.608123 178.374091 143.608123 178.614246 L 143.608123 183.980605 L 143.699222 184.071696 L 145.148468 184.030293 L 145.198156 183.583099 L 144.833775 183.516848 C 144.519083 183.46716 144.485957 183.37606 144.485957 183.036519 L 144.485957 178.639095 C 144.485957 178.390654 144.494234 178.274714 144.742676 178.233303 L 145.189879 178.158775 L 145.189879 177.728134 Z M 140.361814 177.612195 C 139.566793 177.612195 138.995382 178.042836 138.680681 178.465181 L 138.995382 178.779874 C 139.235538 178.547995 139.599918 178.291277 140.146498 178.291277 C 140.933234 178.291277 141.380428 178.846125 141.413553 179.740522 L 138.854595 179.740522 C 138.780067 180.005526 138.738655 180.295379 138.738655 180.560383 C 138.738655 181.50446 139.401165 182.059317 140.295563 182.059317 C 141.496367 182.059317 142.349353 181.198054 142.349353 179.757085 C 142.349353 178.572844 141.69512 177.612195 140.361814 177.612195 Z M 141.413553 180.245691 C 141.355579 180.899915 141.123701 181.570711 140.39494 181.570711 C 139.898057 181.570711 139.616481 181.280867 139.616481 180.643197 C 139.616481 180.494132 139.624767 180.353344 139.64133 180.245691 L 141.413553 180.245691 Z M 137.049246 182.846052 C 136.676579 182.846052 136.419861 183.094493 136.419861 183.442311 C 136.419861 183.798415 136.668302 184.03857 137.049246 184.03857 C 137.413626 184.03857 137.662067 183.790129 137.662067 183.442311 C 137.662067 183.086207 137.413626 182.846052 137.049246 182.846052 Z M 138.076145 177.728134 L 135.78219 177.728134 L 135.78219 178.150489 L 136.221108 178.233303 C 136.452986 178.274714 136.477826 178.374091 136.477826 178.614246 L 136.477826 181.935092 L 136.577203 181.976503 L 137.993331 181.901966 L 138.051297 181.463058 L 137.662067 181.405084 C 137.388786 181.371958 137.363938 181.264305 137.363938 180.891638 L 137.363938 178.639095 C 137.363938 178.390654 137.372224 178.274714 137.612379 178.233303 L 138.076145 178.158775 L 138.076145 177.728134 Z M 133.289483 177.612195 C 131.865086 177.612195 131.144602 178.730186 131.144602 180.610071 C 131.144602 181.926815 131.558671 182.862615 132.204618 183.417472 L 131.550394 183.906068 L 131.76571 184.320146 L 132.61041 183.682476 C 133.140418 183.988882 133.769812 184.096544 134.407473 184.12967 L 134.490287 183.715601 C 133.943716 183.64935 133.496522 183.483723 133.165267 183.251844 L 133.802937 182.788078 L 133.579335 182.374009 L 132.7926 182.970268 C 132.419934 182.556199 132.171492 181.926815 132.080402 181.289144 L 132.080402 181.198054 C 132.370245 181.612122 132.834012 181.835715 133.36402 181.835715 C 134.258408 181.835715 135.227334 181.214616 135.227334 179.72396 C 135.227334 178.390654 134.473724 177.612195 133.289483 177.612195 Z M 133.165267 178.158775 C 133.894028 178.158775 134.266694 178.713623 134.266694 179.773648 C 134.266694 180.84195 133.811214 181.29743 133.206669 181.29743 C 132.7926 181.29743 132.419934 181.098677 132.262592 180.800539 C 132.13009 180.552097 132.113527 180.162877 132.113527 179.798488 C 132.113527 178.763311 132.477908 178.158775 133.165267 178.158775 Z M 129.438629 182.846052 C 129.065963 182.846052 128.809245 183.094493 128.809245 183.442311 C 128.809245 183.798415 129.057686 184.03857 129.438629 184.03857 C 129.80301 184.03857 130.051451 183.790129 130.051451 183.442311 C 130.051451 183.086207 129.80301 182.846052 129.438629 182.846052 Z M 130.46552 177.728134 L 128.171574 177.728134 L 128.171574 178.150489 L 128.610492 178.233303 C 128.84237 178.274714 128.86721 178.374091 128.86721 178.614246 L 128.86721 181.935092 L 128.966586 181.976503 L 130.382706 181.901966 L 130.44068 181.463058 L 130.051451 181.405084 C 129.77817 181.371958 129.753322 181.264305 129.753322 180.891638 L 129.753322 178.639095 C 129.753322 178.390654 129.761607 178.274714 130.001763 178.233303 L 130.46552 178.158775 L 130.46552 177.728134 Z M 127.575315 177.728134 L 125.455269 177.728134 L 125.455269 178.133926 L 125.869343 178.225026 C 126.051533 178.266428 126.076377 178.349242 126.076377 178.581121 L 126.076377 180.262254 C 126.076377 181.065552 125.571209 181.396807 125.016356 181.396807 C 124.304154 181.396807 124.237902 180.949603 124.237902 180.36163 L 124.237902 178.547995 C 124.237902 178.316117 124.271028 178.241589 124.486344 178.200177 L 124.834166 178.133926 L 124.834166 177.728134 L 122.714125 177.728134 L 122.714125 178.142212 L 123.103349 178.208463 C 123.335228 178.249866 123.360072 178.324403 123.360072 178.547995 L 123.360072 180.643197 C 123.360072 181.405084 123.666483 182.059317 124.718222 182.059317 C 125.471832 182.059317 125.919031 181.59556 126.142628 181.206331 L 126.167472 181.206331 L 126.225442 181.943378 L 126.324818 182.001343 L 127.591878 181.910252 L 127.649843 181.47962 L 127.244056 181.421646 C 126.987333 181.380244 126.962489 181.280867 126.962489 180.908201 L 126.962489 178.614246 C 126.962489 178.382368 126.962489 178.258152 127.177805 178.21674 L 127.575315 178.142212 L 127.575315 177.728134 Z M 110.904828 187.549892 L 110.532166 187.549892 L 110.441071 187.831459 C 110.242314 187.698957 109.902777 187.549892 109.397613 187.549892 C 108.370718 187.549892 107.873831 188.228965 107.873831 188.941172 C 107.873831 190.597456 110.176063 189.968063 110.176063 190.953551 C 110.176063 191.317931 109.911059 191.516693 109.472146 191.516693 C 109.04151 191.516693 108.635722 191.226841 108.511501 190.663707 L 107.998052 190.622296 L 108.10571 191.997013 L 108.494939 191.997013 L 108.56119 191.715447 C 108.759943 191.881074 109.132605 191.997013 109.480427 191.997013 C 110.424508 191.997013 110.954516 191.450442 110.954516 190.713395 C 110.954516 189.090237 108.644004 189.74447 108.644004 188.734133 C 108.644004 188.311787 108.950414 188.088186 109.381051 188.088186 C 109.803401 188.088186 110.267158 188.26209 110.532166 189.023986 L 111.03733 188.99086 L 110.904828 187.549892 Z M 105.563318 187.549892 C 105.033305 187.549892 104.586111 187.814896 104.2797 188.129588 L 104.495016 188.460852 C 104.718613 188.311787 104.958773 188.195839 105.265189 188.195839 C 105.670976 188.195839 105.828322 188.436004 105.828322 188.883198 L 105.828322 191.326217 L 104.561267 191.326217 L 104.561267 191.881074 L 105.828322 191.881074 L 105.828322 193.272345 L 105.944261 193.322033 L 106.416304 193.264068 C 106.482555 192.30342 106.68959 191.839663 107.352104 191.781698 L 107.352104 191.326217 L 106.714434 191.326217 L 106.714434 188.783821 C 106.714434 188.021935 106.39146 187.549892 105.563318 187.549892 Z M 103.310775 185.769391 C 102.4081 185.769391 102.068564 186.423625 101.695897 187.293174 L 100.130713 190.936988 C 99.989929 191.259966 99.948522 191.351057 99.741484 191.392468 L 99.435073 191.458719 L 99.435073 191.881074 L 101.207296 191.881074 L 101.29011 191.467005 L 100.925725 191.384182 C 100.685565 191.326217 100.635877 191.218555 100.735253 190.936988 L 101.604802 188.792107 L 101.646209 188.792107 L 102.515758 190.994962 C 102.623416 191.284806 102.582009 191.375906 102.358412 191.409031 L 101.960901 191.467005 L 101.960901 191.881074 L 104.047817 191.881074 L 104.130635 191.442157 L 103.840783 191.375906 C 103.608904 191.317931 103.600623 191.235118 103.468121 190.961837 L 102.109971 187.698957 L 102.308724 187.243476 C 102.615135 186.572689 102.805606 186.241434 103.194835 186.233148 C 103.169991 186.448464 103.145147 186.614092 103.153429 186.696905 C 103.169991 186.945347 103.385307 187.028161 103.600623 187.028161 C 103.923597 187.028161 104.180324 186.788005 104.180324 186.440187 C 104.180324 186.108923 103.940159 185.769391 103.310775 185.769391 Z M 98.880216 187.549892 L 98.507554 187.549892 L 98.416459 187.831459 C 98.217706 187.698957 97.878169 187.549892 97.373001 187.549892 C 96.346106 187.549892 95.849223 188.228965 95.849223 188.941172 C 95.849223 190.597456 98.151455 189.968063 98.151455 190.953551 C 98.151455 191.317931 97.886451 191.516693 97.447533 191.516693 C 97.016902 191.516693 96.61111 191.226841 96.486889 190.663707 L 95.973444 190.622296 L 96.081102 191.997013 L 96.470326 191.997013 L 96.536577 191.715447 C 96.73533 191.881074 97.107997 191.997013 97.455815 191.997013 C 98.399896 191.997013 98.929909 191.450442 98.929909 190.713395 C 98.929909 189.090237 96.619391 189.74447 96.619391 188.734133 C 96.619391 188.311787 96.925807 188.088186 97.356438 188.088186 C 97.778788 188.088186 98.24255 188.26209 98.507554 189.023986 L 99.012722 188.99086 L 98.880216 187.549892 Z M 93.538706 187.549892 C 93.008698 187.549892 92.561499 187.814896 92.255088 188.129588 L 92.470404 188.460852 C 92.694005 188.311787 92.934165 188.195839 93.240576 188.195839 C 93.646364 188.195839 93.803714 188.436004 93.803714 188.883198 L 93.803714 191.326217 L 92.536655 191.326217 L 92.536655 191.881074 L 93.803714 191.881074 L 93.803714 193.272345 L 93.919654 193.322033 L 94.391692 193.264068 C 94.457943 192.30342 94.664977 191.839663 95.327492 191.781698 L 95.327492 191.326217 L 94.689822 191.326217 L 94.689822 188.783821 C 94.689822 188.021935 94.366848 187.549892 93.538706 187.549892 Z M 90.631934 187.549892 C 90.043951 187.549892 89.646445 187.798333 89.356595 188.26209 C 89.298623 187.848021 89.066745 187.549892 88.561578 187.549892 C 88.313137 187.549892 87.98188 187.665831 87.749999 187.881147 L 87.841096 188.220688 C 88.362825 188.071623 88.578141 188.187562 88.578141 188.527103 L 88.578141 190.464954 C 88.578141 191.682321 89.265498 191.997013 90.151609 191.997013 C 91.012877 191.997013 91.791331 191.500131 91.791331 190.895586 C 91.791331 190.647144 91.658829 190.440106 91.302725 190.440106 C 90.963189 190.440106 90.805843 190.638859 90.805843 190.829335 C 90.805843 190.945274 90.930063 191.152304 91.012877 191.293092 C 90.896938 191.409031 90.615366 191.533256 90.27583 191.533256 C 89.754103 191.533256 89.455971 191.301369 89.455971 190.605733 L 89.455971 190.026037 C 89.787229 190.009474 90.151609 189.984625 90.482864 189.934937 C 91.302725 189.818998 91.816175 189.421492 91.816175 188.684445 C 91.816175 187.856307 91.203349 187.549892 90.631934 187.549892 Z M 90.267549 188.170999 C 90.615366 188.170999 90.905219 188.344913 90.905219 188.783821 C 90.905219 189.106799 90.73131 189.421492 90.201298 189.504306 C 90.002545 189.537431 89.729259 189.570557 89.455971 189.570557 L 89.455971 188.99086 C 89.455971 188.361476 89.936294 188.170999 90.267549 188.170999 Z M 119.053738 187.549892 C 118.258722 187.549892 117.687307 187.980523 117.37261 188.402878 L 117.687307 188.71757 C 117.927467 188.485692 118.291847 188.228965 118.838423 188.228965 C 119.625158 188.228965 120.072352 188.783821 120.105478 189.678219 L 117.546523 189.678219 C 117.471987 189.943223 117.43058 190.233067 117.43058 190.49808 C 117.43058 191.442157 118.093094 191.997013 118.987487 191.997013 C 120.188292 191.997013 121.041278 191.135741 121.041278 189.694782 C 121.041278 188.51054 120.387045 187.549892 119.053738 187.549892 Z M 120.105478 190.183378 C 120.047508 190.837612 119.81563 191.508408 119.086864 191.508408 C 118.589981 191.508408 118.30841 191.218555 118.30841 190.580893 C 118.30841 190.431829 118.316691 190.291041 118.333254 190.183378 L 120.105478 190.183378 Z M 116.676974 187.665831 L 114.258799 187.665831 L 114.258799 188.0799 L 114.971002 188.187562 C 115.169755 188.220688 115.178036 188.311787 115.178036 188.543666 L 115.178036 190.175102 C 115.178036 190.920425 114.573496 191.582944 114.051765 191.36762 C 114.184267 191.110902 114.217392 190.986676 114.217392 190.879023 C 114.217392 190.655421 114.043483 190.49808 113.703947 190.49808 C 113.306436 190.49808 113.115965 190.754798 113.115965 191.168867 C 113.115965 191.732009 113.513475 191.997013 114.010358 191.997013 C 114.672872 191.997013 115.037253 191.516693 115.252569 191.144027 L 115.277413 191.144027 L 115.351945 191.881074 L 115.451322 191.939039 L 116.693537 191.847949 L 116.751507 191.409031 L 116.345715 191.351057 C 116.088992 191.309655 116.064148 191.210278 116.064148 190.837612 L 116.064148 188.560229 C 116.064148 188.32835 116.07243 188.204125 116.279464 188.162714 L 116.676974 188.088186 L 116.676974 187.665831 Z M 167.499997 187.665831 L 164.990735 187.665831 L 164.990735 188.088186 L 165.545583 188.162714 C 165.80231 188.195839 165.835435 188.295225 165.835435 188.568506 L 165.835435 188.891484 C 165.644959 188.891484 165.396518 188.883198 165.197765 188.883198 C 164.261965 188.883198 163.110849 189.338678 163.110849 190.713395 C 163.110849 191.947325 164.079775 192.295143 165.338553 192.295143 L 165.835435 192.295143 L 165.835435 192.55187 C 165.835435 192.833437 165.80231 192.932813 165.545583 192.965939 L 164.990735 193.040467 L 164.990735 193.462821 L 167.499997 193.462821 L 167.499997 193.040467 L 167.036239 192.965939 C 166.787798 192.924527 166.771235 192.808588 166.771235 192.543584 L 166.771235 188.585068 C 166.771235 188.320064 166.787798 188.204125 167.036239 188.162714 L 167.499997 188.088186 L 167.499997 187.665831 Z M 165.835435 189.371804 L 165.835435 191.814823 L 165.421367 191.814823 C 164.618069 191.814823 164.104623 191.541533 164.104623 190.68027 C 164.104623 189.885249 164.493843 189.371804 165.396518 189.371804 L 165.835435 189.371804 Z M 162.580841 187.665831 L 160.16267 187.665831 L 160.16267 188.0799 L 160.874869 188.187562 C 161.073622 188.220688 161.081907 188.311787 161.081907 188.543666 L 161.081907 190.175102 C 161.081907 190.920425 160.477362 191.582944 159.955631 191.36762 C 160.088133 191.110902 160.121259 190.986676 160.121259 190.879023 C 160.121259 190.655421 159.947354 190.49808 159.607813 190.49808 C 159.210307 190.49808 159.019831 190.754798 159.019831 191.168867 C 159.019831 191.732009 159.417337 191.997013 159.914229 191.997013 C 160.576739 191.997013 160.94112 191.516693 161.156435 191.144027 L 161.181284 191.144027 L 161.255812 191.881074 L 161.355188 191.939039 L 162.597404 191.847949 L 162.655378 191.409031 L 162.249586 191.351057 C 161.992859 191.309655 161.968019 191.210278 161.968019 190.837612 L 161.968019 188.560229 C 161.968019 188.32835 161.976296 188.204125 162.183335 188.162714 L 162.580841 188.088186 L 162.580841 187.665831 Z M 157.371833 187.549892 C 156.783851 187.549892 156.386345 187.798333 156.096492 188.26209 C 156.038527 187.848021 155.806648 187.549892 155.30148 187.549892 C 155.053039 187.549892 154.721783 187.665831 154.489905 187.881147 L 154.580996 188.220688 C 155.102727 188.071623 155.318043 188.187562 155.318043 188.527103 L 155.318043 190.464954 C 155.318043 191.682321 156.005401 191.997013 156.891513 191.997013 C 157.752776 191.997013 158.531235 191.500131 158.531235 190.895586 C 158.531235 190.647144 158.398724 190.440106 158.042629 190.440106 C 157.703088 190.440106 157.545746 190.638859 157.545746 190.829335 C 157.545746 190.945274 157.669962 191.152304 157.752776 191.293092 C 157.636837 191.409031 157.35527 191.533256 157.015729 191.533256 C 156.494007 191.533256 156.195868 191.301369 156.195868 190.605733 L 156.195868 190.026037 C 156.527133 190.009474 156.891513 189.984625 157.222768 189.934937 C 158.042629 189.818998 158.556074 189.421492 158.556074 188.684445 C 158.556074 187.856307 157.943252 187.549892 157.371833 187.549892 Z M 157.007452 188.170999 C 157.35527 188.170999 157.645123 188.344913 157.645123 188.783821 C 157.645123 189.106799 157.471209 189.421492 156.941201 189.504306 C 156.742448 189.537431 156.469158 189.570557 156.195868 189.570557 L 156.195868 188.99086 C 156.195868 188.361476 156.676197 188.170999 157.007452 188.170999 Z M 152.278764 187.549892 C 151.574843 187.549892 151.193899 187.905995 150.887484 188.295225 L 150.862644 188.295225 L 150.738419 187.616143 L 149.371987 187.665831 L 149.371987 188.088186 L 149.786056 188.162714 C 150.017935 188.204125 150.05106 188.295225 150.05106 188.551943 L 150.05106 191.881074 L 150.150446 191.939039 L 151.508591 191.847949 L 151.566566 191.417317 L 151.210462 191.359343 C 150.953735 191.317931 150.928895 191.218555 150.928895 190.854174 L 150.928895 189.346964 C 150.928895 188.551943 151.417501 188.212402 151.972349 188.212402 C 152.684556 188.212402 152.709396 188.667882 152.709396 189.239302 L 152.709396 191.881074 L 152.808772 191.939039 L 154.18349 191.847949 L 154.249741 191.417317 L 153.877074 191.359343 C 153.61207 191.317931 153.58723 191.210278 153.58723 190.854174 L 153.58723 188.957735 C 153.58723 188.212402 153.305664 187.549892 152.278764 187.549892 Z M 147.078042 187.549892 C 146.548025 187.549892 146.10083 187.814896 145.794415 188.129588 L 146.00974 188.460852 C 146.233332 188.311787 146.473497 188.195839 146.779903 188.195839 C 147.185695 188.195839 147.343046 188.436004 147.343046 188.883198 L 147.343046 191.326217 L 146.075991 191.326217 L 146.075991 191.881074 L 147.343046 191.881074 L 147.343046 193.272345 L 147.458985 193.322033 L 147.931019 193.264068 C 147.99727 192.30342 148.204309 191.839663 148.866819 191.781698 L 148.866819 191.326217 L 148.229158 191.326217 L 148.229158 188.783821 C 148.229158 188.021935 147.906179 187.549892 147.078042 187.549892 Z M 145.223004 187.549892 L 144.850338 187.549892 L 144.759238 187.831459 C 144.560485 187.698957 144.220953 187.549892 143.715785 187.549892 C 142.688885 187.549892 142.192003 188.228965 142.192003 188.941172 C 142.192003 190.597456 144.494234 189.968063 144.494234 190.953551 C 144.494234 191.317931 144.22923 191.516693 143.790313 191.516693 C 143.359681 191.516693 142.953898 191.226841 142.829673 190.663707 L 142.316228 190.622296 L 142.423881 191.997013 L 142.81311 191.997013 L 142.879361 191.715447 C 143.078114 191.881074 143.450781 191.997013 143.798599 191.997013 C 144.742676 191.997013 145.272693 191.450442 145.272693 190.713395 C 145.272693 189.090237 142.962175 189.74447 142.962175 188.734133 C 142.962175 188.311787 143.268591 188.088186 143.699222 188.088186 C 144.121577 188.088186 144.585334 188.26209 144.850338 189.023986 L 145.355506 188.99086 L 145.223004 187.549892 Z M 139.599918 187.549892 C 138.804906 187.549892 138.233487 187.980523 137.918795 188.402878 L 138.233487 188.71757 C 138.473651 188.485692 138.838032 188.228965 139.384603 188.228965 C 140.171338 188.228965 140.618532 188.783821 140.651658 189.678219 L 138.092708 189.678219 C 138.018171 189.943223 137.976769 190.233067 137.976769 190.49808 C 137.976769 191.442157 138.639279 191.997013 139.533667 191.997013 C 140.734471 191.997013 141.587458 191.135741 141.587458 189.694782 C 141.587458 188.51054 140.933234 187.549892 139.599918 187.549892 Z M 140.651658 190.183378 C 140.593693 190.837612 140.361814 191.508408 139.633044 191.508408 C 139.136161 191.508408 138.854595 191.218555 138.854595 190.580893 C 138.854595 190.431829 138.86288 190.291041 138.879443 190.183378 L 140.651658 190.183378 Z M 136.287359 192.783749 C 135.914693 192.783749 135.657974 193.03219 135.657974 193.380008 C 135.657974 193.736111 135.906416 193.976267 136.287359 193.976267 C 136.65174 193.976267 136.900181 193.727825 136.900181 193.380008 C 136.900181 193.023904 136.65174 192.783749 136.287359 192.783749 Z M 137.31425 187.665831 L 135.020304 187.665831 L 135.020304 188.088186 L 135.459212 188.170999 C 135.6911 188.212402 135.715939 188.311787 135.715939 188.551943 L 135.715939 191.872788 L 135.815316 191.9142 L 137.231436 191.839663 L 137.28941 191.400754 L 136.900181 191.34278 C 136.626891 191.309655 136.602051 191.201992 136.602051 190.829335 L 136.602051 188.576791 C 136.602051 188.32835 136.610328 188.212402 136.850493 188.170999 L 137.31425 188.096463 L 137.31425 187.665831 Z M 132.718072 185.769391 C 131.310229 185.769391 130.44068 186.291123 130.44068 187.284888 C 130.44068 188.195839 131.111476 188.386315 131.939614 188.386315 L 133.032765 188.386315 C 133.413708 188.386315 133.620747 188.444289 133.620747 188.71757 C 133.620747 188.883198 133.504799 189.032263 133.380582 189.17305 C 133.190106 189.115076 132.891977 189.081951 132.70151 189.081951 C 131.641484 189.081951 130.945849 189.636808 130.945849 190.539482 C 130.945849 190.945274 131.086628 191.243404 131.277104 191.467005 C 131.227416 191.61607 131.152879 191.781698 131.028663 191.955602 L 130.954126 191.781698 C 130.879598 191.64091 130.788498 191.541533 130.606308 191.541533 C 130.357867 191.541533 130.125988 191.773412 130.125988 192.038416 C 130.125988 192.344831 130.407555 192.502182 130.697407 192.502182 C 131.144602 192.502182 131.426169 192.129515 131.591796 191.732009 C 131.898212 191.9142 132.303994 191.997013 132.684947 191.997013 C 133.720123 191.997013 134.457161 191.425594 134.457161 190.489794 C 134.457161 189.92666 134.225283 189.56228 133.836063 189.363527 L 133.836063 189.338678 C 134.200443 188.974297 134.366071 188.742419 134.366071 188.427727 C 134.366071 188.212402 134.241846 187.89771 133.869188 187.78177 L 133.869188 187.748645 C 134.349508 187.533329 134.647637 187.268325 134.647637 186.796282 C 134.647637 186.216586 134.217006 185.769391 132.718072 185.769391 Z M 132.684947 189.553994 C 133.198392 189.553994 133.554487 189.910097 133.554487 190.539482 C 133.554487 191.094339 133.36402 191.533256 132.726349 191.533256 C 132.163216 191.533256 131.840237 191.152304 131.840237 190.506357 C 131.840237 189.910097 132.146653 189.553994 132.684947 189.553994 Z M 132.635259 186.324248 C 133.430271 186.324248 133.778088 186.498152 133.778088 186.928784 C 133.778088 187.226914 133.620747 187.41739 133.421985 187.57474 L 132.080402 187.57474 C 131.583519 187.57474 131.351632 187.425676 131.351632 187.094412 C 131.351632 186.655503 131.773986 186.324248 132.635259 186.324248 Z M 128.825807 192.783749 C 128.453141 192.783749 128.196414 193.03219 128.196414 193.388284 C 128.196414 193.744388 128.453141 193.976267 128.825807 193.976267 C 129.181902 193.976267 129.438629 193.736111 129.438629 193.371722 C 129.438629 193.023904 129.181902 192.783749 128.825807 192.783749 Z M 129.579417 185.769391 C 128.635331 186.282837 128.254388 186.945347 128.254388 188.452566 L 128.254388 191.872788 L 128.353764 191.9142 L 129.769884 191.839663 L 129.827858 191.400754 L 129.430343 191.34278 C 129.157062 191.309655 129.1405 191.201992 129.1405 190.829335 L 129.1405 187.922558 C 129.1405 187.11926 129.306127 186.572689 129.860984 186.133772 L 129.579417 185.769391 Z M 125.943875 187.549892 C 125.355893 187.549892 124.958387 187.798333 124.668534 188.26209 C 124.610564 187.848021 124.378686 187.549892 123.873522 187.549892 C 123.625076 187.549892 123.293821 187.665831 123.061943 187.881147 L 123.153038 188.220688 C 123.674764 188.071623 123.890085 188.187562 123.890085 188.527103 L 123.890085 190.464954 C 123.890085 191.682321 124.577439 191.997013 125.463551 191.997013 C 126.324818 191.997013 127.103272 191.500131 127.103272 190.895586 C 127.103272 190.647144 126.97077 190.440106 126.614666 190.440106 C 126.27513 190.440106 126.117784 190.638859 126.117784 190.829335 C 126.117784 190.945274 126.242005 191.152304 126.324818 191.293092 C 126.208879 191.409031 125.927312 191.533256 125.587771 191.533256 C 125.066045 191.533256 124.767911 191.301369 124.767911 190.605733 L 124.767911 190.026037 C 125.09917 190.009474 125.463551 189.984625 125.794806 189.934937 C 126.614666 189.818998 127.128116 189.421492 127.128116 188.684445 C 127.128116 187.856307 126.51529 187.549892 125.943875 187.549892 Z M 125.57949 188.170999 C 125.927312 188.170999 126.21716 188.344913 126.21716 188.783821 C 126.21716 189.106799 126.043252 189.421492 125.513239 189.504306 C 125.314486 189.537431 125.0412 189.570557 124.767911 189.570557 L 124.767911 188.99086 C 124.767911 188.361476 125.248235 188.170999 125.57949 188.170999 Z"/>
 </g>
 <defs>
  <filter id="fErEOin1nzG6N4rqhxr7Q4WCadW2qhsU" width="400%" height="400%" x="-200%" y="-200%" color-interpolation-filters="sRGB" filterUnits="objectBoundingBox">
   <feGaussianBlur xmlns="http://www.w3.org/2000/svg" stdDeviation="4.294"/>
  </filter>
 </defs>
 <g opacity=".4" filter="url(#fErEOin1nzG6N4rqhxr7Q4WCadW2qhsU)">
  <path d="M 126.32 240.288391 L 126 211.493858 C 126 137.507198 136.583689 126 210.639397 126 L 248.648308 126"/>
 </g>
 <linearGradient id="_lgradient_7" x1=".5" x2=".493" y1="0" y2=".999" gradientTransform="matrix(121.984949,0,0,114.142294,128.7,126.446097)" gradientUnits="userSpaceOnUse">
  <stop offset="0%" style="stop-color:#ff4500"/>
  <stop offset="100%" style="stop-color:#dc153b"/>
 </linearGradient>
 <path fill="url(#_lgradient_7)" d="M 146.981133 240.532816 L 129.235454 240.394579 L 128.875364 232.288958 C 128.427224 222.201426 128.898364 189.860369 129.607224 182.051733 C 130.891544 167.903799 133.047274 158.739611 136.919594 150.966242 C 144.316411 136.117749 157.752076 129.780038 186.519013 127.569798 C 189.981553 127.303761 205.835377 126.942096 221.749745 126.766096 L 250.684949 126.446097 L 250.677945 150.616882 C 250.66795 182.807833 249.912495 193.581553 246.801434 205.899988 C 242.94608 221.165552 235.295628 230.075769 221.947499 234.846575 C 208.545888 239.636499 192.095746 240.884256 146.981623 240.532816 L 146.981133 240.532816 Z"/>
 <path fill="#ffffff" d="M 189.914154 161.144196 C 173.914154 161.144196 157.914154 169.144196 149.914154 185.144196 C 157.914154 201.144196 173.914154 209.144196 189.914154 209.144196 C 205.914154 209.144196 221.914154 201.144196 229.914154 185.144196 C 221.914154 169.144196 205.914154 161.144196 189.914154 161.144196 Z M 189.914154 169.144196 C 198.662949 169.144165 205.895355 176.399796 205.914154 185.128601 L 205.914154 185.144592 C 205.912201 193.884995 198.655746 201.144592 189.914154 201.144592 C 181.178162 201.144608 173.924957 193.893799 173.914154 185.160202 L 173.914154 185.144196 C 173.907761 176.399399 181.185349 169.144196 189.914154 169.144196 Z M 189.914154 177.144196 C 185.490555 177.14418 181.906555 180.719513 181.914154 185.144196 C 181.915146 189.562592 185.496552 193.144196 189.914154 193.144196 C 194.331757 193.144196 197.913361 189.562759 197.914154 185.144196 C 197.904556 180.731796 194.325638 177.144196 189.914154 177.144196 Z"/>
</svg>
