<svg xmlns="http://www.w3.org/2000/svg" style="isolation:isolate" width="256" height="256" viewBox="0 0 256 256">
 <defs>
  <filter id="9N0yRbMFFJ3n5rbKMIn60C78Mkvhv3rx" width="400%" height="400%" x="-200%" y="-200%" color-interpolation-filters="sRGB" filterUnits="objectBoundingBox">
   <feGaussianBlur xmlns="http://www.w3.org/2000/svg" in="SourceGraphic" stdDeviation="4.294"/>
   <feOffset xmlns="http://www.w3.org/2000/svg" dx="0" dy="4" result="pf_100_offsetBlur"/>
   <feFlood xmlns="http://www.w3.org/2000/svg" flood-opacity=".4"/>
   <feComposite xmlns="http://www.w3.org/2000/svg" in2="pf_100_offsetBlur" operator="in" result="pf_100_dropShadow"/>
   <feBlend xmlns="http://www.w3.org/2000/svg" in="SourceGraphic" in2="pf_100_dropShadow" mode="normal"/>
  </filter>
 </defs>
 <g filter="url(#9N0yRbMFFJ3n5rbKMIn60C78Mkvhv3rx)">
  <linearGradient id="_lgradient_109" x1="0" x2="0" y1="0" y2="1" gradientTransform="matrix(244.648309,0,0,228.338396,5.68,11.95)" gradientUnits="userSpaceOnUse">
   <stop offset="0%" style="stop-color:#4c5561"/>
   <stop offset="100%" style="stop-color:#2e3842"/>
  </linearGradient>
  <path fill="url(#_lgradient_109)" d="M 165.688919 11.95 C 239.744626 11.95 250.328309 22.507198 250.328309 96.493859 L 250.328309 155.744653 C 250.328309 229.73091 239.744626 240.288396 165.688919 240.288396 L 90.319393 240.288396 C 16.26369 240.288396 5.68 229.73091 5.68 155.744653 L 5.68 96.493859 C 5.68 22.507198 16.26369 11.95 90.319393 11.95 L 165.688919 11.95 Z"/>
 </g>
 <g opacity=".4">
  <linearGradient id="_lgradient_110" x1=".517" x2=".517" y1="0" y2="1" gradientTransform="matrix(244.65,0,0,228.34,5.68,11.95)" gradientUnits="userSpaceOnUse">
   <stop offset="0%" style="stop-color:#ffffff"/>
   <stop offset="12.5%" stop-opacity=".098" style="stop-color:#ffffff"/>
   <stop offset="92.5%" stop-opacity=".098" style="stop-color:#000000"/>
   <stop offset="100%" stop-opacity=".498" style="stop-color:#000000"/>
  </linearGradient>
  <path fill="url(#_lgradient_110)" fill-rule="evenodd" d="M 165.06803 11.951234 C 169.395994 11.941409 173.723944 11.990533 178.051908 12.088781 C 181.927398 12.167379 185.802873 12.31475 189.678362 12.540721 C 193.1309 12.737216 196.583423 13.022134 200.026115 13.395476 C 203.085193 13.729518 206.144271 14.181458 209.173842 14.741469 C 211.888645 15.242533 214.57394 15.881143 217.219897 16.6573 C 219.619947 17.354858 221.970814 18.219439 224.242988 19.241215 C 226.357793 20.184394 228.384061 21.304417 230.302129 22.591462 C 232.141505 23.829383 233.862851 25.244151 235.436659 26.80629 C 237.000621 28.378252 238.417046 30.087764 239.656409 31.924995 C 240.944972 33.840824 242.066305 35.864728 243.020409 37.967229 C 244.043389 40.246576 244.908985 42.584873 245.617197 44.972292 C 246.394255 47.615155 247.033606 50.297317 247.535265 53.008956 C 248.095924 56.034984 248.548399 59.080665 248.882828 62.13617 C 249.256611 65.574836 249.541856 69.013506 249.738578 72.462003 C 249.964823 76.323139 250.112361 80.194101 250.200884 84.055237 C 250.289421 88.378131 250.338591 92.701032 250.32876 97.014106 L 250.32876 155.225886 C 250.338591 159.54878 250.289421 163.861854 250.200884 168.184747 C 250.112361 172.05571 249.964823 175.916853 249.738578 179.777981 C 249.541856 183.226485 249.256611 186.674975 248.882828 190.103826 C 248.548399 193.15933 248.095924 196.214835 247.535265 199.240851 C 247.033606 201.942664 246.394255 204.624837 245.617197 207.267703 C 244.908985 209.655115 244.043389 212.003235 243.020409 214.272755 C 242.066305 216.38509 240.944972 218.399156 239.656409 220.314999 C 238.417046 222.152226 237.000621 223.871561 235.436659 225.433697 C 233.862851 226.995832 232.141505 228.410601 230.302129 229.648532 C 228.384061 230.935575 226.357793 232.055598 224.242988 232.998768 C 221.970814 234.020552 219.619947 234.885137 217.219897 235.592507 C 214.57394 236.368672 211.888645 237.007276 209.173842 237.498515 C 206.144271 238.068354 203.085193 238.510465 200.026115 238.844519 C 196.583423 239.21785 193.1309 239.502777 189.678362 239.699269 C 185.802873 239.925235 181.927398 240.072615 178.051908 240.161035 C 173.723944 240.249454 169.395994 240.298581 165.06803 240.288762 L 90.941963 240.288762 C 86.614006 240.298581 82.286049 240.249454 77.9581 240.161035 C 74.08261 240.072615 70.20712 239.925235 66.331638 239.699269 C 62.879108 239.502777 59.426578 239.21785 55.983886 238.844519 C 52.924808 238.510465 49.865733 238.068354 46.836162 237.498515 C 44.121356 237.007276 41.436057 236.368672 38.7901 235.592507 C 36.390053 234.885137 34.039187 234.020552 31.767009 232.998768 C 29.652213 232.055598 27.625943 230.935575 25.707871 229.648532 C 23.868489 228.410601 22.147143 226.995832 20.573343 225.433697 C 19.009377 223.871561 17.592955 222.152226 16.353586 220.314999 C 15.065036 218.399156 13.943701 216.38509 12.989584 214.272755 C 11.966612 212.003235 11.101021 209.655115 10.392811 207.267703 C 9.615746 204.624837 8.976389 201.942664 8.47474 199.240851 C 7.914072 196.214835 7.461604 193.15933 7.127172 190.103826 C 6.753394 186.674975 6.468142 183.226485 6.271417 179.777981 C 6.045183 175.916853 5.897639 172.05571 5.809112 168.184747 C 5.720586 163.861854 5.671405 159.54878 5.681241 155.225886 L 5.681241 97.014106 C 5.671405 92.701032 5.720586 88.378131 5.809112 84.055237 C 5.897639 80.194101 6.045183 76.323139 6.271417 72.462003 C 6.468142 69.013506 6.753394 65.574836 7.127172 62.13617 C 7.461604 59.080665 7.914072 56.034984 8.47474 53.008956 C 8.976389 50.297317 9.615746 47.615155 10.392811 44.972292 C 11.101021 42.584873 11.966612 40.246576 12.989584 37.967229 C 13.943701 35.864728 15.065036 33.840824 16.353586 31.924995 C 17.592955 30.087764 19.009377 28.378252 20.573343 26.80629 C 22.147143 25.244151 23.868489 23.829383 25.707871 22.591462 C 27.625943 21.304417 29.652213 20.184394 31.767009 19.241215 C 34.039187 18.219439 36.390053 17.354858 38.7901 16.6573 C 41.436057 15.881143 44.121356 15.242533 46.836162 14.741469 C 49.865733 14.181458 52.924808 13.729518 55.983886 13.395476 C 59.426578 13.022134 62.879108 12.737216 66.331638 12.540721 C 70.20712 12.31475 74.08261 12.167379 77.9581 12.088781 C 82.286049 11.990533 86.614006 11.941409 90.941963 11.951234 L 165.06803 11.951234 Z M 165.077876 15.959741 C 169.376317 15.949916 173.674759 15.99904 177.973216 16.087463 C 181.799522 16.175886 185.625827 16.323257 189.452133 16.539402 C 192.835809 16.735898 196.219486 17.010992 199.583486 17.384332 C 202.554026 17.698726 205.514751 18.131016 208.445953 18.681203 C 211.023049 19.152792 213.580483 19.761928 216.098564 20.498786 C 218.321569 21.147221 220.495374 21.952852 222.600334 22.896029 C 224.508571 23.750785 226.338116 24.762737 228.069293 25.922059 C 229.692286 27.012609 231.207063 28.260355 232.59398 29.645648 C 233.980897 31.030941 235.230091 32.543956 236.331763 34.165043 C 237.492434 35.894202 238.505568 37.711787 239.361333 39.607968 C 240.305606 41.720292 241.112187 43.891565 241.761369 46.102139 C 242.508934 48.617282 243.108947 51.161898 243.590914 53.735987 C 244.131912 56.663768 244.564709 59.6112 244.889308 62.578282 C 245.263091 65.938355 245.538505 69.308252 245.735227 72.687976 C 245.951626 76.509812 246.10901 80.321821 246.187687 84.143656 C 246.276225 88.437084 246.325394 92.720685 246.325394 97.014106 C 246.325394 97.014106 246.325394 97.014106 246.325394 97.014106 L 246.325394 155.225886 C 246.325394 155.225886 246.325394 155.225886 246.325394 155.225886 C 246.325394 159.519306 246.276225 163.802907 246.187687 168.096328 C 246.10901 171.918164 245.951626 175.739999 245.735227 179.552015 C 245.538505 182.931739 245.263091 186.301629 244.889308 189.671533 C 244.564709 192.628784 244.131912 195.576216 243.590914 198.503994 C 243.108947 201.078094 242.508934 203.622706 241.761369 206.137845 C 241.112187 208.358253 240.305606 210.5197 239.361333 212.63202 C 238.505568 214.528209 237.492434 216.355617 236.331763 218.074952 C 235.230091 219.705853 233.980897 221.218876 232.59398 222.604172 C 231.207063 223.979634 229.692286 225.227385 228.069293 226.317935 C 226.338116 227.477251 224.508571 228.489201 222.600334 229.343951 C 220.495374 230.296956 218.321569 231.092775 216.098564 231.741198 C 213.580483 232.478056 211.023049 233.087202 208.445953 233.558787 C 205.514751 234.108972 202.554026 234.541264 199.583486 234.865483 C 196.219486 235.228995 192.835809 235.513922 189.452133 235.70058 C 185.625827 235.916726 181.799522 236.073926 177.973216 236.152526 C 173.674759 236.25078 169.376317 236.290072 165.077876 236.290072 C 165.077876 236.290072 165.077876 236.290072 165.06803 236.290072 L 90.941963 236.290072 C 90.932125 236.290072 90.932125 236.290072 90.932125 236.290072 C 86.633683 236.290072 82.335234 236.25078 78.036784 236.152526 C 74.210479 236.073926 70.384173 235.916726 66.557868 235.70058 C 63.174195 235.513922 59.790522 235.228995 56.426518 234.865483 C 53.455967 234.541264 50.495253 234.108972 47.564048 233.558787 C 44.986944 233.087202 42.429517 232.478056 39.911433 231.741198 C 37.688439 231.092775 35.514626 230.296956 33.409665 229.343951 C 31.501429 228.489201 29.671886 227.477251 27.940703 226.317935 C 26.31772 225.227385 24.802935 223.979634 23.416022 222.604172 C 22.029109 221.218876 20.779904 219.705853 19.678243 218.074952 C 18.517564 216.355617 17.504428 214.528209 16.648674 212.63202 C 15.704392 210.5197 14.897819 208.358253 14.248626 206.137845 C 13.50107 203.622706 12.901057 201.078094 12.419081 198.503994 C 11.878086 195.576216 11.445291 192.628784 11.120694 189.671533 C 10.746916 186.301629 10.471501 182.931739 10.274776 179.552015 C 10.058378 175.739999 9.900997 171.918164 9.822307 168.096328 C 9.733781 163.802907 9.6846 159.519306 9.6846 155.225886 C 9.6846 155.225886 9.6846 155.225886 9.6846 155.225886 L 9.6846 97.014106 C 9.6846 97.014106 9.6846 97.014106 9.6846 97.014106 C 9.6846 92.720685 9.733781 88.437084 9.822307 84.143656 C 9.900997 80.321821 10.058378 76.509812 10.274776 72.687976 C 10.471501 69.308252 10.746916 65.938355 11.120694 62.578282 C 11.445291 59.6112 11.878086 56.663768 12.419081 53.735987 C 12.901057 51.161898 13.50107 48.617282 14.248626 46.102139 C 14.897819 43.891565 15.704392 41.720292 16.648674 39.607968 C 17.504428 37.711787 18.517564 35.894202 19.678243 34.165043 C 20.779904 32.543956 22.029109 31.030941 23.416022 29.645648 C 24.802935 28.260355 26.31772 27.012609 27.940703 25.922059 C 29.671886 24.762737 31.501429 23.750785 33.409665 22.896029 C 35.514626 21.952852 37.688439 21.147221 39.911433 20.498786 C 42.429517 19.761928 44.986944 19.152792 47.564048 18.681203 C 50.495253 18.131016 53.455967 17.698726 56.426518 17.384332 C 59.790522 17.010992 63.174195 16.735898 66.557868 16.539402 C 70.384173 16.323257 74.210479 16.175886 78.036784 16.087463 C 82.335234 15.99904 86.633683 15.949916 90.932125 15.959741 C 90.932125 15.959741 90.932125 15.959741 90.941963 15.959741 L 165.06803 15.959741 C 165.077876 15.959741 165.077876 15.959741 165.077876 15.959741 Z"/>
 </g>
 <g>
  <defs>
   <filter id="dbGeM8BtvpZUStMXcZkknPxp8ZvGS8Y9" width="400%" height="400%" x="-200%" y="-200%" color-interpolation-filters="sRGB" filterUnits="objectBoundingBox">
    <feGaussianBlur xmlns="http://www.w3.org/2000/svg" stdDeviation="4.294"/>
   </filter>
  </defs>
  <g opacity=".4" filter="url(#dbGeM8BtvpZUStMXcZkknPxp8ZvGS8Y9)">
   <path d="M 118.857636 64.18838 C 106.135265 64.165035 92.150403 66.539337 78.598432 70.447296 C 74.73589 71.561131 68.814907 73.541428 68.526735 73.81574 C 68.376619 73.958636 68.616692 74.057433 69.433411 74.188999 C 71.540765 74.528483 74.639375 75.485744 76.963117 76.515032 C 85.429489 80.265155 93.349462 88.009262 98.704005 98.575439 C 99.688929 100.519018 100.445848 102.196675 100.445848 102.435767 C 100.445848 102.505173 99.831187 102.647561 98.823206 102.811844 C 88.589585 104.479868 78.880635 108.986622 69.984383 118.645981 C 66.257321 122.692733 62.304764 128.021984 59.210339 133.172384 C 57.119444 136.652489 55.239144 140.291806 55.53215 140.291806 C 55.551918 140.291806 56.543681 140.054203 57.736039 139.763786 C 70.452179 136.666452 82.064953 136.078755 90.225618 138.11958 C 93.665195 138.979747 96.590225 139.561465 98.653677 141.097889 C 99.539108 141.757167 100.445848 142.589944 100.445848 142.743801 C 92.252984 149.725238 87.362671 158.105206 83.921028 167.340556 C 80.887986 176.19489 79.577955 185.097295 79.668233 194.228426 C 84.901449 190.21338 93.170392 181.949928 99.505835 179.624173 C 106.970676 176.965216 113.619908 176.093889 122.823803 175.61845 C 125.383803 175.486212 134.905616 175.520238 135.006303 175.750301 C 161.173343 175.555907 173.199081 166.820419 184.592124 154.224781 C 192.492273 146.43699 196.618509 135.371005 199.246242 124.84739 C 200.069367 121.457668 200.418373 119.109424 200.487445 116.49505 C 200.569224 113.399108 200.260958 111.650822 199.283521 109.666214 C 198.818367 108.721831 198.62362 108.441318 198.003342 107.823737 C 197.520595 107.343117 197.034426 106.971535 196.574255 106.731384 C 195.820236 106.337908 194.608477 105.985427 194.009736 105.985427 C 193.663868 105.985427 193.620948 105.953527 193.426598 105.553719 L 193.216979 105.122012 L 193.568696 104.367166 C 195.3273 100.594011 195.057208 95.38536 195.575764 89.377397 C 195.718636 87.722074 195.811145 84.911767 195.736036 84.511369 C 195.657882 84.09476 195.708969 84.11012 193.722113 83.906164 C 188.984701 83.419898 184.69399 83.541479 178.659719 84.255778 L 176.903874 84.463488 L 175.995679 83.66058 C 171.176256 79.399789 165.294354 76.111829 159.259871 73.196347 C 150.473889 68.95152 141.009945 65.987529 130.137808 64.79188 C 126.528437 64.394945 122.752232 64.195528 118.857636 64.18838 Z"/>
  </g>
  <path fill="#2f5fdd" d="M 118.857636 61.771745 C 106.135265 61.74841 92.150403 64.122702 78.598432 68.030661 C 74.73589 69.144495 68.814907 71.124792 68.526735 71.399105 C 68.376619 71.541996 68.616692 71.640798 69.433411 71.772364 C 71.540765 72.111849 74.639375 73.069109 76.963117 74.098397 C 85.429489 77.848519 93.349462 85.592627 98.704005 96.158804 C 99.688929 98.102382 100.445848 99.78004 100.445848 100.019132 C 100.445848 100.088538 99.831187 100.230926 98.823206 100.395209 C 88.589585 102.063233 78.880635 106.569987 69.984383 116.229345 C 66.257321 120.276098 62.304764 125.605349 59.210339 130.755749 C 57.119444 134.235854 55.239144 137.875171 55.53215 137.875171 C 55.551918 137.875171 56.543681 137.637567 57.736039 137.347151 C 70.452179 134.249817 82.064953 133.66212 90.225618 135.702945 C 93.665195 136.563112 96.590225 137.14483 98.653677 138.681254 C 99.539108 139.340532 100.445848 140.173309 100.445848 140.327166 C 92.252984 147.308603 87.362671 155.688571 83.921028 164.923921 C 80.887986 173.778255 79.577955 182.68066 79.668233 191.811791 C 84.901449 187.796745 93.170392 179.533293 99.505835 177.207537 C 106.970676 174.548581 113.619908 173.677254 122.823803 173.201815 C 125.383803 173.069576 134.905616 173.103603 135.006303 173.333666 C 161.173343 173.139272 173.199081 164.403784 184.592124 151.808146 C 192.492273 144.020355 196.618509 132.95437 199.246242 122.430755 C 200.069367 119.041033 200.418373 116.692788 200.487445 114.078414 C 200.569224 110.982473 200.260958 109.234187 199.283521 107.249579 C 198.818367 106.305196 198.62362 106.024683 198.003342 105.407102 C 197.520595 104.926482 197.034426 104.5549 196.574255 104.314749 C 195.820236 103.921273 194.608477 103.568792 194.009736 103.568792 C 193.663868 103.568792 193.620948 103.536892 193.426598 103.137084 L 193.216979 102.705376 L 193.568696 101.950531 C 195.3273 98.177375 195.057208 92.968724 195.575764 86.960761 C 195.718636 85.305439 195.811145 82.495131 195.736036 82.094734 C 195.657882 81.678125 195.708969 81.693485 193.722113 81.489528 C 188.984701 81.003263 184.69399 81.124844 178.659719 81.839143 L 176.903874 82.046853 L 175.995679 81.243945 C 171.176256 76.983154 165.294354 73.695194 159.259871 70.779712 C 150.473889 66.534885 141.009945 63.570894 130.137808 62.375245 C 126.528437 61.978309 122.752232 61.778893 118.857636 61.771745 Z"/>
  <path fill="#ffffff" d="M 151.990637 100.555953 C 151.393598 100.517771 150.800198 100.532754 150.210524 100.60332 C 140.385119 101.777886 135.381036 108.919971 133.339927 119.44957 C 132.540272 126.371784 133.274871 134.627474 135.22118 140.372618 C 135.403636 140.910822 135.47976 141.273796 135.423453 141.330104 C 135.367145 141.386411 135.02698 141.36587 134.526654 141.282738 C 134.222545 141.232182 133.455422 141.22933 132.834217 141.208547 L 132.834217 148.935849 L 188.071595 148.935849 L 192.265646 143.224659 L 192.771361 140.183638 C 196.067564 129.953595 195.866312 114.809732 193.081512 111.036866 C 192.915441 110.811878 192.605483 110.538039 192.393742 110.430015 C 190.625408 109.527876 188.148985 111.711934 184.996842 116.943601 C 179.068097 129.122626 177.581856 133.332124 174.565664 138.086612 C 173.834559 138.879757 173.427226 138.983802 172.724864 138.538378 C 170.865143 137.358978 169.788493 133.221104 169.205098 123.468125 C 169.013459 120.264769 168.829843 120.320979 168.476874 118.559335 C 167.573357 114.049879 165.963593 110.454617 163.466938 107.372957 C 160.439769 103.636463 156.169894 100.822953 151.990618 100.555939 L 151.990637 100.555953 Z"/>
  <path fill="#fec589" d="M 119.76196 81.129902 L 119.611356 81.601252 C 119.339001 82.45385 118.852368 84.559257 118.695934 85.561329 C 118.428316 87.275574 118.334406 88.553194 118.334406 90.481688 C 118.334406 93.820649 118.666886 96.05166 119.604251 99.003348 C 119.981101 100.189993 120.101116 100.462981 120.246375 100.462981 C 120.296061 100.462981 120.736836 100.13601 121.225784 99.736463 C 125.956487 95.870398 131.863246 92.498943 137.232908 90.599939 C 137.452339 90.52234 137.647313 90.41596 137.666114 90.363422 C 137.721069 90.210111 136.125645 88.404285 135.076569 87.432445 C 133.18098 85.676441 131.427696 84.51924 128.970278 83.401899 C 128.083092 82.998514 126.948917 82.536014 126.449872 82.374266 C 124.586178 81.770187 122.332878 81.311903 120.636009 81.191768 L 119.76196 81.129902 Z"/>
  <path fill="#fcb9a4" d="M 189.688604 149.008174 C 188.325849 149.017357 186.728444 149.649883 185.694245 150.607358 C 185.015059 151.236177 184.700519 151.776899 184.687276 152.338795 C 184.65876 153.543266 186.096856 153.990686 188.20957 153.434686 C 189.664549 153.051795 191.064047 152.074879 191.547567 151.104596 C 192.15408 149.887477 191.559167 149.10511 189.957658 149.014607 C 189.869112 149.009291 189.779455 149.007841 189.68859 149.007841 L 189.688604 149.008174 Z"/>
  <path fill="#fcb9a4" d="M 189.812346 149.063617 C 191.4124 149.076183 192.084239 149.884224 191.499316 151.092483 C 191.085299 151.94775 189.62177 152.972621 188.21392 153.393251 C 187.591443 153.579235 186.354759 153.668747 185.937373 153.558065 C 185.16243 153.352554 184.726445 152.90743 184.726445 152.321594 C 184.726445 151.501562 185.792379 150.36903 187.171007 149.724339 C 188.246931 149.221205 188.905711 149.056459 189.812346 149.063631 L 189.812346 149.063617 Z"/>
  <path fill="#fcb9a4" d="M 132.945077 152.144856 C 134.326798 152.152105 134.984394 152.583571 136.063789 154.19076 C 137.831103 156.822224 139.66181 158.574304 142.053337 159.923183 C 143.954238 160.995323 146.131399 161.631855 148.258212 161.737302 C 148.96732 161.772585 149.675651 161.869975 150.086522 161.988922 C 150.668718 162.157507 150.837158 162.262775 151.360645 162.786243 C 151.871367 163.296965 151.994828 163.490305 152.167052 164.047876 C 152.278893 164.410033 152.370484 164.871673 152.370484 165.073573 C 152.370484 165.275459 152.278942 165.736901 152.167052 166.099073 C 151.994939 166.656266 151.871255 166.8501 151.362351 167.359009 C 150.853441 167.867914 150.659608 167.991801 150.102414 168.163894 C 149.476423 168.357225 148.407541 168.414209 147.478296 168.30372 C 145.189013 168.031511 144.36711 167.86022 142.634586 167.294674 C 139.349625 166.222326 136.466893 164.439429 133.904172 161.895263 C 132.183219 160.186755 130.206609 157.530182 129.839803 156.432653 C 129.316388 154.866504 130.022935 153.196933 131.521293 152.459294 C 132.0933 152.177707 132.257864 152.141216 132.945077 152.144793 L 132.945077 152.144856 Z"/>
  <path fill="#fcb9a4" d="M 134.348809 174.162558 C 134.396658 174.166424 134.456011 174.169808 134.497142 174.173674 C 134.958864 174.217174 135.521104 174.257096 135.910337 174.275656 C 135.673458 174.26164 135.374018 174.237957 135.006303 174.20625 C 134.827133 174.190784 134.598085 174.176767 134.348809 174.162751 L 134.348809 174.162558 Z"/>
  <defs>
   <filter id="96HFvmNjtmslLwkQU54nNKMyX92BbQod" width="400%" height="400%" x="-200%" y="-200%" color-interpolation-filters="sRGB" filterUnits="objectBoundingBox">
    <feGaussianBlur xmlns="http://www.w3.org/2000/svg" stdDeviation="4.294"/>
   </filter>
  </defs>
  <g opacity=".4" filter="url(#96HFvmNjtmslLwkQU54nNKMyX92BbQod)">
   <path d="M 125.332116 142.306366 C 121.626868 143.727256 119.298174 146.544806 118.547156 150.515541 C 118.311583 151.760978 118.261413 154.340398 118.448268 155.60004 C 119.507619 162.7421 124.328637 169.560554 131.419267 174.092417 C 134.961339 176.524877 137.111608 177.178156 141.069341 178.528262 C 144.963956 179.662525 149.100743 180.208747 153.707492 180.211927 C 158.225343 180.215069 161.789508 179.765913 165.726381 178.697499 C 174.436055 176.333755 181.759914 171.0878 186.014101 164.16576 C 189.090318 157.974181 192.475806 153.653551 189.950031 149.855524 C 185.870466 143.721065 174.723504 147.574945 170.405736 149.446822 C 166.509409 151.141048 165.095291 150.922478 163.052949 151.212319 C 158.454875 151.864835 155.960956 150.896659 147.337527 146.566208 C 140.623457 143.294644 132.500445 139.729262 125.332145 142.306391 L 125.332116 142.306366 Z"/>
  </g>
  <path fill="#fec589" d="M 125.332116 139.889731 C 121.626868 141.310621 119.298174 144.128171 118.547156 148.098906 C 118.311583 149.344343 118.261413 151.923762 118.448268 153.183404 C 119.507619 160.325465 124.328637 167.143919 131.419267 171.675782 C 134.961339 174.108241 137.111608 174.761521 141.069341 176.111627 C 144.963956 177.245889 149.100743 177.792112 153.707492 177.795292 C 158.225343 177.798434 161.789508 177.349278 165.726381 176.280864 C 174.436055 173.917119 181.759914 168.671165 186.014101 161.749124 C 189.090318 155.557546 192.475806 151.236916 189.950031 147.438889 C 185.870466 141.304429 174.723504 145.15831 170.405736 147.030187 C 166.509409 148.724413 165.095291 148.505843 163.052949 148.795684 C 158.454875 149.4482 155.960956 148.480023 147.337527 144.149573 C 140.623457 140.878009 132.500445 137.312627 125.332145 139.889755 L 125.332116 139.889731 Z"/>
  <g opacity=".1">
   <path d="M 195.123933 125.529698 C 194.941647 130.457488 194.192427 135.766485 192.768656 140.185269 L 192.268338 143.224941 L 189.540184 146.934856 C 185.181188 141.562864 174.592225 145.214115 170.405342 147.02925 C 166.509015 148.723475 165.093938 148.504676 163.051596 148.794527 C 162.038518 148.938317 161.144779 148.9685 160.247922 148.936117 L 159.775924 148.936117 C 156.760971 148.715232 153.737173 147.365549 147.334028 144.150061 C 143.529427 142.296197 139.275325 140.386454 134.995972 139.515029 C 133.909554 135.983455 133.283032 131.673855 133.131576 127.328016 C 133.096197 132.467491 133.70732 137.742696 134.995972 141.931665 C 139.275325 142.803089 143.529427 144.712832 147.334028 146.566696 C 153.737173 149.782184 156.760971 151.131867 159.775924 151.352767 L 160.247922 151.352767 C 161.144779 151.38515 162.038518 151.354947 163.051596 151.211176 C 165.093938 150.921325 166.509015 151.140127 170.405342 149.445899 C 174.592225 147.63076 185.181188 143.979509 189.540184 149.351506 L 192.268338 145.641591 L 192.768656 142.601918 C 194.433677 137.434391 195.132669 131.097995 195.123933 125.529713 L 195.123933 125.529698 Z"/>
  </g>
  <defs>
   <filter id="YrAZ1xy6Y4TYnZFvfyuMyFz2C4JyYMtg" width="400%" height="400%" x="-200%" y="-200%" color-interpolation-filters="sRGB" filterUnits="objectBoundingBox">
    <feGaussianBlur xmlns="http://www.w3.org/2000/svg" stdDeviation="4.294"/>
   </filter>
  </defs>
  <g opacity=".4" filter="url(#YrAZ1xy6Y4TYnZFvfyuMyFz2C4JyYMtg)">
   <path d="M 184.838379 160.690189 C 183.355865 160.234025 182.595461 159.65569 181.895719 158.452167 C 180.252765 155.626308 181.448207 151.058457 184.870911 147.084078 C 186.144904 145.604735 187.333893 144.587356 188.954522 143.58987 C 192.658939 141.309804 196.36843 140.904834 198.588356 142.538146 C 199.440413 143.165045 199.862749 143.774226 200.217164 144.887502 C 200.505758 145.794054 200.525526 145.954606 200.482993 147.046384 C 200.399136 149.199277 199.759946 150.994682 198.250897 153.315846 C 196.395806 156.169249 193.504698 158.699582 190.731218 159.897151 C 188.648286 160.796545 186.238123 161.120891 184.838369 160.690189 L 184.838379 160.690189 Z"/>
  </g>
  <path fill="#5d5d5d" d="M 184.838379 158.273554 C 183.355865 157.817389 182.595461 157.239055 181.895719 156.035532 C 180.252765 153.209673 181.448207 148.641822 184.870911 144.667443 C 186.144904 143.1881 187.333893 142.170721 188.954522 141.173235 C 192.658939 138.893169 196.36843 138.488199 198.588356 140.121511 C 199.440413 140.74841 199.862749 141.357591 200.217164 142.470867 C 200.505758 143.377419 200.525526 143.537971 200.482993 144.629748 C 200.399136 146.782642 199.759946 148.578047 198.250897 150.899211 C 196.395806 153.752614 193.504698 156.282947 190.731218 157.480515 C 188.648286 158.37991 186.238123 158.704256 184.838369 158.273554 L 184.838379 158.273554 Z"/>
  <path fill="#3b3b3b" d="M 142.623769 129.079471 C 143.357926 123.747989 147.147064 119.590637 151.080064 119.801425 C 155.013064 120.012214 157.610119 124.511834 156.875962 129.843315 C 156.141806 135.174797 152.352667 139.332149 148.419668 139.12136 C 144.486668 138.910572 141.889613 134.410952 142.623769 129.079471 Z"/>
  <g opacity=".5">
   <path d="M 134.636747 152.822332 C 135.579234 154.199815 136.642554 155.528964 137.802539 156.737281 C 138.72086 157.655603 139.760013 158.428926 140.895832 159.057251 C 142.152482 159.685576 143.481632 160.144737 144.88328 160.386401 C 146.864921 160.748896 148.894894 160.91806 150.900702 160.869728 C 151.867356 160.869728 152.785677 161.232223 153.486501 161.908881 C 154.163159 162.585539 154.573987 163.50386 154.573987 164.446348 C 154.598153 165.413002 154.235658 166.331323 153.559 167.032147 C 152.882342 167.708805 151.964021 168.119633 151.021533 168.119633 C 148.532399 168.167966 146.043265 167.974635 143.602463 167.539641 C 141.475824 167.152979 139.445851 166.452155 137.512543 165.461334 C 135.700066 164.49468 134.056754 163.262196 132.63094 161.788049 C 131.132626 160.265569 129.803476 158.622257 128.619325 156.858113 C 128.087665 156.060624 127.894335 155.09397 128.063499 154.151482 C 128.25683 153.208994 128.812656 152.363172 129.610146 151.831512 C 130.407635 151.299852 131.374289 151.106521 132.316777 151.275686 C 133.259265 151.469017 134.105087 152.024843 134.636747 152.822332 Z"/>
  </g>
  <path fill="#3b3b3b" d="M 183.092679 120.976062 C 179.085637 129.431027 177.134383 134.048869 174.577815 138.081305 C 175.461432 138.698435 176.429431 139.05219 177.419246 139.119704 C 179.455441 139.670218 181.566301 138.958544 183.194059 137.172733 C 184.821818 135.386922 185.802681 132.706672 185.877469 129.840202 C 186.145788 126.409824 185.087839 123.042315 183.092679 120.976062 Z"/>
  <g opacity=".1">
   <path fill="#ffffff" d="M 118.858325 61.773218 C 106.135954 61.749883 92.148776 64.123966 78.596806 68.031925 C 74.734263 69.145759 68.817236 71.122965 68.529065 71.397279 C 68.378948 71.540169 68.618585 71.638591 69.435303 71.770158 C 70.254998 71.902207 71.23743 72.14881 72.253137 72.435677 C 74.24649 71.769456 76.675462 71.002614 78.596806 70.44856 C 92.148776 66.540601 106.135954 64.166518 118.858325 64.189853 C 122.752921 64.197001 126.529733 64.397076 130.139103 64.794012 C 141.01124 65.98966 150.475463 68.950768 159.261444 73.195595 C 165.295927 76.111077 171.174388 79.399023 175.993811 83.659814 L 176.904768 84.462212 L 178.660606 84.254534 C 184.694877 83.540234 188.984682 83.418987 193.722094 83.905255 C 195.563945 84.094325 195.652988 84.107646 195.71865 84.438614 C 195.762242 83.314728 195.78003 82.319336 195.737531 82.092779 C 195.659378 81.676168 195.70895 81.692574 193.722094 81.48862 C 188.984682 81.002352 184.694877 81.123599 178.660606 81.837898 L 176.904768 82.045577 L 175.993811 81.243179 C 171.174388 76.982388 165.295927 73.694441 159.261444 70.77896 C 150.475463 66.534133 141.01124 63.573025 130.139103 62.377377 C 126.529733 61.980441 122.752921 61.780366 118.858325 61.773218 Z M 99.506362 100.236421 C 99.237787 100.29408 99.247021 100.327625 98.821964 100.3969 C 88.588343 102.064925 78.879073 106.568392 69.982822 116.22775 C 66.25576 120.274503 62.306228 125.605479 59.211803 130.75588 C 57.120908 134.235984 55.237204 137.873627 55.530211 137.873627 C 55.541003 137.873627 56.269097 137.697282 56.733808 137.585706 C 57.412311 136.296378 58.263739 134.750483 59.211803 133.172515 C 62.306228 128.022114 66.25576 122.691138 69.982822 118.644386 C 78.879073 108.985025 88.588343 104.48156 98.821964 102.813535 C 99.829945 102.649253 100.445641 102.505342 100.445641 102.435936 C 100.445641 102.274183 100.035467 101.351925 99.506362 100.236421 Z M 193.887295 103.545135 C 193.783928 103.820332 193.692988 104.104804 193.571054 104.366412 L 193.217056 105.12161 L 193.424737 105.555851 C 193.619087 105.955659 193.664145 105.985369 194.010014 105.985369 C 194.608755 105.985369 195.81895 106.337652 196.57297 106.731128 C 197.03314 106.971279 197.52038 107.340826 198.003127 107.821446 C 198.623405 108.439027 198.817091 108.722581 199.282245 109.666963 C 200.012697 111.150088 200.372169 112.50198 200.471681 114.382234 C 200.475251 114.280733 200.483141 114.18239 200.485843 114.080154 C 200.567622 110.984213 200.259682 109.234936 199.282245 107.250328 C 198.817091 106.305945 198.623405 106.022392 198.003127 105.404811 C 197.52038 104.924191 197.03314 104.554644 196.57297 104.314493 C 195.81895 103.921016 194.608755 103.568734 194.010014 103.568734 C 193.949219 103.568734 193.931839 103.54893 193.887295 103.545135 Z M 99.157083 141.512739 C 91.755309 148.253208 87.172692 156.198138 83.920955 164.923892 C 80.887914 173.778226 79.577964 182.682548 79.668243 191.813678 C 79.675142 191.808386 79.684932 191.800106 79.691843 191.794799 C 79.839215 183.512964 81.158122 175.406042 83.920955 167.340527 C 87.362599 158.105177 92.252776 149.726094 100.445641 142.744657 C 100.445641 142.622317 99.837112 142.065044 99.157083 141.512739 Z"/>
  </g>
  <g opacity=".1">
   <path fill="#ffffff" d="M 119.759843 81.129899 L 119.613523 81.601897 C 119.341168 82.454498 118.854279 84.559897 118.697846 85.561969 C 118.430228 87.276214 118.334406 88.551707 118.334406 90.480201 C 118.334406 90.937376 118.359 91.334272 118.372165 91.754597 C 118.408038 90.444148 118.490419 89.307288 118.697846 87.978605 C 118.854279 86.976532 119.341168 84.871133 119.613523 84.018532 L 119.759843 83.546534 L 120.637761 83.607895 C 122.33463 83.728031 124.584375 84.188533 126.44807 84.792612 C 126.947114 84.95436 128.08136 85.413465 128.968545 85.81685 C 131.425964 86.934191 133.180622 88.091718 135.076211 89.847722 C 135.422346 90.168373 135.818104 90.605359 136.204289 91.01828 C 136.544544 90.887968 136.896788 90.717191 137.233247 90.598201 C 137.45268 90.520603 137.648686 90.41474 137.667487 90.3622 C 137.722441 90.208891 136.125287 88.402927 135.076211 87.431087 C 133.180622 85.675083 131.425964 84.517555 128.968545 83.400214 C 128.08136 82.99683 126.947114 82.537725 126.44807 82.375977 C 124.584375 81.771898 122.33463 81.311396 120.637761 81.19126 L 119.759843 81.129899 Z"/>
  </g>
 </g>
</svg>
