<svg xmlns="http://www.w3.org/2000/svg" style="isolation:isolate" width="256" height="256" viewBox="0 0 256 256">
 <g filter="url(#T1S9Urj9y3iD3tVgcIM8Up8bHmUqxf2L)">
  <linearGradient id="_lgradient_1" x1=".5" x2=".5" y1="-.036" y2="1.036" gradientTransform="matrix(244.648,0,0,228.339,6.343,13.28)" gradientUnits="userSpaceOnUse">
   <stop offset="0%" style="stop-color:#da1636"/>
   <stop offset="100%" style="stop-color:#f22c42"/>
  </linearGradient>
  <path fill="url(#_lgradient_1)" d="M 166.351 13.28 C 240.407 13.28 250.991 23.837 250.991 97.824 L 250.991 157.075 C 250.991 231.061 240.407 241.619 166.351 241.619 L 90.982 241.619 C 16.926 241.619 6.343 231.061 6.343 157.075 L 6.343 97.824 C 6.343 23.837 16.926 13.28 90.982 13.28 L 166.351 13.28 L 166.351 13.28 Z"/>
 </g>
 <defs>
  <filter id="T1S9Urj9y3iD3tVgcIM8Up8bHmUqxf2L" width="400%" height="400%" x="-200%" y="-200%" color-interpolation-filters="sRGB" filterUnits="objectBoundingBox">
   <feGaussianBlur xmlns="http://www.w3.org/2000/svg" in="SourceGraphic" stdDeviation="4.294"/>
   <feOffset xmlns="http://www.w3.org/2000/svg" dx="0" dy="4" result="pf_100_offsetBlur"/>
   <feFlood xmlns="http://www.w3.org/2000/svg" flood-opacity=".4"/>
   <feComposite xmlns="http://www.w3.org/2000/svg" in2="pf_100_offsetBlur" operator="in" result="pf_100_dropShadow"/>
   <feBlend xmlns="http://www.w3.org/2000/svg" in="SourceGraphic" in2="pf_100_dropShadow" mode="normal"/>
  </filter>
 </defs>
 <path fill="#2d3234" d="M 118.51 199.23 C 114.295 197.726 110.713 193.785 103.638 182.869 C 101.673 179.837 100.773 178.891 99.954 179 C 98.947 179.133 98.86 179.611 98.718 185.78 L 98.566 192.418 L 101.85 192.418 L 101.85 199.461 L 83.919 199.461 L 84.08 196.075 C 84.235 192.829 84.304 192.681 85.732 192.517 L 87.222 192.346 L 87.222 159.245 L 85.461 161.857 C 82.235 166.642 76.278 168.296 68.89 166.458 L 66 165.739 L 66.377 162.418 C 66.585 160.591 66.84 159.004 66.944 158.892 C 67.048 158.779 68.213 158.958 69.532 159.291 C 72.78 160.108 75.025 159.316 75.804 157.08 C 76.174 156.021 76.386 148.729 76.386 137.073 L 76.386 118.732 L 73.135 118.732 L 73.135 111.689 L 91.014 111.689 L 91.014 115.174 C 91.014 118.574 90.978 118.664 89.524 118.832 L 88.034 119.003 L 87.877 124.102 C 87.791 126.906 87.913 129.389 88.148 129.62 C 88.384 129.851 91.99 128.283 96.161 126.135 L 103.747 122.23 L 103.737 118.178 C 103.732 115.95 103.61 111.811 103.466 108.98 L 103.205 103.833 L 106.92 103.92 L 110.636 104.007 L 110.222 102.294 C 109.692 100.097 109.901 94.422 110.558 93.195 C 110.874 92.604 110.87 92.13 110.548 91.93 C 110.261 91.753 110.621 90.742 111.359 89.655 C 113.032 87.189 113.023 86.766 111.296 86.766 C 107.828 86.766 106.751 84.265 109.064 81.577 C 110.155 80.308 110.711 80.123 113.365 80.147 C 116.882 80.179 116.351 81.223 118.125 70.782 C 118.733 67.207 119.38 62.369 119.564 60.032 C 119.86 56.267 120.043 55.717 121.165 55.206 C 123.714 54.044 138.672 58.008 146.371 61.885 C 151.042 64.238 154.406 66.611 154.406 67.554 C 154.406 67.985 152.842 71.569 150.931 75.52 C 147.065 83.513 144.465 90.37 144.885 91.465 C 145.037 91.86 145.626 92.184 146.195 92.184 C 146.764 92.184 147.523 92.537 147.881 92.969 C 148.962 94.271 152.862 95.9 156.102 96.403 C 159.338 96.904 160.024 97.466 164.64 103.382 C 166.345 105.568 166.455 105.945 166.174 108.66 C 166.008 110.268 166.004 112.561 166.164 113.755 C 166.424 115.697 166.643 115.962 168.232 116.26 C 170.271 116.643 172.827 118.467 172.827 119.539 C 172.827 119.94 174.868 125.469 177.363 131.826 C 183.857 148.372 186.831 157.225 187.241 161.23 C 187.465 163.414 187.877 164.831 188.34 165.009 C 189.465 165.441 189.407 175.622 188.28 175.622 C 186.922 175.622 185.289 179.605 185.289 182.914 L 185.289 185.916 L 177.703 185.916 C 172.456 185.916 170.118 185.729 170.118 185.308 C 170.118 184.884 169.913 184.869 169.441 185.259 C 167.224 187.091 162.252 186.435 159.258 183.916 L 157.636 182.552 L 155.885 183.885 C 154.922 184.618 153.586 185.391 152.916 185.603 C 151.818 185.95 151.697 186.335 151.697 189.474 L 151.697 192.959 L 138.151 192.959 L 138.151 189.167 C 138.151 185.735 138.255 185.374 139.235 185.374 C 140.039 185.374 140.319 185.013 140.319 183.974 C 140.319 182.395 140.427 182.377 136.906 184.568 L 134.307 186.187 L 134.585 189.167 C 134.737 190.806 135.011 192.878 135.192 193.772 C 135.499 195.28 135.315 195.521 132.638 197.116 C 127.794 200.002 122.777 200.753 118.51 199.23 L 118.51 199.23 Z M 127.694 195.938 C 129.202 195.49 130.77 194.713 131.178 194.211 C 131.84 193.398 131.802 193.35 130.837 193.77 C 130.241 194.03 128.534 194.329 127.044 194.435 C 123.543 194.684 121.278 193.32 117.628 188.764 C 114.476 184.831 107.805 174.933 107.822 174.216 C 107.828 173.946 108.782 173.055 109.941 172.235 C 111.202 171.343 112.611 169.614 113.451 167.93 C 115.992 162.831 114.991 157.842 110.882 155.12 C 108.736 153.698 108.56 153.677 98.099 153.527 C 89.093 153.398 87.697 153.483 88.847 154.085 L 90.202 154.794 L 90.202 194.824 L 88.847 195.509 C 87.677 196.101 88.269 196.185 93.182 196.129 C 96.31 196.092 98.309 195.955 97.622 195.824 C 95.709 195.458 95.349 193.624 95.349 184.255 L 95.349 175.622 L 102.738 175.622 L 107.94 183.342 C 116.602 196.198 119.848 198.268 127.694 195.938 L 127.694 195.938 Z M 95.349 164.515 L 95.349 154.491 L 98.464 154.494 C 102.997 154.498 105.276 155.308 107.413 157.674 C 109.521 160.007 110.835 164.294 110.304 167.103 C 109.364 172.078 105.756 174.507 99.277 174.526 L 95.349 174.539 L 95.349 164.515 L 95.349 164.515 Z M 130.743 189.351 C 130.94 189.154 130.554 188.721 129.886 188.39 C 128.933 187.917 128.634 187.244 128.507 185.278 L 128.344 182.77 L 130.967 182.853 C 135.279 182.989 139.121 179.439 139.64 174.838 C 140.168 170.148 138.52 167.495 135.079 167.495 C 133.427 167.495 132.691 167.91 130.744 169.942 L 128.399 172.39 L 128.399 169.942 C 128.399 167.162 127.835 166.908 124.986 168.406 L 123.252 169.317 L 124.606 169.649 L 125.961 169.98 L 126.11 178.228 C 126.262 186.602 125.907 188.625 124.284 188.625 C 123.83 188.625 123.609 188.869 123.793 189.167 C 124.162 189.764 130.171 189.923 130.743 189.351 L 130.743 189.351 Z M 130.16 181.231 C 128.549 180.436 128.4 180.149 128.411 177.857 C 128.431 173.489 131.196 169.12 133.937 169.12 C 137.763 169.12 138.623 177.367 135.158 180.831 C 133.651 182.339 132.581 182.424 130.16 181.231 L 130.16 181.231 Z M 148.446 189.203 C 148.446 188.925 147.958 188.543 147.362 188.354 C 146.476 188.073 146.278 187.534 146.278 185.4 L 146.278 182.79 L 148.937 182.831 C 153.644 182.902 157.339 178.751 157.371 173.359 C 157.391 169.844 155.844 167.821 152.971 167.604 C 151.078 167.462 150.572 167.707 148.556 169.743 L 146.278 172.043 L 146.278 169.769 C 146.278 167.282 145.999 167.134 143.201 168.145 C 141.197 168.87 140.823 169.662 142.486 169.662 C 143.526 169.662 143.569 170.023 143.569 178.597 C 143.569 186.946 143.498 187.577 142.486 188.209 C 140.663 189.348 141.25 189.709 144.924 189.709 C 146.861 189.709 148.446 189.482 148.446 189.204 L 148.446 189.203 L 148.446 189.203 Z M 147.836 181.307 C 146.015 180.318 145.644 178.816 146.376 175.401 C 147.03 172.355 149.722 169.12 151.603 169.12 C 153.432 169.12 154.947 171.62 154.947 174.638 C 154.947 177.617 153.928 180.012 152.121 181.278 C 150.649 182.309 149.691 182.315 147.836 181.307 L 147.836 181.307 Z M 169.146 181.285 C 170.251 180.562 171.43 179.457 171.766 178.828 C 172.329 177.778 172.212 177.799 170.309 179.092 C 167.605 180.929 164.791 180.97 163.124 179.195 C 161.915 177.909 160.72 174.194 161.243 173.349 C 161.392 173.109 163.815 172.912 166.628 172.912 C 169.441 172.912 171.743 172.782 171.743 172.624 C 171.743 171.546 170.019 168.563 169.116 168.08 C 167.483 167.206 164.575 167.372 163.059 168.426 C 158.654 171.489 157.705 177.333 161.03 180.915 C 163.453 183.525 165.574 183.622 169.146 181.285 L 169.146 181.285 Z M 161.466 171.693 C 161.512 169.896 164.444 167.993 166.468 168.446 C 167.276 168.627 169.034 171.112 169.034 172.072 C 169.034 172.236 167.327 172.37 165.242 172.37 C 162.559 172.37 161.454 172.172 161.466 171.693 L 161.466 171.693 Z M 122.439 182.123 C 122.439 181.825 122.082 181.581 121.645 181.581 C 120.208 181.581 119.73 179.563 119.73 173.489 C 119.73 166.836 119.605 166.651 116.317 168.435 L 114.583 169.375 L 116.091 169.556 L 117.6 169.737 L 117.446 175.252 C 117.303 180.38 117.206 180.806 116.073 181.303 C 113.94 182.239 114.745 182.664 118.646 182.664 C 120.814 182.664 122.439 182.432 122.439 182.123 L 122.439 182.123 Z M 182.037 182.123 C 182.037 181.825 181.423 181.581 180.671 181.581 C 178.592 181.581 177.94 179.65 178.712 175.775 C 179.055 174.051 179.787 172.032 180.339 171.287 C 181.643 169.525 183.865 169.445 184.107 171.151 C 184.417 173.334 185.288 172.435 185.288 169.932 C 185.288 167.89 185.12 167.494 184.249 167.494 C 182.453 167.494 181.483 168.111 180.114 170.126 L 178.787 172.08 L 178.787 169.787 C 178.787 167.158 178.283 166.969 175.112 168.408 C 173.1 169.321 173.099 169.322 174.588 169.528 L 176.078 169.733 L 176.078 174.8 C 176.078 180.322 175.815 181.581 174.665 181.581 C 174.25 181.581 173.91 181.825 173.91 182.123 C 173.91 182.436 175.626 182.665 177.974 182.665 C 180.322 182.665 182.037 182.436 182.037 182.123 L 182.037 182.123 Z M 78.272 163.423 C 80.347 162.993 83.339 160.049 83.955 157.833 C 84.281 156.658 84.508 148.042 84.51 136.747 C 84.513 118.373 84.554 117.607 85.596 116.565 L 86.68 115.481 L 81.939 115.516 C 78.484 115.542 77.536 115.686 78.441 116.049 L 79.685 116.548 L 79.525 137.305 C 79.381 156.06 79.273 158.203 78.41 159.52 C 77.088 161.536 75.213 162.655 72.478 163.06 L 70.155 163.405 L 72.322 163.734 C 74.432 164.054 75.5 163.998 78.272 163.423 L 78.272 163.423 Z M 119.724 162.896 C 120.519 161.938 120.079 160.451 119.001 160.451 C 118.581 160.451 117.934 160.817 117.563 161.264 C 117.025 161.912 117.025 162.241 117.563 162.889 C 118.411 163.911 118.881 163.913 119.724 162.896 Z M 130.347 162.535 C 130.586 162.147 130.495 162.056 130.108 162.296 C 129.667 162.569 129.482 161.875 129.482 159.941 C 129.482 157.716 129.661 157.188 130.431 157.138 C 131.334 157.078 131.334 157.063 130.431 156.827 C 129.856 156.677 129.482 156.061 129.482 155.264 C 129.482 154.541 129.239 153.949 128.941 153.949 C 128.643 153.949 128.399 154.423 128.399 155.001 C 128.399 155.579 128.195 156.179 127.946 156.332 C 127.221 156.781 128.443 163.16 129.254 163.16 C 129.643 163.16 130.134 162.879 130.347 162.535 L 130.347 162.535 Z M 134.365 162.354 C 133.574 161.401 134.046 158.995 135.298 157.607 C 136.712 156.037 137.068 156.501 137.068 159.909 C 137.068 163.105 137.093 163.159 138.558 163.117 C 139.377 163.095 139.743 162.952 139.37 162.801 C 138.975 162.642 138.693 161.551 138.693 160.179 C 138.693 158.888 138.545 157.445 138.364 156.974 C 137.948 155.89 136.326 155.865 135.442 156.93 C 134.223 158.399 133.708 157.795 133.9 155.119 C 134.052 152.996 133.933 152.535 133.275 152.707 C 132.614 152.879 132.496 153.789 132.64 157.575 C 132.771 161.011 132.629 162.351 132.098 162.688 C 131.626 162.987 132.006 163.147 133.206 163.152 C 134.762 163.158 134.934 163.041 134.365 162.355 L 134.365 162.354 L 134.365 162.354 Z M 145.33 162.406 C 145.852 162.01 146.278 161.481 146.278 161.231 C 146.278 160.981 145.986 161.068 145.628 161.426 C 144.173 162.881 141.402 161.816 141.402 159.8 C 141.402 159.006 141.854 158.825 143.84 158.825 C 146.472 158.825 146.563 158.744 145.718 157.164 C 145.354 156.486 144.638 156.142 143.686 156.19 C 142.478 156.251 142.425 156.305 143.388 156.493 C 144.033 156.618 144.696 157.073 144.861 157.503 C 145.086 158.089 144.698 158.284 143.298 158.284 C 141.762 158.284 141.493 158.118 141.763 157.335 C 142.028 156.565 141.927 156.591 141.221 157.471 C 138.687 160.634 142.164 164.809 145.33 162.406 L 145.33 162.406 Z M 97.514 149.009 C 102.719 146.084 103.39 137.734 98.617 135.266 C 93.905 132.83 88.012 136.476 87.364 142.23 C 86.655 148.52 92.015 152.1 97.514 149.009 Z M 92.431 147.4 C 89.01 144.709 88.311 139.774 90.973 137.112 C 92.818 135.266 93.908 135.149 96.205 136.55 C 98.276 137.813 99.683 140.675 99.683 143.626 C 99.683 147.852 95.664 149.943 92.431 147.4 L 92.431 147.4 Z M 109.842 148.763 C 108.538 148.056 108.352 147.633 108.352 145.37 C 108.352 140.38 112.418 134.815 114.688 136.698 C 115.323 137.226 115.447 138.597 115.304 143.488 L 115.125 149.616 L 117.834 149.587 C 120.454 149.558 120.503 149.531 119.324 148.708 C 118.208 147.929 118.105 147.431 118.105 142.812 C 118.105 140.037 117.864 137.134 117.571 136.362 C 116.496 133.534 113.787 133.891 110.491 137.296 L 108.269 139.592 L 108.446 133.225 C 108.543 129.723 108.593 126.858 108.556 126.859 C 108.52 126.859 107.301 127.391 105.847 128.042 C 103.404 129.135 103.307 129.249 104.559 129.556 C 105.914 129.887 105.914 129.888 106.075 137.448 C 106.267 146.503 106.025 148.181 104.414 148.958 C 103.433 149.432 103.971 149.545 107.268 149.557 C 111.172 149.57 111.273 149.541 109.842 148.763 L 109.842 148.763 Z M 128.194 148.726 C 126.675 147.904 126.641 147.792 126.909 144.448 C 127.223 140.546 128.685 137.69 130.884 136.688 C 133.349 135.565 133.817 136.54 133.817 142.8 C 133.817 146.367 133.587 148.544 133.167 148.965 C 132.661 149.47 133.233 149.607 135.74 149.578 C 138.386 149.549 138.754 149.44 137.792 148.974 C 136.252 148.23 136 147.102 135.991 140.919 C 135.983 135.268 135.622 134.444 133.152 134.444 C 132.061 134.444 130.924 135.141 129.197 136.868 L 126.773 139.292 L 126.773 136.868 C 126.773 135.535 126.559 134.444 126.298 134.444 C 126.036 134.444 124.878 134.859 123.724 135.366 C 121.91 136.164 121.791 136.315 122.845 136.488 C 124.018 136.679 124.064 136.9 124.064 142.272 C 124.064 147.451 123.976 147.919 122.845 148.708 C 121.69 149.513 121.84 149.558 125.69 149.565 C 129.675 149.571 129.723 149.555 128.194 148.726 L 128.194 148.726 Z M 159.038 136.297 C 157.665 131.327 156.014 127.139 154.397 124.524 C 152.419 121.327 151.823 119.284 152.857 119.249 C 153.262 119.236 154.322 118.914 155.214 118.534 L 156.835 117.843 L 153.756 114.615 C 150.388 111.084 149.529 109.407 149.529 106.361 C 149.529 105.114 149.017 103.601 148.175 102.361 C 147.43 101.265 146.82 99.882 146.82 99.288 C 146.82 98.069 146.609 97.895 144.53 97.398 C 143.135 97.065 143.069 97.133 143.365 98.612 C 143.544 99.506 143.422 100.338 143.082 100.548 C 142.146 101.127 142.381 103.399 143.63 105.848 C 144.672 107.89 144.697 108.149 143.901 108.731 C 142.69 109.617 142.748 109.734 145.195 111.353 C 146.387 112.142 147.362 113.221 147.362 113.751 C 147.362 114.28 145.78 116.776 143.846 119.296 C 141.912 121.817 140.327 124.136 140.324 124.45 C 140.314 125.499 143.796 128.304 148.095 130.709 C 150.436 132.018 153.205 134.065 154.249 135.257 C 158.804 140.454 158.895 140.534 159.346 139.729 C 159.581 139.308 159.443 137.764 159.038 136.297 L 159.038 136.297 Z M 152.403 99.91 C 151.204 99.013 150.923 99.406 151.711 100.879 C 152.222 101.835 152.452 101.928 152.828 101.332 C 153.141 100.836 152.997 100.354 152.403 99.91 L 152.403 99.91 Z M 142.999 92.861 C 143.309 91.743 143.565 90.53 143.566 90.164 C 143.571 89.169 134.51 84.984 126.3 82.189 C 122.315 80.832 118.719 79.722 118.309 79.722 C 116.665 79.722 117.713 80.769 120.177 81.587 C 123.032 82.535 130.533 86.996 137.339 91.795 C 139.723 93.475 141.844 94.86 142.054 94.872 C 142.263 94.884 142.689 93.978 142.999 92.861 Z"/>
 <g opacity=".4">
  <linearGradient id="_lgradient_2" x1=".517" x2=".517" y1="0" y2="1" gradientTransform="matrix(244.65,0,0,228.34,5.68,12.95)" gradientUnits="userSpaceOnUse">
   <stop offset="0%" style="stop-color:#ffffff"/>
   <stop offset="12.5%" stop-opacity=".098" style="stop-color:#ffffff"/>
   <stop offset="92.5%" stop-opacity=".098" style="stop-color:#000000"/>
   <stop offset="100%" stop-opacity=".498" style="stop-color:#000000"/>
  </linearGradient>
  <path fill="url(#_lgradient_2)" fill-rule="evenodd" d="M 165.06803 12.951234 C 169.395994 12.941409 173.723944 12.990533 178.051908 13.088781 C 181.927398 13.167379 185.802873 13.31475 189.678362 13.540721 C 193.1309 13.737216 196.583423 14.022134 200.026115 14.395476 C 203.085193 14.729518 206.144271 15.181458 209.173842 15.741469 C 211.888645 16.242533 214.57394 16.881143 217.219897 17.6573 C 219.619947 18.354858 221.970814 19.219439 224.242988 20.241215 C 226.357793 21.184394 228.384061 22.304417 230.302129 23.591462 C 232.141505 24.829383 233.862851 26.244151 235.436659 27.80629 C 237.000621 29.378252 238.417046 31.087764 239.656409 32.924995 C 240.944972 34.840824 242.066305 36.864728 243.020409 38.967229 C 244.043389 41.246576 244.908985 43.584873 245.617197 45.972292 C 246.394255 48.615155 247.033606 51.297317 247.535265 54.008956 C 248.095924 57.034984 248.548399 60.080665 248.882828 63.13617 C 249.256611 66.574836 249.541856 70.013506 249.738578 73.462003 C 249.964823 77.323139 250.112361 81.194101 250.200884 85.055237 C 250.289421 89.378131 250.338591 93.701032 250.32876 98.014106 L 250.32876 156.225886 C 250.338591 160.54878 250.289421 164.861854 250.200884 169.184747 C 250.112361 173.05571 249.964823 176.916853 249.738578 180.777981 C 249.541856 184.226485 249.256611 187.674975 248.882828 191.103826 C 248.548399 194.15933 248.095924 197.214835 247.535265 200.240851 C 247.033606 202.942664 246.394255 205.624837 245.617197 208.267703 C 244.908985 210.655115 244.043389 213.003235 243.020409 215.272755 C 242.066305 217.38509 240.944972 219.399156 239.656409 221.314999 C 238.417046 223.152226 237.000621 224.871561 235.436659 226.433697 C 233.862851 227.995832 232.141505 229.410601 230.302129 230.648532 C 228.384061 231.935575 226.357793 233.055598 224.242988 233.998768 C 221.970814 235.020552 219.619947 235.885137 217.219897 236.592507 C 214.57394 237.368672 211.888645 238.007276 209.173842 238.498515 C 206.144271 239.068354 203.085193 239.510465 200.026115 239.844519 C 196.583423 240.21785 193.1309 240.502777 189.678362 240.699269 C 185.802873 240.925235 181.927398 241.072615 178.051908 241.161035 C 173.723944 241.249454 169.395994 241.298581 165.06803 241.288762 L 90.941963 241.288762 C 86.614006 241.298581 82.286049 241.249454 77.9581 241.161035 C 74.08261 241.072615 70.20712 240.925235 66.331638 240.699269 C 62.879108 240.502777 59.426578 240.21785 55.983886 239.844519 C 52.924808 239.510465 49.865733 239.068354 46.836162 238.498515 C 44.121356 238.007276 41.436057 237.368672 38.7901 236.592507 C 36.390053 235.885137 34.039187 235.020552 31.767009 233.998768 C 29.652213 233.055598 27.625943 231.935575 25.707871 230.648532 C 23.868489 229.410601 22.147143 227.995832 20.573343 226.433697 C 19.009377 224.871561 17.592955 223.152226 16.353586 221.314999 C 15.065036 219.399156 13.943701 217.38509 12.989584 215.272755 C 11.966612 213.003235 11.101021 210.655115 10.392811 208.267703 C 9.615746 205.624837 8.976389 202.942664 8.47474 200.240851 C 7.914072 197.214835 7.461604 194.15933 7.127172 191.103826 C 6.753394 187.674975 6.468142 184.226485 6.271417 180.777981 C 6.045183 176.916853 5.897639 173.05571 5.809112 169.184747 C 5.720586 164.861854 5.671405 160.54878 5.681241 156.225886 L 5.681241 98.014106 C 5.671405 93.701032 5.720586 89.378131 5.809112 85.055237 C 5.897639 81.194101 6.045183 77.323139 6.271417 73.462003 C 6.468142 70.013506 6.753394 66.574836 7.127172 63.13617 C 7.461604 60.080665 7.914072 57.034984 8.47474 54.008956 C 8.976389 51.297317 9.615746 48.615155 10.392811 45.972292 C 11.101021 43.584873 11.966612 41.246576 12.989584 38.967229 C 13.943701 36.864728 15.065036 34.840824 16.353586 32.924995 C 17.592955 31.087764 19.009377 29.378252 20.573343 27.80629 C 22.147143 26.244151 23.868489 24.829383 25.707871 23.591462 C 27.625943 22.304417 29.652213 21.184394 31.767009 20.241215 C 34.039187 19.219439 36.390053 18.354858 38.7901 17.6573 C 41.436057 16.881143 44.121356 16.242533 46.836162 15.741469 C 49.865733 15.181458 52.924808 14.729518 55.983886 14.395476 C 59.426578 14.022134 62.879108 13.737216 66.331638 13.540721 C 70.20712 13.31475 74.08261 13.167379 77.9581 13.088781 C 82.286049 12.990533 86.614006 12.941409 90.941963 12.951234 L 165.06803 12.951234 Z M 165.077876 16.959741 C 169.376317 16.949916 173.674759 16.99904 177.973216 17.087463 C 181.799522 17.175886 185.625827 17.323257 189.452133 17.539402 C 192.835809 17.735898 196.219486 18.010992 199.583486 18.384332 C 202.554026 18.698726 205.514751 19.131016 208.445953 19.681203 C 211.023049 20.152792 213.580483 20.761928 216.098564 21.498786 C 218.321569 22.147221 220.495374 22.952852 222.600334 23.896029 C 224.508571 24.750785 226.338116 25.762737 228.069293 26.922059 C 229.692286 28.012609 231.207063 29.260355 232.59398 30.645648 C 233.980897 32.030941 235.230091 33.543956 236.331763 35.165043 C 237.492434 36.894202 238.505568 38.711787 239.361333 40.607968 C 240.305606 42.720292 241.112187 44.891565 241.761369 47.102139 C 242.508934 49.617282 243.108947 52.161898 243.590914 54.735987 C 244.131912 57.663768 244.564709 60.6112 244.889308 63.578282 C 245.263091 66.938355 245.538505 70.308252 245.735227 73.687976 C 245.951626 77.509812 246.10901 81.321821 246.187687 85.143656 C 246.276225 89.437084 246.325394 93.720685 246.325394 98.014106 C 246.325394 98.014106 246.325394 98.014106 246.325394 98.014106 L 246.325394 156.225886 C 246.325394 156.225886 246.325394 156.225886 246.325394 156.225886 C 246.325394 160.519306 246.276225 164.802907 246.187687 169.096328 C 246.10901 172.918164 245.951626 176.739999 245.735227 180.552015 C 245.538505 183.931739 245.263091 187.301629 244.889308 190.671533 C 244.564709 193.628784 244.131912 196.576216 243.590914 199.503994 C 243.108947 202.078094 242.508934 204.622706 241.761369 207.137845 C 241.112187 209.358253 240.305606 211.5197 239.361333 213.63202 C 238.505568 215.528209 237.492434 217.355617 236.331763 219.074952 C 235.230091 220.705853 233.980897 222.218876 232.59398 223.604172 C 231.207063 224.979634 229.692286 226.227385 228.069293 227.317935 C 226.338116 228.477251 224.508571 229.489201 222.600334 230.343951 C 220.495374 231.296956 218.321569 232.092775 216.098564 232.741198 C 213.580483 233.478056 211.023049 234.087202 208.445953 234.558787 C 205.514751 235.108972 202.554026 235.541264 199.583486 235.865483 C 196.219486 236.228995 192.835809 236.513922 189.452133 236.70058 C 185.625827 236.916726 181.799522 237.073926 177.973216 237.152526 C 173.674759 237.25078 169.376317 237.290072 165.077876 237.290072 C 165.077876 237.290072 165.077876 237.290072 165.06803 237.290072 L 90.941963 237.290072 C 90.932125 237.290072 90.932125 237.290072 90.932125 237.290072 C 86.633683 237.290072 82.335234 237.25078 78.036784 237.152526 C 74.210479 237.073926 70.384173 236.916726 66.557868 236.70058 C 63.174195 236.513922 59.790522 236.228995 56.426518 235.865483 C 53.455967 235.541264 50.495253 235.108972 47.564048 234.558787 C 44.986944 234.087202 42.429517 233.478056 39.911433 232.741198 C 37.688439 232.092775 35.514626 231.296956 33.409665 230.343951 C 31.501429 229.489201 29.671886 228.477251 27.940703 227.317935 C 26.31772 226.227385 24.802935 224.979634 23.416022 223.604172 C 22.029109 222.218876 20.779904 220.705853 19.678243 219.074952 C 18.517564 217.355617 17.504428 215.528209 16.648674 213.63202 C 15.704392 211.5197 14.897819 209.358253 14.248626 207.137845 C 13.50107 204.622706 12.901057 202.078094 12.419081 199.503994 C 11.878086 196.576216 11.445291 193.628784 11.120694 190.671533 C 10.746916 187.301629 10.471501 183.931739 10.274776 180.552015 C 10.058378 176.739999 9.900997 172.918164 9.822307 169.096328 C 9.733781 164.802907 9.6846 160.519306 9.6846 156.225886 C 9.6846 156.225886 9.6846 156.225886 9.6846 156.225886 L 9.6846 98.014106 C 9.6846 98.014106 9.6846 98.014106 9.6846 98.014106 C 9.6846 93.720685 9.733781 89.437084 9.822307 85.143656 C 9.900997 81.321821 10.058378 77.509812 10.274776 73.687976 C 10.471501 70.308252 10.746916 66.938355 11.120694 63.578282 C 11.445291 60.6112 11.878086 57.663768 12.419081 54.735987 C 12.901057 52.161898 13.50107 49.617282 14.248626 47.102139 C 14.897819 44.891565 15.704392 42.720292 16.648674 40.607968 C 17.504428 38.711787 18.517564 36.894202 19.678243 35.165043 C 20.779904 33.543956 22.029109 32.030941 23.416022 30.645648 C 24.802935 29.260355 26.31772 28.012609 27.940703 26.922059 C 29.671886 25.762737 31.501429 24.750785 33.409665 23.896029 C 35.514626 22.952852 37.688439 22.147221 39.911433 21.498786 C 42.429517 20.761928 44.986944 20.152792 47.564048 19.681203 C 50.495253 19.131016 53.455967 18.698726 56.426518 18.384332 C 59.790522 18.010992 63.174195 17.735898 66.557868 17.539402 C 70.384173 17.323257 74.210479 17.175886 78.036784 17.087463 C 82.335234 16.99904 86.633683 16.949916 90.932125 16.959741 C 90.932125 16.959741 90.932125 16.959741 90.941963 16.959741 L 165.06803 16.959741 C 165.077876 16.959741 165.077876 16.959741 165.077876 16.959741 Z"/>
 </g>
</svg>
