<svg xmlns="http://www.w3.org/2000/svg" style="isolation:isolate" width="256" height="256" viewBox="0 0 256 256">
 <defs>
  <filter id="nokNvj3TycFSVCuvREB9ZW9WfxyQ8oE5" width="400%" height="400%" x="-200%" y="-200%" color-interpolation-filters="sRGB" filterUnits="objectBoundingBox">
   <feGaussianBlur xmlns="http://www.w3.org/2000/svg" in="SourceGraphic" stdDeviation="4.294"/>
   <feOffset xmlns="http://www.w3.org/2000/svg" dx="0" dy="4" result="pf_100_offsetBlur"/>
   <feFlood xmlns="http://www.w3.org/2000/svg" flood-opacity=".4"/>
   <feComposite xmlns="http://www.w3.org/2000/svg" in2="pf_100_offsetBlur" operator="in" result="pf_100_dropShadow"/>
   <feBlend xmlns="http://www.w3.org/2000/svg" in="SourceGraphic" in2="pf_100_dropShadow" mode="normal"/>
  </filter>
 </defs>
 <g filter="url(#nokNvj3TycFSVCuvREB9ZW9WfxyQ8oE5)">
  <linearGradient id="_lgradient_18" x1="0" x2="0" y1="0" y2="1" gradientTransform="matrix(244.648309,0,0,228.338396,5.68,11.951604)" gradientUnits="userSpaceOnUse">
   <stop offset="0%" style="stop-color:#e0e5e7"/>
   <stop offset="100%" style="stop-color:#c7ced2"/>
  </linearGradient>
  <path fill="url(#_lgradient_18)" d="M 165.688919 11.951604 C 239.744626 11.951604 250.328309 22.508801 250.328309 96.495462 L 250.328309 155.746257 C 250.328309 229.732514 239.744626 240.29 165.688919 240.29 L 90.319393 240.29 C 16.26369 240.29 5.68 229.732514 5.68 155.746257 L 5.68 96.495462 C 5.68 22.508801 16.26369 11.951604 90.319393 11.951604 L 165.688919 11.951604 Z"/>
 </g>
 <g opacity=".4">
  <linearGradient id="_lgradient_19" x1=".517" x2=".517" y1="0" y2="1" gradientTransform="matrix(244.65,0,0,228.34,5.68,11.95)" gradientUnits="userSpaceOnUse">
   <stop offset="0%" style="stop-color:#ffffff"/>
   <stop offset="12.5%" stop-opacity=".098" style="stop-color:#ffffff"/>
   <stop offset="92.5%" stop-opacity=".098" style="stop-color:#000000"/>
   <stop offset="100%" stop-opacity=".498" style="stop-color:#000000"/>
  </linearGradient>
  <path fill="url(#_lgradient_19)" fill-rule="evenodd" d="M 165.06803 11.951234 C 169.395994 11.941409 173.723944 11.990533 178.051908 12.088781 C 181.927398 12.167379 185.802873 12.31475 189.678362 12.540721 C 193.1309 12.737216 196.583423 13.022134 200.026115 13.395476 C 203.085193 13.729518 206.144271 14.181458 209.173842 14.741469 C 211.888645 15.242533 214.57394 15.881143 217.219897 16.6573 C 219.619947 17.354858 221.970814 18.219439 224.242988 19.241215 C 226.357793 20.184394 228.384061 21.304417 230.302129 22.591462 C 232.141505 23.829383 233.862851 25.244151 235.436659 26.80629 C 237.000621 28.378252 238.417046 30.087764 239.656409 31.924995 C 240.944972 33.840824 242.066305 35.864728 243.020409 37.967229 C 244.043389 40.246576 244.908985 42.584873 245.617197 44.972292 C 246.394255 47.615155 247.033606 50.297317 247.535265 53.008956 C 248.095924 56.034984 248.548399 59.080665 248.882828 62.13617 C 249.256611 65.574836 249.541856 69.013506 249.738578 72.462003 C 249.964823 76.323139 250.112361 80.194101 250.200884 84.055237 C 250.289421 88.378131 250.338591 92.701032 250.32876 97.014106 L 250.32876 155.225886 C 250.338591 159.54878 250.289421 163.861854 250.200884 168.184747 C 250.112361 172.05571 249.964823 175.916853 249.738578 179.777981 C 249.541856 183.226485 249.256611 186.674975 248.882828 190.103826 C 248.548399 193.15933 248.095924 196.214835 247.535265 199.240851 C 247.033606 201.942664 246.394255 204.624837 245.617197 207.267703 C 244.908985 209.655115 244.043389 212.003235 243.020409 214.272755 C 242.066305 216.38509 240.944972 218.399156 239.656409 220.314999 C 238.417046 222.152226 237.000621 223.871561 235.436659 225.433697 C 233.862851 226.995832 232.141505 228.410601 230.302129 229.648532 C 228.384061 230.935575 226.357793 232.055598 224.242988 232.998768 C 221.970814 234.020552 219.619947 234.885137 217.219897 235.592507 C 214.57394 236.368672 211.888645 237.007276 209.173842 237.498515 C 206.144271 238.068354 203.085193 238.510465 200.026115 238.844519 C 196.583423 239.21785 193.1309 239.502777 189.678362 239.699269 C 185.802873 239.925235 181.927398 240.072615 178.051908 240.161035 C 173.723944 240.249454 169.395994 240.298581 165.06803 240.288762 L 90.941963 240.288762 C 86.614006 240.298581 82.286049 240.249454 77.9581 240.161035 C 74.08261 240.072615 70.20712 239.925235 66.331638 239.699269 C 62.879108 239.502777 59.426578 239.21785 55.983886 238.844519 C 52.924808 238.510465 49.865733 238.068354 46.836162 237.498515 C 44.121356 237.007276 41.436057 236.368672 38.7901 235.592507 C 36.390053 234.885137 34.039187 234.020552 31.767009 232.998768 C 29.652213 232.055598 27.625943 230.935575 25.707871 229.648532 C 23.868489 228.410601 22.147143 226.995832 20.573343 225.433697 C 19.009377 223.871561 17.592955 222.152226 16.353586 220.314999 C 15.065036 218.399156 13.943701 216.38509 12.989584 214.272755 C 11.966612 212.003235 11.101021 209.655115 10.392811 207.267703 C 9.615746 204.624837 8.976389 201.942664 8.47474 199.240851 C 7.914072 196.214835 7.461604 193.15933 7.127172 190.103826 C 6.753394 186.674975 6.468142 183.226485 6.271417 179.777981 C 6.045183 175.916853 5.897639 172.05571 5.809112 168.184747 C 5.720586 163.861854 5.671405 159.54878 5.681241 155.225886 L 5.681241 97.014106 C 5.671405 92.701032 5.720586 88.378131 5.809112 84.055237 C 5.897639 80.194101 6.045183 76.323139 6.271417 72.462003 C 6.468142 69.013506 6.753394 65.574836 7.127172 62.13617 C 7.461604 59.080665 7.914072 56.034984 8.47474 53.008956 C 8.976389 50.297317 9.615746 47.615155 10.392811 44.972292 C 11.101021 42.584873 11.966612 40.246576 12.989584 37.967229 C 13.943701 35.864728 15.065036 33.840824 16.353586 31.924995 C 17.592955 30.087764 19.009377 28.378252 20.573343 26.80629 C 22.147143 25.244151 23.868489 23.829383 25.707871 22.591462 C 27.625943 21.304417 29.652213 20.184394 31.767009 19.241215 C 34.039187 18.219439 36.390053 17.354858 38.7901 16.6573 C 41.436057 15.881143 44.121356 15.242533 46.836162 14.741469 C 49.865733 14.181458 52.924808 13.729518 55.983886 13.395476 C 59.426578 13.022134 62.879108 12.737216 66.331638 12.540721 C 70.20712 12.31475 74.08261 12.167379 77.9581 12.088781 C 82.286049 11.990533 86.614006 11.941409 90.941963 11.951234 L 165.06803 11.951234 Z M 165.077876 15.959741 C 169.376317 15.949916 173.674759 15.99904 177.973216 16.087463 C 181.799522 16.175886 185.625827 16.323257 189.452133 16.539402 C 192.835809 16.735898 196.219486 17.010992 199.583486 17.384332 C 202.554026 17.698726 205.514751 18.131016 208.445953 18.681203 C 211.023049 19.152792 213.580483 19.761928 216.098564 20.498786 C 218.321569 21.147221 220.495374 21.952852 222.600334 22.896029 C 224.508571 23.750785 226.338116 24.762737 228.069293 25.922059 C 229.692286 27.012609 231.207063 28.260355 232.59398 29.645648 C 233.980897 31.030941 235.230091 32.543956 236.331763 34.165043 C 237.492434 35.894202 238.505568 37.711787 239.361333 39.607968 C 240.305606 41.720292 241.112187 43.891565 241.761369 46.102139 C 242.508934 48.617282 243.108947 51.161898 243.590914 53.735987 C 244.131912 56.663768 244.564709 59.6112 244.889308 62.578282 C 245.263091 65.938355 245.538505 69.308252 245.735227 72.687976 C 245.951626 76.509812 246.10901 80.321821 246.187687 84.143656 C 246.276225 88.437084 246.325394 92.720685 246.325394 97.014106 C 246.325394 97.014106 246.325394 97.014106 246.325394 97.014106 L 246.325394 155.225886 C 246.325394 155.225886 246.325394 155.225886 246.325394 155.225886 C 246.325394 159.519306 246.276225 163.802907 246.187687 168.096328 C 246.10901 171.918164 245.951626 175.739999 245.735227 179.552015 C 245.538505 182.931739 245.263091 186.301629 244.889308 189.671533 C 244.564709 192.628784 244.131912 195.576216 243.590914 198.503994 C 243.108947 201.078094 242.508934 203.622706 241.761369 206.137845 C 241.112187 208.358253 240.305606 210.5197 239.361333 212.63202 C 238.505568 214.528209 237.492434 216.355617 236.331763 218.074952 C 235.230091 219.705853 233.980897 221.218876 232.59398 222.604172 C 231.207063 223.979634 229.692286 225.227385 228.069293 226.317935 C 226.338116 227.477251 224.508571 228.489201 222.600334 229.343951 C 220.495374 230.296956 218.321569 231.092775 216.098564 231.741198 C 213.580483 232.478056 211.023049 233.087202 208.445953 233.558787 C 205.514751 234.108972 202.554026 234.541264 199.583486 234.865483 C 196.219486 235.228995 192.835809 235.513922 189.452133 235.70058 C 185.625827 235.916726 181.799522 236.073926 177.973216 236.152526 C 173.674759 236.25078 169.376317 236.290072 165.077876 236.290072 C 165.077876 236.290072 165.077876 236.290072 165.06803 236.290072 L 90.941963 236.290072 C 90.932125 236.290072 90.932125 236.290072 90.932125 236.290072 C 86.633683 236.290072 82.335234 236.25078 78.036784 236.152526 C 74.210479 236.073926 70.384173 235.916726 66.557868 235.70058 C 63.174195 235.513922 59.790522 235.228995 56.426518 234.865483 C 53.455967 234.541264 50.495253 234.108972 47.564048 233.558787 C 44.986944 233.087202 42.429517 232.478056 39.911433 231.741198 C 37.688439 231.092775 35.514626 230.296956 33.409665 229.343951 C 31.501429 228.489201 29.671886 227.477251 27.940703 226.317935 C 26.31772 225.227385 24.802935 223.979634 23.416022 222.604172 C 22.029109 221.218876 20.779904 219.705853 19.678243 218.074952 C 18.517564 216.355617 17.504428 214.528209 16.648674 212.63202 C 15.704392 210.5197 14.897819 208.358253 14.248626 206.137845 C 13.50107 203.622706 12.901057 201.078094 12.419081 198.503994 C 11.878086 195.576216 11.445291 192.628784 11.120694 189.671533 C 10.746916 186.301629 10.471501 182.931739 10.274776 179.552015 C 10.058378 175.739999 9.900997 171.918164 9.822307 168.096328 C 9.733781 163.802907 9.6846 159.519306 9.6846 155.225886 C 9.6846 155.225886 9.6846 155.225886 9.6846 155.225886 L 9.6846 97.014106 C 9.6846 97.014106 9.6846 97.014106 9.6846 97.014106 C 9.6846 92.720685 9.733781 88.437084 9.822307 84.143656 C 9.900997 80.321821 10.058378 76.509812 10.274776 72.687976 C 10.471501 69.308252 10.746916 65.938355 11.120694 62.578282 C 11.445291 59.6112 11.878086 56.663768 12.419081 53.735987 C 12.901057 51.161898 13.50107 48.617282 14.248626 46.102139 C 14.897819 43.891565 15.704392 41.720292 16.648674 39.607968 C 17.504428 37.711787 18.517564 35.894202 19.678243 34.165043 C 20.779904 32.543956 22.029109 31.030941 23.416022 29.645648 C 24.802935 28.260355 26.31772 27.012609 27.940703 25.922059 C 29.671886 24.762737 31.501429 23.750785 33.409665 22.896029 C 35.514626 21.952852 37.688439 21.147221 39.911433 20.498786 C 42.429517 19.761928 44.986944 19.152792 47.564048 18.681203 C 50.495253 18.131016 53.455967 17.698726 56.426518 17.384332 C 59.790522 17.010992 63.174195 16.735898 66.557868 16.539402 C 70.384173 16.323257 74.210479 16.175886 78.036784 16.087463 C 82.335234 15.99904 86.633683 15.949916 90.932125 15.959741 C 90.932125 15.959741 90.932125 15.959741 90.941963 15.959741 L 165.06803 15.959741 C 165.077876 15.959741 165.077876 15.959741 165.077876 15.959741 Z"/>
 </g>
 <g>
  <linearGradient id="_lgradient_20" x1=".985" x2=".982" y1="-.01" y2=".254" gradientTransform="matrix(180,0,0,149.849998,40,49.667)" gradientUnits="userSpaceOnUse">
   <stop offset="11.304%" style="stop-color:#f3b5a6"/>
   <stop offset="50%" style="stop-color:#ecb8a3"/>
   <stop offset="97.391%" style="stop-color:#dfbead"/>
  </linearGradient>
  <path fill="url(#_lgradient_20)" d="M 46.796001 49.667 L 213.203995 49.667 C 216.956635 49.668655 219.998352 52.710358 220 56.463001 L 220 192.720993 C 219.998352 196.473648 216.956635 199.51535 213.203995 199.516998 L 46.796001 199.516998 C 43.043358 199.51535 40.001656 196.473648 40 192.720993 L 40 56.463001 C 40.001656 52.710358 43.043358 49.668655 46.796001 49.667 L 46.796001 49.667 Z"/>
  <linearGradient id="_lgradient_21" x1=".108" x2="1.101" y1=".242" y2=".724" gradientTransform="matrix(180,0,0,94.688649,40,104.82835)" gradientUnits="userSpaceOnUse">
   <stop offset=".435%" style="stop-color:#43707d"/>
   <stop offset="100%" style="stop-color:#7dc1c0"/>
  </linearGradient>
  <path fill="url(#_lgradient_21)" d="M 220 108 L 220 192.720993 C 219.998352 196.473648 216.956635 199.51535 213.203995 199.516998 L 46.796001 199.516998 C 43.043358 199.51535 40.001656 196.473648 40 192.720993 C 40 159.185608 40.003288 129.947159 40.004208 105 C 50.007263 104.391785 110.015862 105.401787 220 108 Z"/>
  <path fill="#c8b0a4" d="M 45.5625 100.1875 L 48.1875 98.625 L 49.3125 98.0625 L 52.6875 99.375 L 55.125 100.25 L 57.3125 99.375 L 60.6875 99.9375 L 62.9375 101 L 54.5 103.1875 L 47.125 104.5 L 45.5625 100.1875 Z"/>
  <path fill="#5e571e" d="M 40 186.625 L 40 170.25 L 41.375 172.875 L 43.625 172.875 L 47.125 173.5 L 50.125 174.375 L 53.25 174.75 L 55.375 175.875 L 57.875 178.875 L 55.875 182 L 49.625 184.75 L 46.75 186 L 42.125 186.75 L 40 186.625 Z"/>
  <path fill="#b0a099" d="M 39.9375 105.25 L 39.9375 98.5625 L 42.375 97.8125 L 43.3125 97.6875 L 46.25 99.875 L 49.0625 101.625 L 50.0625 102.4375 L 46.1875 105.9375 L 41.6875 107.3125 L 39.9375 105.25 Z"/>
  <path fill="#9f9492" d="M 41.6875 106.0625 L 45.6875 103.0625 L 50.1875 101.9375 L 53.125 101.5 L 55.5625 101.125 L 56.9375 101.375 L 59.875 100.4375 L 63.3125 99.125 L 66 99.625 L 67.875 99.8125 L 70.4375 99.375 L 73 100.5 L 77 101.75 L 78.3125 101.6875 L 80.6875 100.4375 L 83.0625 101.625 L 85.375 101.0625 L 87.125 101.375 L 90.125 102.375 L 93 101.375 L 95.125 101.1875 L 97.875 101.375 L 101.875 101.5625 Q 103.875 100.5625 103.8125 101.0625 Q 103.75 101.5625 105.5 100.625 L 107.75 100.5 L 108.875 99.875 L 110.9375 100.125 L 112.1875 100.875 L 113.0625 101.0625 L 114.5625 101 L 117.0625 101.9375 L 118.8125 102.5625 L 120.75 102.125 L 123.1875 101.6875 L 126.3125 102.4375 L 137 99.5 L 141.125 100.8125 L 143.3125 100.25 L 145.3125 100.0625 L 146.6875 99.8125 L 148.1875 99 L 150.125 98.875 L 152.25 99.5625 L 154.125 100.4375 L 155.6875 100.25 L 157.5625 99.875 L 159.0625 98.5625 L 160.5625 97.875 L 161.75 98.1875 L 163.125 99.75 L 166 102.3125 L 168.375 105.125 L 171.1875 104.25 L 175.75 103.4375 L 179.875 103.3125 L 182.8125 104.0625 L 185.625 104.125 L 187.1875 104 L 189.9375 104 L 192.4375 104 L 196 105.625 L 200.1875 106.25 L 203.6875 107.25 L 206.5625 108.4375 L 209.375 109.5625 L 210.0625 110.875 L 205.9375 111.0625 L 199.3125 111.5 L 192.625 110.8125 L 182 110.9375 L 172.1875 111.0625 L 165.125 110.4375 L 152.125 110.5625 L 147.9375 110.75 L 120.1875 112.5 L 117.125 112.0625 L 99.8125 112.4375 L 95.25 112.5625 L 90.9375 112.4375 L 80.6875 112.25 L 53.1875 112.875 L 43.4375 112.6875 L 41.6875 106.0625 Z"/>
  <path fill="#746b5e" d="M 39.9375 121.1875 L 39.9375 104.8125 L 41.875 106 L 46.3125 105.75 L 49.875 104.4375 L 54.5625 102.6875 L 56.625 102.125 L 59.625 101.5625 L 60.8125 101.375 L 63.5 101.1875 L 67 103.1875 L 68.875 104.8125 L 70 104.875 Q 72.0625 104.4375 72.5 104.625 Q 72.9375 104.8125 75.3125 104.625 L 77.8125 106 L 80.3125 107.875 L 84.25 109.4375 L 87.625 110.6875 L 91.0625 112.1875 L 93.4375 113.875 L 95.6875 115.6875 L 97.375 116.3125 L 100.3125 115.6875 L 106.375 112.0625 L 110.5625 110.375 L 113.1875 110.25 L 117.1875 111.0625 L 121.25 113.4375 L 118.25 119.9375 L 112.625 120.1875 L 106.8125 119.4375 L 91.25 119.3125 L 86.5625 119.4375 L 81.3125 119.6875 L 82.25 121.5625 L 75.25 122.125 L 70.3125 121.9375 L 65.1875 122.0625 L 63.5625 121.8125 L 54.1875 120.875 L 49.0625 121.4375 L 39.9375 121.1875 Z"/>
  <path fill="#d19358" d="M 114.5625 128.25 L 116.0625 120.3125 L 119.25 112.8125 L 124 103.5625 L 128.4375 97.8125 L 132.0625 95 L 135.8125 95.0625 L 137.9375 95.375 L 138.875 96.8125 L 140 97.625 L 143.25 100.125 L 146.625 105.375 L 148.375 109.0625 L 150.1875 114.1875 L 151.0625 119.375 L 151.8125 122.75 L 114.5625 128.25 Z"/>
  <path fill="#c1914e" d="M 220 163.375 L 189 160 Q 175.25 158.875 174.25 158.75 Q 173.25 158.625 164.375 159 L 145.375 156.5 L 122.25 154.375 L 120.375 151.375 L 115.75 150.125 L 95.25 151.75 L 88.75 152 L 75 150.875 L 58.375 150 L 52.625 149.5 L 49.75 148.75 L 50.25 146.875 L 53.125 144 L 39.875 143.5 L 40 133.125 L 45.25 135 L 51 137.75 L 56 140.875 L 57.5 140.875 L 58.875 140.125 L 60 140.625 L 61.625 139.875 L 67.75 140.75 L 78 137.875 L 93.625 134.375 L 112.75 128.625 L 126.375 123.25 L 136.625 120.25 L 143.5 118.75 L 152.125 122 L 154 123.625 L 161.375 121.25 L 167 120.25 L 170.375 119.625 L 172.625 118.25 L 174.375 117.75 L 178.375 117.25 L 181.875 118.5 L 187.75 118.625 L 192.875 120.875 L 196.875 126.25 L 203.625 132.375 L 208.875 138.875 L 213 142.75 L 216 147.25 L 219.375 152.75 L 220 154 L 220 163.375 Z"/>
  <path fill="#5e571e" d="M 173.25 128.125 L 171.75 132.5 L 167.25 130 Q 162.272705 134.332993 161.375 133.875 C 158.497849 132.40712 154.6745 134.208786 153.375 137.25 Q 156.734909 139.516953 158.75 140.375 Q 160.765091 141.233047 165 142.125 C 166.217194 141.342285 166.83136 139.810623 166.8125 137.5 L 167.375 133.5625 L 172.8125 147.3125 C 167.75 147.125 163.75 143.25 160.3125 145.875 C 158.0858 143.231934 155.824966 142.325272 153.5 143.125 C 151.496231 143.041519 148 140.5625 145.9375 144.4375 Q 143.763229 145.056335 142.6875 142.4375 L 146.125 140.375 C 147.001129 135.730759 148.261124 133.115768 149.875 132.5 L 153 132.9375 L 155.3125 128.8125 L 159.0625 126.4375 L 154.0625 126 L 150.0625 126.5 L 147.8125 128.1875 C 146.166672 127.270836 144.072495 127.53083 141.5 128.9375 L 132.25 130.1875 C 125.75 126.5625 121 130.375 101.8125 140.75 L 93 141 L 84.5625 143.5 L 78.625 143.5 L 74.0625 144.8125 L 72.25 143.375 L 62.6875 141.6875 L 56.3125 142.5625 L 48.0625 137.5 L 44.875 137.1875 C 42.979168 138.9375 43.218334 139.864166 45.5625 139.9375 C 46.129765 140.335251 47.035675 139.900574 47.75 140.125 C 49.3125 141.6875 50.596954 141.43811 52.1875 141.3125 Q 53.418282 141.992691 54.3125 143.125 Q 41.711521 142.795242 39.875 143.5 L 40 133.125 L 45.25 135 L 51 137.75 L 54.875 140.9375 L 57.5 140.875 L 58.875 140.125 L 60 140.625 L 61.625 139.875 L 67.75 140.75 L 78 137.875 L 93.625 134.375 L 112.75 128.625 L 126.375 123.25 L 136.625 120.25 L 143.5 118.75 L 152.125 122 L 154 123.625 L 161.375 121.25 L 167 120.25 L 170.375 119.625 L 172.625 118.25 L 174.375 117.75 L 178.375 117.25 L 181.875 118.5 L 187.75 118.625 L 192.875 120.875 L 196.875 126.25 L 203.625 132.375 L 208.875 138.875 L 199.75 135.5 C 196.075577 132.09787 192.267761 130.03714 189.25 131.125 C 187.589722 130.424561 186.702087 130.664841 185.625 130 L 182.75 132.75 L 173.25 128.125 Z"/>
 </g>
 <defs>
  <filter id="C4rmoXMaxn9k1ZSKbcHAgcF8BFd0K3Lt" width="400%" height="400%" x="-200%" y="-200%" color-interpolation-filters="sRGB" filterUnits="objectBoundingBox">
   <feGaussianBlur xmlns="http://www.w3.org/2000/svg" stdDeviation="4.294"/>
  </filter>
 </defs>
 <g opacity=".4" filter="url(#C4rmoXMaxn9k1ZSKbcHAgcF8BFd0K3Lt)">
  <path d="M 126.32 240.288391 L 126 211.493858 C 126 137.507198 136.583689 126 210.639397 126 L 248.648308 126"/>
 </g>
 <linearGradient id="_lgradient_22" x1=".5" x2=".5" y1="0" y2="1" gradientTransform="matrix(121.984949,0,0,114.142294,128.7,126.446097)" gradientUnits="userSpaceOnUse">
  <stop offset="0%" style="stop-color:#31c6b7"/>
  <stop offset="100%" style="stop-color:#2b898f"/>
 </linearGradient>
 <path fill="url(#_lgradient_22)" d="M 146.981133 240.532816 L 129.235454 240.394579 L 128.875364 232.288958 C 128.427224 222.201426 128.898364 189.860369 129.607224 182.051733 C 130.891544 167.903799 133.047274 158.739611 136.919594 150.966242 C 144.316411 136.117749 157.752076 129.780038 186.519013 127.569798 C 189.981553 127.303761 205.835377 126.942096 221.749745 126.766096 L 250.684949 126.446097 L 250.677945 150.616882 C 250.66795 182.807833 249.912495 193.581553 246.801434 205.899988 C 242.94608 221.165552 235.295628 230.075769 221.947499 234.846575 C 208.545888 239.636499 192.095746 240.884256 146.981623 240.532816 L 146.981133 240.532816 Z"/>
 <path fill="#ffffff" d="M 189.692474 148.517244 C 170.362511 148.517244 154.692474 164.187281 154.692474 183.517244 C 154.692474 202.847207 170.362511 218.517244 189.692474 218.517244 C 204.509651 218.499665 217.710235 209.153686 222.649289 195.183911 L 209.873681 195.183911 C 205.710242 202.395216 198.019367 206.841276 189.692474 206.850577 C 176.805827 206.850577 166.359141 196.403891 166.359141 183.517244 C 166.359141 170.630597 176.805827 160.183911 189.692474 160.183911 C 196.84039 160.188465 203.591873 163.469033 208.012787 169.08582 L 197.470252 179.628355 L 211.081363 179.628355 L 212.691606 179.628355 L 224.457014 179.628355 L 224.692474 179.628355 L 224.692474 166.017244 L 224.692474 152.406133 L 216.291867 160.80674 C 209.649332 153.017377 199.929528 148.52662 189.692474 148.517244 Z"/>
</svg>
