<svg width="256" height="256" fill="none" viewBox="0 0 256 256" xmlns="http://www.w3.org/2000/svg">
 <g clip-path="url(#clip0)">
  <g filter="url(#filter0_d)">
   <path d="m165.685 11.947c74.055 0 84.639 10.5572 84.639 84.5438v59.2512c0 73.986-10.584 84.543-84.639 84.543h-75.3698c-74.0557 0-84.63934-10.557-84.63934-84.543v-59.2512c0-73.9866 10.58364-84.5438 84.63934-84.5438h75.3698z" fill="url(#paint0_linear)"/>
  </g>
  <g filter="url(#filter1_f)" opacity=".2">
   <path d="m60.8158 73.807c-2.114 0-3.8158 1.5095-3.8158 3.3885v13.5739c0 1.8791 1.7018 3.3885 3.8158 3.3885h22.8947c2.114 0 3.8158-1.5094 3.8158-3.3885v-13.5739c0-1.879-1.7018-3.3885-3.8158-3.3885h-22.8947zm111.9302 0c-2.114 0-3.816 1.5095-3.816 3.3885v13.5739c0 1.8791 1.702 3.3885 3.816 3.3885h22.894c2.114 0 3.816-1.5094 3.816-3.3885v-13.5739c0-1.879-1.702-3.3885-3.816-3.3885h-22.894zm-111.9302 45.789c-2.114 0-3.8158 1.51-3.8158 3.389v13.574c0 1.879 1.7018 3.388 3.8158 3.388h22.8947c2.114 0 3.8158-1.509 3.8158-3.388v-13.574c0-1.879-1.7018-3.389-3.8158-3.389h-22.8947zm111.9302 0c-2.114 0-3.816 1.51-3.816 3.389v13.574c0 1.879 1.702 3.388 3.816 3.388h22.894c2.114 0 3.816-1.509 3.816-3.388v-13.574c0-1.879-1.702-3.389-3.816-3.389h-22.894zm0 45.79c-2.114 0-3.816 1.509-3.816 3.388v13.574c0 1.879 1.702 3.389 3.816 3.389h22.894c2.114 0 3.816-1.51 3.816-3.389v-13.574c0-1.879-1.702-3.388-3.816-3.388h-22.894z"/>
  </g>
  <g filter="url(#filter2_f)" opacity=".2">
   <path d="m179.105 66.4578v126.6282c0 4.371-3.254 7.914-7.268 7.914h-87.2183c-4.0139 0-7.2678-3.543-7.2678-7.914v-126.6282c0-4.3707 3.2539-7.9139 7.2678-7.9139h87.2183c4.014 0 7.268 3.5432 7.268 7.9139z"/>
  </g>
  <path d="m83.7105 117.053h-22.8947c-2.1074 0-3.8158 1.518-3.8158 3.391v13.569c0 1.872 1.7084 3.391 3.8158 3.391h22.8947c2.1074 0 3.8158-1.519 3.8158-3.391v-13.569c0-1.873-1.7084-3.391-3.8158-3.391z" fill="url(#paint1_linear)"/>
  <path d="m83.7105 71.2632h-22.8947c-2.1074 0-3.8158 1.5181-3.8158 3.3909v13.569c0 1.8728 1.7084 3.3909 3.8158 3.3909h22.8947c2.1074 0 3.8158-1.5181 3.8158-3.3909v-13.569c0-1.8728-1.7084-3.3909-3.8158-3.3909z" fill="url(#paint2_linear)"/>
  <path d="m195.64 117.053h-22.894c-2.108 0-3.816 1.518-3.816 3.391v13.569c0 1.872 1.708 3.391 3.816 3.391h22.894c2.108 0 3.816-1.519 3.816-3.391v-13.569c0-1.873-1.708-3.391-3.816-3.391z" fill="url(#paint3_linear)"/>
  <path d="m195.64 162.842h-22.894c-2.108 0-3.816 1.518-3.816 3.391v13.569c0 1.873 1.708 3.391 3.816 3.391h22.894c2.108 0 3.816-1.518 3.816-3.391v-13.569c0-1.873-1.708-3.391-3.816-3.391z" fill="url(#paint4_linear)"/>
  <path d="m195.64 71.2632h-22.894c-2.108 0-3.816 1.5181-3.816 3.3909v13.569c0 1.8728 1.708 3.3909 3.816 3.3909h22.894c2.108 0 3.816-1.5181 3.816-3.3909v-13.569c0-1.8728-1.708-3.3909-3.816-3.3909z" fill="url(#paint5_linear)"/>
  <path d="m60.8158 71.2632c-2.114 0-3.8158 1.5094-3.8158 3.3885v2.5438c0-1.879 1.7018-3.3885 3.8158-3.3885h22.8947c2.114 0 3.8158 1.5095 3.8158 3.3885v-2.5438c0-1.8791-1.7018-3.3885-3.8158-3.3885h-22.8947zm111.9302 0c-2.114 0-3.816 1.5094-3.816 3.3885v2.5438c0-1.879 1.702-3.3885 3.816-3.3885h22.894c2.114 0 3.816 1.5095 3.816 3.3885v-2.5438c0-1.8791-1.702-3.3885-3.816-3.3885h-22.894zm-111.9302 45.7898c-2.114 0-3.8158 1.509-3.8158 3.388v2.544c0-1.879 1.7018-3.389 3.8158-3.389h22.8947c2.114 0 3.8158 1.51 3.8158 3.389v-2.544c0-1.879-1.7018-3.388-3.8158-3.388h-22.8947zm111.9302 0c-2.114 0-3.816 1.509-3.816 3.388v2.544c0-1.879 1.702-3.389 3.816-3.389h22.894c2.114 0 3.816 1.51 3.816 3.389v-2.544c0-1.879-1.702-3.388-3.816-3.388h-22.894zm0 45.789c-2.114 0-3.816 1.51-3.816 3.389v2.543c0-1.879 1.702-3.388 3.816-3.388h22.894c2.114 0 3.816 1.509 3.816 3.388v-2.543c0-1.879-1.702-3.389-3.816-3.389h-22.894z" fill="white" opacity=".2"/>
  <path d="m179.105 63.914v126.628c0 4.371-3.254 7.914-7.268 7.914h-87.2183c-4.0139 0-7.2678-3.543-7.2678-7.914v-126.628c0-4.3708 3.2539-7.914 7.2678-7.914h87.2183c4.014 0 7.268 3.5432 7.268 7.914z" fill="url(#paint6_linear)"/>
  <path d="m128.228 111.965h-30.5262v30.526h30.5262v-30.526z" fill="url(#paint7_linear)"/>
  <path d="m158.754 111.965h-30.526v30.526h30.526v-30.526z" fill="url(#paint8_linear)"/>
  <path d="M128.228 81.4386H97.7018V111.965H128.228V81.4386Z" fill="url(#paint9_linear)"/>
  <path d="m158.754 81.4386h-30.526v30.5264h30.526v-30.5264z" fill="url(#paint10_linear)"/>
  <path d="m158.754 142.491h-30.526v30.527h30.526v-30.527z" fill="url(#paint11_linear)"/>
  <path d="m158.754 111.965h-61.0522v2.544h61.0522v-2.544z" opacity=".2"/>
  <path d="m158.754 142.491h-61.0522v2.544h61.0522v-2.544z" opacity=".2"/>
  <path d="m158.754 173.018h-30.526v2.543h30.526v-2.543z" opacity=".2"/>
  <path d="m84.6148 56c-4.0266 0-7.2639 3.5253-7.2639 7.9098v2.5439c0-4.3845 3.2373-7.9098 7.2639-7.9098h87.2262c4.027 0 7.264 3.5253 7.264 7.9098v-2.5439c0-4.3845-3.237-7.9098-7.264-7.9098h-87.2262z" fill="white" opacity=".1"/>
  <path d="m165.068 11.9512c4.328-0.0098 8.656 0.0393 12.984 0.1376 3.875 0.0786 7.751 0.226 11.626 0.4519 3.453 0.1965 6.905 0.4814 10.348 0.8548 3.059 0.334 6.118 0.786 9.148 1.346 2.715 0.501 5.4 1.1397 8.046 1.9158 2.4 0.6976 4.751 1.5622 7.023 2.5839 2.115 0.9432 4.141 2.0632 6.059 3.3503 1.839 1.2379 3.561 2.6527 5.135 4.2148 1.564 1.572 2.98 3.2815 4.219 5.1187 1.289 1.9158 2.41 3.9397 3.364 6.0422 1.023 2.2794 1.889 4.6177 2.597 7.0051 0.777 2.6429 1.417 5.325 1.918 8.0367 0.561 3.026 1.013 6.0717 1.348 9.1272 0.374 3.4386 0.659 6.8773 0.856 10.3258 0.226 3.8612 0.373 7.7321 0.462 11.5933 0.088 4.3228 0.138 8.6457 0.128 12.9588v58.2119c0.01 4.323-0.04 8.636-0.128 12.959-0.089 3.871-0.236 7.732-0.462 11.593-0.197 3.449-0.482 6.897-0.856 10.326-0.335 3.055-0.787 6.111-1.348 9.137-0.501 2.702-1.141 5.384-1.918 8.027-0.708 2.387-1.574 4.735-2.597 7.005-0.954 2.112-2.075 4.126-3.364 6.042-1.239 1.837-2.655 3.557-4.219 5.119-1.574 1.562-3.296 2.977-5.135 4.215-1.918 1.287-3.944 2.407-6.059 3.35-2.272 1.022-4.623 1.886-7.023 2.594-2.646 0.776-5.331 1.414-8.046 1.906-3.03 0.569-6.089 1.011-9.148 1.346-3.443 0.373-6.895 0.658-10.348 0.854-3.875 0.226-7.751 0.374-11.626 0.462-4.328 0.088-8.656 0.138-12.984 0.128h-74.126c-4.328 0.01-8.656-0.04-12.9839-0.128-3.8755-0.088-7.751-0.236-11.6265-0.462-3.4525-0.196-6.905-0.481-10.3477-0.854-3.0591-0.335-6.1182-0.777-9.1477-1.346-2.7149-0.492-5.4001-1.13-8.0461-1.906-2.4001-0.708-4.7509-1.572-7.0231-2.594-2.1148-0.943-4.1411-2.063-6.0591-3.35-1.8394-1.238-3.5608-2.653-5.1346-4.215-1.5639-1.562-2.9804-3.282-4.2197-5.119-1.2886-1.916-2.4099-3.93-3.364-6.042-1.023-2.27-1.8886-4.618-2.5968-7.005-0.77706-2.643-1.41642-5.325-1.91807-8.027-0.56067-3.026-1.01313-6.082-1.34757-9.137-0.37377-3.429-0.65903-6.877-0.85575-10.326-0.22623-3.861-0.37378-7.722-0.46231-11.593-0.08852-4.323-0.1377-8.636-0.12787-12.959v-58.2119c-0.00983-4.3131 0.03935-8.636 0.12787-12.9588 0.08853-3.8612 0.23608-7.7321 0.46231-11.5933 0.19672-3.4485 0.48198-6.8872 0.85575-10.3258 0.33444-3.0555 0.7869-6.1012 1.34757-9.1272 0.50165-2.7117 1.14101-5.3938 1.91807-8.0367 0.7082-2.3874 1.5738-4.7257 2.5968-7.0051 0.9541-2.1025 2.0754-4.1264 3.364-6.0422 1.2393-1.8372 2.6558-3.5467 4.2197-5.1187 1.5738-1.5621 3.2952-2.9769 5.1346-4.2148 1.918-1.2871 3.9443-2.4071 6.0591-3.3503 2.2722-1.0217 4.623-1.8863 7.0231-2.5839 2.646-0.7761 5.3312-1.4148 8.0461-1.9158 3.0295-0.56 6.0886-1.012 9.1477-1.346 3.4427-0.3734 6.8952-0.6583 10.3477-0.8548 3.8755-0.2259 7.751-0.3733 11.6265-0.4519 4.3279-0.0983 8.6559-0.1474 12.9839-0.1376h74.126zm0.01 4.0086c4.298-0.0099 8.597 0.0393 12.895 0.1277 3.827 0.0884 7.653 0.2358 11.479 0.4519 3.384 0.1965 6.767 0.4716 10.131 0.8449 2.971 0.3144 5.932 0.7467 8.863 1.2969 2.577 0.4716 5.134 1.0807 7.653 1.8176 2.223 0.6484 4.396 1.4541 6.501 2.3972 1.909 0.8548 3.738 1.8667 5.469 3.0261 1.623 1.0905 3.138 2.3383 4.525 3.7236s2.636 2.8983 3.738 4.5194c1.16 1.7291 2.174 3.5467 3.029 5.4429 0.945 2.1123 1.751 4.2836 2.4 6.4941 0.748 2.5152 1.348 5.0598 1.83 7.6339 0.541 2.9278 0.974 5.8752 1.298 8.8423 0.374 3.3601 0.65 6.73 0.846 10.1097 0.217 3.8218 0.374 7.6338 0.453 11.4557 0.088 4.2934 0.137 8.577 0.137 12.8704v58.2119c0 4.293-0.049 8.577-0.137 12.87-0.079 3.822-0.236 7.644-0.453 11.456-0.196 3.38-0.472 6.75-0.846 10.12-0.324 2.957-0.757 5.904-1.298 8.832-0.482 2.574-1.082 5.119-1.83 7.634-0.649 2.22-1.455 4.382-2.4 6.494-0.855 1.896-1.869 3.724-3.029 5.443-1.102 1.631-2.351 3.144-3.738 4.529-1.387 1.376-2.902 2.623-4.525 3.714-1.731 1.159-3.56 2.171-5.469 3.026-2.105 0.953-4.278 1.749-6.501 2.397-2.519 0.737-5.076 1.346-7.653 1.818-2.931 0.55-5.892 0.982-8.863 1.306-3.364 0.364-6.747 0.649-10.131 0.836-3.826 0.216-7.652 0.373-11.479 0.452-4.298 0.098-8.597 0.137-12.895 0.137h-0.01-74.126-0.0099c-4.2984 0-8.5969-0.039-12.8953-0.137-3.8263-0.079-7.6526-0.236-11.4789-0.452-3.3837-0.187-6.7674-0.472-10.1314-0.836-2.9705-0.324-5.9313-0.756-8.8625-1.306-2.5771-0.472-5.1345-1.081-7.6526-1.818-2.223-0.648-4.3968-1.444-6.5017-2.397-1.9083-0.855-3.7378-1.867-5.469-3.026-1.623-1.091-3.1378-2.338-4.5247-3.714-1.3869-1.385-2.6361-2.898-3.7378-4.529-1.1606-1.719-2.1738-3.547-3.0295-5.443-0.9443-2.112-1.7509-4.274-2.4001-6.494-0.7475-2.515-1.3476-5.06-1.8295-7.634-0.541-2.928-0.9738-5.875-1.2984-8.832-0.3738-3.37-0.6492-6.74-0.8459-10.12-0.2164-3.812-0.37381-7.634-0.4525-11.456-0.08853-4.293-0.13771-8.577-0.13771-12.87v-58.2119c0-4.2934 0.04918-8.577 0.13771-12.8704 0.07869-3.8219 0.2361-7.6339 0.4525-11.4557 0.1967-3.3797 0.4721-6.7496 0.8459-10.1097 0.3246-2.9671 0.7574-5.9145 1.2984-8.8423 0.4819-2.5741 1.082-5.1187 1.8295-7.6339 0.6492-2.2105 1.4558-4.3818 2.4001-6.4941 0.8557-1.8962 1.8689-3.7138 3.0295-5.4429 1.1017-1.6211 2.3509-3.1341 3.7378-4.5194s2.9017-2.6331 4.5247-3.7236c1.7312-1.1594 3.5607-2.1713 5.469-3.0261 2.1049-0.9431 4.2787-1.7488 6.5017-2.3972 2.5181-0.7369 5.0755-1.346 7.6526-1.8176 2.9312-0.5502 5.892-0.9825 8.8625-1.2969 3.364-0.3733 6.7477-0.6484 10.1314-0.8449 3.8263-0.2161 7.6526-0.3635 11.4789-0.4519 4.2984-0.0884 8.5969-0.1376 12.8953-0.1277h0.0099 74.126 0.01z" clip-rule="evenodd" fill="url(#paint12_linear)" fill-rule="evenodd" opacity=".4"/>
 </g>
 <defs>
  <filter id="filter0_d" x="-4.32414" y="5.94696" width="264.648" height="248.338" color-interpolation-filters="sRGB" filterUnits="userSpaceOnUse">
   <feFlood flood-opacity="0" result="BackgroundImageFix"/>
   <feColorMatrix in="SourceAlpha" values="0 0 0 0 0 0 0 0 0 0 0 0 0 0 0 0 0 0 127 0"/>
   <feOffset dy="4"/>
   <feGaussianBlur stdDeviation="5"/>
   <feColorMatrix values="0 0 0 0 0 0 0 0 0 0 0 0 0 0 0 0 0 0 0.4 0"/>
   <feBlend in2="BackgroundImageFix" result="effect1_dropShadow"/>
   <feBlend in="SourceGraphic" in2="effect1_dropShadow" result="shape"/>
  </filter>
  <filter id="filter1_f" x="47" y="63.807" width="162.456" height="131.93" color-interpolation-filters="sRGB" filterUnits="userSpaceOnUse">
   <feFlood flood-opacity="0" result="BackgroundImageFix"/>
   <feBlend in="SourceGraphic" in2="BackgroundImageFix" result="shape"/>
   <feGaussianBlur result="effect1_foregroundBlur" stdDeviation="5"/>
  </filter>
  <filter id="filter2_f" x="67.3509" y="48.5439" width="121.754" height="162.456" color-interpolation-filters="sRGB" filterUnits="userSpaceOnUse">
   <feFlood flood-opacity="0" result="BackgroundImageFix"/>
   <feBlend in="SourceGraphic" in2="BackgroundImageFix" result="shape"/>
   <feGaussianBlur result="effect1_foregroundBlur" stdDeviation="5"/>
  </filter>
  <linearGradient id="paint0_linear" x1="51.4742" x2="52.0964" y1="12.9954" y2="239.997" gradientUnits="userSpaceOnUse">
   <stop stop-color="#07b3ff" offset="0"/>
   <stop stop-color="#007de8" offset="1"/>
  </linearGradient>
  <linearGradient id="paint1_linear" x1="74.4" x2="74.5357" y1="117.053" y2="137.608" gradientUnits="userSpaceOnUse">
   <stop stop-color="#ffeb00" offset="0"/>
   <stop stop-color="#ffa100" offset="1"/>
  </linearGradient>
  <linearGradient id="paint2_linear" x1="74.4" x2="74.5357" y1="71.2632" y2="91.8187" gradientUnits="userSpaceOnUse">
   <stop stop-color="#ffeb00" offset="0"/>
   <stop stop-color="#ffa100" offset="1"/>
  </linearGradient>
  <linearGradient id="paint3_linear" x1="186.33" x2="186.466" y1="117.053" y2="137.608" gradientUnits="userSpaceOnUse">
   <stop stop-color="#ffeb00" offset="0"/>
   <stop stop-color="#ffa100" offset="1"/>
  </linearGradient>
  <linearGradient id="paint4_linear" x1="186.33" x2="186.466" y1="162.842" y2="183.398" gradientUnits="userSpaceOnUse">
   <stop stop-color="#ffeb00" offset="0"/>
   <stop stop-color="#ffa100" offset="1"/>
  </linearGradient>
  <linearGradient id="paint5_linear" x1="186.33" x2="186.466" y1="71.2632" y2="91.8187" gradientUnits="userSpaceOnUse">
   <stop stop-color="#ffeb00" offset="0"/>
   <stop stop-color="#ffa100" offset="1"/>
  </linearGradient>
  <linearGradient id="paint6_linear" x1="179.105" x2="77.3509" y1="198.456" y2="198.456" gradientUnits="userSpaceOnUse">
   <stop stop-color="#4c5561" offset="1e-7"/>
   <stop stop-color="#2e3842" offset="1"/>
  </linearGradient>
  <linearGradient id="paint7_linear" x1="97.7018" x2="97.7018" y1="111.965" y2="142.491" gradientUnits="userSpaceOnUse">
   <stop stop-color="#00ff99" offset="1e-7"/>
   <stop stop-color="#14dc57" offset="1"/>
  </linearGradient>
  <linearGradient id="paint8_linear" x1="128.228" x2="128.228" y1="111.965" y2="142.491" gradientUnits="userSpaceOnUse">
   <stop stop-color="#ffec57" offset="1e-7"/>
   <stop stop-color="#ffc551" offset=".5"/>
   <stop stop-color="#f5a90f" offset="1"/>
  </linearGradient>
  <linearGradient id="paint9_linear" x1="97.7018" x2="97.7018" y1="81.4386" y2="111.965" gradientUnits="userSpaceOnUse">
   <stop stop-color="#ff9757" offset="1e-7"/>
   <stop stop-color="#ff6e51" offset=".5"/>
   <stop stop-color="#f5350f" offset="1"/>
  </linearGradient>
  <linearGradient id="paint10_linear" x1="128.228" x2="128.228" y1="81.4386" y2="111.965" gradientUnits="userSpaceOnUse">
   <stop stop-color="#5786ff" offset="1e-7"/>
   <stop stop-color="#51a8ff" offset=".5"/>
   <stop stop-color="#0f82f5" offset="1"/>
  </linearGradient>
  <linearGradient id="paint11_linear" x1="128.228" x2="128.228" y1="142.491" y2="173.018" gradientUnits="userSpaceOnUse">
   <stop stop-color="#ff57db" offset="1e-7"/>
   <stop stop-color="#ff51ff" offset=".5"/>
   <stop stop-color="#f50ff5" offset="1"/>
  </linearGradient>
  <linearGradient id="paint12_linear" x1="132.082" x2="132.082" y1="11.95" y2="240.29" gradientUnits="userSpaceOnUse">
   <stop stop-color="white" offset="0"/>
   <stop stop-color="white" stop-opacity=".0980392" offset=".125"/>
   <stop stop-opacity=".0980392" offset=".925"/>
   <stop stop-opacity=".498039" offset="1"/>
  </linearGradient>
  <clipPath id="clip0">
   <rect width="256" height="256" fill="white"/>
  </clipPath>
 </defs>
</svg>
