<svg xmlns="http://www.w3.org/2000/svg" style="isolation:isolate" width="256" height="256" viewBox="0 0 256 256">
 <defs>
  <filter id="VqpAExB14CNRa9Gw1VgNL1KbGKHqLJQ6" width="400%" height="400%" x="-200%" y="-200%" color-interpolation-filters="sRGB" filterUnits="objectBoundingBox">
   <feGaussianBlur xmlns="http://www.w3.org/2000/svg" in="SourceGraphic" stdDeviation="4.294"/>
   <feOffset xmlns="http://www.w3.org/2000/svg" dx="0" dy="4" result="pf_100_offsetBlur"/>
   <feFlood xmlns="http://www.w3.org/2000/svg" flood-opacity=".4"/>
   <feComposite xmlns="http://www.w3.org/2000/svg" in2="pf_100_offsetBlur" operator="in" result="pf_100_dropShadow"/>
   <feBlend xmlns="http://www.w3.org/2000/svg" in="SourceGraphic" in2="pf_100_dropShadow" mode="normal"/>
  </filter>
 </defs>
 <g filter="url(#VqpAExB14CNRa9Gw1VgNL1KbGKHqLJQ6)">
  <linearGradient id="_lgradient_17" x1="0" x2="0" y1="0" y2="1" gradientTransform="matrix(244.648309,0,0,228.338396,5.68,11.951604)" gradientUnits="userSpaceOnUse">
   <stop offset="0%" style="stop-color:#edc268"/>
   <stop offset="100%" style="stop-color:#9b7424"/>
  </linearGradient>
  <path fill="url(#_lgradient_17)" d="M 165.688919 11.951604 C 239.744626 11.951604 250.328309 22.508801 250.328309 96.495462 L 250.328309 155.746257 C 250.328309 229.732514 239.744626 240.29 165.688919 240.29 L 90.319393 240.29 C 16.26369 240.29 5.68 229.732514 5.68 155.746257 L 5.68 96.495462 C 5.68 22.508801 16.26369 11.951604 90.319393 11.951604 L 165.688919 11.951604 Z"/>
 </g>
 <g opacity=".4">
  <linearGradient id="_lgradient_18" x1=".517" x2=".517" y1="0" y2="1" gradientTransform="matrix(244.65,0,0,228.34,5.68,11.95)" gradientUnits="userSpaceOnUse">
   <stop offset="0%" style="stop-color:#ffffff"/>
   <stop offset="12.5%" stop-opacity=".098" style="stop-color:#ffffff"/>
   <stop offset="92.5%" stop-opacity=".098" style="stop-color:#000000"/>
   <stop offset="100%" stop-opacity=".498" style="stop-color:#000000"/>
  </linearGradient>
  <path fill="url(#_lgradient_18)" fill-rule="evenodd" d="M 165.06803 11.951234 C 169.395994 11.941409 173.723944 11.990533 178.051908 12.088781 C 181.927398 12.167379 185.802873 12.31475 189.678362 12.540721 C 193.1309 12.737216 196.583423 13.022134 200.026115 13.395476 C 203.085193 13.729518 206.144271 14.181458 209.173842 14.741469 C 211.888645 15.242533 214.57394 15.881143 217.219897 16.6573 C 219.619947 17.354858 221.970814 18.219439 224.242988 19.241215 C 226.357793 20.184394 228.384061 21.304417 230.302129 22.591462 C 232.141505 23.829383 233.862851 25.244151 235.436659 26.80629 C 237.000621 28.378252 238.417046 30.087764 239.656409 31.924995 C 240.944972 33.840824 242.066305 35.864728 243.020409 37.967229 C 244.043389 40.246576 244.908985 42.584873 245.617197 44.972292 C 246.394255 47.615155 247.033606 50.297317 247.535265 53.008956 C 248.095924 56.034984 248.548399 59.080665 248.882828 62.13617 C 249.256611 65.574836 249.541856 69.013506 249.738578 72.462003 C 249.964823 76.323139 250.112361 80.194101 250.200884 84.055237 C 250.289421 88.378131 250.338591 92.701032 250.32876 97.014106 L 250.32876 155.225886 C 250.338591 159.54878 250.289421 163.861854 250.200884 168.184747 C 250.112361 172.05571 249.964823 175.916853 249.738578 179.777981 C 249.541856 183.226485 249.256611 186.674975 248.882828 190.103826 C 248.548399 193.15933 248.095924 196.214835 247.535265 199.240851 C 247.033606 201.942664 246.394255 204.624837 245.617197 207.267703 C 244.908985 209.655115 244.043389 212.003235 243.020409 214.272755 C 242.066305 216.38509 240.944972 218.399156 239.656409 220.314999 C 238.417046 222.152226 237.000621 223.871561 235.436659 225.433697 C 233.862851 226.995832 232.141505 228.410601 230.302129 229.648532 C 228.384061 230.935575 226.357793 232.055598 224.242988 232.998768 C 221.970814 234.020552 219.619947 234.885137 217.219897 235.592507 C 214.57394 236.368672 211.888645 237.007276 209.173842 237.498515 C 206.144271 238.068354 203.085193 238.510465 200.026115 238.844519 C 196.583423 239.21785 193.1309 239.502777 189.678362 239.699269 C 185.802873 239.925235 181.927398 240.072615 178.051908 240.161035 C 173.723944 240.249454 169.395994 240.298581 165.06803 240.288762 L 90.941963 240.288762 C 86.614006 240.298581 82.286049 240.249454 77.9581 240.161035 C 74.08261 240.072615 70.20712 239.925235 66.331638 239.699269 C 62.879108 239.502777 59.426578 239.21785 55.983886 238.844519 C 52.924808 238.510465 49.865733 238.068354 46.836162 237.498515 C 44.121356 237.007276 41.436057 236.368672 38.7901 235.592507 C 36.390053 234.885137 34.039187 234.020552 31.767009 232.998768 C 29.652213 232.055598 27.625943 230.935575 25.707871 229.648532 C 23.868489 228.410601 22.147143 226.995832 20.573343 225.433697 C 19.009377 223.871561 17.592955 222.152226 16.353586 220.314999 C 15.065036 218.399156 13.943701 216.38509 12.989584 214.272755 C 11.966612 212.003235 11.101021 209.655115 10.392811 207.267703 C 9.615746 204.624837 8.976389 201.942664 8.47474 199.240851 C 7.914072 196.214835 7.461604 193.15933 7.127172 190.103826 C 6.753394 186.674975 6.468142 183.226485 6.271417 179.777981 C 6.045183 175.916853 5.897639 172.05571 5.809112 168.184747 C 5.720586 163.861854 5.671405 159.54878 5.681241 155.225886 L 5.681241 97.014106 C 5.671405 92.701032 5.720586 88.378131 5.809112 84.055237 C 5.897639 80.194101 6.045183 76.323139 6.271417 72.462003 C 6.468142 69.013506 6.753394 65.574836 7.127172 62.13617 C 7.461604 59.080665 7.914072 56.034984 8.47474 53.008956 C 8.976389 50.297317 9.615746 47.615155 10.392811 44.972292 C 11.101021 42.584873 11.966612 40.246576 12.989584 37.967229 C 13.943701 35.864728 15.065036 33.840824 16.353586 31.924995 C 17.592955 30.087764 19.009377 28.378252 20.573343 26.80629 C 22.147143 25.244151 23.868489 23.829383 25.707871 22.591462 C 27.625943 21.304417 29.652213 20.184394 31.767009 19.241215 C 34.039187 18.219439 36.390053 17.354858 38.7901 16.6573 C 41.436057 15.881143 44.121356 15.242533 46.836162 14.741469 C 49.865733 14.181458 52.924808 13.729518 55.983886 13.395476 C 59.426578 13.022134 62.879108 12.737216 66.331638 12.540721 C 70.20712 12.31475 74.08261 12.167379 77.9581 12.088781 C 82.286049 11.990533 86.614006 11.941409 90.941963 11.951234 L 165.06803 11.951234 Z M 165.077876 15.959741 C 169.376317 15.949916 173.674759 15.99904 177.973216 16.087463 C 181.799522 16.175886 185.625827 16.323257 189.452133 16.539402 C 192.835809 16.735898 196.219486 17.010992 199.583486 17.384332 C 202.554026 17.698726 205.514751 18.131016 208.445953 18.681203 C 211.023049 19.152792 213.580483 19.761928 216.098564 20.498786 C 218.321569 21.147221 220.495374 21.952852 222.600334 22.896029 C 224.508571 23.750785 226.338116 24.762737 228.069293 25.922059 C 229.692286 27.012609 231.207063 28.260355 232.59398 29.645648 C 233.980897 31.030941 235.230091 32.543956 236.331763 34.165043 C 237.492434 35.894202 238.505568 37.711787 239.361333 39.607968 C 240.305606 41.720292 241.112187 43.891565 241.761369 46.102139 C 242.508934 48.617282 243.108947 51.161898 243.590914 53.735987 C 244.131912 56.663768 244.564709 59.6112 244.889308 62.578282 C 245.263091 65.938355 245.538505 69.308252 245.735227 72.687976 C 245.951626 76.509812 246.10901 80.321821 246.187687 84.143656 C 246.276225 88.437084 246.325394 92.720685 246.325394 97.014106 C 246.325394 97.014106 246.325394 97.014106 246.325394 97.014106 L 246.325394 155.225886 C 246.325394 155.225886 246.325394 155.225886 246.325394 155.225886 C 246.325394 159.519306 246.276225 163.802907 246.187687 168.096328 C 246.10901 171.918164 245.951626 175.739999 245.735227 179.552015 C 245.538505 182.931739 245.263091 186.301629 244.889308 189.671533 C 244.564709 192.628784 244.131912 195.576216 243.590914 198.503994 C 243.108947 201.078094 242.508934 203.622706 241.761369 206.137845 C 241.112187 208.358253 240.305606 210.5197 239.361333 212.63202 C 238.505568 214.528209 237.492434 216.355617 236.331763 218.074952 C 235.230091 219.705853 233.980897 221.218876 232.59398 222.604172 C 231.207063 223.979634 229.692286 225.227385 228.069293 226.317935 C 226.338116 227.477251 224.508571 228.489201 222.600334 229.343951 C 220.495374 230.296956 218.321569 231.092775 216.098564 231.741198 C 213.580483 232.478056 211.023049 233.087202 208.445953 233.558787 C 205.514751 234.108972 202.554026 234.541264 199.583486 234.865483 C 196.219486 235.228995 192.835809 235.513922 189.452133 235.70058 C 185.625827 235.916726 181.799522 236.073926 177.973216 236.152526 C 173.674759 236.25078 169.376317 236.290072 165.077876 236.290072 C 165.077876 236.290072 165.077876 236.290072 165.06803 236.290072 L 90.941963 236.290072 C 90.932125 236.290072 90.932125 236.290072 90.932125 236.290072 C 86.633683 236.290072 82.335234 236.25078 78.036784 236.152526 C 74.210479 236.073926 70.384173 235.916726 66.557868 235.70058 C 63.174195 235.513922 59.790522 235.228995 56.426518 234.865483 C 53.455967 234.541264 50.495253 234.108972 47.564048 233.558787 C 44.986944 233.087202 42.429517 232.478056 39.911433 231.741198 C 37.688439 231.092775 35.514626 230.296956 33.409665 229.343951 C 31.501429 228.489201 29.671886 227.477251 27.940703 226.317935 C 26.31772 225.227385 24.802935 223.979634 23.416022 222.604172 C 22.029109 221.218876 20.779904 219.705853 19.678243 218.074952 C 18.517564 216.355617 17.504428 214.528209 16.648674 212.63202 C 15.704392 210.5197 14.897819 208.358253 14.248626 206.137845 C 13.50107 203.622706 12.901057 201.078094 12.419081 198.503994 C 11.878086 195.576216 11.445291 192.628784 11.120694 189.671533 C 10.746916 186.301629 10.471501 182.931739 10.274776 179.552015 C 10.058378 175.739999 9.900997 171.918164 9.822307 168.096328 C 9.733781 163.802907 9.6846 159.519306 9.6846 155.225886 C 9.6846 155.225886 9.6846 155.225886 9.6846 155.225886 L 9.6846 97.014106 C 9.6846 97.014106 9.6846 97.014106 9.6846 97.014106 C 9.6846 92.720685 9.733781 88.437084 9.822307 84.143656 C 9.900997 80.321821 10.058378 76.509812 10.274776 72.687976 C 10.471501 69.308252 10.746916 65.938355 11.120694 62.578282 C 11.445291 59.6112 11.878086 56.663768 12.419081 53.735987 C 12.901057 51.161898 13.50107 48.617282 14.248626 46.102139 C 14.897819 43.891565 15.704392 41.720292 16.648674 39.607968 C 17.504428 37.711787 18.517564 35.894202 19.678243 34.165043 C 20.779904 32.543956 22.029109 31.030941 23.416022 29.645648 C 24.802935 28.260355 26.31772 27.012609 27.940703 25.922059 C 29.671886 24.762737 31.501429 23.750785 33.409665 22.896029 C 35.514626 21.952852 37.688439 21.147221 39.911433 20.498786 C 42.429517 19.761928 44.986944 19.152792 47.564048 18.681203 C 50.495253 18.131016 53.455967 17.698726 56.426518 17.384332 C 59.790522 17.010992 63.174195 16.735898 66.557868 16.539402 C 70.384173 16.323257 74.210479 16.175886 78.036784 16.087463 C 82.335234 15.99904 86.633683 15.949916 90.932125 15.959741 C 90.932125 15.959741 90.932125 15.959741 90.941963 15.959741 L 165.06803 15.959741 C 165.077876 15.959741 165.077876 15.959741 165.077876 15.959741 Z"/>
 </g>
 <g>
  <g opacity=".2">
   <circle cx="117.125" cy="88.125" r="32.625" vector-effect="non-scaling-stroke"/>
  </g>
  <g opacity=".2">
   <circle fill="#041218" cx="117.125" cy="88.125" r="21.75" vector-effect="non-scaling-stroke"/>
  </g>
  <defs>
   <filter id="ZUT4UnAwRNjC6Ky9xV7UlN7KVKrJWvyg" width="400%" height="400%" x="-200%" y="-200%" color-interpolation-filters="sRGB" filterUnits="objectBoundingBox">
    <feGaussianBlur xmlns="http://www.w3.org/2000/svg" stdDeviation="4.294"/>
   </filter>
  </defs>
  <g opacity=".4" filter="url(#ZUT4UnAwRNjC6Ky9xV7UlN7KVKrJWvyg)">
   <path d="M 116.970122 84.50287 C 106.090172 84.50287 106.086189 91.752164 106.061941 99.00287 C 105.986183 103.482851 106.006116 112.834653 106.09022 126.629328 C 106.225143 148.680757 106.183672 155.601423 105.920208 156.549738 C 98.403302 155.757461 87.033823 152.719969 81.946918 148.694696 C 78.622151 146.057118 75.323021 143.639202 74.622847 143.327996 C 71.704085 142.030641 67.562799 142.847616 65.187979 145.197137 C 63.545878 146.821738 62.93845 148.270043 62.793848 150.87536 C 62.68336 152.8663 62.750351 153.337194 63.360579 154.656121 C 63.745047 155.487021 64.442082 156.602396 64.904728 157.134149 C 65.367353 157.665943 71.697019 165.8751 78.972034 175.38659 C 92.445077 193.001479 105.849532 199.533957 108.158578 200.19134 C 109.570293 200.593936 182.388039 200.606769 183.850048 200.205846 C 184.513847 200.023575 185.473377 199.412587 186.159177 198.73319 C 187.120187 197.78114 187.480966 197.08497 188.227486 194.782506 C 190.364785 188.190386 192.496524 178.164332 193.100751 172.593541 C 193.363571 166.120662 193.224141 165.87445 193.100751 160.628209 C 193.098428 160.529323 193.076109 160.442965 193.072472 160.34502 C 193.082622 155.682843 193.111634 151.742144 193.072472 149.753223 C 193.094224 142.502531 193.110901 135.253223 182.249286 135.253223 C 172.449394 135.253223 171.538138 141.192357 171.426101 147.67168 C 171.410157 147.845971 171.357955 148.020553 171.355051 148.195647 C 171.359034 146.443175 171.37607 143.572176 171.355051 142.503264 C 171.376803 135.252573 171.378974 128.003264 160.517692 128.003264 C 150.782709 128.003264 149.817315 133.865707 149.69452 140.294266 C 149.666241 140.309491 149.637962 140.320374 149.609476 140.337051 C 149.60931 140.299341 149.597155 139.947508 149.59497 139.869779 C 149.595842 138.566215 149.611647 136.120408 149.59497 135.253568 C 149.616722 128.002877 149.618893 120.753568 138.757611 120.753568 C 130.503069 120.753568 128.520855 124.949164 128.033602 130.141752 C 128.021281 130.144407 127.850903 130.183804 127.849451 130.184536 C 127.694671 130.240361 127.821186 121.375246 127.821186 111.832974 C 127.821186 105.29661 127.868298 101.41291 127.821186 99.003865 C 127.842924 91.753181 127.849451 84.503865 116.969652 84.503865 L 116.970122 84.50287 Z"/>
  </g>
  <path fill="#ebebeb" d="M 116.970122 80.875 C 106.090172 80.875 106.086189 88.124295 106.061941 95.375 C 105.986183 99.854989 106.006116 109.20679 106.09022 123.001465 C 106.225143 145.052894 106.183672 151.97356 105.920208 152.921876 C 98.403302 152.129584 87.033823 149.092106 81.946918 145.066833 C 78.622151 142.429241 75.323021 140.011325 74.622847 139.700134 C 71.704085 138.402779 67.562799 139.21974 65.187979 141.569261 C 63.545878 143.193876 62.93845 144.642167 62.793848 147.247483 C 62.68336 149.238423 62.750351 149.709332 63.360579 151.028259 C 63.745047 151.859159 64.442082 152.974534 64.904728 153.506286 C 65.367353 154.038067 71.697019 162.247237 78.972034 171.758728 C 92.445077 189.373617 105.849532 195.906095 108.158578 196.563478 C 109.570293 196.966074 182.388039 196.978907 183.850048 196.57797 C 184.513847 196.395713 185.473377 195.78471 186.159177 195.105313 C 187.120187 194.153278 187.480966 193.457093 188.227486 191.154643 C 190.364785 184.56251 192.496524 174.536469 193.100751 168.965678 C 193.363571 162.492786 193.224141 162.246588 193.100751 157.000346 C 193.098428 156.901447 193.076109 156.815103 193.072472 156.717157 C 193.082622 152.054967 193.111634 148.114281 193.072472 146.12536 C 193.094224 138.874669 193.110901 131.62536 182.249286 131.62536 C 172.449394 131.62536 171.538138 137.564495 171.426101 144.043817 C 171.410157 144.218109 171.357955 144.392691 171.355051 144.567771 C 171.359034 142.815299 171.37607 139.9443 171.355051 138.875388 C 171.376803 131.62471 171.378974 124.375388 160.517692 124.375388 C 150.782709 124.375388 149.817315 130.237844 149.69452 136.666403 C 149.666241 136.681628 149.637962 136.692497 149.609476 136.709174 C 149.60931 136.671478 149.597155 136.319632 149.59497 136.241917 C 149.595842 134.938339 149.611647 132.492531 149.59497 131.625706 C 149.616722 124.375014 149.618893 117.125706 138.757611 117.125706 C 130.503069 117.125706 128.520855 121.321302 128.033602 126.513889 C 128.021281 126.516531 127.850903 126.555941 127.849451 126.55666 C 127.694671 126.612485 127.821186 117.74737 127.821186 108.205098 C 127.821186 101.668747 127.868298 97.785048 127.821186 95.376003 C 127.842924 88.125311 127.849451 80.876003 116.969652 80.876003 L 116.970122 80.875 Z"/>
 </g>
</svg>
