<svg xmlns="http://www.w3.org/2000/svg" style="isolation:isolate" width="256" height="256" viewBox="0 0 256 256">
 <defs>
  <filter id="xQLwWnSc4ktkOevubHIuszw8GKokWMOB" width="400%" height="400%" x="-200%" y="-200%" color-interpolation-filters="sRGB" filterUnits="objectBoundingBox">
   <feGaussianBlur xmlns="http://www.w3.org/2000/svg" in="SourceGraphic" stdDeviation="4.294"/>
   <feOffset xmlns="http://www.w3.org/2000/svg" dx="0" dy="4" result="pf_100_offsetBlur"/>
   <feFlood xmlns="http://www.w3.org/2000/svg" flood-opacity=".4"/>
   <feComposite xmlns="http://www.w3.org/2000/svg" in2="pf_100_offsetBlur" operator="in" result="pf_100_dropShadow"/>
   <feBlend xmlns="http://www.w3.org/2000/svg" in="SourceGraphic" in2="pf_100_dropShadow" mode="normal"/>
  </filter>
 </defs>
 <g filter="url(#xQLwWnSc4ktkOevubHIuszw8GKokWMOB)">
  <linearGradient id="_lgradient_21" x1="0" x2="0" y1="0" y2="1" gradientTransform="matrix(244.648,0,0,228.338,5.807,12.075)" gradientUnits="userSpaceOnUse">
   <stop offset="0%" style="stop-color:#d0391f"/>
   <stop offset="100%" style="stop-color:#ff005d"/>
  </linearGradient>
  <path fill="url(#_lgradient_21)" d="M 165.816 12.075 C 239.871 12.075 250.455 22.632 250.455 96.619 L 250.455 155.87 C 250.455 229.856 239.871 240.413 165.816 240.413 L 90.446 240.413 C 16.39 240.413 5.807 229.856 5.807 155.87 L 5.807 96.619 C 5.807 22.632 16.39 12.075 90.446 12.075 L 165.816 12.075 Z"/>
 </g>
 <g opacity=".4">
  <linearGradient id="_lgradient_22" x1=".517" x2=".517" y1="0" y2="1" gradientTransform="matrix(244.65,0,0,228.34,5.68,11.95)" gradientUnits="userSpaceOnUse">
   <stop offset="0%" style="stop-color:#ffffff"/>
   <stop offset="12.5%" stop-opacity=".098" style="stop-color:#ffffff"/>
   <stop offset="92.5%" stop-opacity=".098" style="stop-color:#000000"/>
   <stop offset="100%" stop-opacity=".498" style="stop-color:#000000"/>
  </linearGradient>
  <path fill="url(#_lgradient_22)" fill-rule="evenodd" d="M 165.068 11.951 C 169.396 11.941 173.724 11.991 178.052 12.089 C 181.927 12.167 185.803 12.315 189.678 12.541 C 193.131 12.737 196.583 13.022 200.026 13.395 C 203.085 13.73 206.144 14.181 209.174 14.741 C 211.889 15.243 214.574 15.881 217.22 16.657 C 219.62 17.355 221.971 18.219 224.243 19.241 C 226.358 20.184 228.384 21.304 230.302 22.591 C 232.142 23.829 233.863 25.244 235.437 26.806 C 237.001 28.378 238.417 30.088 239.656 31.925 C 240.945 33.841 242.066 35.865 243.02 37.967 C 244.043 40.247 244.909 42.585 245.617 44.972 C 246.394 47.615 247.034 50.297 247.535 53.009 C 248.096 56.035 248.548 59.081 248.883 62.136 C 249.257 65.575 249.542 69.014 249.739 72.462 C 249.965 76.323 250.112 80.194 250.201 84.055 C 250.289 88.378 250.339 92.701 250.329 97.014 L 250.329 155.226 C 250.339 159.549 250.289 163.862 250.201 168.185 C 250.112 172.056 249.965 175.917 249.739 179.778 C 249.542 183.226 249.257 186.675 248.883 190.104 C 248.548 193.159 248.096 196.215 247.535 199.241 C 247.034 201.943 246.394 204.625 245.617 207.268 C 244.909 209.655 244.043 212.003 243.02 214.273 C 242.066 216.385 240.945 218.399 239.656 220.315 C 238.417 222.152 237.001 223.872 235.437 225.434 C 233.863 226.996 232.142 228.411 230.302 229.649 C 228.384 230.936 226.358 232.056 224.243 232.999 C 221.971 234.021 219.62 234.885 217.22 235.593 C 214.574 236.369 211.889 237.007 209.174 237.499 C 206.144 238.068 203.085 238.51 200.026 238.845 C 196.583 239.218 193.131 239.503 189.678 239.699 C 185.803 239.925 181.927 240.073 178.052 240.161 C 173.724 240.249 169.396 240.299 165.068 240.289 L 90.942 240.289 C 86.614 240.299 82.286 240.249 77.958 240.161 C 74.083 240.073 70.207 239.925 66.332 239.699 C 62.879 239.503 59.427 239.218 55.984 238.845 C 52.925 238.51 49.866 238.068 46.836 237.499 C 44.121 237.007 41.436 236.369 38.79 235.593 C 36.39 234.885 34.039 234.021 31.767 232.999 C 29.652 232.056 27.626 230.936 25.708 229.649 C 23.868 228.411 22.147 226.996 20.573 225.434 C 19.009 223.872 17.593 222.152 16.354 220.315 C 15.065 218.399 13.944 216.385 12.99 214.273 C 11.967 212.003 11.101 209.655 10.393 207.268 C 9.616 204.625 8.976 201.943 8.475 199.241 C 7.914 196.215 7.462 193.159 7.127 190.104 C 6.753 186.675 6.468 183.226 6.271 179.778 C 6.045 175.917 5.898 172.056 5.809 168.185 C 5.721 163.862 5.671 159.549 5.681 155.226 L 5.681 97.014 C 5.671 92.701 5.721 88.378 5.809 84.055 C 5.898 80.194 6.045 76.323 6.271 72.462 C 6.468 69.014 6.753 65.575 7.127 62.136 C 7.462 59.081 7.914 56.035 8.475 53.009 C 8.976 50.297 9.616 47.615 10.393 44.972 C 11.101 42.585 11.967 40.247 12.99 37.967 C 13.944 35.865 15.065 33.841 16.354 31.925 C 17.593 30.088 19.009 28.378 20.573 26.806 C 22.147 25.244 23.868 23.829 25.708 22.591 C 27.626 21.304 29.652 20.184 31.767 19.241 C 34.039 18.219 36.39 17.355 38.79 16.657 C 41.436 15.881 44.121 15.243 46.836 14.741 C 49.866 14.181 52.925 13.73 55.984 13.395 C 59.427 13.022 62.879 12.737 66.332 12.541 C 70.207 12.315 74.083 12.167 77.958 12.089 C 82.286 11.991 86.614 11.941 90.942 11.951 L 165.068 11.951 Z M 165.078 15.96 C 169.376 15.95 173.675 15.999 177.973 16.087 C 181.8 16.176 185.626 16.323 189.452 16.539 C 192.836 16.736 196.219 17.011 199.583 17.384 C 202.554 17.699 205.515 18.131 208.446 18.681 C 211.023 19.153 213.58 19.762 216.099 20.499 C 218.322 21.147 220.495 21.953 222.6 22.896 C 224.509 23.751 226.338 24.763 228.069 25.922 C 229.692 27.013 231.207 28.26 232.594 29.646 C 233.981 31.031 235.23 32.544 236.332 34.165 C 237.492 35.894 238.506 37.712 239.361 39.608 C 240.306 41.72 241.112 43.892 241.761 46.102 C 242.509 48.617 243.109 51.162 243.591 53.736 C 244.132 56.664 244.565 59.611 244.889 62.578 C 245.263 65.938 245.539 69.308 245.735 72.688 C 245.952 76.51 246.109 80.322 246.188 84.144 C 246.276 88.437 246.325 92.721 246.325 97.014 C 246.325 97.014 246.325 97.014 246.325 97.014 L 246.325 155.226 C 246.325 155.226 246.325 155.226 246.325 155.226 C 246.325 159.519 246.276 163.803 246.188 168.096 C 246.109 171.918 245.952 175.74 245.735 179.552 C 245.539 182.932 245.263 186.302 244.889 189.672 C 244.565 192.629 244.132 195.576 243.591 198.504 C 243.109 201.078 242.509 203.623 241.761 206.138 C 241.112 208.358 240.306 210.52 239.361 212.632 C 238.506 214.528 237.492 216.356 236.332 218.075 C 235.23 219.706 233.981 221.219 232.594 222.604 C 231.207 223.98 229.692 225.227 228.069 226.318 C 226.338 227.477 224.509 228.489 222.6 229.344 C 220.495 230.297 218.322 231.093 216.099 231.741 C 213.58 232.478 211.023 233.087 208.446 233.559 C 205.515 234.109 202.554 234.541 199.583 234.865 C 196.219 235.229 192.836 235.514 189.452 235.701 C 185.626 235.917 181.8 236.074 177.973 236.153 C 173.675 236.251 169.376 236.29 165.078 236.29 C 165.078 236.29 165.078 236.29 165.068 236.29 L 90.942 236.29 C 90.932 236.29 90.932 236.29 90.932 236.29 C 86.634 236.29 82.335 236.251 78.037 236.153 C 74.21 236.074 70.384 235.917 66.558 235.701 C 63.174 235.514 59.791 235.229 56.427 234.865 C 53.456 234.541 50.495 234.109 47.564 233.559 C 44.987 233.087 42.43 232.478 39.911 231.741 C 37.688 231.093 35.515 230.297 33.41 229.344 C 31.501 228.489 29.672 227.477 27.941 226.318 C 26.318 225.227 24.803 223.98 23.416 222.604 C 22.029 221.219 20.78 219.706 19.678 218.075 C 18.518 216.356 17.504 214.528 16.649 212.632 C 15.704 210.52 14.898 208.358 14.249 206.138 C 13.501 203.623 12.901 201.078 12.419 198.504 C 11.878 195.576 11.445 192.629 11.121 189.672 C 10.747 186.302 10.472 182.932 10.275 179.552 C 10.058 175.74 9.901 171.918 9.822 168.096 C 9.734 163.803 9.685 159.519 9.685 155.226 C 9.685 155.226 9.685 155.226 9.685 155.226 L 9.685 97.014 C 9.685 97.014 9.685 97.014 9.685 97.014 C 9.685 92.721 9.734 88.437 9.822 84.144 C 9.901 80.322 10.058 76.51 10.275 72.688 C 10.472 69.308 10.747 65.938 11.121 62.578 C 11.445 59.611 11.878 56.664 12.419 53.736 C 12.901 51.162 13.501 48.617 14.249 46.102 C 14.898 43.892 15.704 41.72 16.649 39.608 C 17.504 37.712 18.518 35.894 19.678 34.165 C 20.78 32.544 22.029 31.031 23.416 29.646 C 24.803 28.26 26.318 27.013 27.941 25.922 C 29.672 24.763 31.501 23.751 33.41 22.896 C 35.515 21.953 37.688 21.147 39.911 20.499 C 42.43 19.762 44.987 19.153 47.564 18.681 C 50.495 18.131 53.456 17.699 56.427 17.384 C 59.791 17.011 63.174 16.736 66.558 16.539 C 70.384 16.323 74.21 16.176 78.037 16.087 C 82.335 15.999 86.634 15.95 90.932 15.96 C 90.932 15.96 90.932 15.96 90.942 15.96 L 165.068 15.96 C 165.078 15.96 165.078 15.96 165.078 15.96 Z"/>
 </g>
 <g>
  <defs>
   <filter id="rfiM2UKhDFqEmewc6CcgvSlIEpvfKKxO" width="400%" height="400%" x="-200%" y="-200%" color-interpolation-filters="sRGB" filterUnits="objectBoundingBox">
    <feGaussianBlur xmlns="http://www.w3.org/2000/svg" stdDeviation="4.294"/>
   </filter>
  </defs>
  <g opacity=".4" filter="url(#rfiM2UKhDFqEmewc6CcgvSlIEpvfKKxO)">
   <path fill="#111111" d="M 87.025 75.391 C 80.712 75.591 74.616 78.506 69.946 82.923 C 65.201 87.411 61.8 93.58 61.11 100.213 C 60.766 103.527 61.1 106.919 62.159 110.066 C 63.217 113.212 65.006 116.112 67.384 118.352 C 70.186 120.991 73.694 122.658 76.913 124.725 C 78.523 125.754 80.068 126.907 81.402 128.306 C 82.735 129.698 83.849 131.358 84.46 133.221 C 85.003 134.874 85.126 136.658 84.887 138.383 C 84.64 140.116 84.027 141.79 83.129 143.269 C 81.333 146.227 78.435 148.38 75.256 149.533 C 71.57 150.867 67.511 150.932 63.957 152.614 C 61.145 153.948 58.777 156.268 57.302 159.088 C 55.827 161.908 55.244 165.953 55.603 169.143 C 56.024 172.891 57.758 176.45 60.346 179.096 C 62.934 181.743 66.358 183.468 69.946 184.041 C 75.209 184.874 82.647 183.127 86.469 179.278 C 88.383 177.357 89.832 174.95 90.652 172.311 C 91.464 169.679 91.63 166.106 91.101 163.394 C 90.695 161.321 89.912 159.356 89.18 157.384 C 88.441 155.42 87.737 153.404 87.563 151.302 C 87.252 147.583 86.8 143.806 89.178 141.007 C 91.549 138.209 94.877 134.554 98.378 133.742 C 100.64 133.213 102.989 133.089 105.273 133.503 C 107.556 133.909 109.767 134.844 111.616 136.286 C 113.465 137.736 114.944 141.515 115.763 143.77 C 116.589 146.017 116.734 148.554 116.075 150.86 C 115.408 153.223 112.158 155.26 110.694 157.203 C 109.237 159.146 107.7 161.096 106.83 163.394 C 105.873 165.925 105.778 168.774 106.431 171.405 C 107.091 174.037 108.468 176.444 110.288 178.401 C 112.296 180.569 116.655 182.186 119.417 183.07 C 122.186 183.962 125.006 184.121 127.899 184.121 C 130.792 184.121 133.815 183.962 136.584 183.07 C 139.346 182.186 143.702 180.569 145.71 178.401 C 147.53 176.444 148.907 174.037 149.567 171.405 C 150.22 168.774 150.125 165.925 149.168 163.394 C 148.298 161.096 146.761 159.146 145.304 157.203 C 143.84 155.26 140.593 153.223 139.926 150.86 C 139.266 148.554 139.411 146.017 140.238 143.77 C 141.057 141.515 142.536 137.736 144.385 136.286 C 146.233 134.844 148.445 133.909 150.728 133.503 C 153.012 133.089 155.361 133.213 157.623 133.742 C 161.124 134.554 164.452 138.209 166.823 141.007 C 169.2 143.806 168.75 147.583 168.438 151.302 C 168.264 153.404 167.561 155.42 166.822 157.384 C 166.089 159.356 165.306 161.321 164.9 163.394 C 164.371 166.106 164.538 169.679 165.35 172.311 C 166.169 174.95 167.619 177.357 169.533 179.278 C 173.354 183.127 180.793 184.874 186.056 184.041 C 189.645 183.468 193.066 181.743 195.654 179.096 C 198.243 176.45 199.975 172.891 200.396 169.143 C 200.758 165.953 200.171 161.908 198.699 159.088 C 197.22 156.268 194.857 153.948 192.044 152.614 C 188.492 150.932 184.432 150.867 180.742 149.533 C 177.567 148.38 174.667 146.227 172.869 143.269 C 171.977 141.79 171.361 140.116 171.114 138.383 C 170.875 136.658 170.998 134.874 171.542 133.221 C 172.151 131.358 173.267 129.698 174.601 128.306 C 175.935 126.907 177.48 125.754 179.089 124.725 C 182.308 122.658 185.817 120.991 188.615 118.352 C 190.993 116.112 192.784 113.212 193.842 110.066 C 194.901 106.919 195.234 103.527 194.893 100.213 C 194.205 93.58 190.797 87.411 186.056 82.923 C 181.387 78.506 175.29 75.591 168.976 75.391 C 165.822 75.29 162.654 75.857 159.747 77.132 C 156.84 78.407 154.194 80.394 152.185 82.923 C 149.88 85.823 148.43 89.339 147.103 92.833 C 145.777 96.335 144.522 99.916 142.514 103.041 C 139.201 108.203 133.967 111.623 128 111.623 C 122.034 111.623 116.8 108.203 113.487 103.041 C 111.478 99.916 110.224 96.335 108.898 92.833 C 107.571 89.339 106.121 85.823 103.815 82.923 C 101.807 80.394 99.161 78.407 96.254 77.132 C 93.347 75.857 90.179 75.29 87.025 75.391 Z M 128 118.874 C 132.004 118.874 135.25 122.12 135.25 126.124 C 135.25 130.128 132.004 133.374 128 133.374 C 123.997 133.374 120.751 130.128 120.751 126.124 C 120.751 122.12 123.997 118.874 128 118.874 Z"/>
  </g>
  <path fill="#ffffff" d="M 87.025 71.767 C 80.712 71.967 74.616 74.882 69.946 79.299 C 65.201 83.787 61.8 89.956 61.11 96.59 C 60.766 99.903 61.1 103.295 62.159 106.442 C 63.217 109.588 65.006 112.488 67.384 114.728 C 70.186 117.367 73.694 119.035 76.913 121.101 C 78.523 122.13 80.068 123.283 81.402 124.682 C 82.735 126.074 83.849 127.734 84.46 129.597 C 85.003 131.25 85.126 133.034 84.887 134.759 C 84.64 136.492 84.027 138.166 83.129 139.645 C 81.333 142.603 78.435 144.756 75.256 145.909 C 71.57 147.243 67.511 147.308 63.957 148.99 C 61.145 150.324 58.777 152.644 57.302 155.464 C 55.827 158.284 55.244 162.329 55.603 165.519 C 56.024 169.267 57.758 172.826 60.346 175.473 C 62.934 178.119 66.358 179.844 69.946 180.417 C 75.209 181.25 82.647 179.503 86.469 175.654 C 88.383 173.733 89.832 171.326 90.652 168.687 C 91.464 166.055 91.63 162.482 91.101 159.771 C 90.695 157.697 89.912 155.732 89.18 153.761 C 88.441 151.796 87.737 149.78 87.563 147.678 C 87.252 143.959 86.8 140.182 89.178 137.383 C 91.549 134.585 94.877 130.93 98.378 130.118 C 100.64 129.589 102.989 129.465 105.273 129.879 C 107.556 130.285 109.767 131.22 111.616 132.663 C 113.465 134.112 114.944 137.891 115.763 140.146 C 116.589 142.393 116.734 144.93 116.075 147.236 C 115.408 149.599 112.158 151.636 110.694 153.579 C 109.237 155.522 107.7 157.472 106.83 159.771 C 105.873 162.301 105.778 165.15 106.431 167.781 C 107.091 170.413 108.468 172.82 110.288 174.777 C 112.296 176.945 116.655 178.562 119.417 179.446 C 122.186 180.338 125.006 180.497 127.899 180.497 C 130.792 180.497 133.815 180.338 136.584 179.446 C 139.346 178.562 143.702 176.945 145.71 174.777 C 147.53 172.82 148.907 170.413 149.567 167.781 C 150.22 165.15 150.125 162.301 149.168 159.771 C 148.298 157.472 146.761 155.522 145.304 153.579 C 143.84 151.636 140.593 149.599 139.926 147.236 C 139.266 144.93 139.411 142.393 140.238 140.146 C 141.057 137.891 142.536 134.112 144.385 132.663 C 146.233 131.22 148.445 130.285 150.728 129.879 C 153.012 129.465 155.361 129.589 157.623 130.118 C 161.124 130.93 164.452 134.585 166.823 137.383 C 169.2 140.182 168.75 143.959 168.438 147.678 C 168.264 149.78 167.561 151.796 166.822 153.761 C 166.089 155.732 165.306 157.697 164.9 159.771 C 164.371 162.482 164.538 166.055 165.35 168.687 C 166.169 171.326 167.619 173.733 169.533 175.654 C 173.354 179.503 180.793 181.251 186.056 180.417 C 189.645 179.844 193.066 178.119 195.654 175.473 C 198.243 172.826 199.975 169.267 200.396 165.519 C 200.758 162.329 200.171 158.284 198.699 155.464 C 197.22 152.644 194.857 150.324 192.044 148.99 C 188.492 147.308 184.432 147.243 180.742 145.909 C 177.567 144.756 174.667 142.603 172.869 139.645 C 171.977 138.166 171.361 136.492 171.114 134.759 C 170.875 133.034 170.998 131.25 171.542 129.597 C 172.151 127.734 173.267 126.074 174.601 124.682 C 175.935 123.283 177.48 122.13 179.089 121.101 C 182.308 119.035 185.817 117.367 188.615 114.728 C 190.993 112.488 192.784 109.588 193.842 106.442 C 194.901 103.295 195.234 99.903 194.893 96.59 C 194.205 89.956 190.797 83.787 186.056 79.299 C 181.387 74.882 175.29 71.967 168.976 71.767 C 165.822 71.666 162.654 72.233 159.747 73.508 C 156.84 74.783 154.194 76.77 152.185 79.299 C 149.88 82.199 148.43 85.715 147.103 89.209 C 145.777 92.711 144.522 96.292 142.514 99.417 C 139.201 104.579 133.967 107.999 128 107.999 C 122.034 107.999 116.8 104.579 113.487 99.417 C 111.478 96.292 110.224 92.711 108.898 89.209 C 107.571 85.715 106.121 82.199 103.815 79.299 C 101.807 76.77 99.161 74.783 96.254 73.508 C 93.347 72.233 90.179 71.666 87.025 71.767 Z M 128 115.25 C 132.004 115.25 135.25 118.496 135.25 122.5 C 135.25 126.504 132.004 129.75 128 129.75 C 123.997 129.75 120.751 126.504 120.751 122.5 C 120.751 118.496 123.997 115.25 128 115.25 Z"/>
 </g>
</svg>
