<svg xmlns="http://www.w3.org/2000/svg" style="isolation:isolate" width="256" height="256" viewBox="0 0 256 256">
 <g filter="url(#O1FwXARX7EOVEvrkGDnlbPJVNnuvalQT)">
  <linearGradient id="_lgradient_75" x1=".533" x2=".533" y1="1" y2="0" gradientTransform="matrix(244.648,0,0,228.338,5.676,11.947)" gradientUnits="userSpaceOnUse">
   <stop offset="0%" style="stop-color:#53861a"/>
   <stop offset="100%" style="stop-color:#76b331"/>
  </linearGradient>
  <path fill="url(#_lgradient_75)" d="M 165.685 11.947 C 239.74 11.947 250.324 22.504 250.324 96.491 L 250.324 155.742 C 250.324 229.728 239.74 240.285 165.685 240.285 L 90.315 240.285 C 16.26 240.285 5.676 229.728 5.676 155.742 L 5.676 96.491 C 5.676 22.504 16.26 11.947 90.315 11.947 L 165.685 11.947 L 165.685 11.947 Z"/>
 </g>
 <defs>
  <filter id="O1FwXARX7EOVEvrkGDnlbPJVNnuvalQT" width="400%" height="400%" x="-200%" y="-200%" color-interpolation-filters="sRGB" filterUnits="objectBoundingBox">
   <feGaussianBlur xmlns="http://www.w3.org/2000/svg" in="SourceGraphic" stdDeviation="4.294"/>
   <feOffset xmlns="http://www.w3.org/2000/svg" dx="0" dy="4" result="pf_100_offsetBlur"/>
   <feFlood xmlns="http://www.w3.org/2000/svg" flood-opacity=".4"/>
   <feComposite xmlns="http://www.w3.org/2000/svg" in2="pf_100_offsetBlur" operator="in" result="pf_100_dropShadow"/>
   <feBlend xmlns="http://www.w3.org/2000/svg" in="SourceGraphic" in2="pf_100_dropShadow" mode="normal"/>
  </filter>
 </defs>
 <g style="opacity:0.4">
  <g opacity=".4">
   <path fill="none" d="M 166.444 11.95 C 240.85 11.95 251.484 22.507 251.484 96.494 L 251.484 155.745 C 251.484 229.731 240.85 240.288 166.444 240.288 L 90.719 240.288 C 16.314 240.288 5.68 229.731 5.68 155.745 L 5.68 96.494 C 5.68 22.507 16.314 11.95 90.719 11.95 L 166.444 11.95 L 166.444 11.95 Z"/>
  </g>
  <g opacity=".4">
   <path fill="#f7f7f7" fill-opacity=".961" d="M 64.121 239.56 C 64.671 239.596 65.142 239.658 65.702 239.691 C 66.137 239.716 66.729 239.702 67.17 239.726 L 67.131 232.134 L 93.76 207.669 L 93.76 199.513 L 106.05 187.28 L 106.05 181.165 L 112.194 175.048 L 112.194 158.739 L 104.001 150.583 L 87.614 150.583 L 79.421 142.429 L 58.938 142.429 L 50.743 150.583 L 50.743 170.972 L 67.186 185.312 L 67.131 203.591 L 60.987 209.708 L 60.987 236.21 L 64.121 239.56 L 64.121 239.56 Z M 99.904 81.267 L 93.76 87.384 L 99.904 87.384 L 101.953 89.423 L 104.001 89.423 L 106.05 87.384 L 99.904 81.267 L 99.904 81.267 Z M 177.742 109.809 L 153.162 109.809 L 138.824 124.08 L 138.824 144.468 L 149.065 154.662 L 163.404 154.662 L 169.549 160.778 L 169.549 166.894 L 173.646 170.971 L 173.646 195.436 L 189.202 211.801 L 214.89 186.234 L 214.613 162.816 L 235.097 142.429 L 226.903 142.429 L 206.42 122.042 L 206.42 113.887 L 181.839 113.887 L 177.742 109.809 L 177.742 109.809 Z"/>
  </g>
  <g opacity=".4">
   <path fill="#f7f7f7" fill-opacity=".961" d="M 251.484 117.964 L 251.484 96.493 C 251.484 87.245 251.317 78.988 250.881 71.618 C 250.682793 68.144298 250.393026 64.676426 250.012 61.218 C 249.646 57.964 249.2 54.92 248.66 52.071 C 248.12 49.223 247.486 46.57 246.746 44.101 C 246.007 41.632 245.161 39.345 244.195 37.23 C 243.581 35.883 242.83 34.719 242.115 33.507 L 239.193 36.415 L 226.903 36.415 L 214.613 48.648 L 206.42 40.493 L 181.84 40.493 L 169.55 52.726 L 169.55 62.919 L 181.84 62.919 L 181.84 56.802 L 190.033 56.802 L 190.033 64.958 L 185.935 69.034 L 169.55 69.31 L 163.404 75.151 L 155.211 75.151 L 155.211 83.306 L 149.065 89.423 L 149.065 101.653 L 161.355 101.653 L 169.55 93.499 L 177.743 93.499 L 177.743 97.577 L 185.935 105.732 L 190.033 105.732 L 190.033 101.653 L 181.84 93.499 L 190.033 93.499 L 198.225 101.653 L 208.467 101.653 L 202.323 95.538 L 208.467 89.423 L 214.613 89.423 L 220.757 95.538 L 214.613 95.538 L 208.467 101.653 L 214.501 107.659 L 214.613 113.886 L 206.42 113.886 L 231.001 138.351 L 235.096 138.351 L 239.193 134.275 L 247.386 126.118 L 239.193 117.964 L 251.484 117.964 L 251.484 117.964 Z"/>
  </g>
  <g opacity=".4">
   <path fill="#f7f7f7" fill-opacity=".961" d="M 157.259 71.073 L 157.259 64.957 L 163.404 58.841 L 163.404 71.073 L 157.259 71.073 L 157.259 71.073 Z M 220.758 191.359 L 220.758 178.575 L 228.952 170.971 L 228.952 191.359 L 220.758 191.359 L 220.758 191.359 Z M 136.775 11.95 L 90.718 11.95 C 89.929 11.95 89.37 11.999 88.595 12.001 L 81.47 20.105 L 93.76 32.337 L 93.76 45.12 L 108.099 60.88 L 116.292 60.88 L 116.292 52.726 L 128.582 40.493 L 128.582 32.337 L 136.775 24.183 L 136.775 11.95 L 136.775 11.95 Z M 126.533 56.802 L 132.679 56.802 L 138.824 62.918 L 126.533 62.918 L 126.533 56.802 L 126.533 56.802 Z M 71.228 124.08 L 65.083 124.08 L 58.937 130.197 L 71.228 130.197 L 71.228 124.08 L 71.228 124.08 Z"/>
  </g>
  <g opacity=".4">
   <path fill="#f7f7f7" fill-opacity=".961" d="M 16.585 30.96 C 16.478 31.112 16.34 31.228 16.235 31.382 C 14.982433 33.235345 13.889507 35.191707 12.968 37.23 C 12.003 39.345 11.157 41.632 10.417 44.101 C 9.677 46.57 9.044 49.223 8.504 52.071 C 7.964 54.92 7.518 57.964 7.152 61.218 C 6.770622 64.676416 6.480521 68.144288 6.282 71.618 C 5.846 78.988 5.68 87.245 5.68 96.493 L 5.68 117.964 L 13.873 126.118 L 26.163 126.118 L 46.648 146.507 L 46.648 122.042 L 58.938 109.81 L 67.131 109.81 L 79.421 97.577 L 91.711 97.577 L 85.567 91.46 L 97.857 77.191 L 85.567 64.958 L 67.131 64.958 L 67.131 81.267 L 58.938 81.267 L 50.743 73.112 L 50.743 64.958 L 63.034 52.726 L 73.277 52.726 L 73.277 44.569 L 60.987 32.337 L 40.502 32.337 L 40.502 44.569 L 30.26 44.569 L 16.585 30.96 L 16.585 30.96 Z M 67.131 12.515 C 66.702 12.538 66.126 12.523 65.702 12.548 C 61.997 12.765 58.513 13.048 55.241 13.411 C 51.969 13.775 48.907 14.219 46.042 14.755 C 43.631093 15.212274 41.242281 15.779195 38.883 16.454 L 46.648 24.183 L 67.131 24.183 L 67.131 12.515 L 67.131 12.515 Z"/>
  </g>
 </g>
 <g style="opacity:0.1" filter="url(#FraFi1AHE1qHFvJwWJhQb5x7vfRIgSxO)">
  <g opacity=".1">
   <linearGradient id="_lgradient_76" x1=".5" x2=".5" y1="1.056" y2="-.056" gradientTransform="matrix(146.789,0,0,146.789,55.586,54.815)" gradientUnits="userSpaceOnUse">
    <stop offset="0%" style="stop-color:#000000"/>
    <stop offset="51.661%" style="stop-color:#000000"/>
    <stop offset="100%" style="stop-color:#000000"/>
   </linearGradient>
   <path fill="url(#_lgradient_76)" d="M 202.375 54.815 L 142.188 89.66 C 127.468434 84.611043 111.158542 88.380385 100.147 99.376 C 89.168155 110.385641 85.405944 126.680669 90.447 141.389 L 55.586 201.604 L 115.772 166.758 C 130.491554 171.807204 146.801578 168.037831 157.813 157.042 C 168.791845 146.032359 172.554056 129.737331 167.513 115.029 L 202.375 54.815 L 202.375 54.815 Z"/>
  </g>
 </g>
 <defs>
  <filter id="FraFi1AHE1qHFvJwWJhQb5x7vfRIgSxO" width="400%" height="400%" x="-200%" y="-200%" color-interpolation-filters="sRGB" filterUnits="objectBoundingBox">
   <feGaussianBlur xmlns="http://www.w3.org/2000/svg" stdDeviation=".72"/>
  </filter>
 </defs>
 <path fill="#e93549" d="M 109.408 106.598 L 202.375 52.776 L 148.552 145.742 L 109.408 106.598 L 109.408 106.598 Z"/>
 <g opacity=".5">
  <path fill="#ffffff" d="M 202.375 52.776 L 109.409 106.599 L 55.586 199.565 L 57.362 198.537 L 109.409 108.638 L 200.599 55.842 L 202.375 52.776 L 202.375 52.776 Z"/>
 </g>
 <path fill="#dfdfdf" d="M 109.408 106.598 L 55.586 199.565 L 148.552 145.742 L 109.408 106.598 L 109.408 106.598 Z"/>
 <g opacity=".2">
  <path fill="#ffffff" d="M 202.375 52.776 L 109.409 106.599 L 55.586 199.565 L 59.01 197.582 L 129.701 126.891 L 200.392 56.2 L 202.375 52.776 L 202.375 52.776 Z"/>
 </g>
 <defs>
  <filter id="OX3d7WDP665W7eNCqS8VMdIEX0ul2yDt" width="400%" height="400%" x="-200%" y="-200%" color-interpolation-filters="sRGB" filterUnits="objectBoundingBox">
   <feGaussianBlur xmlns="http://www.w3.org/2000/svg" stdDeviation=".221"/>
  </filter>
 </defs>
 <g opacity=".2" filter="url(#OX3d7WDP665W7eNCqS8VMdIEX0ul2yDt)">
  <path d="M 100.144733 98.365669 C 116.057701 82.452702 141.896323 82.452702 157.809291 98.365669 C 173.722259 114.278637 173.722259 140.11726 157.809291 156.030227 C 141.896323 171.943195 116.057701 171.943195 100.144733 156.030227 C 84.231765 140.11726 84.231765 114.278637 100.144733 98.365669 Z"/>
 </g>
 <path fill="#f2f2f2" d="M 100.157166 97.357653 C 116.070134 81.444685 141.908756 81.444685 157.821724 97.357653 C 173.734692 113.270621 173.734692 139.109243 157.821724 155.022211 C 141.908756 170.935179 116.070134 170.935179 100.157166 155.022211 C 84.244198 139.109243 84.244198 113.270621 100.157166 97.357653 Z"/>
 <path fill="#ffffff" d="M 129.575 85.4 C 118.555563 85.23851 107.940039 89.544528 100.147 97.337 C 92.34107 105.168298 88.049921 115.833735 88.257 126.889 C 88.584035 116.541164 92.834773 106.70512 100.147 99.376 C 116.071479 83.453067 141.888521 83.453067 157.813 99.376 C 165.266835 106.854448 169.529139 116.932698 169.703 127.49 C 170.076257 116.227877 165.77242 105.313362 157.813 97.337 C 150.311676 89.835962 140.182155 85.553928 129.575 85.4 L 129.575 85.4 Z"/>
 <g opacity=".1">
  <path fill="#ffffff" d="M 87.22 11.83 L 168.769 11.83 L 168.769 240.168 L 87.22 240.168 L 87.22 11.83 Z"/>
 </g>
 <g opacity=".1">
  <path fill="#ffffff" d="M 5.676 126.116 L 5.676 155.742 C 5.676 229.728 16.26 240.285 90.315 240.285 L 165.685 240.285 C 239.74 240.285 250.324 229.728 250.324 155.742 L 250.324 126.116 L 5.676 126.116 L 5.676 126.116 Z"/>
 </g>
 <g opacity=".4">
  <linearGradient id="_lgradient_77" x1=".517" x2=".517" y1="0" y2="1" gradientTransform="matrix(244.65,0,0,228.34,5.68,11.95)" gradientUnits="userSpaceOnUse">
   <stop offset="0%" style="stop-color:#ffffff"/>
   <stop offset="12.5%" stop-opacity=".098" style="stop-color:#ffffff"/>
   <stop offset="92.5%" stop-opacity=".098" style="stop-color:#000000"/>
   <stop offset="100%" stop-opacity=".498" style="stop-color:#000000"/>
  </linearGradient>
  <path fill="url(#_lgradient_77)" fill-rule="evenodd" d="M 165.06803 11.951234 C 169.395994 11.941409 173.723944 11.990533 178.051908 12.088781 C 181.927398 12.167379 185.802873 12.31475 189.678362 12.540721 C 193.1309 12.737216 196.583423 13.022134 200.026115 13.395476 C 203.085193 13.729518 206.144271 14.181458 209.173842 14.741469 C 211.888645 15.242533 214.57394 15.881143 217.219897 16.6573 C 219.619947 17.354858 221.970814 18.219439 224.242988 19.241215 C 226.357793 20.184394 228.384061 21.304417 230.302129 22.591462 C 232.141505 23.829383 233.862851 25.244151 235.436659 26.80629 C 237.000621 28.378252 238.417046 30.087764 239.656409 31.924995 C 240.944972 33.840824 242.066305 35.864728 243.020409 37.967229 C 244.043389 40.246576 244.908985 42.584873 245.617197 44.972292 C 246.394255 47.615155 247.033606 50.297317 247.535265 53.008956 C 248.095924 56.034984 248.548399 59.080665 248.882828 62.13617 C 249.256611 65.574836 249.541856 69.013506 249.738578 72.462003 C 249.964823 76.323139 250.112361 80.194101 250.200884 84.055237 C 250.289421 88.378131 250.338591 92.701032 250.32876 97.014106 L 250.32876 155.225886 C 250.338591 159.54878 250.289421 163.861854 250.200884 168.184747 C 250.112361 172.05571 249.964823 175.916853 249.738578 179.777981 C 249.541856 183.226485 249.256611 186.674975 248.882828 190.103826 C 248.548399 193.15933 248.095924 196.214835 247.535265 199.240851 C 247.033606 201.942664 246.394255 204.624837 245.617197 207.267703 C 244.908985 209.655115 244.043389 212.003235 243.020409 214.272755 C 242.066305 216.38509 240.944972 218.399156 239.656409 220.314999 C 238.417046 222.152226 237.000621 223.871561 235.436659 225.433697 C 233.862851 226.995832 232.141505 228.410601 230.302129 229.648532 C 228.384061 230.935575 226.357793 232.055598 224.242988 232.998768 C 221.970814 234.020552 219.619947 234.885137 217.219897 235.592507 C 214.57394 236.368672 211.888645 237.007276 209.173842 237.498515 C 206.144271 238.068354 203.085193 238.510465 200.026115 238.844519 C 196.583423 239.21785 193.1309 239.502777 189.678362 239.699269 C 185.802873 239.925235 181.927398 240.072615 178.051908 240.161035 C 173.723944 240.249454 169.395994 240.298581 165.06803 240.288762 L 90.941963 240.288762 C 86.614006 240.298581 82.286049 240.249454 77.9581 240.161035 C 74.08261 240.072615 70.20712 239.925235 66.331638 239.699269 C 62.879108 239.502777 59.426578 239.21785 55.983886 238.844519 C 52.924808 238.510465 49.865733 238.068354 46.836162 237.498515 C 44.121356 237.007276 41.436057 236.368672 38.7901 235.592507 C 36.390053 234.885137 34.039187 234.020552 31.767009 232.998768 C 29.652213 232.055598 27.625943 230.935575 25.707871 229.648532 C 23.868489 228.410601 22.147143 226.995832 20.573343 225.433697 C 19.009377 223.871561 17.592955 222.152226 16.353586 220.314999 C 15.065036 218.399156 13.943701 216.38509 12.989584 214.272755 C 11.966612 212.003235 11.101021 209.655115 10.392811 207.267703 C 9.615746 204.624837 8.976389 201.942664 8.47474 199.240851 C 7.914072 196.214835 7.461604 193.15933 7.127172 190.103826 C 6.753394 186.674975 6.468142 183.226485 6.271417 179.777981 C 6.045183 175.916853 5.897639 172.05571 5.809112 168.184747 C 5.720586 163.861854 5.671405 159.54878 5.681241 155.225886 L 5.681241 97.014106 C 5.671405 92.701032 5.720586 88.378131 5.809112 84.055237 C 5.897639 80.194101 6.045183 76.323139 6.271417 72.462003 C 6.468142 69.013506 6.753394 65.574836 7.127172 62.13617 C 7.461604 59.080665 7.914072 56.034984 8.47474 53.008956 C 8.976389 50.297317 9.615746 47.615155 10.392811 44.972292 C 11.101021 42.584873 11.966612 40.246576 12.989584 37.967229 C 13.943701 35.864728 15.065036 33.840824 16.353586 31.924995 C 17.592955 30.087764 19.009377 28.378252 20.573343 26.80629 C 22.147143 25.244151 23.868489 23.829383 25.707871 22.591462 C 27.625943 21.304417 29.652213 20.184394 31.767009 19.241215 C 34.039187 18.219439 36.390053 17.354858 38.7901 16.6573 C 41.436057 15.881143 44.121356 15.242533 46.836162 14.741469 C 49.865733 14.181458 52.924808 13.729518 55.983886 13.395476 C 59.426578 13.022134 62.879108 12.737216 66.331638 12.540721 C 70.20712 12.31475 74.08261 12.167379 77.9581 12.088781 C 82.286049 11.990533 86.614006 11.941409 90.941963 11.951234 L 165.06803 11.951234 Z M 165.077876 15.959741 C 169.376317 15.949916 173.674759 15.99904 177.973216 16.087463 C 181.799522 16.175886 185.625827 16.323257 189.452133 16.539402 C 192.835809 16.735898 196.219486 17.010992 199.583486 17.384332 C 202.554026 17.698726 205.514751 18.131016 208.445953 18.681203 C 211.023049 19.152792 213.580483 19.761928 216.098564 20.498786 C 218.321569 21.147221 220.495374 21.952852 222.600334 22.896029 C 224.508571 23.750785 226.338116 24.762737 228.069293 25.922059 C 229.692286 27.012609 231.207063 28.260355 232.59398 29.645648 C 233.980897 31.030941 235.230091 32.543956 236.331763 34.165043 C 237.492434 35.894202 238.505568 37.711787 239.361333 39.607968 C 240.305606 41.720292 241.112187 43.891565 241.761369 46.102139 C 242.508934 48.617282 243.108947 51.161898 243.590914 53.735987 C 244.131912 56.663768 244.564709 59.6112 244.889308 62.578282 C 245.263091 65.938355 245.538505 69.308252 245.735227 72.687976 C 245.951626 76.509812 246.10901 80.321821 246.187687 84.143656 C 246.276225 88.437084 246.325394 92.720685 246.325394 97.014106 C 246.325394 97.014106 246.325394 97.014106 246.325394 97.014106 L 246.325394 155.225886 C 246.325394 155.225886 246.325394 155.225886 246.325394 155.225886 C 246.325394 159.519306 246.276225 163.802907 246.187687 168.096328 C 246.10901 171.918164 245.951626 175.739999 245.735227 179.552015 C 245.538505 182.931739 245.263091 186.301629 244.889308 189.671533 C 244.564709 192.628784 244.131912 195.576216 243.590914 198.503994 C 243.108947 201.078094 242.508934 203.622706 241.761369 206.137845 C 241.112187 208.358253 240.305606 210.5197 239.361333 212.63202 C 238.505568 214.528209 237.492434 216.355617 236.331763 218.074952 C 235.230091 219.705853 233.980897 221.218876 232.59398 222.604172 C 231.207063 223.979634 229.692286 225.227385 228.069293 226.317935 C 226.338116 227.477251 224.508571 228.489201 222.600334 229.343951 C 220.495374 230.296956 218.321569 231.092775 216.098564 231.741198 C 213.580483 232.478056 211.023049 233.087202 208.445953 233.558787 C 205.514751 234.108972 202.554026 234.541264 199.583486 234.865483 C 196.219486 235.228995 192.835809 235.513922 189.452133 235.70058 C 185.625827 235.916726 181.799522 236.073926 177.973216 236.152526 C 173.674759 236.25078 169.376317 236.290072 165.077876 236.290072 C 165.077876 236.290072 165.077876 236.290072 165.06803 236.290072 L 90.941963 236.290072 C 90.932125 236.290072 90.932125 236.290072 90.932125 236.290072 C 86.633683 236.290072 82.335234 236.25078 78.036784 236.152526 C 74.210479 236.073926 70.384173 235.916726 66.557868 235.70058 C 63.174195 235.513922 59.790522 235.228995 56.426518 234.865483 C 53.455967 234.541264 50.495253 234.108972 47.564048 233.558787 C 44.986944 233.087202 42.429517 232.478056 39.911433 231.741198 C 37.688439 231.092775 35.514626 230.296956 33.409665 229.343951 C 31.501429 228.489201 29.671886 227.477251 27.940703 226.317935 C 26.31772 225.227385 24.802935 223.979634 23.416022 222.604172 C 22.029109 221.218876 20.779904 219.705853 19.678243 218.074952 C 18.517564 216.355617 17.504428 214.528209 16.648674 212.63202 C 15.704392 210.5197 14.897819 208.358253 14.248626 206.137845 C 13.50107 203.622706 12.901057 201.078094 12.419081 198.503994 C 11.878086 195.576216 11.445291 192.628784 11.120694 189.671533 C 10.746916 186.301629 10.471501 182.931739 10.274776 179.552015 C 10.058378 175.739999 9.900997 171.918164 9.822307 168.096328 C 9.733781 163.802907 9.6846 159.519306 9.6846 155.225886 C 9.6846 155.225886 9.6846 155.225886 9.6846 155.225886 L 9.6846 97.014106 C 9.6846 97.014106 9.6846 97.014106 9.6846 97.014106 C 9.6846 92.720685 9.733781 88.437084 9.822307 84.143656 C 9.900997 80.321821 10.058378 76.509812 10.274776 72.687976 C 10.471501 69.308252 10.746916 65.938355 11.120694 62.578282 C 11.445291 59.6112 11.878086 56.663768 12.419081 53.735987 C 12.901057 51.161898 13.50107 48.617282 14.248626 46.102139 C 14.897819 43.891565 15.704392 41.720292 16.648674 39.607968 C 17.504428 37.711787 18.517564 35.894202 19.678243 34.165043 C 20.779904 32.543956 22.029109 31.030941 23.416022 29.645648 C 24.802935 28.260355 26.31772 27.012609 27.940703 25.922059 C 29.671886 24.762737 31.501429 23.750785 33.409665 22.896029 C 35.514626 21.952852 37.688439 21.147221 39.911433 20.498786 C 42.429517 19.761928 44.986944 19.152792 47.564048 18.681203 C 50.495253 18.131016 53.455967 17.698726 56.426518 17.384332 C 59.790522 17.010992 63.174195 16.735898 66.557868 16.539402 C 70.384173 16.323257 74.210479 16.175886 78.036784 16.087463 C 82.335234 15.99904 86.633683 15.949916 90.932125 15.959741 C 90.932125 15.959741 90.932125 15.959741 90.941963 15.959741 L 165.06803 15.959741 C 165.077876 15.959741 165.077876 15.959741 165.077876 15.959741 Z"/>
 </g>
</svg>
