<svg xmlns="http://www.w3.org/2000/svg" style="isolation:isolate" width="256" height="256">
 <defs>
  <filter id="a" width="400%" height="400%" x="-200%" y="-200%" color-interpolation-filters="sRGB" filterUnits="objectBoundingBox">
   <feGaussianBlur xmlns="http://www.w3.org/2000/svg" in="SourceGraphic" stdDeviation="4.294"/>
   <feOffset xmlns="http://www.w3.org/2000/svg" dy="4" result="pf_100_offsetBlur"/>
   <feFlood xmlns="http://www.w3.org/2000/svg" flood-opacity=".4"/>
   <feComposite xmlns="http://www.w3.org/2000/svg" in2="pf_100_offsetBlur" operator="in" result="pf_100_dropShadow"/>
   <feBlend xmlns="http://www.w3.org/2000/svg" in="SourceGraphic" in2="pf_100_dropShadow"/>
  </filter>
 </defs>
 <path fill="#583c28" d="M166.351 13.28c74.056 0 84.64 10.557 84.64 84.544v59.251c0 73.986-10.584 84.544-84.64 84.544H90.982c-74.056 0-84.639-10.558-84.639-84.544V97.824c0-73.987 10.583-84.544 84.639-84.544h75.369z" filter="url(#a)"/>
 <path fill="#72b248" d="M250.133 65.468c-.098-1.058-.156-2.234-.269-3.25-.365-3.254-.809-6.298-1.346-9.147-.397-2.105-.904-3.994-1.408-5.891h-8.391v18.288h11.414z"/>
 <path fill="#b8845b" d="M165.576 230.041H147.29v-18.286h18.286v18.286z"/>
 <path fill="#785439" d="M92.43 230.041H74.144v-18.286H92.43v18.286zm-73.141-5.634c.649.781 1.226 1.641 1.94 2.354 1.207 1.205 2.58 2.255 3.984 3.277h12.363v-18.285H19.289v12.654z"/>
 <path fill="#956b49" d="M55.857 230.041H37.571v-18.286h18.286v18.286zM183.86 83.75h18.286v18.286H183.86V83.75z"/>
 <path fill="#583c28" d="M55.86 83.75h18.286v18.286H55.86V83.75z"/>
 <path fill="#b8845b" d="M110.72 83.75h18.286v18.286H110.72V83.75z"/>
 <path fill="#785439" d="M92.43 83.75h18.286v18.286H92.43V83.75z"/>
 <path fill="#583c28" d="M7.012 83.753c-.118 4.521-.332 8.631-.332 13.74v4.545h12.609V83.753H7.012z"/>
 <path fill="#956b49" d="M110.72 65.47h18.286v18.286H110.72V65.47z"/>
 <path fill="#583c28" d="M19.29 65.47h18.286v18.286H19.29V65.47z"/>
 <path fill="#785439" d="M92.43 65.47h18.286v18.286H92.43V65.47z"/>
 <path fill="#72b248" d="M7.875 65.468c-.217 2.327-.446 4.617-.595 7.15-.195 3.299-.172 7.471-.268 11.135h12.277V65.468H7.875z"/>
 <path fill="#60a036" d="M10.899 47.18c-.504 1.897-1.011 3.786-1.408 5.891-.538 2.849-.982 5.893-1.346 9.147-.114 1.016-.171 2.192-.27 3.25h11.414V47.18h-8.39z"/>
 <path fill="#583c28" d="M92.43 47.18h18.286v18.286H92.43V47.18z"/>
 <path fill="#9bca6b" d="M110.72 47.18h18.286v18.286H110.72V47.18z"/>
 <path fill="#72b248" d="M19.289 29.831c-.703.847-1.473 1.621-2.103 2.551a39.5 39.5 0 0 0-3.252 5.847c-.961 2.116-1.803 4.402-2.539 6.871-.192.645-.32 1.412-.498 2.082h8.392V29.831z"/>
 <path fill="#56962c" d="M20.061 28.895c-.268.3-.514.625-.772.936v17.351h18.287V28.895H20.061z"/>
 <path fill="#60a036" d="M37.58 28.9h18.286v18.286H37.58V28.9z"/>
 <path fill="#72b248" d="M55.86 28.9h18.286v18.286H55.86V28.9zm109.72 18.28h18.286v18.286H165.58V47.18z"/>
 <path fill="#72b248" d="M37.58 47.18h18.286v18.286H37.58V47.18z"/>
 <path fill="#56962c" d="M165.58 65.47h18.286v18.286H165.58V65.47z"/>
 <path fill="#60a036" d="M19.29 47.18h18.286v18.286H19.29V47.18z"/>
 <path fill="#56962c" d="M55.862 14.434c-3.199.361-6.204.793-9.01 1.321-2.852.536-5.507 1.167-7.979 1.902-.466.139-.843.332-1.297.479v10.759h18.286V14.434z"/>
 <path fill="#60a036" d="M74.147 13.362c-2.464.086-5.438.051-7.727.186-3.688.216-7.155.501-10.412.865-.052.006-.094.016-.146.021v14.461h18.285V13.362z"/>
 <path fill="#72b248" d="M37.576 18.136c-1.95.629-3.863 1.278-5.582 2.056a39.619 39.619 0 0 0-5.855 3.248 33.33 33.33 0 0 0-4.91 4.037c-.43.43-.762.964-1.168 1.418h17.515V18.136z"/>
 <path fill="#b8845b" d="M129 102.04h18.286v18.286H129V102.04z"/>
 <path fill="#785439" d="M74.15 102.04h18.286v18.286H74.15V102.04zm-54.86 0h18.286v18.286H19.29V102.04z"/>
 <path fill="#956b49" d="M37.58 102.04h18.286v18.286H37.58V102.04z"/>
 <path fill="#b8845b" d="M129 83.75h18.286v18.286H129V83.75z"/>
 <path fill="#785439" d="M74.15 83.75h18.286v18.286H74.15V83.75zm-54.86 0h18.286v18.286H19.29V83.75z"/>
 <path fill="#583c28" d="M37.58 83.75h18.286v18.286H37.58V83.75zm36.57-18.28h18.286v18.286H74.15V65.47z"/>
 <path fill="#6b6b6b" d="M129 65.47h18.286v18.286H129V65.47z"/>
 <path fill="#956b49" d="M129 47.18h18.286v18.286H129V47.18z"/>
 <path fill="#60a036" d="M74.15 28.9h18.286v18.286H74.15V28.9z"/>
 <path fill="#56962c" d="M37.58 65.47h18.286v18.286H37.58V65.47z"/>
 <path fill="#60a036" d="M74.15 47.18h18.286v18.286H74.15V47.18z"/>
 <path fill="#56962c" d="M92.432 12.95h-1.113c-6.385 0-11.697.221-17.172.412v15.533h18.285V12.95z"/>
 <path fill="#956b49" d="M12.362 211.753c.507 1.444.977 2.945 1.572 4.256a39.5 39.5 0 0 0 3.252 5.847c.63.93 1.4 1.704 2.103 2.551v-12.654h-6.927z"/>
 <path fill="#b8845b" d="M92.43 211.75h18.286v18.286H92.43V211.75z"/>
 <path fill="#785439" d="M55.86 211.75h18.286v18.286H55.86V211.75z"/>
 <path fill="#583c28" d="M183.86 211.75h18.286v18.286H183.86V211.75z"/>
 <path fill="#956b49" d="M6.68 102.038v18.287h12.609v-18.287H6.68z"/>
 <path fill="#b8845b" d="M110.721 120.323H92.435v-18.286h18.286v18.286z"/>
 <path fill="#785439" d="M129.003 120.323h-18.286v-18.286h18.286v18.286zm-54.855 0H55.862v-18.286h18.286v18.286z"/>
 <path fill="#583c28" d="M202.148 120.323h-18.286v-18.286h18.286v18.286z"/>
 <path fill="#956b49" d="M37.576 236.104c.454.147.831.34 1.297.479 2.472.735 5.127 1.364 7.979 1.9 2.806.528 5.811.962 9.01 1.322v-9.767H37.576v6.066z"/>
 <path fill="#583c28" d="M25.213 230.038c.327.237.588.533.926.762a39.704 39.704 0 0 0 5.855 3.246c1.719.778 3.632 1.429 5.582 2.058v-6.066H25.213z"/>
 <path fill="#b8845b" d="M74.147 240.876c5.475.191 10.787.412 17.172.412h1.113v-11.25H74.147v10.838z"/>
 <path fill="#785439" d="M147.289 241.288h18.287v-11.25h-18.287v11.25z"/>
 <path fill="#956b49" d="M92.432 241.288h18.287v-11.25H92.432v11.25z"/>
 <path fill="#785439" d="M55.862 239.805c.052.006.094.016.146.022 3.257.364 6.724.647 10.412.863 2.289.135 5.263.1 7.727.186v-10.838H55.862v9.767z"/>
 <path fill="#583c28" d="M183.862 240.876c2.463-.086 5.437-.051 7.726-.186 3.689-.216 7.155-.499 10.412-.863.052-.006.095-.016.147-.022v-9.767h-18.285v10.838z"/>
 <path fill="#b8845b" d="M220.43 230.041h-18.286v-18.286h18.286v18.286z"/>
 <path fill="#785439" d="M183.857 230.041h-18.286v-18.286h18.286v18.286z"/>
 <path fill="#956b49" d="M129.003 230.041h-18.286v-18.286h18.286v18.286zM147.29 83.75h18.286v18.286H147.29V83.75z"/>
 <path fill="#583c28" d="M220.43 83.75h18.286v18.286H220.43V83.75z"/>
 <path fill="#b8845b" d="M251.328 102.038v-4.545c0-5.109-.213-9.219-.332-13.74h-12.277v18.285h12.609z"/>
 <path fill="#9bca6b" d="M147.29 65.47h18.286v18.286H147.29V65.47z"/>
 <path fill="#785439" d="M220.43 65.47h18.286v18.286H220.43V65.47z"/>
 <path fill="#583c28" d="M220.43 47.18h18.286v18.286H220.43V47.18z"/>
 <path fill="#72b248" d="M110.72 28.9h18.286v18.286H110.72V28.9z"/>
 <path fill="#56962c" d="M129 28.9h18.286v18.286H129V28.9z"/>
 <path fill="#60a036" d="M147.29 28.9h18.286v18.286H147.29V28.9z"/>
 <path fill="#72b248" d="M247.112 47.182c-.178-.67-.306-1.437-.498-2.082-.737-2.469-1.579-4.755-2.539-6.871a39.591 39.591 0 0 0-3.252-5.847c-.631-.93-1.401-1.704-2.104-2.551v17.351h8.393z"/>
 <path fill="#56962c" d="M238.719 29.639c-.075-.089-.131-.202-.207-.291-.143-.167-.331-.289-.477-.453h-17.603v18.287h18.287V29.639z"/>
 <path fill="#72b248" d="M147.29 47.18h18.286v18.286H147.29V47.18z"/>
 <path fill="#56962c" d="M250.996 83.753c-.095-3.664-.073-7.836-.267-11.135-.149-2.533-.379-4.823-.596-7.15h-11.414v18.285h12.277zm-85.42-70.803h-18.287v15.945h18.287V12.95z"/>
 <path fill="#60a036" d="M220.432 18.136c-.453-.147-.831-.34-1.297-.479-2.472-.735-5.127-1.366-7.978-1.902-2.806-.528-5.812-.96-9.01-1.321v14.461h18.285V18.136z"/>
 <path fill="#72b248" d="M237.948 28.895c-.407-.454-.738-.988-1.168-1.418a33.287 33.287 0 0 0-4.911-4.037 39.619 39.619 0 0 0-5.855-3.248c-1.719-.778-3.632-1.427-5.582-2.056v10.759h17.516zM147.289 12.95h-18.285v15.945h18.285V12.95z"/>
 <path fill="#56962c" d="M129.004 12.95h-18.285v15.945h18.285V12.95z"/>
 <path fill="#b8845b" d="M202.15 102.04h18.286v18.286H202.15V102.04z"/>
 <path fill="#785439" d="M165.58 102.04h18.286v18.286H165.58V102.04z"/>
 <path fill="#b8845b" d="M202.15 83.75h18.286v18.286H202.15V83.75z"/>
 <path fill="#785439" d="M165.58 83.75h18.286v18.286H165.58V83.75z"/>
 <path fill="#583c28" d="M55.86 65.47h18.286v18.286H55.86V65.47z"/>
 <path fill="#b8845b" d="M183.86 65.47h18.286v18.286H183.86V65.47z"/>
 <path fill="#60a036" d="M202.15 28.9h18.286v18.286H202.15V28.9z"/>
 <path fill="#72b248" d="M183.86 28.9h18.286v18.286H183.86V28.9z"/>
 <path fill="#72b248" d="M165.58 28.9h18.286v18.286H165.58V28.9z"/>
 <path fill="#56962c" d="M92.43 28.9h18.286v18.286H92.43V28.9z"/>
 <path fill="#72b248" d="M202.15 47.18h18.286v18.286H202.15V47.18z"/>
 <path fill="#56962c" d="M183.86 47.18h18.286v18.286H183.86V47.18zm18.29 18.29h18.286v18.286H202.15V65.47z"/>
 <path fill="#60a036" d="M55.86 47.18h18.286v18.286H55.86V47.18z"/>
 <path fill="#72b248" d="M110.719 12.95H92.432v15.945h18.287V12.95z"/>
 <path fill="#60a036" d="M202.147 14.434c-.052-.005-.095-.015-.147-.021-3.462-.38-6.934-.668-10.412-.865-2.289-.135-5.263-.1-7.726-.186v15.533h18.285V14.434z"/>
 <path fill="#72b248" d="M183.862 13.362c-5.475-.191-10.788-.412-17.172-.412h-1.114v15.945h18.286V13.362z"/>
 <path fill="#6b6b6b" d="M238.719 224.407c.703-.847 1.473-1.621 2.104-2.551a39.591 39.591 0 0 0 3.252-5.847c.595-1.311 1.065-2.812 1.572-4.256h-6.928v12.654z"/>
 <path fill="#785439" d="M232.795 230.038c1.405-1.022 2.777-2.072 3.985-3.277.714-.713 1.29-1.573 1.939-2.354v-12.654h-18.287v18.285h12.363z"/>
 <path fill="#583c28" d="M129 211.75h18.286v18.286H129V211.75z"/>
 <path fill="#785439" d="M251.328 120.325v-18.287h-12.609v18.287h12.609z"/>
 <path fill="#785439" d="M238.721 120.323h-18.286v-18.286h18.286v18.286z"/>
 <path fill="#583c28" d="M165.576 120.323H147.29v-18.286h18.286v18.286z"/>
 <path fill="#956b49" d="M110.719 241.288h18.285v-11.25h-18.285v11.25z"/>
 <path fill="#b8845b" d="M165.576 241.288h1.114c6.384 0 11.697-.221 17.172-.412v-10.838h-18.286v11.25z"/>
 <path fill="#785439" d="M202.147 239.805c3.198-.36 6.204-.794 9.01-1.322 2.851-.536 5.506-1.165 7.978-1.9.466-.139.844-.332 1.297-.479v-6.066h-18.285v9.767z"/>
 <path fill="#785439" d="M220.432 236.104c1.95-.629 3.863-1.28 5.582-2.058a39.704 39.704 0 0 0 5.855-3.246c.338-.229.6-.525.926-.762h-12.363v6.066z"/>
 <path fill="#583c28" d="M129.004 241.288h18.285v-11.25h-18.285v11.25z"/>
 <path fill="#b8845b" d="M129 175.18h18.286v18.286H129V175.18z"/>
 <path fill="#785439" d="M74.15 175.18h18.286v18.286H74.15V175.18zm-54.86 0h18.286v18.286H19.29V175.18z"/>
 <path fill="#956b49" d="M37.58 175.18h18.286v18.286H37.58V175.18z"/>
 <path fill="#583c28" d="M55.86 193.47h18.286v18.286H55.86V193.47zm-47.502-.002c.328 2.683.68 5.301 1.133 7.699.537 2.848 1.168 5.501 1.904 7.971.28.939.655 1.727.967 2.615h6.927v-18.285H8.358z"/>
 <path fill="#956b49" d="M7.125 175.18c.078 2.029.042 4.532.155 6.44.217 3.685.501 7.147.865 10.4.057.515.151.943.213 1.448h10.931V175.18H7.125z"/>
 <path fill="#b8845b" d="M110.721 193.468H92.435v-18.286h18.286v18.286z"/>
 <path fill="#785439" d="M129.003 193.468h-18.286v-18.286h18.286v18.286zm-54.855 0H55.862v-18.286h18.286v18.286z"/>
 <path fill="#583c28" d="M92.43 193.47h18.286v18.286H92.43V193.47z"/>
 <path fill="#b8845b" d="M37.58 193.47h18.286v18.286H37.58V193.47z"/>
 <path fill="#6b6b6b" d="M74.15 193.47h18.286v18.286H74.15V193.47z"/>
 <path fill="#785439" d="M19.29 193.47h18.286v18.286H19.29V193.47z"/>
 <path fill="#583c28" d="M147.29 193.47h18.286v18.286H147.29V193.47z"/>
 <path fill="#956b49" d="M129 193.47h18.286v18.286H129V193.47z"/>
 <path fill="#583c28" d="M165.576 193.468H147.29v-18.286h18.286v18.286z"/>
 <path fill="#b8845b" d="M110.72 193.47h18.286v18.286H110.72V193.47zm109.71-36.57h18.286v18.286H220.43V156.9z"/>
 <path fill="#583c28" d="M129 156.9h18.286v18.286H129V156.9z"/>
 <path fill="#785439" d="M147.29 156.9h18.286v18.286H147.29V156.9z"/>
 <path fill="#583c28" d="M202.15 156.9h18.286v18.286H202.15V156.9z"/>
 <path fill="#956b49" d="M183.86 156.9h18.286v18.286H183.86V156.9z"/>
 <path fill="#583c28" d="M250.883 175.18c.222-5.76.44-11.495.442-18.285h-12.606v18.285h12.164z"/>
 <path fill="#b8845b" d="M165.58 156.9h18.286v18.286H165.58V156.9z"/>
 <path fill="#583c28" d="M6.684 156.895c.001 6.79.219 12.525.441 18.285h12.164v-18.285H6.684z"/>
 <path fill="#6b6b6b" d="M19.29 156.9h18.286v18.286H19.29V156.9z"/>
 <path fill="#583c28" d="M110.72 156.9h18.286v18.286H110.72V156.9z"/>
 <path fill="#785439" d="M55.86 156.9h18.286v18.286H55.86V156.9z"/>
 <path fill="#583c28" d="M37.58 156.9h18.286v18.286H37.58V156.9zm36.57 0h18.286v18.286H74.15V156.9z"/>
 <path fill="#785439" d="M92.43 156.9h18.286v18.286H92.43V156.9z"/>
 <path fill="#b8845b" d="M202.15 175.18h18.286v18.286H202.15V175.18zm43.497 36.573c.311-.888.686-1.676.967-2.615.736-2.47 1.367-5.123 1.904-7.971.452-2.398.804-5.016 1.133-7.699h-10.932v18.285h6.928zm-61.79-18.285h-18.286v-18.286h18.286v18.286z"/>
 <path fill="#785439" d="M202.148 193.468h-18.286v-18.286h18.286v18.286z"/>
 <path fill="#583c28" d="M165.58 193.47h18.286v18.286H165.58V193.47zm54.85 0h18.286v18.286H220.43V193.47z"/>
 <path fill="#956b49" d="M249.651 193.468c.061-.505.155-.933.213-1.448.364-3.253.648-6.715.865-10.4.112-1.907.076-4.41.154-6.438h-12.164v18.286h10.932zm-47.501.002h18.286v18.286H202.15V193.47z"/>
 <path fill="#583c28" d="M238.721 193.468h-18.286v-18.286h18.286v18.286z"/>
 <path fill="#b8845b" d="M183.86 193.47h18.286v18.286H183.86V193.47z"/>
 <path fill="#785439" d="M147.29 138.61h18.286v18.286H147.29V138.61zm-54.86 0h18.286v18.286H92.43V138.61z"/>
 <path fill="#956b49" d="M110.72 138.61h18.286v18.286H110.72V138.61zm-18.29 18.286H74.144V138.61H92.43v18.286z"/>
 <path fill="#b8845b" d="M183.857 156.896h-18.286V138.61h18.286v18.286z"/>
 <path fill="#785439" d="M202.148 156.896h-18.286V138.61h18.286v18.286zm-54.854 0h-18.286V138.61h18.286v18.286z"/>
 <path fill="#583c28" d="M74.15 120.32h18.286v18.286H74.15V120.32z"/>
 <path fill="#6b6b6b" d="M92.43 120.32h18.286v18.286H92.43V120.32z"/>
 <path fill="#583c28" d="M183.86 120.32h18.286v18.286H183.86V120.32z"/>
 <path fill="#785439" d="M129 120.32h18.286v18.286H129V120.32z"/>
 <path fill="#583c28" d="M110.72 120.32h18.286v18.286H110.72V120.32zm36.57 0h18.286v18.286H147.29V120.32z"/>
 <path fill="#785439" d="M165.58 120.32h18.286v18.286H165.58V120.32z"/>
 <path fill="#b8845b" d="M220.43 156.896h-18.286V138.61h18.286v18.286z"/>
 <path fill="#6b6b6b" d="M251.325 156.895c0-.056.003-.094.003-.15V138.61h-12.609v18.285h12.606z"/>
 <path fill="#785439" d="M220.43 138.61h18.286v18.286H220.43V138.61z"/>
 <path fill="#b8845b" d="M251.328 138.61v-18.285h-12.609v18.285h12.609z"/>
 <path fill="#583c28" d="M220.43 120.32h18.286v18.286H220.43V120.32z"/>
 <path fill="#956b49" d="M202.15 120.32h18.286v18.286H202.15V120.32z"/>
 <path fill="#b8845b" d="M19.29 120.32h18.286v18.286H19.29V120.32z"/>
 <path fill="#6b6b6b" d="M74.148 138.615H55.862v-18.286h18.286v18.286z"/>
 <path fill="#785439" d="M55.857 138.615H37.571v-18.286h18.286v18.286z"/>
 <path fill="#b8845b" d="M74.148 156.896H55.862V138.61h18.286v18.286z"/>
 <path fill="#583c28" d="M55.857 156.896H37.571V138.61h18.286v18.286z"/>
 <path fill="#956b49" d="M37.576 156.896H19.29V138.61h18.286v18.286zM6.68 120.325v18.285h12.609v-18.285H6.68z"/>
 <path fill="#b8845b" d="M6.68 138.61v18.135c0 .056.004.094.004.15h12.605V138.61H6.68z"/>
 <g opacity=".4">
  <linearGradient id="b" x1=".517" x2=".517" y2="1" gradientTransform="matrix(244.65 0 0 228.34 5.68 11.95)" gradientUnits="userSpaceOnUse">
   <stop offset="0%" stop-color="#ffffff"/>
   <stop offset="12.5%" stop-color="#ffffff" stop-opacity=".098"/>
   <stop offset="92.5%" stop-opacity=".098"/>
   <stop offset="100%" stop-opacity=".498"/>
  </linearGradient>
  <path fill="url(#b)" fill-rule="evenodd" d="M165.068 11.951c4.328-.01 8.656.04 12.984.138 3.875.078 7.75.226 11.626.452 3.453.196 6.905.481 10.348.854 3.06.335 6.118.786 9.148 1.346a80.47 80.47 0 0 1 8.046 1.916 53.64 53.64 0 0 1 7.023 2.584 40.413 40.413 0 0 1 6.06 3.35 35.176 35.176 0 0 1 5.134 4.215 35.072 35.072 0 0 1 4.22 5.119 41.692 41.692 0 0 1 3.363 6.042 55.982 55.982 0 0 1 2.597 7.005 80.224 80.224 0 0 1 1.918 8.037 124.43 124.43 0 0 1 1.348 9.127c.374 3.439.659 6.878.856 10.326.226 3.861.373 7.732.462 11.593.088 4.323.138 8.646.128 12.96v58.21c.01 4.324-.04 8.637-.128 12.96a325.177 325.177 0 0 1-.462 11.593 200.984 200.984 0 0 1-.856 10.326 124.691 124.691 0 0 1-1.348 9.137 80.687 80.687 0 0 1-1.918 8.027 55.414 55.414 0 0 1-2.597 7.005 41.18 41.18 0 0 1-3.364 6.042 34.559 34.559 0 0 1-4.22 5.119 35.177 35.177 0 0 1-5.134 4.215 40.412 40.412 0 0 1-6.059 3.35 55.138 55.138 0 0 1-7.023 2.594 77.806 77.806 0 0 1-8.046 1.906 120 120 0 0 1-9.148 1.346c-3.443.373-6.895.658-10.348.854-3.875.226-7.75.374-11.626.462-4.328.088-8.656.138-12.984.128H90.942c-4.328.01-8.656-.04-12.984-.128a328.387 328.387 0 0 1-11.626-.462 203.003 203.003 0 0 1-10.348-.854 120 120 0 0 1-9.148-1.346 77.806 77.806 0 0 1-8.046-1.906 55.139 55.139 0 0 1-7.023-2.594 40.413 40.413 0 0 1-6.06-3.35 35.176 35.176 0 0 1-5.134-4.215 34.56 34.56 0 0 1-4.22-5.119 41.183 41.183 0 0 1-3.363-6.042 55.415 55.415 0 0 1-2.597-7.005 80.682 80.682 0 0 1-1.918-8.027 124.688 124.688 0 0 1-1.348-9.137 200.993 200.993 0 0 1-.856-10.326 325.212 325.212 0 0 1-.462-11.593 569.197 569.197 0 0 1-.128-12.96v-58.21c-.01-4.314.04-8.637.128-12.96.089-3.86.236-7.732.462-11.593.197-3.448.482-6.887.856-10.326.335-3.055.787-6.101 1.348-9.127a80.219 80.219 0 0 1 1.918-8.037 55.983 55.983 0 0 1 2.597-7.005 41.695 41.695 0 0 1 3.364-6.042 35.072 35.072 0 0 1 4.22-5.119 35.176 35.176 0 0 1 5.134-4.215 40.413 40.413 0 0 1 6.059-3.35 53.64 53.64 0 0 1 7.023-2.584 80.47 80.47 0 0 1 8.046-1.916 125.11 125.11 0 0 1 9.148-1.346c3.443-.373 6.895-.658 10.348-.854 3.875-.226 7.75-.374 11.626-.452 4.328-.098 8.656-.148 12.984-.138h74.126zm.01 4.009c4.298-.01 8.597.039 12.895.127 3.827.089 7.653.236 11.48.452 3.383.197 6.766.472 10.13.845 2.971.315 5.932.747 8.863 1.297a75.943 75.943 0 0 1 7.653 1.818 50.493 50.493 0 0 1 6.501 2.397 37.038 37.038 0 0 1 5.47 3.026 30.383 30.383 0 0 1 4.524 3.724 31.05 31.05 0 0 1 3.738 4.519 37.271 37.271 0 0 1 3.03 5.443 51.46 51.46 0 0 1 2.4 6.494 75.563 75.563 0 0 1 1.829 7.634c.54 2.928.974 5.875 1.298 8.842.374 3.36.65 6.73.846 10.11.217 3.822.374 7.634.453 11.456.088 4.293.137 8.577.137 12.87v58.212c0 4.293-.049 8.577-.137 12.87a317.503 317.503 0 0 1-.453 11.456c-.196 3.38-.472 6.75-.846 10.12a121.689 121.689 0 0 1-1.298 8.832 75.562 75.562 0 0 1-1.83 7.634 50.902 50.902 0 0 1-2.4 6.494 36.767 36.767 0 0 1-3.03 5.443 30.615 30.615 0 0 1-3.737 4.53 30.938 30.938 0 0 1-4.525 3.713 37.038 37.038 0 0 1-5.469 3.026 49.07 49.07 0 0 1-6.501 2.397 75.942 75.942 0 0 1-7.653 1.818c-2.931.55-5.892.982-8.863 1.306-3.364.364-6.747.649-10.13.836-3.827.216-7.653.373-11.48.452-4.298.098-8.597.137-12.895.137H90.932c-4.298 0-8.597-.04-12.895-.137a320.093 320.093 0 0 1-11.48-.452 193.696 193.696 0 0 1-10.13-.836 116.71 116.71 0 0 1-8.863-1.306 75.942 75.942 0 0 1-7.653-1.818 49.07 49.07 0 0 1-6.501-2.397 37.038 37.038 0 0 1-5.47-3.026 30.938 30.938 0 0 1-4.524-3.714 30.615 30.615 0 0 1-3.738-4.529 36.766 36.766 0 0 1-3.03-5.443 50.903 50.903 0 0 1-2.4-6.494 75.567 75.567 0 0 1-1.829-7.634 121.69 121.69 0 0 1-1.298-8.832c-.374-3.37-.65-6.74-.846-10.12a317.535 317.535 0 0 1-.453-11.456 623.851 623.851 0 0 1-.137-12.87V97.014c0-4.293.049-8.577.137-12.87.079-3.822.236-7.634.453-11.456.197-3.38.472-6.75.846-10.11.324-2.967.757-5.914 1.298-8.842a75.568 75.568 0 0 1 1.83-7.634 51.46 51.46 0 0 1 2.4-6.494 37.27 37.27 0 0 1 3.03-5.443 31.05 31.05 0 0 1 3.737-4.52 30.384 30.384 0 0 1 4.525-3.723 37.039 37.039 0 0 1 5.469-3.026 50.494 50.494 0 0 1 6.501-2.397 75.943 75.943 0 0 1 7.653-1.818c2.931-.55 5.892-.982 8.863-1.297 3.364-.373 6.747-.648 10.13-.845a344.71 344.71 0 0 1 11.48-.452c4.298-.088 8.597-.137 12.895-.127H165.078z"/>
 </g>
</svg>
