<svg xmlns="http://www.w3.org/2000/svg" style="isolation:isolate" width="256" height="256" viewBox="0 0 256 256">
 <defs>
  <filter id="ndgAZW7xi3sERlt1AKRM5sosf0AtiV0Y" width="400%" height="400%" x="-200%" y="-200%" color-interpolation-filters="sRGB" filterUnits="objectBoundingBox">
   <feGaussianBlur xmlns="http://www.w3.org/2000/svg" in="SourceGraphic" stdDeviation="4.294"/>
   <feOffset xmlns="http://www.w3.org/2000/svg" dx="0" dy="4" result="pf_100_offsetBlur"/>
   <feFlood xmlns="http://www.w3.org/2000/svg" flood-opacity=".4"/>
   <feComposite xmlns="http://www.w3.org/2000/svg" in2="pf_100_offsetBlur" operator="in" result="pf_100_dropShadow"/>
   <feBlend xmlns="http://www.w3.org/2000/svg" in="SourceGraphic" in2="pf_100_dropShadow" mode="normal"/>
  </filter>
 </defs>
 <g filter="url(#ndgAZW7xi3sERlt1AKRM5sosf0AtiV0Y)">
  <linearGradient id="_lgradient_18" x1="0" x2="0" y1="0" y2="1" gradientTransform="matrix(244.648,0,0,228.338,5.68,11.952)" gradientUnits="userSpaceOnUse">
   <stop offset="0%" style="stop-color:#16a085"/>
   <stop offset="100%" style="stop-color:#663579"/>
  </linearGradient>
  <path fill="url(#_lgradient_18)" d="M 165.689 11.952 C 239.745 11.952 250.328 22.509 250.328 96.495 L 250.328 155.746 C 250.328 229.733 239.745 240.29 165.689 240.29 L 90.319 240.29 C 16.264 240.29 5.68 229.733 5.68 155.746 L 5.68 96.495 C 5.68 22.509 16.264 11.952 90.319 11.952 L 165.689 11.952 Z"/>
 </g>
 <g opacity=".4">
  <linearGradient id="_lgradient_19" x1=".517" x2=".517" y1="0" y2="1" gradientTransform="matrix(244.65,0,0,228.34,5.68,11.95)" gradientUnits="userSpaceOnUse">
   <stop offset="0%" style="stop-color:#ffffff"/>
   <stop offset="12.5%" stop-opacity=".098" style="stop-color:#ffffff"/>
   <stop offset="92.5%" stop-opacity=".098" style="stop-color:#000000"/>
   <stop offset="100%" stop-opacity=".498" style="stop-color:#000000"/>
  </linearGradient>
  <path fill="url(#_lgradient_19)" fill-rule="evenodd" d="M 165.068 11.951 C 169.396 11.941 173.724 11.991 178.052 12.089 C 181.927 12.167 185.803 12.315 189.678 12.541 C 193.131 12.737 196.583 13.022 200.026 13.395 C 203.085 13.73 206.144 14.181 209.174 14.741 C 211.889 15.243 214.574 15.881 217.22 16.657 C 219.62 17.355 221.971 18.219 224.243 19.241 C 226.358 20.184 228.384 21.304 230.302 22.591 C 232.142 23.829 233.863 25.244 235.437 26.806 C 237.001 28.378 238.417 30.088 239.656 31.925 C 240.945 33.841 242.066 35.865 243.02 37.967 C 244.043 40.247 244.909 42.585 245.617 44.972 C 246.394 47.615 247.034 50.297 247.535 53.009 C 248.096 56.035 248.548 59.081 248.883 62.136 C 249.257 65.575 249.542 69.014 249.739 72.462 C 249.965 76.323 250.112 80.194 250.201 84.055 C 250.289 88.378 250.339 92.701 250.329 97.014 L 250.329 155.226 C 250.339 159.549 250.289 163.862 250.201 168.185 C 250.112 172.056 249.965 175.917 249.739 179.778 C 249.542 183.226 249.257 186.675 248.883 190.104 C 248.548 193.159 248.096 196.215 247.535 199.241 C 247.034 201.943 246.394 204.625 245.617 207.268 C 244.909 209.655 244.043 212.003 243.02 214.273 C 242.066 216.385 240.945 218.399 239.656 220.315 C 238.417 222.152 237.001 223.872 235.437 225.434 C 233.863 226.996 232.142 228.411 230.302 229.649 C 228.384 230.936 226.358 232.056 224.243 232.999 C 221.971 234.021 219.62 234.885 217.22 235.593 C 214.574 236.369 211.889 237.007 209.174 237.499 C 206.144 238.068 203.085 238.51 200.026 238.845 C 196.583 239.218 193.131 239.503 189.678 239.699 C 185.803 239.925 181.927 240.073 178.052 240.161 C 173.724 240.249 169.396 240.299 165.068 240.289 L 90.942 240.289 C 86.614 240.299 82.286 240.249 77.958 240.161 C 74.083 240.073 70.207 239.925 66.332 239.699 C 62.879 239.503 59.427 239.218 55.984 238.845 C 52.925 238.51 49.866 238.068 46.836 237.499 C 44.121 237.007 41.436 236.369 38.79 235.593 C 36.39 234.885 34.039 234.021 31.767 232.999 C 29.652 232.056 27.626 230.936 25.708 229.649 C 23.868 228.411 22.147 226.996 20.573 225.434 C 19.009 223.872 17.593 222.152 16.354 220.315 C 15.065 218.399 13.944 216.385 12.99 214.273 C 11.967 212.003 11.101 209.655 10.393 207.268 C 9.616 204.625 8.976 201.943 8.475 199.241 C 7.914 196.215 7.462 193.159 7.127 190.104 C 6.753 186.675 6.468 183.226 6.271 179.778 C 6.045 175.917 5.898 172.056 5.809 168.185 C 5.721 163.862 5.671 159.549 5.681 155.226 L 5.681 97.014 C 5.671 92.701 5.721 88.378 5.809 84.055 C 5.898 80.194 6.045 76.323 6.271 72.462 C 6.468 69.014 6.753 65.575 7.127 62.136 C 7.462 59.081 7.914 56.035 8.475 53.009 C 8.976 50.297 9.616 47.615 10.393 44.972 C 11.101 42.585 11.967 40.247 12.99 37.967 C 13.944 35.865 15.065 33.841 16.354 31.925 C 17.593 30.088 19.009 28.378 20.573 26.806 C 22.147 25.244 23.868 23.829 25.708 22.591 C 27.626 21.304 29.652 20.184 31.767 19.241 C 34.039 18.219 36.39 17.355 38.79 16.657 C 41.436 15.881 44.121 15.243 46.836 14.741 C 49.866 14.181 52.925 13.73 55.984 13.395 C 59.427 13.022 62.879 12.737 66.332 12.541 C 70.207 12.315 74.083 12.167 77.958 12.089 C 82.286 11.991 86.614 11.941 90.942 11.951 L 165.068 11.951 Z M 165.078 15.96 C 169.376 15.95 173.675 15.999 177.973 16.087 C 181.8 16.176 185.626 16.323 189.452 16.539 C 192.836 16.736 196.219 17.011 199.583 17.384 C 202.554 17.699 205.515 18.131 208.446 18.681 C 211.023 19.153 213.58 19.762 216.099 20.499 C 218.322 21.147 220.495 21.953 222.6 22.896 C 224.509 23.751 226.338 24.763 228.069 25.922 C 229.692 27.013 231.207 28.26 232.594 29.646 C 233.981 31.031 235.23 32.544 236.332 34.165 C 237.492 35.894 238.506 37.712 239.361 39.608 C 240.306 41.72 241.112 43.892 241.761 46.102 C 242.509 48.617 243.109 51.162 243.591 53.736 C 244.132 56.664 244.565 59.611 244.889 62.578 C 245.263 65.938 245.539 69.308 245.735 72.688 C 245.952 76.51 246.109 80.322 246.188 84.144 C 246.276 88.437 246.325 92.721 246.325 97.014 C 246.325 97.014 246.325 97.014 246.325 97.014 L 246.325 155.226 C 246.325 155.226 246.325 155.226 246.325 155.226 C 246.325 159.519 246.276 163.803 246.188 168.096 C 246.109 171.918 245.952 175.74 245.735 179.552 C 245.539 182.932 245.263 186.302 244.889 189.672 C 244.565 192.629 244.132 195.576 243.591 198.504 C 243.109 201.078 242.509 203.623 241.761 206.138 C 241.112 208.358 240.306 210.52 239.361 212.632 C 238.506 214.528 237.492 216.356 236.332 218.075 C 235.23 219.706 233.981 221.219 232.594 222.604 C 231.207 223.98 229.692 225.227 228.069 226.318 C 226.338 227.477 224.509 228.489 222.6 229.344 C 220.495 230.297 218.322 231.093 216.099 231.741 C 213.58 232.478 211.023 233.087 208.446 233.559 C 205.515 234.109 202.554 234.541 199.583 234.865 C 196.219 235.229 192.836 235.514 189.452 235.701 C 185.626 235.917 181.8 236.074 177.973 236.153 C 173.675 236.251 169.376 236.29 165.078 236.29 C 165.078 236.29 165.078 236.29 165.068 236.29 L 90.942 236.29 C 90.932 236.29 90.932 236.29 90.932 236.29 C 86.634 236.29 82.335 236.251 78.037 236.153 C 74.21 236.074 70.384 235.917 66.558 235.701 C 63.174 235.514 59.791 235.229 56.427 234.865 C 53.456 234.541 50.495 234.109 47.564 233.559 C 44.987 233.087 42.43 232.478 39.911 231.741 C 37.688 231.093 35.515 230.297 33.41 229.344 C 31.501 228.489 29.672 227.477 27.941 226.318 C 26.318 225.227 24.803 223.98 23.416 222.604 C 22.029 221.219 20.78 219.706 19.678 218.075 C 18.518 216.356 17.504 214.528 16.649 212.632 C 15.704 210.52 14.898 208.358 14.249 206.138 C 13.501 203.623 12.901 201.078 12.419 198.504 C 11.878 195.576 11.445 192.629 11.121 189.672 C 10.747 186.302 10.472 182.932 10.275 179.552 C 10.058 175.74 9.901 171.918 9.822 168.096 C 9.734 163.803 9.685 159.519 9.685 155.226 C 9.685 155.226 9.685 155.226 9.685 155.226 L 9.685 97.014 C 9.685 97.014 9.685 97.014 9.685 97.014 C 9.685 92.721 9.734 88.437 9.822 84.144 C 9.901 80.322 10.058 76.51 10.275 72.688 C 10.472 69.308 10.747 65.938 11.121 62.578 C 11.445 59.611 11.878 56.664 12.419 53.736 C 12.901 51.162 13.501 48.617 14.249 46.102 C 14.898 43.892 15.704 41.72 16.649 39.608 C 17.504 37.712 18.518 35.894 19.678 34.165 C 20.78 32.544 22.029 31.031 23.416 29.646 C 24.803 28.26 26.318 27.013 27.941 25.922 C 29.672 24.763 31.501 23.751 33.41 22.896 C 35.515 21.953 37.688 21.147 39.911 20.499 C 42.43 19.762 44.987 19.153 47.564 18.681 C 50.495 18.131 53.456 17.699 56.427 17.384 C 59.791 17.011 63.174 16.736 66.558 16.539 C 70.384 16.323 74.21 16.176 78.037 16.087 C 82.335 15.999 86.634 15.95 90.932 15.96 C 90.932 15.96 90.932 15.96 90.942 15.96 L 165.068 15.96 C 165.078 15.96 165.078 15.96 165.078 15.96 Z"/>
 </g>
 <g>
  <linearGradient id="_lgradient_20" x1="0" x2="0" y1="0" y2="1" gradientTransform="matrix(34.818,0,0,16.982,105.262,53.5)" gradientUnits="userSpaceOnUse">
   <stop offset="0%" style="stop-color:#2e3842"/>
   <stop offset="100%" style="stop-color:#4c5561"/>
  </linearGradient>
  <path fill="url(#_lgradient_20)" fill-rule="evenodd" d="M 122.671 70.482 L 105.262 61.991 L 122.671 53.5 L 140.08 61.991 L 122.671 70.482 Z"/>
  <linearGradient id="_lgradient_21" x1="1.007" x2=".5" y1=".226" y2="1" gradientTransform="matrix(33.479,0,0,39.842,89.192,61.991)" gradientUnits="userSpaceOnUse">
   <stop offset="0%" style="stop-color:#4c5561"/>
   <stop offset="100%" style="stop-color:#2e3842"/>
  </linearGradient>
  <path fill="url(#_lgradient_21)" fill-rule="evenodd" d="M 122.671 70.482 L 105.262 61.991 L 89.192 93.342 L 106.601 101.833 L 122.671 70.482 Z"/>
  <linearGradient id="_lgradient_22" x1="-.354" x2="1.017" y1="1.099" y2=".395" gradientTransform="matrix(32.14,0,0,41.802,90.531,70.482)" gradientUnits="userSpaceOnUse">
   <stop offset="0%" style="stop-color:#ff4500"/>
   <stop offset="100%" style="stop-color:#dc153b"/>
  </linearGradient>
  <path fill="url(#_lgradient_22)" fill-rule="evenodd" d="M 122.671 101.833 L 122.671 70.482 L 106.601 101.833 L 90.531 86.158 L 103.922 112.284 L 122.671 101.833 L 122.671 101.833 Z"/>
  <linearGradient id="_lgradient_23" x1=".004" x2=".472" y1=".235" y2=".964" gradientTransform="matrix(33.479,0,0,39.842,73.122,86.158)" gradientUnits="userSpaceOnUse">
   <stop offset="0%" style="stop-color:#4c5561"/>
   <stop offset="100%" style="stop-color:#2e3842"/>
  </linearGradient>
  <path fill="url(#_lgradient_23)" fill-rule="evenodd" d="M 73.122 94.649 L 90.531 86.158 L 106.601 117.509 L 89.192 126 L 73.122 94.649 Z"/>
  <linearGradient id="_lgradient_24" x1=".653" x2="-.04" y1=".634" y2=".972" gradientTransform="matrix(11.593,0,0,11.327,93.669,139.063)" gradientUnits="userSpaceOnUse">
   <stop offset="0%" style="stop-color:#980000"/>
   <stop offset="100%" style="stop-color:#ff0000"/>
  </linearGradient>
  <path fill="url(#_lgradient_24)" fill-rule="evenodd" d="M 93.669 150.39 L 105.262 144.819 L 105.262 139.063 L 93.669 150.39 Z"/>
  <linearGradient id="_lgradient_25" x1="-.967" x2="1.002" y1=".01" y2=".837" gradientTransform="matrix(17.409,0,0,50.946,73.122,123.387)" gradientUnits="userSpaceOnUse">
   <stop offset="0%" style="stop-color:#ff4500"/>
   <stop offset="100%" style="stop-color:#dc153b"/>
  </linearGradient>
  <path fill="url(#_lgradient_25)" fill-rule="evenodd" d="M 90.531 148.86 L 90.531 165.842 L 73.122 174.333 L 73.122 123.387"/>
  <linearGradient id="_lgradient_26" x1=".989" x2="-.011" y1=".301" y2=".697" gradientTransform="matrix(66.958,0,0,112.342,55.713,86.158)" gradientUnits="userSpaceOnUse">
   <stop offset="0%" style="stop-color:#ff4500"/>
   <stop offset="100%" style="stop-color:#dc153b"/>
  </linearGradient>
  <path fill="url(#_lgradient_26)" fill-rule="evenodd" d="M 105.262 190.009 L 122.671 198.5 L 122.671 118.815 L 105.262 110.324 L 89.192 126 L 73.122 94.649 L 55.713 86.158 L 55.713 165.842 L 73.122 174.333 L 73.122 123.387 L 84.744 146.038 L 93.668 150.391 L 105.262 139.063 L 105.262 190.009 Z"/>
  <linearGradient id="_lgradient_27" x1="1" x2="1" y1="1" y2="0" gradientTransform="matrix(34.818,0,0,16.982,55.713,77.667)" gradientUnits="userSpaceOnUse">
   <stop offset="0%" style="stop-color:#4c5561"/>
   <stop offset="100%" style="stop-color:#2e3842"/>
  </linearGradient>
  <path fill="url(#_lgradient_27)" fill-rule="evenodd" d="M 73.122 94.649 L 55.713 86.158 L 73.122 77.667 L 90.531 86.158 L 73.122 94.649 Z"/>
  <linearGradient id="_lgradient_28" x1="-.003" x2=".5" y1=".251" y2="1" gradientTransform="matrix(33.479,0,0,39.842,122.671,61.991)" gradientUnits="userSpaceOnUse">
   <stop offset="0%" style="stop-color:#4c5561"/>
   <stop offset="100%" style="stop-color:#2e3842"/>
  </linearGradient>
  <path fill="url(#_lgradient_28)" fill-rule="evenodd" d="M 122.671 70.482 L 140.08 61.991 L 156.15 93.342 L 138.741 101.833 L 122.671 70.482 Z"/>
  <linearGradient id="_lgradient_29" x1="1.277" x2="0" y1=".981" y2=".5" gradientTransform="matrix(32.14,0,0,41.802,122.671,70.482)" gradientUnits="userSpaceOnUse">
   <stop offset="0%" style="stop-color:#ff4500"/>
   <stop offset="100%" style="stop-color:#dc153b"/>
  </linearGradient>
  <path fill="url(#_lgradient_29)" fill-rule="evenodd" d="M 122.671 101.833 L 122.671 70.482 L 138.741 101.833 L 154.811 86.158 L 141.419 112.284 L 122.671 101.833 L 122.671 101.833 Z"/>
  <linearGradient id="_lgradient_30" x1=".951" x2=".5" y1=".235" y2="1" gradientTransform="matrix(33.479,0,0,39.842,138.741,86.158)" gradientUnits="userSpaceOnUse">
   <stop offset="0%" style="stop-color:#4c5561"/>
   <stop offset="100%" style="stop-color:#2e3842"/>
  </linearGradient>
  <path fill="url(#_lgradient_30)" fill-rule="evenodd" d="M 172.22 94.649 L 154.811 86.158 L 138.741 117.509 L 156.15 126 L 172.22 94.649 Z"/>
  <linearGradient id="_lgradient_31" x1=".347" x2="1.04" y1=".634" y2=".972" gradientTransform="matrix(11.593,0,0,11.327,140.08,139.063)" gradientUnits="userSpaceOnUse">
   <stop offset="0%" style="stop-color:#980000"/>
   <stop offset="100%" style="stop-color:#ff0000"/>
  </linearGradient>
  <path fill="url(#_lgradient_31)" fill-rule="evenodd" d="M 151.673 150.39 L 140.08 144.819 L 140.08 139.063 L 151.673 150.39 Z"/>
  <linearGradient id="_lgradient_32" x1="1.975" x2=".005" y1="-.015" y2=".818" gradientTransform="matrix(17.409,0,0,50.946,154.811,123.387)" gradientUnits="userSpaceOnUse">
   <stop offset="0%" style="stop-color:#ff4500"/>
   <stop offset="100%" style="stop-color:#dc153b"/>
  </linearGradient>
  <path fill="url(#_lgradient_32)" fill-rule="evenodd" d="M 154.811 148.86 L 154.811 165.842 L 172.22 174.333 L 172.22 123.387"/>
  <linearGradient id="_lgradient_33" x1=".008" x2=".716" y1=".441" y2=".755" gradientTransform="matrix(66.958,0,0,112.342,122.671,86.158)" gradientUnits="userSpaceOnUse">
   <stop offset="0%" style="stop-color:#ff4500"/>
   <stop offset="100%" style="stop-color:#dc153b"/>
  </linearGradient>
  <path fill="url(#_lgradient_33)" fill-rule="evenodd" d="M 140.08 190.009 L 122.671 198.5 L 122.671 118.815 L 140.08 110.324 L 156.15 126 L 172.22 94.649 L 189.629 86.158 L 189.629 165.842 L 172.22 174.333 L 172.22 123.387 L 160.597 146.038 L 151.673 150.391 L 140.08 139.063 L 140.08 190.009 Z"/>
  <linearGradient id="_lgradient_34" x1=".5" x2=".5" y1="1" y2="0" gradientTransform="matrix(34.818,0,0,16.982,154.811,77.667)" gradientUnits="userSpaceOnUse">
   <stop offset="0%" style="stop-color:#4c5561"/>
   <stop offset="100%" style="stop-color:#2e3842"/>
  </linearGradient>
  <path fill="url(#_lgradient_34)" fill-rule="evenodd" d="M 172.22 94.649 L 189.629 86.158 L 172.22 77.667 L 154.811 86.158 L 172.22 94.649 Z"/>
  <linearGradient id="_lgradient_35" x1="1" x2="1" y1="1" y2="0" gradientTransform="matrix(34.818,0,0,16.982,105.262,101.833)" gradientUnits="userSpaceOnUse">
   <stop offset="0%" style="stop-color:#4c5561"/>
   <stop offset="100%" style="stop-color:#2e3842"/>
  </linearGradient>
  <path fill="url(#_lgradient_35)" fill-rule="evenodd" d="M 122.671 118.815 L 105.262 110.324 L 122.671 101.833 L 140.08 110.324 L 122.671 118.815 Z"/>
  <linearGradient id="_lgradient_36" x1="0" x2="0" y1="0" y2="1" gradientTransform="matrix(64.594,0,0,64.54,135.693,133.529)" gradientUnits="userSpaceOnUse">
   <stop offset="0%" style="stop-color:#00f260"/>
   <stop offset="100%" style="stop-color:#0575e6"/>
  </linearGradient>
  <path fill="url(#_lgradient_36)" fill-rule="evenodd" d="M 157.225 136.499 L 157.225 155.006 L 138.663 155.006 C 137.024 155.006 135.693 156.337 135.693 157.975 L 135.693 173.568 C 135.693 175.207 137.024 176.537 138.663 176.537 L 157.225 176.537 L 157.225 195.099 C 157.225 196.738 158.555 198.069 160.194 198.069 L 175.786 198.069 C 177.425 198.069 178.756 196.738 178.756 195.099 L 178.756 176.537 L 197.318 176.537 C 198.957 176.537 200.287 175.207 200.287 173.568 L 200.287 157.975 C 200.287 156.337 198.957 155.006 197.318 155.006 L 178.756 155.006 L 178.756 136.499 C 178.756 134.86 177.425 133.529 175.786 133.529 L 160.194 133.529 C 158.555 133.529 157.225 134.86 157.225 136.499 Z"/>
 </g>
</svg>
