<svg xmlns="http://www.w3.org/2000/svg" style="isolation:isolate" width="256" height="256" viewBox="0 0 256 256">
 <g filter="url(#CsWpQJzC6vGFybF6HatLlsSEwM9E7ufO)">
  <linearGradient id="_lgradient_159" x1=".818" x2=".212" y1="-.071" y2="1.059" gradientTransform="matrix(244.648,0,0,228.338,5.68,11.95)" gradientUnits="userSpaceOnUse">
   <stop offset="0%" style="stop-color:#f2f2f2"/>
   <stop offset="100%" style="stop-color:#f9f9f9"/>
  </linearGradient>
  <path fill="url(#_lgradient_159)" d="M 165.689 11.95 C 239.745 11.95 250.328 22.507 250.328 96.494 L 250.328 155.745 C 250.328 229.731 239.745 240.288 165.689 240.288 L 90.319 240.288 C 16.264 240.288 5.68 229.731 5.68 155.745 L 5.68 96.494 C 5.68 22.507 16.264 11.95 90.319 11.95 L 165.689 11.95 L 165.689 11.95 Z"/>
 </g>
 <defs>
  <filter id="CsWpQJzC6vGFybF6HatLlsSEwM9E7ufO" width="400%" height="400%" x="-200%" y="-200%" color-interpolation-filters="sRGB" filterUnits="objectBoundingBox">
   <feGaussianBlur xmlns="http://www.w3.org/2000/svg" in="SourceGraphic" stdDeviation="4.294"/>
   <feOffset xmlns="http://www.w3.org/2000/svg" dx="0" dy="4" result="pf_100_offsetBlur"/>
   <feFlood xmlns="http://www.w3.org/2000/svg" flood-opacity=".4"/>
   <feComposite xmlns="http://www.w3.org/2000/svg" in2="pf_100_offsetBlur" operator="in" result="pf_100_dropShadow"/>
   <feBlend xmlns="http://www.w3.org/2000/svg" in="SourceGraphic" in2="pf_100_dropShadow" mode="normal"/>
  </filter>
 </defs>
 <g filter="url(#ZDGUn6rzdX5EFNbaSOcseYvGXuRZYggi)">
  <path fill="#76c22b" d="M 106 167.25 Q 108 170.375 105.5 171.25 C 96.5 169.813 99.885 155.323 111.875 160.375 C 122.25 163.375 119.625 186.125 108 186.875 C 86.25 192.813 71.938 157.188 75.875 132.063 L 69.438 133.375 C 68.938 138.25 69.295 145.219 69.625 148.5 C 72.375 175.375 88 194.5 109.5 191.875 C 128.625 187.625 127.537 160.996 113.875 155.625 C 104.265 152.16 95.875 157 95 165.125 C 94.625 171.875 100.957 177.008 105.5 176 C 112.25 175.5 112.25 167.5 106 167.25 Z"/>
  <path fill="#ffffff" d="M 196 67 C 207.375 77.5 198.75 98.625 174.875 106.75 C 148.574 96.075 174.209 53.71 196 67 Z"/>
  <ellipse fill="#111111" cx="192.25" cy="80.375" rx="4.375" ry="5.25" vector-effect="non-scaling-stroke"/>
  <path fill="#46a926" d="M 145.25 122.25 C 148.47 127.949 153.147 132.834 159.25 136.875 C 156.923 138.36 155.558 139.453 154.875 142.625 L 158.125 144.125 C 158.052 140.925 159.979 138.893 163.875 137 C 168.625 137 171.509 137.115 176.625 137.25 Q 173.25 134.125 169.125 132.5 Q 165.25 133 160.625 135.25 C 158.287 130.412 155.807 125.098 153.125 119.25 L 145.25 122.25 L 145.25 122.25 Z M 158.375 148 L 162.75 147.75 Q 164 151.75 168.125 151.75 Q 171.75 150.25 172.5 147.625 L 178.875 148.625 Q 174.625 155 168.125 155.125 Q 160.625 154.375 158.375 148 Z M 109.25 120.25 C 108.735 123.409 108.75 134.5 105.125 137.25 L 108.5 137.375 C 110.709 133.398 113.553 127.533 114 121 L 109.25 120.25 L 109.25 120.25 Z"/>
  <path fill="#fa9381" d="M 183.875 137 L 183.938 149.125 Q 195.563 149.375 210.109 144.762 C 212.739 143.927 212.739 142.573 210.109 141.74 Q 194.656 136.844 183.875 137 L 183.875 137 Z"/>
  <path fill="#333333" d="M 201.938 139.125 C 203.063 142.406 203 144.125 202.281 146.719 Q 208.134 145.322 210.38 144.576 C 212.999 143.706 213.003 142.281 210.389 141.396 Q 207.91 140.557 201.938 139.125 L 201.938 139.125 Z"/>
  <path fill="#fdc92b" d="M 56.5 137 L 70.75 137 C 69.578 141.953 69.598 146.015 70.75 149.125 L 56.5 149.125 C 54.146 144.618 54.156 140.586 56.5 137 Z"/>
  <path fill="#f76363" d="M 45.5 137 L 57.75 137 C 57.116 139.682 56.831 142.102 56.885 144.251 C 56.932 146.072 57.222 147.699 57.75 149.125 L 45.5 149.125 C 44.396 149.125 43.085 148.331 42.574 147.352 C 41.146 144.618 41.156 140.586 42.406 138.674 C 43.01 137.75 44.396 137 45.5 137 Z"/>
  <path fill="#1463a5" d="M 66.5 137 L 185.75 137 C 184.578 141.953 184.598 146.015 185.75 149.125 L 66.5 149.125 C 64.99 144.99 65.02 140.978 66.5 137 Z"/>
  <path fill="#76c22b" d="M 69.25 137 Q 71.375 99 91.375 82.625 Q 109.875 71.75 128.625 82.75 L 169.5 96.75 C 178.89 98.39 185.191 103.859 188.375 113.125 C 176.652 122.4 165.787 124.494 157.75 120.125 C 149.662 125.445 142.089 127.08 135 125 C 124.098 128.608 111.733 127.826 97.875 122.625 C 99.25 118.75 96.125 118.125 91.75 117.125 C 85.38 115.746 79.431 123.339 73.938 136.938 L 69.25 137 L 69.25 137 Z"/>
  <path fill="#76c22b" d="M 93.625 112 C 88 119.375 87.76 128.843 92.125 135.125 C 89.5 135.833 87.302 137.635 85.5 140.5 C 87.698 144.072 90.875 146.457 95 147.625 C 87.581 140.694 86.875 136.75 96.75 135.875 C 91.389 132.079 90.375 125 96.625 113.875 L 93.625 112 L 93.625 112 Z M 129.25 116.5 C 125.875 126.875 130.502 128.828 133.25 136.25 C 134.822 140.497 135.625 150.625 140 149.875 C 136.125 142.875 136.75 140.125 143.625 136.625 Q 143.75 134.25 141.625 133.375 Q 139.5 134.125 137.875 137 C 132.551 135.876 131.103 129.22 133.5 117 L 129.25 116.5 L 129.25 116.5 Z"/>
  <path fill="#ffffff" d="M 153.75 104.75 C 130.125 104.75 126 63.875 144.875 58.125 Q 165.125 55.5 167.375 81.125 Q 167.75 104.375 153.75 104.75 Z"/>
  <ellipse fill="#111111" cx="145.063" cy="84.313" rx="5.188" ry="5.688" vector-effect="non-scaling-stroke"/>
 </g>
 <defs>
  <filter id="ZDGUn6rzdX5EFNbaSOcseYvGXuRZYggi" width="400%" height="400%" x="-200%" y="-200%" color-interpolation-filters="sRGB" filterUnits="objectBoundingBox">
   <feGaussianBlur xmlns="http://www.w3.org/2000/svg" in="SourceGraphic" stdDeviation="4.294"/>
   <feOffset xmlns="http://www.w3.org/2000/svg" dx="0" dy="4" result="pf_100_offsetBlur"/>
   <feFlood xmlns="http://www.w3.org/2000/svg" flood-opacity=".4"/>
   <feComposite xmlns="http://www.w3.org/2000/svg" in2="pf_100_offsetBlur" operator="in" result="pf_100_dropShadow"/>
   <feBlend xmlns="http://www.w3.org/2000/svg" in="SourceGraphic" in2="pf_100_dropShadow" mode="normal"/>
  </filter>
 </defs>
 <g opacity=".4">
  <linearGradient id="_lgradient_160" x1=".517" x2=".517" y1="0" y2="1" gradientTransform="matrix(244.65,0,0,228.34,5.68,11.95)" gradientUnits="userSpaceOnUse">
   <stop offset="0%" style="stop-color:#ffffff"/>
   <stop offset="12.5%" stop-opacity=".098" style="stop-color:#ffffff"/>
   <stop offset="92.5%" stop-opacity=".098" style="stop-color:#000000"/>
   <stop offset="100%" stop-opacity=".498" style="stop-color:#000000"/>
  </linearGradient>
  <path fill="url(#_lgradient_160)" fill-rule="evenodd" d="M 165.06803 11.951234 C 169.395994 11.941409 173.723944 11.990533 178.051908 12.088781 C 181.927398 12.167379 185.802873 12.31475 189.678362 12.540721 C 193.1309 12.737216 196.583423 13.022134 200.026115 13.395476 C 203.085193 13.729518 206.144271 14.181458 209.173842 14.741469 C 211.888645 15.242533 214.57394 15.881143 217.219897 16.6573 C 219.619947 17.354858 221.970814 18.219439 224.242988 19.241215 C 226.357793 20.184394 228.384061 21.304417 230.302129 22.591462 C 232.141505 23.829383 233.862851 25.244151 235.436659 26.80629 C 237.000621 28.378252 238.417046 30.087764 239.656409 31.924995 C 240.944972 33.840824 242.066305 35.864728 243.020409 37.967229 C 244.043389 40.246576 244.908985 42.584873 245.617197 44.972292 C 246.394255 47.615155 247.033606 50.297317 247.535265 53.008956 C 248.095924 56.034984 248.548399 59.080665 248.882828 62.13617 C 249.256611 65.574836 249.541856 69.013506 249.738578 72.462003 C 249.964823 76.323139 250.112361 80.194101 250.200884 84.055237 C 250.289421 88.378131 250.338591 92.701032 250.32876 97.014106 L 250.32876 155.225886 C 250.338591 159.54878 250.289421 163.861854 250.200884 168.184747 C 250.112361 172.05571 249.964823 175.916853 249.738578 179.777981 C 249.541856 183.226485 249.256611 186.674975 248.882828 190.103826 C 248.548399 193.15933 248.095924 196.214835 247.535265 199.240851 C 247.033606 201.942664 246.394255 204.624837 245.617197 207.267703 C 244.908985 209.655115 244.043389 212.003235 243.020409 214.272755 C 242.066305 216.38509 240.944972 218.399156 239.656409 220.314999 C 238.417046 222.152226 237.000621 223.871561 235.436659 225.433697 C 233.862851 226.995832 232.141505 228.410601 230.302129 229.648532 C 228.384061 230.935575 226.357793 232.055598 224.242988 232.998768 C 221.970814 234.020552 219.619947 234.885137 217.219897 235.592507 C 214.57394 236.368672 211.888645 237.007276 209.173842 237.498515 C 206.144271 238.068354 203.085193 238.510465 200.026115 238.844519 C 196.583423 239.21785 193.1309 239.502777 189.678362 239.699269 C 185.802873 239.925235 181.927398 240.072615 178.051908 240.161035 C 173.723944 240.249454 169.395994 240.298581 165.06803 240.288762 L 90.941963 240.288762 C 86.614006 240.298581 82.286049 240.249454 77.9581 240.161035 C 74.08261 240.072615 70.20712 239.925235 66.331638 239.699269 C 62.879108 239.502777 59.426578 239.21785 55.983886 238.844519 C 52.924808 238.510465 49.865733 238.068354 46.836162 237.498515 C 44.121356 237.007276 41.436057 236.368672 38.7901 235.592507 C 36.390053 234.885137 34.039187 234.020552 31.767009 232.998768 C 29.652213 232.055598 27.625943 230.935575 25.707871 229.648532 C 23.868489 228.410601 22.147143 226.995832 20.573343 225.433697 C 19.009377 223.871561 17.592955 222.152226 16.353586 220.314999 C 15.065036 218.399156 13.943701 216.38509 12.989584 214.272755 C 11.966612 212.003235 11.101021 209.655115 10.392811 207.267703 C 9.615746 204.624837 8.976389 201.942664 8.47474 199.240851 C 7.914072 196.214835 7.461604 193.15933 7.127172 190.103826 C 6.753394 186.674975 6.468142 183.226485 6.271417 179.777981 C 6.045183 175.916853 5.897639 172.05571 5.809112 168.184747 C 5.720586 163.861854 5.671405 159.54878 5.681241 155.225886 L 5.681241 97.014106 C 5.671405 92.701032 5.720586 88.378131 5.809112 84.055237 C 5.897639 80.194101 6.045183 76.323139 6.271417 72.462003 C 6.468142 69.013506 6.753394 65.574836 7.127172 62.13617 C 7.461604 59.080665 7.914072 56.034984 8.47474 53.008956 C 8.976389 50.297317 9.615746 47.615155 10.392811 44.972292 C 11.101021 42.584873 11.966612 40.246576 12.989584 37.967229 C 13.943701 35.864728 15.065036 33.840824 16.353586 31.924995 C 17.592955 30.087764 19.009377 28.378252 20.573343 26.80629 C 22.147143 25.244151 23.868489 23.829383 25.707871 22.591462 C 27.625943 21.304417 29.652213 20.184394 31.767009 19.241215 C 34.039187 18.219439 36.390053 17.354858 38.7901 16.6573 C 41.436057 15.881143 44.121356 15.242533 46.836162 14.741469 C 49.865733 14.181458 52.924808 13.729518 55.983886 13.395476 C 59.426578 13.022134 62.879108 12.737216 66.331638 12.540721 C 70.20712 12.31475 74.08261 12.167379 77.9581 12.088781 C 82.286049 11.990533 86.614006 11.941409 90.941963 11.951234 L 165.06803 11.951234 Z M 165.077876 15.959741 C 169.376317 15.949916 173.674759 15.99904 177.973216 16.087463 C 181.799522 16.175886 185.625827 16.323257 189.452133 16.539402 C 192.835809 16.735898 196.219486 17.010992 199.583486 17.384332 C 202.554026 17.698726 205.514751 18.131016 208.445953 18.681203 C 211.023049 19.152792 213.580483 19.761928 216.098564 20.498786 C 218.321569 21.147221 220.495374 21.952852 222.600334 22.896029 C 224.508571 23.750785 226.338116 24.762737 228.069293 25.922059 C 229.692286 27.012609 231.207063 28.260355 232.59398 29.645648 C 233.980897 31.030941 235.230091 32.543956 236.331763 34.165043 C 237.492434 35.894202 238.505568 37.711787 239.361333 39.607968 C 240.305606 41.720292 241.112187 43.891565 241.761369 46.102139 C 242.508934 48.617282 243.108947 51.161898 243.590914 53.735987 C 244.131912 56.663768 244.564709 59.6112 244.889308 62.578282 C 245.263091 65.938355 245.538505 69.308252 245.735227 72.687976 C 245.951626 76.509812 246.10901 80.321821 246.187687 84.143656 C 246.276225 88.437084 246.325394 92.720685 246.325394 97.014106 C 246.325394 97.014106 246.325394 97.014106 246.325394 97.014106 L 246.325394 155.225886 C 246.325394 155.225886 246.325394 155.225886 246.325394 155.225886 C 246.325394 159.519306 246.276225 163.802907 246.187687 168.096328 C 246.10901 171.918164 245.951626 175.739999 245.735227 179.552015 C 245.538505 182.931739 245.263091 186.301629 244.889308 189.671533 C 244.564709 192.628784 244.131912 195.576216 243.590914 198.503994 C 243.108947 201.078094 242.508934 203.622706 241.761369 206.137845 C 241.112187 208.358253 240.305606 210.5197 239.361333 212.63202 C 238.505568 214.528209 237.492434 216.355617 236.331763 218.074952 C 235.230091 219.705853 233.980897 221.218876 232.59398 222.604172 C 231.207063 223.979634 229.692286 225.227385 228.069293 226.317935 C 226.338116 227.477251 224.508571 228.489201 222.600334 229.343951 C 220.495374 230.296956 218.321569 231.092775 216.098564 231.741198 C 213.580483 232.478056 211.023049 233.087202 208.445953 233.558787 C 205.514751 234.108972 202.554026 234.541264 199.583486 234.865483 C 196.219486 235.228995 192.835809 235.513922 189.452133 235.70058 C 185.625827 235.916726 181.799522 236.073926 177.973216 236.152526 C 173.674759 236.25078 169.376317 236.290072 165.077876 236.290072 C 165.077876 236.290072 165.077876 236.290072 165.06803 236.290072 L 90.941963 236.290072 C 90.932125 236.290072 90.932125 236.290072 90.932125 236.290072 C 86.633683 236.290072 82.335234 236.25078 78.036784 236.152526 C 74.210479 236.073926 70.384173 235.916726 66.557868 235.70058 C 63.174195 235.513922 59.790522 235.228995 56.426518 234.865483 C 53.455967 234.541264 50.495253 234.108972 47.564048 233.558787 C 44.986944 233.087202 42.429517 232.478056 39.911433 231.741198 C 37.688439 231.092775 35.514626 230.296956 33.409665 229.343951 C 31.501429 228.489201 29.671886 227.477251 27.940703 226.317935 C 26.31772 225.227385 24.802935 223.979634 23.416022 222.604172 C 22.029109 221.218876 20.779904 219.705853 19.678243 218.074952 C 18.517564 216.355617 17.504428 214.528209 16.648674 212.63202 C 15.704392 210.5197 14.897819 208.358253 14.248626 206.137845 C 13.50107 203.622706 12.901057 201.078094 12.419081 198.503994 C 11.878086 195.576216 11.445291 192.628784 11.120694 189.671533 C 10.746916 186.301629 10.471501 182.931739 10.274776 179.552015 C 10.058378 175.739999 9.900997 171.918164 9.822307 168.096328 C 9.733781 163.802907 9.6846 159.519306 9.6846 155.225886 C 9.6846 155.225886 9.6846 155.225886 9.6846 155.225886 L 9.6846 97.014106 C 9.6846 97.014106 9.6846 97.014106 9.6846 97.014106 C 9.6846 92.720685 9.733781 88.437084 9.822307 84.143656 C 9.900997 80.321821 10.058378 76.509812 10.274776 72.687976 C 10.471501 69.308252 10.746916 65.938355 11.120694 62.578282 C 11.445291 59.6112 11.878086 56.663768 12.419081 53.735987 C 12.901057 51.161898 13.50107 48.617282 14.248626 46.102139 C 14.897819 43.891565 15.704392 41.720292 16.648674 39.607968 C 17.504428 37.711787 18.517564 35.894202 19.678243 34.165043 C 20.779904 32.543956 22.029109 31.030941 23.416022 29.645648 C 24.802935 28.260355 26.31772 27.012609 27.940703 25.922059 C 29.671886 24.762737 31.501429 23.750785 33.409665 22.896029 C 35.514626 21.952852 37.688439 21.147221 39.911433 20.498786 C 42.429517 19.761928 44.986944 19.152792 47.564048 18.681203 C 50.495253 18.131016 53.455967 17.698726 56.426518 17.384332 C 59.790522 17.010992 63.174195 16.735898 66.557868 16.539402 C 70.384173 16.323257 74.210479 16.175886 78.036784 16.087463 C 82.335234 15.99904 86.633683 15.949916 90.932125 15.959741 C 90.932125 15.959741 90.932125 15.959741 90.941963 15.959741 L 165.06803 15.959741 C 165.077876 15.959741 165.077876 15.959741 165.077876 15.959741 Z"/>
 </g>
</svg>
