<svg xmlns="http://www.w3.org/2000/svg" style="isolation:isolate" width="256" height="256" viewBox="0 0 256 256">
 <defs>
  <filter id="r4KdpG5m124uclNjriW9c6LCjmU5bdxi" width="400%" height="400%" x="-200%" y="-200%" color-interpolation-filters="sRGB" filterUnits="objectBoundingBox">
   <feGaussianBlur xmlns="http://www.w3.org/2000/svg" in="SourceGraphic" stdDeviation="4.294"/>
   <feOffset xmlns="http://www.w3.org/2000/svg" dx="0" dy="4" result="pf_100_offsetBlur"/>
   <feFlood xmlns="http://www.w3.org/2000/svg" flood-opacity=".4"/>
   <feComposite xmlns="http://www.w3.org/2000/svg" in2="pf_100_offsetBlur" operator="in" result="pf_100_dropShadow"/>
   <feBlend xmlns="http://www.w3.org/2000/svg" in="SourceGraphic" in2="pf_100_dropShadow" mode="normal"/>
  </filter>
 </defs>
 <g filter="url(#r4KdpG5m124uclNjriW9c6LCjmU5bdxi)">
  <linearGradient id="_lgradient_67" x1=".5" x2=".5" y1="0" y2="1" gradientTransform="matrix(244.648,0,0,228.338,5.43,11.577)" gradientUnits="userSpaceOnUse">
   <stop offset="0%" style="stop-color:#1ad6ab"/>
   <stop offset="100%" style="stop-color:#329db6"/>
  </linearGradient>
  <path fill="url(#_lgradient_67)" d="M 165.439 11.577 C 239.495 11.577 250.078 22.134 250.078 96.12 L 250.078 155.371 C 250.078 229.358 239.495 239.915 165.439 239.915 L 90.069 239.915 C 16.014 239.915 5.43 229.358 5.43 155.371 L 5.43 96.12 C 5.43 22.134 16.014 11.577 90.069 11.577 L 165.439 11.577 Z"/>
 </g>
 <g opacity=".4">
  <linearGradient id="_lgradient_68" x1=".517" x2=".517" y1="0" y2="1" gradientTransform="matrix(244.65,0,0,228.34,5.68,11.95)" gradientUnits="userSpaceOnUse">
   <stop offset="0%" style="stop-color:#ffffff"/>
   <stop offset="12.5%" stop-opacity=".098" style="stop-color:#ffffff"/>
   <stop offset="92.5%" stop-opacity=".098" style="stop-color:#000000"/>
   <stop offset="100%" stop-opacity=".498" style="stop-color:#000000"/>
  </linearGradient>
  <path fill="url(#_lgradient_68)" fill-rule="evenodd" d="M 165.068 11.951 C 169.396 11.941 173.724 11.991 178.052 12.089 C 181.927 12.167 185.803 12.315 189.678 12.541 C 193.131 12.737 196.583 13.022 200.026 13.395 C 203.085 13.73 206.144 14.181 209.174 14.741 C 211.889 15.243 214.574 15.881 217.22 16.657 C 219.62 17.355 221.971 18.219 224.243 19.241 C 226.358 20.184 228.384 21.304 230.302 22.591 C 232.142 23.829 233.863 25.244 235.437 26.806 C 237.001 28.378 238.417 30.088 239.656 31.925 C 240.945 33.841 242.066 35.865 243.02 37.967 C 244.043 40.247 244.909 42.585 245.617 44.972 C 246.394 47.615 247.034 50.297 247.535 53.009 C 248.096 56.035 248.548 59.081 248.883 62.136 C 249.257 65.575 249.542 69.014 249.739 72.462 C 249.965 76.323 250.112 80.194 250.201 84.055 C 250.289 88.378 250.339 92.701 250.329 97.014 L 250.329 155.226 C 250.339 159.549 250.289 163.862 250.201 168.185 C 250.112 172.056 249.965 175.917 249.739 179.778 C 249.542 183.226 249.257 186.675 248.883 190.104 C 248.548 193.159 248.096 196.215 247.535 199.241 C 247.034 201.943 246.394 204.625 245.617 207.268 C 244.909 209.655 244.043 212.003 243.02 214.273 C 242.066 216.385 240.945 218.399 239.656 220.315 C 238.417 222.152 237.001 223.872 235.437 225.434 C 233.863 226.996 232.142 228.411 230.302 229.649 C 228.384 230.936 226.358 232.056 224.243 232.999 C 221.971 234.021 219.62 234.885 217.22 235.593 C 214.574 236.369 211.889 237.007 209.174 237.499 C 206.144 238.068 203.085 238.51 200.026 238.845 C 196.583 239.218 193.131 239.503 189.678 239.699 C 185.803 239.925 181.927 240.073 178.052 240.161 C 173.724 240.249 169.396 240.299 165.068 240.289 L 90.942 240.289 C 86.614 240.299 82.286 240.249 77.958 240.161 C 74.083 240.073 70.207 239.925 66.332 239.699 C 62.879 239.503 59.427 239.218 55.984 238.845 C 52.925 238.51 49.866 238.068 46.836 237.499 C 44.121 237.007 41.436 236.369 38.79 235.593 C 36.39 234.885 34.039 234.021 31.767 232.999 C 29.652 232.056 27.626 230.936 25.708 229.649 C 23.868 228.411 22.147 226.996 20.573 225.434 C 19.009 223.872 17.593 222.152 16.354 220.315 C 15.065 218.399 13.944 216.385 12.99 214.273 C 11.967 212.003 11.101 209.655 10.393 207.268 C 9.616 204.625 8.976 201.943 8.475 199.241 C 7.914 196.215 7.462 193.159 7.127 190.104 C 6.753 186.675 6.468 183.226 6.271 179.778 C 6.045 175.917 5.898 172.056 5.809 168.185 C 5.721 163.862 5.671 159.549 5.681 155.226 L 5.681 97.014 C 5.671 92.701 5.721 88.378 5.809 84.055 C 5.898 80.194 6.045 76.323 6.271 72.462 C 6.468 69.014 6.753 65.575 7.127 62.136 C 7.462 59.081 7.914 56.035 8.475 53.009 C 8.976 50.297 9.616 47.615 10.393 44.972 C 11.101 42.585 11.967 40.247 12.99 37.967 C 13.944 35.865 15.065 33.841 16.354 31.925 C 17.593 30.088 19.009 28.378 20.573 26.806 C 22.147 25.244 23.868 23.829 25.708 22.591 C 27.626 21.304 29.652 20.184 31.767 19.241 C 34.039 18.219 36.39 17.355 38.79 16.657 C 41.436 15.881 44.121 15.243 46.836 14.741 C 49.866 14.181 52.925 13.73 55.984 13.395 C 59.427 13.022 62.879 12.737 66.332 12.541 C 70.207 12.315 74.083 12.167 77.958 12.089 C 82.286 11.991 86.614 11.941 90.942 11.951 L 165.068 11.951 Z M 165.078 15.96 C 169.376 15.95 173.675 15.999 177.973 16.087 C 181.8 16.176 185.626 16.323 189.452 16.539 C 192.836 16.736 196.219 17.011 199.583 17.384 C 202.554 17.699 205.515 18.131 208.446 18.681 C 211.023 19.153 213.58 19.762 216.099 20.499 C 218.322 21.147 220.495 21.953 222.6 22.896 C 224.509 23.751 226.338 24.763 228.069 25.922 C 229.692 27.013 231.207 28.26 232.594 29.646 C 233.981 31.031 235.23 32.544 236.332 34.165 C 237.492 35.894 238.506 37.712 239.361 39.608 C 240.306 41.72 241.112 43.892 241.761 46.102 C 242.509 48.617 243.109 51.162 243.591 53.736 C 244.132 56.664 244.565 59.611 244.889 62.578 C 245.263 65.938 245.539 69.308 245.735 72.688 C 245.952 76.51 246.109 80.322 246.188 84.144 C 246.276 88.437 246.325 92.721 246.325 97.014 C 246.325 97.014 246.325 97.014 246.325 97.014 L 246.325 155.226 C 246.325 155.226 246.325 155.226 246.325 155.226 C 246.325 159.519 246.276 163.803 246.188 168.096 C 246.109 171.918 245.952 175.74 245.735 179.552 C 245.539 182.932 245.263 186.302 244.889 189.672 C 244.565 192.629 244.132 195.576 243.591 198.504 C 243.109 201.078 242.509 203.623 241.761 206.138 C 241.112 208.358 240.306 210.52 239.361 212.632 C 238.506 214.528 237.492 216.356 236.332 218.075 C 235.23 219.706 233.981 221.219 232.594 222.604 C 231.207 223.98 229.692 225.227 228.069 226.318 C 226.338 227.477 224.509 228.489 222.6 229.344 C 220.495 230.297 218.322 231.093 216.099 231.741 C 213.58 232.478 211.023 233.087 208.446 233.559 C 205.515 234.109 202.554 234.541 199.583 234.865 C 196.219 235.229 192.836 235.514 189.452 235.701 C 185.626 235.917 181.8 236.074 177.973 236.153 C 173.675 236.251 169.376 236.29 165.078 236.29 C 165.078 236.29 165.078 236.29 165.068 236.29 L 90.942 236.29 C 90.932 236.29 90.932 236.29 90.932 236.29 C 86.634 236.29 82.335 236.251 78.037 236.153 C 74.21 236.074 70.384 235.917 66.558 235.701 C 63.174 235.514 59.791 235.229 56.427 234.865 C 53.456 234.541 50.495 234.109 47.564 233.559 C 44.987 233.087 42.43 232.478 39.911 231.741 C 37.688 231.093 35.515 230.297 33.41 229.344 C 31.501 228.489 29.672 227.477 27.941 226.318 C 26.318 225.227 24.803 223.98 23.416 222.604 C 22.029 221.219 20.78 219.706 19.678 218.075 C 18.518 216.356 17.504 214.528 16.649 212.632 C 15.704 210.52 14.898 208.358 14.249 206.138 C 13.501 203.623 12.901 201.078 12.419 198.504 C 11.878 195.576 11.445 192.629 11.121 189.672 C 10.747 186.302 10.472 182.932 10.275 179.552 C 10.058 175.74 9.901 171.918 9.822 168.096 C 9.734 163.803 9.685 159.519 9.685 155.226 C 9.685 155.226 9.685 155.226 9.685 155.226 L 9.685 97.014 C 9.685 97.014 9.685 97.014 9.685 97.014 C 9.685 92.721 9.734 88.437 9.822 84.144 C 9.901 80.322 10.058 76.51 10.275 72.688 C 10.472 69.308 10.747 65.938 11.121 62.578 C 11.445 59.611 11.878 56.664 12.419 53.736 C 12.901 51.162 13.501 48.617 14.249 46.102 C 14.898 43.892 15.704 41.72 16.649 39.608 C 17.504 37.712 18.518 35.894 19.678 34.165 C 20.78 32.544 22.029 31.031 23.416 29.646 C 24.803 28.26 26.318 27.013 27.941 25.922 C 29.672 24.763 31.501 23.751 33.41 22.896 C 35.515 21.953 37.688 21.147 39.911 20.499 C 42.43 19.762 44.987 19.153 47.564 18.681 C 50.495 18.131 53.456 17.699 56.427 17.384 C 59.791 17.011 63.174 16.736 66.558 16.539 C 70.384 16.323 74.21 16.176 78.037 16.087 C 82.335 15.999 86.634 15.95 90.932 15.96 C 90.932 15.96 90.932 15.96 90.942 15.96 L 165.068 15.96 C 165.078 15.96 165.078 15.96 165.078 15.96 Z"/>
 </g>
 <g>
  <defs>
   <filter id="wi08PIATYGplOeBJpXwVf10iwzfYpM3z" width="400%" height="400%" x="-200%" y="-200%" color-interpolation-filters="sRGB" filterUnits="objectBoundingBox">
    <feGaussianBlur xmlns="http://www.w3.org/2000/svg" stdDeviation="4.294"/>
   </filter>
  </defs>
  <g opacity=".4" filter="url(#wi08PIATYGplOeBJpXwVf10iwzfYpM3z)">
   <path d="M 67.011 82.33 C 63.257 82.33 60.232 85.332 60.232 89.063 L 60.232 102.955 L 54.708 102.955 L 52.866 102.955 L 51.025 102.955 C 47.964 102.955 45.5 105.487 45.5 108.635 L 45.5 150.311 C 45.5 153.459 47.964 155.991 51.025 155.991 L 52.866 155.991 L 54.708 155.991 L 60.232 155.991 L 60.232 169.883 C 60.232 173.614 63.257 176.616 67.011 176.616 L 188.989 176.616 C 192.743 176.616 195.768 173.614 195.768 169.883 L 195.768 155.991 L 201.292 155.991 L 203.134 155.991 L 204.975 155.991 C 208.036 155.991 210.5 153.459 210.5 150.311 L 210.5 108.635 C 210.5 105.487 208.036 102.955 204.975 102.955 L 203.134 102.955 L 201.292 102.955 L 195.768 102.955 L 195.768 89.063 C 195.768 85.332 192.743 82.33 188.989 82.33 L 67.011 82.33 Z"/>
  </g>
  <defs>
   <linearGradient id="_lgradient_69" x1="0" x2="0" y1="0" y2="1">
    <stop offset="0%" style="stop-color:#e0e5e7"/>
    <stop offset="100%" style="stop-color:#c7ced2"/>
   </linearGradient>
  </defs>
  <path d="M 67.009 79.384 L 188.991 79.384 C 192.731 79.384 195.768 82.421 195.768 86.161 L 195.768 166.893 C 195.768 170.633 192.731 173.67 188.991 173.67 L 67.009 173.67 C 63.269 173.67 60.232 170.633 60.232 166.893 L 60.232 86.161 C 60.232 82.421 63.269 79.384 67.009 79.384 Z" style="fill:url(#_lgradient_69)"/>
  <linearGradient id="_lgradient_70" x1="0" x2="0" y1="0" y2="1" gradientTransform="matrix(14.732,0,0,53.036,45.5,100.009)" gradientUnits="userSpaceOnUse">
   <stop offset="0%" style="stop-color:#e0e5e7"/>
   <stop offset="100%" style="stop-color:#c7ced2"/>
  </linearGradient>
  <path fill="url(#_lgradient_70)" d="M 51.025 100.009 C 47.964 100.009 45.5 102.543 45.5 105.691 L 45.5 147.362 C 45.5 150.51 47.964 153.045 51.025 153.045 L 52.866 153.045 L 54.708 153.045 L 60.232 153.045 L 60.232 147.362 L 60.232 105.691 L 60.232 100.009 L 54.708 100.009 L 52.866 100.009 L 51.025 100.009 Z"/>
  <linearGradient id="_lgradient_71" x1="0" x2="0" y1="0" y2="1" gradientTransform="matrix(14.732,0,0,53.036,195.768,100.009)" gradientUnits="userSpaceOnUse">
   <stop offset="0%" style="stop-color:#e0e5e7"/>
   <stop offset="100%" style="stop-color:#c7ced2"/>
  </linearGradient>
  <path fill="url(#_lgradient_71)" d="M 204.975 153.045 C 208.036 153.045 210.5 150.51 210.5 147.362 L 210.5 105.691 C 210.5 102.543 208.036 100.009 204.975 100.009 L 203.134 100.009 L 201.292 100.009 L 195.768 100.009 L 195.768 105.691 L 195.768 147.362 L 195.768 153.045 L 201.292 153.045 L 203.134 153.045 L 204.975 153.045 Z"/>
  <linearGradient id="_lgradient_72" x1="0" x2="0" y1="0" y2="1" gradientTransform="matrix(153.214,0,0,47.143,51.393,102.955)" gradientUnits="userSpaceOnUse">
   <stop offset="0%" style="stop-color:#4c5561"/>
   <stop offset="100%" style="stop-color:#2e3842"/>
  </linearGradient>
  <path fill="url(#_lgradient_72)" d="M 128 102.955 C 118.401 102.963 109.766 108.789 106.167 117.688 L 93.103 117.688 L 92.746 117.101 L 89.012 110.908 C 88.199 109.565 86.667 108.771 85.047 108.854 C 83.59 108.929 82.272 109.701 81.542 110.908 L 77.807 117.101 L 77.45 117.688 L 66.125 117.688 L 66.125 114.741 C 66.125 111.476 63.497 108.848 60.232 108.848 L 57.286 108.848 C 54.021 108.848 51.393 111.476 51.393 114.741 L 51.393 121.267 L 51.393 131.787 L 51.393 138.313 C 51.393 141.577 54.021 144.205 57.286 144.205 L 60.232 144.205 C 63.497 144.205 66.125 141.577 66.125 138.313 L 66.125 135.366 L 77.45 135.366 L 77.807 135.953 L 81.542 142.145 C 82.272 143.352 83.59 144.125 85.047 144.2 C 86.667 144.282 88.199 143.488 89.012 142.145 L 92.746 135.953 L 93.103 135.366 L 106.161 135.366 C 109.761 144.266 118.399 150.093 128 150.098 C 137.599 150.091 146.234 144.264 149.833 135.366 L 162.897 135.366 L 163.254 135.953 L 166.988 142.145 C 167.718 143.352 169.037 144.125 170.493 144.2 C 172.114 144.282 173.646 143.488 174.458 142.145 L 178.193 135.953 L 178.55 135.366 L 189.875 135.366 L 189.875 138.313 C 189.875 141.577 192.503 144.205 195.768 144.205 L 198.714 144.205 C 201.979 144.205 204.607 141.577 204.607 138.313 L 204.607 131.787 L 204.607 121.267 L 204.607 114.741 C 204.607 111.476 201.979 108.848 198.714 108.848 L 195.768 108.848 C 192.503 108.848 189.875 111.476 189.875 114.741 L 189.875 117.688 L 178.55 117.688 L 178.193 117.101 L 174.458 110.908 C 173.646 109.565 172.114 108.771 170.493 108.854 C 169.037 108.929 167.718 109.701 166.988 110.908 L 163.254 117.101 L 162.897 117.688 L 149.839 117.688 C 146.239 108.787 137.601 102.96 128 102.955 Z"/>
  <g opacity=".2">
   <path d="M 67.011 79.384 C 63.257 79.384 60.232 82.386 60.232 86.117 L 60.232 88.223 L 195.768 88.223 L 195.768 86.117 C 195.768 82.386 192.743 79.384 188.989 79.384 L 67.011 79.384 Z M 60.232 164.83 L 60.232 166.937 C 60.232 170.668 63.257 173.67 67.011 173.67 L 188.989 173.67 C 192.743 173.67 195.768 170.668 195.768 166.937 L 195.768 164.83 L 60.232 164.83 Z"/>
  </g>
 </g>
</svg>
