<svg xmlns="http://www.w3.org/2000/svg" style="isolation:isolate" width="256" height="256" viewBox="0 0 256 256">
 <g filter="url(#JHd9NhEdzt9R23wbMgWbrbfobcGq0Fz9)">
  <linearGradient id="_lgradient_133" x1="-.033" x2="1.033" y1="0" y2=".813" gradientTransform="matrix(244.648,0,0,228.338,5.676,11.947)" gradientUnits="userSpaceOnUse">
   <stop offset="0%" style="stop-color:#fee581"/>
   <stop offset="100%" style="stop-color:#fff4c9"/>
  </linearGradient>
  <path fill="url(#_lgradient_133)" d="M 165.685 11.947 C 239.74 11.947 250.324 22.504 250.324 96.491 L 250.324 155.742 C 250.324 229.728 239.74 240.285 165.685 240.285 L 90.315 240.285 C 16.26 240.285 5.676 229.728 5.676 155.742 L 5.676 96.491 C 5.676 22.504 16.26 11.947 90.315 11.947 L 165.685 11.947 L 165.685 11.947 L 165.685 11.947 Z"/>
 </g>
 <defs>
  <filter id="JHd9NhEdzt9R23wbMgWbrbfobcGq0Fz9" width="400%" height="400%" x="-200%" y="-200%" color-interpolation-filters="sRGB" filterUnits="objectBoundingBox">
   <feGaussianBlur xmlns="http://www.w3.org/2000/svg" in="SourceGraphic" stdDeviation="4.294"/>
   <feOffset xmlns="http://www.w3.org/2000/svg" dx="0" dy="4" result="pf_100_offsetBlur"/>
   <feFlood xmlns="http://www.w3.org/2000/svg" flood-opacity=".4"/>
   <feComposite xmlns="http://www.w3.org/2000/svg" in2="pf_100_offsetBlur" operator="in" result="pf_100_dropShadow"/>
   <feBlend xmlns="http://www.w3.org/2000/svg" in="SourceGraphic" in2="pf_100_dropShadow" mode="normal"/>
  </filter>
 </defs>
 <g>
  <linearGradient id="_lgradient_134" x1="-.033" x2="1.033" y1="0" y2=".813" gradientTransform="matrix(244.648,0,0,228.338,5.676,11.95)" gradientUnits="userSpaceOnUse">
   <stop offset="0%" style="stop-color:#fee581"/>
   <stop offset="100%" style="stop-color:#fff4c9"/>
  </linearGradient>
  <path fill="url(#_lgradient_134)" d="M 165.685 11.95 C 239.74 11.95 250.324 22.507 250.324 96.494 L 250.324 155.745 C 250.324 229.731 239.74 240.288 165.685 240.288 L 90.315 240.288 C 16.26 240.288 5.676 229.731 5.676 155.745 L 5.676 96.494 C 5.676 22.507 16.26 11.95 90.315 11.95 L 165.685 11.95 L 165.685 11.95 L 165.685 11.95 Z"/>
  <linearGradient id="_lgradient_135" x1="-.033" x2="1.033" y1="0" y2=".813" gradientTransform="matrix(244.648,0,0,228.338,5.676,11.95)" gradientUnits="userSpaceOnUse">
   <stop offset="0%" style="stop-color:#fee581"/>
   <stop offset="100%" style="stop-color:#fff4c9"/>
  </linearGradient>
  <path fill="url(#_lgradient_135)" d="M 165.685 11.95 C 239.74 11.95 250.324 22.507 250.324 96.494 L 250.324 155.745 C 250.324 229.731 239.74 240.288 165.685 240.288 L 90.315 240.288 C 16.26 240.288 5.676 229.731 5.676 155.745 L 5.676 96.494 C 5.676 22.507 16.26 11.95 90.315 11.95 L 165.685 11.95 L 165.685 11.95 L 165.685 11.95 Z"/>
  <linearGradient id="_lgradient_136" x1="-.033" x2="1.033" y1="0" y2=".813" gradientTransform="matrix(244.648,0,0,228.338,5.676,11.95)" gradientUnits="userSpaceOnUse">
   <stop offset="0%" style="stop-color:#fee581"/>
   <stop offset="100%" style="stop-color:#fff4c9"/>
  </linearGradient>
  <path fill="url(#_lgradient_136)" d="M 165.685 11.95 C 239.74 11.95 250.324 22.507 250.324 96.494 L 250.324 155.745 C 250.324 229.731 239.74 240.288 165.685 240.288 L 90.315 240.288 C 16.26 240.288 5.676 229.731 5.676 155.745 L 5.676 96.494 C 5.676 22.507 16.26 11.95 90.315 11.95 L 165.685 11.95 L 165.685 11.95 L 165.685 11.95 Z"/>
  <clipPath id="_clipPath_mJEOqdDPwhBn8Cp7Oj9UP0QAwEpwzoEJ">
   <path fill="url(#_lgradient_136)" d="M 165.685 11.95 C 239.74 11.95 250.324 22.507 250.324 96.494 L 250.324 155.745 C 250.324 229.731 239.74 240.288 165.685 240.288 L 90.315 240.288 C 16.26 240.288 5.676 229.731 5.676 155.745 L 5.676 96.494 C 5.676 22.507 16.26 11.95 90.315 11.95 L 165.685 11.95 L 165.685 11.95 L 165.685 11.95 Z"/>
  </clipPath>
  <g clip-path="url(#_clipPath_mJEOqdDPwhBn8Cp7Oj9UP0QAwEpwzoEJ)">
   <g>
    <g>
     <g>
      <g style="opacity:0.1">
       <g style="opacity:0.1">
        <g opacity=".1">
         <path fill="#1463a5" fill-opacity=".996" d="M -2.479 116.945 L -2.479 117.964 L 258.683 117.964 L 258.683 116.945 L -2.479 116.945 L -2.479 116.945 L -2.479 116.945 Z"/>
        </g>
       </g>
      </g>
      <g style="opacity:0.1">
       <g style="opacity:0.1">
        <g opacity=".1">
         <path fill="#1463a5" fill-opacity=".996" d="M -2.479 141.41 L -2.479 142.429 L 258.683 142.429 L 258.683 141.41 L -2.479 141.41 L -2.479 141.41 L -2.479 141.41 Z"/>
        </g>
       </g>
      </g>
      <g style="opacity:0.1">
       <g style="opacity:0.1">
        <g opacity=".1">
         <path fill="#1463a5" fill-opacity=".996" d="M -2.479 190.339 L -2.479 191.359 L 258.683 191.359 L 258.683 190.339 L -2.479 190.339 L -2.479 190.339 L -2.479 190.339 Z"/>
        </g>
       </g>
      </g>
      <g style="opacity:0.3">
       <g style="opacity:0.3">
        <g opacity=".3">
         <path fill="#1463a5" fill-opacity=".996" d="M 41.354 60.88 L 42.373 60.88 L 42.373 256.598 L 41.354 256.598 L 41.354 60.88 L 41.354 60.88 L 41.354 60.88 Z"/>
        </g>
       </g>
      </g>
      <g style="opacity:0.1">
       <g style="opacity:0.1">
        <g opacity=".1">
         <path fill="#1463a5" fill-opacity=".996" d="M -2.479 92.48 L -2.479 93.499 L 258.683 93.499 L 258.683 92.48 L -2.479 92.48 L -2.479 92.48 L -2.479 92.48 Z"/>
        </g>
       </g>
      </g>
      <g style="opacity:0.1">
       <g style="opacity:0.1">
        <g opacity=".1">
         <path fill="#1463a5" fill-opacity=".996" d="M -2.479 214.804 L -2.479 215.824 L 258.683 215.824 L 258.683 214.804 L -2.479 214.804 L -2.479 214.804 L -2.479 214.804 Z"/>
        </g>
       </g>
      </g>
      <g style="opacity:0.1">
       <g style="opacity:0.1">
        <g opacity=".1">
         <path fill="#1463a5" fill-opacity=".996" d="M -2.479 165.875 L -2.479 166.894 L 258.683 166.894 L 258.683 165.875 L -2.479 165.875 L -2.479 165.875 L -2.479 165.875 Z"/>
        </g>
       </g>
      </g>
     </g>
    </g>
   </g>
  </g>
  <g style="opacity:0.4">
   <g style="opacity:0.4">
    <g opacity=".4">
     <path fill="#fac82e" d="M 13.831 62.918 C 12.705 62.918 11.792 63.831 11.792 64.957 C 11.792 66.083 12.705 66.996 13.831 66.996 C 14.957 66.996 15.87 66.083 15.87 64.957 C 15.87 63.831 14.957 62.918 13.831 62.918 Z M 21.986 62.918 C 20.86 62.918 19.947 63.831 19.947 64.957 C 19.947 66.083 20.86 66.996 21.986 66.996 C 23.112 66.996 24.024 66.083 24.024 64.957 C 24.024 63.831 23.112 62.918 21.986 62.918 Z M 30.141 62.918 C 29.015 62.918 28.102 63.831 28.102 64.957 C 28.102 66.083 29.015 66.996 30.141 66.996 C 31.267 66.996 32.179 66.083 32.179 64.957 C 32.179 63.831 31.267 62.918 30.141 62.918 Z M 38.296 62.918 C 37.17 62.918 36.257 63.831 36.257 64.957 C 36.257 66.083 37.17 66.996 38.296 66.996 C 39.422 66.996 40.334 66.083 40.334 64.957 C 40.334 63.831 39.422 62.918 38.296 62.918 Z M 46.451 62.918 C 45.325 62.918 44.412 63.831 44.412 64.957 C 44.412 66.083 45.325 66.996 46.451 66.996 C 47.577 66.996 48.489 66.083 48.489 64.957 C 48.489 63.831 47.577 62.918 46.451 62.918 Z M 54.606 62.918 C 53.48 62.918 52.567 63.831 52.567 64.957 C 52.567 66.083 53.48 66.996 54.606 66.996 C 55.731 66.996 56.644 66.083 56.644 64.957 C 56.644 63.831 55.731 62.918 54.606 62.918 Z M 62.76 62.918 C 61.634 62.918 60.722 63.831 60.722 64.957 C 60.722 66.083 61.634 66.996 62.76 66.996 C 63.886 66.996 64.799 66.083 64.799 64.957 C 64.799 63.831 63.886 62.918 62.76 62.918 Z M 70.915 62.918 C 69.789 62.918 68.877 63.831 68.877 64.957 C 68.877 66.083 69.789 66.996 70.915 66.996 C 72.041 66.996 72.954 66.083 72.954 64.957 C 72.954 63.831 72.041 62.918 70.915 62.918 Z M 79.07 62.918 C 77.944 62.918 77.032 63.831 77.032 64.957 C 77.032 66.083 77.944 66.996 79.07 66.996 C 80.196 66.996 81.109 66.083 81.109 64.957 C 81.109 63.831 80.196 62.918 79.07 62.918 Z M 87.225 62.918 C 86.099 62.918 85.187 63.831 85.187 64.957 C 85.187 66.083 86.099 66.996 87.225 66.996 C 88.351 66.996 89.264 66.083 89.264 64.957 C 89.264 63.831 88.351 62.918 87.225 62.918 Z M 95.38 62.918 C 94.254 62.918 93.341 63.831 93.341 64.957 C 93.341 66.083 94.254 66.996 95.38 66.996 C 96.506 66.996 97.419 66.083 97.419 64.957 C 97.419 63.831 96.506 62.918 95.38 62.918 Z M 103.535 62.918 C 102.409 62.918 101.496 63.831 101.496 64.957 C 101.496 66.083 102.409 66.996 103.535 66.996 C 104.661 66.996 105.574 66.083 105.574 64.957 C 105.574 63.831 104.661 62.918 103.535 62.918 Z M 111.69 62.918 C 110.564 62.918 109.651 63.831 109.651 64.957 C 109.651 66.083 110.564 66.996 111.69 66.996 C 112.816 66.996 113.729 66.083 113.729 64.957 C 113.729 63.831 112.816 62.918 111.69 62.918 Z M 119.845 62.918 C 118.719 62.918 117.806 63.831 117.806 64.957 C 117.806 66.083 118.719 66.996 119.845 66.996 C 120.971 66.996 121.884 66.083 121.884 64.957 C 121.884 63.831 120.971 62.918 119.845 62.918 Z M 128 62.918 C 126.874 62.918 125.961 63.831 125.961 64.957 C 125.961 66.083 126.874 66.996 128 66.996 C 129.126 66.996 130.039 66.083 130.039 64.957 C 130.039 63.831 129.126 62.918 128 62.918 Z M 136.155 62.918 C 135.029 62.918 134.116 63.831 134.116 64.957 C 134.116 66.083 135.029 66.996 136.155 66.996 C 137.281 66.996 138.194 66.083 138.194 64.957 C 138.194 63.831 137.281 62.918 136.155 62.918 Z M 144.31 62.918 C 143.184 62.918 142.271 63.831 142.271 64.957 C 142.271 66.083 143.184 66.996 144.31 66.996 C 145.436 66.996 146.349 66.083 146.349 64.957 C 146.349 63.831 145.436 62.918 144.31 62.918 Z M 152.465 62.918 C 151.339 62.918 150.426 63.831 150.426 64.957 C 150.426 66.083 151.339 66.996 152.465 66.996 C 153.591 66.996 154.504 66.083 154.504 64.957 C 154.504 63.831 153.591 62.918 152.465 62.918 Z M 160.62 62.918 C 159.494 62.918 158.581 63.831 158.581 64.957 C 158.581 66.083 159.494 66.996 160.62 66.996 C 161.746 66.996 162.659 66.083 162.659 64.957 C 162.659 63.831 161.746 62.918 160.62 62.918 Z M 168.775 62.918 C 167.649 62.918 166.736 63.831 166.736 64.957 C 166.736 66.083 167.649 66.996 168.775 66.996 C 169.901 66.996 170.813 66.083 170.813 64.957 C 170.813 63.831 169.901 62.918 168.775 62.918 Z M 176.93 62.918 C 175.804 62.918 174.891 63.831 174.891 64.957 C 174.891 66.083 175.804 66.996 176.93 66.996 C 178.056 66.996 178.968 66.083 178.968 64.957 C 178.968 63.831 178.056 62.918 176.93 62.918 Z M 185.085 62.918 C 183.959 62.918 183.046 63.831 183.046 64.957 C 183.046 66.083 183.959 66.996 185.085 66.996 C 186.211 66.996 187.123 66.083 187.123 64.957 C 187.123 63.831 186.211 62.918 185.085 62.918 Z M 193.24 62.918 C 192.114 62.918 191.201 63.831 191.201 64.957 C 191.201 66.083 192.114 66.996 193.24 66.996 C 194.366 66.996 195.278 66.083 195.278 64.957 C 195.278 63.831 194.366 62.918 193.24 62.918 Z M 201.394 62.918 C 200.269 62.918 199.356 63.831 199.356 64.957 C 199.356 66.083 200.269 66.996 201.394 66.996 C 202.52 66.996 203.433 66.083 203.433 64.957 C 203.433 63.831 202.52 62.918 201.394 62.918 Z M 209.549 62.918 C 208.423 62.918 207.511 63.831 207.511 64.957 C 207.511 66.083 208.423 66.996 209.549 66.996 C 210.675 66.996 211.588 66.083 211.588 64.957 C 211.588 63.831 210.675 62.918 209.549 62.918 Z M 217.704 62.918 C 216.578 62.918 215.666 63.831 215.666 64.957 C 215.666 66.083 216.578 66.996 217.704 66.996 C 218.83 66.996 219.743 66.083 219.743 64.957 C 219.743 63.831 218.83 62.918 217.704 62.918 Z M 225.859 62.918 C 224.733 62.918 223.821 63.831 223.821 64.957 C 223.821 66.083 224.733 66.996 225.859 66.996 C 226.985 66.996 227.898 66.083 227.898 64.957 C 227.898 63.831 226.985 62.918 225.859 62.918 Z M 234.014 62.918 C 232.888 62.918 231.976 63.831 231.976 64.957 C 231.976 66.083 232.888 66.996 234.014 66.996 C 235.14 66.996 236.053 66.083 236.053 64.957 C 236.053 63.831 235.14 62.918 234.014 62.918 Z M 242.169 62.918 C 241.043 62.918 240.13 63.831 240.13 64.957 C 240.13 66.083 241.043 66.996 242.169 66.996 C 243.295 66.996 244.208 66.083 244.208 64.957 C 244.208 63.831 243.295 62.918 242.169 62.918 Z"/>
    </g>
   </g>
  </g>
  <path fill="#fdc92b" d="M 90.315 11.95 C 30.311 11.95 11.982 18.892 7.185 60.88 L 248.815 60.88 C 244.018 18.892 225.689 11.95 165.685 11.95 L 90.315 11.95 L 90.315 11.95 L 90.315 11.95 Z"/>
  <path fill="#1463a5" d="M 62.76 85.344 L 62.76 93.499 L 193.24 93.499 L 193.24 85.344 L 62.76 85.344 L 62.76 85.344 L 62.76 85.344 Z M 62.76 109.809 L 62.76 117.964 L 193.24 117.964 L 193.24 109.809 L 62.76 109.809 L 62.76 109.809 L 62.76 109.809 Z M 62.76 134.274 L 62.76 142.429 L 193.24 142.429 L 193.24 134.274 L 62.76 134.274 L 62.76 134.274 L 62.76 134.274 Z M 62.76 158.739 L 62.76 166.894 L 128.091 166.894 L 128.091 158.739 L 62.76 158.739 L 62.76 158.739 L 62.76 158.739 Z"/>
 </g>
 <g opacity=".4">
  <line x1="250.324" x2="172.926" y1="163.827" y2="240.285"/>
 </g>
 <g opacity=".4">
  <linearGradient id="_lgradient_137" x1=".517" x2=".517" y1="0" y2="1" gradientTransform="matrix(244.65,0,0,228.34,5.68,11.95)" gradientUnits="userSpaceOnUse">
   <stop offset="0%" style="stop-color:#ffffff"/>
   <stop offset="12.5%" stop-opacity=".098" style="stop-color:#ffffff"/>
   <stop offset="92.5%" stop-opacity=".098" style="stop-color:#000000"/>
   <stop offset="100%" stop-opacity=".498" style="stop-color:#000000"/>
  </linearGradient>
  <path fill="url(#_lgradient_137)" fill-rule="evenodd" d="M 165.06803 11.951234 C 169.395994 11.941409 173.723944 11.990533 178.051908 12.088781 C 181.927398 12.167379 185.802873 12.31475 189.678362 12.540721 C 193.1309 12.737216 196.583423 13.022134 200.026115 13.395476 C 203.085193 13.729518 206.144271 14.181458 209.173842 14.741469 C 211.888645 15.242533 214.57394 15.881143 217.219897 16.6573 C 219.619947 17.354858 221.970814 18.219439 224.242988 19.241215 C 226.357793 20.184394 228.384061 21.304417 230.302129 22.591462 C 232.141505 23.829383 233.862851 25.244151 235.436659 26.80629 C 237.000621 28.378252 238.417046 30.087764 239.656409 31.924995 C 240.944972 33.840824 242.066305 35.864728 243.020409 37.967229 C 244.043389 40.246576 244.908985 42.584873 245.617197 44.972292 C 246.394255 47.615155 247.033606 50.297317 247.535265 53.008956 C 248.095924 56.034984 248.548399 59.080665 248.882828 62.13617 C 249.256611 65.574836 249.541856 69.013506 249.738578 72.462003 C 249.964823 76.323139 250.112361 80.194101 250.200884 84.055237 C 250.289421 88.378131 250.338591 92.701032 250.32876 97.014106 L 250.32876 155.225886 C 250.338591 159.54878 250.289421 163.861854 250.200884 168.184747 C 250.112361 172.05571 249.964823 175.916853 249.738578 179.777981 C 249.541856 183.226485 249.256611 186.674975 248.882828 190.103826 C 248.548399 193.15933 248.095924 196.214835 247.535265 199.240851 C 247.033606 201.942664 246.394255 204.624837 245.617197 207.267703 C 244.908985 209.655115 244.043389 212.003235 243.020409 214.272755 C 242.066305 216.38509 240.944972 218.399156 239.656409 220.314999 C 238.417046 222.152226 237.000621 223.871561 235.436659 225.433697 C 233.862851 226.995832 232.141505 228.410601 230.302129 229.648532 C 228.384061 230.935575 226.357793 232.055598 224.242988 232.998768 C 221.970814 234.020552 219.619947 234.885137 217.219897 235.592507 C 214.57394 236.368672 211.888645 237.007276 209.173842 237.498515 C 206.144271 238.068354 203.085193 238.510465 200.026115 238.844519 C 196.583423 239.21785 193.1309 239.502777 189.678362 239.699269 C 185.802873 239.925235 181.927398 240.072615 178.051908 240.161035 C 173.723944 240.249454 169.395994 240.298581 165.06803 240.288762 L 90.941963 240.288762 C 86.614006 240.298581 82.286049 240.249454 77.9581 240.161035 C 74.08261 240.072615 70.20712 239.925235 66.331638 239.699269 C 62.879108 239.502777 59.426578 239.21785 55.983886 238.844519 C 52.924808 238.510465 49.865733 238.068354 46.836162 237.498515 C 44.121356 237.007276 41.436057 236.368672 38.7901 235.592507 C 36.390053 234.885137 34.039187 234.020552 31.767009 232.998768 C 29.652213 232.055598 27.625943 230.935575 25.707871 229.648532 C 23.868489 228.410601 22.147143 226.995832 20.573343 225.433697 C 19.009377 223.871561 17.592955 222.152226 16.353586 220.314999 C 15.065036 218.399156 13.943701 216.38509 12.989584 214.272755 C 11.966612 212.003235 11.101021 209.655115 10.392811 207.267703 C 9.615746 204.624837 8.976389 201.942664 8.47474 199.240851 C 7.914072 196.214835 7.461604 193.15933 7.127172 190.103826 C 6.753394 186.674975 6.468142 183.226485 6.271417 179.777981 C 6.045183 175.916853 5.897639 172.05571 5.809112 168.184747 C 5.720586 163.861854 5.671405 159.54878 5.681241 155.225886 L 5.681241 97.014106 C 5.671405 92.701032 5.720586 88.378131 5.809112 84.055237 C 5.897639 80.194101 6.045183 76.323139 6.271417 72.462003 C 6.468142 69.013506 6.753394 65.574836 7.127172 62.13617 C 7.461604 59.080665 7.914072 56.034984 8.47474 53.008956 C 8.976389 50.297317 9.615746 47.615155 10.392811 44.972292 C 11.101021 42.584873 11.966612 40.246576 12.989584 37.967229 C 13.943701 35.864728 15.065036 33.840824 16.353586 31.924995 C 17.592955 30.087764 19.009377 28.378252 20.573343 26.80629 C 22.147143 25.244151 23.868489 23.829383 25.707871 22.591462 C 27.625943 21.304417 29.652213 20.184394 31.767009 19.241215 C 34.039187 18.219439 36.390053 17.354858 38.7901 16.6573 C 41.436057 15.881143 44.121356 15.242533 46.836162 14.741469 C 49.865733 14.181458 52.924808 13.729518 55.983886 13.395476 C 59.426578 13.022134 62.879108 12.737216 66.331638 12.540721 C 70.20712 12.31475 74.08261 12.167379 77.9581 12.088781 C 82.286049 11.990533 86.614006 11.941409 90.941963 11.951234 L 165.06803 11.951234 Z M 165.077876 15.959741 C 169.376317 15.949916 173.674759 15.99904 177.973216 16.087463 C 181.799522 16.175886 185.625827 16.323257 189.452133 16.539402 C 192.835809 16.735898 196.219486 17.010992 199.583486 17.384332 C 202.554026 17.698726 205.514751 18.131016 208.445953 18.681203 C 211.023049 19.152792 213.580483 19.761928 216.098564 20.498786 C 218.321569 21.147221 220.495374 21.952852 222.600334 22.896029 C 224.508571 23.750785 226.338116 24.762737 228.069293 25.922059 C 229.692286 27.012609 231.207063 28.260355 232.59398 29.645648 C 233.980897 31.030941 235.230091 32.543956 236.331763 34.165043 C 237.492434 35.894202 238.505568 37.711787 239.361333 39.607968 C 240.305606 41.720292 241.112187 43.891565 241.761369 46.102139 C 242.508934 48.617282 243.108947 51.161898 243.590914 53.735987 C 244.131912 56.663768 244.564709 59.6112 244.889308 62.578282 C 245.263091 65.938355 245.538505 69.308252 245.735227 72.687976 C 245.951626 76.509812 246.10901 80.321821 246.187687 84.143656 C 246.276225 88.437084 246.325394 92.720685 246.325394 97.014106 C 246.325394 97.014106 246.325394 97.014106 246.325394 97.014106 L 246.325394 155.225886 C 246.325394 155.225886 246.325394 155.225886 246.325394 155.225886 C 246.325394 159.519306 246.276225 163.802907 246.187687 168.096328 C 246.10901 171.918164 245.951626 175.739999 245.735227 179.552015 C 245.538505 182.931739 245.263091 186.301629 244.889308 189.671533 C 244.564709 192.628784 244.131912 195.576216 243.590914 198.503994 C 243.108947 201.078094 242.508934 203.622706 241.761369 206.137845 C 241.112187 208.358253 240.305606 210.5197 239.361333 212.63202 C 238.505568 214.528209 237.492434 216.355617 236.331763 218.074952 C 235.230091 219.705853 233.980897 221.218876 232.59398 222.604172 C 231.207063 223.979634 229.692286 225.227385 228.069293 226.317935 C 226.338116 227.477251 224.508571 228.489201 222.600334 229.343951 C 220.495374 230.296956 218.321569 231.092775 216.098564 231.741198 C 213.580483 232.478056 211.023049 233.087202 208.445953 233.558787 C 205.514751 234.108972 202.554026 234.541264 199.583486 234.865483 C 196.219486 235.228995 192.835809 235.513922 189.452133 235.70058 C 185.625827 235.916726 181.799522 236.073926 177.973216 236.152526 C 173.674759 236.25078 169.376317 236.290072 165.077876 236.290072 C 165.077876 236.290072 165.077876 236.290072 165.06803 236.290072 L 90.941963 236.290072 C 90.932125 236.290072 90.932125 236.290072 90.932125 236.290072 C 86.633683 236.290072 82.335234 236.25078 78.036784 236.152526 C 74.210479 236.073926 70.384173 235.916726 66.557868 235.70058 C 63.174195 235.513922 59.790522 235.228995 56.426518 234.865483 C 53.455967 234.541264 50.495253 234.108972 47.564048 233.558787 C 44.986944 233.087202 42.429517 232.478056 39.911433 231.741198 C 37.688439 231.092775 35.514626 230.296956 33.409665 229.343951 C 31.501429 228.489201 29.671886 227.477251 27.940703 226.317935 C 26.31772 225.227385 24.802935 223.979634 23.416022 222.604172 C 22.029109 221.218876 20.779904 219.705853 19.678243 218.074952 C 18.517564 216.355617 17.504428 214.528209 16.648674 212.63202 C 15.704392 210.5197 14.897819 208.358253 14.248626 206.137845 C 13.50107 203.622706 12.901057 201.078094 12.419081 198.503994 C 11.878086 195.576216 11.445291 192.628784 11.120694 189.671533 C 10.746916 186.301629 10.471501 182.931739 10.274776 179.552015 C 10.058378 175.739999 9.900997 171.918164 9.822307 168.096328 C 9.733781 163.802907 9.6846 159.519306 9.6846 155.225886 C 9.6846 155.225886 9.6846 155.225886 9.6846 155.225886 L 9.6846 97.014106 C 9.6846 97.014106 9.6846 97.014106 9.6846 97.014106 C 9.6846 92.720685 9.733781 88.437084 9.822307 84.143656 C 9.900997 80.321821 10.058378 76.509812 10.274776 72.687976 C 10.471501 69.308252 10.746916 65.938355 11.120694 62.578282 C 11.445291 59.6112 11.878086 56.663768 12.419081 53.735987 C 12.901057 51.161898 13.50107 48.617282 14.248626 46.102139 C 14.897819 43.891565 15.704392 41.720292 16.648674 39.607968 C 17.504428 37.711787 18.517564 35.894202 19.678243 34.165043 C 20.779904 32.543956 22.029109 31.030941 23.416022 29.645648 C 24.802935 28.260355 26.31772 27.012609 27.940703 25.922059 C 29.671886 24.762737 31.501429 23.750785 33.409665 22.896029 C 35.514626 21.952852 37.688439 21.147221 39.911433 20.498786 C 42.429517 19.761928 44.986944 19.152792 47.564048 18.681203 C 50.495253 18.131016 53.455967 17.698726 56.426518 17.384332 C 59.790522 17.010992 63.174195 16.735898 66.557868 16.539402 C 70.384173 16.323257 74.210479 16.175886 78.036784 16.087463 C 82.335234 15.99904 86.633683 15.949916 90.932125 15.959741 C 90.932125 15.959741 90.932125 15.959741 90.941963 15.959741 L 165.06803 15.959741 C 165.077876 15.959741 165.077876 15.959741 165.077876 15.959741 Z"/>
 </g>
</svg>
