<svg xmlns="http://www.w3.org/2000/svg" style="isolation:isolate" width="256" height="256" viewBox="0 0 256 256">
 <defs>
  <filter id="SLcTFKJsSbZaARhoOtoSWZukvVENrTTi" width="400%" height="400%" x="-200%" y="-200%" color-interpolation-filters="sRGB" filterUnits="objectBoundingBox">
   <feGaussianBlur xmlns="http://www.w3.org/2000/svg" in="SourceGraphic" stdDeviation="4.294"/>
   <feOffset xmlns="http://www.w3.org/2000/svg" dx="0" dy="4" result="pf_100_offsetBlur"/>
   <feFlood xmlns="http://www.w3.org/2000/svg" flood-opacity=".4"/>
   <feComposite xmlns="http://www.w3.org/2000/svg" in2="pf_100_offsetBlur" operator="in" result="pf_100_dropShadow"/>
   <feBlend xmlns="http://www.w3.org/2000/svg" in="SourceGraphic" in2="pf_100_dropShadow" mode="normal"/>
  </filter>
 </defs>
 <g filter="url(#SLcTFKJsSbZaARhoOtoSWZukvVENrTTi)">
  <linearGradient id="_lgradient_4" x1=".5" x2=".5" y1="1" y2="0" gradientTransform="matrix(244.648309,0,0,228.338396,5.619191,11.951604)" gradientUnits="userSpaceOnUse">
   <stop offset="0%" style="stop-color:#d1313e"/>
   <stop offset="34.838%" style="stop-color:#a9344f"/>
   <stop offset="100%" style="stop-color:#6b3274"/>
  </linearGradient>
  <path fill="url(#_lgradient_4)" d="M 165.628109 11.951604 C 239.683817 11.951604 250.2675 22.508801 250.2675 96.495462 L 250.2675 155.746257 C 250.2675 229.732514 239.683817 240.29 165.628109 240.29 L 90.258584 240.29 C 16.20288 240.29 5.619191 229.732514 5.619191 155.746257 L 5.619191 96.495462 C 5.619191 22.508801 16.20288 11.951604 90.258584 11.951604 L 165.628109 11.951604 Z"/>
 </g>
 <g opacity=".5">
  <path fill="#fee581" d="M 165.628109 11.951604 C 177 64 198.5 166.5 213.925082 236.67964 C 201.998092 239.468842 186.281519 240.29 165.628109 240.29 L 90.258584 240.29 C 68.274327 240.29 51.883637 239.359606 39.702885 236.115634 C 50.5 182.5 77.5 67 90.258584 11.951604 L 165.628109 11.951604 Z"/>
 </g>
 <g filter="url(#gy4KpahIHqkX68yR4W26b2fVrjqgLPh7)">
  <path fill="#ffffff" d="M 102.332867 82.999365 L 41.956868 82.999365 L 40.191868 106.123365 L 42.07087 106.123365 C 43.421868 88.804365 44.907868 85.773367 61.120869 85.773367 L 66.891865 85.773367 C 68.888867 86.085371 68.888867 87.356367 68.888867 89.763372 L 68.888867 146.677374 C 68.888867 150.455374 68.572865 151.608373 59.76487 151.608373 L 56.796868 151.608373 L 56.796868 154.133367 C 61.81287 154.036367 67.039868 153.934362 72.169865 153.934362 C 77.282872 153.934362 82.526867 154.036367 87.538868 154.133367 L 87.538868 151.608373 L 84.620869 151.608373 C 75.944867 151.608373 75.631871 150.455374 75.631871 146.677374 L 75.631871 89.763372 C 75.631871 87.453367 75.631871 86.199369 77.514866 85.773367 L 83.252865 85.773367 C 99.250866 85.773367 100.816868 88.787367 102.167866 106.123365 L 104.050869 106.123365"/>
  <path fill="#ffffff" d="M 154.796872 150.48937 L 152.917874 150.48937 C 150.624874 165.993368 149.273861 174.42037 130.88287 174.42037 L 116.370869 174.42037 C 112.195866 174.42037 111.996868 173.89237 111.996868 170.29537 L 111.996868 141.070364 L 121.859867 141.070364 C 131.722866 141.070364 132.664868 144.684362 132.664868 153.508367 L 134.344876 153.508367 L 134.344876 126.30937 L 132.664868 126.30937 C 132.664868 134.986364 131.722866 138.532369 121.859867 138.532369 L 111.996868 138.532369 L 111.996868 112.621366 C 111.996868 109.091368 112.195866 108.564367 116.370869 108.564367 L 130.666867 108.564367 C 146.846875 108.564367 148.72987 114.994367 150.194867 128.817365 L 152.077862 128.817365 L 149.569867 105.693365 L 96.628872 105.693365 L 96.628872 108.564367 C 104.033871 108.564367 105.220868 108.564367 105.220868 113.263372 L 105.220868 169.687368 C 105.220868 174.387365 104.050869 174.387365 96.628872 174.387365 L 96.628872 176.911367 L 151.038876 176.911367"/>
  <path fill="#ffffff" d="M 184.728863 113.913366 L 184.853863 113.700369 C 184.728863 113.913366 196.490872 95.298368 198.453869 92.203367 C 200.002865 90.007368 203.152874 85.49037 211.731869 85.376371 L 211.731869 82.85137 C 209.337872 83.049368 205.364865 83.049368 202.856869 83.049368 C 199.411862 83.049368 195.121868 83.049368 192.516873 82.85137 L 192.516873 85.376371 C 195.864865 85.688368 196.68887 87.782369 196.68887 89.467367 C 196.68887 90.717367 196.177868 91.561369 195.434872 92.60037 L 181.63287 112.621366 L 166.162869 89.978369 C 165.436871 88.838369 165.334866 88.509367 165.334866 88.196371 C 165.334866 87.255369 166.474865 85.473371 169.936871 85.376371 L 169.936871 82.85137 C 166.588864 83.049368 161.475872 83.049368 158.030865 83.049368 C 155.324871 83.049368 150.097866 83.049368 147.572873 82.85137 L 147.572873 85.376371 C 153.314862 85.376371 155.193875 85.591368 157.502865 88.838369 L 177.671872 118.460371 L 159.482861 145.030371 C 154.99487 151.528372 148.20187 151.64237 146.204861 151.64237 L 146.204861 154.167364 C 148.594876 153.969366 152.571865 153.969366 155.079861 153.969366 C 157.899868 153.969366 162.814862 153.969366 165.419873 154.167364 L 165.419873 151.64237 C 162.185864 151.330374 161.247876 149.235372 161.247876 147.551367 C 161.247876 146.199362 161.758862 145.456365 162.286862 144.713369 L 179.010876 120.305372 L 197.199871 147.040365 C 198.022869 148.197363 198.022869 148.509374 198.022869 148.821371 C 198.022869 149.645376 197.085873 151.443365 193.424862 151.659368 L 193.424862 154.184362 C 196.772869 153.985372 201.885876 153.985372 205.330868 153.985372 C 208.037869 153.985372 213.264874 153.985372 215.801861 154.184362 L 215.801861 151.659368 C 209.105862 151.659368 208.050869 151.148367 205.972866 148.197363"/>
 </g>
 <defs>
  <filter id="gy4KpahIHqkX68yR4W26b2fVrjqgLPh7" width="400%" height="400%" x="-200%" y="-200%" color-interpolation-filters="sRGB" filterUnits="objectBoundingBox">
   <feGaussianBlur xmlns="http://www.w3.org/2000/svg" in="SourceGraphic" stdDeviation="4.294"/>
   <feOffset xmlns="http://www.w3.org/2000/svg" dx="0" dy="4" result="pf_100_offsetBlur"/>
   <feFlood xmlns="http://www.w3.org/2000/svg" flood-opacity=".4"/>
   <feComposite xmlns="http://www.w3.org/2000/svg" in2="pf_100_offsetBlur" operator="in" result="pf_100_dropShadow"/>
   <feBlend xmlns="http://www.w3.org/2000/svg" in="SourceGraphic" in2="pf_100_dropShadow" mode="normal"/>
  </filter>
 </defs>
 <g opacity=".4">
  <linearGradient id="_lgradient_5" x1=".517" x2=".517" y1="0" y2="1" gradientTransform="matrix(244.65,0,0,228.34,5.68,11.95)" gradientUnits="userSpaceOnUse">
   <stop offset="0%" style="stop-color:#ffffff"/>
   <stop offset="12.5%" stop-opacity=".098" style="stop-color:#ffffff"/>
   <stop offset="92.5%" stop-opacity=".098" style="stop-color:#000000"/>
   <stop offset="100%" stop-opacity=".498" style="stop-color:#000000"/>
  </linearGradient>
  <path fill="url(#_lgradient_5)" fill-rule="evenodd" d="M 165.06803 11.951234 C 169.395994 11.941409 173.723944 11.990533 178.051908 12.088781 C 181.927398 12.167379 185.802873 12.31475 189.678362 12.540721 C 193.1309 12.737216 196.583423 13.022134 200.026115 13.395476 C 203.085193 13.729518 206.144271 14.181458 209.173842 14.741469 C 211.888645 15.242533 214.57394 15.881143 217.219897 16.6573 C 219.619947 17.354858 221.970814 18.219439 224.242988 19.241215 C 226.357793 20.184394 228.384061 21.304417 230.302129 22.591462 C 232.141505 23.829383 233.862851 25.244151 235.436659 26.80629 C 237.000621 28.378252 238.417046 30.087764 239.656409 31.924995 C 240.944972 33.840824 242.066305 35.864728 243.020409 37.967229 C 244.043389 40.246576 244.908985 42.584873 245.617197 44.972292 C 246.394255 47.615155 247.033606 50.297317 247.535265 53.008956 C 248.095924 56.034984 248.548399 59.080665 248.882828 62.13617 C 249.256611 65.574836 249.541856 69.013506 249.738578 72.462003 C 249.964823 76.323139 250.112361 80.194101 250.200884 84.055237 C 250.289421 88.378131 250.338591 92.701032 250.32876 97.014106 L 250.32876 155.225886 C 250.338591 159.54878 250.289421 163.861854 250.200884 168.184747 C 250.112361 172.05571 249.964823 175.916853 249.738578 179.777981 C 249.541856 183.226485 249.256611 186.674975 248.882828 190.103826 C 248.548399 193.15933 248.095924 196.214835 247.535265 199.240851 C 247.033606 201.942664 246.394255 204.624837 245.617197 207.267703 C 244.908985 209.655115 244.043389 212.003235 243.020409 214.272755 C 242.066305 216.38509 240.944972 218.399156 239.656409 220.314999 C 238.417046 222.152226 237.000621 223.871561 235.436659 225.433697 C 233.862851 226.995832 232.141505 228.410601 230.302129 229.648532 C 228.384061 230.935575 226.357793 232.055598 224.242988 232.998768 C 221.970814 234.020552 219.619947 234.885137 217.219897 235.592507 C 214.57394 236.368672 211.888645 237.007276 209.173842 237.498515 C 206.144271 238.068354 203.085193 238.510465 200.026115 238.844519 C 196.583423 239.21785 193.1309 239.502777 189.678362 239.699269 C 185.802873 239.925235 181.927398 240.072615 178.051908 240.161035 C 173.723944 240.249454 169.395994 240.298581 165.06803 240.288762 L 90.941963 240.288762 C 86.614006 240.298581 82.286049 240.249454 77.9581 240.161035 C 74.08261 240.072615 70.20712 239.925235 66.331638 239.699269 C 62.879108 239.502777 59.426578 239.21785 55.983886 238.844519 C 52.924808 238.510465 49.865733 238.068354 46.836162 237.498515 C 44.121356 237.007276 41.436057 236.368672 38.7901 235.592507 C 36.390053 234.885137 34.039187 234.020552 31.767009 232.998768 C 29.652213 232.055598 27.625943 230.935575 25.707871 229.648532 C 23.868489 228.410601 22.147143 226.995832 20.573343 225.433697 C 19.009377 223.871561 17.592955 222.152226 16.353586 220.314999 C 15.065036 218.399156 13.943701 216.38509 12.989584 214.272755 C 11.966612 212.003235 11.101021 209.655115 10.392811 207.267703 C 9.615746 204.624837 8.976389 201.942664 8.47474 199.240851 C 7.914072 196.214835 7.461604 193.15933 7.127172 190.103826 C 6.753394 186.674975 6.468142 183.226485 6.271417 179.777981 C 6.045183 175.916853 5.897639 172.05571 5.809112 168.184747 C 5.720586 163.861854 5.671405 159.54878 5.681241 155.225886 L 5.681241 97.014106 C 5.671405 92.701032 5.720586 88.378131 5.809112 84.055237 C 5.897639 80.194101 6.045183 76.323139 6.271417 72.462003 C 6.468142 69.013506 6.753394 65.574836 7.127172 62.13617 C 7.461604 59.080665 7.914072 56.034984 8.47474 53.008956 C 8.976389 50.297317 9.615746 47.615155 10.392811 44.972292 C 11.101021 42.584873 11.966612 40.246576 12.989584 37.967229 C 13.943701 35.864728 15.065036 33.840824 16.353586 31.924995 C 17.592955 30.087764 19.009377 28.378252 20.573343 26.80629 C 22.147143 25.244151 23.868489 23.829383 25.707871 22.591462 C 27.625943 21.304417 29.652213 20.184394 31.767009 19.241215 C 34.039187 18.219439 36.390053 17.354858 38.7901 16.6573 C 41.436057 15.881143 44.121356 15.242533 46.836162 14.741469 C 49.865733 14.181458 52.924808 13.729518 55.983886 13.395476 C 59.426578 13.022134 62.879108 12.737216 66.331638 12.540721 C 70.20712 12.31475 74.08261 12.167379 77.9581 12.088781 C 82.286049 11.990533 86.614006 11.941409 90.941963 11.951234 L 165.06803 11.951234 Z M 165.077876 15.959741 C 169.376317 15.949916 173.674759 15.99904 177.973216 16.087463 C 181.799522 16.175886 185.625827 16.323257 189.452133 16.539402 C 192.835809 16.735898 196.219486 17.010992 199.583486 17.384332 C 202.554026 17.698726 205.514751 18.131016 208.445953 18.681203 C 211.023049 19.152792 213.580483 19.761928 216.098564 20.498786 C 218.321569 21.147221 220.495374 21.952852 222.600334 22.896029 C 224.508571 23.750785 226.338116 24.762737 228.069293 25.922059 C 229.692286 27.012609 231.207063 28.260355 232.59398 29.645648 C 233.980897 31.030941 235.230091 32.543956 236.331763 34.165043 C 237.492434 35.894202 238.505568 37.711787 239.361333 39.607968 C 240.305606 41.720292 241.112187 43.891565 241.761369 46.102139 C 242.508934 48.617282 243.108947 51.161898 243.590914 53.735987 C 244.131912 56.663768 244.564709 59.6112 244.889308 62.578282 C 245.263091 65.938355 245.538505 69.308252 245.735227 72.687976 C 245.951626 76.509812 246.10901 80.321821 246.187687 84.143656 C 246.276225 88.437084 246.325394 92.720685 246.325394 97.014106 C 246.325394 97.014106 246.325394 97.014106 246.325394 97.014106 L 246.325394 155.225886 C 246.325394 155.225886 246.325394 155.225886 246.325394 155.225886 C 246.325394 159.519306 246.276225 163.802907 246.187687 168.096328 C 246.10901 171.918164 245.951626 175.739999 245.735227 179.552015 C 245.538505 182.931739 245.263091 186.301629 244.889308 189.671533 C 244.564709 192.628784 244.131912 195.576216 243.590914 198.503994 C 243.108947 201.078094 242.508934 203.622706 241.761369 206.137845 C 241.112187 208.358253 240.305606 210.5197 239.361333 212.63202 C 238.505568 214.528209 237.492434 216.355617 236.331763 218.074952 C 235.230091 219.705853 233.980897 221.218876 232.59398 222.604172 C 231.207063 223.979634 229.692286 225.227385 228.069293 226.317935 C 226.338116 227.477251 224.508571 228.489201 222.600334 229.343951 C 220.495374 230.296956 218.321569 231.092775 216.098564 231.741198 C 213.580483 232.478056 211.023049 233.087202 208.445953 233.558787 C 205.514751 234.108972 202.554026 234.541264 199.583486 234.865483 C 196.219486 235.228995 192.835809 235.513922 189.452133 235.70058 C 185.625827 235.916726 181.799522 236.073926 177.973216 236.152526 C 173.674759 236.25078 169.376317 236.290072 165.077876 236.290072 C 165.077876 236.290072 165.077876 236.290072 165.06803 236.290072 L 90.941963 236.290072 C 90.932125 236.290072 90.932125 236.290072 90.932125 236.290072 C 86.633683 236.290072 82.335234 236.25078 78.036784 236.152526 C 74.210479 236.073926 70.384173 235.916726 66.557868 235.70058 C 63.174195 235.513922 59.790522 235.228995 56.426518 234.865483 C 53.455967 234.541264 50.495253 234.108972 47.564048 233.558787 C 44.986944 233.087202 42.429517 232.478056 39.911433 231.741198 C 37.688439 231.092775 35.514626 230.296956 33.409665 229.343951 C 31.501429 228.489201 29.671886 227.477251 27.940703 226.317935 C 26.31772 225.227385 24.802935 223.979634 23.416022 222.604172 C 22.029109 221.218876 20.779904 219.705853 19.678243 218.074952 C 18.517564 216.355617 17.504428 214.528209 16.648674 212.63202 C 15.704392 210.5197 14.897819 208.358253 14.248626 206.137845 C 13.50107 203.622706 12.901057 201.078094 12.419081 198.503994 C 11.878086 195.576216 11.445291 192.628784 11.120694 189.671533 C 10.746916 186.301629 10.471501 182.931739 10.274776 179.552015 C 10.058378 175.739999 9.900997 171.918164 9.822307 168.096328 C 9.733781 163.802907 9.6846 159.519306 9.6846 155.225886 C 9.6846 155.225886 9.6846 155.225886 9.6846 155.225886 L 9.6846 97.014106 C 9.6846 97.014106 9.6846 97.014106 9.6846 97.014106 C 9.6846 92.720685 9.733781 88.437084 9.822307 84.143656 C 9.900997 80.321821 10.058378 76.509812 10.274776 72.687976 C 10.471501 69.308252 10.746916 65.938355 11.120694 62.578282 C 11.445291 59.6112 11.878086 56.663768 12.419081 53.735987 C 12.901057 51.161898 13.50107 48.617282 14.248626 46.102139 C 14.897819 43.891565 15.704392 41.720292 16.648674 39.607968 C 17.504428 37.711787 18.517564 35.894202 19.678243 34.165043 C 20.779904 32.543956 22.029109 31.030941 23.416022 29.645648 C 24.802935 28.260355 26.31772 27.012609 27.940703 25.922059 C 29.671886 24.762737 31.501429 23.750785 33.409665 22.896029 C 35.514626 21.952852 37.688439 21.147221 39.911433 20.498786 C 42.429517 19.761928 44.986944 19.152792 47.564048 18.681203 C 50.495253 18.131016 53.455967 17.698726 56.426518 17.384332 C 59.790522 17.010992 63.174195 16.735898 66.557868 16.539402 C 70.384173 16.323257 74.210479 16.175886 78.036784 16.087463 C 82.335234 15.99904 86.633683 15.949916 90.932125 15.959741 C 90.932125 15.959741 90.932125 15.959741 90.941963 15.959741 L 165.06803 15.959741 C 165.077876 15.959741 165.077876 15.959741 165.077876 15.959741 Z"/>
 </g>
</svg>
