<svg xmlns="http://www.w3.org/2000/svg" style="isolation:isolate" width="256" height="256" viewBox="0 0 256 256">
 <defs>
  <filter id="zeZUYgh5kMVTy6ozzLP5CMdVZEae1aFX" width="400%" height="400%" x="-200%" y="-200%" color-interpolation-filters="sRGB" filterUnits="objectBoundingBox">
   <feGaussianBlur xmlns="http://www.w3.org/2000/svg" in="SourceGraphic" stdDeviation="4.294"/>
   <feOffset xmlns="http://www.w3.org/2000/svg" dx="0" dy="4" result="pf_100_offsetBlur"/>
   <feFlood xmlns="http://www.w3.org/2000/svg" flood-opacity=".4"/>
   <feComposite xmlns="http://www.w3.org/2000/svg" in2="pf_100_offsetBlur" operator="in" result="pf_100_dropShadow"/>
   <feBlend xmlns="http://www.w3.org/2000/svg" in="SourceGraphic" in2="pf_100_dropShadow" mode="normal"/>
  </filter>
 </defs>
 <g filter="url(#zeZUYgh5kMVTy6ozzLP5CMdVZEae1aFX)">
  <linearGradient id="_lgradient_4" x1="0" x2="0" y1="0" y2="1" gradientTransform="matrix(244.648,0,0,228.338,5.676,11.952)" gradientUnits="userSpaceOnUse">
   <stop offset="0%" style="stop-color:#ad4f8d"/>
   <stop offset="100%" style="stop-color:#6b8ccb"/>
  </linearGradient>
  <path fill="url(#_lgradient_4)" d="M 165.685 11.952 C 239.74 11.952 250.324 22.509 250.324 96.495 L 250.324 155.746 C 250.324 229.733 239.74 240.29 165.685 240.29 L 90.315 240.29 C 16.26 240.29 5.676 229.733 5.676 155.746 L 5.676 96.495 C 5.676 22.509 16.26 11.952 90.315 11.952 L 165.685 11.952 Z"/>
 </g>
 <g opacity=".4">
  <linearGradient id="_lgradient_5" x1=".517" x2=".517" y1="0" y2="1" gradientTransform="matrix(244.65,0,0,228.34,5.68,11.95)" gradientUnits="userSpaceOnUse">
   <stop offset="0%" style="stop-color:#ffffff"/>
   <stop offset="12.5%" stop-opacity=".098" style="stop-color:#ffffff"/>
   <stop offset="92.5%" stop-opacity=".098" style="stop-color:#000000"/>
   <stop offset="100%" stop-opacity=".498" style="stop-color:#000000"/>
  </linearGradient>
  <path fill="url(#_lgradient_5)" fill-rule="evenodd" d="M 165.068 11.951 C 169.396 11.941 173.724 11.991 178.052 12.089 C 181.927 12.167 185.803 12.315 189.678 12.541 C 193.131 12.737 196.583 13.022 200.026 13.395 C 203.085 13.73 206.144 14.181 209.174 14.741 C 211.889 15.243 214.574 15.881 217.22 16.657 C 219.62 17.355 221.971 18.219 224.243 19.241 C 226.358 20.184 228.384 21.304 230.302 22.591 C 232.142 23.829 233.863 25.244 235.437 26.806 C 237.001 28.378 238.417 30.088 239.656 31.925 C 240.945 33.841 242.066 35.865 243.02 37.967 C 244.043 40.247 244.909 42.585 245.617 44.972 C 246.394 47.615 247.034 50.297 247.535 53.009 C 248.096 56.035 248.548 59.081 248.883 62.136 C 249.257 65.575 249.542 69.014 249.739 72.462 C 249.965 76.323 250.112 80.194 250.201 84.055 C 250.289 88.378 250.339 92.701 250.329 97.014 L 250.329 155.226 C 250.339 159.549 250.289 163.862 250.201 168.185 C 250.112 172.056 249.965 175.917 249.739 179.778 C 249.542 183.226 249.257 186.675 248.883 190.104 C 248.548 193.159 248.096 196.215 247.535 199.241 C 247.034 201.943 246.394 204.625 245.617 207.268 C 244.909 209.655 244.043 212.003 243.02 214.273 C 242.066 216.385 240.945 218.399 239.656 220.315 C 238.417 222.152 237.001 223.872 235.437 225.434 C 233.863 226.996 232.142 228.411 230.302 229.649 C 228.384 230.936 226.358 232.056 224.243 232.999 C 221.971 234.021 219.62 234.885 217.22 235.593 C 214.574 236.369 211.889 237.007 209.174 237.499 C 206.144 238.068 203.085 238.51 200.026 238.845 C 196.583 239.218 193.131 239.503 189.678 239.699 C 185.803 239.925 181.927 240.073 178.052 240.161 C 173.724 240.249 169.396 240.299 165.068 240.289 L 90.942 240.289 C 86.614 240.299 82.286 240.249 77.958 240.161 C 74.083 240.073 70.207 239.925 66.332 239.699 C 62.879 239.503 59.427 239.218 55.984 238.845 C 52.925 238.51 49.866 238.068 46.836 237.499 C 44.121 237.007 41.436 236.369 38.79 235.593 C 36.39 234.885 34.039 234.021 31.767 232.999 C 29.652 232.056 27.626 230.936 25.708 229.649 C 23.868 228.411 22.147 226.996 20.573 225.434 C 19.009 223.872 17.593 222.152 16.354 220.315 C 15.065 218.399 13.944 216.385 12.99 214.273 C 11.967 212.003 11.101 209.655 10.393 207.268 C 9.616 204.625 8.976 201.943 8.475 199.241 C 7.914 196.215 7.462 193.159 7.127 190.104 C 6.753 186.675 6.468 183.226 6.271 179.778 C 6.045 175.917 5.898 172.056 5.809 168.185 C 5.721 163.862 5.671 159.549 5.681 155.226 L 5.681 97.014 C 5.671 92.701 5.721 88.378 5.809 84.055 C 5.898 80.194 6.045 76.323 6.271 72.462 C 6.468 69.014 6.753 65.575 7.127 62.136 C 7.462 59.081 7.914 56.035 8.475 53.009 C 8.976 50.297 9.616 47.615 10.393 44.972 C 11.101 42.585 11.967 40.247 12.99 37.967 C 13.944 35.865 15.065 33.841 16.354 31.925 C 17.593 30.088 19.009 28.378 20.573 26.806 C 22.147 25.244 23.868 23.829 25.708 22.591 C 27.626 21.304 29.652 20.184 31.767 19.241 C 34.039 18.219 36.39 17.355 38.79 16.657 C 41.436 15.881 44.121 15.243 46.836 14.741 C 49.866 14.181 52.925 13.73 55.984 13.395 C 59.427 13.022 62.879 12.737 66.332 12.541 C 70.207 12.315 74.083 12.167 77.958 12.089 C 82.286 11.991 86.614 11.941 90.942 11.951 L 165.068 11.951 Z M 165.078 15.96 C 169.376 15.95 173.675 15.999 177.973 16.087 C 181.8 16.176 185.626 16.323 189.452 16.539 C 192.836 16.736 196.219 17.011 199.583 17.384 C 202.554 17.699 205.515 18.131 208.446 18.681 C 211.023 19.153 213.58 19.762 216.099 20.499 C 218.322 21.147 220.495 21.953 222.6 22.896 C 224.509 23.751 226.338 24.763 228.069 25.922 C 229.692 27.013 231.207 28.26 232.594 29.646 C 233.981 31.031 235.23 32.544 236.332 34.165 C 237.492 35.894 238.506 37.712 239.361 39.608 C 240.306 41.72 241.112 43.892 241.761 46.102 C 242.509 48.617 243.109 51.162 243.591 53.736 C 244.132 56.664 244.565 59.611 244.889 62.578 C 245.263 65.938 245.539 69.308 245.735 72.688 C 245.952 76.51 246.109 80.322 246.188 84.144 C 246.276 88.437 246.325 92.721 246.325 97.014 C 246.325 97.014 246.325 97.014 246.325 97.014 L 246.325 155.226 C 246.325 155.226 246.325 155.226 246.325 155.226 C 246.325 159.519 246.276 163.803 246.188 168.096 C 246.109 171.918 245.952 175.74 245.735 179.552 C 245.539 182.932 245.263 186.302 244.889 189.672 C 244.565 192.629 244.132 195.576 243.591 198.504 C 243.109 201.078 242.509 203.623 241.761 206.138 C 241.112 208.358 240.306 210.52 239.361 212.632 C 238.506 214.528 237.492 216.356 236.332 218.075 C 235.23 219.706 233.981 221.219 232.594 222.604 C 231.207 223.98 229.692 225.227 228.069 226.318 C 226.338 227.477 224.509 228.489 222.6 229.344 C 220.495 230.297 218.322 231.093 216.099 231.741 C 213.58 232.478 211.023 233.087 208.446 233.559 C 205.515 234.109 202.554 234.541 199.583 234.865 C 196.219 235.229 192.836 235.514 189.452 235.701 C 185.626 235.917 181.8 236.074 177.973 236.153 C 173.675 236.251 169.376 236.29 165.078 236.29 C 165.078 236.29 165.078 236.29 165.068 236.29 L 90.942 236.29 C 90.932 236.29 90.932 236.29 90.932 236.29 C 86.634 236.29 82.335 236.251 78.037 236.153 C 74.21 236.074 70.384 235.917 66.558 235.701 C 63.174 235.514 59.791 235.229 56.427 234.865 C 53.456 234.541 50.495 234.109 47.564 233.559 C 44.987 233.087 42.43 232.478 39.911 231.741 C 37.688 231.093 35.515 230.297 33.41 229.344 C 31.501 228.489 29.672 227.477 27.941 226.318 C 26.318 225.227 24.803 223.98 23.416 222.604 C 22.029 221.219 20.78 219.706 19.678 218.075 C 18.518 216.356 17.504 214.528 16.649 212.632 C 15.704 210.52 14.898 208.358 14.249 206.138 C 13.501 203.623 12.901 201.078 12.419 198.504 C 11.878 195.576 11.445 192.629 11.121 189.672 C 10.747 186.302 10.472 182.932 10.275 179.552 C 10.058 175.74 9.901 171.918 9.822 168.096 C 9.734 163.803 9.685 159.519 9.685 155.226 C 9.685 155.226 9.685 155.226 9.685 155.226 L 9.685 97.014 C 9.685 97.014 9.685 97.014 9.685 97.014 C 9.685 92.721 9.734 88.437 9.822 84.144 C 9.901 80.322 10.058 76.51 10.275 72.688 C 10.472 69.308 10.747 65.938 11.121 62.578 C 11.445 59.611 11.878 56.664 12.419 53.736 C 12.901 51.162 13.501 48.617 14.249 46.102 C 14.898 43.892 15.704 41.72 16.649 39.608 C 17.504 37.712 18.518 35.894 19.678 34.165 C 20.78 32.544 22.029 31.031 23.416 29.646 C 24.803 28.26 26.318 27.013 27.941 25.922 C 29.672 24.763 31.501 23.751 33.41 22.896 C 35.515 21.953 37.688 21.147 39.911 20.499 C 42.43 19.762 44.987 19.153 47.564 18.681 C 50.495 18.131 53.456 17.699 56.427 17.384 C 59.791 17.011 63.174 16.736 66.558 16.539 C 70.384 16.323 74.21 16.176 78.037 16.087 C 82.335 15.999 86.634 15.95 90.932 15.96 C 90.932 15.96 90.932 15.96 90.942 15.96 L 165.068 15.96 C 165.078 15.96 165.078 15.96 165.078 15.96 Z"/>
 </g>
 <defs>
  <filter id="D0d1D8LRSRQeJXkWOAiIvaaCIpf77EU3" width="400%" height="400%" x="-200%" y="-200%" color-interpolation-filters="sRGB" filterUnits="objectBoundingBox">
   <feGaussianBlur xmlns="http://www.w3.org/2000/svg" stdDeviation="4.294"/>
  </filter>
 </defs>
 <g opacity=".4" filter="url(#D0d1D8LRSRQeJXkWOAiIvaaCIpf77EU3)">
  <path fill="#111111" fill-rule="evenodd" d="M 88.04 104.201 L 88.04 143.801 L 88.04 143.801 Q 88.04 147.481 86.96 150.481 L 86.96 150.481 L 86.96 150.481 Q 85.88 153.481 83.12 155.601 L 83.12 155.601 L 83.12 155.601 Q 80.36 157.721 75.56 158.921 L 75.56 158.921 L 75.56 158.921 Q 70.76 160.121 63.32 160.121 L 63.32 160.121 L 63.32 160.121 Q 55.88 160.121 51.08 158.921 L 51.08 158.921 L 51.08 158.921 Q 46.28 157.721 43.52 155.601 L 43.52 155.601 L 43.52 155.601 Q 40.76 153.481 39.68 150.481 L 39.68 150.481 L 39.68 150.481 Q 38.6 147.481 38.6 143.801 L 38.6 143.801 L 38.6 104.201 L 38.6 104.201 Q 38.6 102.681 39.28 102.001 L 39.28 102.001 L 39.28 102.001 Q 39.96 101.321 41.48 101.321 L 41.48 101.321 L 54.04 101.321 L 54.04 101.321 Q 55.56 101.321 56.24 102.001 L 56.24 102.001 L 56.24 102.001 Q 56.92 102.681 56.92 104.201 L 56.92 104.201 L 56.92 140.681 L 56.92 140.681 Q 56.92 142.281 58.12 143.361 L 58.12 143.361 L 58.12 143.361 Q 59.32 144.441 63.48 144.441 L 63.48 144.441 L 63.48 144.441 Q 67.72 144.441 68.92 143.361 L 68.92 143.361 L 68.92 143.361 Q 70.12 142.281 70.12 140.681 L 70.12 140.681 L 70.12 104.201 L 70.12 104.201 Q 70.12 102.681 70.8 102.001 L 70.8 102.001 L 70.8 102.001 Q 71.48 101.321 73 101.321 L 73 101.321 L 85.16 101.321 L 85.16 101.321 Q 86.68 101.321 87.36 102.001 L 87.36 102.001 L 87.36 102.001 Q 88.04 102.681 88.04 104.201 L 88.04 104.201 Z M 122.76 115.721 L 116.76 115.721 L 116.76 125.961 L 122.76 125.961 L 122.76 125.961 Q 124.84 125.961 125.56 124.881 L 125.56 124.881 L 125.56 124.881 Q 126.28 123.801 126.28 122.201 L 126.28 122.201 L 126.28 119.481 L 126.28 119.481 Q 126.28 117.881 125.56 116.801 L 125.56 116.801 L 125.56 116.801 Q 124.84 115.721 122.76 115.721 L 122.76 115.721 Z M 113.88 158.921 L 113.88 158.921 L 101.56 158.921 L 101.56 158.921 Q 100.04 158.921 99.36 158.241 L 99.36 158.241 L 99.36 158.241 Q 98.68 157.561 98.68 156.041 L 98.68 156.041 L 98.68 104.201 L 98.68 104.201 Q 98.68 102.681 99.36 102.001 L 99.36 102.001 L 99.36 102.001 Q 100.04 101.321 101.56 101.321 L 101.56 101.321 L 128.2 101.321 L 128.2 101.321 Q 137.16 101.321 140.56 105.041 L 140.56 105.041 L 140.56 105.041 Q 143.96 108.761 143.96 114.681 L 143.96 114.681 L 143.96 118.361 L 143.96 118.361 Q 143.96 121.721 142.96 124.081 L 142.96 124.081 L 142.96 124.081 Q 141.96 126.441 139.48 127.481 L 139.48 127.481 L 139.48 127.481 Q 143.8 127.961 146.48 131.001 L 146.48 131.001 L 146.48 131.001 Q 149.16 134.041 149.16 139.081 L 149.16 139.081 L 149.16 156.041 L 149.16 156.041 Q 149.16 157.561 148.48 158.241 L 148.48 158.241 L 148.48 158.241 Q 147.8 158.921 146.28 158.921 L 146.28 158.921 L 133.88 158.921 L 133.88 158.921 Q 132.36 158.921 131.68 158.241 L 131.68 158.241 L 131.68 158.241 Q 131 157.561 131 156.041 L 131 156.041 L 131 143.801 L 131 143.801 Q 131 142.041 130.32 141.201 L 130.32 141.201 L 130.32 141.201 Q 129.64 140.361 127.96 140.361 L 127.96 140.361 L 116.76 140.361 L 116.76 156.041 L 116.76 156.041 Q 116.76 157.561 116.08 158.241 L 116.08 158.241 L 116.08 158.241 Q 115.4 158.921 113.88 158.921 Z M 172.92 158.921 L 172.92 158.921 L 161 158.921 L 161 158.921 Q 159.48 158.921 158.8 158.241 L 158.8 158.241 L 158.8 158.241 Q 158.12 157.561 158.12 156.041 L 158.12 156.041 L 158.12 104.201 L 158.12 104.201 Q 158.12 102.681 158.8 102.001 L 158.8 102.001 L 158.8 102.001 Q 159.48 101.321 161 101.321 L 161 101.321 L 173.88 101.321 L 173.88 101.321 Q 175.16 101.321 176 101.881 L 176 101.881 L 176 101.881 Q 176.84 102.441 177.56 103.721 L 177.56 103.721 L 184.76 116.761 L 184.76 116.761 Q 185.16 117.481 185.44 117.801 L 185.44 117.801 L 185.44 117.801 Q 185.72 118.121 186.2 118.121 L 186.2 118.121 L 186.92 118.121 L 186.92 118.121 Q 187.4 118.121 187.68 117.801 L 187.68 117.801 L 187.68 117.801 Q 187.96 117.481 188.36 116.761 L 188.36 116.761 L 195.48 103.721 L 195.48 103.721 Q 196.2 102.441 197.04 101.881 L 197.04 101.881 L 197.04 101.881 Q 197.88 101.321 199.16 101.321 L 199.16 101.321 L 212.12 101.321 L 212.12 101.321 Q 213.64 101.321 214.32 102.001 L 214.32 102.001 L 214.32 102.001 Q 215 102.681 215 104.201 L 215 104.201 L 215 156.041 L 215 156.041 Q 215 157.561 214.32 158.241 L 214.32 158.241 L 214.32 158.241 Q 213.64 158.921 212.12 158.921 L 212.12 158.921 L 199.8 158.921 L 199.8 158.921 Q 198.28 158.921 197.6 158.241 L 197.6 158.241 L 197.6 158.241 Q 196.92 157.561 196.92 156.041 L 196.92 156.041 L 196.92 127.881 L 192.2 136.601 L 192.2 136.601 Q 191.48 137.961 190.48 138.561 L 190.48 138.561 L 190.48 138.561 Q 189.48 139.161 187.96 139.161 L 187.96 139.161 L 184.76 139.161 L 184.76 139.161 Q 183.24 139.161 182.24 138.561 L 182.24 138.561 L 182.24 138.561 Q 181.24 137.961 180.52 136.601 L 180.52 136.601 L 175.8 127.881 L 175.8 156.041 L 175.8 156.041 Q 175.8 157.561 175.12 158.241 L 175.12 158.241 L 175.12 158.241 Q 174.44 158.921 172.92 158.921 Z"/>
 </g>
 <path fill="#ffffff" fill-rule="evenodd" d="M 88.04 100.201 L 88.04 139.801 L 88.04 139.801 Q 88.04 143.481 86.96 146.481 L 86.96 146.481 L 86.96 146.481 Q 85.88 149.481 83.12 151.601 L 83.12 151.601 L 83.12 151.601 Q 80.36 153.721 75.56 154.921 L 75.56 154.921 L 75.56 154.921 Q 70.76 156.121 63.32 156.121 L 63.32 156.121 L 63.32 156.121 Q 55.88 156.121 51.08 154.921 L 51.08 154.921 L 51.08 154.921 Q 46.28 153.721 43.52 151.601 L 43.52 151.601 L 43.52 151.601 Q 40.76 149.481 39.68 146.481 L 39.68 146.481 L 39.68 146.481 Q 38.6 143.481 38.6 139.801 L 38.6 139.801 L 38.6 100.201 L 38.6 100.201 Q 38.6 98.681 39.28 98.001 L 39.28 98.001 L 39.28 98.001 Q 39.96 97.321 41.48 97.321 L 41.48 97.321 L 54.04 97.321 L 54.04 97.321 Q 55.56 97.321 56.24 98.001 L 56.24 98.001 L 56.24 98.001 Q 56.92 98.681 56.92 100.201 L 56.92 100.201 L 56.92 136.681 L 56.92 136.681 Q 56.92 138.281 58.12 139.361 L 58.12 139.361 L 58.12 139.361 Q 59.32 140.441 63.48 140.441 L 63.48 140.441 L 63.48 140.441 Q 67.72 140.441 68.92 139.361 L 68.92 139.361 L 68.92 139.361 Q 70.12 138.281 70.12 136.681 L 70.12 136.681 L 70.12 100.201 L 70.12 100.201 Q 70.12 98.681 70.8 98.001 L 70.8 98.001 L 70.8 98.001 Q 71.48 97.321 73 97.321 L 73 97.321 L 85.16 97.321 L 85.16 97.321 Q 86.68 97.321 87.36 98.001 L 87.36 98.001 L 87.36 98.001 Q 88.04 98.681 88.04 100.201 L 88.04 100.201 Z M 122.76 111.721 L 116.76 111.721 L 116.76 121.961 L 122.76 121.961 L 122.76 121.961 Q 124.84 121.961 125.56 120.881 L 125.56 120.881 L 125.56 120.881 Q 126.28 119.801 126.28 118.201 L 126.28 118.201 L 126.28 115.481 L 126.28 115.481 Q 126.28 113.881 125.56 112.801 L 125.56 112.801 L 125.56 112.801 Q 124.84 111.721 122.76 111.721 L 122.76 111.721 Z M 113.88 154.921 L 113.88 154.921 L 101.56 154.921 L 101.56 154.921 Q 100.04 154.921 99.36 154.241 L 99.36 154.241 L 99.36 154.241 Q 98.68 153.561 98.68 152.041 L 98.68 152.041 L 98.68 100.201 L 98.68 100.201 Q 98.68 98.681 99.36 98.001 L 99.36 98.001 L 99.36 98.001 Q 100.04 97.321 101.56 97.321 L 101.56 97.321 L 128.2 97.321 L 128.2 97.321 Q 137.16 97.321 140.56 101.041 L 140.56 101.041 L 140.56 101.041 Q 143.96 104.761 143.96 110.681 L 143.96 110.681 L 143.96 114.361 L 143.96 114.361 Q 143.96 117.721 142.96 120.081 L 142.96 120.081 L 142.96 120.081 Q 141.96 122.441 139.48 123.481 L 139.48 123.481 L 139.48 123.481 Q 143.8 123.961 146.48 127.001 L 146.48 127.001 L 146.48 127.001 Q 149.16 130.041 149.16 135.081 L 149.16 135.081 L 149.16 152.041 L 149.16 152.041 Q 149.16 153.561 148.48 154.241 L 148.48 154.241 L 148.48 154.241 Q 147.8 154.921 146.28 154.921 L 146.28 154.921 L 133.88 154.921 L 133.88 154.921 Q 132.36 154.921 131.68 154.241 L 131.68 154.241 L 131.68 154.241 Q 131 153.561 131 152.041 L 131 152.041 L 131 139.801 L 131 139.801 Q 131 138.041 130.32 137.201 L 130.32 137.201 L 130.32 137.201 Q 129.64 136.361 127.96 136.361 L 127.96 136.361 L 116.76 136.361 L 116.76 152.041 L 116.76 152.041 Q 116.76 153.561 116.08 154.241 L 116.08 154.241 L 116.08 154.241 Q 115.4 154.921 113.88 154.921 Z M 172.92 154.921 L 172.92 154.921 L 161 154.921 L 161 154.921 Q 159.48 154.921 158.8 154.241 L 158.8 154.241 L 158.8 154.241 Q 158.12 153.561 158.12 152.041 L 158.12 152.041 L 158.12 100.201 L 158.12 100.201 Q 158.12 98.681 158.8 98.001 L 158.8 98.001 L 158.8 98.001 Q 159.48 97.321 161 97.321 L 161 97.321 L 173.88 97.321 L 173.88 97.321 Q 175.16 97.321 176 97.881 L 176 97.881 L 176 97.881 Q 176.84 98.441 177.56 99.721 L 177.56 99.721 L 184.76 112.761 L 184.76 112.761 Q 185.16 113.481 185.44 113.801 L 185.44 113.801 L 185.44 113.801 Q 185.72 114.121 186.2 114.121 L 186.2 114.121 L 186.92 114.121 L 186.92 114.121 Q 187.4 114.121 187.68 113.801 L 187.68 113.801 L 187.68 113.801 Q 187.96 113.481 188.36 112.761 L 188.36 112.761 L 195.48 99.721 L 195.48 99.721 Q 196.2 98.441 197.04 97.881 L 197.04 97.881 L 197.04 97.881 Q 197.88 97.321 199.16 97.321 L 199.16 97.321 L 212.12 97.321 L 212.12 97.321 Q 213.64 97.321 214.32 98.001 L 214.32 98.001 L 214.32 98.001 Q 215 98.681 215 100.201 L 215 100.201 L 215 152.041 L 215 152.041 Q 215 153.561 214.32 154.241 L 214.32 154.241 L 214.32 154.241 Q 213.64 154.921 212.12 154.921 L 212.12 154.921 L 199.8 154.921 L 199.8 154.921 Q 198.28 154.921 197.6 154.241 L 197.6 154.241 L 197.6 154.241 Q 196.92 153.561 196.92 152.041 L 196.92 152.041 L 196.92 123.881 L 192.2 132.601 L 192.2 132.601 Q 191.48 133.961 190.48 134.561 L 190.48 134.561 L 190.48 134.561 Q 189.48 135.161 187.96 135.161 L 187.96 135.161 L 184.76 135.161 L 184.76 135.161 Q 183.24 135.161 182.24 134.561 L 182.24 134.561 L 182.24 134.561 Q 181.24 133.961 180.52 132.601 L 180.52 132.601 L 175.8 123.881 L 175.8 152.041 L 175.8 152.041 Q 175.8 153.561 175.12 154.241 L 175.12 154.241 L 175.12 154.241 Q 174.44 154.921 172.92 154.921 Z"/>
</svg>
