<svg xmlns="http://www.w3.org/2000/svg" style="isolation:isolate" width="256" height="256" viewBox="0 0 256 256">
 <defs>
  <filter id="TPLBJge1SP9MAVpdHDvskvJiAIfYt6XT" width="400%" height="400%" x="-200%" y="-200%" color-interpolation-filters="sRGB" filterUnits="objectBoundingBox">
   <feGaussianBlur xmlns="http://www.w3.org/2000/svg" in="SourceGraphic" stdDeviation="4.294"/>
   <feOffset xmlns="http://www.w3.org/2000/svg" dx="0" dy="4" result="pf_100_offsetBlur"/>
   <feFlood xmlns="http://www.w3.org/2000/svg" flood-opacity=".4"/>
   <feComposite xmlns="http://www.w3.org/2000/svg" in2="pf_100_offsetBlur" operator="in" result="pf_100_dropShadow"/>
   <feBlend xmlns="http://www.w3.org/2000/svg" in="SourceGraphic" in2="pf_100_dropShadow" mode="normal"/>
  </filter>
 </defs>
 <g filter="url(#TPLBJge1SP9MAVpdHDvskvJiAIfYt6XT)">
  <linearGradient id="_lgradient_97" x1=".516" x2=".52" y1="1.651" y2=".098" gradientTransform="matrix(244.648309,0,0,228.338396,5.806691,12.075)" gradientUnits="userSpaceOnUse">
   <stop offset="0%" style="stop-color:#0575e6"/>
   <stop offset="100%" style="stop-color:#00f260"/>
  </linearGradient>
  <path fill="url(#_lgradient_97)" d="M 165.815609 12.075 C 239.871317 12.075 250.455 22.632198 250.455 96.618859 L 250.455 155.869653 C 250.455 229.85591 239.871317 240.413396 165.815609 240.413396 L 90.446084 240.413396 C 16.39038 240.413396 5.806691 229.85591 5.806691 155.869653 L 5.806691 96.618859 C 5.806691 22.632198 16.39038 12.075 90.446084 12.075 L 165.815609 12.075 Z"/>
 </g>
 <g opacity=".4">
  <linearGradient id="_lgradient_98" x1=".517" x2=".517" y1="0" y2="1" gradientTransform="matrix(244.65,0,0,228.34,5.68,11.95)" gradientUnits="userSpaceOnUse">
   <stop offset="0%" style="stop-color:#ffffff"/>
   <stop offset="12.5%" stop-opacity=".098" style="stop-color:#ffffff"/>
   <stop offset="92.5%" stop-opacity=".098" style="stop-color:#000000"/>
   <stop offset="100%" stop-opacity=".498" style="stop-color:#000000"/>
  </linearGradient>
  <path fill="url(#_lgradient_98)" fill-rule="evenodd" d="M 165.06803 11.951234 C 169.395994 11.941409 173.723944 11.990533 178.051908 12.088781 C 181.927398 12.167379 185.802873 12.31475 189.678362 12.540721 C 193.1309 12.737216 196.583423 13.022134 200.026115 13.395476 C 203.085193 13.729518 206.144271 14.181458 209.173842 14.741469 C 211.888645 15.242533 214.57394 15.881143 217.219897 16.6573 C 219.619947 17.354858 221.970814 18.219439 224.242988 19.241215 C 226.357793 20.184394 228.384061 21.304417 230.302129 22.591462 C 232.141505 23.829383 233.862851 25.244151 235.436659 26.80629 C 237.000621 28.378252 238.417046 30.087764 239.656409 31.924995 C 240.944972 33.840824 242.066305 35.864728 243.020409 37.967229 C 244.043389 40.246576 244.908985 42.584873 245.617197 44.972292 C 246.394255 47.615155 247.033606 50.297317 247.535265 53.008956 C 248.095924 56.034984 248.548399 59.080665 248.882828 62.13617 C 249.256611 65.574836 249.541856 69.013506 249.738578 72.462003 C 249.964823 76.323139 250.112361 80.194101 250.200884 84.055237 C 250.289421 88.378131 250.338591 92.701032 250.32876 97.014106 L 250.32876 155.225886 C 250.338591 159.54878 250.289421 163.861854 250.200884 168.184747 C 250.112361 172.05571 249.964823 175.916853 249.738578 179.777981 C 249.541856 183.226485 249.256611 186.674975 248.882828 190.103826 C 248.548399 193.15933 248.095924 196.214835 247.535265 199.240851 C 247.033606 201.942664 246.394255 204.624837 245.617197 207.267703 C 244.908985 209.655115 244.043389 212.003235 243.020409 214.272755 C 242.066305 216.38509 240.944972 218.399156 239.656409 220.314999 C 238.417046 222.152226 237.000621 223.871561 235.436659 225.433697 C 233.862851 226.995832 232.141505 228.410601 230.302129 229.648532 C 228.384061 230.935575 226.357793 232.055598 224.242988 232.998768 C 221.970814 234.020552 219.619947 234.885137 217.219897 235.592507 C 214.57394 236.368672 211.888645 237.007276 209.173842 237.498515 C 206.144271 238.068354 203.085193 238.510465 200.026115 238.844519 C 196.583423 239.21785 193.1309 239.502777 189.678362 239.699269 C 185.802873 239.925235 181.927398 240.072615 178.051908 240.161035 C 173.723944 240.249454 169.395994 240.298581 165.06803 240.288762 L 90.941963 240.288762 C 86.614006 240.298581 82.286049 240.249454 77.9581 240.161035 C 74.08261 240.072615 70.20712 239.925235 66.331638 239.699269 C 62.879108 239.502777 59.426578 239.21785 55.983886 238.844519 C 52.924808 238.510465 49.865733 238.068354 46.836162 237.498515 C 44.121356 237.007276 41.436057 236.368672 38.7901 235.592507 C 36.390053 234.885137 34.039187 234.020552 31.767009 232.998768 C 29.652213 232.055598 27.625943 230.935575 25.707871 229.648532 C 23.868489 228.410601 22.147143 226.995832 20.573343 225.433697 C 19.009377 223.871561 17.592955 222.152226 16.353586 220.314999 C 15.065036 218.399156 13.943701 216.38509 12.989584 214.272755 C 11.966612 212.003235 11.101021 209.655115 10.392811 207.267703 C 9.615746 204.624837 8.976389 201.942664 8.47474 199.240851 C 7.914072 196.214835 7.461604 193.15933 7.127172 190.103826 C 6.753394 186.674975 6.468142 183.226485 6.271417 179.777981 C 6.045183 175.916853 5.897639 172.05571 5.809112 168.184747 C 5.720586 163.861854 5.671405 159.54878 5.681241 155.225886 L 5.681241 97.014106 C 5.671405 92.701032 5.720586 88.378131 5.809112 84.055237 C 5.897639 80.194101 6.045183 76.323139 6.271417 72.462003 C 6.468142 69.013506 6.753394 65.574836 7.127172 62.13617 C 7.461604 59.080665 7.914072 56.034984 8.47474 53.008956 C 8.976389 50.297317 9.615746 47.615155 10.392811 44.972292 C 11.101021 42.584873 11.966612 40.246576 12.989584 37.967229 C 13.943701 35.864728 15.065036 33.840824 16.353586 31.924995 C 17.592955 30.087764 19.009377 28.378252 20.573343 26.80629 C 22.147143 25.244151 23.868489 23.829383 25.707871 22.591462 C 27.625943 21.304417 29.652213 20.184394 31.767009 19.241215 C 34.039187 18.219439 36.390053 17.354858 38.7901 16.6573 C 41.436057 15.881143 44.121356 15.242533 46.836162 14.741469 C 49.865733 14.181458 52.924808 13.729518 55.983886 13.395476 C 59.426578 13.022134 62.879108 12.737216 66.331638 12.540721 C 70.20712 12.31475 74.08261 12.167379 77.9581 12.088781 C 82.286049 11.990533 86.614006 11.941409 90.941963 11.951234 L 165.06803 11.951234 Z M 165.077876 15.959741 C 169.376317 15.949916 173.674759 15.99904 177.973216 16.087463 C 181.799522 16.175886 185.625827 16.323257 189.452133 16.539402 C 192.835809 16.735898 196.219486 17.010992 199.583486 17.384332 C 202.554026 17.698726 205.514751 18.131016 208.445953 18.681203 C 211.023049 19.152792 213.580483 19.761928 216.098564 20.498786 C 218.321569 21.147221 220.495374 21.952852 222.600334 22.896029 C 224.508571 23.750785 226.338116 24.762737 228.069293 25.922059 C 229.692286 27.012609 231.207063 28.260355 232.59398 29.645648 C 233.980897 31.030941 235.230091 32.543956 236.331763 34.165043 C 237.492434 35.894202 238.505568 37.711787 239.361333 39.607968 C 240.305606 41.720292 241.112187 43.891565 241.761369 46.102139 C 242.508934 48.617282 243.108947 51.161898 243.590914 53.735987 C 244.131912 56.663768 244.564709 59.6112 244.889308 62.578282 C 245.263091 65.938355 245.538505 69.308252 245.735227 72.687976 C 245.951626 76.509812 246.10901 80.321821 246.187687 84.143656 C 246.276225 88.437084 246.325394 92.720685 246.325394 97.014106 C 246.325394 97.014106 246.325394 97.014106 246.325394 97.014106 L 246.325394 155.225886 C 246.325394 155.225886 246.325394 155.225886 246.325394 155.225886 C 246.325394 159.519306 246.276225 163.802907 246.187687 168.096328 C 246.10901 171.918164 245.951626 175.739999 245.735227 179.552015 C 245.538505 182.931739 245.263091 186.301629 244.889308 189.671533 C 244.564709 192.628784 244.131912 195.576216 243.590914 198.503994 C 243.108947 201.078094 242.508934 203.622706 241.761369 206.137845 C 241.112187 208.358253 240.305606 210.5197 239.361333 212.63202 C 238.505568 214.528209 237.492434 216.355617 236.331763 218.074952 C 235.230091 219.705853 233.980897 221.218876 232.59398 222.604172 C 231.207063 223.979634 229.692286 225.227385 228.069293 226.317935 C 226.338116 227.477251 224.508571 228.489201 222.600334 229.343951 C 220.495374 230.296956 218.321569 231.092775 216.098564 231.741198 C 213.580483 232.478056 211.023049 233.087202 208.445953 233.558787 C 205.514751 234.108972 202.554026 234.541264 199.583486 234.865483 C 196.219486 235.228995 192.835809 235.513922 189.452133 235.70058 C 185.625827 235.916726 181.799522 236.073926 177.973216 236.152526 C 173.674759 236.25078 169.376317 236.290072 165.077876 236.290072 C 165.077876 236.290072 165.077876 236.290072 165.06803 236.290072 L 90.941963 236.290072 C 90.932125 236.290072 90.932125 236.290072 90.932125 236.290072 C 86.633683 236.290072 82.335234 236.25078 78.036784 236.152526 C 74.210479 236.073926 70.384173 235.916726 66.557868 235.70058 C 63.174195 235.513922 59.790522 235.228995 56.426518 234.865483 C 53.455967 234.541264 50.495253 234.108972 47.564048 233.558787 C 44.986944 233.087202 42.429517 232.478056 39.911433 231.741198 C 37.688439 231.092775 35.514626 230.296956 33.409665 229.343951 C 31.501429 228.489201 29.671886 227.477251 27.940703 226.317935 C 26.31772 225.227385 24.802935 223.979634 23.416022 222.604172 C 22.029109 221.218876 20.779904 219.705853 19.678243 218.074952 C 18.517564 216.355617 17.504428 214.528209 16.648674 212.63202 C 15.704392 210.5197 14.897819 208.358253 14.248626 206.137845 C 13.50107 203.622706 12.901057 201.078094 12.419081 198.503994 C 11.878086 195.576216 11.445291 192.628784 11.120694 189.671533 C 10.746916 186.301629 10.471501 182.931739 10.274776 179.552015 C 10.058378 175.739999 9.900997 171.918164 9.822307 168.096328 C 9.733781 163.802907 9.6846 159.519306 9.6846 155.225886 C 9.6846 155.225886 9.6846 155.225886 9.6846 155.225886 L 9.6846 97.014106 C 9.6846 97.014106 9.6846 97.014106 9.6846 97.014106 C 9.6846 92.720685 9.733781 88.437084 9.822307 84.143656 C 9.900997 80.321821 10.058378 76.509812 10.274776 72.687976 C 10.471501 69.308252 10.746916 65.938355 11.120694 62.578282 C 11.445291 59.6112 11.878086 56.663768 12.419081 53.735987 C 12.901057 51.161898 13.50107 48.617282 14.248626 46.102139 C 14.897819 43.891565 15.704392 41.720292 16.648674 39.607968 C 17.504428 37.711787 18.517564 35.894202 19.678243 34.165043 C 20.779904 32.543956 22.029109 31.030941 23.416022 29.645648 C 24.802935 28.260355 26.31772 27.012609 27.940703 25.922059 C 29.671886 24.762737 31.501429 23.750785 33.409665 22.896029 C 35.514626 21.952852 37.688439 21.147221 39.911433 20.498786 C 42.429517 19.761928 44.986944 19.152792 47.564048 18.681203 C 50.495253 18.131016 53.455967 17.698726 56.426518 17.384332 C 59.790522 17.010992 63.174195 16.735898 66.557868 16.539402 C 70.384173 16.323257 74.210479 16.175886 78.036784 16.087463 C 82.335234 15.99904 86.633683 15.949916 90.932125 15.959741 C 90.932125 15.959741 90.932125 15.959741 90.941963 15.959741 L 165.06803 15.959741 C 165.077876 15.959741 165.077876 15.959741 165.077876 15.959741 Z"/>
 </g>
 <g opacity=".4">
  <linearGradient id="_lgradient_99" x1=".522" x2=".52" y1="2.567" y2=".098" gradientTransform="matrix(82.384003,0,0,82.379997,57.335999,55.900002)" gradientUnits="userSpaceOnUse">
   <stop offset="1.304%" style="stop-color:#80bfff"/>
   <stop offset="100%" style="stop-color:#80ffb3"/>
  </linearGradient>
  <path fill="url(#_lgradient_99)" d="M 66.805 55.900002 C 60.493999 55.900002 57.335999 55.900002 57.335999 63.256001 L 57.335999 72.085999 C 57.335999 79.436996 60.493999 79.436996 66.805 79.436996 L 71.402 79.436996 C 77.718002 79.436996 80.875999 79.436996 80.875999 72.081001 L 80.875999 63.250999 C 80.875999 56.165001 77.718002 55.900002 71.406998 55.900002 L 66.809998 55.900002 L 66.805 55.900002 L 66.805 55.900002 Z M 96.226997 55.900002 C 89.916 55.900002 86.758003 55.900002 86.758003 63.256001 L 86.758003 72.085999 C 86.758003 79.436996 89.916 79.436996 96.226997 79.436996 L 100.823997 79.436996 C 107.139999 79.436996 110.297997 79.436996 110.297997 72.081001 L 110.297997 63.250999 C 110.297997 56.165001 107.139999 55.900002 100.829002 55.900002 L 96.232002 55.900002 L 96.226997 55.900002 L 96.226997 55.900002 Z M 125.649002 55.900002 C 119.337997 55.900002 116.18 55.900002 116.18 63.256001 L 116.18 72.085999 C 116.18 79.436996 119.337997 79.436996 125.649002 79.436996 L 130.246002 79.436996 C 136.561996 79.436996 139.720001 79.436996 139.720001 72.081001 L 139.720001 63.250999 C 139.720001 56.165001 136.561996 55.900002 130.251007 55.900002 L 125.653999 55.900002 L 125.649002 55.900002 L 125.649002 55.900002 Z M 66.805 85.321999 C 60.493999 85.321999 57.335999 85.321999 57.335999 92.678001 L 57.335999 101.508003 C 57.335999 108.859001 60.493999 108.859001 66.805 108.859001 L 71.402 108.859001 C 77.718002 108.859001 80.875999 108.859001 80.875999 101.502998 L 80.875999 92.672997 C 80.875999 85.586998 77.718002 85.321999 71.406998 85.321999 L 66.809998 85.321999 L 66.805 85.321999 L 66.805 85.321999 Z M 96.226997 85.321999 C 89.916 85.321999 86.758003 85.321999 86.758003 92.678001 L 86.758003 101.508003 C 86.758003 108.859001 89.916 108.859001 96.226997 108.859001 L 100.823997 108.859001 C 107.139999 108.859001 110.297997 108.859001 110.297997 101.502998 L 110.297997 92.672997 C 110.297997 85.586998 107.139999 85.321999 100.829002 85.321999 L 96.232002 85.321999 L 96.226997 85.321999 L 96.226997 85.321999 Z M 66.805 114.744003 C 60.493999 114.744003 57.335999 114.744003 57.335999 122.098999 L 57.335999 130.929993 C 57.335999 138.279999 60.493999 138.279999 66.805 138.279999 L 71.402 138.279999 C 77.718002 138.279999 80.875999 138.279999 80.875999 130.925003 L 80.875999 122.094002 C 80.875999 115.009003 77.718002 114.744003 71.406998 114.744003 L 66.809998 114.744003 L 66.805 114.744003 L 66.805 114.744003 Z"/>
 </g>
 <g opacity=".2">
  <linearGradient id="_lgradient_100" x1=".628" x2=".628" y1="1" y2="0" gradientTransform="matrix(141.228449,0,0,141.228108,57.435001,56.872002)" gradientUnits="userSpaceOnUse">
   <stop offset="0%" style="stop-color:#000000"/>
   <stop offset="49.614%" style="stop-color:#000000"/>
   <stop offset="99.993%" style="stop-color:#000000"/>
  </linearGradient>
  <path fill="url(#_lgradient_100)" d="M 169.119003 56.881001 L 151.110992 97.830002 L 159.764008 112.250999 C 159.751999 112.271004 159.738007 112.292 159.725006 112.310997 L 161.227005 114.835999 C 154.723007 123.633003 147.444 131.759995 139.951996 139.253998 L 139.953995 139.255005 C 139.936005 139.272995 139.917999 139.289993 139.899994 139.307999 L 139.845993 139.360992 C 132.339005 146.865005 124.197998 154.154999 115.384003 160.667007 L 112.862 159.167999 C 112.842003 159.179993 112.821999 159.194 112.802002 159.207001 L 98.384003 150.548004 L 57.435001 168.554993 C 60.305 181.233994 64.573997 202.904999 83.867996 197.145996 C 101.646004 191.839005 116.556 181.240005 129.921005 169.307007 L 129.919006 169.304993 C 137.195999 163.201996 144.022003 156.617004 150.567993 150.074005 L 150.569 150.074997 L 150.621994 150.020996 C 150.639999 150.003006 150.656998 149.985001 150.675003 149.966995 C 157.205994 143.434006 163.778 136.621002 169.871994 129.358994 L 169.873993 129.360992 C 181.804993 115.992996 192.401001 101.084 197.709 83.305 C 203.468994 64.011002 181.798996 59.742001 169.119995 56.872002 L 169.119003 56.881001 L 169.119003 56.881001 Z"/>
 </g>
 <g opacity=".1">
  <path d="M 169.119003 56.881001 L 151.110992 97.830002 L 159.764008 112.250999 C 159.751999 112.271004 159.738007 112.292 159.725006 112.310997 L 161.227005 114.835999 C 154.723007 123.633003 147.444 131.759995 139.951996 139.253998 L 139.953995 139.255005 C 139.936005 139.272995 139.917999 139.289993 139.899994 139.307999 L 139.845993 139.360992 C 132.339005 146.865005 124.197998 154.154999 115.384003 160.667007 L 112.862 159.167999 C 112.842003 159.179993 112.821999 159.194 112.802002 159.207001 L 98.384003 150.548004 L 57.435001 168.554993 C 60.305 181.233994 64.573997 202.904999 83.867996 197.145996 C 101.646004 191.839005 116.556 181.240005 129.921005 169.307007 L 129.917999 169.304993 C 137.195999 163.201996 144.022003 156.617004 150.567001 150.074005 L 150.567993 150.074997 L 150.621994 150.020996 C 150.639008 150.003006 150.656998 149.985001 150.675003 149.966995 C 157.205994 143.434006 163.778 136.621002 169.871994 129.358994 L 169.873993 129.362 C 181.804993 115.992996 192.401001 101.084999 197.709 83.305 C 203.468994 64.011002 181.798004 59.743 169.119003 56.872002 L 169.119003 56.881001 L 169.119003 56.881001 Z"/>
 </g>
 <linearGradient id="_lgradient_101" x1=".149" x2="1.023" y1="1.016" y2=".224" gradientTransform="matrix(131.364457,0,0,131.365,64.271004,62.701)" gradientUnits="userSpaceOnUse">
  <stop offset="0%" style="stop-color:#bcebd9"/>
  <stop offset="99.565%" style="stop-color:#f3fae8"/>
  <stop offset="100%" style="stop-color:#e8faf3"/>
  <stop offset="100%" style="stop-color:#f0f7e5"/>
 </linearGradient>
 <path fill="url(#_lgradient_101)" d="M 182.912003 62.701 C 183.647003 65.569 183.570007 68.931999 182.384995 72.902 C 174.681 98.705002 157.917999 120.301003 139.951004 138.274002 L 139.951996 138.274994 C 139.934006 138.292007 139.916 138.309998 139.897995 138.328003 L 139.845001 138.382004 L 139.843994 138.380997 C 121.872002 156.345993 100.278 173.108002 74.472 180.811996 C 70.501999 181.996994 67.139999 182.074005 64.271004 181.339005 C 68.179001 190.076004 74.660004 196.662003 86.721001 193.061996 C 112.526001 185.358994 132.591003 167.063995 150.561005 149.098007 L 150.561996 149.098999 L 150.615997 149.044998 C 150.632996 149.028 150.651001 149.009995 150.669006 148.992004 L 150.667999 148.990997 C 168.632996 131.020004 186.927994 110.955002 194.630997 85.152 C 198.231995 73.089996 191.645996 66.609001 182.908005 62.701 L 182.912003 62.701 L 182.912003 62.701 Z"/>
 <g opacity=".1">
  <linearGradient id="_lgradient_102" x1=".361" x2=".2" y1=".539" y2=".813" gradientTransform="matrix(26.25,0,0,34.627007,155.332001,101.198997)" gradientUnits="userSpaceOnUse">
   <stop offset="0%" style="stop-color:#88b637"/>
   <stop offset="100%" stop-opacity="0" style="stop-color:#88b637"/>
  </linearGradient>
  <path fill="url(#_lgradient_102)" d="M 169.703003 101.198997 C 165.425995 108.324997 160.554993 115.055 155.332001 121.407997 L 163.339996 135.826004 C 169.936005 128.604996 176.210007 120.964996 181.582001 112.709999 L 169.703003 101.199997 L 169.703003 101.198997 L 169.703003 101.198997 Z"/>
 </g>
 <path fill="#e6f7ed" d="M 169.119003 55.901001 L 151.110992 96.849998 L 159.763 111.272003 C 159.751007 111.291 159.735992 111.311996 159.723999 111.331001 L 169.869995 128.386993 C 181.802002 115.022003 192.401001 100.112 197.707001 82.334 C 203.466995 63.039001 181.794998 58.77 169.117996 55.900002 L 169.119003 55.901001 L 169.119003 55.901001 Z"/>
 <linearGradient id="_lgradient_103" x1=".365" x2="1.948" y1=".98" y2=".362" gradientTransform="matrix(72.487007,0,0,47.551111,57.43,149.574005)" gradientUnits="userSpaceOnUse">
  <stop offset="1.739%" style="stop-color:#bcebea"/>
  <stop offset="98.696%" style="stop-color:#e6f7f7"/>
 </linearGradient>
 <path fill="url(#_lgradient_103)" d="M 57.431 167.580994 L 98.379997 149.574005 L 112.802002 158.227005 C 112.821999 158.214005 112.842003 158.199997 112.861 158.186996 L 129.917007 168.332993 C 116.552002 180.266006 101.641998 190.863998 83.863998 196.171005 C 64.569 201.929993 60.299999 180.259003 57.43 167.580994 L 57.431 167.580994 L 57.431 167.580994 Z"/>
 <path fill="#ffffff" d="M 169.123001 55.903 L 151.115005 96.852997 L 151.363998 97.267998 L 169.119995 56.881001 C 180.212006 59.393002 198.188004 62.973999 198.654999 76.751999 C 199.022995 62.164001 180.466995 58.471001 169.119995 55.902 L 169.123001 55.903 L 169.123001 55.903 Z M 160.904007 114.291 C 154.483002 122.920998 147.322998 130.906006 139.955994 138.276993 L 139.957001 138.278 C 139.938995 138.294998 139.921005 138.313004 139.903 138.330002 L 139.850006 138.384003 C 132.343002 145.888 124.200996 153.177994 115.387001 159.690002 L 112.864998 158.190002 C 112.845001 158.203003 112.824997 158.216995 112.806 158.229004 L 98.384003 149.578995 L 57.432999 167.585999 C 57.498001 167.871994 57.568001 168.184006 57.633999 168.477997 L 98.384003 150.559998 L 112.805 159.212006 C 112.823997 159.199997 112.844002 159.186005 112.863998 159.173004 L 115.386002 160.673004 C 124.199997 154.160995 132.341995 146.869995 139.848999 139.367004 L 139.901993 139.313004 C 139.919998 139.294998 139.938004 139.278 139.955994 139.261002 L 139.955002 139.259995 C 147.447006 131.766006 154.725998 123.638 161.229996 114.842003 L 160.903 114.292999 L 160.904007 114.291 L 160.904007 114.291 Z"/>
</svg>
