<svg xmlns="http://www.w3.org/2000/svg" width="16" height="16" version="1.1">
 <defs>
   <style id="current-color-scheme" type="text/css">
   .ColorScheme-Text { color:#d4be98; } .ColorScheme-Highlight { color:#5294e2; }
  </style>
  <linearGradient id="arrongin" x1="0%" x2="0%" y1="0%" y2="100%">
   <stop offset="0%" style="stop-color:#dd9b44; stop-opacity:1"/>
   <stop offset="100%" style="stop-color:#ad6c16; stop-opacity:1"/>
  </linearGradient>
  <linearGradient id="aurora" x1="0%" x2="0%" y1="0%" y2="100%">
   <stop offset="0%" style="stop-color:#09D4DF; stop-opacity:1"/>
   <stop offset="100%" style="stop-color:#9269F4; stop-opacity:1"/>
  </linearGradient>
  <linearGradient id="fitdance" x1="0%" x2="0%" y1="0%" y2="100%">
   <stop offset="0%" style="stop-color:#1AD6AB; stop-opacity:1"/>
   <stop offset="100%" style="stop-color:#329DB6; stop-opacity:1"/>
  </linearGradient>
  <linearGradient id="oomox" x1="0%" x2="0%" y1="0%" y2="100%">
   <stop offset="0%" style="stop-color:#efefe7; stop-opacity:1"/>
   <stop offset="100%" style="stop-color:#8f8f8b; stop-opacity:1"/>
  </linearGradient>
  <linearGradient id="rainblue" x1="0%" x2="0%" y1="0%" y2="100%">
   <stop offset="0%" style="stop-color:#00F260; stop-opacity:1"/>
   <stop offset="100%" style="stop-color:#0575E6; stop-opacity:1"/>
  </linearGradient>
  <linearGradient id="sunrise" x1="0%" x2="0%" y1="0%" y2="100%">
   <stop offset="0%" style="stop-color: #FF8501; stop-opacity:1"/>
   <stop offset="100%" style="stop-color: #FFCB01; stop-opacity:1"/>
  </linearGradient>
  <linearGradient id="telinkrin" x1="0%" x2="0%" y1="0%" y2="100%">
   <stop offset="0%" style="stop-color: #b2ced6; stop-opacity:1"/>
   <stop offset="100%" style="stop-color: #6da5b7; stop-opacity:1"/>
  </linearGradient>
  <linearGradient id="60spsycho" x1="0%" x2="0%" y1="0%" y2="100%">
   <stop offset="0%" style="stop-color: #df5940; stop-opacity:1"/>
   <stop offset="25%" style="stop-color: #d8d15f; stop-opacity:1"/>
   <stop offset="50%" style="stop-color: #e9882a; stop-opacity:1"/>
   <stop offset="100%" style="stop-color: #279362; stop-opacity:1"/>
  </linearGradient>
  <linearGradient id="90ssummer" x1="0%" x2="0%" y1="0%" y2="100%">
   <stop offset="0%" style="stop-color: #f618c7; stop-opacity:1"/>
   <stop offset="20%" style="stop-color: #94ffab; stop-opacity:1"/>
   <stop offset="50%" style="stop-color: #fbfd54; stop-opacity:1"/>
   <stop offset="100%" style="stop-color: #0f83ae; stop-opacity:1"/>
  </linearGradient>
 </defs>
 <path style="fill:currentColor;" class="ColorScheme-Text" fill-rule="evenodd" d="m 5.181867,0.50055901 c -0.2867149,0 -0.5964964,0.1016693 -0.8820699,0.2687244 C 4.1152428,0.87700001 3.9410066,1.0138189 3.8011376,1.179211 3.1305738,0.68927081 2.4147275,0.53397011 1.8421745,0.50732441 1.1896429,0.47708841 0.7233701,0.61428501 0.7233701,0.61428501 L 0.5,0.67967101 0.570677,0.90115141 c 0,0 0.2334992,0.74407549 0.6959395,1.46006919 0.2311937,0.3579212 0.5203275,0.7138771 0.8822891,0.969033 0.3465071,0.2441575 0.7713411,0.3909544 1.2391786,0.3310867 0.037417,0.351496 0.09275,0.7023873 0.1566992,1.0352125 C 3.6893881,5.4492457 3.8731865,6.0876079 3.975007,6.4196772 3.8499802,6.7371575 3.7163739,7.0907701 3.5853566,7.4700457 3.1405894,8.757315 2.7188243,10.261416 2.9146076,11.292546 c 0.1697764,0.894312 0.5186911,1.628977 1.1167975,2.169411 -0.1039748,0.453317 -0.1066961,0.846047 0.01663,1.174526 0.1298268,0.346205 0.4079131,0.601852 0.7708384,0.733833 0.7116813,0.258898 1.7516485,0.119433 3.1029543,-0.322771 1.3508675,0.442053 2.3905432,0.581518 3.1020692,0.322771 0.36291,-0.131905 0.640996,-0.38759 0.770834,-0.733833 0.123213,-0.328441 0.120303,-0.721323 0.01625,-1.174753 0.597804,-0.540396 0.946341,-1.274948 1.116129,-2.169184 0.195782,-1.031131 -0.225068,-2.5352312 -0.66985,-3.8225005 -0.131074,-0.3793134 -0.264605,-0.7330016 -0.389655,-1.0505953 0.101859,-0.3322204 0.285657,-0.9703558 0.430224,-1.7228976 0.06395,-0.3329763 0.119244,-0.6837165 0.156699,-1.0352125 0.467838,0.059716 0.892687,-0.086929 1.239179,-0.3310867 0.361965,-0.2551181 0.651076,-0.6109984 0.882289,-0.969033 0.462429,-0.7159937 0.695717,-1.46006919 0.695717,-1.46006919 l 0.0709,-0.2214804 -0.22337,-0.065386 c 0,0 -0.466272,-0.1371968 -1.118804,-0.1069606 -0.572553,0.026457 -1.288399,0.1817953 -1.958963,0.67188659 C 11.901599,1.0140454 11.7274,0.87722651 11.542819,0.76928321 c -0.285581,-0.1670551 -0.595358,-0.2687244 -0.88207,-0.2687244 -0.494812,0 -0.8647705,0.1054489 -1.2579018,0.2014489 -0.3931275,0.096 -0.8187554,0.1878425 -1.4819264,0.1878425 -0.6631748,0 -1.0879105,-0.091465 -1.4810381,-0.1878425 -0.3931313,-0.096 -0.7630903,-0.2014489 -1.2579023,-0.2014489 z m 8.82983,0.4524851 c 0.31646,-0.00378 0.564953,0.042331 0.700619,0.072567 -0.06879,0.1950236 -0.179414,0.561411 -0.519836,1.0885039 -0.211049,0.3269291 -0.471859,0.6383244 -0.762588,0.8432882 -0.283767,0.199937 -0.58529,0.3012283 -0.937349,0.2498267 0.0291,-0.5945197 -0.01965,-1.167874 -0.215547,-1.6352881 0.63114,-0.4840063 1.259626,-0.61099849 1.734713,-0.61882209 z M 1.8312516,0.95327081 C 2.3064063,0.96083081 2.9346696,1.0882 3.5655181,1.5718661 3.3697763,2.039318 3.3204913,2.6126346 3.3497448,3.2071542 2.9977574,3.2585558 2.6963326,3.1572645 2.4126186,2.9573275 2.1218973,2.7524771 1.8610797,2.4408172 1.6500308,2.1140393 1.3096089,1.5869464 1.1989707,1.2206724 1.1301947,1.0255354 c 0.1359874,-0.030236 0.3845593,-0.07748 0.7010645,-0.072189 z m 3.3506154,0.00378 c 0.4308359,0 0.7464756,0.089575 1.14912,0.18784259 0.4026406,0.098268 0.8834079,0.2014488 1.5898204,0.2014488 0.7064089,0 1.1880682,-0.1028032 1.5907088,-0.2014488 0.4026444,-0.098268 0.7182838,-0.18784259 1.1491198,-0.18784259 0.169814,0 0.426115,0.074457 0.652025,0.20636219 0.225903,0.1322835 0.420684,0.3193701 0.511586,0.5095937 0.312227,0.6528756 0.226658,1.8892724 0.02532,2.9379779 -0.08088,0.4210016 -0.175559,0.8084788 -0.260599,1.1259591 C 11.434124,5.3714629 11.323913,5.1305936 11.323913,5.1305936 A 0.22828637,0.22828637 0 0 0 11.103907,4.9960424 0.22828637,0.22828637 0 0 0 10.910206,5.3229715 c 0,0 0.208365,0.451578 0.474361,1.1165858 -0.01021,0.030236 -0.02684,0.083906 -0.02684,0.083906 l 0.06954,0.022677 c 0.127333,0.3220158 0.264416,0.6837165 0.398793,1.0726677 0.436147,1.2623244 0.808249,2.770091 0.652914,3.588208 -0.235389,1.239685 -0.750637,2.024919 -1.902346,2.48039 -0.115125,0.04535 -0.351761,0.06236 -0.6250505,0.03402 -0.2732977,-0.02646 -0.584897,-0.09109 -0.8753802,-0.16441 C 8.575758,13.430776 8.260757,13.313611 8.149329,13.273926 v -2.90657 C 8.2926487,10.311419 8.7522922,10.082379 9.3111559,9.4792423 A 0.22828637,0.22828637 0 0 0 9.565707,9.6353368 C 9.7102362,9.6126598 9.7922897,9.5193053 9.8512503,9.4331321 9.910211,9.3469591 9.9536,9.2494471 9.9937007,9.1405967 10.073864,8.9225179 10.136831,8.6576864 10.188308,8.3958408 c 0.101707,-0.5172662 0.154507,-1.0098142 0.15583,-1.0220599 0,0 0,-8.693e-4 0,-8.693e-4 1.5e-5,-1.511e-4 0.0018,-0.011338 0.0018,-0.011338 A 0.22828637,0.22828637 0 0 0 9.8934072,7.3011006 C 9.5830324,9.2348959 8.2432011,9.8768864 7.9215104,10.004597 7.5998348,9.8768486 6.259981,9.2348959 5.9496176,7.3011006 a 0.22828637,0.22828637 0 0 0 -0.4525115,0.058961 c 0,0 0.00178,0.011338 0.00178,0.015118 1.134e-4,8.693e-4 7.635e-4,9.071e-4 8.92e-4,0.00178 0.00147,0.015118 0.048453,0.4931528 0.1449071,0.9993071 0.048945,0.2570079 0.1095307,0.5174551 0.1879181,0.7320567 0.039194,0.1073386 0.081033,0.2029606 0.1397669,0.2883779 0.058734,0.085417 0.1422236,0.1783937 0.2849008,0.200315 a 0.22828637,0.22828637 0 0 0 0.2500913,-0.144 C 7.0733542,10.07569 7.5482632,10.313044 7.6937108,10.369661 v 2.90657 c -0.1114205,0.03969 -0.4264252,0.156851 -0.9268763,0.283087 -0.2904944,0.07332 -0.6020862,0.136441 -0.8753801,0.164409 -0.2732976,0.02646 -0.5099376,0.01134 -0.6250507,-0.03402 C 4.1146947,13.234236 3.5994355,12.449001 3.3640579,11.209316 3.2087193,10.391199 3.5808138,8.8834326 4.0169713,7.6211082 c 0.1344,-0.388989 0.2714456,-0.7505763 0.398793,-1.0726677 l 0.069543,-0.022677 c 0,0 -0.01663,-0.052535 -0.026835,-0.083906 C 4.7244384,5.77685 4.9328339,5.325272 4.9328339,5.325272 A 0.22828637,0.22828637 0 0 0 4.7315363,4.997587 0.22828637,0.22828637 0 0 0 4.5190891,5.133272 c 0,0 -0.1100977,0.2407559 -0.2650583,0.6065386 C 4.1689538,5.4223303 4.0743521,5.0346642 3.9934324,4.6134358 3.7919458,3.5647303 3.7064151,2.3283335 4.0187554,1.6754579 4.1096534,1.4853477 4.3042231,1.2978832 4.5301217,1.1658643 4.7560241,1.0339588 5.0125482,0.95950211 5.1823661,0.95950211 Z M 6.0819917,2.7042503 c -0.055975,-0.00189 -0.1132346,-0.00181 -0.1714393,9.071e-4 -0.2326678,0.011339 -0.4806917,0.061606 -0.7271433,0.176126 A 0.22828637,0.22828637 0 0 0 5.051239,3.0884015 C 5.0515602,3.252055 5.072404,3.5620519 5.1927823,3.874392 5.3132736,4.1869589 5.5654815,4.5224298 5.9939325,4.5872865 6.2373341,4.6250815 6.4617738,4.5385305 6.6250002,4.4088928 6.788238,4.279255 6.9051388,4.1103101 6.9956963,3.9454471 7.1768112,3.6158723 7.2551608,3.2831605 7.2551608,3.2831605 l -0.0029,0.00756 c -0.00529,0.018898 -0.013228,0.039685 -0.024567,0.058583 l 0.024567,-0.058583 c 0.015118,-0.056315 0.00756,-0.112252 -0.00378,-0.1436221 -0.015118,-0.042709 -0.032504,-0.061984 -0.045468,-0.07748 C 7.1765578,3.039381 7.1578118,3.0242629 7.1372508,3.0091448 7.0961678,2.9789086 7.0510018,2.9535857 6.9948004,2.9256172 6.8824351,2.8700582 6.7294398,2.8118535 6.5449611,2.7680109 6.4065926,2.7339952 6.2498934,2.7105621 6.0819689,2.7045149 Z m 3.6785198,0 c -0.1679245,0.00756 -0.3246237,0.030236 -0.4629922,0.063496 -0.1844787,0.043842 -0.337474,0.1020472 -0.4498394,0.1576063 -0.056202,0.026457 -0.1013292,0.053291 -0.1424504,0.083528 -0.020409,0.015118 -0.039496,0.030236 -0.065764,0.060472 -0.013228,0.015118 -0.030236,0.034016 -0.045468,0.07748 -0.011339,0.030236 -0.018898,0.087307 -0.00378,0.143622 l 0.024567,0.058583 C 8.6030685,3.3301401 8.5951315,3.3101086 8.5902185,3.290455 l -0.0029,-0.00756 c 0,0 0.078387,0.3329763 0.2594645,0.6622866 C 8.937342,4.10997 9.0542803,4.2789148 9.2174803,4.4086282 9.3807181,4.538266 9.605154,4.6240613 9.848548,4.5870219 c 0.428454,-0.065008 0.680644,-0.4005165 0.80115,-0.7128944 0.120491,-0.312189 0.141241,-0.6224882 0.141543,-0.7859906 A 0.22828637,0.22828637 0 0 0 10.659071,2.8810188 C 10.412608,2.7664991 10.164603,2.7158535 9.9319244,2.7048928 9.8737574,2.7021718 9.8164598,2.7020958 9.7605228,2.7039857 Z M 6.128359,3.181529 C 6.2397038,3.179559 6.3451527,3.189089 6.4397542,3.211765 6.5729448,3.242002 6.675181,3.285088 6.753833,3.3213716 6.726242,3.4166156 6.702129,3.5318912 6.5955842,3.7257432 6.5232062,3.8572708 6.4323842,3.9782156 6.341033,4.0511605 6.249682,4.1237275 6.1718235,4.1528298 6.0621794,4.1361995 5.8292094,4.1021835 5.7073574,3.9396641 5.6190261,3.7106625 5.5581761,3.5530562 5.5550011,3.4173712 5.5423391,3.2819885 5.7403864,3.2207601 5.9428065,3.1852326 6.1283813,3.181831 Z m 3.585566,0 c 0.1855748,0.00325 0.388002,0.038551 0.586038,0.1001575 -0.01247,0.1353071 -0.0155,0.2709921 -0.07646,0.428674 -0.08833,0.2290394 -0.210406,0.390274 -0.4433758,0.425537 C 9.6704831,4.1510155 9.5926248,4.1245585 9.5012737,4.0508585 9.4098847,3.9782915 9.3193272,3.8573466 9.2469115,3.7254411 9.1403666,3.5315514 9.1161398,3.4166537 9.0884359,3.3210695 9.1670878,3.2832742 9.2695508,3.2432112 9.4027414,3.2114632 9.4973807,3.188786 9.6026028,3.181227 9.7139477,3.181227 Z M 7.9212496,13.685441 c 0.1019339,0.03779 0.5070804,0.179905 1.0434597,0.315212 0.3041007,0.07672 0.6323036,0.144756 0.9402519,0.176126 0.3079558,0.03024 0.5933698,0.03402 0.8390478,-0.06387 0.243363,-0.09638 0.463691,-0.209764 0.662944,-0.339023 0.04392,0.295181 0.02495,0.529474 -0.04036,0.703067 -0.08417,0.224504 -0.233878,0.368882 -0.498656,0.465033 -0.529599,0.192756 -1.5267667,0.104693 -2.8746937,-0.344693 l -0.072453,-0.02268 -0.071547,0.02268 c -1.3479269,0.449311 -2.3450948,0.537223 -2.8746935,0.344693 -0.2647937,-0.09638 -0.414497,-0.240378 -0.4986557,-0.465033 -0.065121,-0.17348 -0.084246,-0.407886 -0.040365,-0.703067 0.1992945,0.129259 0.4195767,0.243023 0.6629443,0.339023 0.2456692,0.09713 0.5311029,0.09524 0.8390475,0.06387 0.3079559,-0.03024 0.6361398,-0.0994 0.940252,-0.176126 0.5363829,-0.135307 0.9415445,-0.278551 1.0434557,-0.315212 z" />
</svg>
