<svg xmlns="http://www.w3.org/2000/svg" xmlns:xlink="http://www.w3.org/1999/xlink" style="isolation:isolate" width="16" height="16" viewBox="0 0 16 16">
 <defs>
   <style id="current-color-scheme" type="text/css">
   .ColorScheme-Text { color:#d4be98; } .ColorScheme-Highlight { color:#5294e2; }
  </style>
  <linearGradient id="arrongin" x1="0%" x2="0%" y1="0%" y2="100%">
   <stop offset="0%" style="stop-color:#dd9b44; stop-opacity:1"/>
   <stop offset="100%" style="stop-color:#ad6c16; stop-opacity:1"/>
  </linearGradient>
  <linearGradient id="aurora" x1="0%" x2="0%" y1="0%" y2="100%">
   <stop offset="0%" style="stop-color:#09D4DF; stop-opacity:1"/>
   <stop offset="100%" style="stop-color:#9269F4; stop-opacity:1"/>
  </linearGradient>
  <linearGradient id="fitdance" x1="0%" x2="0%" y1="0%" y2="100%">
   <stop offset="0%" style="stop-color:#1AD6AB; stop-opacity:1"/>
   <stop offset="100%" style="stop-color:#329DB6; stop-opacity:1"/>
  </linearGradient>
  <linearGradient id="oomox" x1="0%" x2="0%" y1="0%" y2="100%">
   <stop offset="0%" style="stop-color:#efefe7; stop-opacity:1"/>
   <stop offset="100%" style="stop-color:#8f8f8b; stop-opacity:1"/>
  </linearGradient>
  <linearGradient id="rainblue" x1="0%" x2="0%" y1="0%" y2="100%">
   <stop offset="0%" style="stop-color:#00F260; stop-opacity:1"/>
   <stop offset="100%" style="stop-color:#0575E6; stop-opacity:1"/>
  </linearGradient>
  <linearGradient id="sunrise" x1="0%" x2="0%" y1="0%" y2="100%">
   <stop offset="0%" style="stop-color: #FF8501; stop-opacity:1"/>
   <stop offset="100%" style="stop-color: #FFCB01; stop-opacity:1"/>
  </linearGradient>
  <linearGradient id="telinkrin" x1="0%" x2="0%" y1="0%" y2="100%">
   <stop offset="0%" style="stop-color: #b2ced6; stop-opacity:1"/>
   <stop offset="100%" style="stop-color: #6da5b7; stop-opacity:1"/>
  </linearGradient>
  <linearGradient id="60spsycho" x1="0%" x2="0%" y1="0%" y2="100%">
   <stop offset="0%" style="stop-color: #df5940; stop-opacity:1"/>
   <stop offset="25%" style="stop-color: #d8d15f; stop-opacity:1"/>
   <stop offset="50%" style="stop-color: #e9882a; stop-opacity:1"/>
   <stop offset="100%" style="stop-color: #279362; stop-opacity:1"/>
  </linearGradient>
  <linearGradient id="90ssummer" x1="0%" x2="0%" y1="0%" y2="100%">
   <stop offset="0%" style="stop-color: #f618c7; stop-opacity:1"/>
   <stop offset="20%" style="stop-color: #94ffab; stop-opacity:1"/>
   <stop offset="50%" style="stop-color: #fbfd54; stop-opacity:1"/>
   <stop offset="100%" style="stop-color: #0f83ae; stop-opacity:1"/>
  </linearGradient>
 </defs>
   <path style="fill:currentColor;" class="ColorScheme-Text" d="M 7.250726 1.001781 C 6.287196 1.001781 5.500672 1.788306 5.500672 2.751836 C 5.500672 2.796838 5.511172 2.839338 5.514172 2.88384 C 4.216631 3.51736 3.082096 4.456889 2.274571 5.591925 C 2.107566 5.538923 1.934061 5.501922 1.750055 5.501922 C 0.786525 5.501922 0 6.288446 0 7.251977 C 0 7.959499 0.425514 8.568517 1.032032 8.844025 C 0.896528 10.455577 1.471046 11.880121 2.537079 12.897653 C 2.513078 13.012156 2.500078 13.13066 2.500078 13.252164 C 2.500078 14.215693 3.286603 15.002218 4.250133 15.002218 C 4.78115 15.002218 5.255165 14.758711 5.574174 14.3832 C 5.941686 14.449202 6.319698 14.496202 6.71771 14.501203 C 7.954248 14.517702 9.179286 14.227694 10.295822 13.715178 C 10.57083 13.895183 10.89784 14.002187 11.249852 14.002187 C 12.213381 14.002187 12.999906 13.215662 12.999906 12.252133 C 12.999906 12.112129 12.978406 11.978124 12.947405 11.847621 C 13.909435 10.857588 14.610457 9.657052 14.879964 8.34251 C 14.914465 8.175505 14.936465 8.011501 14.953966 7.848496 C 15.567985 7.575986 16 6.962468 16 6.249945 C 16 5.286415 15.213475 4.499891 14.249945 4.499891 C 14.238444 4.499891 14.227943 4.503391 14.216943 4.503891 C 13.256415 3.007344 11.480358 2.030814 9.283289 1.998812 C 9.133785 1.996812 8.985281 2.011313 8.835775 2.019313 C 8.557766 1.418794 7.952748 0.997782 7.249726 0.997782 L 7.250726 1.001781 Z M 7.250726 1.497797 C 7.946249 1.497797 8.504765 2.055814 8.504765 2.751836 C 8.504765 3.447358 7.946748 4.005875 7.250726 4.005875 C 6.555204 4.005875 5.996688 3.447858 5.996688 2.751836 C 5.996688 2.056314 6.554705 1.497797 7.250726 1.497797 Z M 9.012281 3.324854 C 10.736835 3.348355 12.106879 4.068377 12.892403 5.163911 C 12.651394 5.463921 12.50089 5.838932 12.50089 6.251945 C 12.50089 6.982969 12.954905 7.609987 13.594924 7.870995 C 13.581424 8.021501 13.562924 8.173005 13.531423 8.327011 C 13.344417 9.237539 12.887901 10.089065 12.249383 10.818088 C 11.965874 10.620082 11.622363 10.501578 11.251351 10.501578 C 10.287822 10.501578 9.501296 11.288102 9.501296 12.251633 C 9.501296 12.401637 9.527298 12.544141 9.562799 12.683146 C 8.754773 13.003655 7.883747 13.190162 6.990218 13.178162 C 6.635707 13.173161 6.303197 13.128159 5.980187 13.065657 C 5.885684 12.19013 5.149661 11.50111 4.249632 11.50111 C 3.946124 11.50111 3.664114 11.585612 3.414606 11.722617 C 2.715585 10.967592 2.347574 9.972061 2.398075 8.873027 C 3.041595 8.614019 3.499609 7.984999 3.499609 7.250977 C 3.499609 6.922966 3.403107 6.618458 3.244602 6.355449 C 3.898622 5.360417 4.875652 4.530892 6.019188 3.991875 C 6.335698 4.305884 6.770712 4.50089 7.249726 4.50089 C 8.010251 4.50089 8.65427 4.007375 8.894277 3.326854 C 8.93328 3.326354 8.972281 3.323354 9.011281 3.323853 L 9.012281 3.324854 Z M 14.250945 4.997906 C 14.946466 4.997906 15.504984 5.555923 15.504984 6.251945 C 15.504984 6.947466 14.946966 7.505984 14.250945 7.505984 C 13.555424 7.505984 12.996906 6.947966 12.996906 6.251945 C 12.996906 5.556423 13.554924 4.997906 14.250945 4.997906 Z M 1.750555 5.997938 C 2.446077 5.997938 3.004594 6.555956 3.004594 7.251977 C 3.004594 7.947498 2.446577 8.506015 1.750555 8.506015 C 1.055033 8.506015 0.496516 7.947997 0.496516 7.251977 C 0.496516 6.556455 1.054533 5.997938 1.750555 5.997938 Z M 11.250851 10.998094 C 11.946372 10.998094 12.50489 11.556112 12.50489 12.252133 C 12.50489 12.947654 11.946872 13.506171 11.250851 13.506171 C 10.55533 13.506171 9.996812 12.948153 9.996812 12.252133 C 9.996812 11.556611 10.55483 10.998094 11.250851 10.998094 Z M 4.250633 11.998125 C 4.946155 11.998125 5.504672 12.556143 5.504672 13.252164 C 5.504672 13.947685 4.946655 14.506203 4.250633 14.506203 C 3.555111 14.506203 2.996594 13.948185 2.996594 13.252164 C 2.996594 12.556643 3.554611 11.998125 4.250633 11.998125 Z"/>
</svg>
