<svg xmlns="http://www.w3.org/2000/svg" xmlns:xlink="http://www.w3.org/1999/xlink" style="isolation:isolate" width="16" height="16" viewBox="0 0 16 16">
 <defs>
   <style id="current-color-scheme" type="text/css">
   .ColorScheme-Text { color:#d4be98; } .ColorScheme-Highlight { color:#5294e2; }
  </style>
  <linearGradient id="arrongin" x1="0%" x2="0%" y1="0%" y2="100%">
   <stop offset="0%" style="stop-color:#dd9b44; stop-opacity:1"/>
   <stop offset="100%" style="stop-color:#ad6c16; stop-opacity:1"/>
  </linearGradient>
  <linearGradient id="aurora" x1="0%" x2="0%" y1="0%" y2="100%">
   <stop offset="0%" style="stop-color:#09D4DF; stop-opacity:1"/>
   <stop offset="100%" style="stop-color:#9269F4; stop-opacity:1"/>
  </linearGradient>
  <linearGradient id="fitdance" x1="0%" x2="0%" y1="0%" y2="100%">
   <stop offset="0%" style="stop-color:#1AD6AB; stop-opacity:1"/>
   <stop offset="100%" style="stop-color:#329DB6; stop-opacity:1"/>
  </linearGradient>
  <linearGradient id="oomox" x1="0%" x2="0%" y1="0%" y2="100%">
   <stop offset="0%" style="stop-color:#efefe7; stop-opacity:1"/>
   <stop offset="100%" style="stop-color:#8f8f8b; stop-opacity:1"/>
  </linearGradient>
  <linearGradient id="rainblue" x1="0%" x2="0%" y1="0%" y2="100%">
   <stop offset="0%" style="stop-color:#00F260; stop-opacity:1"/>
   <stop offset="100%" style="stop-color:#0575E6; stop-opacity:1"/>
  </linearGradient>
  <linearGradient id="sunrise" x1="0%" x2="0%" y1="0%" y2="100%">
   <stop offset="0%" style="stop-color: #FF8501; stop-opacity:1"/>
   <stop offset="100%" style="stop-color: #FFCB01; stop-opacity:1"/>
  </linearGradient>
  <linearGradient id="telinkrin" x1="0%" x2="0%" y1="0%" y2="100%">
   <stop offset="0%" style="stop-color: #b2ced6; stop-opacity:1"/>
   <stop offset="100%" style="stop-color: #6da5b7; stop-opacity:1"/>
  </linearGradient>
  <linearGradient id="60spsycho" x1="0%" x2="0%" y1="0%" y2="100%">
   <stop offset="0%" style="stop-color: #df5940; stop-opacity:1"/>
   <stop offset="25%" style="stop-color: #d8d15f; stop-opacity:1"/>
   <stop offset="50%" style="stop-color: #e9882a; stop-opacity:1"/>
   <stop offset="100%" style="stop-color: #279362; stop-opacity:1"/>
  </linearGradient>
  <linearGradient id="90ssummer" x1="0%" x2="0%" y1="0%" y2="100%">
   <stop offset="0%" style="stop-color: #f618c7; stop-opacity:1"/>
   <stop offset="20%" style="stop-color: #94ffab; stop-opacity:1"/>
   <stop offset="50%" style="stop-color: #fbfd54; stop-opacity:1"/>
   <stop offset="100%" style="stop-color: #0f83ae; stop-opacity:1"/>
  </linearGradient>
 </defs>
   <path style="fill:currentColor;" class="ColorScheme-Text" fill-rule="evenodd" d="M 3.368422 14.407324 L 1.501144 14.407324 L 2.013728 11.057209 L 0 11.057209 L 0.274595 9.244851 L 2.28833 9.244851 L 2.709382 6.443936 L 0.695654 6.443936 L 0.97025 4.631578 L 3.002288 4.631578 L 3.459954 1.592676 L 5.308922 1.592676 L 4.851256 4.631578 L 7.231124 4.631578 L 7.707094 1.592676 L 9.556062 1.592676 L 9.080092 4.631578 L 11.09382 4.631578 L 10.837528 6.443936 L 8.80549 6.443936 L 8.384438 9.244851 L 10.398172 9.244851 L 10.12357 11.057209 L 8.109842 11.057209 L 7.597252 14.407324 L 5.748284 14.407324 L 6.260868 11.057209 L 3.881006 11.057209 L 3.368422 14.407324 Z M 4.57666 6.443936 L 4.155608 9.244851 L 6.53547 9.244851 L 6.956522 6.443936 L 4.57666 6.443936 Z M 15.048054 10.874142 L 13.949658 10.874142 L 13.418764 5.473683 L 13.418764 1.372996 L 15.560645 1.372996 L 15.560645 5.473683 L 15.048054 10.874142 Z M 14.498856 14.627004 L 14.498856 14.627004 L 14.498856 14.627004 Q 13.858126 14.627004 13.437075 14.205951 L 13.437075 14.205951 L 13.437075 14.205951 Q 13.016023 13.784898 13.016023 13.180779 L 13.016023 13.180779 L 13.016023 13.180779 Q 13.016023 12.57666 13.437075 12.146454 L 13.437075 12.146454 L 13.437075 12.146454 Q 13.858126 11.716248 14.498856 11.716248 L 14.498856 11.716248 L 14.498856 11.716248 Q 15.121282 11.716248 15.560645 12.146454 L 15.560645 12.146454 L 15.560645 12.146454 Q 16 12.57666 16 13.180779 L 16 13.180779 L 16 13.180779 Q 16 13.766592 15.560645 14.196798 L 15.560645 14.196798 L 15.560645 14.196798 Q 15.121282 14.627004 14.498856 14.627004 Z"/>
</svg>
