<svg xmlns="http://www.w3.org/2000/svg" style="isolation:isolate" width="256" height="256">
 <path fill="#455a64" d="M53.039 21C16.724 21 13 23.055 13 59.371v52.167h230V79.563c0-36.316-3.724-42.102-40.039-42.102h-89.336L97.198 21H53.039z"/>
 <path fill="#78909c" d="M53.039 70.384C16.722 70.384 13 74.114 13 110.429v84.524C13 231.269 16.722 235 53.039 235h149.922c36.317 0 40.039-3.731 40.039-40.047V93.969c0-36.316-3.722-40.047-40.039-40.047H119.53l-16.438 16.462H53.039z"/>
 <linearGradient id="a" x2="0" y1=".5" y2="-.5" gradientTransform="matrix(230 0 0 181.078 13 53.922)" gradientUnits="userSpaceOnUse">
  <stop offset="0%" stop-color="#ffffff" stop-opacity=".07"/>
  <stop offset="67.282%" stop-color="#fcefe8" stop-opacity="0"/>
 </linearGradient>
 <path fill="url(#a)" d="M53.039 70.384C16.722 70.384 13 74.114 13 110.429v84.524C13 231.269 16.722 235 53.039 235h149.922c36.317 0 40.039-3.731 40.039-40.047V93.969c0-36.316-3.722-40.047-40.039-40.047H119.53l-16.438 16.462H53.039z"/>
 <g opacity=".4">
  <radialGradient id="b" cx=".5" cy=".5" r=".272" fx=".5" fy=".136" gradientTransform="matrix(230 0 0 60.62 13 21)" gradientUnits="userSpaceOnUse">
   <stop offset="0%" stop-color="#ffffff"/>
   <stop offset="100%" stop-color="#ffffff" stop-opacity=".204"/>
  </radialGradient>
  <path fill="url(#b)" d="M53.039 21C16.724 21 13 23.055 13 59.371v2.059c0-36.316 3.724-38.373 40.039-38.373h44.159l16.427 16.461h89.336c36.315 0 40.039 5.786 40.039 42.102v-2.057c0-36.316-3.724-42.102-40.039-42.102h-89.336L97.198 21H53.039z"/>
 </g>
 <g opacity=".4">
  <radialGradient id="c" cx=".5" cy=".5" r=".272" fx=".482" fy=".211" gradientTransform="matrix(230 0 0 58.565 13 53.922)" gradientUnits="userSpaceOnUse">
   <stop offset="0%" stop-color="#ffffff"/>
   <stop offset="100%" stop-color="#ffffff" stop-opacity=".204"/>
  </radialGradient>
  <path fill="url(#c)" d="M119.53 53.922l-16.438 16.462H53.039C16.724 70.384 13 74.112 13 110.427v2.06c0-36.316 3.724-40.046 40.039-40.046h50.053l16.438-16.46h83.431c36.315 0 40.039 3.727 40.039 40.043v-2.057c0-36.316-3.724-40.045-40.039-40.045H119.53z"/>
 </g>
 <path fill="#ffffff" opacity=".1" d="M243 167.096l-65.715 65.845h25.676c36.315 0 40.039-3.727 40.039-40.043v-25.802z"/>
 <path opacity=".2" d="M13 192.898v2.057C13 231.271 16.724 235 53.039 235h149.922c36.315 0 40.039-3.729 40.039-40.045v-2.057c0 36.316-3.724 40.043-40.039 40.043H53.039c-36.315 0-40.039-3.727-40.039-40.043z"/>
 <g fill="#cfd8dc">
  <path d="M127.406 114.235c-5.543 3.9-11.825 8.32-15.191 15.633-5.847 12.758 11.963 26.674 12.725 27.261a.981.981 0 0 0 1.23-.026.983.983 0 0 0 .242-1.207c-.064-.125-6.457-12.546-6.22-21.458.084-3.104 4.426-6.625 9.023-10.352 4.211-3.415 8.983-7.285 11.776-11.812 6.13-9.964-.684-19.763-.753-19.86a.984.984 0 0 0-1.763.775c.014.065 1.339 6.545-2.348 13.22-1.519 2.759-4.856 5.107-8.721 7.826z"/>
  <path d="M150.759 118.629a.983.983 0 0 0-.941-1.705c-.941.358-23.058 8.886-23.058 19.191 0 7.103 3.033 10.855 5.248 13.596.869 1.074 1.619 2.003 1.866 2.795.696 2.283-.953 6.411-1.646 7.809a.983.983 0 0 0 1.442 1.245c.38-.265 9.294-6.569 7.695-14.164-.595-2.887-2.014-4.997-3.265-6.858-1.939-2.884-3.339-4.967-1.215-8.815 2.489-4.487 13.76-13.009 13.874-13.094z"/>
  <path d="M93.188 161.899c-.379 1.136-.2 2.262.517 3.259 2.398 3.33 10.89 5.163 23.914 5.163h.002c1.765 0 3.628-.035 5.536-.103 20.823-.746 28.546-7.235 28.865-7.511a.983.983 0 0 0-.902-1.692c-7.334 2.003-21.028 2.714-30.526 2.714-10.628 0-16.041-.766-17.366-1.331.68-.934 4.874-2.602 10.07-3.625a.983.983 0 1 0-.189-1.948c-3.047 0-18.324.244-19.921 5.074zM162.866 155.215c-4.295 0-8.367 2.154-8.539 2.245a.985.985 0 0 0 .463 1.851c.091 0 9.162.074 9.983 5.258.728 4.473-8.582 11.719-12.231 14.134a.984.984 0 0 0 .748 1.782c.866-.185 21.181-4.663 19.033-16.496-1.31-7.251-5.866-8.774-9.457-8.774zM148.934 177.255a.985.985 0 0 0-.402-.986l-4.872-3.413a.985.985 0 0 0-.816-.145c-.051.013-5.145 1.353-12.541 2.174-2.935.33-6.223.503-9.508.503-7.394 0-12.228-.869-12.932-1.506-.094-.179-.064-.26-.047-.306.127-.356.813-.778 1.255-.946a.982.982 0 0 0-.572-1.878c-4.886 1.179-7.276 2.829-7.102 4.902.309 3.677 8.821 5.564 16.018 6.062 1.034.071 2.154.107 3.325.107h.002c11.967 0 27.307-3.756 27.461-3.794a.98.98 0 0 0 .731-.774zM112.209 185.145a.982.982 0 0 0-.563-1.807c-.655.018-6.408.277-6.81 3.941-.122 1.095.191 2.096.932 2.974 2.065 2.448 7.641 3.904 17.043 4.449 1.112.067 2.242.1 3.358.1 11.953 0 20.002-3.743 20.34-3.903a.983.983 0 0 0 .092-1.729l-6.156-3.759a.99.99 0 0 0-.713-.124c-.039.009-3.948.819-9.847 1.621-1.116.151-2.514.229-4.154.229-5.892 0-12.446-.964-13.703-1.594-.019-.118.005-.267.181-.398z"/>
  <path d="M120.598 206.106c27.379-.024 42.073-4.894 44.904-7.959 1.002-1.084 1.11-2.111 1.025-2.781-.21-1.65-1.713-2.66-1.883-2.77a.993.993 0 0 0-1.283.174.972.972 0 0 0-.007 1.28c.173.223.273.595-.232 1.1-1.132 1.057-12.545 4.267-31.549 5.231-2.603.135-5.334.204-8.115.204-17.015 0-29.468-2.331-31.103-3.69.63-.905 5.035-2.352 9.719-3.17a.984.984 0 0 0-.3-1.945c-.132.018-.581.045-1.1.077-7.729.472-16.66 1.524-17.127 5.508-.141 1.214.22 2.316 1.073 3.275 2.087 2.346 8.087 5.465 35.977 5.465l.001.001z"/>
  <path d="M170.879 199.011a.982.982 0 0 0-1.133.223c-.04.043-4.156 4.349-16.533 6.877-4.738.95-13.632 1.432-26.434 1.432-12.827 0-25.032-.505-25.153-.51a.984.984 0 0 0-.27 1.939c.127.03 12.918 3.028 30.407 3.028 8.388 0 16.55-.681 24.261-2.026 14.376-2.521 15.383-9.652 15.419-9.955a.983.983 0 0 0-.564-1.008z"/>
 </g>
</svg>
