<svg xmlns="http://www.w3.org/2000/svg" style="isolation:isolate" width="256" height="256" viewBox="0 0 256 256">
 <g>
  <path fill="#f34f17" d="M 53.705 21 C 17.39 21 13.667 23.055 13.667 59.371 L 13.667 111.538 L 243.667 111.538 L 243.667 79.563 C 243.667 43.247 239.943 37.461 203.628 37.461 L 114.292 37.461 L 97.864 21 L 53.705 21 Z"/>
  <path fill="#fb7c38" d="M 53.705 70.384 C 17.388 70.384 13.667 74.114 13.667 110.429 L 13.667 194.953 C 13.667 231.269 17.388 235 53.705 235 L 203.628 235 C 239.945 235 243.667 231.269 243.667 194.953 L 243.667 93.969 C 243.667 57.653 239.945 53.922 203.628 53.922 L 120.197 53.922 L 103.759 70.384 L 53.705 70.384 Z"/>
  <linearGradient id="_lgradient_1" x1="0" x2="0" y1=".5" y2="-.5" gradientTransform="matrix(230,0,0,181.078,13.667,53.922)" gradientUnits="userSpaceOnUse">
   <stop offset="0%" stop-opacity=".07" style="stop-color:#fff"/>
   <stop offset="67.282%" stop-opacity="0" style="stop-color:#fcefe8"/>
  </linearGradient>
  <path fill="url(#_lgradient_1)" d="M 53.705 70.384 C 17.388 70.384 13.667 74.114 13.667 110.429 L 13.667 194.953 C 13.667 231.269 17.388 235 53.705 235 L 203.628 235 C 239.945 235 243.667 231.269 243.667 194.953 L 243.667 93.969 C 243.667 57.653 239.945 53.922 203.628 53.922 L 120.197 53.922 L 103.759 70.384 L 53.705 70.384 Z"/>
  <g opacity=".4">
   <radialGradient id="_rgradient_2" cx=".5" cy=".5" r=".272" fx=".5" fy=".136" gradientTransform="matrix(230,0,0,60.62,13.667,21)" gradientUnits="userSpaceOnUse">
    <stop offset="0%" style="stop-color:#fff"/>
    <stop offset="100%" stop-opacity=".204" style="stop-color:#fff"/>
   </radialGradient>
   <path fill="url(#_rgradient_2)" d="M 53.705 21 C 17.39 21 13.667 23.055 13.667 59.371 L 13.667 61.43 C 13.667 25.114 17.39 23.057 53.705 23.057 L 97.864 23.057 L 114.292 39.518 L 203.628 39.518 C 239.943 39.518 243.667 45.304 243.667 81.62 L 243.667 79.563 C 243.667 43.247 239.943 37.461 203.628 37.461 L 114.292 37.461 L 97.864 21 L 53.705 21 Z"/>
  </g>
  <g opacity=".4">
   <radialGradient id="_rgradient_3" cx=".5" cy=".5" r=".272" fx=".482" fy=".211" gradientTransform="matrix(230,0,0,58.565,13.667,53.922)" gradientUnits="userSpaceOnUse">
    <stop offset="0%" style="stop-color:#fff"/>
    <stop offset="100%" stop-opacity=".204" style="stop-color:#fff"/>
   </radialGradient>
   <path fill="url(#_rgradient_3)" d="M 120.197 53.922 L 103.759 70.384 L 53.705 70.384 C 17.39 70.384 13.667 74.112 13.667 110.427 L 13.667 112.487 C 13.667 76.171 17.39 72.441 53.705 72.441 L 103.759 72.441 L 120.197 55.981 L 203.628 55.981 C 239.943 55.981 243.667 59.708 243.667 96.024 L 243.667 93.967 C 243.667 57.651 239.943 53.922 203.628 53.922 L 120.197 53.922 Z"/>
  </g>
  <g opacity=".1">
   <path fill="#ffffff" d="M 243.667 167.096 L 177.952 232.941 L 203.628 232.941 C 239.943 232.941 243.667 229.214 243.667 192.898 L 243.667 167.096 Z"/>
  </g>
  <g opacity=".2">
   <path d="M 13.667 192.898 L 13.667 194.955 C 13.667 231.271 17.39 235 53.705 235 L 203.628 235 C 239.943 235 243.667 231.271 243.667 194.955 L 243.667 192.898 C 243.667 229.214 239.943 232.941 203.628 232.941 L 53.705 232.941 C 17.39 232.941 13.667 229.214 13.667 192.898 Z"/>
  </g>
 </g>
 <path fill="#fdd1b9" fill-rule="evenodd" d="M 70 152 C 70 118.885 96.885 92 130 92 C 163.115 92 190 118.885 190 152 C 190 185.115 163.115 212 130 212 C 96.885 212 70 185.115 70 152 Z M 110 152 C 110 140.962 118.962 132 130 132 C 141.038 132 150 140.962 150 152 C 150 163.038 141.038 172 130 172 C 118.962 172 110 163.038 110 152 Z"/>
</svg>
