<svg xmlns="http://www.w3.org/2000/svg" style="isolation:isolate" width="256" height="256">
 <path fill="#12816b" d="M53.039 21C16.724 21 13 23.055 13 59.371v52.167h230V79.563c0-36.316-3.724-42.102-40.039-42.102h-89.336L97.198 21H53.039z"/>
 <path fill="#16a085" d="M53.039 70.384C16.722 70.384 13 74.114 13 110.429v84.524C13 231.269 16.722 235 53.039 235h149.922c36.317 0 40.039-3.731 40.039-40.047V93.969c0-36.316-3.722-40.047-40.039-40.047H119.53l-16.438 16.462H53.039z"/>
 <linearGradient id="a" x2="0" y1=".5" y2="-.5" gradientTransform="matrix(230 0 0 181.078 13 53.922)" gradientUnits="userSpaceOnUse">
  <stop offset="0%" stop-color="#ffffff" stop-opacity=".07"/>
  <stop offset="67.282%" stop-color="#fcefe8" stop-opacity="0"/>
 </linearGradient>
 <path fill="url(#a)" d="M53.039 70.384C16.722 70.384 13 74.114 13 110.429v84.524C13 231.269 16.722 235 53.039 235h149.922c36.317 0 40.039-3.731 40.039-40.047V93.969c0-36.316-3.722-40.047-40.039-40.047H119.53l-16.438 16.462H53.039z"/>
 <g opacity=".4">
  <radialGradient id="b" cx=".5" cy=".5" r=".272" fx=".5" fy=".136" gradientTransform="matrix(230 0 0 60.62 13 21)" gradientUnits="userSpaceOnUse">
   <stop offset="0%" stop-color="#ffffff"/>
   <stop offset="100%" stop-color="#ffffff" stop-opacity=".204"/>
  </radialGradient>
  <path fill="url(#b)" d="M53.039 21C16.724 21 13 23.055 13 59.371v2.059c0-36.316 3.724-38.373 40.039-38.373h44.159l16.427 16.461h89.336c36.315 0 40.039 5.786 40.039 42.102v-2.057c0-36.316-3.724-42.102-40.039-42.102h-89.336L97.198 21H53.039z"/>
 </g>
 <g opacity=".4">
  <radialGradient id="c" cx=".5" cy=".5" r=".272" fx=".482" fy=".211" gradientTransform="matrix(230 0 0 58.565 13 53.922)" gradientUnits="userSpaceOnUse">
   <stop offset="0%" stop-color="#ffffff"/>
   <stop offset="100%" stop-color="#ffffff" stop-opacity=".204"/>
  </radialGradient>
  <path fill="url(#c)" d="M119.53 53.922l-16.438 16.462H53.039C16.724 70.384 13 74.112 13 110.427v2.06c0-36.316 3.724-40.046 40.039-40.046h50.053l16.438-16.46h83.431c36.315 0 40.039 3.727 40.039 40.043v-2.057c0-36.316-3.724-40.045-40.039-40.045H119.53z"/>
 </g>
 <path fill="#ffffff" opacity=".1" d="M243 167.096l-65.715 65.845h25.676c36.315 0 40.039-3.727 40.039-40.043v-25.802z"/>
 <path opacity=".2" d="M13 192.898v2.057C13 231.271 16.724 235 53.039 235h149.922c36.315 0 40.039-3.729 40.039-40.045v-2.057c0 36.316-3.724 40.043-40.039 40.043H53.039c-36.315 0-40.039-3.727-40.039-40.043z"/>
 <g fill="#a6dbd1">
  <path d="M171.104 92.003c-1.449-.014-3.377.205-5.942.575l-46.31 6.592c-10.302 2.107-10.302 2.76-10.302 11.121V188.688c-.76-.51-1.509-1.024-2.293-1.529v.003c-3.273-2.107-6.761-3.607-11.447-3.607-5.869 0-9.37 2.159-11.489 5.003-2.118 2.843-2.821 6.427-2.821 9.198 0 3.341 1.188 6.906 3.764 9.623C86.84 210.096 90.801 212 96.495 212c6.43 0 10.954-1.726 13.511-5.094 2.013-2.652 3.125-6.195 3.523-10.566V196.326c.055-.53.095-1.074.13-1.635.054-.864.043-2.48.043-2.48v-61.837c0-7.42-.001-7.863 10.304-9.556l36.019-4.898c10.162-1.278 10.32-.391 10.322 4.944v57.929c-.759-.511-1.508-1.024-2.293-1.529v.002c-3.273-2.107-6.761-3.606-11.446-3.606-5.87 0-9.371 2.159-11.49 5.002-2.118 2.844-2.821 6.428-2.821 9.198 0 3.341 1.188 6.907 3.765 9.624 2.575 2.717 6.536 4.62 12.23 4.621 6.43 0 10.954-1.726 13.511-5.095 2.013-2.652 3.126-6.194 3.523-10.565V186.431c.055-.53.095-1.074.131-1.635.054-.864.042-2.481.042-2.481V100.71c0-6.508-.044-8.663-4.393-8.71l-.002.003z"/>
 </g>
</svg>
