<svg xmlns="http://www.w3.org/2000/svg" style="isolation:isolate" width="256" height="256">
 <path fill="#value_dark" d="M53.705 21c-36.315 0-40.038 2.055-40.038 38.371v52.167h230V79.563c0-36.316-3.724-42.102-40.04-42.102h-89.335L97.864 21H53.705z"/>
 <path fill="#value_light" d="M53.705 70.384c-36.317 0-40.038 3.73-40.038 40.045v84.524c0 36.316 3.721 40.047 40.038 40.047h149.923c36.317 0 40.039-3.731 40.039-40.047V93.969c0-36.316-3.722-40.047-40.04-40.047h-83.43l-16.438 16.462H53.705z"/>
 <linearGradient id="a" x2="0" y1=".5" y2="-.5" gradientTransform="matrix(230 0 0 181.07847 13.667 53.922)" gradientUnits="userSpaceOnUse">
  <stop offset="0%" stop-color="#ffffff" stop-opacity=".07"/>
  <stop offset="67.282%" stop-color="#fcefe8" stop-opacity="0"/>
 </linearGradient>
 <path fill="url(#a)" d="M53.705 70.384c-36.317 0-40.038 3.73-40.038 40.045v84.524c0 36.316 3.721 40.047 40.038 40.047h149.923c36.317 0 40.039-3.731 40.039-40.047V93.969c0-36.316-3.722-40.047-40.04-40.047h-83.43l-16.438 16.462H53.705z"/>
 <g opacity=".4">
  <radialGradient id="b" cx=".5" cy=".5" r=".272" fx=".5" fy=".136" gradientTransform="matrix(230 0 0 60.62014 13.667 21)" gradientUnits="userSpaceOnUse">
   <stop offset="0%" stop-color="#ffffff"/>
   <stop offset="100%" stop-color="#ffffff" stop-opacity=".204"/>
  </radialGradient>
  <path fill="url(#b)" d="M53.705 21c-36.315 0-40.038 2.055-40.038 38.371v2.06c0-36.317 3.723-38.374 40.038-38.374h44.16l16.427 16.46h89.336c36.315 0 40.039 5.787 40.039 42.103v-2.057c0-36.316-3.724-42.102-40.04-42.102h-89.335L97.864 21H53.705z"/>
 </g>
 <g opacity=".4">
  <radialGradient id="c" cx=".5" cy=".5" r=".272" fx=".482" fy=".211" gradientTransform="matrix(230 0 0 58.56504 13.667 53.922)" gradientUnits="userSpaceOnUse">
   <stop offset="0%" stop-color="#ffffff"/>
   <stop offset="100%" stop-color="#ffffff" stop-opacity=".204"/>
  </radialGradient>
  <path fill="url(#c)" d="M120.197 53.922l-16.438 16.462H53.705c-36.315 0-40.038 3.728-40.038 40.043v2.06c0-36.316 3.723-40.046 40.038-40.046h50.054l16.438-16.46h83.43c36.316 0 40.04 3.727 40.04 40.043v-2.057c0-36.316-3.724-40.045-40.04-40.045h-83.43z"/>
 </g>
 <path fill="#ffffff" opacity=".1" d="M243.667 167.096l-65.715 65.845h25.676c36.315 0 40.039-3.727 40.039-40.043v-25.802z"/>
 <path opacity=".2" d="M13.667 192.898v2.057C13.667 231.27 17.39 235 53.705 235h149.923c36.315 0 40.039-3.73 40.039-40.045v-2.057c0 36.316-3.724 40.043-40.04 40.043H53.706c-36.315 0-40.038-3.727-40.038-40.043z"/>
 <g fill="#323232">
  <path d="M108.962 149.902c-2.746 0-4.452 2.038-4.452 5.575 0 3.245 1.498 5.742 4.41 5.742 2.788 0 4.619-2.247 4.619-5.826 0-3.785-2.039-5.491-4.577-5.491zM182.538 159.346c0 1.207.582 2.164 2.206 2.164 1.913 0 3.952-1.373 4.077-4.494-.874-.124-1.83-.25-2.704-.25-1.914 0-3.578.541-3.578 2.58z"/>
  <path d="M192.94 165.338c-2.496 0-3.87-1.457-4.12-3.745-1.081 1.914-2.995 3.745-6.032 3.745-2.704 0-5.783-1.457-5.783-5.368 0-4.618 4.451-5.7 8.737-5.7 1.04 0 2.122.042 3.079.167v-.624c0-1.915-.042-4.203-3.08-4.203-1.122 0-1.996.084-2.87.541l-.606 2.112-4.286-.458.731-4.316c3.288-1.332 4.951-1.706 8.03-1.706 4.036 0 7.448 2.08 7.448 6.366v8.154c0 1.082.417 1.456 1.29 1.456.25 0 .499-.041.79-.124l.042 2.829c-.998.541-2.205.874-3.37.874zm-28.799-.416l8.113-28.626h5.284l-8.113 28.626h-5.284zm-10.901 0l8.112-28.626h5.284l-8.112 28.626h-5.284zm-3.514-12.025h-5.617v-6.74h5.617v6.74zm0 12.025h-5.617v-6.74h5.617v6.74zm-10.712 0h-16.392l-.541-2.83 10.318-11.858h-5.866l-.832 2.913-3.87-.416.666-6.574h16.476l.416 2.83-10.402 11.857h6.075l.874-2.912 4.244.416-1.166 6.574zm-30.26.416c-5.783 0-9.778-3.537-9.778-9.528 0-5.492 3.33-10.027 10.07-10.027s10.026 4.535 10.026 9.777c0 5.992-4.327 9.778-10.318 9.778zm-12.113-.416h-7.864v-10.569c0-3.245-1.081-4.493-3.203-4.493-2.58 0-3.62 1.83-3.62 4.452v6.532h2.496v4.078h-7.863v-10.569c0-3.245-1.082-4.493-3.204-4.493-2.58 0-3.62 1.83-3.62 4.452v6.532h3.579v4.078H61.9v-4.078h2.496v-10.61H61.9v-4.077h7.863v2.83c1.124-1.997 3.08-3.204 5.7-3.204 2.705 0 5.201 1.29 6.117 4.035 1.04-2.496 3.162-4.035 6.116-4.035 3.37 0 6.449 2.038 6.449 6.49v8.571h2.496v4.078zM53 130.844v42.89h150v-42.89H53z"/>
 </g>
</svg>
