<?xml version="1.0" standalone="no"?><!-- Generator: Gravit.io --><svg xmlns="http://www.w3.org/2000/svg" xmlns:xlink="http://www.w3.org/1999/xlink" style="isolation:isolate" viewBox="0 0 16 16" width="16" height="16"><path d=" M 8 9 L 12 9 L 12 10 L 8 10 L 8 9 L 8 9 L 8 9 Z  M 2 1 C 0.892 1 0 1.892 0 3 L 0 13 C 0 14.108 0.892 15 2 15 L 14 15 C 15.108 15 16 14.108 16 13 L 16 3 C 16 1.892 15.108 1 14 1 L 2 1 L 2 1 L 2 1 Z  M 4.915278 9.300323 C 5.045884 9.263007 5.18582 9.216362 5.307097 9.151058 C 5.493678 9.057769 5.6616 8.936491 5.801536 8.787227 C 5.941471 8.637961 6.053419 8.46071 6.118723 8.264801 C 6.193355 8.050233 6.24 7.817008 6.24 7.583781 C 6.24 7.471833 6.230671 7.359885 6.212013 7.238607 C 6.193355 7.135988 6.165368 7.033368 6.118723 6.930749 C 6.090735 6.82813 6.044091 6.73484 5.997445 6.64155 C 5.9508 6.566917 5.904155 6.492285 5.848181 6.426982 C 5.792207 6.361678 5.736232 6.296375 5.670929 6.240401 C 5.596297 6.175098 5.521664 6.109795 5.437703 6.05382 C 5.353742 5.997846 5.27911 5.951201 5.195148 5.904556 C 5.129846 5.86724 5.064542 5.829924 4.999239 5.801937 C 4.943265 5.773949 4.877962 5.745963 4.812658 5.717975 C 4.728697 5.680659 4.644736 5.652672 4.560775 5.615356 C 4.402181 5.559382 4.252917 5.484749 4.103652 5.410117 C 4.02902 5.372801 3.954387 5.326156 3.879755 5.279511 C 3.842439 5.242195 3.805123 5.204879 3.777136 5.158233 C 3.758478 5.120917 3.749149 5.074272 3.749149 5.018298 C 3.749149 4.971653 3.758478 4.934337 3.777136 4.887692 C 3.786465 4.859704 3.805123 4.831718 3.83311 4.813059 C 3.870426 4.785072 3.907742 4.766414 3.945058 4.747756 C 4.02902 4.729098 4.112981 4.71044 4.196942 4.71044 C 4.271575 4.71044 4.355536 4.729098 4.430168 4.747756 C 4.476813 4.757085 4.523458 4.785072 4.570103 4.813059 C 4.616749 4.850376 4.663394 4.887692 4.70071 4.934337 C 4.738026 4.971653 4.766013 5.018298 4.784671 5.074272 C 4.812658 5.139575 4.859304 5.18622 4.924607 5.214208 C 4.98991 5.251524 5.064542 5.251524 5.129846 5.232866 L 5.820194 4.99964 C 5.894826 4.971653 5.9508 4.925008 5.978787 4.859704 C 6.016103 4.80373 6.025432 4.729098 6.006774 4.654466 C 5.960129 4.51453 5.904155 4.374595 5.820194 4.243988 C 5.745561 4.122711 5.652271 4.001434 5.540322 3.898814 C 5.428374 3.796195 5.297768 3.712234 5.167162 3.64693 C 5.0832 3.609614 4.999239 3.572298 4.915278 3.544311 L 4.915278 2.88195 L 3.599884 2.88195 L 3.599884 3.525653 C 3.478607 3.562969 3.35733 3.609614 3.236052 3.665588 C 3.068129 3.74955 2.918865 3.870827 2.788259 4.010763 C 2.666981 4.150698 2.564362 4.309292 2.499059 4.486543 C 2.433756 4.654466 2.396439 4.841046 2.396439 5.027627 C 2.396439 5.139575 2.405769 5.242195 2.424427 5.354143 C 2.443085 5.447433 2.471072 5.550053 2.508388 5.634014 C 2.545704 5.727304 2.592349 5.811265 2.638994 5.895227 C 2.67631 5.96053 2.722955 6.025833 2.77893 6.091137 C 2.834904 6.147111 2.890878 6.203085 2.946852 6.24973 C 3.021484 6.315033 3.105446 6.371008 3.189407 6.426982 C 3.264039 6.473627 3.338672 6.520272 3.422633 6.566917 C 3.478607 6.604233 3.54391 6.63222 3.599884 6.660208 C 3.655859 6.678866 3.711833 6.706852 3.767807 6.72551 C 3.861097 6.762827 3.945058 6.800143 4.02902 6.837459 C 4.187613 6.893433 4.327549 6.968065 4.476813 7.042698 C 4.560775 7.089343 4.644736 7.154646 4.719368 7.21062 C 4.775342 7.257265 4.821987 7.322569 4.849974 7.378543 C 4.877962 7.453175 4.89662 7.518478 4.89662 7.593111 C 4.89662 7.677072 4.877962 7.761033 4.849974 7.835665 C 4.831316 7.89164 4.803329 7.928956 4.756684 7.966272 C 4.710039 8.012917 4.654065 8.040904 4.598091 8.059562 C 4.5048 8.087549 4.402181 8.106207 4.308891 8.106207 C 4.2156 8.106207 4.12231 8.087549 4.038349 8.059562 C 3.954387 8.040904 3.879755 7.994259 3.814452 7.947613 C 3.73982 7.900968 3.674517 7.835665 3.618542 7.761033 C 3.553239 7.686401 3.506594 7.593111 3.459949 7.49982 C 3.431962 7.434517 3.385317 7.378543 3.320013 7.350556 C 3.245381 7.322569 3.180078 7.322569 3.105446 7.350556 L 2.405769 7.611769 C 2.340465 7.630427 2.284491 7.686401 2.256504 7.751704 C 2.219188 7.817008 2.219188 7.89164 2.237846 7.956943 C 2.303149 8.134194 2.377781 8.302117 2.480401 8.451381 C 2.58302 8.600645 2.704297 8.740581 2.834904 8.861859 C 2.974839 8.973807 3.124104 9.076426 3.282697 9.160388 C 3.385317 9.207033 3.497265 9.244349 3.599884 9.281665 L 3.599884 10 L 4.915278 10 L 4.915278 9.300323 Z " fill-rule="evenodd" id="Compound Shape" fill="#d4be98"/></svg>