<svg xmlns="http://www.w3.org/2000/svg" style="isolation:isolate" width="256" height="256" viewBox="0 0 256 256">
 <defs>
  <filter id="AiwRkblkVuIZ3Rfm5Roc011eWyIM3tEB" width="400%" height="400%" x="-200%" y="-200%" color-interpolation-filters="sRGB" filterUnits="objectBoundingBox">
   <feGaussianBlur xmlns="http://www.w3.org/2000/svg" in="SourceGraphic" stdDeviation="4.294"/>
   <feOffset xmlns="http://www.w3.org/2000/svg" dx="0" dy="4" result="pf_100_offsetBlur"/>
   <feFlood xmlns="http://www.w3.org/2000/svg" flood-opacity=".4"/>
   <feComposite xmlns="http://www.w3.org/2000/svg" in2="pf_100_offsetBlur" operator="in" result="pf_100_dropShadow"/>
   <feBlend xmlns="http://www.w3.org/2000/svg" in="SourceGraphic" in2="pf_100_dropShadow" mode="normal"/>
  </filter>
 </defs>
 <g filter="url(#AiwRkblkVuIZ3Rfm5Roc011eWyIM3tEB)">
  <path fill="#e4d487" d="M 165.688919 11.95 C 239.744626 11.95 250.328309 22.507198 250.328309 96.493859 L 250.328309 155.744653 C 250.328309 229.73091 239.744626 240.288396 165.688919 240.288396 L 90.319393 240.288396 C 16.26369 240.288396 5.68 229.73091 5.68 155.744653 L 5.68 96.493859 C 5.68 22.507198 16.26369 11.95 90.319393 11.95 L 165.688919 11.95 L 165.688919 11.95 Z"/>
 </g>
 <g>
  <g opacity=".5">
   <linearGradient id="_lgradient_0" x1="0" x2="1" y1=".5" y2=".5" gradientTransform="matrix(61.451001,0,0,97.296997,50.161003,142.310004)" gradientUnits="userSpaceOnUse">
    <stop offset="0%" style="stop-color:#111111"/>
    <stop offset="100%" style="stop-color:#000000"/>
   </linearGradient>
   <path fill="url(#_lgradient_0)" d="M 63.539006 239.441 C 64.089001 239.476996 64.560002 239.539008 65.120007 239.571997 C 65.555004 239.597006 66.147 239.582999 66.588001 239.607001 L 66.549 232.015006 L 93.178005 207.550009 L 93.178005 199.394003 L 105.468006 187.161002 L 105.468006 181.045996 L 111.612004 174.929007 L 111.612004 158.620001 L 103.419003 150.463995 L 87.032002 150.463995 L 78.839001 142.310004 L 58.356003 142.310004 L 50.161003 150.463995 L 50.161003 170.853003 L 66.604 185.192999 L 66.549 203.472006 L 60.405003 209.588995 L 60.405003 236.09101 L 63.539006 239.441 L 63.539006 239.441 Z"/>
  </g>
  <g opacity=".5">
   <linearGradient id="_lgradient_1" x1="0" x2="1" y1=".5" y2=".5" gradientTransform="matrix(12.290001,0,0,8.155998,93.178005,81.148001)" gradientUnits="userSpaceOnUse">
    <stop offset="0%" style="stop-color:#111111"/>
    <stop offset="100%" style="stop-color:#000000"/>
   </linearGradient>
   <path fill="url(#_lgradient_1)" d="M 99.322003 81.148001 L 93.178005 87.265006 L 99.322003 87.265006 L 101.371006 89.303999 L 103.419003 89.303999 L 105.468006 87.265006 L 99.322003 81.148001 L 99.322003 81.148001 Z"/>
  </g>
  <g opacity=".5">
   <linearGradient id="_lgradient_2" x1="0" x2="1" y1=".5" y2=".5" gradientTransform="matrix(96.272995,0,0,101.991997,138.242008,109.690001)" gradientUnits="userSpaceOnUse">
    <stop offset="0%" style="stop-color:#111111"/>
    <stop offset="100%" style="stop-color:#000000"/>
   </linearGradient>
   <path fill="url(#_lgradient_2)" d="M 177.160008 109.690001 L 152.580006 109.690001 L 138.242008 123.961005 L 138.242008 144.349005 L 148.483006 154.543005 L 162.82201 154.543005 L 168.966999 160.659003 L 168.966999 166.775 L 173.063999 170.851996 L 173.063999 195.317008 L 188.619999 211.681998 L 214.308003 186.114996 L 214.03101 162.696997 L 234.515003 142.310004 L 226.321003 142.310004 L 205.838001 121.923003 L 205.838001 113.768004 L 181.257008 113.768004 L 177.160008 109.690001 L 177.160008 109.690001 Z"/>
  </g>
  <g opacity=".5">
   <linearGradient id="_lgradient_3" x1="0" x2="1" y1=".5" y2=".5" gradientTransform="matrix(102.418991,0,0,104.843998,148.483006,33.388003)" gradientUnits="userSpaceOnUse">
    <stop offset="0%" style="stop-color:#111111"/>
    <stop offset="100%" style="stop-color:#000000"/>
   </linearGradient>
   <path fill="url(#_lgradient_3)" d="M 250.901997 117.845 L 250.901997 96.373999 C 250.901997 87.126006 250.735005 78.869002 250.299 71.498999 C 250.080998 67.815001 249.796009 64.353003 249.429997 61.099001 C 249.063999 57.845004 248.618 54.801001 248.078007 51.952002 C 247.537998 49.104002 246.903996 46.451003 246.164006 43.982005 C 245.425007 41.513003 244.578999 39.226004 243.613011 37.111002 C 242.998997 35.764002 242.248005 34.600005 241.533009 33.388003 L 238.610996 36.296004 L 226.321003 36.296004 L 214.03101 48.529002 L 205.838001 40.374003 L 181.258 40.374003 L 168.968006 52.607005 L 168.968006 62.800002 L 181.258 62.800002 L 181.258 56.683001 L 189.451008 56.683001 L 189.451008 64.839003 L 185.353001 68.914999 L 168.968006 69.191 L 162.82201 75.032004 L 154.629002 75.032004 L 154.629002 83.187003 L 148.483006 89.303999 L 148.483006 101.534003 L 160.772999 101.534003 L 168.968006 93.380003 L 177.161 93.380003 L 177.161 97.458006 L 185.353001 105.613005 L 189.451008 105.613005 L 189.451008 101.534003 L 181.258 93.380003 L 189.451008 93.380003 L 197.643009 101.534003 L 207.884999 101.534003 L 201.741001 95.419005 L 207.884999 89.303999 L 214.03101 89.303999 L 220.175007 95.419005 L 214.03101 95.419005 L 207.884999 101.534003 L 213.91901 107.539999 L 214.03101 113.767004 L 205.838001 113.767004 L 230.41901 138.232001 L 234.513996 138.232001 L 238.610996 134.155997 L 246.804005 125.998999 L 238.610996 117.845 L 250.901997 117.845 L 250.901997 117.845 Z"/>
  </g>
  <g opacity=".5">
   <linearGradient id="_lgradient_4" x1="0" x2="1" y1=".5" y2=".5" gradientTransform="matrix(6.145004,0,0,12.231998,156.677006,58.722003)" gradientUnits="userSpaceOnUse">
    <stop offset="0%" style="stop-color:#111111"/>
    <stop offset="100%" style="stop-color:#000000"/>
   </linearGradient>
   <path fill="url(#_lgradient_4)" d="M 156.677006 70.954001 L 156.677006 64.838004 L 162.82201 58.722003 L 162.82201 70.954001 L 156.677006 70.954001 L 156.677006 70.954001 Z"/>
  </g>
  <g opacity=".5">
   <linearGradient id="_lgradient_5" x1="0" x2="1" y1=".5" y2=".5" gradientTransform="matrix(8.194,0,0,20.388,220.175999,170.851996)" gradientUnits="userSpaceOnUse">
    <stop offset="0%" style="stop-color:#111111"/>
    <stop offset="100%" style="stop-color:#000000"/>
   </linearGradient>
   <path fill="url(#_lgradient_5)" d="M 220.175999 191.239996 L 220.175999 178.456 L 228.369999 170.851996 L 228.369999 191.239996 L 220.175999 191.239996 L 220.175999 191.239996 Z"/>
  </g>
  <g opacity=".5">
   <linearGradient id="_lgradient_6" x1="0" x2="1" y1=".5" y2=".5" gradientTransform="matrix(55.304992,0,0,48.930001,80.888005,11.831003)" gradientUnits="userSpaceOnUse">
    <stop offset="0%" style="stop-color:#111111"/>
    <stop offset="100%" style="stop-color:#000000"/>
   </linearGradient>
   <path fill="url(#_lgradient_6)" d="M 136.192997 11.831003 L 90.136006 11.831003 C 89.347004 11.831003 88.788006 11.880002 88.013005 11.882003 L 80.888005 19.986002 L 93.178005 32.218005 L 93.178005 45.001002 L 107.517002 60.761004 L 115.710003 60.761004 L 115.710003 52.607005 L 128.000004 40.374003 L 128.000004 32.218005 L 136.192997 24.064003 L 136.192997 11.831003 L 136.192997 11.831003 Z"/>
  </g>
  <g opacity=".5">
   <linearGradient id="_lgradient_7" x1="0" x2="1" y1=".5" y2=".5" gradientTransform="matrix(12.291008,0,0,6.116001,125.951,56.683001)" gradientUnits="userSpaceOnUse">
    <stop offset="0%" style="stop-color:#111111"/>
    <stop offset="100%" style="stop-color:#000000"/>
   </linearGradient>
   <path fill="url(#_lgradient_7)" d="M 125.951 56.683001 L 132.097004 56.683001 L 138.242008 62.799002 L 125.951 62.799002 L 125.951 56.683001 L 125.951 56.683001 Z"/>
  </g>
  <g opacity=".5">
   <linearGradient id="_lgradient_8" x1="0" x2="1" y1=".5" y2=".5" gradientTransform="matrix(12.290996,0,0,6.117004,58.355004,123.961005)" gradientUnits="userSpaceOnUse">
    <stop offset="0%" style="stop-color:#111111"/>
    <stop offset="100%" style="stop-color:#000000"/>
   </linearGradient>
   <path fill="url(#_lgradient_8)" d="M 70.646 123.961005 L 64.501004 123.961005 L 58.355004 130.078009 L 70.646 130.078009 L 70.646 123.961005 L 70.646 123.961005 Z"/>
  </g>
  <g opacity=".5">
   <linearGradient id="_lgradient_9" x1="0" x2="1" y1=".5" y2=".5" gradientTransform="matrix(92.177003,0,0,115.547005,5.098003,30.841002)" gradientUnits="userSpaceOnUse">
    <stop offset="0%" style="stop-color:#111111"/>
    <stop offset="100%" style="stop-color:#000000"/>
   </linearGradient>
   <path fill="url(#_lgradient_9)" d="M 16.003002 30.841002 C 15.896004 30.993002 15.758003 31.109004 15.653004 31.263003 C 14.436003 33.051001 13.352003 34.995001 12.386004 37.111002 C 11.421004 39.226004 10.575003 41.513003 9.835003 43.982005 C 9.095003 46.451003 8.462003 49.104002 7.922003 51.952002 C 7.382004 54.801001 6.936003 57.845004 6.570003 61.099001 C 6.204003 64.353003 5.918003 67.815001 5.700003 71.498999 C 5.264004 78.869002 5.098003 87.126006 5.098003 96.373999 L 5.098003 117.845 L 13.291003 125.998999 L 25.581003 125.998999 L 46.066002 146.388007 L 46.066002 121.923003 L 58.356003 109.691 L 66.549 109.691 L 78.839001 97.458006 L 91.129002 97.458006 L 84.985005 91.341002 L 97.275006 77.072005 L 84.985005 64.839003 L 66.549 64.839003 L 66.549 81.148001 L 58.356003 81.148001 L 50.161003 72.993002 L 50.161003 64.839003 L 62.452004 52.607005 L 72.695004 52.607005 L 72.695004 44.450003 L 60.405003 32.218005 L 39.920002 32.218005 L 39.920002 44.450003 L 29.678004 44.450003 L 16.003002 30.841002 L 16.003002 30.841002 Z"/>
  </g>
  <g opacity=".5">
   <linearGradient id="_lgradient_10" x1="0" x2="1" y1=".5" y2=".5" gradientTransform="matrix(28.247997,0,0,11.668,38.301003,12.396003)" gradientUnits="userSpaceOnUse">
    <stop offset="0%" style="stop-color:#111111"/>
    <stop offset="100%" style="stop-color:#000000"/>
   </linearGradient>
   <path fill="url(#_lgradient_10)" d="M 66.549 12.396003 C 66.120007 12.419003 65.544003 12.404003 65.120007 12.429003 C 61.415005 12.646003 57.931004 12.929003 54.659004 13.292003 C 51.387005 13.656003 48.325005 14.100003 45.460003 14.636003 C 42.901005 15.115003 40.554005 15.699003 38.301003 16.335003 L 46.066002 24.064003 L 66.549 24.064003 L 66.549 12.396003 L 66.549 12.396003 Z"/>
  </g>
 </g>
 <path fill="#cba606" fill-rule="evenodd" d="M 165.688919 11.95 C 239.744626 11.95 250.328309 22.507198 250.328309 96.493859 L 250.328309 155.744653 C 250.328309 229.73091 239.744626 240.288396 165.688919 240.288396 L 90.319393 240.288396 C 16.26369 240.288396 5.68 229.73091 5.68 155.744653 L 5.68 96.493859 C 5.68 22.507198 16.26369 11.95 90.319393 11.95 L 165.688919 11.95 L 165.688919 11.95 Z M 165.71 26.95 C 169.98 26.95 174.25 26.99 178.52 27.08 C 182.26 27.16 186 27.31 189.74 27.52 C 192.95 27.71 196.17 27.97 199.37 28.32 C 202.07 28.62 204.76 29.01 207.43 29.51 C 209.62 29.91 211.78 30.42 213.91 31.05 C 215.61 31.55 217.26 32.16 218.87 32.88 C 220.14 33.45 221.35 34.12 222.5 34.89 C 223.46 35.54 224.36 36.27 225.18 37.09 C 226 37.91 226.74 38.81 227.38 39.77 C 228.15 40.91 228.83 42.12 229.39 43.38 C 230.12 44.99 230.73 46.64 231.22 48.33 C 231.85 50.46 232.37 52.62 232.77 54.8 C 233.26 57.47 233.66 60.15 233.95 62.85 C 234.3 66.05 234.57 69.26 234.75 72.47 C 234.97 76.21 235.11 79.94 235.19 83.68 C 235.29 87.94 235.33 92.21 235.33 96.48 C 235.33 96.48 235.33 96.49 235.33 96.49 L 235.33 155.74 C 235.33 155.75 235.33 155.76 235.33 155.76 C 235.33 160.03 235.29 164.29 235.19 168.56 C 235.11 172.3 234.97 176.03 234.75 179.77 C 234.57 182.98 234.3 186.19 233.95 189.39 C 233.66 192.09 233.26 194.77 232.77 197.44 C 232.37 199.62 231.85 201.78 231.22 203.91 C 230.73 205.6 230.12 207.25 229.39 208.86 C 228.83 210.12 228.15 211.33 227.38 212.47 C 226.74 213.43 226 214.33 225.18 215.15 C 224.36 215.96 223.46 216.7 222.5 217.35 C 221.35 218.12 220.14 218.79 218.87 219.36 C 217.26 220.08 215.61 220.69 213.91 221.19 C 211.78 221.81 209.62 222.33 207.43 222.73 C 204.76 223.23 202.07 223.62 199.37 223.91 C 196.17 224.27 192.95 224.53 189.74 224.71 C 186 224.93 182.26 225.08 178.52 225.16 C 174.25 225.25 169.98 225.29 165.71 225.29 C 165.7 225.29 165.69 225.29 165.69 225.29 L 90.32 225.29 C 90.31 225.29 90.31 225.29 90.3 225.29 C 86.03 225.29 81.76 225.25 77.49 225.16 C 73.75 225.08 70.01 224.93 66.27 224.71 C 63.05 224.53 59.84 224.27 56.64 223.91 C 53.94 223.62 51.25 223.23 48.58 222.73 C 46.39 222.33 44.23 221.81 42.09 221.19 C 40.4 220.69 38.74 220.08 37.13 219.36 C 35.87 218.79 34.66 218.12 33.51 217.35 C 32.55 216.7 31.65 215.96 30.83 215.15 C 30.01 214.33 29.27 213.43 28.62 212.47 C 27.85 211.33 27.18 210.12 26.61 208.86 C 25.89 207.25 25.28 205.6 24.79 203.91 C 24.16 201.78 23.64 199.62 23.24 197.44 C 22.74 194.77 22.35 192.09 22.06 189.39 C 21.7 186.19 21.44 182.98 21.26 179.77 C 21.04 176.03 20.89 172.3 20.81 168.56 C 20.72 164.29 20.68 160.03 20.68 155.76 C 20.68 155.76 20.68 155.75 20.68 155.74 L 20.68 96.49 C 20.68 96.49 20.68 96.48 20.68 96.48 C 20.68 92.21 20.72 87.94 20.81 83.68 C 20.89 79.94 21.04 76.21 21.26 72.47 C 21.44 69.26 21.7 66.05 22.06 62.85 C 22.35 60.15 22.74 57.47 23.24 54.8 C 23.64 52.62 24.16 50.46 24.79 48.33 C 25.28 46.64 25.89 44.99 26.61 43.38 C 27.18 42.12 27.85 40.91 28.62 39.77 C 29.27 38.81 30.01 37.91 30.83 37.09 C 31.65 36.27 32.55 35.54 33.51 34.89 C 34.66 34.12 35.87 33.45 37.13 32.88 C 38.74 32.16 40.4 31.55 42.09 31.05 C 44.23 30.42 46.39 29.91 48.58 29.51 C 51.25 29.01 53.94 28.62 56.64 28.32 C 59.84 27.97 63.05 27.71 66.27 27.52 C 70.01 27.31 73.75 27.16 77.49 27.08 C 81.76 26.99 86.03 26.95 90.3 26.95 C 90.31 26.95 90.31 26.95 90.32 26.95 L 165.69 26.95 C 165.69 26.95 165.7 26.95 165.71 26.95 Z"/>
 <path fill="#cba606" d="M 8 118 Q 44.502483 134 128 134 Q 211.497517 134 248 118 L 248 134 Q 211.497517 150 128 150 Q 44.502483 150 8 134 L 8 118 Z"/>
 <g opacity=".4">
  <linearGradient id="_lgradient_11" x1=".517" x2=".517" y1="0" y2="1.209" gradientTransform="matrix(244.65,0,0,228.34,5.68,11.95)" gradientUnits="userSpaceOnUse">
   <stop offset="0%" style="stop-color:#ffffff"/>
   <stop offset="12.5%" stop-opacity=".098" style="stop-color:#ffffff"/>
   <stop offset="92.5%" stop-opacity=".098" style="stop-color:#000000"/>
   <stop offset="100%" stop-opacity=".498" style="stop-color:#000000"/>
  </linearGradient>
  <path fill="url(#_lgradient_11)" fill-rule="evenodd" d="M 165.06803 11.951234 C 169.395994 11.941409 173.723944 11.990533 178.051908 12.088781 C 181.927398 12.167379 185.802873 12.31475 189.678362 12.540721 C 193.1309 12.737216 196.583423 13.022134 200.026115 13.395476 C 203.085193 13.729518 206.144271 14.181458 209.173842 14.741469 C 211.888645 15.242533 214.57394 15.881143 217.219897 16.6573 C 219.619947 17.354858 221.970814 18.219439 224.242988 19.241215 C 226.357793 20.184394 228.384061 21.304417 230.302129 22.591462 C 232.141505 23.829383 233.862851 25.244151 235.436659 26.80629 C 237.000621 28.378252 238.417046 30.087764 239.656409 31.924995 C 240.944972 33.840824 242.066305 35.864728 243.020409 37.967229 C 244.043389 40.246576 244.908985 42.584873 245.617197 44.972292 C 246.394255 47.615155 247.033606 50.297317 247.535265 53.008956 C 248.095924 56.034984 248.548399 59.080665 248.882828 62.13617 C 249.256611 65.574836 249.541856 69.013506 249.738578 72.462003 C 249.964823 76.323139 250.112361 80.194101 250.200884 84.055237 C 250.289421 88.378131 250.338591 92.701032 250.32876 97.014106 L 250.32876 155.225886 C 250.338591 159.54878 250.289421 163.861854 250.200884 168.184747 C 250.112361 172.05571 249.964823 175.916853 249.738578 179.777981 C 249.541856 183.226485 249.256611 186.674975 248.882828 190.103826 C 248.548399 193.15933 248.095924 196.214835 247.535265 199.240851 C 247.033606 201.942664 246.394255 204.624837 245.617197 207.267703 C 244.908985 209.655115 244.043389 212.003235 243.020409 214.272755 C 242.066305 216.38509 240.944972 218.399156 239.656409 220.314999 C 238.417046 222.152226 237.000621 223.871561 235.436659 225.433697 C 233.862851 226.995832 232.141505 228.410601 230.302129 229.648532 C 228.384061 230.935575 226.357793 232.055598 224.242988 232.998768 C 221.970814 234.020552 219.619947 234.885137 217.219897 235.592507 C 214.57394 236.368672 211.888645 237.007276 209.173842 237.498515 C 206.144271 238.068354 203.085193 238.510465 200.026115 238.844519 C 196.583423 239.21785 193.1309 239.502777 189.678362 239.699269 C 185.802873 239.925235 181.927398 240.072615 178.051908 240.161035 C 173.723944 240.249454 169.395994 240.298581 165.06803 240.288762 L 90.941963 240.288762 C 86.614006 240.298581 82.286049 240.249454 77.9581 240.161035 C 74.08261 240.072615 70.20712 239.925235 66.331638 239.699269 C 62.879108 239.502777 59.426578 239.21785 55.983886 238.844519 C 52.924808 238.510465 49.865733 238.068354 46.836162 237.498515 C 44.121356 237.007276 41.436057 236.368672 38.7901 235.592507 C 36.390053 234.885137 34.039187 234.020552 31.767009 232.998768 C 29.652213 232.055598 27.625943 230.935575 25.707871 229.648532 C 23.868489 228.410601 22.147143 226.995832 20.573343 225.433697 C 19.009377 223.871561 17.592955 222.152226 16.353586 220.314999 C 15.065036 218.399156 13.943701 216.38509 12.989584 214.272755 C 11.966612 212.003235 11.101021 209.655115 10.392811 207.267703 C 9.615746 204.624837 8.976389 201.942664 8.47474 199.240851 C 7.914072 196.214835 7.461604 193.15933 7.127172 190.103826 C 6.753394 186.674975 6.468142 183.226485 6.271417 179.777981 C 6.045183 175.916853 5.897639 172.05571 5.809112 168.184747 C 5.720586 163.861854 5.671405 159.54878 5.681241 155.225886 L 5.681241 97.014106 C 5.671405 92.701032 5.720586 88.378131 5.809112 84.055237 C 5.897639 80.194101 6.045183 76.323139 6.271417 72.462003 C 6.468142 69.013506 6.753394 65.574836 7.127172 62.13617 C 7.461604 59.080665 7.914072 56.034984 8.47474 53.008956 C 8.976389 50.297317 9.615746 47.615155 10.392811 44.972292 C 11.101021 42.584873 11.966612 40.246576 12.989584 37.967229 C 13.943701 35.864728 15.065036 33.840824 16.353586 31.924995 C 17.592955 30.087764 19.009377 28.378252 20.573343 26.80629 C 22.147143 25.244151 23.868489 23.829383 25.707871 22.591462 C 27.625943 21.304417 29.652213 20.184394 31.767009 19.241215 C 34.039187 18.219439 36.390053 17.354858 38.7901 16.6573 C 41.436057 15.881143 44.121356 15.242533 46.836162 14.741469 C 49.865733 14.181458 52.924808 13.729518 55.983886 13.395476 C 59.426578 13.022134 62.879108 12.737216 66.331638 12.540721 C 70.20712 12.31475 74.08261 12.167379 77.9581 12.088781 C 82.286049 11.990533 86.614006 11.941409 90.941963 11.951234 L 165.06803 11.951234 L 165.06803 11.951234 Z M 165.077876 15.959741 C 169.376317 15.949916 173.674759 15.99904 177.973216 16.087463 C 181.799522 16.175886 185.625827 16.323257 189.452133 16.539402 C 192.835809 16.735898 196.219486 17.010992 199.583486 17.384332 C 202.554026 17.698726 205.514751 18.131016 208.445953 18.681203 C 211.023049 19.152792 213.580483 19.761928 216.098564 20.498786 C 218.321569 21.147221 220.495374 21.952852 222.600334 22.896029 C 224.508571 23.750785 226.338116 24.762737 228.069293 25.922059 C 229.692286 27.012609 231.207063 28.260355 232.59398 29.645648 C 233.980897 31.030941 235.230091 32.543956 236.331763 34.165043 C 237.492434 35.894202 238.505568 37.711787 239.361333 39.607968 C 240.305606 41.720292 241.112187 43.891565 241.761369 46.102139 C 242.508934 48.617282 243.108947 51.161898 243.590914 53.735987 C 244.131912 56.663768 244.564709 59.6112 244.889308 62.578282 C 245.263091 65.938355 245.538505 69.308252 245.735227 72.687976 C 245.951626 76.509812 246.10901 80.321821 246.187687 84.143656 C 246.276225 88.437084 246.325394 92.720685 246.325394 97.014106 C 246.325394 97.014106 246.325394 97.014106 246.325394 97.014106 L 246.325394 155.225886 C 246.325394 155.225886 246.325394 155.225886 246.325394 155.225886 C 246.325394 159.519306 246.276225 163.802907 246.187687 168.096328 C 246.10901 171.918164 245.951626 175.739999 245.735227 179.552015 C 245.538505 182.931739 245.263091 186.301629 244.889308 189.671533 C 244.564709 192.628784 244.131912 195.576216 243.590914 198.503994 C 243.108947 201.078094 242.508934 203.622706 241.761369 206.137845 C 241.112187 208.358253 240.305606 210.5197 239.361333 212.63202 C 238.505568 214.528209 237.492434 216.355617 236.331763 218.074952 C 235.230091 219.705853 233.980897 221.218876 232.59398 222.604172 C 231.207063 223.979634 229.692286 225.227385 228.069293 226.317935 C 226.338116 227.477251 224.508571 228.489201 222.600334 229.343951 C 220.495374 230.296956 218.321569 231.092775 216.098564 231.741198 C 213.580483 232.478056 211.023049 233.087202 208.445953 233.558787 C 205.514751 234.108972 202.554026 234.541264 199.583486 234.865483 C 196.219486 235.228995 192.835809 235.513922 189.452133 235.70058 C 185.625827 235.916726 181.799522 236.073926 177.973216 236.152526 C 173.674759 236.25078 169.376317 236.290072 165.077876 236.290072 C 165.077876 236.290072 165.077876 236.290072 165.06803 236.290072 L 90.941963 236.290072 C 90.932125 236.290072 90.932125 236.290072 90.932125 236.290072 C 86.633683 236.290072 82.335234 236.25078 78.036784 236.152526 C 74.210479 236.073926 70.384173 235.916726 66.557868 235.70058 C 63.174195 235.513922 59.790522 235.228995 56.426518 234.865483 C 53.455967 234.541264 50.495253 234.108972 47.564048 233.558787 C 44.986944 233.087202 42.429517 232.478056 39.911433 231.741198 C 37.688439 231.092775 35.514626 230.296956 33.409665 229.343951 C 31.501429 228.489201 29.671886 227.477251 27.940703 226.317935 C 26.31772 225.227385 24.802935 223.979634 23.416022 222.604172 C 22.029109 221.218876 20.779904 219.705853 19.678243 218.074952 C 18.517564 216.355617 17.504428 214.528209 16.648674 212.63202 C 15.704392 210.5197 14.897819 208.358253 14.248626 206.137845 C 13.50107 203.622706 12.901057 201.078094 12.419081 198.503994 C 11.878086 195.576216 11.445291 192.628784 11.120694 189.671533 C 10.746916 186.301629 10.471501 182.931739 10.274776 179.552015 C 10.058378 175.739999 9.900997 171.918164 9.822307 168.096328 C 9.733781 163.802907 9.6846 159.519306 9.6846 155.225886 C 9.6846 155.225886 9.6846 155.225886 9.6846 155.225886 L 9.6846 97.014106 C 9.6846 97.014106 9.6846 97.014106 9.6846 97.014106 C 9.6846 92.720685 9.733781 88.437084 9.822307 84.143656 C 9.900997 80.321821 10.058378 76.509812 10.274776 72.687976 C 10.471501 69.308252 10.746916 65.938355 11.120694 62.578282 C 11.445291 59.6112 11.878086 56.663768 12.419081 53.735987 C 12.901057 51.161898 13.50107 48.617282 14.248626 46.102139 C 14.897819 43.891565 15.704392 41.720292 16.648674 39.607968 C 17.504428 37.711787 18.517564 35.894202 19.678243 34.165043 C 20.779904 32.543956 22.029109 31.030941 23.416022 29.645648 C 24.802935 28.260355 26.31772 27.012609 27.940703 25.922059 C 29.671886 24.762737 31.501429 23.750785 33.409665 22.896029 C 35.514626 21.952852 37.688439 21.147221 39.911433 20.498786 C 42.429517 19.761928 44.986944 19.152792 47.564048 18.681203 C 50.495253 18.131016 53.455967 17.698726 56.426518 17.384332 C 59.790522 17.010992 63.174195 16.735898 66.557868 16.539402 C 70.384173 16.323257 74.210479 16.175886 78.036784 16.087463 C 82.335234 15.99904 86.633683 15.949916 90.932125 15.959741 C 90.932125 15.959741 90.932125 15.959741 90.941963 15.959741 L 165.06803 15.959741 C 165.077876 15.959741 165.077876 15.959741 165.077876 15.959741 Z"/>
 </g>
 <defs>
  <filter id="Td9rMAk1NqveT2uBj5G1oPzwFrIwrsC3" width="400%" height="400%" x="-200%" y="-200%" color-interpolation-filters="sRGB" filterUnits="objectBoundingBox">
   <feGaussianBlur xmlns="http://www.w3.org/2000/svg" stdDeviation="4.294"/>
  </filter>
 </defs>
 <g opacity=".4" filter="url(#Td9rMAk1NqveT2uBj5G1oPzwFrIwrsC3)">
  <path d="M 126.32 240.288391 L 126 211.493858 C 126 137.507198 136.583689 126 210.639397 126 L 248.648308 126"/>
 </g>
 <linearGradient id="_lgradient_12" x1="0" x2="0" y1="0" y2="1.209" gradientTransform="matrix(121.984949,0,0,114.142294,128.7,126.446097)" gradientUnits="userSpaceOnUse">
  <stop offset="0%" style="stop-color:#4c5561"/>
  <stop offset="100%" style="stop-color:#2e3842"/>
 </linearGradient>
 <path fill="url(#_lgradient_12)" d="M 146.981133 240.532816 L 129.235454 240.394579 L 128.875364 232.288958 C 128.427224 222.201426 128.898364 189.860369 129.607224 182.051733 C 130.891544 167.903799 133.047274 158.739611 136.919594 150.966242 C 144.316411 136.117749 157.752076 129.780038 186.519013 127.569798 C 189.981553 127.303761 205.835377 126.942096 221.749745 126.766096 L 250.684949 126.446097 L 250.677945 150.616882 C 250.66795 182.807833 249.912495 193.581553 246.801434 205.899988 C 242.94608 221.165552 235.295628 230.075769 221.947499 234.846575 C 208.545888 239.636499 192.095746 240.884256 146.981623 240.532816 L 146.981133 240.532816 L 146.981133 240.532816 Z"/>
 <path fill="#ffffff" d="M 180.943088 148.519864 L 180.171364 157.73859 C 177.248338 158.821359 174.530667 160.39321 172.134556 162.386971 L 163.755894 158.441722 L 155.006157 173.597138 L 162.613262 178.880228 C 162.342353 180.411742 162.20185 181.963467 162.193272 183.518729 C 162.19409 185.079966 162.327867 186.638283 162.593135 188.176823 L 155.005456 193.440321 L 163.755193 208.595736 L 172.114346 204.660284 C 174.518517 206.645516 177.242797 208.207438 180.170663 209.279259 L 180.942387 218.517244 L 198.441861 218.517244 L 199.213584 209.298518 C 202.136678 208.215766 204.854399 206.643898 207.250576 204.65012 L 215.629138 208.595386 L 224.378875 193.43997 L 216.771687 188.15688 C 217.042596 186.625366 217.183099 185.073641 217.191677 183.518379 C 217.190859 181.957142 217.057082 180.398808 216.791813 178.860285 L 224.379493 173.596788 L 215.629755 158.441372 L 207.270603 162.376824 C 204.865847 160.391058 202.1408 158.828819 199.212099 157.756964 L 198.442128 148.517244 L 180.942654 148.517244 L 180.943088 148.519864 L 180.943088 148.519864 Z M 189.692825 173.519619 C 192.345309 173.519385 194.889233 174.572982 196.76482 176.44857 C 198.640408 178.324157 199.694005 180.868081 199.693771 183.520565 C 199.694005 186.173049 198.640408 188.716973 196.76482 190.592561 C 194.889233 192.468148 192.345309 193.521745 189.692825 193.521512 C 187.04034 193.521745 184.496417 192.468148 182.620829 190.592561 C 180.745242 188.716973 179.691645 186.173049 179.691878 183.520565 C 179.691645 180.868081 180.745242 178.324157 182.620829 176.44857 C 184.496417 174.572982 187.04034 173.519385 189.692825 173.519619 L 189.692825 173.519619 L 189.692825 173.519619 Z"/>
</svg>
