<svg xmlns="http://www.w3.org/2000/svg" style="isolation:isolate" width="256" height="256" viewBox="0 0 256 256">
 <defs>
  <filter id="rOexcIkmGy42QPa77YwfOg0mv7U2G7zA" width="400%" height="400%" x="-200%" y="-200%" color-interpolation-filters="sRGB" filterUnits="objectBoundingBox">
   <feGaussianBlur xmlns="http://www.w3.org/2000/svg" in="SourceGraphic" stdDeviation="4.294"/>
   <feOffset xmlns="http://www.w3.org/2000/svg" dx="0" dy="4" result="pf_100_offsetBlur"/>
   <feFlood xmlns="http://www.w3.org/2000/svg" flood-opacity=".4"/>
   <feComposite xmlns="http://www.w3.org/2000/svg" in2="pf_100_offsetBlur" operator="in" result="pf_100_dropShadow"/>
   <feBlend xmlns="http://www.w3.org/2000/svg" in="SourceGraphic" in2="pf_100_dropShadow" mode="normal"/>
  </filter>
 </defs>
 <g filter="url(#rOexcIkmGy42QPa77YwfOg0mv7U2G7zA)">
  <linearGradient id="_lgradient_268" x1=".187" x2=".19" y1=".005" y2=".999" gradientTransform="matrix(244.648309,0,0,228.338396,5.68,11.95)" gradientUnits="userSpaceOnUse">
   <stop offset="0%" style="stop-color:#07b3ff"/>
   <stop offset="100%" style="stop-color:#007de8"/>
  </linearGradient>
  <path fill="url(#_lgradient_268)" d="M 165.688919 11.95 C 239.744626 11.95 250.328309 22.507198 250.328309 96.493859 L 250.328309 155.744653 C 250.328309 229.73091 239.744626 240.288396 165.688919 240.288396 L 90.319393 240.288396 C 16.26369 240.288396 5.68 229.73091 5.68 155.744653 L 5.68 96.493859 C 5.68 22.507198 16.26369 11.95 90.319393 11.95 L 165.688919 11.95 Z"/>
 </g>
 <path fill="none" stroke="#ffffff" stroke-dasharray="8 8" stroke-linecap="round" stroke-linejoin="round" stroke-miterlimit="3" stroke-width="5" d="M 44 218.648819 C 55.111275 224.530472 72.134293 226 97.99218 226 L 164.007813 226 C 228.872696 226 238.142868 216.752777 238.142868 151.94873 L 238.142868 100.051376 C 238.142868 35.246975 228.872696 26 164.007813 26 L 97.99218 26 C 72.134293 26 55.111275 27.46949 44 33.351116" vector-effect="non-scaling-stroke"/>
 <g>
  <path fill="#4f4f4f" d="M 190.914429 84.388954 L 250.572128 84.388954 L 250.572128 169.614243 L 190.914429 169.614243 C 182.647583 169.614243 176 163.27562 176 155.413574 L 176 98.597076 C 176 90.724388 182.647583 84.385757 190.914429 84.385757 L 190.914429 84.388954 Z"/>
  <path fill="#ffffff" d="M 195.239609 89.715538 L 195.239609 91.490997 L 195.048599 89.729492 L 194.343567 89.799797 L 194.740082 93.322914 L 195.239502 93.262184 L 202.75914 93.262184 L 202.75914 89.71138 L 195.239288 89.71138 L 195.239609 89.715538 Z M 206.519165 89.715538 L 206.519165 93.266342 L 214.039032 93.266342 L 214.039032 89.715538 L 206.519165 89.715538 Z M 217.798737 89.715538 L 217.798737 93.266342 L 225.318604 93.266342 L 225.318604 89.715538 L 217.798737 89.715538 Z M 229.078323 89.715538 L 229.078323 93.266342 L 236.59816 93.266342 L 236.59816 89.715538 L 229.078323 89.715538 Z M 240.35788 89.715538 L 240.35788 93.266342 L 245.248734 93.266342 L 245.248734 89.715431 L 240.35788 89.715431 L 240.35788 89.715538 Z M 190.318924 90.631386 L 189.981094 90.727264 L 189.7901 90.787987 L 189.628601 90.86895 L 187.587021 91.964737 L 187.425522 92.0457 L 187.278717 92.152336 L 185.501541 93.594887 L 185.369354 93.701523 L 185.251846 93.840446 L 183.783096 95.588097 L 183.680817 95.727005 L 183.592407 95.879456 L 183.547668 95.960419 L 185.692032 97.014336 L 186.734863 97.790848 L 188.115417 96.154091 L 189.569473 94.961258 L 191.302521 94.045517 L 191.46402 93.984795 L 191.449097 93.959221 L 191.477875 93.94857 L 191.404358 93.841927 L 190.31752 90.624039 L 190.318924 90.631386 Z M 181.932541 99.536156 L 181.653519 100.437836 L 181.59494 100.590393 L 181.580017 100.770432 L 181.345016 103.156097 L 181.330093 103.237061 L 181.330093 107.090736 L 185.090012 107.090736 L 185.090012 103.315895 L 185.310318 101.249184 L 185.53064 100.541595 L 181.93222 99.528801 L 181.932541 99.536156 Z M 181.330414 110.646339 L 181.330414 117.74794 L 185.090347 117.74794 L 185.090347 110.646339 L 181.330414 110.646339 Z M 181.330414 121.298744 L 181.330414 128.40036 L 185.090347 128.40036 L 185.090347 121.298744 L 181.330414 121.298744 Z M 181.330414 131.951279 L 181.330414 139.052887 L 185.090347 139.052887 L 185.090347 131.951279 L 181.330414 131.951279 Z M 181.330414 142.603683 L 181.330414 149.705399 L 185.090347 149.705399 L 185.090347 142.603683 L 181.330414 142.603683 Z M 185.310638 152.729095 L 181.712326 153.741898 L 182.343842 155.794647 L 182.402451 155.961044 L 182.49086 156.09996 L 183.592407 158.111176 L 183.680817 158.263626 L 183.783096 158.402542 L 185.251846 160.150192 L 185.369354 160.289108 L 185.501541 160.395645 L 185.868774 160.686905 L 188.321564 157.996017 L 188.115952 157.829605 L 186.852798 156.331558 L 185.898178 154.597763 L 185.310638 152.72525 L 185.310638 152.729095 Z M 191.082748 159.830704 L 189.24678 162.923859 L 189.628601 163.132111 L 189.7901 163.213074 L 189.981094 163.273819 L 192.228287 163.967331 L 192.419296 164.028046 L 192.610306 164.038696 L 195.048386 164.274658 L 195.15065 164.285324 L 197.500961 164.285324 L 197.500961 160.734512 L 195.239288 160.734512 L 193.168427 160.512299 L 191.273743 159.929993 L 191.082748 159.834106 L 191.082748 159.830704 Z M 201.260986 160.732498 L 201.260986 164.283401 L 208.780853 164.283401 L 208.780853 160.732498 L 201.260986 160.732498 Z M 212.540543 160.732498 L 212.540543 164.283401 L 220.06041 164.283401 L 220.06041 160.732498 L 212.540543 160.732498 Z M 223.820114 160.732498 L 223.820114 164.283401 L 231.339981 164.283401 L 231.339981 160.732498 L 223.820114 160.732498 Z M 235.099701 160.732498 L 235.099701 164.283401 L 242.619553 164.283401 L 242.619553 160.732498 L 235.099701 160.732498 Z"/>
  <g>
   <path fill="#c8c8c8" d="M 218.61264 127.001602 C 218.61264 132.885178 213.843063 137.654755 207.959488 137.654755 C 202.075912 137.654755 197.30632 132.885178 197.30632 127.001602 C 197.30632 121.118019 202.075912 116.348442 207.959488 116.348442 C 213.843063 116.348442 218.61264 121.118019 218.61264 127.001602 Z"/>
   <path fill="#ffffff" d="M 215.949356 123.006668 C 215.949356 126.683899 212.372162 129.664886 207.959488 129.664886 C 203.546799 129.664886 199.96962 126.683899 199.96962 123.006668 C 199.96962 119.32943 203.546799 116.348442 207.959488 116.348442 C 212.372162 116.348442 215.949356 119.32943 215.949356 123.006668 Z"/>
  </g>
 </g>
</svg>
