<svg xmlns="http://www.w3.org/2000/svg" style="isolation:isolate" width="256" height="256" viewBox="0 0 256 256">
 <defs>
  <filter id="Qms56Ta12u92gjiRMNGooKVkX6TEhpga" width="400%" height="400%" x="-200%" y="-200%" color-interpolation-filters="sRGB" filterUnits="objectBoundingBox">
   <feGaussianBlur xmlns="http://www.w3.org/2000/svg" in="SourceGraphic" stdDeviation="4.294"/>
   <feOffset xmlns="http://www.w3.org/2000/svg" dx="0" dy="4" result="pf_100_offsetBlur"/>
   <feFlood xmlns="http://www.w3.org/2000/svg" flood-opacity=".4"/>
   <feComposite xmlns="http://www.w3.org/2000/svg" in2="pf_100_offsetBlur" operator="in" result="pf_100_dropShadow"/>
   <feBlend xmlns="http://www.w3.org/2000/svg" in="SourceGraphic" in2="pf_100_dropShadow" mode="normal"/>
  </filter>
 </defs>
 <g filter="url(#Qms56Ta12u92gjiRMNGooKVkX6TEhpga)">
  <linearGradient id="_lgradient_20" x1=".567" x2=".567" y1="1.071" y2="-.742" gradientTransform="matrix(244.648309,0,0,228.338396,5.681691,11.95)" gradientUnits="userSpaceOnUse">
   <stop offset="0%" style="stop-color:#a0a0a0"/>
   <stop offset="100%" style="stop-color:#dfdfdf"/>
  </linearGradient>
  <path fill="url(#_lgradient_20)" d="M 165.690609 11.95 C 239.746317 11.95 250.33 22.507198 250.33 96.493859 L 250.33 155.744653 C 250.33 229.73091 239.746317 240.288396 165.690609 240.288396 L 90.321084 240.288396 C 16.26538 240.288396 5.681691 229.73091 5.681691 155.744653 L 5.681691 96.493859 C 5.681691 22.507198 16.26538 11.95 90.321084 11.95 L 165.690609 11.95 Z"/>
 </g>
 <g opacity=".4">
  <linearGradient id="_lgradient_21" x1=".517" x2=".517" y1="0" y2="1" gradientTransform="matrix(244.65,0,0,228.34,5.68,11.95)" gradientUnits="userSpaceOnUse">
   <stop offset="0%" style="stop-color:#ffffff"/>
   <stop offset="12.5%" stop-opacity=".098" style="stop-color:#ffffff"/>
   <stop offset="92.5%" stop-opacity=".098" style="stop-color:#000000"/>
   <stop offset="100%" stop-opacity=".498" style="stop-color:#000000"/>
  </linearGradient>
  <path fill="url(#_lgradient_21)" fill-rule="evenodd" d="M 165.06803 11.951234 C 169.395994 11.941409 173.723944 11.990533 178.051908 12.088781 C 181.927398 12.167379 185.802873 12.31475 189.678362 12.540721 C 193.1309 12.737216 196.583423 13.022134 200.026115 13.395476 C 203.085193 13.729518 206.144271 14.181458 209.173842 14.741469 C 211.888645 15.242533 214.57394 15.881143 217.219897 16.6573 C 219.619947 17.354858 221.970814 18.219439 224.242988 19.241215 C 226.357793 20.184394 228.384061 21.304417 230.302129 22.591462 C 232.141505 23.829383 233.862851 25.244151 235.436659 26.80629 C 237.000621 28.378252 238.417046 30.087764 239.656409 31.924995 C 240.944972 33.840824 242.066305 35.864728 243.020409 37.967229 C 244.043389 40.246576 244.908985 42.584873 245.617197 44.972292 C 246.394255 47.615155 247.033606 50.297317 247.535265 53.008956 C 248.095924 56.034984 248.548399 59.080665 248.882828 62.13617 C 249.256611 65.574836 249.541856 69.013506 249.738578 72.462003 C 249.964823 76.323139 250.112361 80.194101 250.200884 84.055237 C 250.289421 88.378131 250.338591 92.701032 250.32876 97.014106 L 250.32876 155.225886 C 250.338591 159.54878 250.289421 163.861854 250.200884 168.184747 C 250.112361 172.05571 249.964823 175.916853 249.738578 179.777981 C 249.541856 183.226485 249.256611 186.674975 248.882828 190.103826 C 248.548399 193.15933 248.095924 196.214835 247.535265 199.240851 C 247.033606 201.942664 246.394255 204.624837 245.617197 207.267703 C 244.908985 209.655115 244.043389 212.003235 243.020409 214.272755 C 242.066305 216.38509 240.944972 218.399156 239.656409 220.314999 C 238.417046 222.152226 237.000621 223.871561 235.436659 225.433697 C 233.862851 226.995832 232.141505 228.410601 230.302129 229.648532 C 228.384061 230.935575 226.357793 232.055598 224.242988 232.998768 C 221.970814 234.020552 219.619947 234.885137 217.219897 235.592507 C 214.57394 236.368672 211.888645 237.007276 209.173842 237.498515 C 206.144271 238.068354 203.085193 238.510465 200.026115 238.844519 C 196.583423 239.21785 193.1309 239.502777 189.678362 239.699269 C 185.802873 239.925235 181.927398 240.072615 178.051908 240.161035 C 173.723944 240.249454 169.395994 240.298581 165.06803 240.288762 L 90.941963 240.288762 C 86.614006 240.298581 82.286049 240.249454 77.9581 240.161035 C 74.08261 240.072615 70.20712 239.925235 66.331638 239.699269 C 62.879108 239.502777 59.426578 239.21785 55.983886 238.844519 C 52.924808 238.510465 49.865733 238.068354 46.836162 237.498515 C 44.121356 237.007276 41.436057 236.368672 38.7901 235.592507 C 36.390053 234.885137 34.039187 234.020552 31.767009 232.998768 C 29.652213 232.055598 27.625943 230.935575 25.707871 229.648532 C 23.868489 228.410601 22.147143 226.995832 20.573343 225.433697 C 19.009377 223.871561 17.592955 222.152226 16.353586 220.314999 C 15.065036 218.399156 13.943701 216.38509 12.989584 214.272755 C 11.966612 212.003235 11.101021 209.655115 10.392811 207.267703 C 9.615746 204.624837 8.976389 201.942664 8.47474 199.240851 C 7.914072 196.214835 7.461604 193.15933 7.127172 190.103826 C 6.753394 186.674975 6.468142 183.226485 6.271417 179.777981 C 6.045183 175.916853 5.897639 172.05571 5.809112 168.184747 C 5.720586 163.861854 5.671405 159.54878 5.681241 155.225886 L 5.681241 97.014106 C 5.671405 92.701032 5.720586 88.378131 5.809112 84.055237 C 5.897639 80.194101 6.045183 76.323139 6.271417 72.462003 C 6.468142 69.013506 6.753394 65.574836 7.127172 62.13617 C 7.461604 59.080665 7.914072 56.034984 8.47474 53.008956 C 8.976389 50.297317 9.615746 47.615155 10.392811 44.972292 C 11.101021 42.584873 11.966612 40.246576 12.989584 37.967229 C 13.943701 35.864728 15.065036 33.840824 16.353586 31.924995 C 17.592955 30.087764 19.009377 28.378252 20.573343 26.80629 C 22.147143 25.244151 23.868489 23.829383 25.707871 22.591462 C 27.625943 21.304417 29.652213 20.184394 31.767009 19.241215 C 34.039187 18.219439 36.390053 17.354858 38.7901 16.6573 C 41.436057 15.881143 44.121356 15.242533 46.836162 14.741469 C 49.865733 14.181458 52.924808 13.729518 55.983886 13.395476 C 59.426578 13.022134 62.879108 12.737216 66.331638 12.540721 C 70.20712 12.31475 74.08261 12.167379 77.9581 12.088781 C 82.286049 11.990533 86.614006 11.941409 90.941963 11.951234 L 165.06803 11.951234 Z M 165.077876 15.959741 C 169.376317 15.949916 173.674759 15.99904 177.973216 16.087463 C 181.799522 16.175886 185.625827 16.323257 189.452133 16.539402 C 192.835809 16.735898 196.219486 17.010992 199.583486 17.384332 C 202.554026 17.698726 205.514751 18.131016 208.445953 18.681203 C 211.023049 19.152792 213.580483 19.761928 216.098564 20.498786 C 218.321569 21.147221 220.495374 21.952852 222.600334 22.896029 C 224.508571 23.750785 226.338116 24.762737 228.069293 25.922059 C 229.692286 27.012609 231.207063 28.260355 232.59398 29.645648 C 233.980897 31.030941 235.230091 32.543956 236.331763 34.165043 C 237.492434 35.894202 238.505568 37.711787 239.361333 39.607968 C 240.305606 41.720292 241.112187 43.891565 241.761369 46.102139 C 242.508934 48.617282 243.108947 51.161898 243.590914 53.735987 C 244.131912 56.663768 244.564709 59.6112 244.889308 62.578282 C 245.263091 65.938355 245.538505 69.308252 245.735227 72.687976 C 245.951626 76.509812 246.10901 80.321821 246.187687 84.143656 C 246.276225 88.437084 246.325394 92.720685 246.325394 97.014106 C 246.325394 97.014106 246.325394 97.014106 246.325394 97.014106 L 246.325394 155.225886 C 246.325394 155.225886 246.325394 155.225886 246.325394 155.225886 C 246.325394 159.519306 246.276225 163.802907 246.187687 168.096328 C 246.10901 171.918164 245.951626 175.739999 245.735227 179.552015 C 245.538505 182.931739 245.263091 186.301629 244.889308 189.671533 C 244.564709 192.628784 244.131912 195.576216 243.590914 198.503994 C 243.108947 201.078094 242.508934 203.622706 241.761369 206.137845 C 241.112187 208.358253 240.305606 210.5197 239.361333 212.63202 C 238.505568 214.528209 237.492434 216.355617 236.331763 218.074952 C 235.230091 219.705853 233.980897 221.218876 232.59398 222.604172 C 231.207063 223.979634 229.692286 225.227385 228.069293 226.317935 C 226.338116 227.477251 224.508571 228.489201 222.600334 229.343951 C 220.495374 230.296956 218.321569 231.092775 216.098564 231.741198 C 213.580483 232.478056 211.023049 233.087202 208.445953 233.558787 C 205.514751 234.108972 202.554026 234.541264 199.583486 234.865483 C 196.219486 235.228995 192.835809 235.513922 189.452133 235.70058 C 185.625827 235.916726 181.799522 236.073926 177.973216 236.152526 C 173.674759 236.25078 169.376317 236.290072 165.077876 236.290072 C 165.077876 236.290072 165.077876 236.290072 165.06803 236.290072 L 90.941963 236.290072 C 90.932125 236.290072 90.932125 236.290072 90.932125 236.290072 C 86.633683 236.290072 82.335234 236.25078 78.036784 236.152526 C 74.210479 236.073926 70.384173 235.916726 66.557868 235.70058 C 63.174195 235.513922 59.790522 235.228995 56.426518 234.865483 C 53.455967 234.541264 50.495253 234.108972 47.564048 233.558787 C 44.986944 233.087202 42.429517 232.478056 39.911433 231.741198 C 37.688439 231.092775 35.514626 230.296956 33.409665 229.343951 C 31.501429 228.489201 29.671886 227.477251 27.940703 226.317935 C 26.31772 225.227385 24.802935 223.979634 23.416022 222.604172 C 22.029109 221.218876 20.779904 219.705853 19.678243 218.074952 C 18.517564 216.355617 17.504428 214.528209 16.648674 212.63202 C 15.704392 210.5197 14.897819 208.358253 14.248626 206.137845 C 13.50107 203.622706 12.901057 201.078094 12.419081 198.503994 C 11.878086 195.576216 11.445291 192.628784 11.120694 189.671533 C 10.746916 186.301629 10.471501 182.931739 10.274776 179.552015 C 10.058378 175.739999 9.900997 171.918164 9.822307 168.096328 C 9.733781 163.802907 9.6846 159.519306 9.6846 155.225886 C 9.6846 155.225886 9.6846 155.225886 9.6846 155.225886 L 9.6846 97.014106 C 9.6846 97.014106 9.6846 97.014106 9.6846 97.014106 C 9.6846 92.720685 9.733781 88.437084 9.822307 84.143656 C 9.900997 80.321821 10.058378 76.509812 10.274776 72.687976 C 10.471501 69.308252 10.746916 65.938355 11.120694 62.578282 C 11.445291 59.6112 11.878086 56.663768 12.419081 53.735987 C 12.901057 51.161898 13.50107 48.617282 14.248626 46.102139 C 14.897819 43.891565 15.704392 41.720292 16.648674 39.607968 C 17.504428 37.711787 18.517564 35.894202 19.678243 34.165043 C 20.779904 32.543956 22.029109 31.030941 23.416022 29.645648 C 24.802935 28.260355 26.31772 27.012609 27.940703 25.922059 C 29.671886 24.762737 31.501429 23.750785 33.409665 22.896029 C 35.514626 21.952852 37.688439 21.147221 39.911433 20.498786 C 42.429517 19.761928 44.986944 19.152792 47.564048 18.681203 C 50.495253 18.131016 53.455967 17.698726 56.426518 17.384332 C 59.790522 17.010992 63.174195 16.735898 66.557868 16.539402 C 70.384173 16.323257 74.210479 16.175886 78.036784 16.087463 C 82.335234 15.99904 86.633683 15.949916 90.932125 15.959741 C 90.932125 15.959741 90.932125 15.959741 90.941963 15.959741 L 165.06803 15.959741 C 165.077876 15.959741 165.077876 15.959741 165.077876 15.959741 Z"/>
 </g>
 <g>
  <defs>
   <filter id="pNEvGLF8QK3dhqbOnAkRJDcnKL8tSqed" width="400%" height="400%" x="-200%" y="-200%" color-interpolation-filters="sRGB" filterUnits="objectBoundingBox">
    <feGaussianBlur xmlns="http://www.w3.org/2000/svg" stdDeviation="4.294"/>
   </filter>
  </defs>
  <g opacity=".4" filter="url(#pNEvGLF8QK3dhqbOnAkRJDcnKL8tSqed)">
   <path d="M 208.830303 162.946931 C 207.447907 164.018529 205.786431 164.754445 203.895297 164.754001 L 56.829627 164.771346 C 52.302236 164.769548 48.656201 161.12999 48.655332 156.6047 L 48.649675 91.239323 C 48.648826 90.933298 48.708713 90.640511 48.742533 90.339952 C 46.815575 91.831946 45.498143 94.061328 45.500002 96.695799 L 45.505659 162.061176 C 45.506529 166.586466 49.152562 170.226026 53.678863 170.227192 L 200.744532 170.209847 C 204.955822 170.211046 208.380759 167.037639 208.829211 162.946301 L 208.830303 162.946931 Z"/>
  </g>
  <defs>
   <linearGradient id="_lgradient_22" x1=".993" x2=".002" y1=".988" y2=".193">
    <stop offset="0%" style="stop-color:#343b40"/>
    <stop offset="100%" style="stop-color:#555e63"/>
   </linearGradient>
  </defs>
  <path d="M 55.246935 85.81003 L 202.32214 85.797399 C 206.832138 85.797012 210.493999 89.458244 210.494386 93.968242 L 210.5 159.3343 C 210.500387 163.844298 206.839155 167.506159 202.329157 167.506547 L 55.253952 167.519177 C 50.743953 167.519565 47.082092 163.858333 47.081705 159.348334 L 47.076092 93.982276 C 47.075704 89.472278 50.736936 85.810417 55.246935 85.81003 Z" style="fill:url(#_lgradient_22)"/>
  <g opacity=".2">
   <path d="M 75.544219 110.467409 C 73.100992 110.467634 71.134185 112.434713 71.134379 114.877994 L 71.135249 123.698197 L 62.315044 123.699065 C 59.868027 123.705102 57.902593 125.669554 57.902312 128.113652 L 57.90318 136.933858 C 57.903405 139.37708 59.870484 141.343888 62.313763 141.343696 L 71.133969 141.342828 L 71.134839 150.16303 C 71.13503 152.60631 73.102141 154.573063 75.54542 154.572872 L 84.365623 154.572001 C 86.808849 154.571776 88.775657 152.604697 88.775463 150.161416 L 88.774593 141.341213 L 97.594798 141.340344 C 100.038023 141.340121 102.004832 139.37304 102.004637 136.929762 L 102.003768 128.109556 C 102.003543 125.666334 100.036465 123.699526 97.593185 123.699718 L 88.772982 123.700588 L 88.772112 114.880385 C 88.771886 112.437159 86.804808 110.470351 84.361528 110.470542 L 75.541326 110.471413 L 75.544219 110.467409 Z"/>
  </g>
  <path fill="#c6c6c6" d="M 77.119401 107.738572 C 74.676176 107.738795 72.709368 109.705873 72.709563 112.149155 L 72.710431 120.96936 L 63.890226 120.970229 C 61.447001 120.970452 59.480196 122.937532 59.480387 125.380811 L 59.481258 134.201014 C 59.481481 136.644239 61.448559 138.611047 63.89184 138.610853 L 72.712046 138.609984 L 72.712914 147.43019 C 72.713106 149.873469 74.680216 151.840222 77.123497 151.840028 L 85.9437 151.839158 C 88.386925 151.838935 90.353733 149.871856 90.353538 147.428575 L 90.352668 138.608372 L 99.172874 138.607504 C 101.6161 138.607278 103.582908 136.640199 103.582714 134.196918 L 103.581843 125.376715 C 103.58162 122.93349 101.614542 120.966683 99.171261 120.966877 L 90.350088 120.974462 L 90.349054 112.157071 C 90.349332 109.712971 88.384901 107.742458 85.941034 107.743037 L 77.120831 107.743908 L 77.119401 107.738572 Z"/>
  <g>
   <linearGradient id="_lgradient_23" x1=".5" x2=".507" y1="1" y2=".001" gradientTransform="matrix(18.900928,-0.00158,0.00158,18.900928,179.183302,107.732018)" gradientUnits="userSpaceOnUse">
    <stop offset="0%" style="stop-color:#d0391f"/>
    <stop offset="100%" style="stop-color:#ff005d"/>
   </linearGradient>
   <path fill="url(#_lgradient_23)" d="M 179.184092 117.182483 C 179.183656 111.96663 183.417913 107.731665 188.633766 107.731229 C 193.849619 107.730793 198.084584 111.96505 198.08502 117.180903 C 198.085456 122.396756 193.851199 126.631721 188.635346 126.632157 C 183.419493 126.632593 179.184528 122.398336 179.184092 117.182483 Z"/>
   <linearGradient id="_lgradient_24" x1=".5" x2=".507" y1="1" y2=".001" gradientTransform="matrix(18.900928,-0.00158,0.00158,18.900928,153.982064,107.734125)" gradientUnits="userSpaceOnUse">
    <stop offset="0%" style="stop-color:#d0391f"/>
    <stop offset="100%" style="stop-color:#ff005d"/>
   </linearGradient>
   <path fill="url(#_lgradient_24)" d="M 153.982854 117.184589 C 153.982418 111.968736 158.216675 107.733771 163.432528 107.733335 C 168.648381 107.732899 172.883346 111.967156 172.883782 117.183009 C 172.884218 122.398862 168.649961 126.633827 163.434108 126.634263 C 158.218255 126.634699 153.98329 122.400442 153.982854 117.184589 Z"/>
   <linearGradient id="_lgradient_25" x1=".5" x2=".5" y1="1" y2="0" gradientTransform="matrix(18.900928,-0.00158,0.00158,18.900928,179.185408,132.933256)" gradientUnits="userSpaceOnUse">
    <stop offset="0%" style="stop-color:#f37e40"/>
    <stop offset="100%" style="stop-color:#fac82e"/>
   </linearGradient>
   <path fill="url(#_lgradient_25)" d="M 179.186198 142.38372 C 179.185762 137.167867 183.420019 132.932902 188.635872 132.932466 C 193.851725 132.932031 198.08669 137.166288 198.087126 142.382141 C 198.087562 147.597994 193.853305 151.832959 188.637452 151.833395 C 183.421599 151.833831 179.186634 147.599574 179.186198 142.38372 Z"/>
   <linearGradient id="_lgradient_26" x1=".5" x2=".5" y1="1" y2="0" gradientTransform="matrix(18.900928,-0.00158,0.00158,18.900928,153.98417,132.935363)" gradientUnits="userSpaceOnUse">
    <stop offset="0%" style="stop-color:#f37e40"/>
    <stop offset="100%" style="stop-color:#fac82e"/>
   </linearGradient>
   <path fill="url(#_lgradient_26)" d="M 153.98496 142.385827 C 153.984524 137.169974 158.218781 132.935009 163.434634 132.934573 C 168.650488 132.934137 172.885453 137.168394 172.885888 142.384247 C 172.886324 147.6001 168.652067 151.835065 163.436214 151.835501 C 158.220361 151.835937 153.985396 147.60168 153.98496 142.385827 Z"/>
  </g>
  <g opacity=".1">
   <path fill="#ffffff" d="M 206.561991 86.962048 C 206.225039 86.757932 205.869924 86.576498 205.502805 86.421689 C 204.525429 86.010281 203.445132 85.774167 202.311079 85.772808 L 55.245289 85.789964 C 51.651769 85.791983 48.663193 88.109494 47.57586 91.322912 C 49.057887 89.618296 51.217114 88.519605 53.670438 88.518228 L 200.736227 88.501072 C 201.870281 88.502431 202.950578 88.738545 203.927953 89.149953 C 206.864905 90.388423 208.909535 93.276567 208.912831 96.673517 L 208.915127 162.033015 C 208.915204 162.92583 208.7211 163.752939 208.447809 164.540985 C 209.695446 163.138241 210.490151 161.344902 210.489979 159.304751 L 210.487682 93.945253 C 210.4848 90.972923 208.920657 88.390857 206.561991 86.962048 Z"/>
  </g>
 </g>
</svg>
