<svg xmlns="http://www.w3.org/2000/svg" style="isolation:isolate" width="256" height="256" viewBox="0 0 256 256">
 <defs>
  <filter id="jt0DRdhSuxix2QtapYP2Fh9jEYxVuTEM" width="400%" height="400%" x="-200%" y="-200%" color-interpolation-filters="sRGB" filterUnits="objectBoundingBox">
   <feGaussianBlur xmlns="http://www.w3.org/2000/svg" in="SourceGraphic" stdDeviation="4.294"/>
   <feOffset xmlns="http://www.w3.org/2000/svg" dx="0" dy="4" result="pf_100_offsetBlur"/>
   <feFlood xmlns="http://www.w3.org/2000/svg" flood-opacity=".4"/>
   <feComposite xmlns="http://www.w3.org/2000/svg" in2="pf_100_offsetBlur" operator="in" result="pf_100_dropShadow"/>
   <feBlend xmlns="http://www.w3.org/2000/svg" in="SourceGraphic" in2="pf_100_dropShadow" mode="normal"/>
  </filter>
 </defs>
 <g filter="url(#jt0DRdhSuxix2QtapYP2Fh9jEYxVuTEM)">
  <linearGradient id="_lgradient_12" x1=".567" x2=".567" y1="1.071" y2="-.742" gradientTransform="matrix(244.648,0,0,228.338,5.619,11.952)" gradientUnits="userSpaceOnUse">
   <stop offset="0%" style="stop-color:#333333"/>
   <stop offset="100%" style="stop-color:#4d4d4d"/>
  </linearGradient>
  <path fill="url(#_lgradient_12)" d="M 165.628 11.952 C 239.684 11.952 250.267 22.509 250.267 96.495 L 250.267 155.746 C 250.267 229.733 239.684 240.29 165.628 240.29 L 90.259 240.29 C 16.203 240.29 5.619 229.733 5.619 155.746 L 5.619 96.495 C 5.619 22.509 16.203 11.952 90.259 11.952 L 165.628 11.952 Z"/>
 </g>
 <g opacity=".4">
  <linearGradient id="_lgradient_13" x1=".517" x2=".517" y1="0" y2="1" gradientTransform="matrix(244.65,0,0,228.34,5.68,11.95)" gradientUnits="userSpaceOnUse">
   <stop offset="0%" style="stop-color:#ffffff"/>
   <stop offset="12.5%" stop-opacity=".098" style="stop-color:#ffffff"/>
   <stop offset="92.5%" stop-opacity=".098" style="stop-color:#000000"/>
   <stop offset="100%" stop-opacity=".498" style="stop-color:#000000"/>
  </linearGradient>
  <path fill="url(#_lgradient_13)" fill-rule="evenodd" d="M 165.068 11.951 C 169.396 11.941 173.724 11.991 178.052 12.089 C 181.927 12.167 185.803 12.315 189.678 12.541 C 193.131 12.737 196.583 13.022 200.026 13.395 C 203.085 13.73 206.144 14.181 209.174 14.741 C 211.889 15.243 214.574 15.881 217.22 16.657 C 219.62 17.355 221.971 18.219 224.243 19.241 C 226.358 20.184 228.384 21.304 230.302 22.591 C 232.142 23.829 233.863 25.244 235.437 26.806 C 237.001 28.378 238.417 30.088 239.656 31.925 C 240.945 33.841 242.066 35.865 243.02 37.967 C 244.043 40.247 244.909 42.585 245.617 44.972 C 246.394 47.615 247.034 50.297 247.535 53.009 C 248.096 56.035 248.548 59.081 248.883 62.136 C 249.257 65.575 249.542 69.014 249.739 72.462 C 249.965 76.323 250.112 80.194 250.201 84.055 C 250.289 88.378 250.339 92.701 250.329 97.014 L 250.329 155.226 C 250.339 159.549 250.289 163.862 250.201 168.185 C 250.112 172.056 249.965 175.917 249.739 179.778 C 249.542 183.226 249.257 186.675 248.883 190.104 C 248.548 193.159 248.096 196.215 247.535 199.241 C 247.034 201.943 246.394 204.625 245.617 207.268 C 244.909 209.655 244.043 212.003 243.02 214.273 C 242.066 216.385 240.945 218.399 239.656 220.315 C 238.417 222.152 237.001 223.872 235.437 225.434 C 233.863 226.996 232.142 228.411 230.302 229.649 C 228.384 230.936 226.358 232.056 224.243 232.999 C 221.971 234.021 219.62 234.885 217.22 235.593 C 214.574 236.369 211.889 237.007 209.174 237.499 C 206.144 238.068 203.085 238.51 200.026 238.845 C 196.583 239.218 193.131 239.503 189.678 239.699 C 185.803 239.925 181.927 240.073 178.052 240.161 C 173.724 240.249 169.396 240.299 165.068 240.289 L 90.942 240.289 C 86.614 240.299 82.286 240.249 77.958 240.161 C 74.083 240.073 70.207 239.925 66.332 239.699 C 62.879 239.503 59.427 239.218 55.984 238.845 C 52.925 238.51 49.866 238.068 46.836 237.499 C 44.121 237.007 41.436 236.369 38.79 235.593 C 36.39 234.885 34.039 234.021 31.767 232.999 C 29.652 232.056 27.626 230.936 25.708 229.649 C 23.868 228.411 22.147 226.996 20.573 225.434 C 19.009 223.872 17.593 222.152 16.354 220.315 C 15.065 218.399 13.944 216.385 12.99 214.273 C 11.967 212.003 11.101 209.655 10.393 207.268 C 9.616 204.625 8.976 201.943 8.475 199.241 C 7.914 196.215 7.462 193.159 7.127 190.104 C 6.753 186.675 6.468 183.226 6.271 179.778 C 6.045 175.917 5.898 172.056 5.809 168.185 C 5.721 163.862 5.671 159.549 5.681 155.226 L 5.681 97.014 C 5.671 92.701 5.721 88.378 5.809 84.055 C 5.898 80.194 6.045 76.323 6.271 72.462 C 6.468 69.014 6.753 65.575 7.127 62.136 C 7.462 59.081 7.914 56.035 8.475 53.009 C 8.976 50.297 9.616 47.615 10.393 44.972 C 11.101 42.585 11.967 40.247 12.99 37.967 C 13.944 35.865 15.065 33.841 16.354 31.925 C 17.593 30.088 19.009 28.378 20.573 26.806 C 22.147 25.244 23.868 23.829 25.708 22.591 C 27.626 21.304 29.652 20.184 31.767 19.241 C 34.039 18.219 36.39 17.355 38.79 16.657 C 41.436 15.881 44.121 15.243 46.836 14.741 C 49.866 14.181 52.925 13.73 55.984 13.395 C 59.427 13.022 62.879 12.737 66.332 12.541 C 70.207 12.315 74.083 12.167 77.958 12.089 C 82.286 11.991 86.614 11.941 90.942 11.951 L 165.068 11.951 Z M 165.078 15.96 C 169.376 15.95 173.675 15.999 177.973 16.087 C 181.8 16.176 185.626 16.323 189.452 16.539 C 192.836 16.736 196.219 17.011 199.583 17.384 C 202.554 17.699 205.515 18.131 208.446 18.681 C 211.023 19.153 213.58 19.762 216.099 20.499 C 218.322 21.147 220.495 21.953 222.6 22.896 C 224.509 23.751 226.338 24.763 228.069 25.922 C 229.692 27.013 231.207 28.26 232.594 29.646 C 233.981 31.031 235.23 32.544 236.332 34.165 C 237.492 35.894 238.506 37.712 239.361 39.608 C 240.306 41.72 241.112 43.892 241.761 46.102 C 242.509 48.617 243.109 51.162 243.591 53.736 C 244.132 56.664 244.565 59.611 244.889 62.578 C 245.263 65.938 245.539 69.308 245.735 72.688 C 245.952 76.51 246.109 80.322 246.188 84.144 C 246.276 88.437 246.325 92.721 246.325 97.014 C 246.325 97.014 246.325 97.014 246.325 97.014 L 246.325 155.226 C 246.325 155.226 246.325 155.226 246.325 155.226 C 246.325 159.519 246.276 163.803 246.188 168.096 C 246.109 171.918 245.952 175.74 245.735 179.552 C 245.539 182.932 245.263 186.302 244.889 189.672 C 244.565 192.629 244.132 195.576 243.591 198.504 C 243.109 201.078 242.509 203.623 241.761 206.138 C 241.112 208.358 240.306 210.52 239.361 212.632 C 238.506 214.528 237.492 216.356 236.332 218.075 C 235.23 219.706 233.981 221.219 232.594 222.604 C 231.207 223.98 229.692 225.227 228.069 226.318 C 226.338 227.477 224.509 228.489 222.6 229.344 C 220.495 230.297 218.322 231.093 216.099 231.741 C 213.58 232.478 211.023 233.087 208.446 233.559 C 205.515 234.109 202.554 234.541 199.583 234.865 C 196.219 235.229 192.836 235.514 189.452 235.701 C 185.626 235.917 181.8 236.074 177.973 236.153 C 173.675 236.251 169.376 236.29 165.078 236.29 C 165.078 236.29 165.078 236.29 165.068 236.29 L 90.942 236.29 C 90.932 236.29 90.932 236.29 90.932 236.29 C 86.634 236.29 82.335 236.251 78.037 236.153 C 74.21 236.074 70.384 235.917 66.558 235.701 C 63.174 235.514 59.791 235.229 56.427 234.865 C 53.456 234.541 50.495 234.109 47.564 233.559 C 44.987 233.087 42.43 232.478 39.911 231.741 C 37.688 231.093 35.515 230.297 33.41 229.344 C 31.501 228.489 29.672 227.477 27.941 226.318 C 26.318 225.227 24.803 223.98 23.416 222.604 C 22.029 221.219 20.78 219.706 19.678 218.075 C 18.518 216.356 17.504 214.528 16.649 212.632 C 15.704 210.52 14.898 208.358 14.249 206.138 C 13.501 203.623 12.901 201.078 12.419 198.504 C 11.878 195.576 11.445 192.629 11.121 189.672 C 10.747 186.302 10.472 182.932 10.275 179.552 C 10.058 175.74 9.901 171.918 9.822 168.096 C 9.734 163.803 9.685 159.519 9.685 155.226 C 9.685 155.226 9.685 155.226 9.685 155.226 L 9.685 97.014 C 9.685 97.014 9.685 97.014 9.685 97.014 C 9.685 92.721 9.734 88.437 9.822 84.144 C 9.901 80.322 10.058 76.51 10.275 72.688 C 10.472 69.308 10.747 65.938 11.121 62.578 C 11.445 59.611 11.878 56.664 12.419 53.736 C 12.901 51.162 13.501 48.617 14.249 46.102 C 14.898 43.892 15.704 41.72 16.649 39.608 C 17.504 37.712 18.518 35.894 19.678 34.165 C 20.78 32.544 22.029 31.031 23.416 29.646 C 24.803 28.26 26.318 27.013 27.941 25.922 C 29.672 24.763 31.501 23.751 33.41 22.896 C 35.515 21.953 37.688 21.147 39.911 20.499 C 42.43 19.762 44.987 19.153 47.564 18.681 C 50.495 18.131 53.456 17.699 56.427 17.384 C 59.791 17.011 63.174 16.736 66.558 16.539 C 70.384 16.323 74.21 16.176 78.037 16.087 C 82.335 15.999 86.634 15.95 90.932 15.96 C 90.932 15.96 90.932 15.96 90.942 15.96 L 165.068 15.96 C 165.078 15.96 165.078 15.96 165.078 15.96 Z"/>
 </g>
 <g>
  <g opacity=".2">
   <path d="M 128.413 65.331 C 120.115 65.288 111.667 66.876 103.501 70.27 C 70.835 83.844 55.465 121.067 69.041 153.733 C 82.615 186.399 119.834 201.768 152.499 188.193 C 185.165 174.62 200.535 137.395 186.959 104.729 C 176.78 80.23 153.299 65.458 128.413 65.331 Z M 128 94.822 C 147.002 94.822 162.407 110.226 162.407 129.229 C 162.407 148.231 147.002 163.636 128 163.636 C 108.998 163.636 93.593 148.231 93.593 129.229 C 93.593 110.226 108.998 94.822 128 94.822 Z"/>
  </g>
  <path fill="#f2f2f2" d="M 128.413 62.873 C 120.115 62.83 111.667 64.419 103.501 67.812 C 70.835 81.386 55.465 118.61 69.041 151.275 C 82.615 183.941 119.834 199.311 152.499 185.735 C 185.165 172.163 200.535 134.938 186.959 102.272 C 176.78 77.772 153.299 63.001 128.413 62.873 Z M 128 92.364 C 147.002 92.364 162.407 107.769 162.407 126.771 C 162.407 145.774 147.002 161.178 128 161.178 C 108.998 161.178 93.593 145.774 93.593 126.771 C 93.593 107.769 108.998 92.364 128 92.364 Z"/>
  <g opacity=".2">
   <path fill="#ffffff" d="M 128.413 62.873 C 120.115 62.83 111.667 64.419 103.501 67.812 C 78.507 78.198 63.66 102.43 64.135 127.87 C 64.627 103.338 79.312 80.316 103.501 70.265 C 111.667 66.872 120.115 65.283 128.413 65.326 C 153.299 65.454 176.78 80.225 186.959 104.725 C 190.148 112.398 191.719 120.324 191.865 128.134 C 192.037 119.535 190.483 110.751 186.959 102.272 C 176.78 77.772 153.299 63.001 128.413 62.873 Z M 162.354 127.784 C 161.807 146.369 146.593 161.157 128 161.178 C 109.567 161.166 94.418 146.629 93.646 128.211 C 93.623 128.549 93.606 128.886 93.593 129.224 C 93.593 148.226 108.998 163.631 128 163.631 C 147.002 163.631 162.407 148.226 162.407 129.224 C 162.399 128.744 162.382 128.264 162.354 127.784 L 162.354 127.784 Z"/>
  </g>
  <g opacity=".2">
   <path d="M 128.411 57.958 C 120.499 57.918 112.467 59.354 104.687 62.353 C 101.613 63.537 100.071 67.011 101.24 70.115 L 111.826 98.174 C 112.388 99.666 113.514 100.871 114.956 101.525 C 116.398 102.179 118.038 102.228 119.515 101.661 C 122.221 100.618 125.098 100.08 127.993 100.076 C 130.887 100.087 133.75 100.632 136.451 101.68 C 137.929 102.253 139.571 102.208 141.016 101.556 C 142.461 100.905 143.59 99.7 144.154 98.207 L 154.76 70.109 C 155.323 68.616 155.276 66.959 154.628 65.501 C 153.98 64.044 152.785 62.907 151.306 62.34 C 144.079 59.561 136.344 57.999 128.411 57.958 Z M 66.712 102.078 C 64.228 102.092 62.009 103.617 61.124 105.916 C 58.125 113.696 56.689 121.728 56.73 129.64 C 56.771 137.573 58.332 145.308 61.111 152.535 C 61.678 154.014 62.815 155.209 64.273 155.857 C 65.73 156.505 67.387 156.552 68.88 155.988 L 96.978 145.389 C 98.473 144.825 99.679 143.695 100.331 142.249 C 100.982 140.802 101.026 139.159 100.452 137.68 C 99.403 134.979 98.858 132.116 98.848 129.222 C 98.851 126.326 99.389 123.45 100.432 120.744 C 100.999 119.267 100.95 117.626 100.297 116.184 C 99.643 114.742 98.437 113.617 96.945 113.055 L 68.886 102.469 C 68.192 102.207 67.455 102.075 66.712 102.078 Z M 189.288 102.078 C 188.545 102.075 187.808 102.207 187.114 102.469 L 159.055 113.055 C 157.563 113.617 156.357 114.742 155.703 116.184 C 155.05 117.626 155.001 119.267 155.568 120.744 C 156.611 123.45 157.149 126.326 157.152 129.222 C 157.142 132.116 156.597 134.979 155.548 137.68 C 154.974 139.159 155.018 140.802 155.669 142.249 C 156.321 143.695 157.527 144.825 159.022 145.389 L 187.12 155.988 C 188.613 156.552 190.27 156.505 191.727 155.857 C 193.185 155.209 194.322 154.014 194.889 152.535 C 197.668 145.308 199.229 137.573 199.27 129.64 C 199.311 121.728 197.875 113.696 194.876 105.916 C 193.991 103.617 191.772 102.092 189.288 102.078 Z M 138.785 156.386 C 137.989 156.358 137.195 156.491 136.451 156.777 C 133.75 157.826 130.887 158.37 127.993 158.381 C 125.098 158.377 122.221 157.84 119.515 156.797 C 118.038 156.23 116.398 156.278 114.956 156.932 C 113.514 157.586 112.388 158.792 111.826 160.284 L 101.24 188.342 C 100.071 191.447 101.613 194.921 104.687 196.104 C 112.467 199.104 120.499 200.54 128.411 200.499 C 136.344 200.458 144.079 198.897 151.306 196.118 C 152.785 195.551 153.98 194.413 154.628 192.956 C 155.276 191.499 155.323 189.841 154.76 188.349 L 144.154 160.251 C 143.297 157.989 141.181 156.466 138.785 156.386 L 138.785 156.386 Z"/>
  </g>
  <path fill="#f22c42" d="M 128.411 55.501 C 120.499 55.46 112.467 56.896 104.687 59.896 C 101.613 61.079 100.071 64.553 101.24 67.658 L 111.826 95.716 C 112.388 97.208 113.514 98.414 114.956 99.068 C 116.398 99.722 118.038 99.77 119.515 99.203 C 122.221 98.16 125.098 97.623 127.993 97.619 C 130.887 97.63 133.75 98.174 136.451 99.223 C 137.929 99.795 139.571 99.75 141.016 99.099 C 142.461 98.447 143.59 97.242 144.154 95.749 L 154.76 67.651 C 155.323 66.159 155.276 64.501 154.628 63.044 C 153.98 61.587 152.785 60.449 151.306 59.882 C 144.079 57.103 136.344 55.542 128.411 55.501 Z M 66.712 99.621 C 64.228 99.635 62.009 101.159 61.124 103.459 C 58.125 111.239 56.689 119.27 56.73 127.182 C 56.771 135.115 58.332 142.85 61.111 150.077 C 61.678 151.556 62.815 152.751 64.273 153.399 C 65.73 154.047 67.387 154.094 68.88 153.531 L 96.978 142.932 C 98.473 142.368 99.679 141.238 100.331 139.791 C 100.982 138.345 101.026 136.701 100.452 135.223 C 99.403 132.522 98.858 129.658 98.848 126.765 C 98.851 123.869 99.389 120.992 100.432 118.287 C 100.999 116.809 100.95 115.169 100.297 113.727 C 99.643 112.285 98.437 111.159 96.945 110.597 L 68.886 100.012 C 68.192 99.749 67.455 99.617 66.712 99.621 Z M 189.288 99.621 C 188.545 99.617 187.808 99.749 187.114 100.012 L 159.055 110.597 C 157.563 111.159 156.357 112.285 155.703 113.727 C 155.05 115.169 155.001 116.809 155.568 118.287 C 156.611 120.992 157.149 123.869 157.152 126.765 C 157.142 129.658 156.597 132.522 155.548 135.223 C 154.974 136.701 155.018 138.345 155.669 139.791 C 156.321 141.238 157.527 142.368 159.022 142.932 L 187.12 153.531 C 188.613 154.094 190.27 154.047 191.727 153.399 C 193.185 152.751 194.322 151.556 194.889 150.077 C 197.668 142.85 199.229 135.115 199.27 127.182 C 199.311 119.27 197.875 111.239 194.876 103.459 C 193.991 101.159 191.772 99.635 189.288 99.621 Z M 138.785 153.928 C 137.989 153.9 137.195 154.033 136.451 154.32 C 133.75 155.368 130.887 155.913 127.993 155.924 C 125.098 155.92 122.221 155.382 119.515 154.339 C 118.038 153.772 116.398 153.821 114.956 154.475 C 113.514 155.129 112.388 156.334 111.826 157.826 L 101.24 185.885 C 100.071 188.989 101.613 192.463 104.687 193.647 C 112.467 196.646 120.499 198.082 128.411 198.042 C 136.344 198.001 144.079 196.439 151.306 193.66 C 152.785 193.093 153.98 191.956 154.628 190.499 C 155.276 189.041 155.323 187.384 154.76 185.891 L 144.154 157.793 C 143.297 155.531 141.181 154.009 138.785 153.928 L 138.785 153.928 Z"/>
 </g>
</svg>
