<svg xmlns="http://www.w3.org/2000/svg" style="isolation:isolate" width="256" height="256" viewBox="0 0 256 256">
 <defs>
  <filter id="6WkSpF4aUcmSZNzSsOdUPS54JzlIxsRd" width="400%" height="400%" x="-200%" y="-200%" color-interpolation-filters="sRGB" filterUnits="objectBoundingBox">
   <feGaussianBlur xmlns="http://www.w3.org/2000/svg" in="SourceGraphic" stdDeviation="4.294"/>
   <feOffset xmlns="http://www.w3.org/2000/svg" dx="0" dy="4" result="pf_100_offsetBlur"/>
   <feFlood xmlns="http://www.w3.org/2000/svg" flood-opacity=".4"/>
   <feComposite xmlns="http://www.w3.org/2000/svg" in2="pf_100_offsetBlur" operator="in" result="pf_100_dropShadow"/>
   <feBlend xmlns="http://www.w3.org/2000/svg" in="SourceGraphic" in2="pf_100_dropShadow" mode="normal"/>
  </filter>
 </defs>
 <g filter="url(#6WkSpF4aUcmSZNzSsOdUPS54JzlIxsRd)">
  <linearGradient id="_lgradient_24" x1="0" x2="0" y1="0" y2="1" gradientTransform="matrix(244.648309,0,0,228.338396,5.68,11.95)" gradientUnits="userSpaceOnUse">
   <stop offset="0%" style="stop-color:#4c5561"/>
   <stop offset="100%" style="stop-color:#2e3842"/>
  </linearGradient>
  <path fill="url(#_lgradient_24)" d="M 165.688919 11.95 C 239.744626 11.95 250.328309 22.507198 250.328309 96.493859 L 250.328309 155.744653 C 250.328309 229.73091 239.744626 240.288396 165.688919 240.288396 L 90.319393 240.288396 C 16.26369 240.288396 5.68 229.73091 5.68 155.744653 L 5.68 96.493859 C 5.68 22.507198 16.26369 11.95 90.319393 11.95 L 165.688919 11.95 Z"/>
 </g>
 <g opacity=".4">
  <linearGradient id="_lgradient_25" x1=".517" x2=".517" y1="0" y2="1" gradientTransform="matrix(244.65,0,0,228.34,5.68,11.95)" gradientUnits="userSpaceOnUse">
   <stop offset="0%" style="stop-color:#ffffff"/>
   <stop offset="12.5%" stop-opacity=".098" style="stop-color:#ffffff"/>
   <stop offset="92.5%" stop-opacity=".098" style="stop-color:#000000"/>
   <stop offset="100%" stop-opacity=".498" style="stop-color:#000000"/>
  </linearGradient>
  <path fill="url(#_lgradient_25)" fill-rule="evenodd" d="M 165.06803 11.951234 C 169.395994 11.941409 173.723944 11.990533 178.051908 12.088781 C 181.927398 12.167379 185.802873 12.31475 189.678362 12.540721 C 193.1309 12.737216 196.583423 13.022134 200.026115 13.395476 C 203.085193 13.729518 206.144271 14.181458 209.173842 14.741469 C 211.888645 15.242533 214.57394 15.881143 217.219897 16.6573 C 219.619947 17.354858 221.970814 18.219439 224.242988 19.241215 C 226.357793 20.184394 228.384061 21.304417 230.302129 22.591462 C 232.141505 23.829383 233.862851 25.244151 235.436659 26.80629 C 237.000621 28.378252 238.417046 30.087764 239.656409 31.924995 C 240.944972 33.840824 242.066305 35.864728 243.020409 37.967229 C 244.043389 40.246576 244.908985 42.584873 245.617197 44.972292 C 246.394255 47.615155 247.033606 50.297317 247.535265 53.008956 C 248.095924 56.034984 248.548399 59.080665 248.882828 62.13617 C 249.256611 65.574836 249.541856 69.013506 249.738578 72.462003 C 249.964823 76.323139 250.112361 80.194101 250.200884 84.055237 C 250.289421 88.378131 250.338591 92.701032 250.32876 97.014106 L 250.32876 155.225886 C 250.338591 159.54878 250.289421 163.861854 250.200884 168.184747 C 250.112361 172.05571 249.964823 175.916853 249.738578 179.777981 C 249.541856 183.226485 249.256611 186.674975 248.882828 190.103826 C 248.548399 193.15933 248.095924 196.214835 247.535265 199.240851 C 247.033606 201.942664 246.394255 204.624837 245.617197 207.267703 C 244.908985 209.655115 244.043389 212.003235 243.020409 214.272755 C 242.066305 216.38509 240.944972 218.399156 239.656409 220.314999 C 238.417046 222.152226 237.000621 223.871561 235.436659 225.433697 C 233.862851 226.995832 232.141505 228.410601 230.302129 229.648532 C 228.384061 230.935575 226.357793 232.055598 224.242988 232.998768 C 221.970814 234.020552 219.619947 234.885137 217.219897 235.592507 C 214.57394 236.368672 211.888645 237.007276 209.173842 237.498515 C 206.144271 238.068354 203.085193 238.510465 200.026115 238.844519 C 196.583423 239.21785 193.1309 239.502777 189.678362 239.699269 C 185.802873 239.925235 181.927398 240.072615 178.051908 240.161035 C 173.723944 240.249454 169.395994 240.298581 165.06803 240.288762 L 90.941963 240.288762 C 86.614006 240.298581 82.286049 240.249454 77.9581 240.161035 C 74.08261 240.072615 70.20712 239.925235 66.331638 239.699269 C 62.879108 239.502777 59.426578 239.21785 55.983886 238.844519 C 52.924808 238.510465 49.865733 238.068354 46.836162 237.498515 C 44.121356 237.007276 41.436057 236.368672 38.7901 235.592507 C 36.390053 234.885137 34.039187 234.020552 31.767009 232.998768 C 29.652213 232.055598 27.625943 230.935575 25.707871 229.648532 C 23.868489 228.410601 22.147143 226.995832 20.573343 225.433697 C 19.009377 223.871561 17.592955 222.152226 16.353586 220.314999 C 15.065036 218.399156 13.943701 216.38509 12.989584 214.272755 C 11.966612 212.003235 11.101021 209.655115 10.392811 207.267703 C 9.615746 204.624837 8.976389 201.942664 8.47474 199.240851 C 7.914072 196.214835 7.461604 193.15933 7.127172 190.103826 C 6.753394 186.674975 6.468142 183.226485 6.271417 179.777981 C 6.045183 175.916853 5.897639 172.05571 5.809112 168.184747 C 5.720586 163.861854 5.671405 159.54878 5.681241 155.225886 L 5.681241 97.014106 C 5.671405 92.701032 5.720586 88.378131 5.809112 84.055237 C 5.897639 80.194101 6.045183 76.323139 6.271417 72.462003 C 6.468142 69.013506 6.753394 65.574836 7.127172 62.13617 C 7.461604 59.080665 7.914072 56.034984 8.47474 53.008956 C 8.976389 50.297317 9.615746 47.615155 10.392811 44.972292 C 11.101021 42.584873 11.966612 40.246576 12.989584 37.967229 C 13.943701 35.864728 15.065036 33.840824 16.353586 31.924995 C 17.592955 30.087764 19.009377 28.378252 20.573343 26.80629 C 22.147143 25.244151 23.868489 23.829383 25.707871 22.591462 C 27.625943 21.304417 29.652213 20.184394 31.767009 19.241215 C 34.039187 18.219439 36.390053 17.354858 38.7901 16.6573 C 41.436057 15.881143 44.121356 15.242533 46.836162 14.741469 C 49.865733 14.181458 52.924808 13.729518 55.983886 13.395476 C 59.426578 13.022134 62.879108 12.737216 66.331638 12.540721 C 70.20712 12.31475 74.08261 12.167379 77.9581 12.088781 C 82.286049 11.990533 86.614006 11.941409 90.941963 11.951234 L 165.06803 11.951234 Z M 165.077876 15.959741 C 169.376317 15.949916 173.674759 15.99904 177.973216 16.087463 C 181.799522 16.175886 185.625827 16.323257 189.452133 16.539402 C 192.835809 16.735898 196.219486 17.010992 199.583486 17.384332 C 202.554026 17.698726 205.514751 18.131016 208.445953 18.681203 C 211.023049 19.152792 213.580483 19.761928 216.098564 20.498786 C 218.321569 21.147221 220.495374 21.952852 222.600334 22.896029 C 224.508571 23.750785 226.338116 24.762737 228.069293 25.922059 C 229.692286 27.012609 231.207063 28.260355 232.59398 29.645648 C 233.980897 31.030941 235.230091 32.543956 236.331763 34.165043 C 237.492434 35.894202 238.505568 37.711787 239.361333 39.607968 C 240.305606 41.720292 241.112187 43.891565 241.761369 46.102139 C 242.508934 48.617282 243.108947 51.161898 243.590914 53.735987 C 244.131912 56.663768 244.564709 59.6112 244.889308 62.578282 C 245.263091 65.938355 245.538505 69.308252 245.735227 72.687976 C 245.951626 76.509812 246.10901 80.321821 246.187687 84.143656 C 246.276225 88.437084 246.325394 92.720685 246.325394 97.014106 C 246.325394 97.014106 246.325394 97.014106 246.325394 97.014106 L 246.325394 155.225886 C 246.325394 155.225886 246.325394 155.225886 246.325394 155.225886 C 246.325394 159.519306 246.276225 163.802907 246.187687 168.096328 C 246.10901 171.918164 245.951626 175.739999 245.735227 179.552015 C 245.538505 182.931739 245.263091 186.301629 244.889308 189.671533 C 244.564709 192.628784 244.131912 195.576216 243.590914 198.503994 C 243.108947 201.078094 242.508934 203.622706 241.761369 206.137845 C 241.112187 208.358253 240.305606 210.5197 239.361333 212.63202 C 238.505568 214.528209 237.492434 216.355617 236.331763 218.074952 C 235.230091 219.705853 233.980897 221.218876 232.59398 222.604172 C 231.207063 223.979634 229.692286 225.227385 228.069293 226.317935 C 226.338116 227.477251 224.508571 228.489201 222.600334 229.343951 C 220.495374 230.296956 218.321569 231.092775 216.098564 231.741198 C 213.580483 232.478056 211.023049 233.087202 208.445953 233.558787 C 205.514751 234.108972 202.554026 234.541264 199.583486 234.865483 C 196.219486 235.228995 192.835809 235.513922 189.452133 235.70058 C 185.625827 235.916726 181.799522 236.073926 177.973216 236.152526 C 173.674759 236.25078 169.376317 236.290072 165.077876 236.290072 C 165.077876 236.290072 165.077876 236.290072 165.06803 236.290072 L 90.941963 236.290072 C 90.932125 236.290072 90.932125 236.290072 90.932125 236.290072 C 86.633683 236.290072 82.335234 236.25078 78.036784 236.152526 C 74.210479 236.073926 70.384173 235.916726 66.557868 235.70058 C 63.174195 235.513922 59.790522 235.228995 56.426518 234.865483 C 53.455967 234.541264 50.495253 234.108972 47.564048 233.558787 C 44.986944 233.087202 42.429517 232.478056 39.911433 231.741198 C 37.688439 231.092775 35.514626 230.296956 33.409665 229.343951 C 31.501429 228.489201 29.671886 227.477251 27.940703 226.317935 C 26.31772 225.227385 24.802935 223.979634 23.416022 222.604172 C 22.029109 221.218876 20.779904 219.705853 19.678243 218.074952 C 18.517564 216.355617 17.504428 214.528209 16.648674 212.63202 C 15.704392 210.5197 14.897819 208.358253 14.248626 206.137845 C 13.50107 203.622706 12.901057 201.078094 12.419081 198.503994 C 11.878086 195.576216 11.445291 192.628784 11.120694 189.671533 C 10.746916 186.301629 10.471501 182.931739 10.274776 179.552015 C 10.058378 175.739999 9.900997 171.918164 9.822307 168.096328 C 9.733781 163.802907 9.6846 159.519306 9.6846 155.225886 C 9.6846 155.225886 9.6846 155.225886 9.6846 155.225886 L 9.6846 97.014106 C 9.6846 97.014106 9.6846 97.014106 9.6846 97.014106 C 9.6846 92.720685 9.733781 88.437084 9.822307 84.143656 C 9.900997 80.321821 10.058378 76.509812 10.274776 72.687976 C 10.471501 69.308252 10.746916 65.938355 11.120694 62.578282 C 11.445291 59.6112 11.878086 56.663768 12.419081 53.735987 C 12.901057 51.161898 13.50107 48.617282 14.248626 46.102139 C 14.897819 43.891565 15.704392 41.720292 16.648674 39.607968 C 17.504428 37.711787 18.517564 35.894202 19.678243 34.165043 C 20.779904 32.543956 22.029109 31.030941 23.416022 29.645648 C 24.802935 28.260355 26.31772 27.012609 27.940703 25.922059 C 29.671886 24.762737 31.501429 23.750785 33.409665 22.896029 C 35.514626 21.952852 37.688439 21.147221 39.911433 20.498786 C 42.429517 19.761928 44.986944 19.152792 47.564048 18.681203 C 50.495253 18.131016 53.455967 17.698726 56.426518 17.384332 C 59.790522 17.010992 63.174195 16.735898 66.557868 16.539402 C 70.384173 16.323257 74.210479 16.175886 78.036784 16.087463 C 82.335234 15.99904 86.633683 15.949916 90.932125 15.959741 C 90.932125 15.959741 90.932125 15.959741 90.941963 15.959741 L 165.06803 15.959741 C 165.077876 15.959741 165.077876 15.959741 165.077876 15.959741 Z"/>
 </g>
 <defs>
  <filter id="LWzZT9jZYjIPa4fx2Z7zOxYjCdI11I2Z" width="400%" height="400%" x="-200%" y="-200%" color-interpolation-filters="sRGB" filterUnits="objectBoundingBox">
   <feGaussianBlur xmlns="http://www.w3.org/2000/svg" stdDeviation="4.294"/>
  </filter>
 </defs>
 <g opacity=".4" filter="url(#LWzZT9jZYjIPa4fx2Z7zOxYjCdI11I2Z)">
  <path d="M 127.222666 199.233779 C 126.871502 198.83581 126.27145 197.16399 125.216452 193.644188 C 124.764771 192.137233 124.323327 190.744047 124.235469 190.548214 C 123.877815 189.751039 123.550008 188.203404 123.641551 187.744237 C 123.70217 187.44009 123.662559 187.254653 123.536834 187.254653 C 123.425556 187.254653 122.995621 187.040634 122.581416 186.779063 C 122.16722 186.517483 121.350283 186.116051 120.766005 185.886989 C 119.34568 185.330163 118.380497 184.669885 118.167341 184.10924 C 118.010684 183.697207 117.923297 183.660016 117.335819 183.755352 C 116.777058 183.846023 116.479577 183.744759 115.337169 183.075285 C 113.758252 182.149937 112.314248 181.487797 112.176211 181.625833 C 112.122366 181.679687 112.261407 183.385592 112.485198 185.416757 L 112.892081 189.109783 L 112.057069 189.844558 C 111.262135 190.544057 111.227482 190.613266 111.335115 191.286363 C 111.425693 191.85282 111.3328 192.261729 110.867878 193.342898 L 110.287583 194.692395 L 108.961608 194.906298 C 106.931481 195.233794 106.704038 195.358255 105.726854 196.6764 L 104.836347 197.877633 L 103.063629 198.103545 L 101.290908 198.329456 L 99.563019 196.842244 C 98.292912 195.749049 97.742787 195.142776 97.486579 194.553896 C 96.245214 191.700658 97.028024 179.873552 99.056508 170.834543 L 99.685046 168.033762 L 99.169112 167.273937 C 97.777827 165.224986 95.390823 160.553106 95.390823 159.879012 C 95.390823 159.651266 95.188111 159.277056 94.94035 159.047441 C 94.632837 158.762441 94.067848 157.498123 93.160048 155.063505 C 91.759455 151.307279 91.601818 150.470314 92.109916 149.487756 C 92.36195 149.000371 92.362417 148.926418 92.114367 148.739967 C 91.381425 148.188527 90.476097 143.860316 90.129107 139.248788 C 89.98808 137.37452 89.948913 137.429309 91.708075 137.039583 C 92.794382 136.798912 92.765478 136.649848 91.591581 136.438784 C 90.304894 136.207442 90.105153 136.030729 89.895771 134.938451 C 89.417083 132.44138 89.516985 127.455214 90.058776 126.802395 C 90.222768 126.604799 90.223071 126.488207 90.060556 126.291848 C 89.894881 126.092223 90.024416 125.115842 90.661862 121.760834 C 91.108656 119.408724 91.474277 117.440279 91.474277 117.386514 C 91.474277 117.332748 91.636035 117.288739 91.833729 117.288739 C 92.117412 117.288739 92.172126 117.204264 92.093288 116.888171 C 92.00308 116.526476 93.335096 111.468946 94.045044 109.477535 C 94.489233 108.231581 94.441443 108.099455 93.576459 108.181946 C 93.0021 108.23669 92.588597 108.454136 91.781735 109.125613 C 91.205113 109.605485 90.322305 110.206391 89.819957 110.460947 C 89.209153 110.770471 87.695352 112.091937 85.250097 114.450206 C 83.239022 116.389731 81.27314 118.229371 80.881473 118.538299 C 80.435961 118.889686 79.997268 119.477426 79.709696 120.108179 C 79.456884 120.662699 79.122747 121.221082 78.967167 121.349023 C 78.811595 121.476974 78.137189 122.467072 77.468499 123.549247 C 75.814366 126.226191 75.095906 126.970277 73.804768 127.343696 C 72.855564 127.618227 72.781094 127.678135 72.781094 128.167139 C 72.781094 129.308563 71.071442 131.771568 69.959411 132.232186 C 69.647591 132.361347 69.31666 132.73586 69.075215 133.232814 C 68.691702 134.0222 67.814796 134.733761 67.223913 134.735052 C 66.70329 134.735942 66.538416 134.104673 66.358668 131.420973 C 66.041062 126.678993 66.512922 122.876924 68.148264 117.001167 C 69.037766 113.805185 69.542429 112.666342 70.357318 112.016149 C 70.853017 111.620628 71.000746 111.373308 71.000746 110.938914 C 71.000755 110.24473 71.386298 109.330419 72.602254 107.141011 C 73.665192 105.227123 74.330296 104.317175 77.156723 100.90995 C 80.186897 97.257115 81.531916 96.06352 85.777262 93.259925 C 90.747771 89.977447 93.504579 89.03931 99.307574 88.655583 C 102.564979 88.440185 104.124868 88.61501 105.65442 89.366892 L 106.863171 89.961086 L 107.237924 91.207298 C 107.444039 91.892715 107.752666 92.721117 107.923764 93.048176 C 108.094861 93.375245 108.191511 93.755784 108.138543 93.89382 C 108.08557 94.031865 108.108652 94.144798 108.189834 94.144798 C 108.428104 94.144798 109.653827 93.267705 110.587246 92.429263 C 111.06294 92.001972 111.603709 91.652374 111.78895 91.652374 C 111.974195 91.652374 112.125756 91.547932 112.125756 91.420285 C 112.125756 90.886399 113.069862 89.354216 113.721512 88.830535 L 114.423528 88.266381 L 116.141025 88.457893 C 117.085649 88.563225 117.896433 88.611497 117.942765 88.565163 C 117.989142 88.51883 117.890335 88.216635 117.723307 87.89362 C 117.528355 87.516622 117.487809 87.283585 117.61008 87.242828 C 117.714842 87.207908 118.244357 86.636875 118.786789 85.973869 L 119.773015 84.768402 L 119.685602 81.75679 C 119.637534 80.100402 119.479122 77.8812 119.333565 76.825231 C 118.848227 73.304184 119.038417 71.725548 120.415642 67.843221 C 120.991285 66.220521 121.205553 65.345618 121.206283 64.61493 C 121.208064 62.645683 121.907625 61.404868 123.460476 60.615687 C 123.966999 60.358265 124.558879 59.797991 125.168375 58.999002 C 125.681387 58.326497 126.391924 57.541029 126.747361 57.253518 L 127.393593 56.73077 L 128.264144 57.171909 C 129.163856 57.62783 130.692077 59.107435 130.885088 59.709484 C 130.94553 59.897864 131.445599 60.292335 131.99646 60.586085 C 133.588906 61.435264 134.348401 62.71835 134.472933 64.769797 C 134.511566 65.406256 134.906927 67.205258 135.351504 68.76758 C 136.058667 71.252644 136.159388 71.820832 136.156308 73.307353 C 136.154527 74.241906 136.071832 75.566747 135.972883 76.251445 C 135.873943 76.93614 135.766582 78.67284 135.734314 80.110775 C 135.685711 82.276101 135.615238 82.847309 135.323954 83.436031 C 134.993512 84.103926 134.99093 84.155776 135.281315 84.294504 C 135.451308 84.375712 135.862015 84.802658 136.193997 85.243283 C 136.525979 85.683909 137.166959 86.318834 137.618391 86.65423 L 138.439173 87.264039 L 137.9226 87.780615 C 137.298292 88.404918 137.262579 88.668643 137.821336 88.528406 C 138.049758 88.471071 138.790809 88.366119 139.468117 88.295171 C 140.660163 88.1703 140.721272 88.183501 141.377011 88.70757 C 143.105356 90.088858 143.332745 90.374535 143.226239 91.030843 C 143.13077 91.619136 143.160991 91.661356 143.915973 91.995332 C 144.350233 92.187426 145.126071 92.738537 145.640063 93.220029 C 146.154045 93.701521 146.794892 94.135514 147.064172 94.184464 C 147.579142 94.278072 147.680459 94.164702 147.364331 93.848565 C 147.230461 93.714686 147.400115 93.122433 147.942929 91.828927 C 148.858246 89.647699 149.279305 89.284618 151.3548 88.886852 C 155.752033 88.04413 155.054706 88.069939 158.353786 88.627809 C 163.654986 89.524235 163.899849 89.594806 166.471274 90.967233 C 167.767673 91.659157 169.108767 92.453964 169.451493 92.733454 C 169.794192 93.012953 170.485377 93.480051 170.987449 93.77146 C 172.17687 94.46179 174.054716 96.206363 174.190446 96.74713 C 174.249018 96.98043 174.399187 97.171314 174.5242 97.171314 C 174.933812 97.171314 176.686129 98.755063 177.474785 99.83803 C 178.103784 100.701797 178.318951 100.880602 178.634172 100.801485 C 178.929586 100.727336 179.118494 100.844569 179.432024 101.29673 C 179.657953 101.622543 180.114859 102.196869 180.447366 102.573012 C 181.323596 103.564213 182.091619 104.835261 182.091619 105.294169 C 182.091619 105.570926 182.213293 105.709318 182.491394 105.748894 C 183.353017 105.871504 185.308252 109.9876 186.619998 114.440254 C 186.980553 115.664213 187.350954 116.804746 187.443067 116.974774 C 187.535198 117.144802 187.610567 117.958463 187.610567 118.782912 C 187.610567 120.174602 187.635046 120.275509 187.953151 120.192334 C 188.468424 120.057591 188.765646 120.80272 189.20984 123.342669 C 189.667236 125.95813 189.84621 129.557245 189.663969 132.474218 L 189.533775 134.55768 L 189.011532 134.55768 C 188.22219 134.55768 187.365865 134.132517 186.998739 133.558298 C 186.818021 133.275666 186.138105 132.523684 185.487787 131.887225 C 184.837469 131.250767 184.055782 130.358684 183.750665 129.904813 C 183.401815 129.385855 182.856143 128.890316 182.280322 128.569586 C 181.51521 128.143426 181.232142 127.830555 180.558528 126.666611 C 180.11517 125.900484 179.493275 124.979177 179.17655 124.619262 C 178.859825 124.259347 178.297997 123.544555 177.928041 123.030831 C 177.558085 122.517107 177.154598 122.036425 177.031418 121.962649 C 176.908239 121.888856 176.614195 121.235262 176.37802 120.510189 C 176.059764 119.533096 175.860184 119.178878 175.606998 119.141723 C 175.224019 119.085555 171.053748 115.005509 171.053748 114.687022 C 171.053748 114.57489 170.673226 114.174722 170.208122 113.797761 C 169.230735 113.005624 169.299864 113.073257 168.048641 111.685013 C 167.285888 110.838746 166.814641 110.502286 165.734247 110.032651 C 164.988104 109.708298 164.09619 109.216889 163.752235 108.940622 C 163.278763 108.56034 162.878738 108.417747 162.105455 108.35362 C 161.144456 108.273952 161.084059 108.2922 161.084059 108.662895 C 161.084059 108.879584 161.373109 109.847535 161.726401 110.813901 C 162.570265 113.122153 163.005095 114.629545 163.230766 116.029024 C 163.332199 116.658049 163.529279 117.258901 163.66873 117.364251 C 163.808181 117.469591 164.174621 118.557205 164.483041 119.781164 C 164.917755 121.506304 165.056788 122.480041 165.101554 124.112953 C 165.135824 125.36472 165.243105 126.320324 165.36584 126.468214 C 165.755824 126.938116 166.058155 133.254293 165.773226 134.979087 C 165.679654 135.545499 165.519711 135.756189 164.87096 136.167608 C 164.093021 136.660966 164.089051 136.668452 164.575483 136.725368 C 165.003201 136.775395 165.098972 136.901013 165.298241 137.67321 C 165.641671 139.004058 165.598445 139.530814 164.824093 143.452092 C 164.05567 147.343345 163.658787 148.515452 163.043479 148.710743 C 162.653165 148.834625 162.653236 148.835097 163.140149 149.34332 C 163.586818 149.809546 163.619558 149.937897 163.533124 150.883781 C 163.481228 151.451297 163.271153 152.276147 163.066195 152.716772 C 162.861238 153.157397 162.365058 154.439215 161.963582 155.565257 C 160.896745 158.557457 160.975113 158.412184 160.420255 158.426258 C 160.148893 158.433379 159.766635 158.507618 159.570801 158.591772 C 159.231048 158.737766 159.233087 158.74535 159.615309 158.757287 C 159.911934 158.766545 160.015868 158.876906 160.015868 159.182566 C 160.015868 159.961538 159.447275 161.53173 158.392454 163.665636 C 156.630043 167.231014 156.135555 168.097087 155.597156 168.56147 C 155.040152 169.041885 154.584965 169.777026 154.745254 169.937315 C 154.799731 169.991881 154.965549 169.935535 155.113634 169.813005 C 155.443222 169.539462 155.401242 169.42741 156.012029 172.211092 C 157.428394 178.666275 157.914016 181.862685 158.239758 186.874363 C 158.456287 190.205719 158.298686 192.77759 157.767141 194.587375 C 157.529346 195.396994 157.245823 195.772336 155.796657 197.196053 L 154.103936 198.859052 L 152.831686 198.739727 C 152.131947 198.674123 151.278995 198.548932 150.936242 198.461573 C 150.172359 198.26687 148.181953 196.319254 147.733592 195.327767 L 147.423891 194.642911 L 147.193199 195.132495 C 146.996351 195.550243 146.854692 195.622078 146.227705 195.622078 C 145.519794 195.622078 145.46497 195.579618 144.729464 194.460875 C 143.987523 193.332386 143.971055 193.276039 144.145035 192.460304 C 144.243504 191.998645 144.309687 191.614135 144.292124 191.60583 C 144.274588 191.597819 143.879655 191.372824 143.41455 191.106482 C 142.732961 190.716168 142.568942 190.528693 142.56912 190.140142 C 142.569592 189.392317 143.104413 184.944461 143.300193 184.061733 C 143.44486 183.409465 143.427466 183.245446 143.200131 183.118226 C 143.024352 183.019855 142.924967 182.710216 142.924967 182.260956 C 142.924967 181.81499 142.843518 181.559081 142.70242 181.561493 C 142.580033 181.563273 141.924819 181.924862 141.246408 182.364321 C 139.794589 183.304775 138.987506 183.558361 138.094773 183.35457 C 137.460202 183.209707 137.444606 183.219285 137.24831 183.874472 C 137.138314 184.241588 136.923983 184.645156 136.772008 184.771282 C 136.620032 184.897416 135.318551 185.612991 133.879834 186.361466 C 132.441109 187.109932 131.28368 187.816401 131.307768 187.931409 C 131.331891 188.046399 131.163973 188.642168 130.934705 189.25534 C 130.406365 190.668358 130.008093 192.324814 129.582467 194.87946 C 129.397476 195.9898 129.125517 197.030058 128.977404 197.193854 C 128.829426 197.3575 128.562353 197.931701 128.383896 198.469842 C 128.035713 199.519829 127.681023 199.753174 127.222711 199.233779 L 127.222666 199.233779 Z M 125.344429 108.625384 C 125.222024 108.57598 125.021749 108.57598 124.899344 108.625384 C 124.776957 108.674787 124.87709 108.715173 125.121882 108.715173 C 125.366674 108.715173 125.466816 108.67476 125.344429 108.625384 Z M 124.276238 108.447353 C 124.153851 108.39795 123.953558 108.39795 123.831171 108.447353 C 123.708766 108.496757 123.808917 108.537143 124.0537 108.537143 C 124.298492 108.537143 124.398643 108.49673 124.276238 108.447353 Z"/>
 </g>
 <linearGradient id="_lgradient_26" x1=".5" x2=".5" y1="1" y2="0" gradientTransform="matrix(123.468632,0,0,142.769228,66.265683,54.5)" gradientUnits="userSpaceOnUse">
  <stop offset="0%" style="stop-color:#037164"/>
  <stop offset="100%" style="stop-color:#00ac98"/>
 </linearGradient>
 <path fill="url(#_lgradient_26)" d="M 127.222664 197.003004 C 126.871499 196.605047 126.271452 194.933214 125.216455 191.413424 C 124.764771 189.906458 124.323328 188.513273 124.235469 188.317439 C 123.877818 187.520274 123.550008 185.972628 123.641548 185.513467 C 123.702167 185.209324 123.66256 185.023881 123.536833 185.023881 C 123.425557 185.023881 122.995619 184.809859 122.581417 184.548298 C 122.167221 184.28671 121.35028 183.885276 120.766002 183.656218 C 119.34568 183.099398 118.380498 182.439119 118.167339 181.878468 C 118.010683 181.466439 117.923299 181.42925 117.335816 181.524586 C 116.777061 181.615251 116.479574 181.513992 115.337166 180.844518 C 113.758252 179.919173 112.314248 179.257033 112.176208 179.39506 C 112.122366 179.448915 112.261405 181.154826 112.485199 183.185987 L 112.892081 186.879011 L 112.057068 187.61379 C 111.262137 188.313283 111.227481 188.3825 111.335117 189.055601 C 111.425693 189.622051 111.332801 190.030956 110.867881 191.112134 L 110.287583 192.461623 L 108.961606 192.675522 C 106.931484 193.003027 106.704036 193.127485 105.726854 194.445625 L 104.836349 195.64686 L 103.063632 195.87278 L 101.290908 196.098686 L 99.56302 194.611469 C 98.292914 193.518284 97.742784 192.91201 97.486581 192.323121 C 96.245217 189.469885 97.028025 177.642778 99.05651 168.603779 L 99.685046 165.802999 L 99.16911 165.043173 C 97.777827 162.994218 95.390821 158.322335 95.390821 157.648243 C 95.390821 157.420503 95.188114 157.046287 94.940353 156.816673 C 94.632836 156.531669 94.067846 155.267356 93.16005 152.832737 C 91.759456 149.076513 91.601816 148.239551 92.109916 147.256983 C 92.361948 146.769598 92.362417 146.695654 92.114364 146.509191 C 91.381425 145.957764 90.476094 141.629548 90.129106 137.018013 C 89.988077 135.143745 89.948912 135.198537 91.708073 134.808811 C 92.794379 134.56814 92.765481 134.419084 91.591582 134.20801 C 90.304892 133.976671 90.105153 133.799961 89.895769 132.707686 C 89.417083 130.210613 89.516984 125.224442 90.058775 124.571619 C 90.222771 124.374033 90.22307 124.257439 90.060554 124.061075 C 89.89488 123.861451 90.024417 122.885077 90.661864 119.530071 C 91.108658 117.177953 91.474275 115.209503 91.474275 115.155743 C 91.474275 115.101983 91.636038 115.057975 91.833726 115.057975 C 92.117413 115.057975 92.172124 114.973491 92.09329 114.657396 C 92.003081 114.295704 93.335096 109.238176 94.04504 107.246765 C 94.489233 106.000809 94.441443 105.868684 93.57646 105.951178 C 93.002098 106.005923 92.588595 106.223367 91.781739 106.894845 C 91.205115 107.374713 90.322305 107.975622 89.819958 108.230181 C 89.209154 108.539702 87.695355 109.861171 85.250097 112.219435 C 83.239022 114.158968 81.273139 115.9986 80.881474 116.307523 C 80.43596 116.658919 79.997268 117.246654 79.709696 117.877404 C 79.456883 118.431929 79.122747 118.990311 78.967168 119.118259 C 78.811596 119.246208 78.137191 120.2363 77.468497 121.318483 C 75.814366 123.995417 75.095906 124.739514 73.804768 125.112928 C 72.855563 125.38746 72.781092 125.44736 72.781092 125.936375 C 72.781092 127.077792 71.071443 129.540799 69.959412 130.001414 C 69.647592 130.130571 69.316661 130.505085 69.075216 131.002046 C 68.6917 131.791428 67.814795 132.502995 67.223913 132.504286 C 66.703291 132.505169 66.538415 131.873902 66.358669 129.190204 C 66.041063 124.448221 66.512924 120.646156 68.148266 114.770403 C 69.037766 111.574416 69.542428 110.435573 70.357319 109.785379 C 70.853017 109.38986 71.000745 109.14254 71.000745 108.708147 C 71.000755 108.013959 71.386298 107.099651 72.602253 104.910239 C 73.665193 102.996357 74.330297 102.086402 77.156725 98.679178 C 80.186898 95.026345 81.531916 93.832751 85.777263 91.029159 C 90.747774 87.746678 93.504581 86.808539 99.307571 86.424816 C 102.564979 86.209416 104.12487 86.384244 105.654417 87.136125 L 106.86317 87.730318 L 107.237922 88.976531 C 107.444038 89.661945 107.752663 90.49035 107.923763 90.817406 C 108.094864 91.144476 108.191511 91.525014 108.138546 91.663054 C 108.085573 91.801094 108.10865 91.914027 108.189834 91.914027 C 108.428107 91.914027 109.653824 91.036935 110.587243 90.198493 C 111.062941 89.771204 111.603707 89.421607 111.788947 89.421607 C 111.974193 89.421607 112.125755 89.317163 112.125755 89.189514 C 112.125755 88.655628 113.069864 87.123445 113.721511 86.599767 L 114.42353 86.035612 L 116.141027 86.227127 C 117.085651 86.332454 117.896433 86.380727 117.942763 86.334396 C 117.989141 86.288059 117.890334 85.985866 117.723309 85.66285 C 117.528357 85.285851 117.487806 85.052813 117.610077 85.012059 C 117.71484 84.977138 118.244359 84.406103 118.786788 83.743101 L 119.773017 82.537635 L 119.685599 79.526019 C 119.637537 77.86963 119.479122 75.650431 119.333564 74.594463 C 118.848229 71.073416 119.03842 69.494781 120.415645 65.61245 C 120.991284 63.989753 121.20555 63.114847 121.206283 62.384163 C 121.208063 60.414912 121.907623 59.174097 123.460478 58.384919 C 123.967002 58.127494 124.558878 57.567224 125.168372 56.768232 C 125.681388 56.095729 126.391923 55.310259 126.74736 55.022748 L 127.393595 54.5 L 128.264147 54.94114 C 129.163854 55.397058 130.692077 56.876669 130.885086 57.478713 C 130.945529 57.667097 131.4456 58.061564 131.996458 58.355316 C 133.588906 59.204495 134.3484 60.487579 134.472932 62.539025 C 134.511568 63.175487 134.906925 64.974487 135.351505 66.536809 C 136.058664 69.021874 136.159386 69.590063 136.15631 71.076581 C 136.15453 72.011134 136.071832 73.335977 135.972883 74.020678 C 135.87394 74.705372 135.766583 76.442068 135.734311 77.880007 C 135.685712 80.045331 135.615239 80.616541 135.323952 81.20526 C 134.993514 81.873159 134.990933 81.925004 135.281316 82.063737 C 135.45131 82.144941 135.862015 82.571891 136.193995 83.012511 C 136.525981 83.453139 137.16696 84.088066 137.618392 84.423462 L 138.43917 85.033268 L 137.922602 85.549843 C 137.29829 86.174148 137.262581 86.437875 137.821337 86.297635 C 138.049756 86.240302 138.790811 86.135349 139.468116 86.064401 C 140.660162 85.939529 140.72127 85.952731 141.377013 86.476803 C 143.105356 87.858089 143.332742 88.143766 143.226241 88.800072 C 143.130769 89.388363 143.16099 89.430585 143.915967 89.764562 C 144.350231 89.956654 145.126071 90.507769 145.640065 90.98926 C 146.154046 91.470751 146.794888 91.904744 147.064178 91.953695 C 147.579136 92.0473 147.680462 91.933933 147.364327 91.617797 C 147.230456 91.48392 147.400117 90.891662 147.942933 89.598154 C 148.85824 87.416932 149.279302 87.053848 151.354796 86.656081 C 155.752038 85.81336 155.054706 85.839173 158.353792 86.397039 C 163.654986 87.293466 163.899854 87.364035 166.471278 88.736465 C 167.767672 89.428385 169.108767 90.223193 169.451498 90.502683 C 169.794188 90.782186 170.485381 91.249279 170.987449 91.540688 C 172.176867 92.231019 174.054721 93.975593 174.190452 94.516358 C 174.24902 94.74966 174.39919 94.940544 174.524205 94.940544 C 174.933816 94.940544 176.686125 96.524293 177.474788 97.607263 C 178.103786 98.471031 178.318948 98.649833 178.634174 98.570714 C 178.929583 98.496566 179.11849 98.613798 179.432018 99.065964 C 179.657952 99.391777 180.114858 99.966099 180.447361 100.342243 C 181.32359 101.333442 182.09162 102.604492 182.09162 103.063401 C 182.09162 103.340154 182.213294 103.478548 182.491398 103.518127 C 183.353012 103.640738 185.308246 107.756833 186.620003 112.209479 C 186.980554 113.433438 187.350952 114.573971 187.44307 114.743999 C 187.535201 114.914026 187.610571 115.727694 187.610571 116.552146 C 187.610571 117.943837 187.635047 118.044742 187.953152 117.961562 C 188.468423 117.826822 188.765652 118.571952 189.209845 121.111905 C 189.66724 123.727364 189.846205 127.326477 189.663967 130.243443 L 189.533777 132.32691 L 189.011538 132.32691 C 188.222197 132.32691 187.365866 131.901747 186.998741 131.327527 C 186.818024 131.0449 186.138105 130.292911 185.487782 129.656455 C 184.837472 129.02 184.055778 128.12792 183.750671 127.674043 C 183.401815 127.155091 182.856146 126.659542 182.280324 126.338815 C 181.515214 125.91266 181.232138 125.599784 180.558535 124.435847 C 180.11517 123.669719 179.493276 122.748409 179.176556 122.388496 C 178.859822 122.028583 178.298004 121.313784 177.92804 120.800061 C 177.55809 120.286339 177.154604 119.805649 177.031423 119.731882 C 176.908242 119.658088 176.614192 119.004491 176.378017 118.279423 C 176.059762 117.302329 175.860179 116.948107 175.606999 116.910959 C 175.224023 116.854781 171.053746 112.774734 171.053746 112.456248 C 171.053746 112.344124 170.673229 111.943952 170.208119 111.566993 C 169.230739 110.774854 169.299861 110.842489 168.048643 109.454242 C 167.285882 108.607975 166.814647 108.27152 165.734243 107.80188 C 164.988108 107.477527 164.096191 106.986121 163.752238 106.70985 C 163.278761 106.32957 162.878738 106.186979 162.105452 106.122849 C 161.144453 106.04318 161.084065 106.061428 161.084065 106.432126 C 161.084065 106.648816 161.373103 107.616769 161.726401 108.583133 C 162.570263 110.891386 163.005098 112.39878 163.230773 113.798254 C 163.332195 114.427279 163.529279 115.028134 163.668732 115.133481 C 163.808185 115.238828 164.174617 116.32643 164.483038 117.550389 C 164.91775 119.275533 165.056782 120.249272 165.10155 121.88219 C 165.135819 123.133952 165.243108 124.089558 165.365841 124.237446 C 165.755826 124.707351 166.058162 131.023521 165.773225 132.748311 C 165.679654 133.314734 165.519705 133.525415 164.870958 133.936833 C 164.093026 134.430195 164.089046 134.437679 164.575481 134.494604 C 165.003198 134.544629 165.09897 134.670241 165.29824 135.442441 C 165.641677 136.773294 165.598444 137.300043 164.824098 141.221322 C 164.055674 145.112571 163.658789 146.284684 163.043482 146.479975 C 162.653172 146.603862 162.65324 146.604324 163.14015 147.112546 C 163.586815 147.578783 163.619563 147.707126 163.533123 148.653007 C 163.481223 149.22053 163.271154 150.045376 163.066192 150.485997 C 162.861244 150.926631 162.365057 152.208452 161.963581 153.334493 C 160.896747 156.326693 160.975119 156.181413 160.420254 156.195485 C 160.148887 156.202616 159.766631 156.276845 159.570796 156.361003 C 159.231054 156.507002 159.233091 156.514582 159.615307 156.526521 C 159.911938 156.53577 160.015872 156.646143 160.015872 156.951793 C 160.015872 157.730771 159.447276 159.300964 158.392448 161.434864 C 156.630047 165.000251 156.135558 165.866321 155.597156 166.330698 C 155.040159 166.811115 154.584964 167.546262 154.745253 167.706551 C 154.799733 167.761112 154.96555 167.704771 155.113641 167.582242 C 155.443224 167.308688 155.40124 167.196645 156.012024 169.980325 C 157.428394 176.435499 157.914014 179.631914 158.239752 184.643594 C 158.456287 187.974953 158.298687 190.546825 157.767145 192.356602 C 157.52934 193.166222 157.245829 193.541565 155.796657 194.965283 L 154.103935 196.628287 L 152.83169 196.508963 C 152.131954 196.443359 151.278991 196.318168 150.936247 196.230804 C 150.17236 196.036097 148.181947 194.088483 147.733598 193.096992 L 147.423886 192.412142 L 147.193199 192.901728 C 146.996346 193.319475 146.854693 193.391314 146.227705 193.391314 C 145.519791 193.391314 145.464972 193.348854 144.729458 192.230107 C 143.987521 191.101621 143.971058 191.045267 144.145038 190.229534 C 144.243499 189.767874 144.309687 189.383363 144.292125 189.375064 C 144.27459 189.367051 143.879661 189.142054 143.414551 188.875712 C 142.73296 188.485402 142.568937 188.297921 142.569127 187.909376 C 142.569588 187.161543 143.104418 182.713692 143.300198 181.83097 C 143.444853 181.178691 143.427468 181.014681 143.200135 180.887452 C 143.024349 180.789087 142.924965 180.479443 142.924965 180.030184 C 142.924965 179.584226 142.843523 179.328315 142.702427 179.330719 C 142.580034 179.332499 141.924821 179.694095 141.246409 180.133548 C 139.794588 181.07401 138.987508 181.327598 138.094776 181.123804 C 137.460202 180.978931 137.444609 180.988521 137.248313 181.643706 C 137.138314 182.010818 136.923987 182.414385 136.77201 182.540513 C 136.620034 182.666642 135.318553 183.382216 133.879833 184.1307 C 132.441106 184.879158 131.283682 185.585631 131.307771 185.700636 C 131.331893 185.815626 131.163971 186.411401 130.934703 187.024576 C 130.406366 188.437591 130.008096 190.094048 129.58247 192.648697 C 129.397475 193.759036 129.125517 194.79929 128.977405 194.963083 C 128.829429 195.126726 128.562353 195.700932 128.383898 196.239076 C 128.035714 197.289055 127.681024 197.522404 127.222712 197.003004 L 127.222664 197.003004 Z M 125.34443 106.394617 C 125.222023 106.34521 125.021748 106.34521 124.899341 106.394617 C 124.776954 106.444017 124.877092 106.484405 125.121879 106.484405 C 125.366672 106.484405 125.466817 106.44399 125.34443 106.394617 Z M 124.276237 106.216583 C 124.153851 106.167183 123.953555 106.167183 123.831168 106.216583 C 123.708769 106.26599 123.80892 106.306371 124.0537 106.306371 C 124.298493 106.306371 124.398644 106.265962 124.276237 106.216583 Z"/>
</svg>
