<svg xmlns="http://www.w3.org/2000/svg" style="isolation:isolate" width="256" height="256" viewBox="0 0 256 256">
 <defs>
  <filter id="H6kxtfUKyn7rRnviP89CMbAGrJANDmMA" width="400%" height="400%" x="-200%" y="-200%" color-interpolation-filters="sRGB" filterUnits="objectBoundingBox">
   <feGaussianBlur xmlns="http://www.w3.org/2000/svg" in="SourceGraphic" stdDeviation="4.294"/>
   <feOffset xmlns="http://www.w3.org/2000/svg" dx="0" dy="4" result="pf_100_offsetBlur"/>
   <feFlood xmlns="http://www.w3.org/2000/svg" flood-opacity=".4"/>
   <feComposite xmlns="http://www.w3.org/2000/svg" in2="pf_100_offsetBlur" operator="in" result="pf_100_dropShadow"/>
   <feBlend xmlns="http://www.w3.org/2000/svg" in="SourceGraphic" in2="pf_100_dropShadow" mode="normal"/>
  </filter>
 </defs>
 <g filter="url(#H6kxtfUKyn7rRnviP89CMbAGrJANDmMA)">
  <linearGradient id="_lgradient_10" x1=".339" x2=".083" y1=".648" y2=".943" gradientTransform="matrix(244.648,0,0,228.338,5.682,11.95)" gradientUnits="userSpaceOnUse">
   <stop offset="0%" style="stop-color:#4ce0c6"/>
   <stop offset="100%" style="stop-color:#3b85b5"/>
  </linearGradient>
  <path fill="url(#_lgradient_10)" d="M 165.691 11.95 C 239.746 11.95 250.33 22.507 250.33 96.494 L 250.33 155.745 C 250.33 229.731 239.746 240.288 165.691 240.288 L 90.321 240.288 C 16.265 240.288 5.682 229.731 5.682 155.745 L 5.682 96.494 C 5.682 22.507 16.265 11.95 90.321 11.95 L 165.691 11.95 Z"/>
 </g>
 <linearGradient id="_lgradient_11" x1=".978" x2=".961" y1=".174" y2=".181" gradientTransform="matrix(153.058,0,0,228.34,97.267,11.95)" gradientUnits="userSpaceOnUse">
  <stop offset="0%" stop-opacity=".996" style="stop-color:#ffd7bc"/>
  <stop offset="100%" stop-opacity=".996" style="stop-color:#ffa970"/>
 </linearGradient>
 <path fill="url(#_lgradient_11)" d="M 149.116 240.29 L 165.685 240.29 C 174.942 240.29 183.207 240.126 190.584 239.693 C 194.272 239.476 197.738 239.192 200.995 238.829 C 204.252 238.465 207.3 238.021 210.151 237.485 C 213.003 236.948 215.659 236.318 218.131 235.583 C 220.603 234.848 222.892 234.008 225.01 233.049 C 227.128 232.089 229.075 231.009 230.865 229.8 C 232.655 228.59 234.287 227.25 235.775 225.764 C 237.263 224.278 238.607 222.646 239.819 220.858 C 241.03 219.07 242.109 217.126 243.07 215.011 C 244.031 212.895 244.874 210.609 245.61 208.14 C 246.347 205.671 246.976 203.019 247.514 200.17 C 248.051 197.321 248.495 194.275 248.86 191.022 C 249.224 187.768 249.509 184.305 249.726 180.621 C 250.16 173.251 250.325 164.994 250.325 155.746 L 250.325 96.494 C 250.325 87.246 250.16 78.989 249.726 71.619 C 249.509 67.935 249.224 64.472 248.86 61.218 C 248.495 57.965 248.051 54.921 247.514 52.072 C 246.976 49.223 246.347 46.571 245.61 44.102 C 244.874 41.633 244.031 39.347 243.07 37.231 C 242.109 35.116 241.03 33.17 239.819 31.382 C 238.607 29.594 237.263 27.964 235.775 26.478 C 234.287 24.992 232.655 23.65 230.865 22.44 C 229.075 21.231 227.128 20.153 225.01 19.193 C 222.892 18.234 220.603 17.392 218.131 16.657 C 215.659 15.922 213.003 15.292 210.151 14.755 C 207.3 14.219 204.252 13.775 200.995 13.411 C 197.738 13.048 194.272 12.766 190.584 12.549 C 183.207 12.116 174.942 11.95 165.685 11.95 L 140.981 11.95 L 97.267 185.718 L 149.116 240.29 L 149.116 240.29 Z"/>
 <linearGradient id="_lgradient_12" x1=".985" x2=".382" y1=".102" y2=".902" gradientTransform="matrix(236.744,0,0,176.246,5.802,11.95)" gradientUnits="userSpaceOnUse">
  <stop offset="0%" style="stop-color:#009a56"/>
  <stop offset="100%" style="stop-color:#46a926"/>
 </linearGradient>
 <path fill="url(#_lgradient_12)" d="M 242.546 36.292 C 241.707 34.562 240.835 32.882 239.819 31.382 C 238.607 29.594 237.263 27.964 235.775 26.478 C 234.287 24.992 232.655 23.65 230.865 22.44 C 229.075 21.231 227.128 20.153 225.01 19.193 C 222.892 18.234 220.603 17.392 218.131 16.657 C 215.659 15.922 213.003 15.292 210.151 14.755 C 207.3 14.219 204.252 13.775 200.995 13.411 C 197.738 13.048 194.272 12.766 190.584 12.549 C 183.207 12.116 174.942 11.95 165.685 11.95 L 90.315 11.95 C 81.058 11.95 72.793 12.116 65.416 12.549 C 61.728 12.766 58.26 13.048 55.003 13.411 C 51.746 13.775 48.698 14.219 45.847 14.755 C 42.995 15.292 40.341 15.922 37.869 16.657 C 35.397 17.392 33.108 18.234 30.99 19.193 C 28.872 20.153 26.925 21.231 25.135 22.44 C 23.345 23.65 21.711 24.992 20.223 26.478 C 18.735 27.964 17.393 29.594 16.181 31.382 C 14.97 33.17 13.889 35.116 12.928 37.231 C 11.967 39.347 11.126 41.633 10.39 44.102 C 9.653 46.571 9.024 49.223 8.486 52.072 C 7.949 54.921 7.505 57.965 7.14 61.218 C 6.776 64.472 6.491 67.935 6.274 71.619 C 5.933 77.412 5.862 84.231 5.802 91.171 L 100.051 188.196 L 242.546 36.292 L 242.546 36.292 Z"/>
 <path fill="#f9f9f9" fill-opacity=".996" d="M 6.151 76.756 C 5.891 82.898 5.675 89.156 5.675 96.494 L 5.675 105.864 L 137.111 240.29 L 165.685 240.29 C 165.817 240.29 165.908 240.282 166.039 240.282 L 6.151 76.756 L 6.151 76.756 Z"/>
 <path fill="#fdc92b" d="M 247.169 50.632 C 246.701 48.356 246.214 46.125 245.61 44.102 C 244.874 41.633 244.031 39.347 243.07 37.231 C 242.109 35.116 241.03 33.17 239.819 31.382 C 239.472 30.87 239.03 30.464 238.662 29.978 L 33.56 233.997 C 34.968 234.543 36.321 235.123 37.869 235.583 C 40.341 236.318 42.995 236.948 45.847 237.485 C 48.698 238.021 51.746 238.465 55.003 238.829 C 55.86 238.924 56.857 238.971 57.743 239.056 L 247.169 50.632 L 247.169 50.632 Z"/>
 <ellipse fill="#805a41" cx="175.104" cy="192.004" rx="42.104" ry="15.204" vector-effect="non-scaling-stroke"/>
 <defs>
  <filter id="cTkbtpcgIKXFiM9nPV0i3kgQRiOxTFmM" width="400%" height="400%" x="-200%" y="-200%" color-interpolation-filters="sRGB" filterUnits="objectBoundingBox">
   <feGaussianBlur xmlns="http://www.w3.org/2000/svg" in="SourceGraphic" stdDeviation="4.294"/>
   <feOffset xmlns="http://www.w3.org/2000/svg" dx="0" dy="4" result="pf_100_offsetBlur"/>
   <feFlood xmlns="http://www.w3.org/2000/svg" flood-opacity=".4"/>
   <feComposite xmlns="http://www.w3.org/2000/svg" in2="pf_100_offsetBlur" operator="in" result="pf_100_dropShadow"/>
   <feBlend xmlns="http://www.w3.org/2000/svg" in="SourceGraphic" in2="pf_100_dropShadow" mode="normal"/>
  </filter>
 </defs>
 <g filter="url(#cTkbtpcgIKXFiM9nPV0i3kgQRiOxTFmM)">
  <linearGradient id="_lgradient_13" x1=".467" x2=".481" y1=".005" y2=".994" gradientTransform="matrix(95.461,0,0,134.513,127.041,60)" gradientUnits="userSpaceOnUse">
   <stop offset="0%" style="stop-color:#f61111"/>
   <stop offset="48.272%" style="stop-color:#ff4f4f"/>
   <stop offset="100%" style="stop-color:#ff7a55"/>
  </linearGradient>
  <path fill="url(#_lgradient_13)" d="M 174.771 60 C 148.411 60 127.041 81.079 127.041 107.079 C 127.041 133.084 174.771 194.513 174.771 194.513 C 174.771 194.513 222.501 133.084 222.501 107.079 C 222.501 81.079 201.131 60 174.771 60 Z M 174.771 129.426 C 162.789 129.426 153.075 119.712 153.075 107.73 C 153.075 95.748 162.789 86.035 174.771 86.035 C 186.753 86.035 196.466 95.748 196.466 107.73 C 196.466 119.712 186.753 129.426 174.771 129.426 Z"/>
 </g>
 <g opacity=".4">
  <linearGradient id="_lgradient_14" x1=".517" x2=".517" y1="0" y2="1" gradientTransform="matrix(244.65,0,0,228.34,5.68,11.95)" gradientUnits="userSpaceOnUse">
   <stop offset="0%" style="stop-color:#ffffff"/>
   <stop offset="12.5%" stop-opacity=".098" style="stop-color:#ffffff"/>
   <stop offset="92.5%" stop-opacity=".098" style="stop-color:#000000"/>
   <stop offset="100%" stop-opacity=".498" style="stop-color:#000000"/>
  </linearGradient>
  <path fill="url(#_lgradient_14)" fill-rule="evenodd" d="M 165.068 11.951 C 169.396 11.941 173.724 11.991 178.052 12.089 C 181.927 12.167 185.803 12.315 189.678 12.541 C 193.131 12.737 196.583 13.022 200.026 13.395 C 203.085 13.73 206.144 14.181 209.174 14.741 C 211.889 15.243 214.574 15.881 217.22 16.657 C 219.62 17.355 221.971 18.219 224.243 19.241 C 226.358 20.184 228.384 21.304 230.302 22.591 C 232.142 23.829 233.863 25.244 235.437 26.806 C 237.001 28.378 238.417 30.088 239.656 31.925 C 240.945 33.841 242.066 35.865 243.02 37.967 C 244.043 40.247 244.909 42.585 245.617 44.972 C 246.394 47.615 247.034 50.297 247.535 53.009 C 248.096 56.035 248.548 59.081 248.883 62.136 C 249.257 65.575 249.542 69.014 249.739 72.462 C 249.965 76.323 250.112 80.194 250.201 84.055 C 250.289 88.378 250.339 92.701 250.329 97.014 L 250.329 155.226 C 250.339 159.549 250.289 163.862 250.201 168.185 C 250.112 172.056 249.965 175.917 249.739 179.778 C 249.542 183.226 249.257 186.675 248.883 190.104 C 248.548 193.159 248.096 196.215 247.535 199.241 C 247.034 201.943 246.394 204.625 245.617 207.268 C 244.909 209.655 244.043 212.003 243.02 214.273 C 242.066 216.385 240.945 218.399 239.656 220.315 C 238.417 222.152 237.001 223.872 235.437 225.434 C 233.863 226.996 232.142 228.411 230.302 229.649 C 228.384 230.936 226.358 232.056 224.243 232.999 C 221.971 234.021 219.62 234.885 217.22 235.593 C 214.574 236.369 211.889 237.007 209.174 237.499 C 206.144 238.068 203.085 238.51 200.026 238.845 C 196.583 239.218 193.131 239.503 189.678 239.699 C 185.803 239.925 181.927 240.073 178.052 240.161 C 173.724 240.249 169.396 240.299 165.068 240.289 L 90.942 240.289 C 86.614 240.299 82.286 240.249 77.958 240.161 C 74.083 240.073 70.207 239.925 66.332 239.699 C 62.879 239.503 59.427 239.218 55.984 238.845 C 52.925 238.51 49.866 238.068 46.836 237.499 C 44.121 237.007 41.436 236.369 38.79 235.593 C 36.39 234.885 34.039 234.021 31.767 232.999 C 29.652 232.056 27.626 230.936 25.708 229.649 C 23.868 228.411 22.147 226.996 20.573 225.434 C 19.009 223.872 17.593 222.152 16.354 220.315 C 15.065 218.399 13.944 216.385 12.99 214.273 C 11.967 212.003 11.101 209.655 10.393 207.268 C 9.616 204.625 8.976 201.943 8.475 199.241 C 7.914 196.215 7.462 193.159 7.127 190.104 C 6.753 186.675 6.468 183.226 6.271 179.778 C 6.045 175.917 5.898 172.056 5.809 168.185 C 5.721 163.862 5.671 159.549 5.681 155.226 L 5.681 97.014 C 5.671 92.701 5.721 88.378 5.809 84.055 C 5.898 80.194 6.045 76.323 6.271 72.462 C 6.468 69.014 6.753 65.575 7.127 62.136 C 7.462 59.081 7.914 56.035 8.475 53.009 C 8.976 50.297 9.616 47.615 10.393 44.972 C 11.101 42.585 11.967 40.247 12.99 37.967 C 13.944 35.865 15.065 33.841 16.354 31.925 C 17.593 30.088 19.009 28.378 20.573 26.806 C 22.147 25.244 23.868 23.829 25.708 22.591 C 27.626 21.304 29.652 20.184 31.767 19.241 C 34.039 18.219 36.39 17.355 38.79 16.657 C 41.436 15.881 44.121 15.243 46.836 14.741 C 49.866 14.181 52.925 13.73 55.984 13.395 C 59.427 13.022 62.879 12.737 66.332 12.541 C 70.207 12.315 74.083 12.167 77.958 12.089 C 82.286 11.991 86.614 11.941 90.942 11.951 L 165.068 11.951 Z M 165.078 15.96 C 169.376 15.95 173.675 15.999 177.973 16.087 C 181.8 16.176 185.626 16.323 189.452 16.539 C 192.836 16.736 196.219 17.011 199.583 17.384 C 202.554 17.699 205.515 18.131 208.446 18.681 C 211.023 19.153 213.58 19.762 216.099 20.499 C 218.322 21.147 220.495 21.953 222.6 22.896 C 224.509 23.751 226.338 24.763 228.069 25.922 C 229.692 27.013 231.207 28.26 232.594 29.646 C 233.981 31.031 235.23 32.544 236.332 34.165 C 237.492 35.894 238.506 37.712 239.361 39.608 C 240.306 41.72 241.112 43.892 241.761 46.102 C 242.509 48.617 243.109 51.162 243.591 53.736 C 244.132 56.664 244.565 59.611 244.889 62.578 C 245.263 65.938 245.539 69.308 245.735 72.688 C 245.952 76.51 246.109 80.322 246.188 84.144 C 246.276 88.437 246.325 92.721 246.325 97.014 C 246.325 97.014 246.325 97.014 246.325 97.014 L 246.325 155.226 C 246.325 155.226 246.325 155.226 246.325 155.226 C 246.325 159.519 246.276 163.803 246.188 168.096 C 246.109 171.918 245.952 175.74 245.735 179.552 C 245.539 182.932 245.263 186.302 244.889 189.672 C 244.565 192.629 244.132 195.576 243.591 198.504 C 243.109 201.078 242.509 203.623 241.761 206.138 C 241.112 208.358 240.306 210.52 239.361 212.632 C 238.506 214.528 237.492 216.356 236.332 218.075 C 235.23 219.706 233.981 221.219 232.594 222.604 C 231.207 223.98 229.692 225.227 228.069 226.318 C 226.338 227.477 224.509 228.489 222.6 229.344 C 220.495 230.297 218.322 231.093 216.099 231.741 C 213.58 232.478 211.023 233.087 208.446 233.559 C 205.515 234.109 202.554 234.541 199.583 234.865 C 196.219 235.229 192.836 235.514 189.452 235.701 C 185.626 235.917 181.8 236.074 177.973 236.153 C 173.675 236.251 169.376 236.29 165.078 236.29 C 165.078 236.29 165.078 236.29 165.068 236.29 L 90.942 236.29 C 90.932 236.29 90.932 236.29 90.932 236.29 C 86.634 236.29 82.335 236.251 78.037 236.153 C 74.21 236.074 70.384 235.917 66.558 235.701 C 63.174 235.514 59.791 235.229 56.427 234.865 C 53.456 234.541 50.495 234.109 47.564 233.559 C 44.987 233.087 42.43 232.478 39.911 231.741 C 37.688 231.093 35.515 230.297 33.41 229.344 C 31.501 228.489 29.672 227.477 27.941 226.318 C 26.318 225.227 24.803 223.98 23.416 222.604 C 22.029 221.219 20.78 219.706 19.678 218.075 C 18.518 216.356 17.504 214.528 16.649 212.632 C 15.704 210.52 14.898 208.358 14.249 206.138 C 13.501 203.623 12.901 201.078 12.419 198.504 C 11.878 195.576 11.445 192.629 11.121 189.672 C 10.747 186.302 10.472 182.932 10.275 179.552 C 10.058 175.74 9.901 171.918 9.822 168.096 C 9.734 163.803 9.685 159.519 9.685 155.226 C 9.685 155.226 9.685 155.226 9.685 155.226 L 9.685 97.014 C 9.685 97.014 9.685 97.014 9.685 97.014 C 9.685 92.721 9.734 88.437 9.822 84.144 C 9.901 80.322 10.058 76.51 10.275 72.688 C 10.472 69.308 10.747 65.938 11.121 62.578 C 11.445 59.611 11.878 56.664 12.419 53.736 C 12.901 51.162 13.501 48.617 14.249 46.102 C 14.898 43.892 15.704 41.72 16.649 39.608 C 17.504 37.712 18.518 35.894 19.678 34.165 C 20.78 32.544 22.029 31.031 23.416 29.646 C 24.803 28.26 26.318 27.013 27.941 25.922 C 29.672 24.763 31.501 23.751 33.41 22.896 C 35.515 21.953 37.688 21.147 39.911 20.499 C 42.43 19.762 44.987 19.153 47.564 18.681 C 50.495 18.131 53.456 17.699 56.427 17.384 C 59.791 17.011 63.174 16.736 66.558 16.539 C 70.384 16.323 74.21 16.176 78.037 16.087 C 82.335 15.999 86.634 15.95 90.932 15.96 C 90.932 15.96 90.932 15.96 90.942 15.96 L 165.068 15.96 C 165.078 15.96 165.078 15.96 165.078 15.96 Z"/>
 </g>
</svg>
