<svg xmlns="http://www.w3.org/2000/svg" style="isolation:isolate" width="256" height="256" viewBox="0 0 256 256">
 <defs>
  <filter id="1JveZMMsQMyLZ8eZva52UIoClj7OKOEM" width="400%" height="400%" x="-200%" y="-200%" color-interpolation-filters="sRGB" filterUnits="objectBoundingBox">
   <feGaussianBlur xmlns="http://www.w3.org/2000/svg" in="SourceGraphic" stdDeviation="4.294"/>
   <feOffset xmlns="http://www.w3.org/2000/svg" dx="0" dy="4" result="pf_100_offsetBlur"/>
   <feFlood xmlns="http://www.w3.org/2000/svg" flood-opacity=".4"/>
   <feComposite xmlns="http://www.w3.org/2000/svg" in2="pf_100_offsetBlur" operator="in" result="pf_100_dropShadow"/>
   <feBlend xmlns="http://www.w3.org/2000/svg" in="SourceGraphic" in2="pf_100_dropShadow" mode="normal"/>
  </filter>
 </defs>
 <g filter="url(#1JveZMMsQMyLZ8eZva52UIoClj7OKOEM)">
  <linearGradient id="_lgradient_8" x1="0" x2="0" y1="0" y2="1" gradientTransform="matrix(244.648,0,0,228.338,5.68,11.952)" gradientUnits="userSpaceOnUse">
   <stop offset="0%" style="stop-color:#edc268"/>
   <stop offset="100%" style="stop-color:#9b7424"/>
  </linearGradient>
  <path fill="url(#_lgradient_8)" d="M 165.689 11.952 C 239.745 11.952 250.328 22.509 250.328 96.495 L 250.328 155.746 C 250.328 229.733 239.745 240.29 165.689 240.29 L 90.319 240.29 C 16.264 240.29 5.68 229.733 5.68 155.746 L 5.68 96.495 C 5.68 22.509 16.264 11.952 90.319 11.952 L 165.689 11.952 Z"/>
 </g>
 <path fill="#3eb34f" d="M 66.723 72.927 L 66.723 64.214 L 51.476 64.214 L 36.229 64.214 L 36.229 55.502 L 36.229 46.79 L 27.517 46.79 L 18.804 46.79 L 18.804 55.502 L 18.804 64.214 L 12.996 64.214 L 7.188 64.214 L 7.19 62.853 C 7.196 58.243 10.035 44.663 12.052 39.589 C 17.702 25.378 27.831 18.117 46.757 14.71 C 60.165 12.297 70.391 11.95 128.073 11.948 C 174.349 11.947 187.296 12.179 198.137 13.205 C 222.497 15.509 234.925 21.781 241.922 35.302 C 243.45 38.254 246.053 45.195 246.053 46.316 C 246.053 46.689 244.583 46.79 239.156 46.79 L 232.259 46.79 L 232.259 55.507 L 232.259 64.224 L 219.281 64.128 L 206.303 64.033 L 206.206 55.411 L 206.108 46.79 L 197.402 46.79 L 188.697 46.79 L 188.697 55.502 L 188.697 64.214 L 182.162 64.214 L 175.628 64.214 L 175.628 72.927 L 175.628 81.639 L 166.916 81.639 L 158.203 81.639 L 158.203 72.927 L 158.203 64.214 L 149.491 64.214 L 140.778 64.214 L 140.778 72.927 L 140.778 81.639 L 134.244 81.639 L 127.71 81.639 L 127.71 64.214 L 127.71 46.79 L 121.175 46.79 L 114.641 46.79 L 114.641 55.502 L 114.641 64.214 L 105.929 64.214 L 97.216 64.214 L 97.216 44.611 L 97.216 25.009 L 90.682 25.009 L 84.147 25.009 L 84.147 53.324 L 84.147 81.639 L 75.435 81.639 L 66.723 81.639 L 66.723 72.927 Z"/>
 <g opacity=".4">
  <linearGradient id="_lgradient_9" x1=".517" x2=".517" y1="0" y2="1" gradientTransform="matrix(244.65,0,0,228.34,5.68,11.95)" gradientUnits="userSpaceOnUse">
   <stop offset="0%" style="stop-color:#ffffff"/>
   <stop offset="12.5%" stop-opacity=".098" style="stop-color:#ffffff"/>
   <stop offset="92.5%" stop-opacity=".098" style="stop-color:#000000"/>
   <stop offset="100%" stop-opacity=".498" style="stop-color:#000000"/>
  </linearGradient>
  <path fill="url(#_lgradient_9)" fill-rule="evenodd" d="M 165.068 11.951 C 169.396 11.941 173.724 11.991 178.052 12.089 C 181.927 12.167 185.803 12.315 189.678 12.541 C 193.131 12.737 196.583 13.022 200.026 13.395 C 203.085 13.73 206.144 14.181 209.174 14.741 C 211.889 15.243 214.574 15.881 217.22 16.657 C 219.62 17.355 221.971 18.219 224.243 19.241 C 226.358 20.184 228.384 21.304 230.302 22.591 C 232.142 23.829 233.863 25.244 235.437 26.806 C 237.001 28.378 238.417 30.088 239.656 31.925 C 240.945 33.841 242.066 35.865 243.02 37.967 C 244.043 40.247 244.909 42.585 245.617 44.972 C 246.394 47.615 247.034 50.297 247.535 53.009 C 248.096 56.035 248.548 59.081 248.883 62.136 C 249.257 65.575 249.542 69.014 249.739 72.462 C 249.965 76.323 250.112 80.194 250.201 84.055 C 250.289 88.378 250.339 92.701 250.329 97.014 L 250.329 155.226 C 250.339 159.549 250.289 163.862 250.201 168.185 C 250.112 172.056 249.965 175.917 249.739 179.778 C 249.542 183.226 249.257 186.675 248.883 190.104 C 248.548 193.159 248.096 196.215 247.535 199.241 C 247.034 201.943 246.394 204.625 245.617 207.268 C 244.909 209.655 244.043 212.003 243.02 214.273 C 242.066 216.385 240.945 218.399 239.656 220.315 C 238.417 222.152 237.001 223.872 235.437 225.434 C 233.863 226.996 232.142 228.411 230.302 229.649 C 228.384 230.936 226.358 232.056 224.243 232.999 C 221.971 234.021 219.62 234.885 217.22 235.593 C 214.574 236.369 211.889 237.007 209.174 237.499 C 206.144 238.068 203.085 238.51 200.026 238.845 C 196.583 239.218 193.131 239.503 189.678 239.699 C 185.803 239.925 181.927 240.073 178.052 240.161 C 173.724 240.249 169.396 240.299 165.068 240.289 L 90.942 240.289 C 86.614 240.299 82.286 240.249 77.958 240.161 C 74.083 240.073 70.207 239.925 66.332 239.699 C 62.879 239.503 59.427 239.218 55.984 238.845 C 52.925 238.51 49.866 238.068 46.836 237.499 C 44.121 237.007 41.436 236.369 38.79 235.593 C 36.39 234.885 34.039 234.021 31.767 232.999 C 29.652 232.056 27.626 230.936 25.708 229.649 C 23.868 228.411 22.147 226.996 20.573 225.434 C 19.009 223.872 17.593 222.152 16.354 220.315 C 15.065 218.399 13.944 216.385 12.99 214.273 C 11.967 212.003 11.101 209.655 10.393 207.268 C 9.616 204.625 8.976 201.943 8.475 199.241 C 7.914 196.215 7.462 193.159 7.127 190.104 C 6.753 186.675 6.468 183.226 6.271 179.778 C 6.045 175.917 5.898 172.056 5.809 168.185 C 5.721 163.862 5.671 159.549 5.681 155.226 L 5.681 97.014 C 5.671 92.701 5.721 88.378 5.809 84.055 C 5.898 80.194 6.045 76.323 6.271 72.462 C 6.468 69.014 6.753 65.575 7.127 62.136 C 7.462 59.081 7.914 56.035 8.475 53.009 C 8.976 50.297 9.616 47.615 10.393 44.972 C 11.101 42.585 11.967 40.247 12.99 37.967 C 13.944 35.865 15.065 33.841 16.354 31.925 C 17.593 30.088 19.009 28.378 20.573 26.806 C 22.147 25.244 23.868 23.829 25.708 22.591 C 27.626 21.304 29.652 20.184 31.767 19.241 C 34.039 18.219 36.39 17.355 38.79 16.657 C 41.436 15.881 44.121 15.243 46.836 14.741 C 49.866 14.181 52.925 13.73 55.984 13.395 C 59.427 13.022 62.879 12.737 66.332 12.541 C 70.207 12.315 74.083 12.167 77.958 12.089 C 82.286 11.991 86.614 11.941 90.942 11.951 L 165.068 11.951 Z M 165.078 15.96 C 169.376 15.95 173.675 15.999 177.973 16.087 C 181.8 16.176 185.626 16.323 189.452 16.539 C 192.836 16.736 196.219 17.011 199.583 17.384 C 202.554 17.699 205.515 18.131 208.446 18.681 C 211.023 19.153 213.58 19.762 216.099 20.499 C 218.322 21.147 220.495 21.953 222.6 22.896 C 224.509 23.751 226.338 24.763 228.069 25.922 C 229.692 27.013 231.207 28.26 232.594 29.646 C 233.981 31.031 235.23 32.544 236.332 34.165 C 237.492 35.894 238.506 37.712 239.361 39.608 C 240.306 41.72 241.112 43.892 241.761 46.102 C 242.509 48.617 243.109 51.162 243.591 53.736 C 244.132 56.664 244.565 59.611 244.889 62.578 C 245.263 65.938 245.539 69.308 245.735 72.688 C 245.952 76.51 246.109 80.322 246.188 84.144 C 246.276 88.437 246.325 92.721 246.325 97.014 C 246.325 97.014 246.325 97.014 246.325 97.014 L 246.325 155.226 C 246.325 155.226 246.325 155.226 246.325 155.226 C 246.325 159.519 246.276 163.803 246.188 168.096 C 246.109 171.918 245.952 175.74 245.735 179.552 C 245.539 182.932 245.263 186.302 244.889 189.672 C 244.565 192.629 244.132 195.576 243.591 198.504 C 243.109 201.078 242.509 203.623 241.761 206.138 C 241.112 208.358 240.306 210.52 239.361 212.632 C 238.506 214.528 237.492 216.356 236.332 218.075 C 235.23 219.706 233.981 221.219 232.594 222.604 C 231.207 223.98 229.692 225.227 228.069 226.318 C 226.338 227.477 224.509 228.489 222.6 229.344 C 220.495 230.297 218.322 231.093 216.099 231.741 C 213.58 232.478 211.023 233.087 208.446 233.559 C 205.515 234.109 202.554 234.541 199.583 234.865 C 196.219 235.229 192.836 235.514 189.452 235.701 C 185.626 235.917 181.8 236.074 177.973 236.153 C 173.675 236.251 169.376 236.29 165.078 236.29 C 165.078 236.29 165.078 236.29 165.068 236.29 L 90.942 236.29 C 90.932 236.29 90.932 236.29 90.932 236.29 C 86.634 236.29 82.335 236.251 78.037 236.153 C 74.21 236.074 70.384 235.917 66.558 235.701 C 63.174 235.514 59.791 235.229 56.427 234.865 C 53.456 234.541 50.495 234.109 47.564 233.559 C 44.987 233.087 42.43 232.478 39.911 231.741 C 37.688 231.093 35.515 230.297 33.41 229.344 C 31.501 228.489 29.672 227.477 27.941 226.318 C 26.318 225.227 24.803 223.98 23.416 222.604 C 22.029 221.219 20.78 219.706 19.678 218.075 C 18.518 216.356 17.504 214.528 16.649 212.632 C 15.704 210.52 14.898 208.358 14.249 206.138 C 13.501 203.623 12.901 201.078 12.419 198.504 C 11.878 195.576 11.445 192.629 11.121 189.672 C 10.747 186.302 10.472 182.932 10.275 179.552 C 10.058 175.74 9.901 171.918 9.822 168.096 C 9.734 163.803 9.685 159.519 9.685 155.226 C 9.685 155.226 9.685 155.226 9.685 155.226 L 9.685 97.014 C 9.685 97.014 9.685 97.014 9.685 97.014 C 9.685 92.721 9.734 88.437 9.822 84.144 C 9.901 80.322 10.058 76.51 10.275 72.688 C 10.472 69.308 10.747 65.938 11.121 62.578 C 11.445 59.611 11.878 56.664 12.419 53.736 C 12.901 51.162 13.501 48.617 14.249 46.102 C 14.898 43.892 15.704 41.72 16.649 39.608 C 17.504 37.712 18.518 35.894 19.678 34.165 C 20.78 32.544 22.029 31.031 23.416 29.646 C 24.803 28.26 26.318 27.013 27.941 25.922 C 29.672 24.763 31.501 23.751 33.41 22.896 C 35.515 21.953 37.688 21.147 39.911 20.499 C 42.43 19.762 44.987 19.153 47.564 18.681 C 50.495 18.131 53.456 17.699 56.427 17.384 C 59.791 17.011 63.174 16.736 66.558 16.539 C 70.384 16.323 74.21 16.176 78.037 16.087 C 82.335 15.999 86.634 15.95 90.932 15.96 C 90.932 15.96 90.932 15.96 90.942 15.96 L 165.068 15.96 C 165.078 15.96 165.078 15.96 165.078 15.96 Z"/>
 </g>
 <g>
  <defs>
   <filter id="qlX4SFGgbF3zxNjw2xqHNx30KYIRDI7G" width="400%" height="400%" x="-200%" y="-200%" color-interpolation-filters="sRGB" filterUnits="objectBoundingBox">
    <feGaussianBlur xmlns="http://www.w3.org/2000/svg" stdDeviation="4.294"/>
   </filter>
  </defs>
  <g opacity=".4" filter="url(#qlX4SFGgbF3zxNjw2xqHNx30KYIRDI7G)">
   <path d="M 170.757 186.25 C 159.15 186.25 143.986 179.203 129.156 166.914 L 128 165.954 L 126.844 166.914 C 112.014 179.203 96.85 186.25 85.243 186.25 C 69.841 186.25 57.313 171.612 57.313 153.625 C 57.313 135.638 69.841 121 85.243 121 C 96.912 121 112.072 128.022 126.844 140.26 L 128 141.22 L 129.156 140.26 C 143.925 128.018 159.088 121 170.757 121 C 186.16 121 198.688 135.638 198.688 153.625 C 198.688 171.612 186.159 186.25 170.757 186.25 Z M 166.827 141.974 C 161.854 141.974 155.307 145.222 146.227 152.19 L 144.356 153.625 L 146.23 155.061 C 155.311 162.028 161.858 165.276 166.831 165.276 C 173.073 165.276 178.148 160.049 178.148 153.625 C 178.148 147.202 173.07 141.974 166.827 141.974 Z M 89.173 141.974 C 82.93 141.974 77.855 147.202 77.855 153.625 C 77.855 160.049 82.93 165.276 89.173 165.276 C 94.146 165.276 100.693 162.028 109.774 155.061 L 111.648 153.625 L 109.774 152.189 C 100.693 145.219 94.146 141.974 89.173 141.974 Z"/>
  </g>
  <linearGradient id="_lgradient_10" x1=".5" x2=".5" y1="0" y2="1" gradientTransform="matrix(141.375,0,0,65.25,57.313,115.563)" gradientUnits="userSpaceOnUse">
   <stop offset="0%" style="stop-color:#1ad6ab"/>
   <stop offset="100%" style="stop-color:#329db6"/>
  </linearGradient>
  <path fill="url(#_lgradient_10)" d="M 170.757 180.813 C 159.15 180.813 143.986 173.765 129.156 161.477 L 128 160.516 L 126.844 161.477 C 112.014 173.765 96.85 180.813 85.243 180.813 C 69.841 180.813 57.313 166.175 57.313 148.188 C 57.313 130.2 69.841 115.563 85.243 115.563 C 96.912 115.563 112.072 122.584 126.844 134.822 L 128 135.783 L 129.156 134.822 C 143.925 122.58 159.088 115.563 170.757 115.563 C 186.159 115.563 198.688 130.2 198.688 148.188 C 198.688 166.175 186.159 180.813 170.757 180.813 Z M 166.827 136.537 C 161.854 136.537 155.307 139.785 146.226 146.752 L 144.356 148.188 L 146.23 149.623 C 155.311 156.59 161.858 159.838 166.831 159.838 C 173.073 159.838 178.148 154.611 178.148 148.188 C 178.148 141.764 173.07 136.537 166.827 136.537 Z M 89.173 136.537 C 82.93 136.537 77.855 141.764 77.855 148.188 C 77.855 154.611 82.93 159.838 89.173 159.838 C 94.146 159.838 100.693 156.59 109.774 149.623 L 111.648 148.188 L 109.774 146.752 C 100.693 139.781 94.146 136.537 89.173 136.537 Z"/>
  <linearGradient id="_lgradient_11" x1="0" x2="0" y1="0" y2="1" gradientTransform="matrix(145,0,0,68.875,55.5,113.75)" gradientUnits="userSpaceOnUse">
   <stop offset="0%" style="stop-color:#00f260"/>
   <stop offset="100%" style="stop-color:#0575e6"/>
  </linearGradient>
  <path fill="url(#_lgradient_11)" d="M 170.757 117.375 C 185.159 117.375 196.875 131.197 196.875 148.188 C 196.875 165.178 185.159 179 170.757 179 C 159.73 179 144.61 171.928 130.313 160.078 L 128 158.164 L 125.687 160.081 C 111.39 171.928 96.27 179 85.243 179 C 70.841 179 59.125 165.178 59.125 148.188 C 59.125 131.197 70.841 117.375 85.243 117.375 C 96.328 117.375 111.445 124.418 125.687 136.221 L 128 138.135 L 130.313 136.218 C 144.552 124.418 159.672 117.375 170.757 117.375 Z M 166.827 161.651 C 174.07 161.651 179.961 155.611 179.961 148.188 C 179.961 140.764 174.07 134.724 166.827 134.724 C 161.433 134.724 154.539 138.088 145.128 145.313 L 141.38 148.188 L 145.125 151.062 C 154.539 158.287 161.433 161.651 166.827 161.651 Z M 89.173 161.651 C 94.567 161.651 101.461 158.287 110.872 151.062 L 114.617 148.188 L 110.872 145.313 C 101.461 138.088 94.567 134.724 89.173 134.724 C 81.93 134.724 76.039 140.764 76.039 148.188 C 76.039 155.611 81.934 161.651 89.173 161.651 Z M 170.757 113.75 C 158.526 113.75 142.801 121.163 128 133.43 C 113.199 121.163 97.474 113.75 85.243 113.75 C 68.884 113.75 55.5 129.247 55.5 148.188 C 55.5 167.128 68.884 182.625 85.243 182.625 C 97.474 182.625 113.196 175.136 128 162.869 C 142.801 175.136 158.526 182.625 170.757 182.625 C 187.117 182.625 200.5 167.128 200.5 148.188 C 200.5 129.247 187.117 113.75 170.757 113.75 Z M 166.827 158.026 C 161.763 158.026 154.898 153.991 147.336 148.188 C 154.898 142.384 161.767 138.349 166.827 138.349 C 172.069 138.349 176.336 142.765 176.336 148.188 C 176.336 153.611 172.069 158.026 166.827 158.026 Z M 89.173 158.026 C 83.931 158.026 79.664 153.611 79.664 148.188 C 79.664 142.765 83.931 138.349 89.173 138.349 C 94.237 138.349 101.103 142.384 108.664 148.188 C 101.106 153.991 94.237 158.026 89.173 158.026 Z"/>
  <linearGradient id="_lgradient_12" x1="-1.488" x2="-1.476" y1="-.69" y2="1.605" gradientTransform="matrix(38.671,0,0,29.515,108.664,133.43)" gradientUnits="userSpaceOnUse">
   <stop offset="0%" style="stop-color:#00f260"/>
   <stop offset="100%" style="stop-color:#0575e6"/>
  </linearGradient>
  <path fill="url(#_lgradient_12)" d="M 128 133.43 C 126.108 134.971 128.99 132.618 125.187 135.812 C 123.588 137.153 116.306 142.815 111.793 146.023 C 107.606 148.996 109.676 147.484 108.664 148.191 C 108.664 148.191 111.075 150.91 114.617 148.191 C 117.614 145.889 125.354 140.329 127.996 138.139 C 129.356 137.012 130.113 136.37 131.741 135.054 L 128 133.43 Z M 128 162.945 C 129.892 161.404 127.01 163.757 130.813 160.563 C 132.412 159.222 139.694 153.56 144.207 150.352 C 148.394 147.379 146.324 148.891 147.336 148.184 C 147.336 148.184 144.925 145.465 141.384 148.184 C 138.386 150.486 130.646 156.046 128.004 158.236 C 126.644 159.363 125.887 160.005 124.259 161.321 L 128 162.945 Z"/>
 </g>
</svg>
