<svg xmlns="http://www.w3.org/2000/svg" style="isolation:isolate" width="256" height="256" viewBox="0 0 256 256">
 <defs>
  <clipPath id="_clipPath_AytTz95Vz3SBBfr14nGKlPtxxdTbv5dl">
   <rect width="256" height="256"/>
  </clipPath>
 </defs>
 <g clip-path="url(#_clipPath_AytTz95Vz3SBBfr14nGKlPtxxdTbv5dl)">
  <defs>
   <filter id="QXJiWqu7UKEENfbN1HTYMdrhHV2GUX5u" width="400%" height="400%" x="-200%" y="-200%" color-interpolation-filters="sRGB" filterUnits="objectBoundingBox">
    <feGaussianBlur xmlns="http://www.w3.org/2000/svg" in="SourceGraphic" stdDeviation="4.294"/>
    <feOffset xmlns="http://www.w3.org/2000/svg" dx="0" dy="4" result="pf_100_offsetBlur"/>
    <feFlood xmlns="http://www.w3.org/2000/svg" flood-opacity=".4"/>
    <feComposite xmlns="http://www.w3.org/2000/svg" in2="pf_100_offsetBlur" operator="in" result="pf_100_dropShadow"/>
    <feBlend xmlns="http://www.w3.org/2000/svg" in="SourceGraphic" in2="pf_100_dropShadow" mode="normal"/>
   </filter>
  </defs>
  <g filter="url(#QXJiWqu7UKEENfbN1HTYMdrhHV2GUX5u)">
   <linearGradient id="_lgradient_17" x1="0" x2="0" y1="0" y2="1" gradientTransform="matrix(244.648309,0,0,228.338396,5.68,11.95)" gradientUnits="userSpaceOnUse">
    <stop offset="0%" style="stop-color:#4c5561"/>
    <stop offset="100%" style="stop-color:#2e3842"/>
   </linearGradient>
   <path fill="url(#_lgradient_17)" d="M 165.688919 11.95 C 239.744626 11.95 250.328309 22.507198 250.328309 96.493859 L 250.328309 155.744653 C 250.328309 229.73091 239.744626 240.288396 165.688919 240.288396 L 90.319393 240.288396 C 16.26369 240.288396 5.68 229.73091 5.68 155.744653 L 5.68 96.493859 C 5.68 22.507198 16.26369 11.95 90.319393 11.95 L 165.688919 11.95 Z"/>
  </g>
  <g opacity=".4">
   <linearGradient id="_lgradient_18" x1=".517" x2=".517" y1="0" y2="1" gradientTransform="matrix(244.65,0,0,228.34,5.68,11.95)" gradientUnits="userSpaceOnUse">
    <stop offset="0%" style="stop-color:#ffffff"/>
    <stop offset="12.5%" stop-opacity=".098" style="stop-color:#ffffff"/>
    <stop offset="92.5%" stop-opacity=".098" style="stop-color:#000000"/>
    <stop offset="100%" stop-opacity=".498" style="stop-color:#000000"/>
   </linearGradient>
   <path fill="url(#_lgradient_18)" fill-rule="evenodd" d="M 165.06803 11.951234 C 169.395994 11.941409 173.723944 11.990533 178.051908 12.088781 C 181.927398 12.167379 185.802873 12.31475 189.678362 12.540721 C 193.1309 12.737216 196.583423 13.022134 200.026115 13.395476 C 203.085193 13.729518 206.144271 14.181458 209.173842 14.741469 C 211.888645 15.242533 214.57394 15.881143 217.219897 16.6573 C 219.619947 17.354858 221.970814 18.219439 224.242988 19.241215 C 226.357793 20.184394 228.384061 21.304417 230.302129 22.591462 C 232.141505 23.829383 233.862851 25.244151 235.436659 26.80629 C 237.000621 28.378252 238.417046 30.087764 239.656409 31.924995 C 240.944972 33.840824 242.066305 35.864728 243.020409 37.967229 C 244.043389 40.246576 244.908985 42.584873 245.617197 44.972292 C 246.394255 47.615155 247.033606 50.297317 247.535265 53.008956 C 248.095924 56.034984 248.548399 59.080665 248.882828 62.13617 C 249.256611 65.574836 249.541856 69.013506 249.738578 72.462003 C 249.964823 76.323139 250.112361 80.194101 250.200884 84.055237 C 250.289421 88.378131 250.338591 92.701032 250.32876 97.014106 L 250.32876 155.225886 C 250.338591 159.54878 250.289421 163.861854 250.200884 168.184747 C 250.112361 172.05571 249.964823 175.916853 249.738578 179.777981 C 249.541856 183.226485 249.256611 186.674975 248.882828 190.103826 C 248.548399 193.15933 248.095924 196.214835 247.535265 199.240851 C 247.033606 201.942664 246.394255 204.624837 245.617197 207.267703 C 244.908985 209.655115 244.043389 212.003235 243.020409 214.272755 C 242.066305 216.38509 240.944972 218.399156 239.656409 220.314999 C 238.417046 222.152226 237.000621 223.871561 235.436659 225.433697 C 233.862851 226.995832 232.141505 228.410601 230.302129 229.648532 C 228.384061 230.935575 226.357793 232.055598 224.242988 232.998768 C 221.970814 234.020552 219.619947 234.885137 217.219897 235.592507 C 214.57394 236.368672 211.888645 237.007276 209.173842 237.498515 C 206.144271 238.068354 203.085193 238.510465 200.026115 238.844519 C 196.583423 239.21785 193.1309 239.502777 189.678362 239.699269 C 185.802873 239.925235 181.927398 240.072615 178.051908 240.161035 C 173.723944 240.249454 169.395994 240.298581 165.06803 240.288762 L 90.941963 240.288762 C 86.614006 240.298581 82.286049 240.249454 77.9581 240.161035 C 74.08261 240.072615 70.20712 239.925235 66.331638 239.699269 C 62.879108 239.502777 59.426578 239.21785 55.983886 238.844519 C 52.924808 238.510465 49.865733 238.068354 46.836162 237.498515 C 44.121356 237.007276 41.436057 236.368672 38.7901 235.592507 C 36.390053 234.885137 34.039187 234.020552 31.767009 232.998768 C 29.652213 232.055598 27.625943 230.935575 25.707871 229.648532 C 23.868489 228.410601 22.147143 226.995832 20.573343 225.433697 C 19.009377 223.871561 17.592955 222.152226 16.353586 220.314999 C 15.065036 218.399156 13.943701 216.38509 12.989584 214.272755 C 11.966612 212.003235 11.101021 209.655115 10.392811 207.267703 C 9.615746 204.624837 8.976389 201.942664 8.47474 199.240851 C 7.914072 196.214835 7.461604 193.15933 7.127172 190.103826 C 6.753394 186.674975 6.468142 183.226485 6.271417 179.777981 C 6.045183 175.916853 5.897639 172.05571 5.809112 168.184747 C 5.720586 163.861854 5.671405 159.54878 5.681241 155.225886 L 5.681241 97.014106 C 5.671405 92.701032 5.720586 88.378131 5.809112 84.055237 C 5.897639 80.194101 6.045183 76.323139 6.271417 72.462003 C 6.468142 69.013506 6.753394 65.574836 7.127172 62.13617 C 7.461604 59.080665 7.914072 56.034984 8.47474 53.008956 C 8.976389 50.297317 9.615746 47.615155 10.392811 44.972292 C 11.101021 42.584873 11.966612 40.246576 12.989584 37.967229 C 13.943701 35.864728 15.065036 33.840824 16.353586 31.924995 C 17.592955 30.087764 19.009377 28.378252 20.573343 26.80629 C 22.147143 25.244151 23.868489 23.829383 25.707871 22.591462 C 27.625943 21.304417 29.652213 20.184394 31.767009 19.241215 C 34.039187 18.219439 36.390053 17.354858 38.7901 16.6573 C 41.436057 15.881143 44.121356 15.242533 46.836162 14.741469 C 49.865733 14.181458 52.924808 13.729518 55.983886 13.395476 C 59.426578 13.022134 62.879108 12.737216 66.331638 12.540721 C 70.20712 12.31475 74.08261 12.167379 77.9581 12.088781 C 82.286049 11.990533 86.614006 11.941409 90.941963 11.951234 L 165.06803 11.951234 Z M 165.077876 15.959741 C 169.376317 15.949916 173.674759 15.99904 177.973216 16.087463 C 181.799522 16.175886 185.625827 16.323257 189.452133 16.539402 C 192.835809 16.735898 196.219486 17.010992 199.583486 17.384332 C 202.554026 17.698726 205.514751 18.131016 208.445953 18.681203 C 211.023049 19.152792 213.580483 19.761928 216.098564 20.498786 C 218.321569 21.147221 220.495374 21.952852 222.600334 22.896029 C 224.508571 23.750785 226.338116 24.762737 228.069293 25.922059 C 229.692286 27.012609 231.207063 28.260355 232.59398 29.645648 C 233.980897 31.030941 235.230091 32.543956 236.331763 34.165043 C 237.492434 35.894202 238.505568 37.711787 239.361333 39.607968 C 240.305606 41.720292 241.112187 43.891565 241.761369 46.102139 C 242.508934 48.617282 243.108947 51.161898 243.590914 53.735987 C 244.131912 56.663768 244.564709 59.6112 244.889308 62.578282 C 245.263091 65.938355 245.538505 69.308252 245.735227 72.687976 C 245.951626 76.509812 246.10901 80.321821 246.187687 84.143656 C 246.276225 88.437084 246.325394 92.720685 246.325394 97.014106 C 246.325394 97.014106 246.325394 97.014106 246.325394 97.014106 L 246.325394 155.225886 C 246.325394 155.225886 246.325394 155.225886 246.325394 155.225886 C 246.325394 159.519306 246.276225 163.802907 246.187687 168.096328 C 246.10901 171.918164 245.951626 175.739999 245.735227 179.552015 C 245.538505 182.931739 245.263091 186.301629 244.889308 189.671533 C 244.564709 192.628784 244.131912 195.576216 243.590914 198.503994 C 243.108947 201.078094 242.508934 203.622706 241.761369 206.137845 C 241.112187 208.358253 240.305606 210.5197 239.361333 212.63202 C 238.505568 214.528209 237.492434 216.355617 236.331763 218.074952 C 235.230091 219.705853 233.980897 221.218876 232.59398 222.604172 C 231.207063 223.979634 229.692286 225.227385 228.069293 226.317935 C 226.338116 227.477251 224.508571 228.489201 222.600334 229.343951 C 220.495374 230.296956 218.321569 231.092775 216.098564 231.741198 C 213.580483 232.478056 211.023049 233.087202 208.445953 233.558787 C 205.514751 234.108972 202.554026 234.541264 199.583486 234.865483 C 196.219486 235.228995 192.835809 235.513922 189.452133 235.70058 C 185.625827 235.916726 181.799522 236.073926 177.973216 236.152526 C 173.674759 236.25078 169.376317 236.290072 165.077876 236.290072 C 165.077876 236.290072 165.077876 236.290072 165.06803 236.290072 L 90.941963 236.290072 C 90.932125 236.290072 90.932125 236.290072 90.932125 236.290072 C 86.633683 236.290072 82.335234 236.25078 78.036784 236.152526 C 74.210479 236.073926 70.384173 235.916726 66.557868 235.70058 C 63.174195 235.513922 59.790522 235.228995 56.426518 234.865483 C 53.455967 234.541264 50.495253 234.108972 47.564048 233.558787 C 44.986944 233.087202 42.429517 232.478056 39.911433 231.741198 C 37.688439 231.092775 35.514626 230.296956 33.409665 229.343951 C 31.501429 228.489201 29.671886 227.477251 27.940703 226.317935 C 26.31772 225.227385 24.802935 223.979634 23.416022 222.604172 C 22.029109 221.218876 20.779904 219.705853 19.678243 218.074952 C 18.517564 216.355617 17.504428 214.528209 16.648674 212.63202 C 15.704392 210.5197 14.897819 208.358253 14.248626 206.137845 C 13.50107 203.622706 12.901057 201.078094 12.419081 198.503994 C 11.878086 195.576216 11.445291 192.628784 11.120694 189.671533 C 10.746916 186.301629 10.471501 182.931739 10.274776 179.552015 C 10.058378 175.739999 9.900997 171.918164 9.822307 168.096328 C 9.733781 163.802907 9.6846 159.519306 9.6846 155.225886 C 9.6846 155.225886 9.6846 155.225886 9.6846 155.225886 L 9.6846 97.014106 C 9.6846 97.014106 9.6846 97.014106 9.6846 97.014106 C 9.6846 92.720685 9.733781 88.437084 9.822307 84.143656 C 9.900997 80.321821 10.058378 76.509812 10.274776 72.687976 C 10.471501 69.308252 10.746916 65.938355 11.120694 62.578282 C 11.445291 59.6112 11.878086 56.663768 12.419081 53.735987 C 12.901057 51.161898 13.50107 48.617282 14.248626 46.102139 C 14.897819 43.891565 15.704392 41.720292 16.648674 39.607968 C 17.504428 37.711787 18.517564 35.894202 19.678243 34.165043 C 20.779904 32.543956 22.029109 31.030941 23.416022 29.645648 C 24.802935 28.260355 26.31772 27.012609 27.940703 25.922059 C 29.671886 24.762737 31.501429 23.750785 33.409665 22.896029 C 35.514626 21.952852 37.688439 21.147221 39.911433 20.498786 C 42.429517 19.761928 44.986944 19.152792 47.564048 18.681203 C 50.495253 18.131016 53.455967 17.698726 56.426518 17.384332 C 59.790522 17.010992 63.174195 16.735898 66.557868 16.539402 C 70.384173 16.323257 74.210479 16.175886 78.036784 16.087463 C 82.335234 15.99904 86.633683 15.949916 90.932125 15.959741 C 90.932125 15.959741 90.932125 15.959741 90.941963 15.959741 L 165.06803 15.959741 C 165.077876 15.959741 165.077876 15.959741 165.077876 15.959741 Z"/>
  </g>
  <linearGradient id="_lgradient_19" x1="0" x2="1" y1=".5" y2=".5" gradientTransform="matrix(145,0,0,141.899542,55.5,57.050081)" gradientUnits="userSpaceOnUse">
   <stop offset="0%" style="stop-color:#00a0db"/>
   <stop offset="10%" style="stop-color:#1b64af"/>
   <stop offset="20%" style="stop-color:#362883"/>
   <stop offset="30%" style="stop-color:#8d1480"/>
   <stop offset="40%" style="stop-color:#e4007c"/>
   <stop offset="50%" style="stop-color:#e30f4f"/>
   <stop offset="60%" style="stop-color:#e21f21"/>
   <stop offset="70%" style="stop-color:#f08310"/>
   <stop offset="80%" style="stop-color:#fee800"/>
   <stop offset="90%" style="stop-color:#7fbe23"/>
   <stop offset="100%" style="stop-color:#009346"/>
  </linearGradient>
  <path fill="url(#_lgradient_19)" d="M 65.994273 130.428721 L 66.737391 135.367736 L 56.850299 136.863034 L 56.107182 131.905895 C 55.699373 129.232483 55.5 126.513762 55.5 123.785975 C 55.509062 119.581018 55.962183 115.385119 56.841237 111.270784 C 57.702166 107.183639 58.934654 103.168992 60.502451 99.290276 C 63.583671 91.668789 67.78863 84.563859 72.999517 78.22017 C 75.464494 75.193326 78.137904 72.365852 81.028813 69.755877 C 83.747538 67.290902 86.69282 65.070611 89.810291 63.131255 C 92.710262 61.300648 95.818669 59.814412 99.063015 58.708798 C 102.144232 57.639433 105.361388 57.077564 108.623857 57.050377 C 110.454466 57.041314 112.276008 57.240687 114.052242 57.648496 C 115.846599 58.065367 117.568458 58.71786 119.190628 59.569727 C 121.755291 60.883777 124.08433 62.58751 126.132438 64.608428 C 128.035541 66.511535 129.612407 68.695575 130.826769 71.106177 C 131.986751 73.435217 132.820493 75.909256 133.309871 78.464855 C 133.79924 81.029517 134.043921 83.630431 134.025797 86.240404 C 134.025797 88.134449 133.926113 90.037556 133.726738 91.922537 C 133.527362 93.870957 133.255492 95.801249 132.902062 97.731541 C 131.950504 102.951492 130.690829 108.117069 129.123029 113.192019 C 124.310891 113.028894 119.480626 113.382329 114.740987 114.243256 C 111.641642 114.796066 108.596672 115.63887 105.642324 116.73542 C 103.023287 117.723225 100.503937 118.937586 98.120523 120.405698 C 95.954608 121.737871 93.93369 123.278482 92.084958 125.018464 C 88.695615 128.208431 86.004077 132.069024 84.191594 136.346475 C 82.460674 140.46988 81.572559 144.901394 81.581621 149.369163 C 81.581621 153.755372 82.397237 158.078144 83.992223 162.165294 C 85.668769 166.460877 88.133745 170.412087 91.242152 173.810492 C 94.703995 177.58045 98.81833 180.679795 103.403906 182.981653 C 105.968569 184.268509 108.641981 185.356006 111.406019 186.189739 C 114.450989 187.114107 117.568458 187.793786 120.722177 188.219728 C 124.247455 188.700031 127.781794 188.94472 131.334261 188.953777 C 134.759855 188.953777 138.185441 188.709097 141.574788 188.219728 C 144.737569 187.766605 147.855038 187.068794 150.918135 186.153492 C 153.745602 185.292561 156.500583 184.205072 159.173986 182.900084 C 161.620841 181.703846 163.97707 180.290118 166.188294 178.68607 C 168.218274 177.19983 170.0942 175.532346 171.797931 173.683619 C 173.365723 171.979879 174.734147 170.113028 175.885081 168.101171 C 176.963503 166.225254 177.806311 164.213398 178.386306 162.119981 C 178.94817 160.062811 179.238172 157.942205 179.238172 155.812542 C 179.201916 152.504763 178.56755 149.233232 177.335065 146.152011 C 176.637254 144.366711 175.776331 142.66298 174.788526 141.022686 C 173.664782 139.183016 172.414174 137.424906 171.036683 135.757422 C 169.459825 133.872438 167.756095 132.078081 165.952671 130.410597 C 163.886444 128.507491 161.711468 126.7222 159.454922 125.063778 C 156.872136 123.169732 154.20779 121.411622 151.452818 119.789452 C 147.438171 117.406037 143.278519 115.258246 139.010125 113.337015 C 138.955746 109.875174 139.209501 106.431457 139.789488 103.014929 C 140.18824 100.640576 140.704799 98.275286 141.348222 95.946246 C 142.589773 91.279105 144.320694 86.747899 146.486613 82.425129 C 147.501607 80.395149 148.643466 78.437667 149.921265 76.561748 C 151.108445 74.785517 152.458746 73.14522 153.944978 71.631797 C 155.367781 70.163687 156.999009 68.931198 158.784309 67.96152 C 160.669284 66.928406 162.762709 66.375599 164.892373 66.348411 C 165.762362 66.339348 166.63235 66.439035 167.475159 66.620283 C 170.003574 67.191215 172.441363 68.115581 174.716024 69.357132 C 177.008816 70.616807 179.156612 72.139292 181.114089 73.879276 C 183.144069 75.664569 185.001863 77.640177 186.678413 79.769843 C 188.418391 81.981071 189.995248 84.319174 191.390862 86.756961 C 194.308964 91.877224 196.547377 97.350922 198.069864 103.042114 C 199.655779 108.869246 200.480464 114.877626 200.498587 120.913191 C 200.534834 125.951894 199.873279 130.97247 198.550167 135.820858 L 197.227056 140.651124 L 187.575591 138.013959 L 188.898703 133.183693 C 189.986191 129.196236 190.529931 125.090963 190.493684 120.958504 C 190.484626 115.792928 189.777758 110.636418 188.418391 105.65209 C 187.113403 100.776511 185.192173 96.091247 182.700013 91.705038 C 181.549088 89.702245 180.253158 87.781015 178.812239 85.959471 C 177.516309 84.301048 176.057267 82.760438 174.471343 81.355764 C 173.075729 80.105151 171.544185 79.026725 169.903882 78.129546 C 168.453897 77.341117 166.904229 76.75206 165.309239 76.3805 C 165.209556 76.353315 165.091748 76.344251 164.992056 76.344251 C 164.493629 76.371438 164.004251 76.498311 163.578319 76.733934 C 162.653959 77.241429 161.811151 77.866736 161.095225 78.627979 C 160.02586 79.706406 159.065245 80.875457 158.213371 82.144195 C 157.189319 83.66668 156.255894 85.261664 155.422152 86.911024 C 153.555292 90.635675 152.078118 94.541575 150.990629 98.565283 C 150.44689 100.57714 149.993767 102.60712 149.658461 104.673351 C 149.513455 105.507093 149.395648 106.349897 149.295965 107.192701 C 151.751877 108.452375 154.162477 109.775486 156.545887 111.180162 C 159.572738 112.965458 162.51802 114.913877 165.354552 116.989166 C 167.928281 118.87415 170.39326 120.90413 172.731357 123.060983 C 174.870086 125.027526 176.863819 127.130005 178.712547 129.359356 C 180.416287 131.398402 181.965955 133.573379 183.343445 135.838982 C 184.612177 137.950522 185.717798 140.161754 186.624034 142.454547 C 188.327765 146.686693 189.20682 151.217899 189.234009 155.785352 C 189.234009 158.82126 188.8262 161.848102 188.028705 164.784327 C 187.213095 167.684296 186.053104 170.475524 184.557807 173.0855 C 183.035319 175.731722 181.222839 178.214824 179.147546 180.462295 C 177.008816 182.791335 174.634463 184.902883 172.078867 186.760677 C 169.387331 188.727221 166.541733 190.430952 163.551138 191.890002 C 160.415537 193.421547 157.153072 194.699345 153.809038 195.723397 C 150.274703 196.792761 146.667866 197.590256 143.006649 198.124939 C 139.136998 198.677745 135.231101 198.949623 131.325195 198.949623 C 127.319614 198.940557 123.332153 198.677745 119.380938 198.124939 C 115.69254 197.635569 112.049447 196.847141 108.496984 195.750586 C 105.189202 194.753724 101.981111 193.46686 98.89989 191.917192 C 93.254006 189.071593 88.151869 185.229124 83.874411 180.571045 C 79.923199 176.248281 76.796667 171.254887 74.667001 165.799313 C 72.627958 160.570304 71.576719 155.005981 71.576719 149.378229 C 71.567656 143.569225 72.718582 137.823649 74.975122 132.467767 C 77.331349 126.903448 80.829441 121.891934 85.233772 117.741348 C 87.571875 115.539182 90.1456 113.572638 92.882448 111.887031 C 95.818669 110.083608 98.918013 108.570187 102.153293 107.364887 C 105.660447 106.059899 109.285413 105.072094 112.964753 104.401477 C 115.783162 103.884922 118.619699 103.54055 121.483421 103.341174 C 122.08154 100.885261 122.616222 98.429348 123.060279 95.946246 C 123.359338 94.2697 123.604023 92.584093 123.776209 90.898483 C 123.930272 89.330687 124.020894 87.753828 124.020894 86.18603 C 124.039022 84.22855 123.866835 82.28013 123.495273 80.3589 C 123.169028 78.700478 122.634346 77.087369 121.882164 75.573945 C 121.157172 74.151148 120.21468 72.837098 119.072817 71.695233 C 117.749706 70.390247 116.236285 69.284633 114.568801 68.441828 C 113.689746 67.970583 112.756316 67.617149 111.786639 67.390589 C 110.771649 67.154966 109.738535 67.037154 108.705417 67.046217 C 106.521379 67.064342 104.373587 67.444962 102.32548 68.160893 C 99.788007 69.030885 97.368341 70.181811 95.120866 71.595548 C 92.501829 73.235844 90.027788 75.093638 87.744062 77.177993 C 85.22471 79.443596 82.877545 81.908572 80.738817 84.536671 C 76.17136 90.119116 72.473897 96.344993 69.773299 103.042114 C 68.422999 106.377082 67.371759 109.829861 66.619579 113.346077 C 65.894586 116.789795 65.513965 120.287887 65.504902 123.813165 C 65.504902 126.033454 65.658964 128.244687 65.994273 130.428721 Z"/>
 </g>
</svg>
