<svg xmlns="http://www.w3.org/2000/svg" style="isolation:isolate" width="256" height="256" viewBox="0 0 256 256">
 <defs>
  <filter id="eVWkce6GgKrx9t17ZUjXBthNdVHMgiuW" width="400%" height="400%" x="-200%" y="-200%" color-interpolation-filters="sRGB" filterUnits="objectBoundingBox">
   <feGaussianBlur xmlns="http://www.w3.org/2000/svg" in="SourceGraphic" stdDeviation="4.294"/>
   <feOffset xmlns="http://www.w3.org/2000/svg" dx="0" dy="4" result="pf_100_offsetBlur"/>
   <feFlood xmlns="http://www.w3.org/2000/svg" flood-opacity=".4"/>
   <feComposite xmlns="http://www.w3.org/2000/svg" in2="pf_100_offsetBlur" operator="in" result="pf_100_dropShadow"/>
   <feBlend xmlns="http://www.w3.org/2000/svg" in="SourceGraphic" in2="pf_100_dropShadow" mode="normal"/>
  </filter>
 </defs>
 <g filter="url(#eVWkce6GgKrx9t17ZUjXBthNdVHMgiuW)">
  <linearGradient id="_lgradient_210" x1=".518" x2=".532" y1="-.194" y2="1.208" gradientTransform="matrix(244.648,0,0,228.338,5.682,11.95)" gradientUnits="userSpaceOnUse">
   <stop offset="0%" style="stop-color:#4ce0c6"/>
   <stop offset="100%" style="stop-color:#3b85b5"/>
  </linearGradient>
  <path fill="url(#_lgradient_210)" d="M 165.691 11.95 C 239.746 11.95 250.33 22.507 250.33 96.494 L 250.33 155.745 C 250.33 229.731 239.746 240.288 165.691 240.288 L 90.321 240.288 C 16.265 240.288 5.682 229.731 5.682 155.745 L 5.682 96.494 C 5.682 22.507 16.265 11.95 90.321 11.95 L 165.691 11.95 Z"/>
 </g>
 <defs>
  <filter id="XqlzlIdgsVZrDxdpfZV3oTbR5rxz3rVG" width="400%" height="400%" x="-200%" y="-200%" color-interpolation-filters="sRGB" filterUnits="objectBoundingBox">
   <feGaussianBlur xmlns="http://www.w3.org/2000/svg" in="SourceGraphic" stdDeviation="4.294"/>
   <feOffset xmlns="http://www.w3.org/2000/svg" dx="0" dy="4" result="pf_100_offsetBlur"/>
   <feFlood xmlns="http://www.w3.org/2000/svg" flood-opacity=".4"/>
   <feComposite xmlns="http://www.w3.org/2000/svg" in2="pf_100_offsetBlur" operator="in" result="pf_100_dropShadow"/>
   <feBlend xmlns="http://www.w3.org/2000/svg" in="SourceGraphic" in2="pf_100_dropShadow" mode="normal"/>
  </filter>
 </defs>
 <g filter="url(#XqlzlIdgsVZrDxdpfZV3oTbR5rxz3rVG)">
  <path fill="#ffffff" d="M 96.201 55.5 C 82.567 55.5 71.551 60.46 63.177 70.379 C 53.623 81.682 48.843 97 48.843 116.376 C 48.843 130.793 51.608 143.326 57.19 153.936 C 65.671 169.737 78.703 177.616 96.201 177.616 C 99.982 194.5 110.411 203.381 134.941 199.661 L 134.941 187.413 C 123.522 188.466 121.042 182.19 120.152 171.083 L 120.152 170.357 C 123.588 168.165 126.706 165.446 129.497 162.101 C 138.622 151.144 143.197 135.868 143.197 116.376 C 143.197 101.844 140.284 89.336 134.487 78.726 C 125.899 63.271 113.163 55.5 96.201 55.5 Z M 188.105 60.4 L 170.868 60.853 L 165.152 87.889 L 152.904 87.889 L 152.904 108.12 L 164.154 108.12 L 164.154 146.86 C 164.154 157.47 165.667 164.911 168.6 169.177 C 172.292 174.829 180.134 177.616 192.187 177.616 C 196.206 177.616 201.184 177.069 207.157 175.801 L 207.157 156.567 C 203.031 156.797 199.966 156.93 197.904 156.93 C 194.537 156.93 192.148 156.36 190.736 155.206 C 188.998 153.822 188.105 150.243 188.105 144.591 L 188.105 108.12 L 205.887 108.12 L 205.887 87.889 L 188.105 87.889 L 188.105 60.4 L 188.105 60.4 Z M 96.201 78.181 C 109.513 78.182 116.16 90.953 116.16 116.557 C 116.16 142.162 109.513 155.025 96.201 155.025 C 82.675 155.025 75.88 142.096 75.88 116.376 C 75.88 115.338 75.88 114.33 75.88 113.291 C 76.523 89.879 83.319 78.182 96.201 78.181 Z"/>
 </g>
 <defs>
  <filter id="pQs9I5kWPeA52vURg4ZbGqnfO8tsa6G4" width="400%" height="400%" x="-200%" y="-200%" color-interpolation-filters="sRGB" filterUnits="objectBoundingBox">
   <feGaussianBlur xmlns="http://www.w3.org/2000/svg" stdDeviation="4.294"/>
  </filter>
 </defs>
 <g opacity=".4" filter="url(#pQs9I5kWPeA52vURg4ZbGqnfO8tsa6G4)">
  <path d="M 126.32 240.288 L 126 211.494 C 126 137.507 136.584 126 210.639 126 L 248.648 126"/>
 </g>
 <linearGradient id="_lgradient_211" x1="0" x2="0" y1="0" y2="1" gradientTransform="matrix(121.985,0,0,114.142,128.7,126.446)" gradientUnits="userSpaceOnUse">
  <stop offset="0%" style="stop-color:#ec57ff"/>
  <stop offset="50%" style="stop-color:#c551ff"/>
  <stop offset="100%" style="stop-color:#a90ff5"/>
 </linearGradient>
 <path fill="url(#_lgradient_211)" d="M 146.981 240.533 L 129.235 240.395 L 128.875 232.289 C 128.427 222.201 128.898 189.86 129.607 182.052 C 130.892 167.904 133.047 158.74 136.92 150.966 C 144.316 136.118 157.752 129.78 186.519 127.57 C 189.982 127.304 205.835 126.942 221.75 126.766 L 250.685 126.446 L 250.678 150.617 C 250.668 182.808 249.912 193.582 246.801 205.9 C 242.946 221.166 235.296 230.076 221.947 234.847 C 208.546 239.636 192.096 240.884 146.982 240.533 L 146.981 240.533 Z"/>
 <path fill="#ffffff" d="M 224.692 148.518 C 214.053 159.358 192.152 169.676 178.321 173.739 C 141.207 186.93 158.914 218.472 158.914 218.472 C 170.173 210.116 220.811 154.248 220.811 154.248 C 220.811 154.248 181.031 205.366 162.978 218.472 L 162.978 218.499 C 211.428 219.306 213.367 192.944 216.952 176.854 C 220.64 160.306 224.692 148.517 224.692 148.517 L 224.692 148.518 Z"/>
</svg>
