<svg xmlns="http://www.w3.org/2000/svg" style="isolation:isolate" width="256" height="256" viewBox="0 0 256 256">
 <defs>
  <filter id="gmD00vEiEF5GEYuVneNfuyaFdg0VGGCg" width="400%" height="400%" x="-200%" y="-200%" color-interpolation-filters="sRGB" filterUnits="objectBoundingBox">
   <feGaussianBlur xmlns="http://www.w3.org/2000/svg" in="SourceGraphic" stdDeviation="4.294"/>
   <feOffset xmlns="http://www.w3.org/2000/svg" dx="0" dy="4" result="pf_100_offsetBlur"/>
   <feFlood xmlns="http://www.w3.org/2000/svg" flood-opacity=".4"/>
   <feComposite xmlns="http://www.w3.org/2000/svg" in2="pf_100_offsetBlur" operator="in" result="pf_100_dropShadow"/>
   <feBlend xmlns="http://www.w3.org/2000/svg" in="SourceGraphic" in2="pf_100_dropShadow" mode="normal"/>
  </filter>
 </defs>
 <g filter="url(#gmD00vEiEF5GEYuVneNfuyaFdg0VGGCg)">
  <path fill="#4d4d4d" d="M 165.689 11.95 C 239.745 11.95 250.328 22.507 250.328 96.494 L 250.328 155.745 C 250.328 229.731 239.745 240.288 165.689 240.288 L 90.319 240.288 C 16.264 240.288 5.68 229.731 5.68 155.745 L 5.68 96.494 C 5.68 22.507 16.264 11.95 90.319 11.95 L 165.689 11.95 L 165.689 11.95 Z"/>
 </g>
 <path fill="#fb7c38" fill-rule="evenodd" d="M 210.165 165.665 C 212.567 164.579 214.854 162.303 217.141 159.112 C 170.48 159.844 99.676 159.844 37.244 159.73 C 37.416 160.096 37.61 160.45 37.793 160.816 L 50.522 160.816 C 115.802 160.702 175.055 160.702 210.165 165.677"/>
 <path fill="#ffffff" fill-rule="evenodd" d="M 46.382 149.082 L 46.382 141.637 L 47.343 141.637 L 50.408 146.006 L 53.461 141.637 L 54.422 141.637 L 54.422 149.082 L 53.255 149.082 L 53.255 143.73 L 50.396 147.881 L 47.548 143.73 L 47.548 149.082 L 46.382 149.082 L 46.382 149.082 Z M 63.502 149.082 L 63.502 141.637 L 70.49 141.637 L 70.49 142.723 L 64.669 142.723 L 64.669 144.588 L 68.5 144.588 L 68.5 145.651 L 64.669 145.651 L 64.669 148.019 L 70.822 148.019 L 70.822 149.082 L 63.502 149.082 L 63.502 149.082 Z M 79.01 141.648 L 79.01 149.082 L 82.338 149.082 C 83.574 149.082 84.546 148.751 85.278 148.087 C 86.01 147.412 86.387 146.509 86.387 145.388 C 86.387 144.279 86.021 143.375 85.278 142.678 C 84.523 141.98 83.551 141.648 82.338 141.648 L 79.01 141.648 L 79.01 141.648 Z M 80.188 142.712 L 82.338 142.712 C 83.173 142.712 83.871 142.952 84.386 143.455 C 84.912 143.947 85.198 144.576 85.198 145.365 C 85.198 146.177 84.934 146.841 84.42 147.309 C 83.917 147.79 83.219 148.03 82.338 148.03 L 80.188 148.03 L 80.188 142.712 L 80.188 142.712 Z M 94.758 149.082 L 94.758 141.614 L 95.948 141.614 L 95.948 149.082 L 94.758 149.082 L 94.758 149.082 Z M 107.407 141.648 L 103.599 149.082 L 104.834 149.082 L 105.806 147.195 L 109.752 147.195 L 110.724 149.082 L 111.948 149.082 L 108.151 141.648 L 107.407 141.648 L 107.407 141.648 Z M 107.785 143.364 L 109.237 146.189 L 106.321 146.189 L 107.785 143.364 L 107.785 143.364 Z M 133.426 147.264 C 132.968 147.938 132.511 148.442 131.71 148.796 C 131.024 149.151 130.338 149.322 129.423 149.322 C 128.05 149.322 127.021 148.956 126.22 148.213 C 125.306 147.47 124.962 146.532 124.962 145.388 C 124.962 144.245 125.306 143.307 126.22 142.552 C 127.021 141.808 128.05 141.431 129.423 141.431 C 130.223 141.431 130.909 141.591 131.596 141.9 C 132.282 142.197 132.854 142.632 133.197 143.181 L 132.282 143.833 C 132.053 143.41 131.596 143.078 131.138 142.849 C 130.593529 142.626042 130.011342 142.509605 129.423 142.506 C 128.508 142.506 127.707 142.78 127.021 143.33 C 126.449 143.867 126.106 144.553 126.106 145.365 C 126.106 146.189 126.449 146.875 127.021 147.412 C 127.707 147.961 128.508 148.236 129.423 148.236 C 130.109 148.236 130.681 148.11 131.138 147.847 C 131.704749 147.580884 132.18181 147.155594 132.511 146.623 L 133.426 147.264 L 133.426 147.264 Z M 141.889 149.082 L 141.889 141.637 L 148.865 141.637 L 148.865 142.723 L 143.032 142.723 L 143.032 144.588 L 146.921 144.588 L 146.921 145.651 L 143.032 145.651 L 143.032 148.019 L 149.208 148.019 L 149.208 149.082 L 141.889 149.082 L 141.889 149.082 Z M 157.442 149.082 L 157.442 141.637 L 158.014 141.637 L 162.817 146.875 L 162.817 141.637 L 163.961 141.637 L 163.961 149.082 L 163.275 149.082 L 158.586 143.867 L 158.586 149.082 L 157.442 149.082 L 157.442 149.082 Z M 174.826 149.082 L 174.826 142.666 L 171.624 142.666 L 171.624 141.637 L 179.057 141.637 L 179.057 142.666 L 175.97 142.666 L 175.97 149.082 L 174.826 149.082 L 174.826 149.082 Z M 186.72 149.082 L 186.72 141.637 L 193.696 141.637 L 193.696 142.723 L 187.978 142.723 L 187.978 144.588 L 191.752 144.588 L 191.752 145.651 L 187.978 145.651 L 187.978 148.019 L 194.039 148.019 L 194.039 149.082 L 186.72 149.082 L 186.72 149.082 Z M 202.274 141.648 L 202.274 149.082 L 203.417 149.082 L 203.417 145.823 L 206.734 145.823 L 208.792 149.082 L 210.05 149.082 L 207.992 145.823 C 208.564 145.709 209.021 145.491 209.364 145.102 C 209.707 144.725 209.822 144.267 209.822 143.741 C 209.822 143.089 209.593 142.552 209.136 142.186 C 208.792 141.82 208.221 141.648 207.42 141.648 L 202.274 141.648 L 202.274 141.648 Z M 203.417 142.735 L 207.42 142.735 C 207.763 142.735 208.106 142.849 208.335 142.998 C 208.564 143.158 208.678 143.41 208.678 143.73 C 208.678 144.062 208.564 144.302 208.335 144.473 C 208.106 144.656 207.763 144.736 207.42 144.736 L 203.417 144.736 L 203.417 142.735 L 203.417 142.735 Z"/>
 <path fill="#a6d74f" d="M 93.398 90.323 L 92.053 99.592 L 83.937 99.592 C 79.006 99.592 74.44 101.339 70.241 104.825 C 69.170934 105.700941 68.176123 106.664979 67.267 107.707 C 66.763619 106.676576 66.140302 105.709209 65.41 104.825 C 62.537 101.339 58.612 99.592 53.681 99.592 L 43.196 99.592 C 42.821 101.55 43.196 103.215 44.303 104.596 C 45.419 105.978 46.947 106.682 48.914 106.682 L 52.345 106.682 C 55.282 106.682 57.578 107.734 59.234 109.857 C 60.89 111.98 61.448 114.523 60.89 117.46 C 60.332 120.406 58.832 122.913 56.371 125.008 C 53.909 127.094 51.183 128.156 48.255 128.156 L 44.824 128.156 C 42.857 128.156 41.064 128.833 39.417 130.214 C 37.77 131.596 36.755 133.252 36.389 135.219 L 46.91 135.219 C 51.842 135.219 56.38 133.499 60.579 130.04 C 61.648569 129.163322 62.640575 128.196075 63.544 127.149 C 64.054675 128.186297 64.690403 129.157183 65.437 130.04 C 68.31 133.499 72.199 135.219 77.13 135.219 L 87.652 135.219 C 88.027 133.252 87.652 131.596 86.536 130.214 C 85.419 128.833 83.864 128.156 81.906 128.156 L 78.503 128.156 C 75.557 128.156 73.251 127.094 71.586 125.008 C 69.911 122.913 69.353 120.406 69.921 117.46 C 70.479 114.523 71.997 111.98 74.468 109.857 C 76.938 107.734 79.655 106.682 82.592 106.682 L 86.023 106.682 C 87.935 106.682 89.692 105.996 91.312 104.679 L 89.454 117.378 C 88.713 122.392 89.884 126.637 92.995 130.15 C 96.033 133.718 100.122 135.475 105.063 135.475 C 110.095 135.475 114.67 133.718 118.787 130.15 C 122.904 126.637 125.374 122.392 126.106 117.378 C 126.838 112.355 125.649 108.11 122.629 104.596 C 119.519 101.11 115.401 99.335 110.369 99.335 L 99.665 99.335 L 99.848 97.936 C 100.214 95.868 99.756 94.056 98.384 92.556 C 97.194 91.055 95.484 90.323 93.398 90.323 L 93.398 90.323 Z M 98.567 106.536 L 109.363 106.536 C 112.291 106.536 114.67 107.561 116.499 109.683 C 118.146 111.797 118.787 114.404 118.421 117.378 C 117.963 120.351 116.591 122.895 114.212 125.036 C 111.833 127.195 109.18 128.293 106.161 128.293 C 103.141 128.293 100.763 127.195 99.024 125.036 C 97.286 122.895 96.646 120.351 97.012 117.378 L 98.567 106.536 L 98.567 106.536 Z"/>
 <path fill="#f7f7f7" d="M 146.326 99.335 C 141.294 99.335 136.719 101.101 132.694 104.624 C 128.576 108.201 126.106 112.437 125.374 117.46 L 122.721 135.475 C 124.825 135.475 126.747 134.77 128.393 133.27 C 130.132 131.797 131.138 130.013 131.413 127.899 L 132.968 117.46 C 133.426 114.459 134.798 111.888 137.177 109.711 C 139.556 107.588 142.3 106.536 145.228 106.536 C 148.247 106.536 150.626 107.588 152.364 109.711 C 154.103 111.888 154.743 114.459 154.286 117.46 L 152.822 127.899 C 152.456 129.976 153.005 131.715 154.286 133.215 C 155.567 134.706 157.214 135.475 159.318 135.475 L 161.971 117.46 C 162.337 114.459 163.801 111.888 166.18 109.711 C 168.559 107.588 171.212 106.536 174.231 106.536 C 177.159 106.536 179.538 107.588 181.276 109.711 C 183.014 111.888 183.746 114.459 183.289 117.46 L 181.734 127.899 C 181.459 129.976 181.917 131.715 183.197 133.215 C 184.478 134.706 186.125 135.475 188.23 135.475 L 189.51 127.039 C 190.059 128.146 190.7 129.199 191.615 130.187 C 194.725 133.709 198.751 135.475 203.692 135.475 L 214.396 135.475 C 214.671 133.49 214.213 131.788 213.024 130.379 C 211.835 128.988 210.188 128.293 208.266 128.293 L 204.79 128.293 C 201.77 128.293 199.392 127.213 197.653 125.091 C 195.823 122.977 195.183 120.434 195.549 117.46 C 196.006 114.459 197.47 111.888 199.849 109.711 C 202.228 107.588 204.973 106.536 207.9 106.536 L 211.377 106.536 C 213.39 106.536 215.22 105.795 216.867 104.395 C 218.422 102.995 219.337 101.339 219.611 99.335 L 208.998 99.335 C 203.966 99.335 199.483 101.101 195.366 104.624 C 193.353 106.38 191.706 108.302 190.517 110.397 C 189.968 108.293 188.87 106.362 187.406 104.624 C 184.295 101.101 180.27 99.335 175.238 99.335 C 172.493 99.335 169.748 99.985 167.003 101.248 C 164.258 102.51 161.788 104.203 159.775 106.426 C 158.341564 104.243359 156.393802 102.44635 154.103 101.193 C 151.724 99.967 149.162 99.335 146.326 99.335 L 146.326 99.335 Z"/>
 <g opacity=".4">
  <linearGradient id="_lgradient_533" x1=".517" x2=".517" y1="0" y2="1" gradientTransform="matrix(244.65,0,0,228.34,5.68,11.95)" gradientUnits="userSpaceOnUse">
   <stop offset="0%" style="stop-color:#ffffff"/>
   <stop offset="12.5%" stop-opacity=".098" style="stop-color:#ffffff"/>
   <stop offset="92.5%" stop-opacity=".098" style="stop-color:#000000"/>
   <stop offset="100%" stop-opacity=".498" style="stop-color:#000000"/>
  </linearGradient>
  <path fill="url(#_lgradient_533)" fill-rule="evenodd" d="M 165.06803 11.951234 C 169.395994 11.941409 173.723944 11.990533 178.051908 12.088781 C 181.927398 12.167379 185.802873 12.31475 189.678362 12.540721 C 193.1309 12.737216 196.583423 13.022134 200.026115 13.395476 C 203.085193 13.729518 206.144271 14.181458 209.173842 14.741469 C 211.888645 15.242533 214.57394 15.881143 217.219897 16.6573 C 219.619947 17.354858 221.970814 18.219439 224.242988 19.241215 C 226.357793 20.184394 228.384061 21.304417 230.302129 22.591462 C 232.141505 23.829383 233.862851 25.244151 235.436659 26.80629 C 237.000621 28.378252 238.417046 30.087764 239.656409 31.924995 C 240.944972 33.840824 242.066305 35.864728 243.020409 37.967229 C 244.043389 40.246576 244.908985 42.584873 245.617197 44.972292 C 246.394255 47.615155 247.033606 50.297317 247.535265 53.008956 C 248.095924 56.034984 248.548399 59.080665 248.882828 62.13617 C 249.256611 65.574836 249.541856 69.013506 249.738578 72.462003 C 249.964823 76.323139 250.112361 80.194101 250.200884 84.055237 C 250.289421 88.378131 250.338591 92.701032 250.32876 97.014106 L 250.32876 155.225886 C 250.338591 159.54878 250.289421 163.861854 250.200884 168.184747 C 250.112361 172.05571 249.964823 175.916853 249.738578 179.777981 C 249.541856 183.226485 249.256611 186.674975 248.882828 190.103826 C 248.548399 193.15933 248.095924 196.214835 247.535265 199.240851 C 247.033606 201.942664 246.394255 204.624837 245.617197 207.267703 C 244.908985 209.655115 244.043389 212.003235 243.020409 214.272755 C 242.066305 216.38509 240.944972 218.399156 239.656409 220.314999 C 238.417046 222.152226 237.000621 223.871561 235.436659 225.433697 C 233.862851 226.995832 232.141505 228.410601 230.302129 229.648532 C 228.384061 230.935575 226.357793 232.055598 224.242988 232.998768 C 221.970814 234.020552 219.619947 234.885137 217.219897 235.592507 C 214.57394 236.368672 211.888645 237.007276 209.173842 237.498515 C 206.144271 238.068354 203.085193 238.510465 200.026115 238.844519 C 196.583423 239.21785 193.1309 239.502777 189.678362 239.699269 C 185.802873 239.925235 181.927398 240.072615 178.051908 240.161035 C 173.723944 240.249454 169.395994 240.298581 165.06803 240.288762 L 90.941963 240.288762 C 86.614006 240.298581 82.286049 240.249454 77.9581 240.161035 C 74.08261 240.072615 70.20712 239.925235 66.331638 239.699269 C 62.879108 239.502777 59.426578 239.21785 55.983886 238.844519 C 52.924808 238.510465 49.865733 238.068354 46.836162 237.498515 C 44.121356 237.007276 41.436057 236.368672 38.7901 235.592507 C 36.390053 234.885137 34.039187 234.020552 31.767009 232.998768 C 29.652213 232.055598 27.625943 230.935575 25.707871 229.648532 C 23.868489 228.410601 22.147143 226.995832 20.573343 225.433697 C 19.009377 223.871561 17.592955 222.152226 16.353586 220.314999 C 15.065036 218.399156 13.943701 216.38509 12.989584 214.272755 C 11.966612 212.003235 11.101021 209.655115 10.392811 207.267703 C 9.615746 204.624837 8.976389 201.942664 8.47474 199.240851 C 7.914072 196.214835 7.461604 193.15933 7.127172 190.103826 C 6.753394 186.674975 6.468142 183.226485 6.271417 179.777981 C 6.045183 175.916853 5.897639 172.05571 5.809112 168.184747 C 5.720586 163.861854 5.671405 159.54878 5.681241 155.225886 L 5.681241 97.014106 C 5.671405 92.701032 5.720586 88.378131 5.809112 84.055237 C 5.897639 80.194101 6.045183 76.323139 6.271417 72.462003 C 6.468142 69.013506 6.753394 65.574836 7.127172 62.13617 C 7.461604 59.080665 7.914072 56.034984 8.47474 53.008956 C 8.976389 50.297317 9.615746 47.615155 10.392811 44.972292 C 11.101021 42.584873 11.966612 40.246576 12.989584 37.967229 C 13.943701 35.864728 15.065036 33.840824 16.353586 31.924995 C 17.592955 30.087764 19.009377 28.378252 20.573343 26.80629 C 22.147143 25.244151 23.868489 23.829383 25.707871 22.591462 C 27.625943 21.304417 29.652213 20.184394 31.767009 19.241215 C 34.039187 18.219439 36.390053 17.354858 38.7901 16.6573 C 41.436057 15.881143 44.121356 15.242533 46.836162 14.741469 C 49.865733 14.181458 52.924808 13.729518 55.983886 13.395476 C 59.426578 13.022134 62.879108 12.737216 66.331638 12.540721 C 70.20712 12.31475 74.08261 12.167379 77.9581 12.088781 C 82.286049 11.990533 86.614006 11.941409 90.941963 11.951234 L 165.06803 11.951234 Z M 165.077876 15.959741 C 169.376317 15.949916 173.674759 15.99904 177.973216 16.087463 C 181.799522 16.175886 185.625827 16.323257 189.452133 16.539402 C 192.835809 16.735898 196.219486 17.010992 199.583486 17.384332 C 202.554026 17.698726 205.514751 18.131016 208.445953 18.681203 C 211.023049 19.152792 213.580483 19.761928 216.098564 20.498786 C 218.321569 21.147221 220.495374 21.952852 222.600334 22.896029 C 224.508571 23.750785 226.338116 24.762737 228.069293 25.922059 C 229.692286 27.012609 231.207063 28.260355 232.59398 29.645648 C 233.980897 31.030941 235.230091 32.543956 236.331763 34.165043 C 237.492434 35.894202 238.505568 37.711787 239.361333 39.607968 C 240.305606 41.720292 241.112187 43.891565 241.761369 46.102139 C 242.508934 48.617282 243.108947 51.161898 243.590914 53.735987 C 244.131912 56.663768 244.564709 59.6112 244.889308 62.578282 C 245.263091 65.938355 245.538505 69.308252 245.735227 72.687976 C 245.951626 76.509812 246.10901 80.321821 246.187687 84.143656 C 246.276225 88.437084 246.325394 92.720685 246.325394 97.014106 C 246.325394 97.014106 246.325394 97.014106 246.325394 97.014106 L 246.325394 155.225886 C 246.325394 155.225886 246.325394 155.225886 246.325394 155.225886 C 246.325394 159.519306 246.276225 163.802907 246.187687 168.096328 C 246.10901 171.918164 245.951626 175.739999 245.735227 179.552015 C 245.538505 182.931739 245.263091 186.301629 244.889308 189.671533 C 244.564709 192.628784 244.131912 195.576216 243.590914 198.503994 C 243.108947 201.078094 242.508934 203.622706 241.761369 206.137845 C 241.112187 208.358253 240.305606 210.5197 239.361333 212.63202 C 238.505568 214.528209 237.492434 216.355617 236.331763 218.074952 C 235.230091 219.705853 233.980897 221.218876 232.59398 222.604172 C 231.207063 223.979634 229.692286 225.227385 228.069293 226.317935 C 226.338116 227.477251 224.508571 228.489201 222.600334 229.343951 C 220.495374 230.296956 218.321569 231.092775 216.098564 231.741198 C 213.580483 232.478056 211.023049 233.087202 208.445953 233.558787 C 205.514751 234.108972 202.554026 234.541264 199.583486 234.865483 C 196.219486 235.228995 192.835809 235.513922 189.452133 235.70058 C 185.625827 235.916726 181.799522 236.073926 177.973216 236.152526 C 173.674759 236.25078 169.376317 236.290072 165.077876 236.290072 C 165.077876 236.290072 165.077876 236.290072 165.06803 236.290072 L 90.941963 236.290072 C 90.932125 236.290072 90.932125 236.290072 90.932125 236.290072 C 86.633683 236.290072 82.335234 236.25078 78.036784 236.152526 C 74.210479 236.073926 70.384173 235.916726 66.557868 235.70058 C 63.174195 235.513922 59.790522 235.228995 56.426518 234.865483 C 53.455967 234.541264 50.495253 234.108972 47.564048 233.558787 C 44.986944 233.087202 42.429517 232.478056 39.911433 231.741198 C 37.688439 231.092775 35.514626 230.296956 33.409665 229.343951 C 31.501429 228.489201 29.671886 227.477251 27.940703 226.317935 C 26.31772 225.227385 24.802935 223.979634 23.416022 222.604172 C 22.029109 221.218876 20.779904 219.705853 19.678243 218.074952 C 18.517564 216.355617 17.504428 214.528209 16.648674 212.63202 C 15.704392 210.5197 14.897819 208.358253 14.248626 206.137845 C 13.50107 203.622706 12.901057 201.078094 12.419081 198.503994 C 11.878086 195.576216 11.445291 192.628784 11.120694 189.671533 C 10.746916 186.301629 10.471501 182.931739 10.274776 179.552015 C 10.058378 175.739999 9.900997 171.918164 9.822307 168.096328 C 9.733781 163.802907 9.6846 159.519306 9.6846 155.225886 C 9.6846 155.225886 9.6846 155.225886 9.6846 155.225886 L 9.6846 97.014106 C 9.6846 97.014106 9.6846 97.014106 9.6846 97.014106 C 9.6846 92.720685 9.733781 88.437084 9.822307 84.143656 C 9.900997 80.321821 10.058378 76.509812 10.274776 72.687976 C 10.471501 69.308252 10.746916 65.938355 11.120694 62.578282 C 11.445291 59.6112 11.878086 56.663768 12.419081 53.735987 C 12.901057 51.161898 13.50107 48.617282 14.248626 46.102139 C 14.897819 43.891565 15.704392 41.720292 16.648674 39.607968 C 17.504428 37.711787 18.517564 35.894202 19.678243 34.165043 C 20.779904 32.543956 22.029109 31.030941 23.416022 29.645648 C 24.802935 28.260355 26.31772 27.012609 27.940703 25.922059 C 29.671886 24.762737 31.501429 23.750785 33.409665 22.896029 C 35.514626 21.952852 37.688439 21.147221 39.911433 20.498786 C 42.429517 19.761928 44.986944 19.152792 47.564048 18.681203 C 50.495253 18.131016 53.455967 17.698726 56.426518 17.384332 C 59.790522 17.010992 63.174195 16.735898 66.557868 16.539402 C 70.384173 16.323257 74.210479 16.175886 78.036784 16.087463 C 82.335234 15.99904 86.633683 15.949916 90.932125 15.959741 C 90.932125 15.959741 90.932125 15.959741 90.941963 15.959741 L 165.06803 15.959741 C 165.077876 15.959741 165.077876 15.959741 165.077876 15.959741 Z"/>
 </g>
</svg>
