<svg xmlns="http://www.w3.org/2000/svg" style="isolation:isolate" width="16" height="16" viewBox="0 0 16 16">
  <defs>
   <style id="current-color-scheme" type="text/css">
   .ColorScheme-Text { color:#d4be98; } .ColorScheme-Highlight { color:#5294e2; }
  </style>
  <linearGradient id="arrongin" x1="0%" x2="0%" y1="0%" y2="100%">
   <stop offset="0%" style="stop-color:#dd9b44; stop-opacity:1"/>
   <stop offset="100%" style="stop-color:#ad6c16; stop-opacity:1"/>
  </linearGradient>
  <linearGradient id="aurora" x1="0%" x2="0%" y1="0%" y2="100%">
   <stop offset="0%" style="stop-color:#09D4DF; stop-opacity:1"/>
   <stop offset="100%" style="stop-color:#9269F4; stop-opacity:1"/>
  </linearGradient>
  <linearGradient id="fitdance" x1="0%" x2="0%" y1="0%" y2="100%">
   <stop offset="0%" style="stop-color:#1AD6AB; stop-opacity:1"/>
   <stop offset="100%" style="stop-color:#329DB6; stop-opacity:1"/>
  </linearGradient>
  <linearGradient id="oomox" x1="0%" x2="0%" y1="0%" y2="100%">
   <stop offset="0%" style="stop-color:#efefe7; stop-opacity:1"/>
   <stop offset="100%" style="stop-color:#8f8f8b; stop-opacity:1"/>
  </linearGradient>
  <linearGradient id="rainblue" x1="0%" x2="0%" y1="0%" y2="100%">
   <stop offset="0%" style="stop-color:#00F260; stop-opacity:1"/>
   <stop offset="100%" style="stop-color:#0575E6; stop-opacity:1"/>
  </linearGradient>
  <linearGradient id="sunrise" x1="0%" x2="0%" y1="0%" y2="100%">
   <stop offset="0%" style="stop-color: #FF8501; stop-opacity:1"/>
   <stop offset="100%" style="stop-color: #FFCB01; stop-opacity:1"/>
  </linearGradient>
  <linearGradient id="telinkrin" x1="0%" x2="0%" y1="0%" y2="100%">
   <stop offset="0%" style="stop-color: #b2ced6; stop-opacity:1"/>
   <stop offset="100%" style="stop-color: #6da5b7; stop-opacity:1"/>
  </linearGradient>
  <linearGradient id="60spsycho" x1="0%" x2="0%" y1="0%" y2="100%">
   <stop offset="0%" style="stop-color: #df5940; stop-opacity:1"/>
   <stop offset="25%" style="stop-color: #d8d15f; stop-opacity:1"/>
   <stop offset="50%" style="stop-color: #e9882a; stop-opacity:1"/>
   <stop offset="100%" style="stop-color: #279362; stop-opacity:1"/>
  </linearGradient>
  <linearGradient id="90ssummer" x1="0%" x2="0%" y1="0%" y2="100%">
   <stop offset="0%" style="stop-color: #f618c7; stop-opacity:1"/>
   <stop offset="20%" style="stop-color: #94ffab; stop-opacity:1"/>
   <stop offset="50%" style="stop-color: #fbfd54; stop-opacity:1"/>
   <stop offset="100%" style="stop-color: #0f83ae; stop-opacity:1"/>
  </linearGradient>

  <clipPath id="_clipPath_PHWY2eawOAuQTyr6rOfQPfMhBfU0x6gV">
   <rect width="16" height="16"/>
  </clipPath>
 </defs>
 <g clip-path="url(#_clipPath_PHWY2eawOAuQTyr6rOfQPfMhBfU0x6gV)">
  <rect style="fill:#000000" fill-opacity="0" width="16" height="16"/>
  <path fill="currentColor" class="ColorScheme-Text" d="M 2.445 3 C 1.925 3 1.505 3.048 1.141 3.191 C 0.777 3.335 0.479 3.602 0.309 3.926 C -0.031 4.573 0.011 5.328 0 6.357 L 0 6.361 L 0 9.639 L 0 9.643 C 0.012 10.672 -0.031 11.427 0.309 12.074 C 0.478 12.398 0.777 12.665 1.141 12.809 C 1.505 12.952 1.925 13 2.445 13 L 5.557 13 C 6.077 13 6.497 12.952 6.861 12.809 C 7.225 12.665 7.521 12.398 7.691 12.074 C 7.987 11.511 7.988 10.833 7.992 9.998 L 9.938 9.994 L 10.5 9.5 L 11 10 L 11.5 9.5 L 12 10 L 12.5 9.5 L 13.5 10.5 L 16 8 L 14 6 L 7.992 6.002 C 7.992 5.167 7.982 4.489 7.691 3.926 C 7.522 3.602 7.223 3.335 6.859 3.191 C 6.495 3.048 6.077 3 5.557 3 L 2.445 3 Z M 2.445 4 L 5.557 4 C 6.008 4 6.313 4.052 6.492 4.123 C 6.672 4.194 6.736 4.256 6.807 4.391 C 6.947 4.659 6.988 5.335 7 6.369 L 7 7.002 L 13.586 7 L 14.586 8 L 13.5 9.086 L 12.5 8.086 L 12 8.586 L 11.5 8.086 L 11 8.586 L 10.545 8.131 L 9.56 8.994 L 7 9 L 7 9.631 C 6.989 10.665 6.947 11.341 6.807 11.609 C 6.737 11.743 6.672 11.806 6.492 11.877 C 6.313 11.948 6.008 12 5.557 12 L 2.445 12 C 1.993 12 1.687 11.948 1.508 11.877 C 1.328 11.806 1.266 11.743 1.195 11.609 C 1.055 11.342 1.012 10.666 1 9.637 L 1 9.631 L 1 6.369 L 1 6.363 C 1.012 5.334 1.055 4.658 1.195 4.39 C 1.265 4.256 1.328 4.194 1.508 4.123 C 1.687 4.052 1.993 4 2.445 4 L 2.445 4 Z M 3 7 C 2.448 7 2 7.448 2 8 C 2 8.552 2.448 9 3 9 C 3.552 9 4 8.552 4 8 C 4 7.448 3.552 7 3 7 Z"/>
 </g>
</svg>
