<svg xmlns="http://www.w3.org/2000/svg" style="isolation:isolate" width="16" height="16" viewBox="0 0 16 16">
 <defs>
  <clipPath id="_clipPath_sciaKyR0NKQsUWZr83tJTAj35JB2fJgi">
   <rect width="16" height="16"/>
  </clipPath>
 </defs>
 <g clip-path="url(#_clipPath_sciaKyR0NKQsUWZr83tJTAj35JB2fJgi)">
  <rect fill="#eff0f2" width="4.625" height="3.594" x="17.63" y="-.28" transform="matrix(1,0,0,1,0,0)"/>
  <path fill="#eff0f2" d="M 8.003 1 C 4.866 1 2.314 3.304 2.314 6.132 C 2.314 7.587 2.961 9.765 3.923 11.554 C 5.12 13.777 6.568 15 8 15 C 9.432 15 10.883 13.777 12.077 11.554 C 13.039 9.765 13.686 7.583 13.686 6.132 C 13.692 3.304 11.14 1 8.003 1 Z M 2.961 6.135 C 2.961 3.661 5.223 1.647 8.006 1.647 C 10.79 1.647 13.052 3.661 13.052 6.135 C 13.052 8.774 10.664 14.363 8.006 14.363 C 5.349 14.363 2.961 8.774 2.961 6.135 Z M 7.434 9.15 L 7.411 8.932 C 7.405 8.864 7.237 7.278 6.198 6.711 C 5.156 6.145 3.733 6.866 3.672 6.895 L 3.479 6.994 L 3.502 7.213 C 3.508 7.281 3.675 8.867 4.715 9.437 C 5.008 9.594 5.329 9.652 5.641 9.652 C 6.446 9.652 7.196 9.273 7.237 9.25 L 7.434 9.15 L 7.434 9.15 Z M 5.02 8.87 C 4.467 8.568 4.251 7.767 4.174 7.374 C 4.602 7.2 5.371 6.994 5.889 7.278 C 6.439 7.577 6.658 8.378 6.735 8.771 C 6.362 8.922 5.574 9.173 5.02 8.87 Z M 10.413 9.652 C 10.725 9.652 11.05 9.594 11.34 9.437 C 12.379 8.87 12.547 7.281 12.553 7.213 L 12.575 6.994 L 12.382 6.895 C 12.321 6.863 10.899 6.142 9.857 6.711 C 8.817 7.278 8.65 8.867 8.644 8.932 L 8.621 9.15 L 8.814 9.25 C 8.859 9.273 9.609 9.652 10.413 9.652 Z M 11.877 7.377 C 11.8 7.77 11.584 8.571 11.031 8.87 C 10.481 9.17 9.689 8.922 9.316 8.771 C 9.393 8.378 9.609 7.577 10.162 7.278 C 10.716 6.978 11.507 7.229 11.877 7.377 Z M 6.832 11.486 L 9.136 11.486 L 9.136 12.13 L 6.832 12.13 L 6.832 11.486 L 6.832 11.486 Z"/>
 </g>
</svg>
