<svg xmlns="http://www.w3.org/2000/svg" style="isolation:isolate" width="16" height="16" viewBox="0 0 16 16">
 <path fill="#eff0f2" fill-rule="evenodd" d="M 8.367 4.241 C 8.272 4.242 8.17 4.251 8.111 4.261 C 7.741 4.324 7.445 4.46 7.292 4.646 C 7.171 4.791 7.137 4.973 7.198 5.149 C 7.206 5.172 7.212 5.195 7.208 5.198 C 7.204 5.202 6.841 5.241 6.403 5.287 C 6.046 5.325 5.851 5.352 5.747 5.366 C 5.733 5.368 5.664 5.375 5.658 5.376 C 5.654 5.377 5.599 5.381 5.599 5.381 C 5.598 5.382 5.604 5.397 5.604 5.401 C 5.604 5.407 5.603 5.41 5.604 5.411 C 5.608 5.443 5.623 5.513 5.663 5.652 C 5.733 5.899 5.748 5.949 5.737 5.949 C 5.735 5.949 5.698 5.923 5.658 5.894 C 5.494 5.776 5.345 5.719 5.184 5.712 C 5.008 5.703 4.896 5.752 4.77 5.875 C 4.767 5.877 4.763 5.877 4.76 5.879 C 4.697 5.943 4.673 5.972 4.632 6.057 C 4.571 6.181 4.541 6.291 4.533 6.437 C 4.523 6.608 4.561 6.824 4.622 6.965 L 4.642 7.015 L 4.725 7.015 C 4.944 7.015 5.116 6.735 5.298 6.649 C 5.425 6.618 5.658 6.618 5.816 6.649 C 6.384 6.762 6.81 7.148 6.788 7.533 C 6.783 7.635 6.746 7.703 6.655 7.794 C 6.579 7.871 6.48 7.938 6.31 8.031 C 6.25 8.064 6.15 8.12 6.087 8.155 C 6.025 8.189 5.936 8.243 5.89 8.273 C 5.8 8.333 5.688 8.432 5.688 8.456 C 5.688 8.476 5.744 8.475 5.984 8.451 C 6.087 8.44 6.171 8.424 6.26 8.411 C 6.691 8.35 6.978 8.266 7.203 8.12 C 7.416 7.981 7.577 7.76 7.637 7.528 C 7.647 7.49 7.656 7.464 7.662 7.464 C 7.668 7.464 7.707 7.484 7.746 7.508 C 7.999 7.666 8.208 7.723 8.382 7.686 C 8.538 7.653 8.689 7.559 8.965 7.321 C 9.038 7.257 9.101 7.202 9.108 7.202 C 9.114 7.202 9.172 7.328 9.236 7.478 C 9.301 7.629 9.361 7.76 9.369 7.77 C 9.384 7.787 9.396 7.789 9.631 7.75 C 9.764 7.728 9.877 7.701 9.883 7.696 C 9.896 7.683 9.845 7.51 9.799 7.4 C 9.724 7.222 9.594 7.061 9.438 6.96 C 9.345 6.9 9.205 6.834 8.979 6.748 C 8.734 6.654 8.607 6.594 8.491 6.516 C 8.376 6.439 8.265 6.337 8.279 6.324 C 8.284 6.319 8.324 6.304 8.367 6.289 C 8.714 6.169 8.952 5.941 9.108 5.574 C 9.172 5.423 9.224 5.23 9.31 4.848 C 9.349 4.675 9.4 4.48 9.419 4.414 C 9.438 4.348 9.451 4.288 9.448 4.281 C 9.448 4.28 9.437 4.285 9.433 4.285 C 9.399 4.293 9.202 4.384 8.718 4.626 C 8.32 4.825 7.988 4.988 7.983 4.986 C 7.977 4.985 8.104 4.869 8.264 4.73 C 8.423 4.59 8.567 4.465 8.58 4.453 C 8.588 4.446 8.586 4.438 8.59 4.429 C 8.595 4.414 8.599 4.394 8.599 4.35 C 8.599 4.267 8.597 4.262 8.57 4.251 C 8.548 4.242 8.463 4.24 8.368 4.241 L 8.367 4.241 L 8.367 4.241 L 8.367 4.241 L 8.367 4.241 Z M 11.926 1.092 C 11.815 1.1 11.717 1.155 11.63 1.26 C 11.531 1.378 11.482 1.538 11.496 1.68 C 11.518 1.889 11.579 2.062 11.832 2.563 C 11.971 2.839 12.016 2.949 12.064 3.17 C 12.131 3.482 12.158 3.756 12.158 4.118 C 12.157 4.451 12.137 4.694 12.084 5.011 C 12.037 5.289 11.957 5.624 11.941 5.618 C 11.915 5.61 11.885 5.35 11.862 4.972 C 11.834 4.526 11.812 4.347 11.773 4.172 C 11.669 3.704 11.439 3.507 11.057 3.565 C 10.95 3.581 10.777 3.633 10.761 3.654 C 10.754 3.662 10.793 3.798 10.899 4.103 C 10.983 4.342 11.052 4.542 11.052 4.547 C 11.052 4.562 10.991 4.583 10.978 4.572 C 10.971 4.566 10.911 4.48 10.845 4.384 C 10.705 4.182 10.634 4.083 10.539 3.97 C 10.282 3.664 10.004 3.519 9.715 3.536 C 9.61 3.542 9.451 3.576 9.424 3.6 C 9.405 3.616 9.409 3.643 9.769 4.952 L 10.139 6.289 L 10.055 7.108 C 10.01 7.56 9.966 7.94 9.962 7.952 C 9.954 7.974 9.952 7.977 9.804 7.977 C 9.72 7.977 9.551 7.971 9.429 7.962 C 9.159 7.943 8.822 7.94 8.708 7.957 C 8.591 7.974 8.422 8.016 8.264 8.07 C 7.77 8.24 7.337 8.54 6.976 8.969 C 6.643 9.364 6.36 9.868 6.082 10.563 C 5.999 10.771 5.819 11.271 5.777 11.407 C 5.672 11.742 5.613 12.098 5.604 12.483 C 5.595 12.826 5.621 13.108 5.693 13.395 C 5.776 13.733 5.901 13.994 6.073 14.215 C 6.114 14.268 6.159 14.314 6.206 14.363 C 6.208 14.365 6.209 14.366 6.211 14.368 C 6.212 14.369 6.214 14.371 6.216 14.373 C 6.217 14.374 6.215 14.376 6.216 14.377 C 6.437 14.6 6.678 14.729 6.985 14.792 C 7.205 14.837 7.588 14.844 7.588 14.802 C 7.588 14.795 7.521 14.597 7.44 14.363 C 7.358 14.129 7.292 13.934 7.292 13.929 C 7.292 13.918 7.333 13.894 7.351 13.894 C 7.356 13.894 7.407 13.965 7.464 14.052 C 7.694 14.401 7.871 14.601 8.072 14.738 C 8.191 14.819 8.347 14.882 8.471 14.901 C 8.548 14.913 8.731 14.912 8.807 14.896 C 8.9 14.876 8.993 14.845 9.004 14.832 L 8.412 13.859 C 8.8 14.162 9.31 14.454 9.67 14.556 C 10.122 14.682 10.547 14.62 10.87 14.377 C 10.972 14.301 11.077 14.197 11.072 14.18 C 11.07 14.173 10.694 14.014 10.238 13.825 C 9.781 13.636 9.406 13.476 9.404 13.47 C 9.398 13.452 9.758 13.472 10.149 13.514 C 10.274 13.527 10.478 13.55 10.603 13.563 C 11.006 13.606 11.096 13.613 11.373 13.612 C 11.667 13.612 11.796 13.601 12.02 13.553 C 12.368 13.48 12.74 13.305 13.046 13.075 C 13.17 12.981 13.231 12.924 13.224 12.912 C 13.22 12.906 12.73 12.907 11.783 12.912 C 10.807 12.917 10.363 12.914 10.347 12.907 C 10.344 12.907 10.338 12.908 10.337 12.907 C 10.331 12.897 10.434 12.612 10.45 12.596 C 10.455 12.591 10.491 12.603 10.529 12.626 C 11.186 13.016 12.601 12.916 13.628 12.404 C 13.923 12.257 14.117 12.118 14.309 11.925 C 14.54 11.694 14.675 11.441 14.694 11.2 C 14.7 11.128 14.697 11.126 14.679 11.126 C 14.657 11.126 14.299 11.224 14.107 11.283 C 14.036 11.305 13.855 11.363 13.702 11.411 C 12.707 11.726 12.294 11.811 11.753 11.821 C 11.444 11.827 11.167 11.809 11.176 11.782 C 11.186 11.752 11.606 11.607 11.891 11.535 C 12.135 11.474 12.263 11.447 12.829 11.333 C 13.666 11.164 13.969 11.085 14.339 10.938 C 15.119 10.627 15.561 10.121 15.701 9.383 C 15.737 9.192 15.759 8.855 15.736 8.855 C 15.731 8.855 15.33 9.081 14.842 9.354 C 14.355 9.626 13.95 9.846 13.944 9.843 C 13.931 9.834 13.873 9.706 13.88 9.699 C 13.883 9.697 13.945 9.662 14.023 9.62 C 14.397 9.419 14.681 9.207 14.99 8.9 C 15.567 8.325 15.905 7.661 15.987 6.95 C 16.009 6.759 16.002 6.41 15.972 6.235 C 15.937 6.027 15.855 5.72 15.83 5.712 C 15.824 5.71 15.475 6.213 15.059 6.827 C 14.185 8.12 14.139 8.186 14.132 8.179 C 14.116 8.164 14.324 7.795 14.675 7.212 C 14.826 6.96 14.989 6.687 15.035 6.605 C 15.147 6.404 15.305 6.071 15.365 5.914 C 15.577 5.363 15.607 4.895 15.459 4.448 C 15.416 4.319 15.313 4.107 15.232 3.984 C 15.152 3.863 15.032 3.709 15.02 3.713 C 15.014 3.715 14.774 4.281 14.487 4.972 L 13.964 6.225 L 13.239 7.463 C 12.513 8.704 12.481 8.764 12.474 8.756 C 12.468 8.75 12.534 8.565 12.602 8.396 C 12.772 7.975 12.947 7.64 13.426 6.817 C 13.732 6.292 13.87 6.046 13.993 5.801 C 14.379 5.037 14.565 4.42 14.611 3.747 C 14.62 3.611 14.62 3.546 14.611 3.457 C 14.562 2.992 14.398 2.413 14.225 2.089 C 14.125 1.901 13.995 1.751 13.88 1.695 C 13.828 1.669 13.811 1.665 13.727 1.665 C 13.641 1.665 13.625 1.668 13.559 1.699 C 13.398 1.775 13.352 1.893 13.352 2.198 C 13.352 2.361 13.365 2.489 13.416 2.854 L 13.451 3.111 L 13.446 3.402 C 13.44 3.691 13.436 3.784 13.406 4.054 C 13.341 4.647 13.18 5.328 12.942 6.052 C 12.852 6.325 12.72 6.705 12.706 6.728 C 12.671 6.782 12.756 6.39 12.928 5.687 C 13.209 4.533 13.276 4.122 13.288 3.54 C 13.296 3.138 13.269 2.86 13.194 2.534 C 13.149 2.338 13.132 2.287 13.066 2.153 C 12.881 1.779 12.559 1.383 12.296 1.211 C 12.16 1.122 12.037 1.084 11.926 1.092 L 11.926 1.092 L 11.926 1.092 L 11.926 1.092 L 11.926 1.092 Z M 6.65 7.286 C 6.242 7.337 5.838 7.434 5.45 7.57 C 5.047 7.717 4.645 7.912 4.347 8.228 C 4.325 8.266 4.213 8.349 4.256 8.37 C 4.694 8.252 5.309 8.08 5.724 7.963 C 5.836 7.931 5.922 7.906 6.02 7.879 C 6.2 7.83 6.379 7.778 6.557 7.725 L 6.685 7.686 C 6.725 7.639 6.702 7.498 6.708 7.416 C 6.695 7.373 6.732 7.259 6.65 7.286 L 6.65 7.286 L 6.65 7.286 L 6.65 7.286 Z M 2.278 7.454 C 2.16 7.461 2.008 7.497 1.912 7.543 C 1.64 7.672 1.48 7.907 1.404 8.278 C 1.36 8.495 1.352 8.614 1.35 9.191 C 1.348 9.492 1.344 9.74 1.34 9.744 C 1.336 9.747 1.322 9.738 1.305 9.719 C 1.244 9.648 1.165 9.52 1.054 9.299 C 1.013 9.218 0.98 9.164 0.945 9.102 C 0.927 9.069 0.901 9.008 0.891 8.994 C 0.831 8.902 0.72 8.787 0.644 8.737 C 0.58 8.694 0.482 8.658 0.417 8.658 C 0.229 8.658 0.062 8.831 0.012 9.077 C -0.036 9.315 0.058 9.511 0.254 9.586 C 0.286 9.598 0.336 9.604 0.432 9.605 C 0.505 9.607 0.571 9.611 0.575 9.615 C 0.579 9.62 0.595 9.661 0.61 9.704 C 0.653 9.832 0.759 10.041 0.92 10.311 C 1.091 10.597 1.2 10.805 1.246 10.933 C 1.296 11.07 1.53 11.974 1.562 12.152 C 1.59 12.307 1.597 12.448 1.582 12.522 C 1.575 12.555 1.545 12.648 1.513 12.724 C 1.424 12.936 1.418 13.016 1.478 13.183 C 1.598 13.516 1.81 13.743 2.115 13.869 C 2.192 13.901 2.205 13.903 2.223 13.859 C 2.265 13.761 2.318 13.548 2.337 13.401 C 2.367 13.159 2.345 12.987 2.218 12.428 C 2.16 12.17 2.114 11.856 2.135 11.856 C 2.139 11.856 2.178 11.882 2.218 11.915 C 2.259 11.948 2.394 12.056 2.519 12.152 C 2.846 12.401 2.887 12.435 3.26 12.803 C 3.401 12.943 3.503 13.037 3.59 13.114 C 3.765 13.269 3.869 13.336 4.015 13.386 C 4.093 13.413 4.125 13.42 4.192 13.42 C 4.356 13.42 4.431 13.352 4.439 13.193 C 4.445 13.081 4.411 12.952 4.321 12.769 C 4.232 12.59 4.162 12.496 4.025 12.364 C 3.865 12.211 3.717 12.103 3.24 11.797 C 2.834 11.536 2.652 11.402 2.495 11.244 C 2.287 11.035 2.199 10.862 2.189 10.637 C 2.181 10.451 2.227 10.333 2.347 10.212 C 2.47 10.089 2.605 10.02 3.003 9.882 C 3.423 9.736 3.58 9.644 3.65 9.502 C 3.674 9.452 3.674 9.437 3.674 9.354 C 3.674 9.274 3.674 9.253 3.655 9.216 C 3.563 9.041 3.287 8.936 2.84 8.91 L 2.727 8.905 L 2.347 9.285 C 2.138 9.493 1.965 9.658 1.962 9.655 C 1.959 9.652 2.05 9.165 2.164 8.569 C 2.279 7.973 2.376 7.479 2.376 7.469 C 2.376 7.452 2.367 7.448 2.278 7.454 L 2.278 7.454 L 2.278 7.454 Z M 4.928 11.352 C 4.911 11.352 4.822 11.443 4.78 11.505 C 4.663 11.677 4.573 11.932 4.518 12.246 C 4.499 12.357 4.499 12.409 4.498 12.65 C 4.498 12.956 4.505 13.025 4.563 13.198 C 4.626 13.389 4.732 13.517 4.859 13.563 C 4.879 13.571 4.915 13.578 4.943 13.578 C 5.102 13.58 5.249 13.403 5.318 13.134 C 5.376 12.905 5.332 12.713 5.12 12.265 C 4.984 11.979 4.949 11.866 4.928 11.693 C 4.917 11.609 4.917 11.526 4.933 11.402 C 4.937 11.367 4.935 11.352 4.928 11.352 L 4.928 11.352 Z"/>
</svg>
