<svg xmlns="http://www.w3.org/2000/svg" width="16" height="16" version="1.1">
 <g transform="translate(-452.00003,-140)">
  <path d="m 457.6621,140 c -0.83879,0.01 -1.45125,-0.0191 -1.95313,0.25781 -0.25093,0.13845 -0.45077,0.37165 -0.56054,0.66406 -0.10977,0.29242 -0.14844,0.63974 -0.14844,1.07813 v 12 c 0,0.43839 0.0387,0.78571 0.14844,1.07812 0.10977,0.29242 0.30961,0.52757 0.56054,0.66602 0.50188,0.2769 1.11434,0.24616 1.95313,0.25586 h 0.002 5.67188 0.002 c 0.83879,-0.01 1.45125,0.021 1.95312,-0.25586 0.25094,-0.13845 0.45078,-0.3736 0.56055,-0.66602 0.10967,-0.29241 0.14834,-0.63973 0.14834,-1.07812 v -12 c 0,-0.43839 -0.0387,-0.78571 -0.14844,-1.07813 -0.10976,-0.29241 -0.30961,-0.52561 -0.56054,-0.66406 -0.50188,-0.2769 -1.11434,-0.24811 -1.95313,-0.25781 h -0.002 -5.67187 z m 2.33789,1.30273 4.24023,4.23829 -2.93945,2.46875 2.93945,2.46875 -4.24023,4.23828 v -5.61328 l -2.42773,2.03906 -0.64454,-0.76563 2.81836,-2.36718 -2.81836,-2.36719 0.64454,-0.76563 2.42773,2.03907 z m 1,2.41407 v 3.24023 l 1.75977,-1.48047 z m 0,5.3457 v 3.24023 l 1.75977,-1.75976 z" style="solid-color:#eff0f2;fill:#eff0f2"/>
 </g>
</svg>
