<svg xmlns="http://www.w3.org/2000/svg" width="16" height="16" version="1.1">
 <path d="m 14.326672,1.1358346 c -0.191697,-0.015118 -0.38547,0.011339 -0.575108,0.041197 -0.160592,0.026457 -0.316913,0.075213 -0.47241,0.1232126 C 13.084621,1.3603382 12.92898,1.4026694 12.704049,1.5054726 12.47913,1.6086537 12.184905,1.7685277 11.944085,1.93683 11.703253,2.105019 11.474063,2.3007985 11.266279,2.5119229 11.024087,2.7579702 10.609012,3.312956 10.609012,3.312956 c 0,0 -1.3585288,-0.042709 -2.0334158,0.018898 -0.19389,0.018897 -0.575108,0.1028028 -0.575108,0.1028028 l -0.616184,0.1334173 c 0,0 -0.250129,0.063496 -0.506431,0.1685669 0,0 -0.282519,0.1239685 -0.489739,0.2010709 -0.295786,0.1099843 -0.421153,0.232063 -0.688075,0.4005165 -0.242419,0.1530709 -0.456132,0.3503622 -0.657267,0.5545701 -0.153109,0.1553386 -0.286602,0.3076535 -0.414319,0.506759 -0.006,0.00756 -0.01172,0.018898 -0.01701,0.026457 -0.13663,0.2294174 -0.251755,0.4784126 -0.308107,0.7394268 -0.0477,0.2211024 -0.04849,0.4535055 -0.02041,0.6778203 0.02457,0.19767 0.164334,0.575093 0.164334,0.575093 0,0 0.208441,0.283087 0.32863,0.410797 0.132888,0.141354 0.259464,0.300472 0.431331,0.390236 0.161953,0.08466 0.352819,0.100158 0.534028,0.123213 0.0098,0.0012 0.02003,0.0024 0.03061,0.0037 0.252888,0.02646 0.474029,0.04309 0.708938,0.0189 0.25251,-0.02646 0.505999,-0.08466 0.739423,-0.184818 0.246047,-0.105827 0.472044,-0.260031 0.677805,-0.431319 0.200995,-0.167433 0.415741,-0.34167 0.534028,-0.575131 0.08198,-0.161764 0.13852,-0.35641 0.10269,-0.5340096 -0.01965,-0.096756 -0.08629,-0.1859528 -0.164334,-0.2464252 -0.06134,-0.047622 -0.156208,-0.026457 -0.219855,-0.077102 -0.0022,-0.00178 -0.0042,-0.0031 -0.0061,-0.00378 -0.07215,-0.066141 -0.104614,-0.1708341 -0.123247,-0.2668341 -0.02608,-0.1345512 -0.04124,-0.288378 0.02041,-0.4107969 0.04384,-0.086929 0.174274,-0.2698583 0.248202,-0.3333543 0.132623,-0.1133858 0.222047,-0.1050709 0.367974,-0.2006929 0.01512,-0.011339 0.02003,-0.011339 0.0446,-0.022677 0.0037,-0.00178 0.0079,-0.0031 0.01285,-0.00378 0.129676,-0.058583 0.449114,-0.1961575 0.640899,-0.2199685 0.07502,-0.00756 0.172989,-0.034016 0.22594,0.018898 8.65e-4,6.047e-4 0.0021,0.00121 0.0025,0.00242 0.03779,0.087307 0.01814,0.2849764 0.01814,0.2849764 l -0.0053,0.011337 -1.288535,2.9041131 c 0,0 -0.500761,1.127093 -0.8832,1.602066 -0.136933,0.170079 -0.309657,0.312567 -0.492949,0.4313584 -0.151748,0.09827 -0.318236,0.179527 -0.492952,0.226016 -0.225903,0.05972 -0.470612,0.114141 -0.698344,0.06161 -0.194532,-0.0446 -0.392957,-0.148913 -0.51349,-0.308032 -0.09426,-0.1243464 -0.138633,-0.2966934 -0.12325,-0.4518804 0.006,-0.06085 0.05144,-0.111496 0.08217,-0.164409 0.04955,-0.08542 0.118337,-0.159118 0.164333,-0.246426 0.05152,-0.09789 0.121701,-0.197669 0.123251,-0.308031 0.0019,-0.138709 -0.04925,-0.288756 -0.143774,-0.390236 -0.102387,-0.109984 -0.263962,-0.153449 -0.410789,-0.184819 -0.194116,-0.04157 -0.397663,-0.01512 -0.595646,0 -0.317669,0.02268 -0.628845,0.07408 -0.944821,0.143622 -0.289625,0.06387 -0.570078,0.169323 -0.84212,0.287622 -0.206476,0.08957 -0.412925,0.186709 -0.59565,0.318236 -0.206362,0.148536 -0.377802,0.342047 -0.554567,0.523767 -0.191017,0.196158 -0.3625701,0.4164284 -0.49294805,0.6572604 -0.15258,0.281953 -0.262299,0.590135 -0.32863,0.903722 -0.06248,0.29556 -0.07276,0.602004 -0.06161,0.903761 0.0072,0.193512 0.03931,0.386268 0.08217,0.575093 0.0556,0.244913 0.109342,0.496403 0.22594,0.718866 0.144945,0.276662 0.33702005,0.519421 0.57510805,0.739465 0.238072,0.219968 0.54059,0.406072 0.84212,0.554532 0.263207,0.129638 0.551445,0.242268 0.831852,0.287622 0.263962,0.04233 0.533718,0.03779 0.801044,0.0412 0.390255,0.0076 0.777619,-0.0076 1.160485,-0.08202 0.367899,-0.07294 0.712603,-0.24189 1.047515,-0.410797 0.425767,-0.214676 0.838923,-0.46284 1.211833,-0.759948 0.265059,-0.211276 0.503517,-0.457248 0.718885,-0.718904 0.304101,-0.369638 0.570063,-0.772196 0.801045,-1.19127 0.245631,-0.445681 0.411212,-0.930972 0.616188,-1.396724 0.123477,-0.280441 0.269593,-0.5523404 0.369713,-0.8421164 0.08081,-0.233953 0.115842,-0.481285 0.184857,-0.718866 0.07427,-0.255874 0.2464628,-0.759988 0.2464628,-0.759988 0,0 0.513498,-0.07937 0.759965,-0.0189 0.181757,0.04346 0.345637,0.151937 0.492948,0.267213 0.08787,0.06841 0.171855,0.148913 0.22594,0.246425 0.06202,0.111874 0.08277,0.243402 0.10269,0.369638 0.0257,0.16252 0.05367,0.331842 0.02041,0.492964 -0.03829,0.185952 -0.114747,0.376818 -0.246463,0.513486 -0.10201,0.1058274 -0.245821,0.1780164 -0.390252,0.2052294 -0.06093,0.01134 -0.126614,5.66e-4 -0.184856,-0.0189 -0.06958,-0.02646 -0.139918,-0.06425 -0.184857,-0.123213 -0.05257,-0.06879 -0.05476,-0.1644104 -0.08217,-0.2464254 -0.02721,-0.08202 -0.02532,-0.18104 -0.08217,-0.246425 -0.02003,-0.02268 -0.05155,-0.04082 -0.08217,-0.0412 -0.128609,-0.0012 -0.246983,0.08617 -0.349182,0.16441 -0.142752,0.109228 -0.2465758,0.263055 -0.3491898,0.4107974 -0.111988,0.161008 -0.20897,0.333732 -0.287547,0.513486 -0.106658,0.244158 -0.204888,0.496895 -0.246463,0.75995 -0.03742,0.236598 -0.04607,0.483741 0,0.718904 0.03836,0.195779 0.1104,0.391785 0.22594,0.55457 0.08984,0.126614 0.225563,0.214299 0.349191,0.308031 0.1300538,0.09865 0.2614678,0.201071 0.4107928,0.267213 0.122986,0.05442 0.258596,0.07521 0.390252,0.102803 0.217058,0.04535 0.435522,0.101291 0.657263,0.102803 0.242041,0.0018 0.488644,-0.02646 0.718885,-0.102803 0.265096,-0.08617 0.514012,-0.226394 0.739427,-0.390236 0.285884,-0.207874 0.522444,-0.477695 0.759961,-0.739427 0.206211,-0.22715 0.409716,-0.460384 0.575108,-0.718904 0.140258,-0.219213 0.25886,-0.454223 0.349191,-0.698343 0.08814,-0.23811 0.150652,-0.487672 0.184856,-0.739427 0.03704,-0.2713704 0.06747,-0.5516604 0.02041,-0.8215564 -0.039,-0.224126 -0.147175,-0.431962 -0.246463,-0.636737 -0.07635,-0.157606 -0.157833,-0.315212 -0.267024,-0.45188 -0.105789,-0.132661 -0.23142,-0.250961 -0.369713,-0.349228 -0.194873,-0.138331 -0.63673,-0.328819 -0.63673,-0.328819 l 0.513491,-0.205229 c 0,0 0.436286,-0.181039 0.616187,-0.328818 0.150486,-0.1235505 0.293352,-0.2728419 0.369812,-0.4518403 0.132812,-0.3106771 0.154658,-0.6699212 0.12325,-1.0064126 C 14.790379,5.1359731 14.696647,4.8170944 14.532313,4.5470471 14.421573,4.3652519 14.243443,4.2322125 14.080444,4.0951668 13.907455,3.949655 13.725546,3.8109463 13.525874,3.7049306 13.338296,3.605529 13.138533,3.5201117 12.930228,3.4789149 c -0.235162,-0.046488 -0.718885,-0.018898 -0.718885,-0.018898 0,0 0.114217,-0.2233701 0.205379,-0.3182362 0.131717,-0.1371968 0.294841,-0.2997165 0.462142,-0.3902362 0.134665,-0.072945 0.269556,-0.1114961 0.421062,-0.1334173 0.116939,-0.018898 0.251792,-0.00378 0.349191,0.061606 0.09868,0.068032 0.120793,0.2067401 0.184856,0.3080315 0.0528,0.083527 0.08118,0.1931338 0.164334,0.2464252 0.110891,0.071055 0.260107,0.081638 0.390251,0.061606 0.181531,-0.026457 0.3439,-0.1390867 0.492949,-0.2464252 0.102123,-0.073701 0.18565,-0.1708347 0.267024,-0.2672126 0.07612,-0.089953 0.148346,-0.184441 0.205379,-0.2876221 0.06093,-0.1099842 0.132284,-0.223748 0.143773,-0.3492283 0.0121,-0.1322835 -0.02721,-0.2691024 -0.08217,-0.3902362 -0.0565,-0.1247244 -0.141355,-0.2407559 -0.246463,-0.3288189 -0.105789,-0.088441 -0.369714,-0.1848189 -0.369714,-0.1848189 0,0 -0.31166,-0.091087 -0.472411,-0.1028032 z m -3.197752,3.614022 c 0,0 0.368391,-0.034016 0.515093,0 0.146721,0.034016 0.259313,0.087685 0.347263,0.1791496 0.08791,0.091465 0.117392,0.1950236 0.156926,0.336 0.03953,0.1409763 0.0878,0.3201259 0.05586,0.5038488 -0.03213,0.183685 -0.149253,0.3936378 -0.268611,0.5488252 -0.119357,0.1553385 -0.267779,0.2751496 -0.425556,0.3692598 -0.157757,0.09411 -0.32519,0.1761261 -0.504181,0.1904881 -0.132813,0.01134 -0.391854,-0.078614 -0.391854,-0.078614 z" style="fill:#eff0f2"/>
</svg>
