<svg xmlns="http://www.w3.org/2000/svg" style="isolation:isolate" width="16" height="16" viewBox="0 0 16 16">
 <path fill="#eff0f2" d="M 14.222 14.769 C 12.786 15.533 11.204 15.993 9.705 16 C 7.268 16 5.338 15.284 3.914 13.852 C 2.49 12.412 1.778 10.464 1.778 8.005 C 1.778 5.54 2.49 3.591 3.914 2.159 C 5.338 0.72 7.268 0 9.705 0 C 11.335 0.018 12.903 0.517 14.222 1.231 L 14.222 4.516 C 12.928 3.735 11.405 3.253 10.009 3.244 C 8.663 3.244 7.303 3.699 6.532 4.608 C 5.761 5.517 5.376 6.408 5.376 8.005 C 5.376 9.596 5.761 10.483 6.532 11.392 C 7.303 12.301 8.663 12.756 10.009 12.756 C 11.51 12.67 13.136 12.247 14.222 11.484 L 14.222 14.769 Z"/>
</svg>
