<svg xmlns="http://www.w3.org/2000/svg" style="isolation:isolate" width="16" height="16" viewBox="0 0 16 16">
 <path fill="#eff0f2" d="M 0.364 0 C 0.163 0 0 0.163 0 0.364 L 0 15.636 C 0 15.837 0.163 16 0.364 16 L 4.364 16 C 4.564 16 4.727 15.837 4.727 15.636 L 4.727 0.364 C 4.727 0.163 4.564 0 4.364 0 L 0.364 0 Z M 7.666 0.891 C 7.522 0.873 7.381 0.942 7.307 1.067 L 5.455 4.212 L 5.455 8.804 L 6.871 9.619 L 6.5 10.244 L 5.455 9.642 L 5.455 13.53 L 11.381 3.466 C 11.482 3.292 11.424 3.068 11.25 2.966 L 7.804 0.937 C 7.762 0.913 7.715 0.897 7.666 0.891 L 7.666 0.891 Z M 6.058 4.567 L 8.903 6.204 L 8.532 6.829 L 5.685 5.191 L 6.058 4.567 Z M 12.723 4.731 C 12.676 4.739 12.631 4.755 12.589 4.78 L 10.812 5.863 L 9.916 7.382 L 11.565 10.088 L 10.945 10.466 L 9.499 8.093 L 7.615 11.293 L 8.149 12.17 L 7.528 12.547 L 7.197 12.004 L 5.732 14.494 L 15.05 8.816 C 15.132 8.766 15.191 8.686 15.214 8.592 C 15.236 8.499 15.221 8.4 15.171 8.318 L 13.089 4.901 C 13.039 4.819 12.959 4.76 12.865 4.737 C 12.819 4.726 12.77 4.724 12.723 4.731 L 12.723 4.731 Z M 12.417 11.273 L 11.273 11.973 L 8 13.976 L 8 15.273 L 7.273 15.273 L 7.273 14.42 L 5.455 15.534 L 5.455 16 L 15.636 16 C 15.837 16 16 15.837 16 15.636 L 16 11.636 C 16 11.436 15.837 11.273 15.636 11.273 L 12.417 11.273 Z M 11.273 12 L 12 12 L 12 15.273 L 11.273 15.273 L 11.273 12 Z M 2.364 13.091 C 2.665 13.091 2.909 13.335 2.909 13.636 C 2.909 13.938 2.665 14.182 2.364 14.182 C 2.062 14.182 1.818 13.938 1.818 13.636 C 1.818 13.335 2.062 13.091 2.364 13.091 Z"/>
</svg>
