<svg xmlns="http://www.w3.org/2000/svg" style="isolation:isolate" width="16" height="16" viewBox="0 0 16 16">
 <path fill="#eff0f2" d="M 8 0.001 C 3.583 0.001 0 3.583 0 8 C 0 12.417 3.583 16 8 16 C 12.417 16 16 12.417 16 8 C 16 3.583 12.416 0 8 0 L 8 0.001 Z M 5.931 1.58 L 5.601 2.186 L 8 3.219 L 10.4 2.185 L 10.068 1.58 C 11.435 2.024 12.624 2.892 13.463 4.058 L 12.78 3.921 L 12.546 6.517 L 14.263 8.487 L 14.751 7.96 L 14.751 8 C 14.751 9.5 14.256 10.878 13.424 12 L 13.346 11.297 L 10.81 11.864 L 9.483 14.107 L 10.107 14.4 C 9.428 14.628 8.717 14.746 8 14.751 C 7.283 14.746 6.572 14.628 5.893 14.4 L 6.517 14.107 L 5.19 11.864 L 2.654 11.297 L 2.576 12 C 1.714 10.844 1.249 9.441 1.249 8 L 1.249 7.961 L 1.738 8.488 L 3.455 6.517 L 3.22 3.922 L 2.537 4.058 C 3.377 2.893 4.566 2.025 5.932 1.582 L 5.931 1.58 Z M 8 5.326 L 5.19 7.376 L 6.264 10.673 L 9.736 10.673 L 10.81 7.376 L 8 5.326 Z"/>
</svg>
