<svg xmlns="http://www.w3.org/2000/svg" style="isolation:isolate" width="16" height="16" viewBox="0 0 16 16">
 <path fill="#eff0f2" d="M 5.692 5.965 C 2.399 6.692 0 8.925 0 11.429 C 1.401 11.751 1.851 11.849 3.429 12.102 L 3.429 15.209 C 3.429 15.209 3.486 16 4.286 16 L 11.714 16 C 12.514 16 12.571 15.209 12.571 15.209 L 12.571 12.102 C 14.177 11.807 14.5 11.751 16 11.429 C 16 8.925 13.601 6.692 10.308 5.965 C 10.996 5.336 11.429 4.433 11.429 3.429 C 11.429 1.536 9.892 0 8 0 C 6.108 0 4.571 1.536 4.571 3.429 C 4.571 4.433 5.004 5.336 5.692 5.965 Z"/>
</svg>
