<svg xmlns="http://www.w3.org/2000/svg" style="isolation:isolate" width="16" height="16" viewBox="0 0 16 16">
 <path fill="#eff0f2" d="M 8.158 1.479 C 6.575 1.643 5.446 1.739 3.828 1.752 C 2.576 1.746 1.419 1.589 0.177 1.499 C -0.123 1.5 -0.001 1.609 0.24 1.868 C 0.434 2.076 0.77 2.121 0.77 2.232 C 0.77 2.342 0.827 2.933 0.983 3.095 C 1.165 3.288 1.443 3.363 1.884 3.297 C 2.162 3.307 2.165 3.452 2.166 3.706 C 2.166 3.882 2.263 4.111 2.381 4.312 C 2.673 4.812 3.107 5.171 3.587 5.198 C 3.848 5.212 4.203 5.153 4.477 5.015 C 4.742 4.881 4.987 4.772 5.021 4.772 C 5.054 4.772 5.114 4.983 5.154 5.241 C 5.31 6.258 5.91 6.552 6.803 6.774 L 6.803 6.774 C 7.215 6.853 7.666 6.867 7.984 6.67 C 7.869 7.305 7.749 7.976 7.563 9.094 C 7.407 10.026 7.253 11.415 7.221 12.048 C 7.17 13.043 7.191 13.253 7.377 13.602 C 7.652 14.117 8.34 14.518 8.93 14.521 L 9.385 14.522 L 9.333 13.67 C 9.24 12.17 9.905 10.453 10.944 9.726 C 11.879 9.073 12.08 9.521 11.734 11.481 C 11.424 13.233 11.465 13.766 11.947 14.212 C 12.357 14.592 12.952 14.631 13.836 14.335 C 14.748 14.029 16.159 12.742 15.985 12.273 C 15.894 12.026 15.786 12.112 15.24 12.551 C 14.6 13.066 14.165 13.051 13.915 12.764 C 13.733 12.556 13.739 12.428 14.025 11.237 C 14.233 10.374 14.421 9.751 14.424 9.065 C 14.429 7.977 14.286 7.529 13.253 7.373 C 12.463 7.261 11.292 7.485 10.352 8.156 C 10.064 8.362 9.803 8.505 9.773 8.474 C 9.744 8.443 9.897 7.403 10.114 6.26 C 10.331 5.117 10.509 4.042 10.509 3.87 C 10.509 3.554 10.071 3.051 8.784 1.889 C 8.577 1.703 8.446 1.58 8.283 1.509 C 8.261 1.486 8.244 1.477 8.23 1.472 C 8.212 1.474 8.195 1.476 8.18 1.477 C 8.172 1.474 8.163 1.471 8.155 1.469 L 8.155 1.469 C 8.155 1.469 8.155 1.47 8.158 1.479 Z"/>
</svg>
