<svg xmlns="http://www.w3.org/2000/svg" style="isolation:isolate" width="16" height="16" viewBox="0 0 16 16">
 <path fill="#eff0f2" d="M 11.657 0 C 10.193 1.552 9.29 3.21 8.853 5.097 C 8.288 7.537 8.377 10.219 8.431 13.962 L 11.603 13.962 C 11.574 11.933 11.57 10.285 11.623 8.886 L 14.101 8.886 L 14.101 5.714 L 11.985 5.714 C 12.356 4.182 12.975 3.054 14.401 1.726 C 13.6 0.987 12.67 0.402 11.657 0 Z M 7.756 1.89 L 4.584 1.924 C 4.64 6.942 4.485 9.432 4.04 10.794 C 3.646 12.001 2.991 12.659 1.599 13.962 C 2.288 14.784 3.12 15.474 4.055 16 C 5.42 14.702 6.475 13.56 7.056 11.779 C 7.752 9.649 7.813 6.964 7.756 1.89 Z"/>
</svg>
