<svg xmlns="http://www.w3.org/2000/svg" style="isolation:isolate" width="16" height="16" viewBox="0 0 16 16">
 <path fill="#eff0f2" fill-rule="evenodd" d="M 13.059 7.05 C 13.11 6.798 12.884 6.461 12.632 6.407 C 12.391 6.356 12.06 6.56 12.008 6.799 C 11.952 7.057 12.187 7.408 12.447 7.459 C 12.688 7.507 13.011 7.29 13.059 7.05 L 13.059 7.05 L 13.059 7.05 L 13.059 7.05 Z M 6.303 15.846 C 6.426 15.443 7.034 14.437 7.362 14.094 C 7.563 13.884 7.727 13.692 7.727 13.668 C 7.727 13.501 7.229 13.135 5.012 11.673 C 3.825 10.891 3.181 10.331 2.588 9.568 L 2.087 8.922 L 1.879 7.94 C 1.721 7.2 1.686 6.905 1.733 6.736 C 1.78 6.569 1.772 6.493 1.698 6.433 C 1.563 6.324 1.569 5.831 1.706 5.78 C 1.781 5.752 1.808 5.649 1.802 5.423 C 1.79 4.998 1.858 4.854 2.477 3.974 C 2.84 3.46 3.101 3.164 3.297 3.044 C 3.455 2.948 3.766 2.701 3.987 2.495 C 4.352 2.157 4.412 2.126 4.621 2.164 C 4.787 2.195 4.898 2.172 5.019 2.082 C 5.286 1.883 5.708 1.658 5.814 1.658 C 5.928 1.658 6.587 1.289 6.788 1.112 C 7.018 0.91 7.912 0.482 8.051 0.508 C 8.122 0.521 8.19 0.601 8.203 0.685 C 8.215 0.769 8.246 0.838 8.272 0.838 C 8.297 0.838 8.538 0.734 8.806 0.606 C 9.075 0.479 9.644 0.278 10.07 0.161 C 10.906 -0.068 11.126 -0.057 11.277 0.22 C 11.345 0.345 11.42 0.36 11.981 0.36 C 12.627 0.36 12.962 0.456 13.043 0.664 C 13.066 0.721 13.289 0.863 13.539 0.979 C 13.91 1.151 13.994 1.219 13.994 1.351 C 13.994 1.453 14.073 1.567 14.207 1.661 C 14.516 1.877 14.459 2.054 13.994 2.321 C 13.784 2.443 13.564 2.57 13.507 2.604 C 13.422 2.655 13.438 2.683 13.594 2.754 C 13.699 2.802 13.786 2.886 13.786 2.941 C 13.786 3.09 13.188 3.882 12.95 4.048 C 12.698 4.224 12.694 4.299 12.905 4.907 C 12.995 5.167 13.139 5.687 13.226 6.063 C 13.312 6.439 13.442 6.946 13.515 7.19 C 13.587 7.434 13.697 7.926 13.758 8.283 C 13.954 9.413 13.789 10.136 13.162 10.907 C 12.74 11.425 11.735 12.377 11.148 12.814 L 10.704 13.145 L 10.745 13.486 C 10.777 13.749 10.844 13.889 11.038 14.1 C 11.342 14.43 11.906 15.539 11.906 15.807 L 11.906 16 L 6.256 16 L 6.303 15.846 L 6.303 15.846 L 6.303 15.846 L 6.303 15.846 Z M 9.959 8.36 C 10.055 8.263 10.133 8.099 10.133 7.997 C 10.133 7.894 10.055 7.731 9.959 7.634 C 9.467 7.136 8.746 7.856 9.223 8.37 C 9.427 8.591 9.735 8.586 9.959 8.36 L 9.959 8.36 Z"/>
</svg>
