<svg xmlns="http://www.w3.org/2000/svg" style="isolation:isolate" width="16" height="16" viewBox="0 0 16 16">
 <path fill="#eff0f2" d="M 0.03 0.148 L 0.046 0.253 C 0.423 2.75 0.637 4.521 0.918 5.773 C 1.198 7.025 1.547 7.77 2.202 8.183 C 2.856 8.596 3.788 8.63 5.222 8.584 C 6.656 8.539 8.597 8.412 11.274 8.33 L 11.36 8.328 L 11.348 8.244 C 11.096 6.325 11.012 4.996 10.841 4.038 C 10.671 3.081 10.404 2.484 9.792 2.079 C 9.18 1.674 8.243 1.46 6.72 1.212 C 5.198 0.964 3.088 0.685 0.135 0.167 L 0.03 0.148 Z M 12.918 0.624 C 11.876 0.624 11.026 1.468 11.026 2.515 C 11.026 3.562 11.876 4.406 12.918 4.406 C 13.959 4.406 14.809 3.562 14.809 2.515 C 14.809 1.468 13.959 0.624 12.918 0.624 Z M 16 3.923 L 15.842 4.018 C 14.581 4.772 13.651 4.907 12.929 5.303 C 12.569 5.501 12.262 5.768 12.013 6.203 C 11.764 6.638 11.569 7.24 11.412 8.115 L 11.388 8.248 L 11.515 8.202 C 13.473 7.47 14.341 7.405 14.868 7.023 C 15.132 6.832 15.295 6.561 15.444 6.114 C 15.594 5.668 15.734 5.04 15.957 4.103 L 16 3.923 Z M 15.839 7.201 L 15.631 7.27 C 13.539 7.968 12.682 8.168 12.242 8.488 C 12.023 8.648 11.916 8.843 11.836 9.119 C 11.756 9.394 11.694 9.756 11.549 10.284 L 11.515 10.407 L 11.641 10.381 C 12.908 10.101 13.493 10.033 13.987 9.685 C 14.482 9.336 14.855 8.728 15.719 7.385 L 15.839 7.201 Z M 11.419 8.936 L 11.313 8.943 C 8.131 9.109 6.473 8.861 5.37 9.566 C 4.818 9.919 4.419 10.489 4.055 11.408 C 3.69 12.326 3.357 13.596 2.93 15.371 L 2.899 15.501 L 3.026 15.464 C 4.925 14.906 6.272 14.664 7.255 14.506 C 8.239 14.348 8.863 14.277 9.325 14.042 C 9.788 13.807 10.067 13.407 10.345 12.64 C 10.623 11.872 10.908 10.803 11.391 9.04 L 11.419 8.936 Z M 15.239 9.258 C 14.305 10.238 13.506 10.416 12.888 10.633 C 12.579 10.742 12.31 10.862 12.108 11.102 C 11.905 11.342 11.776 11.693 11.725 12.25 L 11.718 12.346 L 11.812 12.335 C 12.949 12.188 13.587 12.073 14.07 11.668 C 14.553 11.262 14.86 10.587 15.366 9.34 L 15.239 9.258 Z M 3.781 10.896 L 3.644 10.933 C 2.201 11.295 1.534 11.738 1.122 12.471 C 0.709 13.205 0.543 14.205 0.047 15.707 L 0 15.852 L 0.146 15.802 C 0.801 15.585 1.265 15.43 1.621 15.252 C 1.976 15.075 2.223 14.873 2.423 14.574 C 2.824 13.976 3.049 13.011 3.734 11.029 L 3.781 10.896 Z M 14.933 11.968 L 14.794 12.021 C 13.636 12.462 12.998 12.659 12.65 12.96 C 12.476 13.111 12.381 13.295 12.347 13.528 C 12.313 13.761 12.335 13.777 12.381 14.156 L 12.392 14.243 L 12.477 14.221 C 12.872 14.121 13.16 14.124 13.39 14.134 C 13.621 14.144 13.801 14.167 13.97 14.088 C 14.139 14.009 14.268 13.834 14.404 13.494 C 14.541 13.153 14.691 12.903 14.896 12.112 L 14.933 11.968 Z"/>
</svg>
