<svg xmlns="http://www.w3.org/2000/svg" style="isolation:isolate" width="16" height="16" viewBox="0 0 16 16">
 <defs>
  <clipPath id="_clipPath_CUXwEu2tBdRMCX0hYsEqbL5d9GLq4Mba">
   <rect width="16" height="16"/>
  </clipPath>
 </defs>
 <g clip-path="url(#_clipPath_CUXwEu2tBdRMCX0hYsEqbL5d9GLq4Mba)">
  <rect fill="#eff0f2" width="4.625" height="3.594" x="17.09" y="-.09" transform="matrix(1,0,0,1,0,0)"/>
  <path fill="#eff0f2" d="M 3.994 1.5 C 2.736 1.515 1.815 1.469 1.063 1.885 C 0.686 2.092 0.387 2.444 0.223 2.883 C 0.058 3.321 0 3.842 0 4.5 L 0 11.5 C 0 12.158 0.058 12.679 0.223 13.117 C 0.387 13.556 0.686 13.908 1.063 14.115 C 1.815 14.531 2.736 14.485 3.994 14.5 L 3.998 14.5 L 12.002 14.5 L 12.006 14.5 C 13.264 14.486 14.185 14.531 14.938 14.115 C 15.314 13.908 15.611 13.556 15.775 13.117 C 15.94 12.679 16 12.158 16 11.5 L 16 4.5 C 16 3.842 15.94 3.321 15.775 2.883 C 15.611 2.444 15.314 2.092 14.938 1.885 C 14.185 1.469 13.264 1.515 12.006 1.5 L 12.002 1.5 L 3.996 1.5 L 3.994 1.5 Z M 1.834 2.5 L 2.166 2.5 C 2.833 2.5 3 2.7 3 3.5 C 3 4.3 2.833 4.5 2.166 4.5 L 1.834 4.5 C 1.167 4.5 1 4.3 1 3.5 C 1 2.7 1.167 2.5 1.834 2.5 Z M 4 2.5 L 12 2.5 C 13.26 2.515 14.087 2.558 14.453 2.76 C 14.637 2.861 14.742 2.974 14.84 3.234 C 14.937 3.494 15 3.908 15 4.5 L 15 11.5 C 15 12.092 14.937 12.506 14.84 12.766 C 14.742 13.026 14.637 13.139 14.453 13.24 C 14.087 13.442 13.26 13.485 12 13.5 L 11.994 13.5 L 4 13.5 L 4 2.5 Z M 10 4 L 5 8 L 10 12 L 10 4 Z M 1.834 5.5 L 2.166 5.5 C 2.833 5.5 3 5.7 3 6.5 C 3 7.3 2.833 7.5 2.166 7.5 L 1.834 7.5 C 1.167 7.5 1 7.3 1 6.5 C 1 5.7 1.167 5.5 1.834 5.5 Z M 1.834 8.5 L 2.166 8.5 C 2.833 8.5 3 8.7 3 9.5 C 3 10.3 2.833 10.5 2.166 10.5 L 1.834 10.5 C 1.167 10.5 1 10.3 1 9.5 C 1 8.7 1.167 8.5 1.834 8.5 Z M 1.834 11.5 L 2.166 11.5 C 2.833 11.5 3 11.7 3 12.5 C 3 13.3 2.833 13.5 2.166 13.5 L 1.834 13.5 C 1.167 13.5 1 13.3 1 12.5 C 1 11.7 1.167 11.5 1.834 11.5 Z"/>
 </g>
</svg>
