<svg xmlns="http://www.w3.org/2000/svg" style="isolation:isolate" width="16" height="16" viewBox="0 0 16 16">
 <path fill="#eff0f2" fill-rule="evenodd" d="M -0.031 12.5 L 15.969 12.5 L 15.969 14.5 L -0.031 14.5 L -0.031 12.5 Z"/>
 <path fill="#eff0f2" fill-rule="evenodd" d="M 2.659 10.182 L 1.179 10.182 L 1.179 1.548 L 4.768 1.548 L 4.768 1.548 Q 6.261 1.548 6.964 2.325 L 6.964 2.325 L 6.964 2.325 Q 7.667 3.102 7.667 4.225 L 7.667 4.225 L 7.667 4.225 Q 7.667 5.285 6.933 6.099 L 6.933 6.099 L 6.933 6.099 Q 6.199 6.913 4.768 6.913 L 4.768 6.913 L 2.659 6.913 L 2.659 10.182 Z M 2.659 5.507 L 4.842 5.507 L 4.842 5.507 Q 5.496 5.507 5.817 5.125 L 5.817 5.125 L 5.817 5.125 Q 6.138 4.743 6.138 4.225 L 6.138 4.225 L 6.138 4.225 Q 6.138 3.731 5.835 3.343 L 5.835 3.343 L 5.835 3.343 Q 5.533 2.954 4.842 2.954 L 4.842 2.954 L 2.659 2.954 L 2.659 5.507 Z M 11.787 10.33 L 11.787 10.33 L 11.787 10.33 Q 10.603 10.33 9.745 9.732 L 9.745 9.732 L 9.745 9.732 Q 8.888 9.134 8.53 8.097 L 8.53 8.097 L 9.899 7.592 L 9.899 7.592 Q 10.171 8.196 10.677 8.56 L 10.677 8.56 L 10.677 8.56 Q 11.182 8.924 11.836 8.924 L 11.836 8.924 L 11.836 8.924 Q 12.514 8.924 12.915 8.616 L 12.915 8.616 L 12.915 8.616 Q 13.316 8.307 13.316 7.727 L 13.316 7.727 L 13.316 7.727 Q 13.316 7.493 13.205 7.29 L 13.205 7.29 L 13.205 7.29 Q 13.094 7.086 12.952 6.95 L 12.952 6.95 L 12.952 6.95 Q 12.81 6.815 12.527 6.679 L 12.527 6.679 L 12.527 6.679 Q 12.243 6.543 12.046 6.463 L 12.046 6.463 L 12.046 6.463 Q 11.848 6.383 11.466 6.26 L 11.466 6.26 L 11.466 6.26 Q 10.973 6.087 10.707 5.988 L 10.707 5.988 L 10.707 5.988 Q 10.442 5.89 10.029 5.661 L 10.029 5.661 L 10.029 5.661 Q 9.616 5.433 9.4 5.199 L 9.4 5.199 L 9.4 5.199 Q 9.184 4.965 9.018 4.576 L 9.018 4.576 L 9.018 4.576 Q 8.851 4.188 8.851 3.719 L 8.851 3.719 L 8.851 3.719 Q 8.851 2.732 9.616 2.066 L 9.616 2.066 L 9.616 2.066 Q 10.381 1.4 11.688 1.4 L 11.688 1.4 L 11.688 1.4 Q 12.773 1.4 13.489 1.912 L 13.489 1.912 L 13.489 1.912 Q 14.204 2.424 14.451 3.25 L 14.451 3.25 L 13.119 3.694 L 13.119 3.694 Q 12.724 2.806 11.589 2.806 L 11.589 2.806 L 11.589 2.806 Q 11.01 2.806 10.683 3.047 L 10.683 3.047 L 10.683 3.047 Q 10.356 3.287 10.356 3.731 L 10.356 3.731 L 10.356 3.731 Q 10.356 4.027 10.609 4.262 L 10.609 4.262 L 10.609 4.262 Q 10.862 4.496 11.151 4.613 L 11.151 4.613 L 11.151 4.613 Q 11.441 4.73 12.009 4.915 L 12.009 4.915 L 12.009 4.915 Q 12.379 5.051 12.57 5.119 L 12.57 5.119 L 12.57 5.119 Q 12.761 5.187 13.106 5.347 L 13.106 5.347 L 13.106 5.347 Q 13.452 5.507 13.649 5.637 L 13.649 5.637 L 13.649 5.637 Q 13.846 5.766 14.099 5.988 L 14.099 5.988 L 14.099 5.988 Q 14.352 6.21 14.488 6.451 L 14.488 6.451 L 14.488 6.451 Q 14.623 6.691 14.722 7.018 L 14.722 7.018 L 14.722 7.018 Q 14.821 7.345 14.821 7.727 L 14.821 7.727 L 14.821 7.727 Q 14.821 8.936 13.964 9.633 L 13.964 9.633 L 13.964 9.633 Q 13.106 10.33 11.787 10.33 Z"/>
</svg>
