<svg xmlns="http://www.w3.org/2000/svg" width="16" height="16">
 <g transform="translate(-872 -460)">
  <path fill="#eff0f2" d="M877 461c-.554 0-1 .446-1 1v1c0 .554.446 1 1 1h1c.554 0 1-.446 1-1v-1c0-.554-.446-1-1-1zm-.472 4l-.528.383-1.947 3.894c-.335.61.61 1.08.894.446l1.053-2.106.38-1.125L876 470v5h1v-4h1v4h1v-5l-.528-3.512.528 1.13 1.053 2.105a.5.5 0 0 0 .224.224l1.723.862V475h2v-3.293l.646.647c.472.49 1.198-.236.708-.708L884 470.293V470h-1.383l-1.744-.873-1.873-3.744-.693-.383zm5.472 2v2h2v-2z"/>
 </g>
</svg>
