<svg xmlns="http://www.w3.org/2000/svg" style="isolation:isolate" width="16" height="16" viewBox="0 0 16 16">
 <path fill="#eff0f2" d="M 10.867 12.357 C 10.867 13.018 9.948 14.937 8.83 14.937 C 7.434 14.937 5.435 13.416 5.435 12.419 C 5.435 11.421 6.755 10.864 8.151 10.864 C 9.547 10.864 10.867 11.65 10.867 12.357 Z M 14.262 7.137 C 14.262 7.695 13.654 8.148 12.904 8.148 C 12.154 8.148 11.546 7.695 11.546 7.137 C 11.546 6.579 12.154 6.126 12.904 6.126 C 13.654 6.126 14.262 6.579 14.262 7.137 Z M 15.519 1.063 C 15.519 1.063 10.531 5.167 5.074 5.338 C 3.577 5.384 2.483 5.009 1.748 4.659 C 1.012 4.308 0.303 3.619 0.303 3.619 L 0 4.304 C 0 4.304 0.289 4.605 0.528 4.777 C 0.722 5.813 1.595 8.827 4.756 8.827 C 7.433 8.827 8.447 6.648 8.734 5.554 C 12.7 4.424 16 1.579 16 1.579 L 15.519 1.063 Z"/>
</svg>
