<svg xmlns="http://www.w3.org/2000/svg" style="isolation:isolate" width="16" height="16" viewBox="0 0 16 16">
 <path fill="#eff0f2" fill-rule="evenodd" d="M 3.789 12.947 C 2.003 11.646 0.842 9.537 0.842 7.158 C 0.842 3.205 4.047 0 8 0 L 8 0 L 8 0 C 11.953 0 15.158 3.205 15.158 7.158 C 15.158 11.111 11.953 14.316 8 14.316 C 7.588 14.316 7.184 14.281 6.791 14.214 L 5.731 14.937 L 4.244 15.952 C 4.15 16.016 4.035 16.016 3.941 15.952 C 3.847 15.888 3.789 15.77 3.789 15.642 L 3.789 13.613 L 3.789 12.947 Z M 4.211 7.158 L 11.789 7.158 C 11.789 9.251 10.093 10.947 8 10.947 C 5.907 10.947 4.211 9.251 4.211 7.158 L 4.211 7.158 Z"/>
</svg>
