<svg xmlns="http://www.w3.org/2000/svg" style="isolation:isolate" width="16" height="16" viewBox="0 0 16 16">
 <path fill="#eff0f2" d="M 11.247 10.387 C 11.312 10.417 11.379 10.443 11.447 10.466 C 11.751 10.565 12.07 10.618 12.389 10.622 C 12.389 10.622 12.389 10.622 12.389 10.622 L 12.461 10.622 C 13.115 10.626 13.742 10.368 14.198 9.904 C 14.62 9.475 14.86 8.893 14.86 8.289 C 14.867 7.825 14.787 7.362 14.628 6.924 C 14.502 6.594 14.312 6.294 14.065 6.039 C 13.86 5.822 13.609 5.651 13.336 5.534 C 13.104 5.435 12.849 5.378 12.595 5.378 C 12.123 5.374 11.656 5.454 11.211 5.621 C 10.831 5.773 10.478 5.986 10.166 6.256 C 9.839 6.541 9.543 6.86 9.281 7.209 C 8.996 7.586 8.722 7.97 8.463 8.365 C 8.198 8.768 7.916 9.163 7.627 9.551 C 7.331 9.946 6.993 10.314 6.62 10.641 C 6.229 10.987 5.784 11.261 5.302 11.454 C 4.758 11.664 4.177 11.766 3.595 11.762 C 3.059 11.766 2.531 11.645 2.048 11.413 C 1.608 11.196 1.22 10.888 0.908 10.512 C 0.612 10.155 0.384 9.748 0.232 9.307 C 0.08 8.889 0 8.445 0 8 C 0 7.996 0 7.996 0 7.996 L 0 7.992 C -0.004 7.441 0.099 6.898 0.308 6.389 C 0.494 5.936 0.772 5.53 1.125 5.195 C 1.779 4.576 2.645 4.234 3.542 4.234 C 3.546 4.234 3.553 4.234 3.557 4.234 L 3.698 4.238 C 3.698 4.238 3.702 4.238 3.702 4.238 C 4.351 4.262 4.981 4.452 5.533 4.795 L 6.128 4.2 L 6.484 5.53 L 6.841 6.86 L 5.511 6.503 L 4.181 6.147 L 4.695 5.632 C 4.375 5.478 4.023 5.392 3.664 5.378 L 3.534 5.374 C 2.93 5.374 2.349 5.606 1.912 6.02 C 1.676 6.248 1.486 6.518 1.361 6.822 C 1.212 7.191 1.136 7.586 1.14 7.985 C 1.14 7.985 1.14 7.989 1.14 7.989 L 1.14 7.996 C 1.14 8.315 1.197 8.631 1.304 8.927 C 1.414 9.239 1.577 9.531 1.79 9.786 C 1.995 10.037 2.254 10.242 2.546 10.387 C 2.873 10.546 3.234 10.626 3.595 10.622 C 4.036 10.626 4.473 10.55 4.884 10.394 C 5.245 10.246 5.575 10.041 5.868 9.786 C 6.18 9.509 6.465 9.201 6.715 8.866 C 6.993 8.498 7.259 8.122 7.51 7.738 C 7.783 7.323 8.068 6.917 8.368 6.522 C 8.68 6.111 9.03 5.735 9.417 5.397 C 9.828 5.04 10.295 4.754 10.805 4.557 C 11.378 4.34 11.99 4.23 12.606 4.238 C 13.013 4.241 13.415 4.325 13.788 4.488 C 14.202 4.667 14.574 4.922 14.886 5.249 C 15.24 5.613 15.517 6.05 15.696 6.529 C 15.905 7.096 16.007 7.696 16 8.3 C 15.996 9.197 15.642 10.06 15.012 10.702 C 14.339 11.386 13.415 11.77 12.454 11.762 C 12.454 11.762 12.454 11.762 12.45 11.762 L 12.374 11.762 C 11.941 11.759 11.508 11.686 11.09 11.55 C 10.85 11.47 10.623 11.36 10.41 11.224 L 9.834 11.8 L 9.477 10.47 L 9.121 9.14 L 10.451 9.497 L 11.781 9.853 L 11.247 10.387 Z"/>
</svg>
