<svg xmlns="http://www.w3.org/2000/svg" style="isolation:isolate" width="16" height="16" viewBox="0 0 16 16">
  <defs>
   <style id="current-color-scheme" type="text/css">
   .ColorScheme-Text { color:#eff0f2; } .ColorScheme-Highlight { color:#5294e2; }
  </style>
  <linearGradient id="arrongin" x1="0%" x2="0%" y1="0%" y2="100%">
   <stop offset="0%" style="stop-color:#dd9b44; stop-opacity:1"/>
   <stop offset="100%" style="stop-color:#ad6c16; stop-opacity:1"/>
  </linearGradient>
  <linearGradient id="aurora" x1="0%" x2="0%" y1="0%" y2="100%">
   <stop offset="0%" style="stop-color:#09D4DF; stop-opacity:1"/>
   <stop offset="100%" style="stop-color:#9269F4; stop-opacity:1"/>
  </linearGradient>
  <linearGradient id="fitdance" x1="0%" x2="0%" y1="0%" y2="100%">
   <stop offset="0%" style="stop-color:#1AD6AB; stop-opacity:1"/>
   <stop offset="100%" style="stop-color:#329DB6; stop-opacity:1"/>
  </linearGradient>
  <linearGradient id="oomox" x1="0%" x2="0%" y1="0%" y2="100%">
   <stop offset="0%" style="stop-color:#928374; stop-opacity:1"/>
   <stop offset="100%" style="stop-color:#928374; stop-opacity:1"/>
  </linearGradient>
  <linearGradient id="rainblue" x1="0%" x2="0%" y1="0%" y2="100%">
   <stop offset="0%" style="stop-color:#00F260; stop-opacity:1"/>
   <stop offset="100%" style="stop-color:#0575E6; stop-opacity:1"/>
  </linearGradient>
  <linearGradient id="sunrise" x1="0%" x2="0%" y1="0%" y2="100%">
   <stop offset="0%" style="stop-color: #FF8501; stop-opacity:1"/>
   <stop offset="100%" style="stop-color: #FFCB01; stop-opacity:1"/>
  </linearGradient>
  <linearGradient id="telinkrin" x1="0%" x2="0%" y1="0%" y2="100%">
   <stop offset="0%" style="stop-color: #b2ced6; stop-opacity:1"/>
   <stop offset="100%" style="stop-color: #6da5b7; stop-opacity:1"/>
  </linearGradient>
  <linearGradient id="60spsycho" x1="0%" x2="0%" y1="0%" y2="100%">
   <stop offset="0%" style="stop-color: #df5940; stop-opacity:1"/>
   <stop offset="25%" style="stop-color: #d8d15f; stop-opacity:1"/>
   <stop offset="50%" style="stop-color: #e9882a; stop-opacity:1"/>
   <stop offset="100%" style="stop-color: #279362; stop-opacity:1"/>
  </linearGradient>
  <linearGradient id="90ssummer" x1="0%" x2="0%" y1="0%" y2="100%">
   <stop offset="0%" style="stop-color: #f618c7; stop-opacity:1"/>
   <stop offset="20%" style="stop-color: #94ffab; stop-opacity:1"/>
   <stop offset="50%" style="stop-color: #fbfd54; stop-opacity:1"/>
   <stop offset="100%" style="stop-color: #0f83ae; stop-opacity:1"/>
  </linearGradient>

  <clipPath id="_clipPath_66p7TynlnVKYcmNXqBLwilSvkxEEaS97">
   <rect width="16" height="16"/>
  </clipPath>
 </defs>
 <g clip-path="url(#_clipPath_66p7TynlnVKYcmNXqBLwilSvkxEEaS97)">
  <rect style="fill:#000000" fill-opacity="0" width="16" height="16"/>
  <path fill="url(#oomox)" class="ColorScheme-Text" d="M 3 1.333 L 3 2.359 L 3.994 2.359 C 2.736 2.374 1.815 2.328 1.063 2.754 C 0.686 2.967 0.389 3.327 0.225 3.777 C 0.06 4.227 0 4.761 0 5.436 L 0 11.59 C 0 12.264 0.06 12.798 0.225 13.248 C 0.389 13.698 0.686 14.059 1.063 14.272 C 1.815 14.698 2.736 14.652 3.994 14.667 L 3.998 14.667 L 12.002 14.667 L 12.006 14.667 C 13.264 14.652 14.185 14.698 14.938 14.272 C 15.314 14.059 15.611 13.698 15.776 13.248 C 15.94 12.798 16 12.264 16 11.59 L 16 5.436 C 16 4.761 15.94 4.227 15.775 3.777 C 15.611 3.327 15.314 2.967 14.938 2.754 C 14.185 2.328 13.264 2.374 12.006 2.359 L 12.002 2.359 L 5 2.359 L 5 1.333 L 3 1.333 Z M 4 3.385 L 12 3.385 C 13.259 3.4 14.087 3.446 14.453 3.653 C 14.637 3.757 14.742 3.871 14.84 4.138 C 14.937 4.404 15 4.828 15 5.436 L 15 11.59 C 15 12.197 14.937 12.621 14.84 12.888 C 14.742 13.154 14.637 13.269 14.453 13.373 C 14.087 13.58 13.259 13.626 12 13.641 L 4.006 13.641 L 4 13.641 C 2.741 13.626 1.911 13.58 1.545 13.373 C 1.362 13.269 1.258 13.154 1.16 12.888 C 1.063 12.621 1 12.197 1 11.59 L 1 5.436 C 1 4.828 1.063 4.404 1.16 4.138 C 1.258 3.871 1.362 3.757 1.545 3.653 C 1.911 3.446 2.741 3.4 4 3.385 Z M 8 4.41 C 5.791 4.41 4 6.247 4 8.513 C 4 10.779 5.791 12.615 8 12.615 C 10.209 12.615 12 10.779 12 8.513 C 12 6.247 10.209 4.41 8 4.41 Z M 13.5 4.41 C 13.224 4.41 13 4.64 13 4.923 C 13 5.206 13.224 5.436 13.5 5.436 C 13.776 5.436 14 5.206 14 4.923 C 14 4.64 13.776 4.41 13.5 4.41 Z M 8 5.436 C 9.657 5.436 11 6.813 11 8.513 C 11 10.212 9.657 11.59 8 11.59 C 6.343 11.59 5 10.212 5 8.513 C 5 6.813 6.343 5.436 8 5.436 Z M 7.916 6.466 C 6.846 6.512 6.001 7.414 6 8.513 C 6 9.646 6.895 10.564 8 10.564 C 9.105 10.564 10 9.646 10 8.513 C 9.998 7.421 9.163 6.522 8.1 6.468 C 8.61 6.52 9 6.961 9 7.487 C 9 8.054 8.552 8.513 8 8.513 C 7.448 8.513 7 8.054 7 7.487 C 7 6.954 7.398 6.51 7.916 6.466 L 7.916 6.466 Z"/>
 </g>
</svg>
