<svg xmlns="http://www.w3.org/2000/svg" style="isolation:isolate" width="16" height="16" viewBox="0 0 16 16">
  <defs>
   <style id="current-color-scheme" type="text/css">
   .ColorScheme-Text { color:#eff0f2; } .ColorScheme-Highlight { color:#5294e2; }
  </style>
  <linearGradient id="arrongin" x1="0%" x2="0%" y1="0%" y2="100%">
   <stop offset="0%" style="stop-color:#dd9b44; stop-opacity:1"/>
   <stop offset="100%" style="stop-color:#ad6c16; stop-opacity:1"/>
  </linearGradient>
  <linearGradient id="aurora" x1="0%" x2="0%" y1="0%" y2="100%">
   <stop offset="0%" style="stop-color:#09D4DF; stop-opacity:1"/>
   <stop offset="100%" style="stop-color:#9269F4; stop-opacity:1"/>
  </linearGradient>
  <linearGradient id="fitdance" x1="0%" x2="0%" y1="0%" y2="100%">
   <stop offset="0%" style="stop-color:#1AD6AB; stop-opacity:1"/>
   <stop offset="100%" style="stop-color:#329DB6; stop-opacity:1"/>
  </linearGradient>
  <linearGradient id="oomox" x1="0%" x2="0%" y1="0%" y2="100%">
   <stop offset="0%" style="stop-color:#928374; stop-opacity:1"/>
   <stop offset="100%" style="stop-color:#928374; stop-opacity:1"/>
  </linearGradient>
  <linearGradient id="rainblue" x1="0%" x2="0%" y1="0%" y2="100%">
   <stop offset="0%" style="stop-color:#00F260; stop-opacity:1"/>
   <stop offset="100%" style="stop-color:#0575E6; stop-opacity:1"/>
  </linearGradient>
  <linearGradient id="sunrise" x1="0%" x2="0%" y1="0%" y2="100%">
   <stop offset="0%" style="stop-color: #FF8501; stop-opacity:1"/>
   <stop offset="100%" style="stop-color: #FFCB01; stop-opacity:1"/>
  </linearGradient>
  <linearGradient id="telinkrin" x1="0%" x2="0%" y1="0%" y2="100%">
   <stop offset="0%" style="stop-color: #b2ced6; stop-opacity:1"/>
   <stop offset="100%" style="stop-color: #6da5b7; stop-opacity:1"/>
  </linearGradient>
  <linearGradient id="60spsycho" x1="0%" x2="0%" y1="0%" y2="100%">
   <stop offset="0%" style="stop-color: #df5940; stop-opacity:1"/>
   <stop offset="25%" style="stop-color: #d8d15f; stop-opacity:1"/>
   <stop offset="50%" style="stop-color: #e9882a; stop-opacity:1"/>
   <stop offset="100%" style="stop-color: #279362; stop-opacity:1"/>
  </linearGradient>
  <linearGradient id="90ssummer" x1="0%" x2="0%" y1="0%" y2="100%">
   <stop offset="0%" style="stop-color: #f618c7; stop-opacity:1"/>
   <stop offset="20%" style="stop-color: #94ffab; stop-opacity:1"/>
   <stop offset="50%" style="stop-color: #fbfd54; stop-opacity:1"/>
   <stop offset="100%" style="stop-color: #0f83ae; stop-opacity:1"/>
  </linearGradient>
 </defs>
  <path fill="url(#oomox)" class="ColorScheme-Text" d="M 6.117647 4.054031 C 4.305012 3.71939 2.873494 4.072622 2.297169 5.057952 C 1.869572 5.792302 1.990415 6.777633 2.594627 7.818736 C 2.641105 7.911692 2.761947 7.939579 2.845607 7.883805 C 2.938563 7.837328 2.96645 7.716485 2.910676 7.632825 C 2.371533 6.693972 2.269282 5.848076 2.613218 5.243864 C 3.087292 4.425854 4.370081 4.109804 6.043283 4.416558 C 6.145534 4.435149 6.23849 4.37008 6.257081 4.267829 C 6.275672 4.165578 6.219899 4.072622 6.117647 4.054031 Z M 3.542775 9.092229 C 4.277125 9.900944 5.225273 10.653885 6.312855 11.276688 C 8.9435 12.791865 11.741467 13.200871 13.126506 12.262018 C 13.210167 12.206245 13.228758 12.085402 13.172984 12.001742 C 13.117211 11.918083 12.996369 11.899491 12.912709 11.955264 C 11.676398 12.801162 9.017865 12.410747 6.498766 10.960639 C 5.448366 10.356427 4.51881 9.622077 3.812346 8.841249 C 3.747277 8.766884 3.626435 8.757589 3.552071 8.831953 C 3.477706 8.897023 3.46841 9.017865 3.542775 9.092229 Z"/>
  <path fill="url(#oomox)" class="ColorScheme-Text" d="M 12.680319 8.869136 C 13.870152 7.465505 14.279158 6.052578 13.712127 5.067248 C 13.293827 4.342193 12.401452 3.961075 11.230211 3.942484 C 11.127959 3.942484 11.044299 4.026144 11.044299 4.128395 C 11.044299 4.230646 11.127959 4.314307 11.230211 4.314307 C 12.289905 4.323602 13.052142 4.658243 13.396078 5.253159 C 13.870152 6.071169 13.498329 7.335367 12.401452 8.627451 C 12.336383 8.701815 12.345679 8.822658 12.420043 8.887726 C 12.494408 8.952796 12.61525 8.9435 12.680319 8.869136 L 12.680319 8.869136 Z M 9.631373 4.109804 C 8.562382 4.342193 7.419027 4.788381 6.32215 5.42048 C 3.598548 6.991431 1.83239 9.306027 2.074075 10.979229 C 2.092666 11.081481 2.185622 11.14655 2.287873 11.137255 C 2.390124 11.118663 2.455193 11.025707 2.445898 10.923456 C 2.222804 9.436165 3.905302 7.251706 6.508061 5.745825 C 7.577052 5.132317 8.683225 4.695425 9.715033 4.472331 C 9.817284 4.45374 9.882353 4.351489 9.854466 4.249238 C 9.826579 4.156282 9.733624 4.091213 9.631373 4.109804 Z"/>
  <path fill="url(#oomox)" class="ColorScheme-Text" d="M 5.234568 12.141176 C 5.857372 13.870152 6.870589 14.939142 8.013943 14.939142 C 8.850545 14.939142 9.612782 14.372112 10.216994 13.36819 C 10.272767 13.284531 10.24488 13.163688 10.151924 13.11721 C 10.068265 13.061438 9.947422 13.089323 9.900944 13.182279 C 9.361801 14.08395 8.701816 14.56732 8.013943 14.56732 C 7.065796 14.56732 6.164125 13.619172 5.5878 12.011038 C 5.550618 11.918083 5.448366 11.862309 5.346115 11.899491 C 5.243864 11.936673 5.197386 12.04822 5.234568 12.141176 L 5.234568 12.141176 Z M 10.904866 11.806535 C 11.230211 10.784023 11.397531 9.59419 11.397531 8.357879 C 11.397531 5.281046 10.319245 2.622513 8.785476 1.943937 C 8.69252 1.906754 8.580974 1.943937 8.543791 2.036892 C 8.506609 2.129848 8.543791 2.241395 8.636747 2.278577 C 10.003195 2.882789 11.025708 5.401888 11.025708 8.357879 C 11.025708 9.557008 10.858388 10.700362 10.551634 11.694989 C 10.523747 11.79724 10.579521 11.899491 10.672477 11.927378 C 10.765432 11.955264 10.867683 11.899491 10.904866 11.806535 L 10.904866 11.806535 Z M 14.399999 11.620624 C 14.399999 11.127959 14.000291 10.728249 13.507625 10.728249 C 13.01496 10.728249 12.61525 11.127959 12.61525 11.620624 C 12.61525 12.113289 13.01496 12.512998 13.507625 12.512998 C 14.009585 12.512998 14.399999 12.113289 14.399999 11.620624 Z M 14.028176 11.620624 C 14.028176 11.908786 13.795787 12.141176 13.507625 12.141176 C 13.219462 12.141176 12.987073 11.908786 12.987073 11.620624 C 12.987073 11.332461 13.219462 11.100072 13.507625 11.100072 C 13.795787 11.100072 14.028176 11.332461 14.028176 11.620624 Z M 2.492376 12.512998 C 2.985041 12.512998 3.38475 12.113289 3.38475 11.620624 C 3.38475 11.127959 2.985041 10.728249 2.492376 10.728249 C 1.99971 10.728249 1.600001 11.127959 1.600001 11.620624 C 1.600001 12.113289 1.99971 12.512998 2.492376 12.512998 Z M 2.492376 12.141176 C 2.204213 12.141176 1.971824 11.908786 1.971824 11.620624 C 1.971824 11.332461 2.204213 11.100072 2.492376 11.100072 C 2.780538 11.100072 3.012927 11.332461 3.012927 11.620624 C 3.012927 11.908786 2.780538 12.141176 2.492376 12.141176 Z"/>
  <path fill="url(#oomox)" class="ColorScheme-Text" d="M 8.013943 2.845607 C 8.506609 2.845607 8.906319 2.445897 8.906319 1.953232 C 8.906319 1.460567 8.506609 1.060858 8.013943 1.060858 C 7.521279 1.060858 7.121569 1.460567 7.121569 1.953232 C 7.121569 2.445897 7.521279 2.845607 8.013943 2.845607 Z M 8.013943 2.473784 C 7.725781 2.473784 7.493392 2.241395 7.493392 1.953232 C 7.493392 1.66507 7.725781 1.43268 8.013943 1.43268 C 8.302107 1.43268 8.534496 1.66507 8.534496 1.953232 C 8.534496 2.241395 8.29281 2.473784 8.013943 2.473784 Z M 8.144081 8.989978 C 7.800146 9.064342 7.45621 8.841249 7.381845 8.497313 C 7.30748 8.153377 7.530574 7.809441 7.87451 7.735076 C 8.218446 7.660712 8.562382 7.883805 8.636747 8.227741 C 8.711111 8.571678 8.497313 8.915613 8.144081 8.989978 Z"/>
</svg>
