<svg xmlns="http://www.w3.org/2000/svg" style="isolation:isolate" width="16" height="16" viewBox="0 0 16 16">
  <defs>
   <style id="current-color-scheme" type="text/css">
   .ColorScheme-Text { color:#eff0f2; } .ColorScheme-Highlight { color:#5294e2; }
  </style>
  <linearGradient id="arrongin" x1="0%" x2="0%" y1="0%" y2="100%">
   <stop offset="0%" style="stop-color:#dd9b44; stop-opacity:1"/>
   <stop offset="100%" style="stop-color:#ad6c16; stop-opacity:1"/>
  </linearGradient>
  <linearGradient id="aurora" x1="0%" x2="0%" y1="0%" y2="100%">
   <stop offset="0%" style="stop-color:#09D4DF; stop-opacity:1"/>
   <stop offset="100%" style="stop-color:#9269F4; stop-opacity:1"/>
  </linearGradient>
  <linearGradient id="fitdance" x1="0%" x2="0%" y1="0%" y2="100%">
   <stop offset="0%" style="stop-color:#1AD6AB; stop-opacity:1"/>
   <stop offset="100%" style="stop-color:#329DB6; stop-opacity:1"/>
  </linearGradient>
  <linearGradient id="oomox" x1="0%" x2="0%" y1="0%" y2="100%">
   <stop offset="0%" style="stop-color:#928374; stop-opacity:1"/>
   <stop offset="100%" style="stop-color:#928374; stop-opacity:1"/>
  </linearGradient>
  <linearGradient id="rainblue" x1="0%" x2="0%" y1="0%" y2="100%">
   <stop offset="0%" style="stop-color:#00F260; stop-opacity:1"/>
   <stop offset="100%" style="stop-color:#0575E6; stop-opacity:1"/>
  </linearGradient>
  <linearGradient id="sunrise" x1="0%" x2="0%" y1="0%" y2="100%">
   <stop offset="0%" style="stop-color: #FF8501; stop-opacity:1"/>
   <stop offset="100%" style="stop-color: #FFCB01; stop-opacity:1"/>
  </linearGradient>
  <linearGradient id="telinkrin" x1="0%" x2="0%" y1="0%" y2="100%">
   <stop offset="0%" style="stop-color: #b2ced6; stop-opacity:1"/>
   <stop offset="100%" style="stop-color: #6da5b7; stop-opacity:1"/>
  </linearGradient>
  <linearGradient id="60spsycho" x1="0%" x2="0%" y1="0%" y2="100%">
   <stop offset="0%" style="stop-color: #df5940; stop-opacity:1"/>
   <stop offset="25%" style="stop-color: #d8d15f; stop-opacity:1"/>
   <stop offset="50%" style="stop-color: #e9882a; stop-opacity:1"/>
   <stop offset="100%" style="stop-color: #279362; stop-opacity:1"/>
  </linearGradient>
  <linearGradient id="90ssummer" x1="0%" x2="0%" y1="0%" y2="100%">
   <stop offset="0%" style="stop-color: #f618c7; stop-opacity:1"/>
   <stop offset="20%" style="stop-color: #94ffab; stop-opacity:1"/>
   <stop offset="50%" style="stop-color: #fbfd54; stop-opacity:1"/>
   <stop offset="100%" style="stop-color: #0f83ae; stop-opacity:1"/>
  </linearGradient>

  <clipPath id="_clipPath_zy9dO1Ztrgq15djjK5ZMxHpACYpph2M8">
   <rect width="16" height="16"/>
  </clipPath>
 </defs>
 <g clip-path="url(#_clipPath_zy9dO1Ztrgq15djjK5ZMxHpACYpph2M8)">
  <rect style="fill:#000000" fill-opacity="0" width="16" height="16"/>
  <path fill="url(#oomox)" class="ColorScheme-Text" d="M 11.184 0 C 10.391 0.028 9.428 0.463 8.859 1.049 C 8.348 1.569 7.898 2.397 8.018 3.193 C 8.904 3.254 9.811 2.797 10.362 2.211 C 10.913 1.624 11.286 0.812 11.184 0 Z M 10.659 3.208 C 9.607 3.292 8.646 3.983 8.102 3.983 C 7.483 3.983 6.527 3.232 5.512 3.252 C 4.178 3.274 2.946 4.082 2.258 5.365 C 0.873 7.946 1.902 11.769 3.253 13.862 C 3.913 14.887 4.722 16 5.737 16 C 6.752 16 7.109 15.306 8.312 15.306 C 9.515 15.306 9.844 16 10.906 16 C 11.969 16 12.654 14.934 13.31 13.906 C 14.067 12.718 14.382 11.565 14.4 11.506 C 14.376 11.494 12.311 10.648 12.29 8.096 C 12.27 5.96 13.918 4.934 13.99 4.884 C 13.067 3.434 11.628 3.234 11.115 3.212 C 10.962 3.195 10.81 3.197 10.659 3.209 L 10.659 3.208 Z"/>
 </g>
</svg>
