<svg xmlns="http://www.w3.org/2000/svg" width="16" height="16" version="1.1">
  <defs>
   <style id="current-color-scheme" type="text/css">
   .ColorScheme-Text { color:#eff0f2; } .ColorScheme-Highlight { color:#5294e2; }
  </style>
  <linearGradient id="arrongin" x1="0%" x2="0%" y1="0%" y2="100%">
   <stop offset="0%" style="stop-color:#dd9b44; stop-opacity:1"/>
   <stop offset="100%" style="stop-color:#ad6c16; stop-opacity:1"/>
  </linearGradient>
  <linearGradient id="aurora" x1="0%" x2="0%" y1="0%" y2="100%">
   <stop offset="0%" style="stop-color:#09D4DF; stop-opacity:1"/>
   <stop offset="100%" style="stop-color:#9269F4; stop-opacity:1"/>
  </linearGradient>
  <linearGradient id="fitdance" x1="0%" x2="0%" y1="0%" y2="100%">
   <stop offset="0%" style="stop-color:#1AD6AB; stop-opacity:1"/>
   <stop offset="100%" style="stop-color:#329DB6; stop-opacity:1"/>
  </linearGradient>
  <linearGradient id="oomox" x1="0%" x2="0%" y1="0%" y2="100%">
   <stop offset="0%" style="stop-color:#928374; stop-opacity:1"/>
   <stop offset="100%" style="stop-color:#928374; stop-opacity:1"/>
  </linearGradient>
  <linearGradient id="rainblue" x1="0%" x2="0%" y1="0%" y2="100%">
   <stop offset="0%" style="stop-color:#00F260; stop-opacity:1"/>
   <stop offset="100%" style="stop-color:#0575E6; stop-opacity:1"/>
  </linearGradient>
  <linearGradient id="sunrise" x1="0%" x2="0%" y1="0%" y2="100%">
   <stop offset="0%" style="stop-color: #FF8501; stop-opacity:1"/>
   <stop offset="100%" style="stop-color: #FFCB01; stop-opacity:1"/>
  </linearGradient>
  <linearGradient id="telinkrin" x1="0%" x2="0%" y1="0%" y2="100%">
   <stop offset="0%" style="stop-color: #b2ced6; stop-opacity:1"/>
   <stop offset="100%" style="stop-color: #6da5b7; stop-opacity:1"/>
  </linearGradient>
  <linearGradient id="60spsycho" x1="0%" x2="0%" y1="0%" y2="100%">
   <stop offset="0%" style="stop-color: #df5940; stop-opacity:1"/>
   <stop offset="25%" style="stop-color: #d8d15f; stop-opacity:1"/>
   <stop offset="50%" style="stop-color: #e9882a; stop-opacity:1"/>
   <stop offset="100%" style="stop-color: #279362; stop-opacity:1"/>
  </linearGradient>
  <linearGradient id="90ssummer" x1="0%" x2="0%" y1="0%" y2="100%">
   <stop offset="0%" style="stop-color: #f618c7; stop-opacity:1"/>
   <stop offset="20%" style="stop-color: #94ffab; stop-opacity:1"/>
   <stop offset="50%" style="stop-color: #fbfd54; stop-opacity:1"/>
   <stop offset="100%" style="stop-color: #0f83ae; stop-opacity:1"/>
  </linearGradient>
 </defs>
 <g label="status" transform="translate(-1253.0002,46.999996)">
  <path fill="url(#oomox)" class="ColorScheme-Text" d="m 1256.9924,-46 c -1.257,0.0144 -2.1773,-0.0284 -2.9297,0.38672 -0.3764,0.20768 -0.6752,0.55747 -0.8398,0.99609 -0.1647,0.43862 -0.2227,0.9596 -0.2227,1.61719 v 8 c 0,0.65759 0.058,1.17857 0.2227,1.61719 0.1646,0.43862 0.4634,0.79036 0.8398,0.99804 0.7528,0.41535 1.6735,0.37023 2.9316,0.38477 h 0.01 8 0.01 c 1.2581,-0.0145 2.1788,0.0306 2.9316,-0.38477 0.3764,-0.20768 0.6753,-0.55942 0.8399,-0.99804 0.1558,-0.43862 0.2144,-0.9596 0.2144,-1.61719 v -3 -3 c 0,-0.65759 -0.058,-1.17857 -0.2227,-1.61719 -0.02,-0.0546 -0.048,-0.10399 -0.074,-0.15429 -0.01,-0.0185 -0.018,-0.038 -0.027,-0.0566 -0.1727,-0.33876 -0.4255,-0.61453 -0.7383,-0.78711 -0.7529,-0.41536 -1.6735,-0.37023 -2.9316,-0.38477 h -0.01 -3.0332 l -2.0215,-2 h -2.9473 z m 0,1 v 0 h 0.01 2.5293 l 2.0215,2 h 3.447 c 1.2822,0.0148 2.0319,0.0263 2.4551,0.25977 0.1178,0.065 0.2369,0.18454 0.3301,0.36718 -0.016,-0.0305 2e-4,0.0108 0.031,0.0645 0.01,0.0169 6e-4,0.002 0.01,0.0117 v 0.002 c 0.011,0.022 0.025,0.0525 0.018,0.0293 0.1001,0.26699 0.1582,0.66683 0.1582,1.26562 v 3 h -14.0024 v -5 c 0,-0.59878 0.058,-0.99856 0.1582,-1.26562 0.086,-0.22979 0.2302,-0.3863 0.3867,-0.47266 0.4234,-0.23354 1.1733,-0.24697 2.4492,-0.26172 z"/>
 </g>
</svg>
