<svg xmlns="http://www.w3.org/2000/svg" style="isolation:isolate" width="16" height="16" viewBox="0 0 16 16">
 <path fill="#eff0f2" d="M 4.26 0.533 C 2.918 0.549 1.936 0.501 1.133 0.944 C 0.732 1.165 0.415 1.54 0.24 2.008 C 0.064 2.476 0 3.032 0 3.733 L 0 12.267 C 0 12.968 0.064 13.524 0.24 13.992 C 0.415 14.46 0.732 14.835 1.133 15.056 C 1.936 15.499 2.918 15.451 4.26 15.467 L 4.265 15.467 L 11.735 15.467 L 11.74 15.467 C 13.082 15.451 14.064 15.499 14.867 15.056 C 15.268 14.835 15.585 14.46 15.761 13.992 C 15.936 13.524 16 12.968 16 12.267 L 16 3.733 C 16 3.032 15.936 2.476 15.76 2.008 C 15.585 1.54 15.268 1.165 14.867 0.944 C 14.064 0.501 13.082 0.549 11.74 0.533 L 11.735 0.533 L 4.265 0.533 L 4.26 0.533 Z M 12.35 4.787 C 12.466 4.801 12.569 4.854 12.625 4.929 L 12.717 5.05 C 12.852 5.231 12.83 5.579 12.61 5.741 L 9.056 7.856 C 9.063 7.904 9.067 7.952 9.067 8 C 9.067 8.381 8.863 8.732 8.534 8.923 L 8.534 11.733 C 8.534 12.029 8.311 12.267 8.034 12.267 L 7.967 12.267 C 7.69 12.267 7.467 12.029 7.467 11.733 L 7.467 8.921 C 7.138 8.731 6.934 8.38 6.933 8 C 6.934 7.958 6.937 7.916 6.942 7.875 L 4.456 6.827 C 4.237 6.665 4.215 6.316 4.35 6.135 L 4.442 6.014 C 4.554 5.864 4.853 5.802 5.073 5.964 L 7.575 7.023 C 7.709 6.964 7.854 6.934 8 6.933 C 8.141 6.933 8.28 6.961 8.41 7.015 L 11.994 4.879 C 12.104 4.798 12.234 4.773 12.35 4.787 L 12.35 4.787 Z"/>
</svg>
