<svg xmlns="http://www.w3.org/2000/svg" style="isolation:isolate" width="16" height="16" viewBox="0 0 16 16">
 <path fill="#eff0f2" d="M 14.545 2.909 C 14.009 2.909 13.545 3.204 13.292 3.636 L 10.182 3.636 L 10.182 2.909 C 10.182 2.509 9.855 2.182 9.455 2.182 L 6.545 2.182 C 6.145 2.182 5.818 2.509 5.818 2.909 L 5.818 3.636 L 2.708 3.636 C 2.455 3.204 1.991 2.909 1.455 2.909 C 0.651 2.909 0 3.56 0 4.364 C 0 5.167 0.651 5.818 1.455 5.818 C 1.991 5.818 2.455 5.523 2.708 5.091 L 3.833 5.091 C 3.222 6.211 2.909 7.838 2.909 9.455 L 2.182 9.455 C 1.782 9.455 1.455 9.782 1.455 10.182 L 1.455 13.091 C 1.455 13.491 1.782 13.818 2.182 13.818 L 5.091 13.818 C 5.491 13.818 5.818 13.491 5.818 13.091 L 5.818 10.182 C 5.818 9.782 5.491 9.455 5.091 9.455 L 4.364 9.455 C 4.364 6.747 5.307 5.091 5.818 5.091 L 5.818 5.818 C 5.818 6.218 6.145 6.545 6.545 6.545 L 9.455 6.545 C 9.855 6.545 10.182 6.218 10.182 5.818 L 10.182 5.091 C 10.693 5.091 11.636 6.747 11.636 9.455 L 10.909 9.455 C 10.509 9.455 10.182 9.782 10.182 10.182 L 10.182 13.091 C 10.182 13.491 10.509 13.818 10.909 13.818 L 13.818 13.818 C 14.218 13.818 14.545 13.491 14.545 13.091 L 14.545 10.182 C 14.545 9.782 14.218 9.455 13.818 9.455 L 13.091 9.455 C 13.091 7.838 12.778 6.211 12.167 5.091 L 13.292 5.091 C 13.545 5.523 14.009 5.818 14.545 5.818 C 15.349 5.818 16 5.167 16 4.364 C 16 3.56 15.349 2.909 14.545 2.909 Z"/>
</svg>
