<svg xmlns="http://www.w3.org/2000/svg" style="isolation:isolate" width="16" height="16" viewBox="0 0 16 16">
 <path fill="#eff0f2" fill-rule="evenodd" d="M 8.221 0 C 3.789 0 0.221 3.568 0.221 8 C 0.221 12.432 3.789 16 8.221 16 C 10.945 16 13.343 14.652 14.786 12.584 L 8.221 8 L 15.779 5.362 C 14.694 2.234 11.727 0 8.221 0 L 8.221 0 Z M 7.606 3.692 C 7.606 3.013 8.157 2.462 8.836 2.462 C 9.516 2.462 10.067 3.013 10.067 3.692 C 10.067 4.372 9.516 4.923 8.836 4.923 C 8.157 4.923 7.606 4.372 7.606 3.692 Z"/>
</svg>
