<svg xmlns="http://www.w3.org/2000/svg" style="isolation:isolate" width="16" height="16" viewBox="0 0 16 16">
 <path fill="#eff0f2" fill-rule="evenodd" d="M 0 0.364 L 0 15.636 L 2.909 15.636 L 2.909 12 L 5.818 15.636 L 9.455 15.636 L 4.364 8 L 9.455 0.364 L 5.818 0.364 L 2.909 4 L 2.909 0.364 L 0 0.364 L 0 0.364 Z M 12.364 5.455 L 15.273 5.455 L 15.273 15.636 L 12.364 15.636 L 12.364 5.455 L 12.364 5.455 Z M 11.636 2.546 C 11.636 1.341 12.614 0.364 13.818 0.364 C 15.022 0.364 16 1.341 16 2.546 C 16 3.75 15.022 4.727 13.818 4.727 C 12.614 4.727 11.636 3.75 11.636 2.546 Z"/>
</svg>
