<svg xmlns="http://www.w3.org/2000/svg" style="isolation:isolate" width="16" height="16" viewBox="0 0 16 16">
 <path fill="#eff0f2" fill-rule="evenodd" d="M 11.7 2.684 C 10.651 1.953 9.376 1.524 8 1.524 L 8 1.524 C 6.624 1.524 5.349 1.953 4.3 2.684 L 4.3 2.684 L 1.95 0.335 C 1.737 0.122 1.448 0 1.143 0 C 0.838 0 0.549 0.122 0.335 0.335 C 0.122 0.549 0 0.838 0 1.143 C 0 1.448 0.122 1.737 0.335 1.95 L 2.684 4.3 C 1.953 5.349 1.524 6.624 1.524 8 C 1.524 9.376 1.953 10.651 2.684 11.7 L 0.335 14.05 C 0.122 14.263 0 14.552 0 14.857 C 0 15.162 0.122 15.451 0.335 15.665 C 0.549 15.878 0.838 16 1.143 16 C 1.448 16 1.737 15.878 1.95 15.665 L 4.3 13.316 C 5.349 14.047 6.624 14.476 8 14.476 C 9.376 14.476 10.651 14.047 11.7 13.316 L 14.05 15.665 C 14.263 15.878 14.552 16 14.857 16 C 15.162 16 15.451 15.878 15.665 15.665 C 15.878 15.451 16 15.162 16 14.857 C 16 14.552 15.878 14.263 15.665 14.05 L 13.316 11.7 C 14.047 10.651 14.476 9.376 14.476 8 C 14.476 6.624 14.047 5.349 13.316 4.3 L 15.665 1.95 C 15.878 1.737 16 1.448 16 1.143 C 16 0.838 15.878 0.549 15.665 0.335 C 15.451 0.122 15.162 0 14.857 0 C 14.552 0 14.263 0.122 14.05 0.335 L 11.7 2.684 Z M 11.659 5.956 C 11.998 6.561 12.19 7.258 12.19 8 C 12.19 8.742 11.998 9.439 11.659 10.044 L 11.659 10.044 L 9.615 8 L 11.659 5.956 Z M 10.044 4.341 C 9.439 4.002 8.742 3.81 8 3.81 L 8 3.81 C 7.258 3.81 6.561 4.002 5.956 4.341 L 8 6.385 L 10.044 4.341 Z M 5.956 11.659 C 6.561 11.998 7.258 12.19 8 12.19 C 8.742 12.19 9.439 11.998 10.044 11.659 L 10.044 11.659 L 8 9.615 L 5.956 11.659 Z M 4.341 10.044 C 4.002 9.439 3.81 8.742 3.81 8 C 3.81 7.258 4.002 6.561 4.341 5.956 L 6.385 8 L 4.341 10.044 Z"/>
</svg>
