<svg xmlns="http://www.w3.org/2000/svg" style="isolation:isolate" width="16" height="16" viewBox="0 0 16 16">
 <g opacity=".7">
  <path fill="#eff0f2" fill-rule="evenodd" d="M 9.333 7.231 L 15.2 7.231 C 15.642 7.231 16 7.589 16 8.031 L 16 8.031 C 16 8.472 15.642 8.831 15.2 8.831 L 9.333 8.831 C 8.892 8.831 8.533 8.472 8.533 8.031 L 8.533 8.031 C 8.533 7.589 8.892 7.231 9.333 7.231 L 9.333 7.231 Z M 0.8 4.799 L 6.667 4.799 C 7.108 4.799 7.467 5.158 7.467 5.599 L 7.467 5.599 C 7.467 6.041 7.108 6.399 6.667 6.399 L 0.8 6.399 C 0.358 6.399 0 6.041 0 5.599 L 0 5.599 C 0 5.158 0.358 4.799 0.8 4.799 L 0.8 4.799 Z M 0.867 9.533 L 6.733 9.533 C 7.175 9.533 7.533 9.891 7.533 10.333 L 7.533 10.333 C 7.533 10.774 7.175 11.133 6.733 11.133 L 0.867 11.133 C 0.425 11.133 0.067 10.774 0.067 10.333 L 0.067 10.333 C 0.067 9.891 0.425 9.533 0.867 9.533 Z"/>
 </g>
 <path fill="#eff0f2" d="M 4.533 12.031 C 5.097 10.406 5.342 9.251 5.333 8.031 C 5.325 6.85 5.079 5.606 4.533 4.031 C 9.703 4.031 12 8.031 12 8.031 C 12 8.031 9.703 12.031 4.533 12.031 Z"/>
</svg>
