<svg xmlns="http://www.w3.org/2000/svg" style="isolation:isolate" width="16" height="16" viewBox="0 0 16 16">
 <path fill="#eff0f2" fill-rule="evenodd" d="M 8.382 6.365 C 8.213 6.26 8.093 6.092 8.047 5.897 C 8.005 5.705 8.038 5.5 8.143 5.333 C 8.25 5.163 8.418 5.042 8.61 5 C 8.805 4.955 9.007 4.988 9.178 5.092 C 9.29 5.165 9.397 5.245 9.497 5.333 C 9.725 5.528 9.928 5.747 10.105 5.988 C 10.36 6.338 10.563 6.722 10.705 7.133 C 10.885 7.66 10.975 8.213 10.97 8.77 C 10.975 9.328 10.882 9.882 10.697 10.407 C 10.553 10.815 10.343 11.195 10.078 11.538 C 9.895 11.772 9.685 11.988 9.453 12.175 C 9.347 12.26 9.238 12.335 9.122 12.403 C 8.95 12.5 8.745 12.525 8.553 12.472 C 8.36 12.42 8.197 12.295 8.097 12.122 C 8 11.95 7.975 11.745 8.028 11.553 C 8.08 11.36 8.205 11.197 8.378 11.097 C 8.422 11.072 8.468 11.043 8.507 11.01 C 8.65 10.895 8.78 10.765 8.893 10.62 C 9.06 10.403 9.193 10.163 9.285 9.905 C 9.413 9.54 9.475 9.157 9.47 8.77 C 9.475 8.38 9.413 7.99 9.285 7.617 C 9.193 7.353 9.063 7.103 8.895 6.875 C 8.785 6.722 8.655 6.585 8.513 6.463 C 8.472 6.428 8.428 6.395 8.382 6.365 L 8.382 6.365 L 8.382 6.365 Z M 8 2.5 C 5.929 2.5 4.165 3.768 3.406 5.562 C 1.478 5.849 0 7.493 0 9.5 C 0 11.709 1.791 13.5 4 13.5 L 12.5 13.5 C 14.433 13.5 16 11.933 16 10 C 16 8.204 14.649 6.731 12.906 6.531 C 12.452 4.238 10.427 2.5 8 2.5 L 8 2.5 L 8 2.5 Z M 6 11.457 C 5.813 11.522 5.608 11.513 5.428 11.428 C 5.248 11.343 5.11 11.188 5.042 11 C 4.978 10.813 4.988 10.607 5.073 10.428 C 5.158 10.247 5.313 10.11 5.5 10.043 C 5.55 10.025 5.598 10.005 5.645 9.98 C 5.783 9.913 5.91 9.83 6.028 9.732 C 6.163 9.625 6.275 9.493 6.363 9.343 C 6.453 9.175 6.5 8.988 6.5 8.795 C 6.5 8.793 6.5 8.793 6.5 8.79 L 6.5 8.79 C 6.5 8.79 6.5 8.79 6.5 8.79 C 6.5 8.59 6.453 8.393 6.358 8.218 C 6.267 8.057 6.15 7.913 6.01 7.792 C 5.887 7.688 5.758 7.595 5.617 7.517 C 5.567 7.49 5.517 7.465 5.467 7.445 C 5.283 7.37 5.135 7.222 5.058 7.04 C 4.983 6.858 4.98 6.65 5.055 6.467 C 5.13 6.283 5.278 6.135 5.46 6.058 C 5.642 5.983 5.85 5.98 6.033 6.055 C 6.142 6.1 6.25 6.153 6.353 6.21 C 6.58 6.338 6.795 6.488 6.99 6.658 C 7.267 6.895 7.498 7.18 7.672 7.497 C 7.887 7.895 8 8.34 8 8.79 C 8.003 9.24 7.887 9.685 7.67 10.078 C 7.49 10.393 7.255 10.67 6.973 10.897 C 6.773 11.063 6.555 11.203 6.323 11.318 C 6.22 11.372 6.11 11.418 6 11.457 L 6 11.457 Z"/>
</svg>
