<svg xmlns="http://www.w3.org/2000/svg" style="isolation:isolate" width="16" height="16" viewBox="0 0 16 16">
 <defs>
  <clipPath id="_clipPath_kXgVn9XGTRfYZZ1WL0smqpsFI0heSEro">
   <rect width="16" height="16"/>
  </clipPath>
 </defs>
 <g clip-path="url(#_clipPath_kXgVn9XGTRfYZZ1WL0smqpsFI0heSEro)">
  <rect style="fill:#eff0f2" fill-opacity="0" width="16" height="16"/>
  <path fill="#eff0f2" d="M 9.031 7.937 C 8.917 8.108 8.741 8.227 8.536 8.267 C 8.336 8.307 8.125 8.262 7.96 8.148 C 7.789 8.034 7.67 7.851 7.63 7.652 C 7.595 7.452 7.635 7.242 7.749 7.071 C 8.086 6.575 8.644 6.273 9.242 6.261 C 9.749 6.267 10.234 6.478 10.587 6.843 C 10.935 7.207 11.128 7.697 11.111 8.205 C 11.094 8.757 10.883 9.287 10.524 9.709 C 10.279 10.011 9.972 10.256 9.618 10.421 C 9.299 10.575 8.946 10.649 8.587 10.649 C 8.131 10.644 7.681 10.53 7.276 10.319 C 6.912 10.136 6.581 9.886 6.308 9.589 C 5.823 9.042 5.555 8.341 5.561 7.612 C 5.561 6.598 6.023 5.64 6.815 5.002 C 7.464 4.484 8.274 4.199 9.105 4.204 C 10.371 4.204 11.567 4.803 12.331 5.811 C 12.901 6.563 13.208 7.487 13.203 8.433 C 13.203 9.948 12.473 11.379 11.242 12.273 C 10.382 12.894 9.351 13.225 8.291 13.225 C 6.518 13.225 4.855 12.359 3.834 10.911 C 3.156 9.948 2.797 8.797 2.797 7.623 C 2.797 5.6 3.8 3.697 5.464 2.552 C 6.536 1.822 7.795 1.429 9.088 1.435 C 10.2 1.435 11.288 1.708 12.268 2.221 C 13.277 2.745 14.137 3.515 14.77 4.449 C 15.562 5.623 15.978 7.002 15.978 8.415 C 15.972 9.646 15.67 10.854 15.095 11.943 C 14.513 13.06 13.658 14.011 12.61 14.706 C 11.334 15.55 9.835 16 8.308 16 C 6.957 15.994 5.624 15.664 4.433 15.026 C 3.208 14.382 2.165 13.441 1.401 12.285 C 0.501 10.906 0.022 9.287 0.022 7.64 C 0.028 6.165 0.393 4.717 1.082 3.418 C 1.789 2.085 2.82 0.95 4.085 0.124 C 4.256 0.01 4.467 -0.024 4.666 0.016 C 4.866 0.056 5.043 0.176 5.157 0.352 C 5.271 0.523 5.31 0.734 5.265 0.933 C 5.225 1.133 5.105 1.31 4.934 1.423 C 3.886 2.102 3.037 3.042 2.45 4.142 C 1.874 5.219 1.572 6.421 1.572 7.64 C 1.567 8.991 1.96 10.307 2.695 11.436 C 3.316 12.37 4.159 13.139 5.157 13.658 C 6.125 14.177 7.208 14.45 8.308 14.45 C 9.533 14.456 10.735 14.097 11.755 13.419 C 12.587 12.866 13.265 12.108 13.727 11.219 C 14.183 10.353 14.428 9.39 14.428 8.41 C 14.428 7.31 14.103 6.233 13.488 5.316 C 12.998 4.592 12.331 3.999 11.556 3.595 C 10.792 3.196 9.949 2.985 9.088 2.985 C 8.108 2.979 7.151 3.275 6.342 3.828 C 5.094 4.689 4.347 6.108 4.347 7.623 C 4.347 8.484 4.609 9.316 5.099 10.017 C 5.829 11.06 7.026 11.675 8.291 11.675 C 9.026 11.681 9.738 11.447 10.331 11.02 C 11.163 10.416 11.653 9.453 11.658 8.427 C 11.658 7.817 11.465 7.23 11.1 6.746 C 10.621 6.119 9.886 5.749 9.1 5.749 C 8.621 5.749 8.16 5.908 7.784 6.21 C 7.356 6.552 7.111 7.071 7.105 7.618 C 7.105 7.96 7.231 8.296 7.459 8.552 C 7.601 8.712 7.778 8.843 7.977 8.94 C 8.171 9.042 8.388 9.094 8.604 9.099 C 8.729 9.099 8.849 9.071 8.963 9.025 C 9.105 8.951 9.237 8.849 9.339 8.717 C 9.476 8.564 9.556 8.364 9.567 8.159 C 9.567 8.068 9.533 7.988 9.476 7.92 C 9.419 7.857 9.333 7.817 9.248 7.811 C 9.162 7.817 9.083 7.868 9.031 7.937 Z"/>
 </g>
</svg>
