<svg xmlns="http://www.w3.org/2000/svg" style="isolation:isolate" width="16" height="16" viewBox="0 0 16 16">
 <path fill="#eff0f2" fill-rule="evenodd" d="M 5.666 9.919 C 3.857 9.051 2.479 7.353 2.479 5.286 C 2.479 2.368 4.953 0 8 0 C 11.047 0 13.521 2.368 13.521 5.286 C 13.521 7.37 12.273 9.204 10.44 10.065 C 10.256 10.26 10.076 12.234 11.268 16 L 4.488 15.993 Q 4.944 10.929 5.666 9.919 Z M 5.438 15.505 C 5.658 12.69 6.132 10.462 6.852 8.809 C 5.909 8.063 5.324 7.286 5.085 6.466 L 5.438 6.343 C 6.094 7.311 6.606 7.902 7.36 8.105 C 7.544 6.174 7.54 4.379 7.337 2.709 C 7.956 3.318 8.401 4.166 8.309 4.801 L 9.568 3.744 L 9.745 4.118 L 8.618 5.638 Q 9.277 6.71 9.082 8.875 C 9.531 8.633 9.969 8.262 10.385 7.752 L 10.451 8.149 C 10.336 8.619 9.92 9.166 9.325 9.867 C 9.396 12.222 9.753 14.105 10.385 15.505 L 5.438 15.505 Z"/>
</svg>
