<svg xmlns="http://www.w3.org/2000/svg" style="isolation:isolate" width="16" height="16" viewBox="0 0 16 16">
 <path fill="#eff0f2" fill-rule="evenodd" d="M 10.634 9.578 L 12.032 11.674 C 12.138 11.65 12.25 11.636 12.364 11.636 C 12.687 11.636 12.985 11.742 13.225 11.921 L 13.225 11.921 C 14.079 10.8 14.544 9.424 14.545 8 C 14.544 7.506 14.486 7.014 14.375 6.534 L 14.375 6.534 C 14.139 6.508 13.92 6.424 13.733 6.297 L 10.86 8.35 C 10.892 8.47 10.909 8.597 10.909 8.727 C 10.909 9.045 10.807 9.339 10.634 9.578 Z M 10.267 7.521 L 13.14 5.468 L 13.14 5.468 C 13.108 5.348 13.091 5.221 13.091 5.091 C 13.091 4.78 13.189 4.492 13.352 4.253 C 12.146 2.512 10.152 1.455 8 1.455 L 8 1.455 C 4.385 1.455 1.455 4.385 1.455 8 C 1.455 8 1.455 8 1.455 8 C 2.031 8 2.53 8.336 2.765 8.824 L 2.765 8.824 L 2.765 8.824 L 8.051 8.344 C 8.22 7.727 8.785 7.273 9.455 7.273 C 9.755 7.273 10.035 7.364 10.267 7.521 Z M 8.143 9.357 L 2.858 9.839 C 2.746 10.246 2.461 10.583 2.08 10.75 L 2.08 10.75 C 3.129 13.04 5.43 14.543 8 14.545 C 9.083 14.543 10.144 14.272 11.084 13.752 L 11.084 13.752 L 11.084 13.752 C 10.968 13.558 10.909 13.331 10.909 13.091 C 10.909 12.773 11.011 12.479 11.185 12.24 L 9.787 10.144 C 9.68 10.169 9.569 10.182 9.455 10.182 C 8.877 10.182 8.378 9.845 8.143 9.357 Z M 15.082 6.423 C 15.21 6.939 15.271 7.468 15.273 8 C 15.273 9.714 14.68 11.29 13.688 12.534 L 13.688 12.534 C 13.778 12.699 13.818 12.89 13.818 13.091 C 13.818 13.894 13.166 14.545 12.364 14.545 C 12.081 14.545 11.816 14.464 11.592 14.324 C 10.533 14.928 9.307 15.273 8 15.273 C 6.071 15.273 4.221 14.506 2.857 13.143 C 2.209 12.494 1.695 11.735 1.355 10.902 C 0.598 10.854 0 10.224 0 9.455 C 0 8.915 0.294 8.444 0.734 8.2 L 0.734 8.2 C 0.728 8.134 0.727 8.067 0.727 8 C 0.727 3.983 3.983 0.727 8 0.727 L 8 0.727 C 10.392 0.73 12.584 1.903 13.92 3.796 C 14.103 3.689 14.318 3.636 14.545 3.636 C 15.348 3.636 16 4.288 16 5.091 C 16 5.701 15.624 6.224 15.082 6.423 L 15.082 6.423 Z"/>
</svg>
