<svg xmlns="http://www.w3.org/2000/svg" style="isolation:isolate" width="16" height="16" viewBox="0 0 16 16">
 <path fill="#eff0f2" fill-rule="evenodd" d="M 8 9.231 C 8.764 9.231 9.384 9.851 9.384 10.616 C 9.384 11.263 8.938 11.803 8.337 11.954 L 8.461 11.954 C 8.923 11.954 9.205 12.375 9.482 12.748 C 9.74 13.097 9.846 13.58 9.846 13.756 L 9.846 14.074 C 9.845 14.084 9.846 14.094 9.846 14.104 C 9.846 14.472 9.547 14.769 9.177 14.769 L 6.823 14.769 C 6.454 14.769 6.154 14.471 6.154 14.103 C 6.154 14.093 6.155 14.084 6.156 14.074 C 6.155 14.074 6.154 13.915 6.154 13.756 C 6.154 13.58 6.235 13.088 6.482 12.732 C 6.743 12.355 7.077 11.954 7.539 11.954 L 7.663 11.954 C 7.062 11.803 6.615 11.263 6.615 10.615 C 6.615 9.851 7.235 9.231 8 9.231 L 8 9.231 L 8 9.231 L 8 9.231 Z M 8 0 C 5.692 0 4.154 1.6 4.154 3.941 L 4.154 6.398 L 2.537 6.398 C 2.537 6.398 1.846 6.4 1.846 7.2 L 1.846 15.2 C 1.846 16 2.537 16 2.537 16 L 13.463 16 C 13.463 16 14.154 16 14.154 15.2 L 14.154 7.2 C 14.154 6.4 13.463 6.398 13.463 6.398 L 11.848 6.402 L 11.844 3.916 C 11.846 1.6 10.308 0 8 0 L 8 0 L 8 0 L 8 0 Z M 8 1.846 C 9.359 1.846 10.462 2.927 10.462 4.286 C 10.462 5.927 8.718 7.978 8.308 8 C 8.308 8 8.481 6.748 8 6.748 C 6.641 6.748 5.538 5.645 5.538 4.286 C 5.538 2.926 6.641 1.846 8 1.846 L 8 1.846 Z"/>
</svg>
