<svg xmlns="http://www.w3.org/2000/svg" style="isolation:isolate" width="16" height="16" viewBox="0 0 16 16">
 <path fill="#eff0f2" d="M 8.797 0 C 8.619 0.001 8.28 0.031 8.107 0.079 C 7.529 0.239 6.989 0.992 6.789 1.54 C 6.759 1.623 6.72 1.698 6.703 1.707 C 6.685 1.716 6.616 1.733 6.549 1.747 C 5.864 1.89 5.028 2.204 4.455 2.532 C 3.166 3.27 2.178 4.317 1.534 5.626 C 1.171 6.365 0.965 7.043 0.846 7.892 C 0.796 8.252 0.796 9.343 0.846 9.704 C 1.075 11.328 1.755 12.721 2.874 13.854 C 4.149 15.146 5.786 15.881 7.637 15.996 C 7.867 16.01 8.564 15.987 8.834 15.957 C 9.59 15.871 10.395 15.641 11.086 15.312 C 13.341 14.239 14.879 12.089 15.162 9.613 C 15.176 9.491 15.188 9.157 15.188 8.869 C 15.232 8.044 14.893 7.226 14.554 6.623 C 14.203 5.896 14.135 5.266 14.084 4.492 C 14.091 4.444 14.09 4.395 14.082 4.383 C 13.153 4.669 12.357 5.42 11.868 6.115 C 11.537 6.643 11.321 7.182 11.32 7.657 C 11.366 8.869 12.403 9.742 12.426 10.836 C 12.426 11.998 11.726 13.121 10.895 13.924 C 10.728 14.086 10.688 14.116 10.669 14.097 C 10.663 14.091 10.689 14.02 10.726 13.938 C 11.305 12.669 11.183 11.147 10.294 10.081 C 10.17 9.932 9.681 9.448 9.611 9.406 C 9.643 9.573 9.659 9.744 9.66 9.915 C 9.66 11.442 8.422 12.681 6.894 12.681 C 5.366 12.681 4.128 11.442 4.128 9.915 C 4.128 8.387 5.366 7.148 6.894 7.148 C 7.068 7.149 7.242 7.166 7.414 7.199 C 7.422 7.2 7.432 7.2 7.441 7.2 C 7.466 7.178 7.483 7.158 7.483 7.152 C 7.483 7.109 6.802 6.427 6.613 6.281 C 6.229 5.983 5.792 5.625 5.287 5.494 C 5.152 5.459 5.081 5.431 5.081 5.413 C 5.081 5.362 5.561 5.219 6.093 5.112 C 6.74 4.981 7.16 4.949 8.414 4.937 C 8.94 4.931 9.459 4.918 9.567 4.906 C 10.919 4.688 12.006 3.803 12.491 2.813 C 12.504 2.768 12.503 2.768 12.293 2.768 C 11.849 2.768 11.402 2.676 10.976 2.488 C 10.425 2.175 9.94 1.813 9.35 1.686 C 9.198 1.654 8.785 1.648 8.553 1.616 C 8.499 1.152 8.705 0.479 8.904 0.181 C 8.953 0.11 8.99 0.042 8.986 0.03 C 8.978 0.008 8.903 -0.001 8.797 0 L 8.797 0 Z"/>
</svg>
