<svg xmlns="http://www.w3.org/2000/svg" style="isolation:isolate" width="256" height="256" viewBox="0 0 256 256">
 <defs>
  <filter id="CkvqGI3XiQiHipRZMp8ukMtDWXZY3u2n" width="400%" height="400%" x="-200%" y="-200%" color-interpolation-filters="sRGB" filterUnits="objectBoundingBox">
   <feGaussianBlur xmlns="http://www.w3.org/2000/svg" in="SourceGraphic" stdDeviation="4.294"/>
   <feOffset xmlns="http://www.w3.org/2000/svg" dx="0" dy="4" result="pf_100_offsetBlur"/>
   <feFlood xmlns="http://www.w3.org/2000/svg" flood-opacity=".4"/>
   <feComposite xmlns="http://www.w3.org/2000/svg" in2="pf_100_offsetBlur" operator="in" result="pf_100_dropShadow"/>
   <feBlend xmlns="http://www.w3.org/2000/svg" in="SourceGraphic" in2="pf_100_dropShadow" mode="normal"/>
  </filter>
 </defs>
 <g filter="url(#CkvqGI3XiQiHipRZMp8ukMtDWXZY3u2n)">
  <linearGradient id="_lgradient_14" x1="0" x2="0" y1="0" y2="1" gradientTransform="matrix(244.648309,0,0,228.338396,5.68,11.95)" gradientUnits="userSpaceOnUse">
   <stop offset="0%" style="stop-color:#ad4f8d"/>
   <stop offset="100%" style="stop-color:#6b8ccb"/>
  </linearGradient>
  <path fill="url(#_lgradient_14)" d="M 165.688919 11.95 C 239.744626 11.95 250.328309 22.507198 250.328309 96.493859 L 250.328309 155.744653 C 250.328309 229.73091 239.744626 240.288396 165.688919 240.288396 L 90.319393 240.288396 C 16.26369 240.288396 5.68 229.73091 5.68 155.744653 L 5.68 96.493859 C 5.68 22.507198 16.26369 11.95 90.319393 11.95 L 165.688919 11.95 Z"/>
 </g>
 <g style="opacity:0.8">
  <g>
   <path fill="#666666" d="M 63.539006 239.441 C 64.089001 239.476996 64.560002 239.539008 65.120007 239.571997 C 65.555004 239.597006 66.147 239.582999 66.588001 239.607001 L 66.549 232.015006 L 93.178005 207.550009 L 93.178005 199.394003 L 105.468006 187.161002 L 105.468006 181.045996 L 111.612004 174.929007 L 111.612004 158.620001 L 103.419003 150.463995 L 87.032002 150.463995 L 78.839001 142.310004 L 58.356003 142.310004 L 50.161003 150.463995 L 50.161003 170.853003 L 66.604 185.192999 L 66.549 203.472006 L 60.405003 209.588995 L 60.405003 236.09101 L 63.539006 239.441 Z"/>
   <path fill="#666666" d="M 99.322003 81.148001 L 93.178005 87.265006 L 99.322003 87.265006 L 101.371006 89.303999 L 103.419003 89.303999 L 105.468006 87.265006 L 99.322003 81.148001 Z"/>
   <g>
    <path fill="#666666" d="M 177.160008 109.690001 L 152.580006 109.690001 L 138.242008 123.961005 L 138.242008 144.349005 L 148.483006 154.543005 L 162.82201 154.543005 L 168.966999 160.659003 L 168.966999 166.775 L 173.063999 170.851996 L 173.063999 195.317008 L 188.619999 211.681998 L 214.308003 186.114996 L 214.03101 162.696997 L 234.515003 142.310004 L 226.321003 142.310004 L 205.838001 121.923003 L 205.838001 113.768004 L 181.257008 113.768004 L 177.160008 109.690001 Z"/>
    <path fill="#666666" d="M 250.901997 117.845 L 250.901997 96.373999 C 250.901997 87.126006 250.735005 78.869002 250.299 71.498999 C 250.080998 67.815001 249.796009 64.353003 249.429997 61.099001 C 249.063999 57.845004 248.618 54.801001 248.078007 51.952002 C 247.537998 49.104002 246.903996 46.451003 246.164006 43.982005 C 245.425007 41.513003 244.578999 39.226004 243.613011 37.111002 C 242.998997 35.764002 242.248005 34.600005 241.533009 33.388003 L 238.610996 36.296004 L 226.321003 36.296004 L 214.03101 48.529002 L 205.838001 40.374003 L 181.258 40.374003 L 168.968006 52.607005 L 168.968006 62.800002 L 181.258 62.800002 L 181.258 56.683001 L 189.451008 56.683001 L 189.451008 64.839003 L 185.353001 68.914999 L 168.968006 69.191 L 162.82201 75.032004 L 154.629002 75.032004 L 154.629002 83.187003 L 148.483006 89.303999 L 148.483006 101.534003 L 160.772999 101.534003 L 168.968006 93.380003 L 177.161 93.380003 L 177.161 97.458006 L 185.353001 105.613005 L 189.451008 105.613005 L 189.451008 101.534003 L 181.258 93.380003 L 189.451008 93.380003 L 197.643009 101.534003 L 207.884999 101.534003 L 201.741001 95.419005 L 207.884999 89.303999 L 214.03101 89.303999 L 220.175007 95.419005 L 214.03101 95.419005 L 207.884999 101.534003 L 213.91901 107.539999 L 214.03101 113.767004 L 205.838001 113.767004 L 230.41901 138.232001 L 234.513996 138.232001 L 238.610996 134.155997 L 246.804005 125.998999 L 238.610996 117.845 L 250.901997 117.845 Z"/>
    <path fill="#666666" d="M 156.677006 70.954001 L 156.677006 64.838004 L 162.82201 58.722003 L 162.82201 70.954001 L 156.677006 70.954001 Z"/>
    <path fill="#666666" d="M 220.175999 191.239996 L 220.175999 178.456 L 228.369999 170.851996 L 228.369999 191.239996 L 220.175999 191.239996 Z"/>
   </g>
   <path fill="#666666" d="M 136.192997 11.831003 L 90.136006 11.831003 C 89.347004 11.831003 88.788006 11.880002 88.013005 11.882003 L 80.888005 19.986002 L 93.178005 32.218005 L 93.178005 45.001002 L 107.517002 60.761004 L 115.710003 60.761004 L 115.710003 52.607005 L 128.000004 40.374003 L 128.000004 32.218005 L 136.192997 24.064003 L 136.192997 11.831003 Z"/>
   <path fill="#666666" d="M 125.951 56.683001 L 132.097004 56.683001 L 138.242008 62.799002 L 125.951 62.799002 L 125.951 56.683001 Z"/>
   <path fill="#666666" d="M 70.646 123.961005 L 64.501004 123.961005 L 58.355004 130.078009 L 70.646 130.078009 L 70.646 123.961005 Z"/>
   <path fill="#666666" d="M 16.003002 30.841002 C 15.896004 30.993002 15.758003 31.109004 15.653004 31.263003 C 14.436003 33.051001 13.352003 34.995001 12.386004 37.111002 C 11.421004 39.226004 10.575003 41.513003 9.835003 43.982005 C 9.095003 46.451003 8.462003 49.104002 7.922003 51.952002 C 7.382004 54.801001 6.936003 57.845004 6.570003 61.099001 C 6.204003 64.353003 5.918003 67.815001 5.700003 71.498999 C 5.264004 78.869002 5.098003 87.126006 5.098003 96.373999 L 5.098003 117.845 L 13.291003 125.998999 L 25.581003 125.998999 L 46.066002 146.388007 L 46.066002 121.923003 L 58.356003 109.691 L 66.549 109.691 L 78.839001 97.458006 L 91.129002 97.458006 L 84.985005 91.341002 L 97.275006 77.072005 L 84.985005 64.839003 L 66.549 64.839003 L 66.549 81.148001 L 58.356003 81.148001 L 50.161003 72.993002 L 50.161003 64.839003 L 62.452004 52.607005 L 72.695004 52.607005 L 72.695004 44.450003 L 60.405003 32.218005 L 39.920002 32.218005 L 39.920002 44.450003 L 29.678004 44.450003 L 16.003002 30.841002 Z"/>
   <path fill="#666666" d="M 66.549 12.396003 C 66.120007 12.419003 65.544003 12.404003 65.120007 12.429003 C 61.415005 12.646003 57.931004 12.929003 54.659004 13.292003 C 51.387005 13.656003 48.325005 14.100003 45.460003 14.636003 C 42.901005 15.115003 40.554005 15.699003 38.301003 16.335003 L 46.066002 24.064003 L 66.549 24.064003 L 66.549 12.396003 Z"/>
  </g>
 </g>
 <g>
  <circle fill="#ffffff" cx="72.377" cy="103.575" r="4.078" vector-effect="non-scaling-stroke"/>
  <circle fill="#ffffff" cx="92.764" cy="185.125" r="4.078" vector-effect="non-scaling-stroke"/>
  <circle fill="#ffffff" cx="153.927" cy="144.35" r="4.078" vector-effect="non-scaling-stroke"/>
  <circle fill="#ffffff" cx="174.314" cy="83.187" r="4.078" vector-effect="non-scaling-stroke"/>
  <g style="opacity:0.5">
   <g opacity=".5">
    <path fill="none" fill-rule="evenodd" stroke="#ffffff" stroke-width="2" d="M 5.098003 138.234 C 73.513005 89.145003 155.966007 81.149001 249.748005 79.109999" vector-effect="non-scaling-stroke"/>
   </g>
  </g>
  <g style="opacity:0.5">
   <g opacity=".5">
    <path fill="none" fill-rule="evenodd" stroke="#ffffff" stroke-width="2" d="M 6.670003 59.789004 C 27.643004 74.837004 48.363003 89.173003 71.896 103.622 C 125.130001 136.306006 184.715 163.133002 249.748005 164.545996" vector-effect="non-scaling-stroke"/>
   </g>
  </g>
  <g style="opacity:0.5">
   <g opacity=".5">
    <path fill="none" fill-rule="evenodd" stroke="#ffffff" stroke-width="2" d="M 154.436009 141.291998 C 174.533009 98.215003 186.802998 62.696002 181.688008 12.175003" vector-effect="non-scaling-stroke"/>
   </g>
  </g>
  <g style="opacity:0.5">
   <g opacity=".5">
    <path fill="none" fill-rule="evenodd" stroke="#ffffff" stroke-width="2" d="M 139.47501 239.827002 C 69.537007 187.487998 63.917004 114.560004 75.969006 12.175003" vector-effect="non-scaling-stroke"/>
   </g>
  </g>
  <g filter="url(#b9xySNnvgapMvlswAcgmLPxHLFGV6BbO)">
   <circle fill="#ffffff" cx="72.377" cy="103.575" r="4.078" vector-effect="non-scaling-stroke"/>
  </g>
  <defs>
   <filter id="b9xySNnvgapMvlswAcgmLPxHLFGV6BbO" width="400%" height="400%" x="-200%" y="-200%" color-interpolation-filters="sRGB" filterUnits="objectBoundingBox">
    <feGaussianBlur xmlns="http://www.w3.org/2000/svg" stdDeviation="2.7"/>
   </filter>
  </defs>
  <g filter="url(#8RzFAsm3s6QH2bBUC5tFE7sZaCzuBXB2)">
   <circle fill="#ffffff" cx="92.764" cy="185.125" r="4.078" vector-effect="non-scaling-stroke"/>
  </g>
  <defs>
   <filter id="8RzFAsm3s6QH2bBUC5tFE7sZaCzuBXB2" width="400%" height="400%" x="-200%" y="-200%" color-interpolation-filters="sRGB" filterUnits="objectBoundingBox">
    <feGaussianBlur xmlns="http://www.w3.org/2000/svg" stdDeviation="2.7"/>
   </filter>
  </defs>
  <g filter="url(#hWUYp8Xge9mOqD3ipvCatdZyFnnWbQoP)">
   <circle fill="#ffffff" cx="153.927" cy="144.35" r="4.078" vector-effect="non-scaling-stroke"/>
  </g>
  <defs>
   <filter id="hWUYp8Xge9mOqD3ipvCatdZyFnnWbQoP" width="400%" height="400%" x="-200%" y="-200%" color-interpolation-filters="sRGB" filterUnits="objectBoundingBox">
    <feGaussianBlur xmlns="http://www.w3.org/2000/svg" stdDeviation="2.7"/>
   </filter>
  </defs>
  <g filter="url(#HmDW3kIuA8gDdrvFMMaCIKfZ2yRFh4OU)">
   <circle fill="#ffffff" cx="174.314" cy="83.187" r="4.078" vector-effect="non-scaling-stroke"/>
  </g>
  <defs>
   <filter id="HmDW3kIuA8gDdrvFMMaCIKfZ2yRFh4OU" width="400%" height="400%" x="-200%" y="-200%" color-interpolation-filters="sRGB" filterUnits="objectBoundingBox">
    <feGaussianBlur xmlns="http://www.w3.org/2000/svg" stdDeviation="2.7"/>
   </filter>
  </defs>
  <g style="opacity:0.5">
   <g opacity=".5">
    <path fill="none" fill-rule="evenodd" stroke="#ffffff" stroke-width="2" d="M 153.355 144.159003 C 108.959004 199.707999 17.877003 201.179007 6.696003 194.181998" vector-effect="non-scaling-stroke"/>
   </g>
  </g>
 </g>
 <g>
  <defs>
   <filter id="n3noZXraFdsXHcfuwGa0XPrL9eSWXOQP" width="400%" height="400%" x="-200%" y="-200%" color-interpolation-filters="sRGB" filterUnits="objectBoundingBox">
    <feGaussianBlur xmlns="http://www.w3.org/2000/svg" stdDeviation="4.294"/>
   </filter>
  </defs>
  <g opacity=".4" filter="url(#n3noZXraFdsXHcfuwGa0XPrL9eSWXOQP)">
   <path d="M 55.622767 139.8175 C 55.558967 140.668167 55.5 141.518833 55.5 142.388833 C 55.5 161.7995 71.72985 177.541667 91.75 177.541667 L 168.783667 177.541667 C 186.299667 177.541667 200.5 163.7715 200.5 146.787167 C 200.5 145.951 200.446833 145.1245 200.379167 144.302833 C 199.132167 160.185167 185.478 172.708333 168.783667 172.708333 L 91.75 172.708333 C 72.517683 172.708333 56.832067 158.1745 55.622767 139.8175 Z"/>
  </g>
  <path fill="#e6e6e6" d="M 128 78.458333 C 109.232167 78.458333 93.24785 89.600617 86.36905 105.370333 C 68.898 107.8885 55.5 122.3305 55.5 139.972167 C 55.5 159.387667 71.72985 175.125 91.75 175.125 L 168.783667 175.125 C 186.299667 175.125 200.5 161.354833 200.5 144.365667 C 200.5 128.58 188.257167 115.641167 172.461833 113.886667 C 168.343833 93.730217 149.991667 78.458333 128 78.458333 Z"/>
  <g opacity=".8">
   <linearGradient id="_lgradient_15" x1="0" x2="0" y1="0" y2="1" gradientTransform="matrix(58,0,0,48.333333,99,102.625)" gradientUnits="userSpaceOnUse">
    <stop offset="0%" style="stop-color:#ad4f8d"/>
    <stop offset="100%" style="stop-color:#6b8ccb"/>
   </linearGradient>
   <path fill="url(#_lgradient_15)" d="M 120.75 102.625 C 114.075167 102.625 108.666667 108.0335 108.666667 114.708333 C 108.666667 121.383167 114.075167 126.791667 120.75 126.791667 C 127.424833 126.791667 132.833333 121.383167 132.833333 114.708333 C 132.833333 108.0335 127.424833 102.625 120.75 102.625 Z M 142.5 107.458333 C 140.218667 107.458333 138.15 108.28 136.497 109.5995 C 137.226833 111.155833 137.666667 112.8765 137.666667 114.708333 C 137.666667 117.7775 136.4825 120.547 134.5975 122.673667 C 136.347167 125.162833 139.227833 126.791667 142.5 126.791667 C 147.840833 126.791667 152.166667 122.465833 152.166667 117.125 C 152.166667 111.784167 147.840833 107.458333 142.5 107.458333 Z M 120.75 131.625 C 98.999033 131.6395 99 147.0965 99 147.0965 L 99 150.958333 L 142.5 150.958333 L 142.5 147.0965 C 142.5 147.0965 142.5 131.615333 120.75 131.625 Z M 142.5 131.625 C 139.488833 131.625 137.130167 132.142167 135.240333 132.934833 C 145.830167 136.202167 147.043333 144.104667 147.202833 146.125 L 157 146.125 L 157 143.225 C 157 143.225 157 131.615333 142.5 131.625 Z"/>
  </g>
  <g opacity=".2">
   <path fill="#ffffff" d="M 128 78.458333 C 109.232167 78.458333 93.247939 89.604288 86.369142 105.372071 C 68.898091 107.890238 55.5 122.328385 55.5 139.970052 C 55.5 140.351885 55.536892 140.726469 55.561361 141.102865 C 56.197986 124.053078 69.327295 110.24504 86.369142 107.788738 C 93.247939 92.020954 109.232167 80.875 128 80.875 C 149.991667 80.875 168.344889 96.147744 172.462892 116.30371 C 187.833987 118.011088 199.804759 130.323006 200.438638 145.530273 C 200.46115 145.144032 200.5 144.760712 200.5 144.369142 C 200.5 128.583473 188.258225 115.641544 172.462892 113.887044 C 168.344889 93.731077 149.991667 78.458333 128 78.458333 Z"/>
  </g>
 </g>
</svg>
