<svg xmlns="http://www.w3.org/2000/svg" style="isolation:isolate" width="256" height="256" viewBox="0 0 256 256">
 <defs>
  <clipPath id="_clipPath_3xyNo2HUXOSwnvhoBMCVGHJJJymtDFvx">
   <rect width="256" height="256"/>
  </clipPath>
 </defs>
 <g clip-path="url(#_clipPath_3xyNo2HUXOSwnvhoBMCVGHJJJymtDFvx)">
  <defs>
   <filter id="NhCka7YGacNjmJqUREbCYMRnYVMvIUS6" width="400%" height="400%" x="-200%" y="-200%" color-interpolation-filters="sRGB" filterUnits="objectBoundingBox">
    <feGaussianBlur xmlns="http://www.w3.org/2000/svg" in="SourceGraphic" stdDeviation="4.294"/>
    <feOffset xmlns="http://www.w3.org/2000/svg" dx="0" dy="4" result="pf_100_offsetBlur"/>
    <feFlood xmlns="http://www.w3.org/2000/svg" flood-opacity=".4"/>
    <feComposite xmlns="http://www.w3.org/2000/svg" in2="pf_100_offsetBlur" operator="in" result="pf_100_dropShadow"/>
    <feBlend xmlns="http://www.w3.org/2000/svg" in="SourceGraphic" in2="pf_100_dropShadow" mode="normal"/>
   </filter>
  </defs>
  <g filter="url(#NhCka7YGacNjmJqUREbCYMRnYVMvIUS6)">
   <linearGradient id="_lgradient_10" x1="0" x2="0" y1="0" y2="1" gradientTransform="matrix(244.648,0,0,228.338,5.68,11.95)" gradientUnits="userSpaceOnUse">
    <stop offset="0%" style="stop-color:#e0e5e7"/>
    <stop offset="100%" style="stop-color:#c7ced2"/>
   </linearGradient>
   <path fill="url(#_lgradient_10)" d="M 165.689 11.95 C 239.745 11.95 250.328 22.507 250.328 96.494 L 250.328 155.745 C 250.328 229.731 239.745 240.288 165.689 240.288 L 90.319 240.288 C 16.264 240.288 5.68 229.731 5.68 155.745 L 5.68 96.494 C 5.68 22.507 16.264 11.95 90.319 11.95 L 165.689 11.95 Z"/>
  </g>
  <g opacity=".4">
   <linearGradient id="_lgradient_11" x1=".517" x2=".517" y1="0" y2="1" gradientTransform="matrix(244.65,0,0,228.34,5.68,11.95)" gradientUnits="userSpaceOnUse">
    <stop offset="0%" style="stop-color:#ffffff"/>
    <stop offset="12.5%" stop-opacity=".098" style="stop-color:#ffffff"/>
    <stop offset="92.5%" stop-opacity=".098" style="stop-color:#000000"/>
    <stop offset="100%" stop-opacity=".498" style="stop-color:#000000"/>
   </linearGradient>
   <path fill="url(#_lgradient_11)" fill-rule="evenodd" d="M 165.068 11.951 C 169.396 11.941 173.724 11.991 178.052 12.089 C 181.927 12.167 185.803 12.315 189.678 12.541 C 193.131 12.737 196.583 13.022 200.026 13.395 C 203.085 13.73 206.144 14.181 209.174 14.741 C 211.889 15.243 214.574 15.881 217.22 16.657 C 219.62 17.355 221.971 18.219 224.243 19.241 C 226.358 20.184 228.384 21.304 230.302 22.591 C 232.142 23.829 233.863 25.244 235.437 26.806 C 237.001 28.378 238.417 30.088 239.656 31.925 C 240.945 33.841 242.066 35.865 243.02 37.967 C 244.043 40.247 244.909 42.585 245.617 44.972 C 246.394 47.615 247.034 50.297 247.535 53.009 C 248.096 56.035 248.548 59.081 248.883 62.136 C 249.257 65.575 249.542 69.014 249.739 72.462 C 249.965 76.323 250.112 80.194 250.201 84.055 C 250.289 88.378 250.339 92.701 250.329 97.014 L 250.329 155.226 C 250.339 159.549 250.289 163.862 250.201 168.185 C 250.112 172.056 249.965 175.917 249.739 179.778 C 249.542 183.226 249.257 186.675 248.883 190.104 C 248.548 193.159 248.096 196.215 247.535 199.241 C 247.034 201.943 246.394 204.625 245.617 207.268 C 244.909 209.655 244.043 212.003 243.02 214.273 C 242.066 216.385 240.945 218.399 239.656 220.315 C 238.417 222.152 237.001 223.872 235.437 225.434 C 233.863 226.996 232.142 228.411 230.302 229.649 C 228.384 230.936 226.358 232.056 224.243 232.999 C 221.971 234.021 219.62 234.885 217.22 235.593 C 214.574 236.369 211.889 237.007 209.174 237.499 C 206.144 238.068 203.085 238.51 200.026 238.845 C 196.583 239.218 193.131 239.503 189.678 239.699 C 185.803 239.925 181.927 240.073 178.052 240.161 C 173.724 240.249 169.396 240.299 165.068 240.289 L 90.942 240.289 C 86.614 240.299 82.286 240.249 77.958 240.161 C 74.083 240.073 70.207 239.925 66.332 239.699 C 62.879 239.503 59.427 239.218 55.984 238.845 C 52.925 238.51 49.866 238.068 46.836 237.499 C 44.121 237.007 41.436 236.369 38.79 235.593 C 36.39 234.885 34.039 234.021 31.767 232.999 C 29.652 232.056 27.626 230.936 25.708 229.649 C 23.868 228.411 22.147 226.996 20.573 225.434 C 19.009 223.872 17.593 222.152 16.354 220.315 C 15.065 218.399 13.944 216.385 12.99 214.273 C 11.967 212.003 11.101 209.655 10.393 207.268 C 9.616 204.625 8.976 201.943 8.475 199.241 C 7.914 196.215 7.462 193.159 7.127 190.104 C 6.753 186.675 6.468 183.226 6.271 179.778 C 6.045 175.917 5.898 172.056 5.809 168.185 C 5.721 163.862 5.671 159.549 5.681 155.226 L 5.681 97.014 C 5.671 92.701 5.721 88.378 5.809 84.055 C 5.898 80.194 6.045 76.323 6.271 72.462 C 6.468 69.014 6.753 65.575 7.127 62.136 C 7.462 59.081 7.914 56.035 8.475 53.009 C 8.976 50.297 9.616 47.615 10.393 44.972 C 11.101 42.585 11.967 40.247 12.99 37.967 C 13.944 35.865 15.065 33.841 16.354 31.925 C 17.593 30.088 19.009 28.378 20.573 26.806 C 22.147 25.244 23.868 23.829 25.708 22.591 C 27.626 21.304 29.652 20.184 31.767 19.241 C 34.039 18.219 36.39 17.355 38.79 16.657 C 41.436 15.881 44.121 15.243 46.836 14.741 C 49.866 14.181 52.925 13.73 55.984 13.395 C 59.427 13.022 62.879 12.737 66.332 12.541 C 70.207 12.315 74.083 12.167 77.958 12.089 C 82.286 11.991 86.614 11.941 90.942 11.951 L 165.068 11.951 Z M 165.078 15.96 C 169.376 15.95 173.675 15.999 177.973 16.087 C 181.8 16.176 185.626 16.323 189.452 16.539 C 192.836 16.736 196.219 17.011 199.583 17.384 C 202.554 17.699 205.515 18.131 208.446 18.681 C 211.023 19.153 213.58 19.762 216.099 20.499 C 218.322 21.147 220.495 21.953 222.6 22.896 C 224.509 23.751 226.338 24.763 228.069 25.922 C 229.692 27.013 231.207 28.26 232.594 29.646 C 233.981 31.031 235.23 32.544 236.332 34.165 C 237.492 35.894 238.506 37.712 239.361 39.608 C 240.306 41.72 241.112 43.892 241.761 46.102 C 242.509 48.617 243.109 51.162 243.591 53.736 C 244.132 56.664 244.565 59.611 244.889 62.578 C 245.263 65.938 245.539 69.308 245.735 72.688 C 245.952 76.51 246.109 80.322 246.188 84.144 C 246.276 88.437 246.325 92.721 246.325 97.014 C 246.325 97.014 246.325 97.014 246.325 97.014 L 246.325 155.226 C 246.325 155.226 246.325 155.226 246.325 155.226 C 246.325 159.519 246.276 163.803 246.188 168.096 C 246.109 171.918 245.952 175.74 245.735 179.552 C 245.539 182.932 245.263 186.302 244.889 189.672 C 244.565 192.629 244.132 195.576 243.591 198.504 C 243.109 201.078 242.509 203.623 241.761 206.138 C 241.112 208.358 240.306 210.52 239.361 212.632 C 238.506 214.528 237.492 216.356 236.332 218.075 C 235.23 219.706 233.981 221.219 232.594 222.604 C 231.207 223.98 229.692 225.227 228.069 226.318 C 226.338 227.477 224.509 228.489 222.6 229.344 C 220.495 230.297 218.322 231.093 216.099 231.741 C 213.58 232.478 211.023 233.087 208.446 233.559 C 205.515 234.109 202.554 234.541 199.583 234.865 C 196.219 235.229 192.836 235.514 189.452 235.701 C 185.626 235.917 181.8 236.074 177.973 236.153 C 173.675 236.251 169.376 236.29 165.078 236.29 C 165.078 236.29 165.078 236.29 165.068 236.29 L 90.942 236.29 C 90.932 236.29 90.932 236.29 90.932 236.29 C 86.634 236.29 82.335 236.251 78.037 236.153 C 74.21 236.074 70.384 235.917 66.558 235.701 C 63.174 235.514 59.791 235.229 56.427 234.865 C 53.456 234.541 50.495 234.109 47.564 233.559 C 44.987 233.087 42.43 232.478 39.911 231.741 C 37.688 231.093 35.515 230.297 33.41 229.344 C 31.501 228.489 29.672 227.477 27.941 226.318 C 26.318 225.227 24.803 223.98 23.416 222.604 C 22.029 221.219 20.78 219.706 19.678 218.075 C 18.518 216.356 17.504 214.528 16.649 212.632 C 15.704 210.52 14.898 208.358 14.249 206.138 C 13.501 203.623 12.901 201.078 12.419 198.504 C 11.878 195.576 11.445 192.629 11.121 189.672 C 10.747 186.302 10.472 182.932 10.275 179.552 C 10.058 175.74 9.901 171.918 9.822 168.096 C 9.734 163.803 9.685 159.519 9.685 155.226 C 9.685 155.226 9.685 155.226 9.685 155.226 L 9.685 97.014 C 9.685 97.014 9.685 97.014 9.685 97.014 C 9.685 92.721 9.734 88.437 9.822 84.144 C 9.901 80.322 10.058 76.51 10.275 72.688 C 10.472 69.308 10.747 65.938 11.121 62.578 C 11.445 59.611 11.878 56.664 12.419 53.736 C 12.901 51.162 13.501 48.617 14.249 46.102 C 14.898 43.892 15.704 41.72 16.649 39.608 C 17.504 37.712 18.518 35.894 19.678 34.165 C 20.78 32.544 22.029 31.031 23.416 29.646 C 24.803 28.26 26.318 27.013 27.941 25.922 C 29.672 24.763 31.501 23.751 33.41 22.896 C 35.515 21.953 37.688 21.147 39.911 20.499 C 42.43 19.762 44.987 19.153 47.564 18.681 C 50.495 18.131 53.456 17.699 56.427 17.384 C 59.791 17.011 63.174 16.736 66.558 16.539 C 70.384 16.323 74.21 16.176 78.037 16.087 C 82.335 15.999 86.634 15.95 90.932 15.96 C 90.932 15.96 90.932 15.96 90.942 15.96 L 165.068 15.96 C 165.078 15.96 165.078 15.96 165.078 15.96 Z"/>
  </g>
  <g>
   <path fill="#3b3b3b" fill-rule="evenodd" d="M 53.443 77.231 L 62.942 77.231 C 66.451 77.231 68.926 80.079 69.275 83.577 L 70.858 99.442 C 71.207 102.941 68.034 105.788 64.525 105.788 L 51.859 105.788 C 48.351 105.788 45.177 102.941 45.526 99.442 L 47.11 83.577 C 47.459 80.079 49.934 77.231 53.443 77.231 L 53.443 77.231 L 53.443 77.231 L 53.443 77.231 L 53.443 77.231 L 53.443 77.231 L 53.443 77.231 L 53.443 77.231 L 53.443 77.231 Z M 62.962 150.212 L 72.461 150.212 C 75.97 150.212 78.445 153.059 78.794 156.558 L 80.377 172.423 C 80.727 175.921 77.553 178.769 74.045 178.769 L 61.379 178.769 C 57.87 178.769 54.696 175.921 55.046 172.423 L 56.629 156.558 C 56.978 153.059 59.453 150.212 62.962 150.212 L 62.962 150.212 L 62.962 150.212 L 62.962 150.212 L 62.962 150.212 L 62.962 150.212 L 62.962 150.212 L 62.962 150.212 L 62.962 150.212 Z M 88.346 77.231 L 97.846 77.231 C 101.354 77.231 103.83 80.079 104.179 83.577 L 105.762 99.442 C 106.111 102.941 102.938 105.788 99.429 105.788 L 86.763 105.788 C 83.255 105.788 80.081 102.941 80.43 99.442 L 82.013 83.577 C 82.363 80.079 84.838 77.231 88.346 77.231 L 88.346 77.231 L 88.346 77.231 L 88.346 77.231 L 88.346 77.231 L 88.346 77.231 L 88.346 77.231 L 88.346 77.231 Z M 123.25 77.231 L 132.75 77.231 C 136.258 77.231 138.734 80.079 139.083 83.577 L 140.666 99.442 C 141.015 102.941 137.841 105.788 134.333 105.788 L 121.667 105.788 C 118.159 105.788 114.985 102.941 115.334 99.442 L 116.917 83.577 C 117.266 80.079 119.742 77.231 123.25 77.231 L 123.25 77.231 L 123.25 77.231 L 123.25 77.231 L 123.25 77.231 L 123.25 77.231 L 123.25 77.231 Z M 158.154 77.231 L 167.654 77.231 C 171.162 77.231 173.637 80.079 173.987 83.577 L 175.57 99.442 C 175.919 102.941 172.745 105.788 169.237 105.788 L 156.571 105.788 C 153.062 105.788 149.889 102.941 150.238 99.442 L 151.821 83.577 C 152.17 80.079 154.646 77.231 158.154 77.231 L 158.154 77.231 L 158.154 77.231 L 158.154 77.231 L 158.154 77.231 L 158.154 77.231 Z M 193.058 77.231 L 202.557 77.231 C 206.066 77.231 208.541 80.079 208.89 83.577 L 210.474 99.442 C 210.823 102.941 207.649 105.788 204.141 105.788 L 191.475 105.788 C 187.966 105.788 184.793 102.941 185.142 99.442 L 186.725 83.577 C 187.074 80.079 189.549 77.231 193.058 77.231 L 193.058 77.231 L 193.058 77.231 L 193.058 77.231 L 193.058 77.231 Z M 69.308 115.308 L 78.807 115.308 C 82.316 115.308 84.791 118.156 85.14 121.654 L 86.724 137.519 C 87.073 141.018 83.899 143.865 80.391 143.865 L 67.725 143.865 C 64.216 143.865 61.043 141.018 61.392 137.519 L 62.975 121.654 C 63.324 118.156 65.799 115.308 69.308 115.308 L 69.308 115.308 L 69.308 115.308 L 69.308 115.308 Z M 104.212 115.308 L 113.711 115.308 C 117.22 115.308 119.695 118.156 120.044 121.654 L 121.627 137.519 C 121.977 141.018 118.803 143.865 115.295 143.865 L 102.629 143.865 C 99.12 143.865 95.946 141.018 96.296 137.519 L 97.879 121.654 C 98.228 118.156 100.703 115.308 104.212 115.308 L 104.212 115.308 L 104.212 115.308 Z M 139.116 115.308 L 148.615 115.308 C 152.124 115.308 154.599 118.156 154.948 121.654 L 156.531 137.519 C 156.88 141.018 153.707 143.865 150.198 143.865 L 137.532 143.865 C 134.024 143.865 130.85 141.018 131.199 137.519 L 132.783 121.654 C 133.132 118.156 135.607 115.308 139.116 115.308 L 139.116 115.308 Z M 180.366 150.212 L 189.865 150.212 C 193.374 150.212 195.849 153.059 196.198 156.558 L 197.781 172.423 C 198.13 175.921 194.957 178.769 191.448 178.769 L 178.782 178.769 C 175.274 178.769 172.1 175.921 172.449 172.423 L 174.033 156.558 C 174.382 153.059 176.857 150.212 180.366 150.212 Z"/>
   <path fill="#5d5d5d" fill-rule="evenodd" d="M 69.298 82.519 L 69.298 87.808 C 69.298 90.737 66.468 93.096 62.952 93.096 L 53.433 93.096 C 49.917 93.096 47.087 90.737 47.087 87.808 L 47.087 82.519 C 47.087 79.589 49.917 77.231 53.433 77.231 L 62.952 77.231 C 66.468 77.231 69.298 79.589 69.298 82.519 L 69.298 82.519 L 69.298 82.519 L 69.298 82.519 L 69.298 82.519 L 69.298 82.519 L 69.298 82.519 L 69.298 82.519 L 69.298 82.519 Z M 104.202 82.519 L 104.202 87.808 C 104.202 90.737 101.372 93.096 97.856 93.096 L 88.337 93.096 C 84.821 93.096 81.99 90.737 81.99 87.808 L 81.99 82.519 C 81.99 79.589 84.821 77.231 88.337 77.231 L 97.856 77.231 C 101.372 77.231 104.202 79.589 104.202 82.519 L 104.202 82.519 L 104.202 82.519 L 104.202 82.519 L 104.202 82.519 L 104.202 82.519 L 104.202 82.519 L 104.202 82.519 L 104.202 82.519 Z M 139.106 82.519 L 139.106 87.808 C 139.106 90.737 136.275 93.096 132.76 93.096 L 123.24 93.096 C 119.725 93.096 116.894 90.737 116.894 87.808 L 116.894 82.519 C 116.894 79.589 119.725 77.231 123.24 77.231 L 132.76 77.231 C 136.275 77.231 139.106 79.589 139.106 82.519 L 139.106 82.519 L 139.106 82.519 L 139.106 82.519 L 139.106 82.519 L 139.106 82.519 L 139.106 82.519 L 139.106 82.519 Z M 174.01 82.519 L 174.01 87.808 C 174.01 90.737 171.179 93.096 167.663 93.096 L 158.144 93.096 C 154.628 93.096 151.798 90.737 151.798 87.808 L 151.798 82.519 C 151.798 79.589 154.628 77.231 158.144 77.231 L 167.663 77.231 C 171.179 77.231 174.01 79.589 174.01 82.519 L 174.01 82.519 L 174.01 82.519 L 174.01 82.519 L 174.01 82.519 L 174.01 82.519 L 174.01 82.519 Z M 208.913 82.519 L 208.913 87.808 C 208.913 90.737 206.083 93.096 202.567 93.096 L 193.048 93.096 C 189.532 93.096 186.702 90.737 186.702 87.808 L 186.702 82.519 C 186.702 79.589 189.532 77.231 193.048 77.231 L 202.567 77.231 C 206.083 77.231 208.913 79.589 208.913 82.519 L 208.913 82.519 L 208.913 82.519 L 208.913 82.519 L 208.913 82.519 L 208.913 82.519 Z M 85.163 120.596 L 85.163 125.885 C 85.163 128.814 82.333 131.173 78.817 131.173 L 69.298 131.173 C 65.782 131.173 62.952 128.814 62.952 125.885 L 62.952 120.596 C 62.952 117.666 65.782 115.308 69.298 115.308 L 78.817 115.308 C 82.333 115.308 85.163 117.666 85.163 120.596 L 85.163 120.596 L 85.163 120.596 L 85.163 120.596 L 85.163 120.596 Z M 120.067 120.596 L 120.067 125.885 C 120.067 128.814 117.237 131.173 113.721 131.173 L 104.202 131.173 C 100.686 131.173 97.856 128.814 97.856 125.885 L 97.856 120.596 C 97.856 117.666 100.686 115.308 104.202 115.308 L 113.721 115.308 C 117.237 115.308 120.067 117.666 120.067 120.596 L 120.067 120.596 L 120.067 120.596 L 120.067 120.596 Z M 154.971 120.596 L 154.971 125.885 C 154.971 128.814 152.141 131.173 148.625 131.173 L 139.106 131.173 C 135.59 131.173 132.76 128.814 132.76 125.885 L 132.76 120.596 C 132.76 117.666 135.59 115.308 139.106 115.308 L 148.625 115.308 C 152.141 115.308 154.971 117.666 154.971 120.596 L 154.971 120.596 L 154.971 120.596 Z M 78.817 155.5 L 78.817 160.788 C 78.817 163.718 75.987 166.077 72.471 166.077 L 62.952 166.077 C 59.436 166.077 56.606 163.718 56.606 160.788 L 56.606 155.5 C 56.606 152.57 59.436 150.212 62.952 150.212 L 72.471 150.212 C 75.987 150.212 78.817 152.57 78.817 155.5 L 78.817 155.5 Z M 196.221 155.5 L 196.221 160.788 C 196.221 163.718 193.391 166.077 189.875 166.077 L 180.356 166.077 C 176.84 166.077 174.01 163.718 174.01 160.788 L 174.01 155.5 C 174.01 152.57 176.84 150.212 180.356 150.212 L 189.875 150.212 C 193.391 150.212 196.221 152.57 196.221 155.5 Z"/>
   <path fill="#888888" d="M 95.035 150.212 L 157.792 150.212 C 161.452 150.212 164.034 153.059 164.398 156.558 L 166.049 172.423 C 166.414 175.921 163.103 178.769 159.443 178.769 L 93.383 178.769 C 89.724 178.769 86.413 175.921 86.777 172.423 L 88.429 156.558 C 88.793 153.059 91.375 150.212 95.035 150.212 Z"/>
   <path fill="#b3b3b3" d="M 164.49 155.5 L 164.49 160.788 C 164.49 163.718 161.537 166.077 157.868 166.077 L 94.959 166.077 C 91.29 166.077 88.337 163.718 88.337 160.788 L 88.337 155.5 C 88.337 152.57 91.29 150.212 94.959 150.212 L 157.868 150.212 C 161.537 150.212 164.49 152.57 164.49 155.5 Z"/>
   <path fill="#f34f17" d="M 174.019 115.308 L 183.519 115.308 C 187.027 115.308 189.503 118.156 189.852 121.654 L 191.435 137.519 C 191.784 141.018 188.611 143.865 185.102 143.865 L 172.436 143.865 C 168.928 143.865 165.754 141.018 166.103 137.519 L 167.687 121.654 C 168.036 118.156 170.511 115.308 174.019 115.308 Z"/>
   <path fill="#fb7c38" d="M 189.875 120.596 L 189.875 125.885 C 189.875 128.814 187.045 131.173 183.529 131.173 L 174.01 131.173 C 170.494 131.173 167.663 128.814 167.663 125.885 L 167.663 120.596 C 167.663 117.666 170.494 115.308 174.01 115.308 L 183.529 115.308 C 187.045 115.308 189.875 117.666 189.875 120.596 Z"/>
  </g>
 </g>
</svg>
