<svg xmlns="http://www.w3.org/2000/svg" style="isolation:isolate" width="256" height="256" viewBox="0 0 256 256">
 <defs>
  <filter id="OIfAGvTEHj9kPviba3TgXPwaRlZHJNW1" width="400%" height="400%" x="-200%" y="-200%" color-interpolation-filters="sRGB" filterUnits="objectBoundingBox">
   <feGaussianBlur xmlns="http://www.w3.org/2000/svg" in="SourceGraphic" stdDeviation="4.294"/>
   <feOffset xmlns="http://www.w3.org/2000/svg" dx="0" dy="4" result="pf_100_offsetBlur"/>
   <feFlood xmlns="http://www.w3.org/2000/svg" flood-opacity=".4"/>
   <feComposite xmlns="http://www.w3.org/2000/svg" in2="pf_100_offsetBlur" operator="in" result="pf_100_dropShadow"/>
   <feBlend xmlns="http://www.w3.org/2000/svg" in="SourceGraphic" in2="pf_100_dropShadow" mode="normal"/>
  </filter>
 </defs>
 <g filter="url(#OIfAGvTEHj9kPviba3TgXPwaRlZHJNW1)">
  <linearGradient id="_lgradient_41" x1="0" x2="0" y1="0" y2="1" gradientTransform="matrix(244.648309,0,0,228.338396,5.68,11.95)" gradientUnits="userSpaceOnUse">
   <stop offset="0%" style="stop-color:#ffb357"/>
   <stop offset="50%" style="stop-color:#ff8b51"/>
   <stop offset="100%" style="stop-color:#f55c0f"/>
  </linearGradient>
  <path fill="url(#_lgradient_41)" d="M 165.688919 11.95 C 239.744626 11.95 250.328309 22.507198 250.328309 96.493859 L 250.328309 155.744653 C 250.328309 229.73091 239.744626 240.288396 165.688919 240.288396 L 90.319393 240.288396 C 16.26369 240.288396 5.68 229.73091 5.68 155.744653 L 5.68 96.493859 C 5.68 22.507198 16.26369 11.95 90.319393 11.95 L 165.688919 11.95 Z"/>
 </g>
 <g opacity=".4">
  <linearGradient id="_lgradient_42" x1=".517" x2=".517" y1="0" y2="1" gradientTransform="matrix(244.65,0,0,228.34,5.68,11.95)" gradientUnits="userSpaceOnUse">
   <stop offset="0%" style="stop-color:#ffffff"/>
   <stop offset="12.5%" stop-opacity=".098" style="stop-color:#ffffff"/>
   <stop offset="92.5%" stop-opacity=".098" style="stop-color:#000000"/>
   <stop offset="100%" stop-opacity=".498" style="stop-color:#000000"/>
  </linearGradient>
  <path fill="url(#_lgradient_42)" fill-rule="evenodd" d="M 165.06803 11.951234 C 169.395994 11.941409 173.723944 11.990533 178.051908 12.088781 C 181.927398 12.167379 185.802873 12.31475 189.678362 12.540721 C 193.1309 12.737216 196.583423 13.022134 200.026115 13.395476 C 203.085193 13.729518 206.144271 14.181458 209.173842 14.741469 C 211.888645 15.242533 214.57394 15.881143 217.219897 16.6573 C 219.619947 17.354858 221.970814 18.219439 224.242988 19.241215 C 226.357793 20.184394 228.384061 21.304417 230.302129 22.591462 C 232.141505 23.829383 233.862851 25.244151 235.436659 26.80629 C 237.000621 28.378252 238.417046 30.087764 239.656409 31.924995 C 240.944972 33.840824 242.066305 35.864728 243.020409 37.967229 C 244.043389 40.246576 244.908985 42.584873 245.617197 44.972292 C 246.394255 47.615155 247.033606 50.297317 247.535265 53.008956 C 248.095924 56.034984 248.548399 59.080665 248.882828 62.13617 C 249.256611 65.574836 249.541856 69.013506 249.738578 72.462003 C 249.964823 76.323139 250.112361 80.194101 250.200884 84.055237 C 250.289421 88.378131 250.338591 92.701032 250.32876 97.014106 L 250.32876 155.225886 C 250.338591 159.54878 250.289421 163.861854 250.200884 168.184747 C 250.112361 172.05571 249.964823 175.916853 249.738578 179.777981 C 249.541856 183.226485 249.256611 186.674975 248.882828 190.103826 C 248.548399 193.15933 248.095924 196.214835 247.535265 199.240851 C 247.033606 201.942664 246.394255 204.624837 245.617197 207.267703 C 244.908985 209.655115 244.043389 212.003235 243.020409 214.272755 C 242.066305 216.38509 240.944972 218.399156 239.656409 220.314999 C 238.417046 222.152226 237.000621 223.871561 235.436659 225.433697 C 233.862851 226.995832 232.141505 228.410601 230.302129 229.648532 C 228.384061 230.935575 226.357793 232.055598 224.242988 232.998768 C 221.970814 234.020552 219.619947 234.885137 217.219897 235.592507 C 214.57394 236.368672 211.888645 237.007276 209.173842 237.498515 C 206.144271 238.068354 203.085193 238.510465 200.026115 238.844519 C 196.583423 239.21785 193.1309 239.502777 189.678362 239.699269 C 185.802873 239.925235 181.927398 240.072615 178.051908 240.161035 C 173.723944 240.249454 169.395994 240.298581 165.06803 240.288762 L 90.941963 240.288762 C 86.614006 240.298581 82.286049 240.249454 77.9581 240.161035 C 74.08261 240.072615 70.20712 239.925235 66.331638 239.699269 C 62.879108 239.502777 59.426578 239.21785 55.983886 238.844519 C 52.924808 238.510465 49.865733 238.068354 46.836162 237.498515 C 44.121356 237.007276 41.436057 236.368672 38.7901 235.592507 C 36.390053 234.885137 34.039187 234.020552 31.767009 232.998768 C 29.652213 232.055598 27.625943 230.935575 25.707871 229.648532 C 23.868489 228.410601 22.147143 226.995832 20.573343 225.433697 C 19.009377 223.871561 17.592955 222.152226 16.353586 220.314999 C 15.065036 218.399156 13.943701 216.38509 12.989584 214.272755 C 11.966612 212.003235 11.101021 209.655115 10.392811 207.267703 C 9.615746 204.624837 8.976389 201.942664 8.47474 199.240851 C 7.914072 196.214835 7.461604 193.15933 7.127172 190.103826 C 6.753394 186.674975 6.468142 183.226485 6.271417 179.777981 C 6.045183 175.916853 5.897639 172.05571 5.809112 168.184747 C 5.720586 163.861854 5.671405 159.54878 5.681241 155.225886 L 5.681241 97.014106 C 5.671405 92.701032 5.720586 88.378131 5.809112 84.055237 C 5.897639 80.194101 6.045183 76.323139 6.271417 72.462003 C 6.468142 69.013506 6.753394 65.574836 7.127172 62.13617 C 7.461604 59.080665 7.914072 56.034984 8.47474 53.008956 C 8.976389 50.297317 9.615746 47.615155 10.392811 44.972292 C 11.101021 42.584873 11.966612 40.246576 12.989584 37.967229 C 13.943701 35.864728 15.065036 33.840824 16.353586 31.924995 C 17.592955 30.087764 19.009377 28.378252 20.573343 26.80629 C 22.147143 25.244151 23.868489 23.829383 25.707871 22.591462 C 27.625943 21.304417 29.652213 20.184394 31.767009 19.241215 C 34.039187 18.219439 36.390053 17.354858 38.7901 16.6573 C 41.436057 15.881143 44.121356 15.242533 46.836162 14.741469 C 49.865733 14.181458 52.924808 13.729518 55.983886 13.395476 C 59.426578 13.022134 62.879108 12.737216 66.331638 12.540721 C 70.20712 12.31475 74.08261 12.167379 77.9581 12.088781 C 82.286049 11.990533 86.614006 11.941409 90.941963 11.951234 L 165.06803 11.951234 Z M 165.077876 15.959741 C 169.376317 15.949916 173.674759 15.99904 177.973216 16.087463 C 181.799522 16.175886 185.625827 16.323257 189.452133 16.539402 C 192.835809 16.735898 196.219486 17.010992 199.583486 17.384332 C 202.554026 17.698726 205.514751 18.131016 208.445953 18.681203 C 211.023049 19.152792 213.580483 19.761928 216.098564 20.498786 C 218.321569 21.147221 220.495374 21.952852 222.600334 22.896029 C 224.508571 23.750785 226.338116 24.762737 228.069293 25.922059 C 229.692286 27.012609 231.207063 28.260355 232.59398 29.645648 C 233.980897 31.030941 235.230091 32.543956 236.331763 34.165043 C 237.492434 35.894202 238.505568 37.711787 239.361333 39.607968 C 240.305606 41.720292 241.112187 43.891565 241.761369 46.102139 C 242.508934 48.617282 243.108947 51.161898 243.590914 53.735987 C 244.131912 56.663768 244.564709 59.6112 244.889308 62.578282 C 245.263091 65.938355 245.538505 69.308252 245.735227 72.687976 C 245.951626 76.509812 246.10901 80.321821 246.187687 84.143656 C 246.276225 88.437084 246.325394 92.720685 246.325394 97.014106 C 246.325394 97.014106 246.325394 97.014106 246.325394 97.014106 L 246.325394 155.225886 C 246.325394 155.225886 246.325394 155.225886 246.325394 155.225886 C 246.325394 159.519306 246.276225 163.802907 246.187687 168.096328 C 246.10901 171.918164 245.951626 175.739999 245.735227 179.552015 C 245.538505 182.931739 245.263091 186.301629 244.889308 189.671533 C 244.564709 192.628784 244.131912 195.576216 243.590914 198.503994 C 243.108947 201.078094 242.508934 203.622706 241.761369 206.137845 C 241.112187 208.358253 240.305606 210.5197 239.361333 212.63202 C 238.505568 214.528209 237.492434 216.355617 236.331763 218.074952 C 235.230091 219.705853 233.980897 221.218876 232.59398 222.604172 C 231.207063 223.979634 229.692286 225.227385 228.069293 226.317935 C 226.338116 227.477251 224.508571 228.489201 222.600334 229.343951 C 220.495374 230.296956 218.321569 231.092775 216.098564 231.741198 C 213.580483 232.478056 211.023049 233.087202 208.445953 233.558787 C 205.514751 234.108972 202.554026 234.541264 199.583486 234.865483 C 196.219486 235.228995 192.835809 235.513922 189.452133 235.70058 C 185.625827 235.916726 181.799522 236.073926 177.973216 236.152526 C 173.674759 236.25078 169.376317 236.290072 165.077876 236.290072 C 165.077876 236.290072 165.077876 236.290072 165.06803 236.290072 L 90.941963 236.290072 C 90.932125 236.290072 90.932125 236.290072 90.932125 236.290072 C 86.633683 236.290072 82.335234 236.25078 78.036784 236.152526 C 74.210479 236.073926 70.384173 235.916726 66.557868 235.70058 C 63.174195 235.513922 59.790522 235.228995 56.426518 234.865483 C 53.455967 234.541264 50.495253 234.108972 47.564048 233.558787 C 44.986944 233.087202 42.429517 232.478056 39.911433 231.741198 C 37.688439 231.092775 35.514626 230.296956 33.409665 229.343951 C 31.501429 228.489201 29.671886 227.477251 27.940703 226.317935 C 26.31772 225.227385 24.802935 223.979634 23.416022 222.604172 C 22.029109 221.218876 20.779904 219.705853 19.678243 218.074952 C 18.517564 216.355617 17.504428 214.528209 16.648674 212.63202 C 15.704392 210.5197 14.897819 208.358253 14.248626 206.137845 C 13.50107 203.622706 12.901057 201.078094 12.419081 198.503994 C 11.878086 195.576216 11.445291 192.628784 11.120694 189.671533 C 10.746916 186.301629 10.471501 182.931739 10.274776 179.552015 C 10.058378 175.739999 9.900997 171.918164 9.822307 168.096328 C 9.733781 163.802907 9.6846 159.519306 9.6846 155.225886 C 9.6846 155.225886 9.6846 155.225886 9.6846 155.225886 L 9.6846 97.014106 C 9.6846 97.014106 9.6846 97.014106 9.6846 97.014106 C 9.6846 92.720685 9.733781 88.437084 9.822307 84.143656 C 9.900997 80.321821 10.058378 76.509812 10.274776 72.687976 C 10.471501 69.308252 10.746916 65.938355 11.120694 62.578282 C 11.445291 59.6112 11.878086 56.663768 12.419081 53.735987 C 12.901057 51.161898 13.50107 48.617282 14.248626 46.102139 C 14.897819 43.891565 15.704392 41.720292 16.648674 39.607968 C 17.504428 37.711787 18.517564 35.894202 19.678243 34.165043 C 20.779904 32.543956 22.029109 31.030941 23.416022 29.645648 C 24.802935 28.260355 26.31772 27.012609 27.940703 25.922059 C 29.671886 24.762737 31.501429 23.750785 33.409665 22.896029 C 35.514626 21.952852 37.688439 21.147221 39.911433 20.498786 C 42.429517 19.761928 44.986944 19.152792 47.564048 18.681203 C 50.495253 18.131016 53.455967 17.698726 56.426518 17.384332 C 59.790522 17.010992 63.174195 16.735898 66.557868 16.539402 C 70.384173 16.323257 74.210479 16.175886 78.036784 16.087463 C 82.335234 15.99904 86.633683 15.949916 90.932125 15.959741 C 90.932125 15.959741 90.932125 15.959741 90.941963 15.959741 L 165.06803 15.959741 C 165.077876 15.959741 165.077876 15.959741 165.077876 15.959741 Z"/>
 </g>
 <g>
  <path fill="#70360f" class="cls-1" d="M 161.833329 100.147348 C 161.798834 88.492474 155.781855 77.673922 145.90402 71.506385 C 136.026185 65.338848 123.67501 64.688666 113.205602 69.785098 C 114.491691 69.629303 115.785608 69.547053 117.081051 69.538748 C 122.513219 69.542795 127.863657 70.86347 132.675148 73.387916 C 118.697028 71.435417 104.976745 78.375025 98.252935 90.798392 C 91.529124 103.22176 93.214495 118.51867 102.481288 129.176136 C 111.74808 139.833602 126.649291 143.612433 139.866278 138.656677 C 153.083266 133.700922 161.83907 121.051813 161.833329 106.921884 C 161.833329 105.782532 161.833329 104.643175 161.648744 103.503828 C 161.464207 102.364471 161.833329 101.286695 161.833329 100.147348 Z"/>
  <g opacity=".1">
   <path fill="#ffffff" d="M 126.909668 66.393901 C 122.155047 66.546592 117.486028 67.701382 113.207356 69.782899 C 114.493369 69.627418 115.787189 69.545471 117.08252 69.537456 C 118.138597 69.541235 119.19391 69.594789 120.244955 69.697938 C 130.018626 67.406029 140.304213 69.577525 148.321271 75.625417 C 156.33833 81.67331 161.258996 90.973076 161.753093 101.010763 C 161.786182 100.72404 161.833333 100.43976 161.833333 100.146993 C 161.805796 90.991794 158.077768 82.237643 151.498607 75.879003 C 144.919446 69.520363 136.049519 66.098818 126.909668 66.393901 L 126.909668 66.393901 Z M 125.753254 73.143576 C 107.562221 74.376262 93.618521 89.818702 94.223309 108.062521 C 94.588874 98.501416 98.97634 89.541072 106.301512 83.395697 C 113.626684 77.250322 123.206202 74.493214 132.672852 75.805686 C 130.471288 74.665885 128.150677 73.773099 125.753254 73.143576 Z M 161.696451 104.003275 C 161.612472 104.637343 161.543761 105.268308 161.649251 105.919617 C 161.750466 106.544359 161.789084 107.168734 161.809732 107.793479 C 161.821348 107.502522 161.829216 107.211428 161.833333 106.920269 C 161.833333 105.947735 161.81125 104.97581 161.696451 104.003275 Z"/>
  </g>
  <circle fill="#fec589" class="cls-4" cx="128" cy="119.542" r="24.167" vector-effect="non-scaling-stroke"/>
  <g>
   <path fill="#1a7fd4" class="cls-9" d="M 146.39732 101.404627 C 160.331322 89.017599 179.00123 78.443018 195.666664 71.208351 L 195.666664 142.150865 C 179.233332 148.392522 151.26444 165.187079 142.500001 177.541688 L 128.000007 146.719493 L 149.363337 114.546021 C 149.363337 114.546021 151.103334 109.095541 142.500001 105.041688 C 143.750919 103.813357 145.052048 102.600545 146.39732 101.404627 Z"/>
   <path fill="#1a7fd4" class="cls-9" d="M 60.333336 71.208351 L 60.333336 142.150865 C 76.766672 148.392522 104.735558 165.187079 113.500002 177.541688 L 127.999997 146.719493 L 106.636667 114.546021 C 106.636667 114.546021 104.89667 109.095541 113.500002 105.041688 C 99.292375 91.090598 78.60775 79.141496 60.333336 71.208351 Z"/>
  </g>
  <path fill="#1463a5" class="cls-9" d="M 128 121.613119 C 111.231084 121.613119 103.833333 111.255972 103.833333 111.255972 L 112.904867 179.087368 C 112.904867 179.087368 115.167582 187.208354 127.411068 187.208354 C 139.654554 187.208354 141.917269 179.118374 141.917269 179.118374 L 152.166667 111.255972 C 152.166667 111.255972 144.768921 121.613119 128 121.613119 Z"/>
  <g opacity=".2">
   <path d="M 85.528971 73.625021 C 79.857663 73.380766 74.974102 72.87686 69.079143 77.648138 C 84.207173 84.958903 97.108635 95.424181 109.185873 107.127953 C 105.843217 109.200737 103.833333 111.838384 103.833333 114.708355 C 103.833333 121.381796 114.653117 126.791688 128 126.791688 C 141.346883 126.791688 152.166667 121.381796 152.166667 114.708355 C 152.166667 111.851197 150.139354 109.243686 146.823567 107.17515 C 158.76958 95.626964 171.175635 85.309522 186.102602 78.047889 C 180.437302 73.399754 176.099018 73.610335 170.631508 73.625021 C 154.054436 73.669536 138.912096 90.676879 128.405923 109.374694 L 127.962223 110.148786 L 127.660139 110.70575 L 126.857729 109.280294 C 116.565058 90.922816 101.770834 74.32453 85.528971 73.625021 Z"/>
  </g>
  <path fill="#ececec" d="M 85.528971 71.208355 C 79.857663 70.964101 74.974102 70.460192 69.079143 75.231471 C 84.207173 82.542236 97.108635 93.007514 109.185873 104.711286 C 105.843217 106.784071 103.833333 109.421717 103.833333 112.291688 C 103.833333 118.965129 114.653117 124.375021 128 124.375021 C 141.346883 124.375021 152.166667 118.965129 152.166667 112.291688 C 152.166667 109.434531 150.139354 106.82702 146.823567 104.758484 C 158.76958 93.210294 171.175635 82.892856 186.102602 75.631222 C 180.437302 70.983086 176.099018 71.193668 170.631508 71.208355 C 154.054436 71.25287 138.912096 88.260212 128.405923 106.958027 L 127.962223 107.732119 L 127.660139 108.289084 L 126.857729 106.863627 C 116.565058 88.506149 101.770834 71.907863 85.528971 71.208355 Z"/>
  <g opacity=".2">
   <path class="cls-14" d="M 55.5 112.145958 C 55.5 127.177301 61.260062 131.625021 65.100107 131.625021 C 74.700217 131.625021 80.492282 119.775263 63.180086 118.931165 C 78.41226 117.632565 79.020264 106.367176 63.180086 105.945125 C 79.020264 104.743921 75.980233 92.959089 65.100107 92.959089 C 60.684057 92.894153 55.5 97.11462 55.5 112.145958 Z"/>
  </g>
  <path fill="#fec589" class="cls-14" d="M 55.5 109.729291 C 55.5 124.760634 61.260062 129.208354 65.100107 129.208354 C 74.700217 129.208354 80.492282 117.358597 63.180086 116.514499 C 78.41226 115.215898 79.020264 103.95051 63.180086 103.528458 C 79.020264 102.327254 75.980233 90.542423 65.100107 90.542423 C 60.684057 90.477487 55.5 94.697953 55.5 109.729291 Z"/>
  <g opacity=".2">
   <path class="cls-14" d="M 200.5 112.145958 C 200.5 127.177301 194.739938 131.625021 190.899893 131.625021 C 181.299782 131.625021 175.507718 119.775263 192.819916 118.931165 C 177.587738 117.632565 176.979734 106.367176 192.819916 105.945125 C 176.979734 104.743921 180.019765 92.959089 190.899893 92.959089 C 195.315941 92.894161 200.5 97.11462 200.5 112.145958 Z"/>
  </g>
  <path fill="#fec589" class="cls-14" d="M 200.5 109.729291 C 200.5 124.760634 194.739938 129.208354 190.899893 129.208354 C 181.299782 129.208354 175.507718 117.358597 192.819916 116.514499 C 177.587738 115.215898 176.979734 103.95051 192.819916 103.528458 C 176.979734 102.327254 180.019765 90.542423 190.899893 90.542423 C 195.315941 90.477494 200.5 94.697953 200.5 109.729291 Z"/>
  <g opacity=".2">
   <path fill="#ffffff" d="M 65.100586 90.541688 C 60.684537 90.476752 55.5 94.697361 55.5 109.728699 C 55.5 110.135084 55.520052 110.503519 55.528321 110.894552 C 55.815953 96.904636 60.812853 92.895306 65.100586 92.958355 C 69.922257 92.958355 73.192972 95.274785 73.974284 97.956889 C 74.980919 94.422192 71.34438 90.541688 65.100586 90.541688 Z M 69.579916 104.531921 C 67.931426 105.226254 65.843552 105.741197 63.179525 105.943218 C 69.984557 106.124533 73.733226 108.313523 74.611491 110.847353 C 75.460236 108.430621 73.794778 105.895595 69.579916 104.531921 Z M 69.400554 117.578146 C 67.704909 118.226883 65.656343 118.721643 63.179525 118.932801 C 70.110736 119.270748 73.296577 121.376134 74.059245 123.775574 C 74.760581 121.443406 73.555297 118.966997 69.400554 117.578146 Z"/>
  </g>
  <g opacity=".2">
   <path fill="#ffffff" d="M 190.899415 90.541688 C 184.655618 90.541688 181.019081 94.422192 182.025717 97.956889 C 182.80703 95.274785 186.077742 92.958355 190.899415 92.958355 C 195.187144 92.895313 200.184047 96.904636 200.471679 110.894552 C 200.479949 110.503519 200.5 110.135084 200.5 109.728699 C 200.5 94.697361 195.315462 90.476759 190.899415 90.541688 Z M 186.420084 104.531921 C 182.205222 105.895595 180.539764 108.430621 181.388509 110.847353 C 182.266774 108.313523 186.015443 106.124533 192.820476 105.943218 C 190.156447 105.741197 188.068575 105.226254 186.420084 104.531921 Z M 186.599447 117.578146 C 182.444704 118.966997 181.23942 121.443406 181.940754 123.775574 C 182.703423 121.376134 185.889264 119.270748 192.820476 118.932801 C 190.343656 118.721643 188.295091 118.226883 186.599447 117.578146 Z"/>
  </g>
 </g>
</svg>
