<svg xmlns="http://www.w3.org/2000/svg" style="isolation:isolate" width="256" height="256" viewBox="0 0 256 256">
 <defs>
  <clipPath id="_clipPath_fnfY9bNeakvwmJLG3oCaKxE4mDwy0KIV">
   <rect width="256" height="256"/>
  </clipPath>
 </defs>
 <g clip-path="url(#_clipPath_fnfY9bNeakvwmJLG3oCaKxE4mDwy0KIV)">
  <defs>
   <filter id="e8jE3bEtBWvd6igMtuFMRbBf3HeBl58c" width="400%" height="400%" x="-200%" y="-200%" color-interpolation-filters="sRGB" filterUnits="objectBoundingBox">
    <feGaussianBlur xmlns="http://www.w3.org/2000/svg" in="SourceGraphic" stdDeviation="4.294"/>
    <feOffset xmlns="http://www.w3.org/2000/svg" dx="0" dy="4" result="pf_100_offsetBlur"/>
    <feFlood xmlns="http://www.w3.org/2000/svg" flood-opacity=".4"/>
    <feComposite xmlns="http://www.w3.org/2000/svg" in2="pf_100_offsetBlur" operator="in" result="pf_100_dropShadow"/>
    <feBlend xmlns="http://www.w3.org/2000/svg" in="SourceGraphic" in2="pf_100_dropShadow" mode="normal"/>
   </filter>
  </defs>
  <g filter="url(#e8jE3bEtBWvd6igMtuFMRbBf3HeBl58c)">
   <linearGradient id="_lgradient_2" x1="0" x2="0" y1="0" y2="1" gradientTransform="matrix(244.648,0,0,228.338,5.68,11.95)" gradientUnits="userSpaceOnUse">
    <stop offset="0%" style="stop-color:#ff9757"/>
    <stop offset="50%" style="stop-color:#ff6e51"/>
    <stop offset="100%" style="stop-color:#f5350f"/>
   </linearGradient>
   <path fill="url(#_lgradient_2)" d="M 165.689 11.95 C 239.745 11.95 250.328 22.507 250.328 96.494 L 250.328 155.745 C 250.328 229.731 239.745 240.288 165.689 240.288 L 90.319 240.288 C 16.264 240.288 5.68 229.731 5.68 155.745 L 5.68 96.494 C 5.68 22.507 16.264 11.95 90.319 11.95 L 165.689 11.95 Z"/>
  </g>
  <g opacity=".4">
   <linearGradient id="_lgradient_3" x1=".517" x2=".517" y1="0" y2="1" gradientTransform="matrix(244.65,0,0,228.34,5.68,11.95)" gradientUnits="userSpaceOnUse">
    <stop offset="0%" style="stop-color:#ffffff"/>
    <stop offset="12.5%" stop-opacity=".098" style="stop-color:#ffffff"/>
    <stop offset="92.5%" stop-opacity=".098" style="stop-color:#000000"/>
    <stop offset="100%" stop-opacity=".498" style="stop-color:#000000"/>
   </linearGradient>
   <path fill="url(#_lgradient_3)" fill-rule="evenodd" d="M 165.068 11.951 C 169.396 11.941 173.724 11.991 178.052 12.089 C 181.927 12.167 185.803 12.315 189.678 12.541 C 193.131 12.737 196.583 13.022 200.026 13.395 C 203.085 13.73 206.144 14.181 209.174 14.741 C 211.889 15.243 214.574 15.881 217.22 16.657 C 219.62 17.355 221.971 18.219 224.243 19.241 C 226.358 20.184 228.384 21.304 230.302 22.591 C 232.142 23.829 233.863 25.244 235.437 26.806 C 237.001 28.378 238.417 30.088 239.656 31.925 C 240.945 33.841 242.066 35.865 243.02 37.967 C 244.043 40.247 244.909 42.585 245.617 44.972 C 246.394 47.615 247.034 50.297 247.535 53.009 C 248.096 56.035 248.548 59.081 248.883 62.136 C 249.257 65.575 249.542 69.014 249.739 72.462 C 249.965 76.323 250.112 80.194 250.201 84.055 C 250.289 88.378 250.339 92.701 250.329 97.014 L 250.329 155.226 C 250.339 159.549 250.289 163.862 250.201 168.185 C 250.112 172.056 249.965 175.917 249.739 179.778 C 249.542 183.226 249.257 186.675 248.883 190.104 C 248.548 193.159 248.096 196.215 247.535 199.241 C 247.034 201.943 246.394 204.625 245.617 207.268 C 244.909 209.655 244.043 212.003 243.02 214.273 C 242.066 216.385 240.945 218.399 239.656 220.315 C 238.417 222.152 237.001 223.872 235.437 225.434 C 233.863 226.996 232.142 228.411 230.302 229.649 C 228.384 230.936 226.358 232.056 224.243 232.999 C 221.971 234.021 219.62 234.885 217.22 235.593 C 214.574 236.369 211.889 237.007 209.174 237.499 C 206.144 238.068 203.085 238.51 200.026 238.845 C 196.583 239.218 193.131 239.503 189.678 239.699 C 185.803 239.925 181.927 240.073 178.052 240.161 C 173.724 240.249 169.396 240.299 165.068 240.289 L 90.942 240.289 C 86.614 240.299 82.286 240.249 77.958 240.161 C 74.083 240.073 70.207 239.925 66.332 239.699 C 62.879 239.503 59.427 239.218 55.984 238.845 C 52.925 238.51 49.866 238.068 46.836 237.499 C 44.121 237.007 41.436 236.369 38.79 235.593 C 36.39 234.885 34.039 234.021 31.767 232.999 C 29.652 232.056 27.626 230.936 25.708 229.649 C 23.868 228.411 22.147 226.996 20.573 225.434 C 19.009 223.872 17.593 222.152 16.354 220.315 C 15.065 218.399 13.944 216.385 12.99 214.273 C 11.967 212.003 11.101 209.655 10.393 207.268 C 9.616 204.625 8.976 201.943 8.475 199.241 C 7.914 196.215 7.462 193.159 7.127 190.104 C 6.753 186.675 6.468 183.226 6.271 179.778 C 6.045 175.917 5.898 172.056 5.809 168.185 C 5.721 163.862 5.671 159.549 5.681 155.226 L 5.681 97.014 C 5.671 92.701 5.721 88.378 5.809 84.055 C 5.898 80.194 6.045 76.323 6.271 72.462 C 6.468 69.014 6.753 65.575 7.127 62.136 C 7.462 59.081 7.914 56.035 8.475 53.009 C 8.976 50.297 9.616 47.615 10.393 44.972 C 11.101 42.585 11.967 40.247 12.99 37.967 C 13.944 35.865 15.065 33.841 16.354 31.925 C 17.593 30.088 19.009 28.378 20.573 26.806 C 22.147 25.244 23.868 23.829 25.708 22.591 C 27.626 21.304 29.652 20.184 31.767 19.241 C 34.039 18.219 36.39 17.355 38.79 16.657 C 41.436 15.881 44.121 15.243 46.836 14.741 C 49.866 14.181 52.925 13.73 55.984 13.395 C 59.427 13.022 62.879 12.737 66.332 12.541 C 70.207 12.315 74.083 12.167 77.958 12.089 C 82.286 11.991 86.614 11.941 90.942 11.951 L 165.068 11.951 Z M 165.078 15.96 C 169.376 15.95 173.675 15.999 177.973 16.087 C 181.8 16.176 185.626 16.323 189.452 16.539 C 192.836 16.736 196.219 17.011 199.583 17.384 C 202.554 17.699 205.515 18.131 208.446 18.681 C 211.023 19.153 213.58 19.762 216.099 20.499 C 218.322 21.147 220.495 21.953 222.6 22.896 C 224.509 23.751 226.338 24.763 228.069 25.922 C 229.692 27.013 231.207 28.26 232.594 29.646 C 233.981 31.031 235.23 32.544 236.332 34.165 C 237.492 35.894 238.506 37.712 239.361 39.608 C 240.306 41.72 241.112 43.892 241.761 46.102 C 242.509 48.617 243.109 51.162 243.591 53.736 C 244.132 56.664 244.565 59.611 244.889 62.578 C 245.263 65.938 245.539 69.308 245.735 72.688 C 245.952 76.51 246.109 80.322 246.188 84.144 C 246.276 88.437 246.325 92.721 246.325 97.014 C 246.325 97.014 246.325 97.014 246.325 97.014 L 246.325 155.226 C 246.325 155.226 246.325 155.226 246.325 155.226 C 246.325 159.519 246.276 163.803 246.188 168.096 C 246.109 171.918 245.952 175.74 245.735 179.552 C 245.539 182.932 245.263 186.302 244.889 189.672 C 244.565 192.629 244.132 195.576 243.591 198.504 C 243.109 201.078 242.509 203.623 241.761 206.138 C 241.112 208.358 240.306 210.52 239.361 212.632 C 238.506 214.528 237.492 216.356 236.332 218.075 C 235.23 219.706 233.981 221.219 232.594 222.604 C 231.207 223.98 229.692 225.227 228.069 226.318 C 226.338 227.477 224.509 228.489 222.6 229.344 C 220.495 230.297 218.322 231.093 216.099 231.741 C 213.58 232.478 211.023 233.087 208.446 233.559 C 205.515 234.109 202.554 234.541 199.583 234.865 C 196.219 235.229 192.836 235.514 189.452 235.701 C 185.626 235.917 181.8 236.074 177.973 236.153 C 173.675 236.251 169.376 236.29 165.078 236.29 C 165.078 236.29 165.078 236.29 165.068 236.29 L 90.942 236.29 C 90.932 236.29 90.932 236.29 90.932 236.29 C 86.634 236.29 82.335 236.251 78.037 236.153 C 74.21 236.074 70.384 235.917 66.558 235.701 C 63.174 235.514 59.791 235.229 56.427 234.865 C 53.456 234.541 50.495 234.109 47.564 233.559 C 44.987 233.087 42.43 232.478 39.911 231.741 C 37.688 231.093 35.515 230.297 33.41 229.344 C 31.501 228.489 29.672 227.477 27.941 226.318 C 26.318 225.227 24.803 223.98 23.416 222.604 C 22.029 221.219 20.78 219.706 19.678 218.075 C 18.518 216.356 17.504 214.528 16.649 212.632 C 15.704 210.52 14.898 208.358 14.249 206.138 C 13.501 203.623 12.901 201.078 12.419 198.504 C 11.878 195.576 11.445 192.629 11.121 189.672 C 10.747 186.302 10.472 182.932 10.275 179.552 C 10.058 175.74 9.901 171.918 9.822 168.096 C 9.734 163.803 9.685 159.519 9.685 155.226 C 9.685 155.226 9.685 155.226 9.685 155.226 L 9.685 97.014 C 9.685 97.014 9.685 97.014 9.685 97.014 C 9.685 92.721 9.734 88.437 9.822 84.144 C 9.901 80.322 10.058 76.51 10.275 72.688 C 10.472 69.308 10.747 65.938 11.121 62.578 C 11.445 59.611 11.878 56.664 12.419 53.736 C 12.901 51.162 13.501 48.617 14.249 46.102 C 14.898 43.892 15.704 41.72 16.649 39.608 C 17.504 37.712 18.518 35.894 19.678 34.165 C 20.78 32.544 22.029 31.031 23.416 29.646 C 24.803 28.26 26.318 27.013 27.941 25.922 C 29.672 24.763 31.501 23.751 33.41 22.896 C 35.515 21.953 37.688 21.147 39.911 20.499 C 42.43 19.762 44.987 19.153 47.564 18.681 C 50.495 18.131 53.456 17.699 56.427 17.384 C 59.791 17.011 63.174 16.736 66.558 16.539 C 70.384 16.323 74.21 16.176 78.037 16.087 C 82.335 15.999 86.634 15.95 90.932 15.96 C 90.932 15.96 90.932 15.96 90.942 15.96 L 165.068 15.96 C 165.078 15.96 165.078 15.96 165.078 15.96 Z"/>
  </g>
  <g>
   <defs>
    <filter id="AQOYaimDqwkKsZbYI0sohW7SYHyMy7IQ" width="400%" height="400%" x="-200%" y="-200%" color-interpolation-filters="sRGB" filterUnits="objectBoundingBox">
     <feGaussianBlur xmlns="http://www.w3.org/2000/svg" stdDeviation="4.294"/>
    </filter>
   </defs>
   <g opacity=".4" filter="url(#AQOYaimDqwkKsZbYI0sohW7SYHyMy7IQ)">
    <path d="M 181.957 149.087 L 179.215 155.554 L 101.44 132.217 Q 101.269 132.933 100.834 134.337 Q 100.427 135.622 100.255 136.338 Q 97.143 149.343 101.634 157.597 Q 106.218 165.878 118.376 169.526 Q 128.864 172.673 141.436 172.097 Q 154.101 171.55 168.821 167.398 L 155.78 199.037 Q 142.251 201.116 129.529 200.24 Q 116.872 199.511 104.435 195.78 Q 80.119 188.484 70.301 170.064 Q 60.577 151.671 66.886 125.302 Q 70.541 110.029 78.143 96.964 Q 85.867 83.808 96.797 74.298 Q 109.782 62.849 124.824 59.433 Q 139.959 56.045 156.201 60.919 Q 177.269 67.241 186.158 85.382 Q 195.14 103.551 189.287 128.012 Q 188.145 132.784 186.304 137.987 Q 184.583 143.098 181.957 149.087 Z M 155.269 120.106 Q 155.918 118.638 156.382 117.115 Q 156.968 115.501 157.339 113.949 Q 159.623 104.404 156.51 97.459 Q 153.397 90.515 145.786 88.231 Q 136.041 85.307 127.517 90.167 Q 119.115 94.934 112.298 107.212 L 155.269 120.106 Z"/>
   </g>
   <path fill="#1a7fd4" d="M 181.957 146.543 L 179.215 153.011 L 101.44 129.673 Q 101.269 130.39 100.834 131.793 Q 100.427 133.078 100.255 133.794 Q 97.143 146.799 101.634 155.053 Q 106.218 163.334 118.376 166.982 Q 128.864 170.129 141.436 169.553 Q 154.101 169.006 168.821 164.854 L 155.78 196.493 Q 142.251 198.573 129.529 197.696 Q 116.872 196.967 104.435 193.236 Q 80.119 185.94 70.301 167.52 Q 60.577 149.128 66.886 122.759 Q 70.541 107.485 78.143 94.42 Q 85.867 81.264 96.797 71.754 Q 109.782 60.305 124.824 56.889 Q 139.959 53.502 156.201 58.375 Q 177.269 64.697 186.158 82.838 Q 195.14 101.008 189.287 125.468 Q 188.145 130.24 186.304 135.443 Q 184.583 140.554 181.957 146.543 Z M 155.269 117.562 Q 155.918 116.095 156.382 114.571 Q 156.968 112.957 157.339 111.405 Q 159.623 101.86 156.51 94.915 Q 153.397 87.971 145.786 85.687 Q 136.041 82.763 127.517 87.623 Q 119.115 92.39 112.298 104.669 L 155.269 117.562 Z"/>
   <path fill="#3b3b3b" d="M 142.45 55.744 L 64.942 133.872 C 63.78 144.065 64.682 153.232 67.64 161.375 L 121.237 107.349 L 112.301 104.671 C 116.846 96.486 121.915 90.801 127.517 87.622 C 132.481 84.792 137.755 83.94 143.34 85.069 L 165.96 62.268 C 162.96 60.725 159.709 59.425 156.203 58.372 C 151.55 56.976 146.967 56.122 142.45 55.744 L 142.45 55.744 Z M 182.129 76.187 L 158.073 100.435 C 158.538 103.75 158.299 107.404 157.342 111.404 C 157.094 112.438 156.773 113.492 156.382 114.569 C 156.073 115.584 155.704 116.582 155.271 117.56 L 144.341 114.277 L 122.735 136.056 L 145.831 142.991 L 190.844 97.625 C 189.999 92.39 188.444 87.459 186.159 82.836 C 184.99 80.451 183.614 78.266 182.129 76.187 L 182.129 76.187 Z M 187.78 130.929 L 168.935 149.926 L 179.217 153.007 L 181.956 146.545 C 183.707 142.552 185.157 138.851 186.304 135.444 C 186.847 133.908 187.328 132.408 187.78 130.929 Z M 102.509 156.443 L 79.537 179.599 C 84.552 184.331 90.763 188.141 98.155 191.049 L 121.306 167.711 C 120.327 167.472 119.327 167.269 118.374 166.981 C 110.973 164.761 105.7 161.238 102.509 156.443 Z M 168.824 164.853 C 162.341 166.681 156.181 167.934 150.296 168.714 L 122.238 196.996 C 124.662 197.301 127.096 197.559 129.532 197.698 C 136.904 198.207 144.491 197.917 152.27 196.94 L 157.963 191.209 L 168.824 164.853 Z"/>
   <g opacity=".1">
    <path fill="#ffffff" d="M 136.332 55.51 C 132.445 55.583 128.609 56.044 124.825 56.891 C 114.797 59.168 105.455 64.119 96.798 71.752 C 89.512 78.092 83.291 85.647 78.141 94.418 C 73.073 103.128 69.324 112.576 66.888 122.758 C 65.162 129.969 64.385 136.709 64.458 143.025 C 64.603 137.448 65.393 131.551 66.888 125.302 C 69.324 115.12 73.073 105.672 78.141 96.962 C 83.291 88.191 89.512 80.636 96.798 74.296 C 105.455 66.663 114.797 61.712 124.825 59.435 C 134.915 57.177 145.373 57.672 156.201 60.921 C 170.246 65.135 180.23 73.286 186.156 85.381 C 189.671 92.491 191.435 100.346 191.542 108.901 C 191.793 99.346 190.017 90.648 186.156 82.837 C 180.23 70.743 170.246 62.592 156.201 58.377 C 149.434 56.346 142.811 55.389 136.332 55.51 Z M 158.268 104.991 C 158.179 107.023 157.877 109.157 157.339 111.405 C 157.091 112.44 156.775 113.494 156.385 114.57 C 156.076 115.586 155.7 116.583 155.267 117.561 L 113.567 105.051 C 113.142 105.758 112.716 106.463 112.3 107.212 L 155.267 120.105 C 155.7 119.127 156.076 118.13 156.385 117.114 C 156.775 116.038 157.091 114.984 157.339 113.949 C 158.106 110.742 158.414 107.758 158.268 104.991 Z M 99.029 144.818 C 98.829 149.746 99.682 154.014 101.632 157.597 C 104.688 163.118 110.271 167.094 118.376 169.527 C 125.368 171.624 133.053 172.479 141.435 172.095 C 149.536 171.745 158.286 170.26 167.648 167.698 L 168.821 164.856 C 159.007 167.624 149.878 169.186 141.435 169.551 C 133.053 169.935 125.368 169.081 118.376 166.983 C 110.271 164.55 104.688 160.574 101.632 155.053 C 100.026 152.102 99.177 148.681 99.029 144.818 Z"/>
   </g>
  </g>
 </g>
</svg>
