<svg xmlns="http://www.w3.org/2000/svg" style="isolation:isolate" width="256" height="256">
 <defs>
  <filter id="a" width="400%" height="400%" x="-200%" y="-200%" color-interpolation-filters="sRGB" filterUnits="objectBoundingBox">
   <feGaussianBlur xmlns="http://www.w3.org/2000/svg" in="SourceGraphic" stdDeviation="4.294"/>
   <feOffset xmlns="http://www.w3.org/2000/svg" dy="4" result="pf_100_offsetBlur"/>
   <feFlood xmlns="http://www.w3.org/2000/svg" flood-opacity=".4"/>
   <feComposite xmlns="http://www.w3.org/2000/svg" in2="pf_100_offsetBlur" operator="in" result="pf_100_dropShadow"/>
   <feBlend xmlns="http://www.w3.org/2000/svg" in="SourceGraphic" in2="pf_100_dropShadow"/>
  </filter>
 </defs>
 <g opacity=".99" filter="url(#a)">
  <linearGradient id="b" x1=".5" x2=".5" y1=".079" y2=".945" gradientTransform="matrix(244.65 0 0 228.34 5.675 13.83)" gradientUnits="userSpaceOnUse">
   <stop offset="0%" stop-color="#efc346" stop-opacity=".992"/>
   <stop offset="100%" stop-color="#fae786"/>
  </linearGradient>
  <path fill="url(#b)" fill-rule="evenodd" d="M71.259 13.83c-1.866.074-4.188.039-5.952.143-3.696.217-7.17.501-10.433.865a124.53 124.53 0 0 0-9.176 1.346c-2.857.538-5.518 1.17-7.995 1.906-2.477.737-4.771 1.579-6.893 2.541a39.648 39.648 0 0 0-5.868 3.254 33.485 33.485 0 0 0-4.921 4.045 33.343 33.343 0 0 0-4.051 4.915 39.562 39.562 0 0 0-3.259 5.859c-.963 2.12-1.806 4.411-2.544 6.885s-1.37 5.132-1.908 7.987C7.72 56.43 7.275 59.48 6.91 62.74c-.365 3.261-.65 6.73-.867 10.422-.266 4.521-.28 10.05-.368 15.263v78.694c.088 5.213.102 10.742.368 15.263.217 3.692.502 7.161.867 10.422.365 3.26.81 6.31 1.349 9.164.538 2.855 1.17 5.513 1.908 7.987s1.581 4.765 2.544 6.885a39.562 39.562 0 0 0 3.259 5.859 33.343 33.343 0 0 0 4.051 4.915 33.485 33.485 0 0 0 4.921 4.045 39.648 39.648 0 0 0 5.868 3.254c2.122.962 4.416 1.804 6.893 2.541 2.477.736 5.138 1.368 7.995 1.906 2.858.537 5.912.982 9.176 1.346 3.263.364 6.737.648 10.433.865 7.393.434 15.675.599 24.951.599h75.529c9.276 0 17.558-.165 24.951-.599 3.696-.217 7.17-.501 10.433-.865a124.53 124.53 0 0 0 9.176-1.346c2.857-.538 5.518-1.17 7.995-1.906 2.477-.737 4.771-1.579 6.893-2.541a39.648 39.648 0 0 0 5.868-3.254 33.485 33.485 0 0 0 4.921-4.045 33.343 33.343 0 0 0 4.051-4.915 39.562 39.562 0 0 0 3.259-5.859c.963-2.12 1.806-4.411 2.544-6.885s1.37-5.132 1.908-7.987c.539-2.854.984-5.904 1.349-9.164.365-3.261.65-6.73.867-10.422.234-3.968.229-8.897.323-13.396V86.558c-.094-4.499-.089-9.428-.323-13.396a198.832 198.832 0 0 0-.867-10.422c-.365-3.26-.81-6.31-1.349-9.164-.538-2.855-1.17-5.513-1.908-7.987s-1.581-4.765-2.544-6.885a39.562 39.562 0 0 0-3.259-5.859 33.343 33.343 0 0 0-4.051-4.915 33.485 33.485 0 0 0-4.921-4.045 39.648 39.648 0 0 0-5.868-3.254c-2.122-.962-4.416-1.804-6.893-2.541-2.477-.736-5.138-1.368-7.995-1.906a124.53 124.53 0 0 0-9.176-1.346c-3.47-.38-6.948-.668-10.433-.865-1.764-.104-4.086-.069-5.952-.143H71.259z"/>
 </g>
 <g opacity=".2">
  <linearGradient id="c" x1=".493" x2=".493" y1="1" y2="-.089" gradientTransform="matrix(244.429 0 0 70.317 5.779 13.83)" gradientUnits="userSpaceOnUse">
   <stop offset="0%"/>
   <stop offset="100%"/>
  </linearGradient>
  <path fill="url(#c)" fill-rule="evenodd" d="M249.845 71.273c-.198-2.957-.411-5.863-.71-8.533-.365-3.26-.81-6.31-1.349-9.164-.538-2.855-1.17-5.513-1.908-7.987s-1.581-4.765-2.544-6.885a39.562 39.562 0 0 0-3.259-5.859 33.343 33.343 0 0 0-4.051-4.915 33.485 33.485 0 0 0-4.921-4.045 39.648 39.648 0 0 0-5.868-3.254c-2.122-.962-4.416-1.804-6.893-2.541-2.477-.736-5.138-1.368-7.995-1.906a124.53 124.53 0 0 0-9.176-1.346c-3.47-.38-6.948-.668-10.433-.865-1.764-.104-4.086-.069-5.952-.143H71.259c-1.866.074-4.188.039-5.952.143-3.696.217-7.17.501-10.433.865a124.53 124.53 0 0 0-9.176 1.346c-2.857.538-5.518 1.17-7.995 1.906-2.477.737-4.771 1.579-6.893 2.541a39.648 39.648 0 0 0-5.868 3.254 33.485 33.485 0 0 0-4.921 4.045 33.343 33.343 0 0 0-4.051 4.915 39.562 39.562 0 0 0-3.259 5.859c-.963 2.12-1.806 4.411-2.544 6.885s-1.37 5.132-1.908 7.987C7.72 56.43 7.275 59.48 6.91 62.74c-.365 3.261-.65 6.73-.867 10.422-.192 3.254-.212 7.18-.264 10.985h244.429c-.094-3.442-.059-7.541-.214-10.715-.037-.765-.107-1.409-.149-2.159z"/>
 </g>
 <path fill="#d0391f" fill-rule="evenodd" opacity=".99" d="M225.86 153.712v48.926h12.232v-48.926H225.86zm-30.58 0v48.926h12.231v-48.926H195.28zm-61.163 0v48.926h12.233v-48.926h-12.233zm-30.581 0v48.926h12.232v-48.926h-12.232zm-61.163 0v48.926h12.232v-48.926H42.373zm-30.582 0v48.926h12.233v-48.926H11.791zm152.908-18.348v67.274h12.232v-67.274h-12.232zm-91.745 0v67.274h12.233v-67.274H72.954zm-60.971 79.505c.257.635.453 1.364.728 1.971a39.562 39.562 0 0 0 3.259 5.859c1.087 1.605 2.32 3.041 3.629 4.402h216.847c1.309-1.361 2.542-2.797 3.629-4.402a39.562 39.562 0 0 0 3.259-5.859c.275-.607.471-1.336.728-1.971H11.983z"/>
 <g opacity=".4">
  <linearGradient id="d" x1=".517" x2=".517" y2="1" gradientTransform="matrix(244.65 0 0 228.34 5.68 13.95)" gradientUnits="userSpaceOnUse">
   <stop offset="0%" stop-color="#ffffff"/>
   <stop offset="12.5%" stop-color="#ffffff" stop-opacity=".098"/>
   <stop offset="92.5%" stop-opacity=".098"/>
   <stop offset="100%" stop-opacity=".498"/>
  </linearGradient>
  <path fill="url(#d)" fill-rule="evenodd" d="M165.068 13.951c4.328-.01 8.656.04 12.984.138 3.875.078 7.75.226 11.626.452 3.453.196 6.905.481 10.348.854 3.06.335 6.118.786 9.148 1.346a80.47 80.47 0 0 1 8.046 1.916 53.64 53.64 0 0 1 7.023 2.584 40.413 40.413 0 0 1 6.06 3.35 35.176 35.176 0 0 1 5.134 4.215 35.072 35.072 0 0 1 4.22 5.119 41.692 41.692 0 0 1 3.363 6.042 55.982 55.982 0 0 1 2.597 7.005 80.224 80.224 0 0 1 1.918 8.037 124.43 124.43 0 0 1 1.348 9.127c.374 3.439.659 6.878.856 10.326.226 3.861.373 7.732.462 11.593.088 4.323.138 8.646.128 12.96v58.21c.01 4.324-.04 8.637-.128 12.96a325.177 325.177 0 0 1-.462 11.593 200.984 200.984 0 0 1-.856 10.326 124.691 124.691 0 0 1-1.348 9.137 80.687 80.687 0 0 1-1.918 8.027 55.414 55.414 0 0 1-2.597 7.005 41.18 41.18 0 0 1-3.364 6.042 34.559 34.559 0 0 1-4.22 5.119 35.177 35.177 0 0 1-5.134 4.215 40.412 40.412 0 0 1-6.059 3.35 55.138 55.138 0 0 1-7.023 2.594 77.806 77.806 0 0 1-8.046 1.906 120 120 0 0 1-9.148 1.346c-3.443.373-6.895.658-10.348.854-3.875.226-7.75.374-11.626.462-4.328.088-8.656.138-12.984.128H90.942c-4.328.01-8.656-.04-12.984-.128a328.387 328.387 0 0 1-11.626-.462 203.003 203.003 0 0 1-10.348-.854 120 120 0 0 1-9.148-1.346 77.806 77.806 0 0 1-8.046-1.906 55.139 55.139 0 0 1-7.023-2.594 40.413 40.413 0 0 1-6.06-3.35 35.176 35.176 0 0 1-5.134-4.215 34.56 34.56 0 0 1-4.22-5.119 41.183 41.183 0 0 1-3.363-6.042 55.415 55.415 0 0 1-2.597-7.005 80.682 80.682 0 0 1-1.918-8.027 124.688 124.688 0 0 1-1.348-9.137 200.993 200.993 0 0 1-.856-10.326 325.212 325.212 0 0 1-.462-11.593 569.197 569.197 0 0 1-.128-12.96v-58.21c-.01-4.314.04-8.637.128-12.96.089-3.86.236-7.732.462-11.593.197-3.448.482-6.887.856-10.326.335-3.055.787-6.101 1.348-9.127a80.219 80.219 0 0 1 1.918-8.037 55.983 55.983 0 0 1 2.597-7.005 41.695 41.695 0 0 1 3.364-6.042 35.072 35.072 0 0 1 4.22-5.119 35.176 35.176 0 0 1 5.134-4.215 40.413 40.413 0 0 1 6.059-3.35 53.64 53.64 0 0 1 7.023-2.584 80.47 80.47 0 0 1 8.046-1.916 125.11 125.11 0 0 1 9.148-1.346c3.443-.373 6.895-.658 10.348-.854 3.875-.226 7.75-.374 11.626-.452 4.328-.098 8.656-.148 12.984-.138h74.126zm.01 4.009c4.298-.01 8.597.039 12.895.127 3.827.089 7.653.236 11.48.452 3.383.197 6.766.472 10.13.845 2.971.315 5.932.747 8.863 1.297a75.943 75.943 0 0 1 7.653 1.818 50.493 50.493 0 0 1 6.501 2.397 37.038 37.038 0 0 1 5.47 3.026 30.383 30.383 0 0 1 4.524 3.724 31.05 31.05 0 0 1 3.738 4.519 37.271 37.271 0 0 1 3.03 5.443 51.46 51.46 0 0 1 2.4 6.494 75.563 75.563 0 0 1 1.829 7.634c.54 2.928.974 5.875 1.298 8.842.374 3.36.65 6.73.846 10.11.217 3.822.374 7.634.453 11.456.088 4.293.137 8.577.137 12.87v58.212c0 4.293-.049 8.577-.137 12.87a317.503 317.503 0 0 1-.453 11.456c-.196 3.38-.472 6.75-.846 10.12a121.689 121.689 0 0 1-1.298 8.832 75.562 75.562 0 0 1-1.83 7.634 50.902 50.902 0 0 1-2.4 6.494 36.767 36.767 0 0 1-3.03 5.443 30.615 30.615 0 0 1-3.737 4.53 30.938 30.938 0 0 1-4.525 3.713 37.038 37.038 0 0 1-5.469 3.026 49.07 49.07 0 0 1-6.501 2.397 75.942 75.942 0 0 1-7.653 1.818c-2.931.55-5.892.982-8.863 1.306-3.364.364-6.747.649-10.13.836-3.827.216-7.653.373-11.48.452-4.298.098-8.597.137-12.895.137H90.932c-4.298 0-8.597-.04-12.895-.137a320.093 320.093 0 0 1-11.48-.452 193.696 193.696 0 0 1-10.13-.836 116.71 116.71 0 0 1-8.863-1.306 75.942 75.942 0 0 1-7.653-1.818 49.07 49.07 0 0 1-6.501-2.397 37.038 37.038 0 0 1-5.47-3.026 30.938 30.938 0 0 1-4.524-3.714 30.615 30.615 0 0 1-3.738-4.529 36.766 36.766 0 0 1-3.03-5.443 50.903 50.903 0 0 1-2.4-6.494 75.567 75.567 0 0 1-1.829-7.634 121.69 121.69 0 0 1-1.298-8.832c-.374-3.37-.65-6.74-.846-10.12a317.535 317.535 0 0 1-.453-11.456 623.851 623.851 0 0 1-.137-12.87V99.014c0-4.293.049-8.577.137-12.87.079-3.822.236-7.634.453-11.456.197-3.38.472-6.75.846-10.11.324-2.967.757-5.914 1.298-8.842a75.568 75.568 0 0 1 1.83-7.634 51.46 51.46 0 0 1 2.4-6.494 37.27 37.27 0 0 1 3.03-5.443 31.05 31.05 0 0 1 3.737-4.52 30.384 30.384 0 0 1 4.525-3.723 37.039 37.039 0 0 1 5.469-3.026 50.494 50.494 0 0 1 6.501-2.397 75.943 75.943 0 0 1 7.653-1.818c2.931-.55 5.892-.982 8.863-1.297 3.364-.373 6.747-.648 10.13-.845a344.71 344.71 0 0 1 11.48-.452c4.298-.088 8.597-.137 12.895-.127H165.078z"/>
 </g>
</svg>
