<svg xmlns="http://www.w3.org/2000/svg" style="isolation:isolate" width="256" height="256" viewBox="0 0 256 256">
 <g filter="url(#smyzLpjvkVAOBOHrsLpJkYCbeWRDokqJ)">
  <linearGradient id="_lgradient_199" x1="-.033" x2="1.033" y1="-.071" y2=".924" gradientTransform="matrix(244.648,0,0,228.338,5.676,11.947)" gradientUnits="userSpaceOnUse">
   <stop offset="0%" style="stop-color:#e72662"/>
   <stop offset="48.272%" style="stop-color:#ec3c50"/>
   <stop offset="100%" style="stop-color:#ff7b66"/>
  </linearGradient>
  <path fill="url(#_lgradient_199)" d="M 165.685 11.947 C 239.74 11.947 250.324 22.504 250.324 96.491 L 250.324 155.742 C 250.324 229.728 239.74 240.285 165.685 240.285 L 90.315 240.285 C 16.26 240.285 5.676 229.728 5.676 155.742 L 5.676 96.491 C 5.676 22.504 16.26 11.947 90.315 11.947 L 165.685 11.947 L 165.685 11.947 Z"/>
 </g>
 <defs>
  <filter id="smyzLpjvkVAOBOHrsLpJkYCbeWRDokqJ" width="400%" height="400%" x="-200%" y="-200%" color-interpolation-filters="sRGB" filterUnits="objectBoundingBox">
   <feGaussianBlur xmlns="http://www.w3.org/2000/svg" in="SourceGraphic" stdDeviation="4.294"/>
   <feOffset xmlns="http://www.w3.org/2000/svg" dx="0" dy="4" result="pf_100_offsetBlur"/>
   <feFlood xmlns="http://www.w3.org/2000/svg" flood-opacity=".4"/>
   <feComposite xmlns="http://www.w3.org/2000/svg" in2="pf_100_offsetBlur" operator="in" result="pf_100_dropShadow"/>
   <feBlend xmlns="http://www.w3.org/2000/svg" in="SourceGraphic" in2="pf_100_dropShadow" mode="normal"/>
  </filter>
 </defs>
 <g style="opacity:0.5">
  <g opacity=".5">
   <linearGradient id="_lgradient_200" x1=".5" x2=".5" y1="1.077" y2="0" gradientTransform="matrix(16.31,0,0,106.015,119.845,17.908)" gradientUnits="userSpaceOnUse">
    <stop offset="0%" style="stop-color:#fff4f0"/>
    <stop offset="100%" stop-opacity="0" style="stop-color:#fffefd"/>
   </linearGradient>
   <path fill="url(#_lgradient_200)" d="M 119.845 17.908 L 119.845 26.063 L 136.155 26.063 L 136.155 17.908 L 119.845 17.908 L 119.845 17.908 Z M 119.845 30.141 L 119.845 38.296 L 136.155 38.296 L 136.155 30.141 L 119.845 30.141 L 119.845 30.141 Z M 119.845 42.373 L 119.845 50.528 L 136.155 50.528 L 136.155 42.373 L 119.845 42.373 L 119.845 42.373 Z M 119.845 54.606 L 119.845 62.76 L 136.155 62.76 L 136.155 54.606 L 119.845 54.606 L 119.845 54.606 Z M 119.845 66.838 L 119.845 74.993 L 136.155 74.993 L 136.155 66.838 L 119.845 66.838 L 119.845 66.838 Z M 119.845 79.07 L 119.845 87.225 L 136.155 87.225 L 136.155 79.07 L 119.845 79.07 L 119.845 79.07 Z M 119.845 91.303 L 119.845 99.458 L 136.155 99.458 L 136.155 91.303 L 119.845 91.303 L 119.845 91.303 Z M 119.845 103.535 L 119.845 111.69 L 136.155 111.69 L 136.155 103.535 L 119.845 103.535 L 119.845 103.535 Z M 119.845 115.768 L 119.845 123.923 L 136.155 123.923 L 136.155 115.768 L 119.845 115.768 L 119.845 115.768 Z"/>
  </g>
  <g opacity=".5">
   <linearGradient id="_lgradient_201" x1=".5" x2=".502" y1="1.375" y2="-.347" gradientTransform="matrix(16.31,0,0,106.015,99.458,17.908)" gradientUnits="userSpaceOnUse">
    <stop offset="0%" style="stop-color:#fff4f0"/>
    <stop offset="100%" stop-opacity="0" style="stop-color:#fffefd"/>
   </linearGradient>
   <path fill="url(#_lgradient_201)" d="M 99.458 17.908 L 99.458 26.063 L 115.768 26.063 L 115.768 17.908 L 99.458 17.908 L 99.458 17.908 Z M 99.458 30.141 L 99.458 38.296 L 115.768 38.296 L 115.768 30.141 L 99.458 30.141 L 99.458 30.141 Z M 99.458 42.373 L 99.458 50.528 L 115.768 50.528 L 115.768 42.373 L 99.458 42.373 L 99.458 42.373 Z M 99.458 54.606 L 99.458 62.76 L 115.768 62.76 L 115.768 54.606 L 99.458 54.606 L 99.458 54.606 Z M 99.458 66.838 L 99.458 74.993 L 115.768 74.993 L 115.768 66.838 L 99.458 66.838 L 99.458 66.838 Z M 99.458 79.07 L 99.458 87.225 L 115.768 87.225 L 115.768 79.07 L 99.458 79.07 L 99.458 79.07 Z M 99.458 91.303 L 99.458 99.458 L 115.768 99.458 L 115.768 91.303 L 99.458 91.303 L 99.458 91.303 Z M 99.458 103.535 L 99.458 111.69 L 115.768 111.69 L 115.768 103.535 L 99.458 103.535 L 99.458 103.535 Z M 99.458 115.768 L 99.458 123.923 L 115.768 123.923 L 115.768 115.768 L 99.458 115.768 L 99.458 115.768 Z"/>
  </g>
  <g opacity=".5">
   <linearGradient id="_lgradient_202" x1=".55" x2=".549" y1="1.077" y2=".46" gradientTransform="matrix(16.31,0,0,106.015,79.07,17.908)" gradientUnits="userSpaceOnUse">
    <stop offset="0%" style="stop-color:#fff4f0"/>
    <stop offset="100%" stop-opacity="0" style="stop-color:#fffefd"/>
   </linearGradient>
   <path fill="url(#_lgradient_202)" d="M 79.07 17.908 L 79.07 26.063 L 95.38 26.063 L 95.38 17.908 L 79.07 17.908 L 79.07 17.908 Z M 79.07 30.141 L 79.07 38.296 L 95.38 38.296 L 95.38 30.141 L 79.07 30.141 L 79.07 30.141 Z M 79.07 42.373 L 79.07 50.528 L 95.38 50.528 L 95.38 42.373 L 79.07 42.373 L 79.07 42.373 Z M 79.07 54.606 L 79.07 62.76 L 95.38 62.76 L 95.38 54.606 L 79.07 54.606 L 79.07 54.606 Z M 79.07 66.838 L 79.07 74.993 L 95.38 74.993 L 95.38 66.838 L 79.07 66.838 L 79.07 66.838 Z M 79.07 79.07 L 79.07 87.225 L 95.38 87.225 L 95.38 79.07 L 79.07 79.07 L 79.07 79.07 Z M 79.07 91.303 L 79.07 99.458 L 95.38 99.458 L 95.38 91.303 L 79.07 91.303 L 79.07 91.303 Z M 79.07 103.535 L 79.07 111.69 L 95.38 111.69 L 95.38 103.535 L 79.07 103.535 L 79.07 103.535 Z M 79.07 115.768 L 79.07 123.923 L 95.38 123.923 L 95.38 115.768 L 79.07 115.768 L 79.07 115.768 Z"/>
  </g>
  <g opacity=".5">
   <linearGradient id="_lgradient_203" x1=".5" x2=".5" y1="1.308" y2=".192" gradientTransform="matrix(16.31,0,0,106.015,58.683,17.908)" gradientUnits="userSpaceOnUse">
    <stop offset="0%" style="stop-color:#fff4f0"/>
    <stop offset="100%" stop-opacity="0" style="stop-color:#fffefd"/>
   </linearGradient>
   <path fill="url(#_lgradient_203)" d="M 58.683 17.908 L 58.683 26.063 L 74.993 26.063 L 74.993 17.908 L 58.683 17.908 L 58.683 17.908 Z M 58.683 30.141 L 58.683 38.296 L 74.993 38.296 L 74.993 30.141 L 58.683 30.141 L 58.683 30.141 Z M 58.683 42.373 L 58.683 50.528 L 74.993 50.528 L 74.993 42.373 L 58.683 42.373 L 58.683 42.373 Z M 58.683 54.606 L 58.683 62.76 L 74.993 62.76 L 74.993 54.606 L 58.683 54.606 L 58.683 54.606 Z M 58.683 66.838 L 58.683 74.993 L 74.993 74.993 L 74.993 66.838 L 58.683 66.838 L 58.683 66.838 Z M 58.683 79.07 L 58.683 87.225 L 74.993 87.225 L 74.993 79.07 L 58.683 79.07 L 58.683 79.07 Z M 58.683 91.303 L 58.683 99.458 L 74.993 99.458 L 74.993 91.303 L 58.683 91.303 L 58.683 91.303 Z M 58.683 103.535 L 58.683 111.69 L 74.993 111.69 L 74.993 103.535 L 58.683 103.535 L 58.683 103.535 Z M 58.683 115.768 L 58.683 123.923 L 74.993 123.923 L 74.993 115.768 L 58.683 115.768 L 58.683 115.768 Z"/>
  </g>
  <g opacity=".5">
   <linearGradient id="_lgradient_204" x1=".525" x2=".525" y1="1.5" y2=".588" gradientTransform="matrix(16.31,0,0,106.015,38.296,17.908)" gradientUnits="userSpaceOnUse">
    <stop offset="0%" style="stop-color:#fff4f0"/>
    <stop offset="100%" stop-opacity="0" style="stop-color:#fffefd"/>
   </linearGradient>
   <path fill="url(#_lgradient_204)" d="M 38.296 17.908 L 38.296 26.063 L 54.606 26.063 L 54.606 17.908 L 38.296 17.908 L 38.296 17.908 Z M 38.296 30.141 L 38.296 38.296 L 54.606 38.296 L 54.606 30.141 L 38.296 30.141 L 38.296 30.141 Z M 38.296 42.373 L 38.296 50.528 L 54.606 50.528 L 54.606 42.373 L 38.296 42.373 L 38.296 42.373 Z M 38.296 54.606 L 38.296 62.76 L 54.606 62.76 L 54.606 54.606 L 38.296 54.606 L 38.296 54.606 Z M 38.296 66.838 L 38.296 74.993 L 54.606 74.993 L 54.606 66.838 L 38.296 66.838 L 38.296 66.838 Z M 38.296 79.07 L 38.296 87.225 L 54.606 87.225 L 54.606 79.07 L 38.296 79.07 L 38.296 79.07 Z M 38.296 91.303 L 38.296 99.458 L 54.606 99.458 L 54.606 91.303 L 38.296 91.303 L 38.296 91.303 Z M 38.296 103.535 L 38.296 111.69 L 54.606 111.69 L 54.606 103.535 L 38.296 103.535 L 38.296 103.535 Z M 38.296 115.768 L 38.296 123.923 L 54.606 123.923 L 54.606 115.768 L 38.296 115.768 L 38.296 115.768 Z"/>
  </g>
  <g opacity=".5">
   <linearGradient id="_lgradient_205" x1=".5" x2=".5" y1="1.538" y2=".692" gradientTransform="matrix(16.31,0,0,106.015,17.908,17.908)" gradientUnits="userSpaceOnUse">
    <stop offset="0%" style="stop-color:#fff4f0"/>
    <stop offset="100%" stop-opacity="0" style="stop-color:#fffefd"/>
   </linearGradient>
   <path fill="url(#_lgradient_205)" d="M 17.908 17.908 L 17.908 26.063 L 34.218 26.063 L 34.218 17.908 L 17.908 17.908 L 17.908 17.908 Z M 17.908 30.141 L 17.908 38.296 L 34.218 38.296 L 34.218 30.141 L 17.908 30.141 L 17.908 30.141 Z M 17.908 42.373 L 17.908 50.528 L 34.218 50.528 L 34.218 42.373 L 17.908 42.373 L 17.908 42.373 Z M 17.908 54.606 L 17.908 62.76 L 34.218 62.76 L 34.218 54.606 L 17.908 54.606 L 17.908 54.606 Z M 17.908 66.838 L 17.908 74.993 L 34.218 74.993 L 34.218 66.838 L 17.908 66.838 L 17.908 66.838 Z M 17.908 79.07 L 17.908 87.225 L 34.218 87.225 L 34.218 79.07 L 17.908 79.07 L 17.908 79.07 Z M 17.908 91.303 L 17.908 99.458 L 34.218 99.458 L 34.218 91.303 L 17.908 91.303 L 17.908 91.303 Z M 17.908 103.535 L 17.908 111.69 L 34.218 111.69 L 34.218 103.535 L 17.908 103.535 L 17.908 103.535 Z M 17.908 115.768 L 17.908 123.923 L 34.218 123.923 L 34.218 115.768 L 17.908 115.768 L 17.908 115.768 Z"/>
  </g>
  <g opacity=".5">
   <linearGradient id="_lgradient_206" x1=".5" x2=".5" y1="1.154" y2=".154" gradientTransform="matrix(16.31,0,0,106.015,140.232,17.908)" gradientUnits="userSpaceOnUse">
    <stop offset="0%" style="stop-color:#fff4f0"/>
    <stop offset="100%" stop-opacity="0" style="stop-color:#fffefd"/>
   </linearGradient>
   <path fill="url(#_lgradient_206)" d="M 140.232 17.908 L 140.232 26.063 L 156.542 26.063 L 156.542 17.908 L 140.232 17.908 L 140.232 17.908 Z M 140.232 30.141 L 140.232 38.296 L 156.542 38.296 L 156.542 30.141 L 140.232 30.141 L 140.232 30.141 Z M 140.232 42.373 L 140.232 50.528 L 156.542 50.528 L 156.542 42.373 L 140.232 42.373 L 140.232 42.373 Z M 140.232 54.606 L 140.232 62.76 L 156.542 62.76 L 156.542 54.606 L 140.232 54.606 L 140.232 54.606 Z M 140.232 66.838 L 140.232 74.993 L 156.542 74.993 L 156.542 66.838 L 140.232 66.838 L 140.232 66.838 Z M 140.232 79.07 L 140.232 87.225 L 156.542 87.225 L 156.542 79.07 L 140.232 79.07 L 140.232 79.07 Z M 140.232 91.303 L 140.232 99.458 L 156.542 99.458 L 156.542 91.303 L 140.232 91.303 L 140.232 91.303 Z M 140.232 103.535 L 140.232 111.69 L 156.542 111.69 L 156.542 103.535 L 140.232 103.535 L 140.232 103.535 Z M 140.232 115.768 L 140.232 123.923 L 156.542 123.923 L 156.542 115.768 L 140.232 115.768 L 140.232 115.768 Z"/>
  </g>
  <g opacity=".5">
   <linearGradient id="_lgradient_207" x1=".5" x2=".5" y1="1.192" y2=".538" gradientTransform="matrix(16.31,0,0,106.015,160.62,17.908)" gradientUnits="userSpaceOnUse">
    <stop offset="0%" style="stop-color:#fff4f0"/>
    <stop offset="100%" stop-opacity="0" style="stop-color:#fffefd"/>
   </linearGradient>
   <path fill="url(#_lgradient_207)" d="M 160.62 17.908 L 160.62 26.063 L 176.93 26.063 L 176.93 17.908 L 160.62 17.908 L 160.62 17.908 Z M 160.62 30.141 L 160.62 38.296 L 176.93 38.296 L 176.93 30.141 L 160.62 30.141 L 160.62 30.141 Z M 160.62 42.373 L 160.62 50.528 L 176.93 50.528 L 176.93 42.373 L 160.62 42.373 L 160.62 42.373 Z M 160.62 54.606 L 160.62 62.76 L 176.93 62.76 L 176.93 54.606 L 160.62 54.606 L 160.62 54.606 Z M 160.62 66.838 L 160.62 74.993 L 176.93 74.993 L 176.93 66.838 L 160.62 66.838 L 160.62 66.838 Z M 160.62 79.07 L 160.62 87.225 L 176.93 87.225 L 176.93 79.07 L 160.62 79.07 L 160.62 79.07 Z M 160.62 91.303 L 160.62 99.458 L 176.93 99.458 L 176.93 91.303 L 160.62 91.303 L 160.62 91.303 Z M 160.62 103.535 L 160.62 111.69 L 176.93 111.69 L 176.93 103.535 L 160.62 103.535 L 160.62 103.535 Z M 160.62 115.768 L 160.62 123.923 L 176.93 123.923 L 176.93 115.768 L 160.62 115.768 L 160.62 115.768 Z"/>
  </g>
  <g opacity=".5">
   <linearGradient id="_lgradient_208" x1=".5" x2=".5" y1="1.269" y2=".269" gradientTransform="matrix(16.31,0,0,106.015,181.007,17.908)" gradientUnits="userSpaceOnUse">
    <stop offset="0%" style="stop-color:#fff4f0"/>
    <stop offset="100%" stop-opacity="0" style="stop-color:#fffefd"/>
   </linearGradient>
   <path fill="url(#_lgradient_208)" d="M 181.007 17.908 L 181.007 26.063 L 197.317 26.063 L 197.317 17.908 L 181.007 17.908 L 181.007 17.908 Z M 181.007 30.141 L 181.007 38.296 L 197.317 38.296 L 197.317 30.141 L 181.007 30.141 L 181.007 30.141 Z M 181.007 42.373 L 181.007 50.528 L 197.317 50.528 L 197.317 42.373 L 181.007 42.373 L 181.007 42.373 Z M 181.007 54.606 L 181.007 62.76 L 197.317 62.76 L 197.317 54.606 L 181.007 54.606 L 181.007 54.606 Z M 181.007 66.838 L 181.007 74.993 L 197.317 74.993 L 197.317 66.838 L 181.007 66.838 L 181.007 66.838 Z M 181.007 79.07 L 181.007 87.225 L 197.317 87.225 L 197.317 79.07 L 181.007 79.07 L 181.007 79.07 Z M 181.007 91.303 L 181.007 99.458 L 197.317 99.458 L 197.317 91.303 L 181.007 91.303 L 181.007 91.303 Z M 181.007 103.535 L 181.007 111.69 L 197.317 111.69 L 197.317 103.535 L 181.007 103.535 L 181.007 103.535 Z M 181.007 115.768 L 181.007 123.923 L 197.317 123.923 L 197.317 115.768 L 181.007 115.768 L 181.007 115.768 Z"/>
  </g>
  <g opacity=".5">
   <linearGradient id="_lgradient_209" x1=".5" x2=".5" y1="1.423" y2=".423" gradientTransform="matrix(16.31,0,0,106.015,201.394,17.908)" gradientUnits="userSpaceOnUse">
    <stop offset="0%" style="stop-color:#fff4f0"/>
    <stop offset="100%" stop-opacity="0" style="stop-color:#fffefd"/>
   </linearGradient>
   <path fill="url(#_lgradient_209)" d="M 201.394 17.908 L 201.394 26.063 L 217.704 26.063 L 217.704 17.908 L 201.394 17.908 L 201.394 17.908 Z M 201.394 30.141 L 201.394 38.296 L 217.704 38.296 L 217.704 30.141 L 201.394 30.141 L 201.394 30.141 Z M 201.394 42.373 L 201.394 50.528 L 217.704 50.528 L 217.704 42.373 L 201.394 42.373 L 201.394 42.373 Z M 201.394 54.606 L 201.394 62.76 L 217.704 62.76 L 217.704 54.606 L 201.394 54.606 L 201.394 54.606 Z M 201.394 66.838 L 201.394 74.993 L 217.704 74.993 L 217.704 66.838 L 201.394 66.838 L 201.394 66.838 Z M 201.394 79.07 L 201.394 87.225 L 217.704 87.225 L 217.704 79.07 L 201.394 79.07 L 201.394 79.07 Z M 201.394 91.303 L 201.394 99.458 L 217.704 99.458 L 217.704 91.303 L 201.394 91.303 L 201.394 91.303 Z M 201.394 103.535 L 201.394 111.69 L 217.704 111.69 L 217.704 103.535 L 201.394 103.535 L 201.394 103.535 Z M 201.394 115.768 L 201.394 123.923 L 217.704 123.923 L 217.704 115.768 L 201.394 115.768 L 201.394 115.768 Z"/>
  </g>
  <g opacity=".5">
   <linearGradient id="_lgradient_210" x1=".5" x2=".5" y1="1.577" y2=".731" gradientTransform="matrix(16.31,0,0,106.015,221.782,17.908)" gradientUnits="userSpaceOnUse">
    <stop offset="0%" style="stop-color:#fff4f0"/>
    <stop offset="100%" stop-opacity="0" style="stop-color:#fffefd"/>
   </linearGradient>
   <path fill="url(#_lgradient_210)" d="M 221.782 17.908 L 221.782 26.063 L 238.092 26.063 L 238.092 17.908 L 221.782 17.908 L 221.782 17.908 Z M 221.782 30.141 L 221.782 38.296 L 238.092 38.296 L 238.092 30.141 L 221.782 30.141 L 221.782 30.141 Z M 221.782 42.373 L 221.782 50.528 L 238.092 50.528 L 238.092 42.373 L 221.782 42.373 L 221.782 42.373 Z M 221.782 54.606 L 221.782 62.76 L 238.092 62.76 L 238.092 54.606 L 221.782 54.606 L 221.782 54.606 Z M 221.782 66.838 L 221.782 74.993 L 238.092 74.993 L 238.092 66.838 L 221.782 66.838 L 221.782 66.838 Z M 221.782 79.07 L 221.782 87.225 L 238.092 87.225 L 238.092 79.07 L 221.782 79.07 L 221.782 79.07 Z M 221.782 91.303 L 221.782 99.458 L 238.092 99.458 L 238.092 91.303 L 221.782 91.303 L 221.782 91.303 Z M 221.782 103.535 L 221.782 111.69 L 238.092 111.69 L 238.092 103.535 L 221.782 103.535 L 221.782 103.535 Z M 221.782 115.768 L 221.782 123.923 L 238.092 123.923 L 238.092 115.768 L 221.782 115.768 L 221.782 115.768 Z"/>
  </g>
 </g>
 <g style="opacity:0.5">
  <g style="opacity:0.467">
   <g opacity=".467">
    <linearGradient id="_lgradient_211" x1=".5" x2=".5" y1="-.154" y2=".654" gradientTransform="matrix(16.31,0,0,106.015,119.845,132.077)" gradientUnits="userSpaceOnUse">
     <stop offset="0%" style="stop-color:#fff4f0"/>
     <stop offset="100%" stop-opacity="0" style="stop-color:#fffefd"/>
    </linearGradient>
    <path fill="url(#_lgradient_211)" d="M 119.845 132.077 L 119.845 140.232 L 136.155 140.232 L 136.155 132.077 L 119.845 132.077 L 119.845 132.077 Z M 119.845 144.31 L 119.845 152.465 L 136.155 152.465 L 136.155 144.31 L 119.845 144.31 L 119.845 144.31 Z M 119.845 156.542 L 119.845 164.697 L 136.155 164.697 L 136.155 156.542 L 119.845 156.542 L 119.845 156.542 Z M 119.845 168.775 L 119.845 176.93 L 136.155 176.93 L 136.155 168.775 L 119.845 168.775 L 119.845 168.775 Z M 119.845 181.007 L 119.845 189.162 L 136.155 189.162 L 136.155 181.007 L 119.845 181.007 L 119.845 181.007 Z M 119.845 193.24 L 119.845 201.394 L 136.155 201.394 L 136.155 193.24 L 119.845 193.24 L 119.845 193.24 Z M 119.845 205.472 L 119.845 213.627 L 136.155 213.627 L 136.155 205.472 L 119.845 205.472 L 119.845 205.472 Z M 119.845 217.704 L 119.845 225.859 L 136.155 225.859 L 136.155 217.704 L 119.845 217.704 L 119.845 217.704 Z M 119.845 229.937 L 119.845 238.092 L 136.155 238.092 L 136.155 229.937 L 119.845 229.937 L 119.845 229.937 Z"/>
   </g>
  </g>
  <g style="opacity:0.467">
   <g opacity=".467">
    <linearGradient id="_lgradient_212" x1=".5" x2=".5" y1="-.154" y2="1" gradientTransform="matrix(16.31,0,0,106.015,99.458,132.077)" gradientUnits="userSpaceOnUse">
     <stop offset="0%" style="stop-color:#fff4f0"/>
     <stop offset="100%" stop-opacity="0" style="stop-color:#fffefd"/>
    </linearGradient>
    <path fill="url(#_lgradient_212)" d="M 99.458 132.077 L 99.458 140.232 L 115.768 140.232 L 115.768 132.077 L 99.458 132.077 L 99.458 132.077 Z M 99.458 144.31 L 99.458 152.465 L 115.768 152.465 L 115.768 144.31 L 99.458 144.31 L 99.458 144.31 Z M 99.458 156.542 L 99.458 164.697 L 115.768 164.697 L 115.768 156.542 L 99.458 156.542 L 99.458 156.542 Z M 99.458 168.775 L 99.458 176.93 L 115.768 176.93 L 115.768 168.775 L 99.458 168.775 L 99.458 168.775 Z M 99.458 181.007 L 99.458 189.162 L 115.768 189.162 L 115.768 181.007 L 99.458 181.007 L 99.458 181.007 Z M 99.458 193.24 L 99.458 201.394 L 115.768 201.394 L 115.768 193.24 L 99.458 193.24 L 99.458 193.24 Z M 99.458 205.472 L 99.458 213.627 L 115.768 213.627 L 115.768 205.472 L 99.458 205.472 L 99.458 205.472 Z M 99.458 217.704 L 99.458 225.859 L 115.768 225.859 L 115.768 217.704 L 99.458 217.704 L 99.458 217.704 Z M 99.458 229.937 L 99.458 238.092 L 115.768 238.092 L 115.768 229.937 L 99.458 229.937 L 99.458 229.937 Z"/>
   </g>
  </g>
  <g style="opacity:0.467">
   <g opacity=".467">
    <linearGradient id="_lgradient_213" x1=".5" x2=".5" y1="-.308" y2=".654" gradientTransform="matrix(16.31,0,0,106.015,79.07,132.077)" gradientUnits="userSpaceOnUse">
     <stop offset="0%" style="stop-color:#fff4f0"/>
     <stop offset="100%" stop-opacity="0" style="stop-color:#fffefd"/>
    </linearGradient>
    <path fill="url(#_lgradient_213)" d="M 79.07 132.077 L 79.07 140.232 L 95.38 140.232 L 95.38 132.077 L 79.07 132.077 L 79.07 132.077 Z M 79.07 144.31 L 79.07 152.465 L 95.38 152.465 L 95.38 144.31 L 79.07 144.31 L 79.07 144.31 Z M 79.07 156.542 L 79.07 164.697 L 95.38 164.697 L 95.38 156.542 L 79.07 156.542 L 79.07 156.542 Z M 79.07 168.775 L 79.07 176.93 L 95.38 176.93 L 95.38 168.775 L 79.07 168.775 L 79.07 168.775 Z M 79.07 181.007 L 79.07 189.162 L 95.38 189.162 L 95.38 181.007 L 79.07 181.007 L 79.07 181.007 Z M 79.07 193.24 L 79.07 201.394 L 95.38 201.394 L 95.38 193.24 L 79.07 193.24 L 79.07 193.24 Z M 79.07 205.472 L 79.07 213.627 L 95.38 213.627 L 95.38 205.472 L 79.07 205.472 L 79.07 205.472 Z M 79.07 217.704 L 79.07 225.859 L 95.38 225.859 L 95.38 217.704 L 79.07 217.704 L 79.07 217.704 Z M 79.07 229.937 L 79.07 238.092 L 95.38 238.092 L 95.38 229.937 L 79.07 229.937 L 79.07 229.937 Z"/>
   </g>
  </g>
  <g style="opacity:0.467">
   <g opacity=".467">
    <linearGradient id="_lgradient_214" x1=".5" x2=".5" y1="-.538" y2=".5" gradientTransform="matrix(16.31,0,0,106.015,58.683,132.077)" gradientUnits="userSpaceOnUse">
     <stop offset="0%" style="stop-color:#fff4f0"/>
     <stop offset="100%" stop-opacity="0" style="stop-color:#fffefd"/>
    </linearGradient>
    <path fill="url(#_lgradient_214)" d="M 58.683 132.077 L 58.683 140.232 L 74.993 140.232 L 74.993 132.077 L 58.683 132.077 L 58.683 132.077 Z M 58.683 144.31 L 58.683 152.465 L 74.993 152.465 L 74.993 144.31 L 58.683 144.31 L 58.683 144.31 Z M 58.683 156.542 L 58.683 164.697 L 74.993 164.697 L 74.993 156.542 L 58.683 156.542 L 58.683 156.542 Z M 58.683 168.775 L 58.683 176.93 L 74.993 176.93 L 74.993 168.775 L 58.683 168.775 L 58.683 168.775 Z M 58.683 181.007 L 58.683 189.162 L 74.993 189.162 L 74.993 181.007 L 58.683 181.007 L 58.683 181.007 Z M 58.683 193.24 L 58.683 201.394 L 74.993 201.394 L 74.993 193.24 L 58.683 193.24 L 58.683 193.24 Z M 58.683 205.472 L 58.683 213.627 L 74.993 213.627 L 74.993 205.472 L 58.683 205.472 L 58.683 205.472 Z M 58.683 217.704 L 58.683 225.859 L 74.993 225.859 L 74.993 217.704 L 58.683 217.704 L 58.683 217.704 Z M 58.683 229.937 L 58.683 238.092 L 74.993 238.092 L 74.993 229.937 L 58.683 229.937 L 58.683 229.937 Z"/>
   </g>
  </g>
  <g style="opacity:0.467">
   <g opacity=".467">
    <linearGradient id="_lgradient_215" x1=".5" x2=".5" y1="-.731" y2=".692" gradientTransform="matrix(16.31,0,0,106.015,38.296,132.077)" gradientUnits="userSpaceOnUse">
     <stop offset="0%" style="stop-color:#fff4f0"/>
     <stop offset="100%" stop-opacity="0" style="stop-color:#fffefd"/>
    </linearGradient>
    <path fill="url(#_lgradient_215)" d="M 38.296 132.077 L 38.296 140.232 L 54.606 140.232 L 54.606 132.077 L 38.296 132.077 L 38.296 132.077 Z M 38.296 144.31 L 38.296 152.465 L 54.606 152.465 L 54.606 144.31 L 38.296 144.31 L 38.296 144.31 Z M 38.296 156.542 L 38.296 164.697 L 54.606 164.697 L 54.606 156.542 L 38.296 156.542 L 38.296 156.542 Z M 38.296 168.775 L 38.296 176.93 L 54.606 176.93 L 54.606 168.775 L 38.296 168.775 L 38.296 168.775 Z M 38.296 181.007 L 38.296 189.162 L 54.606 189.162 L 54.606 181.007 L 38.296 181.007 L 38.296 181.007 Z M 38.296 193.24 L 38.296 201.394 L 54.606 201.394 L 54.606 193.24 L 38.296 193.24 L 38.296 193.24 Z M 38.296 205.472 L 38.296 213.627 L 54.606 213.627 L 54.606 205.472 L 38.296 205.472 L 38.296 205.472 Z M 38.296 217.704 L 38.296 225.859 L 54.606 225.859 L 54.606 217.704 L 38.296 217.704 L 38.296 217.704 Z M 38.296 229.937 L 38.296 238.092 L 54.606 238.092 L 54.606 229.937 L 38.296 229.937 L 38.296 229.937 Z"/>
   </g>
  </g>
  <g style="opacity:0.467">
   <g opacity=".467">
    <linearGradient id="_lgradient_216" x1=".5" x2=".5" y1="-.5" y2=".231" gradientTransform="matrix(16.31,0,0,106.015,17.908,132.077)" gradientUnits="userSpaceOnUse">
     <stop offset="0%" style="stop-color:#fff4f0"/>
     <stop offset="100%" stop-opacity="0" style="stop-color:#fffefd"/>
    </linearGradient>
    <path fill="url(#_lgradient_216)" d="M 17.908 132.077 L 17.908 140.232 L 34.218 140.232 L 34.218 132.077 L 17.908 132.077 L 17.908 132.077 Z M 17.908 144.31 L 17.908 152.465 L 34.218 152.465 L 34.218 144.31 L 17.908 144.31 L 17.908 144.31 Z M 17.908 156.542 L 17.908 164.697 L 34.218 164.697 L 34.218 156.542 L 17.908 156.542 L 17.908 156.542 Z M 17.908 168.775 L 17.908 176.93 L 34.218 176.93 L 34.218 168.775 L 17.908 168.775 L 17.908 168.775 Z M 17.908 181.007 L 17.908 189.162 L 34.218 189.162 L 34.218 181.007 L 17.908 181.007 L 17.908 181.007 Z M 17.908 193.24 L 17.908 201.394 L 34.218 201.394 L 34.218 193.24 L 17.908 193.24 L 17.908 193.24 Z M 17.908 205.472 L 17.908 213.627 L 34.218 213.627 L 34.218 205.472 L 17.908 205.472 L 17.908 205.472 Z M 17.908 217.704 L 17.908 225.859 L 34.218 225.859 L 34.218 217.704 L 17.908 217.704 L 17.908 217.704 Z M 17.908 229.937 L 17.908 238.092 L 34.218 238.092 L 34.218 229.937 L 17.908 229.937 L 17.908 229.937 Z"/>
   </g>
  </g>
  <g style="opacity:0.467">
   <g opacity=".467">
    <linearGradient id="_lgradient_217" x1=".5" x2=".5" y1="-.5" y2="1.346" gradientTransform="matrix(16.31,0,0,106.015,140.232,132.077)" gradientUnits="userSpaceOnUse">
     <stop offset="0%" style="stop-color:#fff4f0"/>
     <stop offset="100%" stop-opacity="0" style="stop-color:#fffefd"/>
    </linearGradient>
    <path fill="url(#_lgradient_217)" d="M 140.232 132.077 L 140.232 140.232 L 156.542 140.232 L 156.542 132.077 L 140.232 132.077 L 140.232 132.077 Z M 140.232 144.31 L 140.232 152.465 L 156.542 152.465 L 156.542 144.31 L 140.232 144.31 L 140.232 144.31 Z M 140.232 156.542 L 140.232 164.697 L 156.542 164.697 L 156.542 156.542 L 140.232 156.542 L 140.232 156.542 Z M 140.232 168.775 L 140.232 176.93 L 156.542 176.93 L 156.542 168.775 L 140.232 168.775 L 140.232 168.775 Z M 140.232 181.007 L 140.232 189.162 L 156.542 189.162 L 156.542 181.007 L 140.232 181.007 L 140.232 181.007 Z M 140.232 193.24 L 140.232 201.394 L 156.542 201.394 L 156.542 193.24 L 140.232 193.24 L 140.232 193.24 Z M 140.232 205.472 L 140.232 213.627 L 156.542 213.627 L 156.542 205.472 L 140.232 205.472 L 140.232 205.472 Z M 140.232 217.704 L 140.232 225.859 L 156.542 225.859 L 156.542 217.704 L 140.232 217.704 L 140.232 217.704 Z M 140.232 229.937 L 140.232 238.092 L 156.542 238.092 L 156.542 229.937 L 140.232 229.937 L 140.232 229.937 Z"/>
   </g>
  </g>
  <g style="opacity:0.467">
   <g opacity=".467">
    <linearGradient id="_lgradient_218" x1=".5" x2=".5" y1="-.269" y2=".923" gradientTransform="matrix(16.31,0,0,106.015,160.62,132.077)" gradientUnits="userSpaceOnUse">
     <stop offset="0%" style="stop-color:#fff4f0"/>
     <stop offset="100%" stop-opacity="0" style="stop-color:#fffefd"/>
    </linearGradient>
    <path fill="url(#_lgradient_218)" d="M 160.62 132.077 L 160.62 140.232 L 176.93 140.232 L 176.93 132.077 L 160.62 132.077 L 160.62 132.077 Z M 160.62 144.31 L 160.62 152.465 L 176.93 152.465 L 176.93 144.31 L 160.62 144.31 L 160.62 144.31 Z M 160.62 156.542 L 160.62 164.697 L 176.93 164.697 L 176.93 156.542 L 160.62 156.542 L 160.62 156.542 Z M 160.62 168.775 L 160.62 176.93 L 176.93 176.93 L 176.93 168.775 L 160.62 168.775 L 160.62 168.775 Z M 160.62 181.007 L 160.62 189.162 L 176.93 189.162 L 176.93 181.007 L 160.62 181.007 L 160.62 181.007 Z M 160.62 193.24 L 160.62 201.394 L 176.93 201.394 L 176.93 193.24 L 160.62 193.24 L 160.62 193.24 Z M 160.62 205.472 L 160.62 213.627 L 176.93 213.627 L 176.93 205.472 L 160.62 205.472 L 160.62 205.472 Z M 160.62 217.704 L 160.62 225.859 L 176.93 225.859 L 176.93 217.704 L 160.62 217.704 L 160.62 217.704 Z M 160.62 229.937 L 160.62 238.092 L 176.93 238.092 L 176.93 229.937 L 160.62 229.937 L 160.62 229.937 Z"/>
   </g>
  </g>
  <g style="opacity:0.467">
   <g opacity=".467">
    <linearGradient id="_lgradient_219" x1=".5" x2=".5" y1="-.423" y2=".5" gradientTransform="matrix(16.31,0,0,106.015,181.007,132.077)" gradientUnits="userSpaceOnUse">
     <stop offset="0%" style="stop-color:#fff4f0"/>
     <stop offset="100%" stop-opacity="0" style="stop-color:#fffefd"/>
    </linearGradient>
    <path fill="url(#_lgradient_219)" d="M 181.007 132.077 L 181.007 140.232 L 197.317 140.232 L 197.317 132.077 L 181.007 132.077 L 181.007 132.077 Z M 181.007 144.31 L 181.007 152.465 L 197.317 152.465 L 197.317 144.31 L 181.007 144.31 L 181.007 144.31 Z M 181.007 156.542 L 181.007 164.697 L 197.317 164.697 L 197.317 156.542 L 181.007 156.542 L 181.007 156.542 Z M 181.007 168.775 L 181.007 176.93 L 197.317 176.93 L 197.317 168.775 L 181.007 168.775 L 181.007 168.775 Z M 181.007 181.007 L 181.007 189.162 L 197.317 189.162 L 197.317 181.007 L 181.007 181.007 L 181.007 181.007 Z M 181.007 193.24 L 181.007 201.394 L 197.317 201.394 L 197.317 193.24 L 181.007 193.24 L 181.007 193.24 Z M 181.007 205.472 L 181.007 213.627 L 197.317 213.627 L 197.317 205.472 L 181.007 205.472 L 181.007 205.472 Z M 181.007 217.704 L 181.007 225.859 L 197.317 225.859 L 197.317 217.704 L 181.007 217.704 L 181.007 217.704 Z M 181.007 229.937 L 181.007 238.092 L 197.317 238.092 L 197.317 229.937 L 181.007 229.937 L 181.007 229.937 Z"/>
   </g>
  </g>
  <g style="opacity:0.467">
   <g opacity=".467">
    <linearGradient id="_lgradient_220" x1=".5" x2=".5" y1="-.375" y2=".538" gradientTransform="matrix(16.31,0,0,106.015,201.394,132.077)" gradientUnits="userSpaceOnUse">
     <stop offset="0%" style="stop-color:#fff4f0"/>
     <stop offset="100%" stop-opacity="0" style="stop-color:#fffefd"/>
    </linearGradient>
    <path fill="url(#_lgradient_220)" d="M 201.394 132.077 L 201.394 140.232 L 217.704 140.232 L 217.704 132.077 L 201.394 132.077 L 201.394 132.077 Z M 201.394 144.31 L 201.394 152.465 L 217.704 152.465 L 217.704 144.31 L 201.394 144.31 L 201.394 144.31 Z M 201.394 156.542 L 201.394 164.697 L 217.704 164.697 L 217.704 156.542 L 201.394 156.542 L 201.394 156.542 Z M 201.394 168.775 L 201.394 176.93 L 217.704 176.93 L 217.704 168.775 L 201.394 168.775 L 201.394 168.775 Z M 201.394 181.007 L 201.394 189.162 L 217.704 189.162 L 217.704 181.007 L 201.394 181.007 L 201.394 181.007 Z M 201.394 193.24 L 201.394 201.394 L 217.704 201.394 L 217.704 193.24 L 201.394 193.24 L 201.394 193.24 Z M 201.394 205.472 L 201.394 213.627 L 217.704 213.627 L 217.704 205.472 L 201.394 205.472 L 201.394 205.472 Z M 201.394 217.704 L 201.394 225.859 L 217.704 225.859 L 217.704 217.704 L 201.394 217.704 L 201.394 217.704 Z M 201.394 229.937 L 201.394 238.092 L 217.704 238.092 L 217.704 229.937 L 201.394 229.937 L 201.394 229.937 Z"/>
   </g>
  </g>
  <g style="opacity:0.467">
   <g opacity=".467">
    <linearGradient id="_lgradient_221" x1=".5" x2=".5" y1="-.654" y2=".423" gradientTransform="matrix(16.31,0,0,106.015,221.782,132.077)" gradientUnits="userSpaceOnUse">
     <stop offset="0%" style="stop-color:#fff4f0"/>
     <stop offset="100%" stop-opacity="0" style="stop-color:#fffefd"/>
    </linearGradient>
    <path fill="url(#_lgradient_221)" d="M 221.782 132.077 L 221.782 140.232 L 238.092 140.232 L 238.092 132.077 L 221.782 132.077 L 221.782 132.077 Z M 221.782 144.31 L 221.782 152.465 L 238.092 152.465 L 238.092 144.31 L 221.782 144.31 L 221.782 144.31 Z M 221.782 156.542 L 221.782 164.697 L 238.092 164.697 L 238.092 156.542 L 221.782 156.542 L 221.782 156.542 Z M 221.782 168.775 L 221.782 176.93 L 238.092 176.93 L 238.092 168.775 L 221.782 168.775 L 221.782 168.775 Z M 221.782 181.007 L 221.782 189.162 L 238.092 189.162 L 238.092 181.007 L 221.782 181.007 L 221.782 181.007 Z M 221.782 193.24 L 221.782 201.394 L 238.092 201.394 L 238.092 193.24 L 221.782 193.24 L 221.782 193.24 Z M 221.782 205.472 L 221.782 213.627 L 238.092 213.627 L 238.092 205.472 L 221.782 205.472 L 221.782 205.472 Z M 221.782 217.704 L 221.782 225.859 L 238.092 225.859 L 238.092 217.704 L 221.782 217.704 L 221.782 217.704 Z M 221.782 229.937 L 221.782 238.092 L 238.092 238.092 L 238.092 229.937 L 221.782 229.937 L 221.782 229.937 Z"/>
   </g>
  </g>
 </g>
 <g opacity=".4">
  <linearGradient id="_lgradient_222" x1=".652" x2=".652" y1="-.058" y2="1.023" gradientTransform="matrix(117.301934,0,0,150.959041,59.643,55.181959)" gradientUnits="userSpaceOnUse">
   <stop offset="0%" style="stop-color:#000000"/>
   <stop offset="50.277%" style="stop-color:#000000"/>
   <stop offset="100%" style="stop-color:#000000"/>
  </linearGradient>
  <path fill="url(#_lgradient_222)" d="M 171.14 55.183 C 169.225 55.162 166.679 55.46 163.292 55.969 L 108.988 64.588 C 95.38 67.486 95.426 68.387 95.38 79.885 L 95.38 173.173 C 94.813 172.775 94.253 172.375 93.666 171.982 L 93.666 171.986 C 89.342 169.089 84.734 167.027 78.545 167.027 C 70.792 167.027 66.168 169.995 63.37 173.906 C 60.571 177.816 59.643 182.744 59.643 186.554 C 59.643 191.148 61.211 196.051 64.614 199.788 C 68.017 203.524 73.248 206.141 80.771 206.141 C 89.265 206.141 95.24 203.769 98.618 199.137 C 101.277 195.49 102.748 190.617 103.272 184.607 L 103.272 184.591 C 103.346 183.861 103.399 183.112 103.446 182.341 C 103.517 181.153 103.501 178.93 103.501 178.93 L 103.501 107.501 C 103.501 97.297 103.501 96.688 117.113 94.361 L 155.135 88.073 C 168.772 86.289 168.775 87.54 168.775 95.193 L 168.775 160.745 C 168.222 160.358 167.677 159.969 167.106 159.587 L 167.106 159.591 C 162.783 156.693 158.177 154.631 151.987 154.631 C 144.234 154.631 139.609 157.6 136.81 161.51 C 134.011 165.42 133.083 170.348 133.083 174.158 C 133.083 178.753 134.653 183.656 138.056 187.392 C 141.459 191.129 146.691 193.747 154.213 193.747 C 162.707 193.747 168.682 191.374 172.06 186.741 C 174.719 183.094 176.188 178.224 176.713 172.213 L 176.713 172.195 C 176.785232 171.446859 176.84291 170.697384 176.886 169.947 C 176.957 168.759 176.944 166.535 176.944 166.535 L 176.944 67.16 C 176.944 58.211 176.885 55.247 171.14 55.183 Z"/>
 </g>
 <defs>
  <filter id="3fRiSk7BYZaMKyrk7YR4POEutospFAvy" width="400%" height="400%" x="-200%" y="-200%" color-interpolation-filters="sRGB" filterUnits="objectBoundingBox">
   <feGaussianBlur xmlns="http://www.w3.org/2000/svg" stdDeviation=".859"/>
  </filter>
 </defs>
 <g opacity=".1" filter="url(#3fRiSk7BYZaMKyrk7YR4POEutospFAvy)">
  <path d="M 171.14 54.164 C 169.225 54.142 166.679 54.441 163.292 54.95 L 108.988 63.569 C 95.38 66.467 95.426 67.368 95.38 78.865 L 95.38 172.153 C 94.813 171.756 94.253 171.356 93.666 170.963 L 93.666 170.967 C 89.342 168.069 84.734 166.007 78.545 166.007 C 70.792 166.007 66.168 168.976 63.37 172.886 C 60.571 176.796 59.643 181.725 59.643 185.535 C 59.643 190.129 61.211 195.032 64.614 198.769 C 68.017 202.505 73.248 205.122 80.771 205.122 C 89.265 205.122 95.24 202.75 98.618 198.118 C 101.277 194.47 102.748 189.598 103.272 183.588 L 103.272 183.571 C 103.346 182.842 103.399 182.093 103.446 181.321 C 103.517 180.133 103.501 177.911 103.501 177.911 L 103.501 106.482 C 103.501 96.277 103.501 95.668 117.113 93.341 L 155.135 87.054 C 168.772 85.27 168.775 86.521 168.775 94.174 L 168.775 159.726 C 168.222 159.339 167.677 158.95 167.106 158.567 L 167.106 158.571 C 162.783 155.674 158.177 153.612 151.987 153.612 C 144.234 153.612 139.609 156.58 136.81 160.49 C 134.011 164.401 133.083 169.329 133.083 173.139 C 133.083 177.733 134.653 182.636 138.056 186.373 C 141.459 190.109 146.691 192.728 154.213 192.728 C 162.707 192.728 168.682 190.354 172.06 185.722 C 174.719 182.075 176.188 177.204 176.713 171.194 L 176.713 171.176 C 176.786 170.446 176.839 169.699 176.886 168.928 C 176.957 167.74 176.944 165.515 176.944 165.515 L 176.944 66.141 C 176.944 57.191 176.885 54.228 171.14 54.164 Z"/>
 </g>
 <path fill="#fef8f8" d="M 171.14 53.144 C 169.225 53.121 166.679 53.422 163.292 53.931 L 108.988 62.549 C 95.38 65.447 95.426 66.349 95.38 77.846 L 95.38 171.134 C 94.813 170.736 94.253 170.337 93.666 169.943 L 93.666 169.947 C 89.342 167.05 84.734 164.988 78.545 164.988 C 70.792 164.988 66.168 167.956 63.37 171.866 C 60.571 175.777 59.643 180.705 59.643 184.515 C 59.643 189.109 61.211 194.012 64.614 197.749 C 68.017 201.485 73.248 204.102 80.771 204.102 C 89.265 204.102 95.24 201.73 98.618 197.098 C 101.277 193.451 102.748 188.578 103.272 182.568 L 103.272 182.549 C 103.346 181.82 103.399 181.071 103.446 180.299 C 103.517 179.111 103.501 176.889 103.501 176.889 L 103.501 105.459 C 103.501 95.255 103.501 94.646 117.114 92.319 L 155.135 86.032 C 168.772 84.247 168.775 85.498 168.775 93.151 L 168.775 158.704 C 168.222 158.317 167.677 157.927 167.106 157.545 L 167.106 157.549 C 162.783 154.651 158.177 152.589 151.987 152.589 C 144.234 152.589 139.609 155.558 136.81 159.468 C 134.011 163.378 133.083 168.307 133.083 172.116 C 133.083 176.711 134.654 181.614 138.056 185.35 C 141.459 189.087 146.691 191.705 154.213 191.705 C 162.707 191.705 168.682 189.332 172.06 184.699 C 174.719 181.052 176.188 176.182 176.713 170.171 L 176.713 170.152 C 176.786 169.423 176.84 168.676 176.886 167.905 C 176.957 166.717 176.944 164.492 176.944 164.492 L 176.944 65.118 C 176.944 56.168 176.885 53.204 171.14 53.14 L 171.14 53.144 L 171.14 53.144 Z"/>
 <g opacity=".1">
  <linearGradient id="_lgradient_223" x1=".965" x2=".409" y1=".478" y2=".478" gradientTransform="matrix(117.301934,0,0,137.943,59.643,66.159)" gradientUnits="userSpaceOnUse">
   <stop offset="0%" stop-opacity="0" style="stop-color:#45c9ef"/>
   <stop offset="98.696%" style="stop-color:#e82b5d"/>
  </linearGradient>
  <path fill="url(#_lgradient_223)" d="M 97.962 66.159 C 95.416 68.158 95.407 71.263 95.38 77.846 L 95.38 171.134 C 94.813 170.736 94.253 170.337 93.666 169.943 L 93.666 169.947 C 89.342 167.05 84.734 164.988 78.545 164.988 C 70.792 164.988 66.168 167.956 63.37 171.866 C 60.571 175.777 59.643 180.705 59.643 184.515 C 59.643 189.109 61.211 194.012 64.614 197.749 C 68.017 201.485 73.248 204.102 80.771 204.102 C 89.265 204.102 95.24 201.73 98.618 197.098 C 101.277 193.451 102.748 188.578 103.272 182.568 L 103.272 182.549 C 103.346 181.82 103.399 181.071 103.446 180.299 C 103.517 179.111 103.501 176.889 103.501 176.889 L 103.501 105.459 C 103.501 95.255 103.501 94.646 117.114 92.319 L 155.135 86.032 C 158.606 85.577 161.185 85.322 163.114 85.317 L 97.962 66.159 L 97.962 66.159 Z M 167.771 86.69 C 168.76 87.899 168.775 89.964 168.775 93.154 L 168.775 158.706 C 168.222 158.319 167.677 157.93 167.106 157.548 L 167.106 157.552 C 162.783 154.654 158.177 152.592 151.987 152.592 C 144.234 152.592 139.609 155.561 136.81 159.471 C 134.011 163.381 133.083 168.309 133.083 172.119 C 133.083 176.714 134.653 181.617 138.056 185.353 C 141.459 189.09 146.691 191.708 154.213 191.708 C 162.707 191.708 168.682 189.334 172.06 184.702 C 174.719 181.055 176.188 176.184 176.713 170.174 L 176.713 170.155 C 176.785232 169.406859 176.84291 168.657384 176.886 167.907 C 176.957 166.719 176.944 164.495 176.944 164.495 L 176.944 89.386 L 167.771 86.69 L 167.771 86.69 Z"/>
 </g>
 <path fill="#ffffff" d="M 171.14 53.144 C 169.225 53.121 166.679 53.422 163.292 53.931 L 108.988 62.549 C 95.38 65.447 95.426 66.349 95.38 77.846 L 95.38 79.885 C 95.426 68.387 95.38 67.486 108.988 64.588 L 163.292 55.969 C 166.679 55.46 169.225 55.162 171.14 55.183 C 176.885 55.247 176.944 58.211 176.944 67.16 L 176.944 65.122 C 176.944 56.172 176.885 53.208 171.14 53.144 L 171.14 53.144 Z M 151.987 152.592 C 144.234 152.592 139.609 155.561 136.81 159.471 C 134.011 163.381 133.083 168.31 133.083 172.12 C 133.083 172.405 133.107 172.693 133.119 172.98 C 133.294 169.368 134.29 165.03 136.81 161.51 C 139.609 157.6 144.234 154.631 151.987 154.631 C 158.177 154.631 162.783 156.693 167.106 159.59 L 167.106 159.587 C 167.677 159.969 168.222 160.358 168.775 160.745 L 168.775 158.707 C 168.222 158.32 167.677 157.93 167.106 157.548 L 167.106 157.552 C 162.783 154.654 158.177 152.592 151.987 152.592 Z M 78.545 164.988 C 70.792 164.988 66.168 167.957 63.37 171.867 C 60.571 175.777 59.643 180.705 59.643 184.515 C 59.643 184.8 59.666 185.088 59.679 185.375 C 59.854 181.764 60.85 177.426 63.37 173.905 C 66.169 169.995 70.792 167.027 78.545 167.027 C 84.734 167.027 89.342 169.089 93.666 171.986 L 93.666 171.982 C 94.253 172.376 94.813 172.775 95.38 173.173 L 95.38 171.134 C 94.813 170.737 94.253 170.337 93.666 169.944 L 93.666 169.947 C 89.342 167.05 84.734 164.988 78.545 164.988 L 78.545 164.988 Z"/>
 <g opacity=".4">
  <linearGradient id="_lgradient_224" x1=".517" x2=".517" y1="0" y2="1" gradientTransform="matrix(244.65,0,0,228.34,5.68,11.95)" gradientUnits="userSpaceOnUse">
   <stop offset="0%" style="stop-color:#ffffff"/>
   <stop offset="12.5%" stop-opacity=".098" style="stop-color:#ffffff"/>
   <stop offset="92.5%" stop-opacity=".098" style="stop-color:#000000"/>
   <stop offset="100%" stop-opacity=".498" style="stop-color:#000000"/>
  </linearGradient>
  <path fill="url(#_lgradient_224)" fill-rule="evenodd" d="M 165.06803 11.951234 C 169.395994 11.941409 173.723944 11.990533 178.051908 12.088781 C 181.927398 12.167379 185.802873 12.31475 189.678362 12.540721 C 193.1309 12.737216 196.583423 13.022134 200.026115 13.395476 C 203.085193 13.729518 206.144271 14.181458 209.173842 14.741469 C 211.888645 15.242533 214.57394 15.881143 217.219897 16.6573 C 219.619947 17.354858 221.970814 18.219439 224.242988 19.241215 C 226.357793 20.184394 228.384061 21.304417 230.302129 22.591462 C 232.141505 23.829383 233.862851 25.244151 235.436659 26.80629 C 237.000621 28.378252 238.417046 30.087764 239.656409 31.924995 C 240.944972 33.840824 242.066305 35.864728 243.020409 37.967229 C 244.043389 40.246576 244.908985 42.584873 245.617197 44.972292 C 246.394255 47.615155 247.033606 50.297317 247.535265 53.008956 C 248.095924 56.034984 248.548399 59.080665 248.882828 62.13617 C 249.256611 65.574836 249.541856 69.013506 249.738578 72.462003 C 249.964823 76.323139 250.112361 80.194101 250.200884 84.055237 C 250.289421 88.378131 250.338591 92.701032 250.32876 97.014106 L 250.32876 155.225886 C 250.338591 159.54878 250.289421 163.861854 250.200884 168.184747 C 250.112361 172.05571 249.964823 175.916853 249.738578 179.777981 C 249.541856 183.226485 249.256611 186.674975 248.882828 190.103826 C 248.548399 193.15933 248.095924 196.214835 247.535265 199.240851 C 247.033606 201.942664 246.394255 204.624837 245.617197 207.267703 C 244.908985 209.655115 244.043389 212.003235 243.020409 214.272755 C 242.066305 216.38509 240.944972 218.399156 239.656409 220.314999 C 238.417046 222.152226 237.000621 223.871561 235.436659 225.433697 C 233.862851 226.995832 232.141505 228.410601 230.302129 229.648532 C 228.384061 230.935575 226.357793 232.055598 224.242988 232.998768 C 221.970814 234.020552 219.619947 234.885137 217.219897 235.592507 C 214.57394 236.368672 211.888645 237.007276 209.173842 237.498515 C 206.144271 238.068354 203.085193 238.510465 200.026115 238.844519 C 196.583423 239.21785 193.1309 239.502777 189.678362 239.699269 C 185.802873 239.925235 181.927398 240.072615 178.051908 240.161035 C 173.723944 240.249454 169.395994 240.298581 165.06803 240.288762 L 90.941963 240.288762 C 86.614006 240.298581 82.286049 240.249454 77.9581 240.161035 C 74.08261 240.072615 70.20712 239.925235 66.331638 239.699269 C 62.879108 239.502777 59.426578 239.21785 55.983886 238.844519 C 52.924808 238.510465 49.865733 238.068354 46.836162 237.498515 C 44.121356 237.007276 41.436057 236.368672 38.7901 235.592507 C 36.390053 234.885137 34.039187 234.020552 31.767009 232.998768 C 29.652213 232.055598 27.625943 230.935575 25.707871 229.648532 C 23.868489 228.410601 22.147143 226.995832 20.573343 225.433697 C 19.009377 223.871561 17.592955 222.152226 16.353586 220.314999 C 15.065036 218.399156 13.943701 216.38509 12.989584 214.272755 C 11.966612 212.003235 11.101021 209.655115 10.392811 207.267703 C 9.615746 204.624837 8.976389 201.942664 8.47474 199.240851 C 7.914072 196.214835 7.461604 193.15933 7.127172 190.103826 C 6.753394 186.674975 6.468142 183.226485 6.271417 179.777981 C 6.045183 175.916853 5.897639 172.05571 5.809112 168.184747 C 5.720586 163.861854 5.671405 159.54878 5.681241 155.225886 L 5.681241 97.014106 C 5.671405 92.701032 5.720586 88.378131 5.809112 84.055237 C 5.897639 80.194101 6.045183 76.323139 6.271417 72.462003 C 6.468142 69.013506 6.753394 65.574836 7.127172 62.13617 C 7.461604 59.080665 7.914072 56.034984 8.47474 53.008956 C 8.976389 50.297317 9.615746 47.615155 10.392811 44.972292 C 11.101021 42.584873 11.966612 40.246576 12.989584 37.967229 C 13.943701 35.864728 15.065036 33.840824 16.353586 31.924995 C 17.592955 30.087764 19.009377 28.378252 20.573343 26.80629 C 22.147143 25.244151 23.868489 23.829383 25.707871 22.591462 C 27.625943 21.304417 29.652213 20.184394 31.767009 19.241215 C 34.039187 18.219439 36.390053 17.354858 38.7901 16.6573 C 41.436057 15.881143 44.121356 15.242533 46.836162 14.741469 C 49.865733 14.181458 52.924808 13.729518 55.983886 13.395476 C 59.426578 13.022134 62.879108 12.737216 66.331638 12.540721 C 70.20712 12.31475 74.08261 12.167379 77.9581 12.088781 C 82.286049 11.990533 86.614006 11.941409 90.941963 11.951234 L 165.06803 11.951234 Z M 165.077876 15.959741 C 169.376317 15.949916 173.674759 15.99904 177.973216 16.087463 C 181.799522 16.175886 185.625827 16.323257 189.452133 16.539402 C 192.835809 16.735898 196.219486 17.010992 199.583486 17.384332 C 202.554026 17.698726 205.514751 18.131016 208.445953 18.681203 C 211.023049 19.152792 213.580483 19.761928 216.098564 20.498786 C 218.321569 21.147221 220.495374 21.952852 222.600334 22.896029 C 224.508571 23.750785 226.338116 24.762737 228.069293 25.922059 C 229.692286 27.012609 231.207063 28.260355 232.59398 29.645648 C 233.980897 31.030941 235.230091 32.543956 236.331763 34.165043 C 237.492434 35.894202 238.505568 37.711787 239.361333 39.607968 C 240.305606 41.720292 241.112187 43.891565 241.761369 46.102139 C 242.508934 48.617282 243.108947 51.161898 243.590914 53.735987 C 244.131912 56.663768 244.564709 59.6112 244.889308 62.578282 C 245.263091 65.938355 245.538505 69.308252 245.735227 72.687976 C 245.951626 76.509812 246.10901 80.321821 246.187687 84.143656 C 246.276225 88.437084 246.325394 92.720685 246.325394 97.014106 C 246.325394 97.014106 246.325394 97.014106 246.325394 97.014106 L 246.325394 155.225886 C 246.325394 155.225886 246.325394 155.225886 246.325394 155.225886 C 246.325394 159.519306 246.276225 163.802907 246.187687 168.096328 C 246.10901 171.918164 245.951626 175.739999 245.735227 179.552015 C 245.538505 182.931739 245.263091 186.301629 244.889308 189.671533 C 244.564709 192.628784 244.131912 195.576216 243.590914 198.503994 C 243.108947 201.078094 242.508934 203.622706 241.761369 206.137845 C 241.112187 208.358253 240.305606 210.5197 239.361333 212.63202 C 238.505568 214.528209 237.492434 216.355617 236.331763 218.074952 C 235.230091 219.705853 233.980897 221.218876 232.59398 222.604172 C 231.207063 223.979634 229.692286 225.227385 228.069293 226.317935 C 226.338116 227.477251 224.508571 228.489201 222.600334 229.343951 C 220.495374 230.296956 218.321569 231.092775 216.098564 231.741198 C 213.580483 232.478056 211.023049 233.087202 208.445953 233.558787 C 205.514751 234.108972 202.554026 234.541264 199.583486 234.865483 C 196.219486 235.228995 192.835809 235.513922 189.452133 235.70058 C 185.625827 235.916726 181.799522 236.073926 177.973216 236.152526 C 173.674759 236.25078 169.376317 236.290072 165.077876 236.290072 C 165.077876 236.290072 165.077876 236.290072 165.06803 236.290072 L 90.941963 236.290072 C 90.932125 236.290072 90.932125 236.290072 90.932125 236.290072 C 86.633683 236.290072 82.335234 236.25078 78.036784 236.152526 C 74.210479 236.073926 70.384173 235.916726 66.557868 235.70058 C 63.174195 235.513922 59.790522 235.228995 56.426518 234.865483 C 53.455967 234.541264 50.495253 234.108972 47.564048 233.558787 C 44.986944 233.087202 42.429517 232.478056 39.911433 231.741198 C 37.688439 231.092775 35.514626 230.296956 33.409665 229.343951 C 31.501429 228.489201 29.671886 227.477251 27.940703 226.317935 C 26.31772 225.227385 24.802935 223.979634 23.416022 222.604172 C 22.029109 221.218876 20.779904 219.705853 19.678243 218.074952 C 18.517564 216.355617 17.504428 214.528209 16.648674 212.63202 C 15.704392 210.5197 14.897819 208.358253 14.248626 206.137845 C 13.50107 203.622706 12.901057 201.078094 12.419081 198.503994 C 11.878086 195.576216 11.445291 192.628784 11.120694 189.671533 C 10.746916 186.301629 10.471501 182.931739 10.274776 179.552015 C 10.058378 175.739999 9.900997 171.918164 9.822307 168.096328 C 9.733781 163.802907 9.6846 159.519306 9.6846 155.225886 C 9.6846 155.225886 9.6846 155.225886 9.6846 155.225886 L 9.6846 97.014106 C 9.6846 97.014106 9.6846 97.014106 9.6846 97.014106 C 9.6846 92.720685 9.733781 88.437084 9.822307 84.143656 C 9.900997 80.321821 10.058378 76.509812 10.274776 72.687976 C 10.471501 69.308252 10.746916 65.938355 11.120694 62.578282 C 11.445291 59.6112 11.878086 56.663768 12.419081 53.735987 C 12.901057 51.161898 13.50107 48.617282 14.248626 46.102139 C 14.897819 43.891565 15.704392 41.720292 16.648674 39.607968 C 17.504428 37.711787 18.517564 35.894202 19.678243 34.165043 C 20.779904 32.543956 22.029109 31.030941 23.416022 29.645648 C 24.802935 28.260355 26.31772 27.012609 27.940703 25.922059 C 29.671886 24.762737 31.501429 23.750785 33.409665 22.896029 C 35.514626 21.952852 37.688439 21.147221 39.911433 20.498786 C 42.429517 19.761928 44.986944 19.152792 47.564048 18.681203 C 50.495253 18.131016 53.455967 17.698726 56.426518 17.384332 C 59.790522 17.010992 63.174195 16.735898 66.557868 16.539402 C 70.384173 16.323257 74.210479 16.175886 78.036784 16.087463 C 82.335234 15.99904 86.633683 15.949916 90.932125 15.959741 C 90.932125 15.959741 90.932125 15.959741 90.941963 15.959741 L 165.06803 15.959741 C 165.077876 15.959741 165.077876 15.959741 165.077876 15.959741 Z"/>
 </g>
</svg>
