<svg xmlns="http://www.w3.org/2000/svg" style="isolation:isolate" width="256" height="256" viewBox="0 0 256 256">
 <g filter="url(#Sa0F5qK4jzrQ5F16rlXgYk56u4OeB5Mg)">
  <linearGradient id="_lgradient_258" x1=".25" x2=".75" y1=".036" y2=".844" gradientTransform="matrix(244.648,0,0,228.338,5.68,11.95)" gradientUnits="userSpaceOnUse">
   <stop offset="0%" style="stop-color:#f61111"/>
   <stop offset="48.272%" style="stop-color:#ff4f4f"/>
   <stop offset="100%" style="stop-color:#ff7a55"/>
  </linearGradient>
  <path fill="url(#_lgradient_258)" d="M 165.689 11.95 C 239.745 11.95 250.328 22.507 250.328 96.494 L 250.328 155.745 C 250.328 229.731 239.745 240.288 165.689 240.288 L 90.319 240.288 C 16.264 240.288 5.68 229.731 5.68 155.745 L 5.68 96.494 C 5.68 22.507 16.264 11.95 90.319 11.95 L 165.689 11.95 L 165.689 11.95 Z"/>
 </g>
 <defs>
  <filter id="Sa0F5qK4jzrQ5F16rlXgYk56u4OeB5Mg" width="400%" height="400%" x="-200%" y="-200%" color-interpolation-filters="sRGB" filterUnits="objectBoundingBox">
   <feGaussianBlur xmlns="http://www.w3.org/2000/svg" in="SourceGraphic" stdDeviation="4.294"/>
   <feOffset xmlns="http://www.w3.org/2000/svg" dx="0" dy="4" result="pf_100_offsetBlur"/>
   <feFlood xmlns="http://www.w3.org/2000/svg" flood-opacity=".4"/>
   <feComposite xmlns="http://www.w3.org/2000/svg" in2="pf_100_offsetBlur" operator="in" result="pf_100_dropShadow"/>
   <feBlend xmlns="http://www.w3.org/2000/svg" in="SourceGraphic" in2="pf_100_dropShadow" mode="normal"/>
  </filter>
 </defs>
 <path fill="#ffffff" fill-rule="evenodd" d="M 165.689 11.95 C 239.745 11.95 250.328 22.507 250.328 96.494 L 250.328 155.745 C 250.328 229.731 239.745 240.288 165.689 240.288 L 90.319 240.288 C 16.264 240.288 5.68 229.731 5.68 155.745 L 5.68 96.494 C 5.68 22.507 16.264 11.95 90.319 11.95 L 165.689 11.95 L 165.689 11.95 Z M 165.7 19.95 C 170.02 19.95 174.35 19.99 178.67 20.08 C 182.49 20.17 186.32 20.32 190.13 20.54 C 193.47 20.72 196.81 21 200.13 21.36 C 203 21.68 205.86 22.1 208.7 22.62 C 211.12 23.07 213.52 23.64 215.88 24.33 C 217.88 24.92 219.84 25.64 221.74 26.49 C 223.36 27.22 224.93 28.09 226.41 29.08 C 227.74 29.98 228.99 31 230.13 32.14 C 231.26 33.28 232.29 34.52 233.19 35.85 C 234.18 37.33 235.05 38.89 235.78 40.51 C 236.63 42.41 237.35 44.36 237.94 46.36 C 238.629951 48.719792 239.200673 51.112821 239.65 53.53 C 240.18 56.36 240.6 59.22 240.91 62.09 C 241.28 65.41 241.55 68.74 241.74 72.07 C 241.96 75.89 242.11 79.71 242.19 83.53 C 242.29 87.84 242.33 92.16 242.33 96.48 L 242.33 155.75 C 242.33 160.07 242.29 164.39 242.19 168.71 C 242.11 172.53 241.96 176.35 241.74 180.16 C 241.55 183.5 241.28 186.83 240.91 190.15 C 240.6 193.02 240.18 195.87 239.65 198.71 C 239.200673 201.127179 238.629951 203.520208 237.94 205.88 C 237.35 207.88 236.63 209.83 235.78 211.73 C 235.05 213.35 234.18 214.91 233.19 216.39 C 232.29 217.72 231.26 218.96 230.13 220.1 C 228.990027 221.235862 227.744396 222.260495 226.41 223.16 C 224.93 224.15 223.36 225.02 221.74 225.75 C 219.84 226.6 217.88 227.32 215.88 227.91 C 213.52 228.6 211.12 229.17 208.7 229.62 C 205.86 230.14 203 230.56 200.13 230.87 C 196.81 231.24 193.47 231.51 190.13 231.7 C 186.32 231.92 182.49 232.07 178.67 232.15 C 174.35 232.25 170.02 232.29 165.7 232.29 L 90.31 232.29 C 85.99 232.29 81.66 232.25 77.34 232.15 C 73.51 232.07 69.69 231.92 65.87 231.7 C 62.54 231.51 59.2 231.24 55.88 230.87 C 53 230.56 50.15 230.14 47.31 229.62 C 44.88 229.17 42.49 228.6 40.12 227.91 C 38.13 227.32 36.17 226.6 34.27 225.75 C 32.64 225.02 31.08 224.15 29.6 223.16 C 28.27 222.26 27.02 221.24 25.88 220.1 C 24.747134 218.960923 23.722718 217.718903 22.82 216.39 C 21.83 214.91 20.96 213.35 20.23 211.73 C 19.380159 209.830428 18.658543 207.876051 18.07 205.88 C 17.38 203.52 16.8 201.13 16.36 198.71 C 15.83 195.87 15.41 193.02 15.1 190.15 C 14.73 186.83 14.46 183.5 14.27 180.16 C 14.05 176.35 13.9 172.53 13.82 168.71 C 13.72 164.39 13.68 160.07 13.68 155.75 L 13.68 96.48 C 13.68 92.16 13.72 87.84 13.82 83.53 C 13.9 79.71 14.05 75.89 14.27 72.07 C 14.46 68.74 14.73 65.41 15.1 62.09 C 15.41 59.22 15.83 56.36 16.36 53.53 C 16.8 51.11 17.38 48.72 18.07 46.36 C 18.66 44.36 19.38 42.41 20.23 40.51 C 20.96 38.89 21.83 37.33 22.82 35.85 C 23.72 34.52 24.75 33.28 25.88 32.14 C 27.02 31 28.27 29.98 29.6 29.08 C 31.08 28.09 32.64 27.22 34.27 26.49 C 36.17 25.64 38.13 24.92 40.12 24.33 C 42.49 23.64 44.88 23.07 47.31 22.62 C 50.15 22.1 53 21.68 55.88 21.36 C 59.2 21 62.54 20.72 65.87 20.54 C 69.69 20.32 73.51 20.17 77.34 20.08 C 81.66 19.99 85.99 19.95 90.31 19.95 L 165.7 19.95 L 165.7 19.95 Z"/>
 <g opacity=".1">
  <path fill="#ffffff" d="M 6.357 83.58 L 211.766 236.61 C 200.204 238.921 185.34 239.629 166.243 239.629 L 90.873 239.629 C 16.818 239.629 6.234 229.071 6.234 155.085 L 6.234 95.834 C 6.234 91.531 6.275 87.464 6.357 83.58 Z"/>
 </g>
 <g>
  <path fill="#ffffff" d="M 55.5 197.439 L 64.676 188.49 L 75.735 199.323 L 55.5 197.439 L 55.5 197.439 Z M 67.5 186.371 L 80.911 200.5 C 81.401 196.711 79.616 192.256 77.853 186.135 Q 116.591 169.501 130.793 152.696 L 122.793 144.218 C 116.675 147.123 110.89 148.319 105.382 147.751 L 67.5 186.371 L 67.5 186.371 Z M 125.381 142.57 L 133.146 151.047 C 153.99 132.441 167.028 115.897 172.204 101.359 L 125.381 142.57 L 125.381 142.57 Z M 118.087 134.563 L 123.499 139.979 L 171.028 97.592 C 175.733 93.588 167.028 85.346 161.851 90.291 L 118.087 134.563 L 118.087 134.563 Z M 115.028 132.444 L 106.087 123.731 C 135.993 93.025 155.384 79.935 163.263 84.875 L 115.028 132.444 L 115.028 132.444 Z M 92.205 137.625 L 104.205 126.557 L 111.97 134.328 C 104.754 136.369 98.185 137.486 92.205 137.625 Z"/>
  <path fill="#ffffff" d="M 176.91 76.751 L 189.615 90.291 C 176.204 93.588 163.616 85.464 165.028 72.63 C 168.557 53.084 188.204 52.378 193.615 60.031 Q 186.321 67.214 176.91 76.751 L 176.91 76.751 Z M 108.911 143.747 L 115.97 137.389 L 120.911 142.57 C 116.048 143.512 111.283 144.08 108.911 143.747 Z"/>
  <path fill="#ffffff" fill-rule="evenodd" d="M 193.027 88.054 L 181.263 76.28 L 196.674 61.562 C 203.38 71.452 200.707 82.038 193.027 88.054 L 193.027 88.054 Z M 193.38 79.812 L 193.615 69.922 L 197.968 69.804 C 197.968 75.456 197.262 78.988 193.38 79.812 L 193.38 79.812 Z"/>
 </g>
 <g opacity=".4">
  <linearGradient id="_lgradient_259" x1=".517" x2=".517" y1="0" y2="1" gradientTransform="matrix(244.65,0,0,228.34,5.68,11.95)" gradientUnits="userSpaceOnUse">
   <stop offset="0%" style="stop-color:#ffffff"/>
   <stop offset="12.5%" stop-opacity=".098" style="stop-color:#ffffff"/>
   <stop offset="92.5%" stop-opacity=".098" style="stop-color:#000000"/>
   <stop offset="100%" stop-opacity=".498" style="stop-color:#000000"/>
  </linearGradient>
  <path fill="url(#_lgradient_259)" fill-rule="evenodd" d="M 165.06803 11.951234 C 169.395994 11.941409 173.723944 11.990533 178.051908 12.088781 C 181.927398 12.167379 185.802873 12.31475 189.678362 12.540721 C 193.1309 12.737216 196.583423 13.022134 200.026115 13.395476 C 203.085193 13.729518 206.144271 14.181458 209.173842 14.741469 C 211.888645 15.242533 214.57394 15.881143 217.219897 16.6573 C 219.619947 17.354858 221.970814 18.219439 224.242988 19.241215 C 226.357793 20.184394 228.384061 21.304417 230.302129 22.591462 C 232.141505 23.829383 233.862851 25.244151 235.436659 26.80629 C 237.000621 28.378252 238.417046 30.087764 239.656409 31.924995 C 240.944972 33.840824 242.066305 35.864728 243.020409 37.967229 C 244.043389 40.246576 244.908985 42.584873 245.617197 44.972292 C 246.394255 47.615155 247.033606 50.297317 247.535265 53.008956 C 248.095924 56.034984 248.548399 59.080665 248.882828 62.13617 C 249.256611 65.574836 249.541856 69.013506 249.738578 72.462003 C 249.964823 76.323139 250.112361 80.194101 250.200884 84.055237 C 250.289421 88.378131 250.338591 92.701032 250.32876 97.014106 L 250.32876 155.225886 C 250.338591 159.54878 250.289421 163.861854 250.200884 168.184747 C 250.112361 172.05571 249.964823 175.916853 249.738578 179.777981 C 249.541856 183.226485 249.256611 186.674975 248.882828 190.103826 C 248.548399 193.15933 248.095924 196.214835 247.535265 199.240851 C 247.033606 201.942664 246.394255 204.624837 245.617197 207.267703 C 244.908985 209.655115 244.043389 212.003235 243.020409 214.272755 C 242.066305 216.38509 240.944972 218.399156 239.656409 220.314999 C 238.417046 222.152226 237.000621 223.871561 235.436659 225.433697 C 233.862851 226.995832 232.141505 228.410601 230.302129 229.648532 C 228.384061 230.935575 226.357793 232.055598 224.242988 232.998768 C 221.970814 234.020552 219.619947 234.885137 217.219897 235.592507 C 214.57394 236.368672 211.888645 237.007276 209.173842 237.498515 C 206.144271 238.068354 203.085193 238.510465 200.026115 238.844519 C 196.583423 239.21785 193.1309 239.502777 189.678362 239.699269 C 185.802873 239.925235 181.927398 240.072615 178.051908 240.161035 C 173.723944 240.249454 169.395994 240.298581 165.06803 240.288762 L 90.941963 240.288762 C 86.614006 240.298581 82.286049 240.249454 77.9581 240.161035 C 74.08261 240.072615 70.20712 239.925235 66.331638 239.699269 C 62.879108 239.502777 59.426578 239.21785 55.983886 238.844519 C 52.924808 238.510465 49.865733 238.068354 46.836162 237.498515 C 44.121356 237.007276 41.436057 236.368672 38.7901 235.592507 C 36.390053 234.885137 34.039187 234.020552 31.767009 232.998768 C 29.652213 232.055598 27.625943 230.935575 25.707871 229.648532 C 23.868489 228.410601 22.147143 226.995832 20.573343 225.433697 C 19.009377 223.871561 17.592955 222.152226 16.353586 220.314999 C 15.065036 218.399156 13.943701 216.38509 12.989584 214.272755 C 11.966612 212.003235 11.101021 209.655115 10.392811 207.267703 C 9.615746 204.624837 8.976389 201.942664 8.47474 199.240851 C 7.914072 196.214835 7.461604 193.15933 7.127172 190.103826 C 6.753394 186.674975 6.468142 183.226485 6.271417 179.777981 C 6.045183 175.916853 5.897639 172.05571 5.809112 168.184747 C 5.720586 163.861854 5.671405 159.54878 5.681241 155.225886 L 5.681241 97.014106 C 5.671405 92.701032 5.720586 88.378131 5.809112 84.055237 C 5.897639 80.194101 6.045183 76.323139 6.271417 72.462003 C 6.468142 69.013506 6.753394 65.574836 7.127172 62.13617 C 7.461604 59.080665 7.914072 56.034984 8.47474 53.008956 C 8.976389 50.297317 9.615746 47.615155 10.392811 44.972292 C 11.101021 42.584873 11.966612 40.246576 12.989584 37.967229 C 13.943701 35.864728 15.065036 33.840824 16.353586 31.924995 C 17.592955 30.087764 19.009377 28.378252 20.573343 26.80629 C 22.147143 25.244151 23.868489 23.829383 25.707871 22.591462 C 27.625943 21.304417 29.652213 20.184394 31.767009 19.241215 C 34.039187 18.219439 36.390053 17.354858 38.7901 16.6573 C 41.436057 15.881143 44.121356 15.242533 46.836162 14.741469 C 49.865733 14.181458 52.924808 13.729518 55.983886 13.395476 C 59.426578 13.022134 62.879108 12.737216 66.331638 12.540721 C 70.20712 12.31475 74.08261 12.167379 77.9581 12.088781 C 82.286049 11.990533 86.614006 11.941409 90.941963 11.951234 L 165.06803 11.951234 Z M 165.077876 15.959741 C 169.376317 15.949916 173.674759 15.99904 177.973216 16.087463 C 181.799522 16.175886 185.625827 16.323257 189.452133 16.539402 C 192.835809 16.735898 196.219486 17.010992 199.583486 17.384332 C 202.554026 17.698726 205.514751 18.131016 208.445953 18.681203 C 211.023049 19.152792 213.580483 19.761928 216.098564 20.498786 C 218.321569 21.147221 220.495374 21.952852 222.600334 22.896029 C 224.508571 23.750785 226.338116 24.762737 228.069293 25.922059 C 229.692286 27.012609 231.207063 28.260355 232.59398 29.645648 C 233.980897 31.030941 235.230091 32.543956 236.331763 34.165043 C 237.492434 35.894202 238.505568 37.711787 239.361333 39.607968 C 240.305606 41.720292 241.112187 43.891565 241.761369 46.102139 C 242.508934 48.617282 243.108947 51.161898 243.590914 53.735987 C 244.131912 56.663768 244.564709 59.6112 244.889308 62.578282 C 245.263091 65.938355 245.538505 69.308252 245.735227 72.687976 C 245.951626 76.509812 246.10901 80.321821 246.187687 84.143656 C 246.276225 88.437084 246.325394 92.720685 246.325394 97.014106 C 246.325394 97.014106 246.325394 97.014106 246.325394 97.014106 L 246.325394 155.225886 C 246.325394 155.225886 246.325394 155.225886 246.325394 155.225886 C 246.325394 159.519306 246.276225 163.802907 246.187687 168.096328 C 246.10901 171.918164 245.951626 175.739999 245.735227 179.552015 C 245.538505 182.931739 245.263091 186.301629 244.889308 189.671533 C 244.564709 192.628784 244.131912 195.576216 243.590914 198.503994 C 243.108947 201.078094 242.508934 203.622706 241.761369 206.137845 C 241.112187 208.358253 240.305606 210.5197 239.361333 212.63202 C 238.505568 214.528209 237.492434 216.355617 236.331763 218.074952 C 235.230091 219.705853 233.980897 221.218876 232.59398 222.604172 C 231.207063 223.979634 229.692286 225.227385 228.069293 226.317935 C 226.338116 227.477251 224.508571 228.489201 222.600334 229.343951 C 220.495374 230.296956 218.321569 231.092775 216.098564 231.741198 C 213.580483 232.478056 211.023049 233.087202 208.445953 233.558787 C 205.514751 234.108972 202.554026 234.541264 199.583486 234.865483 C 196.219486 235.228995 192.835809 235.513922 189.452133 235.70058 C 185.625827 235.916726 181.799522 236.073926 177.973216 236.152526 C 173.674759 236.25078 169.376317 236.290072 165.077876 236.290072 C 165.077876 236.290072 165.077876 236.290072 165.06803 236.290072 L 90.941963 236.290072 C 90.932125 236.290072 90.932125 236.290072 90.932125 236.290072 C 86.633683 236.290072 82.335234 236.25078 78.036784 236.152526 C 74.210479 236.073926 70.384173 235.916726 66.557868 235.70058 C 63.174195 235.513922 59.790522 235.228995 56.426518 234.865483 C 53.455967 234.541264 50.495253 234.108972 47.564048 233.558787 C 44.986944 233.087202 42.429517 232.478056 39.911433 231.741198 C 37.688439 231.092775 35.514626 230.296956 33.409665 229.343951 C 31.501429 228.489201 29.671886 227.477251 27.940703 226.317935 C 26.31772 225.227385 24.802935 223.979634 23.416022 222.604172 C 22.029109 221.218876 20.779904 219.705853 19.678243 218.074952 C 18.517564 216.355617 17.504428 214.528209 16.648674 212.63202 C 15.704392 210.5197 14.897819 208.358253 14.248626 206.137845 C 13.50107 203.622706 12.901057 201.078094 12.419081 198.503994 C 11.878086 195.576216 11.445291 192.628784 11.120694 189.671533 C 10.746916 186.301629 10.471501 182.931739 10.274776 179.552015 C 10.058378 175.739999 9.900997 171.918164 9.822307 168.096328 C 9.733781 163.802907 9.6846 159.519306 9.6846 155.225886 C 9.6846 155.225886 9.6846 155.225886 9.6846 155.225886 L 9.6846 97.014106 C 9.6846 97.014106 9.6846 97.014106 9.6846 97.014106 C 9.6846 92.720685 9.733781 88.437084 9.822307 84.143656 C 9.900997 80.321821 10.058378 76.509812 10.274776 72.687976 C 10.471501 69.308252 10.746916 65.938355 11.120694 62.578282 C 11.445291 59.6112 11.878086 56.663768 12.419081 53.735987 C 12.901057 51.161898 13.50107 48.617282 14.248626 46.102139 C 14.897819 43.891565 15.704392 41.720292 16.648674 39.607968 C 17.504428 37.711787 18.517564 35.894202 19.678243 34.165043 C 20.779904 32.543956 22.029109 31.030941 23.416022 29.645648 C 24.802935 28.260355 26.31772 27.012609 27.940703 25.922059 C 29.671886 24.762737 31.501429 23.750785 33.409665 22.896029 C 35.514626 21.952852 37.688439 21.147221 39.911433 20.498786 C 42.429517 19.761928 44.986944 19.152792 47.564048 18.681203 C 50.495253 18.131016 53.455967 17.698726 56.426518 17.384332 C 59.790522 17.010992 63.174195 16.735898 66.557868 16.539402 C 70.384173 16.323257 74.210479 16.175886 78.036784 16.087463 C 82.335234 15.99904 86.633683 15.949916 90.932125 15.959741 C 90.932125 15.959741 90.932125 15.959741 90.941963 15.959741 L 165.06803 15.959741 C 165.077876 15.959741 165.077876 15.959741 165.077876 15.959741 Z"/>
 </g>
</svg>
