<svg xmlns="http://www.w3.org/2000/svg" style="isolation:isolate" width="256" height="256" viewBox="0 0 256 256">
 <defs>
  <clipPath id="_clipPath_i9kq0NUJOb8BwowJj270IL5zcykBRWSs">
   <rect width="256" height="256"/>
  </clipPath>
 </defs>
 <g clip-path="url(#_clipPath_i9kq0NUJOb8BwowJj270IL5zcykBRWSs)">
  <defs>
   <filter id="QOBBeeI3NsDkMSxJzFUKLguqUSB2di2w" width="400%" height="400%" x="-200%" y="-200%" color-interpolation-filters="sRGB" filterUnits="objectBoundingBox">
    <feGaussianBlur xmlns="http://www.w3.org/2000/svg" in="SourceGraphic" stdDeviation="4.294"/>
    <feOffset xmlns="http://www.w3.org/2000/svg" dx="0" dy="4" result="pf_100_offsetBlur"/>
    <feFlood xmlns="http://www.w3.org/2000/svg" flood-opacity=".4"/>
    <feComposite xmlns="http://www.w3.org/2000/svg" in2="pf_100_offsetBlur" operator="in" result="pf_100_dropShadow"/>
    <feBlend xmlns="http://www.w3.org/2000/svg" in="SourceGraphic" in2="pf_100_dropShadow" mode="normal"/>
   </filter>
  </defs>
  <g filter="url(#QOBBeeI3NsDkMSxJzFUKLguqUSB2di2w)">
   <linearGradient id="_lgradient_435" x1="0" x2="0" y1="0" y2="1" gradientTransform="matrix(244.648,0,0,228.338,5.68,11.95)" gradientUnits="userSpaceOnUse">
    <stop offset="0%" style="stop-color:#4c5561"/>
    <stop offset="100%" style="stop-color:#2e3842"/>
   </linearGradient>
   <path fill="url(#_lgradient_435)" d="M 165.689 11.95 C 239.745 11.95 250.328 22.507 250.328 96.494 L 250.328 155.745 C 250.328 229.731 239.745 240.288 165.689 240.288 L 90.319 240.288 C 16.264 240.288 5.68 229.731 5.68 155.745 L 5.68 96.494 C 5.68 22.507 16.264 11.95 90.319 11.95 L 165.689 11.95 Z"/>
  </g>
  <g opacity=".4">
   <linearGradient id="_lgradient_436" x1=".517" x2=".517" y1="0" y2="1" gradientTransform="matrix(244.65,0,0,228.34,5.68,11.95)" gradientUnits="userSpaceOnUse">
    <stop offset="0%" style="stop-color:#ffffff"/>
    <stop offset="12.5%" stop-opacity=".098" style="stop-color:#ffffff"/>
    <stop offset="92.5%" stop-opacity=".098" style="stop-color:#000000"/>
    <stop offset="100%" stop-opacity=".498" style="stop-color:#000000"/>
   </linearGradient>
   <path fill="url(#_lgradient_436)" fill-rule="evenodd" d="M 165.068 11.951 C 169.396 11.941 173.724 11.991 178.052 12.089 C 181.927 12.167 185.803 12.315 189.678 12.541 C 193.131 12.737 196.583 13.022 200.026 13.395 C 203.085 13.73 206.144 14.181 209.174 14.741 C 211.889 15.243 214.574 15.881 217.22 16.657 C 219.62 17.355 221.971 18.219 224.243 19.241 C 226.358 20.184 228.384 21.304 230.302 22.591 C 232.142 23.829 233.863 25.244 235.437 26.806 C 237.001 28.378 238.417 30.088 239.656 31.925 C 240.945 33.841 242.066 35.865 243.02 37.967 C 244.043 40.247 244.909 42.585 245.617 44.972 C 246.394 47.615 247.034 50.297 247.535 53.009 C 248.096 56.035 248.548 59.081 248.883 62.136 C 249.257 65.575 249.542 69.014 249.739 72.462 C 249.965 76.323 250.112 80.194 250.201 84.055 C 250.289 88.378 250.339 92.701 250.329 97.014 L 250.329 155.226 C 250.339 159.549 250.289 163.862 250.201 168.185 C 250.112 172.056 249.965 175.917 249.739 179.778 C 249.542 183.226 249.257 186.675 248.883 190.104 C 248.548 193.159 248.096 196.215 247.535 199.241 C 247.034 201.943 246.394 204.625 245.617 207.268 C 244.909 209.655 244.043 212.003 243.02 214.273 C 242.066 216.385 240.945 218.399 239.656 220.315 C 238.417 222.152 237.001 223.872 235.437 225.434 C 233.863 226.996 232.142 228.411 230.302 229.649 C 228.384 230.936 226.358 232.056 224.243 232.999 C 221.971 234.021 219.62 234.885 217.22 235.593 C 214.574 236.369 211.889 237.007 209.174 237.499 C 206.144 238.068 203.085 238.51 200.026 238.845 C 196.583 239.218 193.131 239.503 189.678 239.699 C 185.803 239.925 181.927 240.073 178.052 240.161 C 173.724 240.249 169.396 240.299 165.068 240.289 L 90.942 240.289 C 86.614 240.299 82.286 240.249 77.958 240.161 C 74.083 240.073 70.207 239.925 66.332 239.699 C 62.879 239.503 59.427 239.218 55.984 238.845 C 52.925 238.51 49.866 238.068 46.836 237.499 C 44.121 237.007 41.436 236.369 38.79 235.593 C 36.39 234.885 34.039 234.021 31.767 232.999 C 29.652 232.056 27.626 230.936 25.708 229.649 C 23.868 228.411 22.147 226.996 20.573 225.434 C 19.009 223.872 17.593 222.152 16.354 220.315 C 15.065 218.399 13.944 216.385 12.99 214.273 C 11.967 212.003 11.101 209.655 10.393 207.268 C 9.616 204.625 8.976 201.943 8.475 199.241 C 7.914 196.215 7.462 193.159 7.127 190.104 C 6.753 186.675 6.468 183.226 6.271 179.778 C 6.045 175.917 5.898 172.056 5.809 168.185 C 5.721 163.862 5.671 159.549 5.681 155.226 L 5.681 97.014 C 5.671 92.701 5.721 88.378 5.809 84.055 C 5.898 80.194 6.045 76.323 6.271 72.462 C 6.468 69.014 6.753 65.575 7.127 62.136 C 7.462 59.081 7.914 56.035 8.475 53.009 C 8.976 50.297 9.616 47.615 10.393 44.972 C 11.101 42.585 11.967 40.247 12.99 37.967 C 13.944 35.865 15.065 33.841 16.354 31.925 C 17.593 30.088 19.009 28.378 20.573 26.806 C 22.147 25.244 23.868 23.829 25.708 22.591 C 27.626 21.304 29.652 20.184 31.767 19.241 C 34.039 18.219 36.39 17.355 38.79 16.657 C 41.436 15.881 44.121 15.243 46.836 14.741 C 49.866 14.181 52.925 13.73 55.984 13.395 C 59.427 13.022 62.879 12.737 66.332 12.541 C 70.207 12.315 74.083 12.167 77.958 12.089 C 82.286 11.991 86.614 11.941 90.942 11.951 L 165.068 11.951 Z M 165.078 15.96 C 169.376 15.95 173.675 15.999 177.973 16.087 C 181.8 16.176 185.626 16.323 189.452 16.539 C 192.836 16.736 196.219 17.011 199.583 17.384 C 202.554 17.699 205.515 18.131 208.446 18.681 C 211.023 19.153 213.58 19.762 216.099 20.499 C 218.322 21.147 220.495 21.953 222.6 22.896 C 224.509 23.751 226.338 24.763 228.069 25.922 C 229.692 27.013 231.207 28.26 232.594 29.646 C 233.981 31.031 235.23 32.544 236.332 34.165 C 237.492 35.894 238.506 37.712 239.361 39.608 C 240.306 41.72 241.112 43.892 241.761 46.102 C 242.509 48.617 243.109 51.162 243.591 53.736 C 244.132 56.664 244.565 59.611 244.889 62.578 C 245.263 65.938 245.539 69.308 245.735 72.688 C 245.952 76.51 246.109 80.322 246.188 84.144 C 246.276 88.437 246.325 92.721 246.325 97.014 C 246.325 97.014 246.325 97.014 246.325 97.014 L 246.325 155.226 C 246.325 155.226 246.325 155.226 246.325 155.226 C 246.325 159.519 246.276 163.803 246.188 168.096 C 246.109 171.918 245.952 175.74 245.735 179.552 C 245.539 182.932 245.263 186.302 244.889 189.672 C 244.565 192.629 244.132 195.576 243.591 198.504 C 243.109 201.078 242.509 203.623 241.761 206.138 C 241.112 208.358 240.306 210.52 239.361 212.632 C 238.506 214.528 237.492 216.356 236.332 218.075 C 235.23 219.706 233.981 221.219 232.594 222.604 C 231.207 223.98 229.692 225.227 228.069 226.318 C 226.338 227.477 224.509 228.489 222.6 229.344 C 220.495 230.297 218.322 231.093 216.099 231.741 C 213.58 232.478 211.023 233.087 208.446 233.559 C 205.515 234.109 202.554 234.541 199.583 234.865 C 196.219 235.229 192.836 235.514 189.452 235.701 C 185.626 235.917 181.8 236.074 177.973 236.153 C 173.675 236.251 169.376 236.29 165.078 236.29 C 165.078 236.29 165.078 236.29 165.068 236.29 L 90.942 236.29 C 90.932 236.29 90.932 236.29 90.932 236.29 C 86.634 236.29 82.335 236.251 78.037 236.153 C 74.21 236.074 70.384 235.917 66.558 235.701 C 63.174 235.514 59.791 235.229 56.427 234.865 C 53.456 234.541 50.495 234.109 47.564 233.559 C 44.987 233.087 42.43 232.478 39.911 231.741 C 37.688 231.093 35.515 230.297 33.41 229.344 C 31.501 228.489 29.672 227.477 27.941 226.318 C 26.318 225.227 24.803 223.98 23.416 222.604 C 22.029 221.219 20.78 219.706 19.678 218.075 C 18.518 216.356 17.504 214.528 16.649 212.632 C 15.704 210.52 14.898 208.358 14.249 206.138 C 13.501 203.623 12.901 201.078 12.419 198.504 C 11.878 195.576 11.445 192.629 11.121 189.672 C 10.747 186.302 10.472 182.932 10.275 179.552 C 10.058 175.74 9.901 171.918 9.822 168.096 C 9.734 163.803 9.685 159.519 9.685 155.226 C 9.685 155.226 9.685 155.226 9.685 155.226 L 9.685 97.014 C 9.685 97.014 9.685 97.014 9.685 97.014 C 9.685 92.721 9.734 88.437 9.822 84.144 C 9.901 80.322 10.058 76.51 10.275 72.688 C 10.472 69.308 10.747 65.938 11.121 62.578 C 11.445 59.611 11.878 56.664 12.419 53.736 C 12.901 51.162 13.501 48.617 14.249 46.102 C 14.898 43.892 15.704 41.72 16.649 39.608 C 17.504 37.712 18.518 35.894 19.678 34.165 C 20.78 32.544 22.029 31.031 23.416 29.646 C 24.803 28.26 26.318 27.013 27.941 25.922 C 29.672 24.763 31.501 23.751 33.41 22.896 C 35.515 21.953 37.688 21.147 39.911 20.499 C 42.43 19.762 44.987 19.153 47.564 18.681 C 50.495 18.131 53.456 17.699 56.427 17.384 C 59.791 17.011 63.174 16.736 66.558 16.539 C 70.384 16.323 74.21 16.176 78.037 16.087 C 82.335 15.999 86.634 15.95 90.932 15.96 C 90.932 15.96 90.932 15.96 90.942 15.96 L 165.068 15.96 C 165.078 15.96 165.078 15.96 165.078 15.96 Z"/>
  </g>
  <linearGradient id="_lgradient_437" x1="-.016" x2="1.016" y1=".5" y2=".5" gradientTransform="matrix(145.697,0,0,92.726,55,79.637)" gradientUnits="userSpaceOnUse">
   <stop offset="0%" style="stop-color:#e88720"/>
   <stop offset="50%" stop-opacity=".988" style="stop-color:#ffe000"/>
   <stop offset="75%" stop-opacity=".98" style="stop-color:#54ec18"/>
   <stop offset="100%" stop-opacity=".976" style="stop-color:#1bfdc5"/>
  </linearGradient>
  <path fill="url(#_lgradient_437)" fill-rule="evenodd" d="M 169.431 95.55 L 169.469 95.55 C 170.637 95.569 171.794 95.778 172.896 96.167 C 174.026 96.557 175.109 97.079 176.125 97.715 C 177.161 98.372 178.125 99.136 179.002 99.994 C 179.892 100.855 180.671 101.824 181.318 102.88 C 181.904 103.802 182.328 104.817 182.572 105.881 C 182.723 106.583 182.837 107.295 182.913 108.017 C 183.018 108.985 183.094 109.963 183.132 110.951 C 183.198 112.328 183.246 113.704 183.265 115.081 C 183.303 116.989 183.331 118.898 183.341 120.816 C 183.379 126.693 183.388 132.57 183.388 138.448 L 183.388 167.597 L 195.912 167.597 C 195.94 160.931 195.959 154.275 195.95 147.61 C 195.959 140.252 195.931 132.893 195.893 125.525 C 195.864 118.737 195.788 111.948 195.655 105.15 C 195.625 104.479 195.524 103.814 195.352 103.165 C 195.182 102.538 194.963 101.925 194.696 101.333 C 194.433 100.698 194.109 100.091 193.728 99.519 C 192.466 96.808 190.681 94.372 188.477 92.351 C 186.208 90.285 183.637 88.579 180.853 87.29 C 180.041 86.89 179.207 86.535 178.356 86.226 C 177.656 85.971 176.935 85.781 176.201 85.657 C 175.281 85.497 174.352 85.398 173.419 85.362 C 172.024 85.304 170.627 85.278 169.231 85.286 L 168.994 85.286 C 167.608 85.286 166.222 85.315 164.835 85.372 C 163.867 85.41 162.898 85.505 161.93 85.657 C 161.18 85.771 160.43 85.951 159.708 86.179 C 158.92 86.435 158.151 86.739 157.391 87.081 C 156.25 87.598 155.143 88.187 154.078 88.847 C 153.638 89.112 153.21 89.397 152.796 89.702 C 152.597 89.834 152.416 89.986 152.245 90.157 C 151.93 90.53 151.583 90.877 151.21 91.192 C 150.592 91.736 149.802 92.045 148.979 92.066 C 148.485 92.066 148.001 91.961 147.545 91.771 C 147.202 91.622 146.871 91.445 146.558 91.24 C 145.878 90.793 145.219 90.314 144.583 89.806 C 142.195 88.015 139.512 86.656 136.655 85.79 C 133.677 84.859 130.575 84.384 127.455 84.384 C 125.48 84.384 123.514 84.584 121.587 84.973 C 119.716 85.343 117.903 85.932 116.165 86.711 C 113.302 88.031 110.695 89.847 108.465 92.075 C 106.239 94.253 104.422 96.813 103.1 99.633 C 102.749 100.386 102.464 101.167 102.246 101.969 C 101.972 103.15 101.788 104.35 101.695 105.558 C 101.515 107.846 101.391 110.125 101.334 112.422 C 101.211 116.321 101.116 120.22 101.05 124.12 C 100.993 126.665 100.945 129.209 100.879 131.744 C 100.83 133.694 100.766 135.644 100.689 137.593 C 100.631 139.064 100.539 140.533 100.413 141.999 C 100.32 143.116 100.175 144.228 99.977 145.331 C 99.812 146.227 99.57 147.107 99.255 147.961 C 98.961 148.721 98.581 149.443 98.116 150.117 C 97.679 150.727 97.183 151.293 96.635 151.807 C 96.103 152.31 95.552 152.794 94.982 153.269 C 93.822 154.231 92.492 154.969 91.061 155.443 C 89.661 155.906 88.196 156.14 86.722 156.136 C 84.128 156.126 81.578 155.463 79.307 154.209 C 76.936 152.923 74.983 150.986 73.676 148.626 C 73.151 147.642 72.786 146.581 72.594 145.483 C 72.451 144.745 72.347 144.001 72.28 143.252 C 72.176 142.235 72.1 141.216 72.053 140.195 C 71.901 136.921 71.806 133.645 71.768 130.368 C 71.692 124.775 71.625 119.183 71.587 113.59 L 71.35 84.85 L 59.785 84.85 L 60.032 115.698 C 60.07 121.936 60.137 128.165 60.213 134.403 C 60.241 136.406 60.289 138.41 60.336 140.423 C 60.374 141.856 60.431 143.28 60.507 144.714 C 60.563 145.684 60.642 146.653 60.744 147.62 C 60.811 148.246 60.906 148.873 61.039 149.481 C 61.134 149.898 61.248 150.316 61.399 150.715 C 61.551 151.123 61.713 151.522 61.903 151.911 C 63.611 155.559 66.132 158.768 69.271 161.292 C 72.44 163.887 76.137 165.76 80.104 166.78 C 80.114 166.78 80.123 166.78 80.133 166.789 C 80.455 166.865 80.778 166.922 81.101 166.97 C 81.576 167.027 82.06 167.084 82.544 167.122 C 83.719 167.214 84.897 167.258 86.076 167.255 C 86.883 167.255 87.681 167.236 88.488 167.188 C 93.045 166.938 97.47 165.568 101.372 163.2 C 105.079 160.943 108.11 157.729 110.146 153.896 C 110.601 153.089 110.991 152.253 111.313 151.389 C 111.636 150.354 111.845 149.291 111.931 148.218 C 112.026 147.268 112.092 146.319 112.139 145.369 C 112.215 144.04 112.263 142.701 112.301 141.372 C 112.424 137.166 112.519 132.96 112.586 128.753 C 112.662 124.785 112.747 120.806 112.871 116.838 C 112.928 114.473 113.041 112.109 113.231 109.754 C 113.288 108.976 113.383 108.207 113.497 107.438 C 113.59 106.821 113.717 106.209 113.877 105.605 C 114.152 104.637 114.551 103.706 115.073 102.852 C 116.461 100.546 118.442 98.655 120.808 97.373 C 123.031 96.185 125.513 95.562 128.034 95.56 C 130.578 95.543 133.081 96.202 135.288 97.468 C 137.613 98.826 139.473 100.855 140.624 103.289 C 141.084 104.334 141.388 105.441 141.526 106.574 C 141.64 107.352 141.725 108.131 141.782 108.919 C 141.868 109.992 141.925 111.065 141.972 112.138 C 142.086 115.47 142.152 118.803 142.162 122.145 C 142.2 127.624 142.219 133.102 142.209 138.581 L 142.209 167.597 L 147.878 167.597 L 154.429 167.606 L 154.61 135.162 C 154.559 132.317 154.537 129.472 154.543 126.627 C 154.515 122.031 154.61 117.436 154.809 112.85 C 154.885 110.913 155.037 108.985 155.265 107.067 C 155.35 106.336 155.474 105.605 155.635 104.884 C 155.701 104.57 155.796 104.257 155.901 103.953 C 156.015 103.602 156.176 103.27 156.385 102.956 C 157.114 101.886 157.979 100.916 158.958 100.07 C 159.947 99.204 161.019 98.438 162.158 97.782 C 163.279 97.127 164.466 96.593 165.699 96.186 C 166.887 95.786 168.13 95.571 169.383 95.55 L 169.431 95.55 L 169.431 95.55 Z M 169.431 100.298 L 169.469 100.298 L 169.393 100.298 L 169.431 100.298 C 170.079 100.31 170.721 100.428 171.33 100.649 C 172.118 100.915 172.877 101.285 173.58 101.731 C 174.34 102.206 175.052 102.766 175.688 103.393 C 176.3 103.986 176.835 104.652 177.283 105.377 C 177.425 105.605 177.558 105.843 177.663 106.089 C 177.777 106.365 177.872 106.64 177.938 106.925 C 178.052 107.447 178.138 107.969 178.194 108.501 C 178.289 109.384 178.356 110.277 178.394 111.16 C 178.451 112.498 178.498 113.837 178.517 115.176 C 178.555 117.065 178.584 118.955 178.593 120.844 C 178.631 126.712 178.641 132.58 178.641 138.448 L 178.641 172.344 L 198.276 172.344 C 198.903 172.344 199.51 172.097 199.956 171.651 C 200.398 171.207 200.647 170.607 200.65 169.98 L 200.697 147.61 L 200.64 125.506 C 200.612 118.68 200.536 111.853 200.403 105.017 C 200.363 103.967 200.204 102.926 199.928 101.912 C 199.698 101.072 199.406 100.25 199.054 99.453 C 198.73 98.671 198.339 97.918 197.887 97.202 C 196.367 94.048 194.259 91.212 191.677 88.847 C 189.064 86.462 186.102 84.489 182.894 82.998 C 181.939 82.539 180.963 82.124 179.97 81.754 C 179.005 81.415 178.015 81.155 177.008 80.976 C 175.886 80.788 174.754 80.671 173.618 80.625 C 172.15 80.558 170.681 80.53 169.212 80.539 L 169.013 80.539 C 167.551 80.539 166.089 80.568 164.626 80.634 C 163.481 80.678 162.34 80.789 161.208 80.966 C 160.202 81.118 159.214 81.356 158.246 81.659 C 157.287 81.973 156.347 82.343 155.426 82.761 C 154.11 83.359 152.832 84.037 151.6 84.793 C 151.068 85.116 150.546 85.467 150.033 85.837 C 149.557 86.17 149.118 86.552 148.723 86.977 C 148.302 86.683 147.89 86.376 147.488 86.056 C 144.648 83.914 141.454 82.287 138.051 81.251 C 134.621 80.179 131.048 79.635 127.455 79.637 C 125.166 79.637 122.888 79.865 120.647 80.321 C 118.424 80.767 116.258 81.461 114.19 82.391 C 110.827 83.95 107.762 86.083 105.132 88.695 C 102.507 91.264 100.366 94.284 98.809 97.611 C 98.328 98.641 97.937 99.712 97.641 100.81 C 97.298 102.252 97.072 103.719 96.967 105.197 C 96.777 107.552 96.654 109.916 96.587 112.28 C 96.464 116.198 96.369 120.116 96.302 124.035 C 96.255 126.57 96.198 129.105 96.131 131.63 C 96.087 133.555 96.024 135.479 95.941 137.403 C 95.886 138.804 95.797 140.203 95.676 141.6 C 95.6 142.568 95.477 143.531 95.305 144.486 C 95.194 145.098 95.029 145.698 94.812 146.281 C 94.668 146.667 94.476 147.034 94.242 147.373 C 93.985 147.728 93.695 148.058 93.378 148.36 C 92.916 148.792 92.441 149.21 91.954 149.613 C 91.251 150.202 90.442 150.65 89.57 150.933 C 88.658 151.236 87.702 151.39 86.741 151.389 C 84.936 151.383 83.162 150.92 81.585 150.041 C 80.017 149.192 78.721 147.918 77.844 146.366 C 77.568 145.817 77.37 145.233 77.256 144.629 C 77.142 144.031 77.056 143.413 76.999 142.806 C 76.914 141.856 76.847 140.916 76.8 139.967 C 76.648 136.747 76.553 133.524 76.515 130.301 C 76.432 124.718 76.372 119.135 76.335 113.552 L 76.059 80.102 L 55 80.102 L 55.285 115.736 C 55.323 121.974 55.389 128.222 55.465 134.46 C 55.494 136.492 55.541 138.514 55.598 140.546 C 55.636 142.018 55.693 143.489 55.769 144.961 C 55.826 146.024 55.911 147.078 56.025 148.132 C 56.111 148.92 56.234 149.708 56.396 150.487 C 56.538 151.123 56.719 151.75 56.937 152.357 C 57.136 152.889 57.364 153.421 57.602 153.934 C 59.622 158.221 62.585 161.996 66.27 164.976 C 69.993 168.017 74.335 170.207 78.993 171.394 C 79.022 171.404 79.05 171.413 79.079 171.413 C 79.534 171.527 80.009 171.613 80.474 171.67 C 81.035 171.746 81.604 171.812 82.174 171.85 C 83.475 171.955 84.776 172.002 86.076 172.002 C 86.969 172.002 87.861 171.983 88.754 171.926 C 94.09 171.632 99.272 170.028 103.841 167.255 C 108.26 164.564 111.877 160.738 114.314 156.174 C 114.897 155.133 115.395 154.047 115.804 152.927 C 116.251 151.541 116.536 150.098 116.659 148.645 C 116.754 147.639 116.83 146.623 116.887 145.616 C 116.953 144.249 117.01 142.872 117.048 141.505 C 117.172 137.289 117.267 133.064 117.333 128.839 C 117.409 124.88 117.495 120.92 117.618 116.961 C 117.665 114.682 117.789 112.404 117.96 110.134 C 118.017 109.46 118.093 108.795 118.197 108.14 C 118.254 107.704 118.349 107.286 118.453 106.859 C 118.614 106.313 118.844 105.789 119.137 105.301 C 120.087 103.727 121.441 102.435 123.058 101.56 C 124.594 100.737 126.31 100.306 128.053 100.307 C 129.757 100.297 131.433 100.736 132.914 101.579 C 134.387 102.441 135.567 103.724 136.304 105.263 C 136.569 105.881 136.74 106.536 136.826 107.2 C 136.921 107.893 136.997 108.577 137.054 109.27 C 137.13 110.286 137.187 111.293 137.225 112.309 C 137.339 115.594 137.405 118.879 137.415 122.174 C 137.452 127.633 137.471 133.102 137.462 138.571 L 137.462 172.344 L 147.878 172.344 L 159.158 172.363 L 159.357 135.153 L 159.357 135.096 C 159.309 132.276 159.281 129.447 159.29 126.617 C 159.262 122.088 159.347 117.569 159.547 113.049 C 159.623 111.234 159.765 109.423 159.974 107.618 C 160.041 107.048 160.135 106.488 160.259 105.928 C 160.297 105.795 160.335 105.653 160.382 105.52 C 160.866 104.829 161.434 104.201 162.072 103.649 C 162.83 102.982 163.655 102.394 164.532 101.893 C 165.374 101.396 166.269 100.995 167.2 100.696 C 167.919 100.451 168.671 100.317 169.431 100.298 L 169.431 100.298 Z"/>
  <g opacity=".9">
   <path fill="#ffffff" d="M 79.575 169.095 C 70.897 166.904 63.383 160.774 59.752 152.921 C 57.995 149.122 57.908 147.566 57.658 115.716 L 57.397 82.476 L 73.708 82.476 L 73.962 113.571 C 74.192 141.591 74.369 144.946 75.76 147.493 C 79.183 153.764 88.294 155.793 93.471 151.437 C 98.113 147.53 98.204 147.054 98.673 124.08 C 99.074 104.486 99.271 102.288 100.956 98.624 C 103.719 92.615 109.037 87.354 115.179 84.554 C 124.805 80.166 137.708 81.578 146.038 87.931 C 148.948 90.151 149.038 90.164 150.489 88.56 C 151.304 87.66 153.969 86.024 156.413 84.924 C 160.054 83.285 162.325 82.923 169.004 82.915 C 176.022 82.907 177.808 83.215 181.871 85.143 C 187.974 88.039 193.007 92.387 195.808 98.359 C 195.808 98.359 198.194 104.529 198.302 108.077 C 198.76 130.229 198.278 169.972 198.278 169.972 L 181.013 169.972 L 181.01 138.448 C 181.007 108.505 180.921 106.783 179.302 104.128 C 177.189 100.662 172.835 97.924 169.433 97.921 C 165.718 97.919 160.608 100.906 158.362 104.268 C 156.437 107.151 156.985 135.143 156.985 135.143 L 156.793 169.985 L 147.876 169.97 L 139.839 169.97 L 139.839 138.576 C 139.839 111.522 139.648 106.78 138.461 104.277 C 134.49 95.909 122.098 95.792 117.107 104.075 C 115.546 106.666 115.353 108.888 114.962 128.796 C 114.536 150.49 114.514 150.706 112.229 155.036 C 107.784 163.463 98.878 168.94 88.62 169.556 C 85.416 169.748 81.346 169.538 79.575 169.093 L 79.575 169.095 L 79.575 169.095 Z"/>
  </g>
 </g>
</svg>
