<svg xmlns="http://www.w3.org/2000/svg" style="isolation:isolate" width="256" height="256" viewBox="0 0 256 256">
 <defs>
  <filter id="LFCtZbiTKFkNRQ49WA8ibRu2HFW8ep8W" width="400%" height="400%" x="-200%" y="-200%" color-interpolation-filters="sRGB" filterUnits="objectBoundingBox">
   <feGaussianBlur xmlns="http://www.w3.org/2000/svg" in="SourceGraphic" stdDeviation="4.294"/>
   <feOffset xmlns="http://www.w3.org/2000/svg" dx="0" dy="4" result="pf_100_offsetBlur"/>
   <feFlood xmlns="http://www.w3.org/2000/svg" flood-opacity=".4"/>
   <feComposite xmlns="http://www.w3.org/2000/svg" in2="pf_100_offsetBlur" operator="in" result="pf_100_dropShadow"/>
   <feBlend xmlns="http://www.w3.org/2000/svg" in="SourceGraphic" in2="pf_100_dropShadow" mode="normal"/>
  </filter>
 </defs>
 <g filter="url(#LFCtZbiTKFkNRQ49WA8ibRu2HFW8ep8W)">
  <linearGradient id="_lgradient_569" x1="0" x2="0" y1="0" y2="1" gradientTransform="matrix(244.648,0,0,228.338,5.68,11.95)" gradientUnits="userSpaceOnUse">
   <stop offset="0%" style="stop-color:#ec57ff"/>
   <stop offset="50%" style="stop-color:#c551ff"/>
   <stop offset="100%" style="stop-color:#a90ff5"/>
  </linearGradient>
  <path fill="url(#_lgradient_569)" d="M 165.689 11.95 C 239.745 11.95 250.328 22.507 250.328 96.494 L 250.328 155.745 C 250.328 229.731 239.745 240.288 165.689 240.288 L 90.319 240.288 C 16.264 240.288 5.68 229.731 5.68 155.745 L 5.68 96.494 C 5.68 22.507 16.264 11.95 90.319 11.95 L 165.689 11.95 Z"/>
 </g>
 <g opacity=".4">
  <linearGradient id="_lgradient_570" x1=".517" x2=".517" y1="0" y2="1" gradientTransform="matrix(244.65,0,0,228.34,5.68,11.95)" gradientUnits="userSpaceOnUse">
   <stop offset="0%" style="stop-color:#ffffff"/>
   <stop offset="12.5%" stop-opacity=".098" style="stop-color:#ffffff"/>
   <stop offset="92.5%" stop-opacity=".098" style="stop-color:#000000"/>
   <stop offset="100%" stop-opacity=".498" style="stop-color:#000000"/>
  </linearGradient>
  <path fill="url(#_lgradient_570)" fill-rule="evenodd" d="M 165.068 11.951 C 169.396 11.941 173.724 11.991 178.052 12.089 C 181.927 12.167 185.803 12.315 189.678 12.541 C 193.131 12.737 196.583 13.022 200.026 13.395 C 203.085 13.73 206.144 14.181 209.174 14.741 C 211.889 15.243 214.574 15.881 217.22 16.657 C 219.62 17.355 221.971 18.219 224.243 19.241 C 226.358 20.184 228.384 21.304 230.302 22.591 C 232.142 23.829 233.863 25.244 235.437 26.806 C 237.001 28.378 238.417 30.088 239.656 31.925 C 240.945 33.841 242.066 35.865 243.02 37.967 C 244.043 40.247 244.909 42.585 245.617 44.972 C 246.394 47.615 247.034 50.297 247.535 53.009 C 248.096 56.035 248.548 59.081 248.883 62.136 C 249.257 65.575 249.542 69.014 249.739 72.462 C 249.965 76.323 250.112 80.194 250.201 84.055 C 250.289 88.378 250.339 92.701 250.329 97.014 L 250.329 155.226 C 250.339 159.549 250.289 163.862 250.201 168.185 C 250.112 172.056 249.965 175.917 249.739 179.778 C 249.542 183.226 249.257 186.675 248.883 190.104 C 248.548 193.159 248.096 196.215 247.535 199.241 C 247.034 201.943 246.394 204.625 245.617 207.268 C 244.909 209.655 244.043 212.003 243.02 214.273 C 242.066 216.385 240.945 218.399 239.656 220.315 C 238.417 222.152 237.001 223.872 235.437 225.434 C 233.863 226.996 232.142 228.411 230.302 229.649 C 228.384 230.936 226.358 232.056 224.243 232.999 C 221.971 234.021 219.62 234.885 217.22 235.593 C 214.574 236.369 211.889 237.007 209.174 237.499 C 206.144 238.068 203.085 238.51 200.026 238.845 C 196.583 239.218 193.131 239.503 189.678 239.699 C 185.803 239.925 181.927 240.073 178.052 240.161 C 173.724 240.249 169.396 240.299 165.068 240.289 L 90.942 240.289 C 86.614 240.299 82.286 240.249 77.958 240.161 C 74.083 240.073 70.207 239.925 66.332 239.699 C 62.879 239.503 59.427 239.218 55.984 238.845 C 52.925 238.51 49.866 238.068 46.836 237.499 C 44.121 237.007 41.436 236.369 38.79 235.593 C 36.39 234.885 34.039 234.021 31.767 232.999 C 29.652 232.056 27.626 230.936 25.708 229.649 C 23.868 228.411 22.147 226.996 20.573 225.434 C 19.009 223.872 17.593 222.152 16.354 220.315 C 15.065 218.399 13.944 216.385 12.99 214.273 C 11.967 212.003 11.101 209.655 10.393 207.268 C 9.616 204.625 8.976 201.943 8.475 199.241 C 7.914 196.215 7.462 193.159 7.127 190.104 C 6.753 186.675 6.468 183.226 6.271 179.778 C 6.045 175.917 5.898 172.056 5.809 168.185 C 5.721 163.862 5.671 159.549 5.681 155.226 L 5.681 97.014 C 5.671 92.701 5.721 88.378 5.809 84.055 C 5.898 80.194 6.045 76.323 6.271 72.462 C 6.468 69.014 6.753 65.575 7.127 62.136 C 7.462 59.081 7.914 56.035 8.475 53.009 C 8.976 50.297 9.616 47.615 10.393 44.972 C 11.101 42.585 11.967 40.247 12.99 37.967 C 13.944 35.865 15.065 33.841 16.354 31.925 C 17.593 30.088 19.009 28.378 20.573 26.806 C 22.147 25.244 23.868 23.829 25.708 22.591 C 27.626 21.304 29.652 20.184 31.767 19.241 C 34.039 18.219 36.39 17.355 38.79 16.657 C 41.436 15.881 44.121 15.243 46.836 14.741 C 49.866 14.181 52.925 13.73 55.984 13.395 C 59.427 13.022 62.879 12.737 66.332 12.541 C 70.207 12.315 74.083 12.167 77.958 12.089 C 82.286 11.991 86.614 11.941 90.942 11.951 L 165.068 11.951 Z M 165.078 15.96 C 169.376 15.95 173.675 15.999 177.973 16.087 C 181.8 16.176 185.626 16.323 189.452 16.539 C 192.836 16.736 196.219 17.011 199.583 17.384 C 202.554 17.699 205.515 18.131 208.446 18.681 C 211.023 19.153 213.58 19.762 216.099 20.499 C 218.322 21.147 220.495 21.953 222.6 22.896 C 224.509 23.751 226.338 24.763 228.069 25.922 C 229.692 27.013 231.207 28.26 232.594 29.646 C 233.981 31.031 235.23 32.544 236.332 34.165 C 237.492 35.894 238.506 37.712 239.361 39.608 C 240.306 41.72 241.112 43.892 241.761 46.102 C 242.509 48.617 243.109 51.162 243.591 53.736 C 244.132 56.664 244.565 59.611 244.889 62.578 C 245.263 65.938 245.539 69.308 245.735 72.688 C 245.952 76.51 246.109 80.322 246.188 84.144 C 246.276 88.437 246.325 92.721 246.325 97.014 C 246.325 97.014 246.325 97.014 246.325 97.014 L 246.325 155.226 C 246.325 155.226 246.325 155.226 246.325 155.226 C 246.325 159.519 246.276 163.803 246.188 168.096 C 246.109 171.918 245.952 175.74 245.735 179.552 C 245.539 182.932 245.263 186.302 244.889 189.672 C 244.565 192.629 244.132 195.576 243.591 198.504 C 243.109 201.078 242.509 203.623 241.761 206.138 C 241.112 208.358 240.306 210.52 239.361 212.632 C 238.506 214.528 237.492 216.356 236.332 218.075 C 235.23 219.706 233.981 221.219 232.594 222.604 C 231.207 223.98 229.692 225.227 228.069 226.318 C 226.338 227.477 224.509 228.489 222.6 229.344 C 220.495 230.297 218.322 231.093 216.099 231.741 C 213.58 232.478 211.023 233.087 208.446 233.559 C 205.515 234.109 202.554 234.541 199.583 234.865 C 196.219 235.229 192.836 235.514 189.452 235.701 C 185.626 235.917 181.8 236.074 177.973 236.153 C 173.675 236.251 169.376 236.29 165.078 236.29 C 165.078 236.29 165.078 236.29 165.068 236.29 L 90.942 236.29 C 90.932 236.29 90.932 236.29 90.932 236.29 C 86.634 236.29 82.335 236.251 78.037 236.153 C 74.21 236.074 70.384 235.917 66.558 235.701 C 63.174 235.514 59.791 235.229 56.427 234.865 C 53.456 234.541 50.495 234.109 47.564 233.559 C 44.987 233.087 42.43 232.478 39.911 231.741 C 37.688 231.093 35.515 230.297 33.41 229.344 C 31.501 228.489 29.672 227.477 27.941 226.318 C 26.318 225.227 24.803 223.98 23.416 222.604 C 22.029 221.219 20.78 219.706 19.678 218.075 C 18.518 216.356 17.504 214.528 16.649 212.632 C 15.704 210.52 14.898 208.358 14.249 206.138 C 13.501 203.623 12.901 201.078 12.419 198.504 C 11.878 195.576 11.445 192.629 11.121 189.672 C 10.747 186.302 10.472 182.932 10.275 179.552 C 10.058 175.74 9.901 171.918 9.822 168.096 C 9.734 163.803 9.685 159.519 9.685 155.226 C 9.685 155.226 9.685 155.226 9.685 155.226 L 9.685 97.014 C 9.685 97.014 9.685 97.014 9.685 97.014 C 9.685 92.721 9.734 88.437 9.822 84.144 C 9.901 80.322 10.058 76.51 10.275 72.688 C 10.472 69.308 10.747 65.938 11.121 62.578 C 11.445 59.611 11.878 56.664 12.419 53.736 C 12.901 51.162 13.501 48.617 14.249 46.102 C 14.898 43.892 15.704 41.72 16.649 39.608 C 17.504 37.712 18.518 35.894 19.678 34.165 C 20.78 32.544 22.029 31.031 23.416 29.646 C 24.803 28.26 26.318 27.013 27.941 25.922 C 29.672 24.763 31.501 23.751 33.41 22.896 C 35.515 21.953 37.688 21.147 39.911 20.499 C 42.43 19.762 44.987 19.153 47.564 18.681 C 50.495 18.131 53.456 17.699 56.427 17.384 C 59.791 17.011 63.174 16.736 66.558 16.539 C 70.384 16.323 74.21 16.176 78.037 16.087 C 82.335 15.999 86.634 15.95 90.932 15.96 C 90.932 15.96 90.932 15.96 90.942 15.96 L 165.068 15.96 C 165.078 15.96 165.078 15.96 165.078 15.96 Z"/>
 </g>
 <g>
  <linearGradient id="_lgradient_571" x1="356.88" x2="363.872" y1="-26.6" y2="-32.529" gradientTransform="matrix(25.395,0,0,27.035,134.837,89.875)" gradientUnits="userSpaceOnUse">
   <stop offset="0%" style="stop-color:#feedff"/>
   <stop offset="100%" style="stop-color:#fefcfd"/>
  </linearGradient>
  <path fill="url(#_lgradient_571)" d="M 157.049 116.91 C 155.368 116.91 153.957 115.536 153.87 113.771 C 153.338 102.558 148.245 97.062 137.847 96.48 C 136.088 96.38 134.745 94.826 134.842 93 C 134.938 91.185 136.426 89.771 138.185 89.881 C 151.908 90.644 159.533 98.797 160.228 113.44 C 160.315 115.265 158.962 116.82 157.213 116.91 L 157.049 116.91 L 157.049 116.91 Z"/>
  <linearGradient id="_lgradient_572" x1="195" x2="198.734" y1="-13.789" y2="-17.066" gradientTransform="matrix(46.584,0,0,50.455,130.001,72.135)" gradientUnits="userSpaceOnUse">
   <stop offset="0%" style="stop-color:#feedff"/>
   <stop offset="100%" style="stop-color:#fefcfd"/>
  </linearGradient>
  <path fill="url(#_lgradient_572)" d="M 173.391 122.59 L 173.314 122.59 C 171.555 122.55 170.164 121.036 170.202 119.211 C 170.454 107.918 167.342 98.771 160.703 91.249 C 154.093 83.748 145.018 79.656 132.948 78.733 C 131.199 78.603 129.875 77.018 130.011 75.203 C 130.136 73.377 131.663 72.013 133.412 72.144 C 146.99 73.177 157.746 78.101 165.399 86.786 C 173.092 95.502 176.851 106.453 176.571 119.361 C 176.532 121.156 175.112 122.59 173.391 122.59 L 173.391 122.59 Z"/>
  <linearGradient id="_lgradient_573" x1="132.143" x2="134.677" y1="-9.031" y2="-11.24" gradientTransform="matrix(68.913,0,0,74.386,124.389,55)" gradientUnits="userSpaceOnUse">
   <stop offset="0%" style="stop-color:#feedff"/>
   <stop offset="100%" style="stop-color:#fefcfd"/>
  </linearGradient>
  <path fill="url(#_lgradient_573)" d="M 190.122 129.386 C 188.373 129.386 186.953 127.922 186.943 126.107 C 186.788 105.898 181.183 90.473 169.799 78.93 C 158.551 67.567 144.335 61.73 127.549 61.609 C 125.79 61.589 124.379 60.105 124.389 58.28 C 124.399 56.464 125.829 55 127.568 55 L 127.597 55 C 146.084 55.13 161.778 61.599 174.245 74.206 C 186.73 86.853 193.147 104.303 193.302 126.056 C 193.321 127.882 191.91 129.376 190.151 129.386 L 190.122 129.386 L 190.122 129.386 Z"/>
  <path fill="#eabbe7" d="M 75.054 66.652 C 74.351 69.497 74.425 72.833 75.558 76.771 C 82.922 102.368 98.946 123.79 116.119 141.62 L 116.119 141.621 C 116.136 141.639 116.153 141.654 116.169 141.673 L 116.221 141.727 L 116.222 141.726 C 133.4 159.547 154.041 176.175 178.709 183.817 C 182.503 184.993 185.717 185.069 188.459 184.34 C 184.723 193.007 178.528 199.54 167 195.969 C 142.334 188.328 123.154 170.18 105.978 152.358 L 105.977 152.358 L 105.925 152.305 C 105.908 152.286 105.891 152.271 105.875 152.252 L 105.875 152.251 C 88.704 134.424 71.216 114.519 63.852 88.923 C 60.411 76.958 66.706 70.529 75.058 66.652 L 75.054 66.652 L 75.054 66.652 Z"/>
  <path fill="#f8e7f6" d="M 88.239 59.906 L 105.452 100.527 L 97.182 114.834 L 97.219 114.893 L 87.521 131.812 C 76.115 118.554 65.985 103.763 60.912 86.127 C 55.407 66.987 76.122 62.752 88.24 59.905 L 88.239 59.906 L 88.239 59.906 Z"/>
  <path fill="#e8bbea" d="M 194.997 170.692 L 155.855 152.829 L 142.07 161.413 C 142.051 161.402 142.032 161.387 142.013 161.374 L 125.71 171.438 C 138.485 183.276 152.737 193.789 169.731 199.053 C 188.174 204.767 192.255 183.269 194.998 170.692 L 194.997 170.692 L 194.997 170.692 Z"/>
  <path fill="#ffffff" d="M 88.235 59.908 L 105.448 100.531 L 105.21 100.942 L 88.238 60.879 C 77.635 63.37 60.452 66.923 60.006 80.591 C 59.655 66.119 77.391 62.456 88.238 59.907 L 88.235 59.908 L 88.235 59.908 Z M 96.091 117.829 C 102.229 126.39 109.072 134.311 116.114 141.623 L 116.114 141.624 C 116.131 141.642 116.148 141.657 116.165 141.676 L 116.216 141.729 C 123.391 149.172 131.174 156.405 139.599 162.864 L 142.01 161.377 C 142.029 161.388 142.048 161.403 142.067 161.416 L 155.852 152.835 L 194.995 170.697 L 194.803 171.582 L 155.852 153.807 L 142.067 162.391 L 142.011 162.352 L 139.6 163.839 C 131.175 157.379 123.393 150.147 116.217 142.704 L 116.166 142.651 C 116.149 142.632 116.131 142.617 116.114 142.598 L 116.115 142.598 C 108.955 135.164 101.996 127.101 95.78 118.375 L 96.092 117.831 L 96.091 117.829 L 96.091 117.829 Z"/>
 </g>
</svg>
