<svg xmlns="http://www.w3.org/2000/svg" style="isolation:isolate" width="256" height="256" viewBox="0 0 256 256">
 <defs>
  <filter id="Aw8kAyeL03PMfCVA507hbDmzceX5CaEI" width="400%" height="400%" x="-200%" y="-200%" color-interpolation-filters="sRGB" filterUnits="objectBoundingBox">
   <feGaussianBlur xmlns="http://www.w3.org/2000/svg" in="SourceGraphic" stdDeviation="4.294"/>
   <feOffset xmlns="http://www.w3.org/2000/svg" dx="0" dy="4" result="pf_100_offsetBlur"/>
   <feFlood xmlns="http://www.w3.org/2000/svg" flood-opacity=".4"/>
   <feComposite xmlns="http://www.w3.org/2000/svg" in2="pf_100_offsetBlur" operator="in" result="pf_100_dropShadow"/>
   <feBlend xmlns="http://www.w3.org/2000/svg" in="SourceGraphic" in2="pf_100_dropShadow" mode="normal"/>
  </filter>
 </defs>
 <g filter="url(#Aw8kAyeL03PMfCVA507hbDmzceX5CaEI)">
  <linearGradient id="_lgradient_2" x1="0" x2="0" y1="0" y2="1" gradientTransform="matrix(244.648,0,0,228.338,5.68,11.95)" gradientUnits="userSpaceOnUse">
   <stop offset="0%" style="stop-color:#16a085"/>
   <stop offset="100%" style="stop-color:#663579"/>
  </linearGradient>
  <path fill="url(#_lgradient_2)" d="M 165.689 11.95 C 239.745 11.95 250.328 22.507 250.328 96.494 L 250.328 155.745 C 250.328 229.731 239.745 240.288 165.689 240.288 L 90.319 240.288 C 16.264 240.288 5.68 229.731 5.68 155.745 L 5.68 96.494 C 5.68 22.507 16.264 11.95 90.319 11.95 L 165.689 11.95 Z"/>
 </g>
 <g opacity=".4">
  <linearGradient id="_lgradient_3" x1=".517" x2=".517" y1="0" y2="1" gradientTransform="matrix(244.65,0,0,228.34,5.68,11.95)" gradientUnits="userSpaceOnUse">
   <stop offset="0%" style="stop-color:#ffffff"/>
   <stop offset="12.5%" stop-opacity=".098" style="stop-color:#ffffff"/>
   <stop offset="92.5%" stop-opacity=".098" style="stop-color:#000000"/>
   <stop offset="100%" stop-opacity=".498" style="stop-color:#000000"/>
  </linearGradient>
  <path fill="url(#_lgradient_3)" fill-rule="evenodd" d="M 165.068 11.951 C 169.396 11.941 173.724 11.991 178.052 12.089 C 181.927 12.167 185.803 12.315 189.678 12.541 C 193.131 12.737 196.583 13.022 200.026 13.395 C 203.085 13.73 206.144 14.181 209.174 14.741 C 211.889 15.243 214.574 15.881 217.22 16.657 C 219.62 17.355 221.971 18.219 224.243 19.241 C 226.358 20.184 228.384 21.304 230.302 22.591 C 232.142 23.829 233.863 25.244 235.437 26.806 C 237.001 28.378 238.417 30.088 239.656 31.925 C 240.945 33.841 242.066 35.865 243.02 37.967 C 244.043 40.247 244.909 42.585 245.617 44.972 C 246.394 47.615 247.034 50.297 247.535 53.009 C 248.096 56.035 248.548 59.081 248.883 62.136 C 249.257 65.575 249.542 69.014 249.739 72.462 C 249.965 76.323 250.112 80.194 250.201 84.055 C 250.289 88.378 250.339 92.701 250.329 97.014 L 250.329 155.226 C 250.339 159.549 250.289 163.862 250.201 168.185 C 250.112 172.056 249.965 175.917 249.739 179.778 C 249.542 183.226 249.257 186.675 248.883 190.104 C 248.548 193.159 248.096 196.215 247.535 199.241 C 247.034 201.943 246.394 204.625 245.617 207.268 C 244.909 209.655 244.043 212.003 243.02 214.273 C 242.066 216.385 240.945 218.399 239.656 220.315 C 238.417 222.152 237.001 223.872 235.437 225.434 C 233.863 226.996 232.142 228.411 230.302 229.649 C 228.384 230.936 226.358 232.056 224.243 232.999 C 221.971 234.021 219.62 234.885 217.22 235.593 C 214.574 236.369 211.889 237.007 209.174 237.499 C 206.144 238.068 203.085 238.51 200.026 238.845 C 196.583 239.218 193.131 239.503 189.678 239.699 C 185.803 239.925 181.927 240.073 178.052 240.161 C 173.724 240.249 169.396 240.299 165.068 240.289 L 90.942 240.289 C 86.614 240.299 82.286 240.249 77.958 240.161 C 74.083 240.073 70.207 239.925 66.332 239.699 C 62.879 239.503 59.427 239.218 55.984 238.845 C 52.925 238.51 49.866 238.068 46.836 237.499 C 44.121 237.007 41.436 236.369 38.79 235.593 C 36.39 234.885 34.039 234.021 31.767 232.999 C 29.652 232.056 27.626 230.936 25.708 229.649 C 23.868 228.411 22.147 226.996 20.573 225.434 C 19.009 223.872 17.593 222.152 16.354 220.315 C 15.065 218.399 13.944 216.385 12.99 214.273 C 11.967 212.003 11.101 209.655 10.393 207.268 C 9.616 204.625 8.976 201.943 8.475 199.241 C 7.914 196.215 7.462 193.159 7.127 190.104 C 6.753 186.675 6.468 183.226 6.271 179.778 C 6.045 175.917 5.898 172.056 5.809 168.185 C 5.721 163.862 5.671 159.549 5.681 155.226 L 5.681 97.014 C 5.671 92.701 5.721 88.378 5.809 84.055 C 5.898 80.194 6.045 76.323 6.271 72.462 C 6.468 69.014 6.753 65.575 7.127 62.136 C 7.462 59.081 7.914 56.035 8.475 53.009 C 8.976 50.297 9.616 47.615 10.393 44.972 C 11.101 42.585 11.967 40.247 12.99 37.967 C 13.944 35.865 15.065 33.841 16.354 31.925 C 17.593 30.088 19.009 28.378 20.573 26.806 C 22.147 25.244 23.868 23.829 25.708 22.591 C 27.626 21.304 29.652 20.184 31.767 19.241 C 34.039 18.219 36.39 17.355 38.79 16.657 C 41.436 15.881 44.121 15.243 46.836 14.741 C 49.866 14.181 52.925 13.73 55.984 13.395 C 59.427 13.022 62.879 12.737 66.332 12.541 C 70.207 12.315 74.083 12.167 77.958 12.089 C 82.286 11.991 86.614 11.941 90.942 11.951 L 165.068 11.951 Z M 165.078 15.96 C 169.376 15.95 173.675 15.999 177.973 16.087 C 181.8 16.176 185.626 16.323 189.452 16.539 C 192.836 16.736 196.219 17.011 199.583 17.384 C 202.554 17.699 205.515 18.131 208.446 18.681 C 211.023 19.153 213.58 19.762 216.099 20.499 C 218.322 21.147 220.495 21.953 222.6 22.896 C 224.509 23.751 226.338 24.763 228.069 25.922 C 229.692 27.013 231.207 28.26 232.594 29.646 C 233.981 31.031 235.23 32.544 236.332 34.165 C 237.492 35.894 238.506 37.712 239.361 39.608 C 240.306 41.72 241.112 43.892 241.761 46.102 C 242.509 48.617 243.109 51.162 243.591 53.736 C 244.132 56.664 244.565 59.611 244.889 62.578 C 245.263 65.938 245.539 69.308 245.735 72.688 C 245.952 76.51 246.109 80.322 246.188 84.144 C 246.276 88.437 246.325 92.721 246.325 97.014 C 246.325 97.014 246.325 97.014 246.325 97.014 L 246.325 155.226 C 246.325 155.226 246.325 155.226 246.325 155.226 C 246.325 159.519 246.276 163.803 246.188 168.096 C 246.109 171.918 245.952 175.74 245.735 179.552 C 245.539 182.932 245.263 186.302 244.889 189.672 C 244.565 192.629 244.132 195.576 243.591 198.504 C 243.109 201.078 242.509 203.623 241.761 206.138 C 241.112 208.358 240.306 210.52 239.361 212.632 C 238.506 214.528 237.492 216.356 236.332 218.075 C 235.23 219.706 233.981 221.219 232.594 222.604 C 231.207 223.98 229.692 225.227 228.069 226.318 C 226.338 227.477 224.509 228.489 222.6 229.344 C 220.495 230.297 218.322 231.093 216.099 231.741 C 213.58 232.478 211.023 233.087 208.446 233.559 C 205.515 234.109 202.554 234.541 199.583 234.865 C 196.219 235.229 192.836 235.514 189.452 235.701 C 185.626 235.917 181.8 236.074 177.973 236.153 C 173.675 236.251 169.376 236.29 165.078 236.29 C 165.078 236.29 165.078 236.29 165.068 236.29 L 90.942 236.29 C 90.932 236.29 90.932 236.29 90.932 236.29 C 86.634 236.29 82.335 236.251 78.037 236.153 C 74.21 236.074 70.384 235.917 66.558 235.701 C 63.174 235.514 59.791 235.229 56.427 234.865 C 53.456 234.541 50.495 234.109 47.564 233.559 C 44.987 233.087 42.43 232.478 39.911 231.741 C 37.688 231.093 35.515 230.297 33.41 229.344 C 31.501 228.489 29.672 227.477 27.941 226.318 C 26.318 225.227 24.803 223.98 23.416 222.604 C 22.029 221.219 20.78 219.706 19.678 218.075 C 18.518 216.356 17.504 214.528 16.649 212.632 C 15.704 210.52 14.898 208.358 14.249 206.138 C 13.501 203.623 12.901 201.078 12.419 198.504 C 11.878 195.576 11.445 192.629 11.121 189.672 C 10.747 186.302 10.472 182.932 10.275 179.552 C 10.058 175.74 9.901 171.918 9.822 168.096 C 9.734 163.803 9.685 159.519 9.685 155.226 C 9.685 155.226 9.685 155.226 9.685 155.226 L 9.685 97.014 C 9.685 97.014 9.685 97.014 9.685 97.014 C 9.685 92.721 9.734 88.437 9.822 84.144 C 9.901 80.322 10.058 76.51 10.275 72.688 C 10.472 69.308 10.747 65.938 11.121 62.578 C 11.445 59.611 11.878 56.664 12.419 53.736 C 12.901 51.162 13.501 48.617 14.249 46.102 C 14.898 43.892 15.704 41.72 16.649 39.608 C 17.504 37.712 18.518 35.894 19.678 34.165 C 20.78 32.544 22.029 31.031 23.416 29.646 C 24.803 28.26 26.318 27.013 27.941 25.922 C 29.672 24.763 31.501 23.751 33.41 22.896 C 35.515 21.953 37.688 21.147 39.911 20.499 C 42.43 19.762 44.987 19.153 47.564 18.681 C 50.495 18.131 53.456 17.699 56.427 17.384 C 59.791 17.011 63.174 16.736 66.558 16.539 C 70.384 16.323 74.21 16.176 78.037 16.087 C 82.335 15.999 86.634 15.95 90.932 15.96 C 90.932 15.96 90.932 15.96 90.942 15.96 L 165.068 15.96 C 165.078 15.96 165.078 15.96 165.078 15.96 Z"/>
 </g>
 <path fill="#ffffff" d="M 128 43.513 C 82.436 43.513 45.5 80.458 45.5 126.032 C 45.542 160.379 66.849 191.108 98.996 203.183 C 98.956 202.009 98.952 200.499 98.872 199.624 C 98.63 196.889 99.293 184.67 99.889 180.954 C 100.094 179.67 100.841 177.139 101.549 175.337 C 102.954 171.764 104.538 166.406 105.107 163.25 C 105.306 162.149 105.811 160.039 106.235 158.563 C 106.884 156.307 106.96 155.326 106.743 152.328 C 106.544 149.585 106.622 148.368 107.065 146.997 C 107.819 144.658 107.784 143.847 106.904 141.752 C 106.447 140.664 106.173 139.097 106.16 137.6 L 106.136 135.193 L 105.429 136.112 C 105.04 136.615 104.461 138.062 104.14 139.323 C 102.727 144.856 100.559 148.073 94.274 154.014 C 92.002 156.16 90.002 158.301 89.824 158.774 C 87.374 165.3 87.141 166.234 87.333 168.742 C 87.439 170.124 87.64 171.636 87.779 172.102 C 88.12 173.243 86.988 173.717 86.069 172.82 C 85.687 172.457 85.129 172.291 84.78 172.424 C 84.282 172.638 84.202 173.075 84.346 174.68 C 84.559 177.081 84.672 177.244 86.242 177.196 C 87.263 177.196 87.527 177.337 87.866 178.313 C 88.093 178.965 88.128 179.478 87.94 179.478 C 87.754 179.478 87.593 179.998 87.593 180.681 C 87.593 181.834 87.535 181.883 85.957 181.883 C 84.534 181.883 84.287 181.998 84.185 182.772 C 84.109 183.342 83.772 183.726 83.243 183.801 C 82.146 183.975 79.14 180.736 77.975 178.135 C 76.803 175.518 77.021 171.481 78.595 166.445 C 79.215 164.461 79.918 161.753 80.169 160.432 C 80.761 157.304 81.464 155.894 82.561 155.597 C 83.242 155.424 83.875 154.409 85.288 151.283 C 86.3 149.042 87.519 146.034 87.99 144.601 C 89.009 141.5 90.122 139.649 93.096 136.108 C 94.317 134.654 95.518 132.78 95.774 131.93 C 96.029 131.067 97.009 128.578 97.943 126.376 L 99.641 122.371 L 99.876 115.156 C 100.009 111.189 100.303 107.295 100.533 106.515 C 100.763 105.739 101.875 103.896 103 102.424 C 104.21 100.842 105.045 99.354 105.045 98.791 C 105.045 97.66 106.778 94.957 108.106 94.017 C 108.626 93.654 109.532 93.233 110.114 93.088 C 112.203 92.585 112.482 92.428 112.866 91.662 C 113.176 91.027 113.011 90.369 112.085 88.402 C 111.443 87.037 110.692 85.56 110.412 85.128 C 109.963 84.435 109.989 84.276 110.635 83.79 C 111.039 83.476 112.41 82.989 113.684 82.724 C 115.847 82.237 116.011 82.154 116.113 81.05 C 116.212 79.988 115.993 79.731 113.882 78.396 C 109.017 75.322 107.266 73.317 107.288 70.884 C 107.315 68.143 108.775 66.589 112.965 64.834 C 115.095 63.944 115.654 63.536 115.754 62.788 C 115.822 62.285 116.026 61.682 116.212 61.473 C 116.399 61.251 116.56 60.339 116.56 59.429 C 116.56 56.685 117.352 53.087 118.183 52.089 C 119.725 50.236 120.947 49.84 124.914 49.857 C 128.028 49.857 128.884 50.014 130.231 50.764 C 132.044 51.784 132.403 52.507 133.64 57.632 C 134.091 59.506 134.764 61.331 135.139 61.686 C 135.515 62.041 135.92 62.776 136.044 63.31 C 136.214 64.037 136.824 64.513 138.498 65.232 C 142.828 67.088 145.148 70.367 144.349 73.49 C 143.655 76.202 140.107 79.279 137.68 79.279 C 137.289 79.279 136.974 79.559 136.974 79.881 C 136.974 80.203 137.206 80.475 137.482 80.475 C 137.839 80.475 138.049 81.328 138.213 83.438 C 138.342 85.071 138.641 86.882 138.883 87.455 C 139.305 88.456 139.442 88.486 142.514 88.483 C 145.233 88.482 146.13 88.656 148.662 89.76 C 150.296 90.47 151.77 91.277 151.934 91.571 C 152.099 91.876 153.021 92.539 153.98 93.071 C 156.409 94.416 159.888 98.418 162.545 102.914 C 163.782 105.008 165.143 107.147 165.557 107.663 C 165.97 108.167 166.3 108.867 166.3 109.2 C 166.3 109.538 166.684 110.375 167.143 111.072 C 167.604 111.774 168.002 113.005 168.036 113.838 C 168.112 115.793 169.575 119.095 173.266 125.639 C 175.56 129.708 176.312 131.412 176.514 132.992 C 176.658 134.123 176.878 139.798 177.009 145.6 C 177.239 155.749 177.286 156.186 178.075 157.092 C 178.895 158.036 178.893 158.035 178.559 167.854 C 178.375 173.255 178.059 178.152 177.852 178.739 C 177.645 179.325 176.972 180.084 176.365 180.425 C 175.758 180.763 175.17 181.369 175.051 181.776 C 174.932 182.181 173.823 183.033 172.584 183.674 C 171.346 184.318 170.248 184.973 170.155 185.136 C 170.062 185.301 170.692 186.929 171.543 188.756 C 172.424 190.649 173.478 192.196 174.828 193.852 C 197.133 178.471 210.466 153.116 210.5 126.018 C 210.5 80.444 173.564 43.499 128 43.499 L 128 43.513 Z M 150.248 121.78 C 150.098 121.78 150.014 122.72 150.062 123.875 C 150.135 125.578 149.97 126.245 149.219 127.359 C 148.709 128.118 147.522 130.366 146.579 132.367 L 144.869 136 L 151.934 151.026 C 159.727 167.585 160.493 169.051 161.279 169.051 C 161.575 169.051 162.465 168.025 163.263 166.759 L 163.276 166.759 C 164.073 165.491 165.312 163.681 166.04 162.742 C 166.944 161.576 167.511 160.308 167.825 158.736 C 168.077 157.472 168.397 156.255 168.543 156.034 C 169.464 154.654 169.282 153.009 167.738 148.757 C 165.967 143.879 165.238 140.168 165.209 135.937 L 165.185 133.061 L 162.557 131.933 C 160.464 131.025 159.263 130.126 156.657 127.494 C 154.856 125.676 153.122 124.185 152.802 124.185 C 152.483 124.185 152.028 123.78 151.786 123.295 C 151.34 122.378 150.749 121.806 150.249 121.795 L 150.248 121.78 Z M 149.232 159.766 C 148.708 159.337 148.784 160.923 148.847 164.031 C 148.921 167.552 150.088 173.155 150.806 173.415 C 151.056 173.506 151.682 174.051 152.206 174.619 L 153.161 175.648 L 153.644 191.244 C 153.847 197.925 154.078 201.572 154.276 204.15 C 160.118 202.192 165.722 199.584 170.984 196.377 C 166.454 193.77 162.35 188.57 159.32 181.227 C 158.329 178.825 155.568 172.709 153.197 167.639 C 150.867 162.659 149.755 160.2 149.231 159.767 L 149.232 159.766 Z M 166.659 170.564 C 166.413 170.457 166.183 170.474 165.878 170.68 C 164.198 171.652 164.244 172.693 166.138 177.04 C 167.318 179.748 168.019 180.929 168.221 180.586 C 168.387 180.289 168.515 178.417 168.518 176.395 C 168.523 173.023 168.454 172.626 167.576 171.498 C 167.177 170.986 166.905 170.689 166.659 170.569 L 166.659 170.564 Z M 123.773 190.698 C 123.402 190.698 123.241 191.152 123.24 192.198 C 123.239 193.679 122.082 200.687 121.356 203.617 C 121.245 204.062 120.864 206.462 120.575 208.179 C 122.69 208.368 124.811 208.475 126.934 208.501 C 126.917 205.794 126.1 200.959 125.284 198.871 C 124.863 197.798 124.706 196.42 124.772 194.506 C 124.888 191.56 124.657 190.693 123.774 190.693 L 123.773 190.698 Z"/>
</svg>
