<svg xmlns="http://www.w3.org/2000/svg" style="isolation:isolate" width="256" height="256" viewBox="0 0 256 256">
 <g filter="url(#ORIjpVHhqWbWHH1qUi5vmE9DMqUQ0r4T)">
  <linearGradient id="_lgradient_21" x1=".567" x2=".567" y1="1.071" y2="-.742" gradientTransform="matrix(244.648,0,0,228.338,5.676,11.947)" gradientUnits="userSpaceOnUse">
   <stop offset="0%" style="stop-color:#333333"/>
   <stop offset="100%" style="stop-color:#4d4d4d"/>
  </linearGradient>
  <path fill="url(#_lgradient_21)" d="M 165.685 11.947 C 239.74 11.947 250.324 22.504 250.324 96.491 L 250.324 155.742 C 250.324 229.728 239.74 240.285 165.685 240.285 L 90.315 240.285 C 16.26 240.285 5.676 229.728 5.676 155.742 L 5.676 96.491 C 5.676 22.504 16.26 11.947 90.315 11.947 L 165.685 11.947 L 165.685 11.947 Z"/>
 </g>
 <defs>
  <filter id="ORIjpVHhqWbWHH1qUi5vmE9DMqUQ0r4T" width="400%" height="400%" x="-200%" y="-200%" color-interpolation-filters="sRGB" filterUnits="objectBoundingBox">
   <feGaussianBlur xmlns="http://www.w3.org/2000/svg" in="SourceGraphic" stdDeviation="4.294"/>
   <feOffset xmlns="http://www.w3.org/2000/svg" dx="0" dy="4" result="pf_100_offsetBlur"/>
   <feFlood xmlns="http://www.w3.org/2000/svg" flood-opacity=".4"/>
   <feComposite xmlns="http://www.w3.org/2000/svg" in2="pf_100_offsetBlur" operator="in" result="pf_100_dropShadow"/>
   <feBlend xmlns="http://www.w3.org/2000/svg" in="SourceGraphic" in2="pf_100_dropShadow" mode="normal"/>
  </filter>
 </defs>
 <g filter="url(#nTixgYLuBDN8I0UBdjplbtf3dCvyNiO0)">
  <path fill="#eab305" d="M 75.098 67.142 L 182.573 67.142 C 182.918 67.142 183.198 67.421 183.198 67.765 L 183.198 195.785 C 183.198 196.128 182.918 196.408 182.573 196.408 L 75.098 196.408 C 74.753 196.408 74.474 196.129 74.473 195.785 L 74.473 67.765 C 74.473 67.421 74.753 67.142 75.098 67.142 Z"/>
  <path fill="#ca9c03" d="M 74.666 68.923 L 182.781 68.923 C 183.149 68.923 183.448 69.202 183.448 69.547 L 183.448 197.566 C 183.448 197.91 183.149 198.189 182.781 198.189 L 74.666 198.189 C 74.298 198.188 74.001 197.91 74 197.566 L 74 69.547 C 74 69.202 74.299 68.923 74.666 68.923 Z"/>
  <path fill="#ca9c03" d="M 74.368 53.114 C 76.365 53.114 77.986 54.759 77.986 56.789 L 77.986 194.39 C 77.986 196.418 76.365 198.065 74.368 198.065 C 72.371 198.065 70.75 196.418 70.75 194.39 L 70.75 56.789 C 70.75 54.759 72.371 53.114 74.368 53.114 Z"/>
  <path fill="#ffffff" d="M 77.2 69.365 L 180.48 69.365 C 180.818 69.365 181.092 69.638 181.092 69.976 L 181.092 195.503 C 181.092 195.665 181.028 195.82 180.913 195.935 C 180.798 196.049 180.642 196.114 180.48 196.113 L 77.2 196.113 C 77.038 196.114 76.882 196.049 76.767 195.935 C 76.652 195.82 76.588 195.665 76.588 195.503 L 76.588 69.976 C 76.588 69.638 76.862 69.365 77.2 69.365 Z"/>
  <linearGradient id="_lgradient_22" x1="0" x2=".009" y1=".5" y2="-.5" gradientTransform="matrix(103.405,0,0,125.019,77.687,70.667)" gradientUnits="userSpaceOnUse">
   <stop offset="0%" style="stop-color:#f5f5f5"/>
  </linearGradient>
  <path fill="url(#_lgradient_22)" d="M 78.262 70.667 C 77.943 70.667 77.687 70.909 77.687 71.207 L 77.687 195.147 C 77.687 195.446 77.943 195.686 78.262 195.686 L 178.413 195.686 C 175.661 190.577 176.382 187.546 181.092 183.477 L 181.092 71.207 C 181.092 70.909 180.836 70.667 180.517 70.667 L 78.262 70.667 Z"/>
  <path fill="#f5f5f5" d="M 74.887 189.187 C 74.887 185.373 76.139 182.278 77.68 182.278 C 79.221 182.278 80.472 185.373 80.472 189.187 C 80.472 192.999 79.221 196.095 77.68 196.095 C 76.139 196.095 74.887 192.999 74.887 189.187 Z"/>
  <path fill="#ca9c03" d="M 75.348 53.25 L 185.125 53.25 C 185.47 53.25 185.75 53.528 185.75 53.87 L 185.75 181.395 C 185.75 181.738 185.47 182.016 185.125 182.016 L 75.348 182.016 C 75.003 182.016 74.723 181.738 74.723 181.395 L 74.723 53.87 C 74.723 53.528 75.003 53.25 75.348 53.25 Z"/>
  <path fill="#fdc92b" d="M 81.633 53.332 L 184.875 53.332 C 185.22 53.332 185.5 53.612 185.5 53.955 L 185.5 181.974 C 185.5 182.319 185.22 182.598 184.875 182.598 L 81.633 182.598 C 81.288 182.598 81.009 182.319 81.009 181.974 L 81.009 53.955 C 81.009 53.612 81.289 53.332 81.633 53.332 Z"/>
  <path fill="#ffffff" d="M 77.813 187.902 L 177.791 187.902 C 178.043 187.902 178.248 188.086 178.248 188.309 C 178.248 188.535 178.043 188.719 177.791 188.719 L 77.813 188.719 C 77.561 188.719 77.356 188.535 77.356 188.309 C 77.356 188.086 77.561 187.902 77.813 187.902 Z M 77.813 190.113 L 177.791 190.113 C 178.043 190.113 178.248 190.294 178.248 190.52 C 178.248 190.744 178.043 190.927 177.791 190.927 L 77.813 190.927 C 77.561 190.927 77.356 190.744 77.356 190.52 C 77.356 190.294 77.561 190.113 77.813 190.113 Z M 77.813 192.898 L 177.791 192.898 C 178.043 192.898 178.248 193.082 178.248 193.306 C 178.248 193.531 178.043 193.713 177.791 193.713 L 77.813 193.713 C 77.561 193.713 77.356 193.531 77.356 193.306 C 77.356 193.082 77.561 192.898 77.813 192.898 Z M 77.813 194.052 L 177.791 194.052 C 178.043 194.052 178.248 194.234 178.248 194.459 C 178.248 194.684 178.043 194.866 177.791 194.866 L 77.813 194.866 C 77.561 194.866 77.356 194.684 77.356 194.459 C 77.356 194.234 77.561 194.052 77.813 194.052 Z"/>
  <path fill="#333333" fill-rule="evenodd" d="M 140.057 97.752 L 139.442 97.6 L 134.044 97.6 L 134.044 97.122 L 134.847 96.491 L 134.847 91.726 L 133.899 91.444 L 134.18 90.892 L 139.357 90.892 L 139.971 90.738 L 139.971 92.911 L 139.502 93.099 L 138.452 91.539 L 136.393 91.539 L 136.393 93.84 L 137.41 93.84 L 138.032 92.886 L 138.511 92.886 L 138.511 95.366 L 137.956 95.648 L 137.4 94.497 L 136.393 94.497 L 136.393 96.943 L 138.383 96.943 L 139.588 95.205 L 140.057 95.4 L 140.057 97.752 L 140.057 97.752 Z M 144.746 96.926 L 143.883 97.608 Q 143.593 97.676 143.191 97.676 Q 142.372 97.676 141.991 97.305 Q 141.612 96.934 141.612 96.159 L 141.612 93.816 L 140.689 93.816 L 140.689 93.363 L 142.526 91.369 L 143.064 91.369 L 143.064 93.253 L 144.601 93.253 L 144.601 93.816 L 143.064 93.816 L 143.064 96.1 Q 143.064 96.688 143.73 96.688 Q 143.901 96.688 144.067 96.632 Q 144.233 96.577 144.49 96.439 L 144.746 96.926 Z M 148.043 94.122 Q 147.735 94.122 147.428 94.394 L 147.428 96.696 L 148.726 97.037 L 148.453 97.59 L 145.215 97.59 L 145.215 97.113 L 145.976 96.474 L 145.976 94.539 L 145.215 94.062 L 145.215 93.585 L 146.992 92.835 L 147.317 93.781 L 148.094 92.979 Q 148.274 92.911 148.513 92.911 Q 148.956 92.911 149.277 93.116 Q 149.598 93.321 149.726 93.678 L 148.906 94.701 L 148.367 94.701 Q 148.359 94.394 148.282 94.263 Q 148.205 94.13 148.043 94.13 L 148.043 94.122 L 148.043 94.122 Z M 155.704 97.037 L 155.431 97.59 L 153.483 97.59 L 153.483 96.858 L 152.561 97.617 Q 152.33 97.685 152.04 97.685 Q 151.383 97.685 150.998 97.33 Q 150.613 96.977 150.613 96.371 L 150.613 94.539 L 149.854 94.105 L 149.854 93.627 L 151.527 92.886 L 152.066 92.886 L 152.066 95.733 Q 152.066 96.142 152.186 96.303 Q 152.305 96.466 152.612 96.466 Q 153.057 96.466 153.483 96.176 L 153.483 94.539 L 152.723 94.105 L 152.723 93.627 L 154.397 92.886 L 154.935 92.886 L 154.935 96.78 L 155.704 97.037 L 155.704 97.037 Z M 158.685 96.509 Q 158.685 96.346 158.463 96.18 Q 158.241 96.014 157.78 95.759 Q 157.327 95.502 157.053 95.319 Q 156.781 95.136 156.58 94.902 Q 156.379 94.668 156.379 94.394 Q 156.379 94.087 156.674 93.738 Q 156.968 93.388 157.395 93.15 Q 157.823 92.911 158.181 92.911 Q 158.616 92.911 159.202 93.009 Q 159.787 93.107 160.051 93.226 L 160.051 94.65 L 159.513 94.65 Q 159.283 94.224 158.962 93.985 Q 158.642 93.747 158.301 93.747 Q 158.13 93.747 158.027 93.844 Q 157.924 93.942 157.924 94.079 Q 157.924 94.258 158.151 94.428 Q 158.377 94.599 158.873 94.88 Q 159.53 95.239 159.885 95.528 Q 160.24 95.818 160.24 96.193 Q 160.24 96.509 159.936 96.853 Q 159.633 97.199 159.193 97.437 Q 158.753 97.676 158.386 97.676 Q 157.916 97.676 157.271 97.578 Q 156.627 97.48 156.353 97.36 L 156.353 95.886 L 156.891 95.886 Q 157.148 96.338 157.523 96.589 Q 157.899 96.84 158.266 96.84 Q 158.455 96.84 158.57 96.742 Q 158.685 96.645 158.685 96.509 L 158.685 96.509 Z M 163.724 92.911 Q 164.125 92.911 164.655 93.009 Q 165.185 93.107 165.424 93.226 L 165.424 94.811 L 164.885 94.811 Q 164.561 94.377 164.151 94.138 Q 163.742 93.899 163.297 93.899 Q 162.981 93.899 162.814 94.194 Q 162.648 94.488 162.648 95.034 Q 162.648 95.724 162.943 96.176 Q 163.237 96.628 163.784 96.628 Q 164.339 96.628 165.381 96.09 L 165.638 96.577 L 164.407 97.548 Q 163.921 97.676 163.289 97.676 Q 162.665 97.676 162.165 97.382 Q 161.665 97.088 161.389 96.577 Q 161.111 96.065 161.111 95.442 Q 161.111 94.769 161.516 94.186 Q 161.922 93.602 162.537 93.257 Q 163.152 92.911 163.724 92.911 L 163.724 92.911 Z M 171.633 97.037 L 171.36 97.59 L 169.412 97.59 L 169.412 96.849 L 168.447 97.608 Q 168.276 97.676 168.02 97.676 Q 167.201 97.676 166.837 97.275 Q 166.474 96.874 166.474 96.312 Q 166.474 95.979 166.68 95.661 Q 166.884 95.34 167.269 95.068 L 169.412 95.068 L 169.412 94.923 Q 169.412 94.454 169.156 94.233 Q 168.9 94.011 168.473 94.011 Q 167.875 94.011 166.91 94.479 L 166.653 93.994 L 167.841 93.039 Q 168.276 92.911 168.858 92.911 Q 169.814 92.911 170.339 93.347 Q 170.864 93.781 170.864 94.608 L 170.864 96.738 L 171.633 97.037 L 171.633 97.037 Z M 168.456 96.534 Q 168.891 96.534 169.412 96.176 L 169.412 95.63 L 168.037 95.63 Q 167.969 95.733 167.94 95.822 Q 167.909 95.911 167.909 96.022 Q 167.909 96.236 168.059 96.38 Q 168.208 96.525 168.456 96.525 L 168.456 96.534 L 168.456 96.534 Z M 175.024 92.911 Q 175.92 92.911 176.412 93.593 Q 176.902 94.276 176.886 95.485 L 173.811 95.485 Q 173.896 96.005 174.178 96.316 Q 174.46 96.628 174.913 96.628 Q 175.51 96.628 176.63 96.031 L 176.886 96.517 L 175.588 97.548 Q 175.084 97.676 174.417 97.676 Q 173.794 97.676 173.295 97.382 Q 172.795 97.088 172.517 96.577 Q 172.239 96.065 172.239 95.442 Q 172.239 94.769 172.675 94.186 Q 173.111 93.602 173.764 93.257 Q 174.417 92.911 175.024 92.911 L 175.024 92.911 Z M 174.554 93.899 Q 174.178 93.899 173.991 94.152 Q 173.803 94.403 173.785 94.923 L 175.417 94.923 Q 175.348 94.394 175.165 94.147 Q 174.981 93.899 174.545 93.899 L 174.554 93.899 L 174.554 93.899 Z M 98.155 97.743 L 97.54 97.59 L 92.09 97.59 L 92.09 97.113 L 92.893 96.482 L 92.893 91.693 L 91.946 91.444 L 92.228 90.892 L 95.251 90.892 L 95.251 91.369 L 94.439 91.999 L 94.439 96.943 L 96.362 96.943 L 97.685 95.034 L 98.155 95.23 L 98.155 97.743 L 98.155 97.743 Z M 101.836 97.037 L 101.554 97.59 L 98.855 97.59 L 98.855 97.113 L 99.615 96.474 L 99.615 94.497 L 98.855 93.994 L 98.855 93.517 L 100.529 92.835 L 101.068 92.835 L 101.068 96.78 L 101.836 97.037 L 101.836 97.037 Z M 100.333 90.269 Q 100.7 90.269 100.935 90.503 Q 101.17 90.738 101.17 91.087 Q 101.17 91.334 100.999 91.547 Q 100.828 91.761 100.572 91.889 Q 100.316 92.016 100.076 92.016 Q 99.718 92.016 99.483 91.782 Q 99.248 91.547 99.248 91.198 Q 99.248 90.951 99.419 90.738 Q 99.59 90.524 99.842 90.397 Q 100.094 90.269 100.333 90.269 Z M 108.225 97.037 L 107.943 97.59 L 106.004 97.59 L 106.004 94.863 Q 106.004 94.462 105.88 94.297 Q 105.756 94.13 105.449 94.13 Q 104.996 94.13 104.552 94.419 L 104.552 96.78 L 105.321 97.037 L 105.039 97.59 L 102.34 97.59 L 102.34 97.113 L 103.1 96.474 L 103.1 94.539 L 102.34 94.062 L 102.34 93.585 L 104.117 92.835 L 104.449 93.824 L 105.509 92.979 Q 105.74 92.911 106.03 92.911 Q 106.679 92.911 107.068 93.265 Q 107.456 93.619 107.456 94.224 L 107.456 96.78 L 108.225 97.037 L 108.225 97.037 Z M 113.759 93.824 L 112.88 93.824 Q 113.025 94.096 113.025 94.403 Q 113.025 94.923 112.585 95.404 Q 112.145 95.886 111.496 96.133 Q 111.274 96.389 111.274 96.645 Q 111.274 96.763 111.461 96.879 Q 111.65 96.994 112.052 97.173 Q 112.641 97.429 112.956 97.646 Q 113.273 97.863 113.273 98.153 Q 113.273 98.426 112.931 98.83 Q 112.589 99.235 112.081 99.538 Q 111.573 99.841 111.095 99.841 Q 110.574 99.841 109.856 99.679 Q 109.139 99.517 108.661 99.355 L 108.661 97.829 L 109.198 97.829 Q 109.617 98.391 110.049 98.686 Q 110.479 98.98 111.026 98.98 Q 111.308 98.98 111.5 98.857 Q 111.692 98.732 111.692 98.597 Q 111.692 98.401 111.466 98.251 Q 111.24 98.102 110.77 97.889 Q 110.267 97.668 110.01 97.493 Q 109.754 97.318 109.754 97.088 Q 109.754 96.883 110.065 96.67 Q 110.378 96.457 110.813 96.295 Q 110.642 96.312 110.557 96.312 Q 110.036 96.312 109.604 96.108 Q 109.173 95.903 108.925 95.558 Q 108.678 95.213 108.678 94.82 Q 108.678 94.334 109.036 93.891 Q 109.395 93.448 109.967 93.18 Q 110.539 92.911 111.138 92.911 Q 111.821 92.911 112.342 93.253 L 113.751 93.253 L 113.759 93.824 L 113.759 93.824 Z M 111.06 95.34 Q 111.334 95.34 111.483 95.209 Q 111.632 95.077 111.632 94.811 Q 111.632 94.394 111.364 94.152 Q 111.095 93.908 110.65 93.908 Q 110.086 93.908 110.086 94.411 Q 110.086 94.82 110.356 95.081 Q 110.625 95.34 111.06 95.34 L 111.06 95.34 Z M 119.789 97.037 L 119.516 97.59 L 117.569 97.59 L 117.569 96.858 L 116.647 97.617 Q 116.416 97.685 116.125 97.685 Q 115.468 97.685 115.083 97.33 Q 114.699 96.977 114.699 96.371 L 114.699 94.539 L 113.938 94.105 L 113.938 93.627 L 115.613 92.886 L 116.151 92.886 L 116.151 95.733 Q 116.151 96.142 116.27 96.303 Q 116.39 96.466 116.697 96.466 Q 117.141 96.466 117.569 96.176 L 117.569 94.539 L 116.808 94.105 L 116.808 93.627 L 118.482 92.886 L 119.021 92.886 L 119.021 96.78 L 119.789 97.037 L 119.789 97.037 Z M 125.494 97.037 L 125.222 97.59 L 123.274 97.59 L 123.274 96.849 L 122.309 97.608 Q 122.138 97.676 121.882 97.676 Q 121.062 97.676 120.699 97.275 Q 120.336 96.874 120.336 96.312 Q 120.336 95.979 120.541 95.661 Q 120.746 95.34 121.131 95.068 L 123.274 95.068 L 123.274 94.923 Q 123.274 94.454 123.017 94.233 Q 122.762 94.011 122.334 94.011 Q 121.737 94.011 120.771 94.479 L 120.515 93.994 L 121.702 93.039 Q 122.138 92.911 122.719 92.911 Q 123.676 92.911 124.201 93.347 Q 124.726 93.781 124.726 94.608 L 124.726 96.738 L 125.494 97.037 L 125.494 97.037 Z M 122.317 96.534 Q 122.753 96.534 123.274 96.176 L 123.274 95.63 L 121.899 95.63 Q 121.831 95.733 121.801 95.822 Q 121.771 95.911 121.771 96.022 Q 121.771 96.236 121.92 96.38 Q 122.07 96.525 122.317 96.525 L 122.317 96.534 Z M 128.885 92.911 Q 129.782 92.911 130.274 93.593 Q 130.764 94.276 130.748 95.485 L 127.672 95.485 Q 127.758 96.005 128.04 96.316 Q 128.322 96.628 128.774 96.628 Q 129.372 96.628 130.491 96.031 L 130.748 96.517 L 129.449 97.548 Q 128.945 97.676 128.279 97.676 Q 127.656 97.676 127.156 97.382 Q 126.657 97.088 126.379 96.577 Q 126.101 96.065 126.101 95.442 Q 126.101 94.769 126.537 94.186 Q 126.972 93.602 127.625 93.257 Q 128.279 92.911 128.885 92.911 L 128.885 92.911 Z M 128.415 93.899 Q 128.04 93.899 127.852 94.152 Q 127.664 94.403 127.647 94.923 L 129.278 94.923 Q 129.21 94.394 129.027 94.147 Q 128.843 93.899 128.407 93.899 L 128.415 93.899 L 128.415 93.899 Z M 105.88 73.61 L 105.88 76.958 L 105.21 77.227 L 103.489 74.755 L 102.354 74.755 L 102.354 82.255 L 103.721 82.608 L 103.318 83.4 L 98.999 83.4 L 98.999 82.717 L 100.146 81.817 L 100.146 74.755 L 99.06 74.755 L 97.34 77.227 L 96.668 76.958 L 96.668 73.61 L 97.546 73.829 L 105.002 73.829 L 105.88 73.61 L 105.88 73.61 Z M 115.117 82.608 L 114.714 83.4 L 111.945 83.4 L 111.945 79.503 Q 111.945 78.931 111.768 78.694 Q 111.591 78.456 111.151 78.456 Q 110.505 78.456 109.871 78.87 L 109.871 82.243 L 110.969 82.608 L 110.566 83.4 L 106.71 83.4 L 106.71 82.717 L 107.796 81.804 L 107.796 75.144 L 106.71 74.427 L 106.71 73.744 L 109.101 72.77 L 109.871 72.77 L 109.871 77.907 L 111.236 76.812 Q 111.566 76.716 111.981 76.716 Q 112.909 76.716 113.463 77.221 Q 114.019 77.726 114.019 78.59 L 114.019 82.243 L 115.117 82.608 L 115.117 82.608 Z M 119.949 76.716 Q 121.229 76.716 121.931 77.69 Q 122.633 78.664 122.608 80.392 L 118.216 80.392 Q 118.338 81.136 118.741 81.579 Q 119.143 82.024 119.79 82.024 Q 120.644 82.024 122.243 81.172 L 122.608 81.865 L 120.754 83.339 Q 120.034 83.521 119.082 83.521 Q 118.191 83.521 117.478 83.102 Q 116.764 82.682 116.368 81.951 Q 115.971 81.221 115.971 80.331 Q 115.971 79.369 116.594 78.535 Q 117.215 77.702 118.149 77.208 Q 119.082 76.716 119.949 76.716 L 119.949 76.716 Z M 119.277 78.127 Q 118.741 78.127 118.472 78.487 Q 118.204 78.846 118.179 79.589 L 120.51 79.589 Q 120.412 78.834 120.149 78.48 Q 119.888 78.127 119.265 78.127 L 119.277 78.127 L 119.277 78.127 Z M 127.391 81.853 Q 127.391 81.622 127.074 81.384 Q 126.757 81.148 126.098 80.782 Q 125.452 80.416 125.061 80.155 Q 124.67 79.893 124.384 79.558 Q 124.097 79.223 124.097 78.834 Q 124.097 78.395 124.518 77.895 Q 124.939 77.397 125.549 77.056 Q 126.159 76.716 126.672 76.716 Q 127.294 76.716 128.129 76.855 Q 128.966 76.995 129.343 77.166 L 129.343 79.199 L 128.575 79.199 Q 128.245 78.59 127.788 78.249 Q 127.33 77.907 126.842 77.907 Q 126.599 77.907 126.452 78.048 Q 126.306 78.188 126.306 78.383 Q 126.306 78.639 126.629 78.882 Q 126.952 79.126 127.66 79.528 Q 128.599 80.04 129.105 80.453 Q 129.612 80.867 129.612 81.402 Q 129.612 81.853 129.179 82.347 Q 128.746 82.839 128.117 83.18 Q 127.489 83.521 126.964 83.521 Q 126.293 83.521 125.372 83.382 Q 124.451 83.241 124.06 83.071 L 124.06 80.965 L 124.829 80.965 Q 125.195 81.61 125.732 81.969 Q 126.269 82.329 126.794 82.329 Q 127.062 82.329 127.227 82.189 Q 127.391 82.049 127.391 81.853 L 127.391 81.853 Z M 138.105 82.608 L 137.714 83.4 L 134.932 83.4 L 134.932 82.341 L 133.554 83.425 Q 133.309 83.521 132.943 83.521 Q 131.772 83.521 131.254 82.949 Q 130.735 82.376 130.735 81.573 Q 130.735 81.099 131.028 80.642 Q 131.321 80.185 131.869 79.795 L 134.932 79.795 L 134.932 79.589 Q 134.932 78.919 134.566 78.603 Q 134.2 78.286 133.59 78.286 Q 132.735 78.286 131.356 78.956 L 130.991 78.262 L 132.687 76.897 Q 133.309 76.716 134.139 76.716 Q 135.506 76.716 136.256 77.337 Q 137.006 77.956 137.006 79.138 L 137.006 82.183 L 138.105 82.608 L 138.105 82.608 Z M 133.566 81.89 Q 134.188 81.89 134.932 81.378 L 134.932 80.599 L 132.967 80.599 Q 132.87 80.746 132.827 80.873 Q 132.784 81.001 132.784 81.16 Q 132.784 81.463 132.998 81.671 Q 133.212 81.878 133.566 81.878 L 133.566 81.89 L 133.566 81.89 Z M 146.828 82.608 L 146.438 83.4 L 143.656 83.4 L 143.656 82.353 L 142.338 83.437 Q 142.009 83.534 141.593 83.534 Q 140.654 83.534 140.106 83.029 Q 139.556 82.523 139.556 81.659 L 139.556 79.04 L 138.47 78.419 L 138.47 77.739 L 140.862 76.679 L 141.63 76.679 L 141.63 80.746 Q 141.63 81.329 141.801 81.561 Q 141.972 81.792 142.412 81.792 Q 143.046 81.792 143.656 81.378 L 143.656 79.04 L 142.57 78.419 L 142.57 77.739 L 144.961 76.679 L 145.73 76.679 L 145.73 82.243 L 146.828 82.608 L 146.828 82.608 Z M 151.587 78.444 Q 151.148 78.444 150.708 78.834 L 150.708 82.122 L 152.563 82.608 L 152.172 83.4 L 147.548 83.4 L 147.548 82.717 L 148.634 81.804 L 148.634 79.04 L 147.548 78.358 L 147.548 77.677 L 150.086 76.606 L 150.55 77.956 L 151.66 76.812 Q 151.916 76.716 152.258 76.716 Q 152.892 76.716 153.35 77.007 Q 153.808 77.3 153.99 77.812 L 152.82 79.272 L 152.05 79.272 Q 152.038 78.834 151.928 78.645 Q 151.818 78.456 151.587 78.456 L 151.587 78.444 L 151.587 78.444 Z M 162.532 82.608 L 162.141 83.4 L 159.359 83.4 L 159.359 82.353 L 158.041 83.437 Q 157.712 83.534 157.298 83.534 Q 156.357 83.534 155.809 83.029 Q 155.259 82.523 155.259 81.659 L 155.259 79.04 L 154.173 78.419 L 154.173 77.739 L 156.565 76.679 L 157.334 76.679 L 157.334 80.746 Q 157.334 81.329 157.504 81.561 Q 157.675 81.792 158.115 81.792 Q 158.749 81.792 159.359 81.378 L 159.359 79.04 L 158.273 78.419 L 158.273 77.739 L 160.665 76.679 L 161.433 76.679 L 161.433 82.243 L 162.532 82.608 L 162.532 82.608 Z M 166.79 81.853 Q 166.79 81.622 166.472 81.384 Q 166.156 81.148 165.496 80.782 Q 164.85 80.416 164.459 80.155 Q 164.069 79.893 163.782 79.558 Q 163.495 79.223 163.495 78.834 Q 163.495 78.395 163.917 77.895 Q 164.337 77.397 164.948 77.056 Q 165.557 76.716 166.07 76.716 Q 166.692 76.716 167.527 76.855 Q 168.364 76.995 168.742 77.166 L 168.742 79.199 L 167.973 79.199 Q 167.643 78.59 167.187 78.249 Q 166.729 77.907 166.241 77.907 Q 165.997 77.907 165.85 78.048 Q 165.704 78.188 165.704 78.383 Q 165.704 78.639 166.027 78.882 Q 166.351 79.126 167.058 79.528 Q 167.998 80.04 168.504 80.453 Q 169.01 80.867 169.01 81.402 Q 169.01 81.853 168.578 82.347 Q 168.144 82.839 167.516 83.18 Q 166.887 83.521 166.363 83.521 Q 165.691 83.521 164.77 83.382 Q 163.849 83.241 163.459 83.071 L 163.459 80.965 L 164.227 80.965 Q 164.593 81.61 165.131 81.969 Q 165.667 82.329 166.192 82.329 Q 166.46 82.329 166.625 82.189 Q 166.79 82.049 166.79 81.853 L 166.79 81.853 Z M 132.879 170.146 Q 133.3 170.146 133.545 169.917 Q 133.79 169.689 133.79 169.287 Q 133.79 168.717 133.502 168.356 Q 133.214 167.993 132.662 167.993 Q 132.24 167.993 131.893 168.235 L 131.893 172.008 L 132.853 172.275 L 132.73 172.521 L 130.535 172.521 L 130.535 172.33 L 131.118 171.872 L 131.118 168.11 L 130.473 167.901 L 130.597 167.654 L 131.317 167.654 Q 131.918 167.654 132.5 167.616 Q 132.935 167.591 133.139 167.591 Q 133.573 167.591 133.911 167.775 Q 134.249 167.956 134.435 168.278 Q 134.62 168.6 134.62 168.989 Q 134.62 169.422 134.305 169.806 Q 133.988 170.19 133.499 170.405 Q 133.009 170.622 132.538 170.598 L 132.247 170.387 L 132.37 170.14 L 132.873 170.14 L 132.879 170.146 L 132.879 170.146 Z M 138.687 172.269 L 138.563 172.515 L 137.385 172.515 L 137.385 171.977 L 136.685 172.527 Q 136.561 172.577 136.375 172.577 Q 135.841 172.577 135.603 172.311 Q 135.364 172.045 135.364 171.675 Q 135.364 171.452 135.526 171.235 Q 135.687 171.018 135.984 170.827 L 137.385 170.827 L 137.385 170.431 Q 137.385 170.029 137.171 169.861 Q 136.958 169.695 136.585 169.695 Q 136.202 169.695 135.643 170.159 L 135.458 169.923 L 136.35 169.219 Q 136.598 169.169 136.945 169.169 Q 137.509 169.169 137.819 169.444 Q 138.129 169.719 138.129 170.246 L 138.129 172.051 L 138.687 172.269 L 138.687 172.269 Z M 136.573 172.051 Q 136.952 172.051 137.385 171.705 L 137.385 171.08 L 136.288 171.08 Q 136.208 171.18 136.173 171.279 Q 136.14 171.377 136.14 171.494 Q 136.14 171.724 136.257 171.887 Q 136.375 172.051 136.573 172.051 Z M 140.913 172.269 L 140.788 172.515 L 139.059 172.515 L 139.059 172.323 L 139.611 171.89 L 139.611 168.086 L 139.059 167.702 L 139.059 167.511 L 140.119 167.115 L 140.355 167.115 L 140.355 172.051 L 140.913 172.269 L 140.913 172.269 Z M 143.199 172.269 L 143.075 172.515 L 141.346 172.515 L 141.346 172.323 L 141.898 171.89 L 141.898 168.086 L 141.346 167.702 L 141.346 167.511 L 142.407 167.115 L 142.642 167.115 L 142.642 172.051 L 143.199 172.269 Z M 145.716 169.169 Q 146.125 169.169 146.451 169.382 Q 146.777 169.595 146.959 169.961 Q 147.142 170.326 147.142 170.766 Q 147.142 171.242 146.851 171.659 Q 146.56 172.077 146.122 172.326 Q 145.686 172.577 145.276 172.577 Q 144.867 172.577 144.542 172.364 Q 144.216 172.151 144.034 171.787 Q 143.851 171.42 143.851 170.982 Q 143.851 170.505 144.142 170.088 Q 144.433 169.67 144.87 169.419 Q 145.307 169.169 145.716 169.169 L 145.716 169.169 Z M 145.357 169.689 Q 144.657 169.689 144.657 170.684 Q 144.657 171.273 144.91 171.665 Q 145.165 172.058 145.636 172.058 Q 146.336 172.058 146.336 171.056 Q 146.336 170.474 146.082 170.081 Q 145.828 169.689 145.357 169.689 L 145.357 169.689 Z M 150.31 172.033 L 149.683 172.527 Q 149.541 172.577 149.336 172.577 Q 148.822 172.577 148.583 172.308 Q 148.345 172.039 148.345 171.476 L 148.345 169.67 L 147.675 169.67 L 147.675 169.416 L 148.853 168.049 L 149.089 168.049 L 149.089 169.416 L 150.204 169.416 L 150.204 169.67 L 149.089 169.67 L 149.089 171.55 Q 149.089 172.051 149.572 172.051 Q 149.702 172.051 149.824 171.996 Q 149.944 171.94 150.124 171.798 L 150.31 172.033 L 150.31 172.033 Z M 153.136 172.033 L 152.51 172.527 Q 152.368 172.577 152.163 172.577 Q 151.648 172.577 151.41 172.308 Q 151.171 172.039 151.171 171.476 L 151.171 169.67 L 150.501 169.67 L 150.501 169.416 L 151.68 168.049 L 151.915 168.049 L 151.915 169.416 L 153.031 169.416 L 153.031 169.67 L 151.915 169.67 L 151.915 171.55 Q 151.915 172.051 152.398 172.051 Q 152.529 172.051 152.65 171.996 Q 152.771 171.94 152.95 171.798 L 153.136 172.033 L 153.136 172.033 Z M 155.424 172.269 L 155.3 172.515 L 153.571 172.515 L 153.571 172.323 L 154.122 171.89 L 154.122 170.085 L 153.571 169.701 L 153.571 169.509 L 154.63 169.113 L 154.866 169.113 L 154.866 172.051 L 155.424 172.269 L 155.424 172.269 Z M 154.469 167.258 Q 154.655 167.258 154.776 167.394 Q 154.897 167.529 154.897 167.734 Q 154.897 167.876 154.81 168.003 Q 154.723 168.13 154.593 168.204 Q 154.463 168.278 154.339 168.278 Q 154.153 168.278 154.032 168.142 Q 153.912 168.006 153.912 167.802 Q 153.912 167.66 153.998 167.532 Q 154.085 167.406 154.215 167.332 Q 154.345 167.258 154.469 167.258 L 154.469 167.258 Z M 159.943 172.275 L 159.818 172.521 L 158.641 172.521 L 158.641 170.437 Q 158.641 170.097 158.535 169.961 Q 158.43 169.825 158.157 169.825 Q 157.953 169.825 157.751 169.899 Q 157.55 169.973 157.277 170.184 L 157.277 172.058 L 157.835 172.275 L 157.711 172.521 L 155.982 172.521 L 155.982 172.33 L 156.533 171.896 L 156.533 170.146 L 155.982 169.825 L 155.982 169.633 L 157.041 169.113 L 157.246 169.917 L 158.126 169.219 Q 158.256 169.169 158.467 169.169 Q 158.889 169.169 159.137 169.425 Q 159.385 169.683 159.385 170.122 L 159.385 172.051 L 159.943 172.275 L 159.943 172.275 Z M 162.397 169.169 Q 162.806 169.169 163.132 169.382 Q 163.458 169.595 163.64 169.961 Q 163.823 170.326 163.823 170.766 Q 163.823 171.242 163.532 171.659 Q 163.24 172.077 162.803 172.326 Q 162.367 172.577 161.958 172.577 Q 161.548 172.577 161.223 172.364 Q 160.897 172.151 160.714 171.787 Q 160.532 171.42 160.532 170.982 Q 160.532 170.505 160.823 170.088 Q 161.114 169.67 161.552 169.419 Q 161.988 169.169 162.397 169.169 L 162.397 169.169 Z M 162.038 169.689 Q 161.338 169.689 161.338 170.684 Q 161.338 171.273 161.591 171.665 Q 161.846 172.058 162.317 172.058 Q 163.017 172.058 163.017 171.056 Q 163.017 170.474 162.763 170.081 Q 162.509 169.689 162.038 169.689 L 162.038 169.689 Z M 104.333 172.275 L 104.209 172.521 L 102.324 172.521 L 102.324 172.33 L 102.908 171.872 L 102.908 168.45 L 101.253 172.521 L 100.912 172.521 L 99.268 168.408 L 99.268 171.946 L 99.92 172.275 L 99.795 172.521 L 98.345 172.521 L 98.345 172.33 L 98.927 171.872 L 98.927 168.247 L 98.283 167.901 L 98.407 167.654 L 99.753 167.654 L 101.302 171.538 L 102.846 167.654 L 104.271 167.654 L 104.271 167.846 L 103.682 168.303 L 103.682 172.045 L 104.333 172.275 L 104.333 172.275 Z M 108.338 172.269 L 108.214 172.515 L 107.035 172.515 L 107.035 171.977 L 106.335 172.527 Q 106.211 172.577 106.026 172.577 Q 105.493 172.577 105.253 172.311 Q 105.015 172.045 105.015 171.675 Q 105.015 171.452 105.176 171.235 Q 105.338 171.018 105.635 170.827 L 107.035 170.827 L 107.035 170.431 Q 107.035 170.029 106.822 169.861 Q 106.608 169.695 106.237 169.695 Q 105.852 169.695 105.294 170.159 L 105.108 169.923 L 106 169.219 Q 106.249 169.169 106.596 169.169 Q 107.16 169.169 107.47 169.444 Q 107.779 169.719 107.779 170.246 L 107.779 172.051 L 108.338 172.269 L 108.338 172.269 Z M 106.224 172.051 Q 106.602 172.051 107.035 171.705 L 107.035 171.08 L 105.938 171.08 Q 105.858 171.18 105.824 171.279 Q 105.79 171.377 105.79 171.494 Q 105.79 171.724 105.908 171.887 Q 106.026 172.051 106.224 172.051 Z M 110.829 171.847 Q 110.829 171.675 110.637 171.529 Q 110.446 171.384 110.049 171.18 Q 109.726 171.012 109.528 170.888 Q 109.329 170.766 109.19 170.601 Q 109.05 170.437 109.05 170.246 Q 109.05 170.023 109.237 169.769 Q 109.423 169.515 109.696 169.343 Q 109.968 169.169 110.203 169.169 Q 110.488 169.169 110.864 169.24 Q 111.238 169.311 111.406 169.397 L 111.406 170.349 L 111.17 170.349 Q 110.972 169.967 110.711 169.754 Q 110.452 169.539 110.179 169.539 Q 109.987 169.539 109.869 169.642 Q 109.751 169.744 109.751 169.899 Q 109.751 170.091 109.952 170.243 Q 110.154 170.393 110.563 170.598 Q 110.879 170.759 111.072 170.876 Q 111.264 170.994 111.396 171.151 Q 111.53 171.31 111.53 171.501 Q 111.53 171.731 111.335 171.98 Q 111.14 172.231 110.858 172.404 Q 110.575 172.577 110.34 172.577 Q 110.037 172.577 109.617 172.506 Q 109.199 172.435 109.02 172.348 L 109.02 171.396 L 109.255 171.396 Q 109.472 171.779 109.77 171.993 Q 110.067 172.207 110.37 172.207 Q 110.575 172.207 110.702 172.101 Q 110.829 171.996 110.829 171.847 L 110.829 171.847 Z M 114.295 171.847 Q 114.295 171.675 114.102 171.529 Q 113.91 171.384 113.514 171.18 Q 113.191 171.012 112.993 170.888 Q 112.795 170.766 112.655 170.601 Q 112.516 170.437 112.516 170.246 Q 112.516 170.023 112.702 169.769 Q 112.887 169.515 113.16 169.343 Q 113.433 169.169 113.669 169.169 Q 113.954 169.169 114.329 169.24 Q 114.704 169.311 114.871 169.397 L 114.871 170.349 L 114.636 170.349 Q 114.437 169.967 114.177 169.754 Q 113.916 169.539 113.643 169.539 Q 113.452 169.539 113.334 169.642 Q 113.216 169.744 113.216 169.899 Q 113.216 170.091 113.417 170.243 Q 113.619 170.393 114.028 170.598 Q 114.345 170.759 114.537 170.876 Q 114.728 170.994 114.862 171.151 Q 114.995 171.31 114.995 171.501 Q 114.995 171.731 114.799 171.98 Q 114.605 172.231 114.322 172.404 Q 114.04 172.577 113.805 172.577 Q 113.501 172.577 113.083 172.506 Q 112.664 172.435 112.484 172.348 L 112.484 171.396 L 112.72 171.396 Q 112.937 171.779 113.234 171.993 Q 113.532 172.207 113.836 172.207 Q 114.04 172.207 114.167 172.101 Q 114.295 171.996 114.295 171.847 L 114.295 171.847 Z M 117.617 172.269 L 117.493 172.515 L 115.764 172.515 L 115.764 172.323 L 116.316 171.89 L 116.316 170.085 L 115.764 169.701 L 115.764 169.509 L 116.824 169.113 L 117.06 169.113 L 117.06 172.051 L 117.617 172.269 L 117.617 172.269 Z M 116.663 167.258 Q 116.849 167.258 116.969 167.394 Q 117.09 167.529 117.09 167.734 Q 117.09 167.876 117.004 168.003 Q 116.917 168.13 116.787 168.204 Q 116.657 168.278 116.533 168.278 Q 116.346 168.278 116.225 168.142 Q 116.105 168.006 116.105 167.802 Q 116.105 167.66 116.192 167.532 Q 116.278 167.406 116.408 167.332 Q 116.539 167.258 116.663 167.258 L 116.663 167.258 Z M 124.126 172.269 L 124.002 172.515 L 122.824 172.515 L 122.824 170.431 Q 122.824 170.091 122.719 169.955 Q 122.613 169.819 122.341 169.819 Q 122.148 169.819 121.963 169.889 Q 121.777 169.961 121.522 170.171 L 121.522 172.051 L 122.08 172.269 L 121.956 172.515 L 120.778 172.515 L 120.778 170.431 Q 120.778 170.091 120.674 169.955 Q 120.568 169.819 120.295 169.819 Q 120.103 169.819 119.917 169.889 Q 119.731 169.961 119.477 170.171 L 119.477 172.051 L 120.034 172.269 L 119.91 172.515 L 118.181 172.515 L 118.181 172.323 L 118.733 171.89 L 118.733 170.14 L 118.181 169.819 L 118.181 169.627 L 119.242 169.107 L 119.44 169.899 L 120.264 169.213 Q 120.395 169.163 120.605 169.163 Q 120.965 169.163 121.2 169.358 Q 121.436 169.553 121.498 169.893 L 122.304 169.219 Q 122.433 169.169 122.645 169.169 Q 123.066 169.169 123.313 169.425 Q 123.562 169.683 123.562 170.122 L 123.562 172.051 L 124.126 172.269 L 124.126 172.269 Z M 126.574 169.169 Q 126.983 169.169 127.309 169.382 Q 127.635 169.595 127.818 169.961 Q 128 170.326 128 170.766 Q 128 171.242 127.709 171.659 Q 127.418 172.077 126.98 172.326 Q 126.544 172.577 126.135 172.577 Q 125.725 172.577 125.4 172.364 Q 125.074 172.151 124.892 171.787 Q 124.709 171.42 124.709 170.982 Q 124.709 170.505 125 170.088 Q 125.291 169.67 125.728 169.419 Q 126.165 169.169 126.574 169.169 L 126.574 169.169 Z M 126.215 169.689 Q 125.515 169.689 125.515 170.684 Q 125.515 171.273 125.768 171.665 Q 126.023 172.058 126.494 172.058 Q 127.194 172.058 127.194 171.056 Q 127.194 170.474 126.941 170.081 Q 126.686 169.689 126.215 169.689 L 126.215 169.689 Z"/>
 </g>
 <defs>
  <filter id="nTixgYLuBDN8I0UBdjplbtf3dCvyNiO0" width="400%" height="400%" x="-200%" y="-200%" color-interpolation-filters="sRGB" filterUnits="objectBoundingBox">
   <feGaussianBlur xmlns="http://www.w3.org/2000/svg" in="SourceGraphic" stdDeviation="4.294"/>
   <feOffset xmlns="http://www.w3.org/2000/svg" dx="0" dy="4" result="pf_100_offsetBlur"/>
   <feFlood xmlns="http://www.w3.org/2000/svg" flood-opacity=".4"/>
   <feComposite xmlns="http://www.w3.org/2000/svg" in2="pf_100_offsetBlur" operator="in" result="pf_100_dropShadow"/>
   <feBlend xmlns="http://www.w3.org/2000/svg" in="SourceGraphic" in2="pf_100_dropShadow" mode="normal"/>
  </filter>
 </defs>
 <g style="opacity:0.4">
  <g opacity=".4">
   <linearGradient id="_lgradient_23" x1=".517" x2=".517" y1="0" y2="1" gradientTransform="matrix(244.651,0,0,228.341,5.68,11.95)" gradientUnits="userSpaceOnUse">
    <stop offset="0%" style="stop-color:#ffffff"/>
    <stop offset="12.5%" stop-opacity=".098" style="stop-color:#ffffff"/>
    <stop offset="92.5%" style="stop-color:#000000"/>
    <stop offset="100%" style="stop-color:#000000"/>
   </linearGradient>
   <path fill="url(#_lgradient_23)" fill-rule="evenodd" d="M 165.068 11.951 C 169.396 11.941 173.724 11.991 178.052 12.089 C 181.927 12.167 185.802 12.315 189.678 12.541 C 193.131 12.737 196.583 13.022 200.026 13.395 C 203.086 13.73 206.144 14.181 209.174 14.741 C 211.887 15.241 214.573 15.881 217.22 16.657 C 219.618 17.354 221.965 18.217 224.243 19.241 C 226.355 20.182 228.383 21.303 230.303 22.591 C 232.143 23.831 233.862 25.242 235.437 26.806 C 237.002 28.375 238.415 30.089 239.657 31.925 C 240.943 33.842 242.068 35.863 243.02 37.967 C 244.041 40.242 244.908 42.582 245.617 44.972 C 246.394 47.616 247.034 50.299 247.535 53.009 C 248.097 56.034 248.547 59.078 248.883 62.136 C 249.257 65.575 249.542 69.014 249.739 72.462 C 249.965 76.323 250.112 80.194 250.201 84.055 C 250.289 88.378 250.339 92.701 250.329 97.015 L 250.329 155.225 C 250.339 159.549 250.289 163.862 250.201 168.185 C 250.116 172.052 249.962 175.917 249.739 179.778 C 249.542 183.227 249.257 186.67 248.883 190.104 C 248.547 193.165 248.097 196.213 247.535 199.241 C 247.033 201.948 246.393 204.627 245.617 207.268 C 244.91 209.659 244.042 211.999 243.02 214.273 C 242.07 216.378 240.945 218.399 239.656 220.315 C 238.417 222.153 237.004 223.867 235.436 225.434 C 233.861 226.998 232.142 228.409 230.302 229.649 C 228.382 230.937 226.355 232.058 224.243 232.999 C 221.963 234.022 219.617 234.888 217.22 235.593 C 214.574 236.37 211.888 237.007 209.174 237.499 C 206.143 238.065 203.091 238.514 200.026 238.845 C 196.583 239.218 193.131 239.503 189.678 239.699 C 185.803 239.925 181.928 240.073 178.052 240.161 C 173.724 240.249 169.396 240.299 165.068 240.289 L 90.942 240.289 C 86.614 240.299 82.286 240.249 77.958 240.161 C 74.08 240.076 70.204 239.922 66.332 239.699 C 62.876 239.503 59.425 239.218 55.984 238.845 C 52.919 238.514 49.867 238.065 46.836 237.499 C 44.122 237.007 41.436 236.37 38.79 235.593 C 36.393 234.888 34.047 234.022 31.767 232.999 C 29.655 232.058 27.627 230.937 25.707 229.649 C 23.867 228.409 22.148 226.998 20.573 225.434 C 19.005 223.867 17.592 222.153 16.353 220.315 C 15.065 218.399 13.94 216.378 12.99 214.273 C 11.968 211.999 11.1 209.659 10.393 207.268 C 9.617 204.627 8.977 201.948 8.475 199.241 C 7.913 196.213 7.463 193.165 7.127 190.104 C 6.753 186.67 6.468 183.227 6.271 179.778 C 6.048 175.917 5.894 172.052 5.809 168.185 C 5.717 163.866 5.674 159.545 5.681 155.225 L 5.681 97.015 C 5.671 92.701 5.721 88.378 5.809 84.055 C 5.898 80.195 6.045 76.323 6.271 72.462 C 6.468 69.014 6.753 65.575 7.127 62.136 C 7.462 59.081 7.914 56.035 8.475 53.009 C 8.976 50.299 9.616 47.616 10.393 44.972 C 11.102 42.582 11.969 40.242 12.99 37.967 C 13.942 35.863 15.067 33.842 16.354 31.925 C 17.596 30.089 19.009 28.375 20.574 26.806 C 22.149 25.242 23.868 23.831 25.708 22.591 C 27.628 21.303 29.655 20.182 31.767 19.241 C 34.045 18.217 36.392 17.354 38.79 16.657 C 41.437 15.881 44.123 15.241 46.836 14.741 C 49.868 14.18 52.919 13.731 55.984 13.395 C 59.427 13.022 62.879 12.737 66.332 12.541 C 70.207 12.315 74.082 12.167 77.958 12.089 C 82.286 11.991 86.614 11.941 90.942 11.951 L 165.068 11.951 L 165.068 11.951 Z M 165.078 15.96 C 169.376 15.95 173.675 15.999 177.973 16.087 C 181.8 16.176 185.626 16.323 189.453 16.539 C 192.836 16.736 196.219 17.011 199.583 17.384 C 202.554 17.699 205.515 18.131 208.446 18.681 C 211.027 19.154 213.581 19.761 216.099 20.499 C 218.318 21.148 220.49 21.949 222.6 22.896 C 224.505 23.749 226.335 24.761 228.07 25.922 C 229.694 27.015 231.21 28.262 232.594 29.646 C 233.98 31.031 235.231 32.544 236.332 34.165 C 237.492 35.892 238.506 37.712 239.362 39.608 C 240.307 41.716 241.109 43.886 241.762 46.102 C 242.504 48.613 243.114 51.161 243.591 53.736 C 244.131 56.664 244.565 59.611 244.889 62.578 C 245.263 65.938 245.539 69.308 245.735 72.688 C 245.952 76.51 246.109 80.322 246.188 84.144 C 246.276 88.437 246.325 92.721 246.325 97.014 L 246.325 155.226 C 246.325 159.519 246.276 163.803 246.188 168.096 C 246.106 171.917 245.955 175.736 245.735 179.552 C 245.539 182.932 245.263 186.302 244.889 189.672 C 244.564 192.631 244.132 195.577 243.591 198.504 C 243.114 201.079 242.503 203.627 241.761 206.138 C 241.109 208.355 240.307 210.524 239.361 212.632 C 238.507 214.529 237.493 216.35 236.331 218.075 C 235.233 219.701 233.982 221.218 232.594 222.605 C 231.206 223.983 229.691 225.226 228.069 226.318 C 226.335 227.479 224.505 228.491 222.6 229.344 C 220.492 230.295 218.32 231.096 216.099 231.741 C 213.581 232.479 211.027 233.086 208.446 233.559 C 205.515 234.109 202.554 234.541 199.583 234.865 C 196.219 235.229 192.836 235.514 189.453 235.701 C 185.626 235.917 181.8 236.074 177.973 236.153 C 173.675 236.251 169.376 236.29 165.078 236.29 L 90.932 236.29 C 86.634 236.29 82.335 236.25 78.037 236.153 C 74.208 236.071 70.381 235.92 66.557 235.701 C 63.174 235.511 59.796 235.232 56.427 234.865 C 53.457 234.543 50.501 234.108 47.564 233.559 C 44.983 233.086 42.429 232.479 39.911 231.741 C 37.69 231.096 35.518 230.295 33.41 229.344 C 31.505 228.491 29.675 227.479 27.94 226.318 C 26.318 225.226 24.803 223.982 23.416 222.604 C 22.028 221.218 20.776 219.701 19.678 218.075 C 18.516 216.35 17.502 214.529 16.648 212.632 C 15.702 210.524 14.9 208.355 14.248 206.138 C 13.506 203.627 12.896 201.079 12.419 198.504 C 11.878 195.577 11.446 192.631 11.121 189.672 C 10.747 186.302 10.471 182.932 10.275 179.552 C 10.055 175.736 9.904 171.917 9.822 168.096 C 9.732 163.807 9.686 159.516 9.685 155.226 L 9.685 97.014 C 9.685 92.721 9.734 88.437 9.822 84.144 C 9.901 80.322 10.058 76.51 10.275 72.688 C 10.472 69.308 10.747 65.938 11.121 62.578 C 11.445 59.611 11.878 56.664 12.419 53.736 C 12.896 51.161 13.507 48.613 14.249 46.102 C 14.902 43.886 15.704 41.716 16.649 39.608 C 17.505 37.712 18.519 35.892 19.679 34.165 C 20.779 32.544 22.031 31.03 23.416 29.645 C 24.801 28.261 26.316 27.014 27.941 25.922 C 29.675 24.761 31.505 23.749 33.41 22.896 C 35.52 21.949 37.692 21.148 39.911 20.499 C 42.429 19.761 44.983 19.154 47.564 18.681 C 50.495 18.131 53.456 17.699 56.427 17.384 C 59.791 17.011 63.174 16.736 66.557 16.539 C 70.381 16.325 74.208 16.174 78.037 16.087 C 82.335 15.999 86.634 15.95 90.932 15.96 L 165.078 15.96 L 165.078 15.96 Z"/>
  </g>
 </g>
</svg>
