<svg xmlns="http://www.w3.org/2000/svg" style="isolation:isolate" width="256" height="256">
 <defs>
  <filter id="a" width="400%" height="400%" x="-200%" y="-200%" color-interpolation-filters="sRGB" filterUnits="objectBoundingBox">
   <feGaussianBlur xmlns="http://www.w3.org/2000/svg" in="SourceGraphic" stdDeviation="4.294"/>
   <feOffset xmlns="http://www.w3.org/2000/svg" dy="4" result="pf_100_offsetBlur"/>
   <feFlood xmlns="http://www.w3.org/2000/svg" flood-opacity=".4"/>
   <feComposite xmlns="http://www.w3.org/2000/svg" in2="pf_100_offsetBlur" operator="in" result="pf_100_dropShadow"/>
   <feBlend xmlns="http://www.w3.org/2000/svg" in="SourceGraphic" in2="pf_100_dropShadow"/>
  </filter>
 </defs>
 <path fill="#23abb8" d="M165.685 11.947c74.055 0 84.639 10.557 84.639 84.544v59.251c0 73.986-10.584 84.543-84.639 84.543h-75.37c-74.055 0-84.639-10.557-84.639-84.543V96.491c0-73.987 10.584-84.544 84.639-84.544h75.37z" filter="url(#a)"/>
 <path fill="#ffffff" opacity=".1" d="M87.22 11.83h81.549v228.338H87.22V11.83z"/>
 <path fill="#ffffff" opacity=".1" d="M5.676 126.116v29.626c0 73.986 10.584 84.543 84.639 84.543h75.37c74.055 0 84.639-10.557 84.639-84.543v-29.626H5.676z"/>
 <path fill="#a3f7ff" fill-rule="evenodd" d="M98.071 167.887q-11.455 0-19.709-6.12-8.254-6.121-11.848-16.902l15.273-5.727q2.696 5.727 7.075 9.152 4.38 3.425 9.659 3.425 5.502 0 8.647-2.077 3.144-2.078 3.144-6.008 0-2.583-2.302-4.605-2.302-2.021-4.829-2.976-2.527-.954-7.805-2.639-3.481-1.123-5.222-1.741-1.741-.617-4.997-1.965-3.257-1.347-4.942-2.471-1.684-1.123-4.043-3.032-2.358-1.909-3.537-3.986-1.179-2.078-2.078-5.054-.898-2.976-.898-6.345 0-9.434 7.412-15.835 7.412-6.401 20.102-6.401 10.556 0 17.744 5.503 7.187 5.503 9.545 14.15l-15.273 4.941q-3.706-8.422-12.915-8.422-9.545 0-9.545 6.401 0 1.46.898 2.583.899 1.123 3.257 2.246t3.874 1.684q1.516.562 5.335 1.909 4.043 1.348 6.233 2.134 2.189.786 6.008 2.415 3.818 1.628 6.008 3.481t4.548 4.436q2.359 2.583 3.425 6.064 1.067 3.482 1.067 7.637 0 11.118-8.31 17.632-8.31 6.513-21.001 6.513zm75.131-56.264v-2.47h16.284v47.392q0 6.738-.506 11.174-.505 4.436-2.133 8.535-1.629 4.099-4.605 6.513-2.976 2.415-7.861 4.043-4.885 1.628-11.96 2.19l-9.321-13.926q12.016-1.01 16.003-2.807t4.099-7.974q-3.818 3.594-11.455 3.594-10.893 0-17.351-7.749-6.457-7.749-6.457-22.348 0-13.701 6.57-21.843 6.569-8.142 17.238-8.142 7.412 0 11.455 3.818zm0 37.06v-21.45l-.842-.842q-.73-.73-1.236-1.067-.505-.337-1.516-.842-1.011-.505-2.358-.73-1.348-.224-3.032-.224-4.717 0-7.356 3.705-2.639 3.706-2.639 10.557 0 14.375 9.995 14.375 5.952 0 8.984-3.482z"/>
 <g opacity=".4">
  <linearGradient id="b" x1=".517" x2=".517" y2="1" gradientTransform="matrix(244.65 0 0 228.34 5.68 11.95)" gradientUnits="userSpaceOnUse">
   <stop offset="0%" stop-color="#ffffff"/>
   <stop offset="12.5%" stop-color="#ffffff" stop-opacity=".098"/>
   <stop offset="92.5%" stop-opacity=".098"/>
   <stop offset="100%" stop-opacity=".498"/>
  </linearGradient>
  <path fill="url(#b)" fill-rule="evenodd" d="M165.068 11.951c4.328-.01 8.656.04 12.984.138 3.875.078 7.75.226 11.626.452 3.453.196 6.905.481 10.348.854 3.06.335 6.118.786 9.148 1.346a80.47 80.47 0 0 1 8.046 1.916 53.64 53.64 0 0 1 7.023 2.584 40.413 40.413 0 0 1 6.06 3.35 35.176 35.176 0 0 1 5.134 4.215 35.072 35.072 0 0 1 4.22 5.119 41.692 41.692 0 0 1 3.363 6.042 55.982 55.982 0 0 1 2.597 7.005 80.224 80.224 0 0 1 1.918 8.037 124.43 124.43 0 0 1 1.348 9.127c.374 3.439.659 6.878.856 10.326.226 3.861.373 7.732.462 11.593.088 4.323.138 8.646.128 12.96v58.21c.01 4.324-.04 8.637-.128 12.96a325.177 325.177 0 0 1-.462 11.593 200.984 200.984 0 0 1-.856 10.326 124.691 124.691 0 0 1-1.348 9.137 80.687 80.687 0 0 1-1.918 8.027 55.414 55.414 0 0 1-2.597 7.005 41.18 41.18 0 0 1-3.364 6.042 34.559 34.559 0 0 1-4.22 5.119 35.177 35.177 0 0 1-5.134 4.215 40.412 40.412 0 0 1-6.059 3.35 55.138 55.138 0 0 1-7.023 2.594 77.806 77.806 0 0 1-8.046 1.906 120 120 0 0 1-9.148 1.346c-3.443.373-6.895.658-10.348.854-3.875.226-7.75.374-11.626.462-4.328.088-8.656.138-12.984.128H90.942c-4.328.01-8.656-.04-12.984-.128a328.387 328.387 0 0 1-11.626-.462 203.003 203.003 0 0 1-10.348-.854 120 120 0 0 1-9.148-1.346 77.806 77.806 0 0 1-8.046-1.906 55.139 55.139 0 0 1-7.023-2.594 40.413 40.413 0 0 1-6.06-3.35 35.176 35.176 0 0 1-5.134-4.215 34.56 34.56 0 0 1-4.22-5.119 41.183 41.183 0 0 1-3.363-6.042 55.415 55.415 0 0 1-2.597-7.005 80.682 80.682 0 0 1-1.918-8.027 124.688 124.688 0 0 1-1.348-9.137 200.993 200.993 0 0 1-.856-10.326 325.212 325.212 0 0 1-.462-11.593 569.197 569.197 0 0 1-.128-12.96v-58.21c-.01-4.314.04-8.637.128-12.96.089-3.86.236-7.732.462-11.593.197-3.448.482-6.887.856-10.326.335-3.055.787-6.101 1.348-9.127a80.219 80.219 0 0 1 1.918-8.037 55.983 55.983 0 0 1 2.597-7.005 41.695 41.695 0 0 1 3.364-6.042 35.072 35.072 0 0 1 4.22-5.119 35.176 35.176 0 0 1 5.134-4.215 40.413 40.413 0 0 1 6.059-3.35 53.64 53.64 0 0 1 7.023-2.584 80.47 80.47 0 0 1 8.046-1.916 125.11 125.11 0 0 1 9.148-1.346c3.443-.373 6.895-.658 10.348-.854 3.875-.226 7.75-.374 11.626-.452 4.328-.098 8.656-.148 12.984-.138h74.126zm.01 4.009c4.298-.01 8.597.039 12.895.127 3.827.089 7.653.236 11.48.452 3.383.197 6.766.472 10.13.845 2.971.315 5.932.747 8.863 1.297a75.943 75.943 0 0 1 7.653 1.818 50.493 50.493 0 0 1 6.501 2.397 37.038 37.038 0 0 1 5.47 3.026 30.383 30.383 0 0 1 4.524 3.724 31.05 31.05 0 0 1 3.738 4.519 37.271 37.271 0 0 1 3.03 5.443 51.46 51.46 0 0 1 2.4 6.494 75.563 75.563 0 0 1 1.829 7.634c.54 2.928.974 5.875 1.298 8.842.374 3.36.65 6.73.846 10.11.217 3.822.374 7.634.453 11.456.088 4.293.137 8.577.137 12.87v58.212c0 4.293-.049 8.577-.137 12.87a317.503 317.503 0 0 1-.453 11.456c-.196 3.38-.472 6.75-.846 10.12a121.689 121.689 0 0 1-1.298 8.832 75.562 75.562 0 0 1-1.83 7.634 50.902 50.902 0 0 1-2.4 6.494 36.767 36.767 0 0 1-3.03 5.443 30.615 30.615 0 0 1-3.737 4.53 30.938 30.938 0 0 1-4.525 3.713 37.038 37.038 0 0 1-5.469 3.026 49.07 49.07 0 0 1-6.501 2.397 75.942 75.942 0 0 1-7.653 1.818c-2.931.55-5.892.982-8.863 1.306-3.364.364-6.747.649-10.13.836-3.827.216-7.653.373-11.48.452-4.298.098-8.597.137-12.895.137H90.932c-4.298 0-8.597-.04-12.895-.137a320.093 320.093 0 0 1-11.48-.452 193.696 193.696 0 0 1-10.13-.836 116.71 116.71 0 0 1-8.863-1.306 75.942 75.942 0 0 1-7.653-1.818 49.07 49.07 0 0 1-6.501-2.397 37.038 37.038 0 0 1-5.47-3.026 30.938 30.938 0 0 1-4.524-3.714 30.615 30.615 0 0 1-3.738-4.529 36.766 36.766 0 0 1-3.03-5.443 50.903 50.903 0 0 1-2.4-6.494 75.567 75.567 0 0 1-1.829-7.634 121.69 121.69 0 0 1-1.298-8.832c-.374-3.37-.65-6.74-.846-10.12a317.535 317.535 0 0 1-.453-11.456 623.851 623.851 0 0 1-.137-12.87V97.014c0-4.293.049-8.577.137-12.87.079-3.822.236-7.634.453-11.456.197-3.38.472-6.75.846-10.11.324-2.967.757-5.914 1.298-8.842a75.568 75.568 0 0 1 1.83-7.634 51.46 51.46 0 0 1 2.4-6.494 37.27 37.27 0 0 1 3.03-5.443 31.05 31.05 0 0 1 3.737-4.52 30.384 30.384 0 0 1 4.525-3.723 37.039 37.039 0 0 1 5.469-3.026 50.494 50.494 0 0 1 6.501-2.397 75.943 75.943 0 0 1 7.653-1.818c2.931-.55 5.892-.982 8.863-1.297 3.364-.373 6.747-.648 10.13-.845a344.71 344.71 0 0 1 11.48-.452c4.298-.088 8.597-.137 12.895-.127H165.078z"/>
 </g>
</svg>
