<svg xmlns="http://www.w3.org/2000/svg" style="isolation:isolate" width="256" height="256">
 <defs>
  <filter id="a" width="400%" height="400%" x="-200%" y="-200%" color-interpolation-filters="sRGB" filterUnits="objectBoundingBox">
   <feGaussianBlur xmlns="http://www.w3.org/2000/svg" in="SourceGraphic" stdDeviation="4.294"/>
   <feOffset xmlns="http://www.w3.org/2000/svg" dy="4" result="pf_100_offsetBlur"/>
   <feFlood xmlns="http://www.w3.org/2000/svg" flood-opacity=".4"/>
   <feComposite xmlns="http://www.w3.org/2000/svg" in2="pf_100_offsetBlur" operator="in" result="pf_100_dropShadow"/>
   <feBlend xmlns="http://www.w3.org/2000/svg" in="SourceGraphic" in2="pf_100_dropShadow"/>
  </filter>
 </defs>
 <path fill="#7c5f3f" d="M165.685 11.947c74.055 0 84.639 10.557 84.639 84.544v59.251c0 73.986-10.584 84.543-84.639 84.543h-75.37c-74.055 0-84.639-10.557-84.639-84.543V96.491c0-73.987 10.584-84.544 84.639-84.544h75.37z" filter="url(#a)"/>
 <path fill="#ffffff" opacity=".1" d="M87.22 11.83h81.549v228.338H87.22V11.83z"/>
 <path fill="#ffffff" opacity=".1" d="M5.676 126.116v29.626c0 73.986 10.584 84.543 84.639 84.543h75.37c74.055 0 84.639-10.557 84.639-84.543v-29.626H5.676z"/>
 <path opacity=".1" d="M6.125 175.125c.003 7.513.555 13.842 1.625 18.958 3.614-.614 7.213-1.211 10.944-1.892.498-.091.882-.166 1.378-.259 8.798-.556 17.405-1.612 22.187-3.045.522.22 1.077.416 1.655.634 2.374.937 5.759 1.331 9.103 1.496 1.281.542 2.703 1.122 3.796 1.165 1.754.084 3.432-.25 5.307-.5 3.745-.478 8.11-1.349 12.528-2.493 4.413-1.123 8.723-2.472 12.323-3.824 1.802-.665 3.583-1.286 4.937-1.995.369-.186.673-.478.987-.737.644-.073 1.343-.101 1.954-.145 1.993.151 3.925.293 6.357.218 4.242-.123 9.435-.543 14.225-.666 4.72-.112 9.383-.013 13.433.364l.36.041c3.984.393 7.358 1.058 9.535 2.089.686.394 1.546.622 2.468.664 2.677-.042 5.998-.412 9.864-.996 3.842-.56 8.104-1.395 12.323-1.996 4.193-.58 8.207-1.015 11.005-1.162 1.396-.064 2.233-.043 2.663 0 1.379.85 3.418 1.056 5.124.498h.185c4.176 1.744 9.492 2.358 14.42 2.328 2.464 0 4.763-.209 7.015-.832 1.657-.457 3.156-1.351 4.176-2.66 2.553-1.256 4.278-2.577 5.266-3.771.593-.063 1.256-.073 1.739-.229.179-.058.374-.099.555-.155 12.218-.883 34.436-.655 34.436-.847v-10.448L6.125 175.125z"/>
 <path fill="#aba19a" d="M7.125 61.75C6 65.875 4.5 175.625 7.125 189.125c3.614-.611 7.838-1.57 11.569-2.251 5.973-1.101 11.801-2.302 16.498-3.159 2.871-.543 3.847-.703 5.504-.996.898.666 2.01 1.028 3.219 1.485 2.373.937 5.758 1.33 9.102 1.494 1.281.543 2.704 1.124 3.794 1.165 1.753.085 3.433-.25 5.308-.5 3.744-.478 8.11-1.346 12.528-2.489 4.414-1.123 8.727-2.474 12.324-3.825 1.802-.664 3.582-1.287 4.935-1.994.5-.25.9-.724 1.326-1 2.639.185 4.893.431 7.974.334 4.245-.122 9.437-.541 14.224-.664 9.553-.23 18.89.393 23.33 2.494.684.394 1.548.623 2.47.666 2.675-.043 5.998-.416 9.863-1 3.839-.56 8.105-1.395 12.324-1.996 4.191-.58 8.205-1.015 11.001-1.164 1.401-.064 2.233-.043 2.664 0 1.38.85 3.419 1.059 5.125.5h.184c4.177 1.744 9.496 2.362 14.419 2.33 2.465 0 4.767-.213 7.015-.836 1.659-.457 3.16-1.351 4.176-2.66 2.701-1.329 4.551-2.745 5.493-3.989 13.187-1.064 24.012-.825 36.756-.82L250 80.855c-2.486.101-5.229.149-8.237.282-3.56.165-7.115.5-10.053.665-1.49.106-2.87.064-3.981.165-.88.106-1.375.314-2.27.5-.074.022-.526 0-.579 0-2.297.25-5.003-.616-9.48-2.325-4.603-1.722-10.49-4.33-17.458-6.154-.358-.085-.715-.123-1.132-.165-7.867-.458-15.767 1.788-23.708 3.324-7.921 1.559-15.336 2.389-21.055.83a7.387 7.387 0 0 0-2.85 0c-6.688 1-13.086-.25-19.543-2.16-5.971-1.766-11.711-4.154-17.073-5.483-.4-.187-.916-.165-1.327-.336-11.665-4.633-27.001-4.586-37.933-1.825-15.741-2.388-34.755-4.883-53.485-5.819-4.087-.197-8.735-.508-12.711-.604z"/>
 <path fill="#c6935f" d="M6.5 69.75c-1.25 28.5-1.875 80.375.25 117.125 14.067-.048 34.163-1.686 38.492-4.501 2.088-1.351 10.642-.787 12.517-1.995.31-.208 32.004-2.841 36.227-3.154 12.539-.958 30.655-1.569 42.488.994 1.991.437 36.785-2.696 39.076-2.989 4.529-.602 9.764-.405 14.414-1.011 3.671-.479 7.299-2.681 11.002-3.16 3.749-.5 10.558 1.123 14.039 0 10.486-3.394 24.375-3.213 35.245-5.059.167-26.986.052-53.863-.125-80.25-6.546-.5-14.228-.857-19.173-2.129-8.585-2.223-20.423-4.632-29.976-5.319-17.115-1.244-34.758.026-51.974-1-14.961-.894-29.422-2.432-44-3.99-11.122-1.208-23.45.558-34.714 0-19.566-.968-41.369-2.873-62.538-3.564l-1.25.002z"/>
 <path opacity=".1" d="M181.064 95.777c-2.754.25-4.876 2.617-4.813 5.425a5.278 5.278 0 0 0 5.329 5.214h15.799c5.862 0 10.533 4.698 10.533 10.617 0 5.842-4.503 10.475-10.222 10.639h-16.11c-1.438-.02-2.796.56-3.808 1.581a5.412 5.412 0 0 0-1.521 3.845c0 1.416.552 2.783 1.585 3.783.99 1 2.306 1.558 3.744 1.538h15.783c5.883 0 10.533 4.696 10.533 10.638 0 5.821-4.487 10.453-10.222 10.619h-16.11a5.241 5.241 0 0 0-3.807 1.558 5.41 5.41 0 0 0-1.543 3.867v.48a5.304 5.304 0 0 0 5.35 4.739h15.779c.347 0 .72-.021 1.069-.086 11.069-.558 19.975-9.866 19.975-21.172a21.328 21.328 0 0 0-7.136-15.957c4.402-3.884 7.136-9.602 7.136-15.96 0-11.554-9.279-21.048-20.634-21.278h-16.705m-63.111 15.916c-2.775.207-4.939 2.575-4.877 5.384v11.39c-9.032 2.388-15.798 10.692-15.798 20.528a5.313 5.313 0 0 0 4.713 5.403h.495a5.15 5.15 0 0 0 3.786-1.558 5.246 5.246 0 0 0 1.543-3.845c0-5.713 4.318-10.224 9.874-10.554h1.238c5.598.334 9.937 4.819 9.937 10.554 0 2.931 2.365 5.298 5.267 5.298s5.267-2.367 5.267-5.298c0-9.853-6.747-18.14-15.799-20.528v-11.39a5.239 5.239 0 0 0-1.628-3.948c-1.069-1-2.527-1.558-3.992-1.436m-62.764.065c-2.943 0-5.266 2.366-5.266 5.319 0 2.181 1.254 4.095 3.129 4.905a21.045 21.045 0 0 0-3.129 11.033c0 11.696 9.506 21.278 21.045 21.278 11.559 0 21.065-9.582 21.065-21.278 0-4.033-1.196-7.816-3.15-11.033 1.869-.831 3.15-2.724 3.15-4.905 0-2.953-2.366-5.319-5.267-5.319m73.687 0c-2.924 0-5.267 2.366-5.267 5.319v31.918c0 2.931 2.343 5.298 5.267 5.298 2.922 0 5.265-2.367 5.265-5.298v-31.918c0-2.953-2.343-5.319-5.265-5.319zm-89.485 10.639c5.86 0 10.532 4.697 10.532 10.618 0 5.941-4.672 10.638-10.532 10.638-5.862 0-10.512-4.697-10.512-10.638 0-5.921 4.65-10.618 10.512-10.618z"/>
 <path fill="#f9f9f9" d="M181.064 90.458c-2.754.25-4.876 2.616-4.813 5.425a5.279 5.279 0 0 0 5.329 5.214h15.799c5.862 0 10.533 4.697 10.533 10.617 0 5.842-4.503 10.474-10.222 10.639h-16.11c-1.438-.02-2.796.558-3.808 1.581a5.41 5.41 0 0 0-1.521 3.846c0 1.415.552 2.782 1.585 3.782.99 1 2.306 1.558 3.744 1.536h15.783c5.883 0 10.533 4.698 10.533 10.64 0 5.819-4.487 10.453-10.222 10.617h-16.11a5.243 5.243 0 0 0-3.807 1.56 5.41 5.41 0 0 0-1.543 3.866v.479a5.305 5.305 0 0 0 5.35 4.741h15.779c.347 0 .72-.021 1.069-.086 11.069-.558 19.975-9.868 19.975-21.172a21.334 21.334 0 0 0-7.136-15.959c4.402-3.882 7.136-9.601 7.136-15.959 0-11.554-9.279-21.048-20.634-21.278h-16.705m-63.111 15.916c-2.775.208-4.939 2.575-4.877 5.385v11.389c-9.032 2.388-15.798 10.691-15.798 20.527a5.315 5.315 0 0 0 4.713 5.405h.495a5.158 5.158 0 0 0 3.786-1.558 5.25 5.25 0 0 0 1.543-3.847c0-5.713 4.318-10.224 9.874-10.554h1.238c5.598.335 9.937 4.821 9.937 10.554 0 2.931 2.365 5.298 5.267 5.298s5.267-2.367 5.267-5.298c0-9.851-6.747-18.139-15.799-20.527v-11.389a5.237 5.237 0 0 0-1.628-3.948c-1.069-1-2.527-1.559-3.992-1.437m-62.764.065c-2.943 0-5.266 2.366-5.266 5.32 0 2.181 1.254 4.096 3.129 4.904a21.05 21.05 0 0 0-3.129 11.032c0 11.698 9.506 21.278 21.045 21.278 11.559 0 21.065-9.58 21.065-21.278 0-4.031-1.196-7.814-3.15-11.032 1.869-.83 3.15-2.723 3.15-4.904 0-2.954-2.366-5.32-5.267-5.32m73.687 0c-2.924 0-5.267 2.366-5.267 5.32v31.916c0 2.931 2.343 5.298 5.267 5.298 2.922 0 5.265-2.367 5.265-5.298v-31.916c0-2.954-2.343-5.32-5.265-5.32zm-89.485 10.639c5.86 0 10.532 4.698 10.532 10.617 0 5.942-4.672 10.64-10.532 10.64-5.862 0-10.512-4.698-10.512-10.64 0-5.919 4.65-10.617 10.512-10.617z"/>
 <g opacity=".4">
  <linearGradient id="b" x1=".517" x2=".517" y2="1" gradientTransform="matrix(244.65 0 0 228.34 5.68 11.95)" gradientUnits="userSpaceOnUse">
   <stop offset="0%" stop-color="#ffffff"/>
   <stop offset="12.5%" stop-color="#ffffff" stop-opacity=".098"/>
   <stop offset="92.5%" stop-opacity=".098"/>
   <stop offset="100%" stop-opacity=".498"/>
  </linearGradient>
  <path fill="url(#b)" fill-rule="evenodd" d="M165.068 11.951c4.328-.01 8.656.04 12.984.138 3.875.078 7.75.226 11.626.452 3.453.196 6.905.481 10.348.854 3.06.335 6.118.786 9.148 1.346a80.47 80.47 0 0 1 8.046 1.916 53.64 53.64 0 0 1 7.023 2.584 40.413 40.413 0 0 1 6.06 3.35 35.176 35.176 0 0 1 5.134 4.215 35.072 35.072 0 0 1 4.22 5.119 41.692 41.692 0 0 1 3.363 6.042 55.982 55.982 0 0 1 2.597 7.005 80.224 80.224 0 0 1 1.918 8.037 124.43 124.43 0 0 1 1.348 9.127c.374 3.439.659 6.878.856 10.326.226 3.861.373 7.732.462 11.593.088 4.323.138 8.646.128 12.96v58.21c.01 4.324-.04 8.637-.128 12.96a325.177 325.177 0 0 1-.462 11.593 200.984 200.984 0 0 1-.856 10.326 124.691 124.691 0 0 1-1.348 9.137 80.687 80.687 0 0 1-1.918 8.027 55.414 55.414 0 0 1-2.597 7.005 41.18 41.18 0 0 1-3.364 6.042 34.559 34.559 0 0 1-4.22 5.119 35.177 35.177 0 0 1-5.134 4.215 40.412 40.412 0 0 1-6.059 3.35 55.138 55.138 0 0 1-7.023 2.594 77.806 77.806 0 0 1-8.046 1.906 120 120 0 0 1-9.148 1.346c-3.443.373-6.895.658-10.348.854-3.875.226-7.75.374-11.626.462-4.328.088-8.656.138-12.984.128H90.942c-4.328.01-8.656-.04-12.984-.128a328.387 328.387 0 0 1-11.626-.462 203.003 203.003 0 0 1-10.348-.854 120 120 0 0 1-9.148-1.346 77.806 77.806 0 0 1-8.046-1.906 55.139 55.139 0 0 1-7.023-2.594 40.413 40.413 0 0 1-6.06-3.35 35.176 35.176 0 0 1-5.134-4.215 34.56 34.56 0 0 1-4.22-5.119 41.183 41.183 0 0 1-3.363-6.042 55.415 55.415 0 0 1-2.597-7.005 80.682 80.682 0 0 1-1.918-8.027 124.688 124.688 0 0 1-1.348-9.137 200.993 200.993 0 0 1-.856-10.326 325.212 325.212 0 0 1-.462-11.593 569.197 569.197 0 0 1-.128-12.96v-58.21c-.01-4.314.04-8.637.128-12.96.089-3.86.236-7.732.462-11.593.197-3.448.482-6.887.856-10.326.335-3.055.787-6.101 1.348-9.127a80.219 80.219 0 0 1 1.918-8.037 55.983 55.983 0 0 1 2.597-7.005 41.695 41.695 0 0 1 3.364-6.042 35.072 35.072 0 0 1 4.22-5.119 35.176 35.176 0 0 1 5.134-4.215 40.413 40.413 0 0 1 6.059-3.35 53.64 53.64 0 0 1 7.023-2.584 80.47 80.47 0 0 1 8.046-1.916 125.11 125.11 0 0 1 9.148-1.346c3.443-.373 6.895-.658 10.348-.854 3.875-.226 7.75-.374 11.626-.452 4.328-.098 8.656-.148 12.984-.138h74.126zm.01 4.009c4.298-.01 8.597.039 12.895.127 3.827.089 7.653.236 11.48.452 3.383.197 6.766.472 10.13.845 2.971.315 5.932.747 8.863 1.297a75.943 75.943 0 0 1 7.653 1.818 50.493 50.493 0 0 1 6.501 2.397 37.038 37.038 0 0 1 5.47 3.026 30.383 30.383 0 0 1 4.524 3.724 31.05 31.05 0 0 1 3.738 4.519 37.271 37.271 0 0 1 3.03 5.443 51.46 51.46 0 0 1 2.4 6.494 75.563 75.563 0 0 1 1.829 7.634c.54 2.928.974 5.875 1.298 8.842.374 3.36.65 6.73.846 10.11.217 3.822.374 7.634.453 11.456.088 4.293.137 8.577.137 12.87v58.212c0 4.293-.049 8.577-.137 12.87a317.503 317.503 0 0 1-.453 11.456c-.196 3.38-.472 6.75-.846 10.12a121.689 121.689 0 0 1-1.298 8.832 75.562 75.562 0 0 1-1.83 7.634 50.902 50.902 0 0 1-2.4 6.494 36.767 36.767 0 0 1-3.03 5.443 30.615 30.615 0 0 1-3.737 4.53 30.938 30.938 0 0 1-4.525 3.713 37.038 37.038 0 0 1-5.469 3.026 49.07 49.07 0 0 1-6.501 2.397 75.942 75.942 0 0 1-7.653 1.818c-2.931.55-5.892.982-8.863 1.306-3.364.364-6.747.649-10.13.836-3.827.216-7.653.373-11.48.452-4.298.098-8.597.137-12.895.137H90.932c-4.298 0-8.597-.04-12.895-.137a320.093 320.093 0 0 1-11.48-.452 193.696 193.696 0 0 1-10.13-.836 116.71 116.71 0 0 1-8.863-1.306 75.942 75.942 0 0 1-7.653-1.818 49.07 49.07 0 0 1-6.501-2.397 37.038 37.038 0 0 1-5.47-3.026 30.938 30.938 0 0 1-4.524-3.714 30.615 30.615 0 0 1-3.738-4.529 36.766 36.766 0 0 1-3.03-5.443 50.903 50.903 0 0 1-2.4-6.494 75.567 75.567 0 0 1-1.829-7.634 121.69 121.69 0 0 1-1.298-8.832c-.374-3.37-.65-6.74-.846-10.12a317.535 317.535 0 0 1-.453-11.456 623.851 623.851 0 0 1-.137-12.87V97.014c0-4.293.049-8.577.137-12.87.079-3.822.236-7.634.453-11.456.197-3.38.472-6.75.846-10.11.324-2.967.757-5.914 1.298-8.842a75.568 75.568 0 0 1 1.83-7.634 51.46 51.46 0 0 1 2.4-6.494 37.27 37.27 0 0 1 3.03-5.443 31.05 31.05 0 0 1 3.737-4.52 30.384 30.384 0 0 1 4.525-3.723 37.039 37.039 0 0 1 5.469-3.026 50.494 50.494 0 0 1 6.501-2.397 75.943 75.943 0 0 1 7.653-1.818c2.931-.55 5.892-.982 8.863-1.297 3.364-.373 6.747-.648 10.13-.845a344.71 344.71 0 0 1 11.48-.452c4.298-.088 8.597-.137 12.895-.127H165.078z"/>
 </g>
</svg>
