<svg xmlns="http://www.w3.org/2000/svg" style="isolation:isolate" width="256" height="256">
 <g filter="url(#a)">
  <linearGradient id="b" x1=".51" x2=".512" y1="1.06" y2=".158" gradientTransform="matrix(244.648 0 0 228.338 5.68 11.95)" gradientUnits="userSpaceOnUse">
   <stop offset="0%" stop-color="#f76363"/>
   <stop offset="100%" stop-color="#e6548b"/>
  </linearGradient>
  <path fill="url(#b)" d="M165.689 11.95c74.056 0 84.639 10.557 84.639 84.544v59.251c0 73.986-10.583 84.543-84.639 84.543h-75.37c-74.055 0-84.639-10.557-84.639-84.543V96.494c0-73.987 10.584-84.544 84.639-84.544h75.37z"/>
 </g>
 <defs>
  <filter id="a" width="400%" height="400%" x="-200%" y="-200%" color-interpolation-filters="sRGB" filterUnits="objectBoundingBox">
   <feGaussianBlur xmlns="http://www.w3.org/2000/svg" in="SourceGraphic" stdDeviation="4.294"/>
   <feOffset xmlns="http://www.w3.org/2000/svg" dy="4" result="pf_100_offsetBlur"/>
   <feFlood xmlns="http://www.w3.org/2000/svg" flood-opacity=".4"/>
   <feComposite xmlns="http://www.w3.org/2000/svg" in2="pf_100_offsetBlur" operator="in" result="pf_100_dropShadow"/>
   <feBlend xmlns="http://www.w3.org/2000/svg" in="SourceGraphic" in2="pf_100_dropShadow"/>
  </filter>
 </defs>
 <g filter="url(#c)">
  <path fill="#f8f8f8" d="M111.289 118.889c-.237-.053-1.571 1.29-1.566 1.578.001.107.23.156.508.112l.507-.082.194.78c.106.429.154 1.397.107 2.151-.098 1.59.055 1.557-2.411.519l-1.709-.721-1.023 1.078c-.74.779-.963 1.106-.81 1.182.117.057.433-.033.703-.202.44-.274.729-.214 2.796.585l2.306.891-.018 3.31c-.015 2.679.05 3.377.349 3.668.361.353.386.342 1.145-.457.783-.824.822-1.164.133-1.153-.552.007-.775-.781-.775-2.746 0-1.078.054-2.018.122-2.09.068-.071 1.12.263 2.336.742l2.21.871 1.094-1.071c.913-.894 1.059-1.107.888-1.276-.119-.118-.317-.085-.472.077-.532.561-1.025.5-3.491-.441l-2.509-.959.011-2.496c.012-2.431-.204-3.755-.625-3.85zm-11.284 3.604c-.175.033-.485.356-1.291 1.205-.718.756-1.253 1.428-1.187 1.493.154.153.606-.065 1.006-.485.174-.184.432-.284.573-.223.141.061.723.767 1.293 1.567 1.729 2.426 1.653 2.068.619 2.955-2.24 1.921-2.771 5.032-1.374 8.041 1.3 2.799 3.769 4.383 5.62 3.606v-.002c1.152-.484 1.75-1.557 1.908-3.427l.115-1.346.42.595c.231.327.472.661.536.744.176.224 2.319-2.087 2.182-2.355-.061-.12-.345-.068-.654.121-.448.275-.599.273-.834-.018-.35-.432-8.363-11.753-8.686-12.272-.085-.137-.141-.22-.246-.2v.001zm2.668 6.812l1.994 2.872c1.096 1.579 2.01 3.032 2.032 3.228.022.196-.048.797-.157 1.335v.002c-.281 1.389-1.022 2.144-2.032 2.071-.987-.071-1.404-.34-2.528-1.635-.765-.881-1.038-1.371-1.441-2.585-.64-1.929-.559-3.018.303-4.091.43-.535.823-.852 1.23-.991l.599-.206zm-9.819 3.03c-.922-.054-1.997.56-2.763 1.665-.752 1.086-.787 1.224-.427 1.758.189.281.421.645.514.808.3.527.616-.11.346-.696-.414-.899.402-2.25 1.368-2.264.64-.011 1.6.87 2.008 1.843.362.861.449 3.151.195 5.109-.157 1.206-.126 1.672.136 2.022l.343.453 1.965-2.07c1.929-2.031 1.962-2.076 1.744-2.448-.457-.781-.472-.775-2.075.832l-1.533 1.537.261-1.994c.457-3.495.088-5.382-1.228-6.272a1.684 1.684 0 0 0-.854-.283zm-1.983 8.053c-.237-.054-1.572 1.292-1.568 1.58.002.107.232.154.511.11l.506-.08.193.78c.106.429.155 1.395.109 2.149-.098 1.59.052 1.557-2.413.519l-1.707-.719-1.025 1.076c-.74.779-.963 1.106-.81 1.182.117.057.433-.033.703-.201.44-.273.73-.213 2.798.586l2.304.889-.019 3.31c-.015 2.679.053 3.378.352 3.67.36.351.384.342 1.143-.457.782-.824.822-1.166.133-1.155-.552.007-.775-.779-.775-2.744 0-1.078.056-2.019.124-2.09.068-.071 1.117.263 2.334.742l2.211.871 1.093-1.073c.912-.894 1.061-1.105.89-1.274-.119-.118-.32-.085-.474.077-.532.561-1.025.498-3.491-.443l-2.51-.958.012-2.498c.011-2.43-.203-3.755-.624-3.849zm-22.623 4.808c-1.199.089-2.431 1.203-2.7 2.812-.246 1.472.457 3.45 2.079 5.853.852 1.263 1.814 2.27 8.549 8.953 4.173 4.141 7.707 7.671 7.853 7.842.147.172.301.652.342 1.069.058.583-.03.87-.381 1.239-.413.435-.475.444-.663.087-.553-1.045-.788-1.244-1.465-1.233-1.638.025-1.912 2.051-.414 3.058.729.491 1.255.524 2.039.129.837-.422.927-.51 1.439-1.417.906-1.603.494-3.684-1.294-6.519-.945-1.497-1.229-1.798-8.764-9.278-4.282-4.251-7.936-7.968-8.12-8.26-.402-.639-.337-1.621.141-2.124.481-.507.613-.468.921.264.662 1.577 2.537 1.136 2.511-.591-.009-.608-.132-.903-.553-1.319a1.912 1.912 0 0 0-1.52-.565z"/>
  <path fill="#f8f8f8" fill-rule="evenodd" class="fil0" d="M190.5 153.224l-4.715 45.276H72.668v-3.592l57.158-64.984-55.551-72.865V53.5h107.102v38.51h-7.106c-1.467-6.801-4.303-13.22-8.472-19.253-4.169-6.037-8.471-9.418-12.949-10.151-2.013-.35-4.851-.628-8.541-.768-3.722-.174-6.729-.279-9.088-.279h-30.918l44.55 58.458v1.641l-52.065 58.843h65.357c3.006 0 5.671-.907 8.027-2.755 2.324-1.813 4.34-4.186 6.014-7.045 1.537-2.581 2.902-5.475 4.099-8.617a281.618 281.618 0 0 0 3.178-8.86h7.037z"/>
 </g>
 <defs>
  <filter id="c" width="400%" height="400%" x="-200%" y="-200%" color-interpolation-filters="sRGB" filterUnits="objectBoundingBox">
   <feGaussianBlur xmlns="http://www.w3.org/2000/svg" in="SourceGraphic" stdDeviation="4.294"/>
   <feOffset xmlns="http://www.w3.org/2000/svg" dy="4" result="pf_100_offsetBlur"/>
   <feFlood xmlns="http://www.w3.org/2000/svg" flood-opacity=".4"/>
   <feComposite xmlns="http://www.w3.org/2000/svg" in2="pf_100_offsetBlur" operator="in" result="pf_100_dropShadow"/>
   <feBlend xmlns="http://www.w3.org/2000/svg" in="SourceGraphic" in2="pf_100_dropShadow"/>
  </filter>
 </defs>
 <g opacity=".4">
  <linearGradient id="d" x1=".517" x2=".517" y2="1" gradientTransform="matrix(244.65 0 0 228.34 5.68 11.95)" gradientUnits="userSpaceOnUse">
   <stop offset="0%" stop-color="#ffffff"/>
   <stop offset="12.5%" stop-color="#ffffff" stop-opacity=".098"/>
   <stop offset="92.5%" stop-opacity=".098"/>
   <stop offset="100%" stop-opacity=".498"/>
  </linearGradient>
  <path fill="url(#d)" fill-rule="evenodd" d="M165.068 11.951c4.328-.01 8.656.04 12.984.138 3.875.078 7.75.226 11.626.452 3.453.196 6.905.481 10.348.854 3.06.335 6.118.786 9.148 1.346a80.47 80.47 0 0 1 8.046 1.916 53.64 53.64 0 0 1 7.023 2.584 40.413 40.413 0 0 1 6.06 3.35 35.176 35.176 0 0 1 5.134 4.215 35.072 35.072 0 0 1 4.22 5.119 41.692 41.692 0 0 1 3.363 6.042 55.982 55.982 0 0 1 2.597 7.005 80.224 80.224 0 0 1 1.918 8.037 124.43 124.43 0 0 1 1.348 9.127c.374 3.439.659 6.878.856 10.326.226 3.861.373 7.732.462 11.593.088 4.323.138 8.646.128 12.96v58.21c.01 4.324-.04 8.637-.128 12.96a325.177 325.177 0 0 1-.462 11.593 200.984 200.984 0 0 1-.856 10.326 124.691 124.691 0 0 1-1.348 9.137 80.687 80.687 0 0 1-1.918 8.027 55.414 55.414 0 0 1-2.597 7.005 41.18 41.18 0 0 1-3.364 6.042 34.559 34.559 0 0 1-4.22 5.119 35.177 35.177 0 0 1-5.134 4.215 40.412 40.412 0 0 1-6.059 3.35 55.138 55.138 0 0 1-7.023 2.594 77.806 77.806 0 0 1-8.046 1.906 120 120 0 0 1-9.148 1.346c-3.443.373-6.895.658-10.348.854-3.875.226-7.75.374-11.626.462-4.328.088-8.656.138-12.984.128H90.942c-4.328.01-8.656-.04-12.984-.128a328.387 328.387 0 0 1-11.626-.462 203.003 203.003 0 0 1-10.348-.854 120 120 0 0 1-9.148-1.346 77.806 77.806 0 0 1-8.046-1.906 55.139 55.139 0 0 1-7.023-2.594 40.413 40.413 0 0 1-6.06-3.35 35.176 35.176 0 0 1-5.134-4.215 34.56 34.56 0 0 1-4.22-5.119 41.183 41.183 0 0 1-3.363-6.042 55.415 55.415 0 0 1-2.597-7.005 80.682 80.682 0 0 1-1.918-8.027 124.688 124.688 0 0 1-1.348-9.137 200.993 200.993 0 0 1-.856-10.326 325.212 325.212 0 0 1-.462-11.593 569.197 569.197 0 0 1-.128-12.96v-58.21c-.01-4.314.04-8.637.128-12.96.089-3.86.236-7.732.462-11.593.197-3.448.482-6.887.856-10.326.335-3.055.787-6.101 1.348-9.127a80.219 80.219 0 0 1 1.918-8.037 55.983 55.983 0 0 1 2.597-7.005 41.695 41.695 0 0 1 3.364-6.042 35.072 35.072 0 0 1 4.22-5.119 35.176 35.176 0 0 1 5.134-4.215 40.413 40.413 0 0 1 6.059-3.35 53.64 53.64 0 0 1 7.023-2.584 80.47 80.47 0 0 1 8.046-1.916 125.11 125.11 0 0 1 9.148-1.346c3.443-.373 6.895-.658 10.348-.854 3.875-.226 7.75-.374 11.626-.452 4.328-.098 8.656-.148 12.984-.138h74.126zm.01 4.009c4.298-.01 8.597.039 12.895.127 3.827.089 7.653.236 11.48.452 3.383.197 6.766.472 10.13.845 2.971.315 5.932.747 8.863 1.297a75.943 75.943 0 0 1 7.653 1.818 50.493 50.493 0 0 1 6.501 2.397 37.038 37.038 0 0 1 5.47 3.026 30.383 30.383 0 0 1 4.524 3.724 31.05 31.05 0 0 1 3.738 4.519 37.271 37.271 0 0 1 3.03 5.443 51.46 51.46 0 0 1 2.4 6.494 75.563 75.563 0 0 1 1.829 7.634c.54 2.928.974 5.875 1.298 8.842.374 3.36.65 6.73.846 10.11.217 3.822.374 7.634.453 11.456.088 4.293.137 8.577.137 12.87v58.212c0 4.293-.049 8.577-.137 12.87a317.503 317.503 0 0 1-.453 11.456c-.196 3.38-.472 6.75-.846 10.12a121.689 121.689 0 0 1-1.298 8.832 75.562 75.562 0 0 1-1.83 7.634 50.902 50.902 0 0 1-2.4 6.494 36.767 36.767 0 0 1-3.03 5.443 30.615 30.615 0 0 1-3.737 4.53 30.938 30.938 0 0 1-4.525 3.713 37.038 37.038 0 0 1-5.469 3.026 49.07 49.07 0 0 1-6.501 2.397 75.942 75.942 0 0 1-7.653 1.818c-2.931.55-5.892.982-8.863 1.306-3.364.364-6.747.649-10.13.836-3.827.216-7.653.373-11.48.452-4.298.098-8.597.137-12.895.137H90.932c-4.298 0-8.597-.04-12.895-.137a320.093 320.093 0 0 1-11.48-.452 193.696 193.696 0 0 1-10.13-.836 116.71 116.71 0 0 1-8.863-1.306 75.942 75.942 0 0 1-7.653-1.818 49.07 49.07 0 0 1-6.501-2.397 37.038 37.038 0 0 1-5.47-3.026 30.938 30.938 0 0 1-4.524-3.714 30.615 30.615 0 0 1-3.738-4.529 36.766 36.766 0 0 1-3.03-5.443 50.903 50.903 0 0 1-2.4-6.494 75.567 75.567 0 0 1-1.829-7.634 121.69 121.69 0 0 1-1.298-8.832c-.374-3.37-.65-6.74-.846-10.12a317.535 317.535 0 0 1-.453-11.456 623.851 623.851 0 0 1-.137-12.87V97.014c0-4.293.049-8.577.137-12.87.079-3.822.236-7.634.453-11.456.197-3.38.472-6.75.846-10.11.324-2.967.757-5.914 1.298-8.842a75.568 75.568 0 0 1 1.83-7.634 51.46 51.46 0 0 1 2.4-6.494 37.27 37.27 0 0 1 3.03-5.443 31.05 31.05 0 0 1 3.737-4.52 30.384 30.384 0 0 1 4.525-3.723 37.039 37.039 0 0 1 5.469-3.026 50.494 50.494 0 0 1 6.501-2.397 75.943 75.943 0 0 1 7.653-1.818c2.931-.55 5.892-.982 8.863-1.297 3.364-.373 6.747-.648 10.13-.845a344.71 344.71 0 0 1 11.48-.452c4.298-.088 8.597-.137 12.895-.127H165.078z"/>
 </g>
</svg>
