<svg xmlns="http://www.w3.org/2000/svg" style="isolation:isolate" width="256" height="256">
 <defs>
  <filter id="a" width="400%" height="400%" x="-200%" y="-200%" color-interpolation-filters="sRGB" filterUnits="objectBoundingBox">
   <feGaussianBlur xmlns="http://www.w3.org/2000/svg" in="SourceGraphic" stdDeviation="4.294"/>
   <feOffset xmlns="http://www.w3.org/2000/svg" dy="4" result="pf_100_offsetBlur"/>
   <feFlood xmlns="http://www.w3.org/2000/svg" flood-opacity=".4"/>
   <feComposite xmlns="http://www.w3.org/2000/svg" in2="pf_100_offsetBlur" operator="in" result="pf_100_dropShadow"/>
   <feBlend xmlns="http://www.w3.org/2000/svg" in="SourceGraphic" in2="pf_100_dropShadow"/>
  </filter>
 </defs>
 <path fill="#4dc7ff" d="M165.689 11.95c74.056 0 84.639 10.557 84.639 84.544v59.251c0 73.986-10.583 84.543-84.639 84.543h-75.37c-74.055 0-84.639-10.557-84.639-84.543V96.494c0-73.987 10.584-84.544 84.639-84.544h75.37z" filter="url(#a)"/>
 <path fill="#4d4d4d" d="M250.328 155.745c0 73.986-10.583 84.543-84.639 84.543h-75.37c-74.055 0-84.639-10.557-84.639-84.543h244.648z"/>
 <path fill="#ffefb3" stroke="#ffefb3" stroke-width=".4" d="M37.094 104.786s35.497-9.45 93.186-9.183c57.691.267 94.049 11.946 94.049 11.946L233 180.182s-46.527 5.316-104.455 5.316l-105.322-5.316 13.869-75.397.002.001z" vector-effect="non-scaling-stroke"/>
 <path fill="#884000" stroke="#884000" stroke-width=".4" d="M138.086 162.755s-.84-6.201-9.068-6.336c-8.228-.135-8.565 6.336-8.565 6.336v23.162l17.633-.41v-22.752zM96.55 130.432s.716-5.363 7.499-5.678c6.783-.314 7.037 5.253 7.037 5.253L111 149.963l-14.535.073.085-19.604z" vector-effect="non-scaling-stroke"/>
 <path fill="#f5e5ac" stroke="#f5e5ac" stroke-width=".4" d="M31.026 85.095c4.027-11.764 11.836-23.53 24.394-26.649 5.335 1.19 4.353 3.121 4.353 3.121L65.39 78.39l6.675 2.092 2.01 7.836 8.819 21.322 12.168.017.434 8.25 9.873 30.117 11.908.415v9.05l7.369 28.735s-26.963-.814-55.031-2.44C41.547 182.159 23 180.337 23 180.337s7.017-92.302 8.023-95.244l.003.002z" vector-effect="non-scaling-stroke"/>
 <path fill="#f5d59f" stroke="#f5d59f" stroke-width=".4" d="M55.645 62.158l-5.164 3.704-.36 17.953 5.524-2.137v-19.52zm-7.087 4.915l-4.715 3.196-.328 15.489 5.043-1.844V67.073zm-6.963 4.97l-4.266 4.811-.298 11.932 4.564-1.61V72.043zm-6.029 7.506l-2.873 4.807-.345 6.708 3.458-1.108-.24-10.407zm81.359 68.63s-.867-1.254-2.413-1.249c-6.186.019-23.696.169-44.462 1.453-25.956 1.605-45.58 3.885-45.58 3.885l-.386 2.722s20.379-2.369 46.334-3.367c19.467-.749 36.806-1.311 43.882-1.232 2.358.027 2.903 1.316 2.903 1.316l-.28-3.528h.002z" vector-effect="non-scaling-stroke"/>
 <path fill="#f5ca78" stroke="#f5ca78" stroke-width=".4" d="M117.034 150.794s-1.551-1.133-2.496-1.132c-5.357.005-21.921.441-46.95 1.883-25.03 1.442-43.693 3.338-43.693 3.338l-.39 2.541 44.454-3.098s39.867-1.556 46.578-1.567c1.678-.003 2.568 1.381 2.568 1.381l-.072-3.346h.001zm-21.62-35.786s-3.022-1.251-5.056-1.018c-4.749.545-11.189 1.531-25.054 2.913-19.808 1.973-38.494 6.582-38.494 6.582l-.403 2.467s15.738-4.316 35.547-6.289c13.866-1.381 22.157-2.344 28.086-2.899 2.541-.238 5.624 1.627 5.624 1.627l-.249-3.383h-.001z" vector-effect="non-scaling-stroke"/>
 <path fill="#f5d59f" stroke="#f5d59f" stroke-width=".4" d="M58.869 57.014s-2.364-1.124-3.35-.69c-3.943 1.735-10.6 6.088-15.453 10.847-6.065 5.949-6.817 7.424-6.817 7.424l-1.317 4.343s5.291-7.733 11.486-12.492c4.647-3.57 12.829-8.157 12.829-8.157l3.259.671-.637-1.946z" vector-effect="non-scaling-stroke"/>
 <path fill="#f5ca78" stroke="#f5ca78" stroke-width=".4" d="M59.533 58.849s-2.79-1.224-3.7-.664c-3.642 2.239-11.766 7.246-16.688 11.61-4.921 4.364-6.891 8.566-6.891 8.566l-.746 5.46s2.536-7.175 8.666-12.529c4.292-3.748 12.43-9.297 16.595-11.832 1.784.296 3.217 1.483 3.217 1.483l-.453-2.094z" vector-effect="non-scaling-stroke"/>
 <path fill="#884000" stroke="#884000" stroke-width=".4" d="M93.064 162.541s.718-6.201 7.75-6.336c7.032-.134 7.32 6.336 7.32 6.336v23.162l-15.07-.409v-22.753zm-20.24.507s.657-6.048 7.086-6.179c6.429-.132 6.693 6.179 6.693 6.179v22.026l-13.779-.632v-21.394zm-17.955.341s.655-5.773 6.081-5.806c5.426-.034 5.543 6.003 5.543 6.003l-.356 20.449-11.613-.824.345-19.822zm-11.998.598s.49-5.092 3.907-5.108c3.418-.016 3.41 5.311 3.41 5.311l-.516 18.681-7.305-.416.504-18.468zm-9.006.079s.43-4.728 3.041-4.742c2.61-.014 2.547 4.933 2.547 4.933l-.598 17.386-5.792-.408.802-17.169zm-6.713.602s.319-4.432 2.03-4.473c1.712-.042 1.632 4.59 1.632 4.59l-.522 16.112-3.874-.124.734-16.105zm59.63-39.405s-.592-5.382-6.841-5.505c-6.25-.122-6.554 5.492-6.554 5.492l-.171 19.596 13.4-.55.166-19.033zm-19.635 2.811s-.42-5.153-5.691-5.361c-5.271-.208-5.61 5.154-5.61 5.154l-.417 18.19 11.314-.351.404-17.632zm-15.678 1.819s-.285-4.543-3.605-4.67c-3.32-.126-3.511 4.61-3.511 4.61l-.196 16.623 7.114-.129.198-16.434zM40.25 131.74s-.241-4.217-2.777-4.316c-2.537-.098-2.659 4.301-2.659 4.301l-.068 15.476 5.643-.172-.139-15.289zm-8.425 1.71s-.144-3.95-1.805-4.043c-1.662-.093-1.757 4.027-1.757 4.027l-.094 14.34 3.768.017-.112-14.341z" vector-effect="non-scaling-stroke"/>
 <path fill="#f5d59f" stroke="#f5d59f" stroke-width=".4" d="M116.925 142.821s-.867-1.254-2.413-1.249c-6.186.02-23.696.17-44.462 1.454-25.956 1.604-45.58 3.884-45.58 3.884l-.386 2.723s20.379-3.011 46.334-4.009c19.467-.748 36.806-.669 43.882-.59 2.358.026 2.903 1.315 2.903 1.315l-.28-3.528h.002z" vector-effect="non-scaling-stroke"/>
 <path fill="#f5ca78" stroke="#f5ca78" stroke-width=".4" d="M117.034 145.071s-1.551-1.133-2.496-1.132c-5.357.005-21.921.441-46.95 1.883-25.03 1.442-43.693 3.338-43.693 3.338l-.39 2.541 44.454-3.098s39.867-1.556 46.578-1.567c1.678-.003 2.568 1.381 2.568 1.381l-.072-3.346h.001z" vector-effect="non-scaling-stroke"/>
 <path fill="#884000" stroke="#884000" stroke-width=".4" d="M67.978 93.922s-.42-4.532-5.691-4.002l-5.61 5.353-.417 16.259 11.314-1.849.404-15.761zM52.3 97.672s-.286-4.007-3.605-3.67c-3.32.339-3.512 4.584-3.512 4.584l-.195 14.833 7.113-1.082.199-14.665zm-11.218 3.169s-.241-3.724-2.777-3.467l-2.66 4.192-.067 13.794 5.643-.92-.139-13.599zm-7.656 2.793s-.039-3.509-1.705-3.482c-1.666.026-1.871 3.702-1.871 3.702l-.476 12.78 3.783-.234.269-12.766zm127.705 59.367s-.695-6.019-7.503-6.15c-6.808-.13-7.086 6.15-7.086 6.15v22.484l14.589-.398v-22.086zm20.896.489s-.636-5.871-6.86-5.999c-6.225-.127-6.479 5.999-6.479 5.999v21.38l13.339-.614V163.49zm17.383.334s-.634-5.604-5.887-5.636c-5.253-.033-5.366 5.827-5.366 5.827l.345 19.85 11.242-.801-.334-19.24zm12.049.579s-.474-4.942-3.783-4.958c-3.308-.015-3.301 5.156-3.301 5.156l.5 18.134 7.072-.404-.488-17.928zm8.718.576s-.415-4.589-2.942-4.603c-2.528-.014-2.467 4.788-2.467 4.788l.579 16.877 5.608-.396-.778-16.666zm6.497.58s-.308-4.301-1.965-4.342c-1.657-.04-1.58 4.456-1.58 4.456l.506 15.64 3.749-.121-.71-15.633zm-89.065-35.605s-.862-5.529-9.06-5.888c-8.198-.36-8.508 5.374-8.508 5.374l.089 20.559 17.566.151-.087-20.196zm22.961.891s-.716-5.363-7.499-5.678c-6.783-.314-7.037 5.253-7.037 5.253l.086 19.956 14.535.073-.085-19.604zm19.719 1.123s-.844-5.208-7.057-5.502l-6.247 5.115.763 18.898 13.282-.155-.741-18.356zm17.35 1.138s-.833-4.871-6.073-5.049c-5.24-.178-5.144 4.894-5.144 4.894l1.053 17.202 11.184.031-1.02-17.078zm12.038.746s-.65-4.429-3.95-4.54c-3.3-.111-3.108 4.509-3.108 4.509l1.146 16.213 7.04-.153-1.128-16.029zm8.715 1.232s-.578-4.101-3.099-4.187c-2.522-.087-2.289 4.193-2.289 4.193l1.18 15.052 5.578-.189-1.37-14.869zm6.504 1.47s-.461-3.745-2.115-3.828l-1.416 3.826 1.062 13.603 3.736.002-1.267-13.603z" vector-effect="non-scaling-stroke"/>
 <path fill="#f5ca78" stroke="#f5ca78" stroke-width=".4" d="M98.285 105.181s.667-4.37 6.996-4.627c6.328-.256 6.565 4.28 6.565 4.28l-.081 16.261-13.56.059.08-15.973zm38.402-.388s-.766-4.505-8.053-4.798c-7.287-.293-7.563 4.379-7.563 4.379l.079 16.752 15.615.123-.078-16.456zm23.063.728s-.668-4.37-6.996-4.627c-6.328-.256-6.565 4.281-6.565 4.281l.081 16.261 13.559.059-.079-15.974zm18.83 1.714s-.787-4.262-6.583-4.502c-5.796-.24-5.829 4.185-5.829 4.185l.713 15.463 12.391.738-.692-15.884zm17.059 2.362s-.777-4.091-5.666-4.38c-4.889-.289-4.799 3.949-4.799 3.949l.982 13.96 10.435.759-.952-14.288zm11.662 2.133s-.605-3.603-3.684-3.782c-3.079-.178-2.9 3.567-2.9 3.567l1.069 12.942 6.568.281-1.053-13.008zm8.461 1.521s-.54-3.344-2.892-3.482c-2.352-.138-2.135 3.343-2.135 3.343l1.21 11.82 5.095.428-1.278-12.109zm6.609 1.518s-.43-3.13-1.973-3.243c-1.544-.113-1.322 3.147-1.322 3.147l.992 11.244 3.485.21-1.182-11.358z" vector-effect="non-scaling-stroke"/>
 <path fill="#4dc7ff" stroke="#4dc7ff" stroke-width=".4" d="M67.978 93.922s-.42-4.532-5.691-4.002l-5.61 5.353-.293 5.067 11.562-1.455.032-4.963zM52.3 97.672s-.286-4.007-3.605-3.67c-3.32.339-3.512 4.584-3.512 4.584l.053 4.167 6.989-1.476.075-3.605zm-11.218 3.169s-.241-3.724-2.777-3.467l-2.66 4.192.057 3.524 5.519-1.184-.139-3.065zm-7.656 2.793s-.039-3.509-1.705-3.482c-1.666.026-1.871 3.702-1.871 3.702l-.104 2.641 3.659-.76.021-2.101zm12.005-29.993l1.249-.494v4.321l-1.249.37v-4.197zm-11.552 9.595l.542-.334v2.931l-.542.251v-2.848z" vector-effect="non-scaling-stroke"/>
 <path fill="#f5ca78" stroke="#f5ca78" stroke-width=".4" d="M73.764 81.436s-3.755-.826-5.918-1.09c-4.015.794-4.708 1.308-16.003 4.607-11.296 3.299-22.414 7.853-22.414 7.853l-.016 2.038s10.961-4.523 22.325-7.7c11.365-3.177 13.864-3.089 18.481-3.619 2.487-.285 3.741.095 3.741.095l-.196-2.184z" vector-effect="non-scaling-stroke"/>
 <path fill="#f5d59f" stroke="#f5d59f" stroke-width=".4" d="M73.964 83.302S69.691 82 68.806 82.196c-3.218.642-4.76 1.033-16.192 4.246-11.432 3.213-23.135 8.384-23.135 8.384l.128 2.463s10.983-5.307 22.441-8.526c11.458-3.219 15.157-3.058 19.052-3.789 2.097-.393 2.978 1.081 2.978 1.081l-.114-2.753z" vector-effect="non-scaling-stroke"/>
 <path fill="#f5ca78" stroke="#f5ca78" stroke-width=".4" d="M74.081 85.787s-3.755-2.071-5.917-1.644c-4.016.794-3.983.982-15.279 4.281-11.296 3.298-23.365 8.671-23.365 8.671l.05 1.526s11-4.591 22.365-7.768c11.364-3.177 11.955-3.415 16.572-3.945 2.486-.285 5.77 1.546 5.77 1.546l-.196-2.667z" vector-effect="non-scaling-stroke"/>
 <path fill="#f5d59f" stroke="#f5d59f" stroke-width=".4" d="M95.104 108.6s-5.577-1.604-8.322-1.291c-5.099.579-9.665 1.279-22.54 2.562-19.808 1.973-38.468 6.838-38.468 6.838l.455 2.683s14.853-4.787 34.661-6.761c11.885-1.184 19.667-2.226 26.154-2.838 4.325-.407 8.273 1.418 8.273 1.418l-.213-2.611z" vector-effect="non-scaling-stroke"/>
 <path fill="#f5ca78" stroke="#f5ca78" stroke-width=".4" d="M95.279 110.567s-3.967-1.396-6.002-1.162c-4.748.544-10.606 1.386-24.472 2.767-19.808 1.974-38.493 6.583-38.493 6.583l-.404 2.466s15.739-4.315 35.547-6.288c13.865-1.382 22.375-2.344 28.304-2.899 2.541-.238 5.624 1.626 5.624 1.626l-.103-3.093h-.001z" vector-effect="non-scaling-stroke"/>
 <path fill="#f5d59f" stroke="#f5d59f" stroke-width=".4" d="M95.239 113.259s-4.34-1.604-7.086-1.292c-5.098.58-10.537 1.352-23.412 2.635-19.809 1.973-38.468 6.838-38.468 6.838l.455 2.683s14.853-4.788 34.661-6.761c11.885-1.184 19.667-2.227 26.154-2.838 4.325-.408 7.836.839 7.836.839l-.14-2.104zM73.564 79.98s-5.464-1.924-6.348-1.728c-3.218.642-3.17.939-14.602 4.151-11.432 3.213-23.123 8.674-23.123 8.674l.06 1.645s1.008-.278 1.79-.579c3.131-1.204 11.299-4.365 20.465-6.941 11.458-3.219 15.278-2.819 19.173-3.549 2.097-.394 2.839-.096 2.839-.096l-.254-1.577z" vector-effect="non-scaling-stroke"/>
 <g opacity=".4">
  <linearGradient id="b" x1=".517" x2=".517" y2="1" gradientTransform="matrix(244.65 0 0 228.34 5.68 11.95)" gradientUnits="userSpaceOnUse">
   <stop offset="0%" stop-color="#ffffff"/>
   <stop offset="12.5%" stop-color="#ffffff" stop-opacity=".098"/>
   <stop offset="92.5%" stop-opacity=".098"/>
   <stop offset="100%" stop-opacity=".498"/>
  </linearGradient>
  <path fill="url(#b)" fill-rule="evenodd" d="M165.068 11.951c4.328-.01 8.656.04 12.984.138 3.875.078 7.75.226 11.626.452 3.453.196 6.905.481 10.348.854 3.06.335 6.118.786 9.148 1.346a80.47 80.47 0 0 1 8.046 1.916 53.64 53.64 0 0 1 7.023 2.584 40.413 40.413 0 0 1 6.06 3.35 35.176 35.176 0 0 1 5.134 4.215 35.072 35.072 0 0 1 4.22 5.119 41.692 41.692 0 0 1 3.363 6.042 55.982 55.982 0 0 1 2.597 7.005 80.224 80.224 0 0 1 1.918 8.037 124.43 124.43 0 0 1 1.348 9.127c.374 3.439.659 6.878.856 10.326.226 3.861.373 7.732.462 11.593.088 4.323.138 8.646.128 12.96v58.21c.01 4.324-.04 8.637-.128 12.96a325.177 325.177 0 0 1-.462 11.593 200.984 200.984 0 0 1-.856 10.326 124.691 124.691 0 0 1-1.348 9.137 80.687 80.687 0 0 1-1.918 8.027 55.414 55.414 0 0 1-2.597 7.005 41.18 41.18 0 0 1-3.364 6.042 34.559 34.559 0 0 1-4.22 5.119 35.177 35.177 0 0 1-5.134 4.215 40.412 40.412 0 0 1-6.059 3.35 55.138 55.138 0 0 1-7.023 2.594 77.806 77.806 0 0 1-8.046 1.906 120 120 0 0 1-9.148 1.346c-3.443.373-6.895.658-10.348.854-3.875.226-7.75.374-11.626.462-4.328.088-8.656.138-12.984.128H90.942c-4.328.01-8.656-.04-12.984-.128a328.387 328.387 0 0 1-11.626-.462 203.003 203.003 0 0 1-10.348-.854 120 120 0 0 1-9.148-1.346 77.806 77.806 0 0 1-8.046-1.906 55.139 55.139 0 0 1-7.023-2.594 40.413 40.413 0 0 1-6.06-3.35 35.176 35.176 0 0 1-5.134-4.215 34.56 34.56 0 0 1-4.22-5.119 41.183 41.183 0 0 1-3.363-6.042 55.415 55.415 0 0 1-2.597-7.005 80.682 80.682 0 0 1-1.918-8.027 124.688 124.688 0 0 1-1.348-9.137 200.993 200.993 0 0 1-.856-10.326 325.212 325.212 0 0 1-.462-11.593 569.197 569.197 0 0 1-.128-12.96v-58.21c-.01-4.314.04-8.637.128-12.96.089-3.86.236-7.732.462-11.593.197-3.448.482-6.887.856-10.326.335-3.055.787-6.101 1.348-9.127a80.219 80.219 0 0 1 1.918-8.037 55.983 55.983 0 0 1 2.597-7.005 41.695 41.695 0 0 1 3.364-6.042 35.072 35.072 0 0 1 4.22-5.119 35.176 35.176 0 0 1 5.134-4.215 40.413 40.413 0 0 1 6.059-3.35 53.64 53.64 0 0 1 7.023-2.584 80.47 80.47 0 0 1 8.046-1.916 125.11 125.11 0 0 1 9.148-1.346c3.443-.373 6.895-.658 10.348-.854 3.875-.226 7.75-.374 11.626-.452 4.328-.098 8.656-.148 12.984-.138h74.126zm.01 4.009c4.298-.01 8.597.039 12.895.127 3.827.089 7.653.236 11.48.452 3.383.197 6.766.472 10.13.845 2.971.315 5.932.747 8.863 1.297a75.943 75.943 0 0 1 7.653 1.818 50.493 50.493 0 0 1 6.501 2.397 37.038 37.038 0 0 1 5.47 3.026 30.383 30.383 0 0 1 4.524 3.724 31.05 31.05 0 0 1 3.738 4.519 37.271 37.271 0 0 1 3.03 5.443 51.46 51.46 0 0 1 2.4 6.494 75.563 75.563 0 0 1 1.829 7.634c.54 2.928.974 5.875 1.298 8.842.374 3.36.65 6.73.846 10.11.217 3.822.374 7.634.453 11.456.088 4.293.137 8.577.137 12.87v58.212c0 4.293-.049 8.577-.137 12.87a317.503 317.503 0 0 1-.453 11.456c-.196 3.38-.472 6.75-.846 10.12a121.689 121.689 0 0 1-1.298 8.832 75.562 75.562 0 0 1-1.83 7.634 50.902 50.902 0 0 1-2.4 6.494 36.767 36.767 0 0 1-3.03 5.443 30.615 30.615 0 0 1-3.737 4.53 30.938 30.938 0 0 1-4.525 3.713 37.038 37.038 0 0 1-5.469 3.026 49.07 49.07 0 0 1-6.501 2.397 75.942 75.942 0 0 1-7.653 1.818c-2.931.55-5.892.982-8.863 1.306-3.364.364-6.747.649-10.13.836-3.827.216-7.653.373-11.48.452-4.298.098-8.597.137-12.895.137H90.932c-4.298 0-8.597-.04-12.895-.137a320.093 320.093 0 0 1-11.48-.452 193.696 193.696 0 0 1-10.13-.836 116.71 116.71 0 0 1-8.863-1.306 75.942 75.942 0 0 1-7.653-1.818 49.07 49.07 0 0 1-6.501-2.397 37.038 37.038 0 0 1-5.47-3.026 30.938 30.938 0 0 1-4.524-3.714 30.615 30.615 0 0 1-3.738-4.529 36.766 36.766 0 0 1-3.03-5.443 50.903 50.903 0 0 1-2.4-6.494 75.567 75.567 0 0 1-1.829-7.634 121.69 121.69 0 0 1-1.298-8.832c-.374-3.37-.65-6.74-.846-10.12a317.535 317.535 0 0 1-.453-11.456 623.851 623.851 0 0 1-.137-12.87V97.014c0-4.293.049-8.577.137-12.87.079-3.822.236-7.634.453-11.456.197-3.38.472-6.75.846-10.11.324-2.967.757-5.914 1.298-8.842a75.568 75.568 0 0 1 1.83-7.634 51.46 51.46 0 0 1 2.4-6.494 37.27 37.27 0 0 1 3.03-5.443 31.05 31.05 0 0 1 3.737-4.52 30.384 30.384 0 0 1 4.525-3.723 37.039 37.039 0 0 1 5.469-3.026 50.494 50.494 0 0 1 6.501-2.397 75.943 75.943 0 0 1 7.653-1.818c2.931-.55 5.892-.982 8.863-1.297 3.364-.373 6.747-.648 10.13-.845a344.71 344.71 0 0 1 11.48-.452c4.298-.088 8.597-.137 12.895-.127H165.078z"/>
 </g>
</svg>
