<svg xmlns="http://www.w3.org/2000/svg" style="isolation:isolate" width="256" height="256">
 <g filter="url(#a)">
  <linearGradient id="b" x1=".733" x2=".267" y1="1.071" y2=".076" gradientTransform="matrix(244.648 0 0 228.338 5.676 11.947)" gradientUnits="userSpaceOnUse">
   <stop offset="0%" stop-color="#f37e40"/>
   <stop offset="100%" stop-color="#f34f17"/>
  </linearGradient>
  <path fill="url(#b)" d="M165.685 11.947c74.055 0 84.639 10.557 84.639 84.544v59.251c0 73.986-10.584 84.543-84.639 84.543h-75.37c-74.055 0-84.639-10.557-84.639-84.543V96.491c0-73.987 10.584-84.544 84.639-84.544h75.37z"/>
 </g>
 <defs>
  <filter id="a" width="400%" height="400%" x="-200%" y="-200%" color-interpolation-filters="sRGB" filterUnits="objectBoundingBox">
   <feGaussianBlur xmlns="http://www.w3.org/2000/svg" in="SourceGraphic" stdDeviation="4.294"/>
   <feOffset xmlns="http://www.w3.org/2000/svg" dy="4" result="pf_100_offsetBlur"/>
   <feFlood xmlns="http://www.w3.org/2000/svg" flood-opacity=".4"/>
   <feComposite xmlns="http://www.w3.org/2000/svg" in2="pf_100_offsetBlur" operator="in" result="pf_100_dropShadow"/>
   <feBlend xmlns="http://www.w3.org/2000/svg" in="SourceGraphic" in2="pf_100_dropShadow"/>
  </filter>
 </defs>
 <path fill="#feffe7" opacity=".21" d="M128 43.5c-45.564 0-82.5 36.937-82.5 82.5 0 45.564 36.937 82.5 82.5 82.5s82.5-36.936 82.5-82.5A82.498 82.498 0 0 0 128 43.5zm2.824 14.867a57.736 57.736 0 0 1 3.816 0c8.109.253 18.507 2.185 22.067 7.59 2.941 4.464-.929 9.034-3.087 12.661-5.342 8.978-10.047 18.713-15.223 27.885-1.406 2.492-6.614 11.045-9.99 6.776-7.183-9.084-9.295-28.112-10.363-39.291-.341-3.565-1.52-9.117.169-12.441 1.454-2.862 6.657-2.613 9.422-2.943a39.72 39.72 0 0 1 3.189-.238v.001zm-29.504 5.809c1.497.091 2.938.561 4.249 1.543 4.697 3.522 6.067 10.954 7.581 16.165 1.964 6.76 4.65 12.916 5.954 19.921.574 3.084 4.29 10.694.093 12.576-3.033 1.361-7.679-2.021-10.338-3.188-9.334-4.099-18.966-10.418-27.011-16.716-12.731-9.965-2.905-18.154 6.734-25.136 3.276-2.374 8.247-5.44 12.738-5.165zm68.812 8.548c7.703-.756 12.566 7.58 16.605 12.721 3.029 3.857 8.42 12.892 5.513 17.818-1.924 3.258-6.32 3.885-9.541 5.089-8.374 3.129-16.898 6.386-25.688 8.37-3.436.775-17.371 5.762-19.726 2.629-1.153-1.533.628-4.425 1.331-5.835 2.722-5.457 6.771-9.655 9.957-14.731 4.397-7.007 9.764-13.039 14.747-19.556 1.934-2.529 3.162-6.148 6.802-6.505zM70.56 101.61c11.111-.444 24.886 8.069 33.982 12.822 3.311 1.73 7.818 2.835 10.483 5.581 4.391 4.526-3.079 7.549-6.556 8.226-11.204 2.181-22.53 3.449-33.745 5.478-3.641.659-10.802 2.232-13.721-.924-7.279-7.87-3.864-29.198 7.369-30.971a18.96 18.96 0 0 1 2.188-.213v.001zm119.815 15.604c1.016.041 1.982.234 2.85.636 9.966 4.619 5.448 28.685-4.19 31.37-6.583 1.834-14.437-2.155-20.277-4.817-7.551-3.442-15.468-5.645-22.686-9.871-2.172-1.273-7.212-4.267-5.453-7.345 1.979-3.463 8.301-3.74 11.661-4.469 9.518-2.063 19.161-2.941 28.843-4.164 2.7-.341 6.205-1.474 9.252-1.34zm-79.701 14.697c2.125-.106 3.988.128 5.317.891 5.027 2.884-1.56 10.448-3.222 13.458-5.319 9.633-12.295 19.723-19.031 28.411-2.602 3.355-6.117 7.243-10.855 4.766-7.517-3.93-13.602-14.3-16.775-21.796-1.214-2.868-3.023-6.95-.874-9.786 5.029-6.634 19.02-8.649 26.384-11 3.93-1.254 12.68-4.625 19.056-4.944zm27.901 4.283c3.034.36 6.964 3.102 8.752 4.13 9.126 5.245 19.056 10.654 26.757 17.741 1.678 1.544 4.547 2.178 5.86 4.012 1.836 2.563.471 8.073-1.145 10.465-4.093 6.059-22.821 19.67-29.139 11.525-7.566-9.75-9.867-23.34-12.662-35.135-.645-2.72-3.84-9.903-1.043-12.153.697-.561 1.609-.705 2.62-.586v.001zm-12.899 2.688c.293-.05.593-.04.882.027 2.212.519 3.136 3.87 3.978 5.632 2.865 5.998 4.257 12.005 5.538 18.547 1.316 6.726 6.429 20.454 2.679 26.816-3.404 5.775-19.481 3.509-24.839 2.239-4.358-1.033-11.463-1.842-13.968-6.064-1.941-3.273.604-6.524 2.052-9.38 3.586-7.072 7.557-13.851 11.203-20.905 1.602-3.098 7.906-16.177 12.475-16.91v-.002z"/>
 <g opacity=".4" filter="url(#c)">
  <linearGradient id="d" x1=".652" x2=".652" y1="-.058" y2="1.023" gradientTransform="matrix(117.30193 0 0 150.95904 59.643 55.182)" gradientUnits="userSpaceOnUse">
   <stop offset="0%"/>
   <stop offset="50.277%"/>
   <stop offset="100%"/>
  </linearGradient>
  <path fill="url(#d)" d="M171.14 55.183c-1.915-.021-4.461.277-7.848.786l-54.304 8.619C95.38 67.486 95.426 68.387 95.38 79.885v93.288c-.567-.398-1.127-.798-1.714-1.191v.004c-4.324-2.897-8.932-4.959-15.121-4.959-7.753 0-12.377 2.968-15.175 6.878-2.799 3.911-3.727 8.839-3.727 12.649 0 4.594 1.568 9.497 4.971 13.234 3.403 3.736 8.634 6.353 16.157 6.353 8.494 0 14.469-2.372 17.847-7.004 2.659-3.647 4.13-8.52 4.654-14.53v-.016c.074-.73.127-1.479.174-2.25.071-1.188.055-3.411.055-3.411v-71.429c0-10.204 0-10.813 13.612-13.14l38.022-6.288c13.637-1.784 13.64-.533 13.64 7.12v65.552c-.553-.387-1.098-.776-1.669-1.159v.005c-4.323-2.898-8.929-4.96-15.119-4.96-7.753 0-12.378 2.969-15.177 6.879-2.799 3.91-3.727 8.838-3.727 12.648 0 4.595 1.57 9.498 4.973 13.234 3.403 3.737 8.635 6.355 16.157 6.355 8.494 0 14.469-2.374 17.847-7.006 2.659-3.647 4.128-8.518 4.653-14.528v-.018c.072-.748.13-1.498.173-2.248.071-1.188.058-3.412.058-3.412V67.16c0-8.949-.059-11.913-5.804-11.977z"/>
 </g>
 <defs>
  <filter id="c" width="400%" height="400%" x="-200%" y="-200%" color-interpolation-filters="sRGB" filterUnits="objectBoundingBox">
   <feGaussianBlur xmlns="http://www.w3.org/2000/svg" stdDeviation="5.263"/>
  </filter>
 </defs>
 <defs>
  <filter id="e" width="400%" height="400%" x="-200%" y="-200%" color-interpolation-filters="sRGB" filterUnits="objectBoundingBox">
   <feGaussianBlur xmlns="http://www.w3.org/2000/svg" stdDeviation=".658"/>
  </filter>
 </defs>
 <path opacity=".1" d="M171.14 54.163c-1.915-.021-4.461.278-7.848.787l-54.304 8.619C95.38 66.467 95.426 67.368 95.38 78.865v93.288c-.567-.397-1.127-.797-1.714-1.19v.004c-4.324-2.898-8.932-4.96-15.121-4.96-7.753 0-12.377 2.969-15.175 6.879-2.799 3.91-3.727 8.839-3.727 12.649 0 4.594 1.568 9.497 4.971 13.233 3.403 3.737 8.634 6.354 16.157 6.354 8.494 0 14.469-2.372 17.847-7.005 2.659-3.647 4.13-8.519 4.654-14.53v-.016c.074-.729.127-1.478.174-2.25.071-1.188.055-3.41.055-3.41v-71.43c0-10.204 0-10.813 13.612-13.14l38.022-6.287c13.637-1.785 13.64-.533 13.64 7.12v65.552c-.553-.387-1.098-.776-1.669-1.159v.004c-4.323-2.897-8.929-4.959-15.119-4.959-7.753 0-12.378 2.968-15.177 6.878-2.799 3.911-3.727 8.839-3.727 12.649 0 4.594 1.57 9.497 4.973 13.234 3.403 3.736 8.635 6.355 16.157 6.355 8.494 0 14.469-2.374 17.847-7.006 2.659-3.647 4.128-8.518 4.653-14.528v-.019c.073-.729.126-1.476.173-2.247.071-1.188.058-3.413.058-3.413V66.141c0-8.95-.059-11.914-5.804-11.978z" filter="url(#e)"/>
 <path fill="#fef8f8" d="M171.14 53.144c-1.915-.023-4.461.278-7.848.787l-54.304 8.618c-13.608 2.898-13.562 3.8-13.608 15.297v93.288c-.567-.398-1.127-.797-1.714-1.191v.004c-4.324-2.897-8.932-4.959-15.121-4.959-7.753 0-12.377 2.968-15.175 6.878-2.799 3.911-3.727 8.839-3.727 12.649 0 4.594 1.568 9.497 4.971 13.234 3.403 3.736 8.634 6.353 16.157 6.353 8.494 0 14.469-2.372 17.847-7.004 2.659-3.647 4.13-8.52 4.654-14.53v-.019c.074-.729.127-1.478.174-2.25.071-1.188.055-3.41.055-3.41v-71.43c0-10.204 0-10.813 13.613-13.14l38.021-6.288c13.637-1.784 13.64-.533 13.64 7.12v65.553c-.553-.387-1.098-.777-1.669-1.159v.004c-4.323-2.898-8.929-4.96-15.119-4.96-7.753 0-12.378 2.969-15.177 6.879-2.799 3.91-3.727 8.839-3.727 12.648 0 4.595 1.571 9.498 4.973 13.234 3.403 3.737 8.635 6.355 16.157 6.355 8.494 0 14.469-2.373 17.847-7.006 2.659-3.647 4.128-8.517 4.653-14.528v-.019c.073-.729.127-1.476.173-2.247.071-1.188.058-3.413.058-3.413V65.118c0-8.95-.059-11.914-5.804-11.978v.004z"/>
 <g opacity=".1">
  <linearGradient id="f" x1=".965" x2=".409" y1=".478" y2=".478" gradientTransform="matrix(117.30193 0 0 137.943 59.643 66.159)" gradientUnits="userSpaceOnUse">
   <stop offset="0%" stop-color="#fed965"/>
   <stop offset="100%" stop-color="#fed965" stop-opacity="0"/>
  </linearGradient>
  <path fill="url(#f)" d="M97.962 66.159c-2.546 1.999-2.555 5.103-2.582 11.687v93.288c-.567-.398-1.127-.797-1.714-1.191v.004c-4.324-2.897-8.932-4.959-15.121-4.959-7.753 0-12.377 2.968-15.175 6.878-2.799 3.911-3.727 8.839-3.727 12.649 0 4.594 1.568 9.497 4.971 13.234 3.403 3.736 8.634 6.353 16.157 6.353 8.494 0 14.469-2.372 17.847-7.004 2.659-3.647 4.13-8.52 4.654-14.53v-.019c.074-.729.127-1.478.174-2.25.071-1.188.055-3.41.055-3.41v-71.43c0-10.204 0-10.813 13.613-13.14l38.021-6.288c3.471-.454 6.05-.709 7.979-.714L97.962 66.159zm69.809 20.531c.989 1.209 1.004 3.274 1.004 6.464v65.552c-.553-.387-1.098-.776-1.669-1.158v.003c-4.323-2.897-8.929-4.959-15.119-4.959-7.753 0-12.378 2.969-15.177 6.879-2.799 3.91-3.727 8.838-3.727 12.648 0 4.594 1.57 9.498 4.973 13.234 3.403 3.737 8.635 6.355 16.157 6.355 8.494 0 14.469-2.374 17.847-7.006 2.659-3.647 4.128-8.518 4.653-14.528v-.019c.072-.748.13-1.498.173-2.248.071-1.188.058-3.412.058-3.412V89.386l-9.173-2.696z"/>
 </g>
 <path fill="#ffffff" d="M171.14 53.144c-1.915-.023-4.461.278-7.848.787l-54.304 8.618c-13.608 2.898-13.562 3.8-13.608 15.297v2.039c.046-11.498 0-12.399 13.608-15.297l54.304-8.619c3.387-.509 5.933-.807 7.848-.786 5.745.064 5.804 3.028 5.804 11.977v-2.038c0-8.95-.059-11.914-5.804-11.978zm-19.153 99.448c-7.753 0-12.378 2.969-15.177 6.879-2.799 3.91-3.727 8.839-3.727 12.648 0 .285.024.574.036.861.175-3.612 1.171-7.95 3.691-11.47 2.799-3.91 7.424-6.879 15.177-6.879 6.19 0 10.796 2.062 15.119 4.959v-.003c.571.382 1.116.771 1.669 1.158v-2.038c-.553-.387-1.098-.777-1.669-1.159v.004c-4.323-2.898-8.929-4.96-15.119-4.96zm-73.442 12.396c-7.753 0-12.377 2.969-15.175 6.879-2.799 3.91-3.727 8.838-3.727 12.648 0 .285.023.573.036.86.175-3.611 1.171-7.949 3.691-11.47 2.799-3.91 7.422-6.878 15.175-6.878 6.189 0 10.797 2.062 15.121 4.959v-.004c.587.394 1.147.793 1.714 1.191v-2.039c-.567-.397-1.127-.797-1.714-1.19v.003c-4.324-2.897-8.932-4.959-15.121-4.959z"/>
 <g opacity=".4">
  <linearGradient id="g" x1=".517" x2=".517" y2="1" gradientTransform="matrix(244.65 0 0 228.34 5.68 11.95)" gradientUnits="userSpaceOnUse">
   <stop offset="0%" stop-color="#ffffff"/>
   <stop offset="12.5%" stop-color="#ffffff" stop-opacity=".098"/>
   <stop offset="92.5%" stop-opacity=".098"/>
   <stop offset="100%" stop-opacity=".498"/>
  </linearGradient>
  <path fill="url(#g)" fill-rule="evenodd" d="M165.068 11.951c4.328-.01 8.656.04 12.984.138 3.875.078 7.75.226 11.626.452 3.453.196 6.905.481 10.348.854 3.06.335 6.118.786 9.148 1.346a80.47 80.47 0 0 1 8.046 1.916 53.64 53.64 0 0 1 7.023 2.584 40.413 40.413 0 0 1 6.06 3.35 35.176 35.176 0 0 1 5.134 4.215 35.072 35.072 0 0 1 4.22 5.119 41.692 41.692 0 0 1 3.363 6.042 55.982 55.982 0 0 1 2.597 7.005 80.224 80.224 0 0 1 1.918 8.037 124.43 124.43 0 0 1 1.348 9.127c.374 3.439.659 6.878.856 10.326.226 3.861.373 7.732.462 11.593.088 4.323.138 8.646.128 12.96v58.21c.01 4.324-.04 8.637-.128 12.96a325.177 325.177 0 0 1-.462 11.593 200.984 200.984 0 0 1-.856 10.326 124.691 124.691 0 0 1-1.348 9.137 80.687 80.687 0 0 1-1.918 8.027 55.414 55.414 0 0 1-2.597 7.005 41.18 41.18 0 0 1-3.364 6.042 34.559 34.559 0 0 1-4.22 5.119 35.177 35.177 0 0 1-5.134 4.215 40.412 40.412 0 0 1-6.059 3.35 55.138 55.138 0 0 1-7.023 2.594 77.806 77.806 0 0 1-8.046 1.906 120 120 0 0 1-9.148 1.346c-3.443.373-6.895.658-10.348.854-3.875.226-7.75.374-11.626.462-4.328.088-8.656.138-12.984.128H90.942c-4.328.01-8.656-.04-12.984-.128a328.387 328.387 0 0 1-11.626-.462 203.003 203.003 0 0 1-10.348-.854 120 120 0 0 1-9.148-1.346 77.806 77.806 0 0 1-8.046-1.906 55.139 55.139 0 0 1-7.023-2.594 40.413 40.413 0 0 1-6.06-3.35 35.176 35.176 0 0 1-5.134-4.215 34.56 34.56 0 0 1-4.22-5.119 41.183 41.183 0 0 1-3.363-6.042 55.415 55.415 0 0 1-2.597-7.005 80.682 80.682 0 0 1-1.918-8.027 124.688 124.688 0 0 1-1.348-9.137 200.993 200.993 0 0 1-.856-10.326 325.212 325.212 0 0 1-.462-11.593 569.197 569.197 0 0 1-.128-12.96v-58.21c-.01-4.314.04-8.637.128-12.96.089-3.86.236-7.732.462-11.593.197-3.448.482-6.887.856-10.326.335-3.055.787-6.101 1.348-9.127a80.219 80.219 0 0 1 1.918-8.037 55.983 55.983 0 0 1 2.597-7.005 41.695 41.695 0 0 1 3.364-6.042 35.072 35.072 0 0 1 4.22-5.119 35.176 35.176 0 0 1 5.134-4.215 40.413 40.413 0 0 1 6.059-3.35 53.64 53.64 0 0 1 7.023-2.584 80.47 80.47 0 0 1 8.046-1.916 125.11 125.11 0 0 1 9.148-1.346c3.443-.373 6.895-.658 10.348-.854 3.875-.226 7.75-.374 11.626-.452 4.328-.098 8.656-.148 12.984-.138h74.126zm.01 4.009c4.298-.01 8.597.039 12.895.127 3.827.089 7.653.236 11.48.452 3.383.197 6.766.472 10.13.845 2.971.315 5.932.747 8.863 1.297a75.943 75.943 0 0 1 7.653 1.818 50.493 50.493 0 0 1 6.501 2.397 37.038 37.038 0 0 1 5.47 3.026 30.383 30.383 0 0 1 4.524 3.724 31.05 31.05 0 0 1 3.738 4.519 37.271 37.271 0 0 1 3.03 5.443 51.46 51.46 0 0 1 2.4 6.494 75.563 75.563 0 0 1 1.829 7.634c.54 2.928.974 5.875 1.298 8.842.374 3.36.65 6.73.846 10.11.217 3.822.374 7.634.453 11.456.088 4.293.137 8.577.137 12.87v58.212c0 4.293-.049 8.577-.137 12.87a317.503 317.503 0 0 1-.453 11.456c-.196 3.38-.472 6.75-.846 10.12a121.689 121.689 0 0 1-1.298 8.832 75.562 75.562 0 0 1-1.83 7.634 50.902 50.902 0 0 1-2.4 6.494 36.767 36.767 0 0 1-3.03 5.443 30.615 30.615 0 0 1-3.737 4.53 30.938 30.938 0 0 1-4.525 3.713 37.038 37.038 0 0 1-5.469 3.026 49.07 49.07 0 0 1-6.501 2.397 75.942 75.942 0 0 1-7.653 1.818c-2.931.55-5.892.982-8.863 1.306-3.364.364-6.747.649-10.13.836-3.827.216-7.653.373-11.48.452-4.298.098-8.597.137-12.895.137H90.932c-4.298 0-8.597-.04-12.895-.137a320.093 320.093 0 0 1-11.48-.452 193.696 193.696 0 0 1-10.13-.836 116.71 116.71 0 0 1-8.863-1.306 75.942 75.942 0 0 1-7.653-1.818 49.07 49.07 0 0 1-6.501-2.397 37.038 37.038 0 0 1-5.47-3.026 30.938 30.938 0 0 1-4.524-3.714 30.615 30.615 0 0 1-3.738-4.529 36.766 36.766 0 0 1-3.03-5.443 50.903 50.903 0 0 1-2.4-6.494 75.567 75.567 0 0 1-1.829-7.634 121.69 121.69 0 0 1-1.298-8.832c-.374-3.37-.65-6.74-.846-10.12a317.535 317.535 0 0 1-.453-11.456 623.851 623.851 0 0 1-.137-12.87V97.014c0-4.293.049-8.577.137-12.87.079-3.822.236-7.634.453-11.456.197-3.38.472-6.75.846-10.11.324-2.967.757-5.914 1.298-8.842a75.568 75.568 0 0 1 1.83-7.634 51.46 51.46 0 0 1 2.4-6.494 37.27 37.27 0 0 1 3.03-5.443 31.05 31.05 0 0 1 3.737-4.52 30.384 30.384 0 0 1 4.525-3.723 37.039 37.039 0 0 1 5.469-3.026 50.494 50.494 0 0 1 6.501-2.397 75.943 75.943 0 0 1 7.653-1.818c2.931-.55 5.892-.982 8.863-1.297 3.364-.373 6.747-.648 10.13-.845a344.71 344.71 0 0 1 11.48-.452c4.298-.088 8.597-.137 12.895-.127H165.078z"/>
 </g>
</svg>
