<svg xmlns="http://www.w3.org/2000/svg" style="isolation:isolate" width="256" height="256" viewBox="0 0 256 256">
 <defs>
  <filter id="awLy3rul4vefJiI2FmgHRrRXdXeqopyR" width="400%" height="400%" x="-200%" y="-200%" color-interpolation-filters="sRGB" filterUnits="objectBoundingBox">
   <feGaussianBlur xmlns="http://www.w3.org/2000/svg" in="SourceGraphic" stdDeviation="4.294"/>
   <feOffset xmlns="http://www.w3.org/2000/svg" dx="0" dy="4" result="pf_100_offsetBlur"/>
   <feFlood xmlns="http://www.w3.org/2000/svg" flood-opacity=".4"/>
   <feComposite xmlns="http://www.w3.org/2000/svg" in2="pf_100_offsetBlur" operator="in" result="pf_100_dropShadow"/>
   <feBlend xmlns="http://www.w3.org/2000/svg" in="SourceGraphic" in2="pf_100_dropShadow" mode="normal"/>
  </filter>
 </defs>
 <g filter="url(#awLy3rul4vefJiI2FmgHRrRXdXeqopyR)">
  <linearGradient id="_lgradient_8" x1=".993" x2=".002" y1=".988" y2=".193" gradientTransform="matrix(244.648309,0,0,228.338396,5.681691,11.95)" gradientUnits="userSpaceOnUse">
   <stop offset="0%" style="stop-color:#343b40"/>
   <stop offset="100%" style="stop-color:#555e63"/>
  </linearGradient>
  <path fill="url(#_lgradient_8)" d="M 165.690609 11.95 C 239.746317 11.95 250.33 22.507198 250.33 96.493859 L 250.33 155.744653 C 250.33 229.73091 239.746317 240.288396 165.690609 240.288396 L 90.321084 240.288396 C 16.26538 240.288396 5.681691 229.73091 5.681691 155.744653 L 5.681691 96.493859 C 5.681691 22.507198 16.26538 11.95 90.321084 11.95 L 165.690609 11.95 Z"/>
 </g>
 <defs>
  <filter id="wtaD3cdKKFb7jQsvLCeLR3b44Z2PRxy1" width="400%" height="400%" x="-200%" y="-200%" color-interpolation-filters="sRGB" filterUnits="objectBoundingBox">
   <feGaussianBlur xmlns="http://www.w3.org/2000/svg" stdDeviation="4.294"/>
  </filter>
 </defs>
 <g opacity=".4" filter="url(#wtaD3cdKKFb7jQsvLCeLR3b44Z2PRxy1)">
  <path fill="#111111" fill-rule="evenodd" d="M 94.202972 59.508263 C 91.766404 59.608748 89.55943 60.679392 88.338251 62.353348 L 63.051401 97.060813 C 61.759292 98.828858 61.757355 101.009232 63.046321 102.778722 C 64.335288 104.548213 66.718798 105.637259 69.296951 105.634688 L 81.584937 105.634688 L 81.584937 160.56671 C 81.584937 166.650833 86.413797 171.547963 92.413096 171.547963 L 96.754506 171.547963 C 102.753805 171.547963 107.582665 166.650833 107.582665 160.56671 L 107.582665 105.634688 L 119.870651 105.634688 C 122.448801 105.637259 124.832311 104.548213 126.121274 102.778722 C 127.410237 101.009232 127.408304 98.828858 126.116198 97.060813 L 100.829351 62.353348 C 99.472075 60.492387 96.911336 59.392916 94.202972 59.508263 Z M 157.407414 92.452027 C 151.408115 92.452027 146.579249 97.349164 146.579249 103.433287 L 146.579249 158.365309 L 134.291263 158.365309 C 131.713113 158.362745 129.329603 159.451778 128.040646 161.221269 C 126.751676 162.990759 126.753616 165.171126 128.045716 166.939184 L 153.332563 201.64664 C 154.553748 203.320608 156.760716 204.391249 159.197284 204.491737 C 161.905648 204.607084 164.466393 203.507604 165.823669 201.64664 L 191.110516 166.939184 C 192.402622 165.171126 192.404556 162.990759 191.115586 161.221269 C 189.826629 159.451791 187.443119 158.362745 184.864969 158.365309 L 172.576983 158.365309 L 172.576983 103.433287 C 172.576983 97.349164 167.748117 92.452027 161.748818 92.452027 L 157.407414 92.452027 Z"/>
 </g>
 <g>
  <linearGradient id="_lgradient_9" x1=".5" x2=".501" y1="0" y2=".769" gradientTransform="matrix(65.005683,0,0,112.047963,62.080956,55.5)" gradientUnits="userSpaceOnUse">
   <stop offset="0%" style="stop-color:#f9af18"/>
   <stop offset="100%" style="stop-color:#fecf3b"/>
  </linearGradient>
  <path fill="url(#_lgradient_9)" d="M 94.202972 55.508263 C 91.766404 55.608748 89.55943 56.679392 88.338251 58.353348 L 63.051401 93.060813 C 61.759292 94.828858 61.757355 97.009232 63.046321 98.778722 C 64.335288 100.548213 66.718798 101.637259 69.296951 101.634688 L 81.584937 101.634688 L 81.584937 156.56671 C 81.584937 162.650833 86.413797 167.547963 92.413096 167.547963 L 96.754506 167.547963 C 102.753805 167.547963 107.582665 162.650833 107.582665 156.56671 L 107.582665 101.634688 L 119.870651 101.634688 C 122.448801 101.637259 124.832311 100.548213 126.121274 98.778722 C 127.410237 97.009232 127.408304 94.828858 126.116198 93.060813 L 100.829351 58.353348 C 99.472075 56.492387 96.911336 55.392916 94.202972 55.508263 Z"/>
  <linearGradient id="_lgradient_10" x1=".5" x2=".496" y1="1" y2=".219" gradientTransform="matrix(65.005678,0,0,112.047973,127.075278,88.452027)" gradientUnits="userSpaceOnUse">
   <stop offset="0%" style="stop-color:#009a56"/>
   <stop offset="100%" style="stop-color:#46a926"/>
  </linearGradient>
  <path fill="url(#_lgradient_10)" d="M 157.407414 88.452027 C 151.408115 88.452027 146.579249 93.349164 146.579249 99.433287 L 146.579249 154.365309 L 134.291263 154.365309 C 131.713113 154.362745 129.329603 155.451778 128.040646 157.221269 C 126.751676 158.990759 126.753616 161.171126 128.045716 162.939184 L 153.332563 197.64664 C 154.553748 199.320608 156.760716 200.391249 159.197284 200.491737 C 161.905648 200.607084 164.466393 199.507604 165.823669 197.64664 L 191.110516 162.939184 C 192.402622 161.171126 192.404556 158.990759 191.115586 157.221269 C 189.826629 155.451791 187.443119 154.362745 184.864969 154.365309 L 172.576983 154.365309 L 172.576983 99.433287 C 172.576983 93.349164 167.748117 88.452027 161.748818 88.452027 L 157.407414 88.452027 Z"/>
 </g>
 <g opacity=".4">
  <linearGradient id="_lgradient_11" x1=".517" x2=".517" y1="0" y2="1" gradientTransform="matrix(244.65,0,0,228.34,5.68,11.95)" gradientUnits="userSpaceOnUse">
   <stop offset="0%" style="stop-color:#ffffff"/>
   <stop offset="12.5%" stop-opacity=".098" style="stop-color:#ffffff"/>
   <stop offset="92.5%" stop-opacity=".098" style="stop-color:#000000"/>
   <stop offset="100%" stop-opacity=".498" style="stop-color:#000000"/>
  </linearGradient>
  <path fill="url(#_lgradient_11)" fill-rule="evenodd" d="M 165.06803 11.951234 C 169.395994 11.941409 173.723944 11.990533 178.051908 12.088781 C 181.927398 12.167379 185.802873 12.31475 189.678362 12.540721 C 193.1309 12.737216 196.583423 13.022134 200.026115 13.395476 C 203.085193 13.729518 206.144271 14.181458 209.173842 14.741469 C 211.888645 15.242533 214.57394 15.881143 217.219897 16.6573 C 219.619947 17.354858 221.970814 18.219439 224.242988 19.241215 C 226.357793 20.184394 228.384061 21.304417 230.302129 22.591462 C 232.141505 23.829383 233.862851 25.244151 235.436659 26.80629 C 237.000621 28.378252 238.417046 30.087764 239.656409 31.924995 C 240.944972 33.840824 242.066305 35.864728 243.020409 37.967229 C 244.043389 40.246576 244.908985 42.584873 245.617197 44.972292 C 246.394255 47.615155 247.033606 50.297317 247.535265 53.008956 C 248.095924 56.034984 248.548399 59.080665 248.882828 62.13617 C 249.256611 65.574836 249.541856 69.013506 249.738578 72.462003 C 249.964823 76.323139 250.112361 80.194101 250.200884 84.055237 C 250.289421 88.378131 250.338591 92.701032 250.32876 97.014106 L 250.32876 155.225886 C 250.338591 159.54878 250.289421 163.861854 250.200884 168.184747 C 250.112361 172.05571 249.964823 175.916853 249.738578 179.777981 C 249.541856 183.226485 249.256611 186.674975 248.882828 190.103826 C 248.548399 193.15933 248.095924 196.214835 247.535265 199.240851 C 247.033606 201.942664 246.394255 204.624837 245.617197 207.267703 C 244.908985 209.655115 244.043389 212.003235 243.020409 214.272755 C 242.066305 216.38509 240.944972 218.399156 239.656409 220.314999 C 238.417046 222.152226 237.000621 223.871561 235.436659 225.433697 C 233.862851 226.995832 232.141505 228.410601 230.302129 229.648532 C 228.384061 230.935575 226.357793 232.055598 224.242988 232.998768 C 221.970814 234.020552 219.619947 234.885137 217.219897 235.592507 C 214.57394 236.368672 211.888645 237.007276 209.173842 237.498515 C 206.144271 238.068354 203.085193 238.510465 200.026115 238.844519 C 196.583423 239.21785 193.1309 239.502777 189.678362 239.699269 C 185.802873 239.925235 181.927398 240.072615 178.051908 240.161035 C 173.723944 240.249454 169.395994 240.298581 165.06803 240.288762 L 90.941963 240.288762 C 86.614006 240.298581 82.286049 240.249454 77.9581 240.161035 C 74.08261 240.072615 70.20712 239.925235 66.331638 239.699269 C 62.879108 239.502777 59.426578 239.21785 55.983886 238.844519 C 52.924808 238.510465 49.865733 238.068354 46.836162 237.498515 C 44.121356 237.007276 41.436057 236.368672 38.7901 235.592507 C 36.390053 234.885137 34.039187 234.020552 31.767009 232.998768 C 29.652213 232.055598 27.625943 230.935575 25.707871 229.648532 C 23.868489 228.410601 22.147143 226.995832 20.573343 225.433697 C 19.009377 223.871561 17.592955 222.152226 16.353586 220.314999 C 15.065036 218.399156 13.943701 216.38509 12.989584 214.272755 C 11.966612 212.003235 11.101021 209.655115 10.392811 207.267703 C 9.615746 204.624837 8.976389 201.942664 8.47474 199.240851 C 7.914072 196.214835 7.461604 193.15933 7.127172 190.103826 C 6.753394 186.674975 6.468142 183.226485 6.271417 179.777981 C 6.045183 175.916853 5.897639 172.05571 5.809112 168.184747 C 5.720586 163.861854 5.671405 159.54878 5.681241 155.225886 L 5.681241 97.014106 C 5.671405 92.701032 5.720586 88.378131 5.809112 84.055237 C 5.897639 80.194101 6.045183 76.323139 6.271417 72.462003 C 6.468142 69.013506 6.753394 65.574836 7.127172 62.13617 C 7.461604 59.080665 7.914072 56.034984 8.47474 53.008956 C 8.976389 50.297317 9.615746 47.615155 10.392811 44.972292 C 11.101021 42.584873 11.966612 40.246576 12.989584 37.967229 C 13.943701 35.864728 15.065036 33.840824 16.353586 31.924995 C 17.592955 30.087764 19.009377 28.378252 20.573343 26.80629 C 22.147143 25.244151 23.868489 23.829383 25.707871 22.591462 C 27.625943 21.304417 29.652213 20.184394 31.767009 19.241215 C 34.039187 18.219439 36.390053 17.354858 38.7901 16.6573 C 41.436057 15.881143 44.121356 15.242533 46.836162 14.741469 C 49.865733 14.181458 52.924808 13.729518 55.983886 13.395476 C 59.426578 13.022134 62.879108 12.737216 66.331638 12.540721 C 70.20712 12.31475 74.08261 12.167379 77.9581 12.088781 C 82.286049 11.990533 86.614006 11.941409 90.941963 11.951234 L 165.06803 11.951234 Z M 165.077876 15.959741 C 169.376317 15.949916 173.674759 15.99904 177.973216 16.087463 C 181.799522 16.175886 185.625827 16.323257 189.452133 16.539402 C 192.835809 16.735898 196.219486 17.010992 199.583486 17.384332 C 202.554026 17.698726 205.514751 18.131016 208.445953 18.681203 C 211.023049 19.152792 213.580483 19.761928 216.098564 20.498786 C 218.321569 21.147221 220.495374 21.952852 222.600334 22.896029 C 224.508571 23.750785 226.338116 24.762737 228.069293 25.922059 C 229.692286 27.012609 231.207063 28.260355 232.59398 29.645648 C 233.980897 31.030941 235.230091 32.543956 236.331763 34.165043 C 237.492434 35.894202 238.505568 37.711787 239.361333 39.607968 C 240.305606 41.720292 241.112187 43.891565 241.761369 46.102139 C 242.508934 48.617282 243.108947 51.161898 243.590914 53.735987 C 244.131912 56.663768 244.564709 59.6112 244.889308 62.578282 C 245.263091 65.938355 245.538505 69.308252 245.735227 72.687976 C 245.951626 76.509812 246.10901 80.321821 246.187687 84.143656 C 246.276225 88.437084 246.325394 92.720685 246.325394 97.014106 C 246.325394 97.014106 246.325394 97.014106 246.325394 97.014106 L 246.325394 155.225886 C 246.325394 155.225886 246.325394 155.225886 246.325394 155.225886 C 246.325394 159.519306 246.276225 163.802907 246.187687 168.096328 C 246.10901 171.918164 245.951626 175.739999 245.735227 179.552015 C 245.538505 182.931739 245.263091 186.301629 244.889308 189.671533 C 244.564709 192.628784 244.131912 195.576216 243.590914 198.503994 C 243.108947 201.078094 242.508934 203.622706 241.761369 206.137845 C 241.112187 208.358253 240.305606 210.5197 239.361333 212.63202 C 238.505568 214.528209 237.492434 216.355617 236.331763 218.074952 C 235.230091 219.705853 233.980897 221.218876 232.59398 222.604172 C 231.207063 223.979634 229.692286 225.227385 228.069293 226.317935 C 226.338116 227.477251 224.508571 228.489201 222.600334 229.343951 C 220.495374 230.296956 218.321569 231.092775 216.098564 231.741198 C 213.580483 232.478056 211.023049 233.087202 208.445953 233.558787 C 205.514751 234.108972 202.554026 234.541264 199.583486 234.865483 C 196.219486 235.228995 192.835809 235.513922 189.452133 235.70058 C 185.625827 235.916726 181.799522 236.073926 177.973216 236.152526 C 173.674759 236.25078 169.376317 236.290072 165.077876 236.290072 C 165.077876 236.290072 165.077876 236.290072 165.06803 236.290072 L 90.941963 236.290072 C 90.932125 236.290072 90.932125 236.290072 90.932125 236.290072 C 86.633683 236.290072 82.335234 236.25078 78.036784 236.152526 C 74.210479 236.073926 70.384173 235.916726 66.557868 235.70058 C 63.174195 235.513922 59.790522 235.228995 56.426518 234.865483 C 53.455967 234.541264 50.495253 234.108972 47.564048 233.558787 C 44.986944 233.087202 42.429517 232.478056 39.911433 231.741198 C 37.688439 231.092775 35.514626 230.296956 33.409665 229.343951 C 31.501429 228.489201 29.671886 227.477251 27.940703 226.317935 C 26.31772 225.227385 24.802935 223.979634 23.416022 222.604172 C 22.029109 221.218876 20.779904 219.705853 19.678243 218.074952 C 18.517564 216.355617 17.504428 214.528209 16.648674 212.63202 C 15.704392 210.5197 14.897819 208.358253 14.248626 206.137845 C 13.50107 203.622706 12.901057 201.078094 12.419081 198.503994 C 11.878086 195.576216 11.445291 192.628784 11.120694 189.671533 C 10.746916 186.301629 10.471501 182.931739 10.274776 179.552015 C 10.058378 175.739999 9.900997 171.918164 9.822307 168.096328 C 9.733781 163.802907 9.6846 159.519306 9.6846 155.225886 C 9.6846 155.225886 9.6846 155.225886 9.6846 155.225886 L 9.6846 97.014106 C 9.6846 97.014106 9.6846 97.014106 9.6846 97.014106 C 9.6846 92.720685 9.733781 88.437084 9.822307 84.143656 C 9.900997 80.321821 10.058378 76.509812 10.274776 72.687976 C 10.471501 69.308252 10.746916 65.938355 11.120694 62.578282 C 11.445291 59.6112 11.878086 56.663768 12.419081 53.735987 C 12.901057 51.161898 13.50107 48.617282 14.248626 46.102139 C 14.897819 43.891565 15.704392 41.720292 16.648674 39.607968 C 17.504428 37.711787 18.517564 35.894202 19.678243 34.165043 C 20.779904 32.543956 22.029109 31.030941 23.416022 29.645648 C 24.802935 28.260355 26.31772 27.012609 27.940703 25.922059 C 29.671886 24.762737 31.501429 23.750785 33.409665 22.896029 C 35.514626 21.952852 37.688439 21.147221 39.911433 20.498786 C 42.429517 19.761928 44.986944 19.152792 47.564048 18.681203 C 50.495253 18.131016 53.455967 17.698726 56.426518 17.384332 C 59.790522 17.010992 63.174195 16.735898 66.557868 16.539402 C 70.384173 16.323257 74.210479 16.175886 78.036784 16.087463 C 82.335234 15.99904 86.633683 15.949916 90.932125 15.959741 C 90.932125 15.959741 90.932125 15.959741 90.941963 15.959741 L 165.06803 15.959741 C 165.077876 15.959741 165.077876 15.959741 165.077876 15.959741 Z"/>
 </g>
</svg>
