<svg xmlns="http://www.w3.org/2000/svg" style="isolation:isolate" width="256" height="256" viewBox="0 0 256 256">
 <defs>
  <filter id="IebX8aCcuvgugtXATtnusjvdTVYgnSL1" width="400%" height="400%" x="-200%" y="-200%" color-interpolation-filters="sRGB" filterUnits="objectBoundingBox">
   <feGaussianBlur xmlns="http://www.w3.org/2000/svg" in="SourceGraphic" stdDeviation="4.294"/>
   <feOffset xmlns="http://www.w3.org/2000/svg" dx="0" dy="4" result="pf_100_offsetBlur"/>
   <feFlood xmlns="http://www.w3.org/2000/svg" flood-opacity=".4"/>
   <feComposite xmlns="http://www.w3.org/2000/svg" in2="pf_100_offsetBlur" operator="in" result="pf_100_dropShadow"/>
   <feBlend xmlns="http://www.w3.org/2000/svg" in="SourceGraphic" in2="pf_100_dropShadow" mode="normal"/>
  </filter>
 </defs>
 <g filter="url(#IebX8aCcuvgugtXATtnusjvdTVYgnSL1)">
  <linearGradient id="_lgradient_26" x1=".51" x2=".512" y1="1.06" y2=".248" gradientTransform="matrix(244.648309,0,0,228.338396,5.681691,11.95)" gradientUnits="userSpaceOnUse">
   <stop offset="0%" style="stop-color:#2ea33c"/>
   <stop offset="100%" style="stop-color:#41d753"/>
  </linearGradient>
  <path fill="url(#_lgradient_26)" d="M 165.690609 11.95 C 239.746317 11.95 250.33 22.507198 250.33 96.493859 L 250.33 155.744653 C 250.33 229.73091 239.746317 240.288396 165.690609 240.288396 L 90.321084 240.288396 C 16.26538 240.288396 5.681691 229.73091 5.681691 155.744653 L 5.681691 96.493859 C 5.681691 22.507198 16.26538 11.95 90.321084 11.95 L 165.690609 11.95 Z"/>
 </g>
 <g opacity=".4">
  <linearGradient id="_lgradient_27" x1=".517" x2=".517" y1="0" y2="1" gradientTransform="matrix(244.65,0,0,228.34,5.68,11.95)" gradientUnits="userSpaceOnUse">
   <stop offset="0%" style="stop-color:#ffffff"/>
   <stop offset="12.5%" stop-opacity=".098" style="stop-color:#ffffff"/>
   <stop offset="92.5%" stop-opacity=".098" style="stop-color:#000000"/>
   <stop offset="100%" stop-opacity=".498" style="stop-color:#000000"/>
  </linearGradient>
  <path fill="url(#_lgradient_27)" fill-rule="evenodd" d="M 165.06803 11.951234 C 169.395994 11.941409 173.723944 11.990533 178.051908 12.088781 C 181.927398 12.167379 185.802873 12.31475 189.678362 12.540721 C 193.1309 12.737216 196.583423 13.022134 200.026115 13.395476 C 203.085193 13.729518 206.144271 14.181458 209.173842 14.741469 C 211.888645 15.242533 214.57394 15.881143 217.219897 16.6573 C 219.619947 17.354858 221.970814 18.219439 224.242988 19.241215 C 226.357793 20.184394 228.384061 21.304417 230.302129 22.591462 C 232.141505 23.829383 233.862851 25.244151 235.436659 26.80629 C 237.000621 28.378252 238.417046 30.087764 239.656409 31.924995 C 240.944972 33.840824 242.066305 35.864728 243.020409 37.967229 C 244.043389 40.246576 244.908985 42.584873 245.617197 44.972292 C 246.394255 47.615155 247.033606 50.297317 247.535265 53.008956 C 248.095924 56.034984 248.548399 59.080665 248.882828 62.13617 C 249.256611 65.574836 249.541856 69.013506 249.738578 72.462003 C 249.964823 76.323139 250.112361 80.194101 250.200884 84.055237 C 250.289421 88.378131 250.338591 92.701032 250.32876 97.014106 L 250.32876 155.225886 C 250.338591 159.54878 250.289421 163.861854 250.200884 168.184747 C 250.112361 172.05571 249.964823 175.916853 249.738578 179.777981 C 249.541856 183.226485 249.256611 186.674975 248.882828 190.103826 C 248.548399 193.15933 248.095924 196.214835 247.535265 199.240851 C 247.033606 201.942664 246.394255 204.624837 245.617197 207.267703 C 244.908985 209.655115 244.043389 212.003235 243.020409 214.272755 C 242.066305 216.38509 240.944972 218.399156 239.656409 220.314999 C 238.417046 222.152226 237.000621 223.871561 235.436659 225.433697 C 233.862851 226.995832 232.141505 228.410601 230.302129 229.648532 C 228.384061 230.935575 226.357793 232.055598 224.242988 232.998768 C 221.970814 234.020552 219.619947 234.885137 217.219897 235.592507 C 214.57394 236.368672 211.888645 237.007276 209.173842 237.498515 C 206.144271 238.068354 203.085193 238.510465 200.026115 238.844519 C 196.583423 239.21785 193.1309 239.502777 189.678362 239.699269 C 185.802873 239.925235 181.927398 240.072615 178.051908 240.161035 C 173.723944 240.249454 169.395994 240.298581 165.06803 240.288762 L 90.941963 240.288762 C 86.614006 240.298581 82.286049 240.249454 77.9581 240.161035 C 74.08261 240.072615 70.20712 239.925235 66.331638 239.699269 C 62.879108 239.502777 59.426578 239.21785 55.983886 238.844519 C 52.924808 238.510465 49.865733 238.068354 46.836162 237.498515 C 44.121356 237.007276 41.436057 236.368672 38.7901 235.592507 C 36.390053 234.885137 34.039187 234.020552 31.767009 232.998768 C 29.652213 232.055598 27.625943 230.935575 25.707871 229.648532 C 23.868489 228.410601 22.147143 226.995832 20.573343 225.433697 C 19.009377 223.871561 17.592955 222.152226 16.353586 220.314999 C 15.065036 218.399156 13.943701 216.38509 12.989584 214.272755 C 11.966612 212.003235 11.101021 209.655115 10.392811 207.267703 C 9.615746 204.624837 8.976389 201.942664 8.47474 199.240851 C 7.914072 196.214835 7.461604 193.15933 7.127172 190.103826 C 6.753394 186.674975 6.468142 183.226485 6.271417 179.777981 C 6.045183 175.916853 5.897639 172.05571 5.809112 168.184747 C 5.720586 163.861854 5.671405 159.54878 5.681241 155.225886 L 5.681241 97.014106 C 5.671405 92.701032 5.720586 88.378131 5.809112 84.055237 C 5.897639 80.194101 6.045183 76.323139 6.271417 72.462003 C 6.468142 69.013506 6.753394 65.574836 7.127172 62.13617 C 7.461604 59.080665 7.914072 56.034984 8.47474 53.008956 C 8.976389 50.297317 9.615746 47.615155 10.392811 44.972292 C 11.101021 42.584873 11.966612 40.246576 12.989584 37.967229 C 13.943701 35.864728 15.065036 33.840824 16.353586 31.924995 C 17.592955 30.087764 19.009377 28.378252 20.573343 26.80629 C 22.147143 25.244151 23.868489 23.829383 25.707871 22.591462 C 27.625943 21.304417 29.652213 20.184394 31.767009 19.241215 C 34.039187 18.219439 36.390053 17.354858 38.7901 16.6573 C 41.436057 15.881143 44.121356 15.242533 46.836162 14.741469 C 49.865733 14.181458 52.924808 13.729518 55.983886 13.395476 C 59.426578 13.022134 62.879108 12.737216 66.331638 12.540721 C 70.20712 12.31475 74.08261 12.167379 77.9581 12.088781 C 82.286049 11.990533 86.614006 11.941409 90.941963 11.951234 L 165.06803 11.951234 Z M 165.077876 15.959741 C 169.376317 15.949916 173.674759 15.99904 177.973216 16.087463 C 181.799522 16.175886 185.625827 16.323257 189.452133 16.539402 C 192.835809 16.735898 196.219486 17.010992 199.583486 17.384332 C 202.554026 17.698726 205.514751 18.131016 208.445953 18.681203 C 211.023049 19.152792 213.580483 19.761928 216.098564 20.498786 C 218.321569 21.147221 220.495374 21.952852 222.600334 22.896029 C 224.508571 23.750785 226.338116 24.762737 228.069293 25.922059 C 229.692286 27.012609 231.207063 28.260355 232.59398 29.645648 C 233.980897 31.030941 235.230091 32.543956 236.331763 34.165043 C 237.492434 35.894202 238.505568 37.711787 239.361333 39.607968 C 240.305606 41.720292 241.112187 43.891565 241.761369 46.102139 C 242.508934 48.617282 243.108947 51.161898 243.590914 53.735987 C 244.131912 56.663768 244.564709 59.6112 244.889308 62.578282 C 245.263091 65.938355 245.538505 69.308252 245.735227 72.687976 C 245.951626 76.509812 246.10901 80.321821 246.187687 84.143656 C 246.276225 88.437084 246.325394 92.720685 246.325394 97.014106 C 246.325394 97.014106 246.325394 97.014106 246.325394 97.014106 L 246.325394 155.225886 C 246.325394 155.225886 246.325394 155.225886 246.325394 155.225886 C 246.325394 159.519306 246.276225 163.802907 246.187687 168.096328 C 246.10901 171.918164 245.951626 175.739999 245.735227 179.552015 C 245.538505 182.931739 245.263091 186.301629 244.889308 189.671533 C 244.564709 192.628784 244.131912 195.576216 243.590914 198.503994 C 243.108947 201.078094 242.508934 203.622706 241.761369 206.137845 C 241.112187 208.358253 240.305606 210.5197 239.361333 212.63202 C 238.505568 214.528209 237.492434 216.355617 236.331763 218.074952 C 235.230091 219.705853 233.980897 221.218876 232.59398 222.604172 C 231.207063 223.979634 229.692286 225.227385 228.069293 226.317935 C 226.338116 227.477251 224.508571 228.489201 222.600334 229.343951 C 220.495374 230.296956 218.321569 231.092775 216.098564 231.741198 C 213.580483 232.478056 211.023049 233.087202 208.445953 233.558787 C 205.514751 234.108972 202.554026 234.541264 199.583486 234.865483 C 196.219486 235.228995 192.835809 235.513922 189.452133 235.70058 C 185.625827 235.916726 181.799522 236.073926 177.973216 236.152526 C 173.674759 236.25078 169.376317 236.290072 165.077876 236.290072 C 165.077876 236.290072 165.077876 236.290072 165.06803 236.290072 L 90.941963 236.290072 C 90.932125 236.290072 90.932125 236.290072 90.932125 236.290072 C 86.633683 236.290072 82.335234 236.25078 78.036784 236.152526 C 74.210479 236.073926 70.384173 235.916726 66.557868 235.70058 C 63.174195 235.513922 59.790522 235.228995 56.426518 234.865483 C 53.455967 234.541264 50.495253 234.108972 47.564048 233.558787 C 44.986944 233.087202 42.429517 232.478056 39.911433 231.741198 C 37.688439 231.092775 35.514626 230.296956 33.409665 229.343951 C 31.501429 228.489201 29.671886 227.477251 27.940703 226.317935 C 26.31772 225.227385 24.802935 223.979634 23.416022 222.604172 C 22.029109 221.218876 20.779904 219.705853 19.678243 218.074952 C 18.517564 216.355617 17.504428 214.528209 16.648674 212.63202 C 15.704392 210.5197 14.897819 208.358253 14.248626 206.137845 C 13.50107 203.622706 12.901057 201.078094 12.419081 198.503994 C 11.878086 195.576216 11.445291 192.628784 11.120694 189.671533 C 10.746916 186.301629 10.471501 182.931739 10.274776 179.552015 C 10.058378 175.739999 9.900997 171.918164 9.822307 168.096328 C 9.733781 163.802907 9.6846 159.519306 9.6846 155.225886 C 9.6846 155.225886 9.6846 155.225886 9.6846 155.225886 L 9.6846 97.014106 C 9.6846 97.014106 9.6846 97.014106 9.6846 97.014106 C 9.6846 92.720685 9.733781 88.437084 9.822307 84.143656 C 9.900997 80.321821 10.058378 76.509812 10.274776 72.687976 C 10.471501 69.308252 10.746916 65.938355 11.120694 62.578282 C 11.445291 59.6112 11.878086 56.663768 12.419081 53.735987 C 12.901057 51.161898 13.50107 48.617282 14.248626 46.102139 C 14.897819 43.891565 15.704392 41.720292 16.648674 39.607968 C 17.504428 37.711787 18.517564 35.894202 19.678243 34.165043 C 20.779904 32.543956 22.029109 31.030941 23.416022 29.645648 C 24.802935 28.260355 26.31772 27.012609 27.940703 25.922059 C 29.671886 24.762737 31.501429 23.750785 33.409665 22.896029 C 35.514626 21.952852 37.688439 21.147221 39.911433 20.498786 C 42.429517 19.761928 44.986944 19.152792 47.564048 18.681203 C 50.495253 18.131016 53.455967 17.698726 56.426518 17.384332 C 59.790522 17.010992 63.174195 16.735898 66.557868 16.539402 C 70.384173 16.323257 74.210479 16.175886 78.036784 16.087463 C 82.335234 15.99904 86.633683 15.949916 90.932125 15.959741 C 90.932125 15.959741 90.932125 15.959741 90.941963 15.959741 L 165.06803 15.959741 C 165.077876 15.959741 165.077876 15.959741 165.077876 15.959741 Z"/>
 </g>
 <g>
  <g opacity=".2">
   <path fill-rule="evenodd" d="M 77.584505 63.051316 C 76.338339 63.085683 75.120212 63.19922 73.930064 63.389408 C 64.408894 64.910527 57.149326 72.054007 55.70758 81.298588 C 54.704581 87.72999 57.347492 95.098202 63.394335 101.062472 C 67.769192 105.377652 74.331935 108.382317 82.32782 108.281762 C 82.157717 108.734639 80.653186 112.985158 78.926953 117.882789 C 76.229308 125.536117 75.75977 127.31911 75.75977 130.427384 C 75.75977 133.938129 75.91829 134.390496 79.995937 142.47939 C 82.326302 147.102088 84.952628 151.882618 85.833099 153.099707 C 87.968829 156.05193 91.710549 157.330879 96.319108 157.330879 C 102.344735 157.330879 106.043962 153.815042 102.290514 146.874759 C 101.717288 145.922675 100.993824 144.735625 100.082935 143.190398 C 97.341514 138.539698 96.639541 138.245417 97.238933 137.522445 C 98.267362 136.281426 101.291284 136.847585 105.53725 138.934533 C 108.067038 140.177842 110.283291 141.901266 113.298586 144.9655 C 119.913672 151.687364 124.202812 158.933384 127.627971 171.013901 C 129.446395 177.427484 130.584258 179.584692 132.967929 181.156903 C 136.87311 183.732875 141.383884 183.283054 143.419134 180.172489 C 144.314619 178.804187 144.818651 173.762725 144.418511 169.015289 C 144.116558 165.433774 144.909781 164.7024 152.890848 164.987771 C 160.070038 165.243102 162.832445 164.26989 165.465107 166.767709 C 166.291396 167.551524 169.801808 172.167603 173.261248 177.030103 C 180.461937 187.150958 184.936506 192.820438 188.127614 194.402323 C 190.782993 195.718948 195.737884 195.889509 197.957314 194.740389 C 199.688978 193.843547 200.897506 191.320779 200.378692 189.683908 C 200.179162 189.054871 198.353818 186.836821 196.326488 184.756747 C 192.136128 180.456587 190.385218 180.464733 182.09157 162.193634 C 178.926617 155.22102 175.692857 150.924679 174.906991 150.09657 C 170.830726 145.800737 167.841872 146.059123 160.721793 151.314677 C 154.575058 155.852094 153.385465 155.763505 150.37003 156.177432 C 147.111579 156.624708 144.245013 155.655313 139.695083 152.577588 C 129.956857 145.878126 126.593405 115.890796 140.048098 126.171264 C 142.643529 129.711285 142.088469 124.364087 144.582588 125.112262 C 146.317172 125.632344 147.297432 130.06717 149.584449 129.318486 L 151.697561 129.015296 C 160.232842 142.543541 169.159401 131.889113 153.5571 127.558404 L 153.840505 124.202182 L 145.487498 115.421627 C 134.193106 103.430463 127.530612 97.739344 124.331516 95.836958 C 119.144403 92.752359 114.818776 91.470865 108.938116 91.192877 C 102.566392 90.891214 101.394377 91.666373 94.733031 94.648635 C 92.244864 95.762624 90.182139 96.564004 88.259449 97.189223 C 79.274591 99.707662 74.128558 97.339418 70.549084 93.808307 C 66.856246 90.16595 65.55114 84.279323 65.770965 82.869781 C 66.598007 77.566623 69.712935 74.373171 75.536028 73.442853 C 81.359125 72.512535 90.242064 74.544062 100.550304 82.447198 C 101.28372 83.00563 102.154975 83.354489 103.071124 83.456559 C 103.232797 83.477931 103.395404 83.491524 103.558382 83.49729 C 103.588217 83.497553 103.618053 83.497553 103.647888 83.49729 C 106.042132 83.526638 108.133358 81.883867 108.671767 79.550762 C 109.210177 77.217656 108.05029 74.824628 105.8853 73.801844 C 97.296038 67.406362 88.937565 63.90445 81.403033 63.186568 C 80.10488 63.062848 78.830681 63.018044 77.584515 63.052411 L 77.584505 63.051316 Z M 153.840505 124.202182 C 156.482235 128.772693 163.753263 132.096585 169.750996 134.36504 C 169.59431 133.046887 169.361714 131.662293 169.00022 130.153724 C 166.516424 119.788993 164.445484 116.554454 161.979717 116.590094 C 160.716261 116.61555 159.344196 116.635916 157.763437 118.752902 C 156.458468 120.500765 155.165564 122.539853 153.885253 124.073116 L 153.8405 124.202945 L 153.840505 124.202182 Z"/>
  </g>
  <path fill="none" stroke="#4e4e4e" stroke-linecap="round" stroke-linejoin="round" stroke-width="4" d="M 90.58286 99.301627 C 68.633577 106.040802 59.517443 87.378432 60.740267 79.537487 C 63.009056 64.989545 81.478701 58.862351 103.647679 75.858982 L 103.647679 75.858982 L 103.647679 75.858982" vector-effect="non-scaling-stroke"/>
  <path fill="#4f4f4f" d="M 188.376015 192.107663 C 185.184908 190.525778 180.710068 184.857316 173.509379 174.736461 C 170.04994 169.873961 166.543402 165.254572 165.717113 164.470758 C 163.084451 161.972938 160.319832 162.948442 153.140641 162.693111 C 145.159575 162.40774 144.365507 163.137586 144.66746 166.719101 C 145.0676 171.466537 144.5624 176.508508 143.666914 177.87681 C 141.631664 180.987375 137.124828 181.438469 133.219648 178.862497 C 130.835976 177.290286 129.698806 175.12926 127.880382 168.715677 C 124.455222 156.635159 120.165497 149.390922 113.550411 142.669057 C 110.535116 139.604824 108.315928 137.880636 105.78614 136.637327 C 101.540175 134.550379 98.516071 133.982948 97.487643 135.223966 C 96.88825 135.946939 97.592474 136.242237 100.333892 140.892938 C 101.244782 142.438164 101.968284 143.627251 102.54151 144.579335 C 106.294957 151.519618 102.59362 155.042837 96.567993 155.036219 C 91.959434 155.036219 88.220336 153.754215 86.084606 150.801991 C 85.204135 149.584902 82.577102 144.807173 80.246737 140.184475 C 76.169081 132.095582 76.00977 131.642196 76.00977 128.131451 C 76.00977 125.023177 76.478328 123.242221 79.175973 115.588893 C 80.917398 110.64824 82.462732 106.289274 82.610025 105.901567 C 82.821545 105.345082 81.741605 105.185722 77.46473 105.142446 C 76.129404 101.966712 78.276649 96.711413 81.705026 96.413059 C 85.817934 95.947709 89.414527 94.847976 94.983369 92.354739 C 101.644715 89.372476 102.816797 88.596299 109.188521 88.897962 C 115.069181 89.17595 119.395997 90.454135 124.58311 93.538734 C 127.782205 95.441119 134.44487 101.132493 145.739262 113.123657 L 154.090393 121.906758 L 153.80876 125.263744 C 169.411061 129.594452 160.485107 140.246081 151.949826 126.717836 L 149.834449 127.022553 C 147.547432 127.771237 146.568132 123.335392 144.833547 122.81531 C 142.339429 122.067135 142.894922 127.413315 140.29949 123.873294 C 126.844797 113.592826 130.206353 143.582702 139.944579 150.282164 C 144.494509 153.359889 147.362824 154.326483 150.621275 153.879208 C 153.63671 153.46528 154.826428 153.555906 160.973162 149.018489 C 168.093242 143.762936 171.081482 143.507095 175.157747 147.802927 C 175.943613 148.631037 179.176152 152.927378 182.341105 159.899992 C 190.634752 178.171091 192.387429 178.162436 196.577789 182.462596 C 198.605119 184.54267 200.427087 186.76021 200.626617 187.389248 C 201.145431 189.026119 199.938314 191.547614 198.206649 192.444456 C 195.98722 193.593575 191.031384 193.423779 188.376005 192.107154 L 188.376015 192.107663 Z"/>
  <defs>
   <filter id="IL59g4WpWkvXMPPyDmKu7heKJzDwwoSY" width="400%" height="400%" x="-200%" y="-200%" color-interpolation-filters="sRGB" filterUnits="objectBoundingBox">
    <feGaussianBlur xmlns="http://www.w3.org/2000/svg" stdDeviation="4.294"/>
   </filter>
  </defs>
  <g opacity=".4" filter="url(#IL59g4WpWkvXMPPyDmKu7heKJzDwwoSY)">
   <path d="M 137.190365 116.589839 C 134.7246 116.554199 132.654327 119.788739 130.170531 130.153469 C 129.52164 132.861307 129.190364 135.235153 129.220965 137.373013 C 129.310319 143.609926 133.520884 148.845114 140.914059 153.755728 C 144.514562 156.147393 147.063514 157.194685 149.584449 157.320696 C 152.105386 157.193412 154.654336 156.147393 158.254839 153.755728 C 165.648017 148.845114 169.85859 143.609926 169.947935 137.373013 C 169.964991 136.176544 169.868841 134.906251 169.667058 133.544822 C 169.508284 132.4736 167.234962 131.976429 166.949212 130.784034 C 164.465457 120.419303 164.4443 120.731403 161.978533 120.767043 C 160.715077 120.7925 160.367994 120.260962 158.787235 122.377948 C 157.612554 123.951432 155.422843 122.153929 154.268055 123.621767 C 153.785613 124.235021 153.304976 124.785142 152.826205 125.227581 C 150.236148 127.527602 149.35461 127.243758 146.810833 125.639472 C 145.034359 124.155596 143.231825 121.197517 141.406243 118.752647 C 139.825481 116.635661 138.453823 116.604604 137.190365 116.589839 Z"/>
  </g>
  <path fill="#ffffff" d="M 137.190365 114.04416 C 134.7246 114.008521 132.654327 117.24306 130.170531 127.60779 C 129.52164 130.315629 129.190364 132.689474 129.220965 134.827335 C 129.310319 141.064247 133.520884 146.299435 140.914059 151.210049 C 144.514562 153.601714 147.063514 154.649007 149.584449 154.775018 C 152.105386 154.647734 154.654336 153.601714 158.254839 151.210049 C 165.648017 146.299435 169.85859 141.064247 169.947935 134.827335 C 169.964991 133.630866 169.868841 132.360572 169.667058 130.999143 C 169.508284 129.927922 167.234962 129.430751 166.949212 128.238355 C 164.465457 117.873625 164.4443 118.185725 161.978533 118.221364 C 160.715077 118.246821 160.367994 117.715283 158.787235 119.83227 C 157.612554 121.405754 155.422843 119.60825 154.268055 121.076088 C 153.785613 121.689342 153.304976 122.239463 152.826205 122.681902 C 150.236148 124.981923 149.35461 124.69808 146.810833 123.093793 C 145.034359 121.609917 143.231825 118.651839 141.406243 116.206969 C 139.825481 114.089983 138.453823 114.058925 137.190365 114.04416 Z"/>
  <path fill="#4f4f4f" d="M 161.979717 114.04416 C 160.716261 114.069617 159.344196 114.090006 157.763437 116.206992 C 156.458468 117.954745 155.165564 119.993864 153.885253 121.527063 L 153.840505 121.656335 C 156.482235 126.226648 163.753263 129.550698 169.750996 131.819162 C 169.594302 130.501008 169.361714 129.116375 169.00022 127.607854 C 166.516424 117.243124 164.445484 114.008521 161.979717 114.04416 Z"/>
  <path fill="#4f4f4f" d="M 137.729089 134.412644 C 140.393381 134.333728 141.947413 135.871063 141.947413 138.770336 C 141.947413 142.036187 141.55557 142.416512 138.766267 141.80173 C 136.133587 141.220552 134.52269 140.247594 133.775271 138.798593 C 132.587373 136.496282 132.787634 135.711194 134.714998 135.037099 C 135.832281 134.646846 136.840988 134.437846 137.729089 134.412644 L 137.729089 134.412644 Z"/>
  <path fill="#4f4f4f" d="M 149.584449 144.592303 C 152.392534 144.638126 154.675806 144.760318 154.675806 144.947425 C 154.675806 145.156171 153.318382 147.297087 151.661081 149.201 L 149.584449 152.229339 L 147.507822 149.201 C 145.850519 147.297087 144.493092 145.15999 144.493092 144.947425 C 144.493092 144.759045 146.77637 144.622851 149.584449 144.592303 Z"/>
  <path fill="#4f4f4f" d="M 161.439809 134.412644 C 158.775517 134.333728 157.221485 135.871063 157.221485 138.770336 C 157.221485 142.036187 157.613328 142.416512 160.402631 141.80173 C 163.035311 141.220552 164.646208 140.247594 165.393627 138.798593 C 166.581525 136.496282 166.381264 135.711194 164.4539 135.037099 C 163.336617 134.646846 162.32791 134.437846 161.439809 134.412644 L 161.439809 134.412644 Z"/>
 </g>
</svg>
