<svg xmlns="http://www.w3.org/2000/svg" style="isolation:isolate" width="256" height="256">
 <defs>
  <filter id="a" width="400%" height="400%" x="-200%" y="-200%" color-interpolation-filters="sRGB" filterUnits="objectBoundingBox">
   <feGaussianBlur xmlns="http://www.w3.org/2000/svg" in="SourceGraphic" stdDeviation="4.294"/>
   <feOffset xmlns="http://www.w3.org/2000/svg" dy="4" result="pf_100_offsetBlur"/>
   <feFlood xmlns="http://www.w3.org/2000/svg" flood-opacity=".4"/>
   <feComposite xmlns="http://www.w3.org/2000/svg" in2="pf_100_offsetBlur" operator="in" result="pf_100_dropShadow"/>
   <feBlend xmlns="http://www.w3.org/2000/svg" in="SourceGraphic" in2="pf_100_dropShadow"/>
  </filter>
 </defs>
 <path fill="#48859d" d="M165.685 11.947c74.055 0 84.639 10.557 84.639 84.544v59.251c0 73.986-10.584 84.543-84.639 84.543h-75.37c-74.055 0-84.639-10.557-84.639-84.543V96.491c0-73.987 10.584-84.544 84.639-84.544h75.37z" filter="url(#a)"/>
 <path fill="#185168" fill-rule="evenodd" d="M96.493 126.56c-.82-.97-1.551-2.03-2.161-3.16-.6-1.26-1.13-2.55-1.589-3.87a28.673 28.673 0 0 1-.971-3.5 25.07 25.07 0 0 1-.449-3.24c-.08-1.02-.08-2.04-.01-3.06.069-.98.199-1.96.41-2.93.21-.96.479-1.91.82-2.84.359-.95.78-1.88 1.259-2.77.521-.95 1.091-1.86 1.731-2.73a27.346 27.346 0 0 1 3.78-4.2c1.73-1.57 3.58-3 5.529-4.27 1.86-1.21 3.79-2.31 5.78-3.3a91.49 91.49 0 0 1 7.72-3.39c2.28-.83 4.6-1.52 6.951-2.09a84.13 84.13 0 0 1 7.529-1.48c5.351-.8 10.75-1.19 16.16-1.18 1.331 0 2.67.03 4 .07a47.392 47.392 0 0 1 15.351-14.37 42.423 42.423 0 0 1 9.33-4.05c2.989-.9 6.09-1.37 9.2-1.4 1.589 0 3.179.14 4.729.44 1.5.29 2.961.75 4.351 1.37 1.129.5 2.19 1.15 3.149 1.92.881.72 1.64 1.57 2.26 2.51a10.649 10.649 0 0 1 1.711 5.88 13.376 13.376 0 0 1-1.01 4.94c-.64 1.55-1.52 2.98-2.621 4.23a13.53 13.53 0 0 1-3.849 3.09 10.41 10.41 0 0 1-4.851 1.27h-.11a8.79 8.79 0 0 1-3.39-.66c-.94-.39-1.8-.98-2.509-1.72a9.84 9.84 0 0 1-1.511-2.06c-.329-.6-.64-1.22-.92-1.85-.14-.33-.3-.65-.459-.97-.05-.11-.11-.21-.17-.3-.011 0-.02 0-.02.01-.51.22-.991.5-1.42.83-1.72.96-3.36 2.04-4.91 3.24-.17.13-.34.27-.51.4 1.81.44 3.61.94 5.39 1.5 3.069.95 6.039 2.15 8.899 3.6 1.48.71 2.84 1.66 4.021 2.8a17.305 17.305 0 0 1 3.009 3.85 19.18 19.18 0 0 1 2.541 9.58c0 4.41-1.55 8.68-4.371 12.07a21.568 21.568 0 0 1-5.739 4.81c-.871.5-1.77.96-2.69 1.36.569.41 1.119.84 1.66 1.29a22.43 22.43 0 0 1 4.579 5.23 21.721 21.721 0 0 1 2.571 5.98c.529 2.07.789 4.2.779 6.34a32.537 32.537 0 0 1-.649 6.3 41.871 41.871 0 0 1-1.77 6.2 56.06 56.06 0 0 1-5.821 11.48 55.244 55.244 0 0 1-7.429 9.14 35.222 35.222 0 0 1-3.81 3.28 18.85 18.85 0 0 1-3.75 2.21c-2.11.93-4.31 1.67-6.56 2.19-2.291.55-4.63.83-6.981.85a22.18 22.18 0 0 1-6.379-.88 16.829 16.829 0 0 1-5.78-3.02 16.513 16.513 0 0 1-4.33-5.52 19.7 19.7 0 0 1-1.38-3.67c-.381-1.4-.65-2.83-.801-4.27a30.18 30.18 0 0 1-.149-1.87c-.86 1.64-1.78 3.25-2.761 4.82a66.487 66.487 0 0 1-12.819 15.06 72.804 72.804 0 0 1-8.981 6.65 89.63 89.63 0 0 1-11.07 5.91c-2.059.86-4.21 1.5-6.409 1.9-2.381.44-4.801.66-7.231.66-3.229 0-6.449-.38-9.599-1.11a40.467 40.467 0 0 1-9.6-3.57 36.952 36.952 0 0 1-8.74-6.42 37.656 37.656 0 0 1-7.01-9.66 33.88 33.88 0 0 1-2.58-12.77c0-3.47.569-6.91 1.689-10.2a34.704 34.704 0 0 1 4.621-9 39.633 39.633 0 0 1 6.929-7.42c2.64-2.19 5.54-4.05 8.631-5.54a50.429 50.429 0 0 1 10.82-3.7c1.799-.4 3.61-.71 5.439-.93 1.701-.2 3.421-.31 5.131-.31.059-.01.119-.01.17-.01zm51.659 14.24c.351-.3.711-.59 1.08-.86.75-.56 1.571-1.02 2.441-1.39.839-.35 1.74-.55 2.649-.57 1.211-.03 2.38.39 3.311 1.17.89.81 1.5 1.9 1.719 3.1.1.46.24.92.431 1.36.089.23.209.45.36.65.339-.29.63-.65.849-1.05.451-.77.811-1.6 1.071-2.46.36-1.19.619-2.41.779-3.65.03-.36.051-.71.051-1.07 0-.53-.041-1.05-.151-1.57-.069-.39-.2-.77-.37-1.13-.33-.65-.83-1.2-1.449-1.58-.42-.26-.87-.48-1.331-.65-.6-.22-1.22-.39-1.839-.51-.791-.15-1.58-.25-2.37-.32-.96-.07-1.921-.11-2.891-.1-.409 0-.829 0-1.239.01l-1.071 3.68c-.659 2.32-1.34 4.63-2.03 6.94zm-38.979-8.26c.099.42.14.85.15 1.27-.01.76-.15 1.51-.4 2.23-.271.73-.621 1.43-1.051 2.09-.61.92-1.1 1.91-1.46 2.96-.26.72-.4 1.49-.409 2.26 0 .52.1 1.05.31 1.53.18.4.44.76.779 1.04.411.34.881.6 1.39.76.701.22 1.43.32 2.161.32 1.54-.03 3.059-.33 4.489-.89.861-.34 1.67-.79 2.411-1.34.869-.64 1.67-1.36 2.399-2.15.86-.93 1.65-1.91 2.381-2.94.829-1.18 1.61-2.4 2.329-3.66a80.066 80.066 0 0 0 2.321-4.29c.799-1.6 1.569-3.21 2.31-4.83.14-.32.28-.63.419-.95a25.49 25.49 0 0 1-3.849 2.57 29.393 29.393 0 0 1-6.1 2.55c-1.601.47-3.22.84-4.851 1.11-1.52.25-3.049.38-4.589.39-.38 0-.761-.01-1.14-.03zm26.63-20.66c.92-2.15 1.86-4.28 2.799-6.41.83-1.87 1.681-3.73 2.55-5.57a63.936 63.936 0 0 0-5.75 2.66c-.66.42-1.289.87-1.899 1.35-.44.35-.851.73-1.23 1.15-.21.23-.38.49-.511.77a.896.896 0 0 0-.069.27c.019.16.069.32.159.45.35.51.781.96 1.27 1.32 1.021.94 1.84 2.06 2.411 3.32.1.22.19.45.27.69zm18.569 31.1c.041.06.06.13.071.2.159.8.399 1.58.709 2.33.271.67.631 1.3 1.071 1.87.45.58 1 1.06 1.629 1.42.69.39 1.461.59 2.25.58a5.06 5.06 0 0 0 3.13-1.19 8.724 8.724 0 0 0 2.11-2.5c.631-1.1 1.14-2.28 1.5-3.5.461-1.48.78-3.01.971-4.55.05-.53.08-1.06.08-1.59.009-.86-.071-1.71-.241-2.55a9.856 9.856 0 0 0-.789-2.37 9.046 9.046 0 0 0-3.291-3.62c-.72-.45-1.48-.82-2.28-1.11a16.38 16.38 0 0 0-2.599-.72c-.961-.18-1.94-.31-2.92-.39-1.1-.09-2.19-.13-3.291-.12-1.089 0-2.179.03-3.27.09-1.06.06-1.97.78-2.26 1.8l-1.569 5.41-.011.01c-.78 2.77-1.589 5.52-2.429 8.27-.83 2.74-1.741 5.45-2.711 8.14a101.99 101.99 0 0 1-3.27 7.91 71.95 71.95 0 0 1-4.11 7.58c-3.23 5.21-7.23 9.9-11.849 13.92a68.378 68.378 0 0 1-8.36 6.2 85.03 85.03 0 0 1-10.4 5.55c-1.71.72-3.49 1.24-5.32 1.57-2.081.39-4.2.58-6.32.58-2.85 0-5.701-.33-8.481-.98-2.92-.68-5.74-1.73-8.399-3.13a32 32 0 0 1-7.55-5.53 32.635 32.635 0 0 1-5.98-8.21 28.784 28.784 0 0 1-2.13-10.69c0-2.92.479-5.82 1.419-8.58.941-2.75 2.27-5.34 3.961-7.7a34.696 34.696 0 0 1 6.039-6.48 37.54 37.54 0 0 1 7.61-4.88 45.28 45.28 0 0 1 9.75-3.33c1.631-.37 3.28-.65 4.941-.84 1.519-.19 3.04-.28 4.57-.29 1.279 0 2.549.09 3.82.27.93.13 1.849.37 2.729.72.281.12.561.27.811.44.159.11.309.23.43.37.11.13.17.28.18.44-.01.18-.051.37-.11.54-.131.37-.301.72-.521 1.04-.829 1.26-1.5 2.62-2 4.04-.439 1.24-.67 2.55-.689 3.87-.01 1.24.24 2.46.729 3.6a8.047 8.047 0 0 0 2.14 2.86 8.934 8.934 0 0 0 3.131 1.7c1.199.38 2.449.56 3.71.55a18.17 18.17 0 0 0 6.269-1.24c1.25-.5 2.441-1.16 3.53-1.97a20.96 20.96 0 0 0 3.101-2.78 31.98 31.98 0 0 0 2.789-3.45c.93-1.31 1.791-2.65 2.59-4.04.86-1.49 1.681-3.01 2.451-4.55.83-1.65 1.62-3.32 2.39-5.01 1.659-3.66 3.269-7.35 4.83-11.05 1.47-3.49 2.98-6.96 4.51-10.42 2.3-5.17 4.77-10.27 7.419-15.28-3.75.53-7.429 1.51-10.949 2.91a71.914 71.914 0 0 0-6.741 3.1c-.86.54-1.7 1.13-2.489 1.76-.681.53-1.3 1.12-1.871 1.76-.53.59-.979 1.26-1.31 1.99-.35.75-.54 1.57-.54 2.4a5.97 5.97 0 0 0 1.021 3.22c.6.89 1.329 1.67 2.159 2.33.461.45.83.98 1.101 1.56.209.49.319 1.02.319 1.56 0 .47-.069.94-.209 1.39-.16.55-.381 1.07-.66 1.57a13.703 13.703 0 0 1-2.75 3.36 22.295 22.295 0 0 1-4.24 3.03c-1.61.89-3.32 1.61-5.091 2.13-1.4.41-2.82.73-4.26.97-1.25.21-2.519.31-3.799.32-1.24.01-2.49-.13-3.701-.4a12.187 12.187 0 0 1-3.089-1.18c-.95-.53-1.82-1.2-2.581-1.98-.83-.87-1.54-1.84-2.129-2.89-.5-1.05-.941-2.13-1.32-3.23-.331-.94-.591-1.9-.79-2.88-.18-.85-.301-1.72-.371-2.59-.049-.78-.059-1.57 0-2.35.051-.75.15-1.49.311-2.23.159-.72.36-1.44.619-2.14.271-.73.591-1.44.96-2.12.411-.75.871-1.48 1.381-2.17a22.443 22.443 0 0 1 3.1-3.45 38.836 38.836 0 0 1 4.9-3.78c1.699-1.1 3.46-2.11 5.269-3.01a88.205 88.205 0 0 1 7.25-3.19 61.63 61.63 0 0 1 6.381-1.91c2.34-.57 4.709-1.04 7.09-1.4 5.1-.75 10.259-1.13 15.41-1.12 2.229 0 4.459.07 6.69.21a42.23 42.23 0 0 1 15.2-15.19 37.449 37.449 0 0 1 8.239-3.58 28.203 28.203 0 0 1 7.8-1.19c1.261 0 2.521.12 3.75.35 1.131.22 2.22.56 3.261 1.03.73.32 1.409.74 2.03 1.24.47.38.879.84 1.22 1.35.599.93.909 2.01.9 3.11a8.28 8.28 0 0 1-.631 3.07 10.072 10.072 0 0 1-1.78 2.86 8.668 8.668 0 0 1-2.45 1.98c-.77.42-1.639.65-2.52.66h-.069c-.5 0-1-.09-1.461-.27-.31-.14-.589-.33-.819-.57a5.1 5.1 0 0 1-.741-1.01c-.259-.48-.509-.97-.729-1.47-.181-.4-.371-.8-.571-1.2-.229-.45-.5-.88-.81-1.29-.39-.51-.88-.95-1.44-1.27a4.278 4.278 0 0 0-2.19-.56c-.789.02-1.56.2-2.28.53-.72.32-1.42.72-2.069 1.18a46.788 46.788 0 0 0-5.25 3.49 37.174 37.174 0 0 0-7.39 7.64c4.69.57 9.33 1.57 13.839 2.99 2.821.87 5.551 1.98 8.181 3.32a10.34 10.34 0 0 1 2.76 1.91c.839.81 1.559 1.73 2.14 2.74 1.24 2.16 1.89 4.6 1.88 7.08 0 3.24-1.13 6.38-3.201 8.87a16.376 16.376 0 0 1-4.399 3.68 24.41 24.41 0 0 1-6.801 2.65 2.513 2.513 0 0 0-1.929 2.19c-.11 1.07.48 2.09 1.459 2.53 1.991.9 3.851 2.06 5.53 3.46 1.38 1.16 2.58 2.52 3.541 4.05.89 1.42 1.55 2.96 1.97 4.57.42 1.65.629 3.35.619 5.06a27.861 27.861 0 0 1-.55 5.33c-.378 1.86-.9 3.69-1.56 5.47a51.06 51.06 0 0 1-5.319 10.47 50.078 50.078 0 0 1-6.761 8.33 30.491 30.491 0 0 1-3.289 2.83c-.86.65-1.791 1.2-2.771 1.63-1.83.81-3.74 1.45-5.69 1.91-1.92.46-3.89.69-5.869.71-1.67.01-3.33-.22-4.941-.68a11.64 11.64 0 0 1-4.02-2.1 11.535 11.535 0 0 1-3-3.82c-.44-.9-.789-1.84-1.049-2.8a21.571 21.571 0 0 1-.651-3.49c-.099-.93-.149-1.87-.16-2.8 0-2.54.39-5.06 1.17-7.47.66-2.04 1.61-3.98 2.83-5.74.511-.74 1.08-1.44 1.701-2.09a12.23 12.23 0 0 1 1.67-1.47c.44-.33.92-.6 1.429-.81.241-.11.491-.17.75-.18zm5.821-50.78c1.899.06 3.769.41 5.569 1.03 1.151.4 2.23.99 3.19 1.76a8 8 0 0 1 2.26 2.96c.5 1.21.75 2.5.731 3.81-.011.82-.08 1.64-.231 2.44-.159.9-.379 1.79-.659 2.66-.291.93-.66 1.83-1.11 2.7-.401.79-.89 1.54-1.44 2.24-.521.66-1.11 1.27-1.75 1.81-.651.55-1.351 1.04-2.09 1.45-.711.4-1.461.74-2.231 1.01-.849.29-1.709.52-2.59.68-.949.17-1.91.28-2.88.32-2.209.09-4.429-.07-6.61-.48 1.64-4.67 3.36-9.31 5.171-13.91 1.39-3.56 2.95-7.06 4.67-10.48zm-2.89 19.84c.929-2.52 1.89-5.04 2.87-7.54.91-2.31 1.88-4.6 2.929-6.85.35.09.681.19 1.02.3.61.21 1.181.52 1.681.92.349.29.629.65.81 1.07.229.55.339 1.15.33 1.75 0 .55-.05 1.09-.151 1.62-.129.69-.3 1.37-.509 2.04-.211.66-.47 1.31-.791 1.93-.25.5-.56.97-.909 1.41-.321.41-.681.78-1.071 1.12-.399.34-.83.63-1.289.89-.461.26-.94.47-1.431.64-.61.21-1.229.38-1.849.49-.55.1-1.091.17-1.64.21z"/>
 <path fill="#ffffff" fill-rule="evenodd" d="M154.301 81.179c-12.545-.588-25.337.906-35.08 4.461Q85.32 98.726 96.562 122.263c4.303 7.729 12.208 9.398 22.483 6.412 10.276-2.986 19.057-12.494 12.472-18.883-3.679-2.993-3.122-5.743 2.635-9.397q6.281-3.295 11.849-4.728c-12.035 23.811-18.097 48.089-29.942 52.769-9.661 3.6-16.248-2.372-10.275-11.681 5.972-9.31-15.24-9.994-29.773-2.986-15.053 7.258-25.294 23.8-18.093 41.629 10.1 19.673 33.111 22.132 45.319 16.951 34.209-15.443 39.079-40.831 46.114-64.593 11.689-.633 16.668 1.995 15.979 9.613-1.343 10.155-6.851 12.56-8.431 5.358-1.581-7.202-16.296 3.72-14.404 21.078 1.892 17.358 17.741 17.126 28.719 12.296 12.208-5.182 37.063-42.596 8.607-55.77 21.342-5.094 19.234-26.348 8.168-31.617-5.14-2.647-11.49-4.617-18.411-5.883 2.56-2.762 5.562-5.081 9.277-7.203 7.29-5.094 3.689 6.235 11.769 6.323 8.08.088 15.369-14.052 4.303-19.058-10.991-4.973-30.249 1.893-40.626 18.286zm-.557 33.337q12.002.902 14.923-8.413c2.319-7.394-.719-10.393-6.985-11.277-2.572 5.194-5.008 11.615-7.938 19.69z"/>
 <path fill="#fc5c74" opacity=".78" d="M65.5 185.5l39.885-54.368c1.428.962 2.021 2.993.709 5.181-1.891 2.64-5.365 9.877 1.406 12.625 4.406 1.593 10.5-.157 14.781-5.219 1.349-1.522 3.083-4.078 5.25-7.75 1-1.75 1.859-3.407 2.75-5.281 1.856-3.905 3.759-8.472 6.563-14.969 2.515-5.469 5.312-12.875 9.094-19.969-2.242.684-5.152 1.368-8.876 3.25-1.675.781-2.968 1.281-4.656 2.594-1.005.803-2.277 1.875-3.062 3.531-.469 1.563.184 2.675 1.297 3.844.953.89 2.156 1.969 2.765 3.594.32.824.547 1.796.328 3.015-.5 5.766-8.603 11.118-12.171 12.235-4.438 1.875-9.625 2.687-15.188 2 4.461-6.658 19.812-27.55 35.309-48.519 3.691-.2 7.91-.388 12.629-.169 8.093-12.687 21.843-20.219 33.188-19.758l-11.748 16.198c-2.088 1.474-4.142 3.275-6.19 5.248l2.116.369-8.616 11.881-1.375-.219-2.714 5.887-68.13 93.98c-9.447.087-17.885-2.973-25.344-9.211zm76.891-23.05l14.52-19.282c2.089 5.957 5.589 4.832 7.964-3.48.461-1.883.688-4.563-.016-7.075l28.949-38.444c5.942 10.456.942 22.456-13.87 26.206 7.713 3.696 11.96 9.129 12.711 16.268l-30.83 42.095c-12.033 1.112-18.499-4.307-19.428-16.288z"/>
 <g opacity=".4">
  <linearGradient id="b" x1=".517" x2=".517" y2="1" gradientTransform="matrix(244.65 0 0 228.34 5.68 11.95)" gradientUnits="userSpaceOnUse">
   <stop offset="0%" stop-color="#ffffff"/>
   <stop offset="12.5%" stop-color="#ffffff" stop-opacity=".098"/>
   <stop offset="92.5%" stop-opacity=".098"/>
   <stop offset="100%" stop-opacity=".498"/>
  </linearGradient>
  <path fill="url(#b)" fill-rule="evenodd" d="M165.068 11.951c4.328-.01 8.656.04 12.984.138 3.875.078 7.75.226 11.626.452 3.453.196 6.905.481 10.348.854 3.06.335 6.118.786 9.148 1.346a80.47 80.47 0 0 1 8.046 1.916 53.64 53.64 0 0 1 7.023 2.584 40.413 40.413 0 0 1 6.06 3.35 35.176 35.176 0 0 1 5.134 4.215 35.072 35.072 0 0 1 4.22 5.119 41.692 41.692 0 0 1 3.363 6.042 55.982 55.982 0 0 1 2.597 7.005 80.224 80.224 0 0 1 1.918 8.037 124.43 124.43 0 0 1 1.348 9.127c.374 3.439.659 6.878.856 10.326.226 3.861.373 7.732.462 11.593.088 4.323.138 8.646.128 12.96v58.21c.01 4.324-.04 8.637-.128 12.96a325.177 325.177 0 0 1-.462 11.593 200.984 200.984 0 0 1-.856 10.326 124.691 124.691 0 0 1-1.348 9.137 80.687 80.687 0 0 1-1.918 8.027 55.414 55.414 0 0 1-2.597 7.005 41.18 41.18 0 0 1-3.364 6.042 34.559 34.559 0 0 1-4.22 5.119 35.177 35.177 0 0 1-5.134 4.215 40.412 40.412 0 0 1-6.059 3.35 55.138 55.138 0 0 1-7.023 2.594 77.806 77.806 0 0 1-8.046 1.906 120 120 0 0 1-9.148 1.346c-3.443.373-6.895.658-10.348.854-3.875.226-7.75.374-11.626.462-4.328.088-8.656.138-12.984.128H90.942c-4.328.01-8.656-.04-12.984-.128a328.387 328.387 0 0 1-11.626-.462 203.003 203.003 0 0 1-10.348-.854 120 120 0 0 1-9.148-1.346 77.806 77.806 0 0 1-8.046-1.906 55.139 55.139 0 0 1-7.023-2.594 40.413 40.413 0 0 1-6.06-3.35 35.176 35.176 0 0 1-5.134-4.215 34.56 34.56 0 0 1-4.22-5.119 41.183 41.183 0 0 1-3.363-6.042 55.415 55.415 0 0 1-2.597-7.005 80.682 80.682 0 0 1-1.918-8.027 124.688 124.688 0 0 1-1.348-9.137 200.993 200.993 0 0 1-.856-10.326 325.212 325.212 0 0 1-.462-11.593 569.197 569.197 0 0 1-.128-12.96v-58.21c-.01-4.314.04-8.637.128-12.96.089-3.86.236-7.732.462-11.593.197-3.448.482-6.887.856-10.326.335-3.055.787-6.101 1.348-9.127a80.219 80.219 0 0 1 1.918-8.037 55.983 55.983 0 0 1 2.597-7.005 41.695 41.695 0 0 1 3.364-6.042 35.072 35.072 0 0 1 4.22-5.119 35.176 35.176 0 0 1 5.134-4.215 40.413 40.413 0 0 1 6.059-3.35 53.64 53.64 0 0 1 7.023-2.584 80.47 80.47 0 0 1 8.046-1.916 125.11 125.11 0 0 1 9.148-1.346c3.443-.373 6.895-.658 10.348-.854 3.875-.226 7.75-.374 11.626-.452 4.328-.098 8.656-.148 12.984-.138h74.126zm.01 4.009c4.298-.01 8.597.039 12.895.127 3.827.089 7.653.236 11.48.452 3.383.197 6.766.472 10.13.845 2.971.315 5.932.747 8.863 1.297a75.943 75.943 0 0 1 7.653 1.818 50.493 50.493 0 0 1 6.501 2.397 37.038 37.038 0 0 1 5.47 3.026 30.383 30.383 0 0 1 4.524 3.724 31.05 31.05 0 0 1 3.738 4.519 37.271 37.271 0 0 1 3.03 5.443 51.46 51.46 0 0 1 2.4 6.494 75.563 75.563 0 0 1 1.829 7.634c.54 2.928.974 5.875 1.298 8.842.374 3.36.65 6.73.846 10.11.217 3.822.374 7.634.453 11.456.088 4.293.137 8.577.137 12.87v58.212c0 4.293-.049 8.577-.137 12.87a317.503 317.503 0 0 1-.453 11.456c-.196 3.38-.472 6.75-.846 10.12a121.689 121.689 0 0 1-1.298 8.832 75.562 75.562 0 0 1-1.83 7.634 50.902 50.902 0 0 1-2.4 6.494 36.767 36.767 0 0 1-3.03 5.443 30.615 30.615 0 0 1-3.737 4.53 30.938 30.938 0 0 1-4.525 3.713 37.038 37.038 0 0 1-5.469 3.026 49.07 49.07 0 0 1-6.501 2.397 75.942 75.942 0 0 1-7.653 1.818c-2.931.55-5.892.982-8.863 1.306-3.364.364-6.747.649-10.13.836-3.827.216-7.653.373-11.48.452-4.298.098-8.597.137-12.895.137H90.932c-4.298 0-8.597-.04-12.895-.137a320.093 320.093 0 0 1-11.48-.452 193.696 193.696 0 0 1-10.13-.836 116.71 116.71 0 0 1-8.863-1.306 75.942 75.942 0 0 1-7.653-1.818 49.07 49.07 0 0 1-6.501-2.397 37.038 37.038 0 0 1-5.47-3.026 30.938 30.938 0 0 1-4.524-3.714 30.615 30.615 0 0 1-3.738-4.529 36.766 36.766 0 0 1-3.03-5.443 50.903 50.903 0 0 1-2.4-6.494 75.567 75.567 0 0 1-1.829-7.634 121.69 121.69 0 0 1-1.298-8.832c-.374-3.37-.65-6.74-.846-10.12a317.535 317.535 0 0 1-.453-11.456 623.851 623.851 0 0 1-.137-12.87V97.014c0-4.293.049-8.577.137-12.87.079-3.822.236-7.634.453-11.456.197-3.38.472-6.75.846-10.11.324-2.967.757-5.914 1.298-8.842a75.568 75.568 0 0 1 1.83-7.634 51.46 51.46 0 0 1 2.4-6.494 37.27 37.27 0 0 1 3.03-5.443 31.05 31.05 0 0 1 3.737-4.52 30.384 30.384 0 0 1 4.525-3.723 37.039 37.039 0 0 1 5.469-3.026 50.494 50.494 0 0 1 6.501-2.397 75.943 75.943 0 0 1 7.653-1.818c2.931-.55 5.892-.982 8.863-1.297 3.364-.373 6.747-.648 10.13-.845a344.71 344.71 0 0 1 11.48-.452c4.298-.088 8.597-.137 12.895-.127H165.078z"/>
 </g>
</svg>
