<svg xmlns="http://www.w3.org/2000/svg" style="isolation:isolate" width="256" height="256">
 <defs>
  <filter id="a" width="400%" height="400%" x="-200%" y="-200%" color-interpolation-filters="sRGB" filterUnits="objectBoundingBox">
   <feGaussianBlur xmlns="http://www.w3.org/2000/svg" in="SourceGraphic" stdDeviation="4.294"/>
   <feOffset xmlns="http://www.w3.org/2000/svg" dy="4" result="pf_100_offsetBlur"/>
   <feFlood xmlns="http://www.w3.org/2000/svg" flood-opacity=".4"/>
   <feComposite xmlns="http://www.w3.org/2000/svg" in2="pf_100_offsetBlur" operator="in" result="pf_100_dropShadow"/>
   <feBlend xmlns="http://www.w3.org/2000/svg" in="SourceGraphic" in2="pf_100_dropShadow"/>
  </filter>
 </defs>
 <path fill="#37a6e6" d="M165.685 11.947c74.055 0 84.639 10.557 84.639 84.544v59.251c0 73.986-10.584 84.543-84.639 84.543h-75.37c-74.055 0-84.639-10.557-84.639-84.543V96.491c0-73.987 10.584-84.544 84.639-84.544h75.37z" filter="url(#a)"/>
 <path fill="none" d="M89.64 12C15.584 12 5 22.557 5 96.544v59.252c0 73.986 10.584 84.544 84.64 84.544h75.37c74.056 0 84.64-10.558 84.64-84.544V96.544C249.65 22.557 239.066 12 165.01 12H89.64z"/>
 <g opacity=".2">
  <linearGradient id="b" x1="1.133" x2="-.133" y1=".7" y2=".7" gradientTransform="matrix(244.65 0 0 135.832 5 104.508)" gradientUnits="userSpaceOnUse">
   <stop offset="0%"/>
   <stop offset="50%"/>
   <stop offset="100%"/>
  </linearGradient>
  <path fill="url(#b)" fill-rule="evenodd" d="M5 104.508v51.287c0 9.249.166 17.506.6 24.875a198 198 0 0 0 .866 10.401c.364 3.254.808 6.3 1.346 9.149.537 2.848 1.167 5.5 1.903 7.97.736 2.469 1.578 4.755 2.538 6.87a39.468 39.468 0 0 0 3.254 5.848 33.258 33.258 0 0 0 4.041 4.906 33.336 33.336 0 0 0 4.912 4.035 39.492 39.492 0 0 0 5.856 3.249c2.118.96 4.406 1.8 6.878 2.535 2.472.735 5.127 1.365 7.978 1.901 2.852.537 5.899.981 9.157 1.344 3.257.364 6.724.648 10.412.864 7.377.434 15.642.598 24.899.598h75.37c9.257 0 17.523-.164 24.899-.598 3.689-.216 7.154-.5 10.411-.864 3.257-.363 6.305-.807 9.157-1.344 2.851-.536 5.508-1.166 7.979-1.901 2.472-.735 4.761-1.575 6.879-2.535 2.04-.915 4-2.002 5.856-3.249a33.258 33.258 0 0 0 4.909-4.035 33.276 33.276 0 0 0 4.044-4.906 39.458 39.458 0 0 0 3.251-5.848c.961-2.115 1.805-4.401 2.541-6.87.736-2.47 1.366-5.122 1.903-7.97.537-2.849.982-5.895 1.346-9.149.364-3.254.649-6.716.866-10.401.434-7.369.599-15.626.599-24.875v-51.287L127.325 158.79 5 104.508z"/>
 </g>
 <defs>
  <filter id="c" width="400%" height="400%" x="-200%" y="-200%" color-interpolation-filters="sRGB" filterUnits="objectBoundingBox">
   <feGaussianBlur xmlns="http://www.w3.org/2000/svg" stdDeviation="4.294"/>
  </filter>
 </defs>
 <path fill-rule="evenodd" opacity=".4" d="M179.048 132.444c0 8.722-8.721 47.968-8.721 47.968l-91.575 4.361v-47.968c0-43.607-4.361-56.689-43.607-65.411 39.246-17.442 66.14 5.552 73.534 31.692 4.959-36.052-1.932-56.936-43.009-57.856 47.968-17.443 74.132 4.361 82.54 48.507 4.674-31.064.313-48.507-21.49-65.95 52.328 4.361 52.264 48.174 52.328 104.657z" filter="url(#c)"/>
 <linearGradient id="d" x1=".485" x2=".639" y1=".222" y2=".951" gradientTransform="matrix(143.903 0 0 156.986 35.145 27.787)" gradientUnits="userSpaceOnUse">
  <stop offset="0%" stop-color="#009200"/>
  <stop offset="100%" stop-color="#006400"/>
 </linearGradient>
 <path fill="url(#d)" fill-rule="evenodd" d="M179.048 132.445c0 8.721-8.721 47.968-8.721 47.968l-91.575 4.36v-47.968c0-43.607-4.361-56.689-43.607-65.411 39.246-17.442 66.14 5.552 73.534 31.692 4.959-36.052-1.932-56.936-43.009-57.856 47.968-17.443 74.132 4.361 82.54 48.507 4.674-31.064.313-48.507-21.49-65.95 52.328 4.361 52.264 48.174 52.328 104.658z"/>
 <radialGradient id="e" cx=".623" cy=".335" r="5.854" fx="1.082" fy=".339" gradientTransform="matrix(47.60236 -23.8523 11.68217 64.88318 126.72 27.787)" gradientUnits="userSpaceOnUse">
  <stop offset="0%" stop-color="#292c2f" stop-opacity=".466"/>
  <stop offset="100%"/>
 </radialGradient>
 <path fill="url(#e)" fill-rule="evenodd" d="M148.208 93.735c12.497-3.451 22.188-5.007 29.571-5.639-3.022-33.764-13.577-57.185-51.059-60.309 21.803 17.443 26.162 34.883 21.488 65.948z"/>
 <path fill="#00a800" fill-rule="evenodd" d="M149.384 94.646c-20.187.013-44.068 6.678-58.146 20.833-7.752 7.793-11.107 21.746-12.486 22.902v.885c.655.55 2.376.852 2.376.852 2.664-16.392 16.839-31.401 33.276-36.998 22.022-7.499 39.705-8.442 64.338 1.32-.03-.967-.058-1.95-.094-2.904-6.539-4.533-17.235-6.899-29.265-6.89h.001z"/>
 <g opacity=".462">
  <radialGradient id="f" cx="-.175" cy=".685" r="8.426" fx="-.027" fy="1.016" gradientTransform="matrix(52.10529 30.59712 -77.04895 15.95071 35.145 65.308)" gradientUnits="userSpaceOnUse">
   <stop offset="0%" stop-color="#292c2f"/>
   <stop offset="100%"/>
  </radialGradient>
  <path fill="url(#f)" fill-rule="evenodd" d="M62.152 65.313c-8.156-.115-17.196 1.721-27.007 6.081 29.107 6.469 39.011 15.366 42.193 37.305a1022.18 1022.18 0 0 0 31.292-5.775c-5.591-19.54-22.078-37.278-46.478-37.611z"/>
 </g>
 <path fill="#006400" d="M148.523 93.198l-.255.01c-.028.184-.031.343-.06.527-.034-.179-.084-.341-.118-.519-14.029.066-27.706 3.024-39.247 8.508-.061.462-.097.897-.161 1.363-.104-.367-.255-.723-.366-1.089-18.524 8.98-29.548 23.587-29.563 39.17.013.843.059 1.687.137 2.529 1.43-25.738 28.151-48.49 68.136-48.181 10.454.032 22.263 3.724 31.666 6.865-.054-1.526-.156-2.986-.23-4.48-9.347-3.076-19.574-4.682-29.937-4.701l-.002-.002zm27.979 20.552c-13.18-.172-27.328 3.096-40.465 9.343-28.509 13.601-47.175 38.671-45.506 61.118l1.848-.083c.668-21.507 18.901-44.372 45.532-57.098 13.347-6.323 27.72-9.567 41.052-9.266-.011-1.274-.009-2.619-.026-3.876a59.053 59.053 0 0 0-2.436-.131l.001-.007z"/>
 <radialGradient id="g" cx=".618" cy=".343" r="9.464" fx=".984" fy=".173" gradientTransform="matrix(80.6077 -13.67384 28.97266 60.2062 65.67 39.216)" gradientUnits="userSpaceOnUse">
  <stop offset="0%" stop-color="#292c2f" stop-opacity=".572"/>
  <stop offset="100%"/>
 </radialGradient>
 <path fill="url(#g)" fill-rule="evenodd" d="M108.766 101.664l.34 1.15c12.905-2.606 26.828-5.69 39.102-9.079-8.408-44.146-34.57-65.947-82.538-48.504 40.477.906 47.636 21.346 43.096 56.433z"/>
 <linearGradient id="h" x1=".25" x2=".7" y1="-.021" y2=".65" gradientTransform="matrix(69.771 0 0 75.57612 109.277 112.211)" gradientUnits="userSpaceOnUse">
  <stop offset="0%" stop-color="#00c200"/>
  <stop offset="100%" stop-color="#007900"/>
 </linearGradient>
 <path fill="url(#h)" fill-rule="evenodd" d="M109.277 115.002s69.771-17.443 69.771 34.885c0 65.556-65.41 26.165-65.41 26.165s69.771-52.329-4.361-61.05z"/>
 <linearGradient id="i" x1=".571" x2=".429" y1=".664" y2=".443" gradientTransform="matrix(30.525 0 0 15.74507 35.145 65.308)" gradientUnits="userSpaceOnUse">
  <stop offset="0%" stop-color="#f4be00"/>
  <stop offset="100%" stop-color="#fff4ca"/>
 </linearGradient>
 <path fill="url(#i)" d="M62.152 65.313c-8.156-.115-17.196 1.721-27.007 6.081 11.677 2.595 20.208 5.602 26.513 9.659 2.619-3.607 4.001-7.686 4.012-11.839a18.946 18.946 0 0 0-.384-3.671c-1.044-.082-2.059-.216-3.134-.231v.001z"/>
 <linearGradient id="j" x1=".75" x2=".375" y1="1.142" y2=".957" gradientTransform="matrix(34.885 0 0 12.90416 65.67 39.216)" gradientUnits="userSpaceOnUse">
  <stop offset="0%" stop-color="#f4be00"/>
  <stop offset="100%" stop-color="#fff4ca"/>
 </linearGradient>
 <path fill="url(#j)" d="M97.617 39.243c-9.33-.282-19.955 1.626-31.947 5.987 13.149.295 22.763 2.662 29.639 6.89 3.206-3.737 5.057-8.262 5.246-12.767-.966-.082-1.942-.082-2.938-.115v.005z"/>
 <linearGradient id="k" x1=".436" x2=".242" y1=".838" y2=".434" gradientTransform="matrix(29.971 0 0 20.816 126.72 27.787)" gradientUnits="userSpaceOnUse">
  <stop offset="0%" stop-color="#f4be00"/>
  <stop offset="100%" stop-color="#fff4ca"/>
 </linearGradient>
 <path fill="url(#k)" d="M126.72 27.787c8.351 6.681 14.12 13.369 17.826 20.816 6.093-1.795 10.644-5.826 12.145-10.757-7.324-5.49-17.043-8.981-29.971-10.059z"/>
 <linearGradient id="l" x1=".919" x2=".208" y1="1.058" y2=".938" gradientTransform="matrix(30.525 0 0 10.87201 109.277 112.221)" gradientUnits="userSpaceOnUse">
  <stop offset="0%" stop-color="#f4be00"/>
  <stop offset="100%" stop-color="#fff4ca"/>
 </linearGradient>
 <path fill="url(#l)" d="M131.353 112.242c-12.265.307-22.076 2.76-22.076 2.76 12.97 1.526 21.456 4.409 26.76 8.091 2.431-2.304 3.757-5.154 3.765-8.091a9.957 9.957 0 0 0-.358-2.564c-2.757-.173-5.485-.26-8.091-.196z"/>
 <path fill="#006400" fill-rule="evenodd" d="M64.469 65.484c.218 7.003-1.499 11.02-5.392 14.019a41.115 41.115 0 0 1 3.876 2.384c5.902-3.333 7.42-9.475 2.206-16.352l-.69-.05v-.001zm92.077-27.74c-3.289 5.852-6.563 8.494-12.545 9.803.325.614.623 1.241.92 1.865 8.91.809 15.202-3.255 13.286-10.348a39.246 39.246 0 0 0-1.661-1.32zm-55.991 1.61c-1.309 6.113-3.489 9.74-6.83 11.881 1.646.893 3.181 1.862 4.548 2.947 4.087-2.72 5.436-8.02 2.282-14.828zM170.327 67.4c-9.204 3.086-13.957 2.932-20.628 1.04.014.198.013.407.026.605 5.572 2.505 10.473 4.319 20.603-1.643l-.001-.002zm-43.607 4.361c-7.545 2.085-12.561 2.689-17.52 2.299.081.467.119.971.188 1.449 4.472.621 9.646-.016 17.332-3.748zM96.195 88.837c-9.042 5.789-14.364 7.561-21.693 8.253.094.256.19.506.281.767 6.4.22 12.358-.559 21.412-9.02zm42.738 23.558c-.115 4.53-.95 7.716-2.896 10.698a21.74 21.74 0 0 1 2.198 1.729c3.961-3.42 5.531-8.111 3.347-12.214-.885-.082-1.77-.165-2.649-.212v-.001z"/>
 <linearGradient id="m" x1="1.094" x2=".828" y1=".254" y2=".214" gradientTransform="matrix(97.5231 0 0 44.246 61.488 38.348)" gradientUnits="userSpaceOnUse">
  <stop offset="0%" stop-color="#2e9000"/>
  <stop offset="100%" stop-color="#00ba00"/>
 </linearGradient>
 <path fill="url(#m)" fill-rule="evenodd" d="M157.338 38.348c-.293 4.833-5.067 12.238-13.346 9.173.371.701.706 1.416 1.039 2.129 6.861 2.732 16.7-.099 13.278-10.493-.324-.27-.636-.547-.97-.809h-.001zm-56.783 1.006c1.754 3.598.61 10.347-4.471 13.303.747.491 1.501.978 2.18 1.517 5.539-2.537 7.369-8.943 2.99-14.718-.342-.032-.353-.082-.699-.099v-.003zm-35.78 26.155c3.674 4.549 3.861 10.514-3.287 15.442.81.517 1.6 1.065 2.367 1.643 5.456-3.566 9.042-11.501 3.05-16.932-.699-.082-1.417-.099-2.13-.148v-.005z"/>
 <path fill="#40d800" fill-rule="evenodd" d="M140.509 112.523c.6 2.244.859 6.412-2.564 12.026.314.272.619.547.903.826 6.636-5.977 5.045-10.366 3.1-12.733a43.786 43.786 0 0 0-1.439-.116v-.003z"/>
 <path fill="#00ab00" fill-rule="evenodd" d="M96.195 88.837c-8.079 7.523-12.567 8.722-21.412 9.02.094.255.19.506.281.766 6.255 1.281 14.293 2.625 21.131-9.786z"/>
 <path fill="#00b700" fill-rule="evenodd" d="M126.665 71.807c-11.236 4.679-11.656 3.948-17.277 3.701.118.458.161 1.043.2 1.564 3.622 1.657 8.865 3.044 17.077-5.265zm43.662-4.407c-8.98 4.792-13.538 5.303-20.603 1.643 3.16 3.035 7.521 10.245 20.603-1.643z"/>
 <path fill="#6dc7f1" fill-rule="evenodd" d="M5 101.45v54.345c0 9.249.166 17.506.6 24.875a198 198 0 0 0 .866 10.401c.364 3.254.808 6.3 1.346 9.149.537 2.848 1.167 5.5 1.903 7.97.736 2.469 1.578 4.755 2.538 6.87a39.468 39.468 0 0 0 3.254 5.848 33.258 33.258 0 0 0 4.041 4.906 33.336 33.336 0 0 0 4.912 4.035 39.492 39.492 0 0 0 5.856 3.249c2.118.96 4.406 1.8 6.878 2.535 2.472.735 5.127 1.365 7.978 1.901 2.852.537 5.899.981 9.157 1.344 3.257.364 6.724.648 10.412.864 7.377.434 15.642.598 24.899.598h75.37c9.257 0 17.523-.164 24.899-.598 3.689-.216 7.154-.5 10.411-.864 3.257-.363 6.305-.807 9.157-1.344 2.851-.536 5.508-1.166 7.979-1.901 2.472-.735 4.761-1.575 6.879-2.535 2.04-.915 4-2.002 5.856-3.249a33.258 33.258 0 0 0 4.909-4.035 33.276 33.276 0 0 0 4.044-4.906 39.458 39.458 0 0 0 3.251-5.848c.961-2.115 1.805-4.401 2.541-6.87.736-2.47 1.366-5.122 1.903-7.97.537-2.849.982-5.895 1.346-9.149.364-3.254.649-6.716.866-10.401.434-7.369.599-15.626.599-24.875V101.45l-122.325 57.34L5 101.45z"/>
 <path fill="#ffffff" fill-rule="evenodd" opacity=".2" d="M11.483 212.976c.27.673.479 1.442.77 2.084a39.468 39.468 0 0 0 3.254 5.848 33.258 33.258 0 0 0 4.041 4.906 33.336 33.336 0 0 0 4.912 4.035 39.492 39.492 0 0 0 5.856 3.249c2.118.96 4.406 1.8 6.878 2.535 2.472.735 5.127 1.365 7.978 1.901 2.852.537 5.899.981 9.157 1.344 3.257.364 6.724.648 10.412.864 7.377.434 15.642.598 24.899.598h75.37c9.257 0 17.523-.164 24.899-.598 3.689-.216 7.154-.5 10.411-.864 3.257-.363 6.305-.807 9.157-1.344 2.851-.536 5.508-1.166 7.979-1.901 2.472-.735 4.761-1.575 6.879-2.535 2.04-.915 4-2.002 5.856-3.249a33.258 33.258 0 0 0 4.909-4.035 33.276 33.276 0 0 0 4.044-4.906 39.458 39.458 0 0 0 3.251-5.848c.961-2.115 1.805-4.401 2.541-6.87.736-2.47 1.366-5.122 1.903-7.97.537-2.849.982-5.895 1.346-9.149.364-3.254.649-6.716.866-10.401.434-7.369.599-15.626.599-24.875V101.8L11.483 212.976z"/>
 <path fill="#37a6e6" d="M5.383 171.701c.091 2.893.06 6.312.217 8.969a198 198 0 0 0 .866 10.401c.364 3.254.808 6.3 1.346 9.149.379 2.012.867 3.809 1.344 5.63l3.999 1.758v-32.492l-7.772-3.415z"/>
 <path fill="#ed3146" d="M5 122.73l8.155 3.583v32.493L5 155.222V122.73z"/>
 <path fill="#37a6e6" d="M245.495 205.85c.477-1.821.965-3.618 1.344-5.63.537-2.849.982-5.895 1.346-9.149.364-3.254.649-6.716.866-10.401.157-2.657.126-6.076.217-8.969l-7.773 3.415v32.492l4-1.758z"/>
 <path fill="#ed3146" d="M249.65 122.73v32.492l-8.155 3.584v-32.493l8.155-3.583z"/>
 <g opacity=".4">
  <linearGradient id="n" x1=".517" x2=".517" y2="1" gradientTransform="matrix(244.65 0 0 228.34 5.68 11.95)" gradientUnits="userSpaceOnUse">
   <stop offset="0%" stop-color="#ffffff"/>
   <stop offset="12.5%" stop-color="#ffffff" stop-opacity=".098"/>
   <stop offset="92.5%" stop-opacity=".098"/>
   <stop offset="100%" stop-opacity=".498"/>
  </linearGradient>
  <path fill="url(#n)" fill-rule="evenodd" d="M165.068 11.951c4.328-.01 8.656.04 12.984.138 3.875.078 7.75.226 11.626.452 3.453.196 6.905.481 10.348.854 3.06.335 6.118.786 9.148 1.346a80.47 80.47 0 0 1 8.046 1.916 53.64 53.64 0 0 1 7.023 2.584 40.413 40.413 0 0 1 6.06 3.35 35.176 35.176 0 0 1 5.134 4.215 35.072 35.072 0 0 1 4.22 5.119 41.692 41.692 0 0 1 3.363 6.042 55.982 55.982 0 0 1 2.597 7.005 80.224 80.224 0 0 1 1.918 8.037 124.43 124.43 0 0 1 1.348 9.127c.374 3.439.659 6.878.856 10.326.226 3.861.373 7.732.462 11.593.088 4.323.138 8.646.128 12.96v58.21c.01 4.324-.04 8.637-.128 12.96a325.177 325.177 0 0 1-.462 11.593 200.984 200.984 0 0 1-.856 10.326 124.691 124.691 0 0 1-1.348 9.137 80.687 80.687 0 0 1-1.918 8.027 55.414 55.414 0 0 1-2.597 7.005 41.18 41.18 0 0 1-3.364 6.042 34.559 34.559 0 0 1-4.22 5.119 35.177 35.177 0 0 1-5.134 4.215 40.412 40.412 0 0 1-6.059 3.35 55.138 55.138 0 0 1-7.023 2.594 77.806 77.806 0 0 1-8.046 1.906 120 120 0 0 1-9.148 1.346c-3.443.373-6.895.658-10.348.854-3.875.226-7.75.374-11.626.462-4.328.088-8.656.138-12.984.128H90.942c-4.328.01-8.656-.04-12.984-.128a328.387 328.387 0 0 1-11.626-.462 203.003 203.003 0 0 1-10.348-.854 120 120 0 0 1-9.148-1.346 77.806 77.806 0 0 1-8.046-1.906 55.139 55.139 0 0 1-7.023-2.594 40.413 40.413 0 0 1-6.06-3.35 35.176 35.176 0 0 1-5.134-4.215 34.56 34.56 0 0 1-4.22-5.119 41.183 41.183 0 0 1-3.363-6.042 55.415 55.415 0 0 1-2.597-7.005 80.682 80.682 0 0 1-1.918-8.027 124.688 124.688 0 0 1-1.348-9.137 200.993 200.993 0 0 1-.856-10.326 325.212 325.212 0 0 1-.462-11.593 569.197 569.197 0 0 1-.128-12.96v-58.21c-.01-4.314.04-8.637.128-12.96.089-3.86.236-7.732.462-11.593.197-3.448.482-6.887.856-10.326.335-3.055.787-6.101 1.348-9.127a80.219 80.219 0 0 1 1.918-8.037 55.983 55.983 0 0 1 2.597-7.005 41.695 41.695 0 0 1 3.364-6.042 35.072 35.072 0 0 1 4.22-5.119 35.176 35.176 0 0 1 5.134-4.215 40.413 40.413 0 0 1 6.059-3.35 53.64 53.64 0 0 1 7.023-2.584 80.47 80.47 0 0 1 8.046-1.916 125.11 125.11 0 0 1 9.148-1.346c3.443-.373 6.895-.658 10.348-.854 3.875-.226 7.75-.374 11.626-.452 4.328-.098 8.656-.148 12.984-.138h74.126zm.01 4.009c4.298-.01 8.597.039 12.895.127 3.827.089 7.653.236 11.48.452 3.383.197 6.766.472 10.13.845 2.971.315 5.932.747 8.863 1.297a75.943 75.943 0 0 1 7.653 1.818 50.493 50.493 0 0 1 6.501 2.397 37.038 37.038 0 0 1 5.47 3.026 30.383 30.383 0 0 1 4.524 3.724 31.05 31.05 0 0 1 3.738 4.519 37.271 37.271 0 0 1 3.03 5.443 51.46 51.46 0 0 1 2.4 6.494 75.563 75.563 0 0 1 1.829 7.634c.54 2.928.974 5.875 1.298 8.842.374 3.36.65 6.73.846 10.11.217 3.822.374 7.634.453 11.456.088 4.293.137 8.577.137 12.87v58.212c0 4.293-.049 8.577-.137 12.87a317.503 317.503 0 0 1-.453 11.456c-.196 3.38-.472 6.75-.846 10.12a121.689 121.689 0 0 1-1.298 8.832 75.562 75.562 0 0 1-1.83 7.634 50.902 50.902 0 0 1-2.4 6.494 36.767 36.767 0 0 1-3.03 5.443 30.615 30.615 0 0 1-3.737 4.53 30.938 30.938 0 0 1-4.525 3.713 37.038 37.038 0 0 1-5.469 3.026 49.07 49.07 0 0 1-6.501 2.397 75.942 75.942 0 0 1-7.653 1.818c-2.931.55-5.892.982-8.863 1.306-3.364.364-6.747.649-10.13.836-3.827.216-7.653.373-11.48.452-4.298.098-8.597.137-12.895.137H90.932c-4.298 0-8.597-.04-12.895-.137a320.093 320.093 0 0 1-11.48-.452 193.696 193.696 0 0 1-10.13-.836 116.71 116.71 0 0 1-8.863-1.306 75.942 75.942 0 0 1-7.653-1.818 49.07 49.07 0 0 1-6.501-2.397 37.038 37.038 0 0 1-5.47-3.026 30.938 30.938 0 0 1-4.524-3.714 30.615 30.615 0 0 1-3.738-4.529 36.766 36.766 0 0 1-3.03-5.443 50.903 50.903 0 0 1-2.4-6.494 75.567 75.567 0 0 1-1.829-7.634 121.69 121.69 0 0 1-1.298-8.832c-.374-3.37-.65-6.74-.846-10.12a317.535 317.535 0 0 1-.453-11.456 623.851 623.851 0 0 1-.137-12.87V97.014c0-4.293.049-8.577.137-12.87.079-3.822.236-7.634.453-11.456.197-3.38.472-6.75.846-10.11.324-2.967.757-5.914 1.298-8.842a75.568 75.568 0 0 1 1.83-7.634 51.46 51.46 0 0 1 2.4-6.494 37.27 37.27 0 0 1 3.03-5.443 31.05 31.05 0 0 1 3.737-4.52 30.384 30.384 0 0 1 4.525-3.723 37.039 37.039 0 0 1 5.469-3.026 50.494 50.494 0 0 1 6.501-2.397 75.943 75.943 0 0 1 7.653-1.818c2.931-.55 5.892-.982 8.863-1.297 3.364-.373 6.747-.648 10.13-.845a344.71 344.71 0 0 1 11.48-.452c4.298-.088 8.597-.137 12.895-.127H165.078z"/>
 </g>
</svg>
