<svg xmlns="http://www.w3.org/2000/svg" style="isolation:isolate" width="256" height="256" viewBox="0 0 256 256">
 <defs>
  <filter id="6tbyVMdn3U2DhMVcVy2Tgid5Ykm1zdPc" width="400%" height="400%" x="-200%" y="-200%" color-interpolation-filters="sRGB" filterUnits="objectBoundingBox">
   <feGaussianBlur xmlns="http://www.w3.org/2000/svg" in="SourceGraphic" stdDeviation="4.294"/>
   <feOffset xmlns="http://www.w3.org/2000/svg" dx="0" dy="4" result="pf_100_offsetBlur"/>
   <feFlood xmlns="http://www.w3.org/2000/svg" flood-opacity=".4"/>
   <feComposite xmlns="http://www.w3.org/2000/svg" in2="pf_100_offsetBlur" operator="in" result="pf_100_dropShadow"/>
   <feBlend xmlns="http://www.w3.org/2000/svg" in="SourceGraphic" in2="pf_100_dropShadow" mode="normal"/>
  </filter>
 </defs>
 <g filter="url(#6tbyVMdn3U2DhMVcVy2Tgid5Ykm1zdPc)">
  <linearGradient id="_lgradient_0" x1="0" x2="1" y1=".5" y2=".5" gradientTransform="matrix(244.648,0,0,228.338,6.254,11.831)" gradientUnits="userSpaceOnUse">
   <stop offset="0%" style="stop-color:#e6e6e6"/>
   <stop offset="100%" stop-opacity=".746" style="stop-color:#cccccc"/>
  </linearGradient>
  <path fill="url(#_lgradient_0)" d="M 166.263 11.831 C 240.318 11.831 250.902 22.388 250.902 96.375 L 250.902 155.625 C 250.902 229.612 240.318 240.169 166.263 240.169 L 90.893 240.169 C 16.837 240.169 6.254 229.612 6.254 155.625 L 6.254 96.375 C 6.254 22.388 16.837 11.831 90.893 11.831 L 166.263 11.831 Z"/>
 </g>
 <path fill="#d0c27b" fill-rule="evenodd" d="M 166.263 11.831 C 240.318 11.831 250.902 22.388 250.902 96.375 L 250.902 155.625 C 250.902 229.612 240.318 240.169 166.263 240.169 L 90.893 240.169 C 16.837 240.169 6.254 229.612 6.254 155.625 L 6.254 96.375 C 6.254 22.388 16.837 11.831 90.893 11.831 L 166.263 11.831 Z M 47.09 199.33 C 46.85 198.76 46.64 198.18 46.47 197.58 C 46.05 196.18 45.71 194.75 45.45 193.31 C 45.05 191.18 44.73 189.03 44.5 186.88 C 44.19 184.06 43.95 181.23 43.79 178.39 C 43.59 174.92 43.46 171.44 43.38 167.96 C 43.29 163.87 43.25 159.77 43.25 155.67 C 43.25 155.65 43.25 155.64 43.25 155.63 L 43.25 96.37 C 43.25 96.36 43.25 96.35 43.25 96.33 C 43.25 92.23 43.29 88.13 43.38 84.04 C 43.46 80.56 43.59 77.08 43.79 73.61 C 43.95 70.77 44.19 67.94 44.5 65.12 C 44.73 62.97 45.05 60.82 45.45 58.69 C 45.71 57.25 46.05 55.82 46.47 54.42 C 46.64 53.82 46.85 53.24 47.09 52.67 C 47.66 52.43 48.26 52.22 48.86 52.04 C 50.27 51.63 51.7 51.29 53.15 51.02 C 55.28 50.62 57.43 50.31 59.6 50.07 C 62.42 49.76 65.26 49.53 68.09 49.37 C 71.57 49.17 75.06 49.03 78.54 48.96 C 82.64 48.87 86.75 48.83 90.85 48.83 C 90.87 48.83 90.88 48.83 90.89 48.83 L 166.26 48.83 C 166.28 48.83 166.29 48.83 166.3 48.83 C 170.41 48.83 174.51 48.87 178.62 48.96 C 182.1 49.03 185.58 49.17 189.06 49.37 C 191.9 49.53 194.73 49.76 197.56 50.07 C 199.72 50.31 201.87 50.62 204.01 51.02 C 205.46 51.29 206.89 51.63 208.3 52.04 C 208.9 52.22 209.49 52.43 210.07 52.67 C 210.31 53.24 210.52 53.82 210.69 54.42 C 211.1 55.82 211.44 57.25 211.71 58.69 C 212.11 60.82 212.42 62.97 212.66 65.12 C 212.97 67.94 213.2 70.77 213.36 73.61 C 213.56 77.08 213.7 80.56 213.77 84.04 C 213.86 88.13 213.91 92.23 213.9 96.33 C 213.9 96.35 213.9 96.36 213.9 96.37 L 213.9 155.63 C 213.9 155.64 213.9 155.65 213.9 155.67 C 213.91 159.77 213.86 163.87 213.77 167.96 C 213.7 171.44 213.56 174.92 213.36 178.39 C 213.2 181.23 212.97 184.06 212.66 186.88 C 212.42 189.03 212.11 191.18 211.71 193.31 C 211.44 194.75 211.1 196.18 210.69 197.58 C 210.52 198.18 210.31 198.76 210.07 199.33 C 209.49 199.57 208.9 199.78 208.3 199.96 C 206.89 200.37 205.46 200.71 204.01 200.98 C 201.87 201.38 199.72 201.69 197.56 201.93 C 194.73 202.24 191.9 202.47 189.06 202.63 C 185.58 202.83 182.1 202.97 178.62 203.04 C 174.51 203.13 170.41 203.17 166.3 203.17 C 166.29 203.17 166.28 203.17 166.26 203.17 L 90.89 203.17 C 90.88 203.17 90.87 203.17 90.85 203.17 C 86.75 203.17 82.64 203.13 78.54 203.04 C 75.06 202.97 71.57 202.83 68.09 202.63 C 65.26 202.47 62.42 202.24 59.6 201.93 C 57.43 201.69 55.28 201.38 53.15 200.98 C 51.7 200.71 50.27 200.37 48.86 199.96 C 48.26 199.78 47.66 199.57 47.09 199.33 Z"/>
 <g opacity=".4">
  <linearGradient id="_lgradient_1" x1=".517" x2=".517" y1="0" y2="1" gradientTransform="matrix(244.65,0,0,228.34,5.68,11.95)" gradientUnits="userSpaceOnUse">
   <stop offset="0%" style="stop-color:#ffffff"/>
   <stop offset="12.5%" stop-opacity=".098" style="stop-color:#ffffff"/>
   <stop offset="92.5%" stop-opacity=".098" style="stop-color:#000000"/>
   <stop offset="100%" stop-opacity=".498" style="stop-color:#000000"/>
  </linearGradient>
  <path fill="url(#_lgradient_1)" fill-rule="evenodd" d="M 165.068 11.951 C 169.396 11.941 173.724 11.991 178.052 12.089 C 181.927 12.167 185.803 12.315 189.678 12.541 C 193.131 12.737 196.583 13.022 200.026 13.395 C 203.085 13.73 206.144 14.181 209.174 14.741 C 211.889 15.243 214.574 15.881 217.22 16.657 C 219.62 17.355 221.971 18.219 224.243 19.241 C 226.358 20.184 228.384 21.304 230.302 22.591 C 232.142 23.829 233.863 25.244 235.437 26.806 C 237.001 28.378 238.417 30.088 239.656 31.925 C 240.945 33.841 242.066 35.865 243.02 37.967 C 244.043 40.247 244.909 42.585 245.617 44.972 C 246.394 47.615 247.034 50.297 247.535 53.009 C 248.096 56.035 248.548 59.081 248.883 62.136 C 249.257 65.575 249.542 69.014 249.739 72.462 C 249.965 76.323 250.112 80.194 250.201 84.055 C 250.289 88.378 250.339 92.701 250.329 97.014 L 250.329 155.226 C 250.339 159.549 250.289 163.862 250.201 168.185 C 250.112 172.056 249.965 175.917 249.739 179.778 C 249.542 183.226 249.257 186.675 248.883 190.104 C 248.548 193.159 248.096 196.215 247.535 199.241 C 247.034 201.943 246.394 204.625 245.617 207.268 C 244.909 209.655 244.043 212.003 243.02 214.273 C 242.066 216.385 240.945 218.399 239.656 220.315 C 238.417 222.152 237.001 223.872 235.437 225.434 C 233.863 226.996 232.142 228.411 230.302 229.649 C 228.384 230.936 226.358 232.056 224.243 232.999 C 221.971 234.021 219.62 234.885 217.22 235.593 C 214.574 236.369 211.889 237.007 209.174 237.499 C 206.144 238.068 203.085 238.51 200.026 238.845 C 196.583 239.218 193.131 239.503 189.678 239.699 C 185.803 239.925 181.927 240.073 178.052 240.161 C 173.724 240.249 169.396 240.299 165.068 240.289 L 90.942 240.289 C 86.614 240.299 82.286 240.249 77.958 240.161 C 74.083 240.073 70.207 239.925 66.332 239.699 C 62.879 239.503 59.427 239.218 55.984 238.845 C 52.925 238.51 49.866 238.068 46.836 237.499 C 44.121 237.007 41.436 236.369 38.79 235.593 C 36.39 234.885 34.039 234.021 31.767 232.999 C 29.652 232.056 27.626 230.936 25.708 229.649 C 23.868 228.411 22.147 226.996 20.573 225.434 C 19.009 223.872 17.593 222.152 16.354 220.315 C 15.065 218.399 13.944 216.385 12.99 214.273 C 11.967 212.003 11.101 209.655 10.393 207.268 C 9.616 204.625 8.976 201.943 8.475 199.241 C 7.914 196.215 7.462 193.159 7.127 190.104 C 6.753 186.675 6.468 183.226 6.271 179.778 C 6.045 175.917 5.898 172.056 5.809 168.185 C 5.721 163.862 5.671 159.549 5.681 155.226 L 5.681 97.014 C 5.671 92.701 5.721 88.378 5.809 84.055 C 5.898 80.194 6.045 76.323 6.271 72.462 C 6.468 69.014 6.753 65.575 7.127 62.136 C 7.462 59.081 7.914 56.035 8.475 53.009 C 8.976 50.297 9.616 47.615 10.393 44.972 C 11.101 42.585 11.967 40.247 12.99 37.967 C 13.944 35.865 15.065 33.841 16.354 31.925 C 17.593 30.088 19.009 28.378 20.573 26.806 C 22.147 25.244 23.868 23.829 25.708 22.591 C 27.626 21.304 29.652 20.184 31.767 19.241 C 34.039 18.219 36.39 17.355 38.79 16.657 C 41.436 15.881 44.121 15.243 46.836 14.741 C 49.866 14.181 52.925 13.73 55.984 13.395 C 59.427 13.022 62.879 12.737 66.332 12.541 C 70.207 12.315 74.083 12.167 77.958 12.089 C 82.286 11.991 86.614 11.941 90.942 11.951 L 165.068 11.951 Z M 165.078 15.96 C 169.376 15.95 173.675 15.999 177.973 16.087 C 181.8 16.176 185.626 16.323 189.452 16.539 C 192.836 16.736 196.219 17.011 199.583 17.384 C 202.554 17.699 205.515 18.131 208.446 18.681 C 211.023 19.153 213.58 19.762 216.099 20.499 C 218.322 21.147 220.495 21.953 222.6 22.896 C 224.509 23.751 226.338 24.763 228.069 25.922 C 229.692 27.013 231.207 28.26 232.594 29.646 C 233.981 31.031 235.23 32.544 236.332 34.165 C 237.492 35.894 238.506 37.712 239.361 39.608 C 240.306 41.72 241.112 43.892 241.761 46.102 C 242.509 48.617 243.109 51.162 243.591 53.736 C 244.132 56.664 244.565 59.611 244.889 62.578 C 245.263 65.938 245.539 69.308 245.735 72.688 C 245.952 76.51 246.109 80.322 246.188 84.144 C 246.276 88.437 246.325 92.721 246.325 97.014 C 246.325 97.014 246.325 97.014 246.325 97.014 L 246.325 155.226 C 246.325 155.226 246.325 155.226 246.325 155.226 C 246.325 159.519 246.276 163.803 246.188 168.096 C 246.109 171.918 245.952 175.74 245.735 179.552 C 245.539 182.932 245.263 186.302 244.889 189.672 C 244.565 192.629 244.132 195.576 243.591 198.504 C 243.109 201.078 242.509 203.623 241.761 206.138 C 241.112 208.358 240.306 210.52 239.361 212.632 C 238.506 214.528 237.492 216.356 236.332 218.075 C 235.23 219.706 233.981 221.219 232.594 222.604 C 231.207 223.98 229.692 225.227 228.069 226.318 C 226.338 227.477 224.509 228.489 222.6 229.344 C 220.495 230.297 218.322 231.093 216.099 231.741 C 213.58 232.478 211.023 233.087 208.446 233.559 C 205.515 234.109 202.554 234.541 199.583 234.865 C 196.219 235.229 192.836 235.514 189.452 235.701 C 185.626 235.917 181.8 236.074 177.973 236.153 C 173.675 236.251 169.376 236.29 165.078 236.29 C 165.078 236.29 165.078 236.29 165.068 236.29 L 90.942 236.29 C 90.932 236.29 90.932 236.29 90.932 236.29 C 86.634 236.29 82.335 236.251 78.037 236.153 C 74.21 236.074 70.384 235.917 66.558 235.701 C 63.174 235.514 59.791 235.229 56.427 234.865 C 53.456 234.541 50.495 234.109 47.564 233.559 C 44.987 233.087 42.43 232.478 39.911 231.741 C 37.688 231.093 35.515 230.297 33.41 229.344 C 31.501 228.489 29.672 227.477 27.941 226.318 C 26.318 225.227 24.803 223.98 23.416 222.604 C 22.029 221.219 20.78 219.706 19.678 218.075 C 18.518 216.356 17.504 214.528 16.649 212.632 C 15.704 210.52 14.898 208.358 14.249 206.138 C 13.501 203.623 12.901 201.078 12.419 198.504 C 11.878 195.576 11.445 192.629 11.121 189.672 C 10.747 186.302 10.472 182.932 10.275 179.552 C 10.058 175.74 9.901 171.918 9.822 168.096 C 9.734 163.803 9.685 159.519 9.685 155.226 C 9.685 155.226 9.685 155.226 9.685 155.226 L 9.685 97.014 C 9.685 97.014 9.685 97.014 9.685 97.014 C 9.685 92.721 9.734 88.437 9.822 84.144 C 9.901 80.322 10.058 76.51 10.275 72.688 C 10.472 69.308 10.747 65.938 11.121 62.578 C 11.445 59.611 11.878 56.664 12.419 53.736 C 12.901 51.162 13.501 48.617 14.249 46.102 C 14.898 43.892 15.704 41.72 16.649 39.608 C 17.504 37.712 18.518 35.894 19.678 34.165 C 20.78 32.544 22.029 31.031 23.416 29.646 C 24.803 28.26 26.318 27.013 27.941 25.922 C 29.672 24.763 31.501 23.751 33.41 22.896 C 35.515 21.953 37.688 21.147 39.911 20.499 C 42.43 19.762 44.987 19.153 47.564 18.681 C 50.495 18.131 53.456 17.699 56.427 17.384 C 59.791 17.011 63.174 16.736 66.558 16.539 C 70.384 16.323 74.21 16.176 78.037 16.087 C 82.335 15.999 86.634 15.95 90.932 15.96 C 90.932 15.96 90.932 15.96 90.942 15.96 L 165.068 15.96 C 165.078 15.96 165.078 15.96 165.078 15.96 Z"/>
 </g>
 <path fill-opacity=".15" fill-rule="evenodd" d="M 139.174 130.89 C 140.767 130.933 142.277 130.158 143.835 129.825 C 144.5 129.682 144.589 130.344 145.25 130.188 C 145.743 130.071 146.556 130.068 147.063 130.063 C 147.795 130.055 148.75 129.285 149.43 129.558 C 149.762 129.692 150.052 130.271 150.362 130.091 C 150.708 129.89 150.379 129.291 150.362 128.892 C 150.34 128.358 149.904 127.718 150.229 127.294 C 150.531 126.9 151.228 127.2 151.694 127.027 C 152.272 126.814 153.066 126.669 153.292 126.095 C 153.462 125.664 153.692 124.763 152.893 124.763 C 152.093 124.763 150.954 124.871 150.096 124.497 C 149.605 124.283 149.052 123.943 148.897 123.431 C 148.591 122.421 150.561 122.526 150.313 121.5 C 149.938 119.5 147.871 118.881 147.432 117.837 C 147.173 117.222 147.485 116.48 147.298 115.839 C 147.143 115.305 146.783 114.853 146.499 114.374 C 146.122 113.739 145.333 113.248 145.301 112.509 C 145.254 111.458 146.233 109.846 146.766 109.712 C 147.298 109.579 148.072 109.171 147.964 108.647 C 147.795 107.822 146.409 107.866 145.567 107.848 C 145.244 107.841 144.917 108.271 144.635 108.114 C 144.352 107.957 144.294 107.496 144.368 107.182 C 144.534 106.478 145.949 106.297 145.833 105.583 C 145.76 105.132 145.091 104.946 144.635 104.917 C 144.157 104.887 143.691 105.171 143.303 105.45 C 142.689 105.892 142.302 106.585 141.838 107.182 C 141.603 107.483 141.157 107.732 141.172 108.114 C 141.185 108.461 141.853 108.567 141.838 108.913 C 141.812 109.478 140.982 109.663 140.639 110.112 C 140.422 110.396 139.066 110.538 139.188 110.875 C 139.316 111.232 140.861 111.226 141.172 111.444 C 141.507 111.679 141.892 111.975 141.971 112.376 C 142.052 112.79 141.067 112.772 141 113.188 C 140.964 113.407 141.071 113.936 141.188 114.125 C 141.344 114.378 142.27 114.36 142.37 114.641 C 142.518 115.052 141.51 115.55 141.838 115.839 C 142.419 116.354 143.087 114.848 143.835 114.641 C 144.049 114.581 144.328 114.502 144.501 114.641 C 144.821 114.897 144.723 115.432 144.768 115.839 C 144.811 116.236 144.768 116.505 144.768 117.038 C 144.768 117.571 144.7 118.285 144.768 118.903 C 144.813 119.31 145.118 119.701 145.034 120.101 C 144.911 120.693 144.466 121.224 143.969 121.567 C 143.552 121.854 142.985 121.811 142.504 121.966 C 142.143 122.083 141.589 122.018 141.438 122.366 C 141.209 122.895 142.216 123.398 142.104 123.964 C 141.994 124.518 141.427 124.947 140.905 125.163 C 140.372 125.384 139.511 124.695 139.174 125.163 C 139.01 125.391 139.208 125.803 139.44 125.962 C 140.174 126.464 141.22 125.735 142.104 125.829 C 142.789 125.901 142.455 126.141 142.875 126.688 C 143.091 126.969 144.159 127.076 144.102 127.427 C 144.057 127.704 144.051 128.046 143.835 128.226 C 142.907 129.005 141.331 128.233 140.239 128.759 C 139.419 129.154 138.028 129.738 138.241 130.624 C 138.317 130.938 138.851 130.881 139.174 130.89 L 139.174 130.89 L 139.174 130.89 L 139.174 130.89 L 139.174 130.89 L 139.174 130.89 L 139.174 130.89 L 139.174 130.89 L 139.174 130.89 L 139.174 130.89 L 139.174 130.89 L 139.174 130.89 Z M 193.138 64.005 C 192.82 64.028 192.48 64.126 192.2 64.197 C 191.581 64.355 191.042 64.718 190.516 65.1 L 190.638 65.124 L 188.984 66.58 L 187.346 67.653 L 186.484 68.055 C 185.841 68.551 185.201 69.048 184.543 69.523 C 183.73 70.111 182.811 70.567 182.078 71.254 C 180.292 72.929 178.844 74.949 177.481 76.982 C 176.817 77.972 176.048 78.957 175.75 80.111 C 175.6 80.692 176.027 81.379 175.75 81.912 C 175.5 82.392 174.547 82.318 174.421 82.844 C 174.334 83.21 174.952 83.508 174.952 83.841 C 174.952 84.174 175.22 84.973 175.22 85.239 C 175.22 85.506 174.388 85.342 174.153 85.641 C 174.043 85.781 174.076 85.994 174.089 86.171 C 174.114 86.493 174.546 86.846 174.351 87.104 C 174.017 87.545 173.176 86.838 172.691 87.104 C 171.788 87.597 171.718 88.943 171.024 89.703 C 170.171 90.637 169.011 91.236 168.029 92.034 C 166.561 93.225 164.372 93.932 163.699 95.699 C 163.532 96.139 164.146 96.698 163.897 97.097 C 163.75 97.335 163.283 97.148 163.099 97.36 C 162.685 97.836 162.823 98.595 162.767 99.224 C 162.72 99.756 162.389 100.449 162.767 100.827 C 163.158 101.218 164.08 100.396 164.428 100.827 C 164.556 100.986 164.354 101.23 164.3 101.427 C 164.206 101.765 164.147 102.126 163.962 102.423 C 163.879 102.556 163.747 102.653 163.629 102.756 C 163.462 102.901 163.142 102.94 163.099 103.158 C 163.05 103.411 163.288 103.669 163.495 103.822 C 163.717 103.986 164.149 103.789 164.3 104.02 C 164.583 104.454 164.011 105.034 164.032 105.553 C 164.053 106.08 163.969 106.824 164.428 107.085 C 165.052 107.441 165.897 106.881 166.496 106.485 C 166.76 106.311 166.895 105.995 167.097 105.751 C 167.317 105.484 167.512 105.193 167.761 104.952 C 168.306 104.425 169.066 104.133 169.556 103.554 C 169.979 103.053 169.833 101.793 170.488 101.823 C 170.945 101.845 170.867 102.658 171.024 103.088 C 171.152 103.437 171.158 103.839 171.356 104.154 C 171.598 104.539 172.098 104.709 172.353 105.087 C 173.044 106.112 173.251 107.391 173.687 108.548 C 173.913 109.146 174.114 109.754 174.351 110.348 C 174.665 111.134 175.221 112.213 175.354 112.679 C 175.487 113.146 176.057 113.459 176.216 113.944 C 176.418 114.557 176.286 115.612 176.286 115.878 C 176.286 116.145 176.36 116.352 176.548 116.409 C 176.845 116.498 177.163 116.188 177.352 115.943 C 177.76 115.415 177.577 114.606 177.883 114.014 C 178.028 113.733 178.257 113.5 178.483 113.28 C 178.846 112.926 179.394 112.763 179.683 112.347 C 179.935 111.984 180.013 111.519 180.08 111.083 C 180.237 110.052 180.118 108.996 180.08 107.953 C 180.057 107.352 179.703 106.704 179.946 106.153 C 180.105 105.791 180.577 105.676 180.878 105.419 C 181.2 105.144 181.491 104.834 181.81 104.556 C 182.049 104.349 182.328 104.186 182.544 103.956 C 182.883 103.597 183.261 103.225 183.413 102.756 C 183.515 102.44 183.629 102.011 183.413 101.759 C 183.31 101.64 183.039 101.816 182.947 101.689 C 182.868 101.581 182.992 101.426 183.011 101.293 C 183.036 101.115 183.088 100.936 183.075 100.757 C 183.063 100.596 183.068 100.397 182.947 100.291 C 182.593 99.98 181.942 100.351 181.548 100.093 C 181.156 99.835 180.98 99.331 180.814 98.892 C 180.679 98.534 180.612 98.144 180.616 97.762 C 180.62 97.308 180.824 96.877 180.878 96.427 C 180.939 95.922 180.824 95.395 180.948 94.901 C 181.073 94.4 181.434 93.986 181.612 93.502 C 181.731 93.177 181.751 92.821 181.88 92.5 C 182.051 92.076 182.296 91.683 182.544 91.299 C 182.845 90.835 183.236 90.433 183.541 89.971 C 183.738 89.671 183.945 89.372 184.077 89.038 C 184.22 88.678 184.184 88.26 184.345 87.908 C 184.471 87.633 184.688 87.41 184.875 87.174 C 185.15 86.827 185.607 86.592 185.744 86.171 C 185.826 85.917 185.804 85.606 185.674 85.373 C 185.619 85.276 185.465 85.269 185.406 85.175 C 185.224 84.889 185.162 84.514 185.208 84.179 C 185.247 83.882 185.451 83.629 185.61 83.374 C 185.92 82.877 186.414 82.5 186.676 81.976 C 186.82 81.687 186.807 81.339 186.938 81.044 C 187.023 80.853 187.18 80.701 187.27 80.513 C 187.505 80.025 187.383 79.318 187.806 78.981 C 188.121 78.73 188.613 78.929 189.007 78.847 C 189.226 78.801 189.435 78.581 189.648 78.649 C 190.317 78.86 190.554 79.726 190.936 80.315 C 191.346 80.949 191.85 81.574 192.002 82.314 C 192.11 82.837 191.988 83.39 191.868 83.911 C 191.591 85.116 191.032 86.24 190.534 87.372 C 190.173 88.19 189.847 89.037 189.339 89.773 C 188.857 90.47 187.962 90.866 187.608 91.637 C 187.106 92.734 187.008 94.043 187.206 95.233 C 187.497 96.977 188.074 98.947 189.473 100.029 C 190.224 100.609 191.359 100.823 192.27 100.559 C 193.144 100.305 193.511 99.207 194.263 98.694 C 195.198 98.056 196.224 97.481 197.328 97.231 C 197.891 97.104 198.487 97.155 199.059 97.231 C 200.062 97.366 201.22 97.372 201.99 98.03 C 202.322 98.313 202.435 98.798 202.526 99.224 C 202.619 99.659 202.748 100.174 202.526 100.559 C 201.859 101.714 200.317 102.115 199.059 102.558 C 198.508 102.751 197.909 102.771 197.328 102.826 C 196.001 102.949 194.133 101.889 193.331 102.954 C 193.11 103.246 193.433 103.693 193.599 104.02 C 193.914 104.64 194.697 104.969 194.933 105.623 C 195.145 106.207 194.8 106.821 194.933 107.487 C 195.066 108.153 195.685 107.972 195.999 108.286 C 196.627 108.912 197.992 109.62 197.596 110.413 C 197.417 110.77 196.785 110.504 196.396 110.413 C 195.914 110.299 195.541 109.89 195.067 109.748 C 194.338 109.53 193.561 109.465 192.8 109.48 C 191.947 109.497 190.842 109.248 190.271 109.882 C 189.706 110.51 190.066 111.57 190.137 112.411 C 190.222 113.409 190.332 114.457 190.802 115.342 C 191.258 116.203 192.544 116.535 192.8 117.475 C 192.908 117.871 192.71 118.306 192.532 118.676 C 192.164 119.443 191.568 120.098 190.936 120.668 C 190.387 121.163 189.799 121.74 189.071 121.869 C 188.084 122.043 187.127 121.376 186.14 121.204 C 184.686 120.952 183.219 120.577 181.746 120.668 C 179.919 120.782 176.953 122.003 176.42 122.003 C 175.887 122.003 174.156 122.667 173.623 122.667 C 173.09 122.667 172.433 123.303 171.887 123.069 C 170.844 122.622 170.556 121.2 170.156 120.138 C 169.821 119.25 169.545 118.287 169.626 117.341 C 169.69 116.585 170.208 115.936 170.424 115.208 C 170.656 114.424 171.067 113.623 170.954 112.813 C 170.864 112.164 170.607 111.379 170.022 111.083 C 169.462 110.799 168.659 110.968 168.157 111.345 C 167.378 111.931 167.061 113.044 166.963 114.014 C 166.88 114.827 167.337 115.606 167.493 116.409 C 167.699 117.47 167.694 118.58 168.029 119.608 C 168.428 120.834 170.091 121.823 169.76 123.069 C 169.636 123.534 168.887 123.516 168.559 123.868 C 168.07 124.391 168.099 125.351 167.493 125.732 C 166.965 126.064 166.251 125.844 165.628 125.866 C 165.228 125.881 164.817 125.958 164.428 125.866 C 163.656 125.684 162.817 124.198 162.301 124.8 C 161.804 125.38 163.752 125.911 163.629 126.665 C 163.533 127.26 162.655 127.376 162.167 127.731 C 161.19 128.442 160.298 129.288 159.236 129.864 C 158.617 130.199 157.723 130.536 156.718 130.866 Q 157 132.125 155.058 132.702 Q 151.371 133.36 151.387 132.882 C 151.374 132.892 151.352 132.903 151.317 132.917 Q 148.699 131.529 147.313 131.938 Q 147.68 132.996 148.578 133.989 C 147.679 134.475 146.986 135.313 146.049 135.72 C 145.673 135.883 145.253 136.054 144.848 135.988 C 144.083 135.864 143.603 134.995 142.856 134.788 C 142.384 134.657 141.872 134.719 141.387 134.788 C 141.067 134.833 140.703 134.849 140.455 135.056 C 139.997 135.436 138.089 135.594 138.125 136.188 C 138.145 136.506 137.85 137.449 138.063 137.688 C 138.567 138.254 140.786 139.147 141.375 139.625 C 142.161 140.263 141.901 140.422 142.563 141.188 C 142.796 141.458 142.792 142.486 142.938 142.813 C 143.338 143.71 144.066 144.9 144.188 145.875 C 144.259 146.449 144.938 146.03 144.938 146.563 C 144.938 147.095 144.046 146.885 143.813 147.563 C 143.475 148.541 144.087 150.32 143.438 151.125 C 142.826 151.883 142.59 152.763 141.655 153.038 C 141.178 153.179 140.662 152.916 140.187 152.77 C 139.446 152.544 138.774 152.137 138.06 151.838 C 137.178 151.468 136.302 151.081 135.397 150.772 C 134.785 150.563 134.156 150.411 133.532 150.241 C 132.335 149.916 131.165 149.431 129.931 149.309 C 129.135 149.23 128.329 149.343 127.536 149.443 C 127.086 149.5 126.401 149.298 126.201 149.705 C 125.895 150.329 127.113 150.875 127.134 151.57 C 127.154 152.246 126.753 152.903 126.335 153.435 C 125.924 153.958 125.073 154.059 124.739 154.635 C 124.559 154.945 124.681 155.351 124.605 155.701 C 124.447 156.429 124.354 157.215 123.94 157.834 C 123.748 158.122 123.414 158.284 123.142 158.498 C 122.618 158.912 121.909 159.143 121.54 159.699 C 120.933 160.613 120.953 161.816 120.741 162.892 C 120.681 163.2 120.655 163.514 120.607 163.825 C 120.484 164.626 120.314 165.421 120.211 166.225 C 120.149 166.711 119.866 167.246 120.077 167.688 C 120.698 168.987 123.406 169.55 123.672 170.083 C 123.939 170.616 124.902 171.459 125.671 171.948 C 126.076 172.205 126.54 172.37 127.006 172.484 C 127.916 172.705 128.867 172.707 129.803 172.752 C 131 172.809 132.2 172.736 133.398 172.752 C 134.997 172.773 136.657 173.323 138.194 172.88 C 138.961 172.659 139.485 171.932 140.187 171.551 C 140.781 171.229 141.476 171.108 142.051 170.753 C 142.696 170.355 143.122 169.418 143.788 169.285 C 144.454 169.151 143.911 168.222 143.916 167.688 C 143.923 166.976 143.627 166.249 143.788 165.555 C 143.95 164.859 144.452 164.286 144.848 163.691 C 145.252 163.084 145.558 162.334 146.183 161.96 C 146.646 161.682 147.114 161.958 147.78 161.692 C 148.445 161.425 149.17 160.751 149.912 160.363 C 150.512 160.05 151.149 159.814 151.777 159.565 C 152.26 159.373 152.957 159.464 153.24 159.029 C 153.579 158.506 153.068 157.786 153.111 157.164 C 153.156 156.53 153.033 155.722 153.508 155.299 C 154.207 154.677 155.368 155.053 156.305 155.037 C 157.017 155.025 157.731 155.254 158.437 155.165 C 159.638 156.793 161.004 156.505 162.167 153.971 C 162.689 153.615 163.249 153.893 163.688 153.438 C 164.385 152.713 165.148 152.675 166.125 152.438 C 166.837 152.264 166.987 151.484 167.438 152.063 C 167.901 152.657 167.474 152.604 167.761 153.301 C 167.905 153.65 168.293 153.837 168.559 154.105 C 168.825 154.371 169.091 154.637 169.358 154.903 C 169.757 155.302 170.191 155.669 170.558 156.098 C 170.951 156.557 171.257 157.085 171.624 157.566 C 171.969 158.017 172.249 158.537 172.691 158.895 C 173.154 159.27 173.828 159.319 174.287 159.699 C 174.848 160.163 175.033 160.995 175.616 161.43 C 176.113 161.8 176.778 161.86 177.352 162.094 C 177.666 162.221 178.005 162.306 178.285 162.496 C 178.544 162.672 178.717 162.95 178.949 163.16 C 179.416 163.584 179.89 164.006 180.412 164.361 C 181.169 164.874 182.069 165.156 182.813 165.689 C 183.349 166.074 184.009 166.42 184.275 167.024 C 184.436 167.388 184.323 167.823 184.275 168.218 C 184.209 168.764 183.995 169.283 183.879 169.821 C 183.775 170.305 183.294 170.903 183.611 171.283 C 183.781 171.488 184.143 171.283 184.409 171.283 C 185.075 171.283 185.082 170.899 185.342 170.619 C 185.869 170.048 186.397 169.384 186.542 168.62 C 186.642 168.09 186.521 167.503 186.274 167.024 C 186.102 166.689 185.635 166.566 185.476 166.225 C 185.267 165.78 185.073 165.169 185.342 164.757 C 185.495 164.522 185.862 164.451 186.14 164.489 C 186.458 164.532 186.637 164.916 186.938 165.025 C 187.737 165.315 188.804 165.817 189.473 165.293 C 189.72 165.1 189.742 164.641 189.601 164.361 C 189.101 163.368 187.684 163.227 186.676 162.758 C 185.898 162.396 184.948 162.359 184.275 161.826 C 183.6 161.292 183.521 160.187 182.813 159.699 C 181.871 159.051 180.476 159.454 179.479 158.895 C 178.605 158.404 177.826 157.652 177.352 156.768 C 176.925 155.97 177.271 154.888 176.816 154.105 C 176.788 154.056 176.762 154.01 176.729 153.965 Q 175.836 154.099 174.864 152.462 C 174.799 152.392 174.738 152.319 174.684 152.24 C 174.252 151.616 173.832 150.865 173.885 150.107 C 173.924 149.552 174.444 149.142 174.684 148.639 C 175.034 147.903 175.546 148.098 176.25 147.688 C 176.869 147.327 177.01 147.016 177.688 147.25 C 178.178 147.419 178.612 147.228 179.083 147.444 C 179.721 147.737 180.537 147.666 181.082 148.109 C 181.254 148.248 181.403 148.408 181.536 148.581 L 181.909 147.607 L 182.813 148.144 L 182.166 149.688 C 182.416 150.235 182.64 150.805 182.947 151.308 C 183.248 151.801 183.455 152.377 183.879 152.77 C 184.359 153.216 185.051 153.36 185.61 153.703 C 186.806 154.436 187.946 155.259 189.071 156.098 C 189.983 156.777 191.37 157.153 191.734 158.23 C 191.91 158.75 191.312 159.279 191.338 159.827 C 191.376 160.627 191.859 161.342 192.136 162.094 C 192.349 162.674 192.551 163.259 192.8 163.825 C 193.081 164.46 193.343 165.114 193.733 165.689 C 194.333 166.576 195.732 167.557 195.865 168.09 C 195.999 168.623 195.516 168.709 195.597 169.022 C 195.755 169.63 196.691 169.771 196.932 170.351 C 197.136 170.842 196.729 171.456 196.932 171.948 C 197.22 172.645 197.818 173.298 198.528 173.55 C 199.327 173.833 200.314 173.689 201.057 173.282 C 201.557 173.008 201.906 172.474 202.124 171.948 C 202.277 171.577 202.235 171.153 202.258 170.753 C 202.288 170.22 202.407 169.663 202.258 169.151 C 202.096 168.596 201.574 168.21 201.326 167.688 C 201.024 167.054 200.92 166.342 200.661 165.689 C 200.426 165.098 199.923 164.591 199.857 163.959 C 199.796 163.369 199.714 162.459 200.259 162.228 C 200.736 162.025 201.078 163.075 201.594 163.026 C 202.125 162.976 202.346 162.26 202.788 161.96 C 203.446 161.514 204.317 161.41 204.921 160.893 C 205.211 160.645 205.22 160.072 205.585 159.961 C 205.949 159.85 206.307 160.204 206.652 160.363 C 207.067 160.555 207.406 160.926 207.852 161.027 C 208.631 161.206 209.536 161.259 210.247 160.893 C 210.752 160.634 210.862 159.91 211.313 159.565 C 211.929 159.093 212.964 159.241 213.446 158.632 C 213.755 158.242 213.88 157.633 213.714 157.164 C 213.285 155.947 211.32 155.808 210.783 154.635 C 210.339 153.665 214.059 152.564 214.125 151.5 C 214.184 150.545 214.437 145.906 214.375 144.875 C 213.726 143.143 216.135 142.377 216.25 140 C 218.375 139.625 220.625 140 221.875 138.125 C 221.679 134.8 224.116 103.681 219.5 72 Q 219.038 68.332 218 61.25 Q 212.949 57.761 210.75 57.25 C 208.551 56.739 204.617 56.325 202 57 C 199.383 57.675 194.621 63.933 193.931 64.261 C 193.752 64.035 193.456 63.982 193.138 64.005 L 193.138 64.005 L 193.138 64.005 L 193.138 64.005 L 193.138 64.005 L 193.138 64.005 L 193.138 64.005 L 193.138 64.005 L 193.138 64.005 L 193.138 64.005 L 193.138 64.005 L 193.138 64.005 Z M 129.584 122.765 C 129.085 122.009 129.459 120.724 130.117 120.101 C 130.801 119.454 132.015 119.983 132.914 119.702 C 133.293 119.583 133.916 119.561 133.979 119.169 C 134.029 118.859 133.594 118.644 133.313 118.503 C 132.752 118.222 131.806 118.753 131.449 118.237 C 130.983 117.563 131.343 116.352 131.981 115.839 C 132.397 115.506 133.097 115.613 133.58 115.839 C 133.894 115.986 133.909 116.553 134.246 116.638 C 134.709 116.756 135.309 116.502 135.578 116.106 C 135.926 115.591 135.138 114.68 135.578 114.241 C 135.986 113.833 136.745 114.117 137.309 114.241 C 137.93 114.377 138.698 114.505 139.041 115.04 C 139.399 115.601 139.333 116.44 139.041 117.038 C 138.818 117.493 138.064 117.516 137.842 117.97 C 137.51 118.648 137.867 119.48 137.842 120.235 C 137.82 120.902 138.14 121.723 137.709 122.233 C 137.207 122.824 136.205 122.615 135.444 122.765 C 134.342 122.983 133.238 123.326 132.115 123.298 C 131.253 123.277 130.058 123.485 129.584 122.765 L 129.584 122.765 L 129.584 122.765 L 129.584 122.765 L 129.584 122.765 L 129.584 122.765 L 129.584 122.765 L 129.584 122.765 L 129.584 122.765 L 129.584 122.765 L 129.584 122.765 Z M 150.954 165.92 C 150.657 165.931 150.374 166.117 150.155 166.319 C 149.965 166.495 149.753 166.726 149.755 166.985 C 149.759 167.404 150.111 167.769 150.421 168.051 C 150.936 168.518 151.627 169.203 152.286 168.983 C 152.757 168.826 152.762 168.11 152.952 167.651 C 153.06 167.392 153.335 167.107 153.218 166.852 C 152.879 166.11 151.77 165.89 150.954 165.92 L 150.954 165.92 L 150.954 165.92 L 150.954 165.92 L 150.954 165.92 L 150.954 165.92 L 150.954 165.92 L 150.954 165.92 L 150.954 165.92 L 150.954 165.92 Z M 167.204 161.258 C 167.675 160.832 167.512 160.022 167.603 159.393 C 167.686 158.82 167.937 158.205 167.736 157.662 C 167.671 157.485 167.511 157.334 167.337 157.262 C 166.845 157.058 166.182 156.967 165.739 157.262 C 165.258 157.582 165.167 158.291 165.073 158.861 C 164.964 159.519 164.871 160.281 165.206 160.858 C 165.366 161.136 165.694 161.316 166.005 161.391 C 166.396 161.486 166.905 161.528 167.204 161.258 L 167.204 161.258 L 167.204 161.258 L 167.204 161.258 L 167.204 161.258 L 167.204 161.258 L 167.204 161.258 L 167.204 161.258 L 167.204 161.258 Z M 168.011 164.588 C 168.041 164.871 167.572 164.986 167.478 165.254 C 167.317 165.715 167.538 166.234 167.478 166.719 C 167.434 167.082 167.212 167.252 167.212 167.784 C 167.212 168.317 167.296 168.829 166.945 169.116 C 166.602 169.398 166.058 169.116 165.614 169.116 C 165.303 169.116 164.681 169.782 164.681 169.116 C 164.681 168.45 164.661 167.962 164.681 167.385 C 164.703 166.762 164.667 166.126 164.814 165.52 C 164.974 164.863 165.106 164.102 165.614 163.655 C 165.856 163.442 166.229 163.324 166.546 163.389 C 167.164 163.517 167.945 163.96 168.011 164.588 L 168.011 164.588 L 168.011 164.588 L 168.011 164.588 L 168.011 164.588 L 168.011 164.588 L 168.011 164.588 Z M 183.863 172.846 C 184.444 173.459 183.835 174.538 183.73 175.376 C 183.673 175.826 183.791 176.395 183.464 176.708 C 183.041 177.112 182.316 176.981 181.732 176.975 C 180.966 176.966 180.207 176.777 179.468 176.575 C 178.736 176.375 177.891 176.294 177.337 175.776 C 176.945 175.41 176.813 174.828 176.671 174.311 C 176.564 173.923 176.368 173.477 176.537 173.112 C 176.673 172.822 176.937 172.579 177.337 172.579 C 177.736 172.579 176.671 172.313 178.935 172.579 C 181.199 172.846 180.619 172.801 181.466 172.846 C 182.264 172.888 183.313 172.266 183.863 172.846 L 183.863 172.846 L 183.863 172.846 L 183.863 172.846 L 183.863 172.846 L 183.863 172.846 Z M 217.229 167.668 C 217.21 168.578 216.2 169.302 215.364 169.666 C 214.672 169.966 213.855 169.666 213.1 169.666 C 212.39 169.666 211.502 170.331 210.969 169.666 C 210.436 169 209.6 168.906 209.77 168.334 C 209.966 167.673 211.098 167.961 211.768 167.801 C 212.607 167.601 213.633 167.534 214.299 167.268 C 214.965 167.002 215.732 166.513 216.43 166.735 C 216.82 166.86 217.238 167.258 217.229 167.668 L 217.229 167.668 L 217.229 167.668 L 217.229 167.668 L 217.229 167.668 Z M 182.75 181.125 L 179.25 179.75 L 178.875 181.875 L 181.875 183.25 L 182.75 181.125 L 182.75 181.125 L 182.75 181.125 L 182.75 181.125 Z M 183.57 110.462 C 183.15 111.142 183.357 112.09 183.57 112.86 C 183.639 113.109 183.712 113.503 183.97 113.526 C 184.44 113.568 184.698 112.886 184.902 112.46 C 185.233 111.769 185.328 110.962 185.301 110.196 C 185.295 110.013 185.335 109.74 185.168 109.663 C 184.627 109.414 183.883 109.956 183.57 110.462 L 183.57 110.462 L 183.57 110.462 L 183.57 110.462 Z M 173.258 116.686 C 173.077 116.881 173.258 117.219 173.258 117.485 C 173.258 117.796 173.087 118.158 173.258 118.418 C 173.444 118.7 173.861 118.894 174.191 118.817 C 174.589 118.724 174.829 118.261 174.99 117.885 C 175.165 117.475 175.434 116.873 175.123 116.553 C 174.689 116.106 173.683 116.23 173.258 116.686 L 173.258 116.686 L 173.258 116.686 Z M 170.891 118.071 C 170.647 118.602 170.753 119.38 171.157 119.802 C 171.313 119.966 171.606 120.001 171.823 119.935 C 172.123 119.844 172.369 119.56 172.489 119.27 C 172.642 118.9 172.621 118.448 172.489 118.071 C 172.395 117.803 172.236 117.453 171.956 117.405 C 171.543 117.334 171.065 117.69 170.891 118.071 L 170.891 118.071 Z"/>
 <g opacity=".6">
  <path fill="#e8e7c8" fill-rule="evenodd" d="M 144.923 149.68 C 144.678 150.8 144.503 151.675 143.978 152.2 C 143.488 152.725 142.193 152.55 142.193 153.18 C 142.193 153.39 142.473 153.635 142.893 153.635 C 143.348 153.635 143.873 153.53 144.398 153.53 C 146.288 153.53 147.898 153.6 149.228 153.6 C 150.243 153.6 151.258 153.565 152.238 153.565 C 153.113 153.565 154.093 153.6 155.143 153.6 C 156.683 153.6 158.013 153.53 159.098 153.53 L 159.623 153.53 C 159.973 153.53 160.043 153.425 160.148 152.865 C 160.603 150.45 160.848 149.155 160.848 148.875 C 160.848 148.56 160.638 148.28 160.393 148.28 C 159.623 148.28 159.553 149.68 158.643 150.66 C 157.593 151.78 155.283 152.375 151.748 152.375 C 149.718 152.375 148.773 152.235 148.773 151.43 C 148.773 151.115 148.913 150.38 149.158 149.295 L 150.523 143.555 C 150.733 142.715 150.523 142.435 151.713 142.435 C 151.923 142.435 152.903 142.54 154.653 142.715 C 155.213 142.785 155.703 142.785 156.158 142.89 C 156.893 143.065 157.348 143.695 157.348 144.535 C 157.348 144.815 157.278 145.165 157.278 145.62 C 157.278 145.935 157.558 146.215 157.838 146.215 C 158.398 146.215 158.433 145.55 158.608 144.325 C 158.993 141.49 159.833 139.705 159.833 138.795 C 159.833 138.515 159.693 138.375 159.343 138.375 C 158.468 138.375 158.643 139.53 157.803 140.545 C 157.278 141.14 155.808 141.49 153.323 141.49 C 152.448 141.49 151.958 141.56 151.818 141.56 C 151.328 141.56 151.083 141.35 151.083 141.07 C 151.083 140.86 151.293 140.51 151.398 140.055 L 152.728 134.49 C 153.008 133.37 152.903 133.335 154.583 133.335 C 157.453 133.335 159.028 133.405 159.693 134.56 C 160.323 135.68 159.693 136.905 160.638 136.905 C 161.093 136.905 161.233 136.66 161.338 136.1 L 161.863 133.335 C 161.898 133.09 161.933 132.88 161.933 132.74 C 161.933 132.215 161.548 132.215 160.043 132.215 L 146.988 132.215 C 146.078 132.215 145.658 132.25 145.658 132.67 C 145.658 133.09 146.323 133.16 147.478 133.265 C 148.178 133.335 148.458 133.44 148.458 133.965 C 148.458 134.42 148.318 134.805 148.248 135.19 L 144.923 149.68 Z M 172.748 137.535 C 173.413 134.98 173.483 133.825 174.848 133.335 C 175.793 132.985 176.528 133.335 176.528 132.495 C 176.528 132.11 176.213 132.04 175.443 132.04 C 174.288 132.04 172.713 132.25 170.788 132.25 C 170.053 132.25 169.073 132.215 167.813 132.215 C 166.903 132.215 166.448 132.39 166.448 132.74 C 166.448 133.195 166.973 133.23 167.988 133.335 C 168.968 133.44 169.423 133.475 169.423 134.245 C 169.423 134.91 168.723 137.255 167.498 141.385 C 166.448 144.955 165.713 147.44 165.713 148.98 C 165.713 151.955 168.898 154.405 173.623 154.405 C 177.928 154.405 180.728 152.76 182.408 149.295 C 183.563 146.88 184.123 143.065 185.383 138.48 C 186.153 135.645 186.258 134.175 187.378 133.44 C 187.973 133.055 188.638 133.265 188.638 132.565 C 188.638 132.25 188.428 132.11 188.043 132.11 C 187.833 132.11 186.503 132.25 184.088 132.25 C 183.773 132.25 183.388 132.215 182.898 132.215 C 182.408 132.215 182.093 132.39 182.093 132.67 C 182.093 133.265 182.688 133.23 183.598 133.405 C 184.473 133.58 184.753 133.86 184.753 134.595 C 184.753 135.82 184.333 136.975 184.018 138.235 C 183.423 140.685 182.968 143.345 182.093 146.215 C 181.393 148.49 180.763 150.24 179.363 151.36 C 178.243 152.27 176.388 152.9 174.533 152.9 C 171.803 152.9 169.948 151.43 169.948 149.26 C 169.948 148.175 170.263 147.09 170.578 145.9 L 172.748 137.535 Z M 190.948 149.365 C 190.563 151.045 190.493 152.165 189.863 152.445 C 189.093 152.76 188.148 152.585 188.148 153.25 C 188.148 153.6 188.428 153.74 189.058 153.74 C 190.073 153.74 190.983 153.67 191.858 153.67 L 192.768 153.67 C 193.573 153.67 194.483 153.635 195.498 153.635 C 195.883 153.635 196.233 153.705 196.618 153.705 C 197.283 153.705 197.598 153.495 197.598 153.215 C 197.598 152.48 196.618 152.76 195.603 152.445 C 195.078 152.27 194.763 151.92 194.763 151.57 C 194.763 151.185 194.903 150.87 194.973 150.555 L 196.163 144.815 C 196.758 144.745 197.388 144.675 197.983 144.605 L 201.798 152.27 C 202.253 153.18 202.498 153.775 202.918 153.845 C 203.653 153.985 204.668 153.88 205.893 154.09 C 206.803 154.23 207.818 154.615 209.008 154.615 C 209.778 154.615 210.128 154.475 210.128 154.125 C 210.128 153.53 209.113 153.81 207.958 153.145 C 206.908 152.55 206.383 151.675 205.718 150.415 L 202.113 143.485 C 206.908 141.105 209.323 139.145 209.323 136.205 C 209.323 133.44 207.328 132.005 203.373 132.005 C 201.448 132.005 198.683 132.285 195.218 132.285 C 193.503 132.285 192.453 132.145 192.103 132.145 C 191.648 132.145 191.403 132.285 191.403 132.53 C 191.403 133.02 191.893 133.055 192.803 133.125 C 193.923 133.23 194.448 133.405 194.448 134 C 194.448 134.455 194.238 134.84 194.168 135.225 L 190.948 149.365 Z M 196.758 142.295 L 198.228 135.085 C 198.543 133.545 198.613 133.125 200.328 133.125 C 203.268 133.125 204.773 134.385 204.773 136.625 C 204.773 138.62 203.338 140.825 200.748 142.26 C 199.103 143.17 196.933 143.555 196.688 143.555 C 196.513 143.555 196.443 143.52 196.443 143.415 C 196.443 143.135 196.653 142.75 196.758 142.295 Z M 212.683 144.99 C 212.683 150.52 215.973 154.405 220.558 154.405 C 223.673 154.405 226.438 152.935 228.958 149.96 C 231.023 147.51 232.283 144.08 232.283 140.72 C 232.283 137.955 231.198 135.4 229.203 133.51 C 227.978 132.355 226.368 131.725 224.443 131.725 C 220.803 131.725 217.303 133.825 214.993 137.325 C 213.488 139.6 212.683 142.33 212.683 144.99 Z M 224.688 132.74 C 226.788 132.74 228.328 134.56 228.328 137.5 C 228.328 142.155 226.788 147.335 224.653 150.59 C 223.533 152.34 221.923 153.25 220.383 153.25 C 218.178 153.25 216.603 151.255 216.603 147.895 C 216.603 146.95 216.778 145.865 217.058 144.57 C 217.583 142.085 218.108 139.775 219.123 137.605 C 220.663 134.35 222.413 132.74 224.688 132.74 Z"/>
 </g>
 <path fill-opacity=".15" d="M 31.408 175.609 L 31.779 173.833 C 32.004 172.752 33.083 171.837 34.186 171.79 Q 52.688 171 56.438 156.563 C 65.688 123.563 65.25 118.625 74.25 87.875 C 74.399 84.982 71.826 83.075 68.875 82.5 L 55.936 81.688 C 55.385 81.653 55.027 81.186 55.138 80.645 L 55.3 79.855 C 55.41 79.314 55.947 78.84 56.497 78.797 C 63.758 78.227 78.727 73.195 96.709 65.35 C 98.732 64.467 99.925 65.485 99.37 67.622 L 76.438 156 C 74.51 165.886 81.374 171.563 95.008 172.817 C 96.108 172.918 96.717 173.85 96.368 174.897 L 96.11 175.669 C 95.761 176.716 94.582 177.567 93.478 177.567 L 33 177.567 C 31.896 177.567 31.183 176.689 31.408 175.609 Z"/>
</svg>
