<svg xmlns="http://www.w3.org/2000/svg" style="isolation:isolate" width="256" height="256">
 <defs>
  <filter id="a" width="270.648" height="254.338" x="-7.32" y="2.95" filterUnits="userSpaceOnUse">
   <feGaussianBlur xmlns="http://www.w3.org/2000/svg" in="SourceGraphic" stdDeviation="4.294"/>
   <feOffset xmlns="http://www.w3.org/2000/svg" dy="4" result="pf_100_offsetBlur"/>
   <feFlood xmlns="http://www.w3.org/2000/svg" flood-opacity=".4"/>
   <feComposite xmlns="http://www.w3.org/2000/svg" in2="pf_100_offsetBlur" operator="in" result="pf_100_dropShadow"/>
   <feBlend xmlns="http://www.w3.org/2000/svg" in="SourceGraphic" in2="pf_100_dropShadow"/>
  </filter>
 </defs>
 <g filter="url(#a)">
  <linearGradient id="b" x1=".5" x2=".5" y1="-.036" y2="1.036" gradientTransform="matrix(244.648 0 0 228.338 5.676 11.947)" gradientUnits="userSpaceOnUse">
   <stop offset="0%"/>
   <stop offset="100%" stop-color="#333333"/>
  </linearGradient>
  <path fill="url(#b)" d="M165.685 11.947c74.055 0 84.639 10.557 84.639 84.544v59.251c0 73.986-10.584 84.543-84.639 84.543h-75.37c-74.055 0-84.639-10.557-84.639-84.543V96.491c0-73.987 10.584-84.544 84.639-84.544h75.37z"/>
 </g>
 <clipPath id="c">
  <path fill="#ffffff" d="M165.69 11.95c74.056 0 84.64 10.556 84.64 84.531v59.241c0 73.975-10.584 84.531-84.64 84.531H90.32c-74.056 0-84.64-10.556-84.64-84.531V96.481c0-73.975 10.584-84.531 84.64-84.531h75.37z"/>
 </clipPath>
 <g clip-path="url(#c)">
  <path fill="#46a926" d="M208.61 45.406c-.81.81 33.513 80.643 33.513 80.643l-33.513 80.644s-80.657-42.628-80.657-80.644c0-38.015 80.657-80.643 80.657-80.643z"/>
  <path fill="#f22c42" d="M47.296 206.693c.811-.81-33.513-80.644-33.513-80.644l33.513-80.643s80.657 42.628 80.657 80.643c0 38.016-80.657 80.644-80.657 80.644z"/>
  <path fill="#ffda64" d="M208.61 45.406c-.81.81-80.657-33.508-80.657-33.508L47.296 45.406l80.657 80.643 80.657-80.643z"/>
  <path fill="#2f5fdd" d="M47.296 206.693l80.657 33.404s79.847-34.214 80.657-33.404l-80.657-80.644-80.657 80.644z"/>
  <path fill="#a6d74f" d="M231.317 22.807c-.161-.113-.283-.259-.446-.369a39.624 39.624 0 0 0-5.856-3.246c-2.118-.96-4.407-1.801-6.879-2.536-2.471-.735-5.128-1.365-7.979-1.902-2.852-.536-5.9-.98-9.157-1.343a198.485 198.485 0 0 0-10.411-.862c-7.376-.433-15.642-.599-24.899-.599h-37.734c-.014 29.17 11.154 58.345 33.51 80.696l69.851-69.839z"/>
  <path fill="#76c22b" d="M250.33 125.759V96.48c0-9.247-.165-17.503-.599-24.871a199 199 0 0 0-.866-10.399 123.688 123.688 0 0 0-1.346-9.145c-.537-2.848-1.167-5.5-1.903-7.968-.736-2.469-1.58-4.755-2.541-6.87a39.52 39.52 0 0 0-3.251-5.849 33.302 33.302 0 0 0-4.044-4.903c-1.352-1.35-2.862-2.547-4.463-3.668l-69.851 69.839c24.44 24.437 57.034 35.408 88.864 33.113z"/>
  <path fill="#1463a5" d="M127.852 240.252h37.838c9.257 0 17.523-.164 24.899-.597 3.689-.216 7.154-.5 10.411-.864 3.257-.363 6.305-.807 9.157-1.343 2.851-.537 5.508-1.166 7.979-1.901 2.472-.735 4.761-1.575 6.879-2.535a39.63 39.63 0 0 0 5.856-3.248c.141-.096.248-.223.388-.321l-69.897-69.885c-22.355 22.351-33.523 51.524-33.51 80.694z"/>
  <path fill="#2b898f" d="M231.259 229.443c1.625-1.133 3.151-2.346 4.521-3.714a33.32 33.32 0 0 0 4.044-4.905 39.497 39.497 0 0 0 3.251-5.847c.961-2.115 1.805-4.401 2.541-6.869.736-2.469 1.366-5.121 1.903-7.969.537-2.848.982-5.894 1.346-9.147a199 199 0 0 0 .866-10.399c.434-7.368.599-15.624.599-24.871v-29.275c-31.863-2.327-64.501 8.647-88.968 33.111l69.897 69.885z"/>
  <path fill="#9b33ae" d="M5.68 126.34v29.382c0 9.247.166 17.503.6 24.871.217 3.684.501 7.146.866 10.399.364 3.253.808 6.299 1.346 9.147.537 2.848 1.167 5.5 1.903 7.969.736 2.468 1.578 4.754 2.538 6.869a39.507 39.507 0 0 0 3.254 5.847 33.301 33.301 0 0 0 4.041 4.905c1.336 1.333 2.831 2.511 4.408 3.621l69.907-69.896c-24.441-24.437-57.032-35.41-88.863-33.114z"/>
  <path fill="#7839b7" d="M24.636 229.35c.181.127.32.29.504.414a39.58 39.58 0 0 0 5.856 3.248c2.118.96 4.406 1.8 6.878 2.535 2.472.735 5.127 1.364 7.978 1.901 2.852.536 5.899.98 9.157 1.343 3.257.364 6.724.648 10.412.864 7.377.433 15.642.597 24.899.597h37.729c.04-29.204-11.124-58.42-33.506-80.798L24.636 229.35z"/>
  <path fill="#fdc92b" d="M128.159 11.95H90.32c-9.257 0-17.522.166-24.899.599-3.688.216-7.155.498-10.412.862-3.258.363-6.305.807-9.157 1.343-2.851.537-5.506 1.167-7.978 1.902-2.472.735-4.76 1.576-6.878 2.536a39.573 39.573 0 0 0-5.856 3.246c-.142.096-.25.223-.39.321l69.897 69.887c22.355-22.351 33.525-51.526 33.512-80.696z"/>
  <path fill="#f34f17" d="M24.75 22.759c-1.625 1.133-3.152 2.349-4.522 3.716a33.284 33.284 0 0 0-4.041 4.903 39.53 39.53 0 0 0-3.254 5.849c-.96 2.115-1.802 4.401-2.538 6.87-.736 2.468-1.366 5.12-1.903 7.968-.538 2.848-.982 5.892-1.346 9.145a197.918 197.918 0 0 0-.866 10.399c-.434 7.368-.6 15.624-.6 24.871v29.275c31.864 2.327 64.5-8.645 88.967-33.109L24.75 22.759z"/>
 </g>
 <path fill="#ffffff" opacity=".1" d="M128.161 11.987c63.054 0 114.17 51.108 114.17 114.152 0 63.044-51.116 114.151-114.17 114.151-63.055 0-114.17-51.107-114.17-114.151S65.106 11.987 128.161 11.987z"/>
 <path fill="#ffffff" opacity=".1" d="M128.005 44.565c45.039 0 81.55 36.505 81.55 81.536 0 45.032-36.511 81.537-81.55 81.537-45.039 0-81.55-36.505-81.55-81.537 0-45.031 36.511-81.536 81.55-81.536z"/>
 <ellipse fill="#ffffff" opacity=".1" rx="1" ry="1" transform="matrix(47.401 0 0 47.393 128.005 126.101)" vector-effect="non-scaling-stroke"/>
 <g opacity=".4">
  <linearGradient id="d" x1=".517" x2=".517" y2="1">
   <stop offset="0%" stop-color="#ffffff"/>
   <stop offset="12.5%" stop-color="#ffffff" stop-opacity=".098"/>
   <stop offset="92.5%" stop-opacity=".098"/>
   <stop offset="100%" stop-opacity=".498"/>
  </linearGradient>
  <path fill="none" stroke="url(#d)" stroke-linecap="round" stroke-linejoin="round" stroke-width="4.077" d="M165.685 11.947c74.055 0 84.639 10.557 84.639 84.544v59.251c0 73.986-10.584 84.543-84.639 84.543h-75.37c-74.055 0-84.639-10.557-84.639-84.543V96.491c0-73.987 10.584-84.544 84.639-84.544h75.37z" vector-effect="non-scaling-stroke"/>
 </g>
</svg>
