<svg xmlns="http://www.w3.org/2000/svg" style="isolation:isolate" width="256" height="256" viewBox="0 0 256 256">
 <defs>
  <filter id="OoBlnfi7DMJwURjNBRp9xzHzS5eE63SL" width="400%" height="400%" x="-200%" y="-200%" color-interpolation-filters="sRGB" filterUnits="objectBoundingBox">
   <feGaussianBlur xmlns="http://www.w3.org/2000/svg" in="SourceGraphic" stdDeviation="4.294"/>
   <feOffset xmlns="http://www.w3.org/2000/svg" dx="0" dy="4" result="pf_100_offsetBlur"/>
   <feFlood xmlns="http://www.w3.org/2000/svg" flood-opacity=".4"/>
   <feComposite xmlns="http://www.w3.org/2000/svg" in2="pf_100_offsetBlur" operator="in" result="pf_100_dropShadow"/>
   <feBlend xmlns="http://www.w3.org/2000/svg" in="SourceGraphic" in2="pf_100_dropShadow" mode="normal"/>
  </filter>
 </defs>
 <g filter="url(#OoBlnfi7DMJwURjNBRp9xzHzS5eE63SL)">
  <linearGradient id="_lgradient_147" x1=".233" x2=".933" y1="-.071" y2=".924" gradientTransform="matrix(244.648309,0,0,228.338396,5.68,11.95)" gradientUnits="userSpaceOnUse">
   <stop offset="0%" stop-opacity=".996" style="stop-color:#c58d67"/>
   <stop offset="100%" stop-opacity=".996" style="stop-color:#e6aa81"/>
  </linearGradient>
  <path fill="url(#_lgradient_147)" d="M 165.688919 11.95 C 239.744626 11.95 250.328309 22.507198 250.328309 96.493859 L 250.328309 155.744653 C 250.328309 229.73091 239.744626 240.288396 165.688919 240.288396 L 90.319393 240.288396 C 16.26369 240.288396 5.68 229.73091 5.68 155.744653 L 5.68 96.493859 C 5.68 22.507198 16.26369 11.95 90.319393 11.95 L 165.688919 11.95 Z"/>
 </g>
 <g opacity=".4">
  <linearGradient id="_lgradient_148" x1=".517" x2=".517" y1="0" y2="1" gradientTransform="matrix(244.65,0,0,228.34,5.68,11.95)" gradientUnits="userSpaceOnUse">
   <stop offset="0%" style="stop-color:#ffffff"/>
   <stop offset="12.5%" stop-opacity=".098" style="stop-color:#ffffff"/>
   <stop offset="92.5%" stop-opacity=".098" style="stop-color:#000000"/>
   <stop offset="100%" stop-opacity=".498" style="stop-color:#000000"/>
  </linearGradient>
  <path fill="url(#_lgradient_148)" fill-rule="evenodd" d="M 165.06803 11.951234 C 169.395994 11.941409 173.723944 11.990533 178.051908 12.088781 C 181.927398 12.167379 185.802873 12.31475 189.678362 12.540721 C 193.1309 12.737216 196.583423 13.022134 200.026115 13.395476 C 203.085193 13.729518 206.144271 14.181458 209.173842 14.741469 C 211.888645 15.242533 214.57394 15.881143 217.219897 16.6573 C 219.619947 17.354858 221.970814 18.219439 224.242988 19.241215 C 226.357793 20.184394 228.384061 21.304417 230.302129 22.591462 C 232.141505 23.829383 233.862851 25.244151 235.436659 26.80629 C 237.000621 28.378252 238.417046 30.087764 239.656409 31.924995 C 240.944972 33.840824 242.066305 35.864728 243.020409 37.967229 C 244.043389 40.246576 244.908985 42.584873 245.617197 44.972292 C 246.394255 47.615155 247.033606 50.297317 247.535265 53.008956 C 248.095924 56.034984 248.548399 59.080665 248.882828 62.13617 C 249.256611 65.574836 249.541856 69.013506 249.738578 72.462003 C 249.964823 76.323139 250.112361 80.194101 250.200884 84.055237 C 250.289421 88.378131 250.338591 92.701032 250.32876 97.014106 L 250.32876 155.225886 C 250.338591 159.54878 250.289421 163.861854 250.200884 168.184747 C 250.112361 172.05571 249.964823 175.916853 249.738578 179.777981 C 249.541856 183.226485 249.256611 186.674975 248.882828 190.103826 C 248.548399 193.15933 248.095924 196.214835 247.535265 199.240851 C 247.033606 201.942664 246.394255 204.624837 245.617197 207.267703 C 244.908985 209.655115 244.043389 212.003235 243.020409 214.272755 C 242.066305 216.38509 240.944972 218.399156 239.656409 220.314999 C 238.417046 222.152226 237.000621 223.871561 235.436659 225.433697 C 233.862851 226.995832 232.141505 228.410601 230.302129 229.648532 C 228.384061 230.935575 226.357793 232.055598 224.242988 232.998768 C 221.970814 234.020552 219.619947 234.885137 217.219897 235.592507 C 214.57394 236.368672 211.888645 237.007276 209.173842 237.498515 C 206.144271 238.068354 203.085193 238.510465 200.026115 238.844519 C 196.583423 239.21785 193.1309 239.502777 189.678362 239.699269 C 185.802873 239.925235 181.927398 240.072615 178.051908 240.161035 C 173.723944 240.249454 169.395994 240.298581 165.06803 240.288762 L 90.941963 240.288762 C 86.614006 240.298581 82.286049 240.249454 77.9581 240.161035 C 74.08261 240.072615 70.20712 239.925235 66.331638 239.699269 C 62.879108 239.502777 59.426578 239.21785 55.983886 238.844519 C 52.924808 238.510465 49.865733 238.068354 46.836162 237.498515 C 44.121356 237.007276 41.436057 236.368672 38.7901 235.592507 C 36.390053 234.885137 34.039187 234.020552 31.767009 232.998768 C 29.652213 232.055598 27.625943 230.935575 25.707871 229.648532 C 23.868489 228.410601 22.147143 226.995832 20.573343 225.433697 C 19.009377 223.871561 17.592955 222.152226 16.353586 220.314999 C 15.065036 218.399156 13.943701 216.38509 12.989584 214.272755 C 11.966612 212.003235 11.101021 209.655115 10.392811 207.267703 C 9.615746 204.624837 8.976389 201.942664 8.47474 199.240851 C 7.914072 196.214835 7.461604 193.15933 7.127172 190.103826 C 6.753394 186.674975 6.468142 183.226485 6.271417 179.777981 C 6.045183 175.916853 5.897639 172.05571 5.809112 168.184747 C 5.720586 163.861854 5.671405 159.54878 5.681241 155.225886 L 5.681241 97.014106 C 5.671405 92.701032 5.720586 88.378131 5.809112 84.055237 C 5.897639 80.194101 6.045183 76.323139 6.271417 72.462003 C 6.468142 69.013506 6.753394 65.574836 7.127172 62.13617 C 7.461604 59.080665 7.914072 56.034984 8.47474 53.008956 C 8.976389 50.297317 9.615746 47.615155 10.392811 44.972292 C 11.101021 42.584873 11.966612 40.246576 12.989584 37.967229 C 13.943701 35.864728 15.065036 33.840824 16.353586 31.924995 C 17.592955 30.087764 19.009377 28.378252 20.573343 26.80629 C 22.147143 25.244151 23.868489 23.829383 25.707871 22.591462 C 27.625943 21.304417 29.652213 20.184394 31.767009 19.241215 C 34.039187 18.219439 36.390053 17.354858 38.7901 16.6573 C 41.436057 15.881143 44.121356 15.242533 46.836162 14.741469 C 49.865733 14.181458 52.924808 13.729518 55.983886 13.395476 C 59.426578 13.022134 62.879108 12.737216 66.331638 12.540721 C 70.20712 12.31475 74.08261 12.167379 77.9581 12.088781 C 82.286049 11.990533 86.614006 11.941409 90.941963 11.951234 L 165.06803 11.951234 Z M 165.077876 15.959741 C 169.376317 15.949916 173.674759 15.99904 177.973216 16.087463 C 181.799522 16.175886 185.625827 16.323257 189.452133 16.539402 C 192.835809 16.735898 196.219486 17.010992 199.583486 17.384332 C 202.554026 17.698726 205.514751 18.131016 208.445953 18.681203 C 211.023049 19.152792 213.580483 19.761928 216.098564 20.498786 C 218.321569 21.147221 220.495374 21.952852 222.600334 22.896029 C 224.508571 23.750785 226.338116 24.762737 228.069293 25.922059 C 229.692286 27.012609 231.207063 28.260355 232.59398 29.645648 C 233.980897 31.030941 235.230091 32.543956 236.331763 34.165043 C 237.492434 35.894202 238.505568 37.711787 239.361333 39.607968 C 240.305606 41.720292 241.112187 43.891565 241.761369 46.102139 C 242.508934 48.617282 243.108947 51.161898 243.590914 53.735987 C 244.131912 56.663768 244.564709 59.6112 244.889308 62.578282 C 245.263091 65.938355 245.538505 69.308252 245.735227 72.687976 C 245.951626 76.509812 246.10901 80.321821 246.187687 84.143656 C 246.276225 88.437084 246.325394 92.720685 246.325394 97.014106 C 246.325394 97.014106 246.325394 97.014106 246.325394 97.014106 L 246.325394 155.225886 C 246.325394 155.225886 246.325394 155.225886 246.325394 155.225886 C 246.325394 159.519306 246.276225 163.802907 246.187687 168.096328 C 246.10901 171.918164 245.951626 175.739999 245.735227 179.552015 C 245.538505 182.931739 245.263091 186.301629 244.889308 189.671533 C 244.564709 192.628784 244.131912 195.576216 243.590914 198.503994 C 243.108947 201.078094 242.508934 203.622706 241.761369 206.137845 C 241.112187 208.358253 240.305606 210.5197 239.361333 212.63202 C 238.505568 214.528209 237.492434 216.355617 236.331763 218.074952 C 235.230091 219.705853 233.980897 221.218876 232.59398 222.604172 C 231.207063 223.979634 229.692286 225.227385 228.069293 226.317935 C 226.338116 227.477251 224.508571 228.489201 222.600334 229.343951 C 220.495374 230.296956 218.321569 231.092775 216.098564 231.741198 C 213.580483 232.478056 211.023049 233.087202 208.445953 233.558787 C 205.514751 234.108972 202.554026 234.541264 199.583486 234.865483 C 196.219486 235.228995 192.835809 235.513922 189.452133 235.70058 C 185.625827 235.916726 181.799522 236.073926 177.973216 236.152526 C 173.674759 236.25078 169.376317 236.290072 165.077876 236.290072 C 165.077876 236.290072 165.077876 236.290072 165.06803 236.290072 L 90.941963 236.290072 C 90.932125 236.290072 90.932125 236.290072 90.932125 236.290072 C 86.633683 236.290072 82.335234 236.25078 78.036784 236.152526 C 74.210479 236.073926 70.384173 235.916726 66.557868 235.70058 C 63.174195 235.513922 59.790522 235.228995 56.426518 234.865483 C 53.455967 234.541264 50.495253 234.108972 47.564048 233.558787 C 44.986944 233.087202 42.429517 232.478056 39.911433 231.741198 C 37.688439 231.092775 35.514626 230.296956 33.409665 229.343951 C 31.501429 228.489201 29.671886 227.477251 27.940703 226.317935 C 26.31772 225.227385 24.802935 223.979634 23.416022 222.604172 C 22.029109 221.218876 20.779904 219.705853 19.678243 218.074952 C 18.517564 216.355617 17.504428 214.528209 16.648674 212.63202 C 15.704392 210.5197 14.897819 208.358253 14.248626 206.137845 C 13.50107 203.622706 12.901057 201.078094 12.419081 198.503994 C 11.878086 195.576216 11.445291 192.628784 11.120694 189.671533 C 10.746916 186.301629 10.471501 182.931739 10.274776 179.552015 C 10.058378 175.739999 9.900997 171.918164 9.822307 168.096328 C 9.733781 163.802907 9.6846 159.519306 9.6846 155.225886 C 9.6846 155.225886 9.6846 155.225886 9.6846 155.225886 L 9.6846 97.014106 C 9.6846 97.014106 9.6846 97.014106 9.6846 97.014106 C 9.6846 92.720685 9.733781 88.437084 9.822307 84.143656 C 9.900997 80.321821 10.058378 76.509812 10.274776 72.687976 C 10.471501 69.308252 10.746916 65.938355 11.120694 62.578282 C 11.445291 59.6112 11.878086 56.663768 12.419081 53.735987 C 12.901057 51.161898 13.50107 48.617282 14.248626 46.102139 C 14.897819 43.891565 15.704392 41.720292 16.648674 39.607968 C 17.504428 37.711787 18.517564 35.894202 19.678243 34.165043 C 20.779904 32.543956 22.029109 31.030941 23.416022 29.645648 C 24.802935 28.260355 26.31772 27.012609 27.940703 25.922059 C 29.671886 24.762737 31.501429 23.750785 33.409665 22.896029 C 35.514626 21.952852 37.688439 21.147221 39.911433 20.498786 C 42.429517 19.761928 44.986944 19.152792 47.564048 18.681203 C 50.495253 18.131016 53.455967 17.698726 56.426518 17.384332 C 59.790522 17.010992 63.174195 16.735898 66.557868 16.539402 C 70.384173 16.323257 74.210479 16.175886 78.036784 16.087463 C 82.335234 15.99904 86.633683 15.949916 90.932125 15.959741 C 90.932125 15.959741 90.932125 15.959741 90.941963 15.959741 L 165.06803 15.959741 C 165.077876 15.959741 165.077876 15.959741 165.077876 15.959741 Z"/>
 </g>
 <path fill="#b98756" d="M 55.875 102.375 L 71.25 68.25 L 183.5 68.25 L 200.0625 102.375 L 55.875 102.375 Z"/>
 <path fill="#945f2b" d="M 71.375 68.5 L 71.5 102.375 L 55.875 102.375 L 71.375 68.5 Z"/>
 <path fill="#945f2b" d="M 183.75 68.25 L 183.9375 102.4375 L 200.0625 102.4375 L 183.75 68.25 Z"/>
 <g>
  <path fill="#7a5739" d="M 191.327485 148.02193 L 191.327485 60.890351 C 191.327485 57.442204 188.501254 54.666667 184.990643 54.666667 L 70.927485 54.666667 C 67.416875 54.666667 64.590643 57.442656 64.590643 60.890351 L 64.590643 148.02193 C 64.590643 151.470077 67.416875 154.245614 70.927485 154.245614 L 184.990643 154.245614 C 188.501254 154.245614 191.327485 151.470077 191.327485 148.02193 Z"/>
  <path fill="#d06c48" d="M 191.327485 161.600877 L 191.327485 74.469298 C 191.327485 71.021604 188.501254 68.245614 184.990643 68.245614 L 70.927485 68.245614 C 67.416875 68.245614 64.590643 71.021604 64.590643 74.469298 L 64.590643 161.600877 C 64.590643 165.048572 67.416875 167.824561 70.927485 167.824561 L 184.990643 167.824561 C 188.501254 167.824561 191.327485 165.049025 191.327485 161.600877 Z"/>
  <path fill="#fda463" d="M 191.327485 175.179825 L 191.327485 88.048246 C 191.327485 84.600551 188.501254 81.824561 184.990643 81.824561 L 70.927485 81.824561 C 67.416875 81.824561 64.590643 84.600551 64.590643 88.048246 L 64.590643 175.179825 C 64.590643 178.627972 67.416875 181.403509 70.927485 181.403509 L 184.990643 181.403509 C 188.501254 181.403509 191.327485 178.627972 191.327485 175.179825 Z"/>
  <g opacity=".1">
   <path fill="#ffffff" d="M 70.929253 54.666667 C 67.418643 54.666667 64.590643 57.442656 64.590643 60.890351 L 64.590643 63.153509 C 64.590643 59.705814 67.418643 56.929825 70.929253 56.929825 L 184.988876 56.929825 C 188.499486 56.929825 191.327485 59.705361 191.327485 63.153509 L 191.327485 60.890351 C 191.327485 57.442204 188.499486 54.666667 184.988876 54.666667 L 70.929253 54.666667 Z"/>
  </g>
  <g opacity=".2">
   <path fill="#ffffff" d="M 70.929253 68.245614 C 67.418643 68.245614 64.590643 71.021604 64.590643 74.469298 L 64.590643 76.732456 C 64.590643 73.284761 67.418643 70.508772 70.929253 70.508772 L 184.988876 70.508772 C 188.499486 70.508772 191.327485 73.284761 191.327485 76.732456 L 191.327485 74.469298 C 191.327485 71.021604 188.499486 68.245614 184.988876 68.245614 L 70.929253 68.245614 Z"/>
  </g>
  <g opacity=".2">
   <path fill="#ffffff" d="M 70.929253 81.824561 C 67.418643 81.824561 64.590643 84.600551 64.590643 88.048246 L 64.590643 90.311404 C 64.590643 86.863709 67.418643 84.087719 70.929253 84.087719 L 184.988876 84.087719 C 188.499486 84.087719 191.327485 86.863709 191.327485 90.311404 L 191.327485 88.048246 C 191.327485 84.600551 188.499486 81.824561 184.988876 81.824561 L 70.929253 81.824561 Z"/>
  </g>
 </g>
 <defs>
  <filter id="nUV8Cl5nvtT9JFRnWVoamsvo0MFh9KCF" width="400%" height="400%" x="-200%" y="-200%" color-interpolation-filters="sRGB" filterUnits="objectBoundingBox">
   <feGaussianBlur xmlns="http://www.w3.org/2000/svg" stdDeviation="4.294"/>
  </filter>
 </defs>
 <g opacity=".4" filter="url(#nUV8Cl5nvtT9JFRnWVoamsvo0MFh9KCF)">
  <path fill-rule="evenodd" d="M 56 106 L 200 106 L 200 202.6 L 56 202.6 L 56 106 Z M 115.333333 118.933333 L 140.333333 118.933333 C 143.27688 118.933333 145.666667 121.32312 145.666667 124.266667 L 145.666667 124.266667 C 145.666667 127.210213 143.27688 129.6 140.333333 129.6 L 115.333333 129.6 C 112.389787 129.6 110 127.210213 110 124.266667 L 110 124.266667 C 110 121.32312 112.389787 118.933333 115.333333 118.933333 Z"/>
 </g>
 <path fill="#a26f3d" fill-rule="evenodd" d="M 56 102.400002 L 200 102.400002 L 200 199 L 56 199 L 56 102.400002 Z M 115.333336 115.333336 L 140.333328 115.333336 C 143.276886 115.333336 145.666672 117.723122 145.666672 120.666664 L 145.666672 120.666664 C 145.666672 123.610214 143.276886 126 140.333328 126 L 115.333336 126 C 112.389786 126 110 123.610214 110 120.666664 L 110 120.666664 C 110 117.723122 112.389786 115.333336 115.333336 115.333336 Z"/>
 <g opacity=".4">
  <path fill="#ffffff" d="M 148.17498 187.89822 C 147.734182 187.838045 147.328362 187.625432 147.027963 187.297274 C 146.342703 186.562158 145.215761 184.401968 144.290926 182.051063 C 143.771955 180.731726 142.778526 177.825714 142.778526 177.627631 C 142.778526 177.564725 143.433678 177.131749 144.235045 176.665315 L 145.691901 175.816767 L 145.920433 176.031581 C 146.825194 176.880466 149.430736 180.772546 150.949829 183.543382 C 151.557464 184.651581 151.618364 184.80985 151.615683 185.266578 C 151.612676 185.875555 151.421614 186.3005 150.879561 186.902784 C 150.230433 187.62485 149.11186 188.036409 148.17498 187.898557 L 148.17498 187.89822 L 148.17498 187.89822 Z M 104.877884 187.17548 C 104.905322 187.100866 105.348669 185.100952 105.863285 182.731304 C 106.377903 180.361656 106.810207 178.408591 106.823591 178.390854 C 106.870101 178.331297 111.524743 181.596673 111.524074 181.68835 C 111.523405 181.737874 110.177971 182.894592 108.534074 184.258092 C 104.832379 187.328393 104.816987 187.340442 104.877884 187.175148 L 104.877884 187.17548 L 104.877884 187.17548 Z M 109.807901 178.814793 C 108.510652 177.918064 107.459669 177.146473 107.472384 177.100298 C 107.502497 176.989879 118.645396 158.127725 118.737412 158.031696 C 118.787937 157.978828 123.657058 161.040431 123.885256 161.268629 C 123.934441 161.317817 112.348531 180.40315 112.256849 180.424563 C 112.206661 180.436275 111.104819 179.71186 109.807567 178.81513 L 109.807901 178.814793 L 109.807901 178.814793 Z M 140.390477 173.830571 C 139.501437 172.331558 138.787065 171.095541 138.803127 171.084165 C 138.961391 170.972408 142.33083 169.0354 142.36663 169.0354 C 142.422843 169.0354 145.25123 174.669082 145.209742 174.698194 C 144.845022 174.952489 142.145123 176.562595 142.08791 176.559915 C 142.043741 176.557571 141.279844 175.329585 140.390477 173.830571 Z M 103.823555 173.547833 C 103.792772 173.285838 103.779723 171.175173 103.794445 168.857056 L 103.821212 164.642416 L 108.492583 164.671525 C 111.061988 164.686248 113.174662 164.70967 113.188047 164.722719 C 113.201097 164.734432 111.964744 166.833722 110.4403 169.38539 L 107.669129 174.024973 L 103.879769 174.024973 L 103.823555 173.547833 L 103.823555 173.547833 Z M 117.834992 173.88946 C 117.834992 173.866372 119.103801 171.763406 120.654676 169.218426 L 123.474029 164.590887 L 133.482292 164.590887 L 136.157434 169.046438 C 137.628672 171.497061 138.885102 173.599027 138.949015 173.717477 L 139.065121 173.933296 L 128.45022 173.933296 C 122.611763 173.933296 117.834992 173.912884 117.834992 173.889797 L 117.834992 173.88946 Z M 145.140811 171.915313 C 144.602102 170.805108 143.587592 168.723217 142.886938 167.289112 L 141.613108 164.681563 L 145.075566 164.681563 C 146.979781 164.681229 149.364486 164.654797 150.374646 164.621335 L 152.21161 164.562112 L 152.21161 173.933296 L 146.120527 173.933296 L 145.140811 171.915313 L 145.140811 171.915313 Z M 137.410178 168.921969 C 135.359074 165.690723 133.270159 161.894335 130.759305 156.835829 C 128.767427 152.82262 126.850828 148.674231 126.059831 146.663944 C 124.913485 143.751573 124.640115 141.941045 125.320359 141.770399 C 126.408485 141.497364 128.53822 143.968731 131.569714 149.022217 C 133.944712 152.981221 137.744779 159.899439 140.644435 165.543161 C 141.182812 166.590802 141.719177 167.617694 141.83629 167.824476 L 142.049766 168.200903 L 140.242583 169.253226 C 139.248479 169.831748 138.402275 170.305212 138.361787 170.305212 C 138.3213 170.305212 137.893342 169.682853 137.410178 168.921969 Z M 121.710012 158.909688 L 119.190461 157.248393 L 119.42803 156.871632 C 119.559193 156.664513 120.219027 155.612192 120.894587 154.533772 C 121.309356 153.868965 121.72672 153.205779 122.146667 152.544232 C 122.160049 152.52951 123.294684 153.255929 124.668891 154.160355 L 127.167695 155.805593 L 126.795618 156.411221 C 126.591511 156.744484 125.975843 157.751967 125.428437 158.649705 C 124.880694 159.547775 124.386823 160.347472 124.330945 160.426438 C 124.243279 160.55091 123.883915 160.342788 121.710012 158.909688 Z M 124.925529 153.516583 C 123.619917 152.663683 122.551534 151.925554 122.551534 151.876032 C 122.551534 151.516337 123.630958 150.515208 124.162973 150.381701 C 125.038292 150.162203 126.474067 150.723665 127.273764 151.598647 C 127.891773 152.274543 128.027286 152.605463 127.969736 153.298423 C 127.926236 153.820735 127.499953 155.067127 127.365109 155.067127 C 127.328974 155.067127 126.231479 154.369146 124.925866 153.516583 L 124.925529 153.516583 L 124.925529 153.516583 Z"/>
 </g>
 <g>
  <linearGradient id="_lgradient_149" x1="0" x2="-.04" y1="-.19" y2="1.45" gradientTransform="matrix(50,0,0,50,158.5,158.5)" gradientUnits="userSpaceOnUse">
   <stop offset="0%" style="stop-color:#00f260"/>
   <stop offset="100%" style="stop-color:#0575e6"/>
  </linearGradient>
  <circle fill="url(#_lgradient_149)" cx="183.5" cy="183.5" r="25" vector-effect="non-scaling-stroke"/>
  <path fill="#ffffff" d="M 171 183.5 C 171 190.403468 176.596532 196 183.5 196 C 190.333331 196 195.875694 190.982635 195.987496 184.175699 C 195.995136 184.10694 196 184.037501 196 183.968053 C 196 182.81736 194.806943 181.9375 193.65625 181.9375 C 192.505557 181.9375 191.3125 182.81736 191.3125 183.968053 C 191.3125 188.570135 188.102782 191.3125 183.5 191.3125 C 178.897917 191.3125 175.6875 188.102782 175.6875 183.5 C 175.6875 178.897917 178.897917 175.6875 183.5 175.6875 L 183.5 180.375 L 192.875 173.34375 L 183.501388 166.3125 L 183.501388 170.997913 C 176.59792 170.997913 171.001388 176.594444 171.001388 183.497913 L 171 183.5 Z"/>
 </g>
</svg>
