<svg xmlns="http://www.w3.org/2000/svg" style="isolation:isolate" width="256" height="256" viewBox="0 0 256 256">
 <defs>
  <clipPath id="_clipPath_xOcycSRmwd2pHJkT39zJlUQQvKbgtrDc">
   <rect width="256" height="256"/>
  </clipPath>
 </defs>
 <g clip-path="url(#_clipPath_xOcycSRmwd2pHJkT39zJlUQQvKbgtrDc)">
  <defs>
   <filter id="3gJ9cXQyueK35qw59jBrDtMRATKzPpjb" width="400%" height="400%" x="-200%" y="-200%" color-interpolation-filters="sRGB" filterUnits="objectBoundingBox">
    <feGaussianBlur xmlns="http://www.w3.org/2000/svg" in="SourceGraphic" stdDeviation="4.294"/>
    <feOffset xmlns="http://www.w3.org/2000/svg" dx="0" dy="4" result="pf_100_offsetBlur"/>
    <feFlood xmlns="http://www.w3.org/2000/svg" flood-opacity=".4"/>
    <feComposite xmlns="http://www.w3.org/2000/svg" in2="pf_100_offsetBlur" operator="in" result="pf_100_dropShadow"/>
    <feBlend xmlns="http://www.w3.org/2000/svg" in="SourceGraphic" in2="pf_100_dropShadow" mode="normal"/>
   </filter>
  </defs>
  <g filter="url(#3gJ9cXQyueK35qw59jBrDtMRATKzPpjb)">
   <path fill="#d9c813" d="M 165.685 11.947 C 239.74 11.947 250.324 22.504 250.324 96.491 L 250.324 155.742 C 250.324 229.728 239.74 240.285 165.685 240.285 L 90.315 240.285 C 16.26 240.285 5.676 229.728 5.676 155.742 L 5.676 96.491 C 5.676 22.504 16.26 11.947 90.315 11.947 L 165.685 11.947 Z"/>
  </g>
  <defs>
   <filter id="cF8d2mpQAKP9tV5lNDYR4zw5cesRedRa" width="400%" height="400%" x="-200%" y="-200%" color-interpolation-filters="sRGB" filterUnits="objectBoundingBox">
    <feGaussianBlur xmlns="http://www.w3.org/2000/svg" in="SourceGraphic" stdDeviation="4.294"/>
    <feOffset xmlns="http://www.w3.org/2000/svg" dx="0" dy="4" result="pf_100_offsetBlur"/>
    <feFlood xmlns="http://www.w3.org/2000/svg" flood-opacity=".4"/>
    <feComposite xmlns="http://www.w3.org/2000/svg" in2="pf_100_offsetBlur" operator="in" result="pf_100_dropShadow"/>
    <feBlend xmlns="http://www.w3.org/2000/svg" in="SourceGraphic" in2="pf_100_dropShadow" mode="normal"/>
   </filter>
  </defs>
  <g filter="url(#cF8d2mpQAKP9tV5lNDYR4zw5cesRedRa)">
   <linearGradient id="_lgradient_15" x1="0" x2="0" y1="0" y2="1" gradientTransform="matrix(244.648,0,0,228.338,5.68,11.95)" gradientUnits="userSpaceOnUse">
    <stop offset="0%" style="stop-color:#ff7b57"/>
    <stop offset="50%" style="stop-color:#ff5151"/>
    <stop offset="100%" style="stop-color:#f50f0f"/>
   </linearGradient>
   <path fill="url(#_lgradient_15)" d="M 165.689 11.95 C 239.745 11.95 250.328 22.507 250.328 96.494 L 250.328 155.745 C 250.328 229.731 239.745 240.288 165.689 240.288 L 90.319 240.288 C 16.264 240.288 5.68 229.731 5.68 155.745 L 5.68 96.494 C 5.68 22.507 16.264 11.95 90.319 11.95 L 165.689 11.95 Z"/>
  </g>
  <g opacity=".4">
   <linearGradient id="_lgradient_16" x1=".517" x2=".517" y1="0" y2="1" gradientTransform="matrix(244.65,0,0,228.34,5.68,11.95)" gradientUnits="userSpaceOnUse">
    <stop offset="0%" style="stop-color:#ffffff"/>
    <stop offset="12.5%" stop-opacity=".098" style="stop-color:#ffffff"/>
    <stop offset="92.5%" stop-opacity=".098" style="stop-color:#000000"/>
    <stop offset="100%" stop-opacity=".498" style="stop-color:#000000"/>
   </linearGradient>
   <path fill="url(#_lgradient_16)" fill-rule="evenodd" d="M 165.068 11.951 C 169.396 11.941 173.724 11.991 178.052 12.089 C 181.927 12.167 185.803 12.315 189.678 12.541 C 193.131 12.737 196.583 13.022 200.026 13.395 C 203.085 13.73 206.144 14.181 209.174 14.741 C 211.889 15.243 214.574 15.881 217.22 16.657 C 219.62 17.355 221.971 18.219 224.243 19.241 C 226.358 20.184 228.384 21.304 230.302 22.591 C 232.142 23.829 233.863 25.244 235.437 26.806 C 237.001 28.378 238.417 30.088 239.656 31.925 C 240.945 33.841 242.066 35.865 243.02 37.967 C 244.043 40.247 244.909 42.585 245.617 44.972 C 246.394 47.615 247.034 50.297 247.535 53.009 C 248.096 56.035 248.548 59.081 248.883 62.136 C 249.257 65.575 249.542 69.014 249.739 72.462 C 249.965 76.323 250.112 80.194 250.201 84.055 C 250.289 88.378 250.339 92.701 250.329 97.014 L 250.329 155.226 C 250.339 159.549 250.289 163.862 250.201 168.185 C 250.112 172.056 249.965 175.917 249.739 179.778 C 249.542 183.226 249.257 186.675 248.883 190.104 C 248.548 193.159 248.096 196.215 247.535 199.241 C 247.034 201.943 246.394 204.625 245.617 207.268 C 244.909 209.655 244.043 212.003 243.02 214.273 C 242.066 216.385 240.945 218.399 239.656 220.315 C 238.417 222.152 237.001 223.872 235.437 225.434 C 233.863 226.996 232.142 228.411 230.302 229.649 C 228.384 230.936 226.358 232.056 224.243 232.999 C 221.971 234.021 219.62 234.885 217.22 235.593 C 214.574 236.369 211.889 237.007 209.174 237.499 C 206.144 238.068 203.085 238.51 200.026 238.845 C 196.583 239.218 193.131 239.503 189.678 239.699 C 185.803 239.925 181.927 240.073 178.052 240.161 C 173.724 240.249 169.396 240.299 165.068 240.289 L 90.942 240.289 C 86.614 240.299 82.286 240.249 77.958 240.161 C 74.083 240.073 70.207 239.925 66.332 239.699 C 62.879 239.503 59.427 239.218 55.984 238.845 C 52.925 238.51 49.866 238.068 46.836 237.499 C 44.121 237.007 41.436 236.369 38.79 235.593 C 36.39 234.885 34.039 234.021 31.767 232.999 C 29.652 232.056 27.626 230.936 25.708 229.649 C 23.868 228.411 22.147 226.996 20.573 225.434 C 19.009 223.872 17.593 222.152 16.354 220.315 C 15.065 218.399 13.944 216.385 12.99 214.273 C 11.967 212.003 11.101 209.655 10.393 207.268 C 9.616 204.625 8.976 201.943 8.475 199.241 C 7.914 196.215 7.462 193.159 7.127 190.104 C 6.753 186.675 6.468 183.226 6.271 179.778 C 6.045 175.917 5.898 172.056 5.809 168.185 C 5.721 163.862 5.671 159.549 5.681 155.226 L 5.681 97.014 C 5.671 92.701 5.721 88.378 5.809 84.055 C 5.898 80.194 6.045 76.323 6.271 72.462 C 6.468 69.014 6.753 65.575 7.127 62.136 C 7.462 59.081 7.914 56.035 8.475 53.009 C 8.976 50.297 9.616 47.615 10.393 44.972 C 11.101 42.585 11.967 40.247 12.99 37.967 C 13.944 35.865 15.065 33.841 16.354 31.925 C 17.593 30.088 19.009 28.378 20.573 26.806 C 22.147 25.244 23.868 23.829 25.708 22.591 C 27.626 21.304 29.652 20.184 31.767 19.241 C 34.039 18.219 36.39 17.355 38.79 16.657 C 41.436 15.881 44.121 15.243 46.836 14.741 C 49.866 14.181 52.925 13.73 55.984 13.395 C 59.427 13.022 62.879 12.737 66.332 12.541 C 70.207 12.315 74.083 12.167 77.958 12.089 C 82.286 11.991 86.614 11.941 90.942 11.951 L 165.068 11.951 Z M 165.078 15.96 C 169.376 15.95 173.675 15.999 177.973 16.087 C 181.8 16.176 185.626 16.323 189.452 16.539 C 192.836 16.736 196.219 17.011 199.583 17.384 C 202.554 17.699 205.515 18.131 208.446 18.681 C 211.023 19.153 213.58 19.762 216.099 20.499 C 218.322 21.147 220.495 21.953 222.6 22.896 C 224.509 23.751 226.338 24.763 228.069 25.922 C 229.692 27.013 231.207 28.26 232.594 29.646 C 233.981 31.031 235.23 32.544 236.332 34.165 C 237.492 35.894 238.506 37.712 239.361 39.608 C 240.306 41.72 241.112 43.892 241.761 46.102 C 242.509 48.617 243.109 51.162 243.591 53.736 C 244.132 56.664 244.565 59.611 244.889 62.578 C 245.263 65.938 245.539 69.308 245.735 72.688 C 245.952 76.51 246.109 80.322 246.188 84.144 C 246.276 88.437 246.325 92.721 246.325 97.014 C 246.325 97.014 246.325 97.014 246.325 97.014 L 246.325 155.226 C 246.325 155.226 246.325 155.226 246.325 155.226 C 246.325 159.519 246.276 163.803 246.188 168.096 C 246.109 171.918 245.952 175.74 245.735 179.552 C 245.539 182.932 245.263 186.302 244.889 189.672 C 244.565 192.629 244.132 195.576 243.591 198.504 C 243.109 201.078 242.509 203.623 241.761 206.138 C 241.112 208.358 240.306 210.52 239.361 212.632 C 238.506 214.528 237.492 216.356 236.332 218.075 C 235.23 219.706 233.981 221.219 232.594 222.604 C 231.207 223.98 229.692 225.227 228.069 226.318 C 226.338 227.477 224.509 228.489 222.6 229.344 C 220.495 230.297 218.322 231.093 216.099 231.741 C 213.58 232.478 211.023 233.087 208.446 233.559 C 205.515 234.109 202.554 234.541 199.583 234.865 C 196.219 235.229 192.836 235.514 189.452 235.701 C 185.626 235.917 181.8 236.074 177.973 236.153 C 173.675 236.251 169.376 236.29 165.078 236.29 C 165.078 236.29 165.078 236.29 165.068 236.29 L 90.942 236.29 C 90.932 236.29 90.932 236.29 90.932 236.29 C 86.634 236.29 82.335 236.251 78.037 236.153 C 74.21 236.074 70.384 235.917 66.558 235.701 C 63.174 235.514 59.791 235.229 56.427 234.865 C 53.456 234.541 50.495 234.109 47.564 233.559 C 44.987 233.087 42.43 232.478 39.911 231.741 C 37.688 231.093 35.515 230.297 33.41 229.344 C 31.501 228.489 29.672 227.477 27.941 226.318 C 26.318 225.227 24.803 223.98 23.416 222.604 C 22.029 221.219 20.78 219.706 19.678 218.075 C 18.518 216.356 17.504 214.528 16.649 212.632 C 15.704 210.52 14.898 208.358 14.249 206.138 C 13.501 203.623 12.901 201.078 12.419 198.504 C 11.878 195.576 11.445 192.629 11.121 189.672 C 10.747 186.302 10.472 182.932 10.275 179.552 C 10.058 175.74 9.901 171.918 9.822 168.096 C 9.734 163.803 9.685 159.519 9.685 155.226 C 9.685 155.226 9.685 155.226 9.685 155.226 L 9.685 97.014 C 9.685 97.014 9.685 97.014 9.685 97.014 C 9.685 92.721 9.734 88.437 9.822 84.144 C 9.901 80.322 10.058 76.51 10.275 72.688 C 10.472 69.308 10.747 65.938 11.121 62.578 C 11.445 59.611 11.878 56.664 12.419 53.736 C 12.901 51.162 13.501 48.617 14.249 46.102 C 14.898 43.892 15.704 41.72 16.649 39.608 C 17.504 37.712 18.518 35.894 19.678 34.165 C 20.78 32.544 22.029 31.031 23.416 29.646 C 24.803 28.26 26.318 27.013 27.941 25.922 C 29.672 24.763 31.501 23.751 33.41 22.896 C 35.515 21.953 37.688 21.147 39.911 20.499 C 42.43 19.762 44.987 19.153 47.564 18.681 C 50.495 18.131 53.456 17.699 56.427 17.384 C 59.791 17.011 63.174 16.736 66.558 16.539 C 70.384 16.323 74.21 16.176 78.037 16.087 C 82.335 15.999 86.634 15.95 90.932 15.96 C 90.932 15.96 90.932 15.96 90.942 15.96 L 165.068 15.96 C 165.078 15.96 165.078 15.96 165.078 15.96 Z"/>
  </g>
  <g>
   <defs>
    <filter id="6w3VOencnkAwGXx2XFWYL82h7Etd2TZh" width="400%" height="400%" x="-200%" y="-200%" color-interpolation-filters="sRGB" filterUnits="objectBoundingBox">
     <feGaussianBlur xmlns="http://www.w3.org/2000/svg" stdDeviation="4.294"/>
    </filter>
   </defs>
   <g opacity=".4" filter="url(#6w3VOencnkAwGXx2XFWYL82h7Etd2TZh)">
    <path d="M 86.08 88.192 C 63.666 88.192 45.5 107.087 45.5 129.385 C 45.5 151.683 63.667 170.568 86.08 170.568 L 150.157 170.568 C 152.143 170.596 153.991 169.552 154.992 167.837 C 155.994 166.121 155.994 163.999 154.992 162.283 C 153.991 160.567 152.143 159.523 150.157 159.552 L 86.08 159.552 C 69.902 159.552 56.516 145.68 56.516 129.385 C 56.516 113.091 69.902 99.208 86.08 99.208 L 169.694 99.208 C 185.872 99.208 199.483 113.134 199.483 129.385 C 199.483 136.346 196.031 144.167 190.726 149.955 C 185.422 155.743 178.53 159.264 172.362 159.089 C 170.35 158.958 168.427 159.936 167.348 161.64 C 166.27 163.344 166.209 165.501 167.189 167.263 C 168.169 169.026 170.034 170.112 172.05 170.095 C 182.39 170.388 191.889 164.994 198.849 157.4 C 205.808 149.806 210.5 139.788 210.5 129.385 C 210.5 107.044 192.108 88.192 169.694 88.192 L 86.08 88.192 Z"/>
   </g>
   <path d="M 79.141 96.209 L 177.129 96.209 C 189.609 96.209 199.742 106.341 199.742 118.822 L 199.742 134.186 C 199.742 146.667 189.609 156.799 177.129 156.799 L 79.141 156.799 C 66.66 156.799 56.527 146.667 56.527 134.186 L 56.527 118.822 C 56.527 106.341 66.66 96.209 79.141 96.209 Z" style="fill:#ffffff"/>
   <linearGradient id="_lgradient_17" x1="0" x2="0" y1="0" y2="1" gradientTransform="matrix(164.995,0,0,82.372,45.5,85.437)" gradientUnits="userSpaceOnUse">
    <stop offset="0%" style="stop-color:#ffec57"/>
    <stop offset="50%" style="stop-color:#ffc551"/>
    <stop offset="100%" style="stop-color:#f5a90f"/>
   </linearGradient>
   <path fill="url(#_lgradient_17)" d="M 86.079 85.437 C 63.665 85.437 45.5 104.324 45.5 126.622 C 45.5 148.92 63.665 167.808 86.079 167.808 L 150.156 167.808 C 152.145 167.841 153.998 166.798 155.002 165.08 C 156.006 163.363 156.006 161.237 155.002 159.519 C 153.998 157.802 152.145 156.759 150.156 156.792 L 86.079 156.792 C 69.9 156.792 56.516 142.917 56.516 126.622 C 56.516 110.328 69.9 96.453 86.079 96.453 L 169.696 96.453 C 185.874 96.453 199.479 110.371 199.479 126.622 C 199.479 133.583 196.034 141.406 190.729 147.194 C 185.424 152.981 178.528 156.505 172.36 156.33 C 170.366 156.231 168.476 157.219 167.417 158.911 C 166.359 160.603 166.299 162.735 167.26 164.484 C 168.221 166.234 170.053 167.326 172.048 167.341 C 182.388 167.634 191.89 162.232 198.85 154.638 C 205.81 147.044 210.495 137.025 210.495 126.622 C 210.495 104.281 192.11 85.437 169.696 85.437 L 86.079 85.437 Z"/>
   <linearGradient id="_lgradient_18" x1="0" x2="0" y1="0" y2="1" gradientTransform="matrix(35.068,0,0,35,62.024,107.22)" gradientUnits="userSpaceOnUse">
    <stop offset="0%" style="stop-color:#d0391f"/>
    <stop offset="100%" style="stop-color:#ff005d"/>
   </linearGradient>
   <path fill="url(#_lgradient_18)" d="M 81.495 107.285 C 79.294 107.088 77.007 107.332 74.738 108.085 C 73.598 108.453 72.743 109.404 72.498 110.576 C 72.253 111.749 72.656 112.963 73.554 113.756 C 74.451 114.549 75.705 114.8 76.839 114.413 C 82.632 112.491 87.876 115.36 89.867 121.278 C 91.792 127.001 88.735 133.062 82.992 134.994 C 77.272 136.918 71.221 133.868 69.287 128.129 C 68.723 126.404 68.593 123.549 68.921 121.907 C 69.162 120.737 68.758 119.526 67.862 118.735 C 66.966 117.944 65.715 117.693 64.583 118.077 C 63.451 118.461 62.611 119.422 62.383 120.596 C 61.778 123.618 61.919 127.081 62.953 130.225 C 62.955 130.233 62.956 130.242 62.958 130.25 C 66.027 139.376 75.971 144.389 85.118 141.313 C 94.244 138.243 99.262 128.299 96.186 119.153 C 93.928 112.44 88.098 107.877 81.495 107.285 L 81.495 107.285 Z"/>
   <g opacity=".2">
    <path fill="#ffffff" d="M 86.079 85.431 C 63.665 85.431 45.5 104.33 45.5 126.628 C 45.5 127.09 45.543 127.545 45.57 128.003 C 46.303 106.313 64.131 88.187 86.079 88.187 L 169.696 88.187 C 191.62 88.187 209.645 106.231 210.425 127.927 C 210.453 127.494 210.5 127.063 210.5 126.628 C 210.5 104.287 192.11 85.431 169.696 85.431 L 86.079 85.431 Z"/>
   </g>
   <linearGradient id="_lgradient_19" x1=".5" x2=".5" y1="0" y2="1" gradientTransform="matrix(27.543,0,0,27.581,101.129,112.689)" gradientUnits="userSpaceOnUse">
    <stop offset="0%" style="stop-color:#1ad6ab"/>
    <stop offset="100%" style="stop-color:#329db6"/>
   </linearGradient>
   <path fill="url(#_lgradient_19)" d="M 117.656 119.849 L 117.656 115.483 C 117.666 114.738 117.375 114.02 116.847 113.494 C 116.32 112.968 115.602 112.678 114.857 112.69 C 113.337 112.713 112.124 113.963 112.145 115.483 L 112.145 119.849 L 109.057 116.761 C 108.537 116.228 107.824 115.928 107.08 115.928 C 105.961 115.931 104.954 116.61 104.533 117.647 C 104.112 118.685 104.361 119.874 105.163 120.655 L 108.251 123.743 L 103.884 123.743 C 102.363 123.743 101.129 124.977 101.129 126.499 C 101.129 128.021 102.363 129.254 103.884 129.254 L 108.251 129.254 L 105.163 132.343 C 104.437 133.032 104.143 134.061 104.393 135.029 C 104.644 135.998 105.401 136.755 106.37 137.006 C 107.339 137.256 108.367 136.962 109.057 136.237 L 112.145 133.148 L 112.145 137.515 C 112.145 138.499 112.67 139.409 113.523 139.901 C 114.375 140.393 115.426 140.393 116.278 139.901 C 117.131 139.409 117.656 138.499 117.656 137.515 L 117.656 133.148 L 120.744 136.237 C 121.434 136.962 122.462 137.257 123.431 137.006 C 124.4 136.755 125.157 135.998 125.407 135.029 C 125.658 134.061 125.364 133.032 124.638 132.343 L 121.55 129.254 L 125.917 129.254 C 127.438 129.254 128.672 128.021 128.672 126.499 C 128.672 124.977 127.438 123.743 125.917 123.743 L 121.55 123.743 L 124.638 120.655 C 125.452 119.863 125.696 118.652 125.253 117.607 C 124.809 116.561 123.77 115.895 122.635 115.928 C 121.92 115.95 121.242 116.249 120.744 116.761 L 117.656 119.849 Z"/>
   <linearGradient id="_lgradient_20" x1=".5" x2=".5" y1="0" y2="1" gradientTransform="matrix(27.548,0,0,27.677,134.215,112.689)" gradientUnits="userSpaceOnUse">
    <stop offset="0%" style="stop-color:#1ad6ab"/>
    <stop offset="100%" style="stop-color:#329db6"/>
   </linearGradient>
   <path fill="url(#_lgradient_20)" d="M 150.742 119.85 L 150.742 115.483 C 150.752 114.739 150.461 114.022 149.935 113.496 C 149.409 112.97 148.693 112.679 147.949 112.69 C 146.429 112.713 145.215 113.963 145.236 115.483 L 145.236 119.85 L 142.148 116.761 C 141.629 116.228 140.916 115.928 140.171 115.928 C 139.052 115.931 138.045 116.61 137.624 117.647 C 137.204 118.685 137.452 119.874 138.254 120.655 L 141.341 123.743 L 136.97 123.743 C 135.448 123.743 134.215 124.977 134.215 126.499 C 134.215 128.021 135.448 129.254 136.97 129.254 L 141.341 129.254 L 138.254 132.343 C 137.528 133.032 137.234 134.061 137.485 135.029 C 137.736 135.998 138.492 136.755 139.461 137.006 C 140.43 137.256 141.459 136.962 142.148 136.237 L 145.236 133.147 L 145.236 137.515 C 145.201 138.521 145.718 139.467 146.584 139.981 C 147.45 140.495 148.528 140.495 149.394 139.981 C 150.26 139.467 150.777 138.521 150.742 137.515 L 150.742 133.147 L 153.83 136.237 C 154.519 136.962 155.548 137.257 156.517 137.006 C 157.486 136.755 158.242 135.998 158.493 135.029 C 158.744 134.061 158.45 133.032 157.724 132.343 L 154.637 129.254 L 159.008 129.254 C 160.53 129.254 161.763 128.021 161.763 126.499 C 161.763 124.977 160.53 123.743 159.008 123.743 L 154.637 123.743 L 157.724 120.655 C 158.537 119.863 158.781 118.654 158.339 117.609 C 157.898 116.564 156.86 115.897 155.726 115.928 C 155.01 115.949 154.33 116.247 153.83 116.761 L 150.742 119.85 Z"/>
   <linearGradient id="_lgradient_21" x1=".5" x2=".5" y1="0" y2="1" gradientTransform="matrix(27.543,0,0,27.677,167.269,112.689)" gradientUnits="userSpaceOnUse">
    <stop offset="0%" style="stop-color:#1ad6ab"/>
    <stop offset="100%" style="stop-color:#329db6"/>
   </linearGradient>
   <path fill="url(#_lgradient_21)" d="M 183.79 119.85 L 183.79 115.483 C 183.801 114.739 183.51 114.022 182.984 113.496 C 182.457 112.97 181.741 112.679 180.997 112.69 C 179.477 112.713 178.263 113.963 178.285 115.483 L 178.285 119.849 L 175.196 116.761 C 174.677 116.228 173.964 115.928 173.22 115.928 C 172.1 115.931 171.094 116.61 170.673 117.647 C 170.252 118.685 170.501 119.874 171.302 120.655 L 174.39 123.743 L 170.024 123.743 C 168.502 123.743 167.269 124.977 167.269 126.499 C 167.269 128.021 168.502 129.254 170.024 129.254 L 174.39 129.254 L 171.302 132.343 C 170.577 133.032 170.282 134.061 170.533 135.029 C 170.784 135.998 171.541 136.755 172.509 137.006 C 173.478 137.256 174.507 136.962 175.196 136.237 L 178.285 133.148 L 178.285 137.515 C 178.249 138.521 178.766 139.467 179.632 139.981 C 180.499 140.495 181.576 140.495 182.443 139.981 C 183.309 139.467 183.826 138.521 183.79 137.515 L 183.79 133.147 L 186.878 136.237 C 187.574 136.933 188.588 137.206 189.54 136.952 C 190.491 136.698 191.234 135.955 191.489 135.005 C 191.745 134.054 191.474 133.039 190.778 132.343 L 187.689 129.254 L 192.056 129.254 C 193.578 129.254 194.812 128.021 194.812 126.499 C 194.812 124.977 193.578 123.743 192.056 123.743 L 187.689 123.743 L 190.778 120.655 C 191.591 119.863 191.835 118.652 191.392 117.607 C 190.949 116.561 189.91 115.895 188.774 115.928 C 188.058 115.949 187.378 116.247 186.878 116.761 L 183.79 119.85 Z"/>
  </g>
 </g>
</svg>
