<svg xmlns="http://www.w3.org/2000/svg" style="isolation:isolate" width="256" height="256" viewBox="0 0 256 256">
 <defs>
  <filter id="7XW5sQI8FvKjeVJyWQjo1PIuTc0jjvRS" width="400%" height="400%" x="-200%" y="-200%" color-interpolation-filters="sRGB" filterUnits="objectBoundingBox">
   <feGaussianBlur xmlns="http://www.w3.org/2000/svg" in="SourceGraphic" stdDeviation="2.147"/>
   <feOffset xmlns="http://www.w3.org/2000/svg" dx="0" dy="0" result="pf_100_offsetBlur"/>
   <feFlood xmlns="http://www.w3.org/2000/svg" flood-opacity=".65"/>
   <feComposite xmlns="http://www.w3.org/2000/svg" in2="pf_100_offsetBlur" operator="in" result="pf_100_dropShadow"/>
   <feBlend xmlns="http://www.w3.org/2000/svg" in="SourceGraphic" in2="pf_100_dropShadow" mode="normal"/>
  </filter>
 </defs>
 <g filter="url(#7XW5sQI8FvKjeVJyWQjo1PIuTc0jjvRS)">
  <linearGradient id="_lgradient_4" x1="0" x2="0" y1="0" y2="1" gradientTransform="matrix(244.648309,0,0,228.338396,5.68,11.95)" gradientUnits="userSpaceOnUse">
   <stop offset="0%" style="stop-color:#edc268"/>
   <stop offset="100%" style="stop-color:#9b7424"/>
  </linearGradient>
  <path fill="url(#_lgradient_4)" d="M 165.688919 11.95 C 239.744626 11.95 250.328309 22.507198 250.328309 96.493859 L 250.328309 155.744653 C 250.328309 229.73091 239.744626 240.288396 165.688919 240.288396 L 90.319393 240.288396 C 16.26369 240.288396 5.68 229.73091 5.68 155.744653 L 5.68 96.493859 C 5.68 22.507198 16.26369 11.95 90.319393 11.95 L 165.688919 11.95 Z"/>
 </g>
 <g>
  <path d="M 71.964891 60.5 L 184.035031 60.5 C 189.544489 60.5 194.017469 64.972981 194.017469 70.482438 L 194.017469 183.017562 C 194.017469 188.527019 189.544489 193 184.035031 193 L 71.964891 193 C 66.455434 193 61.982453 188.527019 61.982453 183.017562 L 61.982453 70.482438 C 61.982453 64.972981 66.455434 60.5 71.964891 60.5 Z" style="fill:#5d5d5d"/>
  <defs>
   <filter id="x5a7rE9DFxkaBBh78qEcPjvkjDB429xQ" width="400%" height="400%" x="-200%" y="-200%" color-interpolation-filters="sRGB" filterUnits="objectBoundingBox">
    <feGaussianBlur xmlns="http://www.w3.org/2000/svg" stdDeviation="4.294"/>
   </filter>
  </defs>
  <g opacity=".4" filter="url(#x5a7rE9DFxkaBBh78qEcPjvkjDB429xQ)">
   <path d="M 60.527616 58 C 58.572419 58 57 59.57795 57 61.54005 L 57 96.95995 C 57 98.922075 58.572419 100.5 60.527616 100.5 L 95.823237 100.5 C 97.778437 100.5 99.350854 98.922075 99.350854 96.95995 L 99.350854 61.54005 C 99.350854 59.57795 97.778437 58 95.823237 58 L 60.527616 58 Z M 110.352151 58 C 108.396954 58 106.824534 59.577975 106.824534 61.54005 L 106.824534 96.95995 C 106.824534 98.922075 108.396954 100.5 110.352151 100.5 L 145.647772 100.5 C 147.602969 100.5 149.175388 98.922075 149.175388 96.95995 L 149.175388 61.54005 C 149.175388 59.577975 147.602969 58 145.647772 58 L 110.352151 58 Z M 160.176686 58 C 158.221489 58 156.649069 59.577975 156.649069 61.54005 L 156.649069 96.95995 C 156.649069 98.922075 158.221489 100.5 160.176686 100.5 L 195.472306 100.5 C 197.4275 100.5 198.999923 98.922075 198.999923 96.95995 L 198.999923 61.54005 C 198.999923 59.577975 197.4275 58 195.472306 58 L 160.176686 58 Z M 60.527616 108 C 58.572419 108 57 109.57795 57 111.54005 L 57 146.95995 C 57 148.92205 58.572419 150.5 60.527616 150.5 L 95.823237 150.5 C 97.778437 150.5 99.350854 148.92205 99.350854 146.95995 L 99.350854 111.54005 C 99.350854 109.57795 97.778437 108 95.823237 108 L 60.527616 108 Z M 110.352151 108 C 108.396952 108 106.824534 109.57795 106.824534 111.54005 L 106.824534 146.95995 C 106.824534 148.92205 108.396952 150.5 110.352151 150.5 L 145.647772 150.5 C 147.602969 150.5 149.175388 148.92205 149.175388 146.95995 L 149.175388 111.54005 C 149.175388 109.57795 147.602969 108 145.647772 108 L 110.352151 108 Z M 160.176686 108 C 158.221489 108 156.649069 109.57795 156.649069 111.54005 L 156.649069 146.95995 C 156.649069 148.92205 158.221489 150.5 160.176686 150.5 L 195.472306 150.5 C 197.4275 150.5 198.999923 148.92205 198.999923 146.95995 L 198.999923 111.54005 C 198.999923 109.57795 197.4275 108 195.472306 108 L 160.176686 108 Z M 60.527616 158 C 58.572418 158 57 159.577925 57 161.54005 L 57 196.95995 C 57 198.92205 58.572418 200.5 60.527616 200.5 L 95.823237 200.5 C 97.778434 200.5 99.350854 198.92205 99.350854 196.95995 L 99.350854 161.54005 C 99.350854 159.577925 97.778434 158 95.823237 158 L 60.527616 158 Z M 110.352151 158 C 108.396957 158 106.824534 159.577925 106.824534 161.54005 L 106.824534 196.95995 C 106.824534 198.92205 108.396957 200.5 110.352151 200.5 L 145.647772 200.5 C 147.602969 200.5 149.175388 198.92205 149.175388 196.95995 L 149.175388 161.54005 C 149.175388 159.577925 147.602969 158 145.647772 158 L 110.352151 158 Z M 160.176686 158 C 158.221489 158 156.649069 159.577925 156.649069 161.54005 L 156.649069 196.95995 C 156.649069 198.92205 158.221489 200.5 160.176686 200.5 L 195.472306 200.5 C 197.427503 200.5 198.999923 198.92205 198.999923 196.95995 L 198.999923 161.54005 C 198.999923 159.577925 197.427503 158 195.472306 158 L 160.176686 158 Z"/>
  </g>
  <path fill="#ececec" d="M 60.529238 55.500025 C 58.574042 55.500025 57.000001 57.079675 57.000001 59.041775 L 57.000001 94.458375 C 57.000001 96.4205 58.574042 98 60.529238 98 L 95.821615 98 C 97.776815 98 99.350854 96.4205 99.350854 94.458375 L 99.350854 59.041775 C 99.350854 57.079675 97.776815 55.500025 95.821615 55.500025 L 60.529238 55.500025 Z"/>
  <linearGradient id="_lgradient_5" x1="0" x2="0" y1="0" y2="1" gradientTransform="matrix(42.350872,0,0,42.5,106.824529,55.5)" gradientUnits="userSpaceOnUse">
   <stop offset="0%" style="stop-color:#ffb357"/>
   <stop offset="50%" style="stop-color:#ff8b51"/>
   <stop offset="100%" style="stop-color:#f55c0f"/>
  </linearGradient>
  <path fill="url(#_lgradient_5)" d="M 110.353768 55.5 C 108.398571 55.5 106.824529 57.079675 106.824529 59.04175 L 106.824529 94.458375 C 106.824529 96.4205 108.398571 98 110.353768 98 L 145.646162 98 C 147.601359 98 149.175401 96.4205 149.175401 94.458375 L 149.175401 59.04175 C 149.175401 57.079675 147.601359 55.5 145.646162 55.5 L 110.353768 55.5 Z"/>
  <linearGradient id="_lgradient_6" x1="0" x2="0" y1="0" y2="1" gradientTransform="matrix(42.350877,0,0,42.5,156.649064,55.5)" gradientUnits="userSpaceOnUse">
   <stop offset="0%" style="stop-color:#ff00bb"/>
   <stop offset="100%" style="stop-color:#dc14dc"/>
  </linearGradient>
  <path fill="url(#_lgradient_6)" d="M 160.178302 55.5 C 158.223105 55.5 156.649064 57.079675 156.649064 59.04175 L 156.649064 94.458375 C 156.649064 96.4205 158.223105 98 160.178302 98 L 195.470694 98 C 197.425889 98 198.99994 96.4205 198.99994 94.458375 L 198.99994 59.04175 C 198.99994 57.079675 197.425889 55.5 195.470694 55.5 L 160.178302 55.5 Z"/>
  <linearGradient id="_lgradient_7" x1="0" x2="0" y1="0" y2="1" gradientTransform="matrix(42.350848,0,0,42.5,57.000001,105.5)" gradientUnits="userSpaceOnUse">
   <stop offset="0%" style="stop-color:#ff00bb"/>
   <stop offset="100%" style="stop-color:#dc14dc"/>
  </linearGradient>
  <path fill="url(#_lgradient_7)" d="M 60.529238 105.5 C 58.574041 105.5 57.000001 107.079525 57.000001 109.041625 L 57.000001 144.458375 C 57.000001 146.420475 58.574041 148 60.529238 148 L 95.821611 148 C 97.77681 148 99.350849 146.420475 99.350849 144.458375 L 99.350849 109.041625 C 99.350849 107.079525 97.77681 105.5 95.821611 105.5 L 60.529238 105.5 Z"/>
  <path fill="#ececec" d="M 110.353768 105.5 C 108.398569 105.5 106.824529 107.079525 106.824529 109.041625 L 106.824529 144.458375 C 106.824529 146.420475 108.398569 148 110.353768 148 L 145.64614 148 C 147.601337 148 149.175376 146.420475 149.175376 144.458375 L 149.175376 109.041625 C 149.175376 107.079525 147.601337 105.5 145.64614 105.5 L 110.353768 105.5 Z"/>
  <path fill="#ececec" d="M 160.178302 105.5 C 158.223105 105.5 156.649064 107.079525 156.649064 109.041625 L 156.649064 144.458375 C 156.649064 146.420475 158.223105 148 160.178302 148 L 195.470672 148 C 197.425866 148 198.999915 146.420475 198.999915 144.458375 L 198.999915 109.041625 C 198.999915 107.079525 197.425866 105.5 195.470672 105.5 L 160.178302 105.5 Z"/>
  <linearGradient id="_lgradient_8" x1="0" x2="0" y1="0" y2="1" gradientTransform="matrix(42.350873,0,0,42.5,57.000001,155.5)" gradientUnits="userSpaceOnUse">
   <stop offset="0%" style="stop-color:#46a926"/>
   <stop offset="100%" style="stop-color:#009a56"/>
  </linearGradient>
  <path fill="url(#_lgradient_8)" d="M 60.52924 155.5 C 58.574042 155.5 57.000001 157.0795 57.000001 159.041625 L 57.000001 194.45825 C 57.000001 196.42035 58.574042 198 60.52924 198 L 95.821635 198 C 97.776832 198 99.350874 196.42035 99.350874 194.45825 L 99.350874 159.041625 C 99.350874 157.0795 97.776832 155.5 95.821635 155.5 L 60.52924 155.5 Z"/>
  <linearGradient id="_lgradient_9" x1="0" x2="0" y1="0" y2="1" gradientTransform="matrix(42.350872,0,0,42.5,106.824559,155.5)" gradientUnits="userSpaceOnUse">
   <stop offset="0%" style="stop-color:#ffb357"/>
   <stop offset="50%" style="stop-color:#ff8b51"/>
   <stop offset="100%" style="stop-color:#f55c0f"/>
  </linearGradient>
  <path fill="url(#_lgradient_9)" d="M 110.353798 155.5 C 108.398603 155.5 106.824559 157.0795 106.824559 159.041625 L 106.824559 194.45825 C 106.824559 196.42035 108.398603 198 110.353798 198 L 145.646195 198 C 147.601392 198 149.175431 196.42035 149.175431 194.45825 L 149.175431 159.041625 C 149.175431 157.0795 147.601392 155.5 145.646195 155.5 L 110.353798 155.5 Z"/>
  <linearGradient id="_lgradient_10" x1="0" x2="0" y1="0" y2="1" gradientTransform="matrix(42.350877,0,0,42.5,156.649123,155.5)" gradientUnits="userSpaceOnUse">
   <stop offset="0%" style="stop-color:#46a926"/>
   <stop offset="100%" style="stop-color:#009a56"/>
  </linearGradient>
  <path fill="url(#_lgradient_10)" d="M 160.178362 155.5 C 158.223165 155.5 156.649123 157.0795 156.649123 159.041625 L 156.649123 194.45825 C 156.649123 196.42035 158.223165 198 160.178362 198 L 195.470751 198 C 197.425948 198 199 196.42035 199 194.45825 L 199 159.041625 C 199 157.0795 197.425948 155.5 195.470751 155.5 L 160.178362 155.5 Z"/>
 </g>
</svg>
