<svg xmlns="http://www.w3.org/2000/svg" style="isolation:isolate" width="256" height="256" viewBox="0 0 256 256">
 <defs>
  <filter id="ilBJZvxzBqRHxy3nVfuU1yo5C3ph0kKI" width="400%" height="400%" x="-200%" y="-200%" color-interpolation-filters="sRGB" filterUnits="objectBoundingBox">
   <feGaussianBlur xmlns="http://www.w3.org/2000/svg" in="SourceGraphic" stdDeviation="4.294"/>
   <feOffset xmlns="http://www.w3.org/2000/svg" dx="0" dy="4" result="pf_100_offsetBlur"/>
   <feFlood xmlns="http://www.w3.org/2000/svg" flood-opacity=".4"/>
   <feComposite xmlns="http://www.w3.org/2000/svg" in2="pf_100_offsetBlur" operator="in" result="pf_100_dropShadow"/>
   <feBlend xmlns="http://www.w3.org/2000/svg" in="SourceGraphic" in2="pf_100_dropShadow" mode="normal"/>
  </filter>
 </defs>
 <g filter="url(#ilBJZvxzBqRHxy3nVfuU1yo5C3ph0kKI)">
  <linearGradient id="_lgradient_0" x1=".187" x2=".19" y1=".005" y2=".999" gradientTransform="matrix(244.648309,0,0,228.338396,5.68,11.95)" gradientUnits="userSpaceOnUse">
   <stop offset="0%" style="stop-color:#07b3ff"/>
   <stop offset="100%" style="stop-color:#007de8"/>
  </linearGradient>
  <path fill="url(#_lgradient_0)" d="M 165.688919 11.95 C 239.744626 11.95 250.328309 22.507198 250.328309 96.493859 L 250.328309 155.744653 C 250.328309 229.73091 239.744626 240.288396 165.688919 240.288396 L 90.319393 240.288396 C 16.26369 240.288396 5.68 229.73091 5.68 155.744653 L 5.68 96.493859 C 5.68 22.507198 16.26369 11.95 90.319393 11.95 L 165.688919 11.95 Z"/>
 </g>
 <g opacity=".4">
  <linearGradient id="_lgradient_1" x1="0" x2="0" y1="0" y2="1" gradientTransform="matrix(239.385341,0,0,41.288396,8.311484,199)" gradientUnits="userSpaceOnUse">
   <stop offset="0%" style="stop-color:#e0e5e7"/>
   <stop offset="100%" style="stop-color:#c7ced2"/>
  </linearGradient>
  <path fill="url(#_lgradient_1)" d="M 247.696826 199 C 241.493188 234.221039 221.829649 240.288396 165.688919 240.288396 L 90.319393 240.288396 C 34.178666 240.288396 14.515124 234.221039 8.311484 199 L 247.696826 199 L 247.696826 199 Z"/>
 </g>
 <path fill="#333333" d="M 165.684998 11.947 C 230.009003 11.947 246.447006 19.912001 249.656006 70.489998 C 244.121994 70.397003 -0.134 69.629997 6.412 69.459999 C 9.78 19.804001 26.43 11.947 90.315002 11.947 L 165.684998 11.947 Z"/>
 <path fill="#ebebeb" fill-rule="evenodd" d="M 30.5 44.5 C 30.5 39.200001 32.609001 34.109001 36.355 30.355 C 40.109196 26.608061 45.195896 24.502537 50.5 24.5 C 55.799999 24.5 60.890999 26.608999 64.644997 30.355 C 68.391937 34.109196 70.497459 39.195896 70.5 44.5 C 70.5 49.799999 68.390999 54.890999 64.644997 58.645 C 60.890804 62.391937 55.804104 64.497459 50.5 64.5 C 45.200001 64.5 40.109001 62.390999 36.355 58.645 C 32.608063 54.890804 30.502537 49.804104 30.5 44.5 Z M 34.136002 44.5 C 34.136002 40.164001 35.863998 36 38.926998 32.926998 C 41.999168 29.862196 46.160503 28.139482 50.5 28.136 C 54.835999 28.136 59 29.864 62.073002 32.926998 C 65.137802 35.999168 66.860519 40.160503 66.863998 44.5 C 66.863998 48.835999 65.136002 53 62.073002 56.073002 C 59.000832 59.137806 54.839497 60.860519 50.5 60.863998 C 46.164001 60.863998 42 59.136002 38.926998 56.073002 C 35.862194 53.000832 34.139481 48.839497 34.136002 44.5 Z"/>
 <circle fill="#ebebeb" cx="50.5" cy="44.5" r="13.636" vector-effect="non-scaling-stroke"/>
 <path fill="#ebebeb" d="M 192.867004 24.25 L 211.492004 24.25 C 212.591995 24.25 213.485001 25.143 213.485001 26.243 L 213.485001 30.136 C 213.485001 31.236 212.591995 32.129002 211.492004 32.129002 L 192.867004 32.129002 C 191.766998 32.129002 190.873993 31.236 190.873993 30.136 L 190.873993 26.243 C 190.873993 25.143 191.766998 24.25 192.867004 24.25 Z M 192.742996 40.209999 L 216.757004 40.209999 C 217.856995 40.209999 218.75 41.102001 218.75 42.202 L 218.75 46.096001 C 218.748901 47.196083 217.857086 48.087448 216.757004 48.088001 L 192.742996 48.088001 C 191.643005 48.088001 190.75 47.195 190.75 46.096001 L 190.75 42.202 C 190.75 41.102001 191.643005 40.209999 192.742996 40.209999 Z M 192.742996 56.370998 L 208.828003 56.370998 C 209.927994 56.370998 210.820999 57.264 210.820999 58.363998 L 210.820999 62.257 C 210.820999 63.356998 209.927994 64.25 208.828003 64.25 L 192.742996 64.25 C 191.643005 64.25 190.75 63.356998 190.75 62.257 L 190.75 58.363998 C 190.75 57.264 191.643005 56.370998 192.742996 56.370998 Z"/>
 <g>
  <linearGradient id="_lgradient_2" x1="0" x2="0" y1="0" y2="1" gradientTransform="matrix(43.84058,0,0,40.333333,27.166667,184.333333)" gradientUnits="userSpaceOnUse">
   <stop offset="0%" style="stop-color:#edc268"/>
   <stop offset="100%" style="stop-color:#9b7424"/>
  </linearGradient>
  <path fill="url(#_lgradient_2)" d="M 55.840162 184.333333 C 69.110701 184.333333 71.007246 186.198311 71.007246 199.267186 L 71.007246 209.7328 C 71.007246 222.801689 69.110701 224.666667 55.840162 224.666667 L 42.333754 224.666667 C 29.063209 224.666667 27.166667 222.801689 27.166667 209.7328 L 27.166667 199.267186 C 27.166667 186.198311 29.063209 184.333333 42.333754 184.333333 L 55.840162 184.333333 L 55.840162 184.333333 Z"/>
  <linearGradient id="_lgradient_3" x1="0" x2="0" y1="0" y2="1" gradientTransform="matrix(43.84058,0,0,40.333333,79.775362,184.333333)" gradientUnits="userSpaceOnUse">
   <stop offset="0%" style="stop-color:#edc268"/>
   <stop offset="100%" style="stop-color:#9b7424"/>
  </linearGradient>
  <path fill="url(#_lgradient_3)" d="M 108.448851 184.333333 C 121.719403 184.333333 123.615942 186.198311 123.615942 199.267186 L 123.615942 209.7328 C 123.615942 222.801689 121.719403 224.666667 108.448851 224.666667 L 94.942446 224.666667 C 81.671908 224.666667 79.775362 222.801689 79.775362 209.7328 L 79.775362 199.267186 C 79.775362 186.198311 81.671908 184.333333 94.942446 184.333333 L 108.448851 184.333333 Z"/>
  <linearGradient id="_lgradient_4" x1="0" x2="0" y1="0" y2="1" gradientTransform="matrix(43.84058,0,0,40.333333,132.384058,184.333333)" gradientUnits="userSpaceOnUse">
   <stop offset="0%" style="stop-color:#edc268"/>
   <stop offset="100%" style="stop-color:#9b7424"/>
  </linearGradient>
  <path fill="url(#_lgradient_4)" d="M 161.057547 184.333333 C 174.328099 184.333333 176.224638 186.198311 176.224638 199.267186 L 176.224638 209.7328 C 176.224638 222.801689 174.328099 224.666667 161.057547 224.666667 L 147.551149 224.666667 C 134.280597 224.666667 132.384058 222.801689 132.384058 209.7328 L 132.384058 199.267186 C 132.384058 186.198311 134.280597 184.333333 147.551149 184.333333 L 161.057547 184.333333 Z"/>
  <linearGradient id="_lgradient_5" x1="0" x2="0" y1="0" y2="1" gradientTransform="matrix(43.84058,0,0,40.333333,184.992754,184.333333)" gradientUnits="userSpaceOnUse">
   <stop offset="0%" style="stop-color:#edc268"/>
   <stop offset="100%" style="stop-color:#9b7424"/>
  </linearGradient>
  <path fill="url(#_lgradient_5)" d="M 213.666243 184.333333 C 226.936795 184.333333 228.833333 186.198311 228.833333 199.267186 L 228.833333 209.7328 C 228.833333 222.801689 226.936795 224.666667 213.666243 224.666667 L 200.159844 224.666667 C 186.889292 224.666667 184.992754 222.801689 184.992754 209.7328 L 184.992754 199.267186 C 184.992754 186.198311 186.889292 184.333333 200.159844 184.333333 L 213.666243 184.333333 Z"/>
 </g>
</svg>
