<svg xmlns="http://www.w3.org/2000/svg" style="isolation:isolate" width="256" height="256">
 <g filter="url(#a)">
  <linearGradient id="b" x1=".5" x2=".5" y2="1" gradientTransform="matrix(244.648 0 0 228.338 5.676 11.947)" gradientUnits="userSpaceOnUse">
   <stop offset="0%" stop-color="#ffeb00"/>
   <stop offset="100%" stop-color="#ffa100"/>
  </linearGradient>
  <path fill="url(#b)" d="M165.685 11.947c74.055 0 84.639 10.557 84.639 84.544v59.251c0 73.986-10.584 84.543-84.639 84.543h-75.37c-74.055 0-84.639-10.557-84.639-84.543V96.491c0-73.987 10.584-84.544 84.639-84.544h75.37z"/>
 </g>
 <defs>
  <filter id="a" width="400%" height="400%" x="-200%" y="-200%" color-interpolation-filters="sRGB" filterUnits="objectBoundingBox">
   <feGaussianBlur xmlns="http://www.w3.org/2000/svg" in="SourceGraphic" stdDeviation="4.294"/>
   <feOffset xmlns="http://www.w3.org/2000/svg" dy="4" result="pf_100_offsetBlur"/>
   <feFlood xmlns="http://www.w3.org/2000/svg" flood-opacity=".4"/>
   <feComposite xmlns="http://www.w3.org/2000/svg" in2="pf_100_offsetBlur" operator="in" result="pf_100_dropShadow"/>
   <feBlend xmlns="http://www.w3.org/2000/svg" in="SourceGraphic" in2="pf_100_dropShadow"/>
  </filter>
 </defs>
 <path fill="#bc2bc0" d="M127.804 20.442c-.363 0-.711.049-1.075.054-3.399 10.539-.128 24.085 6.337 27.367 6.962 3.534 22.165-3.621 26.971-14.381.916-2.053 1.275-4.074 1.387-6.051-10.381-4.467-21.703-6.984-33.615-6.984m-5.973.318c-13.918.976-26.925 5.27-38.366 12.21 1.254 3.535 3.88 6.59 7.847 9.009 8.697 5.308 23.803 6.137 29.244-3.998 2.477-4.618 2.6-11.062 1.275-17.221zm42.388 15.809c-3.127 0-11.322 6.736-11.322 9.721 0 2.979 6.582 10.571 9.71 10.571 3.128 0 2.027-10.189 2.027-13.168 0-2.98 2.718-7.118-.415-7.118m-68.121 9.187c-4.151-.404-9.889 4.488-11.271 7.209-1.582 3.109-1.695 11.224 2.4 13.595 4.095 2.37 7.663-2.98 9.25-6.095 1.582-3.109 5.38-11.827 1.285-14.197a4.077 4.077 0 0 0-1.664-.523m25.18 1.067c-4.541.065-9.706 1.643-13.959 3.761-8.508 4.229-10.156 15.011-6.66 23.007 3.491 7.996 8.375 11.041 16.882 6.811 8.507-4.23 17.43-20.184 13.933-28.18-1.745-3.998-5.656-5.459-10.196-5.388m24.181 3.599c-1.838.162-3.762.787-5.759 1.918-7.985 4.542-10.78 17.803-6.736 25.901 4.044 8.099 15.019 12.285 23.009 7.743 7.985-4.542 6.731-18.239 2.687-26.343-3.035-6.072-7.688-9.704-13.196-9.225m22.784 12.199c-4.648.302-5.011 6.854-4.812 10.383.2 3.535 1.3 13.072 5.948 12.771 4.648-.302 7.847-9.451 7.648-12.986-.2-3.535-4.136-10.469-8.784-10.173m-44.979 18.503c-6.178-.102-12.935 4.499-15.986 9.424-4.064 6.563-6.061 12.059 1.024 17.048 7.084 4.995 18.141 4.149 22.205-2.414 4.064-6.562 5.661-17.226-1.423-22.221-1.771-1.25-3.762-1.805-5.825-1.837m-21.095 1.638c-2.534 0-6.209 2.037-6.209 5.615 0 3.577 1.653 5.172 4.187 5.172 2.534 0 5.001-1.595 5.001-5.172 0-3.578-.44-5.615-2.974-5.615m40.403 7.77c-3.911 0-7.484 7.937-7.484 12.942 0 5.006 5.186 5.184 9.097 5.184 3.91 0 9.111-4.057 9.111-9.063s-6.813-9.063-10.724-9.063"/>
 <path fill="#faf8f6" d="M46.59 144.375c13.416-28.75 21.176-58.99 23.25-90.75-21.568-11.875-34.683-.531-39.375 34-.663 16.482 4.722 35.408 16.125 56.75z"/>
 <path fill="#2c3e50" d="M54.183 92.656c-1.562.125-4.125-.937-6.75.844-2.959 2.102-4.93 8.237-10.156 11q-2.364 1.25-5.344 1.156c-1.824-6.683-2.221-13.111-1.281-19.375 2.386.333 5.122.561 7.344.25 4.625-1.25 7.062-2.187 8.156-2.093 4.657.399 9.219 5.125 9.406 7 .027.266.188 1.093-1.375 1.218z"/>
 <path fill="#faf8f6" d="M209.41 144.375c-13.416-28.75-21.176-58.99-23.25-90.75 21.568-11.875 34.683-.531 39.375 34 .663 16.482-4.722 35.408-16.125 56.75z"/>
 <path fill="#2c3e50" d="M201.817 92.656c1.562.125 4.125-.937 6.75.844 2.959 2.102 4.93 8.237 10.156 11q2.364 1.25 5.344 1.156c1.824-6.683 2.221-13.111 1.281-19.375-2.386.333-5.122.561-7.344.25-4.625-1.25-7.062-2.187-8.156-2.093-4.657.399-9.219 5.125-9.406 7-.027.266-.188 1.093 1.375 1.218z"/>
 <g opacity=".4">
  <linearGradient id="c" x1=".517" x2=".517" y2="1" gradientTransform="matrix(244.65 0 0 228.34 5.68 11.95)" gradientUnits="userSpaceOnUse">
   <stop offset="0%" stop-color="#ffffff"/>
   <stop offset="12.5%" stop-color="#ffffff" stop-opacity=".098"/>
   <stop offset="92.5%" stop-opacity=".098"/>
   <stop offset="100%" stop-opacity=".498"/>
  </linearGradient>
  <path fill="url(#c)" fill-rule="evenodd" d="M165.068 11.951c4.328-.01 8.656.04 12.984.138 3.875.078 7.75.226 11.626.452 3.453.196 6.905.481 10.348.854 3.06.335 6.118.786 9.148 1.346a80.47 80.47 0 0 1 8.046 1.916 53.64 53.64 0 0 1 7.023 2.584 40.413 40.413 0 0 1 6.06 3.35 35.176 35.176 0 0 1 5.134 4.215 35.072 35.072 0 0 1 4.22 5.119 41.692 41.692 0 0 1 3.363 6.042 55.982 55.982 0 0 1 2.597 7.005 80.224 80.224 0 0 1 1.918 8.037 124.43 124.43 0 0 1 1.348 9.127c.374 3.439.659 6.878.856 10.326.226 3.861.373 7.732.462 11.593.088 4.323.138 8.646.128 12.96v58.21c.01 4.324-.04 8.637-.128 12.96a325.177 325.177 0 0 1-.462 11.593 200.984 200.984 0 0 1-.856 10.326 124.691 124.691 0 0 1-1.348 9.137 80.687 80.687 0 0 1-1.918 8.027 55.414 55.414 0 0 1-2.597 7.005 41.18 41.18 0 0 1-3.364 6.042 34.559 34.559 0 0 1-4.22 5.119 35.177 35.177 0 0 1-5.134 4.215 40.412 40.412 0 0 1-6.059 3.35 55.138 55.138 0 0 1-7.023 2.594 77.806 77.806 0 0 1-8.046 1.906 120 120 0 0 1-9.148 1.346c-3.443.373-6.895.658-10.348.854-3.875.226-7.75.374-11.626.462-4.328.088-8.656.138-12.984.128H90.942c-4.328.01-8.656-.04-12.984-.128a328.387 328.387 0 0 1-11.626-.462 203.003 203.003 0 0 1-10.348-.854 120 120 0 0 1-9.148-1.346 77.806 77.806 0 0 1-8.046-1.906 55.139 55.139 0 0 1-7.023-2.594 40.413 40.413 0 0 1-6.06-3.35 35.176 35.176 0 0 1-5.134-4.215 34.56 34.56 0 0 1-4.22-5.119 41.183 41.183 0 0 1-3.363-6.042 55.415 55.415 0 0 1-2.597-7.005 80.682 80.682 0 0 1-1.918-8.027 124.688 124.688 0 0 1-1.348-9.137 200.993 200.993 0 0 1-.856-10.326 325.212 325.212 0 0 1-.462-11.593 569.197 569.197 0 0 1-.128-12.96v-58.21c-.01-4.314.04-8.637.128-12.96.089-3.86.236-7.732.462-11.593.197-3.448.482-6.887.856-10.326.335-3.055.787-6.101 1.348-9.127a80.219 80.219 0 0 1 1.918-8.037 55.983 55.983 0 0 1 2.597-7.005 41.695 41.695 0 0 1 3.364-6.042 35.072 35.072 0 0 1 4.22-5.119 35.176 35.176 0 0 1 5.134-4.215 40.413 40.413 0 0 1 6.059-3.35 53.64 53.64 0 0 1 7.023-2.584 80.47 80.47 0 0 1 8.046-1.916 125.11 125.11 0 0 1 9.148-1.346c3.443-.373 6.895-.658 10.348-.854 3.875-.226 7.75-.374 11.626-.452 4.328-.098 8.656-.148 12.984-.138h74.126zm.01 4.009c4.298-.01 8.597.039 12.895.127 3.827.089 7.653.236 11.48.452 3.383.197 6.766.472 10.13.845 2.971.315 5.932.747 8.863 1.297a75.943 75.943 0 0 1 7.653 1.818 50.493 50.493 0 0 1 6.501 2.397 37.038 37.038 0 0 1 5.47 3.026 30.383 30.383 0 0 1 4.524 3.724 31.05 31.05 0 0 1 3.738 4.519 37.271 37.271 0 0 1 3.03 5.443 51.46 51.46 0 0 1 2.4 6.494 75.563 75.563 0 0 1 1.829 7.634c.54 2.928.974 5.875 1.298 8.842.374 3.36.65 6.73.846 10.11.217 3.822.374 7.634.453 11.456.088 4.293.137 8.577.137 12.87v58.212c0 4.293-.049 8.577-.137 12.87a317.503 317.503 0 0 1-.453 11.456c-.196 3.38-.472 6.75-.846 10.12a121.689 121.689 0 0 1-1.298 8.832 75.562 75.562 0 0 1-1.83 7.634 50.902 50.902 0 0 1-2.4 6.494 36.767 36.767 0 0 1-3.03 5.443 30.615 30.615 0 0 1-3.737 4.53 30.938 30.938 0 0 1-4.525 3.713 37.038 37.038 0 0 1-5.469 3.026 49.07 49.07 0 0 1-6.501 2.397 75.942 75.942 0 0 1-7.653 1.818c-2.931.55-5.892.982-8.863 1.306-3.364.364-6.747.649-10.13.836-3.827.216-7.653.373-11.48.452-4.298.098-8.597.137-12.895.137H90.932c-4.298 0-8.597-.04-12.895-.137a320.093 320.093 0 0 1-11.48-.452 193.696 193.696 0 0 1-10.13-.836 116.71 116.71 0 0 1-8.863-1.306 75.942 75.942 0 0 1-7.653-1.818 49.07 49.07 0 0 1-6.501-2.397 37.038 37.038 0 0 1-5.47-3.026 30.938 30.938 0 0 1-4.524-3.714 30.615 30.615 0 0 1-3.738-4.529 36.766 36.766 0 0 1-3.03-5.443 50.903 50.903 0 0 1-2.4-6.494 75.567 75.567 0 0 1-1.829-7.634 121.69 121.69 0 0 1-1.298-8.832c-.374-3.37-.65-6.74-.846-10.12a317.535 317.535 0 0 1-.453-11.456 623.851 623.851 0 0 1-.137-12.87V97.014c0-4.293.049-8.577.137-12.87.079-3.822.236-7.634.453-11.456.197-3.38.472-6.75.846-10.11.324-2.967.757-5.914 1.298-8.842a75.568 75.568 0 0 1 1.83-7.634 51.46 51.46 0 0 1 2.4-6.494 37.27 37.27 0 0 1 3.03-5.443 31.05 31.05 0 0 1 3.737-4.52 30.384 30.384 0 0 1 4.525-3.723 37.039 37.039 0 0 1 5.469-3.026 50.494 50.494 0 0 1 6.501-2.397 75.943 75.943 0 0 1 7.653-1.818c2.931-.55 5.892-.982 8.863-1.297 3.364-.373 6.747-.648 10.13-.845a344.71 344.71 0 0 1 11.48-.452c4.298-.088 8.597-.137 12.895-.127H165.078z"/>
 </g>
</svg>
