<svg width="256" height="256" fill="none" viewBox="0 0 256 256" xmlns="http://www.w3.org/2000/svg">
 <g clip-path="url(#clip0)">
  <g filter="url(#filter0_d)">
   <path d="m165.685 11.947c74.055 0 84.639 10.5572 84.639 84.5438v59.2512c0 73.986-10.584 84.543-84.639 84.543h-75.3698c-74.0557 0-84.63934-10.557-84.63934-84.543v-59.2512c0-73.9866 10.58364-84.5438 84.63934-84.5438h75.3698z" fill="url(#paint0_linear)"/>
  </g>
  <path d="m169.039 90.0817c0.728 11.3103-0.681 23.0823-5.559 31.8923-2.348 4.194-5.035 8.289-7.26 12.468-6.423 12.067 1.826 7.419-11.828 7.419h-32.752c-13.6541 0-2.281 25.637-10.432-2.241-2.3901-8.176-13.5294-25.671-13.5517-50.4236-0.0082-9.0422 8.2082-14.9145 16.6617-18.5632 9.434-4.6475 19.107-5.2949 29.056-5.3086 17.868-0.8855 35.168 8.2755 35.665 24.7571z" opacity=".2"/>
  <g filter="url(#filter1_f)" opacity=".2">
   <path d="m90.3591 128.703h76.0079c14.049 0 25.359 11.123 25.359 24.94 3.442 37.711-54 38.582-60.572 38.493-6.572-0.088-66.154-1.915-66.154-38.493 0-13.817 11.3102-24.94 25.3591-24.94z"/>
  </g>
  <path d="m169.039 87.8161c0.728 11.3101-0.681 23.0819-5.559 31.8929-2.348 4.194-5.035 8.288-7.26 12.468-6.423 12.067 1.826 7.419-11.828 7.419h-32.752c-13.6541 0-2.281 25.636-10.432-2.242-2.3901-8.176-13.5294-25.671-13.5517-50.4232-0.0082-9.0422 8.2082-14.9145 16.6617-18.5632 9.434-4.6476 19.107-5.295 29.056-5.3087 17.868-0.8854 35.168 8.2756 35.665 24.7572z" fill="url(#paint1_linear)"/>
  <path d="m116.203 137.313c7.007 0 12.688-8.521 12.688-19.032 0-10.51-5.681-19.0308-12.688-19.0308s-12.687 8.5208-12.687 19.0308c0 10.511 5.68 19.032 12.687 19.032z" fill="white"/>
  <path d="m140.672 137.313c7.007 0 12.687-8.521 12.687-19.032 0-10.51-5.68-19.0308-12.687-19.0308s-12.688 8.5208-12.688 19.0308c0 10.511 5.681 19.032 12.688 19.032z" fill="white"/>
  <path d="m137.953 132.102c3.504 0 6.344-4.261 6.344-9.516s-2.84-9.516-6.344-9.516c-3.503 0-6.344 4.261-6.344 9.516s2.841 9.516 6.344 9.516z" fill="url(#paint2_linear)"/>
  <path d="m118.922 132.102c3.503 0 6.344-4.261 6.344-9.516s-2.841-9.516-6.344-9.516c-3.504 0-6.344 4.261-6.344 9.516s2.84 9.516 6.344 9.516z" fill="url(#paint3_linear)"/>
  <path d="m90.3591 126.438h76.0079c14.049 0 25.359 11.123 25.359 24.939 3.442 37.711-54 38.582-60.572 38.494s-66.154-1.915-66.154-38.494c0-13.816 11.3102-24.939 25.3591-24.939z" fill="url(#paint4_linear)"/>
  <path d="m136.712 63.009c-1.108-0.0225-2.219-0.0022-3.336 0.0531-9.949 0.0137-19.621 0.6536-29.055 5.3012-8.454 3.6487-16.6729 9.5254-16.6648 18.5675 5e-4 0.5032 0.03 0.9878 0.0443 1.4824 0.4564-8.5949 8.4159-14.2432 16.6205-17.7843 9.434-4.6475 19.106-5.2875 29.055-5.3012 1.117-0.0553 2.228-0.0755 3.336-0.0531 16.625 0.3373 31.864 9.3554 32.33 24.8069 0.082 1.2765 0.111 2.5588 0.133 3.8409 0.02-2.0377-3e-3 -4.077-0.133-6.1066-0.466-15.4515-15.705-24.4696-32.33-24.8068z" fill="white" opacity=".1"/>
  <path d="m90.3555 126.438c-14.0489 0-25.3555 11.123-25.3555 24.939 0 0.389 0.0359 0.757 0.0575 1.133 0.6023-13.283 11.638-23.807 25.298-23.807h76.0135c14.049 0 25.356 11.123 25.356 24.94 0.055 0.611 0.065 1.191 0.084 1.779 0.046-1.303 0.044-2.633-0.084-4.045 0-13.816-11.307-24.939-25.356-24.939h-76.0135z" fill="white" opacity=".2"/>
  <path d="m165.068 11.9512c4.328-0.0098 8.656 0.0393 12.984 0.1376 3.875 0.0786 7.751 0.226 11.626 0.4519 3.453 0.1965 6.905 0.4814 10.348 0.8548 3.059 0.334 6.118 0.786 9.148 1.346 2.715 0.501 5.4 1.1397 8.046 1.9158 2.4 0.6976 4.751 1.5622 7.023 2.5839 2.115 0.9432 4.141 2.0632 6.059 3.3503 1.839 1.2379 3.561 2.6527 5.135 4.2148 1.564 1.572 2.98 3.2815 4.219 5.1187 1.289 1.9158 2.41 3.9397 3.364 6.0422 1.023 2.2794 1.889 4.6177 2.597 7.0051 0.777 2.6429 1.417 5.325 1.918 8.0367 0.561 3.026 1.013 6.0717 1.348 9.1272 0.374 3.4386 0.659 6.8773 0.856 10.3258 0.226 3.8612 0.373 7.7321 0.462 11.5933 0.088 4.3228 0.138 8.6457 0.128 12.9588v58.2119c0.01 4.323-0.04 8.636-0.128 12.959-0.089 3.871-0.236 7.732-0.462 11.593-0.197 3.449-0.482 6.897-0.856 10.326-0.335 3.055-0.787 6.111-1.348 9.137-0.501 2.702-1.141 5.384-1.918 8.027-0.708 2.387-1.574 4.735-2.597 7.005-0.954 2.112-2.075 4.126-3.364 6.042-1.239 1.837-2.655 3.557-4.219 5.119-1.574 1.562-3.296 2.977-5.135 4.215-1.918 1.287-3.944 2.407-6.059 3.35-2.272 1.022-4.623 1.886-7.023 2.594-2.646 0.776-5.331 1.414-8.046 1.906-3.03 0.569-6.089 1.011-9.148 1.346-3.443 0.373-6.895 0.658-10.348 0.854-3.875 0.226-7.751 0.374-11.626 0.462-4.328 0.088-8.656 0.138-12.984 0.128h-74.126c-4.328 0.01-8.656-0.04-12.9839-0.128-3.8755-0.088-7.751-0.236-11.6265-0.462-3.4525-0.196-6.905-0.481-10.3477-0.854-3.0591-0.335-6.1182-0.777-9.1477-1.346-2.7149-0.492-5.4001-1.13-8.0461-1.906-2.4001-0.708-4.7509-1.572-7.0231-2.594-2.1148-0.943-4.1411-2.063-6.0591-3.35-1.8394-1.238-3.5608-2.653-5.1346-4.215-1.5639-1.562-2.9804-3.282-4.2197-5.119-1.2886-1.916-2.4099-3.93-3.364-6.042-1.023-2.27-1.8886-4.618-2.5968-7.005-0.77706-2.643-1.41642-5.325-1.91807-8.027-0.56067-3.026-1.01313-6.082-1.34757-9.137-0.37377-3.429-0.65903-6.877-0.85575-10.326-0.22623-3.861-0.37378-7.722-0.46231-11.593-0.08852-4.323-0.1377-8.636-0.12787-12.959v-58.2119c-0.00983-4.3131 0.03935-8.636 0.12787-12.9588 0.08853-3.8612 0.23608-7.7321 0.46231-11.5933 0.19672-3.4485 0.48198-6.8872 0.85575-10.3258 0.33444-3.0555 0.7869-6.1012 1.34757-9.1272 0.50165-2.7117 1.14101-5.3938 1.91807-8.0367 0.7082-2.3874 1.5738-4.7257 2.5968-7.0051 0.9541-2.1025 2.0754-4.1264 3.364-6.0422 1.2393-1.8372 2.6558-3.5467 4.2197-5.1187 1.5738-1.5621 3.2952-2.9769 5.1346-4.2148 1.918-1.2871 3.9443-2.4071 6.0591-3.3503 2.2722-1.0217 4.623-1.8863 7.0231-2.5839 2.646-0.7761 5.3312-1.4148 8.0461-1.9158 3.0295-0.56 6.0886-1.012 9.1477-1.346 3.4427-0.3734 6.8952-0.6583 10.3477-0.8548 3.8755-0.2259 7.751-0.3733 11.6265-0.4519 4.3279-0.0983 8.6559-0.1474 12.9839-0.1376h74.126zm0.01 4.0086c4.298-0.0099 8.597 0.0393 12.895 0.1277 3.827 0.0884 7.653 0.2358 11.479 0.4519 3.384 0.1965 6.767 0.4716 10.131 0.8449 2.971 0.3144 5.932 0.7467 8.863 1.2969 2.577 0.4716 5.134 1.0807 7.653 1.8176 2.223 0.6484 4.396 1.4541 6.501 2.3972 1.909 0.8548 3.738 1.8667 5.469 3.0261 1.623 1.0905 3.138 2.3383 4.525 3.7236s2.636 2.8983 3.738 4.5194c1.16 1.7291 2.174 3.5467 3.029 5.4429 0.945 2.1123 1.751 4.2836 2.4 6.4941 0.748 2.5152 1.348 5.0598 1.83 7.6339 0.541 2.9278 0.974 5.8752 1.298 8.8423 0.374 3.3601 0.65 6.73 0.846 10.1097 0.217 3.8218 0.374 7.6338 0.453 11.4557 0.088 4.2934 0.137 8.577 0.137 12.8704v58.2119c0 4.293-0.049 8.577-0.137 12.87-0.079 3.822-0.236 7.644-0.453 11.456-0.196 3.38-0.472 6.75-0.846 10.12-0.324 2.957-0.757 5.904-1.298 8.832-0.482 2.574-1.082 5.119-1.83 7.634-0.649 2.22-1.455 4.382-2.4 6.494-0.855 1.896-1.869 3.724-3.029 5.443-1.102 1.631-2.351 3.144-3.738 4.529-1.387 1.376-2.902 2.623-4.525 3.714-1.731 1.159-3.56 2.171-5.469 3.026-2.105 0.953-4.278 1.749-6.501 2.397-2.519 0.737-5.076 1.346-7.653 1.818-2.931 0.55-5.892 0.982-8.863 1.306-3.364 0.364-6.747 0.649-10.131 0.836-3.826 0.216-7.652 0.373-11.479 0.452-4.298 0.098-8.597 0.137-12.895 0.137h-0.01-74.126-0.0099c-4.2984 0-8.5969-0.039-12.8953-0.137-3.8263-0.079-7.6526-0.236-11.4789-0.452-3.3837-0.187-6.7674-0.472-10.1314-0.836-2.9705-0.324-5.9313-0.756-8.8625-1.306-2.5771-0.472-5.1345-1.081-7.6526-1.818-2.223-0.648-4.3968-1.444-6.5017-2.397-1.9083-0.855-3.7378-1.867-5.469-3.026-1.623-1.091-3.1378-2.338-4.5247-3.714-1.3869-1.385-2.6361-2.898-3.7378-4.529-1.1606-1.719-2.1738-3.547-3.0295-5.443-0.9443-2.112-1.7509-4.274-2.4001-6.494-0.7475-2.515-1.3476-5.06-1.8295-7.634-0.541-2.928-0.9738-5.875-1.2984-8.832-0.3738-3.37-0.6492-6.74-0.8459-10.12-0.2164-3.812-0.37381-7.634-0.4525-11.456-0.08853-4.293-0.13771-8.577-0.13771-12.87v-58.2119c0-4.2934 0.04918-8.577 0.13771-12.8704 0.07869-3.8219 0.2361-7.6339 0.4525-11.4557 0.1967-3.3797 0.4721-6.7496 0.8459-10.1097 0.3246-2.9671 0.7574-5.9145 1.2984-8.8423 0.4819-2.5741 1.082-5.1187 1.8295-7.6339 0.6492-2.2105 1.4558-4.3818 2.4001-6.4941 0.8557-1.8962 1.8689-3.7138 3.0295-5.4429 1.1017-1.6211 2.3509-3.1341 3.7378-4.5194s2.9017-2.6331 4.5247-3.7236c1.7312-1.1594 3.5607-2.1713 5.469-3.0261 2.1049-0.9431 4.2787-1.7488 6.5017-2.3972 2.5181-0.7369 5.0755-1.346 7.6526-1.8176 2.9312-0.5502 5.892-0.9825 8.8625-1.2969 3.364-0.3733 6.7477-0.6484 10.1314-0.8449 3.8263-0.2161 7.6526-0.3635 11.4789-0.4519 4.2984-0.0884 8.5969-0.1376 12.8953-0.1277h0.0099 74.126 0.01z" clip-rule="evenodd" fill="url(#paint5_linear)" fill-rule="evenodd" opacity=".4"/>
 </g>
 <defs>
  <filter id="filter0_d" x="-4.32414" y="5.94696" width="264.648" height="248.338" color-interpolation-filters="sRGB" filterUnits="userSpaceOnUse">
   <feFlood flood-opacity="0" result="BackgroundImageFix"/>
   <feColorMatrix in="SourceAlpha" values="0 0 0 0 0 0 0 0 0 0 0 0 0 0 0 0 0 0 127 0"/>
   <feOffset dy="4"/>
   <feGaussianBlur stdDeviation="5"/>
   <feColorMatrix values="0 0 0 0 0 0 0 0 0 0 0 0 0 0 0 0 0 0 0.4 0"/>
   <feBlend in2="BackgroundImageFix" result="effect1_dropShadow"/>
   <feBlend in="SourceGraphic" in2="effect1_dropShadow" result="shape"/>
  </filter>
  <filter id="filter1_f" x="55" y="118.703" width="146.875" height="83.4375" color-interpolation-filters="sRGB" filterUnits="userSpaceOnUse">
   <feFlood flood-opacity="0" result="BackgroundImageFix"/>
   <feBlend in="SourceGraphic" in2="BackgroundImageFix" result="shape"/>
   <feGaussianBlur result="effect1_foregroundBlur" stdDeviation="5"/>
  </filter>
  <linearGradient id="paint0_linear" x1="128" x2="128" y1="245.36" y2="11.947" gradientUnits="userSpaceOnUse">
   <stop stop-color="#957552" offset=".0217391"/>
   <stop stop-color="#b29373" offset="1"/>
  </linearGradient>
  <linearGradient id="paint1_linear" x1="87.6562" x2="87.6562" y1="63.0002" y2="150.353" gradientUnits="userSpaceOnUse">
   <stop stop-color="#545e63" offset="1e-7"/>
   <stop stop-color="#343b40" offset="1"/>
  </linearGradient>
  <linearGradient id="paint2_linear" x1="137.953" x2="137.953" y1="113.07" y2="132.102" gradientUnits="userSpaceOnUse">
   <stop stop-color="#49535e" offset="0"/>
   <stop stop-color="#2f3943" offset="1"/>
  </linearGradient>
  <linearGradient id="paint3_linear" x1="118.922" x2="118.922" y1="113.07" y2="132.102" gradientUnits="userSpaceOnUse">
   <stop stop-color="#49535e" offset="0"/>
   <stop stop-color="#2f3943" offset="1"/>
  </linearGradient>
  <linearGradient id="paint4_linear" x1="65" x2="65" y1="126.438" y2="189.875" gradientUnits="userSpaceOnUse">
   <stop stop-color="#dedede" offset="1e-7"/>
   <stop stop-color="#a1a1a1" offset="1"/>
  </linearGradient>
  <linearGradient id="paint5_linear" x1="132.082" x2="132.082" y1="11.95" y2="240.29" gradientUnits="userSpaceOnUse">
   <stop stop-color="white" offset="0"/>
   <stop stop-color="white" stop-opacity=".0980392" offset=".125"/>
   <stop stop-opacity=".0980392" offset=".925"/>
   <stop stop-opacity=".498039" offset="1"/>
  </linearGradient>
  <clipPath id="clip0">
   <rect width="256" height="256" fill="white"/>
  </clipPath>
 </defs>
</svg>
