<svg xmlns="http://www.w3.org/2000/svg" style="isolation:isolate" width="256" height="256" viewBox="0 0 256 256">
 <defs>
  <filter id="DlHWXcb7kmQgLvXW0k3hJxmRZAwigLmf" width="400%" height="400%" x="-200%" y="-200%" color-interpolation-filters="sRGB" filterUnits="objectBoundingBox">
   <feGaussianBlur xmlns="http://www.w3.org/2000/svg" in="SourceGraphic" stdDeviation="4.294"/>
   <feOffset xmlns="http://www.w3.org/2000/svg" dx="0" dy="4" result="pf_100_offsetBlur"/>
   <feFlood xmlns="http://www.w3.org/2000/svg" flood-opacity=".4"/>
   <feComposite xmlns="http://www.w3.org/2000/svg" in2="pf_100_offsetBlur" operator="in" result="pf_100_dropShadow"/>
   <feBlend xmlns="http://www.w3.org/2000/svg" in="SourceGraphic" in2="pf_100_dropShadow" mode="normal"/>
  </filter>
 </defs>
 <g filter="url(#DlHWXcb7kmQgLvXW0k3hJxmRZAwigLmf)">
  <linearGradient id="_lgradient_112" x1="0" x2="0" y1="0" y2="1" gradientTransform="matrix(244.648,0,0,228.338,5.807,12.075)" gradientUnits="userSpaceOnUse">
   <stop offset="0%" style="stop-color:#4c5561"/>
   <stop offset="100%" style="stop-color:#2e3842"/>
  </linearGradient>
  <path fill="url(#_lgradient_112)" d="M 165.816 12.075 C 239.871 12.075 250.455 22.632 250.455 96.619 L 250.455 155.87 C 250.455 229.856 239.871 240.413 165.816 240.413 L 90.446 240.413 C 16.39 240.413 5.807 229.856 5.807 155.87 L 5.807 96.619 C 5.807 22.632 16.39 12.075 90.446 12.075 L 165.816 12.075 Z"/>
 </g>
 <g opacity=".4">
  <linearGradient id="_lgradient_113" x1=".517" x2=".517" y1="0" y2="1" gradientTransform="matrix(244.65,0,0,228.34,5.68,11.95)" gradientUnits="userSpaceOnUse">
   <stop offset="0%" style="stop-color:#ffffff"/>
   <stop offset="12.5%" stop-opacity=".098" style="stop-color:#ffffff"/>
   <stop offset="92.5%" stop-opacity=".098" style="stop-color:#000000"/>
   <stop offset="100%" stop-opacity=".498" style="stop-color:#000000"/>
  </linearGradient>
  <path fill="url(#_lgradient_113)" fill-rule="evenodd" d="M 165.068 11.951 C 169.396 11.941 173.724 11.991 178.052 12.089 C 181.927 12.167 185.803 12.315 189.678 12.541 C 193.131 12.737 196.583 13.022 200.026 13.395 C 203.085 13.73 206.144 14.181 209.174 14.741 C 211.889 15.243 214.574 15.881 217.22 16.657 C 219.62 17.355 221.971 18.219 224.243 19.241 C 226.358 20.184 228.384 21.304 230.302 22.591 C 232.142 23.829 233.863 25.244 235.437 26.806 C 237.001 28.378 238.417 30.088 239.656 31.925 C 240.945 33.841 242.066 35.865 243.02 37.967 C 244.043 40.247 244.909 42.585 245.617 44.972 C 246.394 47.615 247.034 50.297 247.535 53.009 C 248.096 56.035 248.548 59.081 248.883 62.136 C 249.257 65.575 249.542 69.014 249.739 72.462 C 249.965 76.323 250.112 80.194 250.201 84.055 C 250.289 88.378 250.339 92.701 250.329 97.014 L 250.329 155.226 C 250.339 159.549 250.289 163.862 250.201 168.185 C 250.112 172.056 249.965 175.917 249.739 179.778 C 249.542 183.226 249.257 186.675 248.883 190.104 C 248.548 193.159 248.096 196.215 247.535 199.241 C 247.034 201.943 246.394 204.625 245.617 207.268 C 244.909 209.655 244.043 212.003 243.02 214.273 C 242.066 216.385 240.945 218.399 239.656 220.315 C 238.417 222.152 237.001 223.872 235.437 225.434 C 233.863 226.996 232.142 228.411 230.302 229.649 C 228.384 230.936 226.358 232.056 224.243 232.999 C 221.971 234.021 219.62 234.885 217.22 235.593 C 214.574 236.369 211.889 237.007 209.174 237.499 C 206.144 238.068 203.085 238.51 200.026 238.845 C 196.583 239.218 193.131 239.503 189.678 239.699 C 185.803 239.925 181.927 240.073 178.052 240.161 C 173.724 240.249 169.396 240.299 165.068 240.289 L 90.942 240.289 C 86.614 240.299 82.286 240.249 77.958 240.161 C 74.083 240.073 70.207 239.925 66.332 239.699 C 62.879 239.503 59.427 239.218 55.984 238.845 C 52.925 238.51 49.866 238.068 46.836 237.499 C 44.121 237.007 41.436 236.369 38.79 235.593 C 36.39 234.885 34.039 234.021 31.767 232.999 C 29.652 232.056 27.626 230.936 25.708 229.649 C 23.868 228.411 22.147 226.996 20.573 225.434 C 19.009 223.872 17.593 222.152 16.354 220.315 C 15.065 218.399 13.944 216.385 12.99 214.273 C 11.967 212.003 11.101 209.655 10.393 207.268 C 9.616 204.625 8.976 201.943 8.475 199.241 C 7.914 196.215 7.462 193.159 7.127 190.104 C 6.753 186.675 6.468 183.226 6.271 179.778 C 6.045 175.917 5.898 172.056 5.809 168.185 C 5.721 163.862 5.671 159.549 5.681 155.226 L 5.681 97.014 C 5.671 92.701 5.721 88.378 5.809 84.055 C 5.898 80.194 6.045 76.323 6.271 72.462 C 6.468 69.014 6.753 65.575 7.127 62.136 C 7.462 59.081 7.914 56.035 8.475 53.009 C 8.976 50.297 9.616 47.615 10.393 44.972 C 11.101 42.585 11.967 40.247 12.99 37.967 C 13.944 35.865 15.065 33.841 16.354 31.925 C 17.593 30.088 19.009 28.378 20.573 26.806 C 22.147 25.244 23.868 23.829 25.708 22.591 C 27.626 21.304 29.652 20.184 31.767 19.241 C 34.039 18.219 36.39 17.355 38.79 16.657 C 41.436 15.881 44.121 15.243 46.836 14.741 C 49.866 14.181 52.925 13.73 55.984 13.395 C 59.427 13.022 62.879 12.737 66.332 12.541 C 70.207 12.315 74.083 12.167 77.958 12.089 C 82.286 11.991 86.614 11.941 90.942 11.951 L 165.068 11.951 Z M 165.078 15.96 C 169.376 15.95 173.675 15.999 177.973 16.087 C 181.8 16.176 185.626 16.323 189.452 16.539 C 192.836 16.736 196.219 17.011 199.583 17.384 C 202.554 17.699 205.515 18.131 208.446 18.681 C 211.023 19.153 213.58 19.762 216.099 20.499 C 218.322 21.147 220.495 21.953 222.6 22.896 C 224.509 23.751 226.338 24.763 228.069 25.922 C 229.692 27.013 231.207 28.26 232.594 29.646 C 233.981 31.031 235.23 32.544 236.332 34.165 C 237.492 35.894 238.506 37.712 239.361 39.608 C 240.306 41.72 241.112 43.892 241.761 46.102 C 242.509 48.617 243.109 51.162 243.591 53.736 C 244.132 56.664 244.565 59.611 244.889 62.578 C 245.263 65.938 245.539 69.308 245.735 72.688 C 245.952 76.51 246.109 80.322 246.188 84.144 C 246.276 88.437 246.325 92.721 246.325 97.014 C 246.325 97.014 246.325 97.014 246.325 97.014 L 246.325 155.226 C 246.325 155.226 246.325 155.226 246.325 155.226 C 246.325 159.519 246.276 163.803 246.188 168.096 C 246.109 171.918 245.952 175.74 245.735 179.552 C 245.539 182.932 245.263 186.302 244.889 189.672 C 244.565 192.629 244.132 195.576 243.591 198.504 C 243.109 201.078 242.509 203.623 241.761 206.138 C 241.112 208.358 240.306 210.52 239.361 212.632 C 238.506 214.528 237.492 216.356 236.332 218.075 C 235.23 219.706 233.981 221.219 232.594 222.604 C 231.207 223.98 229.692 225.227 228.069 226.318 C 226.338 227.477 224.509 228.489 222.6 229.344 C 220.495 230.297 218.322 231.093 216.099 231.741 C 213.58 232.478 211.023 233.087 208.446 233.559 C 205.515 234.109 202.554 234.541 199.583 234.865 C 196.219 235.229 192.836 235.514 189.452 235.701 C 185.626 235.917 181.8 236.074 177.973 236.153 C 173.675 236.251 169.376 236.29 165.078 236.29 C 165.078 236.29 165.078 236.29 165.068 236.29 L 90.942 236.29 C 90.932 236.29 90.932 236.29 90.932 236.29 C 86.634 236.29 82.335 236.251 78.037 236.153 C 74.21 236.074 70.384 235.917 66.558 235.701 C 63.174 235.514 59.791 235.229 56.427 234.865 C 53.456 234.541 50.495 234.109 47.564 233.559 C 44.987 233.087 42.43 232.478 39.911 231.741 C 37.688 231.093 35.515 230.297 33.41 229.344 C 31.501 228.489 29.672 227.477 27.941 226.318 C 26.318 225.227 24.803 223.98 23.416 222.604 C 22.029 221.219 20.78 219.706 19.678 218.075 C 18.518 216.356 17.504 214.528 16.649 212.632 C 15.704 210.52 14.898 208.358 14.249 206.138 C 13.501 203.623 12.901 201.078 12.419 198.504 C 11.878 195.576 11.445 192.629 11.121 189.672 C 10.747 186.302 10.472 182.932 10.275 179.552 C 10.058 175.74 9.901 171.918 9.822 168.096 C 9.734 163.803 9.685 159.519 9.685 155.226 C 9.685 155.226 9.685 155.226 9.685 155.226 L 9.685 97.014 C 9.685 97.014 9.685 97.014 9.685 97.014 C 9.685 92.721 9.734 88.437 9.822 84.144 C 9.901 80.322 10.058 76.51 10.275 72.688 C 10.472 69.308 10.747 65.938 11.121 62.578 C 11.445 59.611 11.878 56.664 12.419 53.736 C 12.901 51.162 13.501 48.617 14.249 46.102 C 14.898 43.892 15.704 41.72 16.649 39.608 C 17.504 37.712 18.518 35.894 19.678 34.165 C 20.78 32.544 22.029 31.031 23.416 29.646 C 24.803 28.26 26.318 27.013 27.941 25.922 C 29.672 24.763 31.501 23.751 33.41 22.896 C 35.515 21.953 37.688 21.147 39.911 20.499 C 42.43 19.762 44.987 19.153 47.564 18.681 C 50.495 18.131 53.456 17.699 56.427 17.384 C 59.791 17.011 63.174 16.736 66.558 16.539 C 70.384 16.323 74.21 16.176 78.037 16.087 C 82.335 15.999 86.634 15.95 90.932 15.96 C 90.932 15.96 90.932 15.96 90.942 15.96 L 165.068 15.96 C 165.078 15.96 165.078 15.96 165.078 15.96 Z"/>
 </g>
 <defs>
  <filter id="puStL8W3drhwIojaGQlSecu61FsnVEiv" width="400%" height="400%" x="-200%" y="-200%" color-interpolation-filters="sRGB" filterUnits="objectBoundingBox">
   <feGaussianBlur xmlns="http://www.w3.org/2000/svg" stdDeviation="4.294"/>
  </filter>
 </defs>
 <g opacity=".4" filter="url(#puStL8W3drhwIojaGQlSecu61FsnVEiv)">
  <path fill-rule="evenodd" d="M 140.992 133.878 C 138.248 133.915 141.508 135.289 145.092 135.842 C 146.025 135.114 146.922 134.342 147.779 133.527 C 145.551 134.073 143.281 134.086 140.992 133.878 L 140.992 133.878 L 140.992 133.878 Z M 155.718 130.206 C 157.358 127.949 158.548 125.48 158.969 122.927 C 158.6 124.745 157.617 126.316 156.684 127.976 C 151.554 131.207 156.199 126.059 156.68 124.099 C 151.166 131.048 155.92 128.265 155.718 130.206 L 155.718 130.206 L 155.718 130.206 L 155.718 130.206 Z M 161.16 116.055 C 161.494 111.113 160.188 112.678 159.749 114.56 C 160.26 114.828 160.666 118.047 161.16 116.055 L 161.16 116.055 L 161.16 116.055 Z M 130.581 48.499 C 132.046 48.76 133.747 48.962 133.503 49.313 C 135.112 48.958 135.474 48.639 130.581 48.499 L 130.581 48.499 L 130.581 48.499 Z M 133.505 49.313 L 132.474 49.528 L 133.435 49.439 L 133.505 49.313 L 133.505 49.313 L 133.505 49.313 Z M 179.185 117.929 C 179.35 122.367 177.89 124.523 176.569 128.336 L 174.194 129.518 C 172.253 133.29 174.387 131.913 172.997 134.912 C 169.962 137.607 163.801 143.341 161.829 143.867 C 160.387 143.836 162.804 142.166 163.12 141.514 C 159.062 144.298 159.863 145.694 153.657 147.39 L 153.477 146.984 C 138.176 154.184 116.92 139.918 117.199 120.455 C 117.038 121.689 116.735 121.38 116.397 121.876 C 115.607 111.864 121.022 101.807 130.155 97.695 C 139.087 93.275 149.559 95.086 155.953 101.054 C 152.441 96.451 145.444 91.571 137.158 92.022 C 129.038 92.155 121.439 97.314 118.904 102.918 C 114.745 105.536 114.261 113.014 112.449 114.384 C 110.008 132.311 117.036 140.054 128.926 149.166 C 130.792 150.426 129.451 150.619 129.701 151.578 C 125.752 149.73 122.137 146.938 119.161 143.52 C 120.741 145.828 122.444 148.073 124.646 149.836 C 120.919 148.578 115.943 140.812 114.494 140.496 C 120.914 151.991 140.536 160.655 150.817 156.355 C 146.06 156.532 140.018 156.453 134.677 154.478 C 132.427 153.323 129.379 150.933 129.925 150.487 C 143.951 155.723 158.436 154.451 170.57 144.725 C 173.66 142.318 177.032 138.228 178.007 138.173 C 176.54 140.38 178.259 139.234 177.131 141.183 C 180.202 136.222 175.792 139.163 180.309 132.616 L 181.977 134.912 C 181.352 130.79 187.092 125.791 186.508 119.277 C 187.825 117.286 187.976 121.423 186.58 126.004 C 188.518 120.921 187.092 120.104 187.588 115.908 C 188.123 117.319 188.834 118.816 189.196 120.306 C 187.932 115.392 190.487 112.035 191.122 109.178 C 190.494 108.903 189.174 111.349 188.869 105.549 C 188.915 103.029 189.572 104.228 189.824 103.607 C 189.331 103.323 188.033 101.39 187.245 97.685 C 187.812 96.813 188.773 99.943 189.552 100.07 C 189.05 97.125 188.189 94.879 188.152 92.618 C 185.875 87.86 187.346 93.253 185.502 90.575 C 183.077 83.018 187.511 88.821 187.812 85.39 C 191.482 90.707 193.575 98.955 194.539 102.369 C 193.804 98.205 192.619 94.17 191.17 90.266 C 192.289 90.739 189.372 81.701 192.623 87.686 C 189.153 74.929 177.785 63.008 167.325 57.417 C 168.601 58.587 170.216 60.056 169.639 60.288 C 164.433 57.193 165.348 56.948 164.602 55.641 C 160.368 53.916 160.086 55.782 157.284 55.644 C 149.294 51.405 147.755 51.855 140.402 49.202 L 140.737 50.767 C 135.445 49.004 134.57 51.432 128.852 50.771 C 128.505 50.501 130.685 49.787 132.482 49.528 C 127.364 50.204 127.603 48.517 122.596 49.713 C 123.829 48.848 125.136 48.273 126.452 47.538 C 122.28 47.792 116.489 49.967 118.276 47.986 C 111.47 51.025 99.382 55.288 92.599 61.649 L 92.386 60.223 C 89.278 63.954 78.832 71.366 78 76.202 L 77.168 76.395 C 75.553 79.133 74.504 82.236 73.222 85.052 C 71.108 88.657 70.122 86.44 70.423 87.006 C 66.263 95.441 64.192 102.527 62.409 108.343 C 63.68 110.244 62.44 119.79 62.92 127.429 C 60.833 165.165 89.403 201.8 120.632 210.257 C 125.21 211.897 132.015 211.838 137.805 212 C 130.976 210.046 130.094 210.966 123.437 208.646 C 118.638 206.383 117.587 203.802 114.185 200.85 L 115.532 203.229 C 108.864 200.869 111.654 200.309 106.228 198.591 L 107.666 196.716 C 105.504 196.55 101.941 193.075 100.967 191.145 L 98.602 191.238 C 95.762 187.737 94.247 185.208 94.359 183.248 L 93.594 184.611 C 92.729 183.125 83.141 171.463 88.115 174.178 C 87.191 173.337 85.962 172.806 84.631 170.383 L 85.643 169.228 C 83.253 166.147 81.238 162.2 81.392 160.885 C 82.669 162.608 83.554 162.931 84.432 163.227 C 78.387 148.231 78.048 162.402 73.472 147.963 L 74.438 147.886 C 73.698 146.763 73.244 145.553 72.649 144.361 L 73.072 140.164 C 68.722 135.138 71.856 118.774 72.486 109.801 C 72.917 106.153 76.117 102.268 78.547 96.176 L 77.067 95.922 C 79.899 90.985 93.234 76.086 99.414 76.85 C 102.406 73.092 98.818 76.836 98.232 75.891 C 104.806 69.09 106.873 71.086 111.309 69.861 C 116.09 67.023 107.203 70.971 109.47 68.779 C 117.741 66.669 115.33 63.978 126.117 62.907 C 127.256 63.554 123.478 63.906 122.53 64.746 C 129.418 61.373 144.331 62.143 154.022 66.616 C 165.258 71.871 177.89 87.397 178.39 102.006 L 178.957 102.158 C 178.671 107.966 179.846 114.683 177.805 120.851 L 179.185 117.929 L 179.185 117.929 L 179.185 117.929 Z M 111.031 137.644 L 110.644 139.567 C 112.449 142.019 113.882 144.675 116.184 146.585 C 114.527 143.354 113.298 142.019 111.031 137.644 L 111.031 137.644 Z M 115.295 137.478 C 114.34 136.42 113.777 135.149 113.142 133.885 C 113.748 136.11 114.99 138.022 116.141 139.969 L 115.295 137.478 L 115.295 137.478 L 115.295 137.478 Z M 190.759 121.075 L 190.356 122.089 C 189.612 127.405 187.995 132.562 185.571 137.352 C 188.275 132.269 190.018 126.709 190.759 121.075 L 190.759 121.075 L 190.759 121.075 Z M 131.126 47.182 C 132.98 46.504 135.685 46.809 137.658 46.363 C 135.09 46.578 132.535 46.706 130.013 47.028 L 131.126 47.182 L 131.126 47.182 Z M 65.972 81.828 C 66.4 85.785 62.997 87.322 66.725 84.71 C 68.728 80.203 65.947 83.467 65.972 81.828 L 65.972 81.828 Z M 61.586 100.149 C 62.447 97.509 62.602 95.926 62.931 94.396 C 60.556 97.434 61.836 98.082 61.586 100.149 L 61.586 100.149 Z"/>
 </g>
 <linearGradient id="_lgradient_114" x1="0" x2="0" y1="0" y2="1" gradientTransform="matrix(133.078,0,0,165.637,61.461,43.363)" gradientUnits="userSpaceOnUse">
  <stop offset="0%" style="stop-color:#ff6d57"/>
  <stop offset="50%" style="stop-color:#ff5160"/>
  <stop offset="100%" style="stop-color:#f50f22"/>
 </linearGradient>
 <path fill="url(#_lgradient_114)" fill-rule="evenodd" d="M 140.992 130.878 C 138.248 130.915 141.508 132.289 145.092 132.842 C 146.025 132.114 146.922 131.342 147.779 130.527 C 145.551 131.073 143.281 131.086 140.992 130.878 L 140.992 130.878 L 140.992 130.878 Z M 155.718 127.206 C 157.358 124.949 158.548 122.48 158.969 119.927 C 158.6 121.745 157.617 123.316 156.684 124.976 C 151.554 128.207 156.199 123.059 156.68 121.099 C 151.166 128.048 155.92 125.265 155.718 127.206 L 155.718 127.206 L 155.718 127.206 L 155.718 127.206 Z M 161.16 113.055 C 161.494 108.113 160.188 109.678 159.749 111.56 C 160.26 111.828 160.666 115.047 161.16 113.055 L 161.16 113.055 L 161.16 113.055 Z M 130.581 45.499 C 132.046 45.76 133.747 45.962 133.503 46.313 C 135.112 45.958 135.474 45.639 130.581 45.499 L 130.581 45.499 L 130.581 45.499 Z M 133.505 46.313 L 132.474 46.528 L 133.435 46.439 L 133.505 46.313 L 133.505 46.313 L 133.505 46.313 Z M 179.185 114.929 C 179.35 119.367 177.89 121.523 176.569 125.336 L 174.194 126.518 C 172.253 130.29 174.387 128.913 172.997 131.912 C 169.962 134.607 163.801 140.341 161.829 140.867 C 160.387 140.836 162.804 139.166 163.12 138.514 C 159.062 141.298 159.863 142.694 153.657 144.39 L 153.477 143.984 C 138.176 151.184 116.92 136.918 117.199 117.455 C 117.038 118.689 116.735 118.38 116.397 118.876 C 115.607 108.864 121.022 98.807 130.155 94.695 C 139.087 90.275 149.559 92.086 155.953 98.054 C 152.441 93.451 145.444 88.571 137.158 89.022 C 129.038 89.155 121.439 94.314 118.904 99.918 C 114.745 102.536 114.261 110.014 112.449 111.384 C 110.008 129.311 117.036 137.054 128.926 146.166 C 130.792 147.426 129.451 147.619 129.701 148.578 C 125.752 146.73 122.137 143.938 119.161 140.52 C 120.741 142.828 122.444 145.073 124.646 146.836 C 120.919 145.578 115.943 137.812 114.494 137.496 C 120.914 148.991 140.536 157.655 150.817 153.355 C 146.06 153.532 140.018 153.453 134.677 151.478 C 132.427 150.323 129.379 147.933 129.925 147.487 C 143.951 152.723 158.436 151.451 170.57 141.725 C 173.66 139.318 177.032 135.228 178.007 135.173 C 176.54 137.38 178.259 136.234 177.131 138.183 C 180.202 133.222 175.792 136.163 180.309 129.616 L 181.977 131.912 C 181.352 127.79 187.092 122.791 186.508 116.277 C 187.825 114.286 187.976 118.423 186.58 123.004 C 188.518 117.921 187.092 117.104 187.588 112.908 C 188.123 114.319 188.834 115.816 189.196 117.306 C 187.932 112.392 190.487 109.035 191.122 106.178 C 190.494 105.903 189.174 108.349 188.869 102.549 C 188.915 100.029 189.572 101.228 189.824 100.607 C 189.331 100.323 188.033 98.39 187.245 94.685 C 187.812 93.813 188.773 96.943 189.552 97.07 C 189.05 94.125 188.189 91.879 188.152 89.618 C 185.875 84.86 187.346 90.253 185.502 87.575 C 183.077 80.018 187.511 85.821 187.812 82.39 C 191.482 87.707 193.575 95.955 194.539 99.369 C 193.804 95.205 192.619 91.17 191.17 87.266 C 192.289 87.739 189.372 78.701 192.623 84.686 C 189.153 71.929 177.785 60.008 167.325 54.417 C 168.601 55.587 170.216 57.056 169.639 57.288 C 164.433 54.193 165.348 53.948 164.602 52.641 C 160.368 50.916 160.086 52.782 157.284 52.644 C 149.294 48.405 147.755 48.855 140.402 46.202 L 140.737 47.767 C 135.445 46.004 134.57 48.432 128.852 47.771 C 128.505 47.501 130.685 46.787 132.482 46.528 C 127.364 47.204 127.603 45.517 122.596 46.713 C 123.829 45.848 125.136 45.273 126.452 44.538 C 122.28 44.792 116.489 46.967 118.276 44.986 C 111.47 48.025 99.382 52.288 92.599 58.649 L 92.386 57.223 C 89.278 60.954 78.832 68.366 78 73.202 L 77.168 73.395 C 75.553 76.133 74.504 79.236 73.222 82.052 C 71.108 85.657 70.122 83.44 70.423 84.006 C 66.263 92.441 64.192 99.527 62.409 105.343 C 63.68 107.244 62.44 116.79 62.92 124.429 C 60.833 162.165 89.403 198.8 120.632 207.257 C 125.21 208.897 132.015 208.838 137.805 209 C 130.976 207.046 130.094 207.966 123.437 205.646 C 118.638 203.383 117.587 200.802 114.185 197.85 L 115.532 200.229 C 108.864 197.869 111.654 197.309 106.228 195.591 L 107.666 193.716 C 105.504 193.55 101.941 190.075 100.967 188.145 L 98.602 188.238 C 95.762 184.737 94.247 182.208 94.359 180.248 L 93.594 181.611 C 92.729 180.125 83.141 168.463 88.115 171.178 C 87.191 170.337 85.962 169.806 84.631 167.383 L 85.643 166.228 C 83.253 163.147 81.238 159.2 81.392 157.885 C 82.669 159.608 83.554 159.931 84.432 160.227 C 78.387 145.231 78.048 159.402 73.472 144.963 L 74.438 144.886 C 73.698 143.763 73.244 142.553 72.649 141.361 L 73.072 137.164 C 68.722 132.138 71.856 115.774 72.486 106.801 C 72.917 103.153 76.117 99.268 78.547 93.176 L 77.067 92.922 C 79.899 87.985 93.234 73.086 99.414 73.85 C 102.406 70.092 98.818 73.836 98.232 72.891 C 104.806 66.09 106.873 68.086 111.309 66.861 C 116.09 64.023 107.203 67.971 109.47 65.779 C 117.741 63.669 115.33 60.978 126.117 59.907 C 127.256 60.554 123.478 60.906 122.53 61.746 C 129.418 58.373 144.331 59.143 154.022 63.616 C 165.258 68.871 177.89 84.397 178.39 99.006 L 178.957 99.158 C 178.671 104.966 179.846 111.683 177.805 117.851 L 179.185 114.929 L 179.185 114.929 L 179.185 114.929 Z M 111.031 134.644 L 110.644 136.567 C 112.449 139.019 113.882 141.675 116.184 143.585 C 114.527 140.354 113.298 139.019 111.031 134.644 L 111.031 134.644 Z M 115.295 134.478 C 114.34 133.42 113.777 132.149 113.142 130.885 C 113.748 133.11 114.99 135.022 116.141 136.969 L 115.295 134.478 L 115.295 134.478 L 115.295 134.478 Z M 190.759 118.075 L 190.356 119.089 C 189.612 124.405 187.995 129.562 185.571 134.352 C 188.275 129.269 190.018 123.709 190.759 118.075 L 190.759 118.075 L 190.759 118.075 Z M 131.126 44.182 C 132.98 43.504 135.685 43.809 137.658 43.363 C 135.09 43.578 132.535 43.706 130.013 44.028 L 131.126 44.182 L 131.126 44.182 Z M 65.972 78.828 C 66.4 82.785 62.997 84.322 66.725 81.71 C 68.728 77.203 65.947 80.467 65.972 78.828 L 65.972 78.828 Z M 61.586 97.149 C 62.447 94.509 62.602 92.926 62.931 91.396 C 60.556 94.434 61.836 95.082 61.586 97.149 L 61.586 97.149 Z"/>
</svg>
