<svg xmlns="http://www.w3.org/2000/svg" style="isolation:isolate" width="256" height="256">
 <g filter="url(#a)">
  <linearGradient id="b" x1=".233" x2=".933" y1="-.071" y2=".924" gradientTransform="matrix(244.648 0 0 228.338 5.676 11.947)" gradientUnits="userSpaceOnUse">
   <stop offset="0%" stop-color="#e8e8e8"/>
   <stop offset="100%" stop-color="#f5f5f5"/>
  </linearGradient>
  <path fill="url(#b)" d="M165.685 11.947c74.055 0 84.639 10.557 84.639 84.544v59.251c0 73.986-10.584 84.543-84.639 84.543h-75.37c-74.055 0-84.639-10.557-84.639-84.543V96.491c0-73.987 10.584-84.544 84.639-84.544h75.37z"/>
 </g>
 <defs>
  <filter id="a" width="400%" height="400%" x="-200%" y="-200%" color-interpolation-filters="sRGB" filterUnits="objectBoundingBox">
   <feGaussianBlur xmlns="http://www.w3.org/2000/svg" in="SourceGraphic" stdDeviation="4.294"/>
   <feOffset xmlns="http://www.w3.org/2000/svg" dy="4" result="pf_100_offsetBlur"/>
   <feFlood xmlns="http://www.w3.org/2000/svg" flood-opacity=".4"/>
   <feComposite xmlns="http://www.w3.org/2000/svg" in2="pf_100_offsetBlur" operator="in" result="pf_100_dropShadow"/>
   <feBlend xmlns="http://www.w3.org/2000/svg" in="SourceGraphic" in2="pf_100_dropShadow"/>
  </filter>
 </defs>
 <linearGradient id="c" x2="0" y1=".5" y2="1.5" gradientTransform="matrix(59.358 0 0 227.09551 5.676 12.567)" gradientUnits="userSpaceOnUse">
  <stop offset="0%" stop-color="#07b3ff"/>
  <stop offset="100%" stop-color="#007de8"/>
 </linearGradient>
 <path fill="url(#c)" d="M65 239.662c-51.265-3.095-59.324-19.357-59.324-83.92V96.491c0-64.579 8.063-80.833 59.358-83.923-.027-.605-.042 227.402-.034 227.094z"/>
 <path fill="#ffffff" d="M90.25 98.125c0-37.461 30.414-67.875 67.875-67.875S226 60.664 226 98.125 195.586 166 158.125 166 90.25 135.586 90.25 98.125z"/>
 <linearGradient id="d" x2="0" y1=".5" y2="1.5" gradientTransform="matrix(121.797 0 0 121.799 97.227 37.227)" gradientUnits="userSpaceOnUse">
  <stop offset="0%" stop-color="#07b3ff"/>
  <stop offset="100%" stop-color="#007de8"/>
 </linearGradient>
 <path fill="url(#d)" d="M158.125 159.026c-33.634 0-60.898-27.265-60.898-60.899 0-33.633 27.265-60.9 60.898-60.9 33.634 0 60.899 27.267 60.899 60.9 0 33.634-27.265 60.899-60.899 60.899z"/>
 <path fill="#ffffff" d="M181.09 47.736a55.151 55.151 0 0 0-22.965-4.974c-2.303 0-4.573.141-6.801.414-8.239 11.395-12.508 29.899-12.167 41.235 0 0-.544 16.844 11.001 22.818 0 0 10.377 4.55 17.448-10.162 0 0 4.859-8.302 2.881-27.066 0 0 1.893.334 2.107.633.214.297 4.18 14.446 1.394 26.361 0 0-2.567 14.002-15.18 17.203-12.608 3.203-22.435-4.545-29.107-11.842-4.951-5.415-12.294-19.928-15.94-37.353a55.116 55.116 0 0 0-10.999 33.124 55.157 55.157 0 0 0 5.485 24.056c12.105 3.598 43.444 10.799 63.342-3.784 13.101-9.604 11.414-24.983 11.414-24.983-.217-11.698-7.34-23.318-7.34-23.318 27.695 25.054 11.326 52.887 11.326 52.887-7.6 15.523-23.2 25.466-36.877 29.929 2.616.38 5.292.576 8.013.576 30.576 0 55.363-24.786 55.363-55.363a55.135 55.135 0 0 0-12.2-34.673c-2.717.188-5.878.299-9.158.191 0 0-14.735.688-22.997 4.809 0 0-6.161 2.748-12.32 7.406 0 0-1.308.654-1.244 3.054.056 2.393-1.254 8.775-5.618 12.514 0 0-3.115 1.602-1.557 3.894 0 0 2.103 3.054 5.066-.154 0 0 7.641-7.861 8.108-20.529 0 0 2.417-2.064 6.235-2.672 0 0 .703 19.003-8.728 28.545 0 0-8.97 9.769-11.852-4.732 0 0-3.509-13.816 14.581-30.224 0 0 12.108-12.093 19.286-17.82z"/>
 <linearGradient id="e" x2="0" y1=".5" y2="1.5" gradientTransform="matrix(136.398 0 0 33.25 89.517 180.5)" gradientUnits="userSpaceOnUse">
  <stop offset="0%" stop-color="#07b3ff"/>
  <stop offset="100%" stop-color="#007de8"/>
 </linearGradient>
 <path fill="url(#e)" fill-rule="evenodd" d="M103.708 213.75q-3.583 0-6.384-1.401-2.801-1.4-4.455-3.789-1.653-2.388-2.503-5.281-.849-2.893-.849-6.154 0-3.031.872-5.901.873-2.871 2.549-5.305 1.676-2.434 4.478-3.926 2.801-1.493 6.292-1.493 4.271 0 7.003 1.975 2.733 1.975 4.845 5.373l-6.108 3.444q-2.571-4.087-5.74-4.087-2.48 0-4.134 1.63-1.653 1.631-2.227 3.743-.574 2.113-.574 4.547 0 4.179 1.722 7.05 1.722 2.87 5.213 2.87 1.974 0 3.444-1.286t1.47-2.985v-.23h-5.236v-6.659h12.4v5.052q0 6.016-3.375 9.415-3.376 3.398-8.703 3.398zm30.586 0q-2.572 0-4.845-.666-2.273-.666-4.248-2.112-1.975-1.447-3.146-4.065-1.171-2.618-1.171-6.108v-19.748h6.98v19.748q0 3.444 1.539 4.822 1.538 1.378 4.891 1.378 3.261 0 4.845-1.401 1.585-1.4 1.585-4.799v-19.748h6.98v19.748q0 3.444-1.148 6.039-1.148 2.595-3.1 4.065-1.952 1.469-4.248 2.158-2.296.689-4.914.689zm27.28-.551h-6.981v-32.148h6.981v32.148zm7.072 0v-32.148h11.849q4.041 0 7.164 1.355 3.123 1.355 4.937 3.674t2.71 5.121q.895 2.801.895 5.924 0 2.296-.505 4.478-.505 2.181-1.699 4.317-1.194 2.135-2.985 3.72-1.791 1.584-4.547 2.571-2.755.988-6.154.988h-11.665zm6.981-6.659h5.419q3.95 0 5.924-2.825 1.975-2.824 1.975-6.59t-1.906-6.613q-1.906-2.848-5.488-2.848h-5.924v18.876zm50.288 6.659h-24.019v-32.148h23.101v6.613h-16.12v5.649h9.001v6.613h-9.001v6.614h17.038v6.659z"/>
 <g opacity=".4">
  <linearGradient id="f" x1=".517" x2=".517" y2="1" gradientTransform="matrix(244.65 0 0 228.34 5.68 11.95)" gradientUnits="userSpaceOnUse">
   <stop offset="0%" stop-color="#ffffff"/>
   <stop offset="12.5%" stop-color="#ffffff" stop-opacity=".098"/>
   <stop offset="92.5%" stop-opacity=".098"/>
   <stop offset="100%" stop-opacity=".498"/>
  </linearGradient>
  <path fill="url(#f)" fill-rule="evenodd" d="M165.068 11.951c4.328-.01 8.656.04 12.984.138 3.875.078 7.75.226 11.626.452 3.453.196 6.905.481 10.348.854 3.06.335 6.118.786 9.148 1.346a80.47 80.47 0 0 1 8.046 1.916 53.64 53.64 0 0 1 7.023 2.584 40.413 40.413 0 0 1 6.06 3.35 35.176 35.176 0 0 1 5.134 4.215 35.072 35.072 0 0 1 4.22 5.119 41.692 41.692 0 0 1 3.363 6.042 55.982 55.982 0 0 1 2.597 7.005 80.224 80.224 0 0 1 1.918 8.037 124.43 124.43 0 0 1 1.348 9.127c.374 3.439.659 6.878.856 10.326.226 3.861.373 7.732.462 11.593.088 4.323.138 8.646.128 12.96v58.21c.01 4.324-.04 8.637-.128 12.96a325.177 325.177 0 0 1-.462 11.593 200.984 200.984 0 0 1-.856 10.326 124.691 124.691 0 0 1-1.348 9.137 80.687 80.687 0 0 1-1.918 8.027 55.414 55.414 0 0 1-2.597 7.005 41.18 41.18 0 0 1-3.364 6.042 34.559 34.559 0 0 1-4.22 5.119 35.177 35.177 0 0 1-5.134 4.215 40.412 40.412 0 0 1-6.059 3.35 55.138 55.138 0 0 1-7.023 2.594 77.806 77.806 0 0 1-8.046 1.906 120 120 0 0 1-9.148 1.346c-3.443.373-6.895.658-10.348.854-3.875.226-7.75.374-11.626.462-4.328.088-8.656.138-12.984.128H90.942c-4.328.01-8.656-.04-12.984-.128a328.387 328.387 0 0 1-11.626-.462 203.003 203.003 0 0 1-10.348-.854 120 120 0 0 1-9.148-1.346 77.806 77.806 0 0 1-8.046-1.906 55.139 55.139 0 0 1-7.023-2.594 40.413 40.413 0 0 1-6.06-3.35 35.176 35.176 0 0 1-5.134-4.215 34.56 34.56 0 0 1-4.22-5.119 41.183 41.183 0 0 1-3.363-6.042 55.415 55.415 0 0 1-2.597-7.005 80.682 80.682 0 0 1-1.918-8.027 124.688 124.688 0 0 1-1.348-9.137 200.993 200.993 0 0 1-.856-10.326 325.212 325.212 0 0 1-.462-11.593 569.197 569.197 0 0 1-.128-12.96v-58.21c-.01-4.314.04-8.637.128-12.96.089-3.86.236-7.732.462-11.593.197-3.448.482-6.887.856-10.326.335-3.055.787-6.101 1.348-9.127a80.219 80.219 0 0 1 1.918-8.037 55.983 55.983 0 0 1 2.597-7.005 41.695 41.695 0 0 1 3.364-6.042 35.072 35.072 0 0 1 4.22-5.119 35.176 35.176 0 0 1 5.134-4.215 40.413 40.413 0 0 1 6.059-3.35 53.64 53.64 0 0 1 7.023-2.584 80.47 80.47 0 0 1 8.046-1.916 125.11 125.11 0 0 1 9.148-1.346c3.443-.373 6.895-.658 10.348-.854 3.875-.226 7.75-.374 11.626-.452 4.328-.098 8.656-.148 12.984-.138h74.126zm.01 4.009c4.298-.01 8.597.039 12.895.127 3.827.089 7.653.236 11.48.452 3.383.197 6.766.472 10.13.845 2.971.315 5.932.747 8.863 1.297a75.943 75.943 0 0 1 7.653 1.818 50.493 50.493 0 0 1 6.501 2.397 37.038 37.038 0 0 1 5.47 3.026 30.383 30.383 0 0 1 4.524 3.724 31.05 31.05 0 0 1 3.738 4.519 37.271 37.271 0 0 1 3.03 5.443 51.46 51.46 0 0 1 2.4 6.494 75.563 75.563 0 0 1 1.829 7.634c.54 2.928.974 5.875 1.298 8.842.374 3.36.65 6.73.846 10.11.217 3.822.374 7.634.453 11.456.088 4.293.137 8.577.137 12.87v58.212c0 4.293-.049 8.577-.137 12.87a317.503 317.503 0 0 1-.453 11.456c-.196 3.38-.472 6.75-.846 10.12a121.689 121.689 0 0 1-1.298 8.832 75.562 75.562 0 0 1-1.83 7.634 50.902 50.902 0 0 1-2.4 6.494 36.767 36.767 0 0 1-3.03 5.443 30.615 30.615 0 0 1-3.737 4.53 30.938 30.938 0 0 1-4.525 3.713 37.038 37.038 0 0 1-5.469 3.026 49.07 49.07 0 0 1-6.501 2.397 75.942 75.942 0 0 1-7.653 1.818c-2.931.55-5.892.982-8.863 1.306-3.364.364-6.747.649-10.13.836-3.827.216-7.653.373-11.48.452-4.298.098-8.597.137-12.895.137H90.932c-4.298 0-8.597-.04-12.895-.137a320.093 320.093 0 0 1-11.48-.452 193.696 193.696 0 0 1-10.13-.836 116.71 116.71 0 0 1-8.863-1.306 75.942 75.942 0 0 1-7.653-1.818 49.07 49.07 0 0 1-6.501-2.397 37.038 37.038 0 0 1-5.47-3.026 30.938 30.938 0 0 1-4.524-3.714 30.615 30.615 0 0 1-3.738-4.529 36.766 36.766 0 0 1-3.03-5.443 50.903 50.903 0 0 1-2.4-6.494 75.567 75.567 0 0 1-1.829-7.634 121.69 121.69 0 0 1-1.298-8.832c-.374-3.37-.65-6.74-.846-10.12a317.535 317.535 0 0 1-.453-11.456 623.851 623.851 0 0 1-.137-12.87V97.014c0-4.293.049-8.577.137-12.87.079-3.822.236-7.634.453-11.456.197-3.38.472-6.75.846-10.11.324-2.967.757-5.914 1.298-8.842a75.568 75.568 0 0 1 1.83-7.634 51.46 51.46 0 0 1 2.4-6.494 37.27 37.27 0 0 1 3.03-5.443 31.05 31.05 0 0 1 3.737-4.52 30.384 30.384 0 0 1 4.525-3.723 37.039 37.039 0 0 1 5.469-3.026 50.494 50.494 0 0 1 6.501-2.397 75.943 75.943 0 0 1 7.653-1.818c2.931-.55 5.892-.982 8.863-1.297 3.364-.373 6.747-.648 10.13-.845a344.71 344.71 0 0 1 11.48-.452c4.298-.088 8.597-.137 12.895-.127H165.078z"/>
 </g>
</svg>
