<svg xmlns="http://www.w3.org/2000/svg" style="isolation:isolate" width="256" height="256" viewBox="0 0 256 256">
 <defs>
  <filter id="fbu9uccNmvPYYp2vdB2jpcCxz11d0yn8" width="400%" height="400%" x="-200%" y="-200%" color-interpolation-filters="sRGB" filterUnits="objectBoundingBox">
   <feGaussianBlur xmlns="http://www.w3.org/2000/svg" in="SourceGraphic" stdDeviation="4.294"/>
   <feOffset xmlns="http://www.w3.org/2000/svg" dx="0" dy="4" result="pf_100_offsetBlur"/>
   <feFlood xmlns="http://www.w3.org/2000/svg" flood-opacity=".4"/>
   <feComposite xmlns="http://www.w3.org/2000/svg" in2="pf_100_offsetBlur" operator="in" result="pf_100_dropShadow"/>
   <feBlend xmlns="http://www.w3.org/2000/svg" in="SourceGraphic" in2="pf_100_dropShadow" mode="normal"/>
  </filter>
 </defs>
 <g filter="url(#fbu9uccNmvPYYp2vdB2jpcCxz11d0yn8)">
  <linearGradient id="_lgradient_28" x1="0" x2="0" y1="0" y2="1" gradientTransform="matrix(244.648309,0,0,228.338396,5.68,11.95)" gradientUnits="userSpaceOnUse">
   <stop offset="0%" style="stop-color:#4c5561"/>
   <stop offset="100%" style="stop-color:#2e3842"/>
  </linearGradient>
  <path fill="url(#_lgradient_28)" d="M 165.688919 11.95 C 239.744626 11.95 250.328309 22.507198 250.328309 96.493859 L 250.328309 155.744653 C 250.328309 229.73091 239.744626 240.288396 165.688919 240.288396 L 90.319393 240.288396 C 16.26369 240.288396 5.68 229.73091 5.68 155.744653 L 5.68 96.493859 C 5.68 22.507198 16.26369 11.95 90.319393 11.95 L 165.688919 11.95 Z"/>
 </g>
 <g opacity=".4">
  <linearGradient id="_lgradient_29" x1=".517" x2=".517" y1="0" y2="1" gradientTransform="matrix(244.65,0,0,228.34,5.68,11.95)" gradientUnits="userSpaceOnUse">
   <stop offset="0%" style="stop-color:#ffffff"/>
   <stop offset="12.5%" stop-opacity=".098" style="stop-color:#ffffff"/>
   <stop offset="92.5%" stop-opacity=".098" style="stop-color:#000000"/>
   <stop offset="100%" stop-opacity=".498" style="stop-color:#000000"/>
  </linearGradient>
  <path fill="url(#_lgradient_29)" fill-rule="evenodd" d="M 165.06803 11.951234 C 169.395994 11.941409 173.723944 11.990533 178.051908 12.088781 C 181.927398 12.167379 185.802873 12.31475 189.678362 12.540721 C 193.1309 12.737216 196.583423 13.022134 200.026115 13.395476 C 203.085193 13.729518 206.144271 14.181458 209.173842 14.741469 C 211.888645 15.242533 214.57394 15.881143 217.219897 16.6573 C 219.619947 17.354858 221.970814 18.219439 224.242988 19.241215 C 226.357793 20.184394 228.384061 21.304417 230.302129 22.591462 C 232.141505 23.829383 233.862851 25.244151 235.436659 26.80629 C 237.000621 28.378252 238.417046 30.087764 239.656409 31.924995 C 240.944972 33.840824 242.066305 35.864728 243.020409 37.967229 C 244.043389 40.246576 244.908985 42.584873 245.617197 44.972292 C 246.394255 47.615155 247.033606 50.297317 247.535265 53.008956 C 248.095924 56.034984 248.548399 59.080665 248.882828 62.13617 C 249.256611 65.574836 249.541856 69.013506 249.738578 72.462003 C 249.964823 76.323139 250.112361 80.194101 250.200884 84.055237 C 250.289421 88.378131 250.338591 92.701032 250.32876 97.014106 L 250.32876 155.225886 C 250.338591 159.54878 250.289421 163.861854 250.200884 168.184747 C 250.112361 172.05571 249.964823 175.916853 249.738578 179.777981 C 249.541856 183.226485 249.256611 186.674975 248.882828 190.103826 C 248.548399 193.15933 248.095924 196.214835 247.535265 199.240851 C 247.033606 201.942664 246.394255 204.624837 245.617197 207.267703 C 244.908985 209.655115 244.043389 212.003235 243.020409 214.272755 C 242.066305 216.38509 240.944972 218.399156 239.656409 220.314999 C 238.417046 222.152226 237.000621 223.871561 235.436659 225.433697 C 233.862851 226.995832 232.141505 228.410601 230.302129 229.648532 C 228.384061 230.935575 226.357793 232.055598 224.242988 232.998768 C 221.970814 234.020552 219.619947 234.885137 217.219897 235.592507 C 214.57394 236.368672 211.888645 237.007276 209.173842 237.498515 C 206.144271 238.068354 203.085193 238.510465 200.026115 238.844519 C 196.583423 239.21785 193.1309 239.502777 189.678362 239.699269 C 185.802873 239.925235 181.927398 240.072615 178.051908 240.161035 C 173.723944 240.249454 169.395994 240.298581 165.06803 240.288762 L 90.941963 240.288762 C 86.614006 240.298581 82.286049 240.249454 77.9581 240.161035 C 74.08261 240.072615 70.20712 239.925235 66.331638 239.699269 C 62.879108 239.502777 59.426578 239.21785 55.983886 238.844519 C 52.924808 238.510465 49.865733 238.068354 46.836162 237.498515 C 44.121356 237.007276 41.436057 236.368672 38.7901 235.592507 C 36.390053 234.885137 34.039187 234.020552 31.767009 232.998768 C 29.652213 232.055598 27.625943 230.935575 25.707871 229.648532 C 23.868489 228.410601 22.147143 226.995832 20.573343 225.433697 C 19.009377 223.871561 17.592955 222.152226 16.353586 220.314999 C 15.065036 218.399156 13.943701 216.38509 12.989584 214.272755 C 11.966612 212.003235 11.101021 209.655115 10.392811 207.267703 C 9.615746 204.624837 8.976389 201.942664 8.47474 199.240851 C 7.914072 196.214835 7.461604 193.15933 7.127172 190.103826 C 6.753394 186.674975 6.468142 183.226485 6.271417 179.777981 C 6.045183 175.916853 5.897639 172.05571 5.809112 168.184747 C 5.720586 163.861854 5.671405 159.54878 5.681241 155.225886 L 5.681241 97.014106 C 5.671405 92.701032 5.720586 88.378131 5.809112 84.055237 C 5.897639 80.194101 6.045183 76.323139 6.271417 72.462003 C 6.468142 69.013506 6.753394 65.574836 7.127172 62.13617 C 7.461604 59.080665 7.914072 56.034984 8.47474 53.008956 C 8.976389 50.297317 9.615746 47.615155 10.392811 44.972292 C 11.101021 42.584873 11.966612 40.246576 12.989584 37.967229 C 13.943701 35.864728 15.065036 33.840824 16.353586 31.924995 C 17.592955 30.087764 19.009377 28.378252 20.573343 26.80629 C 22.147143 25.244151 23.868489 23.829383 25.707871 22.591462 C 27.625943 21.304417 29.652213 20.184394 31.767009 19.241215 C 34.039187 18.219439 36.390053 17.354858 38.7901 16.6573 C 41.436057 15.881143 44.121356 15.242533 46.836162 14.741469 C 49.865733 14.181458 52.924808 13.729518 55.983886 13.395476 C 59.426578 13.022134 62.879108 12.737216 66.331638 12.540721 C 70.20712 12.31475 74.08261 12.167379 77.9581 12.088781 C 82.286049 11.990533 86.614006 11.941409 90.941963 11.951234 L 165.06803 11.951234 Z M 165.077876 15.959741 C 169.376317 15.949916 173.674759 15.99904 177.973216 16.087463 C 181.799522 16.175886 185.625827 16.323257 189.452133 16.539402 C 192.835809 16.735898 196.219486 17.010992 199.583486 17.384332 C 202.554026 17.698726 205.514751 18.131016 208.445953 18.681203 C 211.023049 19.152792 213.580483 19.761928 216.098564 20.498786 C 218.321569 21.147221 220.495374 21.952852 222.600334 22.896029 C 224.508571 23.750785 226.338116 24.762737 228.069293 25.922059 C 229.692286 27.012609 231.207063 28.260355 232.59398 29.645648 C 233.980897 31.030941 235.230091 32.543956 236.331763 34.165043 C 237.492434 35.894202 238.505568 37.711787 239.361333 39.607968 C 240.305606 41.720292 241.112187 43.891565 241.761369 46.102139 C 242.508934 48.617282 243.108947 51.161898 243.590914 53.735987 C 244.131912 56.663768 244.564709 59.6112 244.889308 62.578282 C 245.263091 65.938355 245.538505 69.308252 245.735227 72.687976 C 245.951626 76.509812 246.10901 80.321821 246.187687 84.143656 C 246.276225 88.437084 246.325394 92.720685 246.325394 97.014106 C 246.325394 97.014106 246.325394 97.014106 246.325394 97.014106 L 246.325394 155.225886 C 246.325394 155.225886 246.325394 155.225886 246.325394 155.225886 C 246.325394 159.519306 246.276225 163.802907 246.187687 168.096328 C 246.10901 171.918164 245.951626 175.739999 245.735227 179.552015 C 245.538505 182.931739 245.263091 186.301629 244.889308 189.671533 C 244.564709 192.628784 244.131912 195.576216 243.590914 198.503994 C 243.108947 201.078094 242.508934 203.622706 241.761369 206.137845 C 241.112187 208.358253 240.305606 210.5197 239.361333 212.63202 C 238.505568 214.528209 237.492434 216.355617 236.331763 218.074952 C 235.230091 219.705853 233.980897 221.218876 232.59398 222.604172 C 231.207063 223.979634 229.692286 225.227385 228.069293 226.317935 C 226.338116 227.477251 224.508571 228.489201 222.600334 229.343951 C 220.495374 230.296956 218.321569 231.092775 216.098564 231.741198 C 213.580483 232.478056 211.023049 233.087202 208.445953 233.558787 C 205.514751 234.108972 202.554026 234.541264 199.583486 234.865483 C 196.219486 235.228995 192.835809 235.513922 189.452133 235.70058 C 185.625827 235.916726 181.799522 236.073926 177.973216 236.152526 C 173.674759 236.25078 169.376317 236.290072 165.077876 236.290072 C 165.077876 236.290072 165.077876 236.290072 165.06803 236.290072 L 90.941963 236.290072 C 90.932125 236.290072 90.932125 236.290072 90.932125 236.290072 C 86.633683 236.290072 82.335234 236.25078 78.036784 236.152526 C 74.210479 236.073926 70.384173 235.916726 66.557868 235.70058 C 63.174195 235.513922 59.790522 235.228995 56.426518 234.865483 C 53.455967 234.541264 50.495253 234.108972 47.564048 233.558787 C 44.986944 233.087202 42.429517 232.478056 39.911433 231.741198 C 37.688439 231.092775 35.514626 230.296956 33.409665 229.343951 C 31.501429 228.489201 29.671886 227.477251 27.940703 226.317935 C 26.31772 225.227385 24.802935 223.979634 23.416022 222.604172 C 22.029109 221.218876 20.779904 219.705853 19.678243 218.074952 C 18.517564 216.355617 17.504428 214.528209 16.648674 212.63202 C 15.704392 210.5197 14.897819 208.358253 14.248626 206.137845 C 13.50107 203.622706 12.901057 201.078094 12.419081 198.503994 C 11.878086 195.576216 11.445291 192.628784 11.120694 189.671533 C 10.746916 186.301629 10.471501 182.931739 10.274776 179.552015 C 10.058378 175.739999 9.900997 171.918164 9.822307 168.096328 C 9.733781 163.802907 9.6846 159.519306 9.6846 155.225886 C 9.6846 155.225886 9.6846 155.225886 9.6846 155.225886 L 9.6846 97.014106 C 9.6846 97.014106 9.6846 97.014106 9.6846 97.014106 C 9.6846 92.720685 9.733781 88.437084 9.822307 84.143656 C 9.900997 80.321821 10.058378 76.509812 10.274776 72.687976 C 10.471501 69.308252 10.746916 65.938355 11.120694 62.578282 C 11.445291 59.6112 11.878086 56.663768 12.419081 53.735987 C 12.901057 51.161898 13.50107 48.617282 14.248626 46.102139 C 14.897819 43.891565 15.704392 41.720292 16.648674 39.607968 C 17.504428 37.711787 18.517564 35.894202 19.678243 34.165043 C 20.779904 32.543956 22.029109 31.030941 23.416022 29.645648 C 24.802935 28.260355 26.31772 27.012609 27.940703 25.922059 C 29.671886 24.762737 31.501429 23.750785 33.409665 22.896029 C 35.514626 21.952852 37.688439 21.147221 39.911433 20.498786 C 42.429517 19.761928 44.986944 19.152792 47.564048 18.681203 C 50.495253 18.131016 53.455967 17.698726 56.426518 17.384332 C 59.790522 17.010992 63.174195 16.735898 66.557868 16.539402 C 70.384173 16.323257 74.210479 16.175886 78.036784 16.087463 C 82.335234 15.99904 86.633683 15.949916 90.932125 15.959741 C 90.932125 15.959741 90.932125 15.959741 90.941963 15.959741 L 165.06803 15.959741 C 165.077876 15.959741 165.077876 15.959741 165.077876 15.959741 Z"/>
 </g>
 <g>
  <defs>
   <filter id="KeHGX82VzL0mHsQ4DfugynQEEbKn9iIi" width="400%" height="400%" x="-200%" y="-200%" color-interpolation-filters="sRGB" filterUnits="objectBoundingBox">
    <feGaussianBlur xmlns="http://www.w3.org/2000/svg" stdDeviation="4.294"/>
   </filter>
  </defs>
  <g opacity=".4" filter="url(#KeHGX82VzL0mHsQ4DfugynQEEbKn9iIi)">
   <path d="M 173.383011 74.257482 C 173.259547 81.336563 171.676696 89.35529 168.661484 97.814483 C 168.054006 99.518683 167.498419 101.046077 167.426537 101.208192 C 167.365376 101.346465 167.604317 101.567292 168.048658 101.876736 C 168.27191 101.263268 168.359861 101.037663 168.661484 100.191458 C 172.018111 90.775028 173.621904 81.889392 173.383011 74.257886 L 173.383011 74.257482 Z M 66.318481 107.324569 C 66.122905 108.32445 66.135815 109.396046 66.43919 110.268065 C 67.171011 112.373177 69.324211 113.793224 72.34924 114.167847 C 72.509338 113.959736 72.652289 113.743948 72.822795 113.541091 L 74.113459 112.004378 L 72.391028 111.800095 C 69.342229 111.43403 67.174601 110.006542 66.439143 107.891043 C 66.378112 107.715617 66.358435 107.514566 66.318434 107.32464 L 66.318481 107.324569 Z M 69.159764 123.481113 C 68.978215 124.678003 69.064162 125.754448 69.373328 126.665879 L 69.981614 125.679405 L 69.573 124.866455 C 69.364057 124.457603 69.241402 123.982194 69.159869 123.47826 L 69.159764 123.481113 Z M 186.847312 123.504408 C 186.761643 123.995815 186.641769 124.461216 186.43411 124.869355 L 186.020908 125.68183 L 186.638394 126.684634 C 186.955729 125.773013 187.023784 124.693335 186.847312 123.504384 L 186.847312 123.504408 Z M 61.522316 147.524458 C 61.350101 149.468953 61.579774 151.132338 62.251213 152.543115 C 63.001884 154.121474 65.093685 156.02216 66.434339 156.345438 L 66.926458 156.45685 L 66.931094 161.039082 C 66.93252 170.452184 67.660704 176.355102 69.215292 179.526081 C 69.944095 181.014112 71.433789 182.51284 72.711214 183.045298 C 74.694621 183.867756 77.572035 183.683416 79.591574 182.604237 L 80.329765 182.214259 L 81.119016 183.036004 C 87.715794 189.929437 98.432943 195.721585 109.584142 198.412639 C 113.501513 199.353949 119.447219 200.20467 123.516721 200.404342 C 129.932369 200.716543 136.519163 200.262123 142.695679 199.076548 C 148.402016 197.981015 153.330821 196.375748 158.634011 193.881514 C 164.375527 191.18119 168.555801 188.378415 172.947393 184.289658 L 175.426652 181.9776 L 176.095196 182.423296 C 177.914587 183.627033 181.20537 183.907025 183.291228 183.040782 C 184.568367 182.510463 186.058585 181.013352 186.787149 179.526319 C 188.340644 176.355815 189.064217 170.556298 189.071348 161.224967 L 189.071348 158.847921 C 189.064217 168.179252 188.340644 173.978769 186.787149 177.149273 C 186.058537 178.636353 184.568367 180.138171 183.291228 180.66849 C 181.20518 181.534733 177.914587 181.250105 176.095196 180.046369 L 175.426652 179.605308 L 172.947393 181.912707 C 168.555801 186.001226 164.375527 188.804239 158.634011 191.504563 C 153.330821 193.998797 148.402016 195.604254 142.695679 196.699597 C 136.519163 197.885172 129.932369 198.339592 123.516721 198.027391 C 119.447219 197.827719 113.501513 196.976998 109.584142 196.035688 C 98.433894 193.344872 87.716745 187.55724 81.119016 180.663807 L 80.329765 179.837403 L 79.591574 180.227381 C 77.572035 181.30656 74.694621 181.4909 72.711214 180.668442 C 71.433789 180.135984 69.944095 178.637328 69.215292 177.149226 C 67.660704 173.978246 66.93252 168.079844 66.931094 158.666742 L 66.926458 154.079756 L 66.434339 153.968344 C 65.095349 153.645066 63.003548 151.743429 62.252877 150.165071 C 61.872312 149.366383 61.63532 148.484499 61.524075 147.524173 L 61.522316 147.524458 Z M 194.480007 147.529212 C 194.368666 148.48873 194.131009 149.367976 193.75111 150.166307 C 193.000058 151.744428 190.908876 153.642737 189.567984 153.964113 L 189.075864 154.08482 L 189.075864 156.461866 L 189.567984 156.341159 C 190.908685 156.019783 192.999963 154.121592 193.75111 152.543353 C 194.422173 151.133289 194.65201 149.473398 194.480007 147.529212 Z"/>
  </g>
  <path fill="#f22c42" d="M 123.517339 198.02694 C 119.447837 197.827268 113.500468 196.976285 109.583096 196.034975 C 98.432373 193.344159 87.71665 187.553675 81.120347 180.660241 L 80.330977 179.834979 L 79.593523 180.228332 C 77.573984 181.307511 74.693955 181.488167 72.710548 180.665709 C 71.432173 180.13325 69.94129 178.635711 69.212487 177.147681 C 67.657899 173.976701 66.929097 168.076873 66.927671 158.663771 L 66.927195 154.080826 L 66.434196 153.966728 C 65.093542 153.64345 62.99984 151.741813 62.249169 150.163454 C 60.642761 146.788049 61.417203 142.091006 64.733657 135.088229 C 65.725836 132.991674 67.846161 129.126597 69.241487 126.873158 L 69.981224 125.67988 L 69.56952 124.866931 C 68.21603 122.209393 69.605175 117.364974 72.821794 113.537929 L 74.111579 112.002358 L 72.390598 111.797932 C 69.341799 111.431867 67.172031 110.005639 66.436573 107.890068 C 65.960213 106.52089 66.130885 104.638269 66.848277 103.359418 C 67.620817 101.985486 71.366091 98.438933 73.511137 97.053115 C 77.209346 94.664184 81.835077 92.698367 87.311791 91.188943 L 90.422869 90.331305 L 90.479918 83.957018 C 90.540295 77.161994 90.739491 74.872424 91.665113 70.318954 C 92.849833 64.491388 95.525436 57.883201 97.254499 56.514973 C 98.60371 55.446633 100.778707 55.185016 102.285755 55.909777 C 103.56085 56.52277 104.257039 57.396001 105.301038 59.693559 C 106.397616 62.106974 112.065635 72.871426 114.764533 77.666879 L 116.453187 80.667186 L 119.697617 81.4557 C 121.482065 81.889368 124.686561 82.733267 126.818296 83.331047 C 128.950316 83.928826 130.73234 84.41788 130.778454 84.41788 C 130.824569 84.41788 130.862412 83.96762 130.862412 83.417334 C 130.862412 81.447095 131.985423 79.605265 133.758842 78.667045 C 135.854066 77.683233 138.146869 78.172905 139.663424 78.906461 C 140.54374 79.333783 142.059011 80.256528 143.030748 80.956948 C 144.002389 81.657416 144.829411 82.230522 144.868585 82.230522 C 145.143799 82.230522 158.473845 67.567001 161.437546 64.003809 C 162.479881 62.750678 163.624048 61.38573 163.980272 60.970698 C 166.073024 58.531373 170.1991 58.997084 171.719934 61.844262 C 172.193917 62.731566 172.970973 66.49115 173.221134 69.107089 C 174.00632 77.319783 172.430956 87.234917 168.65982 97.814673 C 168.052342 99.518873 167.496541 101.04603 167.424659 101.208144 C 167.323302 101.437339 167.733295 101.758335 169.261023 102.646067 C 171.502482 103.948498 174.986851 106.246816 176.953619 107.720585 C 179.067526 109.304268 183.000348 113.166397 184.101872 114.739526 C 186.733737 118.500013 187.648187 122.477762 186.430616 124.870496 L 186.018912 125.679738 L 186.758839 126.875439 C 188.153879 129.129735 190.274252 132.993005 191.266431 135.088609 C 194.582648 142.091862 195.357089 146.791282 193.751157 150.165736 C 193.000106 151.743857 190.906784 153.644781 189.56613 153.966157 L 189.073131 154.084344 L 189.070278 158.849371 C 189.063147 168.180702 188.341381 173.978793 186.787886 177.149297 C 186.059274 178.636377 184.567868 180.136531 183.290776 180.66685 C 181.204728 181.533093 177.914849 181.248798 176.095458 180.045062 L 175.427508 179.603122 L 172.946347 181.912945 C 168.554755 186.001464 164.373768 188.802575 158.632252 191.502899 C 153.329062 193.997133 148.402396 195.603541 142.69606 196.699122 C 136.519543 197.884697 129.930847 198.341708 123.5152 198.029507 L 123.517339 198.02694 Z"/>
  <g opacity=".2">
   <path d="M 128.000448 182.05319 C 128.000448 185.889743 124.24947 190.990883 120.065869 190.990883 C 115.882268 190.990883 113.738172 185.704333 113.738172 181.867781 C 113.738172 178.032179 117.668855 180.177654 121.853883 180.177654 C 126.03891 180.177654 128.000448 178.215545 128.000448 182.051099 L 128.000448 182.05319 Z"/>
  </g>
  <ellipse fill="#ffffff" cx="128" cy="131.565" rx="33.279" ry="28.525" vector-effect="non-scaling-stroke"/>
  <path fill="#272727" d="M 128.000448 117.302457 C 126.880827 117.304751 125.770329 117.554211 124.720125 118.039341 C 126.743802 119.08443 128.000672 121.079027 128.000448 123.245072 C 128.000448 126.526566 125.163416 129.186949 121.663244 129.187687 C 120.560821 129.186858 119.477691 128.916485 118.520789 128.403262 C 118.504371 128.664273 118.494858 128.925891 118.492264 129.187687 C 118.492264 135.751719 122.749223 141.072917 128.000448 141.072917 C 133.251673 141.072917 137.508632 135.751719 137.508632 129.187687 C 137.508632 122.623656 133.251673 117.302457 128.000448 117.302457 Z"/>
  <path fill="#ffffff" d="M 128.000448 179.676144 C 128.000448 183.512697 124.24947 188.613837 120.065869 188.613837 C 115.882268 188.613837 113.738172 183.327287 113.738172 179.490735 C 113.738172 175.655133 117.668855 177.800608 121.853883 177.800608 C 126.03891 177.800608 128.000448 175.838499 128.000448 179.674053 L 128.000448 179.676144 Z"/>
  <path fill="#bc1938" d="M 117.641282 176.310247 C 109.540309 176.291231 101.605729 174.399102 94.721804 170.838287 C 102.000319 176.177133 111.128176 179.100899 120.550786 179.105653 C 143.042395 179.105653 161.279092 170.657632 161.279092 150.581101 C 155.744854 170.409468 138.351057 175.775412 117.641282 176.30787 L 117.641282 176.310247 Z"/>
  <g opacity=".2">
   <path d="M 94.721804 94.233226 L 94.762689 89.319396 C 94.806427 84.081813 94.950476 82.316619 95.619377 78.806673 C 96.476064 74.314531 98.409553 69.220521 99.661306 68.165588 C 100.636608 67.34218 102.208548 67.140511 103.298186 67.699046 C 104.219767 68.171579 104.72294 68.844734 105.477509 70.615681 C 106.270064 72.476147 110.366618 80.773749 112.317222 84.470531 L 113.534269 86.783397 C 115.930332 94.445092 96.324931 98.371021 94.722327 94.233059 L 94.721804 94.233226 Z"/>
  </g>
  <path fill="#ffffff" d="M 94.721804 91.85618 L 94.762689 86.94235 C 94.806427 81.704767 94.950476 79.939573 95.619377 76.429627 C 96.476064 71.937485 98.409553 66.843475 99.661306 65.788542 C 100.636608 64.965134 102.208548 64.763465 103.298186 65.322 C 104.219767 65.794533 104.72294 66.467688 105.477509 68.238635 C 106.270064 70.099101 110.366618 78.396703 112.317222 82.093485 L 113.534269 84.406351 C 115.930332 92.068046 96.324931 95.995877 94.722327 91.856013 L 94.721804 91.85618 Z"/>
  <g opacity=".2">
   <path d="M 161.649911 99.6933 L 163.118926 94.911635 C 164.687776 89.813822 165.106136 88.070972 165.605316 84.530124 C 166.251872 79.998523 166.152037 74.671563 165.405644 73.402696 C 164.820891 72.412419 163.532532 71.909436 162.424828 72.23937 C 161.493026 72.518435 160.851224 73.074188 159.662701 74.647793 C 158.412375 76.300791 152.355662 83.562666 149.550747 86.773105 L 147.794966 88.781851 C 143.394341 95.758956 159.007492 103.402586 161.651243 99.693443 L 161.649911 99.6933 Z"/>
  </g>
  <path fill="#ffffff" d="M 161.649911 97.316254 L 163.118926 92.534113 C 164.687776 87.4363 165.106136 85.69345 165.605316 82.152603 C 166.251872 77.621002 166.152037 72.294042 165.405644 71.025175 C 164.820891 70.034897 163.532532 69.531914 162.424828 69.861848 C 161.493026 70.140914 160.851224 70.696667 159.662701 72.270271 C 158.412375 73.923269 152.355662 81.185145 149.550747 84.395583 L 147.794966 86.40433 C 143.394341 93.381435 159.007492 101.025064 161.651243 97.315922 L 161.649911 97.316254 Z"/>
  <g opacity=".2">
   <path fill="#ffffff" d="M 99.713601 55.53872 C 98.8127 55.647113 97.930816 55.979662 97.255735 56.513784 C 95.527623 57.882012 92.851069 64.488774 91.6673 70.31634 C 90.740252 74.869809 90.538203 77.161281 90.478777 83.957256 L 90.421728 90.330116 L 87.312552 91.190607 C 81.835838 92.697654 77.212483 94.663471 73.514037 97.052402 C 71.368991 98.440597 67.619676 101.984773 66.847136 103.358705 C 66.221736 104.47354 66.045834 106.030505 66.318006 107.323618 C 66.429489 106.753127 66.587088 106.199275 66.847136 105.735751 C 67.619676 104.361819 71.368991 100.817643 73.514037 99.429448 C 77.212483 97.040517 81.835838 95.0747 87.312552 93.567653 L 90.421728 92.707162 L 90.478777 86.334302 C 90.538203 79.538327 90.740252 77.246855 91.6673 72.693386 C 92.851069 66.86582 95.527623 60.259058 97.255735 58.89083 C 98.605897 57.822348 100.778517 57.562537 102.285565 58.287298 C 103.559661 58.900338 104.258513 59.773427 105.302036 62.07108 C 106.397854 64.484495 112.064732 75.247284 114.765056 80.042261 L 116.455136 83.042093 L 119.699804 83.831272 C 121.484965 84.263895 124.684469 85.110123 126.816679 85.706762 C 128.94889 86.305777 130.731674 86.793072 130.776838 86.793072 C 130.822002 86.793072 130.860035 86.346187 130.860035 85.794712 C 130.860035 83.824141 131.984377 81.984308 133.757654 81.045374 C 135.851831 80.061277 138.145681 80.548572 139.662236 81.283079 C 140.54412 81.70857 142.055921 82.633241 143.028133 83.33447 C 144.000345 84.035698 144.827557 84.606189 144.867967 84.606189 C 145.141327 84.606189 158.474178 69.942668 161.435977 66.379476 C 162.4795 65.126297 163.625237 63.762824 163.981794 63.347792 C 166.073594 60.908467 170.200146 61.373417 171.721455 64.220643 C 172.194488 65.107756 172.969405 68.865866 173.218994 71.481805 C 173.306945 72.384607 173.352109 73.319975 173.383011 74.262711 C 173.413912 72.48587 173.378256 70.752765 173.218994 69.104759 C 172.969405 66.48882 172.194488 62.73071 171.721455 61.843597 C 170.200146 58.996371 166.073594 58.531421 163.981794 60.970746 C 163.625237 61.385778 162.4795 62.749251 161.435977 64.00243 C 158.474178 67.565622 145.141327 82.229143 144.867967 82.229143 C 144.827557 82.229143 144.000345 81.658652 143.028133 80.957424 C 142.055921 80.256195 140.54412 79.331524 139.662236 78.906033 C 138.145681 78.171526 135.851831 77.679477 133.757654 78.663574 C 131.984377 79.602508 130.860035 81.447095 130.860035 83.417666 C 130.860035 83.969141 130.822002 84.416026 130.776838 84.416026 C 130.731674 84.416026 128.94889 83.928731 126.816679 83.329716 C 124.684469 82.733077 121.484965 81.886849 119.699804 81.454226 L 116.455136 80.665047 L 114.765056 77.665215 C 112.064732 72.870238 106.397854 62.107449 105.302036 59.694034 C 104.258513 57.396381 103.559661 56.523292 102.285565 55.910252 C 101.532041 55.547753 100.614501 55.430422 99.713601 55.53872 Z M 168.048919 101.876855 C 167.820723 102.497264 167.461789 103.502754 167.426133 103.585951 C 167.32392 103.814147 167.732772 104.132672 169.258836 105.01931 C 171.50039 106.321931 174.98514 108.620534 176.953334 110.094303 C 179.066528 111.677416 183.000539 115.540115 184.103488 117.11372 C 185.624797 119.288717 186.554222 121.530271 186.846599 123.500842 C 187.262582 121.111911 186.285616 117.855358 184.103488 114.736674 C 183.000539 113.163069 179.066528 109.30037 176.953334 107.717257 C 174.98514 106.243488 171.50039 103.944885 169.258836 102.642264 C 168.652689 102.290461 168.341296 102.078904 168.048919 101.876855 Z M 72.349047 114.166183 C 69.954173 117.277736 68.739265 120.897977 69.159527 123.479449 C 69.523453 121.078632 70.818467 118.299866 72.822555 115.915689 L 74.113291 114.380117 L 72.390883 114.175691 C 72.37567 114.173314 72.364023 114.166183 72.349047 114.166183 Z M 69.372986 126.664691 L 69.242961 126.871494 C 67.847635 129.124933 65.72731 132.987633 64.735131 135.084188 C 62.203102 140.432541 61.162669 144.430732 61.522316 147.528023 C 61.761922 144.820568 62.804494 141.542622 64.735131 137.465988 C 65.72731 135.369433 67.847635 131.501979 69.242961 129.24854 L 69.981272 128.055263 L 69.572657 127.24469 C 69.482805 127.066411 69.439067 126.857231 69.372986 126.664691 Z M 186.637419 126.68133 C 186.570862 126.871494 186.520944 127.068788 186.432993 127.24469 L 186.019387 128.055263 L 186.758648 129.24854 C 188.153974 131.504356 190.274299 135.367056 191.265528 137.461234 C 193.195689 141.540244 194.239212 144.818191 194.479294 147.528023 C 194.838228 144.430732 193.797082 140.432541 191.265528 135.084188 C 190.274299 132.99001 188.153974 129.12731 186.758648 126.871494 L 186.637419 126.68133 Z"/>
  </g>
 </g>
</svg>
