<svg xmlns="http://www.w3.org/2000/svg" style="isolation:isolate" width="256" height="256" viewBox="0 0 256 256">
 <defs>
  <filter id="ZQ6kiXKI8vXQozyRb6sVHtVEmKLsgto7" width="400%" height="400%" x="-200%" y="-200%" color-interpolation-filters="sRGB" filterUnits="objectBoundingBox">
   <feGaussianBlur xmlns="http://www.w3.org/2000/svg" in="SourceGraphic" stdDeviation="4.294"/>
   <feOffset xmlns="http://www.w3.org/2000/svg" dx="0" dy="4" result="pf_100_offsetBlur"/>
   <feFlood xmlns="http://www.w3.org/2000/svg" flood-opacity=".4"/>
   <feComposite xmlns="http://www.w3.org/2000/svg" in2="pf_100_offsetBlur" operator="in" result="pf_100_dropShadow"/>
   <feBlend xmlns="http://www.w3.org/2000/svg" in="SourceGraphic" in2="pf_100_dropShadow" mode="normal"/>
  </filter>
 </defs>
 <g filter="url(#ZQ6kiXKI8vXQozyRb6sVHtVEmKLsgto7)">
  <path fill="#ececec" d="M 165.185 11.447 C 239.24 11.447 249.824 22.004 249.824 95.991 L 249.824 155.242 C 249.824 229.228 239.24 239.785 165.185 239.785 L 89.815 239.785 C 15.76 239.785 5.176 229.228 5.176 155.242 L 5.176 95.991 C 5.176 22.004 15.76 11.447 89.815 11.447 L 165.185 11.447 Z"/>
 </g>
 <g opacity=".4">
  <linearGradient id="_lgradient_0" x1=".517" x2=".517" y1="0" y2="1.209" gradientTransform="matrix(244.651,0,0,228.341,5.68,11.95)" gradientUnits="userSpaceOnUse">
   <stop offset="0%" style="stop-color:#ffffff"/>
   <stop offset="12.5%" stop-opacity=".098" style="stop-color:#ffffff"/>
   <stop offset="92.5%" stop-opacity=".098" style="stop-color:#000000"/>
   <stop offset="100%" stop-opacity=".498" style="stop-color:#000000"/>
  </linearGradient>
  <path fill="url(#_lgradient_0)" fill-rule="evenodd" d="M 165.068 11.951 C 169.396 11.941 173.724 11.991 178.052 12.089 C 181.927 12.167 185.803 12.315 189.678 12.541 C 193.131 12.737 196.583 13.022 200.026 13.395 C 203.085 13.73 206.144 14.181 209.174 14.741 C 211.889 15.243 214.574 15.881 217.22 16.657 C 219.62 17.355 221.971 18.219 224.243 19.241 C 226.358 20.184 228.384 21.304 230.302 22.591 C 232.142 23.829 233.863 25.244 235.437 26.806 C 237.001 28.378 238.417 30.088 239.656 31.925 C 240.945 33.841 242.066 35.865 243.02 37.967 C 244.043 40.247 244.909 42.585 245.617 44.972 C 246.394 47.615 247.034 50.297 247.535 53.009 C 248.096 56.035 248.548 59.081 248.883 62.136 C 249.257 65.575 249.542 69.014 249.739 72.462 C 249.965 76.323 250.112 80.194 250.201 84.055 C 250.289 88.378 250.339 92.701 250.329 97.014 L 250.329 155.226 C 250.339 159.549 250.289 163.862 250.201 168.185 C 250.112 172.056 249.965 175.917 249.739 179.778 C 249.542 183.226 249.257 186.675 248.883 190.104 C 248.548 193.159 248.096 196.215 247.535 199.241 C 247.034 201.943 246.394 204.625 245.617 207.268 C 244.909 209.655 244.043 212.003 243.02 214.273 C 242.066 216.385 240.945 218.399 239.656 220.315 C 238.417 222.152 237.001 223.872 235.437 225.434 C 233.863 226.996 232.142 228.411 230.302 229.649 C 228.384 230.936 226.358 232.056 224.243 232.999 C 221.971 234.021 219.62 234.885 217.22 235.593 C 214.574 236.369 211.889 237.007 209.174 237.499 C 206.144 238.068 203.085 238.51 200.026 238.845 C 196.583 239.218 193.131 239.503 189.678 239.699 C 185.803 239.925 181.927 240.073 178.052 240.161 C 173.724 240.249 169.396 240.299 165.068 240.289 L 90.942 240.289 C 86.614 240.299 82.286 240.249 77.958 240.161 C 74.083 240.073 70.207 239.925 66.332 239.699 C 62.879 239.503 59.427 239.218 55.984 238.845 C 52.925 238.51 49.866 238.068 46.836 237.499 C 44.121 237.007 41.436 236.369 38.79 235.593 C 36.39 234.885 34.039 234.021 31.767 232.999 C 29.652 232.056 27.626 230.936 25.708 229.649 C 23.868 228.411 22.147 226.996 20.573 225.434 C 19.009 223.872 17.593 222.152 16.354 220.315 C 15.065 218.399 13.944 216.385 12.99 214.273 C 11.967 212.003 11.101 209.655 10.393 207.268 C 9.616 204.625 8.976 201.943 8.475 199.241 C 7.914 196.215 7.462 193.159 7.127 190.104 C 6.753 186.675 6.468 183.226 6.271 179.778 C 6.045 175.917 5.898 172.056 5.809 168.185 C 5.721 163.862 5.671 159.549 5.681 155.226 L 5.681 97.014 C 5.671 92.701 5.721 88.378 5.809 84.055 C 5.898 80.194 6.045 76.323 6.271 72.462 C 6.468 69.014 6.753 65.575 7.127 62.136 C 7.462 59.081 7.914 56.035 8.475 53.009 C 8.976 50.297 9.616 47.615 10.393 44.972 C 11.101 42.585 11.967 40.247 12.99 37.967 C 13.944 35.865 15.065 33.841 16.354 31.925 C 17.593 30.088 19.009 28.378 20.573 26.806 C 22.147 25.244 23.868 23.829 25.708 22.591 C 27.626 21.304 29.652 20.184 31.767 19.241 C 34.039 18.219 36.39 17.355 38.79 16.657 C 41.436 15.881 44.121 15.243 46.836 14.741 C 49.866 14.181 52.925 13.73 55.984 13.395 C 59.427 13.022 62.879 12.737 66.332 12.541 C 70.207 12.315 74.083 12.167 77.958 12.089 C 82.286 11.991 86.614 11.941 90.942 11.951 L 165.068 11.951 L 165.068 11.951 L 165.068 11.951 Z M 165.078 15.96 C 169.376 15.95 173.675 15.999 177.973 16.087 C 181.8 16.176 185.626 16.323 189.452 16.539 C 192.836 16.736 196.219 17.011 199.583 17.384 C 202.554 17.699 205.515 18.131 208.446 18.681 C 211.023 19.153 213.58 19.762 216.099 20.499 C 218.322 21.147 220.495 21.953 222.6 22.896 C 224.509 23.751 226.338 24.763 228.069 25.922 C 229.692 27.013 231.207 28.26 232.594 29.646 C 233.981 31.031 235.23 32.544 236.332 34.165 C 237.492 35.894 238.506 37.712 239.361 39.608 C 240.306 41.72 241.112 43.892 241.761 46.102 C 242.509 48.617 243.109 51.162 243.591 53.736 C 244.132 56.664 244.565 59.611 244.889 62.578 C 245.263 65.938 245.539 69.308 245.735 72.688 C 245.952 76.51 246.109 80.322 246.188 84.144 C 246.276 88.437 246.325 92.721 246.325 97.014 C 246.325 97.014 246.325 97.014 246.325 97.014 L 246.325 155.226 C 246.325 155.226 246.325 155.226 246.325 155.226 C 246.325 159.519 246.276 163.803 246.188 168.096 C 246.109 171.918 245.952 175.74 245.735 179.552 C 245.539 182.932 245.263 186.302 244.889 189.672 C 244.565 192.629 244.132 195.576 243.591 198.504 C 243.109 201.078 242.509 203.623 241.761 206.138 C 241.112 208.358 240.306 210.52 239.361 212.632 C 238.506 214.528 237.492 216.356 236.332 218.075 C 235.23 219.706 233.981 221.219 232.594 222.604 C 231.207 223.98 229.692 225.227 228.069 226.318 C 226.338 227.477 224.509 228.489 222.6 229.344 C 220.495 230.297 218.322 231.093 216.099 231.741 C 213.58 232.478 211.023 233.087 208.446 233.559 C 205.515 234.109 202.554 234.541 199.583 234.865 C 196.219 235.229 192.836 235.514 189.452 235.701 C 185.626 235.917 181.8 236.074 177.973 236.153 C 173.675 236.251 169.376 236.29 165.078 236.29 C 165.078 236.29 165.078 236.29 165.068 236.29 L 90.942 236.29 C 90.932 236.29 90.932 236.29 90.932 236.29 C 86.634 236.29 82.335 236.251 78.037 236.153 C 74.21 236.074 70.384 235.917 66.558 235.701 C 63.174 235.514 59.791 235.229 56.427 234.865 C 53.456 234.541 50.495 234.109 47.564 233.559 C 44.987 233.087 42.43 232.478 39.911 231.741 C 37.688 231.093 35.515 230.297 33.41 229.344 C 31.501 228.489 29.672 227.477 27.941 226.318 C 26.318 225.227 24.803 223.98 23.416 222.604 C 22.029 221.219 20.78 219.706 19.678 218.075 C 18.518 216.356 17.504 214.528 16.649 212.632 C 15.704 210.52 14.898 208.358 14.249 206.138 C 13.501 203.623 12.901 201.078 12.419 198.504 C 11.878 195.576 11.445 192.629 11.121 189.672 C 10.747 186.302 10.472 182.932 10.275 179.552 C 10.058 175.74 9.901 171.918 9.822 168.096 C 9.734 163.803 9.685 159.519 9.685 155.226 C 9.685 155.226 9.685 155.226 9.685 155.226 L 9.685 97.014 C 9.685 97.014 9.685 97.014 9.685 97.014 C 9.685 92.721 9.734 88.437 9.822 84.144 C 9.901 80.322 10.058 76.51 10.275 72.688 C 10.472 69.308 10.747 65.938 11.121 62.578 C 11.445 59.611 11.878 56.664 12.419 53.736 C 12.901 51.162 13.501 48.617 14.249 46.102 C 14.898 43.892 15.704 41.72 16.649 39.608 C 17.504 37.712 18.518 35.894 19.678 34.165 C 20.78 32.544 22.029 31.031 23.416 29.646 C 24.803 28.26 26.318 27.013 27.941 25.922 C 29.672 24.763 31.501 23.751 33.41 22.896 C 35.515 21.953 37.688 21.147 39.911 20.499 C 42.43 19.762 44.987 19.153 47.564 18.681 C 50.495 18.131 53.456 17.699 56.427 17.384 C 59.791 17.011 63.174 16.736 66.558 16.539 C 70.384 16.323 74.21 16.176 78.037 16.087 C 82.335 15.999 86.634 15.95 90.932 15.96 C 90.932 15.96 90.932 15.96 90.942 15.96 L 165.068 15.96 C 165.078 15.96 165.078 15.96 165.078 15.96 Z"/>
 </g>
 <path fill="#5d5d5d" fill-rule="evenodd" d="M 44.267 104.307 L 44.267 49.026 L 68.511 49.026 L 68.511 49.026 Q 77.909 49.026 82.173 53.251 L 82.173 53.251 L 82.173 53.251 Q 86.438 57.476 86.438 63.873 L 86.438 63.873 L 86.438 63.873 Q 86.438 72.007 79.725 75.166 L 79.725 75.166 L 79.725 75.166 Q 84.069 76.745 86.201 80.299 L 86.201 80.299 L 86.201 80.299 Q 88.333 83.853 88.333 87.88 L 88.333 87.88 L 88.333 87.88 Q 88.333 94.593 83.753 99.45 L 83.753 99.45 L 83.753 99.45 Q 79.173 104.307 69.617 104.307 L 69.617 104.307 L 44.267 104.307 L 44.267 104.307 Z M 54.928 70.743 L 67.248 70.743 L 67.248 70.743 Q 71.433 70.743 73.526 69.164 L 73.526 69.164 L 73.526 69.164 Q 75.619 67.584 75.619 64.82 L 75.619 64.82 L 75.619 64.82 Q 75.619 58.976 68.669 58.976 L 68.669 58.976 L 54.928 58.976 L 54.928 70.743 L 54.928 70.743 Z M 54.928 94.356 L 70.17 94.356 L 70.17 94.356 Q 74.039 94.356 75.777 92.421 L 75.777 92.421 L 75.777 92.421 Q 77.514 90.486 77.514 87.88 L 77.514 87.88 L 77.514 87.88 Q 77.514 80.694 67.958 80.694 L 67.958 80.694 L 54.928 80.694 L 54.928 94.356 L 54.928 94.356 Z"/>
 <rect fill="#aea795" width="118.667" height="6.667" x="94.33" y="48.67" transform="matrix(1,0,0,1,0,0)"/>
 <g>
  <path fill="#aea795" d="M 98.426 78.657 C 99.16 78.657 99.96 78.483 100.533 78.177 L 100.293 77.403 C 99.8 77.643 99.173 77.79 98.613 77.79 C 97.253 77.79 96.4 76.977 96.24 75.603 L 100.72 75.603 C 100.746 75.403 100.773 74.937 100.773 74.683 C 100.773 73.07 99.706 71.963 98.12 71.963 C 96.333 71.963 95.12 73.363 95.12 75.337 C 95.12 77.39 96.386 78.657 98.426 78.657 L 98.426 78.657 Z M 98.04 72.87 C 99.133 72.87 99.773 73.577 99.773 74.803 L 96.226 74.803 C 96.32 73.55 96.96 72.87 98.04 72.87 Z"/>
  <path fill="#aea795" d="M 102.573 78.523 L 103.64 78.523 L 103.64 73.497 C 104.133 73.11 104.72 72.897 105.346 72.897 C 106.386 72.897 106.96 73.483 106.96 74.523 L 106.96 78.523 L 108.026 78.523 L 108.026 74.31 C 108.026 72.883 107.08 71.963 105.64 71.963 C 104.906 71.963 104.173 72.217 103.56 72.67 L 103.32 72.097 L 102.573 72.097 L 102.573 78.523 Z"/>
  <path fill="#aea795" d="M 113.013 78.657 C 113.746 78.657 114.546 78.483 115.12 78.177 L 114.88 77.403 C 114.386 77.643 113.76 77.79 113.2 77.79 C 111.84 77.79 110.986 76.977 110.826 75.603 L 115.306 75.603 C 115.333 75.403 115.36 74.937 115.36 74.683 C 115.36 73.07 114.293 71.963 112.706 71.963 C 110.92 71.963 109.706 73.363 109.706 75.337 C 109.706 77.39 110.973 78.657 113.013 78.657 L 113.013 78.657 Z M 112.626 72.87 C 113.72 72.87 114.36 73.577 114.36 74.803 L 110.813 74.803 C 110.906 73.55 111.546 72.87 112.626 72.87 L 112.626 72.87 Z"/>
  <path fill="#aea795" d="M 119.613 78.657 C 120.386 78.657 121.04 78.377 121.533 77.897 L 121.8 78.523 L 122.546 78.523 L 122.546 68.67 L 121.48 68.67 L 121.48 72.537 C 121.026 72.163 120.44 71.963 119.76 71.963 C 117.946 71.963 116.746 73.323 116.746 75.363 C 116.746 77.337 117.893 78.657 119.613 78.657 L 119.613 78.657 Z M 117.813 75.243 C 117.813 73.83 118.56 72.897 119.8 72.897 C 120.52 72.897 121.093 73.19 121.48 73.697 L 121.48 76.99 C 121.12 77.457 120.573 77.723 119.92 77.723 C 118.64 77.723 117.813 76.723 117.813 75.243 Z"/>
  <path fill="#aea795" d="M 125.36 70.59 C 125.84 70.59 126.12 70.31 126.12 69.83 C 126.12 69.35 125.84 69.07 125.36 69.07 C 124.88 69.07 124.6 69.35 124.6 69.83 C 124.6 70.31 124.88 70.59 125.36 70.59 L 125.36 70.59 Z M 124.813 78.523 L 125.88 78.523 L 125.88 72.097 L 124.813 72.097 L 124.813 78.523 Z"/>
  <path fill="#aea795" d="M 130.653 78.657 C 131.426 78.657 132.226 78.47 132.76 78.15 L 132.52 77.377 C 131.986 77.63 131.4 77.777 130.906 77.777 C 129.573 77.777 128.813 76.843 128.813 75.283 C 128.813 73.737 129.56 72.897 130.893 72.897 C 131.4 72.897 131.973 73.017 132.506 73.257 L 132.76 72.39 C 132.173 72.11 131.546 71.963 130.906 71.963 C 129 71.963 127.72 73.377 127.72 75.497 C 127.72 77.483 128.813 78.657 130.653 78.657 L 130.653 78.657 Z"/>
  <path fill="#aea795" d="M 136.053 78.657 C 136.866 78.657 137.56 78.39 138.08 77.923 L 138.333 78.523 L 139.08 78.523 L 139.08 74.35 C 139.08 72.817 138.173 71.963 136.493 71.963 C 135.653 71.963 134.746 72.19 134.053 72.577 L 134.32 73.363 C 134.986 73.07 135.653 72.923 136.28 72.923 C 137.426 72.923 138.013 73.403 138.013 74.35 L 138.013 74.777 C 135.133 74.803 133.88 75.403 133.88 76.777 C 133.88 77.923 134.733 78.657 136.053 78.657 Z M 134.946 76.657 C 134.946 75.857 135.853 75.523 138.013 75.51 L 138.013 77.083 C 137.613 77.483 137.026 77.723 136.36 77.723 C 135.506 77.723 134.946 77.297 134.946 76.657 L 134.946 76.657 Z"/>
  <path fill="#aea795" d="M 141.186 78.523 L 142.253 78.523 L 142.253 73.497 C 142.746 73.11 143.333 72.897 143.96 72.897 C 145 72.897 145.573 73.483 145.573 74.523 L 145.573 78.523 L 146.64 78.523 L 146.64 74.31 C 146.64 72.883 145.693 71.963 144.253 71.963 C 143.52 71.963 142.786 72.217 142.173 72.67 L 141.933 72.097 L 141.186 72.097 L 141.186 78.523 Z"/>
  <path fill="#aea795" d="M 150.853 78.59 C 151.293 78.59 151.733 78.483 152.04 78.35 L 151.8 77.577 C 151.6 77.67 151.306 77.723 151.08 77.723 C 150.413 77.723 149.973 77.297 149.973 76.657 L 149.973 72.99 L 151.733 72.99 L 151.733 72.097 L 149.973 72.097 L 149.973 70.217 L 148.906 70.217 L 148.906 72.097 L 148.04 72.097 L 148.04 72.99 L 148.906 72.99 L 148.906 76.803 C 148.906 77.87 149.68 78.59 150.853 78.59 L 150.853 78.59 Z"/>
  <path fill="#aea795" d="M 163.599 78.59 C 164.039 78.59 164.479 78.483 164.786 78.35 L 164.546 77.577 C 164.346 77.67 164.053 77.723 163.826 77.723 C 163.159 77.723 162.719 77.297 162.719 76.657 L 162.719 72.99 L 164.479 72.99 L 164.479 72.097 L 162.719 72.097 L 162.719 70.217 L 161.653 70.217 L 161.653 72.097 L 160.786 72.097 L 160.786 72.99 L 161.653 72.99 L 161.653 76.803 C 161.653 77.87 162.426 78.59 163.599 78.59 L 163.599 78.59 Z"/>
  <path fill="#aea795" d="M 169.186 78.657 C 169.919 78.657 170.719 78.483 171.293 78.177 L 171.053 77.403 C 170.559 77.643 169.933 77.79 169.373 77.79 C 168.013 77.79 167.159 76.977 166.999 75.603 L 171.479 75.603 C 171.506 75.403 171.533 74.937 171.533 74.683 C 171.533 73.07 170.466 71.963 168.879 71.963 C 167.093 71.963 165.879 73.363 165.879 75.337 C 165.879 77.39 167.146 78.657 169.186 78.657 L 169.186 78.657 Z M 168.799 72.87 C 169.893 72.87 170.533 73.577 170.533 74.803 L 166.986 74.803 C 167.079 73.55 167.719 72.87 168.799 72.87 Z"/>
  <path fill="#aea795" d="M 180.719 78.657 C 181.493 78.657 182.146 78.377 182.639 77.897 L 182.906 78.523 L 183.653 78.523 L 183.653 68.67 L 182.586 68.67 L 182.586 72.537 C 182.133 72.163 181.546 71.963 180.866 71.963 C 179.053 71.963 177.853 73.323 177.853 75.363 C 177.853 77.337 178.999 78.657 180.719 78.657 L 180.719 78.657 Z M 178.919 75.243 C 178.919 73.83 179.666 72.897 180.906 72.897 C 181.626 72.897 182.199 73.19 182.586 73.697 L 182.586 76.99 C 182.226 77.457 181.679 77.723 181.026 77.723 C 179.746 77.723 178.919 76.723 178.919 75.243 Z"/>
  <path fill="#aea795" d="M 186.466 70.59 C 186.946 70.59 187.226 70.31 187.226 69.83 C 187.226 69.35 186.946 69.07 186.466 69.07 C 185.986 69.07 185.706 69.35 185.706 69.83 C 185.706 70.31 185.986 70.59 186.466 70.59 Z M 185.92 78.523 L 186.986 78.523 L 186.986 72.097 L 185.92 72.097 L 185.92 78.523 Z"/>
  <path fill="#aea795" d="M 189.853 70.59 C 190.333 70.59 190.613 70.31 190.613 69.83 C 190.613 69.35 190.333 69.07 189.853 69.07 C 189.373 69.07 189.093 69.35 189.093 69.83 C 189.093 70.31 189.373 70.59 189.853 70.59 Z M 189.306 78.523 L 190.373 78.523 L 190.373 72.097 L 189.306 72.097 L 189.306 78.523 Z"/>
  <path fill="#aea795" d="M 201.026 78.657 C 201.8 78.657 202.453 78.377 202.946 77.897 L 203.213 78.523 L 203.96 78.523 L 203.96 68.67 L 202.893 68.67 L 202.893 72.537 C 202.44 72.163 201.853 71.963 201.173 71.963 C 199.36 71.963 198.16 73.323 198.16 75.363 C 198.16 77.337 199.306 78.657 201.026 78.657 L 201.026 78.657 Z M 199.226 75.243 C 199.226 73.83 199.973 72.897 201.213 72.897 C 201.933 72.897 202.506 73.19 202.893 73.697 L 202.893 76.99 C 202.533 77.457 201.986 77.723 201.333 77.723 C 200.053 77.723 199.226 76.723 199.226 75.243 Z"/>
  <path fill="#aea795" d="M 209.053 78.657 C 209.786 78.657 210.586 78.483 211.16 78.177 L 210.92 77.403 C 210.426 77.643 209.8 77.79 209.24 77.79 C 207.88 77.79 207.026 76.977 206.866 75.603 L 211.346 75.603 C 211.373 75.403 211.4 74.937 211.4 74.683 C 211.4 73.07 210.333 71.963 208.746 71.963 C 206.96 71.963 205.746 73.363 205.746 75.337 C 205.746 77.39 207.013 78.657 209.053 78.657 L 209.053 78.657 Z M 208.666 72.87 C 209.76 72.87 210.4 73.577 210.4 74.803 L 206.853 74.803 C 206.946 73.55 207.586 72.87 208.666 72.87 Z"/>
  <path fill="#aea795" d="M 92.386 99.057 L 93.546 99.057 L 94.533 96.31 L 98.386 96.31 L 99.306 99.057 L 100.546 99.057 L 97.293 89.803 L 95.853 89.803 L 92.386 99.057 Z M 94.866 95.35 L 96.506 90.75 L 98.053 95.35 L 94.866 95.35 Z"/>
  <path fill="#aea795" d="M 104.973 99.19 C 105.707 99.19 106.507 99.017 107.08 98.71 L 106.84 97.937 C 106.347 98.177 105.72 98.323 105.16 98.323 C 103.8 98.323 102.947 97.51 102.787 96.137 L 107.267 96.137 C 107.293 95.937 107.32 95.47 107.32 95.217 C 107.32 93.603 106.253 92.497 104.666 92.497 C 102.88 92.497 101.666 93.897 101.666 95.87 C 101.666 97.923 102.933 99.19 104.973 99.19 L 104.973 99.19 Z M 104.587 93.403 C 105.68 93.403 106.32 94.11 106.32 95.337 L 102.773 95.337 C 102.866 94.083 103.507 93.403 104.587 93.403 L 104.587 93.403 Z"/>
  <path fill="#aea795" d="M 109.12 99.057 L 110.187 99.057 L 110.187 94.47 C 110.6 93.91 111.253 93.577 111.973 93.577 C 112.227 93.577 112.467 93.617 112.68 93.697 L 112.947 92.71 C 112.667 92.617 112.387 92.563 112.093 92.563 C 111.32 92.563 110.6 92.937 110.12 93.563 L 110 92.63 L 109.12 92.63 L 109.12 99.057 Z"/>
  <path fill="#aea795" d="M 114.747 91.123 C 115.227 91.123 115.507 90.843 115.507 90.363 C 115.507 89.883 115.227 89.603 114.747 89.603 C 114.267 89.603 113.987 89.883 113.987 90.363 C 113.987 90.843 114.267 91.123 114.747 91.123 Z M 114.2 99.057 L 115.267 99.057 L 115.267 92.63 L 114.2 92.63 L 114.2 99.057 Z"/>
  <path fill="#aea795" d="M 118.947 99.137 C 119.293 99.137 119.707 99.057 119.96 98.923 L 119.72 98.177 C 119.56 98.243 119.413 98.283 119.253 98.283 C 118.8 98.283 118.56 97.977 118.56 97.483 L 118.56 89.203 L 117.493 89.203 L 117.493 97.617 C 117.493 98.537 118.067 99.137 118.947 99.137 L 118.947 99.137 Z"/>
  <path fill="#aea795" d="M 123.72 99.19 C 125.613 99.19 126.893 97.817 126.893 95.763 C 126.893 93.777 125.707 92.497 123.88 92.497 C 121.987 92.497 120.72 93.857 120.72 95.91 C 120.72 97.897 121.893 99.19 123.72 99.19 L 123.72 99.19 Z M 123.867 98.257 C 122.627 98.257 121.787 97.257 121.787 95.777 C 121.787 94.35 122.547 93.43 123.733 93.43 C 124.973 93.43 125.827 94.443 125.827 95.91 C 125.827 97.323 125.053 98.257 123.867 98.257 Z"/>
  <path fill="#aea795" d="M 128.68 99.057 L 129.747 99.057 L 129.747 94.03 C 130.24 93.643 130.827 93.43 131.453 93.43 C 132.493 93.43 133.067 94.017 133.067 95.057 L 133.067 99.057 L 134.133 99.057 L 134.133 94.843 C 134.133 93.417 133.187 92.497 131.747 92.497 C 131.013 92.497 130.28 92.75 129.667 93.203 L 129.427 92.63 L 128.68 92.63 L 128.68 99.057 Z"/>
  <path fill="#aea795" d="M 136.84 91.123 C 137.32 91.123 137.6 90.843 137.6 90.363 C 137.6 89.883 137.32 89.603 136.84 89.603 C 136.36 89.603 136.08 89.883 136.08 90.363 C 136.08 90.843 136.36 91.123 136.84 91.123 Z M 136.293 99.057 L 137.36 99.057 L 137.36 92.63 L 136.293 92.63 L 136.293 99.057 Z"/>
  <path fill="#aea795" d="M 141.32 99.19 C 142.133 99.19 142.827 98.923 143.347 98.457 L 143.6 99.057 L 144.347 99.057 L 144.347 94.883 C 144.347 93.35 143.44 92.497 141.76 92.497 C 140.92 92.497 140.013 92.723 139.32 93.11 L 139.587 93.897 C 140.253 93.603 140.92 93.457 141.547 93.457 C 142.693 93.457 143.28 93.937 143.28 94.883 L 143.28 95.31 C 140.4 95.337 139.147 95.937 139.147 97.31 C 139.147 98.457 140 99.19 141.32 99.19 L 141.32 99.19 Z M 140.213 97.19 C 140.213 96.39 141.12 96.057 143.28 96.043 L 143.28 97.617 C 142.88 98.017 142.293 98.257 141.627 98.257 C 140.773 98.257 140.213 97.83 140.213 97.19 L 140.213 97.19 Z"/>
  <path fill="#aea795" d="M 149.333 99.19 C 150.066 99.19 150.866 99.017 151.44 98.71 L 151.2 97.937 C 150.706 98.177 150.08 98.323 149.52 98.323 C 148.16 98.323 147.306 97.51 147.146 96.137 L 151.626 96.137 C 151.653 95.937 151.68 95.47 151.68 95.217 C 151.68 93.603 150.613 92.497 149.026 92.497 C 147.24 92.497 146.026 93.897 146.026 95.87 C 146.026 97.923 147.293 99.19 149.333 99.19 L 149.333 99.19 Z M 148.946 93.403 C 150.04 93.403 150.68 94.11 150.68 95.337 L 147.133 95.337 C 147.226 94.083 147.866 93.403 148.946 93.403 Z"/>
  <path fill="#aea795" d="M 153.2 101.377 L 154.04 101.377 C 154.52 100.177 154.8 98.79 154.8 97.63 L 153.693 97.63 C 153.693 98.83 153.507 100.23 153.2 101.377 Z"/>
  <path fill="#aea795" d="M 159.447 99.057 L 160.607 99.057 L 161.593 96.31 L 165.447 96.31 L 166.367 99.057 L 167.607 99.057 L 164.353 89.803 L 162.913 89.803 L 159.447 99.057 Z M 161.927 95.35 L 163.567 90.75 L 165.113 95.35 L 161.927 95.35 Z"/>
  <path fill="#aea795" d="M 171.607 99.19 C 172.353 99.19 172.993 98.937 173.473 98.483 L 173.473 101.95 L 174.54 101.95 L 174.54 92.63 L 173.793 92.63 L 173.567 93.15 C 173.1 92.723 172.487 92.497 171.753 92.497 C 169.94 92.497 168.74 93.857 168.74 95.897 C 168.74 97.87 169.887 99.19 171.607 99.19 L 171.607 99.19 Z M 169.807 95.777 C 169.807 94.363 170.553 93.43 171.793 93.43 C 172.513 93.43 173.087 93.723 173.473 94.23 L 173.473 97.523 C 173.113 97.99 172.567 98.257 171.913 98.257 C 170.633 98.257 169.807 97.257 169.807 95.777 Z"/>
  <path fill="#aea795" d="M 177.7 92.63 L 176.633 92.63 L 176.633 96.843 C 176.633 98.27 177.58 99.19 178.953 99.19 C 179.66 99.19 180.38 98.937 180.98 98.497 L 181.22 99.057 L 181.967 99.057 L 181.967 92.63 L 180.9 92.63 L 180.9 97.67 C 180.433 98.043 179.847 98.257 179.273 98.257 C 178.273 98.257 177.7 97.67 177.7 96.63 L 177.7 92.63 Z"/>
  <path fill="#aea795" d="M 185.874 99.19 C 186.687 99.19 187.38 98.923 187.9 98.457 L 188.154 99.057 L 188.9 99.057 L 188.9 94.883 C 188.9 93.35 187.994 92.497 186.314 92.497 C 185.474 92.497 184.567 92.723 183.874 93.11 L 184.14 93.897 C 184.807 93.603 185.474 93.457 186.1 93.457 C 187.247 93.457 187.834 93.937 187.834 94.883 L 187.834 95.31 C 184.954 95.337 183.7 95.937 183.7 97.31 C 183.7 98.457 184.554 99.19 185.874 99.19 L 185.874 99.19 Z M 184.767 97.19 C 184.767 96.39 185.674 96.057 187.834 96.043 L 187.834 97.617 C 187.434 98.017 186.847 98.257 186.18 98.257 C 185.327 98.257 184.767 97.83 184.767 97.19 L 184.767 97.19 Z"/>
  <path fill="#aea795" d="M 191.007 99.057 L 192.073 99.057 L 192.073 94.47 C 192.487 93.91 193.14 93.577 193.86 93.577 C 194.113 93.577 194.353 93.617 194.567 93.697 L 194.833 92.71 C 194.553 92.617 194.273 92.563 193.98 92.563 C 193.207 92.563 192.487 92.937 192.007 93.563 L 191.887 92.63 L 191.007 92.63 L 191.007 99.057 Z"/>
  <path fill="#aea795" d="M 196.634 91.123 C 197.114 91.123 197.394 90.843 197.394 90.363 C 197.394 89.883 197.114 89.603 196.634 89.603 C 196.154 89.603 195.874 89.883 195.874 90.363 C 195.874 90.843 196.154 91.123 196.634 91.123 Z M 196.087 99.057 L 197.154 99.057 L 197.154 92.63 L 196.087 92.63 L 196.087 99.057 Z"/>
  <path fill="#aea795" d="M 201.114 99.19 C 201.927 99.19 202.62 98.923 203.14 98.457 L 203.394 99.057 L 204.14 99.057 L 204.14 94.883 C 204.14 93.35 203.234 92.497 201.554 92.497 C 200.714 92.497 199.807 92.723 199.114 93.11 L 199.38 93.897 C 200.047 93.603 200.714 93.457 201.34 93.457 C 202.487 93.457 203.074 93.937 203.074 94.883 L 203.074 95.31 C 200.194 95.337 198.94 95.937 198.94 97.31 C 198.94 98.457 199.794 99.19 201.114 99.19 L 201.114 99.19 Z M 200.007 97.19 C 200.007 96.39 200.914 96.057 203.074 96.043 L 203.074 97.617 C 202.674 98.017 202.087 98.257 201.42 98.257 C 200.567 98.257 200.007 97.83 200.007 97.19 L 200.007 97.19 Z"/>
  <path fill="#aea795" d="M 209.127 99.19 C 209.86 99.19 210.66 99.017 211.233 98.71 L 210.993 97.937 C 210.5 98.177 209.873 98.323 209.313 98.323 C 207.953 98.323 207.1 97.51 206.94 96.137 L 211.42 96.137 C 211.447 95.937 211.473 95.47 211.473 95.217 C 211.473 93.603 210.407 92.497 208.82 92.497 C 207.033 92.497 205.82 93.897 205.82 95.87 C 205.82 97.923 207.087 99.19 209.127 99.19 L 209.127 99.19 Z M 208.74 93.403 C 209.833 93.403 210.473 94.11 210.473 95.337 L 206.927 95.337 C 207.02 94.083 207.66 93.403 208.74 93.403 Z"/>
  <path fill="#aea795" d="M 212.994 101.377 L 213.834 101.377 C 214.314 100.177 214.594 98.79 214.594 97.63 L 213.487 97.63 C 213.487 98.83 213.3 100.23 212.994 101.377 Z"/>
  <path fill="#aea795" d="M 49.013 119.723 C 49.906 119.723 50.839 119.523 51.719 119.137 L 51.466 118.323 C 50.799 118.59 49.973 118.75 49.266 118.75 C 47.053 118.75 45.586 117.177 45.586 114.817 C 45.586 112.563 46.933 111.19 49.159 111.19 C 49.906 111.19 50.746 111.35 51.453 111.617 L 51.773 110.79 C 51.093 110.43 50.133 110.217 49.226 110.217 C 46.359 110.217 44.453 112.163 44.453 115.07 C 44.453 117.857 46.279 119.723 49.013 119.723 Z"/>
  <path fill="#aea795" d="M 55.146 119.723 C 55.96 119.723 56.653 119.457 57.173 118.99 L 57.426 119.59 L 58.173 119.59 L 58.173 115.417 C 58.173 113.883 57.266 113.03 55.586 113.03 C 54.746 113.03 53.84 113.257 53.146 113.643 L 53.413 114.43 C 54.08 114.137 54.746 113.99 55.373 113.99 C 56.52 113.99 57.106 114.47 57.106 115.417 L 57.106 115.843 C 54.226 115.87 52.973 116.47 52.973 117.843 C 52.973 118.99 53.826 119.723 55.146 119.723 Z M 54.04 117.723 C 54.04 116.923 54.946 116.59 57.106 116.577 L 57.106 118.15 C 56.706 118.55 56.12 118.79 55.453 118.79 C 54.6 118.79 54.04 118.363 54.04 117.723 Z"/>
  <path fill="#aea795" d="M 60.279 119.59 L 61.346 119.59 L 61.346 114.563 C 61.839 114.177 62.426 113.963 63.053 113.963 C 64.093 113.963 64.666 114.55 64.666 115.59 L 64.666 119.59 L 65.733 119.59 L 65.733 115.377 C 65.733 113.95 64.786 113.03 63.346 113.03 C 62.613 113.03 61.879 113.283 61.266 113.737 L 61.026 113.163 L 60.279 113.163 L 60.279 119.59 Z"/>
  <path fill="#aea795" d="M 70.346 119.723 C 71.119 119.723 71.919 119.537 72.453 119.217 L 72.213 118.443 C 71.679 118.697 71.093 118.843 70.599 118.843 C 69.266 118.843 68.506 117.91 68.506 116.35 C 68.506 114.803 69.253 113.963 70.586 113.963 C 71.093 113.963 71.666 114.083 72.199 114.323 L 72.453 113.457 C 71.866 113.177 71.239 113.03 70.599 113.03 C 68.693 113.03 67.413 114.443 67.413 116.563 C 67.413 118.55 68.506 119.723 70.346 119.723 L 70.346 119.723 Z"/>
  <path fill="#aea795" d="M 76.933 119.723 C 77.666 119.723 78.466 119.55 79.039 119.243 L 78.799 118.47 C 78.306 118.71 77.679 118.857 77.119 118.857 C 75.759 118.857 74.906 118.043 74.746 116.67 L 79.226 116.67 C 79.253 116.47 79.279 116.003 79.279 115.75 C 79.279 114.137 78.213 113.03 76.626 113.03 C 74.839 113.03 73.626 114.43 73.626 116.403 C 73.626 118.457 74.893 119.723 76.933 119.723 L 76.933 119.723 Z M 76.546 113.937 C 77.639 113.937 78.279 114.643 78.279 115.87 L 74.733 115.87 C 74.826 114.617 75.466 113.937 76.546 113.937 Z"/>
  <path fill="#aea795" d="M 81.079 119.59 L 82.146 119.59 L 82.146 115.003 C 82.559 114.443 83.213 114.11 83.933 114.11 C 84.186 114.11 84.426 114.15 84.639 114.23 L 84.906 113.243 C 84.626 113.15 84.346 113.097 84.053 113.097 C 83.279 113.097 82.559 113.47 82.079 114.097 L 81.959 113.163 L 81.079 113.163 L 81.079 119.59 Z"/>
  <path fill="#aea795" d="M 88.68 119.723 C 90.573 119.723 91.853 118.35 91.853 116.297 C 91.853 114.31 90.666 113.03 88.84 113.03 C 86.946 113.03 85.68 114.39 85.68 116.443 C 85.68 118.43 86.853 119.723 88.68 119.723 Z M 88.826 118.79 C 87.586 118.79 86.746 117.79 86.746 116.31 C 86.746 114.883 87.506 113.963 88.693 113.963 C 89.933 113.963 90.786 114.977 90.786 116.443 C 90.786 117.857 90.013 118.79 88.826 118.79 L 88.826 118.79 Z"/>
  <path fill="#aea795" d="M 93.64 119.59 L 94.706 119.59 L 94.706 114.563 C 95.2 114.177 95.786 113.963 96.413 113.963 C 97.453 113.963 98.026 114.55 98.026 115.59 L 98.026 119.59 L 99.093 119.59 L 99.093 115.377 C 99.093 113.95 98.146 113.03 96.706 113.03 C 95.973 113.03 95.24 113.283 94.626 113.737 L 94.386 113.163 L 93.64 113.163 L 93.64 119.59 Z"/>
  <path fill="#aea795" d="M 101.799 111.657 C 102.279 111.657 102.559 111.377 102.559 110.897 C 102.559 110.417 102.279 110.137 101.799 110.137 C 101.319 110.137 101.039 110.417 101.039 110.897 C 101.039 111.377 101.319 111.657 101.799 111.657 Z M 101.253 119.59 L 102.319 119.59 L 102.319 113.163 L 101.253 113.163 L 101.253 119.59 Z"/>
  <path fill="#aea795" d="M 106.279 119.723 C 107.093 119.723 107.786 119.457 108.306 118.99 L 108.559 119.59 L 109.306 119.59 L 109.306 115.417 C 109.306 113.883 108.399 113.03 106.719 113.03 C 105.879 113.03 104.973 113.257 104.279 113.643 L 104.546 114.43 C 105.213 114.137 105.879 113.99 106.506 113.99 C 107.653 113.99 108.239 114.47 108.239 115.417 L 108.239 115.843 C 105.359 115.87 104.106 116.47 104.106 117.843 C 104.106 118.99 104.959 119.723 106.279 119.723 Z M 105.173 117.723 C 105.173 116.923 106.079 116.59 108.239 116.577 L 108.239 118.15 C 107.839 118.55 107.253 118.79 106.586 118.79 C 105.733 118.79 105.173 118.363 105.173 117.723 Z"/>
  <path fill="#aea795" d="M 114.293 119.723 C 115.026 119.723 115.826 119.55 116.399 119.243 L 116.159 118.47 C 115.666 118.71 115.039 118.857 114.479 118.857 C 113.119 118.857 112.266 118.043 112.106 116.67 L 116.586 116.67 C 116.613 116.47 116.639 116.003 116.639 115.75 C 116.639 114.137 115.573 113.03 113.986 113.03 C 112.199 113.03 110.986 114.43 110.986 116.403 C 110.986 118.457 112.253 119.723 114.293 119.723 L 114.293 119.723 Z M 113.906 113.937 C 114.999 113.937 115.639 114.643 115.639 115.87 L 112.093 115.87 C 112.186 114.617 112.826 113.937 113.906 113.937 L 113.906 113.937 Z"/>
  <path fill="#aea795" d="M 118.159 121.91 L 118.999 121.91 C 119.479 120.71 119.759 119.323 119.759 118.163 L 118.653 118.163 C 118.653 119.363 118.466 120.763 118.159 121.91 L 118.159 121.91 Z"/>
  <path fill="#aea795" d="M 134.643 119.723 C 135.536 119.723 136.47 119.523 137.35 119.137 L 137.096 118.323 C 136.43 118.59 135.603 118.75 134.896 118.75 C 132.683 118.75 131.216 117.177 131.216 114.817 C 131.216 112.563 132.563 111.19 134.79 111.19 C 135.536 111.19 136.376 111.35 137.083 111.617 L 137.403 110.79 C 136.723 110.43 135.763 110.217 134.856 110.217 C 131.99 110.217 130.083 112.163 130.083 115.07 C 130.083 117.857 131.91 119.723 134.643 119.723 Z"/>
  <path fill="#aea795" d="M 140.776 119.723 C 141.59 119.723 142.283 119.457 142.803 118.99 L 143.056 119.59 L 143.803 119.59 L 143.803 115.417 C 143.803 113.883 142.896 113.03 141.216 113.03 C 140.376 113.03 139.47 113.257 138.776 113.643 L 139.043 114.43 C 139.71 114.137 140.376 113.99 141.003 113.99 C 142.15 113.99 142.736 114.47 142.736 115.417 L 142.736 115.843 C 139.856 115.87 138.603 116.47 138.603 117.843 C 138.603 118.99 139.456 119.723 140.776 119.723 Z M 139.67 117.723 C 139.67 116.923 140.576 116.59 142.736 116.577 L 142.736 118.15 C 142.336 118.55 141.75 118.79 141.083 118.79 C 140.23 118.79 139.67 118.363 139.67 117.723 Z"/>
  <path fill="#aea795" d="M 145.91 122.483 L 146.976 122.483 L 146.976 119.043 C 147.416 119.483 148.03 119.723 148.736 119.723 C 150.523 119.723 151.723 118.337 151.723 116.257 C 151.723 114.323 150.616 113.03 148.963 113.03 C 148.203 113.03 147.47 113.31 146.923 113.803 L 146.656 113.163 L 145.91 113.163 L 145.91 122.483 Z M 148.683 113.963 C 149.883 113.963 150.656 114.923 150.656 116.39 C 150.656 117.83 149.95 118.79 148.79 118.79 C 148.003 118.79 147.323 118.363 146.976 117.683 L 146.976 114.683 C 147.43 114.23 148.056 113.963 148.683 113.963 L 148.683 113.963 Z"/>
  <path fill="#aea795" d="M 153.523 119.59 L 154.59 119.59 L 154.59 115.003 C 155.003 114.443 155.656 114.11 156.376 114.11 C 156.63 114.11 156.87 114.15 157.083 114.23 L 157.35 113.243 C 157.07 113.15 156.79 113.097 156.496 113.097 C 155.723 113.097 155.003 113.47 154.523 114.097 L 154.403 113.163 L 153.523 113.163 L 153.523 119.59 Z"/>
  <path fill="#aea795" d="M 159.15 111.657 C 159.63 111.657 159.91 111.377 159.91 110.897 C 159.91 110.417 159.63 110.137 159.15 110.137 C 158.67 110.137 158.39 110.417 158.39 110.897 C 158.39 111.377 158.67 111.657 159.15 111.657 Z M 158.603 119.59 L 159.67 119.59 L 159.67 113.163 L 158.603 113.163 L 158.603 119.59 Z"/>
  <path fill="#aea795" d="M 164.443 119.723 C 165.217 119.723 166.017 119.537 166.55 119.217 L 166.31 118.443 C 165.777 118.697 165.19 118.843 164.697 118.843 C 163.363 118.843 162.603 117.91 162.603 116.35 C 162.603 114.803 163.35 113.963 164.683 113.963 C 165.19 113.963 165.763 114.083 166.297 114.323 L 166.55 113.457 C 165.963 113.177 165.337 113.03 164.697 113.03 C 162.79 113.03 161.51 114.443 161.51 116.563 C 161.51 118.55 162.603 119.723 164.443 119.723 L 164.443 119.723 Z"/>
  <path fill="#aea795" d="M 169.843 119.723 C 170.657 119.723 171.35 119.457 171.87 118.99 L 172.123 119.59 L 172.87 119.59 L 172.87 115.417 C 172.87 113.883 171.963 113.03 170.283 113.03 C 169.443 113.03 168.537 113.257 167.843 113.643 L 168.11 114.43 C 168.777 114.137 169.443 113.99 170.07 113.99 C 171.217 113.99 171.803 114.47 171.803 115.417 L 171.803 115.843 C 168.923 115.87 167.67 116.47 167.67 117.843 C 167.67 118.99 168.523 119.723 169.843 119.723 Z M 168.737 117.723 C 168.737 116.923 169.643 116.59 171.803 116.577 L 171.803 118.15 C 171.403 118.55 170.817 118.79 170.15 118.79 C 169.297 118.79 168.737 118.363 168.737 117.723 Z"/>
  <path fill="#aea795" d="M 177.857 119.723 C 178.59 119.723 179.39 119.55 179.963 119.243 L 179.723 118.47 C 179.23 118.71 178.603 118.857 178.043 118.857 C 176.683 118.857 175.83 118.043 175.67 116.67 L 180.15 116.67 C 180.177 116.47 180.203 116.003 180.203 115.75 C 180.203 114.137 179.137 113.03 177.55 113.03 C 175.763 113.03 174.55 114.43 174.55 116.403 C 174.55 118.457 175.817 119.723 177.857 119.723 L 177.857 119.723 Z M 177.47 113.937 C 178.563 113.937 179.203 114.643 179.203 115.87 L 175.657 115.87 C 175.75 114.617 176.39 113.937 177.47 113.937 Z"/>
  <path fill="#aea795" d="M 181.723 121.91 L 182.563 121.91 C 183.043 120.71 183.323 119.323 183.323 118.163 L 182.217 118.163 C 182.217 119.363 182.03 120.763 181.723 121.91 Z"/>
  <path fill="#aea795" d="M 198.327 119.71 C 199.607 119.71 200.767 119.337 201.7 118.603 L 201.7 114.683 L 197.967 114.683 L 197.967 115.643 L 200.593 115.643 L 200.593 118.23 C 199.94 118.563 199.22 118.737 198.487 118.737 C 196.26 118.737 194.82 117.203 194.82 114.83 C 194.82 112.523 196.14 111.19 198.393 111.19 C 199.233 111.19 200.207 111.377 201.02 111.683 L 201.34 110.83 C 200.527 110.43 199.553 110.217 198.54 110.217 C 195.62 110.217 193.687 112.123 193.687 115.03 C 193.687 117.857 195.527 119.71 198.327 119.71 L 198.327 119.71 Z"/>
  <path fill="#aea795" d="M 206.674 119.723 C 207.407 119.723 208.207 119.55 208.78 119.243 L 208.54 118.47 C 208.047 118.71 207.42 118.857 206.86 118.857 C 205.5 118.857 204.647 118.043 204.487 116.67 L 208.967 116.67 C 208.994 116.47 209.02 116.003 209.02 115.75 C 209.02 114.137 207.954 113.03 206.367 113.03 C 204.58 113.03 203.367 114.43 203.367 116.403 C 203.367 118.457 204.634 119.723 206.674 119.723 L 206.674 119.723 Z M 206.287 113.937 C 207.38 113.937 208.02 114.643 208.02 115.87 L 204.474 115.87 C 204.567 114.617 205.207 113.937 206.287 113.937 Z"/>
  <path fill="#aea795" d="M 210.82 116.657 L 214.687 116.657 L 214.687 115.763 L 210.82 115.763 L 210.82 116.657 Z"/>
  <path fill="#aea795" d="M 44.746 140.123 L 45.813 140.123 L 45.813 135.097 C 46.293 134.71 46.866 134.497 47.479 134.497 C 48.506 134.497 49.066 135.083 49.066 136.123 L 49.066 140.123 L 50.133 140.123 L 50.133 135.91 C 50.133 135.643 50.106 135.403 50.039 135.177 C 50.533 134.737 51.146 134.497 51.799 134.497 C 52.826 134.497 53.386 135.083 53.386 136.123 L 53.386 140.123 L 54.453 140.123 L 54.453 135.91 C 54.453 134.483 53.519 133.563 52.093 133.563 C 51.239 133.563 50.399 133.91 49.746 134.523 C 49.346 133.91 48.666 133.563 47.786 133.563 C 47.053 133.563 46.333 133.817 45.733 134.257 L 45.493 133.697 L 44.746 133.697 L 44.746 140.123 Z"/>
  <path fill="#aea795" d="M 59.439 140.257 C 60.173 140.257 60.973 140.083 61.546 139.777 L 61.306 139.003 C 60.813 139.243 60.186 139.39 59.626 139.39 C 58.266 139.39 57.413 138.577 57.253 137.203 L 61.733 137.203 C 61.759 137.003 61.786 136.537 61.786 136.283 C 61.786 134.67 60.719 133.563 59.133 133.563 C 57.346 133.563 56.133 134.963 56.133 136.937 C 56.133 138.99 57.399 140.257 59.439 140.257 L 59.439 140.257 Z M 59.053 134.47 C 60.146 134.47 60.786 135.177 60.786 136.403 L 57.239 136.403 C 57.333 135.15 57.973 134.47 59.053 134.47 Z"/>
  <path fill="#aea795" d="M 63.586 140.123 L 64.653 140.123 L 64.653 135.097 C 65.146 134.71 65.733 134.497 66.359 134.497 C 67.399 134.497 67.973 135.083 67.973 136.123 L 67.973 140.123 L 69.039 140.123 L 69.039 135.91 C 69.039 134.483 68.093 133.563 66.653 133.563 C 65.919 133.563 65.186 133.817 64.573 134.27 L 64.333 133.697 L 63.586 133.697 L 63.586 140.123 Z"/>
  <path fill="#aea795" d="M 73.719 140.257 C 75.612 140.257 76.892 138.883 76.892 136.83 C 76.892 134.843 75.706 133.563 73.879 133.563 C 71.986 133.563 70.719 134.923 70.719 136.977 C 70.719 138.963 71.892 140.257 73.719 140.257 Z M 73.866 139.323 C 72.626 139.323 71.786 138.323 71.786 136.843 C 71.786 135.417 72.546 134.497 73.732 134.497 C 74.972 134.497 75.826 135.51 75.826 136.977 C 75.826 138.39 75.052 139.323 73.866 139.323 L 73.866 139.323 Z"/>
  <path fill="#aea795" d="M 78.679 140.123 L 79.746 140.123 L 79.746 135.097 C 80.239 134.71 80.826 134.497 81.452 134.497 C 82.492 134.497 83.066 135.083 83.066 136.123 L 83.066 140.123 L 84.132 140.123 L 84.132 135.91 C 84.132 134.483 83.186 133.563 81.746 133.563 C 81.012 133.563 80.279 133.817 79.666 134.27 L 79.426 133.697 L 78.679 133.697 L 78.679 140.123 Z"/>
  <path fill="#aea795" d="M 86.839 132.19 C 87.319 132.19 87.599 131.91 87.599 131.43 C 87.599 130.95 87.319 130.67 86.839 130.67 C 86.359 130.67 86.079 130.95 86.079 131.43 C 86.079 131.91 86.359 132.19 86.839 132.19 Z M 86.292 140.123 L 87.359 140.123 L 87.359 133.697 L 86.292 133.697 L 86.292 140.123 Z"/>
  <path fill="#aea795" d="M 91.319 140.257 C 92.132 140.257 92.826 139.99 93.346 139.523 L 93.599 140.123 L 94.346 140.123 L 94.346 135.95 C 94.346 134.417 93.439 133.563 91.759 133.563 C 90.919 133.563 90.012 133.79 89.319 134.177 L 89.586 134.963 C 90.252 134.67 90.919 134.523 91.546 134.523 C 92.692 134.523 93.279 135.003 93.279 135.95 L 93.279 136.377 C 90.399 136.403 89.146 137.003 89.146 138.377 C 89.146 139.523 89.999 140.257 91.319 140.257 Z M 90.212 138.257 C 90.212 137.457 91.119 137.123 93.279 137.11 L 93.279 138.683 C 92.879 139.083 92.292 139.323 91.626 139.323 C 90.772 139.323 90.212 138.897 90.212 138.257 Z"/>
  <path fill="#aea795" d="M 99.332 140.257 C 100.065 140.257 100.865 140.083 101.439 139.777 L 101.199 139.003 C 100.705 139.243 100.079 139.39 99.519 139.39 C 98.159 139.39 97.305 138.577 97.145 137.203 L 101.625 137.203 C 101.652 137.003 101.679 136.537 101.679 136.283 C 101.679 134.67 100.612 133.563 99.025 133.563 C 97.239 133.563 96.025 134.963 96.025 136.937 C 96.025 138.99 97.292 140.257 99.332 140.257 L 99.332 140.257 Z M 98.945 134.47 C 100.039 134.47 100.679 135.177 100.679 136.403 L 97.132 136.403 C 97.225 135.15 97.865 134.47 98.945 134.47 Z"/>
  <path fill="#aea795" d="M 103.199 142.443 L 104.039 142.443 C 104.519 141.243 104.799 139.857 104.799 138.697 L 103.692 138.697 C 103.692 139.897 103.506 141.297 103.199 142.443 Z"/>
  <path fill="#aea795" d="M 115.137 140.123 L 120.39 140.123 L 120.39 139.137 L 116.243 139.137 L 116.243 130.87 L 115.137 130.87 L 115.137 140.123 Z"/>
  <path fill="#aea795" d="M 124.896 140.257 C 125.63 140.257 126.43 140.083 127.003 139.777 L 126.763 139.003 C 126.27 139.243 125.643 139.39 125.083 139.39 C 123.723 139.39 122.87 138.577 122.71 137.203 L 127.19 137.203 C 127.216 137.003 127.243 136.537 127.243 136.283 C 127.243 134.67 126.176 133.563 124.59 133.563 C 122.803 133.563 121.59 134.963 121.59 136.937 C 121.59 138.99 122.856 140.257 124.896 140.257 L 124.896 140.257 Z M 124.51 134.47 C 125.603 134.47 126.243 135.177 126.243 136.403 L 122.696 136.403 C 122.79 135.15 123.43 134.47 124.51 134.47 L 124.51 134.47 Z"/>
  <path fill="#aea795" d="M 131.617 140.257 C 133.51 140.257 134.79 138.883 134.79 136.83 C 134.79 134.843 133.603 133.563 131.777 133.563 C 129.883 133.563 128.617 134.923 128.617 136.977 C 128.617 138.963 129.79 140.257 131.617 140.257 Z M 131.763 139.323 C 130.523 139.323 129.683 138.323 129.683 136.843 C 129.683 135.417 130.443 134.497 131.63 134.497 C 132.87 134.497 133.723 135.51 133.723 136.977 C 133.723 138.39 132.95 139.323 131.763 139.323 Z"/>
  <path fill="#aea795" d="M 136.577 140.123 L 137.643 140.123 L 137.643 135.097 C 138.137 134.71 138.723 134.497 139.35 134.497 C 140.39 134.497 140.963 135.083 140.963 136.123 L 140.963 140.123 L 142.03 140.123 L 142.03 135.91 C 142.03 134.483 141.083 133.563 139.643 133.563 C 138.91 133.563 138.177 133.817 137.563 134.27 L 137.323 133.697 L 136.577 133.697 L 136.577 140.123 Z"/>
  <path fill="#aea795" d="M 144.736 132.19 C 145.216 132.19 145.496 131.91 145.496 131.43 C 145.496 130.95 145.216 130.67 144.736 130.67 C 144.256 130.67 143.976 130.95 143.976 131.43 C 143.976 131.91 144.256 132.19 144.736 132.19 Z M 144.19 140.123 L 145.256 140.123 L 145.256 133.697 L 144.19 133.697 L 144.19 140.123 Z"/>
  <path fill="#aea795" d="M 149.47 140.257 C 151.056 140.257 152.03 139.51 152.03 138.323 C 152.03 135.963 148.19 136.843 148.19 135.39 C 148.19 134.83 148.79 134.47 149.75 134.47 C 150.296 134.47 150.936 134.59 151.483 134.777 L 151.736 133.91 C 151.19 133.683 150.536 133.563 149.856 133.563 C 148.19 133.563 147.123 134.297 147.123 135.51 C 147.123 137.817 150.95 136.857 150.95 138.43 C 150.95 139.017 150.43 139.35 149.55 139.35 C 148.87 139.35 147.963 139.163 147.283 138.87 L 147.03 139.737 C 147.763 140.07 148.656 140.257 149.47 140.257 L 149.47 140.257 Z"/>
  <path fill="#aea795" d="M 154.31 132.19 C 154.79 132.19 155.07 131.91 155.07 131.43 C 155.07 130.95 154.79 130.67 154.31 130.67 C 153.83 130.67 153.55 130.95 153.55 131.43 C 153.55 131.91 153.83 132.19 154.31 132.19 Z M 153.763 140.123 L 154.83 140.123 L 154.83 133.697 L 153.763 133.697 L 153.763 140.123 Z"/>
  <path fill="#aea795" d="M 159.669 140.257 C 161.563 140.257 162.843 138.883 162.843 136.83 C 162.843 134.843 161.656 133.563 159.829 133.563 C 157.936 133.563 156.669 134.923 156.669 136.977 C 156.669 138.963 157.843 140.257 159.669 140.257 Z M 159.816 139.323 C 158.576 139.323 157.736 138.323 157.736 136.843 C 157.736 135.417 158.496 134.497 159.683 134.497 C 160.923 134.497 161.776 135.51 161.776 136.977 C 161.776 138.39 161.003 139.323 159.816 139.323 Z"/>
  <path fill="#aea795" d="M 164.63 140.123 L 165.696 140.123 L 165.696 135.537 C 166.11 134.977 166.763 134.643 167.483 134.643 C 167.736 134.643 167.976 134.683 168.19 134.763 L 168.456 133.777 C 168.176 133.683 167.896 133.63 167.603 133.63 C 166.83 133.63 166.11 134.003 165.63 134.63 L 165.51 133.697 L 164.63 133.697 L 164.63 140.123 Z"/>
  <path fill="#aea795" d="M 170.603 133.697 L 169.536 133.697 L 169.536 137.91 C 169.536 139.337 170.483 140.257 171.856 140.257 C 172.563 140.257 173.283 140.003 173.883 139.563 L 174.123 140.123 L 174.87 140.123 L 174.87 133.697 L 173.803 133.697 L 173.803 138.737 C 173.336 139.11 172.75 139.323 172.176 139.323 C 171.176 139.323 170.603 138.737 170.603 137.697 L 170.603 133.697 Z"/>
  <path fill="#aea795" d="M 177.083 140.123 L 178.15 140.123 L 178.15 135.097 C 178.63 134.71 179.203 134.497 179.816 134.497 C 180.843 134.497 181.403 135.083 181.403 136.123 L 181.403 140.123 L 182.47 140.123 L 182.47 135.91 C 182.47 135.643 182.443 135.403 182.376 135.177 C 182.87 134.737 183.483 134.497 184.136 134.497 C 185.163 134.497 185.723 135.083 185.723 136.123 L 185.723 140.123 L 186.79 140.123 L 186.79 135.91 C 186.79 134.483 185.856 133.563 184.43 133.563 C 183.576 133.563 182.736 133.91 182.083 134.523 C 181.683 133.91 181.003 133.563 180.123 133.563 C 179.39 133.563 178.67 133.817 178.07 134.257 L 177.83 133.697 L 177.083 133.697 L 177.083 140.123 Z"/>
  <path fill="#aea795" d="M 188.616 142.443 L 189.456 142.443 C 189.936 141.243 190.216 139.857 190.216 138.697 L 189.11 138.697 C 189.11 139.897 188.923 141.297 188.616 142.443 Z"/>
  <path fill="#aea795" d="M 200.554 140.123 L 205.807 140.123 L 205.807 139.137 L 201.661 139.137 L 201.661 130.87 L 200.554 130.87 L 200.554 140.123 Z"/>
  <path fill="#aea795" d="M 208.034 132.19 C 208.514 132.19 208.794 131.91 208.794 131.43 C 208.794 130.95 208.514 130.67 208.034 130.67 C 207.554 130.67 207.274 130.95 207.274 131.43 C 207.274 131.91 207.554 132.19 208.034 132.19 Z M 207.487 140.123 L 208.554 140.123 L 208.554 133.697 L 207.487 133.697 L 207.487 140.123 Z"/>
  <path fill="#aea795" d="M 210.82 137.19 L 214.687 137.19 L 214.687 136.297 L 210.82 136.297 L 210.82 137.19 Z"/>
  <path fill="#aea795" d="M 44.746 160.657 L 45.493 160.657 L 45.706 160.163 C 46.159 160.577 46.759 160.79 47.479 160.79 C 49.319 160.79 50.546 159.417 50.546 157.363 C 50.546 155.403 49.373 154.097 47.613 154.097 C 46.893 154.097 46.279 154.31 45.813 154.723 L 45.813 150.803 L 44.746 150.803 L 44.746 160.657 Z M 47.359 155.03 C 48.639 155.03 49.479 156.043 49.479 157.523 C 49.479 158.923 48.719 159.857 47.479 159.857 C 46.773 159.857 46.199 159.563 45.813 159.043 L 45.813 155.75 C 46.173 155.283 46.719 155.03 47.359 155.03 L 47.359 155.03 Z"/>
  <path fill="#aea795" d="M 52.333 160.657 L 53.399 160.657 L 53.399 156.07 C 53.813 155.51 54.466 155.177 55.186 155.177 C 55.439 155.177 55.679 155.217 55.893 155.297 L 56.159 154.31 C 55.879 154.217 55.599 154.163 55.306 154.163 C 54.533 154.163 53.813 154.537 53.333 155.163 L 53.213 154.23 L 52.333 154.23 L 52.333 160.657 Z"/>
  <path fill="#aea795" d="M 57.96 152.723 C 58.44 152.723 58.72 152.443 58.72 151.963 C 58.72 151.483 58.44 151.203 57.96 151.203 C 57.48 151.203 57.2 151.483 57.2 151.963 C 57.2 152.443 57.48 152.723 57.96 152.723 Z M 57.413 160.657 L 58.48 160.657 L 58.48 154.23 L 57.413 154.23 L 57.413 160.657 Z"/>
  <path fill="#aea795" d="M 62.693 160.79 C 64.28 160.79 65.253 160.043 65.253 158.857 C 65.253 156.497 61.413 157.377 61.413 155.923 C 61.413 155.363 62.013 155.003 62.973 155.003 C 63.52 155.003 64.16 155.123 64.706 155.31 L 64.96 154.443 C 64.413 154.217 63.76 154.097 63.08 154.097 C 61.413 154.097 60.346 154.83 60.346 156.043 C 60.346 158.35 64.173 157.39 64.173 158.963 C 64.173 159.55 63.653 159.883 62.773 159.883 C 62.093 159.883 61.186 159.697 60.506 159.403 L 60.253 160.27 C 60.986 160.603 61.88 160.79 62.693 160.79 L 62.693 160.79 Z"/>
  <path fill="#aea795" d="M 67.533 152.723 C 68.013 152.723 68.293 152.443 68.293 151.963 C 68.293 151.483 68.013 151.203 67.533 151.203 C 67.053 151.203 66.773 151.483 66.773 151.963 C 66.773 152.443 67.053 152.723 67.533 152.723 Z M 66.986 160.657 L 68.053 160.657 L 68.053 154.23 L 66.986 154.23 L 66.986 160.657 Z"/>
  <path fill="#aea795" d="M 72.893 160.79 C 74.786 160.79 76.066 159.417 76.066 157.363 C 76.066 155.377 74.879 154.097 73.053 154.097 C 71.159 154.097 69.893 155.457 69.893 157.51 C 69.893 159.497 71.066 160.79 72.893 160.79 Z M 73.039 159.857 C 71.799 159.857 70.959 158.857 70.959 157.377 C 70.959 155.95 71.719 155.03 72.906 155.03 C 74.146 155.03 74.999 156.043 74.999 157.51 C 74.999 158.923 74.226 159.857 73.039 159.857 L 73.039 159.857 Z"/>
  <path fill="#aea795" d="M 77.853 160.657 L 78.919 160.657 L 78.919 156.07 C 79.333 155.51 79.986 155.177 80.706 155.177 C 80.959 155.177 81.199 155.217 81.413 155.297 L 81.679 154.31 C 81.399 154.217 81.119 154.163 80.826 154.163 C 80.053 154.163 79.333 154.537 78.853 155.163 L 78.733 154.23 L 77.853 154.23 L 77.853 160.657 Z"/>
  <path fill="#aea795" d="M 83.826 154.23 L 82.76 154.23 L 82.76 158.443 C 82.76 159.87 83.706 160.79 85.08 160.79 C 85.786 160.79 86.506 160.537 87.106 160.097 L 87.346 160.657 L 88.093 160.657 L 88.093 154.23 L 87.026 154.23 L 87.026 159.27 C 86.56 159.643 85.973 159.857 85.4 159.857 C 84.4 159.857 83.826 159.27 83.826 158.23 L 83.826 154.23 Z"/>
  <path fill="#aea795" d="M 90.306 160.657 L 91.373 160.657 L 91.373 155.63 C 91.853 155.243 92.426 155.03 93.04 155.03 C 94.066 155.03 94.626 155.617 94.626 156.657 L 94.626 160.657 L 95.693 160.657 L 95.693 156.443 C 95.693 156.177 95.666 155.937 95.6 155.71 C 96.093 155.27 96.706 155.03 97.36 155.03 C 98.386 155.03 98.946 155.617 98.946 156.657 L 98.946 160.657 L 100.013 160.657 L 100.013 156.443 C 100.013 155.017 99.08 154.097 97.653 154.097 C 96.8 154.097 95.96 154.443 95.306 155.057 C 94.906 154.443 94.226 154.097 93.346 154.097 C 92.613 154.097 91.893 154.35 91.293 154.79 L 91.053 154.23 L 90.306 154.23 L 90.306 160.657 Z"/>
  <path fill="#aea795" d="M 101.839 162.977 L 102.679 162.977 C 103.159 161.777 103.439 160.39 103.439 159.23 L 102.333 159.23 C 102.333 160.43 102.146 161.83 101.839 162.977 L 101.839 162.977 Z"/>
  <path fill="#aea795" d="M 116.443 160.657 L 117.55 160.657 L 117.55 157.43 L 119.123 157.43 C 121.19 157.43 122.577 156.203 122.577 154.35 C 122.577 152.577 121.27 151.403 119.323 151.403 L 116.443 151.403 L 116.443 160.657 Z M 119.19 152.363 C 120.537 152.363 121.443 153.243 121.443 154.55 C 121.443 155.803 120.697 156.47 119.323 156.47 L 117.55 156.47 L 117.55 152.363 L 119.19 152.363 Z"/>
  <path fill="#aea795" d="M 125.003 152.723 C 125.483 152.723 125.763 152.443 125.763 151.963 C 125.763 151.483 125.483 151.203 125.003 151.203 C 124.523 151.203 124.243 151.483 124.243 151.963 C 124.243 152.443 124.523 152.723 125.003 152.723 Z M 124.457 160.657 L 125.523 160.657 L 125.523 154.23 L 124.457 154.23 L 124.457 160.657 Z"/>
  <path fill="#aea795" d="M 130.297 160.79 C 131.07 160.79 131.87 160.603 132.403 160.283 L 132.163 159.51 C 131.63 159.763 131.043 159.91 130.55 159.91 C 129.217 159.91 128.457 158.977 128.457 157.417 C 128.457 155.87 129.203 155.03 130.537 155.03 C 131.043 155.03 131.617 155.15 132.15 155.39 L 132.403 154.523 C 131.817 154.243 131.19 154.097 130.55 154.097 C 128.643 154.097 127.363 155.51 127.363 157.63 C 127.363 159.617 128.457 160.79 130.297 160.79 L 130.297 160.79 Z"/>
  <path fill="#aea795" d="M 136.577 160.79 C 138.47 160.79 139.75 159.417 139.75 157.363 C 139.75 155.377 138.564 154.097 136.737 154.097 C 134.844 154.097 133.577 155.457 133.577 157.51 C 133.577 159.497 134.75 160.79 136.577 160.79 Z M 136.724 159.857 C 135.484 159.857 134.644 158.857 134.644 157.377 C 134.644 155.95 135.404 155.03 136.59 155.03 C 137.83 155.03 138.684 156.043 138.684 157.51 C 138.684 158.923 137.91 159.857 136.724 159.857 L 136.724 159.857 Z"/>
  <path fill="#aea795" d="M 141.537 160.657 L 142.604 160.657 L 142.604 155.63 C 143.097 155.243 143.684 155.03 144.31 155.03 C 145.35 155.03 145.924 155.617 145.924 156.657 L 145.924 160.657 L 146.99 160.657 L 146.99 156.443 C 146.99 155.017 146.044 154.097 144.604 154.097 C 143.87 154.097 143.137 154.35 142.524 154.803 L 142.284 154.23 L 141.537 154.23 L 141.537 160.657 Z"/>
  <path fill="#aea795" d="M 149.697 152.723 C 150.177 152.723 150.457 152.443 150.457 151.963 C 150.457 151.483 150.177 151.203 149.697 151.203 C 149.217 151.203 148.937 151.483 148.937 151.963 C 148.937 152.443 149.217 152.723 149.697 152.723 Z M 149.15 160.657 L 150.217 160.657 L 150.217 154.23 L 149.15 154.23 L 149.15 160.657 Z"/>
  <path fill="#aea795" d="M 154.177 160.79 C 154.99 160.79 155.683 160.523 156.203 160.057 L 156.457 160.657 L 157.203 160.657 L 157.203 156.483 C 157.203 154.95 156.297 154.097 154.617 154.097 C 153.777 154.097 152.87 154.323 152.177 154.71 L 152.443 155.497 C 153.11 155.203 153.777 155.057 154.403 155.057 C 155.55 155.057 156.137 155.537 156.137 156.483 L 156.137 156.91 C 153.257 156.937 152.003 157.537 152.003 158.91 C 152.003 160.057 152.857 160.79 154.177 160.79 Z M 153.07 158.79 C 153.07 157.99 153.977 157.657 156.137 157.643 L 156.137 159.217 C 155.737 159.617 155.15 159.857 154.483 159.857 C 153.63 159.857 153.07 159.43 153.07 158.79 L 153.07 158.79 Z"/>
  <path fill="#aea795" d="M 162.19 160.79 C 162.923 160.79 163.723 160.617 164.297 160.31 L 164.057 159.537 C 163.563 159.777 162.937 159.923 162.377 159.923 C 161.017 159.923 160.163 159.11 160.003 157.737 L 164.483 157.737 C 164.51 157.537 164.537 157.07 164.537 156.817 C 164.537 155.203 163.47 154.097 161.883 154.097 C 160.097 154.097 158.883 155.497 158.883 157.47 C 158.883 159.523 160.15 160.79 162.19 160.79 L 162.19 160.79 Z M 161.803 155.003 C 162.897 155.003 163.537 155.71 163.537 156.937 L 159.99 156.937 C 160.083 155.683 160.723 155.003 161.803 155.003 Z"/>
  <path fill="#aea795" d="M 166.057 162.977 L 166.897 162.977 C 167.377 161.777 167.657 160.39 167.657 159.23 L 166.55 159.23 C 166.55 160.43 166.363 161.83 166.057 162.977 Z"/>
  <path fill="#aea795" d="M 183.007 160.79 C 185.074 160.79 186.421 159.737 186.421 158.11 C 186.421 154.83 181.234 156.137 181.234 153.75 C 181.234 152.777 182.021 152.243 183.434 152.243 C 184.221 152.243 185.074 152.403 185.741 152.683 L 186.074 151.817 C 185.287 151.47 184.394 151.283 183.514 151.283 C 181.447 151.283 180.101 152.31 180.101 153.923 C 180.101 157.097 185.274 155.91 185.274 158.27 C 185.274 159.203 184.474 159.803 183.074 159.803 C 182.234 159.803 181.194 159.577 180.287 159.203 L 179.954 160.07 C 180.981 160.537 182.021 160.79 183.007 160.79 L 183.007 160.79 Z"/>
  <path fill="#aea795" d="M 189.887 160.79 C 190.701 160.79 191.394 160.523 191.914 160.057 L 192.167 160.657 L 192.914 160.657 L 192.914 156.483 C 192.914 154.95 192.007 154.097 190.327 154.097 C 189.487 154.097 188.581 154.323 187.887 154.71 L 188.154 155.497 C 188.821 155.203 189.487 155.057 190.114 155.057 C 191.261 155.057 191.847 155.537 191.847 156.483 L 191.847 156.91 C 188.967 156.937 187.714 157.537 187.714 158.91 C 187.714 160.057 188.567 160.79 189.887 160.79 Z M 188.781 158.79 C 188.781 157.99 189.687 157.657 191.847 157.643 L 191.847 159.217 C 191.447 159.617 190.861 159.857 190.194 159.857 C 189.341 159.857 188.781 159.43 188.781 158.79 L 188.781 158.79 Z"/>
  <path fill="#aea795" d="M 197.474 160.79 C 198.22 160.79 198.86 160.537 199.34 160.083 L 199.34 160.63 C 199.34 162.057 198.7 162.763 197.42 162.763 C 196.847 162.763 196.154 162.617 195.554 162.363 L 195.327 163.177 C 195.994 163.51 196.674 163.683 197.34 163.683 C 199.194 163.683 200.407 162.403 200.407 160.47 L 200.407 154.23 L 199.66 154.23 L 199.46 154.777 C 198.994 154.337 198.354 154.097 197.607 154.097 C 195.82 154.097 194.607 155.443 194.607 157.483 C 194.607 159.47 195.754 160.79 197.474 160.79 Z M 195.674 157.377 C 195.674 155.963 196.42 155.03 197.66 155.03 C 198.38 155.03 198.954 155.323 199.34 155.83 L 199.34 159.123 C 198.98 159.59 198.434 159.857 197.78 159.857 C 196.5 159.857 195.674 158.857 195.674 157.377 Z"/>
  <path fill="#aea795" d="M 203.221 152.723 C 203.701 152.723 203.981 152.443 203.981 151.963 C 203.981 151.483 203.701 151.203 203.221 151.203 C 202.741 151.203 202.461 151.483 202.461 151.963 C 202.461 152.443 202.741 152.723 203.221 152.723 Z M 202.674 160.657 L 203.741 160.657 L 203.741 154.23 L 202.674 154.23 L 202.674 160.657 Z"/>
  <path fill="#aea795" d="M 208.114 160.723 C 208.554 160.723 208.994 160.617 209.301 160.483 L 209.061 159.71 C 208.861 159.803 208.567 159.857 208.341 159.857 C 207.674 159.857 207.234 159.43 207.234 158.79 L 207.234 155.123 L 208.994 155.123 L 208.994 154.23 L 207.234 154.23 L 207.234 152.35 L 206.167 152.35 L 206.167 154.23 L 205.301 154.23 L 205.301 155.123 L 206.167 155.123 L 206.167 158.937 C 206.167 160.003 206.941 160.723 208.114 160.723 L 208.114 160.723 Z"/>
  <path fill="#aea795" d="M 210.82 157.723 L 214.687 157.723 L 214.687 156.83 L 210.82 156.83 L 210.82 157.723 Z"/>
  <path fill="#aea795" d="M 46.853 181.257 C 47.293 181.257 47.733 181.15 48.039 181.017 L 47.799 180.243 C 47.599 180.337 47.306 180.39 47.079 180.39 C 46.413 180.39 45.973 179.963 45.973 179.323 L 45.973 175.657 L 47.733 175.657 L 47.733 174.763 L 45.973 174.763 L 45.973 172.883 L 44.906 172.883 L 44.906 174.763 L 44.039 174.763 L 44.039 175.657 L 44.906 175.657 L 44.906 179.47 C 44.906 180.537 45.679 181.257 46.853 181.257 L 46.853 181.257 Z"/>
  <path fill="#aea795" d="M 51.253 181.323 C 52.066 181.323 52.759 181.057 53.279 180.59 L 53.533 181.19 L 54.279 181.19 L 54.279 177.017 C 54.279 175.483 53.373 174.63 51.693 174.63 C 50.853 174.63 49.946 174.857 49.253 175.243 L 49.519 176.03 C 50.186 175.737 50.853 175.59 51.479 175.59 C 52.626 175.59 53.213 176.07 53.213 177.017 L 53.213 177.443 C 50.333 177.47 49.079 178.07 49.079 179.443 C 49.079 180.59 49.933 181.323 51.253 181.323 L 51.253 181.323 Z M 50.146 179.323 C 50.146 178.523 51.053 178.19 53.213 178.177 L 53.213 179.75 C 52.813 180.15 52.226 180.39 51.559 180.39 C 50.706 180.39 50.146 179.963 50.146 179.323 Z"/>
  <path fill="#aea795" d="M 56.386 181.19 L 57.453 181.19 L 57.453 176.603 C 57.866 176.043 58.519 175.71 59.239 175.71 C 59.493 175.71 59.733 175.75 59.946 175.83 L 60.213 174.843 C 59.933 174.75 59.653 174.697 59.359 174.697 C 58.586 174.697 57.866 175.07 57.386 175.697 L 57.266 174.763 L 56.386 174.763 L 56.386 181.19 Z"/>
  <path fill="#aea795" d="M 63.986 181.323 C 65.879 181.323 67.159 179.95 67.159 177.897 C 67.159 175.91 65.973 174.63 64.146 174.63 C 62.253 174.63 60.986 175.99 60.986 178.043 C 60.986 180.03 62.159 181.323 63.986 181.323 Z M 64.133 180.39 C 62.893 180.39 62.053 179.39 62.053 177.91 C 62.053 176.483 62.813 175.563 63.999 175.563 C 65.239 175.563 66.093 176.577 66.093 178.043 C 66.093 179.457 65.319 180.39 64.133 180.39 Z"/>
  <path fill="#aea795" d="M 68.946 181.19 L 70.013 181.19 L 70.013 176.163 C 70.506 175.777 71.093 175.563 71.719 175.563 C 72.759 175.563 73.333 176.15 73.333 177.19 L 73.333 181.19 L 74.399 181.19 L 74.399 176.977 C 74.399 175.55 73.453 174.63 72.013 174.63 C 71.279 174.63 70.546 174.883 69.933 175.337 L 69.693 174.763 L 68.946 174.763 L 68.946 181.19 Z"/>
  <path fill="#aea795" d="M 77.106 173.257 C 77.586 173.257 77.866 172.977 77.866 172.497 C 77.866 172.017 77.586 171.737 77.106 171.737 C 76.626 171.737 76.346 172.017 76.346 172.497 C 76.346 172.977 76.626 173.257 77.106 173.257 Z M 76.559 181.19 L 77.626 181.19 L 77.626 174.763 L 76.559 174.763 L 76.559 181.19 Z"/>
  <path fill="#aea795" d="M 81.586 181.323 C 82.399 181.323 83.093 181.057 83.613 180.59 L 83.866 181.19 L 84.613 181.19 L 84.613 177.017 C 84.613 175.483 83.706 174.63 82.026 174.63 C 81.186 174.63 80.279 174.857 79.586 175.243 L 79.853 176.03 C 80.519 175.737 81.186 175.59 81.813 175.59 C 82.959 175.59 83.546 176.07 83.546 177.017 L 83.546 177.443 C 80.666 177.47 79.413 178.07 79.413 179.443 C 79.413 180.59 80.266 181.323 81.586 181.323 L 81.586 181.323 Z M 80.479 179.323 C 80.479 178.523 81.386 178.19 83.546 178.177 L 83.546 179.75 C 83.146 180.15 82.559 180.39 81.893 180.39 C 81.039 180.39 80.479 179.963 80.479 179.323 Z"/>
  <path fill="#aea795" d="M 89.599 181.323 C 90.332 181.323 91.132 181.15 91.706 180.843 L 91.466 180.07 C 90.972 180.31 90.346 180.457 89.786 180.457 C 88.426 180.457 87.572 179.643 87.412 178.27 L 91.892 178.27 C 91.919 178.07 91.946 177.603 91.946 177.35 C 91.946 175.737 90.879 174.63 89.292 174.63 C 87.506 174.63 86.292 176.03 86.292 178.003 C 86.292 180.057 87.559 181.323 89.599 181.323 L 89.599 181.323 Z M 89.212 175.537 C 90.306 175.537 90.946 176.243 90.946 177.47 L 87.399 177.47 C 87.492 176.217 88.132 175.537 89.212 175.537 Z"/>
  <path fill="#aea795" d="M 93.466 183.51 L 94.306 183.51 C 94.786 182.31 95.066 180.923 95.066 179.763 L 93.959 179.763 C 93.959 180.963 93.773 182.363 93.466 183.51 Z"/>
  <path fill="#aea795" d="M 106.35 181.323 C 108.416 181.323 109.763 180.27 109.763 178.643 C 109.763 175.363 104.576 176.67 104.576 174.283 C 104.576 173.31 105.363 172.777 106.776 172.777 C 107.563 172.777 108.416 172.937 109.083 173.217 L 109.416 172.35 C 108.63 172.003 107.736 171.817 106.856 171.817 C 104.79 171.817 103.443 172.843 103.443 174.457 C 103.443 177.63 108.616 176.443 108.616 178.803 C 108.616 179.737 107.816 180.337 106.416 180.337 C 105.576 180.337 104.536 180.11 103.63 179.737 L 103.296 180.603 C 104.323 181.07 105.363 181.323 106.35 181.323 L 106.35 181.323 Z"/>
  <path fill="#aea795" d="M 114.043 181.323 C 114.816 181.323 115.616 181.137 116.15 180.817 L 115.91 180.043 C 115.376 180.297 114.79 180.443 114.296 180.443 C 112.963 180.443 112.203 179.51 112.203 177.95 C 112.203 176.403 112.95 175.563 114.283 175.563 C 114.79 175.563 115.363 175.683 115.896 175.923 L 116.15 175.057 C 115.563 174.777 114.936 174.63 114.296 174.63 C 112.39 174.63 111.11 176.043 111.11 178.163 C 111.11 180.15 112.203 181.323 114.043 181.323 L 114.043 181.323 Z"/>
  <path fill="#aea795" d="M 120.323 181.323 C 122.216 181.323 123.496 179.95 123.496 177.897 C 123.496 175.91 122.31 174.63 120.483 174.63 C 118.59 174.63 117.323 175.99 117.323 178.043 C 117.323 180.03 118.496 181.323 120.323 181.323 Z M 120.47 180.39 C 119.23 180.39 118.39 179.39 118.39 177.91 C 118.39 176.483 119.15 175.563 120.336 175.563 C 121.576 175.563 122.43 176.577 122.43 178.043 C 122.43 179.457 121.656 180.39 120.47 180.39 Z"/>
  <path fill="#aea795" d="M 125.283 181.19 L 126.35 181.19 L 126.35 176.603 C 126.763 176.043 127.416 175.71 128.136 175.71 C 128.39 175.71 128.63 175.75 128.843 175.83 L 129.11 174.843 C 128.83 174.75 128.55 174.697 128.256 174.697 C 127.483 174.697 126.763 175.07 126.283 175.697 L 126.163 174.763 L 125.283 174.763 L 125.283 181.19 Z"/>
  <path fill="#aea795" d="M 130.31 184.083 L 131.377 184.083 L 131.377 180.643 C 131.817 181.083 132.43 181.323 133.137 181.323 C 134.923 181.323 136.123 179.937 136.123 177.857 C 136.123 175.923 135.017 174.63 133.363 174.63 C 132.603 174.63 131.87 174.91 131.323 175.403 L 131.057 174.763 L 130.31 174.763 L 130.31 184.083 Z M 133.083 175.563 C 134.283 175.563 135.057 176.523 135.057 177.99 C 135.057 179.43 134.35 180.39 133.19 180.39 C 132.403 180.39 131.723 179.963 131.377 179.283 L 131.377 176.283 C 131.83 175.83 132.457 175.563 133.083 175.563 Z"/>
  <path fill="#aea795" d="M 138.523 173.257 C 139.003 173.257 139.283 172.977 139.283 172.497 C 139.283 172.017 139.003 171.737 138.523 171.737 C 138.043 171.737 137.763 172.017 137.763 172.497 C 137.763 172.977 138.043 173.257 138.523 173.257 Z M 137.977 181.19 L 139.043 181.19 L 139.043 174.763 L 137.977 174.763 L 137.977 181.19 Z"/>
  <path fill="#aea795" d="M 143.003 181.323 C 143.817 181.323 144.51 181.057 145.03 180.59 L 145.283 181.19 L 146.03 181.19 L 146.03 177.017 C 146.03 175.483 145.123 174.63 143.443 174.63 C 142.603 174.63 141.697 174.857 141.003 175.243 L 141.27 176.03 C 141.937 175.737 142.603 175.59 143.23 175.59 C 144.377 175.59 144.963 176.07 144.963 177.017 L 144.963 177.443 C 142.083 177.47 140.83 178.07 140.83 179.443 C 140.83 180.59 141.683 181.323 143.003 181.323 L 143.003 181.323 Z M 141.897 179.323 C 141.897 178.523 142.803 178.19 144.963 178.177 L 144.963 179.75 C 144.563 180.15 143.977 180.39 143.31 180.39 C 142.457 180.39 141.897 179.963 141.897 179.323 L 141.897 179.323 Z"/>
  <path fill="#aea795" d="M 151.017 181.323 C 151.75 181.323 152.55 181.15 153.123 180.843 L 152.883 180.07 C 152.39 180.31 151.763 180.457 151.203 180.457 C 149.843 180.457 148.99 179.643 148.83 178.27 L 153.31 178.27 C 153.337 178.07 153.363 177.603 153.363 177.35 C 153.363 175.737 152.297 174.63 150.71 174.63 C 148.923 174.63 147.71 176.03 147.71 178.003 C 147.71 180.057 148.977 181.323 151.017 181.323 L 151.017 181.323 Z M 150.63 175.537 C 151.723 175.537 152.363 176.243 152.363 177.47 L 148.817 177.47 C 148.91 176.217 149.55 175.537 150.63 175.537 Z"/>
  <path fill="#aea795" d="M 154.883 183.51 L 155.723 183.51 C 156.203 182.31 156.483 180.923 156.483 179.763 L 155.377 179.763 C 155.377 180.963 155.19 182.363 154.883 183.51 Z"/>
  <path fill="#aea795" d="M 167.434 181.19 L 168.54 181.19 L 168.54 172.897 L 171.634 172.897 L 171.634 171.937 L 164.354 171.937 L 164.354 172.897 L 167.434 172.897 L 167.434 181.19 Z"/>
  <path fill="#aea795" d="M 174.754 181.323 C 175.567 181.323 176.26 181.057 176.78 180.59 L 177.034 181.19 L 177.78 181.19 L 177.78 177.017 C 177.78 175.483 176.874 174.63 175.194 174.63 C 174.354 174.63 173.447 174.857 172.754 175.243 L 173.02 176.03 C 173.687 175.737 174.354 175.59 174.98 175.59 C 176.127 175.59 176.714 176.07 176.714 177.017 L 176.714 177.443 C 173.834 177.47 172.58 178.07 172.58 179.443 C 172.58 180.59 173.434 181.323 174.754 181.323 L 174.754 181.323 Z M 173.647 179.323 C 173.647 178.523 174.554 178.19 176.714 178.177 L 176.714 179.75 C 176.314 180.15 175.727 180.39 175.06 180.39 C 174.207 180.39 173.647 179.963 173.647 179.323 Z"/>
  <path fill="#aea795" d="M 180.834 174.763 L 179.767 174.763 L 179.767 178.977 C 179.767 180.403 180.714 181.323 182.087 181.323 C 182.794 181.323 183.514 181.07 184.114 180.63 L 184.354 181.19 L 185.1 181.19 L 185.1 174.763 L 184.034 174.763 L 184.034 179.803 C 183.567 180.177 182.98 180.39 182.407 180.39 C 181.407 180.39 180.834 179.803 180.834 178.763 L 180.834 174.763 Z"/>
  <path fill="#aea795" d="M 187.314 181.19 L 188.38 181.19 L 188.38 176.603 C 188.794 176.043 189.447 175.71 190.167 175.71 C 190.42 175.71 190.66 175.75 190.874 175.83 L 191.14 174.843 C 190.86 174.75 190.58 174.697 190.287 174.697 C 189.514 174.697 188.794 175.07 188.314 175.697 L 188.194 174.763 L 187.314 174.763 L 187.314 181.19 Z"/>
  <path fill="#aea795" d="M 194.914 181.323 C 196.807 181.323 198.087 179.95 198.087 177.897 C 198.087 175.91 196.901 174.63 195.074 174.63 C 193.181 174.63 191.914 175.99 191.914 178.043 C 191.914 180.03 193.087 181.323 194.914 181.323 Z M 195.061 180.39 C 193.821 180.39 192.981 179.39 192.981 177.91 C 192.981 176.483 193.741 175.563 194.927 175.563 C 196.167 175.563 197.021 176.577 197.021 178.043 C 197.021 179.457 196.247 180.39 195.061 180.39 Z"/>
  <path fill="#aea795" d="M 199.874 181.19 L 200.941 181.19 L 200.941 176.163 C 201.434 175.777 202.021 175.563 202.647 175.563 C 203.687 175.563 204.261 176.15 204.261 177.19 L 204.261 181.19 L 205.327 181.19 L 205.327 176.977 C 205.327 175.55 204.381 174.63 202.941 174.63 C 202.207 174.63 201.474 174.883 200.861 175.337 L 200.621 174.763 L 199.874 174.763 L 199.874 181.19 Z"/>
  <path fill="#aea795" d="M 208.034 173.257 C 208.514 173.257 208.794 172.977 208.794 172.497 C 208.794 172.017 208.514 171.737 208.034 171.737 C 207.554 171.737 207.274 172.017 207.274 172.497 C 207.274 172.977 207.554 173.257 208.034 173.257 Z M 207.487 181.19 L 208.554 181.19 L 208.554 174.763 L 207.487 174.763 L 207.487 181.19 Z"/>
  <path fill="#aea795" d="M 210.82 178.257 L 214.687 178.257 L 214.687 177.363 L 210.82 177.363 L 210.82 178.257 Z"/>
  <path fill="#aea795" d="M 46.439 201.857 C 47.253 201.857 47.946 201.59 48.466 201.123 L 48.719 201.723 L 49.466 201.723 L 49.466 197.55 C 49.466 196.017 48.559 195.163 46.879 195.163 C 46.039 195.163 45.133 195.39 44.439 195.777 L 44.706 196.563 C 45.373 196.27 46.039 196.123 46.666 196.123 C 47.813 196.123 48.399 196.603 48.399 197.55 L 48.399 197.977 C 45.519 198.003 44.266 198.603 44.266 199.977 C 44.266 201.123 45.119 201.857 46.439 201.857 Z M 45.333 199.857 C 45.333 199.057 46.239 198.723 48.399 198.71 L 48.399 200.283 C 47.999 200.683 47.413 200.923 46.746 200.923 C 45.893 200.923 45.333 200.497 45.333 199.857 L 45.333 199.857 Z"/>
  <path fill="#aea795" d="M 54.453 201.857 C 55.186 201.857 55.986 201.683 56.559 201.377 L 56.319 200.603 C 55.826 200.843 55.199 200.99 54.639 200.99 C 53.279 200.99 52.426 200.177 52.266 198.803 L 56.746 198.803 C 56.773 198.603 56.799 198.137 56.799 197.883 C 56.799 196.27 55.733 195.163 54.146 195.163 C 52.359 195.163 51.146 196.563 51.146 198.537 C 51.146 200.59 52.413 201.857 54.453 201.857 L 54.453 201.857 Z M 54.066 196.07 C 55.159 196.07 55.799 196.777 55.799 198.003 L 52.253 198.003 C 52.346 196.75 52.986 196.07 54.066 196.07 Z"/>
  <path fill="#aea795" d="M 64.413 201.857 C 65.146 201.857 65.946 201.683 66.519 201.377 L 66.279 200.603 C 65.786 200.843 65.159 200.99 64.599 200.99 C 63.239 200.99 62.386 200.177 62.226 198.803 L 66.706 198.803 C 66.733 198.603 66.759 198.137 66.759 197.883 C 66.759 196.27 65.693 195.163 64.106 195.163 C 62.319 195.163 61.106 196.563 61.106 198.537 C 61.106 200.59 62.373 201.857 64.413 201.857 L 64.413 201.857 Z M 64.026 196.07 C 65.119 196.07 65.759 196.777 65.759 198.003 L 62.213 198.003 C 62.306 196.75 62.946 196.07 64.026 196.07 Z"/>
  <path fill="#aea795" d="M 70.666 201.79 C 71.106 201.79 71.546 201.683 71.853 201.55 L 71.613 200.777 C 71.413 200.87 71.12 200.923 70.893 200.923 C 70.226 200.923 69.786 200.497 69.786 199.857 L 69.786 196.19 L 71.546 196.19 L 71.546 195.297 L 69.786 195.297 L 69.786 193.417 L 68.72 193.417 L 68.72 195.297 L 67.853 195.297 L 67.853 196.19 L 68.72 196.19 L 68.72 200.003 C 68.72 201.07 69.493 201.79 70.666 201.79 L 70.666 201.79 Z"/>
  <path fill="#aea795" d="M 78.933 201.723 L 80.013 201.723 L 83.386 192.47 L 82.266 192.47 L 79.519 200.363 L 76.826 192.47 L 75.559 192.47 L 78.933 201.723 Z"/>
  <path fill="#aea795" d="M 85.453 193.79 C 85.933 193.79 86.213 193.51 86.213 193.03 C 86.213 192.55 85.933 192.27 85.453 192.27 C 84.973 192.27 84.693 192.55 84.693 193.03 C 84.693 193.51 84.973 193.79 85.453 193.79 Z M 84.906 201.723 L 85.973 201.723 L 85.973 195.297 L 84.906 195.297 L 84.906 201.723 Z"/>
  <path fill="#aea795" d="M 88.239 201.723 L 89.306 201.723 L 89.306 197.137 C 89.719 196.577 90.373 196.243 91.093 196.243 C 91.346 196.243 91.586 196.283 91.799 196.363 L 92.066 195.377 C 91.786 195.283 91.506 195.23 91.213 195.23 C 90.439 195.23 89.719 195.603 89.239 196.23 L 89.119 195.297 L 88.239 195.297 L 88.239 201.723 Z"/>
  <path fill="#aea795" d="M 95.719 201.857 C 96.466 201.857 97.106 201.603 97.586 201.15 L 97.586 201.697 C 97.586 203.123 96.946 203.83 95.666 203.83 C 95.093 203.83 94.399 203.683 93.799 203.43 L 93.573 204.243 C 94.239 204.577 94.919 204.75 95.586 204.75 C 97.439 204.75 98.653 203.47 98.653 201.537 L 98.653 195.297 L 97.906 195.297 L 97.706 195.843 C 97.239 195.403 96.599 195.163 95.853 195.163 C 94.066 195.163 92.853 196.51 92.853 198.55 C 92.853 200.537 93.999 201.857 95.719 201.857 L 95.719 201.857 Z M 93.919 198.443 C 93.919 197.03 94.666 196.097 95.906 196.097 C 96.626 196.097 97.199 196.39 97.586 196.897 L 97.586 200.19 C 97.226 200.657 96.679 200.923 96.026 200.923 C 94.746 200.923 93.919 199.923 93.919 198.443 L 93.919 198.443 Z"/>
  <path fill="#aea795" d="M 103.44 201.857 C 105.333 201.857 106.613 200.483 106.613 198.43 C 106.613 196.443 105.426 195.163 103.6 195.163 C 101.706 195.163 100.44 196.523 100.44 198.577 C 100.44 200.563 101.613 201.857 103.44 201.857 Z M 103.586 200.923 C 102.346 200.923 101.506 199.923 101.506 198.443 C 101.506 197.017 102.266 196.097 103.453 196.097 C 104.693 196.097 105.546 197.11 105.546 198.577 C 105.546 199.99 104.773 200.923 103.586 200.923 Z"/>
  <path fill="#aea795" d="M 108.4 201.723 L 109.466 201.723 L 109.466 196.697 C 109.96 196.31 110.546 196.097 111.173 196.097 C 112.213 196.097 112.786 196.683 112.786 197.723 L 112.786 201.723 L 113.853 201.723 L 113.853 197.51 C 113.853 196.083 112.906 195.163 111.466 195.163 C 110.733 195.163 110 195.417 109.386 195.87 L 109.146 195.297 L 108.4 195.297 L 108.4 201.723 Z"/>
  <path fill="#aea795" d="M 116.559 193.79 C 117.039 193.79 117.319 193.51 117.319 193.03 C 117.319 192.55 117.039 192.27 116.559 192.27 C 116.079 192.27 115.799 192.55 115.799 193.03 C 115.799 193.51 116.079 193.79 116.559 193.79 Z M 116.013 201.723 L 117.079 201.723 L 117.079 195.297 L 116.013 195.297 L 116.013 201.723 Z"/>
  <path fill="#aea795" d="M 121.039 201.857 C 121.853 201.857 122.546 201.59 123.066 201.123 L 123.319 201.723 L 124.066 201.723 L 124.066 197.55 C 124.066 196.017 123.159 195.163 121.479 195.163 C 120.639 195.163 119.733 195.39 119.039 195.777 L 119.306 196.563 C 119.973 196.27 120.639 196.123 121.266 196.123 C 122.413 196.123 122.999 196.603 122.999 197.55 L 122.999 197.977 C 120.119 198.003 118.866 198.603 118.866 199.977 C 118.866 201.123 119.719 201.857 121.039 201.857 L 121.039 201.857 Z M 119.933 199.857 C 119.933 199.057 120.839 198.723 122.999 198.71 L 122.999 200.283 C 122.599 200.683 122.013 200.923 121.346 200.923 C 120.493 200.923 119.933 200.497 119.933 199.857 L 119.933 199.857 Z"/>
  <path fill="#aea795" d="M 129.053 201.857 C 129.786 201.857 130.586 201.683 131.159 201.377 L 130.919 200.603 C 130.426 200.843 129.799 200.99 129.239 200.99 C 127.879 200.99 127.026 200.177 126.866 198.803 L 131.346 198.803 C 131.373 198.603 131.399 198.137 131.399 197.883 C 131.399 196.27 130.333 195.163 128.746 195.163 C 126.959 195.163 125.746 196.563 125.746 198.537 C 125.746 200.59 127.013 201.857 129.053 201.857 L 129.053 201.857 Z M 128.666 196.07 C 129.759 196.07 130.399 196.777 130.399 198.003 L 126.853 198.003 C 126.946 196.75 127.586 196.07 128.666 196.07 Z"/>
  <path fill="#aea795" d="M 133.906 201.857 C 134.413 201.857 134.759 201.497 134.759 201.003 C 134.759 200.51 134.413 200.15 133.906 200.15 C 133.399 200.15 133.053 200.51 133.053 201.003 C 133.053 201.497 133.399 201.857 133.906 201.857 Z"/>
 </g>
</svg>
