<svg xmlns="http://www.w3.org/2000/svg" style="isolation:isolate" width="256" height="256" viewBox="0 0 256 256">
 <g filter="url(#iJdxJkv67kCSQfKMrnMW6God1pjMZFhE)">
  <path fill="#ff8c2a" d="M 165.628006 11.95 C 239.684005 11.95 250.268005 22.476001 250.268005 96.249001 L 250.268005 155.325997 C 250.268005 229.099008 239.684005 239.624993 165.628006 239.624993 L 90.260002 239.624993 C 16.204 239.624993 5.62 229.099008 5.62 155.325997 L 5.62 96.249001 C 5.62 22.476001 16.204 11.95 90.260002 11.95 L 165.628006 11.95 L 165.628006 11.95 Z"/>
  <path fill="#cf4f8c" d="M 127.944 12.285 L 127.944 127.123002 L 250.268005 127.123002 L 250.268005 96.582002 C 250.268005 22.811 239.686004 12.285 165.630005 12.285 L 127.944 12.285 L 127.944 12.285 Z"/>
  <path fill="#1a7fd4" d="M 5.62 126.835 L 127.944 126.835 L 127.944 240.670999 L 90.259002 240.670999 C 16.203001 240.670999 5.62 230.146005 5.62 156.374001 L 5.62 126.835 L 5.62 126.835 Z"/>
  <path fill="#ff8c2a" d="M 250.268005 126.835 L 127.944 126.835 L 127.944 240.670999 L 165.630005 240.670999 C 239.686004 240.670999 250.268005 230.146005 250.268005 156.374001 L 250.268005 126.835 L 250.268005 126.835 Z"/>
 </g>
 <defs>
  <filter id="iJdxJkv67kCSQfKMrnMW6God1pjMZFhE" width="400%" height="400%" x="-200%" y="-200%" color-interpolation-filters="sRGB" filterUnits="objectBoundingBox">
   <feGaussianBlur xmlns="http://www.w3.org/2000/svg" in="SourceGraphic" stdDeviation="4.294"/>
   <feOffset xmlns="http://www.w3.org/2000/svg" dx="0" dy="4" result="pf_100_offsetBlur"/>
   <feFlood xmlns="http://www.w3.org/2000/svg" flood-opacity=".4"/>
   <feComposite xmlns="http://www.w3.org/2000/svg" in2="pf_100_offsetBlur" operator="in" result="pf_100_dropShadow"/>
   <feBlend xmlns="http://www.w3.org/2000/svg" in="SourceGraphic" in2="pf_100_dropShadow" mode="normal"/>
  </filter>
 </defs>
 <defs>
  <filter id="89wHET8KTxMJzp8aWxAw7hvueV6l8OGn" width="400%" height="400%" x="-200%" y="-200%" color-interpolation-filters="sRGB" filterUnits="objectBoundingBox">
   <feGaussianBlur xmlns="http://www.w3.org/2000/svg" in="SourceGraphic" stdDeviation="4.294"/>
   <feOffset xmlns="http://www.w3.org/2000/svg" dx="0" dy="0" result="pf_100_offsetBlur"/>
   <feFlood xmlns="http://www.w3.org/2000/svg" flood-opacity=".4"/>
   <feComposite xmlns="http://www.w3.org/2000/svg" in2="pf_100_offsetBlur" operator="in" result="pf_100_dropShadow"/>
   <feBlend xmlns="http://www.w3.org/2000/svg" in="SourceGraphic" in2="pf_100_dropShadow" mode="normal"/>
  </filter>
 </defs>
 <g filter="url(#89wHET8KTxMJzp8aWxAw7hvueV6l8OGn)">
  <path fill="#404040" d="M 154.130005 47.020001 C 205.589004 47.020001 212.945007 54.335 212.945007 105.596002 L 212.945007 146.648995 C 212.945007 197.909997 205.589004 205.226006 154.130005 205.226006 L 101.758003 205.226006 C 50.299 205.226006 42.944999 197.909997 42.944999 146.648995 L 42.944999 105.596002 C 42.944999 54.335 50.299 47.020001 101.758003 47.020001 L 154.130005 47.020001 L 154.130005 47.020001 Z"/>
 </g>
 <defs>
  <filter id="u3colBXuLgIgbP3kr1O2skuo7PKT743D" width="400%" height="400%" x="-200%" y="-200%" color-interpolation-filters="sRGB" filterUnits="objectBoundingBox">
   <feGaussianBlur xmlns="http://www.w3.org/2000/svg" in="SourceGraphic" stdDeviation="4.294"/>
   <feOffset xmlns="http://www.w3.org/2000/svg" dx="0" dy="4" result="pf_100_offsetBlur"/>
   <feFlood xmlns="http://www.w3.org/2000/svg" flood-opacity=".4"/>
   <feComposite xmlns="http://www.w3.org/2000/svg" in2="pf_100_offsetBlur" operator="in" result="pf_100_dropShadow"/>
   <feBlend xmlns="http://www.w3.org/2000/svg" in="SourceGraphic" in2="pf_100_dropShadow" mode="normal"/>
  </filter>
 </defs>
 <g filter="url(#u3colBXuLgIgbP3kr1O2skuo7PKT743D)">
  <path fill="#ffffff" d="M 142.636001 171.002999 C 144.62326 170.996621 146.53128 171.781732 147.938553 173.184869 C 149.34584 174.588021 150.136535 176.493737 150.136001 178.480996 C 150.133835 180.464776 149.342682 182.366204 147.936996 183.766 C 146.529205 185.16874 144.623367 185.957177 142.636001 185.958993 L 82.686996 185.958993 C 80.700073 185.95501 78.795028 185.166909 77.386001 183.766 C 75.980789 182.365899 75.189712 180.464654 75.186996 178.480996 C 75.187614 176.493981 75.978805 174.58886 77.386001 173.185998 C 78.796043 171.787835 80.701286 171.003243 82.686996 171.002999 L 142.636001 171.002999 L 142.636001 171.002999 Z"/>
 </g>
 <g opacity=".4">
  <linearGradient id="_lgradient_2" x1=".517" x2=".517" y1="0" y2="1" gradientTransform="matrix(244.65,0,0,228.34,5.68,11.95)" gradientUnits="userSpaceOnUse">
   <stop offset="0%" style="stop-color:#ffffff"/>
   <stop offset="12.5%" stop-opacity=".098" style="stop-color:#ffffff"/>
   <stop offset="92.5%" stop-opacity=".098" style="stop-color:#000000"/>
   <stop offset="100%" stop-opacity=".498" style="stop-color:#000000"/>
  </linearGradient>
  <path fill="url(#_lgradient_2)" fill-rule="evenodd" d="M 165.06803 11.951234 C 169.395994 11.941409 173.723944 11.990533 178.051908 12.088781 C 181.927398 12.167379 185.802873 12.31475 189.678362 12.540721 C 193.1309 12.737216 196.583423 13.022134 200.026115 13.395476 C 203.085193 13.729518 206.144271 14.181458 209.173842 14.741469 C 211.888645 15.242533 214.57394 15.881143 217.219897 16.6573 C 219.619947 17.354858 221.970814 18.219439 224.242988 19.241215 C 226.357793 20.184394 228.384061 21.304417 230.302129 22.591462 C 232.141505 23.829383 233.862851 25.244151 235.436659 26.80629 C 237.000621 28.378252 238.417046 30.087764 239.656409 31.924995 C 240.944972 33.840824 242.066305 35.864728 243.020409 37.967229 C 244.043389 40.246576 244.908985 42.584873 245.617197 44.972292 C 246.394255 47.615155 247.033606 50.297317 247.535265 53.008956 C 248.095924 56.034984 248.548399 59.080665 248.882828 62.13617 C 249.256611 65.574836 249.541856 69.013506 249.738578 72.462003 C 249.964823 76.323139 250.112361 80.194101 250.200884 84.055237 C 250.289421 88.378131 250.338591 92.701032 250.32876 97.014106 L 250.32876 155.225886 C 250.338591 159.54878 250.289421 163.861854 250.200884 168.184747 C 250.112361 172.05571 249.964823 175.916853 249.738578 179.777981 C 249.541856 183.226485 249.256611 186.674975 248.882828 190.103826 C 248.548399 193.15933 248.095924 196.214835 247.535265 199.240851 C 247.033606 201.942664 246.394255 204.624837 245.617197 207.267703 C 244.908985 209.655115 244.043389 212.003235 243.020409 214.272755 C 242.066305 216.38509 240.944972 218.399156 239.656409 220.314999 C 238.417046 222.152226 237.000621 223.871561 235.436659 225.433697 C 233.862851 226.995832 232.141505 228.410601 230.302129 229.648532 C 228.384061 230.935575 226.357793 232.055598 224.242988 232.998768 C 221.970814 234.020552 219.619947 234.885137 217.219897 235.592507 C 214.57394 236.368672 211.888645 237.007276 209.173842 237.498515 C 206.144271 238.068354 203.085193 238.510465 200.026115 238.844519 C 196.583423 239.21785 193.1309 239.502777 189.678362 239.699269 C 185.802873 239.925235 181.927398 240.072615 178.051908 240.161035 C 173.723944 240.249454 169.395994 240.298581 165.06803 240.288762 L 90.941963 240.288762 C 86.614006 240.298581 82.286049 240.249454 77.9581 240.161035 C 74.08261 240.072615 70.20712 239.925235 66.331638 239.699269 C 62.879108 239.502777 59.426578 239.21785 55.983886 238.844519 C 52.924808 238.510465 49.865733 238.068354 46.836162 237.498515 C 44.121356 237.007276 41.436057 236.368672 38.7901 235.592507 C 36.390053 234.885137 34.039187 234.020552 31.767009 232.998768 C 29.652213 232.055598 27.625943 230.935575 25.707871 229.648532 C 23.868489 228.410601 22.147143 226.995832 20.573343 225.433697 C 19.009377 223.871561 17.592955 222.152226 16.353586 220.314999 C 15.065036 218.399156 13.943701 216.38509 12.989584 214.272755 C 11.966612 212.003235 11.101021 209.655115 10.392811 207.267703 C 9.615746 204.624837 8.976389 201.942664 8.47474 199.240851 C 7.914072 196.214835 7.461604 193.15933 7.127172 190.103826 C 6.753394 186.674975 6.468142 183.226485 6.271417 179.777981 C 6.045183 175.916853 5.897639 172.05571 5.809112 168.184747 C 5.720586 163.861854 5.671405 159.54878 5.681241 155.225886 L 5.681241 97.014106 C 5.671405 92.701032 5.720586 88.378131 5.809112 84.055237 C 5.897639 80.194101 6.045183 76.323139 6.271417 72.462003 C 6.468142 69.013506 6.753394 65.574836 7.127172 62.13617 C 7.461604 59.080665 7.914072 56.034984 8.47474 53.008956 C 8.976389 50.297317 9.615746 47.615155 10.392811 44.972292 C 11.101021 42.584873 11.966612 40.246576 12.989584 37.967229 C 13.943701 35.864728 15.065036 33.840824 16.353586 31.924995 C 17.592955 30.087764 19.009377 28.378252 20.573343 26.80629 C 22.147143 25.244151 23.868489 23.829383 25.707871 22.591462 C 27.625943 21.304417 29.652213 20.184394 31.767009 19.241215 C 34.039187 18.219439 36.390053 17.354858 38.7901 16.6573 C 41.436057 15.881143 44.121356 15.242533 46.836162 14.741469 C 49.865733 14.181458 52.924808 13.729518 55.983886 13.395476 C 59.426578 13.022134 62.879108 12.737216 66.331638 12.540721 C 70.20712 12.31475 74.08261 12.167379 77.9581 12.088781 C 82.286049 11.990533 86.614006 11.941409 90.941963 11.951234 L 165.06803 11.951234 Z M 165.077876 15.959741 C 169.376317 15.949916 173.674759 15.99904 177.973216 16.087463 C 181.799522 16.175886 185.625827 16.323257 189.452133 16.539402 C 192.835809 16.735898 196.219486 17.010992 199.583486 17.384332 C 202.554026 17.698726 205.514751 18.131016 208.445953 18.681203 C 211.023049 19.152792 213.580483 19.761928 216.098564 20.498786 C 218.321569 21.147221 220.495374 21.952852 222.600334 22.896029 C 224.508571 23.750785 226.338116 24.762737 228.069293 25.922059 C 229.692286 27.012609 231.207063 28.260355 232.59398 29.645648 C 233.980897 31.030941 235.230091 32.543956 236.331763 34.165043 C 237.492434 35.894202 238.505568 37.711787 239.361333 39.607968 C 240.305606 41.720292 241.112187 43.891565 241.761369 46.102139 C 242.508934 48.617282 243.108947 51.161898 243.590914 53.735987 C 244.131912 56.663768 244.564709 59.6112 244.889308 62.578282 C 245.263091 65.938355 245.538505 69.308252 245.735227 72.687976 C 245.951626 76.509812 246.10901 80.321821 246.187687 84.143656 C 246.276225 88.437084 246.325394 92.720685 246.325394 97.014106 C 246.325394 97.014106 246.325394 97.014106 246.325394 97.014106 L 246.325394 155.225886 C 246.325394 155.225886 246.325394 155.225886 246.325394 155.225886 C 246.325394 159.519306 246.276225 163.802907 246.187687 168.096328 C 246.10901 171.918164 245.951626 175.739999 245.735227 179.552015 C 245.538505 182.931739 245.263091 186.301629 244.889308 189.671533 C 244.564709 192.628784 244.131912 195.576216 243.590914 198.503994 C 243.108947 201.078094 242.508934 203.622706 241.761369 206.137845 C 241.112187 208.358253 240.305606 210.5197 239.361333 212.63202 C 238.505568 214.528209 237.492434 216.355617 236.331763 218.074952 C 235.230091 219.705853 233.980897 221.218876 232.59398 222.604172 C 231.207063 223.979634 229.692286 225.227385 228.069293 226.317935 C 226.338116 227.477251 224.508571 228.489201 222.600334 229.343951 C 220.495374 230.296956 218.321569 231.092775 216.098564 231.741198 C 213.580483 232.478056 211.023049 233.087202 208.445953 233.558787 C 205.514751 234.108972 202.554026 234.541264 199.583486 234.865483 C 196.219486 235.228995 192.835809 235.513922 189.452133 235.70058 C 185.625827 235.916726 181.799522 236.073926 177.973216 236.152526 C 173.674759 236.25078 169.376317 236.290072 165.077876 236.290072 C 165.077876 236.290072 165.077876 236.290072 165.06803 236.290072 L 90.941963 236.290072 C 90.932125 236.290072 90.932125 236.290072 90.932125 236.290072 C 86.633683 236.290072 82.335234 236.25078 78.036784 236.152526 C 74.210479 236.073926 70.384173 235.916726 66.557868 235.70058 C 63.174195 235.513922 59.790522 235.228995 56.426518 234.865483 C 53.455967 234.541264 50.495253 234.108972 47.564048 233.558787 C 44.986944 233.087202 42.429517 232.478056 39.911433 231.741198 C 37.688439 231.092775 35.514626 230.296956 33.409665 229.343951 C 31.501429 228.489201 29.671886 227.477251 27.940703 226.317935 C 26.31772 225.227385 24.802935 223.979634 23.416022 222.604172 C 22.029109 221.218876 20.779904 219.705853 19.678243 218.074952 C 18.517564 216.355617 17.504428 214.528209 16.648674 212.63202 C 15.704392 210.5197 14.897819 208.358253 14.248626 206.137845 C 13.50107 203.622706 12.901057 201.078094 12.419081 198.503994 C 11.878086 195.576216 11.445291 192.628784 11.120694 189.671533 C 10.746916 186.301629 10.471501 182.931739 10.274776 179.552015 C 10.058378 175.739999 9.900997 171.918164 9.822307 168.096328 C 9.733781 163.802907 9.6846 159.519306 9.6846 155.225886 C 9.6846 155.225886 9.6846 155.225886 9.6846 155.225886 L 9.6846 97.014106 C 9.6846 97.014106 9.6846 97.014106 9.6846 97.014106 C 9.6846 92.720685 9.733781 88.437084 9.822307 84.143656 C 9.900997 80.321821 10.058378 76.509812 10.274776 72.687976 C 10.471501 69.308252 10.746916 65.938355 11.120694 62.578282 C 11.445291 59.6112 11.878086 56.663768 12.419081 53.735987 C 12.901057 51.161898 13.50107 48.617282 14.248626 46.102139 C 14.897819 43.891565 15.704392 41.720292 16.648674 39.607968 C 17.504428 37.711787 18.517564 35.894202 19.678243 34.165043 C 20.779904 32.543956 22.029109 31.030941 23.416022 29.645648 C 24.802935 28.260355 26.31772 27.012609 27.940703 25.922059 C 29.671886 24.762737 31.501429 23.750785 33.409665 22.896029 C 35.514626 21.952852 37.688439 21.147221 39.911433 20.498786 C 42.429517 19.761928 44.986944 19.152792 47.564048 18.681203 C 50.495253 18.131016 53.455967 17.698726 56.426518 17.384332 C 59.790522 17.010992 63.174195 16.735898 66.557868 16.539402 C 70.384173 16.323257 74.210479 16.175886 78.036784 16.087463 C 82.335234 15.99904 86.633683 15.949916 90.932125 15.959741 C 90.932125 15.959741 90.932125 15.959741 90.941963 15.959741 L 165.06803 15.959741 C 165.077876 15.959741 165.077876 15.959741 165.077876 15.959741 Z"/>
 </g>
 <defs>
  <filter id="XPE7z5eiL0M6Ksgu8R0Ye3wxt3WyoLnp" width="400%" height="400%" x="-200%" y="-200%" color-interpolation-filters="sRGB" filterUnits="objectBoundingBox">
   <feGaussianBlur xmlns="http://www.w3.org/2000/svg" in="SourceGraphic" stdDeviation="4.294"/>
   <feOffset xmlns="http://www.w3.org/2000/svg" dx="0" dy="4" result="pf_100_offsetBlur"/>
   <feFlood xmlns="http://www.w3.org/2000/svg" flood-opacity=".4"/>
   <feComposite xmlns="http://www.w3.org/2000/svg" in2="pf_100_offsetBlur" operator="in" result="pf_100_dropShadow"/>
   <feBlend xmlns="http://www.w3.org/2000/svg" in="SourceGraphic" in2="pf_100_dropShadow" mode="normal"/>
  </filter>
 </defs>
 <g filter="url(#XPE7z5eiL0M6Ksgu8R0Ye3wxt3WyoLnp)">
  <path fill="#ffffff" fill-rule="evenodd" d="M 78.339844 71.41 C 76.683058 71.410168 75.340009 72.753216 75.339844 74.41 L 75.339844 137.41 C 75.340009 139.066786 76.683058 140.409834 78.339844 140.41 L 93.820313 140.41 C 98.376087 140.41 102.577801 139.735469 106.376953 138.335781 C 110.097527 136.965043 113.259071 135.122787 115.769531 132.751797 C 115.770199 132.751147 115.770866 132.750497 115.77153 132.749847 C 118.232941 130.421487 120.271305 127.711707 121.859421 124.667815 C 121.863361 124.660019 121.867268 124.652206 121.871143 124.644375 C 123.422508 121.606281 124.539452 118.499371 125.197315 115.341641 C 125.839733 112.258026 126.160206 109.110001 126.160206 105.91 C 126.160206 102.471123 125.809242 99.161705 125.099655 95.995938 C 124.381344 92.730866 123.200062 89.613819 121.574268 86.677578 C 119.983829 83.636658 117.935776 80.976208 115.455128 78.759609 C 112.958611 76.47424 109.870609 74.697804 106.27544 73.390469 C 102.602217 72.054768 98.553804 71.41 94.179688 71.41 L 78.339844 71.41 Z M 92.050781 87.490078 L 95.890625 87.490078 C 100.444107 87.490078 103.212269 88.968708 105.425781 92.411953 C 107.781414 96.076271 109 100.489185 109 105.91 C 109 108.31863 108.727131 110.621227 108.1875 112.837734 C 107.65715 114.956755 106.840397 116.959322 105.724609 118.874844 C 104.750854 120.490135 103.406015 121.766046 101.488281 122.798672 C 101.478485 122.803827 101.468719 122.809038 101.458981 122.814302 C 99.676268 123.799486 97.548622 124.329927 94.900389 124.329927 L 92.050777 124.329927 L 92.050781 87.490078 Z"/>
 </g>
 <defs>
  <filter id="gfB9yWyiuZNW6Wi8dKBlf3HVyknePw5Y" width="400%" height="400%" x="-200%" y="-200%" color-interpolation-filters="sRGB" filterUnits="objectBoundingBox">
   <feGaussianBlur xmlns="http://www.w3.org/2000/svg" in="SourceGraphic" stdDeviation="4.294"/>
   <feOffset xmlns="http://www.w3.org/2000/svg" dx="0" dy="4" result="pf_100_offsetBlur"/>
   <feFlood xmlns="http://www.w3.org/2000/svg" flood-opacity=".4"/>
   <feComposite xmlns="http://www.w3.org/2000/svg" in2="pf_100_offsetBlur" operator="in" result="pf_100_dropShadow"/>
   <feBlend xmlns="http://www.w3.org/2000/svg" in="SourceGraphic" in2="pf_100_dropShadow" mode="normal"/>
  </filter>
 </defs>
 <g filter="url(#gfB9yWyiuZNW6Wi8dKBlf3HVyknePw5Y)">
  <path fill="#ffffff" d="M 156.740234 70.419766 C 151.967911 70.419766 147.573235 71.540974 143.78125 73.812344 C 140.079628 75.970837 137.073265 78.938976 134.90625 82.591641 C 132.836449 86.022259 131.283974 89.746372 130.255859 93.730312 C 130.252529 93.74136 130.24926 93.752426 130.246059 93.763512 C 129.286152 97.667141 128.810513 101.722721 128.810513 105.909996 C 128.810513 109.316664 129.09449 112.642248 129.665981 115.880699 C 129.666641 115.884607 129.667305 115.888514 129.66798 115.892418 C 130.250401 119.128075 131.220085 122.296393 132.570324 125.382653 C 132.573563 125.389829 132.576828 125.396993 132.580124 125.404143 C 133.951267 128.472895 135.674965 131.201428 137.753952 133.548674 C 137.773788 133.571766 137.793976 133.594555 137.814499 133.617033 C 140.025627 135.966351 142.747734 137.847297 145.886765 139.249846 C 145.893921 139.252476 145.901077 139.255079 145.908249 139.257656 C 149.201775 140.698572 152.844345 141.400234 156.74028 141.400234 C 167.032227 141.400234 175.050797 135.426052 179.318405 124.951016 C 179.622932 124.202781 179.612869 123.363356 179.290482 122.622639 C 178.968094 121.881922 178.360634 121.302506 177.605515 121.015469 L 167.884811 117.326016 C 166.416313 116.768522 164.766396 117.438028 164.101608 118.861172 C 161.8517 123.682405 159.654564 125.230312 156.74028 125.230312 C 153.305023 125.230312 151.156525 123.905368 149.126999 120.158047 L 149.125 120.154146 C 146.984238 116.13858 145.878906 111.444241 145.878906 105.91 C 145.878906 102.479508 146.273598 99.321091 147.041016 96.415859 C 147.041695 96.411305 147.042358 96.406746 147.043015 96.402187 C 147.771408 93.592686 149.028885 91.24189 150.869186 89.197109 C 152.530235 87.351502 154.24102 86.589687 156.74028 86.589687 C 158.467651 86.589687 159.553719 86.998676 160.480515 87.777187 C 160.495369 87.789704 160.510345 87.802075 160.525436 87.814301 C 161.646667 88.71991 162.882347 90.271069 164.072311 92.542812 C 164.823059 93.975292 166.574104 94.554943 168.031296 93.853359 L 177.570358 89.263519 C 178.995712 88.578186 179.644318 86.904106 179.052773 85.437348 C 177.355293 81.227581 174.582329 77.635338 170.890671 74.816254 C 167.019112 71.859791 162.172478 70.419766 156.74028 70.419766 L 156.740234 70.419766 Z"/>
 </g>
</svg>
