<svg xmlns="http://www.w3.org/2000/svg" style="isolation:isolate" width="256" height="256" viewBox="0 0 256 256">
 <defs>
  <filter id="YYPqdRr7KTlhn6WWH2aCAbxwpKWPFGbK" width="400%" height="400%" x="-200%" y="-200%" color-interpolation-filters="sRGB" filterUnits="objectBoundingBox">
   <feGaussianBlur xmlns="http://www.w3.org/2000/svg" in="SourceGraphic" stdDeviation="4.294"/>
   <feOffset xmlns="http://www.w3.org/2000/svg" dx="0" dy="4" result="pf_100_offsetBlur"/>
   <feFlood xmlns="http://www.w3.org/2000/svg" flood-opacity=".4"/>
   <feComposite xmlns="http://www.w3.org/2000/svg" in2="pf_100_offsetBlur" operator="in" result="pf_100_dropShadow"/>
   <feBlend xmlns="http://www.w3.org/2000/svg" in="SourceGraphic" in2="pf_100_dropShadow" mode="normal"/>
  </filter>
 </defs>
 <g filter="url(#YYPqdRr7KTlhn6WWH2aCAbxwpKWPFGbK)">
  <linearGradient id="_lgradient_30" x1="0" x2="-.007" y1="0" y2="1.546" gradientTransform="matrix(244.648309,0,0,228.338396,5.68,11.95)" gradientUnits="userSpaceOnUse">
   <stop offset="0%" style="stop-color:#00f260"/>
   <stop offset="100%" style="stop-color:#0575e6"/>
  </linearGradient>
  <path fill="url(#_lgradient_30)" d="M 165.688919 11.95 C 239.744626 11.95 250.328309 22.507198 250.328309 96.493859 L 250.328309 155.744653 C 250.328309 229.73091 239.744626 240.288396 165.688919 240.288396 L 90.319393 240.288396 C 16.26369 240.288396 5.68 229.73091 5.68 155.744653 L 5.68 96.493859 C 5.68 22.507198 16.26369 11.95 90.319393 11.95 L 165.688919 11.95 Z"/>
 </g>
 <g opacity=".4">
  <linearGradient id="_lgradient_31" x1=".517" x2=".517" y1="0" y2="1" gradientTransform="matrix(244.65,0,0,228.34,5.68,11.95)" gradientUnits="userSpaceOnUse">
   <stop offset="0%" style="stop-color:#ffffff"/>
   <stop offset="12.5%" stop-opacity=".098" style="stop-color:#ffffff"/>
   <stop offset="92.5%" stop-opacity=".098" style="stop-color:#000000"/>
   <stop offset="100%" stop-opacity=".498" style="stop-color:#000000"/>
  </linearGradient>
  <path fill="url(#_lgradient_31)" fill-rule="evenodd" d="M 165.06803 11.951234 C 169.395994 11.941409 173.723944 11.990533 178.051908 12.088781 C 181.927398 12.167379 185.802873 12.31475 189.678362 12.540721 C 193.1309 12.737216 196.583423 13.022134 200.026115 13.395476 C 203.085193 13.729518 206.144271 14.181458 209.173842 14.741469 C 211.888645 15.242533 214.57394 15.881143 217.219897 16.6573 C 219.619947 17.354858 221.970814 18.219439 224.242988 19.241215 C 226.357793 20.184394 228.384061 21.304417 230.302129 22.591462 C 232.141505 23.829383 233.862851 25.244151 235.436659 26.80629 C 237.000621 28.378252 238.417046 30.087764 239.656409 31.924995 C 240.944972 33.840824 242.066305 35.864728 243.020409 37.967229 C 244.043389 40.246576 244.908985 42.584873 245.617197 44.972292 C 246.394255 47.615155 247.033606 50.297317 247.535265 53.008956 C 248.095924 56.034984 248.548399 59.080665 248.882828 62.13617 C 249.256611 65.574836 249.541856 69.013506 249.738578 72.462003 C 249.964823 76.323139 250.112361 80.194101 250.200884 84.055237 C 250.289421 88.378131 250.338591 92.701032 250.32876 97.014106 L 250.32876 155.225886 C 250.338591 159.54878 250.289421 163.861854 250.200884 168.184747 C 250.112361 172.05571 249.964823 175.916853 249.738578 179.777981 C 249.541856 183.226485 249.256611 186.674975 248.882828 190.103826 C 248.548399 193.15933 248.095924 196.214835 247.535265 199.240851 C 247.033606 201.942664 246.394255 204.624837 245.617197 207.267703 C 244.908985 209.655115 244.043389 212.003235 243.020409 214.272755 C 242.066305 216.38509 240.944972 218.399156 239.656409 220.314999 C 238.417046 222.152226 237.000621 223.871561 235.436659 225.433697 C 233.862851 226.995832 232.141505 228.410601 230.302129 229.648532 C 228.384061 230.935575 226.357793 232.055598 224.242988 232.998768 C 221.970814 234.020552 219.619947 234.885137 217.219897 235.592507 C 214.57394 236.368672 211.888645 237.007276 209.173842 237.498515 C 206.144271 238.068354 203.085193 238.510465 200.026115 238.844519 C 196.583423 239.21785 193.1309 239.502777 189.678362 239.699269 C 185.802873 239.925235 181.927398 240.072615 178.051908 240.161035 C 173.723944 240.249454 169.395994 240.298581 165.06803 240.288762 L 90.941963 240.288762 C 86.614006 240.298581 82.286049 240.249454 77.9581 240.161035 C 74.08261 240.072615 70.20712 239.925235 66.331638 239.699269 C 62.879108 239.502777 59.426578 239.21785 55.983886 238.844519 C 52.924808 238.510465 49.865733 238.068354 46.836162 237.498515 C 44.121356 237.007276 41.436057 236.368672 38.7901 235.592507 C 36.390053 234.885137 34.039187 234.020552 31.767009 232.998768 C 29.652213 232.055598 27.625943 230.935575 25.707871 229.648532 C 23.868489 228.410601 22.147143 226.995832 20.573343 225.433697 C 19.009377 223.871561 17.592955 222.152226 16.353586 220.314999 C 15.065036 218.399156 13.943701 216.38509 12.989584 214.272755 C 11.966612 212.003235 11.101021 209.655115 10.392811 207.267703 C 9.615746 204.624837 8.976389 201.942664 8.47474 199.240851 C 7.914072 196.214835 7.461604 193.15933 7.127172 190.103826 C 6.753394 186.674975 6.468142 183.226485 6.271417 179.777981 C 6.045183 175.916853 5.897639 172.05571 5.809112 168.184747 C 5.720586 163.861854 5.671405 159.54878 5.681241 155.225886 L 5.681241 97.014106 C 5.671405 92.701032 5.720586 88.378131 5.809112 84.055237 C 5.897639 80.194101 6.045183 76.323139 6.271417 72.462003 C 6.468142 69.013506 6.753394 65.574836 7.127172 62.13617 C 7.461604 59.080665 7.914072 56.034984 8.47474 53.008956 C 8.976389 50.297317 9.615746 47.615155 10.392811 44.972292 C 11.101021 42.584873 11.966612 40.246576 12.989584 37.967229 C 13.943701 35.864728 15.065036 33.840824 16.353586 31.924995 C 17.592955 30.087764 19.009377 28.378252 20.573343 26.80629 C 22.147143 25.244151 23.868489 23.829383 25.707871 22.591462 C 27.625943 21.304417 29.652213 20.184394 31.767009 19.241215 C 34.039187 18.219439 36.390053 17.354858 38.7901 16.6573 C 41.436057 15.881143 44.121356 15.242533 46.836162 14.741469 C 49.865733 14.181458 52.924808 13.729518 55.983886 13.395476 C 59.426578 13.022134 62.879108 12.737216 66.331638 12.540721 C 70.20712 12.31475 74.08261 12.167379 77.9581 12.088781 C 82.286049 11.990533 86.614006 11.941409 90.941963 11.951234 L 165.06803 11.951234 Z M 165.077876 15.959741 C 169.376317 15.949916 173.674759 15.99904 177.973216 16.087463 C 181.799522 16.175886 185.625827 16.323257 189.452133 16.539402 C 192.835809 16.735898 196.219486 17.010992 199.583486 17.384332 C 202.554026 17.698726 205.514751 18.131016 208.445953 18.681203 C 211.023049 19.152792 213.580483 19.761928 216.098564 20.498786 C 218.321569 21.147221 220.495374 21.952852 222.600334 22.896029 C 224.508571 23.750785 226.338116 24.762737 228.069293 25.922059 C 229.692286 27.012609 231.207063 28.260355 232.59398 29.645648 C 233.980897 31.030941 235.230091 32.543956 236.331763 34.165043 C 237.492434 35.894202 238.505568 37.711787 239.361333 39.607968 C 240.305606 41.720292 241.112187 43.891565 241.761369 46.102139 C 242.508934 48.617282 243.108947 51.161898 243.590914 53.735987 C 244.131912 56.663768 244.564709 59.6112 244.889308 62.578282 C 245.263091 65.938355 245.538505 69.308252 245.735227 72.687976 C 245.951626 76.509812 246.10901 80.321821 246.187687 84.143656 C 246.276225 88.437084 246.325394 92.720685 246.325394 97.014106 C 246.325394 97.014106 246.325394 97.014106 246.325394 97.014106 L 246.325394 155.225886 C 246.325394 155.225886 246.325394 155.225886 246.325394 155.225886 C 246.325394 159.519306 246.276225 163.802907 246.187687 168.096328 C 246.10901 171.918164 245.951626 175.739999 245.735227 179.552015 C 245.538505 182.931739 245.263091 186.301629 244.889308 189.671533 C 244.564709 192.628784 244.131912 195.576216 243.590914 198.503994 C 243.108947 201.078094 242.508934 203.622706 241.761369 206.137845 C 241.112187 208.358253 240.305606 210.5197 239.361333 212.63202 C 238.505568 214.528209 237.492434 216.355617 236.331763 218.074952 C 235.230091 219.705853 233.980897 221.218876 232.59398 222.604172 C 231.207063 223.979634 229.692286 225.227385 228.069293 226.317935 C 226.338116 227.477251 224.508571 228.489201 222.600334 229.343951 C 220.495374 230.296956 218.321569 231.092775 216.098564 231.741198 C 213.580483 232.478056 211.023049 233.087202 208.445953 233.558787 C 205.514751 234.108972 202.554026 234.541264 199.583486 234.865483 C 196.219486 235.228995 192.835809 235.513922 189.452133 235.70058 C 185.625827 235.916726 181.799522 236.073926 177.973216 236.152526 C 173.674759 236.25078 169.376317 236.290072 165.077876 236.290072 C 165.077876 236.290072 165.077876 236.290072 165.06803 236.290072 L 90.941963 236.290072 C 90.932125 236.290072 90.932125 236.290072 90.932125 236.290072 C 86.633683 236.290072 82.335234 236.25078 78.036784 236.152526 C 74.210479 236.073926 70.384173 235.916726 66.557868 235.70058 C 63.174195 235.513922 59.790522 235.228995 56.426518 234.865483 C 53.455967 234.541264 50.495253 234.108972 47.564048 233.558787 C 44.986944 233.087202 42.429517 232.478056 39.911433 231.741198 C 37.688439 231.092775 35.514626 230.296956 33.409665 229.343951 C 31.501429 228.489201 29.671886 227.477251 27.940703 226.317935 C 26.31772 225.227385 24.802935 223.979634 23.416022 222.604172 C 22.029109 221.218876 20.779904 219.705853 19.678243 218.074952 C 18.517564 216.355617 17.504428 214.528209 16.648674 212.63202 C 15.704392 210.5197 14.897819 208.358253 14.248626 206.137845 C 13.50107 203.622706 12.901057 201.078094 12.419081 198.503994 C 11.878086 195.576216 11.445291 192.628784 11.120694 189.671533 C 10.746916 186.301629 10.471501 182.931739 10.274776 179.552015 C 10.058378 175.739999 9.900997 171.918164 9.822307 168.096328 C 9.733781 163.802907 9.6846 159.519306 9.6846 155.225886 C 9.6846 155.225886 9.6846 155.225886 9.6846 155.225886 L 9.6846 97.014106 C 9.6846 97.014106 9.6846 97.014106 9.6846 97.014106 C 9.6846 92.720685 9.733781 88.437084 9.822307 84.143656 C 9.900997 80.321821 10.058378 76.509812 10.274776 72.687976 C 10.471501 69.308252 10.746916 65.938355 11.120694 62.578282 C 11.445291 59.6112 11.878086 56.663768 12.419081 53.735987 C 12.901057 51.161898 13.50107 48.617282 14.248626 46.102139 C 14.897819 43.891565 15.704392 41.720292 16.648674 39.607968 C 17.504428 37.711787 18.517564 35.894202 19.678243 34.165043 C 20.779904 32.543956 22.029109 31.030941 23.416022 29.645648 C 24.802935 28.260355 26.31772 27.012609 27.940703 25.922059 C 29.671886 24.762737 31.501429 23.750785 33.409665 22.896029 C 35.514626 21.952852 37.688439 21.147221 39.911433 20.498786 C 42.429517 19.761928 44.986944 19.152792 47.564048 18.681203 C 50.495253 18.131016 53.455967 17.698726 56.426518 17.384332 C 59.790522 17.010992 63.174195 16.735898 66.557868 16.539402 C 70.384173 16.323257 74.210479 16.175886 78.036784 16.087463 C 82.335234 15.99904 86.633683 15.949916 90.932125 15.959741 C 90.932125 15.959741 90.932125 15.959741 90.941963 15.959741 L 165.06803 15.959741 C 165.077876 15.959741 165.077876 15.959741 165.077876 15.959741 Z"/>
 </g>
 <g>
  <defs>
   <filter id="XulPzSDReotaSiFnp2zrc6yreAJG0gbj" width="400%" height="400%" x="-200%" y="-200%" color-interpolation-filters="sRGB" filterUnits="objectBoundingBox">
    <feGaussianBlur xmlns="http://www.w3.org/2000/svg" stdDeviation="4.294"/>
   </filter>
  </defs>
  <g opacity=".4" filter="url(#XulPzSDReotaSiFnp2zrc6yreAJG0gbj)">
   <path d="M 83.69444 73.624599 L 99.805553 93.76349 L 107.861109 89.735704 L 95.777774 77.652377 L 107.861109 73.624599 L 83.69444 73.624599 Z M 148.138883 73.624599 L 160.222218 77.652377 L 148.138883 89.735704 L 156.19444 93.76349 L 172.305553 73.624599 L 148.138883 73.624599 Z M 127.999992 81.680155 C 117.51086 81.713182 103.781774 87.439391 103.833331 107.45149 L 127.999992 93.76349 L 152.166662 107.45149 C 152.215 87.441488 138.488334 81.713989 127.999992 81.681761 L 127.999992 81.680155 Z M 67.583327 89.735704 L 75.638891 113.902373 L 75.638891 105.846817 L 91.749996 105.846817 L 95.777774 97.791268 L 67.583327 89.735704 Z M 188.416665 89.735704 L 160.222218 97.791268 L 164.249996 105.846817 L 180.361109 105.846817 L 180.361109 113.902373 L 188.416665 89.735704 Z M 127.999992 101.819038 L 115.916665 109.072181 L 117.521492 120.353179 L 121.549271 109.874518 L 134.451044 109.874518 L 138.478823 120.353179 L 140.081883 109.0754 L 127.998548 101.825407 L 127.999992 101.819038 Z M 87.722218 113.902373 L 55.5 125.985715 L 71.611105 134.041256 L 71.611105 130.013478 L 83.69444 125.985715 L 87.722218 113.902373 Z M 107.861109 113.902373 L 91.749996 120.353102 C 91.850852 133.514268 99.228851 145.942378 106.649549 151.99291 C 111.845381 156.125401 118.354275 160.862074 121.544277 162.231509 C 125.209549 163.60096 123.17955 155.448742 123.968995 154.175968 L 132.024544 154.175968 C 132.816901 155.451877 130.780687 163.604186 134.447495 162.231509 C 137.642983 160.863764 144.151223 156.127752 149.347063 151.988885 C 156.774284 145.939166 164.145115 133.517495 164.249827 120.354716 L 148.138714 113.902212 L 144.110951 130.013324 L 133.630662 130.013324 L 127.999831 113.902212 L 122.369 130.013324 L 111.888726 130.013324 L 107.860948 113.902212 L 107.861109 113.902373 Z M 168.277774 113.902373 L 172.305553 125.985715 L 184.388887 130.013478 L 184.388887 134.041256 L 200.5 125.985715 L 168.277774 113.902373 Z M 87.722218 138.069034 L 67.583327 146.124591 L 99.805553 186.402373 L 87.722218 138.069034 Z M 168.277774 138.069034 L 156.19444 186.402373 L 188.416665 146.124591 L 168.277774 138.069034 Z"/>
  </g>
  <path fill="#ffffff" d="M 83.69444 69.597627 L 99.805553 89.736518 L 107.861109 85.70874 L 95.777774 73.625405 L 107.861109 69.597627 L 83.69444 69.597627 Z M 148.138883 69.597627 L 160.222218 73.625405 L 148.138883 85.70874 L 156.19444 89.736518 L 172.305553 69.597627 L 148.138883 69.597627 Z M 127.999992 77.653183 C 117.51086 77.68621 103.781774 83.412419 103.833331 103.424511 L 127.999992 89.736518 L 152.166662 103.424511 C 152.215 83.414517 138.488334 77.687017 127.999992 77.654797 L 127.999992 77.653183 Z M 67.583327 85.70874 L 75.638891 109.875401 L 75.638891 101.819853 L 91.749996 101.819853 L 95.777774 93.764289 L 67.583327 85.70874 Z M 188.416665 85.70874 L 160.222218 93.764289 L 164.249996 101.819853 L 180.361109 101.819853 L 180.361109 109.875401 L 188.416665 85.70874 Z M 127.999992 97.792074 L 115.916665 105.04521 L 117.521492 116.326215 L 121.549271 105.847546 L 134.451044 105.847546 L 138.478823 116.326215 L 140.081883 105.048436 L 127.998548 97.798436 L 127.999992 97.792074 Z M 87.722218 109.875401 L 55.5 121.958736 L 71.611105 130.014292 L 71.611105 125.986514 L 83.69444 121.958736 L 87.722218 109.875401 Z M 107.861109 109.875401 L 91.749996 116.326131 C 91.850852 129.487304 99.228851 141.915414 106.649549 147.965931 C 111.845381 152.098437 118.354275 156.835094 121.544277 158.204545 C 125.209549 159.573996 123.17955 151.421763 123.968995 150.148989 L 132.024544 150.148989 C 132.816901 151.424913 130.780687 159.577207 134.447495 158.204545 C 137.642983 156.8368 144.151223 152.100773 149.347063 147.961906 C 156.774284 141.912187 164.145115 129.490515 164.249827 116.327744 L 148.138714 109.875248 L 144.110951 125.986345 L 133.630662 125.986345 L 127.999831 109.875248 L 122.369 125.986345 L 111.888726 125.986345 L 107.860948 109.875248 L 107.861109 109.875401 Z M 168.277774 109.875401 L 172.305553 121.958736 L 184.388887 125.986514 L 184.388887 130.014292 L 200.5 121.958736 L 168.277774 109.875401 Z M 87.722218 134.042071 L 67.583327 142.097627 L 99.805553 182.375409 L 87.722218 134.042071 Z M 168.277774 134.042071 L 156.19444 182.375409 L 188.416665 142.097627 L 168.277774 134.042071 Z"/>
 </g>
</svg>
