<svg xmlns="http://www.w3.org/2000/svg" style="isolation:isolate" width="256" height="256" viewBox="0 0 256 256">
 <defs>
  <filter id="uKj6OhsX2S8pM05sIc6dAGiRPCFGgyEP" width="400%" height="400%" x="-200%" y="-200%" color-interpolation-filters="sRGB" filterUnits="objectBoundingBox">
   <feGaussianBlur xmlns="http://www.w3.org/2000/svg" in="SourceGraphic" stdDeviation="4.294"/>
   <feOffset xmlns="http://www.w3.org/2000/svg" dx="0" dy="4" result="pf_100_offsetBlur"/>
   <feFlood xmlns="http://www.w3.org/2000/svg" flood-opacity=".4"/>
   <feComposite xmlns="http://www.w3.org/2000/svg" in2="pf_100_offsetBlur" operator="in" result="pf_100_dropShadow"/>
   <feBlend xmlns="http://www.w3.org/2000/svg" in="SourceGraphic" in2="pf_100_dropShadow" mode="normal"/>
  </filter>
 </defs>
 <g filter="url(#uKj6OhsX2S8pM05sIc6dAGiRPCFGgyEP)">
  <path fill="#e4e4e4" d="M 165.688919 11.95 C 239.744626 11.95 250.328309 22.507198 250.328309 96.493859 L 250.328309 155.744653 C 250.328309 229.73091 239.744626 240.288396 165.688919 240.288396 L 90.319393 240.288396 C 16.26369 240.288396 5.68 229.73091 5.68 155.744653 L 5.68 96.493859 C 5.68 22.507198 16.26369 11.95 90.319393 11.95 L 165.688919 11.95 Z"/>
 </g>
 <g opacity=".4">
  <linearGradient id="_lgradient_37" x1=".517" x2=".517" y1="0" y2="1" gradientTransform="matrix(244.65,0,0,228.34,5.68,11.95)" gradientUnits="userSpaceOnUse">
   <stop offset="0%" style="stop-color:#ffffff"/>
   <stop offset="12.5%" stop-opacity=".098" style="stop-color:#ffffff"/>
   <stop offset="92.5%" stop-opacity=".098" style="stop-color:#000000"/>
   <stop offset="100%" stop-opacity=".498" style="stop-color:#000000"/>
  </linearGradient>
  <path fill="url(#_lgradient_37)" fill-rule="evenodd" d="M 165.06803 11.951234 C 169.395994 11.941409 173.723944 11.990533 178.051908 12.088781 C 181.927398 12.167379 185.802873 12.31475 189.678362 12.540721 C 193.1309 12.737216 196.583423 13.022134 200.026115 13.395476 C 203.085193 13.729518 206.144271 14.181458 209.173842 14.741469 C 211.888645 15.242533 214.57394 15.881143 217.219897 16.6573 C 219.619947 17.354858 221.970814 18.219439 224.242988 19.241215 C 226.357793 20.184394 228.384061 21.304417 230.302129 22.591462 C 232.141505 23.829383 233.862851 25.244151 235.436659 26.80629 C 237.000621 28.378252 238.417046 30.087764 239.656409 31.924995 C 240.944972 33.840824 242.066305 35.864728 243.020409 37.967229 C 244.043389 40.246576 244.908985 42.584873 245.617197 44.972292 C 246.394255 47.615155 247.033606 50.297317 247.535265 53.008956 C 248.095924 56.034984 248.548399 59.080665 248.882828 62.13617 C 249.256611 65.574836 249.541856 69.013506 249.738578 72.462003 C 249.964823 76.323139 250.112361 80.194101 250.200884 84.055237 C 250.289421 88.378131 250.338591 92.701032 250.32876 97.014106 L 250.32876 155.225886 C 250.338591 159.54878 250.289421 163.861854 250.200884 168.184747 C 250.112361 172.05571 249.964823 175.916853 249.738578 179.777981 C 249.541856 183.226485 249.256611 186.674975 248.882828 190.103826 C 248.548399 193.15933 248.095924 196.214835 247.535265 199.240851 C 247.033606 201.942664 246.394255 204.624837 245.617197 207.267703 C 244.908985 209.655115 244.043389 212.003235 243.020409 214.272755 C 242.066305 216.38509 240.944972 218.399156 239.656409 220.314999 C 238.417046 222.152226 237.000621 223.871561 235.436659 225.433697 C 233.862851 226.995832 232.141505 228.410601 230.302129 229.648532 C 228.384061 230.935575 226.357793 232.055598 224.242988 232.998768 C 221.970814 234.020552 219.619947 234.885137 217.219897 235.592507 C 214.57394 236.368672 211.888645 237.007276 209.173842 237.498515 C 206.144271 238.068354 203.085193 238.510465 200.026115 238.844519 C 196.583423 239.21785 193.1309 239.502777 189.678362 239.699269 C 185.802873 239.925235 181.927398 240.072615 178.051908 240.161035 C 173.723944 240.249454 169.395994 240.298581 165.06803 240.288762 L 90.941963 240.288762 C 86.614006 240.298581 82.286049 240.249454 77.9581 240.161035 C 74.08261 240.072615 70.20712 239.925235 66.331638 239.699269 C 62.879108 239.502777 59.426578 239.21785 55.983886 238.844519 C 52.924808 238.510465 49.865733 238.068354 46.836162 237.498515 C 44.121356 237.007276 41.436057 236.368672 38.7901 235.592507 C 36.390053 234.885137 34.039187 234.020552 31.767009 232.998768 C 29.652213 232.055598 27.625943 230.935575 25.707871 229.648532 C 23.868489 228.410601 22.147143 226.995832 20.573343 225.433697 C 19.009377 223.871561 17.592955 222.152226 16.353586 220.314999 C 15.065036 218.399156 13.943701 216.38509 12.989584 214.272755 C 11.966612 212.003235 11.101021 209.655115 10.392811 207.267703 C 9.615746 204.624837 8.976389 201.942664 8.47474 199.240851 C 7.914072 196.214835 7.461604 193.15933 7.127172 190.103826 C 6.753394 186.674975 6.468142 183.226485 6.271417 179.777981 C 6.045183 175.916853 5.897639 172.05571 5.809112 168.184747 C 5.720586 163.861854 5.671405 159.54878 5.681241 155.225886 L 5.681241 97.014106 C 5.671405 92.701032 5.720586 88.378131 5.809112 84.055237 C 5.897639 80.194101 6.045183 76.323139 6.271417 72.462003 C 6.468142 69.013506 6.753394 65.574836 7.127172 62.13617 C 7.461604 59.080665 7.914072 56.034984 8.47474 53.008956 C 8.976389 50.297317 9.615746 47.615155 10.392811 44.972292 C 11.101021 42.584873 11.966612 40.246576 12.989584 37.967229 C 13.943701 35.864728 15.065036 33.840824 16.353586 31.924995 C 17.592955 30.087764 19.009377 28.378252 20.573343 26.80629 C 22.147143 25.244151 23.868489 23.829383 25.707871 22.591462 C 27.625943 21.304417 29.652213 20.184394 31.767009 19.241215 C 34.039187 18.219439 36.390053 17.354858 38.7901 16.6573 C 41.436057 15.881143 44.121356 15.242533 46.836162 14.741469 C 49.865733 14.181458 52.924808 13.729518 55.983886 13.395476 C 59.426578 13.022134 62.879108 12.737216 66.331638 12.540721 C 70.20712 12.31475 74.08261 12.167379 77.9581 12.088781 C 82.286049 11.990533 86.614006 11.941409 90.941963 11.951234 L 165.06803 11.951234 Z M 165.077876 15.959741 C 169.376317 15.949916 173.674759 15.99904 177.973216 16.087463 C 181.799522 16.175886 185.625827 16.323257 189.452133 16.539402 C 192.835809 16.735898 196.219486 17.010992 199.583486 17.384332 C 202.554026 17.698726 205.514751 18.131016 208.445953 18.681203 C 211.023049 19.152792 213.580483 19.761928 216.098564 20.498786 C 218.321569 21.147221 220.495374 21.952852 222.600334 22.896029 C 224.508571 23.750785 226.338116 24.762737 228.069293 25.922059 C 229.692286 27.012609 231.207063 28.260355 232.59398 29.645648 C 233.980897 31.030941 235.230091 32.543956 236.331763 34.165043 C 237.492434 35.894202 238.505568 37.711787 239.361333 39.607968 C 240.305606 41.720292 241.112187 43.891565 241.761369 46.102139 C 242.508934 48.617282 243.108947 51.161898 243.590914 53.735987 C 244.131912 56.663768 244.564709 59.6112 244.889308 62.578282 C 245.263091 65.938355 245.538505 69.308252 245.735227 72.687976 C 245.951626 76.509812 246.10901 80.321821 246.187687 84.143656 C 246.276225 88.437084 246.325394 92.720685 246.325394 97.014106 C 246.325394 97.014106 246.325394 97.014106 246.325394 97.014106 L 246.325394 155.225886 C 246.325394 155.225886 246.325394 155.225886 246.325394 155.225886 C 246.325394 159.519306 246.276225 163.802907 246.187687 168.096328 C 246.10901 171.918164 245.951626 175.739999 245.735227 179.552015 C 245.538505 182.931739 245.263091 186.301629 244.889308 189.671533 C 244.564709 192.628784 244.131912 195.576216 243.590914 198.503994 C 243.108947 201.078094 242.508934 203.622706 241.761369 206.137845 C 241.112187 208.358253 240.305606 210.5197 239.361333 212.63202 C 238.505568 214.528209 237.492434 216.355617 236.331763 218.074952 C 235.230091 219.705853 233.980897 221.218876 232.59398 222.604172 C 231.207063 223.979634 229.692286 225.227385 228.069293 226.317935 C 226.338116 227.477251 224.508571 228.489201 222.600334 229.343951 C 220.495374 230.296956 218.321569 231.092775 216.098564 231.741198 C 213.580483 232.478056 211.023049 233.087202 208.445953 233.558787 C 205.514751 234.108972 202.554026 234.541264 199.583486 234.865483 C 196.219486 235.228995 192.835809 235.513922 189.452133 235.70058 C 185.625827 235.916726 181.799522 236.073926 177.973216 236.152526 C 173.674759 236.25078 169.376317 236.290072 165.077876 236.290072 C 165.077876 236.290072 165.077876 236.290072 165.06803 236.290072 L 90.941963 236.290072 C 90.932125 236.290072 90.932125 236.290072 90.932125 236.290072 C 86.633683 236.290072 82.335234 236.25078 78.036784 236.152526 C 74.210479 236.073926 70.384173 235.916726 66.557868 235.70058 C 63.174195 235.513922 59.790522 235.228995 56.426518 234.865483 C 53.455967 234.541264 50.495253 234.108972 47.564048 233.558787 C 44.986944 233.087202 42.429517 232.478056 39.911433 231.741198 C 37.688439 231.092775 35.514626 230.296956 33.409665 229.343951 C 31.501429 228.489201 29.671886 227.477251 27.940703 226.317935 C 26.31772 225.227385 24.802935 223.979634 23.416022 222.604172 C 22.029109 221.218876 20.779904 219.705853 19.678243 218.074952 C 18.517564 216.355617 17.504428 214.528209 16.648674 212.63202 C 15.704392 210.5197 14.897819 208.358253 14.248626 206.137845 C 13.50107 203.622706 12.901057 201.078094 12.419081 198.503994 C 11.878086 195.576216 11.445291 192.628784 11.120694 189.671533 C 10.746916 186.301629 10.471501 182.931739 10.274776 179.552015 C 10.058378 175.739999 9.900997 171.918164 9.822307 168.096328 C 9.733781 163.802907 9.6846 159.519306 9.6846 155.225886 C 9.6846 155.225886 9.6846 155.225886 9.6846 155.225886 L 9.6846 97.014106 C 9.6846 97.014106 9.6846 97.014106 9.6846 97.014106 C 9.6846 92.720685 9.733781 88.437084 9.822307 84.143656 C 9.900997 80.321821 10.058378 76.509812 10.274776 72.687976 C 10.471501 69.308252 10.746916 65.938355 11.120694 62.578282 C 11.445291 59.6112 11.878086 56.663768 12.419081 53.735987 C 12.901057 51.161898 13.50107 48.617282 14.248626 46.102139 C 14.897819 43.891565 15.704392 41.720292 16.648674 39.607968 C 17.504428 37.711787 18.517564 35.894202 19.678243 34.165043 C 20.779904 32.543956 22.029109 31.030941 23.416022 29.645648 C 24.802935 28.260355 26.31772 27.012609 27.940703 25.922059 C 29.671886 24.762737 31.501429 23.750785 33.409665 22.896029 C 35.514626 21.952852 37.688439 21.147221 39.911433 20.498786 C 42.429517 19.761928 44.986944 19.152792 47.564048 18.681203 C 50.495253 18.131016 53.455967 17.698726 56.426518 17.384332 C 59.790522 17.010992 63.174195 16.735898 66.557868 16.539402 C 70.384173 16.323257 74.210479 16.175886 78.036784 16.087463 C 82.335234 15.99904 86.633683 15.949916 90.932125 15.959741 C 90.932125 15.959741 90.932125 15.959741 90.941963 15.959741 L 165.06803 15.959741 C 165.077876 15.959741 165.077876 15.959741 165.077876 15.959741 Z"/>
 </g>
 <g>
  <defs>
   <filter id="HEGPLVsOTMlMZRH1jfuNCmILB25ipjPa" width="400%" height="400%" x="-200%" y="-200%" color-interpolation-filters="sRGB" filterUnits="objectBoundingBox">
    <feGaussianBlur xmlns="http://www.w3.org/2000/svg" stdDeviation="4.294"/>
   </filter>
  </defs>
  <g opacity=".4" filter="url(#HEGPLVsOTMlMZRH1jfuNCmILB25ipjPa)">
   <path d="M 90.830377 200.451424 C 85.374105 200.389456 82.410796 200.293298 82.210526 200.046595 C 82.210526 200.499895 82.439066 60.173238 82.439066 60.173238 C 83.14338 59.452838 86.853647 59.104819 101.047932 58.427725 C 110.403774 57.981481 129.798425 57.907334 135.769083 58.294885 C 145.988978 58.958481 151.05164 59.694551 157.664602 61.478313 C 164.248426 63.254205 169.482769 65.8838 170.191641 67.771448 C 170.439209 68.430593 171.679442 75.177344 172.559547 80.652214 C 173.18935 84.569933 173.680132 88.69368 173.680132 90.067626 C 173.680132 91.990713 172.89351 92.605055 169.514419 93.321037 C 165.362566 94.200704 162.522163 93.712725 145.200163 93.65791 C 126.598469 93.599147 125.728586 94.269256 123.102834 95.582559 C 119.641806 97.314647 117.639799 100.906119 117.391136 104.688091 C 117.312327 111.06598 121.983108 115.959546 126.306627 116.880266 C 132.107202 118.076791 138.908022 118.663776 157.981216 119.788717 C 160.545447 119.940076 163.090329 120.160375 163.207698 120.278562 C 163.588056 120.661566 163.496731 121.880329 163.649617 125.468438 C 163.825805 129.60308 163.484266 130.656106 162.195028 133.428368 C 159.440033 139.353079 152.338696 142.380796 140.626405 143.878798 C 136.848905 144.361928 132.703732 144.641224 129.216293 144.647634 C 127.029297 144.651196 125.201411 144.792227 124.186004 145.035013 C 120.304125 145.962504 117.75963 149.34423 117.396173 154.058887 C 117.215152 156.406488 117.614843 159.659474 118.70561 161.930368 C 120.544077 165.75852 123.585343 167.858497 128.536595 168.718642 C 135.479932 169.924818 141.47146 169.892038 158.767976 170.076763 L 173.736102 170.23667 L 173.73537 172.726569 C 173.734642 174.838441 173.915882 186.373043 173.614027 191.21612 L 173.457682 193.72609 C 171.331432 194.904645 168.133149 195.697113 166.129427 196.392864 C 164.275707 197.24696 157.204693 198.762581 152.142829 199.390849 C 144.026853 200.398192 141.322135 200.443778 119.451439 200.488651 C 107.642572 200.513581 94.763151 200.495774 90.830471 200.451511 L 90.830377 200.451424 Z"/>
  </g>
  <path fill="#d64310" d="M 90.830377 197.90759 C 85.374105 197.845622 82.410796 197.749464 82.210526 197.50276 C 82.210526 197.956061 82.439066 57.629402 82.439066 57.629402 C 83.14338 56.909003 86.853647 56.560983 101.047932 55.883889 C 110.403774 55.437645 129.798425 55.363498 135.769083 55.751049 C 145.988978 56.414645 151.05164 57.150715 157.664602 58.934477 C 164.248426 60.710369 169.482769 63.339964 170.191641 65.227613 C 170.439209 65.886756 171.679442 72.633508 172.559547 78.108377 C 173.18935 82.026096 173.680132 86.149843 173.680132 87.523789 C 173.680132 89.446876 172.89351 90.061218 169.514419 90.7772 C 165.362566 91.656867 162.522163 91.168888 145.200163 91.114073 C 126.598469 91.05531 125.728586 91.725421 123.102834 93.038725 C 119.641806 94.770813 117.639799 98.362285 117.391136 102.144257 C 117.312327 108.522145 121.983108 113.415712 126.306627 114.336432 C 132.107202 115.532956 138.908022 116.119942 157.981216 117.244882 C 160.545447 117.396242 163.090329 117.61654 163.207698 117.734728 C 163.588056 118.117732 163.496731 119.336495 163.649617 122.924604 C 163.825805 127.059246 163.484266 128.112271 162.195028 130.884534 C 159.440033 136.809244 152.338696 139.836961 140.626405 141.334964 C 136.848905 141.818094 132.703732 142.097389 129.216293 142.1038 C 127.029297 142.107361 125.201411 142.248393 124.186004 142.491179 C 120.304125 143.41867 117.75963 146.800396 117.396173 151.515053 C 117.215152 153.862654 117.614843 157.11564 118.70561 159.386533 C 120.544077 163.214686 123.585343 165.314663 128.536595 166.174808 C 135.479932 167.380984 141.47146 167.348204 158.767976 167.532929 L 173.736102 167.692836 L 173.73537 170.182735 C 173.734642 172.294607 173.915882 183.829209 173.614027 188.672286 L 173.457682 191.182256 C 171.331432 192.360811 168.133149 193.153279 166.129427 193.84903 C 164.275707 194.703126 157.204693 196.218747 152.142829 196.847014 C 144.026853 197.854357 141.322135 197.899943 119.451439 197.944817 C 107.642572 197.969747 94.763151 197.95194 90.830471 197.907677 L 90.830377 197.90759 Z"/>
  <g opacity=".1">
   <path fill="#ffffff" d="M 119.677804 55.504965 C 112.913328 55.530839 105.72394 55.659448 101.046019 55.88257 C 86.851734 56.559663 83.14339 56.911073 82.439076 57.631473 C 82.439076 57.631473 82.210526 197.95731 82.210526 197.504009 C 82.21088 197.504444 82.215123 197.503574 82.215494 197.504009 C 82.223507 193.012756 82.439076 60.175333 82.439076 60.175333 C 83.14339 59.454933 86.851734 59.103523 101.046019 58.426429 C 110.401861 57.980185 129.800041 57.909698 135.770698 58.297249 C 145.990593 58.960845 151.053808 59.693312 157.666769 61.477074 C 164.250594 63.252965 169.483428 65.884484 170.1923 67.772133 C 170.439868 68.431276 171.677189 75.175554 172.557293 80.650423 C 173.054063 83.740594 173.394859 86.584739 173.54602 88.480741 C 173.620115 88.193672 173.680168 87.898889 173.680168 87.521825 C 173.680168 86.147879 173.187097 82.024283 172.557293 78.106563 C 171.677189 72.631694 170.439868 65.887417 170.1923 65.228273 C 169.483428 63.340625 164.250594 60.709106 157.666769 58.933214 C 151.053808 57.149452 145.990593 56.416985 135.770698 55.753389 C 132.785369 55.559614 126.442278 55.479092 119.677804 55.504965 Z M 117.516515 103.694213 C 117.467376 104.024238 117.414275 104.353759 117.392304 104.68791 C 117.313495 111.065796 121.982231 115.959829 126.305749 116.880548 C 132.106324 118.077073 138.90659 118.662166 157.979784 119.787106 C 160.544015 119.938466 163.089253 120.160799 163.206622 120.278987 C 163.58698 120.661991 163.49593 121.877966 163.648816 125.466075 C 163.653784 125.58269 163.649648 125.647396 163.653784 125.759216 C 163.695816 124.976657 163.698408 124.086016 163.648816 122.922215 C 163.49593 119.334106 163.58698 118.118131 163.206622 117.735127 C 163.089253 117.61694 160.544015 117.394606 157.979784 117.243247 C 138.90659 116.118306 132.106324 115.533213 126.305749 114.336689 C 122.344092 113.49303 118.140087 109.29466 117.516515 103.694213 Z M 117.422115 153.895696 C 117.417104 153.952116 117.401653 154.002844 117.397272 154.059656 C 117.216251 156.407256 117.613215 159.658828 118.703982 161.929721 C 120.542449 165.757874 123.585346 167.856513 128.536597 168.716658 C 135.479932 169.922834 141.473256 169.893297 158.769772 170.078022 L 173.734823 170.237013 C 173.73482 170.229786 173.73482 170.189377 173.734823 170.182358 L 173.734823 167.693154 L 158.769772 167.534162 C 141.473256 167.349437 135.479932 167.378974 128.536597 166.172798 C 123.585346 165.312653 120.542449 163.214014 118.703982 159.385862 C 117.949519 157.815128 117.551847 155.781543 117.422115 153.895696 Z M 173.734823 170.237013 L 173.734823 172.726218 C 173.734507 173.637319 173.765517 176.696461 173.779539 179.821203 C 173.783214 175.561093 173.735087 171.453561 173.734823 170.237013 Z"/>
  </g>
  <path fill="#fb7c38" d="M 82.864066 57.461441 C 82.750585 57.519497 82.49947 57.565048 82.437543 57.628385 L 82.437543 57.857927 C 97.946954 75.74752 107.624575 102.489448 107.649123 129.526057 C 107.624702 155.793443 98.4429 179.84174 83.689592 197.677829 C 85.002964 197.788945 87.099557 197.865006 90.830377 197.907336 C 94.763057 197.951599 107.63968 197.967066 119.448551 197.942441 C 141.319243 197.897669 144.030214 197.857731 152.146189 196.850367 C 157.208053 196.2221 164.278223 194.706484 166.131943 193.852388 C 168.135665 193.156637 171.332218 192.35989 173.458473 191.181335 L 173.616701 188.670266 C 173.918555 183.827189 173.732955 172.297883 173.733617 170.186006 L 173.733617 167.695807 L 158.77099 167.535849 C 141.474479 167.351114 135.479508 167.378689 128.53617 166.172498 C 123.584918 165.312348 120.544019 163.21172 118.705546 159.383567 C 117.614775 157.112674 117.217424 153.861469 117.398465 151.513873 C 117.761932 146.799215 120.306524 143.419606 124.188408 142.49211 C 125.20381 142.249324 127.03023 142.106156 129.217222 142.102594 C 132.704665 142.09598 136.845718 141.820582 140.623217 141.337447 C 152.335503 139.839449 159.436932 136.807484 162.191927 130.882779 C 163.481145 128.110516 163.826545 127.059907 163.650352 122.925265 C 163.497466 119.337156 163.590419 118.119212 163.210061 117.736188 C 163.092687 117.618001 160.545968 117.393683 157.981742 117.242323 C 138.908549 116.117383 132.107805 115.531298 126.307235 114.334773 C 121.983716 113.414059 117.312747 108.52415 117.391571 102.146266 C 117.640259 98.364295 119.64042 94.773128 123.101448 93.041039 C 125.727219 91.727617 126.596304 91.055381 145.197998 91.114145 C 162.520003 91.168965 165.36471 91.65993 169.516564 90.780263 C 172.895654 90.064281 173.678588 89.447998 173.678588 87.524919 C 173.678588 87.063071 173.556025 85.970926 173.458442 84.999937 C 149.835134 69.451993 117.614011 59.657553 82.864066 57.461441 Z"/>
  <path fill="#fec589" d="M 163.354567 118.062789 C 130.6204 121.972982 107.689499 137.568459 107.649123 154.966277 C 107.683719 174.484977 135.9167 189.179028 173.492871 190.68718 L 173.616706 188.669976 C 173.91856 183.826904 173.73296 172.297593 173.733622 170.185721 L 173.733622 167.695517 L 158.770995 167.535559 C 141.474484 167.350824 135.479513 167.378399 128.536175 166.172208 C 123.584923 165.312063 120.544024 163.21143 118.705556 159.383282 C 117.61478 157.112389 117.217429 153.861184 117.398475 151.513583 C 117.761942 146.798931 120.306529 143.419316 124.188413 142.491825 C 125.203815 142.249039 127.030235 142.105871 129.217227 142.102309 C 132.70467 142.095695 136.845723 141.820297 140.623222 141.337162 C 152.335509 139.839164 159.436942 136.807204 162.191937 130.882494 C 163.48115 128.110231 163.826545 127.059622 163.650357 122.92498 C 163.524284 119.965907 163.549977 118.659228 163.354557 118.06283 L 163.354567 118.062789 Z"/>
  <g opacity=".2">
   <path d="M 107.72365 156.593576 C 107.70348 156.900432 107.649843 157.204258 107.649123 157.512744 C 107.683719 177.031446 135.915197 191.718003 173.491365 193.226151 L 173.620547 191.208949 C 173.76165 188.945064 173.77978 185.692304 173.77457 182.434622 C 173.759902 184.770643 173.723324 187.016124 173.620547 188.665089 L 173.491365 190.682291 C 136.964297 189.216249 109.273515 175.298717 107.72365 156.593576 Z"/>
  </g>
  <g opacity=".2">
   <path fill="#ffffff" d="M 82.866363 57.462545 C 82.752882 57.520601 82.501004 57.563168 82.439076 57.626505 L 82.439076 57.860023 C 83.072284 58.590409 83.678811 59.356396 84.292316 60.115711 C 118.494922 62.487303 150.157985 72.207465 173.456588 87.541698 C 173.492825 87.90229 173.505478 88.125216 173.541052 88.480741 C 173.614765 88.19375 173.680168 87.903499 173.680168 87.526794 C 173.680168 87.064946 173.55417 85.968827 173.456588 84.997838 C 149.833279 69.449895 117.616309 59.658656 82.866363 57.462545 Z M 117.516515 103.694213 C 117.467399 104.024235 117.414278 104.353759 117.392304 104.68791 C 117.31348 111.065791 121.982231 115.959834 126.305749 116.880548 C 132.106319 118.077073 138.90659 118.662166 157.979784 119.787106 C 160.54401 119.938466 163.094216 120.160799 163.21159 120.278987 C 163.591948 120.662011 163.49593 121.882934 163.648816 125.471043 C 163.65371 125.585903 163.649704 125.649014 163.653784 125.759216 C 163.696256 124.976931 163.698408 124.090984 163.648816 122.927183 C 163.49593 119.339074 163.591948 118.118151 163.21159 117.735127 C 163.094216 117.61694 160.54401 117.394606 157.979784 117.243247 C 138.90659 116.118306 132.106319 115.533213 126.305749 114.336689 C 122.343321 113.49287 118.138812 109.295784 117.516515 103.694213 Z M 107.619311 130.832029 C 107.29604 156.587662 98.198486 180.139163 83.691131 197.677905 C 84.051248 197.708373 85.153288 197.717271 85.64871 197.742496 C 99.243798 180.185135 107.625808 157.145655 107.649123 132.069179 C 107.648749 131.656262 107.624175 131.244778 107.619311 130.832029 Z M 117.422115 153.895696 C 117.417107 153.952096 117.40165 154.002864 117.397272 154.059656 C 117.216231 156.407251 117.61321 159.658828 118.703982 161.929721 C 120.542454 165.757874 123.585346 167.856508 128.536597 168.716658 C 135.479935 169.922849 141.473261 169.893287 158.769772 170.078022 L 173.734823 170.241981 C 173.73482 170.234752 173.73482 170.19435 173.734823 170.187327 L 173.734823 167.698122 L 158.769772 167.534162 C 141.473261 167.349427 135.479935 167.378989 128.536597 166.172798 C 123.585346 165.312648 120.542454 163.214014 118.703982 159.385862 C 117.949669 157.815443 117.551242 155.780699 117.422115 153.895696 Z M 173.734823 170.241981 L 173.734823 172.731186 C 173.734533 173.656889 173.769961 176.747173 173.784507 179.935478 C 173.788127 175.635987 173.735143 171.469684 173.734823 170.241981 Z"/>
  </g>
  <g opacity=".2">
   <path fill="#ffffff" d="M 163.355677 118.063046 C 130.621509 121.973238 107.689499 137.566099 107.649123 154.963916 C 107.64985 155.373857 107.678347 155.780556 107.703775 156.186162 C 108.869008 139.326098 131.453575 124.417704 163.355677 120.606906 C 163.551093 121.203304 163.522742 122.511969 163.648816 125.471043 C 163.65371 125.585903 163.649704 125.649014 163.653784 125.759216 C 163.696256 124.976931 163.698408 124.090984 163.648816 122.927183 C 163.522742 119.96811 163.551093 118.659444 163.355677 118.063046 Z M 117.422115 153.895696 C 117.417107 153.952096 117.40165 154.002864 117.397272 154.059656 C 117.216226 156.407256 117.613205 159.653857 118.703982 161.924753 C 120.542449 165.752898 123.585346 167.856513 128.536597 168.716658 C 135.479935 169.922849 141.473261 169.893287 158.769772 170.078022 L 173.734823 170.237013 C 173.73482 170.230458 173.73482 170.193712 173.734823 170.187327 L 173.734823 167.693154 L 158.769772 167.534162 C 141.473261 167.349427 135.479935 167.378989 128.536597 166.172798 C 123.585346 165.312653 120.542449 163.209041 118.703982 159.380894 C 117.949664 157.810475 117.551239 155.780701 117.422115 153.895696 Z M 173.734823 170.237013 L 173.734823 172.731186 C 173.734533 173.656889 173.769961 176.747173 173.784507 179.935478 C 173.788127 175.633684 173.73508 171.462169 173.734823 170.237013 Z"/>
  </g>
 </g>
</svg>
