<svg xmlns="http://www.w3.org/2000/svg" style="isolation:isolate" width="256" height="256" viewBox="0 0 256 256">
 <defs>
  <clipPath id="_clipPath_9OjRF6tWKDcLl9RKzJhp7af7s0CypypO">
   <rect width="256" height="256"/>
  </clipPath>
 </defs>
 <g clip-path="url(#_clipPath_9OjRF6tWKDcLl9RKzJhp7af7s0CypypO)">
  <defs>
   <filter id="ArA6hNytuxUkUgzHCnCc4L3f9dgnSNGp" width="400%" height="400%" x="-200%" y="-200%" color-interpolation-filters="sRGB" filterUnits="objectBoundingBox">
    <feGaussianBlur xmlns="http://www.w3.org/2000/svg" in="SourceGraphic" stdDeviation="4.294"/>
    <feOffset xmlns="http://www.w3.org/2000/svg" dx="0" dy="4" result="pf_100_offsetBlur"/>
    <feFlood xmlns="http://www.w3.org/2000/svg" flood-opacity=".4"/>
    <feComposite xmlns="http://www.w3.org/2000/svg" in2="pf_100_offsetBlur" operator="in" result="pf_100_dropShadow"/>
    <feBlend xmlns="http://www.w3.org/2000/svg" in="SourceGraphic" in2="pf_100_dropShadow" mode="normal"/>
   </filter>
  </defs>
  <g filter="url(#ArA6hNytuxUkUgzHCnCc4L3f9dgnSNGp)">
   <linearGradient id="_lgradient_40" x1="0" x2="0" y1="0" y2="1" gradientTransform="matrix(244.648,0,0,228.338,5.68,11.95)" gradientUnits="userSpaceOnUse">
    <stop offset="0%" style="stop-color:#b01fd1"/>
    <stop offset="100%" style="stop-color:#aa00ff"/>
   </linearGradient>
   <path fill="url(#_lgradient_40)" d="M 165.689 11.95 C 239.745 11.95 250.328 22.507 250.328 96.494 L 250.328 155.745 C 250.328 229.731 239.745 240.288 165.689 240.288 L 90.319 240.288 C 16.264 240.288 5.68 229.731 5.68 155.745 L 5.68 96.494 C 5.68 22.507 16.264 11.95 90.319 11.95 L 165.689 11.95 Z"/>
  </g>
  <g opacity=".4">
   <linearGradient id="_lgradient_41" x1=".517" x2=".517" y1="0" y2="1" gradientTransform="matrix(244.65,0,0,228.34,5.68,11.95)" gradientUnits="userSpaceOnUse">
    <stop offset="0%" style="stop-color:#ffffff"/>
    <stop offset="12.5%" stop-opacity=".098" style="stop-color:#ffffff"/>
    <stop offset="92.5%" stop-opacity=".098" style="stop-color:#000000"/>
    <stop offset="100%" stop-opacity=".498" style="stop-color:#000000"/>
   </linearGradient>
   <path fill="url(#_lgradient_41)" fill-rule="evenodd" d="M 165.068 11.951 C 169.396 11.941 173.724 11.991 178.052 12.089 C 181.927 12.167 185.803 12.315 189.678 12.541 C 193.131 12.737 196.583 13.022 200.026 13.395 C 203.085 13.73 206.144 14.181 209.174 14.741 C 211.889 15.243 214.574 15.881 217.22 16.657 C 219.62 17.355 221.971 18.219 224.243 19.241 C 226.358 20.184 228.384 21.304 230.302 22.591 C 232.142 23.829 233.863 25.244 235.437 26.806 C 237.001 28.378 238.417 30.088 239.656 31.925 C 240.945 33.841 242.066 35.865 243.02 37.967 C 244.043 40.247 244.909 42.585 245.617 44.972 C 246.394 47.615 247.034 50.297 247.535 53.009 C 248.096 56.035 248.548 59.081 248.883 62.136 C 249.257 65.575 249.542 69.014 249.739 72.462 C 249.965 76.323 250.112 80.194 250.201 84.055 C 250.289 88.378 250.339 92.701 250.329 97.014 L 250.329 155.226 C 250.339 159.549 250.289 163.862 250.201 168.185 C 250.112 172.056 249.965 175.917 249.739 179.778 C 249.542 183.226 249.257 186.675 248.883 190.104 C 248.548 193.159 248.096 196.215 247.535 199.241 C 247.034 201.943 246.394 204.625 245.617 207.268 C 244.909 209.655 244.043 212.003 243.02 214.273 C 242.066 216.385 240.945 218.399 239.656 220.315 C 238.417 222.152 237.001 223.872 235.437 225.434 C 233.863 226.996 232.142 228.411 230.302 229.649 C 228.384 230.936 226.358 232.056 224.243 232.999 C 221.971 234.021 219.62 234.885 217.22 235.593 C 214.574 236.369 211.889 237.007 209.174 237.499 C 206.144 238.068 203.085 238.51 200.026 238.845 C 196.583 239.218 193.131 239.503 189.678 239.699 C 185.803 239.925 181.927 240.073 178.052 240.161 C 173.724 240.249 169.396 240.299 165.068 240.289 L 90.942 240.289 C 86.614 240.299 82.286 240.249 77.958 240.161 C 74.083 240.073 70.207 239.925 66.332 239.699 C 62.879 239.503 59.427 239.218 55.984 238.845 C 52.925 238.51 49.866 238.068 46.836 237.499 C 44.121 237.007 41.436 236.369 38.79 235.593 C 36.39 234.885 34.039 234.021 31.767 232.999 C 29.652 232.056 27.626 230.936 25.708 229.649 C 23.868 228.411 22.147 226.996 20.573 225.434 C 19.009 223.872 17.593 222.152 16.354 220.315 C 15.065 218.399 13.944 216.385 12.99 214.273 C 11.967 212.003 11.101 209.655 10.393 207.268 C 9.616 204.625 8.976 201.943 8.475 199.241 C 7.914 196.215 7.462 193.159 7.127 190.104 C 6.753 186.675 6.468 183.226 6.271 179.778 C 6.045 175.917 5.898 172.056 5.809 168.185 C 5.721 163.862 5.671 159.549 5.681 155.226 L 5.681 97.014 C 5.671 92.701 5.721 88.378 5.809 84.055 C 5.898 80.194 6.045 76.323 6.271 72.462 C 6.468 69.014 6.753 65.575 7.127 62.136 C 7.462 59.081 7.914 56.035 8.475 53.009 C 8.976 50.297 9.616 47.615 10.393 44.972 C 11.101 42.585 11.967 40.247 12.99 37.967 C 13.944 35.865 15.065 33.841 16.354 31.925 C 17.593 30.088 19.009 28.378 20.573 26.806 C 22.147 25.244 23.868 23.829 25.708 22.591 C 27.626 21.304 29.652 20.184 31.767 19.241 C 34.039 18.219 36.39 17.355 38.79 16.657 C 41.436 15.881 44.121 15.243 46.836 14.741 C 49.866 14.181 52.925 13.73 55.984 13.395 C 59.427 13.022 62.879 12.737 66.332 12.541 C 70.207 12.315 74.083 12.167 77.958 12.089 C 82.286 11.991 86.614 11.941 90.942 11.951 L 165.068 11.951 Z M 165.078 15.96 C 169.376 15.95 173.675 15.999 177.973 16.087 C 181.8 16.176 185.626 16.323 189.452 16.539 C 192.836 16.736 196.219 17.011 199.583 17.384 C 202.554 17.699 205.515 18.131 208.446 18.681 C 211.023 19.153 213.58 19.762 216.099 20.499 C 218.322 21.147 220.495 21.953 222.6 22.896 C 224.509 23.751 226.338 24.763 228.069 25.922 C 229.692 27.013 231.207 28.26 232.594 29.646 C 233.981 31.031 235.23 32.544 236.332 34.165 C 237.492 35.894 238.506 37.712 239.361 39.608 C 240.306 41.72 241.112 43.892 241.761 46.102 C 242.509 48.617 243.109 51.162 243.591 53.736 C 244.132 56.664 244.565 59.611 244.889 62.578 C 245.263 65.938 245.539 69.308 245.735 72.688 C 245.952 76.51 246.109 80.322 246.188 84.144 C 246.276 88.437 246.325 92.721 246.325 97.014 C 246.325 97.014 246.325 97.014 246.325 97.014 L 246.325 155.226 C 246.325 155.226 246.325 155.226 246.325 155.226 C 246.325 159.519 246.276 163.803 246.188 168.096 C 246.109 171.918 245.952 175.74 245.735 179.552 C 245.539 182.932 245.263 186.302 244.889 189.672 C 244.565 192.629 244.132 195.576 243.591 198.504 C 243.109 201.078 242.509 203.623 241.761 206.138 C 241.112 208.358 240.306 210.52 239.361 212.632 C 238.506 214.528 237.492 216.356 236.332 218.075 C 235.23 219.706 233.981 221.219 232.594 222.604 C 231.207 223.98 229.692 225.227 228.069 226.318 C 226.338 227.477 224.509 228.489 222.6 229.344 C 220.495 230.297 218.322 231.093 216.099 231.741 C 213.58 232.478 211.023 233.087 208.446 233.559 C 205.515 234.109 202.554 234.541 199.583 234.865 C 196.219 235.229 192.836 235.514 189.452 235.701 C 185.626 235.917 181.8 236.074 177.973 236.153 C 173.675 236.251 169.376 236.29 165.078 236.29 C 165.078 236.29 165.078 236.29 165.068 236.29 L 90.942 236.29 C 90.932 236.29 90.932 236.29 90.932 236.29 C 86.634 236.29 82.335 236.251 78.037 236.153 C 74.21 236.074 70.384 235.917 66.558 235.701 C 63.174 235.514 59.791 235.229 56.427 234.865 C 53.456 234.541 50.495 234.109 47.564 233.559 C 44.987 233.087 42.43 232.478 39.911 231.741 C 37.688 231.093 35.515 230.297 33.41 229.344 C 31.501 228.489 29.672 227.477 27.941 226.318 C 26.318 225.227 24.803 223.98 23.416 222.604 C 22.029 221.219 20.78 219.706 19.678 218.075 C 18.518 216.356 17.504 214.528 16.649 212.632 C 15.704 210.52 14.898 208.358 14.249 206.138 C 13.501 203.623 12.901 201.078 12.419 198.504 C 11.878 195.576 11.445 192.629 11.121 189.672 C 10.747 186.302 10.472 182.932 10.275 179.552 C 10.058 175.74 9.901 171.918 9.822 168.096 C 9.734 163.803 9.685 159.519 9.685 155.226 C 9.685 155.226 9.685 155.226 9.685 155.226 L 9.685 97.014 C 9.685 97.014 9.685 97.014 9.685 97.014 C 9.685 92.721 9.734 88.437 9.822 84.144 C 9.901 80.322 10.058 76.51 10.275 72.688 C 10.472 69.308 10.747 65.938 11.121 62.578 C 11.445 59.611 11.878 56.664 12.419 53.736 C 12.901 51.162 13.501 48.617 14.249 46.102 C 14.898 43.892 15.704 41.72 16.649 39.608 C 17.504 37.712 18.518 35.894 19.678 34.165 C 20.78 32.544 22.029 31.031 23.416 29.646 C 24.803 28.26 26.318 27.013 27.941 25.922 C 29.672 24.763 31.501 23.751 33.41 22.896 C 35.515 21.953 37.688 21.147 39.911 20.499 C 42.43 19.762 44.987 19.153 47.564 18.681 C 50.495 18.131 53.456 17.699 56.427 17.384 C 59.791 17.011 63.174 16.736 66.558 16.539 C 70.384 16.323 74.21 16.176 78.037 16.087 C 82.335 15.999 86.634 15.95 90.932 15.96 C 90.932 15.96 90.932 15.96 90.942 15.96 L 165.068 15.96 C 165.078 15.96 165.078 15.96 165.078 15.96 Z"/>
  </g>
  <g>
   <defs>
    <filter id="001wPiS1ljeMBNz3GVX74UNStUdvb7GQ" width="400%" height="400%" x="-200%" y="-200%" color-interpolation-filters="sRGB" filterUnits="objectBoundingBox">
     <feGaussianBlur xmlns="http://www.w3.org/2000/svg" stdDeviation="4.294"/>
    </filter>
   </defs>
   <g opacity=".4" filter="url(#001wPiS1ljeMBNz3GVX74UNStUdvb7GQ)">
    <path d="M 181.394 164.709 C 179.085 189.351 157.492 209.5 128.007 209.5 C 98.523 209.5 77.142 189.332 74.621 164.709 C 72.088 139.972 97.712 47.766 128.007 47.397 C 158.505 47.025 183.797 139.067 181.394 164.709 Z"/>
   </g>
   <path fill="#eab305" d="M 181.394 161.815 C 179.085 186.456 157.492 206.605 128.007 206.605 C 98.523 206.605 77.142 186.437 74.621 161.815 C 72.088 137.077 97.712 44.871 128.007 44.502 C 158.505 44.131 183.797 136.172 181.394 161.815 Z"/>
   <g opacity=".4">
    <path fill="#3b3b3b" fill-rule="evenodd" d="M 142.428 56.691 C 142.253 56.713 142.563 57.567 144.013 61.799 C 147.768 72.754 151.034 85.178 152.841 95.373 C 154.193 102.996 154.787 111.027 155.016 124.776 C 155.138 132.055 155.373 138.011 155.537 138.011 C 155.889 138.011 156.408 135.671 157.189 130.55 C 160.116 111.363 157.813 91.75 150.349 72.277 C 148.545 67.57 143.467 57.274 142.741 56.851 C 142.599 56.769 142.487 56.683 142.428 56.691 L 142.428 56.691 L 142.428 56.691 L 142.428 56.691 L 142.428 56.691 L 142.428 56.691 L 142.428 56.691 Z M 116.157 60.713 C 115.921 60.663 115.429 61.92 114.685 64.48 C 113.069 70.049 112.406 74.878 112.156 82.884 C 111.886 91.563 112.264 96.229 114.242 108.675 C 117.198 127.268 118.846 140.288 118.846 145.046 C 118.846 146.368 118.967 147.995 119.116 148.66 L 119.388 149.869 L 119.713 148.794 C 119.891 148.203 120.247 143.932 120.503 139.302 C 121.207 126.551 120.647 119.094 116.793 89.869 C 115.886 82.988 115.583 70.213 116.177 63.899 C 116.373 61.819 116.365 60.757 116.157 60.713 L 116.157 60.713 L 116.157 60.713 L 116.157 60.713 L 116.157 60.713 L 116.157 60.713 L 116.157 60.713 Z M 96.153 94.418 C 95.704 94.307 90.495 105.725 89.315 109.408 C 89.064 110.19 88.619 113.387 88.326 116.514 C 88.033 119.641 87.353 124.678 86.815 127.707 C 86.065 131.926 85.9 134.254 86.112 137.656 C 86.369 141.79 86.633 143.133 87.884 146.65 C 88.233 147.633 88.588 147.973 89.174 147.889 C 89.857 147.791 89.998 147.252 90.083 144.402 C 90.233 139.369 90.902 136.129 94.411 123.443 L 97.605 111.895 L 97.541 104.966 C 97.476 97.884 97.049 94.641 96.153 94.418 L 96.153 94.418 L 96.153 94.418 L 96.153 94.418 L 96.153 94.418 L 96.153 94.418 Z M 167.885 95.694 C 168.187 96.805 168.441 97.885 168.642 98.926 C 169.412 102.908 169.992 108.971 169.993 113.05 C 169.993 118.176 170.822 117.234 171.322 111.54 C 171.514 109.347 171.672 108.056 171.835 107.429 C 170.614 103.502 169.296 99.569 167.885 95.694 L 167.885 95.694 L 167.885 95.694 L 167.885 95.694 Z M 141.37 116.692 C 141.162 116.692 141.089 117.053 141.207 117.494 C 142.15 121.034 142.751 127.865 142.739 134.915 C 142.732 139.183 142.867 142.421 143.039 142.132 C 144.033 140.458 144.454 130.166 143.736 125.07 C 143.24 121.544 141.869 116.692 141.37 116.692 L 141.37 116.692 L 141.37 116.692 Z M 176.801 149.327 C 176.749 149.32 176.691 149.35 176.628 149.412 C 176.543 149.493 176.111 151.592 175.667 154.075 C 173.069 168.6 167.269 183.233 159.781 194.152 C 157.45 197.552 156.225 199.172 154.815 200.272 C 160.659 197.237 165.734 193.231 169.846 188.514 C 170.051 188.027 170.291 187.486 170.577 186.904 C 174.961 177.965 177.253 167.511 177.268 156.395 C 177.274 151.188 177.168 149.372 176.801 149.327 L 176.801 149.327 L 176.801 149.327 Z M 91.863 166.76 C 91.69 166.806 91.485 167.27 91.276 168.19 C 90.764 170.439 91.386 179.597 92.221 182.103 C 92.52 183 93.284 184.399 93.918 185.212 C 94.553 186.025 95.227 186.691 95.417 186.691 C 95.841 186.691 95.844 186.765 95.361 185.267 C 93.677 180.045 92.369 173.318 92.361 169.839 C 92.356 167.768 92.152 166.683 91.863 166.76 L 91.863 166.76 Z"/>
   </g>
   <path fill="#3b3b3b" fill-rule="evenodd" d="M 125.945 189.042 C 122.559 188.299 119.588 186.123 118.387 183.507 C 117.581 181.751 117.712 180.637 118.8 179.988 C 120.105 179.21 121.044 179.73 122.383 181.969 C 123.722 184.208 125.556 185.294 128 185.294 C 130.559 185.294 132.336 184.195 133.677 181.784 C 134.888 179.606 135.787 179.145 137.193 179.984 C 138.293 180.64 138.421 181.747 137.602 183.531 C 135.847 187.355 130.269 189.992 125.945 189.042 L 125.945 189.042 Z M 94.834 174.061 C 94.324 172.771 95.47 168.929 96.912 167.096 C 101.448 161.327 110.503 162.066 113.853 168.479 C 115.121 170.905 115.382 174.763 114.28 174.763 C 113.923 174.763 113.63 174.61 113.63 174.423 C 113.63 174.236 112.997 173.452 112.224 172.681 C 108.993 169.46 103.918 168.757 99.928 170.976 C 98.699 171.659 97.274 172.791 96.76 173.491 C 95.701 174.934 95.234 175.072 94.834 174.061 L 94.834 174.061 L 94.834 174.061 Z M 161.166 174.061 C 161.676 172.771 160.53 168.929 159.088 167.096 C 154.552 161.327 145.497 162.066 142.147 168.479 C 140.879 170.905 140.618 174.763 141.72 174.763 C 142.077 174.763 142.37 174.61 142.37 174.423 C 142.37 174.236 143.003 173.452 143.776 172.681 C 147.007 169.46 152.082 168.757 156.072 170.976 C 157.301 171.659 158.726 172.791 159.24 173.491 C 160.299 174.934 160.766 175.072 161.166 174.061 L 161.166 174.061 Z"/>
   <g opacity=".2">
    <path fill="#ffffff" d="M 128.006 44.501 C 98.623 44.859 73.638 131.596 74.47 159.391 C 75.27 128.937 99.58 47.742 128.006 47.396 C 156.702 47.046 180.779 128.498 181.524 159.487 C 182.366 131.065 157.648 44.14 128.006 44.501 Z"/>
   </g>
  </g>
 </g>
</svg>
