<svg xmlns="http://www.w3.org/2000/svg" style="isolation:isolate" width="256" height="256" viewBox="0 0 256 256">
 <defs>
  <clipPath id="_clipPath_ZdJWIssWHBZ91IPefiCK7qVutIKb6pQV">
   <rect width="256" height="256"/>
  </clipPath>
 </defs>
 <g clip-path="url(#_clipPath_ZdJWIssWHBZ91IPefiCK7qVutIKb6pQV)">
  <defs>
   <filter id="RpnfeWTpOgiQI6mjX84XoJy1n8A3JwUJ" width="400%" height="400%" x="-200%" y="-200%" color-interpolation-filters="sRGB" filterUnits="objectBoundingBox">
    <feGaussianBlur xmlns="http://www.w3.org/2000/svg" in="SourceGraphic" stdDeviation="4.294"/>
    <feOffset xmlns="http://www.w3.org/2000/svg" dx="0" dy="4" result="pf_100_offsetBlur"/>
    <feFlood xmlns="http://www.w3.org/2000/svg" flood-opacity=".4"/>
    <feComposite xmlns="http://www.w3.org/2000/svg" in2="pf_100_offsetBlur" operator="in" result="pf_100_dropShadow"/>
    <feBlend xmlns="http://www.w3.org/2000/svg" in="SourceGraphic" in2="pf_100_dropShadow" mode="normal"/>
   </filter>
  </defs>
  <g filter="url(#RpnfeWTpOgiQI6mjX84XoJy1n8A3JwUJ)">
   <linearGradient id="_lgradient_19" x1="0" x2="0" y1="0" y2="1" gradientTransform="matrix(244.648,0,0,228.338,5.68,11.95)" gradientUnits="userSpaceOnUse">
    <stop offset="0%" style="stop-color:#4c5561"/>
    <stop offset="100%" style="stop-color:#2e3842"/>
   </linearGradient>
   <path fill="url(#_lgradient_19)" d="M 165.689 11.95 C 239.745 11.95 250.328 22.507 250.328 96.494 L 250.328 155.745 C 250.328 229.731 239.745 240.288 165.689 240.288 L 90.319 240.288 C 16.264 240.288 5.68 229.731 5.68 155.745 L 5.68 96.494 C 5.68 22.507 16.264 11.95 90.319 11.95 L 165.689 11.95 Z"/>
  </g>
  <g opacity=".4">
   <linearGradient id="_lgradient_20" x1=".517" x2=".517" y1="0" y2="1" gradientTransform="matrix(244.65,0,0,228.34,5.68,11.95)" gradientUnits="userSpaceOnUse">
    <stop offset="0%" style="stop-color:#ffffff"/>
    <stop offset="12.5%" stop-opacity=".098" style="stop-color:#ffffff"/>
    <stop offset="92.5%" stop-opacity=".098" style="stop-color:#000000"/>
    <stop offset="100%" stop-opacity=".498" style="stop-color:#000000"/>
   </linearGradient>
   <path fill="url(#_lgradient_20)" fill-rule="evenodd" d="M 165.068 11.951 C 169.396 11.941 173.724 11.991 178.052 12.089 C 181.927 12.167 185.803 12.315 189.678 12.541 C 193.131 12.737 196.583 13.022 200.026 13.395 C 203.085 13.73 206.144 14.181 209.174 14.741 C 211.889 15.243 214.574 15.881 217.22 16.657 C 219.62 17.355 221.971 18.219 224.243 19.241 C 226.358 20.184 228.384 21.304 230.302 22.591 C 232.142 23.829 233.863 25.244 235.437 26.806 C 237.001 28.378 238.417 30.088 239.656 31.925 C 240.945 33.841 242.066 35.865 243.02 37.967 C 244.043 40.247 244.909 42.585 245.617 44.972 C 246.394 47.615 247.034 50.297 247.535 53.009 C 248.096 56.035 248.548 59.081 248.883 62.136 C 249.257 65.575 249.542 69.014 249.739 72.462 C 249.965 76.323 250.112 80.194 250.201 84.055 C 250.289 88.378 250.339 92.701 250.329 97.014 L 250.329 155.226 C 250.339 159.549 250.289 163.862 250.201 168.185 C 250.112 172.056 249.965 175.917 249.739 179.778 C 249.542 183.226 249.257 186.675 248.883 190.104 C 248.548 193.159 248.096 196.215 247.535 199.241 C 247.034 201.943 246.394 204.625 245.617 207.268 C 244.909 209.655 244.043 212.003 243.02 214.273 C 242.066 216.385 240.945 218.399 239.656 220.315 C 238.417 222.152 237.001 223.872 235.437 225.434 C 233.863 226.996 232.142 228.411 230.302 229.649 C 228.384 230.936 226.358 232.056 224.243 232.999 C 221.971 234.021 219.62 234.885 217.22 235.593 C 214.574 236.369 211.889 237.007 209.174 237.499 C 206.144 238.068 203.085 238.51 200.026 238.845 C 196.583 239.218 193.131 239.503 189.678 239.699 C 185.803 239.925 181.927 240.073 178.052 240.161 C 173.724 240.249 169.396 240.299 165.068 240.289 L 90.942 240.289 C 86.614 240.299 82.286 240.249 77.958 240.161 C 74.083 240.073 70.207 239.925 66.332 239.699 C 62.879 239.503 59.427 239.218 55.984 238.845 C 52.925 238.51 49.866 238.068 46.836 237.499 C 44.121 237.007 41.436 236.369 38.79 235.593 C 36.39 234.885 34.039 234.021 31.767 232.999 C 29.652 232.056 27.626 230.936 25.708 229.649 C 23.868 228.411 22.147 226.996 20.573 225.434 C 19.009 223.872 17.593 222.152 16.354 220.315 C 15.065 218.399 13.944 216.385 12.99 214.273 C 11.967 212.003 11.101 209.655 10.393 207.268 C 9.616 204.625 8.976 201.943 8.475 199.241 C 7.914 196.215 7.462 193.159 7.127 190.104 C 6.753 186.675 6.468 183.226 6.271 179.778 C 6.045 175.917 5.898 172.056 5.809 168.185 C 5.721 163.862 5.671 159.549 5.681 155.226 L 5.681 97.014 C 5.671 92.701 5.721 88.378 5.809 84.055 C 5.898 80.194 6.045 76.323 6.271 72.462 C 6.468 69.014 6.753 65.575 7.127 62.136 C 7.462 59.081 7.914 56.035 8.475 53.009 C 8.976 50.297 9.616 47.615 10.393 44.972 C 11.101 42.585 11.967 40.247 12.99 37.967 C 13.944 35.865 15.065 33.841 16.354 31.925 C 17.593 30.088 19.009 28.378 20.573 26.806 C 22.147 25.244 23.868 23.829 25.708 22.591 C 27.626 21.304 29.652 20.184 31.767 19.241 C 34.039 18.219 36.39 17.355 38.79 16.657 C 41.436 15.881 44.121 15.243 46.836 14.741 C 49.866 14.181 52.925 13.73 55.984 13.395 C 59.427 13.022 62.879 12.737 66.332 12.541 C 70.207 12.315 74.083 12.167 77.958 12.089 C 82.286 11.991 86.614 11.941 90.942 11.951 L 165.068 11.951 Z M 165.078 15.96 C 169.376 15.95 173.675 15.999 177.973 16.087 C 181.8 16.176 185.626 16.323 189.452 16.539 C 192.836 16.736 196.219 17.011 199.583 17.384 C 202.554 17.699 205.515 18.131 208.446 18.681 C 211.023 19.153 213.58 19.762 216.099 20.499 C 218.322 21.147 220.495 21.953 222.6 22.896 C 224.509 23.751 226.338 24.763 228.069 25.922 C 229.692 27.013 231.207 28.26 232.594 29.646 C 233.981 31.031 235.23 32.544 236.332 34.165 C 237.492 35.894 238.506 37.712 239.361 39.608 C 240.306 41.72 241.112 43.892 241.761 46.102 C 242.509 48.617 243.109 51.162 243.591 53.736 C 244.132 56.664 244.565 59.611 244.889 62.578 C 245.263 65.938 245.539 69.308 245.735 72.688 C 245.952 76.51 246.109 80.322 246.188 84.144 C 246.276 88.437 246.325 92.721 246.325 97.014 C 246.325 97.014 246.325 97.014 246.325 97.014 L 246.325 155.226 C 246.325 155.226 246.325 155.226 246.325 155.226 C 246.325 159.519 246.276 163.803 246.188 168.096 C 246.109 171.918 245.952 175.74 245.735 179.552 C 245.539 182.932 245.263 186.302 244.889 189.672 C 244.565 192.629 244.132 195.576 243.591 198.504 C 243.109 201.078 242.509 203.623 241.761 206.138 C 241.112 208.358 240.306 210.52 239.361 212.632 C 238.506 214.528 237.492 216.356 236.332 218.075 C 235.23 219.706 233.981 221.219 232.594 222.604 C 231.207 223.98 229.692 225.227 228.069 226.318 C 226.338 227.477 224.509 228.489 222.6 229.344 C 220.495 230.297 218.322 231.093 216.099 231.741 C 213.58 232.478 211.023 233.087 208.446 233.559 C 205.515 234.109 202.554 234.541 199.583 234.865 C 196.219 235.229 192.836 235.514 189.452 235.701 C 185.626 235.917 181.8 236.074 177.973 236.153 C 173.675 236.251 169.376 236.29 165.078 236.29 C 165.078 236.29 165.078 236.29 165.068 236.29 L 90.942 236.29 C 90.932 236.29 90.932 236.29 90.932 236.29 C 86.634 236.29 82.335 236.251 78.037 236.153 C 74.21 236.074 70.384 235.917 66.558 235.701 C 63.174 235.514 59.791 235.229 56.427 234.865 C 53.456 234.541 50.495 234.109 47.564 233.559 C 44.987 233.087 42.43 232.478 39.911 231.741 C 37.688 231.093 35.515 230.297 33.41 229.344 C 31.501 228.489 29.672 227.477 27.941 226.318 C 26.318 225.227 24.803 223.98 23.416 222.604 C 22.029 221.219 20.78 219.706 19.678 218.075 C 18.518 216.356 17.504 214.528 16.649 212.632 C 15.704 210.52 14.898 208.358 14.249 206.138 C 13.501 203.623 12.901 201.078 12.419 198.504 C 11.878 195.576 11.445 192.629 11.121 189.672 C 10.747 186.302 10.472 182.932 10.275 179.552 C 10.058 175.74 9.901 171.918 9.822 168.096 C 9.734 163.803 9.685 159.519 9.685 155.226 C 9.685 155.226 9.685 155.226 9.685 155.226 L 9.685 97.014 C 9.685 97.014 9.685 97.014 9.685 97.014 C 9.685 92.721 9.734 88.437 9.822 84.144 C 9.901 80.322 10.058 76.51 10.275 72.688 C 10.472 69.308 10.747 65.938 11.121 62.578 C 11.445 59.611 11.878 56.664 12.419 53.736 C 12.901 51.162 13.501 48.617 14.249 46.102 C 14.898 43.892 15.704 41.72 16.649 39.608 C 17.504 37.712 18.518 35.894 19.678 34.165 C 20.78 32.544 22.029 31.031 23.416 29.646 C 24.803 28.26 26.318 27.013 27.941 25.922 C 29.672 24.763 31.501 23.751 33.41 22.896 C 35.515 21.953 37.688 21.147 39.911 20.499 C 42.43 19.762 44.987 19.153 47.564 18.681 C 50.495 18.131 53.456 17.699 56.427 17.384 C 59.791 17.011 63.174 16.736 66.558 16.539 C 70.384 16.323 74.21 16.176 78.037 16.087 C 82.335 15.999 86.634 15.95 90.932 15.96 C 90.932 15.96 90.932 15.96 90.942 15.96 L 165.068 15.96 C 165.078 15.96 165.078 15.96 165.078 15.96 Z"/>
  </g>
  <g>
   <defs>
    <filter id="jVV3t9RPeRcOWjiHKxNOBzbiw2geqmqf" width="400%" height="400%" x="-200%" y="-200%" color-interpolation-filters="sRGB" filterUnits="objectBoundingBox">
     <feGaussianBlur xmlns="http://www.w3.org/2000/svg" stdDeviation="4.294"/>
    </filter>
   </defs>
   <g opacity=".4" filter="url(#jVV3t9RPeRcOWjiHKxNOBzbiw2geqmqf)">
    <path d="M 116.718 56.952 C 112.422 56.894 111.509 57.065 110.274 58.122 C 109.357 58.907 108.606 60.47 108.328 62.186 C 108.203 62.959 108.138 68.377 108.137 76.918 C 108.136 87.708 108.086 90.42 107.895 90.42 C 107.763 90.42 100.88 83.637 92.598 75.345 C 84.316 67.052 77.177 60.022 76.737 59.715 C 75.537 58.88 73.398 57.912 71.705 57.446 C 70.311 57.063 69.693 57.031 63.376 56.962 C 59.622 56.922 56.549 56.957 56.549 57.043 C 56.549 57.129 70.888 71.534 88.413 89.058 C 104.691 105.335 116.225 116.809 118.14 118.654 L 118.14 56.972 L 116.718 56.952 Z M 140.212 56.952 L 138.791 56.973 L 138.791 118.654 C 140.705 116.81 152.239 105.335 168.517 89.058 C 186.043 71.534 200.381 57.129 200.381 57.043 C 200.381 56.957 197.308 56.922 193.554 56.962 C 187.237 57.031 186.619 57.063 185.225 57.446 C 183.532 57.912 181.393 58.88 180.194 59.715 C 179.753 60.022 172.614 67.052 164.332 75.345 C 156.05 83.637 149.167 90.42 149.036 90.42 C 148.845 90.42 148.795 87.708 148.794 76.918 C 148.793 68.377 148.727 62.959 148.602 62.186 C 148.324 60.47 147.573 58.907 146.656 58.122 C 145.421 57.065 144.508 56.894 140.212 56.952 L 140.212 56.952 Z M 56.388 83.27 C 56.182 83.27 56.155 84.433 56.216 89.714 C 56.289 95.942 56.301 96.224 56.771 97.952 C 57.364 100.13 58.157 101.911 59.312 103.679 C 59.955 104.663 63.359 108.195 72.249 117.111 L 84.309 129.211 L 72.249 141.301 C 63.359 150.217 59.955 153.749 59.312 154.732 C 58.157 156.501 57.364 158.282 56.771 160.46 C 56.301 162.187 56.289 162.47 56.216 168.698 C 56.155 173.979 56.183 175.142 56.388 175.142 C 56.736 175.142 102.298 129.559 102.298 129.211 C 102.298 128.863 56.736 83.27 56.388 83.27 Z M 200.542 83.27 C 200.194 83.27 154.632 128.863 154.632 129.211 C 154.632 129.559 200.194 175.142 200.542 175.142 C 200.748 175.142 200.775 173.979 200.714 168.698 C 200.642 162.47 200.629 162.187 200.159 160.46 C 199.566 158.282 198.774 156.501 197.618 154.732 C 196.975 153.749 193.571 150.217 184.681 141.301 L 172.621 129.211 L 184.681 117.111 C 193.571 108.195 196.975 104.663 197.618 103.679 C 198.774 101.911 199.566 100.13 200.159 97.952 C 200.629 96.224 200.641 95.942 200.714 89.714 C 200.775 84.433 200.748 83.27 200.542 83.27 Z M 118.14 139.768 C 113.74 143.995 56.549 201.182 56.549 201.369 C 56.549 201.454 59.622 201.5 63.376 201.46 C 69.693 201.391 70.311 201.349 71.705 200.966 C 73.398 200.5 75.537 199.542 76.736 198.707 C 77.177 198.4 84.316 191.36 92.598 183.067 C 100.88 174.775 107.763 167.992 107.895 167.992 C 108.086 167.992 108.136 170.704 108.137 181.494 C 108.138 190.035 108.203 195.453 108.328 196.226 C 108.757 198.879 110.05 200.648 111.968 201.218 C 112.656 201.422 113.891 201.5 116.607 201.5 C 117.423 201.5 117.511 201.464 118.14 201.45 L 118.14 139.768 Z M 138.791 139.768 L 138.791 201.45 C 139.419 201.464 139.507 201.5 140.323 201.5 C 143.039 201.5 144.274 201.422 144.962 201.217 C 146.88 200.648 148.173 198.879 148.602 196.226 C 148.727 195.452 148.793 190.034 148.793 181.494 C 148.795 170.704 148.844 167.992 149.035 167.992 C 149.167 167.992 156.05 174.774 164.332 183.067 C 172.614 191.36 179.753 198.4 180.194 198.707 C 181.393 199.542 183.532 200.5 185.225 200.965 C 186.619 201.349 187.237 201.391 193.554 201.459 C 197.308 201.5 200.381 201.454 200.381 201.369 C 200.381 201.181 143.19 143.994 138.791 139.768 L 138.791 139.768 Z"/>
   </g>
   <linearGradient id="_lgradient_21" x1="0" x2="0" y1="0" y2="1" gradientTransform="matrix(144.555,0,0,144.558,56.188,53.5)" gradientUnits="userSpaceOnUse">
    <stop offset="0%" style="stop-color:#1fb6d1"/>
    <stop offset="100%" style="stop-color:#00ffff"/>
   </linearGradient>
   <path fill="url(#_lgradient_21)" d="M 116.718 53.511 C 112.422 53.452 111.509 53.623 110.274 54.68 C 109.357 55.465 108.606 57.028 108.328 58.744 C 108.203 59.518 108.138 64.935 108.137 73.476 C 108.136 84.266 108.086 86.978 107.895 86.978 C 107.763 86.978 100.88 80.196 92.598 71.903 C 84.316 63.61 77.177 56.58 76.737 56.273 C 75.537 55.438 73.398 54.47 71.705 54.005 C 70.311 53.621 69.693 53.589 63.376 53.521 C 59.622 53.48 56.549 53.515 56.549 53.601 C 56.549 53.687 70.888 68.092 88.413 85.617 C 104.691 101.894 116.225 113.368 118.14 115.212 L 118.14 53.531 L 116.718 53.511 Z M 140.212 53.511 L 138.791 53.531 L 138.791 115.212 C 140.705 113.368 152.239 101.894 168.517 85.617 C 186.043 68.092 200.381 53.687 200.381 53.601 C 200.381 53.516 197.308 53.48 193.554 53.521 C 187.237 53.589 186.619 53.621 185.225 54.005 C 183.532 54.47 181.393 55.438 180.194 56.274 C 179.753 56.58 172.614 63.61 164.332 71.903 C 156.05 80.196 149.167 86.978 149.036 86.978 C 148.845 86.978 148.795 84.266 148.794 73.476 C 148.793 64.936 148.727 59.518 148.602 58.744 C 148.324 57.028 147.573 55.466 146.656 54.68 C 145.421 53.624 144.508 53.452 140.212 53.511 L 140.212 53.511 Z M 56.388 79.829 C 56.182 79.829 56.155 80.991 56.216 86.272 C 56.289 92.5 56.301 92.783 56.771 94.51 C 57.364 96.688 58.157 98.469 59.312 100.238 C 59.955 101.221 63.359 104.753 72.249 113.669 L 84.309 125.769 L 72.249 137.859 C 63.359 146.776 59.955 150.307 59.312 151.291 C 58.157 153.06 57.364 154.84 56.771 157.018 C 56.301 158.746 56.289 159.028 56.216 165.256 C 56.155 170.537 56.183 171.7 56.388 171.7 C 56.736 171.7 102.298 126.117 102.298 125.769 C 102.298 125.421 56.736 79.829 56.388 79.829 Z M 200.542 79.829 C 200.194 79.829 154.632 125.421 154.632 125.769 C 154.632 126.117 200.194 171.7 200.542 171.7 C 200.748 171.7 200.775 170.537 200.714 165.256 C 200.642 159.028 200.629 158.746 200.159 157.018 C 199.566 154.84 198.774 153.06 197.618 151.291 C 196.975 150.307 193.571 146.776 184.681 137.859 L 172.621 125.769 L 184.681 113.669 C 193.571 104.753 196.975 101.221 197.618 100.238 C 198.774 98.469 199.566 96.688 200.159 94.51 C 200.629 92.783 200.641 92.5 200.714 86.272 C 200.775 80.991 200.748 79.829 200.542 79.829 Z M 118.14 136.327 C 113.74 140.553 56.549 197.74 56.549 197.927 C 56.549 198.013 59.622 198.059 63.376 198.018 C 69.693 197.95 70.311 197.907 71.705 197.524 C 73.398 197.058 75.537 196.101 76.736 195.265 C 77.177 194.958 84.316 187.918 92.598 179.625 C 100.88 171.333 107.763 164.551 107.895 164.551 C 108.086 164.551 108.136 167.262 108.137 178.052 C 108.138 186.593 108.203 192.011 108.328 192.785 C 108.757 195.437 110.05 197.206 111.968 197.776 C 112.656 197.98 113.891 198.058 116.607 198.058 C 117.423 198.058 117.511 198.022 118.14 198.008 L 118.14 136.327 Z M 138.791 136.327 L 138.791 198.008 C 139.419 198.022 139.507 198.058 140.323 198.058 C 143.039 198.058 144.274 197.98 144.962 197.776 C 146.88 197.206 148.173 195.437 148.602 192.784 C 148.727 192.011 148.793 186.593 148.793 178.052 C 148.795 167.262 148.844 164.55 149.035 164.55 C 149.167 164.55 156.05 171.333 164.332 179.625 C 172.614 187.918 179.753 194.958 180.194 195.265 C 181.393 196.1 183.532 197.058 185.225 197.524 C 186.619 197.907 187.237 197.949 193.554 198.018 C 197.308 198.058 200.381 198.012 200.381 197.927 C 200.381 197.74 143.19 140.552 138.791 136.326 L 138.791 136.327 Z"/>
   <g opacity=".2">
    <path fill="#ffffff" d="M 116.715 53.51 C 112.419 53.452 111.509 53.623 110.275 54.68 C 109.357 55.465 108.603 57.031 108.325 58.747 C 108.2 59.52 108.138 64.935 108.137 73.475 C 108.136 84.265 108.086 86.98 107.895 86.98 C 107.764 86.98 100.877 80.195 92.595 71.902 C 84.313 63.609 77.178 56.58 76.738 56.273 C 75.538 55.437 73.396 54.473 71.703 54.008 C 70.308 53.624 69.691 53.592 63.374 53.524 C 59.62 53.483 56.551 53.518 56.551 53.604 C 56.551 53.613 59.628 56.686 59.939 57.006 C 61.178 56.991 61.484 56.945 63.374 56.965 C 69.691 57.034 70.308 57.066 71.703 57.449 C 73.396 57.915 75.538 58.879 76.738 59.715 C 77.178 60.022 84.313 67.051 92.595 75.344 C 100.877 83.637 107.764 90.422 107.895 90.422 C 108.086 90.422 108.136 87.707 108.137 76.917 C 108.138 68.376 108.2 62.962 108.325 62.189 C 108.603 60.473 109.357 58.907 110.275 58.122 C 111.509 57.065 112.419 56.893 116.715 56.952 L 118.14 56.972 L 118.14 53.53 L 116.715 53.51 Z M 140.216 53.51 L 138.79 53.53 L 138.79 56.972 L 140.216 56.952 C 144.511 56.893 145.421 57.065 146.655 58.122 C 147.573 58.907 148.327 60.473 148.605 62.189 C 148.73 62.962 148.792 68.376 148.793 76.917 C 148.794 87.707 148.844 90.422 149.035 90.422 C 149.167 90.422 156.053 83.637 164.335 75.344 C 172.617 67.051 179.752 60.022 180.193 59.715 C 181.392 58.879 183.534 57.915 185.228 57.449 C 186.622 57.066 187.239 57.034 193.556 56.965 C 195.446 56.945 195.752 56.991 196.992 57.006 C 197.302 56.686 200.38 53.613 200.38 53.604 C 200.38 53.519 197.31 53.483 193.556 53.524 C 187.239 53.592 186.622 53.624 185.228 54.008 C 183.534 54.473 181.392 55.437 180.193 56.273 C 179.752 56.58 172.617 63.609 164.335 71.902 C 156.053 80.195 149.167 86.98 149.035 86.98 C 148.844 86.98 148.794 84.265 148.793 73.475 C 148.792 64.935 148.73 59.52 148.605 58.747 C 148.327 57.031 147.573 55.465 146.655 54.68 C 145.421 53.623 144.511 53.452 140.216 53.51 Z M 56.389 79.828 C 56.221 79.828 56.186 81.207 56.208 84.385 C 56.235 83.575 56.293 83.269 56.389 83.269 C 56.717 83.269 95.876 122.45 100.622 127.488 C 100.918 127.174 102.295 125.788 102.295 125.767 C 102.295 125.419 56.737 79.828 56.389 79.828 Z M 200.541 79.828 C 200.193 79.828 154.635 125.419 154.635 125.767 C 154.635 125.788 156.012 127.174 156.309 127.488 C 161.055 122.45 200.213 83.269 200.541 83.269 C 200.637 83.269 200.695 83.575 200.722 84.385 C 200.744 81.207 200.709 79.828 200.541 79.828 Z M 82.593 127.488 L 72.247 137.861 C 63.356 146.777 59.956 150.308 59.314 151.292 C 58.158 153.061 57.365 154.841 56.773 157.019 C 56.302 158.747 56.287 159.025 56.215 165.254 C 56.182 168.066 56.177 169.662 56.208 170.584 C 56.213 169.88 56.203 169.654 56.215 168.696 C 56.287 162.467 56.302 162.188 56.773 160.461 C 57.365 158.283 58.158 156.502 59.314 154.733 C 59.956 153.75 63.356 150.219 72.247 141.302 L 84.307 129.209 L 82.593 127.488 Z M 174.338 127.488 L 172.623 129.209 L 184.683 141.302 C 193.574 150.219 196.974 153.75 197.617 154.733 C 198.772 156.502 199.565 158.283 200.158 160.461 C 200.628 162.188 200.643 162.467 200.716 168.696 C 200.727 169.654 200.718 169.88 200.722 170.584 C 200.753 169.662 200.748 168.066 200.716 165.254 C 200.643 159.025 200.628 158.747 200.158 157.019 C 199.565 154.841 198.772 153.061 197.617 151.292 C 196.974 150.308 193.574 146.777 184.683 137.861 L 174.338 127.488 Z M 118.14 136.328 C 113.741 140.554 56.551 197.737 56.551 197.924 C 56.551 197.966 58.714 197.954 59.932 197.971 C 65.832 191.915 113.996 143.751 118.14 139.77 L 118.14 136.328 Z M 138.79 136.328 L 138.79 139.77 C 142.934 143.751 191.098 191.915 196.998 197.971 C 198.216 197.954 200.38 197.966 200.38 197.924 C 200.38 197.737 143.19 140.554 138.79 136.328 Z"/>
   </g>
  </g>
 </g>
</svg>
