<svg xmlns="http://www.w3.org/2000/svg" xmlns:xlink="http://www.w3.org/1999/xlink" style="isolation:isolate" width="256" height="256" version="1.1">
 <defs>
  <linearGradient id="a">
   <stop offset="0" stop-color="#ffee55"/>
   <stop offset=".426" stop-color="#feeb46"/>
   <stop offset=".509" stop-color="#fc8f36"/>
   <stop offset=".588" stop-color="#ef6422"/>
   <stop offset=".668" stop-color="#e23a0e"/>
   <stop offset=".937" stop-color="#b8017a" stop-opacity=".973"/>
   <stop offset="1" stop-color="#b8017a"/>
  </linearGradient>
  <linearGradient id="b" x1="-316.3" x2="-308.032" y1="93.99" y2="120.69" gradientTransform="matrix(.30119 .00584 -.00583 .30163 118.479 -1.606)" gradientUnits="userSpaceOnUse">
   <stop stop-color="#c00e62" stop-opacity=".916"/>
   <stop offset=".33" stop-color="#d63540" stop-opacity=".957"/>
   <stop offset="1" stop-color="#7a5240" stop-opacity=".016"/>
  </linearGradient>
  <linearGradient id="c" x1="-258.127" x2="-181.748" y1="208.636" y2="298.314" gradientTransform="matrix(.28446 0 0 .36123 111.034 -12.577)" gradientUnits="userSpaceOnUse">
   <stop stop-color="#961725"/>
   <stop offset=".196" stop-color="#f06824"/>
   <stop offset=".541" stop-color="#f06723"/>
   <stop offset="1" stop-color="#ffb000"/>
  </linearGradient>
  <linearGradient id="f" x1="-335.91" x2="-268.99" y1="120.49" y2="82.48" gradientTransform="matrix(.2958 .00573 -.00573 .2958 -23.568 1.33)" gradientUnits="userSpaceOnUse">
   <stop stop-color="#fee246"/>
   <stop offset=".697" stop-color="#f59b00" stop-opacity=".506"/>
   <stop offset="1" stop-color="#ffb900" stop-opacity=".016"/>
  </linearGradient>
  <radialGradient id="p" cx="71.144" cy="56.087" r="54.181" fx="71.144" fy="56.087" gradientTransform="matrix(1.36536,-4.3e-4,0,1.39295,-20.745,-15.254)" gradientUnits="userSpaceOnUse" xlink:href="#a"/>
  <radialGradient id="q" cx="19.076" cy="29.852" r="5.912" fx="19.076" fy="29.852" gradientTransform="matrix(1.42134,3.04377,-4.31628,2.01557,121.434,-78.019)" gradientUnits="userSpaceOnUse" xlink:href="#b"/>
  <linearGradient id="r" x1="-226.75" x2="-170.39" gradientTransform="matrix(0.22978,0.0195,-0.02092,0.21414,101.188,30.48)" gradientUnits="userSpaceOnUse">
   <stop stop-color="#de4000"/>
   <stop offset="1" stop-color="#fab600"/>
  </linearGradient>
  <linearGradient id="s" x1="-258.127" x2="-181.748" y1="208.636" y2="298.314" gradientTransform="matrix(0.22599,0,0,0.28697,95.992,11.95)" gradientUnits="userSpaceOnUse" xlink:href="#c"/>
  <linearGradient id="t" x1="96.495" x2="106.134" y1="22.964" y2="21.464" gradientTransform="matrix(0.79444,0,0,0.79444,7.783,21.941)" gradientUnits="userSpaceOnUse" xlink:href="#d"/>
  <linearGradient id="d">
   <stop offset="0" stop-color="#ffa200"/>
   <stop offset="1" stop-color="#fffd00" stop-opacity="0"/>
  </linearGradient>
  <linearGradient id="u" x1="96.103" x2="103.022" y1="65.32" y2="96.216" gradientTransform="matrix(0.80888,0,0,0.81008,6.858,19.938)" gradientUnits="userSpaceOnUse" xlink:href="#e"/>
  <linearGradient id="e">
   <stop offset="0" stop-color="#ffa200"/>
   <stop offset="1" stop-color="#dca21c" stop-opacity="0"/>
  </linearGradient>
  <linearGradient id="v" x1="82.97" x2="107.648" y1="30.088" y2="73.27" gradientTransform="matrix(0.79444,0,0,0.79444,7.783,21.941)" gradientUnits="userSpaceOnUse" xlink:href="#f"/>
  <linearGradient id="w" x1="116.796" x2="119.169" y1="64.772" y2="64.772" gradientTransform="matrix(0.54718996,0.02268532,-0.02268532,0.54718996,38.785438,33.247958)" gradientUnits="userSpaceOnUse" xlink:href="#g"/>
  <linearGradient id="g" x1="-226.75" x2="-170.39" gradientTransform="matrix(.28407 .02406 -.02586 .26434 -24.456 13.445)" gradientUnits="userSpaceOnUse">
   <stop stop-color="#de4000"/>
   <stop offset="1" stop-color="#fab600"/>
  </linearGradient>
  <radialGradient id="x" cx="71.144" cy="56.087" r="54.181" fx="71.144" fy="56.087" gradientTransform="matrix(1.36536,-4.3e-4,0,1.39295,-20.745,-15.254)" gradientUnits="userSpaceOnUse" xlink:href="#c"/>
  <filter id="i" width="270.648" height="254.338" x="-7.32" y="2.95" filterUnits="userSpaceOnUse">
   <feGaussianBlur in="SourceGraphic" stdDeviation="4.294"/>
   <feOffset dy="4" result="pf_100_offsetBlur"/>
   <feFlood flood-opacity=".4"/>
   <feComposite in2="pf_100_offsetBlur" operator="in" result="pf_100_dropShadow"/>
   <feBlend in="SourceGraphic" in2="pf_100_dropShadow"/>
  </filter>
  <linearGradient id="p-3" x1=".517" x2=".517" y2="1" gradientTransform="matrix(244.65,0,0,228.34,7.0600035,11.949)" gradientUnits="userSpaceOnUse">
   <stop offset="0" stop-color="#ffffff"/>
   <stop offset=".125" stop-color="#ffffff" stop-opacity=".098"/>
   <stop offset=".925" stop-opacity=".098"/>
   <stop offset="1" stop-opacity=".498"/>
  </linearGradient>
 </defs>
 <g style="filter:url(#i)">
  <linearGradient id="j" x1="-.033" x2="1.033" y1="-.071" y2=".995" gradientTransform="matrix(244.648,0,0,228.338,5.676,11.947)" gradientUnits="userSpaceOnUse">
   <stop offset="0%" stop-color="#5884f4"/>
   <stop offset="100%" stop-color="#80a3fa"/>
  </linearGradient>
  <path style="fill:url(#j)" d="m 165.685,11.947 c 74.055,0 84.639,10.557 84.639,84.544 v 59.251 c 0,73.986 -10.584,84.543 -84.639,84.543 H 90.315 C 16.26,240.285 5.676,229.728 5.676,155.742 V 96.491 c 0,-73.987 10.584,-84.544 84.639,-84.544 z"/>
 </g>
 <g>
  <path d="m 166.444,11.95 c 74.406,0 85.04,10.557 85.04,84.544 v 59.251 c 0,73.986 -10.634,84.543 -85.04,84.543 H 90.719 C 16.314,240.288 5.68,229.731 5.68,155.745 V 96.494 C 5.68,22.507 16.314,11.95 90.719,11.95 Z" style="fill:none"/>
  <path d="m 64.121,239.56 c 0.55,0.036 1.021,0.098 1.581,0.131 0.435,0.025 1.027,0.011 1.468,0.035 l -0.039,-7.592 26.629,-24.465 v -8.156 l 12.29,-12.233 v -6.115 l 6.144,-6.117 v -16.309 l -8.193,-8.156 H 87.614 l -8.193,-8.154 H 58.938 l -8.195,8.154 v 20.389 l 16.443,14.34 -0.055,18.279 -6.144,6.117 V 236.21 Z M 99.904,81.267 93.76,87.384 h 6.144 l 2.049,2.039 h 2.048 l 2.049,-2.039 z m 77.838,28.542 h -24.58 l -14.338,14.271 v 20.388 l 10.241,10.194 h 14.339 l 6.145,6.116 v 6.116 l 4.097,4.077 v 24.465 l 15.556,16.365 25.688,-25.567 -0.277,-23.418 20.484,-20.387 h -8.194 L 206.42,122.042 v -8.155 h -24.581 z" style="fill:#f7f7f7;fill-opacity:0.5"/>
  <path d="M 251.484,117.964 V 96.493 c 0,-9.248 -0.167,-17.505 -0.603,-24.875 a 197.93,197.93 0 0 0 -0.869,-10.4 c -0.366,-3.254 -0.812,-6.298 -1.352,-9.147 -0.54,-2.848 -1.174,-5.501 -1.914,-7.97 -0.739,-2.469 -1.585,-4.756 -2.551,-6.871 -0.614,-1.347 -1.365,-2.511 -2.08,-3.723 l -2.922,2.908 h -12.29 l -12.29,12.233 -8.193,-8.155 h -24.58 l -12.29,12.233 v 10.193 h 12.29 v -6.117 h 8.193 v 8.156 l -4.098,4.076 -16.385,0.276 -6.146,5.841 h -8.193 v 8.155 l -6.146,6.117 v 12.23 h 12.29 l 8.195,-8.154 h 8.193 v 4.078 l 8.192,8.155 h 4.098 v -4.079 l -8.193,-8.154 h 8.193 l 8.192,8.154 h 10.242 l -6.144,-6.115 6.144,-6.115 h 6.146 l 6.144,6.115 h -6.144 l -6.146,6.115 6.034,6.006 0.112,6.227 h -8.193 l 24.581,24.465 h 4.095 l 4.097,-4.076 8.193,-8.157 -8.193,-8.154 z" style="fill:#f7f7f7;fill-opacity:0.5"/>
  <path d="m 157.259,71.073 v -6.116 l 6.145,-6.116 v 12.232 z m 63.499,120.286 v -12.784 l 8.194,-7.604 v 20.388 z M 136.775,11.95 H 90.718 c -0.789,0 -1.348,0.049 -2.123,0.051 L 81.47,20.105 93.76,32.337 V 45.12 l 14.339,15.76 h 8.193 v -8.154 l 12.29,-12.233 v -8.156 l 8.193,-8.154 z m -10.242,44.852 h 6.146 l 6.145,6.116 H 126.533 Z M 71.228,124.08 h -6.145 l -6.146,6.117 h 12.291 z" style="fill:#f7f7f7;fill-opacity:0.5"/>
  <path d="m 16.585,30.96 c -0.107,0.152 -0.245,0.268 -0.35,0.422 a 39.514,39.514 0 0 0 -3.267,5.848 c -0.965,2.115 -1.811,4.402 -2.551,6.871 -0.74,2.469 -1.373,5.122 -1.913,7.97 -0.54,2.849 -0.986,5.893 -1.352,9.147 a 197.89,197.89 0 0 0 -0.87,10.4 C 5.846,78.988 5.68,87.245 5.68,96.493 v 21.471 l 8.193,8.154 h 12.29 l 20.485,20.389 v -24.465 l 12.29,-12.232 h 8.193 l 12.29,-12.233 h 12.29 L 85.567,91.46 97.857,77.191 85.567,64.958 H 67.131 V 81.267 H 58.938 L 50.743,73.112 V 64.958 L 63.034,52.726 H 73.277 V 44.569 L 60.987,32.337 H 40.502 V 44.569 H 30.26 Z M 67.131,12.515 c -0.429,0.023 -1.005,0.008 -1.429,0.033 -3.705,0.217 -7.189,0.5 -10.461,0.863 -3.272,0.364 -6.334,0.808 -9.199,1.344 a 80.758,80.758 0 0 0 -7.159,1.699 l 7.765,7.729 h 20.483 z" style="fill:#f7f7f7;fill-opacity:0.5"/>
  <circle cx="72.959" cy="103.694" r="4.078" style="vector-effect:non-scaling-stroke;fill:#ffffff"/>
  <circle cx="93.346" cy="185.244" r="4.078" style="vector-effect:non-scaling-stroke;fill:#ffffff"/>
  <circle cx="154.509" cy="144.469" r="4.078" style="vector-effect:non-scaling-stroke;fill:#ffffff"/>
  <circle cx="174.896" cy="83.306" r="4.078" style="vector-effect:non-scaling-stroke;fill:#ffffff"/>
  <path d="M 5.68,138.353 C 74.095,89.264 156.548,81.268 250.33,79.229 M 7.252,59.908 c 20.973,15.048 41.693,29.384 65.226,43.833 53.234,32.684 112.819,59.511 177.852,60.924 M 155.018,141.411 C 175.115,98.334 187.385,62.815 182.27,12.294 M 140.057,239.946 C 70.119,187.607 64.499,114.679 76.551,12.294" style="opacity:0.5;vector-effect:non-scaling-stroke;fill:none;stroke:#ffffff;stroke-width:2"/>
  <path d="M 153.937,144.278 C 109.541,199.827 18.459,201.298 7.278,194.301" style="opacity:0.5;vector-effect:non-scaling-stroke;fill:none;stroke:#ffffff;stroke-width:2"/>
 </g>
 <g style="isolation:isolate;enable-background:new">
  <path style="opacity:0.2" d="m 153.07,52.19 c -2.198,-0.01 -9.194,12.61 -11.327,20.433 -3.994,14.65 1.153,26.707 16.453,38.543 10.243,7.924 14.013,11.464 16.838,15.815 3.428,5.278 3.887,7.148 0.717,2.915 -3.567,-4.763 -12.687,-12.21 -12.659,-10.338 0.005,0.304 0.517,2.106 1.138,4.007 1.635,5 1.455,14.08 -0.393,19.629 -2.565,7.705 -7.925,13.93 -14.698,18.131 -0.031,0.19 -5.59,5.162 -5.59,5.162 l -11.882,38.901 c 1.458,-0.09 3.13,-0.246 5.525,-0.48 14.207,-1.388 22.232,-4.317 29.3,-10.696 2.507,-2.263 7.202,-5.556 10.43,-7.319 3.23,-1.762 7.576,-4.626 9.661,-6.366 4.941,-4.12 9.225,-11.923 9.47,-17.248 0.13,-2.836 1.044,-5.39 3.738,-10.468 2.389,-4.503 4.051,-8.91 5.044,-13.373 2.175,-9.779 1.917,-19.33 -0.481,-19.925 -0.273,0.543 -0.122,1.784 -0.273,1.863 -0.374,0.196 -0.782,-1.761 -0.782,-2.787 0,-2.925 -2.585,-11.142 -5.218,-16.586 -2.515,-5.2 -7.696,-12.572 -13.74,-19.55 -4.478,-5.17 -6.458,-8.471 -8.189,-13.657 l -1.198,-3.585 -1.112,3.694 c -0.612,2.033 -1.32,3.697 -1.573,3.697 -0.254,0 -3.906,-3.116 -8.113,-6.924 -5.393,-4.882 -8.078,-7.892 -9.103,-10.204 -0.8,-1.804 -1.69,-3.282 -1.983,-3.283 z"/>
  <path style="opacity:0.18200001" d="m 73.596,64.56 -2.199,2.585 c -4.33,5.09 -8.187,15.379 -8.187,21.836 0,1.481 -1.245,4.149 -3.496,7.495 -3.165,4.707 -7.747,14.6 -8.978,19.384 -0.453,1.762 -0.409,1.748 0.743,-0.253 0.674,-1.171 1.352,-2.006 1.505,-1.855 0.152,0.15 -0.403,2.797 -1.235,5.88 -1.62,6.005 -2.781,17.274 -1.505,14.607 0.495,-1.033 0.736,-1.15 0.777,-0.375 0.256,4.843 1.802,15.205 2.825,18.993 l 51.309,5.983 c -0.61,-0.693 -0.964,-1.232 -0.785,-1.408 0.152,-0.151 1.618,0.093 3.257,0.54 1.638,0.447 5.922,0.674 9.52,0.504 6.008,-0.284 7.139,-0.607 13.826,-3.932 4.767,-2.37 7.845,-3.475 8.91,-3.2 2.484,0.642 3.754,-0.178 3.754,-2.426 0,-3.865 -6.014,-7.556 -12.292,-7.544 -2.211,0.004 -5.697,0.512 -7.746,1.126 -5.884,1.765 -11.084,1.466 -14.567,-0.833 -9.364,-6.183 -12.132,-12.468 -7.647,-17.367 1.931,-2.109 3.54,-2.133 6.165,-0.091 2.761,2.147 3.518,1.187 3.695,-4.68 l 0.145,-4.793 7.527,-3.752 c 7.532,-3.753 9.823,-5.78 10.707,-9.47 0.409,-1.703 0.157,-2.078 -1.869,-2.776 -1.288,-0.444 -4.473,-1.036 -7.077,-1.317 -2.604,-0.282 -5.622,-0.957 -6.708,-1.5 -2.237,-1.118 -4.477,-4.137 -4.477,-6.036 0,-2.213 4.688,-8.598 8.494,-11.572 l 3.664,-2.864 -3.351,-0.495 c -4.529,-0.672 -10.814,1.214 -15.282,4.585 -2.375,1.793 -3.95,2.495 -4.79,2.134 -0.69,-0.296 -5.01,-0.742 -9.6,-0.99 l -8.347,-0.452 -2.822,-4.125 c -1.85,-2.706 -3,-5.404 -3.342,-7.837 z"/>
  <path style="opacity:0.3;fill:#020202" d="m 121.292,209.859 c -32.806,-3.141 -61.669,-26.996 -70.279,-58.086 -1.022,-3.692 -2.596,-14.236 -2.855,-19.128 -0.04,-0.775 -0.283,-0.658 -0.778,0.375 -1.276,2.666 -0.116,-8.602 1.504,-14.607 0.832,-3.083 1.388,-5.729 1.235,-5.88 -0.152,-0.15 -0.829,0.684 -1.503,1.855 -1.151,2.001 -1.196,2.016 -0.742,0.254 1.23,-4.785 5.812,-14.678 8.978,-19.385 2.25,-3.347 3.494,-6.015 3.494,-7.496 0,-6.457 3.858,-16.747 8.188,-21.837 l 2.2,-2.584 0.52,3.71 c 0.342,2.433 1.492,5.129 3.342,7.835 l 2.822,4.126 8.346,0.452 c 4.59,0.248 8.91,0.693 9.6,0.989 0.84,0.36 2.415,-0.34 4.79,-2.133 4.468,-3.37 10.755,-5.258 15.283,-4.586 l 3.349,0.496 -3.664,2.864 c -3.806,2.974 -8.492,9.36 -8.492,11.574 0,1.899 2.238,4.916 4.476,6.035 1.085,0.542 4.104,1.216 6.708,1.498 2.604,0.281 5.789,0.875 7.077,1.319 2.026,0.698 2.279,1.073 1.87,2.776 -0.884,3.691 -3.176,5.718 -10.707,9.47 l -7.527,3.751 -0.145,4.794 c -0.177,5.866 -0.936,6.827 -3.697,4.68 -2.625,-2.042 -4.234,-2.018 -6.164,0.09 -4.486,4.9 -1.718,11.185 7.646,17.368 3.483,2.3 8.684,2.596 14.57,0.831 2.048,-0.614 5.534,-1.12 7.745,-1.125 6.277,-0.012 12.292,3.679 12.292,7.543 0,2.249 -1.27,3.07 -3.755,2.427 -1.065,-0.275 -4.142,0.831 -8.91,3.202 -6.686,3.324 -7.818,3.646 -13.825,3.93 -3.598,0.17 -7.883,-0.057 -9.521,-0.504 -1.639,-0.447 -3.104,-0.69 -3.257,-0.539 -0.818,0.81 8.296,8.43 12.285,10.272 20.109,9.288 44.723,-1.453 51.257,-22.368 1.847,-5.913 2.03,-15.588 0.394,-20.917 -0.621,-2.026 -1.133,-3.948 -1.138,-4.272 -0.028,-1.995 9.09,5.94 12.658,11.017 3.17,4.512 2.71,2.52 -0.718,-3.106 -2.826,-4.637 -6.595,-8.41 -16.837,-16.854 -15.3,-12.614 -20.447,-25.463 -16.453,-41.076 2.133,-8.339 9.128,-21.787 11.327,-21.776 0.292,0.002 1.185,1.576 1.985,3.498 1.025,2.464 3.71,5.67 9.103,10.874 4.207,4.059 7.856,7.38 8.11,7.38 0.254,0 0.962,-1.773 1.575,-3.939 l 1.113,-3.938 1.196,3.82 c 1.731,5.527 3.712,9.047 8.19,14.558 6.044,7.435 11.224,15.29 13.74,20.833 2.632,5.802 5.217,14.559 5.217,17.676 0,1.093 0.408,3.179 0.782,2.97 0.15,-0.085 0,-1.406 0.273,-1.984 2.398,0.635 2.655,10.811 0.48,21.233 -0.993,4.756 -2.655,9.454 -5.044,14.252 -2.693,5.412 -3.605,8.134 -3.735,11.157 -0.245,5.675 -4.53,13.99 -9.47,18.382 -2.086,1.853 -6.433,4.906 -9.662,6.785 -3.23,1.878 -7.923,5.388 -10.43,7.8 -7.068,6.798 -15.095,9.921 -29.302,11.4 -7.857,0.819 -8.24,0.818 -17.11,-0.031 z"/>
  <path style="fill:url(#p)" d="M 55.955,117.056 C 38.06,115.343 22.317,102.33 17.62,85.372 17.062,83.359 16.204,77.607 16.062,74.939 16.04,74.516 15.908,74.58 15.638,75.144 c -0.696,1.454 -0.063,-4.692 0.82,-7.968 0.454,-1.681 0.757,-3.125 0.674,-3.207 -0.083,-0.082 -0.452,0.373 -0.82,1.012 -0.628,1.091 -0.652,1.1 -0.405,0.138 0.671,-2.61 3.17,-8.006 4.897,-10.573 1.228,-1.826 1.906,-3.281 1.906,-4.09 0,-3.521 2.105,-9.134 4.467,-11.91 l 1.2,-1.41 0.283,2.024 c 0.187,1.327 0.814,2.798 1.823,4.274 l 1.54,2.25 4.552,0.247 c 2.504,0.135 4.86,0.378 5.236,0.54 0.458,0.196 1.318,-0.186 2.613,-1.164 2.437,-1.839 5.866,-2.868 8.336,-2.502 l 1.827,0.271 -1.999,1.562 c -2.076,1.622 -4.632,5.106 -4.632,6.313 0,1.036 1.22,2.682 2.441,3.292 0.593,0.296 2.24,0.664 3.66,0.817 1.42,0.153 3.157,0.477 3.86,0.72 1.105,0.38 1.243,0.585 1.02,1.514 -0.483,2.013 -1.733,3.119 -5.84,5.166 l -4.106,2.045 -0.08,2.615 c -0.096,3.2 -0.51,3.724 -2.016,2.553 -1.432,-1.114 -2.31,-1.101 -3.362,0.05 -2.447,2.672 -0.937,6.1 4.17,9.472 1.9,1.254 4.738,1.416 7.947,0.454 1.118,-0.335 3.02,-0.612 4.225,-0.614 3.424,-0.006 6.705,2.006 6.705,4.115 0,1.226 -0.693,1.674 -2.048,1.323 -0.58,-0.15 -2.26,0.454 -4.86,1.746 -3.647,1.814 -4.264,1.99 -7.54,2.144 -1.964,0.093 -4.3,-0.03 -5.194,-0.274 -0.894,-0.244 -1.694,-0.377 -1.777,-0.294 -0.446,0.44 4.525,4.597 6.701,5.602 10.969,5.066 24.394,-0.792 27.958,-12.2 1.008,-3.226 1.108,-8.503 0.216,-11.41 -0.34,-1.105 -0.619,-2.153 -0.621,-2.33 -0.015,-1.088 4.958,3.24 6.904,6.01 1.73,2.46 1.478,1.374 -0.392,-1.695 -1.54,-2.529 -3.597,-4.587 -9.183,-9.193 -8.346,-6.88 -11.153,-13.889 -8.975,-22.405 1.164,-4.548 4.98,-11.884 6.179,-11.877 0.159,0 0.646,0.859 1.082,1.907 0.56,1.344 2.023,3.093 4.965,5.932 2.295,2.213 4.286,4.025 4.424,4.025 0.139,0 0.525,-0.967 0.859,-2.149 l 0.607,-2.148 0.653,2.084 c 0.944,3.015 2.024,4.935 4.467,7.94 3.296,4.057 6.122,8.341 7.494,11.364 1.436,3.165 2.846,7.941 2.846,9.642 0,0.596 0.223,1.734 0.426,1.62 0.083,-0.047 0,-0.767 0.15,-1.083 1.308,0.347 1.448,5.898 0.261,11.582 -0.541,2.594 -1.448,5.157 -2.75,7.774 -1.47,2.952 -1.967,4.437 -2.038,6.086 -0.134,3.095 -2.47,7.63 -5.166,10.026 -1.137,1.011 -3.509,2.676 -5.27,3.7 -1.761,1.025 -4.321,2.94 -5.69,4.256 -3.854,3.708 -8.232,5.411 -15.982,6.218 -4.285,0.446 -4.494,0.446 -9.332,-0.017 z" transform="matrix(1.83333,0,0,1.83333,20.342,-6.377)"/>
  <path style="fill:url(#q);fill-rule:evenodd" d="m 22.63,51.131 c 2.34,-4.134 4.769,-4.718 9.393,-5.447 -2.544,-2.525 -3.386,-6 -3.646,-8.548 -3.252,3.767 -5.68,8.57 -5.748,13.994" transform="matrix(1.83333,0,0,1.83333,20.342,-6.377)"/>
  <path style="opacity:0.65;fill:url(#r);fill-rule:evenodd" d="m 49.54,64.336 c 1.894,-1.557 11.371,-4.22 9.18,-8.532 -3.51,-1.186 -8.687,0.299 -10.847,-4.606 -2.576,6.686 -0.914,10.302 1.119,13.307" transform="matrix(1.83333,0,0,1.83333,20.342,-6.377)"/>
  <path style="opacity:0.45;fill:url(#s);fill-rule:evenodd" d="m 44.082,69.02 c -10.685,1.336 -9.269,7.495 -8.511,14.723 l 2.736,-2.871 c 1.92,7.03 13.253,5.906 19.537,3.446 2.862,-1.12 5.236,-0.585 6.344,-0.014 3.177,1.192 2.383,-1.986 2.383,-1.986 -2.383,-3.972 -8.739,-3.635 -11.037,-2.52 -1.419,0.69 -3.978,0.898 -6.328,0.12 -2.98,-0.986 -5.674,-3.955 -6.856,-6.733 -0.149,-0.282 -0.062,-0.936 -0.017,-1.221 0.123,-0.795 0.405,-1.562 1.749,-2.944" transform="matrix(1.83333,0,0,1.83333,20.342,-6.377)"/>
  <path style="fill:url(#t)" d="m 85.886,35.864 -1.444,4.32 2.99,2.01 2.14,1.853 -1.532,-2.387 -0.653,-1.371 -0.736,-2.091 z" transform="matrix(1.83333,0,0,1.83333,20.342,-6.377)"/>
  <path style="opacity:0.8;fill:#de3518" d="m 199.06,162.454 -12.958,16.757 c 0,0 3.41,-1.774 5.483,-3.26 1.86,-1.334 3.607,-2.82 4.74,-4.973 1.526,-2.901 2.549,-7.54 2.549,-7.54"/>
  <path style="opacity:0.8;fill:#ab135f;fill-opacity:0.97600002" d="m 170.886,195.26 -19.743,7.633 c 0,0 4.336,0.197 6.845,-0.263 2.67,-0.49 5.166,-1.248 7.248,-2.505 2.804,-1.692 4.982,-4.119 4.982,-4.119"/>
  <path style="fill:url(#u)" d="m 80.297,67.456 3.12,2.7 c 0,0 1.986,1.988 3.015,3.423 1.502,2.147 1.06,1.085 1.06,1.085 0.28,0.678 -0.235,-0.266 0.617,1.142 0.795,1.314 0.8,1.63 1.133,2.52 1.033,2.759 2.111,6.36 2.116,7.195 0.755,2.993 -1.028,7.362 -1.029,7.366 -0.88,2.856 -2.409,5.574 -2.966,6.147 -0.557,0.574 -1.306,2.097 -2.049,2.969 -1.13,1.325 -3.507,3.667 -3.507,3.667 l -4.923,4.142 c 0,0 -5.804,-9.087 -4.911,-9.89 0.893,-0.804 7.159,-3.069 9.003,-5.55 1.534,-2.065 3.253,-4.145 3.976,-6.615 0.753,-2.57 0.632,-5.384 0.23,-8.033 -0.363,-2.392 -2.176,-6.33 -2.352,-6.867 -0.294,-0.9 -3.21,-5.4 -3.21,-5.4 z" transform="matrix(1.83333,0,0,1.83333,20.342,-6.377)"/>
  <path style="opacity:0.35;fill:url(#v)" d="m 73.868,28.39 c 0,0 -2.742,5.398 -3.49,8.306 -0.606,2.348 -0.905,4.81 -0.774,7.231 0.127,2.335 1.014,6.156 1.495,6.852 0.59,0.697 2.034,3.458 3.37,4.936 2.427,2.681 5.494,4.707 8.306,6.98 1.423,1.152 2.781,2.053 4.333,3.371 1.552,1.319 3.506,2.846 4.936,4.574 1.688,2.042 3.24,4.276 4.212,6.74 1.42,3.6 2.222,11.394 2.222,11.394 l -0.416,0.948 -0.485,1.768 -4.21,3.344 c 0,0 -2.474,-11.841 -3.61,-15.166 -1.137,-3.325 -2.266,-5.004 -2.266,-5.004 l -1.802,-3.272 -1.943,-2.505 -2.461,-2.346 c 0,0 -2.55,-2.3 -3.673,-3.222 -1.123,-0.92 -3.865,-3.379 -3.865,-3.379 l -2.166,-2.42 c 0,0 -1.673,-2.363 -2.231,-3.349 -0.56,-0.986 -0.827,-1.612 -1.175,-2.524 -0.348,-0.911 -0.816,-2.95 -0.816,-2.95 0,0 -0.19,-1.183 -0.253,-2.431 -0.031,-0.608 -0.05,-0.954 0.012,-2.008 0.031,-0.54 0.145,-1.16 0.223,-1.771 0.083,-0.646 0.242,-1.402 0.386,-1.968 0.084,-0.331 0.124,-0.481 0.19,-0.76 0.15,-0.634 0.507,-1.52 0.772,-2.248 0.292,-0.805 0.952,-2.404 0.952,-2.404 0,0 1.503,-3.324 2.542,-4.79 0.168,-0.238 0.364,-0.599 0.611,-0.924 0.178,-0.233 0.296,-0.374 0.458,-0.55 0.274,-0.295 0.616,-0.452 0.616,-0.452 z" transform="matrix(1.83333,0,0,1.83333,20.342,-6.377)"/>
  <path style="opacity:0.8;fill:url(#w)" d="m 101.922,67.431 -0.818,7.918 c 0,0 0.807,-1.42 1.082,-2.338 0.292,-0.979 0.465,-1.944 0.4,-2.856 -0.088,-1.228 -0.529,-2.373 -0.529,-2.373" transform="matrix(1.83333,0,0,1.83333,20.342,-6.377)"/>
  <path style="opacity:0.75800003;fill:url(#x)" d="m 38.308,80.872 -1.651,1.732 6.984,6.015 2.392,0.41 c -0.62,-0.616 -1.005,-1.101 -0.872,-1.234 0.084,-0.082 0.883,0.05 1.777,0.294 0.894,0.244 3.23,0.367 5.193,0.274 3.277,-0.154 3.896,-0.33 7.543,-2.144 2.6,-1.293 4.278,-1.896 4.858,-1.746 0.411,0.107 0.754,0.13 1.043,0.09 -0.347,0.032 -0.798,-0.038 -1.387,-0.259 -1.108,-0.57 -3.482,-1.106 -6.344,0.014 -6.283,2.46 -17.616,3.584 -19.536,-3.446 z m 27.509,3.643 a 1.336,1.336 0 0 1 -0.199,0.042 1.32,1.32 0 0 0 0.199,-0.042 z" transform="matrix(1.83333,0,0,1.83333,20.342,-6.377)"/>
 </g>
 <path d="m 166.444,11.95 c 4.328,-0.01 8.656,0.04 12.984,0.138 3.875,0.078 7.75,0.226 11.626,0.452 3.453,0.196 6.905,0.481 10.348,0.854 3.06,0.335 6.118,0.786 9.148,1.346 2.715,0.502 5.4,1.14 8.046,1.916 a 53.64,53.64 0 0 1 7.023,2.584 40.413,40.413 0 0 1 6.06,3.35 35.177,35.177 0 0 1 5.134,4.215 35.072,35.072 0 0 1 4.22,5.119 41.693,41.693 0 0 1 3.363,6.042 55.983,55.983 0 0 1 2.597,7.005 80.223,80.223 0 0 1 1.918,8.037 124.43,124.43 0 0 1 1.348,9.127 c 0.374,3.439 0.659,6.878 0.856,10.326 0.226,3.861 0.373,7.732 0.462,11.593 0.088,4.323 0.138,8.646 0.128,12.96 v 58.21 c 0.01,4.324 -0.04,8.637 -0.128,12.96 a 325.13,325.13 0 0 1 -0.462,11.593 200.99,200.99 0 0 1 -0.856,10.326 124.69,124.69 0 0 1 -1.348,9.137 80.686,80.686 0 0 1 -1.918,8.027 55.416,55.416 0 0 1 -2.597,7.005 41.181,41.181 0 0 1 -3.364,6.042 34.559,34.559 0 0 1 -4.22,5.119 35.178,35.178 0 0 1 -5.134,4.215 40.413,40.413 0 0 1 -6.059,3.35 55.14,55.14 0 0 1 -7.023,2.594 77.806,77.806 0 0 1 -8.046,1.906 c -3.03,0.57 -6.089,1.011 -9.148,1.346 a 203,203 0 0 1 -10.348,0.854 c -3.875,0.226 -7.75,0.374 -11.626,0.462 -4.328,0.088 -8.656,0.138 -12.984,0.128 H 92.318002 a 571,571 0 0 1 -12.984,-0.128 328.35,328.35 0 0 1 -11.625999,-0.462 203,203 0 0 1 -10.348,-0.854 c -3.06,-0.335 -6.118,-0.777 -9.148,-1.346 a 77.805,77.805 0 0 1 -8.046,-1.906 55.14,55.14 0 0 1 -7.023,-2.594 40.413,40.413 0 0 1 -6.06,-3.35 35.177,35.177 0 0 1 -5.133999,-4.215 34.56,34.56 0 0 1 -4.22,-5.119 41.183,41.183 0 0 1 -3.363,-6.042 55.415,55.415 0 0 1 -2.597001,-7.005 80.682,80.682 0 0 1 -1.9179995,-8.027 124.69,124.69 0 0 1 -1.348,-9.137 200.99,200.99 0 0 1 -0.856,-10.326 325.21,325.21 0 0 1 -0.462,-11.593 569.2,569.2 0 0 1 -0.128,-12.96 v -58.21 c -0.01,-4.314 0.04,-8.637 0.128,-12.96 0.089,-3.86 0.236,-7.732 0.462,-11.593 0.197,-3.448 0.482,-6.887 0.856,-10.326 0.335,-3.055 0.787,-6.101 1.348,-9.127 a 80.219,80.219 0 0 1 1.9179995,-8.037 55.983,55.983 0 0 1 2.597001,-7.005 41.695,41.695 0 0 1 3.364,-6.042 35.072,35.072 0 0 1 4.22,-5.119 35.176,35.176 0 0 1 5.133999,-4.215 40.413,40.413 0 0 1 6.059,-3.35 53.64,53.64 0 0 1 7.023,-2.584 80.47,80.47 0 0 1 8.046,-1.916 125.11,125.11 0 0 1 9.148,-1.346 c 3.443,-0.373 6.895,-0.658 10.348,-0.854 3.875,-0.226 7.749999,-0.374 11.625999,-0.452 4.328,-0.098 8.656,-0.148 12.984,-0.138 z m 0.01,4.009 c 4.298,-0.01 8.597,0.039 12.895,0.127 3.827,0.089 7.653,0.236 11.48,0.452 3.383,0.197 6.767,0.472 10.13,0.845 2.971,0.315 5.932,0.747 8.863,1.297 a 75.943,75.943 0 0 1 7.654,1.819 50.493,50.493 0 0 1 6.501,2.397 37.038,37.038 0 0 1 5.47,3.026 30.383,30.383 0 0 1 4.524,3.724 31.05,31.05 0 0 1 3.738,4.519 37.27,37.27 0 0 1 3.03,5.443 51.458,51.458 0 0 1 2.4,6.494 75.563,75.563 0 0 1 1.83,7.634 c 0.54,2.928 0.973,5.875 1.297,8.842 0.374,3.36 0.65,6.73 0.846,10.11 a 318.4,318.4 0 0 1 0.453,11.456 c 0.088,4.293 0.138,8.577 0.138,12.87 v 58.212 c 0,4.293 -0.05,8.577 -0.138,12.87 a 317.55,317.55 0 0 1 -0.453,11.456 c -0.196,3.38 -0.472,6.75 -0.846,10.12 a 121.69,121.69 0 0 1 -1.298,8.832 75.561,75.561 0 0 1 -1.83,7.634 50.9,50.9 0 0 1 -2.4,6.494 36.767,36.767 0 0 1 -3.03,5.443 30.615,30.615 0 0 1 -3.737,4.53 30.938,30.938 0 0 1 -4.525,3.713 37.037,37.037 0 0 1 -5.469,3.026 49.07,49.07 0 0 1 -6.501,2.397 75.943,75.943 0 0 1 -7.653,1.818 c -2.931,0.55 -5.892,0.982 -8.862,1.306 a 193.7,193.7 0 0 1 -10.132,0.836 c -3.826,0.216 -7.652,0.373 -11.479,0.452 -4.298,0.098 -8.597,0.137 -12.895,0.137 H 92.308002 c -4.298,0 -8.597,-0.04 -12.895,-0.137 a 320.08,320.08 0 0 1 -11.479999,-0.452 193.7,193.7 0 0 1 -10.13,-0.836 c -2.971,-0.324 -5.932,-0.756 -8.863,-1.306 a 75.943,75.943 0 0 1 -7.653,-1.818 49.07,49.07 0 0 1 -6.501,-2.397 37.038,37.038 0 0 1 -5.47,-3.026 30.939,30.939 0 0 1 -4.524,-3.714 30.615,30.615 0 0 1 -3.738,-4.53 36.765,36.765 0 0 1 -3.03,-5.442 50.903,50.903 0 0 1 -2.4,-6.494 75.566,75.566 0 0 1 -1.829,-7.634 121.69,121.69 0 0 1 -1.298,-8.832 c -0.374,-3.37 -0.65,-6.74 -0.846,-10.12 a 317.45,317.45 0 0 1 -0.453,-11.456 623.85,623.85 0 0 1 -0.137,-12.87 V 97.013 c 0,-4.293 0.049,-8.577 0.137,-12.87 0.079,-3.822 0.236,-7.634 0.453,-11.456 0.197,-3.38 0.472,-6.75 0.846,-10.11 0.324,-2.967 0.757,-5.914 1.298,-8.842 a 75.568,75.568 0 0 1 1.83,-7.634 51.46,51.46 0 0 1 2.4,-6.494 37.27,37.27 0 0 1 3.03,-5.443 31.05,31.05 0 0 1 3.737,-4.52 30.384,30.384 0 0 1 4.525,-3.723 37.039,37.039 0 0 1 5.469,-3.026 50.494,50.494 0 0 1 6.501,-2.397 75.943,75.943 0 0 1 7.653001,-1.818 c 2.930999,-0.55 5.891999,-0.982 8.863,-1.297 3.364,-0.373 6.747,-0.648 10.129999,-0.845 a 344.71,344.71 0 0 1 11.48,-0.452 c 4.298,-0.088 8.596999,-0.137 12.894999,-0.127 z" style="opacity:0.4;isolation:isolate;fill:url(#p-3);fill-rule:evenodd"/>
</svg>
