<svg xmlns="http://www.w3.org/2000/svg" style="isolation:isolate" width="256" height="256" viewBox="0 0 256 256">
 <defs>
  <filter id="tC2aJ6ylwLZr9gVnQCa2r9wQxMMMYERW" width="400%" height="400%" x="-200%" y="-200%" color-interpolation-filters="sRGB" filterUnits="objectBoundingBox">
   <feGaussianBlur xmlns="http://www.w3.org/2000/svg" in="SourceGraphic" stdDeviation="4.294"/>
   <feOffset xmlns="http://www.w3.org/2000/svg" dx="0" dy="4" result="pf_100_offsetBlur"/>
   <feFlood xmlns="http://www.w3.org/2000/svg" flood-opacity=".4"/>
   <feComposite xmlns="http://www.w3.org/2000/svg" in2="pf_100_offsetBlur" operator="in" result="pf_100_dropShadow"/>
   <feBlend xmlns="http://www.w3.org/2000/svg" in="SourceGraphic" in2="pf_100_dropShadow" mode="normal"/>
  </filter>
 </defs>
 <g filter="url(#tC2aJ6ylwLZr9gVnQCa2r9wQxMMMYERW)">
  <linearGradient id="_lgradient_150" x1=".51" x2=".512" y1="1.06" y2=".218" gradientTransform="matrix(244.648,0,0,228.338,5.671,11.947)" gradientUnits="userSpaceOnUse">
   <stop offset="0%" style="stop-color:#812cc9"/>
   <stop offset="100%" style="stop-color:#005fe7"/>
  </linearGradient>
  <path fill="url(#_lgradient_150)" fill-rule="evenodd" d="M 165.68 11.947 C 239.735 11.947 250.319 22.504 250.319 96.491 L 250.319 155.742 C 250.319 229.728 239.735 240.285 165.68 240.285 L 90.31 240.285 C 16.255 240.285 5.671 229.728 5.671 155.742 L 5.671 96.491 C 5.671 22.504 16.255 11.947 90.31 11.947 L 165.68 11.947 Z"/>
 </g>
 <g>
  <path fill="#f7f7f7" fill-opacity=".5" d="M 64.121 239.56 C 64.671 239.596 65.142 239.658 65.702 239.691 C 66.137 239.716 66.729 239.702 67.17 239.726 L 67.131 232.134 L 93.76 207.669 L 93.76 199.513 L 106.05 187.28 L 106.05 181.165 L 112.194 175.048 L 112.194 158.739 L 104.001 150.583 L 87.614 150.583 L 79.421 142.429 L 58.938 142.429 L 50.743 150.583 L 50.743 170.972 L 67.186 185.312 L 67.131 203.591 L 60.987 209.708 L 60.987 236.21 L 64.121 239.56 Z M 99.904 81.27 L 93.76 87.387 L 99.904 87.387 L 101.953 89.426 L 104.001 89.426 L 106.05 87.387 L 99.904 81.27 Z M 177.742 109.812 L 153.162 109.812 L 138.824 124.083 L 138.824 144.471 L 149.065 154.665 L 163.404 154.665 L 169.549 160.781 L 169.549 166.897 L 173.646 170.974 L 173.646 195.439 L 189.202 211.804 L 214.89 186.237 L 214.613 162.819 L 235.097 142.432 L 226.903 142.432 L 206.42 122.045 L 206.42 113.89 L 181.839 113.89 L 177.742 109.812 Z"/>
  <path fill="#f7f7f7" fill-opacity=".5" d="M 251.48 117.96 L 251.48 96.489 C 251.48 87.241 251.313 78.984 250.877 71.614 C 250.678793 68.140298 250.389026 64.672426 250.008 61.214 C 249.642 57.96 249.196 54.916 248.656 52.067 C 248.116 49.219 247.482 46.566 246.742 44.097 C 246.003 41.628 245.157 39.341 244.191 37.226 C 243.577 35.879 242.826 34.715 242.111 33.503 L 239.189 36.411 L 226.899 36.411 L 214.609 48.644 L 206.416 40.489 L 181.836 40.489 L 169.546 52.722 L 169.546 62.915 L 181.836 62.915 L 181.836 56.798 L 190.029 56.798 L 190.029 64.954 L 185.931 69.03 L 169.546 69.306 L 163.4 75.147 L 155.207 75.147 L 155.207 83.302 L 149.061 89.419 L 149.061 101.649 L 161.351 101.649 L 169.546 93.495 L 177.739 93.495 L 177.739 97.573 L 185.931 105.728 L 190.029 105.728 L 190.029 101.649 L 181.836 93.495 L 190.029 93.495 L 198.221 101.649 L 208.463 101.649 L 202.319 95.534 L 208.463 89.419 L 214.609 89.419 L 220.753 95.534 L 214.609 95.534 L 208.463 101.649 L 214.497 107.655 L 214.609 113.882 L 206.416 113.882 L 230.997 138.347 L 235.092 138.347 L 239.189 134.271 L 247.382 126.114 L 239.189 117.96 L 251.48 117.96 Z"/>
  <path fill="#f7f7f7" fill-opacity=".5" d="M 157.26 71.073 L 157.26 64.957 L 163.405 58.841 L 163.405 71.073 L 157.26 71.073 Z M 220.759 191.363 L 220.759 178.579 L 228.953 170.975 L 228.953 191.363 L 220.759 191.363 Z M 136.776 11.953 L 90.719 11.953 C 89.93 11.953 89.371 12.002 88.596 12.004 L 81.471 20.108 L 93.761 32.34 L 93.761 45.123 L 108.1 60.883 L 116.293 60.883 L 116.293 52.729 L 128.583 40.496 L 128.583 32.34 L 136.776 24.186 L 136.776 11.953 Z M 126.534 56.805 L 132.68 56.805 L 138.825 62.921 L 126.534 62.921 L 126.534 56.805 Z M 71.229 124.083 L 65.084 124.083 L 58.938 130.2 L 71.229 130.2 L 71.229 124.083 Z"/>
  <path fill="#f7f7f7" fill-opacity=".5" d="M 16.585 30.96 C 16.478 31.112 16.34 31.228 16.235 31.382 C 14.982433 33.235345 13.889507 35.191707 12.968 37.23 C 12.003 39.345 11.157 41.632 10.417 44.101 C 9.677 46.57 9.044 49.223 8.504 52.071 C 7.964 54.92 7.518 57.964 7.152 61.218 C 6.770622 64.676416 6.480521 68.144288 6.282 71.618 C 5.846 78.988 5.68 87.245 5.68 96.493 L 5.68 117.964 L 13.873 126.118 L 26.163 126.118 L 46.648 146.507 L 46.648 122.042 L 58.938 109.81 L 67.131 109.81 L 79.421 97.577 L 91.711 97.577 L 85.567 91.46 L 97.857 77.191 L 85.567 64.958 L 67.131 64.958 L 67.131 81.267 L 58.938 81.267 L 50.743 73.112 L 50.743 64.958 L 63.034 52.726 L 73.277 52.726 L 73.277 44.569 L 60.987 32.337 L 40.502 32.337 L 40.502 44.569 L 30.26 44.569 L 16.585 30.96 Z M 67.131 12.515 C 66.702 12.538 66.126 12.523 65.702 12.548 C 61.997 12.765 58.513 13.048 55.241 13.411 C 51.969 13.775 48.907 14.219 46.042 14.755 C 43.631093 15.212274 41.242281 15.779195 38.883 16.454 L 46.648 24.183 L 67.131 24.183 L 67.131 12.515 Z"/>
  <circle fill="#ffffff" cx="72.959" cy="103.69" r="4.078" vector-effect="non-scaling-stroke"/>
  <circle fill="#ffffff" cx="93.346" cy="185.24" r="4.078" vector-effect="non-scaling-stroke"/>
  <circle fill="#ffffff" cx="154.51" cy="144.47" r="4.078" vector-effect="non-scaling-stroke"/>
  <circle fill="#ffffff" cx="174.9" cy="83.306" r="4.078" vector-effect="non-scaling-stroke"/>
 </g>
 <g opacity=".5">
  <path fill="none" stroke="#ffffff" stroke-width="2" d="M 5.68 138.35 C 74.095 89.261 156.55 81.265 250.33 79.226 M 7.25 59.905 C 28.223 74.953 48.943 89.289 72.476 103.738 C 125.71 136.422 185.296 163.249 250.326 164.662 M 155.014 141.408 C 175.111 98.331 187.381 62.812 182.266 12.288 M 140.053 239.938 C 70.115 187.599 64.495 114.668 76.547 12.288" vector-effect="non-scaling-stroke"/>
 </g>
 <g opacity=".5">
  <path fill="none" stroke="#ffffff" stroke-width="2" d="M 153.94 144.28 C 109.544 199.829 18.46 201.3 7.28 194.303" vector-effect="non-scaling-stroke"/>
 </g>
 <g>
  <g opacity=".3">
   <path fill="#020202" d="M 121.76 209.87 C 89.947 206.767 61.96 183.206 53.61 152.498 C 52.619 148.851 51.093 138.437 50.842 133.605 C 50.802 132.839 50.567 132.955 50.087 133.975 C 48.849 136.609 49.974 125.479 51.546 119.548 C 52.352 116.503 52.891 113.89 52.743 113.74 C 52.595 113.591 51.939 114.416 51.286 115.572 C 50.169 117.549 50.126 117.564 50.566 115.823 C 51.759 111.098 56.202 101.326 59.271 96.677 C 61.454 93.371 62.66 90.736 62.66 89.273 C 62.66 82.895 66.401 72.733 70.6 67.705 L 72.733 65.152 L 73.238 68.816 C 73.568 71.22 74.684 73.882 76.478 76.556 L 79.214 80.63 L 87.308 81.076 C 91.759 81.322 95.948 81.762 96.616 82.054 C 97.431 82.41 98.959 81.718 101.262 79.947 C 105.594 76.617 111.69 74.754 116.082 75.417 L 119.329 75.907 L 115.776 78.736 C 112.086 81.673 107.542 87.982 107.542 90.168 C 107.542 92.043 109.712 95.023 111.882 96.128 C 112.934 96.664 115.862 97.33 118.387 97.608 C 120.912 97.886 124 98.472 125.249 98.911 C 127.214 99.601 127.459 99.971 127.063 101.653 C 126.205 105.298 123.983 107.3 116.68 111.007 L 109.381 114.712 L 109.241 119.447 C 109.069 125.241 108.333 126.189 105.655 124.068 C 103.11 122.052 101.55 122.075 99.678 124.158 C 95.328 128.998 98.012 135.206 107.093 141.312 C 110.47 143.583 115.513 143.876 121.22 142.133 C 123.207 141.526 126.587 141.026 128.732 141.022 C 134.818 141.01 140.652 144.655 140.652 148.472 C 140.652 150.693 139.419 151.504 137.009 150.87 C 135.977 150.598 132.993 151.69 128.37 154.031 C 121.886 157.315 120.789 157.633 114.964 157.914 C 111.474 158.082 107.32 157.858 105.731 157.416 C 104.141 156.974 102.721 156.735 102.573 156.884 C 101.779 157.683 110.617 165.209 114.486 167.029 C 133.985 176.203 157.853 165.594 164.189 144.936 C 165.98 139.096 166.157 129.54 164.572 124.276 C 163.969 122.276 163.472 120.377 163.468 120.057 C 163.441 118.086 172.283 125.925 175.742 130.938 C 178.816 135.395 178.37 133.427 175.046 127.871 C 172.306 123.291 168.651 119.564 158.719 111.224 C 143.883 98.764 138.892 86.074 142.765 70.652 C 144.833 62.417 151.617 49.133 153.749 49.145 C 154.032 49.146 154.897 50.701 155.673 52.599 C 156.667 55.033 159.27 58.201 164.5 63.339 C 168.58 67.349 172.119 70.629 172.365 70.629 C 172.611 70.629 173.298 68.878 173.892 66.739 L 174.972 62.849 L 176.132 66.622 C 177.81 72.081 179.73 75.557 184.073 81.001 C 189.933 88.345 194.957 96.104 197.396 101.578 C 199.949 107.308 202.456 115.958 202.456 119.036 C 202.456 120.116 202.851 122.176 203.213 121.969 C 203.36 121.886 203.214 120.581 203.478 120.009 C 205.804 120.637 206.053 130.689 203.944 140.982 C 202.981 145.68 201.369 150.32 199.054 155.06 C 196.441 160.404 195.557 163.093 195.431 166.079 C 195.193 171.684 191.039 179.897 186.248 184.235 C 184.226 186.065 180.009 189.081 176.878 190.936 C 173.748 192.791 169.196 196.258 166.764 198.641 C 159.911 205.355 152.127 208.44 138.351 209.901 C 130.732 210.709 130.361 210.708 121.76 209.87 L 121.76 209.87 Z"/>
  </g>
  <linearGradient id="_lgradient_151" x1="-.036" x2="1.035" y1=".493" y2=".541" gradientTransform="matrix(30.54475,0,0,85.739616,172.53136,60.766418)" gradientUnits="userSpaceOnUse">
   <stop offset="0%" style="stop-color:#0083ff"/>
   <stop offset="9.8%" style="stop-color:#0092f8"/>
   <stop offset="30.6%" style="stop-color:#00abeb"/>
   <stop offset="52.1%" style="stop-color:#00bee1"/>
   <stop offset="74.7%" style="stop-color:#00c8dc"/>
   <stop offset="99.9%" style="stop-color:#00ccda"/>
  </linearGradient>
  <path fill="url(#_lgradient_151)" d="M 176.52 60.766418 C 172.606 65.408178 170.783 75.856977 174.751 86.44838 C 178.721 97.039783 184.804 94.739784 188.595 105.54 C 193.601 119.790214 191.271 138.934801 191.271 138.934801 C 191.271 138.934801 197.288 156.683906 201.481 137.830638 C 210.761 102.417991 176.52 69.486653 176.52 60.766418 L 176.52 60.766418 Z"/>
  <linearGradient id="_lgradient_152" x1=".573" x2=".363" y1=".752" y2=".064" gradientTransform="matrix(140.990832,0,0,152.386303,58.147684,52.269703)" gradientUnits="userSpaceOnUse">
   <stop offset="0%" stop-opacity=".4" style="stop-color:#000f43"/>
   <stop offset="48.5%" stop-opacity=".173" style="stop-color:#001962"/>
   <stop offset="100%" stop-opacity="0" style="stop-color:#002079"/>
  </linearGradient>
  <path fill="url(#_lgradient_152)" d="M 183.123516 179.289947 C 181.555085 180.416966 179.909706 181.428569 178.199911 182.317053 C 180.464859 178.936854 182.554433 175.438145 184.460046 171.835306 C 186.006283 170.09226 187.422741 168.397827 188.577025 166.565714 C 189.138802 165.665557 189.772335 164.554802 190.44297 163.266247 C 194.516307 155.791295 199.00775 143.694858 199.135078 131.268791 L 199.135078 131.238825 C 199.13802 130.933001 199.139818 130.627011 199.137366 130.320688 C 199.158446 127.201669 198.845386 124.089616 198.203739 121.039761 C 198.236429 121.277993 198.265197 121.51606 198.294618 121.754126 C 198.258495 121.570998 198.228093 121.385872 198.189356 121.202412 C 198.249179 121.541032 198.297233 121.868332 198.348883 122.198461 C 199.181497 129.393228 198.588501 136.411192 195.62221 141.585057 C 195.575463 141.660639 195.527409 141.731393 195.480172 141.80531 C 197.018237 133.941794 197.532777 125.259363 195.821456 116.566942 C 195.821456 116.566942 195.137091 112.341181 190.039248 99.512731 C 187.104994 92.128844 181.894045 86.075132 177.290148 81.66441 C 173.254568 76.579112 169.589365 73.166439 167.56896 70.999702 C 163.34721 66.471945 161.578517 63.079083 160.852145 60.865232 C 160.222373 60.543592 152.16723 52.573362 151.527323 52.269703 C 148.01135 57.82231 136.953794 75.190669 142.213125 91.417475 C 144.596879 98.771229 150.625406 106.403505 156.934576 110.68587 C 157.211624 111.008175 160.688859 114.854862 162.342483 123.530967 C 164.051025 132.495582 163.152868 139.490073 159.638529 149.833142 C 155.505532 158.907135 144.917078 167.87791 135.003345 168.795214 C 113.808784 170.756682 106.049812 157.956201 106.049812 157.956201 C 113.623431 161.040243 121.997302 160.395133 127.089096 157.197718 C 132.221426 153.963844 135.325995 151.566199 137.845741 152.511639 C 140.330181 153.452751 142.307926 150.72098 140.533186 147.888989 C 137.731467 143.493698 132.622954 141.228072 127.555256 142.133276 C 122.417532 142.983822 117.711316 147.129174 110.979791 143.114509 C 110.54409 142.85699 110.122373 142.575673 109.716486 142.271787 C 109.272719 141.974621 111.159096 142.724114 110.718925 142.386326 C 109.408873 141.661472 107.090335 140.081909 106.488839 139.520039 C 106.388644 139.426478 107.505334 139.882799 107.40514 139.789071 C 101.11068 134.509657 101.896875 130.943323 102.094649 128.706498 C 102.253032 126.917004 103.396365 124.623908 105.32295 123.693785 C 106.253471 124.211038 106.833228 124.605929 106.833228 124.605929 C 106.833228 124.605929 106.436371 123.780021 106.221762 123.344676 C 106.296949 123.31138 106.368867 123.320204 106.443727 123.28774 C 107.206057 123.662486 108.891717 124.636228 109.779251 125.230062 C 110.935169 126.060464 111.303586 126.800967 111.303586 126.800967 C 111.303586 126.800967 111.607929 126.630325 111.382859 125.906137 C 111.301134 125.609137 110.950207 124.665362 109.805239 123.71293 L 109.87683 123.721087 C 110.562124 124.118797 111.211246 124.577934 111.816492 125.093049 C 112.139305 123.897556 112.71988 122.649289 112.592225 120.416293 C 112.51426 118.84622 112.550219 118.439676 112.278565 117.833356 C 112.035351 117.312606 112.414882 117.109501 112.837237 117.650228 C 112.764946 117.226545 112.643809 116.813033 112.476339 116.418276 L 112.479935 116.377655 C 113.007061 114.507085 123.635071 109.641707 124.40868 109.073012 C 125.679746 108.156978 126.745579 106.976741 127.535805 105.610228 C 128.127004 104.650803 128.571588 103.304813 128.679955 101.263102 C 128.73798 99.790753 128.065546 98.810186 117.319036 97.664137 C 114.380041 97.369301 112.655644 95.200233 111.675761 93.198644 C 111.496947 92.767461 111.3147 92.376732 111.13229 91.986337 C 110.958184 91.529947 110.818412 91.060729 110.714185 90.582744 C 112.471109 85.443007 115.423179 81.097213 119.763921 77.813728 C 120.000433 77.594307 118.818853 77.869998 119.055202 77.650578 C 119.330942 77.394531 121.131997 76.655527 121.472137 76.489047 C 121.887627 76.289271 119.693474 75.340335 117.756591 75.571409 C 115.783913 75.797822 115.364991 76.037553 114.31221 76.49221 C 114.749111 76.049206 116.138436 75.468524 115.812681 75.472353 C 113.686033 75.804481 111.043373 77.063569 108.784331 78.489637 C 108.77947 78.241294 108.825507 77.994649 108.919504 77.765449 C 107.866722 78.220272 105.281107 80.060875 104.52842 81.618129 C 104.560857 81.319645 104.575376 81.019423 104.571897 80.719137 C 103.770004 81.400483 103.046581 82.172279 102.415501 83.019724 L 102.37611 83.056183 C 96.269945 80.550659 90.896526 80.388508 86.349347 81.511915 C 85.35459 80.494389 84.868654 81.238222 82.605198 76.173068 C 82.451391 75.868076 82.723209 76.47423 82.605198 76.173068 C 82.232859 75.190836 82.83223 77.483598 82.605198 76.173068 C 78.799428 79.231638 73.791974 82.697918 71.388278 85.144675 C 71.35853 85.242232 74.192426 84.328923 71.388278 85.144675 C 70.406271 85.430354 70.472958 86.023856 70.323728 91.387675 C 70.287769 91.794385 70.319642 92.249875 70.287279 92.615964 C 68.367068 95.107837 67.059305 97.217971 66.564705 98.311412 C 64.081409 102.669858 61.346401 109.46424 58.695242 120.211856 C 59.86457 117.298271 61.274421 114.490956 62.909636 111.820098 C 60.705023 117.524868 58.573798 126.483324 58.147684 140.278189 C 58.680992 137.431393 59.364827 134.616002 60.196203 131.844313 C 59.67577 143.289677 61.613594 154.712865 65.874456 165.316781 C 67.399281 169.116021 69.921478 174.88189 74.215146 181.198973 C 87.705165 195.65593 106.731889 204.656005 127.802228 204.656005 C 149.79933 204.657337 169.550628 194.855161 183.123515 179.289448 L 183.123516 179.289947 Z"/>
  <linearGradient id="_lgradient_153" x1="0" x2=".277" y1=".5" y2="1.461" gradientTransform="matrix(140.990832,0,0,152.386303,58.147684,52.269703)" gradientUnits="userSpaceOnUse">
   <stop offset="100%" stop-opacity="0" style="stop-color:#002079"/>
   <stop offset="100%" stop-opacity=".001" style="stop-color:#002079"/>
   <stop offset="100%" stop-opacity=".173" style="stop-color:#001962"/>
  </linearGradient>
  <path fill="url(#_lgradient_153)" d="M 183.123516 179.289947 C 181.555085 180.416966 179.909706 181.428569 178.199911 182.317053 C 180.464859 178.936854 182.554433 175.438145 184.460046 171.835306 C 186.006283 170.09226 187.422741 168.397827 188.577025 166.565714 C 189.138802 165.665557 189.772335 164.554802 190.44297 163.266247 C 194.516307 155.791295 199.00775 143.694858 199.135078 131.268791 L 199.135078 131.238825 C 199.13802 130.933001 199.139818 130.627011 199.137366 130.320688 C 199.158446 127.201669 198.845386 124.089616 198.203739 121.039761 C 198.236429 121.277993 198.265197 121.51606 198.294618 121.754126 C 198.258495 121.570998 198.228093 121.385872 198.189356 121.202412 C 198.249179 121.541032 198.297233 121.868332 198.348883 122.198461 C 199.181497 129.393228 198.588501 136.411192 195.62221 141.585057 C 195.575463 141.660639 195.527409 141.731393 195.480172 141.80531 C 197.018237 133.941794 197.532777 125.259363 195.821456 116.566942 C 195.821456 116.566942 195.137091 112.341181 190.039248 99.512731 C 187.104994 92.128844 181.894045 86.075132 177.290148 81.66441 C 173.254568 76.579112 169.589365 73.166439 167.56896 70.999702 C 163.34721 66.471945 161.578517 63.079083 160.852145 60.865232 C 160.222373 60.543592 152.16723 52.573362 151.527323 52.269703 C 148.01135 57.82231 136.953794 75.190669 142.213125 91.417475 C 144.596879 98.771229 150.625406 106.403505 156.934576 110.68587 C 157.211624 111.008175 160.688859 114.854862 162.342483 123.530967 C 164.051025 132.495582 163.152868 139.490073 159.638529 149.833142 C 155.505532 158.907135 144.917078 167.87791 135.003345 168.795214 C 113.808784 170.756682 106.049812 157.956201 106.049812 157.956201 C 113.623431 161.040243 121.997302 160.395133 127.089096 157.197718 C 132.221426 153.963844 135.325995 151.566199 137.845741 152.511639 C 140.330181 153.452751 142.307926 150.72098 140.533186 147.888989 C 137.731467 143.493698 132.622954 141.228072 127.555256 142.133276 C 122.417532 142.983822 117.711316 147.129174 110.979791 143.114509 C 110.54409 142.85699 110.122373 142.575673 109.716486 142.271787 C 109.272719 141.974621 111.159096 142.724114 110.718925 142.386326 C 109.408873 141.661472 107.090335 140.081909 106.488839 139.520039 C 106.388644 139.426478 107.505334 139.882799 107.40514 139.789071 C 101.11068 134.509657 101.896875 130.943323 102.094649 128.706498 C 102.253032 126.917004 103.396365 124.623908 105.32295 123.693785 C 106.253471 124.211038 106.833228 124.605929 106.833228 124.605929 C 106.833228 124.605929 106.436371 123.780021 106.221762 123.344676 C 106.296949 123.31138 106.368867 123.320204 106.443727 123.28774 C 107.206057 123.662486 108.891717 124.636228 109.779251 125.230062 C 110.935169 126.060464 111.303586 126.800967 111.303586 126.800967 C 111.303586 126.800967 111.607929 126.630325 111.382859 125.906137 C 111.301134 125.609137 110.950207 124.665362 109.805239 123.71293 L 109.87683 123.721087 C 110.562124 124.118797 111.211246 124.577934 111.816492 125.093049 C 112.139305 123.897556 112.71988 122.649289 112.592225 120.416293 C 112.51426 118.84622 112.550219 118.439676 112.278565 117.833356 C 112.035351 117.312606 112.414882 117.109501 112.837237 117.650228 C 112.764946 117.226545 112.643809 116.813033 112.476339 116.418276 L 112.479935 116.377655 C 113.007061 114.507085 123.635071 109.641707 124.40868 109.073012 C 125.679746 108.156978 126.745579 106.976741 127.535805 105.610228 C 128.127004 104.650803 128.571588 103.304813 128.679955 101.263102 C 128.73798 99.790753 128.065546 98.810186 117.319036 97.664137 C 114.380041 97.369301 112.655644 95.200233 111.675761 93.198644 C 111.496947 92.767461 111.3147 92.376732 111.13229 91.986337 C 110.958184 91.529947 110.818412 91.060729 110.714185 90.582744 C 112.471109 85.443007 115.423179 81.097213 119.763921 77.813728 C 120.000433 77.594307 118.818853 77.869998 119.055202 77.650578 C 119.330942 77.394531 121.131997 76.655527 121.472137 76.489047 C 121.887627 76.289271 119.693474 75.340335 117.756591 75.571409 C 115.783913 75.797822 115.364991 76.037553 114.31221 76.49221 C 114.749111 76.049206 116.138436 75.468524 115.812681 75.472353 C 113.686033 75.804481 111.043373 77.063569 108.784331 78.489637 C 108.77947 78.241294 108.825507 77.994649 108.919504 77.765449 C 107.866722 78.220272 105.281107 80.060875 104.52842 81.618129 C 104.560857 81.319645 104.575376 81.019423 104.571897 80.719137 C 103.770004 81.400483 103.046581 82.172279 102.415501 83.019724 L 102.37611 83.056183 C 96.269945 80.550659 90.896526 80.388508 86.349347 81.511915 C 85.35459 80.494389 84.868654 81.238222 82.605198 76.173068 C 82.451391 75.868076 82.723209 76.47423 82.605198 76.173068 C 82.232859 75.190836 82.83223 77.483598 82.605198 76.173068 C 78.799428 79.231638 73.791974 82.697918 71.388278 85.144675 C 71.35853 85.242232 74.192426 84.328923 71.388278 85.144675 C 70.406271 85.430354 70.472958 86.023856 70.323728 91.387675 C 70.287769 91.794385 70.319642 92.249875 70.287279 92.615964 C 68.367068 95.107837 67.059305 97.217971 66.564705 98.311412 C 64.081409 102.669858 61.346401 109.46424 58.695242 120.211856 C 59.86457 117.298271 61.274421 114.490956 62.909636 111.820098 C 60.705023 117.524868 58.573798 126.483324 58.147684 140.278189 C 58.680992 137.431393 59.364827 134.616002 60.196203 131.844313 C 59.67577 143.289677 61.613594 154.712865 65.874456 165.316781 C 67.399281 169.116021 69.921478 174.88189 74.215146 181.198973 C 87.705165 195.65593 106.731889 204.656005 127.802228 204.656005 C 149.79933 204.657337 169.550628 194.855161 183.123515 179.289448 L 183.123516 179.289947 Z"/>
  <linearGradient id="_lgradient_154" x1="1.182" x2=".506" y1=".573" y2=".452" gradientTransform="matrix(33.689288,0,0,31.684699,163.10114,158.185007)" gradientUnits="userSpaceOnUse">
   <stop offset="0%" style="stop-color:#812cc9"/>
   <stop offset="100%" style="stop-color:#005fe7"/>
  </linearGradient>
  <path fill="url(#_lgradient_154)" d="M 166.84 189.823038 C 193.461 186.681676 205.245 158.738422 190.112 158.189396 C 176.442 157.744268 154.231 191.304082 166.84 189.822019 L 166.84 189.823038 Z"/>
  <linearGradient id="_lgradient_155" x1=".145" x2="1.158" y1=".62" y2="-.241" gradientTransform="matrix(19.663374,0,0,36.988219,186.467496,118.171658)" gradientUnits="userSpaceOnUse">
   <stop offset="4.9%" style="stop-color:#005fe7"/>
   <stop offset="17.7%" style="stop-color:#065de6"/>
   <stop offset="35.3%" style="stop-color:#1856e1"/>
   <stop offset="55.7%" style="stop-color:#354adb"/>
   <stop offset="78%" style="stop-color:#5d3ad1"/>
   <stop offset="95.1%" style="stop-color:#812cc9"/>
  </linearGradient>
  <path fill="url(#_lgradient_155)" d="M 192.03 152.481162 C 210.345 141.623905 205.57 118.171658 205.57 118.171658 C 205.57 118.171658 198.501 126.536401 193.7 139.867838 C 188.955 153.070931 181.018 159.038909 192.03 152.481162 Z"/>
  <linearGradient id="_lgradient_156" x1=".313" x2="1.444" y1=".353" y2=".469" gradientTransform="matrix(40.662201,0,0,22.095251,131.306433,183.548706)" gradientUnits="userSpaceOnUse">
   <stop offset="0%" style="stop-color:#002079"/>
   <stop offset="99.5%" style="stop-color:#a238ff"/>
  </linearGradient>
  <path fill="url(#_lgradient_156)" d="M 133.89 203.69637 C 159.425 211.995923 181.372 191.505765 167.844 184.663829 C 155.544 178.492132 121.771 199.771704 133.89 203.69637 Z"/>
  <radialGradient id="_rgradient_0" cx=".5" cy=".5" r=".5" fx=".896" fy=".196" gradientTransform="matrix(359.232959,1.441892,8.776049,435.451484,-57.330409,-89.838943)" gradientUnits="userSpaceOnUse">
   <stop offset="0%" style="stop-color:#00fdff"/>
   <stop offset="20.3%" style="stop-color:#00fdff"/>
   <stop offset="26.4%" style="stop-color:#0af1ff"/>
   <stop offset="37.2%" style="stop-color:#23d2ff"/>
   <stop offset="51.7%" style="stop-color:#4da0ff"/>
   <stop offset="68.9%" style="stop-color:#855bff"/>
   <stop offset="77%" style="stop-color:#a238ff"/>
   <stop offset="80.9%" style="stop-color:#a738fd"/>
   <stop offset="85.5%" style="stop-color:#b539f9"/>
   <stop offset="90.5%" style="stop-color:#cd39f1"/>
   <stop offset="95.6%" style="stop-color:#ee3ae6"/>
   <stop offset="100%" style="stop-color:#ff3be0"/>
  </radialGradient>
  <path fill="url(#_rgradient_0)" d="M 154.99 49.093262 L 155.076 48.997514 C 155.040764 49.022593 155.011398 49.055287 154.99 49.093262 Z M 193.934 162.44307 C 194.555 161.550776 195.395 158.691566 196.138 157.413223 C 200.645 150.000871 200.677 144.089935 200.677 143.95548 C 203.4 130.100483 203.153 124.443178 201.477 113.980119 C 200.129 105.556297 194.234 93.486906 189.127 87.675793 C 183.863 81.687443 187.571 83.639081 182.475 79.265213 C 178.009 74.221105 173.678 69.22691 171.319 67.21823 C 154.276 52.704199 154.661 49.621915 154.989 49.096318 C 154.934 49.157434 154.853 49.249108 154.749 49.369303 C 154.625378 48.868881 154.51036 48.366295 154.404 47.861775 C 154.404 47.861775 145.088 57.351052 143.126 73.166854 C 141.846 83.492403 145.641 94.256967 151.136 101.13761 C 153.997044 104.703056 157.230399 107.94088 160.779 110.793938 L 160.779 110.788845 C 164.93 116.861739 167.215 124.356597 167.215 132.417798 C 167.215 152.603394 151.142 168.966184 131.314 168.966184 C 128.611387 168.968389 125.917109 168.660876 123.282 168.049444 C 113.927 166.232262 108.525 161.425489 105.831 158.161894 C 104.287 156.291745 103.631 154.928858 103.631 154.928858 C 112.012 157.986695 121.281 157.347014 126.916 154.176112 C 132.596 150.968541 136.032 148.591129 138.821 149.529259 C 141.571 150.462297 143.759 147.752821 141.796 144.944541 C 139.872 142.140335 134.866 138.122976 127.433 139.236306 C 121.746 140.079707 116.538 144.190777 109.087 140.209069 C 108.607229 139.955288 108.140611 139.676501 107.689 139.373817 C 107.198 139.078423 109.286 139.822001 108.799 139.486882 C 107.349 138.76775 104.782 137.201143 104.117 136.644988 C 104.006 136.552295 105.242 137.004554 105.13 136.910842 C 98.164 131.675238 99.034 128.137641 99.253 125.920148 C 99.428 124.144729 100.693 121.871213 102.826 120.948362 C 103.856 121.461736 104.496 121.852879 104.496 121.852879 C 104.496 121.852879 104.058 121.033924 103.82 120.602038 C 103.903 120.569443 103.983 120.577591 104.065 120.546015 C 104.909 120.916785 106.775 121.882418 107.757 122.471169 C 109.037 123.296235 109.444 124.029627 109.444 124.029627 C 109.444 124.029627 109.781 123.860539 109.532 123.143445 C 109.441 122.848051 109.052 121.911957 107.786 120.967715 L 107.865 120.975864 C 108.617351 121.366475 109.335621 121.821742 110.012 122.336714 C 110.369 121.151063 111.012 119.912446 110.87 117.698009 C 110.784 116.14057 110.824 115.737204 110.523 115.13623 C 110.253 114.620819 110.674 114.418117 111.141 114.954919 C 111.059964 114.531616 110.925515 114.120768 110.741 113.732599 L 110.746 113.691855 C 111.329 111.838003 123.092 107.011877 123.948 106.448591 C 125.327605 105.566469 126.507347 104.395685 127.409 103.013872 C 128.063 102.061481 128.555 100.727115 128.675 98.702138 C 128.715 97.789472 128.44 97.068303 125.325 96.377693 C 123.455 95.963122 120.563 95.559757 116.101 95.132963 C 112.848 94.840625 110.94 92.689342 109.855 90.704091 C 109.657 90.276279 109.455 89.889211 109.254 89.502143 C 109.061985 89.051898 108.907117 88.586146 108.791 88.109716 C 110.737453 82.919744 114.242669 78.488097 118.807 75.446481 C 119.068 75.228501 117.761 75.502504 118.022 75.284524 C 118.328 75.030892 120.321 74.2975 120.698 74.133506 C 121.158 73.935897 118.729 72.993692 116.585 73.222877 C 114.402 73.446969 113.938 73.685322 112.773 74.136562 C 113.257 73.696526 114.794 73.121017 114.434 73.125092 C 112.08 73.4541 109.154 74.702903 106.654 76.11672 C 106.649553 75.869044 106.701224 75.623657 106.805 75.399626 C 105.64 75.849847 102.778 77.676197 101.945 79.219376 C 101.981474 78.923781 101.998179 78.626003 101.995 78.328101 C 101.117649 78.994461 100.317215 79.759894 99.609 80.609765 L 99.565 80.645416 C 92.807 78.160032 86.86 78.000111 81.827 79.113441 C 80.727 78.105027 78.957 76.579164 76.451 71.555429 C 76.281 71.252905 76.19 72.18085 76.059 71.881381 C 75.086 69.582401 74.498 65.8146 74.594 63.21717 C 74.594 63.21717 72.581 64.151226 70.914 68.05552 C 70.695344 68.555266 70.459872 69.047202 70.208 69.530452 C 70.118 69.643517 70.415 68.249054 70.368 68.32443 C 70.078 68.823544 69.328 69.522304 68.999 70.425802 C 68.773 71.095022 68.456 71.469867 68.253 72.305119 L 68.206 72.381514 C 68.19 72.135013 68.266 71.369025 68.21 71.52589 C 67.429163 73.133461 66.75726 74.793584 66.199 76.494621 C 65.301 79.499491 64.257 83.588151 64.091 88.908299 C 64.051 89.311664 64.087 89.763923 64.051 90.126544 C 61.926 92.597668 60.478 94.689872 59.931 95.7757 C 57.183 100.098638 54.155 106.837696 51.221 117.496326 C 52.526417 114.584911 54.08743 111.799599 55.885 109.174364 C 53.445 114.831669 51.086 123.715898 50.615 137.397733 C 51.207215 134.566511 51.964219 131.773672 52.882 129.034009 C 52.461 138.157609 53.504 149.468143 59.167 162.230183 C 62.529 169.737265 70.268 184.980614 89.179 196.875824 L 89.177 196.876843 C 89.177 196.876843 95.611 201.755937 106.669 205.411692 C 107.486 205.713198 108.314 206.010629 109.159 206.298893 C 108.89952 206.191854 108.642769 206.078073 108.389 205.957662 C 115.74908 208.20375 123.3907 209.347724 131.074 209.353674 C 159.707 209.379139 168.151 197.666258 168.151 197.666258 L 168.067 197.729411 Q 168.674 197.148809 169.235 196.521352 C 164.717 200.866699 154.408 201.154963 150.553 200.841234 C 157.127 198.875336 161.453 197.210944 169.868 193.929015 Q 171.345 193.369803 172.888 192.655765 C 173 192.605853 173.112 192.551867 173.224 192.499919 C 173.428 192.403152 173.63 192.311478 173.836 192.209618 C 177.935895 190.241476 181.791051 187.782913 185.32 184.885884 C 193.77 178.010334 195.61 171.307946 196.57 166.889259 C 196.436 167.312997 196.019 168.30002 195.725 168.939701 C 193.549 173.681284 188.723 176.591424 183.482 179.086994 C 185.975725 175.753226 188.288193 172.282744 190.409 168.691162 C 192.122 166.964635 192.655 164.260252 193.933 162.44307 L 193.934 162.44307 Z"/>
  <linearGradient id="_lgradient_157" x1=".613" x2=".516" y1="-.095" y2=".991" gradientTransform="matrix(60.429221,0,0,155.2489,142.814984,45.530199)" gradientUnits="userSpaceOnUse">
   <stop offset="0%" style="stop-color:#00ec00"/>
   <stop offset="9.6%" style="stop-color:#00e244"/>
   <stop offset="21.9%" style="stop-color:#00d694"/>
   <stop offset="30.6%" style="stop-color:#00cfc7"/>
   <stop offset="34.8%" style="stop-color:#00ccda"/>
   <stop offset="42.2%" stop-opacity=".923" style="stop-color:#0bc2dd"/>
   <stop offset="56.7%" stop-opacity=".723" style="stop-color:#29a7e4"/>
   <stop offset="77%" stop-opacity=".401" style="stop-color:#597df0"/>
   <stop offset="100%" stop-opacity="0" style="stop-color:#9448ff"/>
  </linearGradient>
  <path fill="url(#_lgradient_157)" d="M 183.65 178.883274 C 187.096 175.014631 190.19 170.588814 192.534 165.570172 C 198.564 152.654324 207.89 131.177143 200.545 108.746552 C 194.741 91.018838 186.771 81.32584 176.652 71.855916 C 160.219 56.478112 155.629 49.612748 155.629 45.530199 C 155.629 45.530199 136.655 67.074608 144.884 89.545942 C 153.113 112.017277 169.967 111.19323 181.117 134.643439 C 194.237 162.237313 170.501 192.350185 150.872 200.7791 C 152.073 200.507133 194.507 190.725518 196.737 166.002058 C 196.687 166.457373 195.731 173.295234 183.65 178.883274 L 183.65 178.883274 Z"/>
  <linearGradient id="_lgradient_158" x1="-1.69" x2="-.456" y1="-.421" y2="-.299" gradientTransform="matrix(22.017816,0,0,25.545024,106.667123,88.11318)" gradientUnits="userSpaceOnUse">
   <stop offset="0%" style="stop-color:#005fe7"/>
   <stop offset="46.4%" stop-opacity=".508" style="stop-color:#0071f3"/>
   <stop offset="83.3%" stop-opacity=".143" style="stop-color:#007efc"/>
   <stop offset="100%" stop-opacity="0" style="stop-color:#0083ff"/>
  </linearGradient>
  <path fill="url(#_lgradient_158)" d="M 128.68159 98.668678 C 128.745825 97.208648 128.002291 96.228081 116.147917 95.095517 C 111.270732 94.636865 109.403152 90.045513 108.833856 88.11318 C 107.099652 92.702201 106.383577 97.517635 106.768502 103.342271 C 107.031656 107.157992 109.548623 111.253567 110.751778 113.658204 C 110.751778 113.658204 111.019183 113.304267 111.142587 113.173414 C 113.408168 110.770941 122.900526 107.110379 123.79231 106.590628 C 124.775298 105.958171 128.516505 103.173959 128.68159 98.668678 L 128.68159 98.668678 Z"/>
  <g opacity=".5">
   <radialGradient id="_rgradient_1" cx="-1.534" cy="-.838" r="165.97" fx="-1.534" fy="-.838" gradientTransform="matrix(21.910089,2.523862,-2.175372,25.420039,106.667123,88.11318)" gradientUnits="userSpaceOnUse">
    <stop offset="62.5%" stop-opacity="0" style="stop-color:#ffe302"/>
    <stop offset="67%" stop-opacity=".051" style="stop-color:#ffe302"/>
    <stop offset="75.1%" stop-opacity=".185" style="stop-color:#ffe302"/>
    <stop offset="86.2%" stop-opacity=".403" style="stop-color:#ffe302"/>
    <stop offset="99.5%" stop-opacity=".7" style="stop-color:#ffe302"/>
   </radialGradient>
   <path fill="url(#_rgradient_1)" d="M 128.68159 98.668678 C 128.745825 97.208648 128.002291 96.228081 116.147917 95.095517 C 111.270732 94.636865 109.403152 90.045513 108.833856 88.11318 C 107.099652 92.702201 106.383577 97.517635 106.768502 103.342271 C 107.031656 107.157992 109.548623 111.253567 110.751778 113.658204 C 110.751778 113.658204 111.019183 113.304267 111.142587 113.173414 C 113.408168 110.770941 122.900526 107.110379 123.79231 106.590628 C 124.775298 105.958171 128.516505 103.173959 128.68159 98.668678 L 128.68159 98.668678 Z"/>
  </g>
  <linearGradient id="_lgradient_159" x1=".748" x2=".143" y1="1.278" y2="-.448" gradientTransform="matrix(17.805588,0,0,26.925377,64.033412,63.23856)" gradientUnits="userSpaceOnUse">
   <stop offset="18.7%" stop-opacity=".5" style="stop-color:#4a1475"/>
   <stop offset="61.7%" stop-opacity=".23" style="stop-color:#2277ac"/>
   <stop offset="94.4%" stop-opacity="0" style="stop-color:#00ccda"/>
  </linearGradient>
  <path fill="url(#_lgradient_159)" d="M 76.494 71.573764 C 76.324 71.27124 76.233 72.198166 76.102 71.899716 C 75.128 69.599717 74.536 65.87266 74.676 63.23856 C 74.676 63.23856 72.663 64.173635 70.996 68.07691 C 70.687 68.778726 70.489 69.165794 70.291 69.55388 C 70.2 69.665926 70.497 68.270444 70.45 68.346839 C 70.16 68.845953 69.411 69.544713 69.086 70.407467 C 68.816 71.113357 68.538 71.492276 68.332 72.367253 C 68.268 72.604587 68.396 71.314021 68.34 71.470885 C 64.465 79.100199 63.725 90.636863 64.133 90.148954 C 72.384 81.175088 81.839 79.046214 81.839 79.046214 C 80.833 78.29245 78.647 76.112646 76.494 71.573764 L 76.494 71.573764 Z"/>
  <linearGradient id="_lgradient_160" x1=".081" x2=".415" y1=".073" y2=".539" gradientTransform="matrix(33.999305,0,0,46.779492,83.92257,120.480096)" gradientUnits="userSpaceOnUse">
   <stop offset=".5%" stop-opacity=".5" style="stop-color:#002079"/>
   <stop offset="100%" stop-opacity="0" style="stop-color:#0083ff"/>
  </linearGradient>
  <path fill="url(#_lgradient_160)" d="M 107.8 165.417382 C 96.403 160.461893 83.447 153.471241 83.936 137.591267 C 84.602 116.678391 103.082 120.811869 103.082 120.811869 C 102.384 120.985031 100.52 122.336714 99.859 123.778033 C 99.16 125.580955 97.886 129.65128 101.747 133.917177 C 107.809 140.609379 89.292 149.793077 117.873 167.14289 C 118.593 167.542182 111.173 166.904538 107.798 165.418401 L 107.8 165.417382 Z"/>
  <g opacity=".5">
   <linearGradient id="_lgradient_161" x1=".477" x2=".494" y1="1.019" y2=".843" gradientTransform="matrix(49.334657,0,0,17.46489,89.139343,139.417617)" gradientUnits="userSpaceOnUse">
    <stop offset=".5%" stop-opacity=".9" style="stop-color:#4a1475"/>
    <stop offset="18.4%" stop-opacity=".603" style="stop-color:#6720a2"/>
    <stop offset="38.2%" stop-opacity=".341" style="stop-color:#812acb"/>
    <stop offset="57.5%" stop-opacity=".152" style="stop-color:#9332e8"/>
    <stop offset="75.9%" stop-opacity=".039" style="stop-color:#9e36f9"/>
    <stop offset="92.6%" stop-opacity="0" style="stop-color:#a238ff"/>
   </linearGradient>
   <path fill="url(#_lgradient_161)" d="M 103.75 154.997104 C 111.832 157.861407 121.246 157.359237 126.882 154.188336 C 130.655 152.049276 135.496 148.621687 138.474 149.467125 C 135.895 148.429171 133.942 147.944318 131.593 147.825141 C 131.193 147.825141 130.713 147.815974 130.277 147.772174 C 129.416663 147.769335 128.556888 147.817289 127.702 147.915797 C 126.247 148.052289 124.635 148.987364 123.169 148.836611 C 123.089 148.828462 124.591 148.209154 124.469 148.236656 C 123.692 148.401669 122.849 148.43732 121.956 148.550385 C 121.39 148.614556 120.902 148.686877 120.34 148.710305 C 103.508 150.163847 89.282 139.417617 89.282 139.417617 C 88.072 143.571468 94.702 151.788514 103.751 154.997104 L 103.75 154.997104 Z"/>
  </g>
  <linearGradient id="_lgradient_162" x1=".063" x2=".565" y1=".016" y2="1.139" gradientTransform="matrix(58.079524,0,0,129.585273,148.362585,49.410047)" gradientUnits="userSpaceOnUse">
   <stop offset="0%" stop-opacity="0" style="stop-color:#00ec00"/>
   <stop offset="28%" stop-opacity=".499" style="stop-color:#00dc6d"/>
   <stop offset="49.9%" stop-opacity=".859" style="stop-color:#00d1bb"/>
   <stop offset="59.8%" style="stop-color:#00ccda"/>
   <stop offset="67.7%" style="stop-color:#04c9db"/>
   <stop offset="75.3%" style="stop-color:#0fc1df"/>
   <stop offset="82.8%" style="stop-color:#23b2e6"/>
   <stop offset="90.2%" style="stop-color:#3e9ef0"/>
   <stop offset="97.5%" style="stop-color:#6184fc"/>
   <stop offset="98.5%" style="stop-color:#6680fe"/>
  </linearGradient>
  <path fill="url(#_lgradient_162)" d="M 183.62 178.99532 C 200.646 161.968402 209.258 141.271469 205.618 118.057575 C 205.618 118.057575 207.072 129.961953 201.556 142.137279 C 204.206 130.250217 204.515 115.479498 197.474 100.183182 C 188.077 79.767382 172.622 69.024208 166.722 64.542368 C 157.782 57.751362 154.076 50.837105 154.01 49.410047 C 151.34 54.983826 143.26 74.083594 153.142 90.532966 C 162.399 105.944384 176.983 110.517898 187.192 124.654029 C 206.001 150.695556 183.62 178.99532 183.62 178.99532 Z"/>
  <linearGradient id="_lgradient_163" x1=".718" x2=".438" y1=".072" y2=".823" gradientTransform="matrix(81.483065,0,0,86.539253,103.41,110.786808)" gradientUnits="userSpaceOnUse">
   <stop offset="0%" style="stop-color:#0083ff"/>
   <stop offset="3.6%" stop-opacity=".923" style="stop-color:#0083ff"/>
   <stop offset="14.5%" stop-opacity=".709" style="stop-color:#0083ff"/>
   <stop offset="25.8%" stop-opacity=".52" style="stop-color:#0083ff"/>
   <stop offset="37.2%" stop-opacity=".36" style="stop-color:#0083ff"/>
   <stop offset="48.9%" stop-opacity=".23" style="stop-color:#0083ff"/>
   <stop offset="60.7%" stop-opacity=".129" style="stop-color:#0083ff"/>
   <stop offset="73%" stop-opacity=".057" style="stop-color:#0083ff"/>
   <stop offset="85.7%" stop-opacity=".014" style="stop-color:#0083ff"/>
   <stop offset="100%" stop-opacity="0" style="stop-color:#0083ff"/>
  </linearGradient>
  <path fill="url(#_lgradient_163)" d="M 181.18 134.68622 C 175.23 122.167626 167.804 116.705893 160.78 110.786808 C 161.597 111.952087 161.798 112.36462 162.25 113.118384 C 168.433 119.830958 177.55 136.202915 170.931 156.755208 C 158.472 195.442654 108.634 177.224993 103.41 172.107547 C 105.523 194.498412 142.316 205.212047 166.271 190.692922 C 179.903 177.548908 190.931 155.204898 181.181 134.68622 L 181.18 134.68622 Z"/>
 </g>
 <g opacity=".4">
  <linearGradient id="_lgradient_164" x1=".517" x2=".517" y1="0" y2="1" gradientTransform="matrix(244.65,0,0,228.34,5.68,11.95)" gradientUnits="userSpaceOnUse">
   <stop offset="0%" style="stop-color:#ffffff"/>
   <stop offset="12.5%" stop-opacity=".098" style="stop-color:#ffffff"/>
   <stop offset="92.5%" stop-opacity=".098" style="stop-color:#000000"/>
   <stop offset="100%" stop-opacity=".498" style="stop-color:#000000"/>
  </linearGradient>
  <path fill="url(#_lgradient_164)" fill-rule="evenodd" d="M 165.06803 11.951234 C 169.395994 11.941409 173.723944 11.990533 178.051908 12.088781 C 181.927398 12.167379 185.802873 12.31475 189.678362 12.540721 C 193.1309 12.737216 196.583423 13.022134 200.026115 13.395476 C 203.085193 13.729518 206.144271 14.181458 209.173842 14.741469 C 211.888645 15.242533 214.57394 15.881143 217.219897 16.6573 C 219.619947 17.354858 221.970814 18.219439 224.242988 19.241215 C 226.357793 20.184394 228.384061 21.304417 230.302129 22.591462 C 232.141505 23.829383 233.862851 25.244151 235.436659 26.80629 C 237.000621 28.378252 238.417046 30.087764 239.656409 31.924995 C 240.944972 33.840824 242.066305 35.864728 243.020409 37.967229 C 244.043389 40.246576 244.908985 42.584873 245.617197 44.972292 C 246.394255 47.615155 247.033606 50.297317 247.535265 53.008956 C 248.095924 56.034984 248.548399 59.080665 248.882828 62.13617 C 249.256611 65.574836 249.541856 69.013506 249.738578 72.462003 C 249.964823 76.323139 250.112361 80.194101 250.200884 84.055237 C 250.289421 88.378131 250.338591 92.701032 250.32876 97.014106 L 250.32876 155.225886 C 250.338591 159.54878 250.289421 163.861854 250.200884 168.184747 C 250.112361 172.05571 249.964823 175.916853 249.738578 179.777981 C 249.541856 183.226485 249.256611 186.674975 248.882828 190.103826 C 248.548399 193.15933 248.095924 196.214835 247.535265 199.240851 C 247.033606 201.942664 246.394255 204.624837 245.617197 207.267703 C 244.908985 209.655115 244.043389 212.003235 243.020409 214.272755 C 242.066305 216.38509 240.944972 218.399156 239.656409 220.314999 C 238.417046 222.152226 237.000621 223.871561 235.436659 225.433697 C 233.862851 226.995832 232.141505 228.410601 230.302129 229.648532 C 228.384061 230.935575 226.357793 232.055598 224.242988 232.998768 C 221.970814 234.020552 219.619947 234.885137 217.219897 235.592507 C 214.57394 236.368672 211.888645 237.007276 209.173842 237.498515 C 206.144271 238.068354 203.085193 238.510465 200.026115 238.844519 C 196.583423 239.21785 193.1309 239.502777 189.678362 239.699269 C 185.802873 239.925235 181.927398 240.072615 178.051908 240.161035 C 173.723944 240.249454 169.395994 240.298581 165.06803 240.288762 L 90.941963 240.288762 C 86.614006 240.298581 82.286049 240.249454 77.9581 240.161035 C 74.08261 240.072615 70.20712 239.925235 66.331638 239.699269 C 62.879108 239.502777 59.426578 239.21785 55.983886 238.844519 C 52.924808 238.510465 49.865733 238.068354 46.836162 237.498515 C 44.121356 237.007276 41.436057 236.368672 38.7901 235.592507 C 36.390053 234.885137 34.039187 234.020552 31.767009 232.998768 C 29.652213 232.055598 27.625943 230.935575 25.707871 229.648532 C 23.868489 228.410601 22.147143 226.995832 20.573343 225.433697 C 19.009377 223.871561 17.592955 222.152226 16.353586 220.314999 C 15.065036 218.399156 13.943701 216.38509 12.989584 214.272755 C 11.966612 212.003235 11.101021 209.655115 10.392811 207.267703 C 9.615746 204.624837 8.976389 201.942664 8.47474 199.240851 C 7.914072 196.214835 7.461604 193.15933 7.127172 190.103826 C 6.753394 186.674975 6.468142 183.226485 6.271417 179.777981 C 6.045183 175.916853 5.897639 172.05571 5.809112 168.184747 C 5.720586 163.861854 5.671405 159.54878 5.681241 155.225886 L 5.681241 97.014106 C 5.671405 92.701032 5.720586 88.378131 5.809112 84.055237 C 5.897639 80.194101 6.045183 76.323139 6.271417 72.462003 C 6.468142 69.013506 6.753394 65.574836 7.127172 62.13617 C 7.461604 59.080665 7.914072 56.034984 8.47474 53.008956 C 8.976389 50.297317 9.615746 47.615155 10.392811 44.972292 C 11.101021 42.584873 11.966612 40.246576 12.989584 37.967229 C 13.943701 35.864728 15.065036 33.840824 16.353586 31.924995 C 17.592955 30.087764 19.009377 28.378252 20.573343 26.80629 C 22.147143 25.244151 23.868489 23.829383 25.707871 22.591462 C 27.625943 21.304417 29.652213 20.184394 31.767009 19.241215 C 34.039187 18.219439 36.390053 17.354858 38.7901 16.6573 C 41.436057 15.881143 44.121356 15.242533 46.836162 14.741469 C 49.865733 14.181458 52.924808 13.729518 55.983886 13.395476 C 59.426578 13.022134 62.879108 12.737216 66.331638 12.540721 C 70.20712 12.31475 74.08261 12.167379 77.9581 12.088781 C 82.286049 11.990533 86.614006 11.941409 90.941963 11.951234 L 165.06803 11.951234 Z M 165.077876 15.959741 C 169.376317 15.949916 173.674759 15.99904 177.973216 16.087463 C 181.799522 16.175886 185.625827 16.323257 189.452133 16.539402 C 192.835809 16.735898 196.219486 17.010992 199.583486 17.384332 C 202.554026 17.698726 205.514751 18.131016 208.445953 18.681203 C 211.023049 19.152792 213.580483 19.761928 216.098564 20.498786 C 218.321569 21.147221 220.495374 21.952852 222.600334 22.896029 C 224.508571 23.750785 226.338116 24.762737 228.069293 25.922059 C 229.692286 27.012609 231.207063 28.260355 232.59398 29.645648 C 233.980897 31.030941 235.230091 32.543956 236.331763 34.165043 C 237.492434 35.894202 238.505568 37.711787 239.361333 39.607968 C 240.305606 41.720292 241.112187 43.891565 241.761369 46.102139 C 242.508934 48.617282 243.108947 51.161898 243.590914 53.735987 C 244.131912 56.663768 244.564709 59.6112 244.889308 62.578282 C 245.263091 65.938355 245.538505 69.308252 245.735227 72.687976 C 245.951626 76.509812 246.10901 80.321821 246.187687 84.143656 C 246.276225 88.437084 246.325394 92.720685 246.325394 97.014106 C 246.325394 97.014106 246.325394 97.014106 246.325394 97.014106 L 246.325394 155.225886 C 246.325394 155.225886 246.325394 155.225886 246.325394 155.225886 C 246.325394 159.519306 246.276225 163.802907 246.187687 168.096328 C 246.10901 171.918164 245.951626 175.739999 245.735227 179.552015 C 245.538505 182.931739 245.263091 186.301629 244.889308 189.671533 C 244.564709 192.628784 244.131912 195.576216 243.590914 198.503994 C 243.108947 201.078094 242.508934 203.622706 241.761369 206.137845 C 241.112187 208.358253 240.305606 210.5197 239.361333 212.63202 C 238.505568 214.528209 237.492434 216.355617 236.331763 218.074952 C 235.230091 219.705853 233.980897 221.218876 232.59398 222.604172 C 231.207063 223.979634 229.692286 225.227385 228.069293 226.317935 C 226.338116 227.477251 224.508571 228.489201 222.600334 229.343951 C 220.495374 230.296956 218.321569 231.092775 216.098564 231.741198 C 213.580483 232.478056 211.023049 233.087202 208.445953 233.558787 C 205.514751 234.108972 202.554026 234.541264 199.583486 234.865483 C 196.219486 235.228995 192.835809 235.513922 189.452133 235.70058 C 185.625827 235.916726 181.799522 236.073926 177.973216 236.152526 C 173.674759 236.25078 169.376317 236.290072 165.077876 236.290072 C 165.077876 236.290072 165.077876 236.290072 165.06803 236.290072 L 90.941963 236.290072 C 90.932125 236.290072 90.932125 236.290072 90.932125 236.290072 C 86.633683 236.290072 82.335234 236.25078 78.036784 236.152526 C 74.210479 236.073926 70.384173 235.916726 66.557868 235.70058 C 63.174195 235.513922 59.790522 235.228995 56.426518 234.865483 C 53.455967 234.541264 50.495253 234.108972 47.564048 233.558787 C 44.986944 233.087202 42.429517 232.478056 39.911433 231.741198 C 37.688439 231.092775 35.514626 230.296956 33.409665 229.343951 C 31.501429 228.489201 29.671886 227.477251 27.940703 226.317935 C 26.31772 225.227385 24.802935 223.979634 23.416022 222.604172 C 22.029109 221.218876 20.779904 219.705853 19.678243 218.074952 C 18.517564 216.355617 17.504428 214.528209 16.648674 212.63202 C 15.704392 210.5197 14.897819 208.358253 14.248626 206.137845 C 13.50107 203.622706 12.901057 201.078094 12.419081 198.503994 C 11.878086 195.576216 11.445291 192.628784 11.120694 189.671533 C 10.746916 186.301629 10.471501 182.931739 10.274776 179.552015 C 10.058378 175.739999 9.900997 171.918164 9.822307 168.096328 C 9.733781 163.802907 9.6846 159.519306 9.6846 155.225886 C 9.6846 155.225886 9.6846 155.225886 9.6846 155.225886 L 9.6846 97.014106 C 9.6846 97.014106 9.6846 97.014106 9.6846 97.014106 C 9.6846 92.720685 9.733781 88.437084 9.822307 84.143656 C 9.900997 80.321821 10.058378 76.509812 10.274776 72.687976 C 10.471501 69.308252 10.746916 65.938355 11.120694 62.578282 C 11.445291 59.6112 11.878086 56.663768 12.419081 53.735987 C 12.901057 51.161898 13.50107 48.617282 14.248626 46.102139 C 14.897819 43.891565 15.704392 41.720292 16.648674 39.607968 C 17.504428 37.711787 18.517564 35.894202 19.678243 34.165043 C 20.779904 32.543956 22.029109 31.030941 23.416022 29.645648 C 24.802935 28.260355 26.31772 27.012609 27.940703 25.922059 C 29.671886 24.762737 31.501429 23.750785 33.409665 22.896029 C 35.514626 21.952852 37.688439 21.147221 39.911433 20.498786 C 42.429517 19.761928 44.986944 19.152792 47.564048 18.681203 C 50.495253 18.131016 53.455967 17.698726 56.426518 17.384332 C 59.790522 17.010992 63.174195 16.735898 66.557868 16.539402 C 70.384173 16.323257 74.210479 16.175886 78.036784 16.087463 C 82.335234 15.99904 86.633683 15.949916 90.932125 15.959741 C 90.932125 15.959741 90.932125 15.959741 90.941963 15.959741 L 165.06803 15.959741 C 165.077876 15.959741 165.077876 15.959741 165.077876 15.959741 Z"/>
 </g>
</svg>
