<svg xmlns="http://www.w3.org/2000/svg" style="isolation:isolate" width="256" height="256" viewBox="0 0 256 256">
 <g filter="url(#YVEjWuYCgC5nfvNw0qBkYKQoLbhvmk7A)">
  <linearGradient id="_lgradient_99" x1=".146" x2=".854" y1=".854" y2=".193" gradientTransform="matrix(244.648,0,0,228.338,5.676,11.947)" gradientUnits="userSpaceOnUse">
   <stop offset="0%" style="stop-color:#d1313e"/>
   <stop offset="34.838%" style="stop-color:#a9344f"/>
   <stop offset="100%" style="stop-color:#6b3274"/>
  </linearGradient>
  <path fill="url(#_lgradient_99)" d="M 165.685 11.947 C 239.74 11.947 250.324 22.504 250.324 96.491 L 250.324 155.742 C 250.324 229.728 239.74 240.285 165.685 240.285 L 90.315 240.285 C 16.26 240.285 5.676 229.728 5.676 155.742 L 5.676 96.491 C 5.676 22.504 16.26 11.947 90.315 11.947 L 165.685 11.947 L 165.685 11.947 Z"/>
 </g>
 <defs>
  <filter id="YVEjWuYCgC5nfvNw0qBkYKQoLbhvmk7A" width="400%" height="400%" x="-200%" y="-200%" color-interpolation-filters="sRGB" filterUnits="objectBoundingBox">
   <feGaussianBlur xmlns="http://www.w3.org/2000/svg" in="SourceGraphic" stdDeviation="4.294"/>
   <feOffset xmlns="http://www.w3.org/2000/svg" dx="0" dy="4" result="pf_100_offsetBlur"/>
   <feFlood xmlns="http://www.w3.org/2000/svg" flood-opacity=".4"/>
   <feComposite xmlns="http://www.w3.org/2000/svg" in2="pf_100_offsetBlur" operator="in" result="pf_100_dropShadow"/>
   <feBlend xmlns="http://www.w3.org/2000/svg" in="SourceGraphic" in2="pf_100_dropShadow" mode="normal"/>
  </filter>
 </defs>
 <defs>
  <filter id="rNXunxRsH6vwd5R0lCcd9Kd2dNQtp615" width="400%" height="400%" x="-200%" y="-200%" color-interpolation-filters="sRGB" filterUnits="objectBoundingBox">
   <feGaussianBlur xmlns="http://www.w3.org/2000/svg" stdDeviation=".728"/>
  </filter>
 </defs>
 <g opacity=".3" filter="url(#rNXunxRsH6vwd5R0lCcd9Kd2dNQtp615)">
  <path fill="#00132b" d="M 79.419 53.368 L 197.463 53.368 C 204.777 53.368 210.715 59.306 210.715 66.62 L 210.715 144.01 C 210.715 151.324 204.777 157.262 197.463 157.262 L 79.419 157.262 C 72.105 157.262 66.167 151.324 66.167 144.01 L 66.167 66.62 C 66.167 59.306 72.105 53.368 79.419 53.368 Z"/>
 </g>
 <g style="opacity:0.7">
  <g opacity=".7">
   <linearGradient id="_lgradient_100" x1=".506" x2=".506" y1=".03" y2=".721" gradientTransform="matrix(144.549,0,0,103.894,66.618,52.917)" gradientUnits="userSpaceOnUse">
    <stop offset="0%" style="stop-color:#e6eaef"/>
    <stop offset="100%" style="stop-color:#e6eaef"/>
   </linearGradient>
   <path fill="url(#_lgradient_100)" d="M 79.87 52.917 L 197.915 52.917 C 205.229 52.917 211.167 58.855 211.167 66.169 L 211.167 143.559 C 211.167 150.873 205.229 156.811 197.915 156.811 L 79.87 156.811 C 72.556 156.811 66.618 150.873 66.618 143.559 L 66.618 66.169 C 66.618 58.855 72.556 52.917 79.87 52.917 Z"/>
  </g>
 </g>
 <g opacity=".7">
  <path fill="#ffffff" d="M 93.635 106.253 L 183.247 106.253 C 185.926781 106.254104 188.098896 108.426219 188.1 111.106 L 188.1 121.208 C 188.098345 123.887552 185.926552 126.059345 183.247 126.061 L 93.635 126.061 C 90.955219 126.059896 88.783104 123.887781 88.782 121.208 L 88.782 111.106 C 88.783104 108.426219 90.955219 106.254104 93.635 106.253 L 93.635 106.253 Z"/>
 </g>
 <g opacity=".8">
  <path d="M 105.156 82.885 L 106.522 82.885 L 107.602 78.028 C 107.652 77.775 107.753 77.354 107.821 77.017 C 107.871 77.354 107.973 77.792 108.023 78.045 L 109.136 82.885 L 110.485 82.885 L 112.678 74.268 L 111.092 74.268 L 109.946 79.259 C 109.878 79.546 109.828 79.799 109.777 80.103 C 109.726 79.799 109.693 79.529 109.625 79.259 L 108.479 74.268 L 107.163 74.268 L 106.033 79.259 C 105.966 79.529 105.932 79.765 105.881 80.052 C 105.850316 79.789894 105.799839 79.530487 105.73 79.276 L 104.549 74.268 L 102.964 74.268 L 105.156 82.885 L 105.156 82.885 Z M 122.041 78.18 C 122.041 75.347 120.388 74.065 118.382 74.065 C 115.936 74.065 114.351 75.735 114.351 78.568 C 114.351 81.199 115.852 83.088 118.382 83.088 C 119.493829 83.095288 120.56244 82.657834 121.35 81.873 L 120.355 80.794 C 119.834334 81.305871 119.128971 81.585708 118.399 81.57 C 117.1 81.57 116.291 80.659 116.054 79.243 L 121.991 79.243 C 122.041 78.821 122.041 78.433 122.041 78.18 L 122.041 78.18 Z M 116.021 77.775 C 116.189 76.409 116.948 75.549 118.382 75.549 C 119.292 75.549 120.304 76.106 120.372 77.775 L 116.021 77.775 L 116.021 77.775 Z M 129.415 81.384 L 129.415 70.709 L 124.912 70.709 L 125.688 72.193 L 127.728 72.193 L 127.728 81.384 L 125.249 81.384 L 125.249 82.885 L 131.877 82.885 L 131.877 81.384 L 129.415 81.384 L 129.415 81.384 Z M 139.132 83.088 C 140.92 83.088 142.117 82.244 142.589 80.727 L 141.004 80.221 C 140.734 81.03 140.11 81.502 139.149 81.502 C 137.783 81.502 137.058 80.406 137.058 78.585 C 137.058 76.797 137.766 75.651 139.2 75.651 C 140.127 75.651 140.667 76.123 140.937 76.781 L 142.522 76.224 C 141.999 74.774 140.835 74.065 139.2 74.065 C 136.822 74.065 135.321 75.769 135.321 78.585 C 135.321 81.435 136.805 83.088 139.132 83.088 L 139.132 83.088 Z M 149.322 83.088 C 151.818 83.088 153.403 81.367 153.403 78.568 C 153.403 75.786 151.818 74.065 149.322 74.065 C 146.826 74.065 145.241 75.802 145.241 78.585 C 145.241 81.384 146.826 83.088 149.322 83.088 Z M 149.322 81.502 C 147.787 81.502 146.961 80.356 146.961 78.585 C 146.961 76.747 147.787 75.651 149.322 75.651 C 150.874 75.651 151.7 76.797 151.7 78.568 C 151.7 80.356 150.84 81.502 149.322 81.502 L 149.322 81.502 Z M 161.991 74.065 C 161.097 74.065 160.456 74.672 160.085 75.347 C 159.883 74.723 159.326 74.065 158.466 74.065 C 157.657 74.065 157.1 74.538 156.78 75.398 L 156.78 74.268 L 155.296 74.268 L 155.296 82.885 L 156.881 82.885 L 156.881 77.674 C 156.881 76.477 157.303 75.667 158.045 75.667 C 158.753 75.667 158.938 76.426 158.938 77.506 L 158.938 82.885 L 160.524 82.885 L 160.524 77.674 C 160.524 76.477 160.878 75.667 161.62 75.667 C 162.345 75.667 162.514 76.291 162.514 77.624 L 162.514 82.885 L 164.099 82.885 L 164.099 77.185 C 164.099 74.925 163.407 74.065 161.991 74.065 L 161.991 74.065 Z M 173.918 78.18 C 173.918 75.347 172.265 74.065 170.258 74.065 C 167.813 74.065 166.228 75.735 166.228 78.568 C 166.228 81.199 167.729 83.088 170.258 83.088 C 171.489 83.088 172.518 82.582 173.226 81.873 L 172.231 80.794 C 171.710461 81.306065 171.005012 81.585936 170.275 81.57 C 168.976 81.57 168.167 80.659 167.931 79.243 L 173.867 79.243 C 173.918 78.821 173.918 78.433 173.918 78.18 Z M 167.897 77.775 C 168.066 76.409 168.825 75.549 170.258 75.549 C 171.169 75.549 172.181 76.106 172.248 77.775 L 167.897 77.775 L 167.897 77.775 Z M 94.627 109.73 L 94.627 123.281 L 95.528 123.281 L 95.528 109.73 L 94.627 109.73 L 94.627 109.73 Z"/>
 </g>
 <defs>
  <filter id="EmzQdkYpSgrPayLOrQ43nOeuJxcKZYC7" width="400%" height="400%" x="-200%" y="-200%" color-interpolation-filters="sRGB" filterUnits="objectBoundingBox">
   <feGaussianBlur xmlns="http://www.w3.org/2000/svg" stdDeviation=".728"/>
  </filter>
 </defs>
 <g opacity=".3" filter="url(#EmzQdkYpSgrPayLOrQ43nOeuJxcKZYC7)">
  <path fill="#00132b" d="M 57.752 95.368 L 175.796 95.368 C 183.11 95.368 189.048 101.306 189.048 108.62 L 189.048 186.01 C 189.048 193.324 183.11 199.262 175.796 199.262 L 57.752 199.262 C 50.438 199.262 44.5 193.324 44.5 186.01 L 44.5 108.62 C 44.5 101.306 50.438 95.368 57.752 95.368 Z"/>
 </g>
 <g style="opacity:0.7">
  <g opacity=".7">
   <linearGradient id="_lgradient_101" x1=".506" x2=".506" y1=".03" y2=".721" gradientTransform="matrix(144.548,0,0,103.894,44.952,94.917)" gradientUnits="userSpaceOnUse">
    <stop offset="0%" style="stop-color:#e6eaef"/>
    <stop offset="100%" style="stop-color:#e6eaef"/>
   </linearGradient>
   <path fill="url(#_lgradient_101)" d="M 58.204 94.917 L 176.248 94.917 C 183.562 94.917 189.5 100.855 189.5 108.169 L 189.5 185.559 C 189.5 192.873 183.562 198.811 176.248 198.811 L 58.204 198.811 C 50.89 198.811 44.952 192.873 44.952 185.559 L 44.952 108.169 C 44.952 100.855 50.89 94.917 58.204 94.917 Z"/>
  </g>
 </g>
 <g opacity=".7">
  <path fill="#ffffff" d="M 71.968 148.253 L 161.58 148.253 C 164.259781 148.254104 166.431896 150.426219 166.433 153.106 L 166.433 163.208 C 166.431896 165.887781 164.259781 168.059896 161.58 168.061 L 71.968 168.061 C 69.288448 168.059345 67.116655 165.887552 67.115 163.208 L 67.115 153.106 C 67.116104 150.426219 69.288219 148.254104 71.968 148.253 L 71.968 148.253 Z"/>
 </g>
 <g opacity=".8">
  <path d="M 83.49 124.885 L 84.856 124.885 L 85.935 120.028 C 85.986 119.775 86.087 119.354 86.154 119.017 C 86.205 119.354 86.306 119.792 86.357 120.045 L 87.47 124.885 L 88.819 124.885 L 91.011 116.268 L 89.426 116.268 L 88.279 121.259 C 88.212 121.546 88.161 121.799 88.11 122.103 C 88.06 121.799 88.026 121.529 87.959 121.259 L 86.812 116.268 L 85.496 116.268 L 84.367 121.259 C 84.299 121.529 84.265 121.765 84.215 122.052 C 84.183996 121.789867 84.133184 121.530459 84.063 121.276 L 82.883 116.268 L 81.297 116.268 L 83.49 124.885 L 83.49 124.885 Z M 100.374 120.18 C 100.374 117.347 98.722 116.065 96.715 116.065 C 94.27 116.065 92.684 117.735 92.684 120.568 C 92.684 123.199 94.185 125.088 96.715 125.088 C 97.946 125.088 98.975 124.582 99.683 123.873 L 98.688 122.794 C 98.167461 123.306065 97.462012 123.585936 96.732 123.57 C 95.433 123.57 94.624 122.659 94.388 121.243 L 100.324 121.243 C 100.374 120.821 100.374 120.433 100.374 120.18 L 100.374 120.18 Z M 94.354 119.775 C 94.523 118.409 95.282 117.549 96.715 117.549 C 97.626 117.549 98.637 118.106 98.705 119.775 L 94.354 119.775 L 94.354 119.775 Z M 107.748 123.384 L 107.748 112.709 L 103.245 112.709 L 104.021 114.193 L 106.062 114.193 L 106.062 123.384 L 103.583 123.384 L 103.583 124.885 L 110.21 124.885 L 110.21 123.384 L 107.748 123.384 L 107.748 123.384 Z M 117.466 125.088 C 119.253 125.088 120.45 124.244 120.923 122.727 L 119.337 122.221 C 119.068 123.03 118.444 123.502 117.482 123.502 C 116.116 123.502 115.391 122.406 115.391 120.585 C 115.391 118.797 116.1 117.651 117.533 117.651 C 118.461 117.651 119 118.123 119.27 118.781 L 120.855 118.224 C 120.332 116.774 119.169 116.065 117.533 116.065 C 115.155 116.065 113.654 117.769 113.654 120.585 C 113.654 123.435 115.138 125.088 117.466 125.088 L 117.466 125.088 Z M 127.655 125.088 C 130.151 125.088 131.736 123.367 131.736 120.568 C 131.736 117.786 130.151 116.065 127.655 116.065 C 125.159 116.065 123.574 117.802 123.574 120.585 C 123.574 123.384 125.159 125.088 127.655 125.088 L 127.655 125.088 Z M 127.655 123.502 C 126.121 123.502 125.294 122.356 125.294 120.585 C 125.294 118.747 126.121 117.651 127.655 117.651 C 129.207 117.651 130.033 118.797 130.033 120.568 C 130.033 122.356 129.173 123.502 127.655 123.502 L 127.655 123.502 Z M 140.324 116.065 C 139.43 116.065 138.79 116.672 138.419 117.347 C 138.216 116.723 137.66 116.065 136.8 116.065 C 135.99 116.065 135.434 116.538 135.113 117.398 L 135.113 116.268 L 133.629 116.268 L 133.629 124.885 L 135.214 124.885 L 135.214 119.674 C 135.214 118.477 135.636 117.667 136.378 117.667 C 137.086 117.667 137.272 118.426 137.272 119.506 L 137.272 124.885 L 138.857 124.885 L 138.857 119.674 C 138.857 118.477 139.211 117.667 139.953 117.667 C 140.678 117.667 140.847 118.291 140.847 119.624 L 140.847 124.885 L 142.432 124.885 L 142.432 119.185 C 142.432 116.925 141.741 116.065 140.324 116.065 L 140.324 116.065 Z M 152.251 120.18 C 152.251 117.347 150.598 116.065 148.591 116.065 C 146.146 116.065 144.561 117.735 144.561 120.568 C 144.561 123.199 146.062 125.088 148.591 125.088 C 149.823 125.088 150.851 124.582 151.559 123.873 L 150.565 122.794 C 150.0439 123.30583 149.338254 123.585637 148.608 123.57 C 147.31 123.57 146.5 122.659 146.264 121.243 L 152.2 121.243 C 152.251 120.821 152.251 120.433 152.251 120.18 Z M 146.23 119.775 C 146.399 118.409 147.158 117.549 148.591 117.549 C 149.502 117.549 150.514 118.106 150.581 119.775 L 146.23 119.775 L 146.23 119.775 Z M 72.961 151.73 L 72.961 165.281 L 73.861 165.281 L 73.861 151.73 L 72.961 151.73 L 72.961 151.73 Z"/>
 </g>
 <g opacity=".4">
  <linearGradient id="_lgradient_102" x1=".517" x2=".517" y1="0" y2="1" gradientTransform="matrix(244.65,0,0,228.34,5.68,11.95)" gradientUnits="userSpaceOnUse">
   <stop offset="0%" style="stop-color:#ffffff"/>
   <stop offset="12.5%" stop-opacity=".098" style="stop-color:#ffffff"/>
   <stop offset="92.5%" stop-opacity=".098" style="stop-color:#000000"/>
   <stop offset="100%" stop-opacity=".498" style="stop-color:#000000"/>
  </linearGradient>
  <path fill="url(#_lgradient_102)" fill-rule="evenodd" d="M 165.06803 11.951234 C 169.395994 11.941409 173.723944 11.990533 178.051908 12.088781 C 181.927398 12.167379 185.802873 12.31475 189.678362 12.540721 C 193.1309 12.737216 196.583423 13.022134 200.026115 13.395476 C 203.085193 13.729518 206.144271 14.181458 209.173842 14.741469 C 211.888645 15.242533 214.57394 15.881143 217.219897 16.6573 C 219.619947 17.354858 221.970814 18.219439 224.242988 19.241215 C 226.357793 20.184394 228.384061 21.304417 230.302129 22.591462 C 232.141505 23.829383 233.862851 25.244151 235.436659 26.80629 C 237.000621 28.378252 238.417046 30.087764 239.656409 31.924995 C 240.944972 33.840824 242.066305 35.864728 243.020409 37.967229 C 244.043389 40.246576 244.908985 42.584873 245.617197 44.972292 C 246.394255 47.615155 247.033606 50.297317 247.535265 53.008956 C 248.095924 56.034984 248.548399 59.080665 248.882828 62.13617 C 249.256611 65.574836 249.541856 69.013506 249.738578 72.462003 C 249.964823 76.323139 250.112361 80.194101 250.200884 84.055237 C 250.289421 88.378131 250.338591 92.701032 250.32876 97.014106 L 250.32876 155.225886 C 250.338591 159.54878 250.289421 163.861854 250.200884 168.184747 C 250.112361 172.05571 249.964823 175.916853 249.738578 179.777981 C 249.541856 183.226485 249.256611 186.674975 248.882828 190.103826 C 248.548399 193.15933 248.095924 196.214835 247.535265 199.240851 C 247.033606 201.942664 246.394255 204.624837 245.617197 207.267703 C 244.908985 209.655115 244.043389 212.003235 243.020409 214.272755 C 242.066305 216.38509 240.944972 218.399156 239.656409 220.314999 C 238.417046 222.152226 237.000621 223.871561 235.436659 225.433697 C 233.862851 226.995832 232.141505 228.410601 230.302129 229.648532 C 228.384061 230.935575 226.357793 232.055598 224.242988 232.998768 C 221.970814 234.020552 219.619947 234.885137 217.219897 235.592507 C 214.57394 236.368672 211.888645 237.007276 209.173842 237.498515 C 206.144271 238.068354 203.085193 238.510465 200.026115 238.844519 C 196.583423 239.21785 193.1309 239.502777 189.678362 239.699269 C 185.802873 239.925235 181.927398 240.072615 178.051908 240.161035 C 173.723944 240.249454 169.395994 240.298581 165.06803 240.288762 L 90.941963 240.288762 C 86.614006 240.298581 82.286049 240.249454 77.9581 240.161035 C 74.08261 240.072615 70.20712 239.925235 66.331638 239.699269 C 62.879108 239.502777 59.426578 239.21785 55.983886 238.844519 C 52.924808 238.510465 49.865733 238.068354 46.836162 237.498515 C 44.121356 237.007276 41.436057 236.368672 38.7901 235.592507 C 36.390053 234.885137 34.039187 234.020552 31.767009 232.998768 C 29.652213 232.055598 27.625943 230.935575 25.707871 229.648532 C 23.868489 228.410601 22.147143 226.995832 20.573343 225.433697 C 19.009377 223.871561 17.592955 222.152226 16.353586 220.314999 C 15.065036 218.399156 13.943701 216.38509 12.989584 214.272755 C 11.966612 212.003235 11.101021 209.655115 10.392811 207.267703 C 9.615746 204.624837 8.976389 201.942664 8.47474 199.240851 C 7.914072 196.214835 7.461604 193.15933 7.127172 190.103826 C 6.753394 186.674975 6.468142 183.226485 6.271417 179.777981 C 6.045183 175.916853 5.897639 172.05571 5.809112 168.184747 C 5.720586 163.861854 5.671405 159.54878 5.681241 155.225886 L 5.681241 97.014106 C 5.671405 92.701032 5.720586 88.378131 5.809112 84.055237 C 5.897639 80.194101 6.045183 76.323139 6.271417 72.462003 C 6.468142 69.013506 6.753394 65.574836 7.127172 62.13617 C 7.461604 59.080665 7.914072 56.034984 8.47474 53.008956 C 8.976389 50.297317 9.615746 47.615155 10.392811 44.972292 C 11.101021 42.584873 11.966612 40.246576 12.989584 37.967229 C 13.943701 35.864728 15.065036 33.840824 16.353586 31.924995 C 17.592955 30.087764 19.009377 28.378252 20.573343 26.80629 C 22.147143 25.244151 23.868489 23.829383 25.707871 22.591462 C 27.625943 21.304417 29.652213 20.184394 31.767009 19.241215 C 34.039187 18.219439 36.390053 17.354858 38.7901 16.6573 C 41.436057 15.881143 44.121356 15.242533 46.836162 14.741469 C 49.865733 14.181458 52.924808 13.729518 55.983886 13.395476 C 59.426578 13.022134 62.879108 12.737216 66.331638 12.540721 C 70.20712 12.31475 74.08261 12.167379 77.9581 12.088781 C 82.286049 11.990533 86.614006 11.941409 90.941963 11.951234 L 165.06803 11.951234 Z M 165.077876 15.959741 C 169.376317 15.949916 173.674759 15.99904 177.973216 16.087463 C 181.799522 16.175886 185.625827 16.323257 189.452133 16.539402 C 192.835809 16.735898 196.219486 17.010992 199.583486 17.384332 C 202.554026 17.698726 205.514751 18.131016 208.445953 18.681203 C 211.023049 19.152792 213.580483 19.761928 216.098564 20.498786 C 218.321569 21.147221 220.495374 21.952852 222.600334 22.896029 C 224.508571 23.750785 226.338116 24.762737 228.069293 25.922059 C 229.692286 27.012609 231.207063 28.260355 232.59398 29.645648 C 233.980897 31.030941 235.230091 32.543956 236.331763 34.165043 C 237.492434 35.894202 238.505568 37.711787 239.361333 39.607968 C 240.305606 41.720292 241.112187 43.891565 241.761369 46.102139 C 242.508934 48.617282 243.108947 51.161898 243.590914 53.735987 C 244.131912 56.663768 244.564709 59.6112 244.889308 62.578282 C 245.263091 65.938355 245.538505 69.308252 245.735227 72.687976 C 245.951626 76.509812 246.10901 80.321821 246.187687 84.143656 C 246.276225 88.437084 246.325394 92.720685 246.325394 97.014106 C 246.325394 97.014106 246.325394 97.014106 246.325394 97.014106 L 246.325394 155.225886 C 246.325394 155.225886 246.325394 155.225886 246.325394 155.225886 C 246.325394 159.519306 246.276225 163.802907 246.187687 168.096328 C 246.10901 171.918164 245.951626 175.739999 245.735227 179.552015 C 245.538505 182.931739 245.263091 186.301629 244.889308 189.671533 C 244.564709 192.628784 244.131912 195.576216 243.590914 198.503994 C 243.108947 201.078094 242.508934 203.622706 241.761369 206.137845 C 241.112187 208.358253 240.305606 210.5197 239.361333 212.63202 C 238.505568 214.528209 237.492434 216.355617 236.331763 218.074952 C 235.230091 219.705853 233.980897 221.218876 232.59398 222.604172 C 231.207063 223.979634 229.692286 225.227385 228.069293 226.317935 C 226.338116 227.477251 224.508571 228.489201 222.600334 229.343951 C 220.495374 230.296956 218.321569 231.092775 216.098564 231.741198 C 213.580483 232.478056 211.023049 233.087202 208.445953 233.558787 C 205.514751 234.108972 202.554026 234.541264 199.583486 234.865483 C 196.219486 235.228995 192.835809 235.513922 189.452133 235.70058 C 185.625827 235.916726 181.799522 236.073926 177.973216 236.152526 C 173.674759 236.25078 169.376317 236.290072 165.077876 236.290072 C 165.077876 236.290072 165.077876 236.290072 165.06803 236.290072 L 90.941963 236.290072 C 90.932125 236.290072 90.932125 236.290072 90.932125 236.290072 C 86.633683 236.290072 82.335234 236.25078 78.036784 236.152526 C 74.210479 236.073926 70.384173 235.916726 66.557868 235.70058 C 63.174195 235.513922 59.790522 235.228995 56.426518 234.865483 C 53.455967 234.541264 50.495253 234.108972 47.564048 233.558787 C 44.986944 233.087202 42.429517 232.478056 39.911433 231.741198 C 37.688439 231.092775 35.514626 230.296956 33.409665 229.343951 C 31.501429 228.489201 29.671886 227.477251 27.940703 226.317935 C 26.31772 225.227385 24.802935 223.979634 23.416022 222.604172 C 22.029109 221.218876 20.779904 219.705853 19.678243 218.074952 C 18.517564 216.355617 17.504428 214.528209 16.648674 212.63202 C 15.704392 210.5197 14.897819 208.358253 14.248626 206.137845 C 13.50107 203.622706 12.901057 201.078094 12.419081 198.503994 C 11.878086 195.576216 11.445291 192.628784 11.120694 189.671533 C 10.746916 186.301629 10.471501 182.931739 10.274776 179.552015 C 10.058378 175.739999 9.900997 171.918164 9.822307 168.096328 C 9.733781 163.802907 9.6846 159.519306 9.6846 155.225886 C 9.6846 155.225886 9.6846 155.225886 9.6846 155.225886 L 9.6846 97.014106 C 9.6846 97.014106 9.6846 97.014106 9.6846 97.014106 C 9.6846 92.720685 9.733781 88.437084 9.822307 84.143656 C 9.900997 80.321821 10.058378 76.509812 10.274776 72.687976 C 10.471501 69.308252 10.746916 65.938355 11.120694 62.578282 C 11.445291 59.6112 11.878086 56.663768 12.419081 53.735987 C 12.901057 51.161898 13.50107 48.617282 14.248626 46.102139 C 14.897819 43.891565 15.704392 41.720292 16.648674 39.607968 C 17.504428 37.711787 18.517564 35.894202 19.678243 34.165043 C 20.779904 32.543956 22.029109 31.030941 23.416022 29.645648 C 24.802935 28.260355 26.31772 27.012609 27.940703 25.922059 C 29.671886 24.762737 31.501429 23.750785 33.409665 22.896029 C 35.514626 21.952852 37.688439 21.147221 39.911433 20.498786 C 42.429517 19.761928 44.986944 19.152792 47.564048 18.681203 C 50.495253 18.131016 53.455967 17.698726 56.426518 17.384332 C 59.790522 17.010992 63.174195 16.735898 66.557868 16.539402 C 70.384173 16.323257 74.210479 16.175886 78.036784 16.087463 C 82.335234 15.99904 86.633683 15.949916 90.932125 15.959741 C 90.932125 15.959741 90.932125 15.959741 90.941963 15.959741 L 165.06803 15.959741 C 165.077876 15.959741 165.077876 15.959741 165.077876 15.959741 Z"/>
 </g>
</svg>
