<svg xmlns="http://www.w3.org/2000/svg" fill="none" width="256" height="256" viewBox="0 0 256 256">
 <g clip-path="url(#clip0)">
  <g filter="url(#filter0_d)">
   <path fill="url(#paint0_linear)" d="M165.685 11.947C239.74 11.947 250.324 22.5042 250.324 96.4908V155.742C250.324 229.728 239.74 240.285 165.685 240.285H90.3152C16.2595 240.285 5.67586 229.728 5.67586 155.742V96.4908C5.67586 22.5042 16.2595 11.947 90.3152 11.947H165.685Z"/>
  </g>
  <path fill="url(#paint1_linear)" fill-rule="evenodd" opacity=".4" d="M165.068 11.9512C169.396 11.9414 173.724 11.9905 178.052 12.0888C181.927 12.1674 185.803 12.3148 189.678 12.5407C193.131 12.7372 196.583 13.0221 200.026 13.3955C203.085 13.7295 206.144 14.1815 209.174 14.7415C211.889 15.2425 214.574 15.8812 217.22 16.6573C219.62 17.3549 221.971 18.2195 224.243 19.2412C226.358 20.1844 228.384 21.3044 230.302 22.5915C232.141 23.8294 233.863 25.2442 235.437 26.8063C237.001 28.3783 238.417 30.0878 239.656 31.925C240.945 33.8408 242.066 35.8647 243.02 37.9672C244.043 40.2466 244.909 42.5849 245.617 44.9723C246.394 47.6152 247.034 50.2973 247.535 53.009C248.096 56.035 248.548 59.0807 248.883 62.1362C249.257 65.5748 249.542 69.0135 249.739 72.462C249.965 76.3232 250.112 80.1941 250.201 84.0553C250.289 88.3781 250.339 92.701 250.329 97.0141V155.226C250.339 159.549 250.289 163.862 250.201 168.185C250.112 172.056 249.965 175.917 249.739 179.778C249.542 183.227 249.257 186.675 248.883 190.104C248.548 193.159 248.096 196.215 247.535 199.241C247.034 201.943 246.394 204.625 245.617 207.268C244.909 209.655 244.043 212.003 243.02 214.273C242.066 216.385 240.945 218.399 239.656 220.315C238.417 222.152 237.001 223.872 235.437 225.434C233.863 226.996 232.141 228.411 230.302 229.649C228.384 230.936 226.358 232.056 224.243 232.999C221.971 234.021 219.62 234.885 217.22 235.593C214.574 236.369 211.889 237.007 209.174 237.499C206.144 238.068 203.085 238.51 200.026 238.845C196.583 239.218 193.131 239.503 189.678 239.699C185.803 239.925 181.927 240.073 178.052 240.161C173.724 240.249 169.396 240.299 165.068 240.289H90.942C86.614 240.299 82.286 240.249 77.9581 240.161C74.0826 240.073 70.2071 239.925 66.3316 239.699C62.8791 239.503 59.4266 239.218 55.9839 238.845C52.9248 238.51 49.8657 238.068 46.8362 237.499C44.1213 237.007 41.4361 236.369 38.7901 235.593C36.39 234.885 34.0392 234.021 31.767 232.999C29.6522 232.056 27.6259 230.936 25.7079 229.649C23.8685 228.411 22.1471 226.996 20.5733 225.434C19.0094 223.872 17.5929 222.152 16.3536 220.315C15.065 218.399 13.9437 216.385 12.9896 214.273C11.9666 212.003 11.101 209.655 10.3928 207.268C9.61574 204.625 8.97638 201.943 8.47473 199.241C7.91406 196.215 7.4616 193.159 7.12716 190.104C6.75339 186.675 6.46813 183.227 6.27141 179.778C6.04518 175.917 5.89763 172.056 5.8091 168.185C5.72058 163.862 5.6714 159.549 5.68123 155.226V97.0141C5.6714 92.701 5.72058 88.3781 5.8091 84.0553C5.89763 80.1941 6.04518 76.3232 6.27141 72.462C6.46813 69.0135 6.75339 65.5748 7.12716 62.1362C7.4616 59.0807 7.91406 56.035 8.47473 53.009C8.97638 50.2973 9.61574 47.6152 10.3928 44.9723C11.101 42.5849 11.9666 40.2466 12.9896 37.9672C13.9437 35.8647 15.065 33.8408 16.3536 31.925C17.5929 30.0878 19.0094 28.3783 20.5733 26.8063C22.1471 25.2442 23.8685 23.8294 25.7079 22.5915C27.6259 21.3044 29.6522 20.1844 31.767 19.2412C34.0392 18.2195 36.39 17.3549 38.7901 16.6573C41.4361 15.8812 44.1213 15.2425 46.8362 14.7415C49.8657 14.1815 52.9248 13.7295 55.9839 13.3955C59.4266 13.0221 62.8791 12.7372 66.3316 12.5407C70.2071 12.3148 74.0826 12.1674 77.9581 12.0888C82.286 11.9905 86.614 11.9414 90.942 11.9512H165.068ZM165.078 15.9598C169.376 15.9499 173.675 15.9991 177.973 16.0875C181.8 16.1759 185.626 16.3233 189.452 16.5394C192.836 16.7359 196.219 17.011 199.583 17.3843C202.554 17.6987 205.515 18.131 208.446 18.6812C211.023 19.1528 213.58 19.7619 216.099 20.4988C218.322 21.1472 220.495 21.9529 222.6 22.896C224.509 23.7508 226.338 24.7627 228.069 25.9221C229.692 27.0126 231.207 28.2604 232.594 29.6457C233.981 31.031 235.23 32.544 236.332 34.1651C237.492 35.8942 238.506 37.7118 239.361 39.608C240.306 41.7203 241.112 43.8916 241.761 46.1021C242.509 48.6173 243.109 51.1619 243.591 53.736C244.132 56.6638 244.565 59.6112 244.889 62.5783C245.263 65.9384 245.539 69.3083 245.735 72.688C245.952 76.5098 246.109 80.3218 246.188 84.1437C246.276 88.4371 246.325 92.7207 246.325 97.0141V155.226C246.325 159.519 246.276 163.803 246.188 168.096C246.109 171.918 245.952 175.74 245.735 179.552C245.539 182.932 245.263 186.302 244.889 189.672C244.565 192.629 244.132 195.576 243.591 198.504C243.109 201.078 242.509 203.623 241.761 206.138C241.112 208.358 240.306 210.52 239.361 212.632C238.506 214.528 237.492 216.356 236.332 218.075C235.23 219.706 233.981 221.219 232.594 222.604C231.207 223.98 229.692 225.227 228.069 226.318C226.338 227.477 224.509 228.489 222.6 229.344C220.495 230.297 218.322 231.093 216.099 231.741C213.58 232.478 211.023 233.087 208.446 233.559C205.515 234.109 202.554 234.541 199.583 234.865C196.219 235.229 192.836 235.514 189.452 235.701C185.626 235.917 181.8 236.074 177.973 236.153C173.675 236.251 169.376 236.29 165.078 236.29C165.078 236.29 165.078 236.29 165.068 236.29H90.942C90.9321 236.29 90.9321 236.29 90.9321 236.29C86.6337 236.29 82.3352 236.251 78.0368 236.153C74.2105 236.074 70.3842 235.917 66.5579 235.701C63.1742 235.514 59.7905 235.229 56.4265 234.865C53.456 234.541 50.4952 234.109 47.564 233.559C44.9869 233.087 42.4295 232.478 39.9114 231.741C37.6884 231.093 35.5146 230.297 33.4097 229.344C31.5014 228.489 29.6719 227.477 27.9407 226.318C26.3177 225.227 24.8029 223.98 23.416 222.604C22.0291 221.219 20.7799 219.706 19.6782 218.075C18.5176 216.356 17.5044 214.528 16.6487 212.632C15.7044 210.52 14.8978 208.358 14.2486 206.138C13.5011 203.623 12.901 201.078 12.4191 198.504C11.8781 195.576 11.4453 192.629 11.1207 189.672C10.7469 186.302 10.4715 182.932 10.2748 179.552C10.0584 175.74 9.90099 171.918 9.8223 168.096C9.73377 163.803 9.68459 159.519 9.68459 155.226V97.0141C9.68459 92.7207 9.73377 88.4371 9.8223 84.1437C9.90099 80.3218 10.0584 76.5098 10.2748 72.688C10.4715 69.3083 10.7469 65.9384 11.1207 62.5783C11.4453 59.6112 11.8781 56.6638 12.4191 53.736C12.901 51.1619 13.5011 48.6173 14.2486 46.1021C14.8978 43.8916 15.7044 41.7203 16.6487 39.608C17.5044 37.7118 18.5176 35.8942 19.6782 34.1651C20.7799 32.544 22.0291 31.031 23.416 29.6457C24.8029 28.2604 26.3177 27.0126 27.9407 25.9221C29.6719 24.7627 31.5014 23.7508 33.4097 22.896C35.5146 21.9529 37.6884 21.1472 39.9114 20.4988C42.4295 19.7619 44.9869 19.1528 47.564 18.6812C50.4952 18.131 53.456 17.6987 56.4265 17.3843C59.7905 17.011 63.1742 16.7359 66.5579 16.5394C70.3842 16.3233 74.2105 16.1759 78.0368 16.0875C82.3352 15.9991 86.6337 15.9499 90.9321 15.9598C90.9321 15.9598 90.9321 15.9598 90.942 15.9598H165.068C165.078 15.9598 165.078 15.9598 165.078 15.9598Z" clip-rule="evenodd"/>
  <g opacity=".2" filter="url(#filter1_f)">
   <path d="M146.78 156.475C167.748 156.475 184.746 139.477 184.746 118.508C184.746 97.5404 167.748 80.5424 146.78 80.5424C125.812 80.5424 108.814 97.5404 108.814 118.508C108.814 139.477 125.812 156.475 146.78 156.475Z"/>
  </g>
  <path fill="url(#paint2_linear)" d="M146.78 153.763C167.748 153.763 184.746 136.765 184.746 115.797C184.746 94.8285 167.748 77.8305 146.78 77.8305C125.812 77.8305 108.814 94.8285 108.814 115.797C108.814 136.765 125.812 153.763 146.78 153.763Z"/>
  <g opacity=".2" filter="url(#filter2_f)">
   <path d="M139.502 50.7119C130.486 50.7116 121.559 52.4873 113.229 55.9374C104.899 59.3876 97.3307 64.4446 90.9555 70.8199C84.5802 77.1951 79.5232 84.7636 76.073 93.0933C72.6229 101.423 70.8472 110.351 70.8475 119.367C70.8603 119.985 70.8815 120.603 70.911 121.22H60C60 144.236 69.1428 166.308 85.4172 182.583C101.692 198.857 123.764 208 146.78 208V121.22H141.356V118.508H195.45C195.544 117.245 195.592 115.978 195.593 114.711C195.593 100.614 189.879 87.0948 179.707 77.127C169.536 67.1592 155.74 61.5593 141.356 61.5593V50.7754C140.738 50.7459 140.12 50.7247 139.502 50.7119V50.7119Z"/>
  </g>
  <path fill="url(#paint3_linear)" d="M60 118.508C60 141.524 69.1428 163.597 85.4172 179.871C101.692 196.145 123.764 205.288 146.78 205.288V118.508H60Z"/>
  <path fill="url(#paint4_linear)" d="M139.5 48C130.485 48 121.557 49.7758 113.228 53.2259C104.899 56.676 97.3305 61.733 90.9555 68.108C84.5804 74.483 79.5235 82.0513 76.0734 90.3806C72.6232 98.71 70.8475 107.637 70.8475 116.653C70.8608 117.272 70.8826 117.89 70.9127 118.508H141.356V48.0652C140.738 48.0351 140.119 48.0134 139.5 48V48Z"/>
  <path fill="url(#paint5_linear)" d="M141.356 58.8475V115.797H195.449C195.544 114.533 195.591 113.267 195.593 112C195.593 97.9031 189.879 84.3835 179.707 74.4155C169.536 64.4474 155.741 58.8475 141.356 58.8475H141.356Z"/>
  <g opacity=".2" filter="url(#filter3_f)">
   <path d="M144.82 91.3898C135.99 91.3901 127.521 94.8188 121.277 100.922C115.033 107.025 111.525 115.302 111.525 123.932C111.525 132.563 115.033 140.84 121.277 146.943C127.521 153.046 135.99 156.474 144.82 156.475C145.474 156.47 146.127 156.447 146.78 156.406V137.444C152.647 137.098 158.16 134.524 162.193 130.248C166.226 125.973 168.473 120.318 168.475 114.441C168.475 108.327 166.046 102.464 161.723 98.1413C157.4 93.8184 151.537 91.3898 145.424 91.3898C145.307 91.3925 145.191 91.396 145.074 91.4004C144.989 91.3966 144.905 91.393 144.82 91.3898Z"/>
  </g>
  <path fill="url(#paint6_linear)" fill-rule="evenodd" d="M132.079 91.1551C136.119 89.5197 140.449 88.678 144.821 88.678C144.878 88.6791 144.935 88.6805 144.991 88.6819C145.135 88.6793 145.279 88.678 145.424 88.678C158.154 88.678 168.475 98.9982 168.475 111.729C168.475 124.004 158.879 134.039 146.78 134.74V153.695C146.128 153.737 145.474 153.759 144.821 153.763C140.449 153.763 136.119 152.921 132.079 151.286C128.04 149.65 124.369 147.253 121.277 144.231C118.186 141.209 115.733 137.622 114.06 133.674C112.387 129.726 111.525 125.494 111.525 121.22C111.525 116.947 112.387 112.715 114.06 108.767C115.733 104.819 118.186 101.231 121.277 98.2094C124.369 95.1876 128.04 92.7905 132.079 91.1551Z" clip-rule="evenodd"/>
 </g>
 <defs>
  <filter id="filter0_d" width="264.648" height="248.338" x="-4.32" y="5.95" color-interpolation-filters="sRGB" filterUnits="userSpaceOnUse">
   <feFlood flood-opacity="0" result="BackgroundImageFix"/>
   <feColorMatrix in="SourceAlpha" type="matrix" values="0 0 0 0 0 0 0 0 0 0 0 0 0 0 0 0 0 0 127 0"/>
   <feOffset dy="4"/>
   <feGaussianBlur stdDeviation="5"/>
   <feColorMatrix type="matrix" values="0 0 0 0 0 0 0 0 0 0 0 0 0 0 0 0 0 0 0.4 0"/>
   <feBlend in2="BackgroundImageFix" mode="normal" result="effect1_dropShadow"/>
   <feBlend in="SourceGraphic" in2="effect1_dropShadow" mode="normal" result="shape"/>
  </filter>
  <filter id="filter1_f" width="95.932" height="95.932" x="98.81" y="70.54" color-interpolation-filters="sRGB" filterUnits="userSpaceOnUse">
   <feFlood flood-opacity="0" result="BackgroundImageFix"/>
   <feBlend in="SourceGraphic" in2="BackgroundImageFix" mode="normal" result="shape"/>
   <feGaussianBlur result="effect1_foregroundBlur" stdDeviation="5"/>
  </filter>
  <filter id="filter2_f" width="155.593" height="177.288" x="50" y="40.71" color-interpolation-filters="sRGB" filterUnits="userSpaceOnUse">
   <feFlood flood-opacity="0" result="BackgroundImageFix"/>
   <feBlend in="SourceGraphic" in2="BackgroundImageFix" mode="normal" result="shape"/>
   <feGaussianBlur result="effect1_foregroundBlur" stdDeviation="5"/>
  </filter>
  <filter id="filter3_f" width="76.949" height="85.085" x="101.53" y="81.39" color-interpolation-filters="sRGB" filterUnits="userSpaceOnUse">
   <feFlood flood-opacity="0" result="BackgroundImageFix"/>
   <feBlend in="SourceGraphic" in2="BackgroundImageFix" mode="normal" result="shape"/>
   <feGaussianBlur result="effect1_foregroundBlur" stdDeviation="5"/>
  </filter>
  <linearGradient id="paint0_linear" x1="5.676" x2="5.676" y1="11.947" y2="240.285" gradientUnits="userSpaceOnUse">
   <stop offset="0" stop-color="#E0E5E7"/>
   <stop offset="1" stop-color="#C7CED2"/>
  </linearGradient>
  <linearGradient id="paint1_linear" x1="132.082" x2="132.082" y1="11.95" y2="240.29" gradientUnits="userSpaceOnUse">
   <stop stop-color="#fff"/>
   <stop offset=".125" stop-color="#fff" stop-opacity=".098"/>
   <stop offset=".925" stop-opacity=".098"/>
   <stop offset="1" stop-opacity=".498"/>
  </linearGradient>
  <linearGradient id="paint2_linear" x1="108.814" x2="108.814" y1="77.831" y2="153.763" gradientUnits="userSpaceOnUse">
   <stop offset="0" stop-color="#BDC3C7"/>
   <stop offset="1" stop-color="#AEAFB3"/>
  </linearGradient>
  <linearGradient id="paint3_linear" x1="60" x2="60" y1="118.508" y2="205.288" gradientUnits="userSpaceOnUse">
   <stop offset="0" stop-color="#FFEC57"/>
   <stop offset=".5" stop-color="#FFC551"/>
   <stop offset="1" stop-color="#F5A90F"/>
  </linearGradient>
  <linearGradient id="paint4_linear" x1="105.666" x2="105.842" y1="47.973" y2="118.741" gradientUnits="userSpaceOnUse">
   <stop stop-color="#1AD6AB"/>
   <stop offset="1" stop-color="#329DB6"/>
  </linearGradient>
  <linearGradient id="paint5_linear" x1="141.356" x2="141.356" y1="58.847" y2="115.797" gradientUnits="userSpaceOnUse">
   <stop offset="0" stop-color="#FF7B57"/>
   <stop offset=".5" stop-color="#FF5151"/>
   <stop offset="1" stop-color="#F50F0F"/>
  </linearGradient>
  <linearGradient id="paint6_linear" x1="119.831" x2="117.909" y1="153.763" y2="90.427" gradientUnits="userSpaceOnUse">
   <stop stop-color="#BFC1C1"/>
   <stop offset="1" stop-color="#F1F2F3"/>
  </linearGradient>
  <clipPath id="clip0">
   <rect fill="#fff" width="256" height="256"/>
  </clipPath>
 </defs>
</svg>
