<svg xmlns="http://www.w3.org/2000/svg" style="isolation:isolate" width="256" height="256" viewBox="0 0 256 256">
 <defs>
  <filter id="2247UeNtoZvcOQUKSDKqAdC78T7U4oOY" width="400%" height="400%" x="-200%" y="-200%" color-interpolation-filters="sRGB" filterUnits="objectBoundingBox">
   <feGaussianBlur xmlns="http://www.w3.org/2000/svg" in="SourceGraphic" stdDeviation="4.294"/>
   <feOffset xmlns="http://www.w3.org/2000/svg" dx="0" dy="4" result="pf_100_offsetBlur"/>
   <feFlood xmlns="http://www.w3.org/2000/svg" flood-opacity=".4"/>
   <feComposite xmlns="http://www.w3.org/2000/svg" in2="pf_100_offsetBlur" operator="in" result="pf_100_dropShadow"/>
   <feBlend xmlns="http://www.w3.org/2000/svg" in="SourceGraphic" in2="pf_100_dropShadow" mode="normal"/>
  </filter>
 </defs>
 <g filter="url(#2247UeNtoZvcOQUKSDKqAdC78T7U4oOY)">
  <path fill="#faf8f6" d="M 166.351 13.28 C 240.407 13.28 250.991 23.837 250.991 97.824 L 250.991 157.075 C 250.991 231.061 240.407 241.619 166.351 241.619 L 90.982 241.619 C 16.926 241.619 6.343 231.061 6.343 157.075 L 6.343 97.824 C 6.343 23.837 16.926 13.28 90.982 13.28 L 166.351 13.28 L 166.351 13.28 Z"/>
 </g>
 <g filter="url(#0EUgOm7ID5JtJ6aQoSl9iUJGcQnQcvoF)">
  <path fill="#2daaaa" d="M 173.762 198.401 L 128.552 174.568 L 84.147 200 L 91.853 147.675 L 55 111.373 L 104.972 102.868 L 126.601 55 L 149.78 102.068 L 200 108.786 L 164.353 146.381 L 173.762 198.401 L 173.762 198.401 Z"/>
  <path fill="#faf8f6" d="M 145.347 136.876 C 143.395 141.372 140.838 144.047 136.878 146.501 C 130.988 150.152 122.565 153.189 103.815 159.314 C 106.858 165.598 110.722 171.107 115.909 176.22 C 135.409 170.595 147.284 167.845 153.284 158.845 C 161.534 148.97 151.409 127.845 148.409 114.72 Q 148.722 110.095 147.284 109.845 C 142.284 111.158 145.034 123.595 132.159 135.533 C 127.659 139.783 114.097 145.595 108.347 134.658 C 105.531 129.646 105.16 121.87 108.472 113.845 C 115.155 97.649 133.659 80.033 138.409 83.095 C 140.738 84.794 141.2 91.745 139.409 99.283 C 136.587 111.163 130.034 124.408 125.472 122.72 C 122.974 121.928 121.472 114.47 126.972 105.595 C 127.349 104.62 128.534 97.72 125.409 96.47 Q 122.472 95.408 116.128 108.47 C 112.279 119.745 112.347 125.814 118.409 127.814 C 126.23 130.381 134.815 123.439 140.44 111.001 C 142.138 106.976 143.565 102.501 144.19 97.22 Q 144.909 91.97 144.253 84.251 Q 143.878 80.845 141.097 79.72 C 135.222 76.47 125.253 85.626 111.94 102.501 C 105.94 110.501 100.472 118.439 97.94 127.564 C 97.38 130.592 98.01 137.338 103.003 141.283 C 106.359 143.934 110.128 145.814 118.409 145.564 C 130.347 144.658 138.784 135.626 146.315 122.283 C 146.472 127.345 147.003 132.189 145.347 136.876 L 145.347 136.876 Z"/>
  <path fill="#2daaaa" fill-rule="evenodd" d="M 146.315 122.283 C 138.784 135.626 130.347 144.658 118.409 145.564 C 110.128 145.814 106.359 143.934 103.003 141.283 C 98.01 137.338 97.38 130.592 97.94 127.564 C 100.472 118.439 105.94 110.501 111.94 102.501 C 125.253 85.626 135.222 76.47 141.097 79.72 Q 143.878 80.845 144.253 84.251 Q 144.909 91.97 144.19 97.22 C 143.565 102.501 142.138 106.976 140.44 111.001 C 134.815 123.439 126.23 130.381 118.409 127.814 C 112.347 125.814 112.279 119.745 116.128 108.47 Q 122.472 95.408 125.409 96.47 C 128.534 97.72 127.349 104.62 126.972 105.595 C 121.472 114.47 122.974 121.928 125.472 122.72 C 130.034 124.408 136.587 111.163 139.409 99.283 C 141.2 91.745 140.738 84.794 138.409 83.095 C 133.659 80.033 115.155 97.649 108.472 113.845 C 105.16 121.87 105.531 129.646 108.347 134.658 C 114.097 145.595 127.659 139.783 132.159 135.533 C 145.034 123.595 142.284 111.158 147.284 109.845 Q 148.722 110.095 148.409 114.72 C 151.409 127.845 161.534 148.97 153.284 158.845 C 147.284 167.845 135.409 170.595 115.909 176.22 C 110.722 171.107 106.858 165.598 103.815 159.314 C 122.565 153.189 130.988 150.152 136.878 146.501 C 140.838 144.047 143.395 141.372 145.347 136.876 C 147.003 132.189 146.472 127.345 146.315 122.283 L 146.315 122.283 Z M 109.949 150.97 C 108.769081 150.740019 107.606346 150.429288 106.469 150.04 C 105.068542 149.547997 103.71893 148.921751 102.439 148.17 C 101.319 147.51 100.259 146.77 99.239 145.96 C 96.539 143.78 94.469 140.91 93.259 137.65 C 92.279 135.1 91.779 132.39 91.769 129.65 C 91.759 128.5 91.869 127.35 92.089 126.21 C 92.819 123.56 93.749 120.97 94.879 118.46 C 95.949 116.09 97.149 113.78 98.479 111.54 C 99.799 109.34 101.189 107.18 102.659 105.07 C 104.129 102.97 105.639 100.89 107.179 98.84 C 109.889 95.39 112.689 92.01 115.599 88.72 C 117.999 85.97 120.549 83.36 123.229 80.89 C 124.389 79.83 125.599 78.82 126.849 77.86 C 127.995702 76.98885 129.19828 76.193812 130.449 75.48 C 131.639 74.79 132.909 74.22 134.219 73.78 C 135.579 73.33 137.009 73.09 138.449 73.07 C 140.259 73.05 142.049 73.47 143.659 74.29 C 144.479 74.65 145.249 75.11 145.959 75.65 C 146.769 76.26 147.479 77 148.079 77.82 C 148.689 78.66 149.179 79.59 149.529 80.57 C 149.879 81.57 150.119 82.62 150.229 83.68 C 150.459 86.44 150.579 89.22 150.559 91.99 C 150.549 93.99 150.409 95.99 150.139 97.98 C 149.899 100.04 149.529 102.09 149.039 104.1 C 149.899 104.35 150.699 104.76 151.399 105.32 C 152.149 105.92 152.779 106.66 153.249 107.49 C 153.529 108 153.759 108.53 153.929 109.09 C 154.079 109.58 154.199 110.08 154.279 110.59 C 154.389 111.26 154.449 111.94 154.459 112.63 C 154.469 113.14 154.459 113.65 154.449 114.16 C 154.759 115.44 155.109 116.72 155.489 117.99 C 156.019 119.78 156.569 121.57 157.129 123.36 C 157.759 125.34 158.369 127.33 158.959 129.32 C 159.579 131.39 160.139 133.47 160.659 135.57 C 161.179 137.67 161.599 139.8 161.929 141.94 C 162.259 144.06 162.439 146.2 162.449 148.34 C 162.489 150.83 162.169 153.31 161.519 155.71 C 160.839 158.15 159.679 160.44 158.109 162.42 C 156.374708 164.94038 154.235905 167.156897 151.779 168.98 C 150.519 169.92 149.209 170.77 147.839 171.54 C 146.439 172.32 144.999 173.03 143.519 173.68 C 141.979 174.35 140.409 174.97 138.829 175.54 C 137.129 176.15 135.429 176.73 133.709 177.26 C 129.869 178.46 125.999 179.6 122.119 180.68 C 119.519 181.42 116.909 182.17 114.309 182.93 C 110.519 179.58 107.109 175.81 104.169 171.68 C 100.648035 166.725459 97.815536 161.316127 95.749 155.6 C 100.499 154.1 105.229 152.55 109.949 150.97 L 109.949 150.97 Z"/>
 </g>
 <defs>
  <filter id="0EUgOm7ID5JtJ6aQoSl9iUJGcQnQcvoF" width="400%" height="400%" x="-200%" y="-200%" color-interpolation-filters="sRGB" filterUnits="objectBoundingBox">
   <feGaussianBlur xmlns="http://www.w3.org/2000/svg" in="SourceGraphic" stdDeviation="4.294"/>
   <feOffset xmlns="http://www.w3.org/2000/svg" dx="0" dy="4" result="pf_100_offsetBlur"/>
   <feFlood xmlns="http://www.w3.org/2000/svg" flood-opacity=".4"/>
   <feComposite xmlns="http://www.w3.org/2000/svg" in2="pf_100_offsetBlur" operator="in" result="pf_100_dropShadow"/>
   <feBlend xmlns="http://www.w3.org/2000/svg" in="SourceGraphic" in2="pf_100_dropShadow" mode="normal"/>
  </filter>
 </defs>
 <g opacity=".2">
  <path fill="#ffffff" d="M 249.643 83.58 L 44.234 236.61 C 55.796 238.921 70.66 239.629 89.757 239.629 L 165.127 239.629 C 239.182 239.629 249.766 229.071 249.766 155.085 L 249.766 95.834 C 249.766 91.531 249.725 87.464 249.643 83.58 L 249.643 83.58 Z"/>
 </g>
 <g opacity=".4">
  <linearGradient id="_lgradient_201" x1=".517" x2=".517" y1="0" y2="1" gradientTransform="matrix(244.65,0,0,228.34,5.68,11.95)" gradientUnits="userSpaceOnUse">
   <stop offset="0%" style="stop-color:#ffffff"/>
   <stop offset="12.5%" stop-opacity=".098" style="stop-color:#ffffff"/>
   <stop offset="92.5%" stop-opacity=".098" style="stop-color:#000000"/>
   <stop offset="100%" stop-opacity=".498" style="stop-color:#000000"/>
  </linearGradient>
  <path fill="url(#_lgradient_201)" fill-rule="evenodd" d="M 165.06803 11.951234 C 169.395994 11.941409 173.723944 11.990533 178.051908 12.088781 C 181.927398 12.167379 185.802873 12.31475 189.678362 12.540721 C 193.1309 12.737216 196.583423 13.022134 200.026115 13.395476 C 203.085193 13.729518 206.144271 14.181458 209.173842 14.741469 C 211.888645 15.242533 214.57394 15.881143 217.219897 16.6573 C 219.619947 17.354858 221.970814 18.219439 224.242988 19.241215 C 226.357793 20.184394 228.384061 21.304417 230.302129 22.591462 C 232.141505 23.829383 233.862851 25.244151 235.436659 26.80629 C 237.000621 28.378252 238.417046 30.087764 239.656409 31.924995 C 240.944972 33.840824 242.066305 35.864728 243.020409 37.967229 C 244.043389 40.246576 244.908985 42.584873 245.617197 44.972292 C 246.394255 47.615155 247.033606 50.297317 247.535265 53.008956 C 248.095924 56.034984 248.548399 59.080665 248.882828 62.13617 C 249.256611 65.574836 249.541856 69.013506 249.738578 72.462003 C 249.964823 76.323139 250.112361 80.194101 250.200884 84.055237 C 250.289421 88.378131 250.338591 92.701032 250.32876 97.014106 L 250.32876 155.225886 C 250.338591 159.54878 250.289421 163.861854 250.200884 168.184747 C 250.112361 172.05571 249.964823 175.916853 249.738578 179.777981 C 249.541856 183.226485 249.256611 186.674975 248.882828 190.103826 C 248.548399 193.15933 248.095924 196.214835 247.535265 199.240851 C 247.033606 201.942664 246.394255 204.624837 245.617197 207.267703 C 244.908985 209.655115 244.043389 212.003235 243.020409 214.272755 C 242.066305 216.38509 240.944972 218.399156 239.656409 220.314999 C 238.417046 222.152226 237.000621 223.871561 235.436659 225.433697 C 233.862851 226.995832 232.141505 228.410601 230.302129 229.648532 C 228.384061 230.935575 226.357793 232.055598 224.242988 232.998768 C 221.970814 234.020552 219.619947 234.885137 217.219897 235.592507 C 214.57394 236.368672 211.888645 237.007276 209.173842 237.498515 C 206.144271 238.068354 203.085193 238.510465 200.026115 238.844519 C 196.583423 239.21785 193.1309 239.502777 189.678362 239.699269 C 185.802873 239.925235 181.927398 240.072615 178.051908 240.161035 C 173.723944 240.249454 169.395994 240.298581 165.06803 240.288762 L 90.941963 240.288762 C 86.614006 240.298581 82.286049 240.249454 77.9581 240.161035 C 74.08261 240.072615 70.20712 239.925235 66.331638 239.699269 C 62.879108 239.502777 59.426578 239.21785 55.983886 238.844519 C 52.924808 238.510465 49.865733 238.068354 46.836162 237.498515 C 44.121356 237.007276 41.436057 236.368672 38.7901 235.592507 C 36.390053 234.885137 34.039187 234.020552 31.767009 232.998768 C 29.652213 232.055598 27.625943 230.935575 25.707871 229.648532 C 23.868489 228.410601 22.147143 226.995832 20.573343 225.433697 C 19.009377 223.871561 17.592955 222.152226 16.353586 220.314999 C 15.065036 218.399156 13.943701 216.38509 12.989584 214.272755 C 11.966612 212.003235 11.101021 209.655115 10.392811 207.267703 C 9.615746 204.624837 8.976389 201.942664 8.47474 199.240851 C 7.914072 196.214835 7.461604 193.15933 7.127172 190.103826 C 6.753394 186.674975 6.468142 183.226485 6.271417 179.777981 C 6.045183 175.916853 5.897639 172.05571 5.809112 168.184747 C 5.720586 163.861854 5.671405 159.54878 5.681241 155.225886 L 5.681241 97.014106 C 5.671405 92.701032 5.720586 88.378131 5.809112 84.055237 C 5.897639 80.194101 6.045183 76.323139 6.271417 72.462003 C 6.468142 69.013506 6.753394 65.574836 7.127172 62.13617 C 7.461604 59.080665 7.914072 56.034984 8.47474 53.008956 C 8.976389 50.297317 9.615746 47.615155 10.392811 44.972292 C 11.101021 42.584873 11.966612 40.246576 12.989584 37.967229 C 13.943701 35.864728 15.065036 33.840824 16.353586 31.924995 C 17.592955 30.087764 19.009377 28.378252 20.573343 26.80629 C 22.147143 25.244151 23.868489 23.829383 25.707871 22.591462 C 27.625943 21.304417 29.652213 20.184394 31.767009 19.241215 C 34.039187 18.219439 36.390053 17.354858 38.7901 16.6573 C 41.436057 15.881143 44.121356 15.242533 46.836162 14.741469 C 49.865733 14.181458 52.924808 13.729518 55.983886 13.395476 C 59.426578 13.022134 62.879108 12.737216 66.331638 12.540721 C 70.20712 12.31475 74.08261 12.167379 77.9581 12.088781 C 82.286049 11.990533 86.614006 11.941409 90.941963 11.951234 L 165.06803 11.951234 Z M 165.077876 15.959741 C 169.376317 15.949916 173.674759 15.99904 177.973216 16.087463 C 181.799522 16.175886 185.625827 16.323257 189.452133 16.539402 C 192.835809 16.735898 196.219486 17.010992 199.583486 17.384332 C 202.554026 17.698726 205.514751 18.131016 208.445953 18.681203 C 211.023049 19.152792 213.580483 19.761928 216.098564 20.498786 C 218.321569 21.147221 220.495374 21.952852 222.600334 22.896029 C 224.508571 23.750785 226.338116 24.762737 228.069293 25.922059 C 229.692286 27.012609 231.207063 28.260355 232.59398 29.645648 C 233.980897 31.030941 235.230091 32.543956 236.331763 34.165043 C 237.492434 35.894202 238.505568 37.711787 239.361333 39.607968 C 240.305606 41.720292 241.112187 43.891565 241.761369 46.102139 C 242.508934 48.617282 243.108947 51.161898 243.590914 53.735987 C 244.131912 56.663768 244.564709 59.6112 244.889308 62.578282 C 245.263091 65.938355 245.538505 69.308252 245.735227 72.687976 C 245.951626 76.509812 246.10901 80.321821 246.187687 84.143656 C 246.276225 88.437084 246.325394 92.720685 246.325394 97.014106 C 246.325394 97.014106 246.325394 97.014106 246.325394 97.014106 L 246.325394 155.225886 C 246.325394 155.225886 246.325394 155.225886 246.325394 155.225886 C 246.325394 159.519306 246.276225 163.802907 246.187687 168.096328 C 246.10901 171.918164 245.951626 175.739999 245.735227 179.552015 C 245.538505 182.931739 245.263091 186.301629 244.889308 189.671533 C 244.564709 192.628784 244.131912 195.576216 243.590914 198.503994 C 243.108947 201.078094 242.508934 203.622706 241.761369 206.137845 C 241.112187 208.358253 240.305606 210.5197 239.361333 212.63202 C 238.505568 214.528209 237.492434 216.355617 236.331763 218.074952 C 235.230091 219.705853 233.980897 221.218876 232.59398 222.604172 C 231.207063 223.979634 229.692286 225.227385 228.069293 226.317935 C 226.338116 227.477251 224.508571 228.489201 222.600334 229.343951 C 220.495374 230.296956 218.321569 231.092775 216.098564 231.741198 C 213.580483 232.478056 211.023049 233.087202 208.445953 233.558787 C 205.514751 234.108972 202.554026 234.541264 199.583486 234.865483 C 196.219486 235.228995 192.835809 235.513922 189.452133 235.70058 C 185.625827 235.916726 181.799522 236.073926 177.973216 236.152526 C 173.674759 236.25078 169.376317 236.290072 165.077876 236.290072 C 165.077876 236.290072 165.077876 236.290072 165.06803 236.290072 L 90.941963 236.290072 C 90.932125 236.290072 90.932125 236.290072 90.932125 236.290072 C 86.633683 236.290072 82.335234 236.25078 78.036784 236.152526 C 74.210479 236.073926 70.384173 235.916726 66.557868 235.70058 C 63.174195 235.513922 59.790522 235.228995 56.426518 234.865483 C 53.455967 234.541264 50.495253 234.108972 47.564048 233.558787 C 44.986944 233.087202 42.429517 232.478056 39.911433 231.741198 C 37.688439 231.092775 35.514626 230.296956 33.409665 229.343951 C 31.501429 228.489201 29.671886 227.477251 27.940703 226.317935 C 26.31772 225.227385 24.802935 223.979634 23.416022 222.604172 C 22.029109 221.218876 20.779904 219.705853 19.678243 218.074952 C 18.517564 216.355617 17.504428 214.528209 16.648674 212.63202 C 15.704392 210.5197 14.897819 208.358253 14.248626 206.137845 C 13.50107 203.622706 12.901057 201.078094 12.419081 198.503994 C 11.878086 195.576216 11.445291 192.628784 11.120694 189.671533 C 10.746916 186.301629 10.471501 182.931739 10.274776 179.552015 C 10.058378 175.739999 9.900997 171.918164 9.822307 168.096328 C 9.733781 163.802907 9.6846 159.519306 9.6846 155.225886 C 9.6846 155.225886 9.6846 155.225886 9.6846 155.225886 L 9.6846 97.014106 C 9.6846 97.014106 9.6846 97.014106 9.6846 97.014106 C 9.6846 92.720685 9.733781 88.437084 9.822307 84.143656 C 9.900997 80.321821 10.058378 76.509812 10.274776 72.687976 C 10.471501 69.308252 10.746916 65.938355 11.120694 62.578282 C 11.445291 59.6112 11.878086 56.663768 12.419081 53.735987 C 12.901057 51.161898 13.50107 48.617282 14.248626 46.102139 C 14.897819 43.891565 15.704392 41.720292 16.648674 39.607968 C 17.504428 37.711787 18.517564 35.894202 19.678243 34.165043 C 20.779904 32.543956 22.029109 31.030941 23.416022 29.645648 C 24.802935 28.260355 26.31772 27.012609 27.940703 25.922059 C 29.671886 24.762737 31.501429 23.750785 33.409665 22.896029 C 35.514626 21.952852 37.688439 21.147221 39.911433 20.498786 C 42.429517 19.761928 44.986944 19.152792 47.564048 18.681203 C 50.495253 18.131016 53.455967 17.698726 56.426518 17.384332 C 59.790522 17.010992 63.174195 16.735898 66.557868 16.539402 C 70.384173 16.323257 74.210479 16.175886 78.036784 16.087463 C 82.335234 15.99904 86.633683 15.949916 90.932125 15.959741 C 90.932125 15.959741 90.932125 15.959741 90.941963 15.959741 L 165.06803 15.959741 C 165.077876 15.959741 165.077876 15.959741 165.077876 15.959741 Z"/>
 </g>
</svg>
