<svg xmlns="http://www.w3.org/2000/svg" style="isolation:isolate" width="256" height="256" viewBox="0 0 256 256">
 <defs>
  <filter id="RseBQ8poMtdnxLYL1zvfahxAqK9ecXQr" width="400%" height="400%" x="-200%" y="-200%" color-interpolation-filters="sRGB" filterUnits="objectBoundingBox">
   <feGaussianBlur xmlns="http://www.w3.org/2000/svg" in="SourceGraphic" stdDeviation="4.294"/>
   <feOffset xmlns="http://www.w3.org/2000/svg" dx="0" dy="4" result="pf_100_offsetBlur"/>
   <feFlood xmlns="http://www.w3.org/2000/svg" flood-opacity=".4"/>
   <feComposite xmlns="http://www.w3.org/2000/svg" in2="pf_100_offsetBlur" operator="in" result="pf_100_dropShadow"/>
   <feBlend xmlns="http://www.w3.org/2000/svg" in="SourceGraphic" in2="pf_100_dropShadow" mode="normal"/>
  </filter>
 </defs>
 <g filter="url(#RseBQ8poMtdnxLYL1zvfahxAqK9ecXQr)">
  <linearGradient id="_lgradient_13" x1="0" x2="0" y1="0" y2="1" gradientTransform="matrix(244.648309,0,0,228.338396,5.68,11.951604)" gradientUnits="userSpaceOnUse">
   <stop offset="0%" style="stop-color:#525c66"/>
   <stop offset="100%" style="stop-color:#36424e"/>
  </linearGradient>
  <path fill="url(#_lgradient_13)" d="M 165.688919 11.951604 C 239.744626 11.951604 250.328309 22.508801 250.328309 96.495462 L 250.328309 155.746257 C 250.328309 229.732514 239.744626 240.29 165.688919 240.29 L 90.319393 240.29 C 16.26369 240.29 5.68 229.732514 5.68 155.746257 L 5.68 96.495462 C 5.68 22.508801 16.26369 11.951604 90.319393 11.951604 L 165.688919 11.951604 Z"/>
 </g>
 <g opacity=".4">
  <linearGradient id="_lgradient_14" x1=".517" x2=".517" y1="0" y2="1" gradientTransform="matrix(244.65,0,0,228.34,5.68,11.95)" gradientUnits="userSpaceOnUse">
   <stop offset="0%" style="stop-color:#ffffff"/>
   <stop offset="12.5%" stop-opacity=".098" style="stop-color:#ffffff"/>
   <stop offset="92.5%" stop-opacity=".098" style="stop-color:#000000"/>
   <stop offset="100%" stop-opacity=".498" style="stop-color:#000000"/>
  </linearGradient>
  <path fill="url(#_lgradient_14)" fill-rule="evenodd" d="M 165.06803 11.951234 C 169.395994 11.941409 173.723944 11.990533 178.051908 12.088781 C 181.927398 12.167379 185.802873 12.31475 189.678362 12.540721 C 193.1309 12.737216 196.583423 13.022134 200.026115 13.395476 C 203.085193 13.729518 206.144271 14.181458 209.173842 14.741469 C 211.888645 15.242533 214.57394 15.881143 217.219897 16.6573 C 219.619947 17.354858 221.970814 18.219439 224.242988 19.241215 C 226.357793 20.184394 228.384061 21.304417 230.302129 22.591462 C 232.141505 23.829383 233.862851 25.244151 235.436659 26.80629 C 237.000621 28.378252 238.417046 30.087764 239.656409 31.924995 C 240.944972 33.840824 242.066305 35.864728 243.020409 37.967229 C 244.043389 40.246576 244.908985 42.584873 245.617197 44.972292 C 246.394255 47.615155 247.033606 50.297317 247.535265 53.008956 C 248.095924 56.034984 248.548399 59.080665 248.882828 62.13617 C 249.256611 65.574836 249.541856 69.013506 249.738578 72.462003 C 249.964823 76.323139 250.112361 80.194101 250.200884 84.055237 C 250.289421 88.378131 250.338591 92.701032 250.32876 97.014106 L 250.32876 155.225886 C 250.338591 159.54878 250.289421 163.861854 250.200884 168.184747 C 250.112361 172.05571 249.964823 175.916853 249.738578 179.777981 C 249.541856 183.226485 249.256611 186.674975 248.882828 190.103826 C 248.548399 193.15933 248.095924 196.214835 247.535265 199.240851 C 247.033606 201.942664 246.394255 204.624837 245.617197 207.267703 C 244.908985 209.655115 244.043389 212.003235 243.020409 214.272755 C 242.066305 216.38509 240.944972 218.399156 239.656409 220.314999 C 238.417046 222.152226 237.000621 223.871561 235.436659 225.433697 C 233.862851 226.995832 232.141505 228.410601 230.302129 229.648532 C 228.384061 230.935575 226.357793 232.055598 224.242988 232.998768 C 221.970814 234.020552 219.619947 234.885137 217.219897 235.592507 C 214.57394 236.368672 211.888645 237.007276 209.173842 237.498515 C 206.144271 238.068354 203.085193 238.510465 200.026115 238.844519 C 196.583423 239.21785 193.1309 239.502777 189.678362 239.699269 C 185.802873 239.925235 181.927398 240.072615 178.051908 240.161035 C 173.723944 240.249454 169.395994 240.298581 165.06803 240.288762 L 90.941963 240.288762 C 86.614006 240.298581 82.286049 240.249454 77.9581 240.161035 C 74.08261 240.072615 70.20712 239.925235 66.331638 239.699269 C 62.879108 239.502777 59.426578 239.21785 55.983886 238.844519 C 52.924808 238.510465 49.865733 238.068354 46.836162 237.498515 C 44.121356 237.007276 41.436057 236.368672 38.7901 235.592507 C 36.390053 234.885137 34.039187 234.020552 31.767009 232.998768 C 29.652213 232.055598 27.625943 230.935575 25.707871 229.648532 C 23.868489 228.410601 22.147143 226.995832 20.573343 225.433697 C 19.009377 223.871561 17.592955 222.152226 16.353586 220.314999 C 15.065036 218.399156 13.943701 216.38509 12.989584 214.272755 C 11.966612 212.003235 11.101021 209.655115 10.392811 207.267703 C 9.615746 204.624837 8.976389 201.942664 8.47474 199.240851 C 7.914072 196.214835 7.461604 193.15933 7.127172 190.103826 C 6.753394 186.674975 6.468142 183.226485 6.271417 179.777981 C 6.045183 175.916853 5.897639 172.05571 5.809112 168.184747 C 5.720586 163.861854 5.671405 159.54878 5.681241 155.225886 L 5.681241 97.014106 C 5.671405 92.701032 5.720586 88.378131 5.809112 84.055237 C 5.897639 80.194101 6.045183 76.323139 6.271417 72.462003 C 6.468142 69.013506 6.753394 65.574836 7.127172 62.13617 C 7.461604 59.080665 7.914072 56.034984 8.47474 53.008956 C 8.976389 50.297317 9.615746 47.615155 10.392811 44.972292 C 11.101021 42.584873 11.966612 40.246576 12.989584 37.967229 C 13.943701 35.864728 15.065036 33.840824 16.353586 31.924995 C 17.592955 30.087764 19.009377 28.378252 20.573343 26.80629 C 22.147143 25.244151 23.868489 23.829383 25.707871 22.591462 C 27.625943 21.304417 29.652213 20.184394 31.767009 19.241215 C 34.039187 18.219439 36.390053 17.354858 38.7901 16.6573 C 41.436057 15.881143 44.121356 15.242533 46.836162 14.741469 C 49.865733 14.181458 52.924808 13.729518 55.983886 13.395476 C 59.426578 13.022134 62.879108 12.737216 66.331638 12.540721 C 70.20712 12.31475 74.08261 12.167379 77.9581 12.088781 C 82.286049 11.990533 86.614006 11.941409 90.941963 11.951234 L 165.06803 11.951234 Z M 165.077876 15.959741 C 169.376317 15.949916 173.674759 15.99904 177.973216 16.087463 C 181.799522 16.175886 185.625827 16.323257 189.452133 16.539402 C 192.835809 16.735898 196.219486 17.010992 199.583486 17.384332 C 202.554026 17.698726 205.514751 18.131016 208.445953 18.681203 C 211.023049 19.152792 213.580483 19.761928 216.098564 20.498786 C 218.321569 21.147221 220.495374 21.952852 222.600334 22.896029 C 224.508571 23.750785 226.338116 24.762737 228.069293 25.922059 C 229.692286 27.012609 231.207063 28.260355 232.59398 29.645648 C 233.980897 31.030941 235.230091 32.543956 236.331763 34.165043 C 237.492434 35.894202 238.505568 37.711787 239.361333 39.607968 C 240.305606 41.720292 241.112187 43.891565 241.761369 46.102139 C 242.508934 48.617282 243.108947 51.161898 243.590914 53.735987 C 244.131912 56.663768 244.564709 59.6112 244.889308 62.578282 C 245.263091 65.938355 245.538505 69.308252 245.735227 72.687976 C 245.951626 76.509812 246.10901 80.321821 246.187687 84.143656 C 246.276225 88.437084 246.325394 92.720685 246.325394 97.014106 C 246.325394 97.014106 246.325394 97.014106 246.325394 97.014106 L 246.325394 155.225886 C 246.325394 155.225886 246.325394 155.225886 246.325394 155.225886 C 246.325394 159.519306 246.276225 163.802907 246.187687 168.096328 C 246.10901 171.918164 245.951626 175.739999 245.735227 179.552015 C 245.538505 182.931739 245.263091 186.301629 244.889308 189.671533 C 244.564709 192.628784 244.131912 195.576216 243.590914 198.503994 C 243.108947 201.078094 242.508934 203.622706 241.761369 206.137845 C 241.112187 208.358253 240.305606 210.5197 239.361333 212.63202 C 238.505568 214.528209 237.492434 216.355617 236.331763 218.074952 C 235.230091 219.705853 233.980897 221.218876 232.59398 222.604172 C 231.207063 223.979634 229.692286 225.227385 228.069293 226.317935 C 226.338116 227.477251 224.508571 228.489201 222.600334 229.343951 C 220.495374 230.296956 218.321569 231.092775 216.098564 231.741198 C 213.580483 232.478056 211.023049 233.087202 208.445953 233.558787 C 205.514751 234.108972 202.554026 234.541264 199.583486 234.865483 C 196.219486 235.228995 192.835809 235.513922 189.452133 235.70058 C 185.625827 235.916726 181.799522 236.073926 177.973216 236.152526 C 173.674759 236.25078 169.376317 236.290072 165.077876 236.290072 C 165.077876 236.290072 165.077876 236.290072 165.06803 236.290072 L 90.941963 236.290072 C 90.932125 236.290072 90.932125 236.290072 90.932125 236.290072 C 86.633683 236.290072 82.335234 236.25078 78.036784 236.152526 C 74.210479 236.073926 70.384173 235.916726 66.557868 235.70058 C 63.174195 235.513922 59.790522 235.228995 56.426518 234.865483 C 53.455967 234.541264 50.495253 234.108972 47.564048 233.558787 C 44.986944 233.087202 42.429517 232.478056 39.911433 231.741198 C 37.688439 231.092775 35.514626 230.296956 33.409665 229.343951 C 31.501429 228.489201 29.671886 227.477251 27.940703 226.317935 C 26.31772 225.227385 24.802935 223.979634 23.416022 222.604172 C 22.029109 221.218876 20.779904 219.705853 19.678243 218.074952 C 18.517564 216.355617 17.504428 214.528209 16.648674 212.63202 C 15.704392 210.5197 14.897819 208.358253 14.248626 206.137845 C 13.50107 203.622706 12.901057 201.078094 12.419081 198.503994 C 11.878086 195.576216 11.445291 192.628784 11.120694 189.671533 C 10.746916 186.301629 10.471501 182.931739 10.274776 179.552015 C 10.058378 175.739999 9.900997 171.918164 9.822307 168.096328 C 9.733781 163.802907 9.6846 159.519306 9.6846 155.225886 C 9.6846 155.225886 9.6846 155.225886 9.6846 155.225886 L 9.6846 97.014106 C 9.6846 97.014106 9.6846 97.014106 9.6846 97.014106 C 9.6846 92.720685 9.733781 88.437084 9.822307 84.143656 C 9.900997 80.321821 10.058378 76.509812 10.274776 72.687976 C 10.471501 69.308252 10.746916 65.938355 11.120694 62.578282 C 11.445291 59.6112 11.878086 56.663768 12.419081 53.735987 C 12.901057 51.161898 13.50107 48.617282 14.248626 46.102139 C 14.897819 43.891565 15.704392 41.720292 16.648674 39.607968 C 17.504428 37.711787 18.517564 35.894202 19.678243 34.165043 C 20.779904 32.543956 22.029109 31.030941 23.416022 29.645648 C 24.802935 28.260355 26.31772 27.012609 27.940703 25.922059 C 29.671886 24.762737 31.501429 23.750785 33.409665 22.896029 C 35.514626 21.952852 37.688439 21.147221 39.911433 20.498786 C 42.429517 19.761928 44.986944 19.152792 47.564048 18.681203 C 50.495253 18.131016 53.455967 17.698726 56.426518 17.384332 C 59.790522 17.010992 63.174195 16.735898 66.557868 16.539402 C 70.384173 16.323257 74.210479 16.175886 78.036784 16.087463 C 82.335234 15.99904 86.633683 15.949916 90.932125 15.959741 C 90.932125 15.959741 90.932125 15.959741 90.941963 15.959741 L 165.06803 15.959741 C 165.077876 15.959741 165.077876 15.959741 165.077876 15.959741 Z"/>
 </g>
 <g>
  <defs>
   <filter id="UNedwmZf5TqAz1N9NgF8Xu7Qg3I47KTj" width="400%" height="400%" x="-200%" y="-200%" color-interpolation-filters="sRGB" filterUnits="objectBoundingBox">
    <feGaussianBlur xmlns="http://www.w3.org/2000/svg" stdDeviation="4.294"/>
   </filter>
  </defs>
  <g opacity=".4" filter="url(#UNedwmZf5TqAz1N9NgF8Xu7Qg3I47KTj)">
   <path d="M 128 57.444543 C 88.416614 57.444543 55.5 88.669486 55.5 126.451652 C 55.5 164.233819 88.416614 194.388985 128 194.388985 L 128.016111 194.388985 C 133.565582 194.376901 139.013556 193.314532 144.410778 192.12336 C 155.541137 199.445457 169.129249 204.450775 184.562887 201.67322 C 191.636309 200.387712 194.465582 193.386469 189.534698 188.158415 C 184.254923 182.578171 180.88464 179.104776 180.72353 171.669497 C 192.782696 159.288108 200.483808 143.507275 200.499919 126.453666 C 200.499919 88.665055 167.584917 57.443334 127.999919 57.443334 L 128 57.444543 Z M 128 73.555654 C 159.103307 73.555654 184.379222 98.017959 184.388888 126.436346 C 184.376805 138.653403 178.868897 150.485399 169.190472 160.421122 C 166.170182 163.515517 164.52038 167.694013 164.612016 172.017095 C 164.714242 176.747397 166.543254 181.119874 168.37235 185.201621 C 163.172407 183.998849 158.152266 181.895542 153.25207 178.67219 C 149.619791 176.280005 145.174707 175.457811 140.927072 176.392472 C 135.803738 177.52025 131.518185 178.269415 127.997906 178.27747 C 96.594936 178.27747 71.609017 154.876082 71.609017 126.451249 C 71.609009 98.026417 96.88896 73.555251 127.997906 73.555251 L 128 73.555654 Z"/>
  </g>
  <path fill="#ffffff" d="M 128 53.548933 C 88.415003 53.548933 55.5 84.775487 55.5 122.556043 C 55.5 160.336598 88.415003 190.496598 128 190.496598 L 128.016111 190.496598 C 133.566388 190.480486 139.011945 189.417154 144.409167 188.224931 C 155.541943 195.547431 169.131666 200.557985 184.558053 197.778819 C 191.638887 196.489928 194.466387 189.489651 189.536389 184.261597 C 184.251942 178.679098 180.88472 175.207152 180.723611 167.771873 C 192.782776 155.390485 200.483889 139.609652 200.5 122.556043 C 200.5 84.775487 167.584997 53.548933 128 53.548933 Z M 128 69.660045 C 159.102501 69.660045 184.380833 94.119932 184.388888 122.539931 C 184.372777 134.76021 178.870831 146.585766 169.188056 156.526318 C 166.169833 159.620202 164.521179 163.796985 164.612499 168.118263 C 164.717223 172.846873 166.545832 177.221042 168.374445 181.305206 C 163.170554 180.104932 158.151944 178.00243 153.254165 174.772154 C 149.621887 172.379968 145.176802 171.557772 140.929166 172.492432 C 135.805832 173.628265 131.52028 174.369375 128 174.385486 C 96.599443 174.385486 71.611112 150.984097 71.611112 122.556043 C 71.611112 94.127988 96.889443 69.660045 128 69.660045 Z"/>
  <defs>
   <filter id="PDklF9Whf2rZdLitOGr9uZ56Itg271Yx" width="400%" height="400%" x="-200%" y="-200%" color-interpolation-filters="sRGB" filterUnits="objectBoundingBox">
    <feGaussianBlur xmlns="http://www.w3.org/2000/svg" stdDeviation="4.294"/>
   </filter>
  </defs>
  <g opacity=".4" filter="url(#PDklF9Whf2rZdLitOGr9uZ56Itg271Yx)">
   <path d="M 147.966248 143.227802 C 149.778774 142.100008 151.994083 141.777782 154.048279 142.261122 C 156.142754 142.744462 157.915001 144.073648 159.042795 145.886174 C 160.170589 147.698699 160.492816 149.914009 160.009476 151.968205 C 159.485857 154.062679 158.19695 155.834927 156.344145 156.962721 C 153.524661 158.69469 150.584341 160.225267 147.523186 161.514175 C 144.663423 162.762803 141.723103 163.810041 138.702227 164.655886 C 135.238289 165.622566 131.613237 166.146185 127.988185 166.186463 C 124.363133 166.146185 120.77836 165.622566 117.274143 164.655886 C 114.293545 163.810041 111.353225 162.762803 108.493462 161.514175 C 105.432307 160.225267 102.491988 158.69469 99.632225 156.962721 C 97.819699 155.834927 96.490513 154.062679 96.007173 151.968205 C 95.483554 149.914009 95.846059 147.698699 96.973853 145.886174 C 98.061369 144.073648 99.873895 142.744462 101.928091 142.261122 C 104.022565 141.777782 106.197596 142.100008 108.0504 143.227802 C 110.225431 144.556988 112.521298 145.72506 114.89772 146.732019 C 117.072751 147.698699 119.328339 148.504267 121.664484 149.14872 C 123.71868 149.712617 125.853432 150.034844 127.988185 150.075122 C 130.163216 150.034844 132.297969 149.712617 134.352165 149.14872 C 136.648031 148.504267 138.943897 147.698699 141.118928 146.732019 C 143.495351 145.72506 145.791217 144.556988 147.966248 143.227802 Z"/>
  </g>
  <path fill="#ffffff" d="M 147.966248 135.172132 C 149.778774 134.044338 151.994083 133.722111 154.048279 134.205451 C 156.142754 134.688791 157.915001 136.017977 159.042795 137.830503 C 160.170589 139.643029 160.492816 141.858338 160.009476 143.912534 C 159.485857 146.007009 158.19695 147.779256 156.344145 148.90705 C 153.524661 150.639019 150.584341 152.169597 147.523186 153.458504 C 144.663423 154.707133 141.723103 155.75437 138.702227 156.600215 C 135.238289 157.566896 131.613237 158.090515 127.988185 158.130793 C 124.363133 158.090515 120.77836 157.566896 117.274143 156.600215 C 114.293545 155.75437 111.353225 154.707133 108.493462 153.458504 C 105.432307 152.169597 102.491988 150.639019 99.632225 148.90705 C 97.819699 147.779256 96.490513 146.007009 96.007173 143.912534 C 95.483554 141.858338 95.846059 139.643029 96.973853 137.830503 C 98.061369 136.017977 99.873895 134.688791 101.928091 134.205451 C 104.022565 133.722111 106.197596 134.044338 108.0504 135.172132 C 110.225431 136.501317 112.521298 137.66939 114.89772 138.676348 C 117.072751 139.643029 119.328339 140.448596 121.664484 141.09305 C 123.71868 141.656947 125.853432 141.979173 127.988185 142.019452 C 130.163216 141.979173 132.297969 141.656947 134.352165 141.09305 C 136.648031 140.448596 138.943897 139.643029 141.118928 138.676348 C 143.495351 137.66939 145.791217 136.501317 147.966248 135.172132 Z"/>
 </g>
</svg>
