<svg xmlns="http://www.w3.org/2000/svg" style="isolation:isolate" width="256" height="256" viewBox="0 0 256 256">
 <defs>
  <filter id="Qbg4jAzrdhxYUqIVV6JtMXKwovsEpTXm" width="400%" height="400%" x="-200%" y="-200%" color-interpolation-filters="sRGB" filterUnits="objectBoundingBox">
   <feGaussianBlur xmlns="http://www.w3.org/2000/svg" in="SourceGraphic" stdDeviation="4.294"/>
   <feOffset xmlns="http://www.w3.org/2000/svg" dx="0" dy="4" result="pf_100_offsetBlur"/>
   <feFlood xmlns="http://www.w3.org/2000/svg" flood-opacity=".4"/>
   <feComposite xmlns="http://www.w3.org/2000/svg" in2="pf_100_offsetBlur" operator="in" result="pf_100_dropShadow"/>
   <feBlend xmlns="http://www.w3.org/2000/svg" in="SourceGraphic" in2="pf_100_dropShadow" mode="normal"/>
  </filter>
 </defs>
 <g filter="url(#Qbg4jAzrdhxYUqIVV6JtMXKwovsEpTXm)">
  <linearGradient id="_lgradient_18" x1="0" x2="0" y1="0" y2="1" gradientTransform="matrix(244.648309,0,0,228.338396,5.68,11.951604)" gradientUnits="userSpaceOnUse">
   <stop offset="0%" style="stop-color:#525c66"/>
   <stop offset="100%" style="stop-color:#36424e"/>
  </linearGradient>
  <path fill="url(#_lgradient_18)" d="M 165.688919 11.951604 C 239.744626 11.951604 250.328309 22.508801 250.328309 96.495462 L 250.328309 155.746257 C 250.328309 229.732514 239.744626 240.29 165.688919 240.29 L 90.319393 240.29 C 16.26369 240.29 5.68 229.732514 5.68 155.746257 L 5.68 96.495462 C 5.68 22.508801 16.26369 11.951604 90.319393 11.951604 L 165.688919 11.951604 Z"/>
 </g>
 <g opacity=".4">
  <linearGradient id="_lgradient_19" x1=".517" x2=".517" y1="0" y2="1" gradientTransform="matrix(244.65,0,0,228.34,5.68,11.95)" gradientUnits="userSpaceOnUse">
   <stop offset="0%" style="stop-color:#ffffff"/>
   <stop offset="12.5%" stop-opacity=".098" style="stop-color:#ffffff"/>
   <stop offset="92.5%" stop-opacity=".098" style="stop-color:#000000"/>
   <stop offset="100%" stop-opacity=".498" style="stop-color:#000000"/>
  </linearGradient>
  <path fill="url(#_lgradient_19)" fill-rule="evenodd" d="M 165.06803 11.951234 C 169.395994 11.941409 173.723944 11.990533 178.051908 12.088781 C 181.927398 12.167379 185.802873 12.31475 189.678362 12.540721 C 193.1309 12.737216 196.583423 13.022134 200.026115 13.395476 C 203.085193 13.729518 206.144271 14.181458 209.173842 14.741469 C 211.888645 15.242533 214.57394 15.881143 217.219897 16.6573 C 219.619947 17.354858 221.970814 18.219439 224.242988 19.241215 C 226.357793 20.184394 228.384061 21.304417 230.302129 22.591462 C 232.141505 23.829383 233.862851 25.244151 235.436659 26.80629 C 237.000621 28.378252 238.417046 30.087764 239.656409 31.924995 C 240.944972 33.840824 242.066305 35.864728 243.020409 37.967229 C 244.043389 40.246576 244.908985 42.584873 245.617197 44.972292 C 246.394255 47.615155 247.033606 50.297317 247.535265 53.008956 C 248.095924 56.034984 248.548399 59.080665 248.882828 62.13617 C 249.256611 65.574836 249.541856 69.013506 249.738578 72.462003 C 249.964823 76.323139 250.112361 80.194101 250.200884 84.055237 C 250.289421 88.378131 250.338591 92.701032 250.32876 97.014106 L 250.32876 155.225886 C 250.338591 159.54878 250.289421 163.861854 250.200884 168.184747 C 250.112361 172.05571 249.964823 175.916853 249.738578 179.777981 C 249.541856 183.226485 249.256611 186.674975 248.882828 190.103826 C 248.548399 193.15933 248.095924 196.214835 247.535265 199.240851 C 247.033606 201.942664 246.394255 204.624837 245.617197 207.267703 C 244.908985 209.655115 244.043389 212.003235 243.020409 214.272755 C 242.066305 216.38509 240.944972 218.399156 239.656409 220.314999 C 238.417046 222.152226 237.000621 223.871561 235.436659 225.433697 C 233.862851 226.995832 232.141505 228.410601 230.302129 229.648532 C 228.384061 230.935575 226.357793 232.055598 224.242988 232.998768 C 221.970814 234.020552 219.619947 234.885137 217.219897 235.592507 C 214.57394 236.368672 211.888645 237.007276 209.173842 237.498515 C 206.144271 238.068354 203.085193 238.510465 200.026115 238.844519 C 196.583423 239.21785 193.1309 239.502777 189.678362 239.699269 C 185.802873 239.925235 181.927398 240.072615 178.051908 240.161035 C 173.723944 240.249454 169.395994 240.298581 165.06803 240.288762 L 90.941963 240.288762 C 86.614006 240.298581 82.286049 240.249454 77.9581 240.161035 C 74.08261 240.072615 70.20712 239.925235 66.331638 239.699269 C 62.879108 239.502777 59.426578 239.21785 55.983886 238.844519 C 52.924808 238.510465 49.865733 238.068354 46.836162 237.498515 C 44.121356 237.007276 41.436057 236.368672 38.7901 235.592507 C 36.390053 234.885137 34.039187 234.020552 31.767009 232.998768 C 29.652213 232.055598 27.625943 230.935575 25.707871 229.648532 C 23.868489 228.410601 22.147143 226.995832 20.573343 225.433697 C 19.009377 223.871561 17.592955 222.152226 16.353586 220.314999 C 15.065036 218.399156 13.943701 216.38509 12.989584 214.272755 C 11.966612 212.003235 11.101021 209.655115 10.392811 207.267703 C 9.615746 204.624837 8.976389 201.942664 8.47474 199.240851 C 7.914072 196.214835 7.461604 193.15933 7.127172 190.103826 C 6.753394 186.674975 6.468142 183.226485 6.271417 179.777981 C 6.045183 175.916853 5.897639 172.05571 5.809112 168.184747 C 5.720586 163.861854 5.671405 159.54878 5.681241 155.225886 L 5.681241 97.014106 C 5.671405 92.701032 5.720586 88.378131 5.809112 84.055237 C 5.897639 80.194101 6.045183 76.323139 6.271417 72.462003 C 6.468142 69.013506 6.753394 65.574836 7.127172 62.13617 C 7.461604 59.080665 7.914072 56.034984 8.47474 53.008956 C 8.976389 50.297317 9.615746 47.615155 10.392811 44.972292 C 11.101021 42.584873 11.966612 40.246576 12.989584 37.967229 C 13.943701 35.864728 15.065036 33.840824 16.353586 31.924995 C 17.592955 30.087764 19.009377 28.378252 20.573343 26.80629 C 22.147143 25.244151 23.868489 23.829383 25.707871 22.591462 C 27.625943 21.304417 29.652213 20.184394 31.767009 19.241215 C 34.039187 18.219439 36.390053 17.354858 38.7901 16.6573 C 41.436057 15.881143 44.121356 15.242533 46.836162 14.741469 C 49.865733 14.181458 52.924808 13.729518 55.983886 13.395476 C 59.426578 13.022134 62.879108 12.737216 66.331638 12.540721 C 70.20712 12.31475 74.08261 12.167379 77.9581 12.088781 C 82.286049 11.990533 86.614006 11.941409 90.941963 11.951234 L 165.06803 11.951234 Z M 165.077876 15.959741 C 169.376317 15.949916 173.674759 15.99904 177.973216 16.087463 C 181.799522 16.175886 185.625827 16.323257 189.452133 16.539402 C 192.835809 16.735898 196.219486 17.010992 199.583486 17.384332 C 202.554026 17.698726 205.514751 18.131016 208.445953 18.681203 C 211.023049 19.152792 213.580483 19.761928 216.098564 20.498786 C 218.321569 21.147221 220.495374 21.952852 222.600334 22.896029 C 224.508571 23.750785 226.338116 24.762737 228.069293 25.922059 C 229.692286 27.012609 231.207063 28.260355 232.59398 29.645648 C 233.980897 31.030941 235.230091 32.543956 236.331763 34.165043 C 237.492434 35.894202 238.505568 37.711787 239.361333 39.607968 C 240.305606 41.720292 241.112187 43.891565 241.761369 46.102139 C 242.508934 48.617282 243.108947 51.161898 243.590914 53.735987 C 244.131912 56.663768 244.564709 59.6112 244.889308 62.578282 C 245.263091 65.938355 245.538505 69.308252 245.735227 72.687976 C 245.951626 76.509812 246.10901 80.321821 246.187687 84.143656 C 246.276225 88.437084 246.325394 92.720685 246.325394 97.014106 C 246.325394 97.014106 246.325394 97.014106 246.325394 97.014106 L 246.325394 155.225886 C 246.325394 155.225886 246.325394 155.225886 246.325394 155.225886 C 246.325394 159.519306 246.276225 163.802907 246.187687 168.096328 C 246.10901 171.918164 245.951626 175.739999 245.735227 179.552015 C 245.538505 182.931739 245.263091 186.301629 244.889308 189.671533 C 244.564709 192.628784 244.131912 195.576216 243.590914 198.503994 C 243.108947 201.078094 242.508934 203.622706 241.761369 206.137845 C 241.112187 208.358253 240.305606 210.5197 239.361333 212.63202 C 238.505568 214.528209 237.492434 216.355617 236.331763 218.074952 C 235.230091 219.705853 233.980897 221.218876 232.59398 222.604172 C 231.207063 223.979634 229.692286 225.227385 228.069293 226.317935 C 226.338116 227.477251 224.508571 228.489201 222.600334 229.343951 C 220.495374 230.296956 218.321569 231.092775 216.098564 231.741198 C 213.580483 232.478056 211.023049 233.087202 208.445953 233.558787 C 205.514751 234.108972 202.554026 234.541264 199.583486 234.865483 C 196.219486 235.228995 192.835809 235.513922 189.452133 235.70058 C 185.625827 235.916726 181.799522 236.073926 177.973216 236.152526 C 173.674759 236.25078 169.376317 236.290072 165.077876 236.290072 C 165.077876 236.290072 165.077876 236.290072 165.06803 236.290072 L 90.941963 236.290072 C 90.932125 236.290072 90.932125 236.290072 90.932125 236.290072 C 86.633683 236.290072 82.335234 236.25078 78.036784 236.152526 C 74.210479 236.073926 70.384173 235.916726 66.557868 235.70058 C 63.174195 235.513922 59.790522 235.228995 56.426518 234.865483 C 53.455967 234.541264 50.495253 234.108972 47.564048 233.558787 C 44.986944 233.087202 42.429517 232.478056 39.911433 231.741198 C 37.688439 231.092775 35.514626 230.296956 33.409665 229.343951 C 31.501429 228.489201 29.671886 227.477251 27.940703 226.317935 C 26.31772 225.227385 24.802935 223.979634 23.416022 222.604172 C 22.029109 221.218876 20.779904 219.705853 19.678243 218.074952 C 18.517564 216.355617 17.504428 214.528209 16.648674 212.63202 C 15.704392 210.5197 14.897819 208.358253 14.248626 206.137845 C 13.50107 203.622706 12.901057 201.078094 12.419081 198.503994 C 11.878086 195.576216 11.445291 192.628784 11.120694 189.671533 C 10.746916 186.301629 10.471501 182.931739 10.274776 179.552015 C 10.058378 175.739999 9.900997 171.918164 9.822307 168.096328 C 9.733781 163.802907 9.6846 159.519306 9.6846 155.225886 C 9.6846 155.225886 9.6846 155.225886 9.6846 155.225886 L 9.6846 97.014106 C 9.6846 97.014106 9.6846 97.014106 9.6846 97.014106 C 9.6846 92.720685 9.733781 88.437084 9.822307 84.143656 C 9.900997 80.321821 10.058378 76.509812 10.274776 72.687976 C 10.471501 69.308252 10.746916 65.938355 11.120694 62.578282 C 11.445291 59.6112 11.878086 56.663768 12.419081 53.735987 C 12.901057 51.161898 13.50107 48.617282 14.248626 46.102139 C 14.897819 43.891565 15.704392 41.720292 16.648674 39.607968 C 17.504428 37.711787 18.517564 35.894202 19.678243 34.165043 C 20.779904 32.543956 22.029109 31.030941 23.416022 29.645648 C 24.802935 28.260355 26.31772 27.012609 27.940703 25.922059 C 29.671886 24.762737 31.501429 23.750785 33.409665 22.896029 C 35.514626 21.952852 37.688439 21.147221 39.911433 20.498786 C 42.429517 19.761928 44.986944 19.152792 47.564048 18.681203 C 50.495253 18.131016 53.455967 17.698726 56.426518 17.384332 C 59.790522 17.010992 63.174195 16.735898 66.557868 16.539402 C 70.384173 16.323257 74.210479 16.175886 78.036784 16.087463 C 82.335234 15.99904 86.633683 15.949916 90.932125 15.959741 C 90.932125 15.959741 90.932125 15.959741 90.941963 15.959741 L 165.06803 15.959741 C 165.077876 15.959741 165.077876 15.959741 165.077876 15.959741 Z"/>
 </g>
 <g>
  <defs>
   <filter id="SLioncZ80YEnBw0hRuru72yGd41z4xDw" width="400%" height="400%" x="-200%" y="-200%" color-interpolation-filters="sRGB" filterUnits="objectBoundingBox">
    <feGaussianBlur xmlns="http://www.w3.org/2000/svg" stdDeviation="4.294"/>
   </filter>
  </defs>
  <g opacity=".4" filter="url(#SLioncZ80YEnBw0hRuru72yGd41z4xDw)">
   <path d="M 45.5 75.40009 L 45.5 81.511243 C 45.5 82.722475 46.329284 83.695369 47.362069 83.695369 L 80.304861 83.695369 C 81.337646 83.695369 82.166927 82.722475 82.166927 81.511243 L 82.166927 75.40009 C 82.166927 76.611319 81.337646 77.584216 80.304861 77.584216 L 47.362069 77.584216 C 46.329284 77.584216 45.5 76.611319 45.5 75.40009 Z M 88.278083 75.40009 L 88.278083 81.511243 C 88.278083 82.722475 89.107367 83.695369 90.140153 83.695369 L 123.082944 83.695369 C 124.115729 83.695369 124.946847 82.722475 124.946847 81.511243 L 124.946847 75.40009 C 124.946847 76.611319 124.115729 77.584216 123.082944 77.584216 L 90.141986 77.584216 C 89.109201 77.584216 88.279917 76.611319 88.279917 75.40009 L 88.278083 75.40009 Z M 131.056166 75.40009 L 131.056166 81.511243 C 131.056166 82.722475 131.887284 83.695369 132.920069 83.695369 L 165.86286 83.695369 C 166.889535 83.695369 167.720652 82.722475 167.720652 81.511243 L 167.720652 75.40009 C 167.720652 76.611319 166.889535 77.584216 165.856749 77.584216 L 132.917625 77.584216 C 131.884839 77.584216 131.053722 76.611319 131.053722 75.40009 L 131.056166 75.40009 Z M 173.834249 75.40009 L 173.834249 81.511243 C 173.834249 82.722475 174.665367 83.695369 175.698152 83.695369 L 208.640943 83.695369 C 209.667618 83.695369 210.498735 82.722475 210.498735 81.511243 L 210.498735 75.40009 C 210.498735 76.611319 209.667618 77.584216 208.634832 77.584216 L 175.695708 77.584216 C 174.662922 77.584216 173.831805 76.611319 173.831805 75.40009 L 173.834249 75.40009 Z M 45.5 118.178173 L 45.5 124.289326 C 45.5 125.499336 46.329284 126.471011 47.362069 126.471011 L 80.304861 126.471011 C 81.337646 126.471011 82.166927 125.499336 82.166927 124.289326 L 82.166927 118.178173 C 82.166927 119.38818 81.337646 120.359855 80.304861 120.359855 L 47.362069 120.359855 C 46.329284 120.359855 45.5 119.38818 45.5 118.178173 Z M 88.278083 118.178173 L 88.278083 124.289326 C 88.278083 125.499336 89.107367 126.471011 90.140153 126.471011 L 123.082944 126.471011 C 124.115729 126.471011 124.946847 125.499336 124.946847 124.289326 L 124.946847 118.178173 C 124.946847 119.38818 124.115729 120.359855 123.082944 120.359855 L 90.141986 120.359855 C 89.109201 120.359855 88.279917 119.38818 88.279917 118.178173 L 88.278083 118.178173 Z M 131.056166 118.178173 L 131.056166 124.289326 C 131.056166 125.499336 131.887284 126.471011 132.920069 126.471011 L 165.86286 126.471011 C 166.889535 126.471011 167.720652 125.499336 167.720652 124.289326 L 167.720652 118.178173 C 167.720652 119.38818 166.889535 120.359855 165.856749 120.359855 L 132.913958 120.359855 C 131.887284 120.359855 131.056166 119.38818 131.056166 118.178173 Z M 173.834249 118.178173 L 173.834249 124.289326 C 173.834249 125.499336 174.665367 126.471011 175.698152 126.471011 L 208.640943 126.471011 C 209.667618 126.471011 210.498735 125.499336 210.498735 124.289326 L 210.498735 118.178173 C 210.498735 119.38818 209.667618 120.359855 208.634832 120.359855 L 175.692041 120.359855 C 174.665367 120.359855 173.834249 119.38818 173.834249 118.178173 Z M 45.5 160.956256 L 45.5 167.067412 C 45.5 168.277419 46.329284 169.249094 47.362069 169.249094 L 80.304861 169.249094 C 81.337646 169.249094 82.166927 168.277419 82.166927 167.067412 L 82.166927 160.956256 C 82.166927 162.166266 81.337646 163.137938 80.304861 163.137938 L 47.362069 163.137938 C 46.329284 163.137938 45.5 162.166266 45.5 160.956256 Z M 88.278083 160.956256 L 88.278083 167.067412 C 88.278083 168.277419 89.107367 169.249094 90.140153 169.249094 L 123.082944 169.249094 C 124.115729 169.249094 124.946847 168.277419 124.946847 167.067412 L 124.946847 160.956256 C 124.946847 162.166266 124.115729 163.137938 123.082944 163.137938 L 90.141986 163.137938 C 89.109201 163.137938 88.279917 162.166266 88.279917 160.956256 L 88.278083 160.956256 Z M 131.056166 160.956256 L 131.056166 167.067412 C 131.056166 168.277419 131.887284 169.249094 132.920069 169.249094 L 165.86286 169.249094 C 166.889535 169.249094 167.720652 168.277419 167.720652 167.067412 L 167.720652 160.956256 C 167.720652 162.166266 166.889535 163.137938 165.856749 163.137938 L 132.913958 163.137938 C 131.887284 163.137938 131.056166 162.166266 131.056166 160.956256 Z M 173.834249 160.956256 L 173.834249 167.067412 C 173.834249 168.277419 174.665367 169.249094 175.698152 169.249094 L 208.640943 169.249094 C 209.667618 169.249094 210.498735 168.277419 210.498735 167.067412 L 210.498735 160.956256 C 210.498735 162.166266 209.667618 163.137938 208.634832 163.137938 L 175.692041 163.137938 C 174.665367 163.137938 173.834249 162.166266 173.834249 160.956256 Z M 45.5 203.734339 L 45.5 209.845495 C 45.5 211.055502 46.329284 212.027177 47.362069 212.027177 L 80.304861 212.027177 C 81.337646 212.027177 82.166927 211.055502 82.166927 209.845495 L 82.166927 203.734339 C 82.166927 204.944349 81.337646 205.916021 80.304861 205.916021 L 47.362069 205.916021 C 46.329284 205.916021 45.5 204.944349 45.5 203.734339 Z M 88.278083 203.734339 L 88.278083 209.845495 C 88.278083 211.055502 89.107367 212.027177 90.140153 212.027177 L 123.082944 212.027177 C 124.115729 212.027177 124.946847 211.055502 124.946847 209.845495 L 124.946847 203.734339 C 124.946847 204.944349 124.115729 205.916021 123.082944 205.916021 L 90.141986 205.916021 C 89.109201 205.916021 88.279917 204.944349 88.279917 203.734339 L 88.278083 203.734339 Z M 131.056166 203.734339 L 131.056166 209.845495 C 131.056166 211.055502 131.887284 212.027177 132.920069 212.027177 L 165.86286 212.027177 C 166.889535 212.027177 167.720652 211.055502 167.720652 209.845495 L 167.720652 203.734339 C 167.720652 204.944349 166.889535 205.916021 165.856749 205.916021 L 132.913958 205.916021 C 131.887284 205.916021 131.056166 204.944349 131.056166 203.734339 Z M 173.834249 203.734339 L 173.834249 209.845495 C 173.834249 211.055502 174.665367 212.027177 175.698152 212.027177 L 208.640943 212.027177 C 209.667618 212.027177 210.498735 211.055502 210.498735 209.845495 L 210.498735 203.734339 C 210.498735 204.944349 209.667618 205.916021 208.634832 205.916021 L 175.692041 205.916021 C 174.665367 205.916021 173.834249 204.944349 173.834249 203.734339 Z"/>
  </g>
  <g>
   <defs>
    <linearGradient id="_lgradient_20" x1=".5" x2=".5" y1="1" y2="0">
     <stop offset="0%" style="stop-color:#037164"/>
     <stop offset="100%" style="stop-color:#00ac98"/>
    </linearGradient>
   </defs>
   <path d="M 47.365055 43.972823 L 80.303709 43.972823 C 81.33241 43.972823 82.167584 44.807998 82.167584 45.836699 L 82.167584 78.775352 C 82.167584 79.804053 81.33241 80.639228 80.303709 80.639228 L 47.365055 80.639228 C 46.336354 80.639228 45.50118 79.804053 45.50118 78.775352 L 45.50118 45.836699 C 45.50118 44.807998 46.336354 43.972823 47.365055 43.972823 Z" style="fill:url(#_lgradient_20)"/>
   <defs>
    <linearGradient id="_lgradient_21" x1="0" x2="0" y1="0" y2="1">
     <stop offset="0%" style="stop-color:#e0e5e7"/>
     <stop offset="100%" style="stop-color:#c7ced2"/>
    </linearGradient>
   </defs>
   <path d="M 90.142527 43.972823 L 123.081181 43.972823 C 124.109882 43.972823 124.945056 44.807998 124.945056 45.836699 L 124.945056 78.775352 C 124.945056 79.804053 124.109882 80.639228 123.081181 80.639228 L 90.142527 80.639228 C 89.113826 80.639228 88.278652 79.804053 88.278652 78.775352 L 88.278652 45.836699 C 88.278652 44.807998 89.113826 43.972823 90.142527 43.972823 Z" style="fill:url(#_lgradient_21)"/>
   <defs>
    <linearGradient id="_lgradient_22" x1="0" x2="0" y1="0" y2="1">
     <stop offset="0%" style="stop-color:#ff7b57"/>
     <stop offset="50%" style="stop-color:#ff5151"/>
     <stop offset="100%" style="stop-color:#f50f0f"/>
    </linearGradient>
   </defs>
   <path d="M 132.919999 43.972823 L 165.858653 43.972823 C 166.887353 43.972823 167.722528 44.807998 167.722528 45.836699 L 167.722528 78.775352 C 167.722528 79.804053 166.887353 80.639228 165.858653 80.639228 L 132.919999 80.639228 C 131.891298 80.639228 131.056124 79.804053 131.056124 78.775352 L 131.056124 45.836699 C 131.056124 44.807998 131.891298 43.972823 132.919999 43.972823 Z" style="fill:url(#_lgradient_22)"/>
   <defs>
    <linearGradient id="_lgradient_23" x1="0" x2="0" y1="0" y2="1">
     <stop offset="0%" style="stop-color:#e0e5e7"/>
     <stop offset="100%" style="stop-color:#c7ced2"/>
    </linearGradient>
   </defs>
   <path d="M 175.697471 43.972823 L 208.636124 43.972823 C 209.664825 43.972823 210.5 44.807998 210.5 45.836699 L 210.5 78.775352 C 210.5 79.804053 209.664825 80.639228 208.636124 80.639228 L 175.697471 80.639228 C 174.66877 80.639228 173.833595 79.804053 173.833595 78.775352 L 173.833595 45.836699 C 173.833595 44.807998 174.66877 43.972823 175.697471 43.972823 Z" style="fill:url(#_lgradient_23)"/>
   <defs>
    <linearGradient id="_lgradient_24" x1="0" x2="0" y1="0" y2="1">
     <stop offset="0%" style="stop-color:#e0e5e7"/>
     <stop offset="100%" style="stop-color:#c7ced2"/>
    </linearGradient>
   </defs>
   <path d="M 47.365055 86.750295 L 80.303709 86.750295 C 81.33241 86.750295 82.167584 87.58547 82.167584 88.61417 L 82.167584 121.552824 C 82.167584 122.581525 81.33241 123.416699 80.303709 123.416699 L 47.365055 123.416699 C 46.336354 123.416699 45.50118 122.581525 45.50118 121.552824 L 45.50118 88.61417 C 45.50118 87.58547 46.336354 86.750295 47.365055 86.750295 Z" style="fill:url(#_lgradient_24)"/>
   <defs>
    <linearGradient id="_lgradient_25" x1="0" x2="0" y1="0" y2="1">
     <stop offset="0%" style="stop-color:#e0e5e7"/>
     <stop offset="100%" style="stop-color:#c7ced2"/>
    </linearGradient>
   </defs>
   <path d="M 90.142527 86.750295 L 123.081181 86.750295 C 124.109882 86.750295 124.945056 87.58547 124.945056 88.61417 L 124.945056 121.552824 C 124.945056 122.581525 124.109882 123.416699 123.081181 123.416699 L 90.142527 123.416699 C 89.113826 123.416699 88.278652 122.581525 88.278652 121.552824 L 88.278652 88.61417 C 88.278652 87.58547 89.113826 86.750295 90.142527 86.750295 Z" style="fill:url(#_lgradient_25)"/>
   <defs>
    <linearGradient id="_lgradient_26" x1="0" x2="0" y1="0" y2="1">
     <stop offset="0%" style="stop-color:#ff7b57"/>
     <stop offset="50%" style="stop-color:#ff5151"/>
     <stop offset="100%" style="stop-color:#f50f0f"/>
    </linearGradient>
   </defs>
   <path d="M 132.919999 86.750295 L 165.858653 86.750295 C 166.887353 86.750295 167.722528 87.58547 167.722528 88.61417 L 167.722528 121.552824 C 167.722528 122.581525 166.887353 123.416699 165.858653 123.416699 L 132.919999 123.416699 C 131.891298 123.416699 131.056124 122.581525 131.056124 121.552824 L 131.056124 88.61417 C 131.056124 87.58547 131.891298 86.750295 132.919999 86.750295 Z" style="fill:url(#_lgradient_26)"/>
   <defs>
    <linearGradient id="_lgradient_27" x1="0" x2="0" y1="0" y2="1">
     <stop offset="0%" style="stop-color:#e0e5e7"/>
     <stop offset="100%" style="stop-color:#c7ced2"/>
    </linearGradient>
   </defs>
   <path d="M 175.697471 86.750295 L 208.636124 86.750295 C 209.664825 86.750295 210.5 87.58547 210.5 88.61417 L 210.5 121.552824 C 210.5 122.581525 209.664825 123.416699 208.636124 123.416699 L 175.697471 123.416699 C 174.66877 123.416699 173.833595 122.581525 173.833595 121.552824 L 173.833595 88.61417 C 173.833595 87.58547 174.66877 86.750295 175.697471 86.750295 Z" style="fill:url(#_lgradient_27)"/>
   <defs>
    <linearGradient id="_lgradient_28" x1="0" x2="0" y1="0" y2="1">
     <stop offset="0%" style="stop-color:#e0e5e7"/>
     <stop offset="100%" style="stop-color:#c7ced2"/>
    </linearGradient>
   </defs>
   <path d="M 47.365055 129.527767 L 80.303709 129.527767 C 81.33241 129.527767 82.167584 130.362941 82.167584 131.391642 L 82.167584 164.330296 C 82.167584 165.358997 81.33241 166.194171 80.303709 166.194171 L 47.365055 166.194171 C 46.336354 166.194171 45.50118 165.358997 45.50118 164.330296 L 45.50118 131.391642 C 45.50118 130.362941 46.336354 129.527767 47.365055 129.527767 Z" style="fill:url(#_lgradient_28)"/>
   <defs>
    <linearGradient id="_lgradient_29" x1=".5" x2=".5" y1="1" y2="0">
     <stop offset="0%" style="stop-color:#037164"/>
     <stop offset="100%" style="stop-color:#00ac98"/>
    </linearGradient>
   </defs>
   <path d="M 90.142527 129.527767 L 123.081181 129.527767 C 124.109882 129.527767 124.945056 130.362941 124.945056 131.391642 L 124.945056 164.330296 C 124.945056 165.358997 124.109882 166.194171 123.081181 166.194171 L 90.142527 166.194171 C 89.113826 166.194171 88.278652 165.358997 88.278652 164.330296 L 88.278652 131.391642 C 88.278652 130.362941 89.113826 129.527767 90.142527 129.527767 Z" style="fill:url(#_lgradient_29)"/>
   <defs>
    <linearGradient id="_lgradient_30" x1="0" x2="0" y1="0" y2="1">
     <stop offset="0%" style="stop-color:#e0e5e7"/>
     <stop offset="100%" style="stop-color:#c7ced2"/>
    </linearGradient>
   </defs>
   <path d="M 132.919999 129.527767 L 165.858653 129.527767 C 166.887353 129.527767 167.722528 130.362941 167.722528 131.391642 L 167.722528 164.330296 C 167.722528 165.358997 166.887353 166.194171 165.858653 166.194171 L 132.919999 166.194171 C 131.891298 166.194171 131.056124 165.358997 131.056124 164.330296 L 131.056124 131.391642 C 131.056124 130.362941 131.891298 129.527767 132.919999 129.527767 Z" style="fill:url(#_lgradient_30)"/>
   <defs>
    <linearGradient id="_lgradient_31" x1="0" x2="0" y1="0" y2="1">
     <stop offset="0%" style="stop-color:#57ff7b"/>
     <stop offset="50%" style="stop-color:#51ff51"/>
     <stop offset="100%" style="stop-color:#0ff50f"/>
    </linearGradient>
   </defs>
   <path d="M 175.697471 129.527767 L 208.636124 129.527767 C 209.664825 129.527767 210.5 130.362941 210.5 131.391642 L 210.5 164.330296 C 210.5 165.358997 209.664825 166.194171 208.636124 166.194171 L 175.697471 166.194171 C 174.66877 166.194171 173.833595 165.358997 173.833595 164.330296 L 173.833595 131.391642 C 173.833595 130.362941 174.66877 129.527767 175.697471 129.527767 Z" style="fill:url(#_lgradient_31)"/>
   <defs>
    <linearGradient id="_lgradient_32" x1="0" x2="0" y1="0" y2="1">
     <stop offset="0%" style="stop-color:#e0e5e7"/>
     <stop offset="100%" style="stop-color:#c7ced2"/>
    </linearGradient>
   </defs>
   <path d="M 47.365055 172.305239 L 80.303709 172.305239 C 81.33241 172.305239 82.167584 173.140413 82.167584 174.169114 L 82.167584 207.107768 C 82.167584 208.136469 81.33241 208.971643 80.303709 208.971643 L 47.365055 208.971643 C 46.336354 208.971643 45.50118 208.136469 45.50118 207.107768 L 45.50118 174.169114 C 45.50118 173.140413 46.336354 172.305239 47.365055 172.305239 Z" style="fill:url(#_lgradient_32)"/>
   <defs>
    <linearGradient id="_lgradient_33" x1="0" x2="0" y1="0" y2="1">
     <stop offset="0%" style="stop-color:#e0e5e7"/>
     <stop offset="100%" style="stop-color:#c7ced2"/>
    </linearGradient>
   </defs>
   <path d="M 90.142527 172.305239 L 123.081181 172.305239 C 124.109882 172.305239 124.945056 173.140413 124.945056 174.169114 L 124.945056 207.107768 C 124.945056 208.136469 124.109882 208.971643 123.081181 208.971643 L 90.142527 208.971643 C 89.113826 208.971643 88.278652 208.136469 88.278652 207.107768 L 88.278652 174.169114 C 88.278652 173.140413 89.113826 172.305239 90.142527 172.305239 Z" style="fill:url(#_lgradient_33)"/>
   <defs>
    <linearGradient id="_lgradient_34" x1="0" x2="0" y1="0" y2="1">
     <stop offset="0%" style="stop-color:#e0e5e7"/>
     <stop offset="100%" style="stop-color:#c7ced2"/>
    </linearGradient>
   </defs>
   <path d="M 132.919999 172.305239 L 165.858653 172.305239 C 166.887353 172.305239 167.722528 173.140413 167.722528 174.169114 L 167.722528 207.107768 C 167.722528 208.136469 166.887353 208.971643 165.858653 208.971643 L 132.919999 208.971643 C 131.891298 208.971643 131.056124 208.136469 131.056124 207.107768 L 131.056124 174.169114 C 131.056124 173.140413 131.891298 172.305239 132.919999 172.305239 Z" style="fill:url(#_lgradient_34)"/>
   <defs>
    <linearGradient id="_lgradient_35" x1="0" x2="0" y1="0" y2="1">
     <stop offset="0%" style="stop-color:#e0e5e7"/>
     <stop offset="100%" style="stop-color:#c7ced2"/>
    </linearGradient>
   </defs>
   <path d="M 175.697471 172.305239 L 208.636124 172.305239 C 209.664825 172.305239 210.5 173.140413 210.5 174.169114 L 210.5 207.107768 C 210.5 208.136469 209.664825 208.971643 208.636124 208.971643 L 175.697471 208.971643 C 174.66877 208.971643 173.833595 208.136469 173.833595 207.107768 L 173.833595 174.169114 C 173.833595 173.140413 174.66877 172.305239 175.697471 172.305239 Z" style="fill:url(#_lgradient_35)"/>
  </g>
  <g>
   <g opacity=".1">
    <path fill="#ffffff" d="M 47.363146 43.972823 C 46.330361 43.972823 45.50118 44.945821 45.50118 46.157052 L 45.50118 49.212586 C 45.50118 48.001355 46.330361 47.028357 47.363146 47.028357 L 80.305618 47.028357 C 81.338404 47.028357 82.167584 48.001355 82.167584 49.212586 L 82.167584 46.157052 C 82.167584 44.945822 81.338404 43.972823 80.305618 43.972823 L 47.363146 43.972823 Z"/>
   </g>
   <g opacity=".2">
    <path fill="#ffffff" d="M 90.140618 43.972823 C 89.107832 43.972823 88.278652 44.945821 88.278652 46.157052 L 88.278652 49.212586 C 88.278652 48.001355 89.107832 47.028357 90.140618 47.028357 L 123.08309 47.028357 C 124.115876 47.028357 124.945056 48.001355 124.945056 49.212586 L 124.945056 46.157052 C 124.945056 44.945822 124.115876 43.972823 123.08309 43.972823 L 90.140618 43.972823 Z"/>
   </g>
   <g opacity=".2">
    <path fill="#ffffff" d="M 132.912122 43.972823 C 131.882141 43.976615 131.056124 44.948188 131.056124 46.157052 L 131.056124 49.212586 C 131.056124 48.003722 131.882141 47.032148 132.912122 47.028357 L 132.918089 47.028357 L 165.854595 47.028357 C 166.88738 47.028357 167.722528 48.001355 167.722528 49.212586 L 167.722528 46.157052 C 167.722528 44.945822 166.88738 43.972823 165.854595 43.972823 L 132.918089 43.972823 L 132.912122 43.972823 Z"/>
   </g>
   <g opacity=".2">
    <path fill="#ffffff" d="M 175.689594 43.972823 C 174.659613 43.976615 173.833595 44.948188 173.833595 46.157052 L 173.833595 49.212586 C 173.833595 48.003722 174.659613 47.032148 175.689594 47.028357 L 175.695561 47.028357 L 208.632067 47.028357 C 209.664852 47.028357 210.5 48.001355 210.5 49.212586 L 210.5 46.157052 C 210.5 44.945822 209.664852 43.972823 208.632067 43.972823 L 175.695561 43.972823 L 175.689594 43.972823 Z"/>
   </g>
   <g opacity=".2">
    <path fill="#ffffff" d="M 47.363146 86.750295 C 46.330361 86.750295 45.50118 87.724515 45.50118 88.934525 L 45.50118 91.990059 C 45.50118 90.780049 46.330361 89.805829 47.363146 89.805829 L 80.305618 89.805829 C 81.338404 89.805829 82.167584 90.780049 82.167584 91.990059 L 82.167584 88.934525 C 82.167584 87.724515 81.338404 86.750295 80.305618 86.750295 L 47.363146 86.750295 Z"/>
   </g>
   <g opacity=".2">
    <path fill="#ffffff" d="M 90.140618 86.750295 C 89.107832 86.750295 88.278652 87.724515 88.278652 88.934525 L 88.278652 91.990059 C 88.278652 90.780049 89.107832 89.805829 90.140618 89.805829 L 123.08309 89.805829 C 124.115876 89.805829 124.945056 90.780049 124.945056 91.990059 L 124.945056 88.934525 C 124.945056 87.724515 124.115876 86.750295 123.08309 86.750295 L 90.140618 86.750295 Z"/>
   </g>
   <g opacity=".2">
    <path fill="#ffffff" d="M 132.912122 86.750295 C 131.882141 86.754081 131.056124 87.726877 131.056124 88.934525 L 131.056124 91.990059 C 131.056124 90.782411 131.882141 89.809614 132.912122 89.805829 L 132.918089 89.805829 L 165.854595 89.805829 C 166.88738 89.805829 167.722528 90.780049 167.722528 91.990059 L 167.722528 88.934525 C 167.722528 87.724515 166.88738 86.750295 165.854595 86.750295 L 132.918089 86.750295 L 132.912122 86.750295 Z"/>
   </g>
   <g opacity=".2">
    <path fill="#ffffff" d="M 175.689594 86.750295 C 174.659613 86.754081 173.833595 87.726877 173.833595 88.934525 L 173.833595 91.990059 C 173.833595 90.782411 174.659613 89.809614 175.689594 89.805829 L 175.695561 89.805829 L 208.632067 89.805829 C 209.664852 89.805829 210.5 90.780049 210.5 91.990059 L 210.5 88.934525 C 210.5 87.724515 209.664852 86.750295 208.632067 86.750295 L 175.695561 86.750295 L 175.689594 86.750295 Z"/>
   </g>
   <g opacity=".2">
    <path fill="#ffffff" d="M 47.363146 129.527767 C 46.330361 129.527767 45.50118 130.501987 45.50118 131.711997 L 45.50118 134.767531 C 45.50118 133.557521 46.330361 132.583301 47.363146 132.583301 L 80.305618 132.583301 C 81.338404 132.583301 82.167584 133.557521 82.167584 134.767531 L 82.167584 131.711997 C 82.167584 130.501987 81.338404 129.527767 80.305618 129.527767 L 47.363146 129.527767 Z"/>
   </g>
   <g opacity=".1">
    <path fill="#ffffff" d="M 90.140618 129.527767 C 89.107832 129.527767 88.278652 130.501987 88.278652 131.711997 L 88.278652 134.767531 C 88.278652 133.557521 89.107832 132.583301 90.140618 132.583301 L 123.08309 132.583301 C 124.115876 132.583301 124.945056 133.557521 124.945056 134.767531 L 124.945056 131.711997 C 124.945056 130.501987 124.115876 129.527767 123.08309 129.527767 L 90.140618 129.527767 Z"/>
   </g>
   <g opacity=".2">
    <path fill="#ffffff" d="M 132.912122 129.527767 C 131.882141 129.531553 131.056124 130.504349 131.056124 131.711997 L 131.056124 134.767531 C 131.056124 133.559883 131.882141 132.587086 132.912122 132.583301 L 132.918089 132.583301 L 165.854595 132.583301 C 166.88738 132.583301 167.722528 133.557521 167.722528 134.767531 L 167.722528 131.711997 C 167.722528 130.501987 166.88738 129.527767 165.854595 129.527767 L 132.918089 129.527767 L 132.912122 129.527767 Z"/>
   </g>
   <g opacity=".2">
    <path fill="#ffffff" d="M 175.689594 129.527767 C 174.659613 129.531553 173.833595 130.504349 173.833595 131.711997 L 173.833595 134.767531 C 173.833595 133.559883 174.659613 132.587086 175.689594 132.583301 L 175.695561 132.583301 L 208.632067 132.583301 C 209.664852 132.583301 210.5 133.557521 210.5 134.767531 L 210.5 131.711997 C 210.5 130.501987 209.664852 129.527767 208.632067 129.527767 L 175.695561 129.527767 L 175.689594 129.527767 Z"/>
   </g>
   <g opacity=".2">
    <path fill="#ffffff" d="M 47.363146 172.305239 C 46.330361 172.305239 45.50118 173.279459 45.50118 174.489469 L 45.50118 177.545002 C 45.50118 176.334993 46.330361 175.360772 47.363146 175.360772 L 80.305618 175.360772 C 81.338404 175.360772 82.167584 176.334993 82.167584 177.545002 L 82.167584 174.489469 C 82.167584 173.279459 81.338404 172.305239 80.305618 172.305239 L 47.363146 172.305239 Z"/>
   </g>
   <g opacity=".2">
    <path fill="#ffffff" d="M 90.140618 172.305239 C 89.107832 172.305239 88.278652 173.279459 88.278652 174.489469 L 88.278652 177.545002 C 88.278652 176.334993 89.107832 175.360772 90.140618 175.360772 L 123.08309 175.360772 C 124.115876 175.360772 124.945056 176.334993 124.945056 177.545002 L 124.945056 174.489469 C 124.945056 173.279459 124.115876 172.305239 123.08309 172.305239 L 90.140618 172.305239 Z"/>
   </g>
   <g opacity=".2">
    <path fill="#ffffff" d="M 132.912122 172.305239 C 131.882141 172.309025 131.056124 173.281821 131.056124 174.489469 L 131.056124 177.545002 C 131.056124 176.337355 131.882141 175.364558 132.912122 175.360772 L 132.918089 175.360772 L 165.854595 175.360772 C 166.88738 175.360772 167.722528 176.334993 167.722528 177.545002 L 167.722528 174.489469 C 167.722528 173.279459 166.88738 172.305239 165.854595 172.305239 L 132.918089 172.305239 L 132.912122 172.305239 Z"/>
   </g>
   <g opacity=".2">
    <path fill="#ffffff" d="M 175.689594 172.305239 C 174.659613 172.309025 173.833595 173.281821 173.833595 174.489469 L 173.833595 177.545002 C 173.833595 176.337355 174.659613 175.364558 175.689594 175.360772 L 175.695561 175.360772 L 208.632067 175.360772 C 209.664852 175.360772 210.5 176.334993 210.5 177.545002 L 210.5 174.489469 C 210.5 173.279459 209.664852 172.305239 208.632067 172.305239 L 175.695561 172.305239 L 175.689594 172.305239 Z"/>
   </g>
  </g>
 </g>
</svg>
