<svg xmlns="http://www.w3.org/2000/svg" style="isolation:isolate" width="256" height="256" viewBox="0 0 256 256">
 <defs>
  <filter id="MUruJx74rRNKpf9hrrhqKHa43a2YJRQ6" width="400%" height="400%" x="-200%" y="-200%" color-interpolation-filters="sRGB" filterUnits="objectBoundingBox">
   <feGaussianBlur xmlns="http://www.w3.org/2000/svg" in="SourceGraphic" stdDeviation="4.294"/>
   <feOffset xmlns="http://www.w3.org/2000/svg" dx="0" dy="4" result="pf_100_offsetBlur"/>
   <feFlood xmlns="http://www.w3.org/2000/svg" flood-opacity=".4"/>
   <feComposite xmlns="http://www.w3.org/2000/svg" in2="pf_100_offsetBlur" operator="in" result="pf_100_dropShadow"/>
   <feBlend xmlns="http://www.w3.org/2000/svg" in="SourceGraphic" in2="pf_100_dropShadow" mode="normal"/>
  </filter>
 </defs>
 <g filter="url(#MUruJx74rRNKpf9hrrhqKHa43a2YJRQ6)">
  <linearGradient id="_lgradient_133" x1="0" x2="0" y1="0" y2="1" gradientTransform="matrix(244.648309,0,0,228.338396,5.68,11.951604)" gradientUnits="userSpaceOnUse">
   <stop offset="0%" style="stop-color:#4c5561"/>
   <stop offset="100%" style="stop-color:#2e3842"/>
  </linearGradient>
  <path fill="url(#_lgradient_133)" d="M 165.688919 11.951604 C 239.744626 11.951604 250.328309 22.508801 250.328309 96.495462 L 250.328309 155.746257 C 250.328309 229.732514 239.744626 240.29 165.688919 240.29 L 90.319393 240.29 C 16.26369 240.29 5.68 229.732514 5.68 155.746257 L 5.68 96.495462 C 5.68 22.508801 16.26369 11.951604 90.319393 11.951604 L 165.688919 11.951604 Z"/>
 </g>
 <g opacity=".4">
  <linearGradient id="_lgradient_134" x1=".517" x2=".517" y1="0" y2="1" gradientTransform="matrix(244.65,0,0,228.34,5.68,11.95)" gradientUnits="userSpaceOnUse">
   <stop offset="0%" style="stop-color:#ffffff"/>
   <stop offset="12.5%" stop-opacity=".098" style="stop-color:#ffffff"/>
   <stop offset="92.5%" stop-opacity=".098" style="stop-color:#000000"/>
   <stop offset="100%" stop-opacity=".498" style="stop-color:#000000"/>
  </linearGradient>
  <path fill="url(#_lgradient_134)" fill-rule="evenodd" d="M 165.06803 11.951234 C 169.395994 11.941409 173.723944 11.990533 178.051908 12.088781 C 181.927398 12.167379 185.802873 12.31475 189.678362 12.540721 C 193.1309 12.737216 196.583423 13.022134 200.026115 13.395476 C 203.085193 13.729518 206.144271 14.181458 209.173842 14.741469 C 211.888645 15.242533 214.57394 15.881143 217.219897 16.6573 C 219.619947 17.354858 221.970814 18.219439 224.242988 19.241215 C 226.357793 20.184394 228.384061 21.304417 230.302129 22.591462 C 232.141505 23.829383 233.862851 25.244151 235.436659 26.80629 C 237.000621 28.378252 238.417046 30.087764 239.656409 31.924995 C 240.944972 33.840824 242.066305 35.864728 243.020409 37.967229 C 244.043389 40.246576 244.908985 42.584873 245.617197 44.972292 C 246.394255 47.615155 247.033606 50.297317 247.535265 53.008956 C 248.095924 56.034984 248.548399 59.080665 248.882828 62.13617 C 249.256611 65.574836 249.541856 69.013506 249.738578 72.462003 C 249.964823 76.323139 250.112361 80.194101 250.200884 84.055237 C 250.289421 88.378131 250.338591 92.701032 250.32876 97.014106 L 250.32876 155.225886 C 250.338591 159.54878 250.289421 163.861854 250.200884 168.184747 C 250.112361 172.05571 249.964823 175.916853 249.738578 179.777981 C 249.541856 183.226485 249.256611 186.674975 248.882828 190.103826 C 248.548399 193.15933 248.095924 196.214835 247.535265 199.240851 C 247.033606 201.942664 246.394255 204.624837 245.617197 207.267703 C 244.908985 209.655115 244.043389 212.003235 243.020409 214.272755 C 242.066305 216.38509 240.944972 218.399156 239.656409 220.314999 C 238.417046 222.152226 237.000621 223.871561 235.436659 225.433697 C 233.862851 226.995832 232.141505 228.410601 230.302129 229.648532 C 228.384061 230.935575 226.357793 232.055598 224.242988 232.998768 C 221.970814 234.020552 219.619947 234.885137 217.219897 235.592507 C 214.57394 236.368672 211.888645 237.007276 209.173842 237.498515 C 206.144271 238.068354 203.085193 238.510465 200.026115 238.844519 C 196.583423 239.21785 193.1309 239.502777 189.678362 239.699269 C 185.802873 239.925235 181.927398 240.072615 178.051908 240.161035 C 173.723944 240.249454 169.395994 240.298581 165.06803 240.288762 L 90.941963 240.288762 C 86.614006 240.298581 82.286049 240.249454 77.9581 240.161035 C 74.08261 240.072615 70.20712 239.925235 66.331638 239.699269 C 62.879108 239.502777 59.426578 239.21785 55.983886 238.844519 C 52.924808 238.510465 49.865733 238.068354 46.836162 237.498515 C 44.121356 237.007276 41.436057 236.368672 38.7901 235.592507 C 36.390053 234.885137 34.039187 234.020552 31.767009 232.998768 C 29.652213 232.055598 27.625943 230.935575 25.707871 229.648532 C 23.868489 228.410601 22.147143 226.995832 20.573343 225.433697 C 19.009377 223.871561 17.592955 222.152226 16.353586 220.314999 C 15.065036 218.399156 13.943701 216.38509 12.989584 214.272755 C 11.966612 212.003235 11.101021 209.655115 10.392811 207.267703 C 9.615746 204.624837 8.976389 201.942664 8.47474 199.240851 C 7.914072 196.214835 7.461604 193.15933 7.127172 190.103826 C 6.753394 186.674975 6.468142 183.226485 6.271417 179.777981 C 6.045183 175.916853 5.897639 172.05571 5.809112 168.184747 C 5.720586 163.861854 5.671405 159.54878 5.681241 155.225886 L 5.681241 97.014106 C 5.671405 92.701032 5.720586 88.378131 5.809112 84.055237 C 5.897639 80.194101 6.045183 76.323139 6.271417 72.462003 C 6.468142 69.013506 6.753394 65.574836 7.127172 62.13617 C 7.461604 59.080665 7.914072 56.034984 8.47474 53.008956 C 8.976389 50.297317 9.615746 47.615155 10.392811 44.972292 C 11.101021 42.584873 11.966612 40.246576 12.989584 37.967229 C 13.943701 35.864728 15.065036 33.840824 16.353586 31.924995 C 17.592955 30.087764 19.009377 28.378252 20.573343 26.80629 C 22.147143 25.244151 23.868489 23.829383 25.707871 22.591462 C 27.625943 21.304417 29.652213 20.184394 31.767009 19.241215 C 34.039187 18.219439 36.390053 17.354858 38.7901 16.6573 C 41.436057 15.881143 44.121356 15.242533 46.836162 14.741469 C 49.865733 14.181458 52.924808 13.729518 55.983886 13.395476 C 59.426578 13.022134 62.879108 12.737216 66.331638 12.540721 C 70.20712 12.31475 74.08261 12.167379 77.9581 12.088781 C 82.286049 11.990533 86.614006 11.941409 90.941963 11.951234 L 165.06803 11.951234 Z M 165.077876 15.959741 C 169.376317 15.949916 173.674759 15.99904 177.973216 16.087463 C 181.799522 16.175886 185.625827 16.323257 189.452133 16.539402 C 192.835809 16.735898 196.219486 17.010992 199.583486 17.384332 C 202.554026 17.698726 205.514751 18.131016 208.445953 18.681203 C 211.023049 19.152792 213.580483 19.761928 216.098564 20.498786 C 218.321569 21.147221 220.495374 21.952852 222.600334 22.896029 C 224.508571 23.750785 226.338116 24.762737 228.069293 25.922059 C 229.692286 27.012609 231.207063 28.260355 232.59398 29.645648 C 233.980897 31.030941 235.230091 32.543956 236.331763 34.165043 C 237.492434 35.894202 238.505568 37.711787 239.361333 39.607968 C 240.305606 41.720292 241.112187 43.891565 241.761369 46.102139 C 242.508934 48.617282 243.108947 51.161898 243.590914 53.735987 C 244.131912 56.663768 244.564709 59.6112 244.889308 62.578282 C 245.263091 65.938355 245.538505 69.308252 245.735227 72.687976 C 245.951626 76.509812 246.10901 80.321821 246.187687 84.143656 C 246.276225 88.437084 246.325394 92.720685 246.325394 97.014106 C 246.325394 97.014106 246.325394 97.014106 246.325394 97.014106 L 246.325394 155.225886 C 246.325394 155.225886 246.325394 155.225886 246.325394 155.225886 C 246.325394 159.519306 246.276225 163.802907 246.187687 168.096328 C 246.10901 171.918164 245.951626 175.739999 245.735227 179.552015 C 245.538505 182.931739 245.263091 186.301629 244.889308 189.671533 C 244.564709 192.628784 244.131912 195.576216 243.590914 198.503994 C 243.108947 201.078094 242.508934 203.622706 241.761369 206.137845 C 241.112187 208.358253 240.305606 210.5197 239.361333 212.63202 C 238.505568 214.528209 237.492434 216.355617 236.331763 218.074952 C 235.230091 219.705853 233.980897 221.218876 232.59398 222.604172 C 231.207063 223.979634 229.692286 225.227385 228.069293 226.317935 C 226.338116 227.477251 224.508571 228.489201 222.600334 229.343951 C 220.495374 230.296956 218.321569 231.092775 216.098564 231.741198 C 213.580483 232.478056 211.023049 233.087202 208.445953 233.558787 C 205.514751 234.108972 202.554026 234.541264 199.583486 234.865483 C 196.219486 235.228995 192.835809 235.513922 189.452133 235.70058 C 185.625827 235.916726 181.799522 236.073926 177.973216 236.152526 C 173.674759 236.25078 169.376317 236.290072 165.077876 236.290072 C 165.077876 236.290072 165.077876 236.290072 165.06803 236.290072 L 90.941963 236.290072 C 90.932125 236.290072 90.932125 236.290072 90.932125 236.290072 C 86.633683 236.290072 82.335234 236.25078 78.036784 236.152526 C 74.210479 236.073926 70.384173 235.916726 66.557868 235.70058 C 63.174195 235.513922 59.790522 235.228995 56.426518 234.865483 C 53.455967 234.541264 50.495253 234.108972 47.564048 233.558787 C 44.986944 233.087202 42.429517 232.478056 39.911433 231.741198 C 37.688439 231.092775 35.514626 230.296956 33.409665 229.343951 C 31.501429 228.489201 29.671886 227.477251 27.940703 226.317935 C 26.31772 225.227385 24.802935 223.979634 23.416022 222.604172 C 22.029109 221.218876 20.779904 219.705853 19.678243 218.074952 C 18.517564 216.355617 17.504428 214.528209 16.648674 212.63202 C 15.704392 210.5197 14.897819 208.358253 14.248626 206.137845 C 13.50107 203.622706 12.901057 201.078094 12.419081 198.503994 C 11.878086 195.576216 11.445291 192.628784 11.120694 189.671533 C 10.746916 186.301629 10.471501 182.931739 10.274776 179.552015 C 10.058378 175.739999 9.900997 171.918164 9.822307 168.096328 C 9.733781 163.802907 9.6846 159.519306 9.6846 155.225886 C 9.6846 155.225886 9.6846 155.225886 9.6846 155.225886 L 9.6846 97.014106 C 9.6846 97.014106 9.6846 97.014106 9.6846 97.014106 C 9.6846 92.720685 9.733781 88.437084 9.822307 84.143656 C 9.900997 80.321821 10.058378 76.509812 10.274776 72.687976 C 10.471501 69.308252 10.746916 65.938355 11.120694 62.578282 C 11.445291 59.6112 11.878086 56.663768 12.419081 53.735987 C 12.901057 51.161898 13.50107 48.617282 14.248626 46.102139 C 14.897819 43.891565 15.704392 41.720292 16.648674 39.607968 C 17.504428 37.711787 18.517564 35.894202 19.678243 34.165043 C 20.779904 32.543956 22.029109 31.030941 23.416022 29.645648 C 24.802935 28.260355 26.31772 27.012609 27.940703 25.922059 C 29.671886 24.762737 31.501429 23.750785 33.409665 22.896029 C 35.514626 21.952852 37.688439 21.147221 39.911433 20.498786 C 42.429517 19.761928 44.986944 19.152792 47.564048 18.681203 C 50.495253 18.131016 53.455967 17.698726 56.426518 17.384332 C 59.790522 17.010992 63.174195 16.735898 66.557868 16.539402 C 70.384173 16.323257 74.210479 16.175886 78.036784 16.087463 C 82.335234 15.99904 86.633683 15.949916 90.932125 15.959741 C 90.932125 15.959741 90.932125 15.959741 90.941963 15.959741 L 165.06803 15.959741 C 165.077876 15.959741 165.077876 15.959741 165.077876 15.959741 Z"/>
 </g>
 <g>
  <defs>
   <filter id="LAbPh9QCtyBWIwaVfHBtoQjrfoZN63Mn" width="400%" height="400%" x="-200%" y="-200%" color-interpolation-filters="sRGB" filterUnits="objectBoundingBox">
    <feGaussianBlur xmlns="http://www.w3.org/2000/svg" stdDeviation="4.294"/>
   </filter>
  </defs>
  <g opacity=".4" filter="url(#LAbPh9QCtyBWIwaVfHBtoQjrfoZN63Mn)">
   <path d="M 128.433603 48.400131 C 125.06531 48.318315 121.739569 49.168951 118.820746 50.858842 L 64.810231 82.169212 C 59.130146 85.461645 55.631164 91.54695 55.63158 98.132394 L 55.63158 160.757189 C 55.631575 167.341887 59.130151 173.426401 64.809426 176.718751 L 118.819941 208.03074 C 124.499213 211.323087 131.496364 211.323087 137.175636 208.03074 L 191.186151 176.718751 C 196.866236 173.426317 200.365218 167.341012 200.364803 160.755568 L 200.364803 98.130773 C 200.365218 91.545329 196.866236 85.460024 191.186151 82.167591 L 137.175636 50.857221 C 134.511912 49.315209 131.505088 48.469768 128.431191 48.39851 L 128.433603 48.400131 Z"/>
  </g>
  <path fill="#5d5d5d" d="M 128.433603 45.505392 C 125.06531 45.423576 121.739569 46.274211 118.820746 47.964103 L 64.810231 79.274472 C 59.130146 82.566906 55.631164 88.652211 55.63158 95.237655 L 55.63158 157.862449 C 55.631575 164.447148 59.130151 170.531662 64.809426 173.824011 L 118.819941 205.136 C 124.499213 208.428347 131.496364 208.428347 137.175636 205.136 L 191.186151 173.824011 C 196.866236 170.531578 200.365218 164.446273 200.364803 157.860828 L 200.364803 95.236034 C 200.365218 88.650589 196.866236 82.565284 191.186151 79.272851 L 137.175636 47.962482 C 134.511912 46.42047 131.505088 45.575029 128.431191 45.503771 L 128.433603 45.505392 Z"/>
  <g opacity=".3">
   <path d="M 66.375076 82.40581 L 66.375076 82.40581 C 61.822234 85.053377 57.056894 86.402414 56.017554 91.581107 L 119.959735 127.405438 L 119.959735 136.5871 L 128.000602 130.60319 L 123.980169 120.036356 L 128.000602 122.497994 L 121.489931 111.037172 L 119.53559 107.787034 L 69.637711 81.456519 L 65.056304 81.315111 C 64.222796 81.488911 67.596108 82.053949 66.375076 82.405825 L 66.375076 82.40581 Z"/>
  </g>
  <g opacity=".1">
   <path fill="#ffffff" d="M 128.429689 45.505653 C 125.061813 45.424309 121.736596 46.275173 118.818257 47.965049 L 64.807669 79.275699 C 59.129357 82.56833 55.631544 88.652327 55.631579 95.236329 L 55.631579 98.131066 C 55.631544 91.547064 59.129357 85.463067 64.807669 82.170436 L 118.818257 50.859786 C 121.736596 49.16991 125.061813 48.319046 128.429689 48.40039 L 128.435342 48.40039 C 131.50804 48.472476 134.513523 49.318132 137.17609 50.859786 L 191.186678 82.164783 C 196.866732 85.458424 200.364815 91.545045 200.362768 98.131066 L 200.362768 95.236329 C 200.364815 88.650308 196.866732 82.563687 191.186678 79.270046 L 137.17609 47.965049 C 134.513523 46.423395 131.50804 45.577739 128.435342 45.505653 L 128.429689 45.505653 Z"/>
  </g>
  <path fill="#ffffff" d="M 77.609398 90.864417 C 78.960716 94.565067 79.161223 98.519361 78.166809 101.8574 C 77.172395 105.195439 75.064517 107.643788 72.306885 108.663839 C 69.549253 109.683889 66.367757 109.192084 63.46229 107.296615 C 60.556823 105.401145 58.165386 102.257278 56.814067 98.556628 C 55.462749 94.855979 55.262242 90.901685 56.256656 87.563646 C 57.25107 84.225607 59.358947 81.777257 62.11658 80.757207 C 64.874212 79.737156 68.055708 80.228961 70.961175 82.124431 C 73.866642 84.0199 76.258079 87.163767 77.609398 90.864417 Z"/>
  <path fill="#ffffff" d="M 101.609399 103.864418 C 102.960717 107.565068 103.161223 111.519362 102.166808 114.857398 C 101.172395 118.19544 99.064518 120.643789 96.306886 121.66384 C 93.549253 122.68389 90.367757 122.192085 87.462289 120.296613 C 84.556824 118.401147 82.165387 115.25728 80.814068 111.55663 C 79.462749 107.855979 79.262242 103.901686 80.256655 100.563644 C 81.25107 97.225608 83.358948 94.777259 86.11658 93.757208 C 88.874212 92.737158 92.055708 93.228963 94.961174 95.124429 C 97.866642 97.019901 100.25808 100.163768 101.609399 103.864418 Z"/>
  <path fill="#ffffff" d="M 126.818715 116.917048 C 129.632691 124.623251 127.258675 132.592323 121.516204 134.716469 C 118.758572 135.736521 115.577075 135.244716 112.671608 133.349246 C 109.76614 131.453777 107.374703 128.309909 106.023384 124.609259 C 104.672065 120.908609 104.471559 116.954315 105.465973 113.616276 C 106.460387 110.278236 108.568266 107.829887 111.325898 106.809837 C 117.06837 104.685692 124.004741 109.210844 126.818715 116.917048 Z"/>
  <linearGradient id="_lgradient_135" x1="0" x2="0" y1="0" y2="1" gradientTransform="matrix(72.367816,0,0,120.414401,55.632786,87.180236)" gradientUnits="userSpaceOnUse">
   <stop offset="0%" style="stop-color:#ff7b57"/>
   <stop offset="50%" style="stop-color:#ff5151"/>
   <stop offset="100%" style="stop-color:#f50f0f"/>
  </linearGradient>
  <path fill="url(#_lgradient_135)" d="M 57.485955 87.180236 C 56.268342 89.690517 55.63467 92.445768 55.632786 95.237944 L 55.632786 157.86324 C 55.634702 164.446681 59.133728 170.529204 64.812254 173.820343 L 118.821134 205.132993 C 121.612763 206.748246 124.778645 207.597234 128.000602 207.59463 L 128.000602 126.693064 L 57.485955 87.180236 Z"/>
  <linearGradient id="_lgradient_136" x1="0" x2="0" y1="0" y2="1" gradientTransform="matrix(72.375669,0,0,120.264003,127.992752,87.330629)" gradientUnits="userSpaceOnUse">
   <stop offset="0%" style="stop-color:#ff4400"/>
   <stop offset="100%" style="stop-color:#dc1414"/>
  </linearGradient>
  <path fill="url(#_lgradient_136)" d="M 198.562366 87.330629 L 127.992752 126.867199 L 128.000567 207.59463 C 131.219863 207.595851 134.382862 206.74691 137.172185 205.132993 L 191.188953 173.820343 C 196.867479 170.529204 200.366505 164.446681 200.368421 157.86324 L 200.368421 95.237944 C 200.358768 92.500199 199.741806 89.799 198.562366 87.330629 L 198.562366 87.330629 Z"/>
  <g opacity=".1">
   <path fill="#ffffff" d="M 198.562366 87.330629 L 127.992752 126.867199 L 127.992752 151.198615 L 198.562366 111.662044 C 199.741806 114.130415 200.358768 116.831615 200.368421 119.569359 L 200.368421 95.237944 C 200.358768 92.500199 199.741806 89.799 198.562366 87.330629 L 198.562366 87.330629 Z"/>
  </g>
  <g opacity=".2">
   <path fill="#ffffff" d="M 85.16 81.4 L 84.28 77.5 L 115.72 70.39 L 127.76 53.14 L 131.04 55.43 L 118.11 73.95 L 85.16 81.4 Z"/>
  </g>
  <g opacity=".2">
   <path fill="#ffffff" d="M 146.76 63.14 L 150.13 65.3 L 137.21 85.53 L 104.86 92.66 L 104 88.76 L 134.73 81.98 L 146.76 63.14 Z"/>
  </g>
  <g opacity=".2">
   <path fill="#ffffff" d="M 164.85 74.36 L 168.17 76.6 L 155.25 95.79 L 123.28 103.25 L 122.37 99.36 L 152.81 92.25 L 164.85 74.36 Z"/>
  </g>
  <g opacity=".1">
   <path d="M 198.564864 111.660568 L 127.994347 151.197471 L 127.994347 154.092208 L 198.564864 114.555305 C 199.743777 117.024585 200.359892 119.726608 200.368421 122.464947 L 200.368421 119.57021 C 200.359892 116.831871 199.743777 114.129848 198.564864 111.660568 L 198.564864 111.660568 Z"/>
  </g>
  <g opacity=".1">
   <path d="M 57.48602 87.179689 C 56.268125 89.689541 55.634021 92.444415 55.631579 95.236329 L 55.631579 98.131066 C 55.634021 95.339151 56.268125 92.584278 57.48602 90.074425 L 128 129.588712 L 128 126.693975 L 57.48602 87.179689 Z"/>
  </g>
  <g opacity=".1">
   <path fill="#ffffff" d="M 198.564864 87.33234 L 127.994347 126.869243 L 127.994347 129.76398 L 198.564864 90.227077 C 199.742962 92.694635 200.359056 95.394635 200.368421 98.131066 L 200.368421 95.236329 C 200.359056 92.499898 199.742962 89.799898 198.564864 87.33234 L 198.564864 87.33234 Z"/>
  </g>
  <g opacity=".3">
   <path fill="#ffffff" d="M 84.578947 117.187307 L 84.578947 136.485553 L 55.726626 119.798246 L 55.726626 139.09649 L 84.578947 155.783797 L 84.578947 175.082043 L 106.810219 172.527864 L 128.095049 169.973684 L 106.810219 143.580495 L 84.578947 117.187307 Z"/>
  </g>
  <g opacity=".1">
   <path d="M 55.727693 139.098374 L 55.727693 141.993111 L 84.578947 158.677425 L 84.578947 155.782688 L 55.727693 139.098374 Z M 125.964638 170.228105 L 106.809623 172.529192 L 84.578947 175.084704 L 84.578947 177.97944 L 106.809623 175.423929 L 128.096114 172.868421 L 125.964638 170.228105 Z"/>
  </g>
  <g opacity=".2">
   <path fill="#ffffff" d="M 84.578947 117.189967 L 84.578947 120.084704 L 106.809623 146.476561 L 125.964638 170.228105 L 128.096114 169.973684 L 106.809623 143.581824 L 84.578947 117.189967 Z M 55.727693 119.796362 L 55.727693 122.691099 L 84.578947 139.381066 L 84.578947 136.486329 L 55.727693 119.796362 Z"/>
  </g>
 </g>
</svg>
