<svg xmlns="http://www.w3.org/2000/svg" style="isolation:isolate" width="256" height="256" viewBox="0 0 256 256">
 <defs>
  <filter id="0aUCgEax0GEdCFGqwgPxKsDORxXA8lbv" width="400%" height="400%" x="-200%" y="-200%" color-interpolation-filters="sRGB" filterUnits="objectBoundingBox">
   <feGaussianBlur xmlns="http://www.w3.org/2000/svg" in="SourceGraphic" stdDeviation="4.294"/>
   <feOffset xmlns="http://www.w3.org/2000/svg" dx="0" dy="4" result="pf_100_offsetBlur"/>
   <feFlood xmlns="http://www.w3.org/2000/svg" flood-opacity=".4"/>
   <feComposite xmlns="http://www.w3.org/2000/svg" in2="pf_100_offsetBlur" operator="in" result="pf_100_dropShadow"/>
   <feBlend xmlns="http://www.w3.org/2000/svg" in="SourceGraphic" in2="pf_100_dropShadow" mode="normal"/>
  </filter>
 </defs>
 <g filter="url(#0aUCgEax0GEdCFGqwgPxKsDORxXA8lbv)">
  <linearGradient id="_lgradient_5" x1=".5" x2=".5" y1="1" y2="0" gradientTransform="matrix(244.648,0,0,228.338,5.682,11.95)" gradientUnits="userSpaceOnUse">
   <stop offset="0%" style="stop-color:#343b40"/>
   <stop offset="100%" style="stop-color:#737b80"/>
  </linearGradient>
  <path fill="url(#_lgradient_5)" d="M 165.691 11.95 C 239.746 11.95 250.33 22.507 250.33 96.494 L 250.33 155.745 C 250.33 229.731 239.746 240.288 165.691 240.288 L 90.321 240.288 C 16.265 240.288 5.682 229.731 5.682 155.745 L 5.682 96.494 C 5.682 22.507 16.265 11.95 90.321 11.95 L 165.691 11.95 Z"/>
 </g>
 <defs>
  <filter id="80XeOF0dQcBElaGe2XYfA0PcmrE3ztgU" width="400%" height="400%" x="-200%" y="-200%" color-interpolation-filters="sRGB" filterUnits="objectBoundingBox">
   <feGaussianBlur xmlns="http://www.w3.org/2000/svg" in="SourceGraphic" stdDeviation="4.294"/>
   <feOffset xmlns="http://www.w3.org/2000/svg" dx="0" dy="4" result="pf_100_offsetBlur"/>
   <feFlood xmlns="http://www.w3.org/2000/svg" flood-opacity=".4"/>
   <feComposite xmlns="http://www.w3.org/2000/svg" in2="pf_100_offsetBlur" operator="in" result="pf_100_dropShadow"/>
   <feBlend xmlns="http://www.w3.org/2000/svg" in="SourceGraphic" in2="pf_100_dropShadow" mode="normal"/>
  </filter>
 </defs>
 <g filter="url(#80XeOF0dQcBElaGe2XYfA0PcmrE3ztgU)">
  <linearGradient id="_lgradient_6" x1=".25" x2=".75" y1=".036" y2=".902" gradientTransform="matrix(48.487,0,0,84.262,106.092,53.971)" gradientUnits="userSpaceOnUse">
   <stop offset="0%" style="stop-color:#f61111"/>
   <stop offset="48.272%" style="stop-color:#ff4f4f"/>
   <stop offset="100%" style="stop-color:#ff7a55"/>
  </linearGradient>
  <path fill="url(#_lgradient_6)" fill-rule="evenodd" d="M 125.877 80.835 C 119.177 85.548 111.583 90.888 107.514 99.725 C 100.447 115.141 121.976 131.958 122.895 132.666 C 123.338 133.005 123.955 132.992 124.383 132.636 C 124.81 132.277 124.931 131.671 124.675 131.176 C 124.598 131.027 116.87 116.016 117.157 105.248 C 117.259 101.497 122.508 97.242 128.064 92.738 C 133.153 88.613 138.922 83.936 142.297 78.465 C 149.707 66.424 141.471 54.585 141.388 54.466 C 141.059 54.01 140.457 53.846 139.943 54.072 C 139.428 54.299 139.143 54.854 139.257 55.404 C 139.273 55.483 140.875 63.312 136.419 71.379 C 134.583 74.712 130.548 77.549 125.877 80.835 L 125.877 80.835 Z M 154.106 86.144 C 154.578 85.788 154.717 85.139 154.431 84.621 C 154.145 84.103 153.522 83.874 152.969 84.084 C 151.83 84.517 125.096 94.822 125.096 107.274 C 125.096 115.857 128.763 120.391 131.44 123.703 C 132.49 125.001 133.396 126.123 133.695 127.081 C 134.536 129.839 132.544 134.826 131.705 136.516 C 131.464 137.002 131.582 137.59 131.993 137.945 C 132.404 138.299 133.003 138.331 133.448 138.02 C 133.908 137.701 144.683 130.083 142.751 120.905 C 142.031 117.417 140.316 114.868 138.804 112.619 C 136.46 109.133 134.768 106.617 137.336 101.967 C 140.344 96.544 153.967 86.247 154.106 86.144 L 154.106 86.144 Z"/>
 </g>
 <defs>
  <filter id="Funk2Nu0vrDdQGaCKjUZPO6aac3vZ2av" width="400%" height="400%" x="-200%" y="-200%" color-interpolation-filters="sRGB" filterUnits="objectBoundingBox">
   <feGaussianBlur xmlns="http://www.w3.org/2000/svg" in="SourceGraphic" stdDeviation="4.294"/>
   <feOffset xmlns="http://www.w3.org/2000/svg" dx="0" dy="4" result="pf_100_offsetBlur"/>
   <feFlood xmlns="http://www.w3.org/2000/svg" flood-opacity=".4"/>
   <feComposite xmlns="http://www.w3.org/2000/svg" in2="pf_100_offsetBlur" operator="in" result="pf_100_dropShadow"/>
   <feBlend xmlns="http://www.w3.org/2000/svg" in="SourceGraphic" in2="pf_100_dropShadow" mode="normal"/>
  </filter>
 </defs>
 <g filter="url(#Funk2Nu0vrDdQGaCKjUZPO6aac3vZ2av)">
  <path fill="#ffffff" fill-rule="evenodd" d="M 84.515 138.431 C 84.057 139.803 84.273 141.164 85.14 142.369 C 88.038 146.392 98.303 148.608 114.047 148.608 L 114.048 148.608 C 116.182 148.608 118.434 148.565 120.741 148.482 C 145.911 147.582 155.247 139.74 155.633 139.407 C 156.054 139.045 156.168 138.438 155.906 137.948 C 155.645 137.457 155.078 137.214 154.542 137.362 C 145.677 139.782 129.124 140.642 117.643 140.642 C 104.796 140.642 98.252 139.716 96.65 139.033 C 97.473 137.905 102.542 135.889 108.824 134.653 C 109.43 134.541 109.849 133.984 109.79 133.37 C 109.73 132.757 109.211 132.291 108.595 132.298 C 104.912 132.298 86.445 132.594 84.515 138.431 L 84.515 138.431 L 84.515 138.431 L 84.515 138.431 Z M 168.74 130.354 C 163.549 130.354 158.626 132.956 158.419 133.066 C 157.941 133.325 157.698 133.875 157.83 134.402 C 157.962 134.93 158.435 135.301 158.978 135.303 C 159.088 135.303 170.053 135.393 171.046 141.657 C 171.925 147.062 160.672 155.818 156.261 158.737 C 155.783 159.051 155.597 159.661 155.818 160.189 C 156.04 160.716 156.606 161.011 157.165 160.889 C 158.211 160.666 182.769 155.254 180.173 140.956 C 178.588 132.194 173.081 130.354 168.74 130.354 L 168.74 130.354 L 168.74 130.354 L 168.74 130.354 Z M 151.899 156.987 C 151.984 156.529 151.795 156.063 151.413 155.795 L 145.524 151.671 C 145.237 151.47 144.877 151.406 144.538 151.495 C 144.477 151.511 138.319 153.13 129.379 154.123 C 125.83 154.52 121.857 154.731 117.885 154.731 C 108.948 154.731 103.104 153.68 102.253 152.91 C 102.14 152.694 102.176 152.595 102.196 152.541 C 102.351 152.111 103.18 151.601 103.714 151.398 C 104.319 151.19 104.651 150.541 104.465 149.928 C 104.278 149.316 103.64 148.962 103.022 149.127 C 97.116 150.554 94.227 152.546 94.438 155.051 C 94.811 159.494 105.101 161.774 113.799 162.377 C 115.05 162.463 116.403 162.506 117.82 162.506 L 117.822 162.506 C 132.287 162.506 150.83 157.968 151.015 157.921 C 151.469 157.811 151.814 157.445 151.899 156.987 L 151.899 156.987 L 151.899 156.987 L 151.899 156.987 Z M 107.507 166.521 C 107.955 166.232 108.156 165.679 107.997 165.17 C 107.838 164.661 107.359 164.32 106.826 164.338 C 106.035 164.358 99.081 164.672 98.594 169.099 C 98.447 170.422 98.826 171.631 99.721 172.692 C 102.218 175.651 108.958 177.41 120.322 178.068 C 121.666 178.149 123.032 178.19 124.381 178.19 C 138.829 178.19 148.56 173.666 148.968 173.474 C 149.363 173.287 149.623 172.899 149.646 172.462 C 149.67 172.026 149.452 171.613 149.08 171.385 L 141.638 166.841 C 141.38 166.684 141.072 166.631 140.776 166.692 C 140.729 166.702 136.004 167.682 128.874 168.651 C 127.524 168.834 125.835 168.926 123.852 168.926 C 116.729 168.926 108.807 167.763 107.288 167.001 C 107.266 166.859 107.293 166.678 107.507 166.521 L 107.507 166.521 L 107.507 166.521 L 107.507 166.521 Z M 117.648 191.849 C 150.742 191.82 168.504 185.935 171.926 182.232 C 173.138 180.921 173.269 179.681 173.165 178.871 C 172.911 176.877 171.095 175.656 170.889 175.524 C 170.391 175.201 169.732 175.29 169.338 175.735 C 168.949 176.176 168.946 176.836 169.33 177.281 C 169.54 177.55 169.66 177.999 169.05 178.61 C 167.682 179.887 153.885 183.766 130.914 184.93 C 127.767 185.095 124.466 185.177 121.104 185.178 C 100.537 185.178 85.484 182.361 83.508 180.719 C 84.27 179.625 89.594 177.877 95.256 176.888 C 95.905 176.787 96.35 176.18 96.249 175.532 C 96.149 174.883 95.542 174.438 94.893 174.539 C 94.733 174.561 94.191 174.593 93.564 174.631 C 84.221 175.202 73.425 176.472 72.862 181.286 C 72.69 182.753 73.126 184.085 74.157 185.243 C 76.68 188.079 83.932 191.848 117.646 191.848 L 117.648 191.849 L 117.648 191.849 L 117.648 191.849 Z M 178.427 183.275 C 177.96 183.059 177.407 183.168 177.057 183.545 C 177.009 183.597 172.033 188.8 157.072 191.855 C 151.345 193.003 140.594 193.585 125.119 193.585 C 109.614 193.585 94.861 192.975 94.714 192.969 C 94.101 192.94 93.568 193.385 93.487 193.994 C 93.402 194.601 93.793 195.171 94.389 195.313 C 94.542 195.349 110.004 198.971 131.144 198.971 C 141.283 198.971 151.149 198.147 160.469 196.523 C 177.848 193.476 179.065 184.859 179.108 184.494 C 179.168 183.983 178.893 183.491 178.427 183.275 L 178.427 183.275 Z"/>
 </g>
</svg>
