<svg xmlns="http://www.w3.org/2000/svg" style="isolation:isolate" width="256" height="256" viewBox="0 0 256 256">
 <defs>
  <filter id="t40ldE9NkCk4X12yrc6FQcBX4vSWXYTz" width="400%" height="400%" x="-200%" y="-200%" color-interpolation-filters="sRGB" filterUnits="objectBoundingBox">
   <feGaussianBlur xmlns="http://www.w3.org/2000/svg" in="SourceGraphic" stdDeviation="4.294"/>
   <feOffset xmlns="http://www.w3.org/2000/svg" dx="0" dy="4" result="pf_100_offsetBlur"/>
   <feFlood xmlns="http://www.w3.org/2000/svg" flood-opacity=".4"/>
   <feComposite xmlns="http://www.w3.org/2000/svg" in2="pf_100_offsetBlur" operator="in" result="pf_100_dropShadow"/>
   <feBlend xmlns="http://www.w3.org/2000/svg" in="SourceGraphic" in2="pf_100_dropShadow" mode="normal"/>
  </filter>
 </defs>
 <g filter="url(#t40ldE9NkCk4X12yrc6FQcBX4vSWXYTz)">
  <linearGradient id="_lgradient_0" x1="0" x2="0" y1="0" y2="1" gradientTransform="matrix(244.648309,0,0,228.338396,5.68,11.951604)" gradientUnits="userSpaceOnUse">
   <stop offset="0%" style="stop-color:#bdc3c7"/>
   <stop offset="100%" style="stop-color:#aeafb3"/>
  </linearGradient>
  <path fill="url(#_lgradient_0)" d="M 165.688919 11.951604 C 239.744626 11.951604 250.328309 22.508801 250.328309 96.495462 L 250.328309 155.746257 C 250.328309 229.732514 239.744626 240.29 165.688919 240.29 L 90.319393 240.29 C 16.26369 240.29 5.68 229.732514 5.68 155.746257 L 5.68 96.495462 C 5.68 22.508801 16.26369 11.951604 90.319393 11.951604 L 165.688919 11.951604 Z"/>
 </g>
 <g opacity=".4">
  <linearGradient id="_lgradient_1" x1=".517" x2=".517" y1="0" y2="1" gradientTransform="matrix(244.65,0,0,228.34,5.68,11.95)" gradientUnits="userSpaceOnUse">
   <stop offset="0%" style="stop-color:#ffffff"/>
   <stop offset="12.5%" stop-opacity=".098" style="stop-color:#ffffff"/>
   <stop offset="92.5%" stop-opacity=".098" style="stop-color:#000000"/>
   <stop offset="100%" stop-opacity=".498" style="stop-color:#000000"/>
  </linearGradient>
  <path fill="url(#_lgradient_1)" fill-rule="evenodd" d="M 165.06803 11.951234 C 169.395994 11.941409 173.723944 11.990533 178.051908 12.088781 C 181.927398 12.167379 185.802873 12.31475 189.678362 12.540721 C 193.1309 12.737216 196.583423 13.022134 200.026115 13.395476 C 203.085193 13.729518 206.144271 14.181458 209.173842 14.741469 C 211.888645 15.242533 214.57394 15.881143 217.219897 16.6573 C 219.619947 17.354858 221.970814 18.219439 224.242988 19.241215 C 226.357793 20.184394 228.384061 21.304417 230.302129 22.591462 C 232.141505 23.829383 233.862851 25.244151 235.436659 26.80629 C 237.000621 28.378252 238.417046 30.087764 239.656409 31.924995 C 240.944972 33.840824 242.066305 35.864728 243.020409 37.967229 C 244.043389 40.246576 244.908985 42.584873 245.617197 44.972292 C 246.394255 47.615155 247.033606 50.297317 247.535265 53.008956 C 248.095924 56.034984 248.548399 59.080665 248.882828 62.13617 C 249.256611 65.574836 249.541856 69.013506 249.738578 72.462003 C 249.964823 76.323139 250.112361 80.194101 250.200884 84.055237 C 250.289421 88.378131 250.338591 92.701032 250.32876 97.014106 L 250.32876 155.225886 C 250.338591 159.54878 250.289421 163.861854 250.200884 168.184747 C 250.112361 172.05571 249.964823 175.916853 249.738578 179.777981 C 249.541856 183.226485 249.256611 186.674975 248.882828 190.103826 C 248.548399 193.15933 248.095924 196.214835 247.535265 199.240851 C 247.033606 201.942664 246.394255 204.624837 245.617197 207.267703 C 244.908985 209.655115 244.043389 212.003235 243.020409 214.272755 C 242.066305 216.38509 240.944972 218.399156 239.656409 220.314999 C 238.417046 222.152226 237.000621 223.871561 235.436659 225.433697 C 233.862851 226.995832 232.141505 228.410601 230.302129 229.648532 C 228.384061 230.935575 226.357793 232.055598 224.242988 232.998768 C 221.970814 234.020552 219.619947 234.885137 217.219897 235.592507 C 214.57394 236.368672 211.888645 237.007276 209.173842 237.498515 C 206.144271 238.068354 203.085193 238.510465 200.026115 238.844519 C 196.583423 239.21785 193.1309 239.502777 189.678362 239.699269 C 185.802873 239.925235 181.927398 240.072615 178.051908 240.161035 C 173.723944 240.249454 169.395994 240.298581 165.06803 240.288762 L 90.941963 240.288762 C 86.614006 240.298581 82.286049 240.249454 77.9581 240.161035 C 74.08261 240.072615 70.20712 239.925235 66.331638 239.699269 C 62.879108 239.502777 59.426578 239.21785 55.983886 238.844519 C 52.924808 238.510465 49.865733 238.068354 46.836162 237.498515 C 44.121356 237.007276 41.436057 236.368672 38.7901 235.592507 C 36.390053 234.885137 34.039187 234.020552 31.767009 232.998768 C 29.652213 232.055598 27.625943 230.935575 25.707871 229.648532 C 23.868489 228.410601 22.147143 226.995832 20.573343 225.433697 C 19.009377 223.871561 17.592955 222.152226 16.353586 220.314999 C 15.065036 218.399156 13.943701 216.38509 12.989584 214.272755 C 11.966612 212.003235 11.101021 209.655115 10.392811 207.267703 C 9.615746 204.624837 8.976389 201.942664 8.47474 199.240851 C 7.914072 196.214835 7.461604 193.15933 7.127172 190.103826 C 6.753394 186.674975 6.468142 183.226485 6.271417 179.777981 C 6.045183 175.916853 5.897639 172.05571 5.809112 168.184747 C 5.720586 163.861854 5.671405 159.54878 5.681241 155.225886 L 5.681241 97.014106 C 5.671405 92.701032 5.720586 88.378131 5.809112 84.055237 C 5.897639 80.194101 6.045183 76.323139 6.271417 72.462003 C 6.468142 69.013506 6.753394 65.574836 7.127172 62.13617 C 7.461604 59.080665 7.914072 56.034984 8.47474 53.008956 C 8.976389 50.297317 9.615746 47.615155 10.392811 44.972292 C 11.101021 42.584873 11.966612 40.246576 12.989584 37.967229 C 13.943701 35.864728 15.065036 33.840824 16.353586 31.924995 C 17.592955 30.087764 19.009377 28.378252 20.573343 26.80629 C 22.147143 25.244151 23.868489 23.829383 25.707871 22.591462 C 27.625943 21.304417 29.652213 20.184394 31.767009 19.241215 C 34.039187 18.219439 36.390053 17.354858 38.7901 16.6573 C 41.436057 15.881143 44.121356 15.242533 46.836162 14.741469 C 49.865733 14.181458 52.924808 13.729518 55.983886 13.395476 C 59.426578 13.022134 62.879108 12.737216 66.331638 12.540721 C 70.20712 12.31475 74.08261 12.167379 77.9581 12.088781 C 82.286049 11.990533 86.614006 11.941409 90.941963 11.951234 L 165.06803 11.951234 Z M 165.077876 15.959741 C 169.376317 15.949916 173.674759 15.99904 177.973216 16.087463 C 181.799522 16.175886 185.625827 16.323257 189.452133 16.539402 C 192.835809 16.735898 196.219486 17.010992 199.583486 17.384332 C 202.554026 17.698726 205.514751 18.131016 208.445953 18.681203 C 211.023049 19.152792 213.580483 19.761928 216.098564 20.498786 C 218.321569 21.147221 220.495374 21.952852 222.600334 22.896029 C 224.508571 23.750785 226.338116 24.762737 228.069293 25.922059 C 229.692286 27.012609 231.207063 28.260355 232.59398 29.645648 C 233.980897 31.030941 235.230091 32.543956 236.331763 34.165043 C 237.492434 35.894202 238.505568 37.711787 239.361333 39.607968 C 240.305606 41.720292 241.112187 43.891565 241.761369 46.102139 C 242.508934 48.617282 243.108947 51.161898 243.590914 53.735987 C 244.131912 56.663768 244.564709 59.6112 244.889308 62.578282 C 245.263091 65.938355 245.538505 69.308252 245.735227 72.687976 C 245.951626 76.509812 246.10901 80.321821 246.187687 84.143656 C 246.276225 88.437084 246.325394 92.720685 246.325394 97.014106 C 246.325394 97.014106 246.325394 97.014106 246.325394 97.014106 L 246.325394 155.225886 C 246.325394 155.225886 246.325394 155.225886 246.325394 155.225886 C 246.325394 159.519306 246.276225 163.802907 246.187687 168.096328 C 246.10901 171.918164 245.951626 175.739999 245.735227 179.552015 C 245.538505 182.931739 245.263091 186.301629 244.889308 189.671533 C 244.564709 192.628784 244.131912 195.576216 243.590914 198.503994 C 243.108947 201.078094 242.508934 203.622706 241.761369 206.137845 C 241.112187 208.358253 240.305606 210.5197 239.361333 212.63202 C 238.505568 214.528209 237.492434 216.355617 236.331763 218.074952 C 235.230091 219.705853 233.980897 221.218876 232.59398 222.604172 C 231.207063 223.979634 229.692286 225.227385 228.069293 226.317935 C 226.338116 227.477251 224.508571 228.489201 222.600334 229.343951 C 220.495374 230.296956 218.321569 231.092775 216.098564 231.741198 C 213.580483 232.478056 211.023049 233.087202 208.445953 233.558787 C 205.514751 234.108972 202.554026 234.541264 199.583486 234.865483 C 196.219486 235.228995 192.835809 235.513922 189.452133 235.70058 C 185.625827 235.916726 181.799522 236.073926 177.973216 236.152526 C 173.674759 236.25078 169.376317 236.290072 165.077876 236.290072 C 165.077876 236.290072 165.077876 236.290072 165.06803 236.290072 L 90.941963 236.290072 C 90.932125 236.290072 90.932125 236.290072 90.932125 236.290072 C 86.633683 236.290072 82.335234 236.25078 78.036784 236.152526 C 74.210479 236.073926 70.384173 235.916726 66.557868 235.70058 C 63.174195 235.513922 59.790522 235.228995 56.426518 234.865483 C 53.455967 234.541264 50.495253 234.108972 47.564048 233.558787 C 44.986944 233.087202 42.429517 232.478056 39.911433 231.741198 C 37.688439 231.092775 35.514626 230.296956 33.409665 229.343951 C 31.501429 228.489201 29.671886 227.477251 27.940703 226.317935 C 26.31772 225.227385 24.802935 223.979634 23.416022 222.604172 C 22.029109 221.218876 20.779904 219.705853 19.678243 218.074952 C 18.517564 216.355617 17.504428 214.528209 16.648674 212.63202 C 15.704392 210.5197 14.897819 208.358253 14.248626 206.137845 C 13.50107 203.622706 12.901057 201.078094 12.419081 198.503994 C 11.878086 195.576216 11.445291 192.628784 11.120694 189.671533 C 10.746916 186.301629 10.471501 182.931739 10.274776 179.552015 C 10.058378 175.739999 9.900997 171.918164 9.822307 168.096328 C 9.733781 163.802907 9.6846 159.519306 9.6846 155.225886 C 9.6846 155.225886 9.6846 155.225886 9.6846 155.225886 L 9.6846 97.014106 C 9.6846 97.014106 9.6846 97.014106 9.6846 97.014106 C 9.6846 92.720685 9.733781 88.437084 9.822307 84.143656 C 9.900997 80.321821 10.058378 76.509812 10.274776 72.687976 C 10.471501 69.308252 10.746916 65.938355 11.120694 62.578282 C 11.445291 59.6112 11.878086 56.663768 12.419081 53.735987 C 12.901057 51.161898 13.50107 48.617282 14.248626 46.102139 C 14.897819 43.891565 15.704392 41.720292 16.648674 39.607968 C 17.504428 37.711787 18.517564 35.894202 19.678243 34.165043 C 20.779904 32.543956 22.029109 31.030941 23.416022 29.645648 C 24.802935 28.260355 26.31772 27.012609 27.940703 25.922059 C 29.671886 24.762737 31.501429 23.750785 33.409665 22.896029 C 35.514626 21.952852 37.688439 21.147221 39.911433 20.498786 C 42.429517 19.761928 44.986944 19.152792 47.564048 18.681203 C 50.495253 18.131016 53.455967 17.698726 56.426518 17.384332 C 59.790522 17.010992 63.174195 16.735898 66.557868 16.539402 C 70.384173 16.323257 74.210479 16.175886 78.036784 16.087463 C 82.335234 15.99904 86.633683 15.949916 90.932125 15.959741 C 90.932125 15.959741 90.932125 15.959741 90.941963 15.959741 L 165.06803 15.959741 C 165.077876 15.959741 165.077876 15.959741 165.077876 15.959741 Z"/>
 </g>
 <g>
  <linearGradient id="_lgradient_2" x1=".233" x2=".933" y1="-.071" y2=".924" gradientTransform="matrix(-50.785197,0,0,62.939945,96.285197,104.426314)" gradientUnits="userSpaceOnUse">
   <stop offset="0%" stop-opacity=".996" style="stop-color:#c58d67"/>
   <stop offset="100%" stop-opacity=".996" style="stop-color:#e6aa81"/>
  </linearGradient>
  <path fill="url(#_lgradient_2)" d="M 45.5 128.693708 C 45.5 136.261183 51.23547 150.936478 61.04591 159.385822 C 68.610341 165.900755 79.675801 167.366259 85.723932 167.366259 C 99.615991 167.366259 95.807616 142.096183 95.807616 128.693708 C 95.807616 115.291234 84.545888 104.426314 70.653787 104.426314 C 56.761728 104.426314 45.499958 115.291234 45.5 128.693708 L 45.5 128.693708 Z"/>
  <linearGradient id="_lgradient_3" x1=".233" x2=".933" y1="-.071" y2=".924" gradientTransform="matrix(50.785206,0,0,62.939903,159.714794,104.426339)" gradientUnits="userSpaceOnUse">
   <stop offset="0%" stop-opacity=".996" style="stop-color:#c58d67"/>
   <stop offset="100%" stop-opacity=".996" style="stop-color:#e6aa81"/>
  </linearGradient>
  <path fill="url(#_lgradient_3)" d="M 210.5 128.693691 C 210.5 136.261165 204.76453 150.936544 194.954069 159.385889 C 187.389649 165.900822 176.324188 167.366242 170.276068 167.366242 C 156.383998 167.366242 160.192373 142.096166 160.192373 128.693691 C 160.192373 115.291217 171.454101 104.426339 185.346202 104.426339 C 199.238262 104.426339 210.500021 115.291217 210.5 128.693691 L 210.5 128.693691 Z"/>
  <circle fill="#fec589" cx="127.872" cy="127.361" r="57.829" vector-effect="non-scaling-stroke"/>
  <linearGradient id="_lgradient_4" x1=".472" x2=".481" y1="1.009" y2="-.267" gradientTransform="matrix(116.181045,0,0,61.224313,70.242462,68.809734)" gradientUnits="userSpaceOnUse">
   <stop offset="2.174%" style="stop-color:#5b2f00"/>
   <stop offset="100%" style="stop-color:#ff8000"/>
  </linearGradient>
  <path fill="url(#_lgradient_4)" d="M 128.277625 68.809734 C 97.387917 68.823408 71.900818 92.856974 70.242462 123.533955 C 75.416866 109.449797 86.963877 100.367252 99.711473 100.354412 C 111.025372 100.370837 121.506203 107.547485 127.335035 119.270179 C 133.162299 107.550612 143.639212 100.374089 154.950087 100.354412 C 169.787181 100.373547 182.702438 112.618343 186.253188 130.034047 C 186.343299 128.904133 186.400159 127.771801 186.423506 126.638635 C 186.423506 94.700588 160.390702 68.809734 128.277604 68.809734 L 128.277625 68.809734 Z"/>
  <circle fill="none" cx="127.872" cy="127.361" r="57.829" vector-effect="non-scaling-stroke"/>
  <ellipse fill="#090909" cx="110.918" cy="139.421" rx="4.682" ry="8.918" vector-effect="non-scaling-stroke"/>
  <ellipse fill="#090909" cx="146.628" cy="139.421" rx="4.682" ry="8.918" vector-effect="non-scaling-stroke"/>
  <ellipse fill="#ffffff" cx="110.918" cy="134.404" rx=".669" ry="1.226" vector-effect="non-scaling-stroke"/>
  <ellipse fill="#ffffff" cx="147.061" cy="134.404" rx=".669" ry="1.226" vector-effect="non-scaling-stroke"/>
  <path fill-rule="evenodd" d="M 161.870873 150.250317 C 160.959388 150.21619 160.033212 150.42137 159.18697 150.877172 C 156.701134 152.216079 155.327681 155.305079 155.591022 158.358497 L 156.738845 158.230019 C 156.521455 155.709493 157.668683 153.150539 159.679702 152.067351 C 161.833713 150.907152 164.641867 151.794094 165.612241 154.340409 C 166.324093 156.208247 165.704275 158.635437 163.991452 159.36796 C 163.434559 159.606197 162.759723 159.591163 162.212537 159.342514 C 161.665373 159.093953 161.25808 158.652589 161.101421 157.980091 C 161.027223 157.661645 161.066434 157.187025 161.210133 156.864751 C 161.353864 156.542444 161.516347 156.382223 161.815811 156.381903 C 161.726281 156.382167 161.992765 156.480599 162.043117 156.544264 C 162.068353 156.57592 162.030906 156.564857 162.031844 156.446836 C 162.032572 156.328815 162.129316 156.214622 162.0982 156.236473 L 162.72082 157.346176 C 162.970297 157.164689 163.183727 156.812546 163.186727 156.456719 C 163.189617 156.100925 163.039521 155.847732 162.894476 155.664679 C 162.604388 155.29823 162.291821 155.069788 161.813009 155.070295 C 161.057555 155.071023 160.467771 155.627519 160.182338 156.267533 C 159.896915 156.907525 159.833526 157.643092 159.990328 158.316119 C 160.246808 159.417143 160.962786 160.191932 161.787596 160.566577 C 162.612396 160.941342 163.554201 160.957942 164.396671 160.59767 C 166.791047 159.573658 167.625972 156.31923 166.67114 153.813782 C 165.811078 151.556961 163.876144 150.325343 161.870895 150.250306 L 161.870873 150.250317 Z M 94.997801 151.358609 C 94.086328 151.324493 93.160146 151.529662 92.313899 151.985464 C 89.828067 153.324371 88.454604 156.413371 88.71795 159.466789 L 89.864361 159.338312 C 89.646972 156.817785 90.795617 154.258831 92.80663 153.175643 C 94.960646 152.015444 97.768801 152.900974 98.739169 155.447289 C 99.451022 157.315127 98.831209 159.743729 97.11838 160.476252 C 96.561493 160.714489 95.886646 160.699455 95.339465 160.450806 C 94.792301 160.202245 94.385008 159.760892 94.22835 159.088394 C 94.154146 158.769937 94.193329 158.295306 94.337061 157.973043 C 94.480793 157.650736 94.64327 157.490515 94.942739 157.490184 C 94.853203 157.49046 95.118281 157.588891 95.168633 157.652545 C 95.193875 157.684212 95.157818 157.673149 95.15875 157.555128 C 95.159622 157.437108 95.256228 157.322914 95.225112 157.344776 L 95.847732 158.454468 C 96.097208 158.272981 96.310633 157.920838 96.313638 157.565011 C 96.316457 157.209217 96.166432 156.956024 96.021388 156.772971 C 95.7313 156.406522 95.417315 156.178069 94.938509 156.178598 C 94.183044 156.179315 93.593277 156.735811 93.307837 157.375836 C 93.022415 158.015817 92.959031 158.751384 93.115828 159.4244 C 93.372302 160.525424 94.089692 161.300224 94.914508 161.674869 C 95.739302 162.049634 96.681113 162.066234 97.523583 161.705951 C 99.917965 160.68195 100.752884 157.427522 99.798052 154.922085 C 98.93799 152.665242 97.003051 151.433635 94.997806 151.358609 L 94.997801 151.358609 Z M 105.144673 157.922239 C 104.982461 157.932034 104.828279 157.996195 104.707004 158.104366 C 104.707004 158.104366 101.771321 160.595045 100.518084 162.356819 C 99.531816 163.74332 98.485038 166.465265 98.485038 166.465265 C 98.337667 166.836809 98.519397 167.257471 98.890936 167.404842 C 99.262481 167.552214 99.683147 167.370484 99.830519 166.998939 C 99.830519 166.998939 100.75102 164.767564 101.459779 163.573823 C 103.733757 166.52551 107.122249 168.366557 109.851738 169.832496 C 112.693992 171.358714 115.634286 172.861493 118.794314 173.819524 C 121.288605 174.575706 123.875339 174.924198 126.425293 175.121237 C 128.995112 175.319865 131.626886 175.374111 134.227104 175.00829 C 136.937511 174.626973 139.628528 173.916135 142.161628 172.853827 C 144.569461 171.844077 146.758183 170.418949 148.836793 168.952922 C 151.263112 167.241643 155.083113 163.757185 155.576903 163.305574 C 155.886548 163.838112 156.203803 164.472545 156.462125 165.057663 C 156.884033 166.013289 157.172279 166.806929 157.172279 166.806929 C 157.252721 167.058358 157.463823 167.245944 157.722962 167.296285 C 157.9821 167.346637 158.248077 167.251724 158.416813 167.048695 C 158.585539 166.845667 158.630188 166.566818 158.53329 166.321257 C 158.53329 166.321257 158.229127 165.481931 157.785016 164.475986 C 157.340905 163.470064 156.781288 162.303787 156.114813 161.523835 C 155.482465 160.783801 154.487439 160.098542 153.618685 159.538792 C 152.749931 158.979076 152.012015 158.573096 152.012015 158.573096 C 151.906204 158.512299 151.786716 158.479264 151.664703 158.477091 C 151.327395 158.469017 151.029354 158.695341 150.946574 159.022435 C 150.863783 159.349529 151.018269 159.690388 151.318803 159.843749 C 151.318803 159.843749 152.011165 160.22018 152.833704 160.750149 C 153.491741 161.17413 154.220359 161.70787 154.698741 162.149279 C 154.344535 162.472027 150.289254 166.161698 148.005221 167.772626 C 145.957826 169.216637 143.855071 170.576777 141.606776 171.519641 C 139.198557 172.529546 136.624999 173.208695 134.029447 173.573864 C 131.581597 173.918319 129.049644 173.87389 126.536822 173.679752 C 124.043535 173.487146 121.557235 173.148681 119.210806 172.437335 C 116.215632 171.52927 113.359386 170.074207 110.535073 168.557607 C 107.710957 167.040875 104.392192 165.178 102.374649 162.379408 C 103.634614 160.977796 105.651523 159.19854 105.651523 159.19854 C 105.890978 158.998368 105.974933 158.667126 105.859741 158.37706 C 105.74455 158.086994 105.456215 157.903598 105.144673 157.922239 L 105.144673 157.922239 Z"/>
 </g>
</svg>
