<svg xmlns="http://www.w3.org/2000/svg" style="isolation:isolate" width="256" height="256" viewBox="0 0 256 256">
 <defs>
  <clipPath id="_clipPath_vnj50MRdVyp3VxebaL2Aivj5dX0tf8cc">
   <rect width="256" height="256"/>
  </clipPath>
 </defs>
 <g clip-path="url(#_clipPath_vnj50MRdVyp3VxebaL2Aivj5dX0tf8cc)">
  <defs>
   <filter id="cZshiP9do8xFmK7BbiqfTuq1rHBErSiJ" width="400%" height="400%" x="-200%" y="-200%" color-interpolation-filters="sRGB" filterUnits="objectBoundingBox">
    <feGaussianBlur xmlns="http://www.w3.org/2000/svg" in="SourceGraphic" stdDeviation="4.294"/>
    <feOffset xmlns="http://www.w3.org/2000/svg" dx="0" dy="4" result="pf_100_offsetBlur"/>
    <feFlood xmlns="http://www.w3.org/2000/svg" flood-opacity=".4"/>
    <feComposite xmlns="http://www.w3.org/2000/svg" in2="pf_100_offsetBlur" operator="in" result="pf_100_dropShadow"/>
    <feBlend xmlns="http://www.w3.org/2000/svg" in="SourceGraphic" in2="pf_100_dropShadow" mode="normal"/>
   </filter>
  </defs>
  <g filter="url(#cZshiP9do8xFmK7BbiqfTuq1rHBErSiJ)">
   <linearGradient id="_lgradient_248" x1=".5" x2=".5" y1="0" y2="1" gradientTransform="matrix(244.648,0,0,228.338,5.68,11.95)" gradientUnits="userSpaceOnUse">
    <stop offset="0%" style="stop-color:#1ad6ab"/>
    <stop offset="100%" style="stop-color:#329db6"/>
   </linearGradient>
   <path fill="url(#_lgradient_248)" d="M 165.689 11.95 C 239.745 11.95 250.328 22.507 250.328 96.494 L 250.328 155.745 C 250.328 229.731 239.745 240.288 165.689 240.288 L 90.319 240.288 C 16.264 240.288 5.68 229.731 5.68 155.745 L 5.68 96.494 C 5.68 22.507 16.264 11.95 90.319 11.95 L 165.689 11.95 Z"/>
  </g>
  <g opacity=".4">
   <linearGradient id="_lgradient_249" x1=".517" x2=".517" y1="0" y2="1" gradientTransform="matrix(244.65,0,0,228.34,5.68,11.95)" gradientUnits="userSpaceOnUse">
    <stop offset="0%" style="stop-color:#ffffff"/>
    <stop offset="12.5%" stop-opacity=".098" style="stop-color:#ffffff"/>
    <stop offset="92.5%" stop-opacity=".098" style="stop-color:#000000"/>
    <stop offset="100%" stop-opacity=".498" style="stop-color:#000000"/>
   </linearGradient>
   <path fill="url(#_lgradient_249)" fill-rule="evenodd" d="M 165.068 11.951 C 169.396 11.941 173.724 11.991 178.052 12.089 C 181.927 12.167 185.803 12.315 189.678 12.541 C 193.131 12.737 196.583 13.022 200.026 13.395 C 203.085 13.73 206.144 14.181 209.174 14.741 C 211.889 15.243 214.574 15.881 217.22 16.657 C 219.62 17.355 221.971 18.219 224.243 19.241 C 226.358 20.184 228.384 21.304 230.302 22.591 C 232.142 23.829 233.863 25.244 235.437 26.806 C 237.001 28.378 238.417 30.088 239.656 31.925 C 240.945 33.841 242.066 35.865 243.02 37.967 C 244.043 40.247 244.909 42.585 245.617 44.972 C 246.394 47.615 247.034 50.297 247.535 53.009 C 248.096 56.035 248.548 59.081 248.883 62.136 C 249.257 65.575 249.542 69.014 249.739 72.462 C 249.965 76.323 250.112 80.194 250.201 84.055 C 250.289 88.378 250.339 92.701 250.329 97.014 L 250.329 155.226 C 250.339 159.549 250.289 163.862 250.201 168.185 C 250.112 172.056 249.965 175.917 249.739 179.778 C 249.542 183.226 249.257 186.675 248.883 190.104 C 248.548 193.159 248.096 196.215 247.535 199.241 C 247.034 201.943 246.394 204.625 245.617 207.268 C 244.909 209.655 244.043 212.003 243.02 214.273 C 242.066 216.385 240.945 218.399 239.656 220.315 C 238.417 222.152 237.001 223.872 235.437 225.434 C 233.863 226.996 232.142 228.411 230.302 229.649 C 228.384 230.936 226.358 232.056 224.243 232.999 C 221.971 234.021 219.62 234.885 217.22 235.593 C 214.574 236.369 211.889 237.007 209.174 237.499 C 206.144 238.068 203.085 238.51 200.026 238.845 C 196.583 239.218 193.131 239.503 189.678 239.699 C 185.803 239.925 181.927 240.073 178.052 240.161 C 173.724 240.249 169.396 240.299 165.068 240.289 L 90.942 240.289 C 86.614 240.299 82.286 240.249 77.958 240.161 C 74.083 240.073 70.207 239.925 66.332 239.699 C 62.879 239.503 59.427 239.218 55.984 238.845 C 52.925 238.51 49.866 238.068 46.836 237.499 C 44.121 237.007 41.436 236.369 38.79 235.593 C 36.39 234.885 34.039 234.021 31.767 232.999 C 29.652 232.056 27.626 230.936 25.708 229.649 C 23.868 228.411 22.147 226.996 20.573 225.434 C 19.009 223.872 17.593 222.152 16.354 220.315 C 15.065 218.399 13.944 216.385 12.99 214.273 C 11.967 212.003 11.101 209.655 10.393 207.268 C 9.616 204.625 8.976 201.943 8.475 199.241 C 7.914 196.215 7.462 193.159 7.127 190.104 C 6.753 186.675 6.468 183.226 6.271 179.778 C 6.045 175.917 5.898 172.056 5.809 168.185 C 5.721 163.862 5.671 159.549 5.681 155.226 L 5.681 97.014 C 5.671 92.701 5.721 88.378 5.809 84.055 C 5.898 80.194 6.045 76.323 6.271 72.462 C 6.468 69.014 6.753 65.575 7.127 62.136 C 7.462 59.081 7.914 56.035 8.475 53.009 C 8.976 50.297 9.616 47.615 10.393 44.972 C 11.101 42.585 11.967 40.247 12.99 37.967 C 13.944 35.865 15.065 33.841 16.354 31.925 C 17.593 30.088 19.009 28.378 20.573 26.806 C 22.147 25.244 23.868 23.829 25.708 22.591 C 27.626 21.304 29.652 20.184 31.767 19.241 C 34.039 18.219 36.39 17.355 38.79 16.657 C 41.436 15.881 44.121 15.243 46.836 14.741 C 49.866 14.181 52.925 13.73 55.984 13.395 C 59.427 13.022 62.879 12.737 66.332 12.541 C 70.207 12.315 74.083 12.167 77.958 12.089 C 82.286 11.991 86.614 11.941 90.942 11.951 L 165.068 11.951 Z M 165.078 15.96 C 169.376 15.95 173.675 15.999 177.973 16.087 C 181.8 16.176 185.626 16.323 189.452 16.539 C 192.836 16.736 196.219 17.011 199.583 17.384 C 202.554 17.699 205.515 18.131 208.446 18.681 C 211.023 19.153 213.58 19.762 216.099 20.499 C 218.322 21.147 220.495 21.953 222.6 22.896 C 224.509 23.751 226.338 24.763 228.069 25.922 C 229.692 27.013 231.207 28.26 232.594 29.646 C 233.981 31.031 235.23 32.544 236.332 34.165 C 237.492 35.894 238.506 37.712 239.361 39.608 C 240.306 41.72 241.112 43.892 241.761 46.102 C 242.509 48.617 243.109 51.162 243.591 53.736 C 244.132 56.664 244.565 59.611 244.889 62.578 C 245.263 65.938 245.539 69.308 245.735 72.688 C 245.952 76.51 246.109 80.322 246.188 84.144 C 246.276 88.437 246.325 92.721 246.325 97.014 C 246.325 97.014 246.325 97.014 246.325 97.014 L 246.325 155.226 C 246.325 155.226 246.325 155.226 246.325 155.226 C 246.325 159.519 246.276 163.803 246.188 168.096 C 246.109 171.918 245.952 175.74 245.735 179.552 C 245.539 182.932 245.263 186.302 244.889 189.672 C 244.565 192.629 244.132 195.576 243.591 198.504 C 243.109 201.078 242.509 203.623 241.761 206.138 C 241.112 208.358 240.306 210.52 239.361 212.632 C 238.506 214.528 237.492 216.356 236.332 218.075 C 235.23 219.706 233.981 221.219 232.594 222.604 C 231.207 223.98 229.692 225.227 228.069 226.318 C 226.338 227.477 224.509 228.489 222.6 229.344 C 220.495 230.297 218.322 231.093 216.099 231.741 C 213.58 232.478 211.023 233.087 208.446 233.559 C 205.515 234.109 202.554 234.541 199.583 234.865 C 196.219 235.229 192.836 235.514 189.452 235.701 C 185.626 235.917 181.8 236.074 177.973 236.153 C 173.675 236.251 169.376 236.29 165.078 236.29 C 165.078 236.29 165.078 236.29 165.068 236.29 L 90.942 236.29 C 90.932 236.29 90.932 236.29 90.932 236.29 C 86.634 236.29 82.335 236.251 78.037 236.153 C 74.21 236.074 70.384 235.917 66.558 235.701 C 63.174 235.514 59.791 235.229 56.427 234.865 C 53.456 234.541 50.495 234.109 47.564 233.559 C 44.987 233.087 42.43 232.478 39.911 231.741 C 37.688 231.093 35.515 230.297 33.41 229.344 C 31.501 228.489 29.672 227.477 27.941 226.318 C 26.318 225.227 24.803 223.98 23.416 222.604 C 22.029 221.219 20.78 219.706 19.678 218.075 C 18.518 216.356 17.504 214.528 16.649 212.632 C 15.704 210.52 14.898 208.358 14.249 206.138 C 13.501 203.623 12.901 201.078 12.419 198.504 C 11.878 195.576 11.445 192.629 11.121 189.672 C 10.747 186.302 10.472 182.932 10.275 179.552 C 10.058 175.74 9.901 171.918 9.822 168.096 C 9.734 163.803 9.685 159.519 9.685 155.226 C 9.685 155.226 9.685 155.226 9.685 155.226 L 9.685 97.014 C 9.685 97.014 9.685 97.014 9.685 97.014 C 9.685 92.721 9.734 88.437 9.822 84.144 C 9.901 80.322 10.058 76.51 10.275 72.688 C 10.472 69.308 10.747 65.938 11.121 62.578 C 11.445 59.611 11.878 56.664 12.419 53.736 C 12.901 51.162 13.501 48.617 14.249 46.102 C 14.898 43.892 15.704 41.72 16.649 39.608 C 17.504 37.712 18.518 35.894 19.678 34.165 C 20.78 32.544 22.029 31.031 23.416 29.646 C 24.803 28.26 26.318 27.013 27.941 25.922 C 29.672 24.763 31.501 23.751 33.41 22.896 C 35.515 21.953 37.688 21.147 39.911 20.499 C 42.43 19.762 44.987 19.153 47.564 18.681 C 50.495 18.131 53.456 17.699 56.427 17.384 C 59.791 17.011 63.174 16.736 66.558 16.539 C 70.384 16.323 74.21 16.176 78.037 16.087 C 82.335 15.999 86.634 15.95 90.932 15.96 C 90.932 15.96 90.932 15.96 90.942 15.96 L 165.068 15.96 C 165.078 15.96 165.078 15.96 165.078 15.96 Z"/>
  </g>
  <g>
   <defs>
    <filter id="0XGgGDgdIzF9lP4JaD7EvdLe7foAOjEH" width="400%" height="400%" x="-200%" y="-200%" color-interpolation-filters="sRGB" filterUnits="objectBoundingBox">
     <feGaussianBlur xmlns="http://www.w3.org/2000/svg" stdDeviation="4.294"/>
    </filter>
   </defs>
   <g opacity=".4" filter="url(#0XGgGDgdIzF9lP4JaD7EvdLe7foAOjEH)">
    <path d="M 55.919 197.556 C 54.931 195.704 55.759 190.453 57.681 186.378 C 59.735 182.025 64.124 177.655 71.013 173.103 C 80.546 166.804 102.362 146.105 117.122 129.356 C 119.917 126.184 120.382 125.336 120.101 123.925 C 119.799 122.414 120.626 121.359 128.737 112.907 C 133.671 107.766 137.607 103.262 137.485 102.898 C 137.363 102.534 136.619 102.291 135.833 102.358 C 135.047 102.425 128.939 102.918 122.26 103.452 C 110.175 104.42 110.1 104.434 106.701 106.49 C 104.823 107.625 102.824 108.466 102.258 108.358 C 100.432 108.01 100.764 105.9 102.985 103.743 C 105.029 101.757 105.081 101.592 105.081 97.115 C 105.081 92.863 105.196 92.433 106.642 91.293 C 108.961 89.465 110.159 89.746 111.693 92.482 C 113.142 95.067 113.497 95.135 117.34 93.568 C 118.897 92.933 119.491 92.935 120.688 93.577 C 122.004 94.283 123.806 93.804 139.529 88.565 C 149.091 85.379 157.873 82.291 159.044 81.702 C 161.68 80.377 163.69 78.022 167.874 71.356 C 170.436 67.273 171.939 65.588 174.912 63.458 C 178.506 60.884 178.732 60.805 179.503 61.863 C 180.027 62.581 180.314 64.631 180.314 67.659 L 180.314 72.343 L 183.921 75.816 C 187.928 79.674 187.914 79.578 185.231 84.928 C 184.248 86.889 183.54 89.829 183.015 94.132 L 182.244 100.455 L 186.028 116.488 C 188.109 125.306 190.489 135.461 191.316 139.053 C 192.144 142.646 193.07 146.193 193.374 146.936 L 193.927 148.288 L 196.36 147.043 C 200.595 144.877 202.03 147.125 198.529 150.443 C 195.71 153.115 186.251 160.128 184.004 161.212 C 182.275 162.047 181.972 162.05 181.17 161.247 C 180.369 160.444 180.466 160.105 182.071 158.081 C 183.059 156.834 183.868 155.627 183.868 155.399 C 183.868 154.7 164.538 122.028 162.435 119.172 C 160.8 116.953 160.08 116.456 158.283 116.306 C 155.324 116.058 152.904 117.402 143.127 124.722 C 133.656 131.812 133.196 132.092 131.003 132.082 C 128.992 132.074 127.051 133.546 117.925 142.001 C 100.064 158.55 87.121 172.731 82.867 180.413 C 76.846 191.284 69.762 196.642 59.068 198.412 C 56.921 198.767 56.506 198.654 55.919 197.556 L 55.919 197.556 Z"/>
   </g>
   <path fill="#3b3b3b" d="M 55.919 193.74 C 54.931 191.888 55.759 186.637 57.681 182.562 C 59.735 178.209 64.124 173.839 71.013 169.287 C 80.546 162.988 102.362 142.289 117.122 125.54 C 119.917 122.368 120.382 121.52 120.101 120.109 C 119.799 118.598 120.626 117.543 128.737 109.091 C 133.671 103.95 137.607 99.446 137.485 99.082 C 137.363 98.718 136.619 98.475 135.833 98.542 C 135.047 98.609 128.939 99.102 122.26 99.636 C 110.175 100.604 110.1 100.618 106.701 102.674 C 104.823 103.809 102.824 104.65 102.258 104.542 C 100.432 104.194 100.764 102.084 102.985 99.927 C 105.029 97.941 105.081 97.776 105.081 93.299 C 105.081 89.047 105.196 88.617 106.642 87.477 C 108.961 85.649 110.159 85.93 111.693 88.666 C 113.142 91.251 113.497 91.319 117.34 89.752 C 118.897 89.117 119.491 89.119 120.688 89.761 C 122.004 90.467 123.806 89.988 139.529 84.749 C 149.091 81.563 157.873 78.475 159.044 77.886 C 161.68 76.561 163.69 74.206 167.874 67.54 C 170.436 63.457 171.939 61.772 174.912 59.642 C 178.506 57.068 178.732 56.989 179.503 58.046 C 180.027 58.765 180.314 60.815 180.314 63.843 L 180.314 68.527 L 183.921 72 C 187.928 75.858 187.914 75.762 185.231 81.112 C 184.248 83.073 183.54 86.013 183.015 90.316 L 182.244 96.639 L 186.028 112.672 C 188.109 121.49 190.489 131.645 191.316 135.237 C 192.144 138.83 193.07 142.377 193.374 143.12 L 193.927 144.472 L 196.36 143.227 C 200.595 141.061 202.03 143.309 198.529 146.627 C 195.71 149.299 186.251 156.312 184.004 157.396 C 182.275 158.23 181.972 158.234 181.17 157.431 C 180.369 156.628 180.466 156.289 182.071 154.265 C 183.059 153.018 183.868 151.811 183.868 151.583 C 183.868 150.884 164.538 118.212 162.435 115.356 C 160.8 113.137 160.08 112.64 158.283 112.49 C 155.324 112.242 152.904 113.586 143.127 120.906 C 133.656 127.996 133.196 128.276 131.003 128.266 C 128.992 128.258 127.051 129.73 117.925 138.185 C 100.064 154.734 87.121 168.915 82.867 176.597 C 76.846 187.468 69.762 192.826 59.068 194.596 C 56.921 194.951 56.506 194.838 55.919 193.74 L 55.919 193.74 Z"/>
   <path fill="#f22c42" d="M 120.084 119.996 C 120.09 120.033 120.094 120.072 120.101 120.11 C 120.383 121.52 119.917 122.368 117.122 125.54 C 110.22 133.372 101.781 142.055 93.77 149.738 C 95.464 151.633 97.64 154.055 99.581 156.138 C 104.812 150.669 110.992 144.609 117.925 138.185 C 124.808 131.808 127.602 129.406 129.423 128.612 C 126.343 125.59 122.853 122.448 120.084 119.996 L 120.084 119.996 Z"/>
   <path fill="#f22c42" d="M 182.499 97.723 C 178.093 101.192 173.373 105.98 170.138 109.223 L 171.967 113.532 C 174.192 118.773 174.211 119.3 172.244 121.359 L 170.69 122.985 L 172.865 126.884 C 174.062 129.029 175.303 130.783 175.625 130.783 C 175.946 130.783 176.879 130.343 177.699 129.805 C 179.483 128.633 179.703 128.819 181.993 133.445 L 183.751 136.998 L 182.593 139.273 C 181.455 141.509 181.455 141.583 182.553 143.44 C 183.528 145.091 183.946 145.31 185.84 145.158 C 187.809 145 188.103 145.179 189.011 147.088 C 190.131 149.443 191.059 149.703 192.649 148.11 C 193.434 147.322 194.08 146.954 193.543 143.533 L 193.374 143.12 C 193.07 142.377 192.144 138.83 191.317 135.237 C 190.49 131.644 188.11 121.49 186.028 112.672 L 182.499 97.723 Z"/>
   <path fill="#f22c42" d="M 153.695 79.89 C 150.015 81.199 144.993 82.928 139.528 84.748 C 127.488 88.76 123.619 89.976 121.873 90.01 L 116.265 91.828 L 107.986 97.259 L 112.133 96.796 L 110.973 98.463 L 116.537 98.195 L 118.982 95.62 C 121.176 95.183 122.506 95.029 124.546 94.862 C 125.285 94.802 122.269 97.738 122.998 97.705 C 125.044 97.612 127.219 97.49 129.466 97.358 C 130.659 97.288 133.598 93.45 134.78 93.121 C 136.656 92.599 138.59 92.628 140.55 92.939 C 144.978 91.648 153.15 80.629 153.695 79.89 L 153.695 79.89 Z"/>
  </g>
 </g>
</svg>
