<svg xmlns="http://www.w3.org/2000/svg" style="isolation:isolate" width="256" height="256" viewBox="0 0 256 256">
 <defs>
  <filter id="QOgGdLgCaLqH8cK3zHAKGAJO7vRnJMYu" width="400%" height="400%" x="-200%" y="-200%" color-interpolation-filters="sRGB" filterUnits="objectBoundingBox">
   <feGaussianBlur xmlns="http://www.w3.org/2000/svg" in="SourceGraphic" stdDeviation="4.294"/>
   <feOffset xmlns="http://www.w3.org/2000/svg" dx="0" dy="4" result="pf_100_offsetBlur"/>
   <feFlood xmlns="http://www.w3.org/2000/svg" flood-opacity=".4"/>
   <feComposite xmlns="http://www.w3.org/2000/svg" in2="pf_100_offsetBlur" operator="in" result="pf_100_dropShadow"/>
   <feBlend xmlns="http://www.w3.org/2000/svg" in="SourceGraphic" in2="pf_100_dropShadow" mode="normal"/>
  </filter>
 </defs>
 <g filter="url(#QOgGdLgCaLqH8cK3zHAKGAJO7vRnJMYu)">
  <linearGradient id="_lgradient_239" x1="0" x2="0" y1="0" y2="1" gradientTransform="matrix(244.648309,0,0,228.338396,5.68,11.95)" gradientUnits="userSpaceOnUse">
   <stop offset="0%" style="stop-color:#4c5561"/>
   <stop offset="100%" style="stop-color:#2e3842"/>
  </linearGradient>
  <path fill="url(#_lgradient_239)" d="M 165.688919 11.95 C 239.744626 11.95 250.328309 22.507198 250.328309 96.493859 L 250.328309 155.744653 C 250.328309 229.73091 239.744626 240.288396 165.688919 240.288396 L 90.319393 240.288396 C 16.26369 240.288396 5.68 229.73091 5.68 155.744653 L 5.68 96.493859 C 5.68 22.507198 16.26369 11.95 90.319393 11.95 L 165.688919 11.95 Z"/>
 </g>
 <g>
  <defs>
   <filter id="s3DLc8kY7XlMisZg1qS8IUJswjdImBI4" width="400%" height="400%" x="-200%" y="-200%" color-interpolation-filters="sRGB" filterUnits="objectBoundingBox">
    <feGaussianBlur xmlns="http://www.w3.org/2000/svg" stdDeviation="4.294"/>
   </filter>
  </defs>
  <g opacity=".4" filter="url(#s3DLc8kY7XlMisZg1qS8IUJswjdImBI4)">
   <path d="M 110.345 184.0175 C 118.190998 181.610563 127.604825 175.002725 132.01775 168.80615 L 133.474288 166.760645 L 131.65112 161.244365 C 124.991473 141.094565 137.08325 120.776465 157.81517 117.27929 C 172.883795 114.73763 188.69327 123.95486 194.144045 138.459515 C 195.441688 141.912388 195.481288 141.948688 195.059135 139.297715 C 193.810498 131.456503 189.928543 124.22744 183.61721 117.98879 C 177.031318 111.479375 169.38266 107.78849 159.82751 106.508915 C 156.894718 106.116133 156.590458 106.227343 155.48735 108.094813 C 153.786613 110.973898 148.83917 115.790495 145.1831 118.125988 C 135.3359 124.417603 120.1559 124.420243 110.284775 118.132876 C 99.13325 111.029461 92.826125 97.425376 94.87295 84.892801 C 95.990413 78.051406 99.002653 71.981551 103.8044 66.896251 C 107.284085 63.210894 107.519623 62.804581 105.508685 63.956116 C 102.122968 65.894866 94.197935 74.506216 91.94816 78.690616 C 89.355268 83.513319 87.249785 92.048191 87.26249 97.685416 C 87.27074 102.535261 88.543138 108.974716 90.407225 113.633491 C 91.493832 116.349061 91.631772 116.434696 95.6567 116.890014 C 97.93007 117.147166 101.522945 117.953851 103.640802 118.682491 C 122.367477 125.125411 131.203227 146.722591 122.435952 164.624266 C 116.46023 176.826016 102.626052 184.683316 89.695003 183.218116 C 84.431915 182.621806 84.990028 183.334771 90.825418 184.662031 C 95.996765 185.838316 105.426268 185.527291 110.344918 184.018201 L 110.345 184.0175 Z"/>
  </g>
  <defs>
   <filter id="z5ijxT1kLR014OKjVXNbNqHEnbR8FvxR" width="400%" height="400%" x="-200%" y="-200%" color-interpolation-filters="sRGB" filterUnits="objectBoundingBox">
    <feGaussianBlur xmlns="http://www.w3.org/2000/svg" stdDeviation="4.294"/>
   </filter>
  </defs>
  <g opacity=".4" filter="url(#z5ijxT1kLR014OKjVXNbNqHEnbR8FvxR)">
   <path d="M 128 47.5625 C 82.488875 47.5625 45.5 84.551375 45.5 130.0625 C 45.5 175.573625 82.488875 212.5625 128 212.5625 C 173.511125 212.5625 210.5 175.573625 210.5 130.0625 C 210.5 84.551375 173.511125 47.5625 128 47.5625 Z M 128 56.42465 C 168.724475 56.42465 201.63785 89.338025 201.63785 130.0625 C 201.63785 170.786975 168.724475 203.70035 128 203.70035 C 87.275525 203.70035 54.36215 170.786975 54.36215 130.0625 C 54.36215 89.338025 87.275525 56.42465 128 56.42465 Z"/>
  </g>
  <g>
   <path fill="#ffffff" d="M 110.345 179.8925 C 118.190998 177.485563 127.604825 170.877725 132.01775 164.68115 L 133.474288 162.635645 L 131.65112 157.119365 C 124.991473 136.969565 137.08325 116.651465 157.81517 113.15429 C 172.883795 110.61263 188.69327 119.82986 194.144045 134.334515 C 195.441688 137.787388 195.481288 137.823688 195.059135 135.172715 C 193.810498 127.331503 189.928543 120.10244 183.61721 113.86379 C 177.031318 107.354375 169.38266 103.66349 159.82751 102.383915 C 156.894718 101.991133 156.590458 102.102343 155.48735 103.969813 C 153.786613 106.848898 148.83917 111.665495 145.1831 114.000988 C 135.3359 120.292603 120.1559 120.295243 110.284775 114.007876 C 99.13325 106.904461 92.826125 93.300376 94.87295 80.767801 C 95.990413 73.926406 99.002653 67.856551 103.8044 62.771251 C 107.284085 59.085894 107.519623 58.679581 105.508685 59.831116 C 102.122968 61.769866 94.197935 70.381216 91.94816 74.565616 C 89.355268 79.388319 87.249785 87.923191 87.26249 93.560416 C 87.27074 98.410261 88.543138 104.849716 90.407225 109.508491 C 91.493832 112.224061 91.631772 112.309696 95.6567 112.765014 C 97.93007 113.022166 101.522945 113.828851 103.640802 114.557491 C 122.367477 121.000411 131.203227 142.597591 122.435952 160.499266 C 116.46023 172.701016 102.626052 180.558316 89.695003 179.093116 C 84.431915 178.496806 84.990028 179.209771 90.825418 180.537031 C 95.996765 181.713316 105.426268 181.402291 110.344918 179.893201 L 110.345 179.8925 Z"/>
   <path fill="#ffffff" d="M 128 43.4375 C 82.488875 43.4375 45.5 80.426375 45.5 125.9375 C 45.5 171.448625 82.488875 208.4375 128 208.4375 C 173.511125 208.4375 210.5 171.448625 210.5 125.9375 C 210.5 80.426375 173.511125 43.4375 128 43.4375 Z M 128 52.29965 C 168.724475 52.29965 201.63785 85.213025 201.63785 125.9375 C 201.63785 166.661975 168.724475 199.57535 128 199.57535 C 87.275525 199.57535 54.36215 166.661975 54.36215 125.9375 C 54.36215 85.213025 87.275525 52.29965 128 52.29965 Z"/>
  </g>
 </g>
</svg>
