<svg xmlns="http://www.w3.org/2000/svg" style="isolation:isolate" width="256" height="256" viewBox="0 0 256 256">
 <defs>
  <filter id="fjndRs9ybTBeWfOBLUgFltmU8pbEFdzy" width="400%" height="400%" x="-200%" y="-200%" color-interpolation-filters="sRGB" filterUnits="objectBoundingBox">
   <feGaussianBlur xmlns="http://www.w3.org/2000/svg" in="SourceGraphic" stdDeviation="4.294"/>
   <feOffset xmlns="http://www.w3.org/2000/svg" dx="0" dy="4" result="pf_100_offsetBlur"/>
   <feFlood xmlns="http://www.w3.org/2000/svg" flood-opacity=".4"/>
   <feComposite xmlns="http://www.w3.org/2000/svg" in2="pf_100_offsetBlur" operator="in" result="pf_100_dropShadow"/>
   <feBlend xmlns="http://www.w3.org/2000/svg" in="SourceGraphic" in2="pf_100_dropShadow" mode="normal"/>
  </filter>
 </defs>
 <g opacity=".8" filter="url(#fjndRs9ybTBeWfOBLUgFltmU8pbEFdzy)">
  <linearGradient id="_lgradient_94" x1=".5" x2=".5" y1="1" y2="-.813" gradientTransform="matrix(244.648309,0,0,228.338396,5.68,11.95)" gradientUnits="userSpaceOnUse">
   <stop offset="0%" style="stop-color:#037164"/>
   <stop offset="100%" style="stop-color:#00ac98"/>
  </linearGradient>
  <path fill="url(#_lgradient_94)" d="M 165.688919 11.95 C 239.744626 11.95 250.328309 22.507198 250.328309 96.493859 L 250.328309 155.744653 C 250.328309 229.73091 239.744626 240.288396 165.688919 240.288396 L 90.319393 240.288396 C 16.26369 240.288396 5.68 229.73091 5.68 155.744653 L 5.68 96.493859 C 5.68 22.507198 16.26369 11.95 90.319393 11.95 L 165.688919 11.95 L 165.688919 11.95 Z"/>
 </g>
 <g opacity=".8">
  <path fill="#008374" fill-rule="evenodd" d="M 165.688919 11.95 C 239.744626 11.95 250.328309 22.507198 250.328309 96.493859 L 250.328309 155.744653 C 250.328309 229.73091 239.744626 240.288396 165.688919 240.288396 L 90.319393 240.288396 C 16.26369 240.288396 5.68 229.73091 5.68 155.744653 L 5.68 96.493859 C 5.68 22.507198 16.26369 11.95 90.319393 11.95 L 165.688919 11.95 L 165.688919 11.95 Z M 165.71 27.95 C 169.97 27.95 174.23 27.99 178.5 28.08 C 182.23 28.16 185.95 28.31 189.68 28.52 C 192.88 28.7 196.08 28.97 199.26 29.32 C 201.94 29.61 204.6 30 207.25 30.49 C 209.4 30.89 211.53 31.39 213.63 32.01 C 215.28 32.49 216.9 33.09 218.47 33.79 C 219.68 34.33 220.84 34.98 221.94 35.72 C 222.85 36.33 223.7 37.03 224.47 37.8 C 225.24 38.57 225.94 39.42 226.55 40.32 C 227.29 41.42 227.94 42.58 228.48 43.79 C 229.18 45.36 229.78 46.97 230.26 48.61 C 230.88 50.71 231.39 52.84 231.79 54.99 C 232.28 57.63 232.67 60.29 232.96 62.96 C 233.31 66.14 233.57 69.33 233.75 72.53 C 233.97 76.25 234.12 79.97 234.2 83.7 C 234.29 87.96 234.33 92.22 234.33 96.48 C 234.33 96.48 234.33 96.49 234.33 96.49 L 234.33 155.74 C 234.33 155.75 234.33 155.76 234.33 155.76 C 234.33 160.02 234.29 164.28 234.2 168.54 C 234.12 172.26 233.97 175.99 233.75 179.71 C 233.57 182.91 233.31 186.1 232.96 189.28 C 232.67 191.95 232.28 194.61 231.79 197.25 C 231.39 199.4 230.88 201.53 230.26 203.62 C 229.78 205.27 229.18 206.88 228.48 208.45 C 227.94 209.65 227.29 210.81 226.55 211.91 C 225.94 212.82 225.24 213.67 224.47 214.44 C 223.7 215.21 222.85 215.91 221.94 216.52 C 220.84 217.26 219.68 217.9 218.47 218.45 C 216.9 219.15 215.28 219.75 213.63 220.23 C 211.53 220.84 209.4 221.35 207.25 221.75 C 204.6 222.24 201.94 222.63 199.26 222.92 C 196.08 223.27 192.88 223.54 189.68 223.72 C 185.95 223.93 182.23 224.08 178.5 224.16 C 174.23 224.25 169.97 224.29 165.71 224.29 C 165.7 224.29 165.69 224.29 165.69 224.29 L 90.32 224.29 C 90.31 224.29 90.31 224.29 90.3 224.29 C 86.04 224.29 81.77 224.25 77.51 224.16 C 73.78 224.08 70.05 223.93 66.33 223.72 C 63.13 223.54 59.93 223.27 56.74 222.92 C 54.07 222.63 51.41 222.24 48.76 221.75 C 46.61 221.35 44.48 220.84 42.38 220.23 C 40.73 219.75 39.11 219.15 37.54 218.45 C 36.33 217.9 35.17 217.26 34.07 216.52 C 33.16 215.91 32.31 215.21 31.54 214.44 C 30.76 213.67 30.07 212.82 29.45 211.91 C 28.71 210.81 28.07 209.65 27.53 208.45 C 26.82 206.88 26.23 205.27 25.75 203.62 C 25.13 201.53 24.62 199.4 24.22 197.25 C 23.73 194.61 23.34 191.95 23.05 189.28 C 22.7 186.1 22.43 182.91 22.25 179.71 C 22.04 175.99 21.89 172.26 21.81 168.54 C 21.72 164.28 21.68 160.02 21.68 155.76 C 21.68 155.76 21.68 155.75 21.68 155.74 L 21.68 96.49 C 21.68 96.49 21.68 96.48 21.68 96.48 C 21.68 92.22 21.72 87.96 21.81 83.7 C 21.89 79.97 22.04 76.25 22.25 72.53 C 22.43 69.33 22.7 66.14 23.05 62.96 C 23.34 60.29 23.73 57.63 24.22 54.99 C 24.62 52.84 25.13 50.71 25.75 48.61 C 26.23 46.97 26.82 45.36 27.53 43.79 C 28.07 42.58 28.71 41.42 29.45 40.32 C 30.07 39.42 30.76 38.57 31.54 37.8 C 32.31 37.03 33.16 36.33 34.07 35.72 C 35.17 34.98 36.33 34.33 37.54 33.79 C 39.11 33.09 40.73 32.49 42.38 32.01 C 44.48 31.39 46.61 30.89 48.76 30.49 C 51.41 30 54.07 29.61 56.74 29.32 C 59.93 28.97 63.13 28.7 66.33 28.52 C 70.05 28.31 73.78 28.16 77.51 28.08 C 81.77 27.99 86.04 27.95 90.3 27.95 C 90.31 27.95 90.31 27.95 90.32 27.95 L 165.69 27.95 C 165.69 27.95 165.7 27.95 165.71 27.95 Z"/>
 </g>
 <g opacity=".4">
  <linearGradient id="_lgradient_95" x1=".517" x2=".517" y1="0" y2="1.209" gradientTransform="matrix(244.65,0,0,228.34,5.68,11.95)" gradientUnits="userSpaceOnUse">
   <stop offset="0%" style="stop-color:#ffffff"/>
   <stop offset="12.5%" stop-opacity=".098" style="stop-color:#ffffff"/>
   <stop offset="92.5%" stop-opacity=".098" style="stop-color:#000000"/>
   <stop offset="100%" stop-opacity=".498" style="stop-color:#000000"/>
  </linearGradient>
  <path fill="url(#_lgradient_95)" fill-rule="evenodd" d="M 165.06803 11.951234 C 169.395994 11.941409 173.723944 11.990533 178.051908 12.088781 C 181.927398 12.167379 185.802873 12.31475 189.678362 12.540721 C 193.1309 12.737216 196.583423 13.022134 200.026115 13.395476 C 203.085193 13.729518 206.144271 14.181458 209.173842 14.741469 C 211.888645 15.242533 214.57394 15.881143 217.219897 16.6573 C 219.619947 17.354858 221.970814 18.219439 224.242988 19.241215 C 226.357793 20.184394 228.384061 21.304417 230.302129 22.591462 C 232.141505 23.829383 233.862851 25.244151 235.436659 26.80629 C 237.000621 28.378252 238.417046 30.087764 239.656409 31.924995 C 240.944972 33.840824 242.066305 35.864728 243.020409 37.967229 C 244.043389 40.246576 244.908985 42.584873 245.617197 44.972292 C 246.394255 47.615155 247.033606 50.297317 247.535265 53.008956 C 248.095924 56.034984 248.548399 59.080665 248.882828 62.13617 C 249.256611 65.574836 249.541856 69.013506 249.738578 72.462003 C 249.964823 76.323139 250.112361 80.194101 250.200884 84.055237 C 250.289421 88.378131 250.338591 92.701032 250.32876 97.014106 L 250.32876 155.225886 C 250.338591 159.54878 250.289421 163.861854 250.200884 168.184747 C 250.112361 172.05571 249.964823 175.916853 249.738578 179.777981 C 249.541856 183.226485 249.256611 186.674975 248.882828 190.103826 C 248.548399 193.15933 248.095924 196.214835 247.535265 199.240851 C 247.033606 201.942664 246.394255 204.624837 245.617197 207.267703 C 244.908985 209.655115 244.043389 212.003235 243.020409 214.272755 C 242.066305 216.38509 240.944972 218.399156 239.656409 220.314999 C 238.417046 222.152226 237.000621 223.871561 235.436659 225.433697 C 233.862851 226.995832 232.141505 228.410601 230.302129 229.648532 C 228.384061 230.935575 226.357793 232.055598 224.242988 232.998768 C 221.970814 234.020552 219.619947 234.885137 217.219897 235.592507 C 214.57394 236.368672 211.888645 237.007276 209.173842 237.498515 C 206.144271 238.068354 203.085193 238.510465 200.026115 238.844519 C 196.583423 239.21785 193.1309 239.502777 189.678362 239.699269 C 185.802873 239.925235 181.927398 240.072615 178.051908 240.161035 C 173.723944 240.249454 169.395994 240.298581 165.06803 240.288762 L 90.941963 240.288762 C 86.614006 240.298581 82.286049 240.249454 77.9581 240.161035 C 74.08261 240.072615 70.20712 239.925235 66.331638 239.699269 C 62.879108 239.502777 59.426578 239.21785 55.983886 238.844519 C 52.924808 238.510465 49.865733 238.068354 46.836162 237.498515 C 44.121356 237.007276 41.436057 236.368672 38.7901 235.592507 C 36.390053 234.885137 34.039187 234.020552 31.767009 232.998768 C 29.652213 232.055598 27.625943 230.935575 25.707871 229.648532 C 23.868489 228.410601 22.147143 226.995832 20.573343 225.433697 C 19.009377 223.871561 17.592955 222.152226 16.353586 220.314999 C 15.065036 218.399156 13.943701 216.38509 12.989584 214.272755 C 11.966612 212.003235 11.101021 209.655115 10.392811 207.267703 C 9.615746 204.624837 8.976389 201.942664 8.47474 199.240851 C 7.914072 196.214835 7.461604 193.15933 7.127172 190.103826 C 6.753394 186.674975 6.468142 183.226485 6.271417 179.777981 C 6.045183 175.916853 5.897639 172.05571 5.809112 168.184747 C 5.720586 163.861854 5.671405 159.54878 5.681241 155.225886 L 5.681241 97.014106 C 5.671405 92.701032 5.720586 88.378131 5.809112 84.055237 C 5.897639 80.194101 6.045183 76.323139 6.271417 72.462003 C 6.468142 69.013506 6.753394 65.574836 7.127172 62.13617 C 7.461604 59.080665 7.914072 56.034984 8.47474 53.008956 C 8.976389 50.297317 9.615746 47.615155 10.392811 44.972292 C 11.101021 42.584873 11.966612 40.246576 12.989584 37.967229 C 13.943701 35.864728 15.065036 33.840824 16.353586 31.924995 C 17.592955 30.087764 19.009377 28.378252 20.573343 26.80629 C 22.147143 25.244151 23.868489 23.829383 25.707871 22.591462 C 27.625943 21.304417 29.652213 20.184394 31.767009 19.241215 C 34.039187 18.219439 36.390053 17.354858 38.7901 16.6573 C 41.436057 15.881143 44.121356 15.242533 46.836162 14.741469 C 49.865733 14.181458 52.924808 13.729518 55.983886 13.395476 C 59.426578 13.022134 62.879108 12.737216 66.331638 12.540721 C 70.20712 12.31475 74.08261 12.167379 77.9581 12.088781 C 82.286049 11.990533 86.614006 11.941409 90.941963 11.951234 L 165.06803 11.951234 L 165.06803 11.951234 Z M 165.077876 15.959741 C 169.376317 15.949916 173.674759 15.99904 177.973216 16.087463 C 181.799522 16.175886 185.625827 16.323257 189.452133 16.539402 C 192.835809 16.735898 196.219486 17.010992 199.583486 17.384332 C 202.554026 17.698726 205.514751 18.131016 208.445953 18.681203 C 211.023049 19.152792 213.580483 19.761928 216.098564 20.498786 C 218.321569 21.147221 220.495374 21.952852 222.600334 22.896029 C 224.508571 23.750785 226.338116 24.762737 228.069293 25.922059 C 229.692286 27.012609 231.207063 28.260355 232.59398 29.645648 C 233.980897 31.030941 235.230091 32.543956 236.331763 34.165043 C 237.492434 35.894202 238.505568 37.711787 239.361333 39.607968 C 240.305606 41.720292 241.112187 43.891565 241.761369 46.102139 C 242.508934 48.617282 243.108947 51.161898 243.590914 53.735987 C 244.131912 56.663768 244.564709 59.6112 244.889308 62.578282 C 245.263091 65.938355 245.538505 69.308252 245.735227 72.687976 C 245.951626 76.509812 246.10901 80.321821 246.187687 84.143656 C 246.276225 88.437084 246.325394 92.720685 246.325394 97.014106 C 246.325394 97.014106 246.325394 97.014106 246.325394 97.014106 L 246.325394 155.225886 C 246.325394 155.225886 246.325394 155.225886 246.325394 155.225886 C 246.325394 159.519306 246.276225 163.802907 246.187687 168.096328 C 246.10901 171.918164 245.951626 175.739999 245.735227 179.552015 C 245.538505 182.931739 245.263091 186.301629 244.889308 189.671533 C 244.564709 192.628784 244.131912 195.576216 243.590914 198.503994 C 243.108947 201.078094 242.508934 203.622706 241.761369 206.137845 C 241.112187 208.358253 240.305606 210.5197 239.361333 212.63202 C 238.505568 214.528209 237.492434 216.355617 236.331763 218.074952 C 235.230091 219.705853 233.980897 221.218876 232.59398 222.604172 C 231.207063 223.979634 229.692286 225.227385 228.069293 226.317935 C 226.338116 227.477251 224.508571 228.489201 222.600334 229.343951 C 220.495374 230.296956 218.321569 231.092775 216.098564 231.741198 C 213.580483 232.478056 211.023049 233.087202 208.445953 233.558787 C 205.514751 234.108972 202.554026 234.541264 199.583486 234.865483 C 196.219486 235.228995 192.835809 235.513922 189.452133 235.70058 C 185.625827 235.916726 181.799522 236.073926 177.973216 236.152526 C 173.674759 236.25078 169.376317 236.290072 165.077876 236.290072 C 165.077876 236.290072 165.077876 236.290072 165.06803 236.290072 L 90.941963 236.290072 C 90.932125 236.290072 90.932125 236.290072 90.932125 236.290072 C 86.633683 236.290072 82.335234 236.25078 78.036784 236.152526 C 74.210479 236.073926 70.384173 235.916726 66.557868 235.70058 C 63.174195 235.513922 59.790522 235.228995 56.426518 234.865483 C 53.455967 234.541264 50.495253 234.108972 47.564048 233.558787 C 44.986944 233.087202 42.429517 232.478056 39.911433 231.741198 C 37.688439 231.092775 35.514626 230.296956 33.409665 229.343951 C 31.501429 228.489201 29.671886 227.477251 27.940703 226.317935 C 26.31772 225.227385 24.802935 223.979634 23.416022 222.604172 C 22.029109 221.218876 20.779904 219.705853 19.678243 218.074952 C 18.517564 216.355617 17.504428 214.528209 16.648674 212.63202 C 15.704392 210.5197 14.897819 208.358253 14.248626 206.137845 C 13.50107 203.622706 12.901057 201.078094 12.419081 198.503994 C 11.878086 195.576216 11.445291 192.628784 11.120694 189.671533 C 10.746916 186.301629 10.471501 182.931739 10.274776 179.552015 C 10.058378 175.739999 9.900997 171.918164 9.822307 168.096328 C 9.733781 163.802907 9.6846 159.519306 9.6846 155.225886 C 9.6846 155.225886 9.6846 155.225886 9.6846 155.225886 L 9.6846 97.014106 C 9.6846 97.014106 9.6846 97.014106 9.6846 97.014106 C 9.6846 92.720685 9.733781 88.437084 9.822307 84.143656 C 9.900997 80.321821 10.058378 76.509812 10.274776 72.687976 C 10.471501 69.308252 10.746916 65.938355 11.120694 62.578282 C 11.445291 59.6112 11.878086 56.663768 12.419081 53.735987 C 12.901057 51.161898 13.50107 48.617282 14.248626 46.102139 C 14.897819 43.891565 15.704392 41.720292 16.648674 39.607968 C 17.504428 37.711787 18.517564 35.894202 19.678243 34.165043 C 20.779904 32.543956 22.029109 31.030941 23.416022 29.645648 C 24.802935 28.260355 26.31772 27.012609 27.940703 25.922059 C 29.671886 24.762737 31.501429 23.750785 33.409665 22.896029 C 35.514626 21.952852 37.688439 21.147221 39.911433 20.498786 C 42.429517 19.761928 44.986944 19.152792 47.564048 18.681203 C 50.495253 18.131016 53.455967 17.698726 56.426518 17.384332 C 59.790522 17.010992 63.174195 16.735898 66.557868 16.539402 C 70.384173 16.323257 74.210479 16.175886 78.036784 16.087463 C 82.335234 15.99904 86.633683 15.949916 90.932125 15.959741 C 90.932125 15.959741 90.932125 15.959741 90.941963 15.959741 L 165.06803 15.959741 C 165.077876 15.959741 165.077876 15.959741 165.077876 15.959741 Z"/>
 </g>
 <g>
  <g style="opacity:0.2">
   <g opacity=".2">
    <ellipse cx="60.609" cy="88.345" rx="10.109" ry="10.345" vector-effect="non-scaling-stroke"/>
   </g>
  </g>
  <g style="opacity:0.2">
   <g opacity=".2">
    <ellipse cx="94.304" cy="88.345" rx="10.109" ry="10.345" vector-effect="non-scaling-stroke"/>
   </g>
  </g>
  <g style="opacity:0.2">
   <g opacity=".2">
    <ellipse cx="128" cy="88.345" rx="10.109" ry="10.345" vector-effect="non-scaling-stroke"/>
   </g>
  </g>
  <g style="opacity:0.2">
   <g opacity=".2">
    <ellipse cx="161.696" cy="88.345" rx="10.109" ry="10.345" vector-effect="non-scaling-stroke"/>
   </g>
  </g>
  <g style="opacity:0.2">
   <g opacity=".2">
    <ellipse cx="195.391" cy="88.345" rx="10.109" ry="10.345" vector-effect="non-scaling-stroke"/>
   </g>
  </g>
  <g style="opacity:0.2">
   <g opacity=".2">
    <ellipse cx="80.826" cy="129.724" rx="10.109" ry="10.345" vector-effect="non-scaling-stroke"/>
   </g>
  </g>
  <g style="opacity:0.2">
   <g opacity=".2">
    <ellipse cx="114.522" cy="129.724" rx="10.109" ry="10.345" vector-effect="non-scaling-stroke"/>
   </g>
  </g>
  <g style="opacity:0.2">
   <g opacity=".2">
    <ellipse cx="148.217" cy="129.724" rx="10.109" ry="10.345" vector-effect="non-scaling-stroke"/>
   </g>
  </g>
  <g style="opacity:0.2">
   <g opacity=".2">
    <ellipse cx="181.913" cy="129.724" rx="10.109" ry="10.345" vector-effect="non-scaling-stroke"/>
   </g>
  </g>
  <g style="opacity:0.2">
   <g opacity=".2">
    <path d="M 69.091301 160.758621 L 193.64783 160.758621 C 196.469793 160.758621 198.76087 163.049697 198.76087 165.871661 L 198.76087 176.335236 C 198.76087 179.157199 196.469793 181.448276 193.64783 181.448276 L 69.091301 181.448276 C 66.269337 181.448276 63.978261 179.157199 63.978261 176.335236 L 63.978261 165.871661 C 63.978261 163.049697 66.269337 160.758621 69.091301 160.758621 Z"/>
   </g>
  </g>
  <linearGradient id="_lgradient_96" x1="0" x2="0" y1="0" y2=".414" gradientTransform="matrix(20.217391,0,0,20.689655,50.5,74.551724)" gradientUnits="userSpaceOnUse">
   <stop offset="0%" style="stop-color:#e0e5e7"/>
   <stop offset="100%" style="stop-color:#c7ced2"/>
  </linearGradient>
  <ellipse fill="url(#_lgradient_96)" cx="60.609" cy="84.897" rx="10.109" ry="10.345" vector-effect="non-scaling-stroke"/>
  <linearGradient id="_lgradient_97" x1="0" x2="0" y1="0" y2="1" gradientTransform="matrix(20.217391,0,0,20.689655,84.195652,74.551724)" gradientUnits="userSpaceOnUse">
   <stop offset="0%" style="stop-color:#e0e5e7"/>
   <stop offset="100%" style="stop-color:#c7ced2"/>
  </linearGradient>
  <ellipse fill="url(#_lgradient_97)" cx="94.304" cy="84.897" rx="10.109" ry="10.345" vector-effect="non-scaling-stroke"/>
  <linearGradient id="_lgradient_98" x1="0" x2="0" y1="0" y2="1" gradientTransform="matrix(20.217391,0,0,20.689655,117.891304,74.551724)" gradientUnits="userSpaceOnUse">
   <stop offset="0%" style="stop-color:#e0e5e7"/>
   <stop offset="100%" style="stop-color:#c7ced2"/>
  </linearGradient>
  <ellipse fill="url(#_lgradient_98)" cx="128" cy="84.897" rx="10.109" ry="10.345" vector-effect="non-scaling-stroke"/>
  <linearGradient id="_lgradient_99" x1="0" x2="0" y1="0" y2="1" gradientTransform="matrix(20.217391,0,0,20.689655,151.586957,74.551724)" gradientUnits="userSpaceOnUse">
   <stop offset="0%" style="stop-color:#e0e5e7"/>
   <stop offset="100%" style="stop-color:#c7ced2"/>
  </linearGradient>
  <ellipse fill="url(#_lgradient_99)" cx="161.696" cy="84.897" rx="10.109" ry="10.345" vector-effect="non-scaling-stroke"/>
  <linearGradient id="_lgradient_100" x1="0" x2="0" y1="0" y2="1" gradientTransform="matrix(20.217391,0,0,20.689655,185.282609,74.551724)" gradientUnits="userSpaceOnUse">
   <stop offset="0%" style="stop-color:#e0e5e7"/>
   <stop offset="100%" style="stop-color:#c7ced2"/>
  </linearGradient>
  <ellipse fill="url(#_lgradient_100)" cx="195.391" cy="84.897" rx="10.109" ry="10.345" vector-effect="non-scaling-stroke"/>
  <linearGradient id="_lgradient_101" x1="0" x2="0" y1="0" y2="1" gradientTransform="matrix(20.217391,0,0,20.689655,70.717391,115.931034)" gradientUnits="userSpaceOnUse">
   <stop offset="0%" style="stop-color:#e0e5e7"/>
   <stop offset="100%" style="stop-color:#c7ced2"/>
  </linearGradient>
  <ellipse fill="url(#_lgradient_101)" cx="80.826" cy="126.276" rx="10.109" ry="10.345" vector-effect="non-scaling-stroke"/>
  <linearGradient id="_lgradient_102" x1="0" x2="0" y1="0" y2="1" gradientTransform="matrix(20.217391,0,0,20.689655,104.413043,115.931034)" gradientUnits="userSpaceOnUse">
   <stop offset="0%" style="stop-color:#e0e5e7"/>
   <stop offset="100%" style="stop-color:#c7ced2"/>
  </linearGradient>
  <ellipse fill="url(#_lgradient_102)" cx="114.522" cy="126.276" rx="10.109" ry="10.345" vector-effect="non-scaling-stroke"/>
  <linearGradient id="_lgradient_103" x1="0" x2="0" y1="0" y2="1" gradientTransform="matrix(20.217391,0,0,20.689655,138.108696,115.931034)" gradientUnits="userSpaceOnUse">
   <stop offset="0%" style="stop-color:#e0e5e7"/>
   <stop offset="100%" style="stop-color:#c7ced2"/>
  </linearGradient>
  <ellipse fill="url(#_lgradient_103)" cx="148.217" cy="126.276" rx="10.109" ry="10.345" vector-effect="non-scaling-stroke"/>
  <linearGradient id="_lgradient_104" x1="0" x2="0" y1="0" y2="1" gradientTransform="matrix(20.217391,0,0,20.689655,171.804348,115.931034)" gradientUnits="userSpaceOnUse">
   <stop offset="0%" style="stop-color:#e0e5e7"/>
   <stop offset="100%" style="stop-color:#c7ced2"/>
  </linearGradient>
  <ellipse fill="url(#_lgradient_104)" cx="181.913" cy="126.276" rx="10.109" ry="10.345" vector-effect="non-scaling-stroke"/>
  <linearGradient id="_lgradient_105" x1="0" x2="0" y1=".5" y2="-.5" gradientTransform="matrix(134.782609,0,0,20.689655,63.978261,157.310345)" gradientUnits="userSpaceOnUse">
   <stop offset="0%" style="stop-color:#cfd6d9"/>
   <stop offset="66.667%" style="stop-color:#e0e5e7"/>
  </linearGradient>
  <path fill="url(#_lgradient_105)" d="M 69.091301 157.310345 L 193.64783 157.310345 C 196.469793 157.310345 198.76087 159.601421 198.76087 162.423385 L 198.76087 172.88696 C 198.76087 175.708924 196.469793 178 193.64783 178 L 69.091301 178 C 66.269337 178 63.978261 175.708924 63.978261 172.88696 L 63.978261 162.423385 C 63.978261 159.601421 66.269337 157.310345 69.091301 157.310345 Z"/>
 </g>
</svg>
