<svg xmlns="http://www.w3.org/2000/svg" style="isolation:isolate" width="256" height="256" viewBox="0 0 256 256">
 <defs>
  <filter id="8TQAfL3s6xulso8kyXm8GtTEgmtHrtH7" width="400%" height="400%" x="-200%" y="-200%" color-interpolation-filters="sRGB" filterUnits="objectBoundingBox">
   <feGaussianBlur xmlns="http://www.w3.org/2000/svg" in="SourceGraphic" stdDeviation="4.294"/>
   <feOffset xmlns="http://www.w3.org/2000/svg" dx="0" dy="4" result="pf_100_offsetBlur"/>
   <feFlood xmlns="http://www.w3.org/2000/svg" flood-opacity=".4"/>
   <feComposite xmlns="http://www.w3.org/2000/svg" in2="pf_100_offsetBlur" operator="in" result="pf_100_dropShadow"/>
   <feBlend xmlns="http://www.w3.org/2000/svg" in="SourceGraphic" in2="pf_100_dropShadow" mode="normal"/>
  </filter>
 </defs>
 <g filter="url(#8TQAfL3s6xulso8kyXm8GtTEgmtHrtH7)">
  <linearGradient id="_lgradient_117" x1="0" x2="0" y1="0" y2="1" gradientTransform="matrix(244.648,0,0,228.338,5.43,11.452)" gradientUnits="userSpaceOnUse">
   <stop offset="0%" style="stop-color:#545e63"/>
   <stop offset="100%" style="stop-color:#343b40"/>
  </linearGradient>
  <path fill="url(#_lgradient_117)" d="M 165.439 11.452 C 239.495 11.452 250.078 22.009 250.078 95.995 L 250.078 155.246 C 250.078 229.233 239.495 239.79 165.439 239.79 L 90.069 239.79 C 16.014 239.79 5.43 229.233 5.43 155.246 L 5.43 95.995 C 5.43 22.009 16.014 11.452 90.069 11.452 L 165.439 11.452 Z"/>
 </g>
 <g opacity=".4">
  <linearGradient id="_lgradient_118" x1=".517" x2=".517" y1="0" y2="1" gradientTransform="matrix(244.65,0,0,228.34,5.68,11.95)" gradientUnits="userSpaceOnUse">
   <stop offset="0%" style="stop-color:#ffffff"/>
   <stop offset="12.5%" stop-opacity=".098" style="stop-color:#ffffff"/>
   <stop offset="92.5%" stop-opacity=".098" style="stop-color:#000000"/>
   <stop offset="100%" stop-opacity=".498" style="stop-color:#000000"/>
  </linearGradient>
  <path fill="url(#_lgradient_118)" fill-rule="evenodd" d="M 165.068 11.951 C 169.396 11.941 173.724 11.991 178.052 12.089 C 181.927 12.167 185.803 12.315 189.678 12.541 C 193.131 12.737 196.583 13.022 200.026 13.395 C 203.085 13.73 206.144 14.181 209.174 14.741 C 211.889 15.243 214.574 15.881 217.22 16.657 C 219.62 17.355 221.971 18.219 224.243 19.241 C 226.358 20.184 228.384 21.304 230.302 22.591 C 232.142 23.829 233.863 25.244 235.437 26.806 C 237.001 28.378 238.417 30.088 239.656 31.925 C 240.945 33.841 242.066 35.865 243.02 37.967 C 244.043 40.247 244.909 42.585 245.617 44.972 C 246.394 47.615 247.034 50.297 247.535 53.009 C 248.096 56.035 248.548 59.081 248.883 62.136 C 249.257 65.575 249.542 69.014 249.739 72.462 C 249.965 76.323 250.112 80.194 250.201 84.055 C 250.289 88.378 250.339 92.701 250.329 97.014 L 250.329 155.226 C 250.339 159.549 250.289 163.862 250.201 168.185 C 250.112 172.056 249.965 175.917 249.739 179.778 C 249.542 183.226 249.257 186.675 248.883 190.104 C 248.548 193.159 248.096 196.215 247.535 199.241 C 247.034 201.943 246.394 204.625 245.617 207.268 C 244.909 209.655 244.043 212.003 243.02 214.273 C 242.066 216.385 240.945 218.399 239.656 220.315 C 238.417 222.152 237.001 223.872 235.437 225.434 C 233.863 226.996 232.142 228.411 230.302 229.649 C 228.384 230.936 226.358 232.056 224.243 232.999 C 221.971 234.021 219.62 234.885 217.22 235.593 C 214.574 236.369 211.889 237.007 209.174 237.499 C 206.144 238.068 203.085 238.51 200.026 238.845 C 196.583 239.218 193.131 239.503 189.678 239.699 C 185.803 239.925 181.927 240.073 178.052 240.161 C 173.724 240.249 169.396 240.299 165.068 240.289 L 90.942 240.289 C 86.614 240.299 82.286 240.249 77.958 240.161 C 74.083 240.073 70.207 239.925 66.332 239.699 C 62.879 239.503 59.427 239.218 55.984 238.845 C 52.925 238.51 49.866 238.068 46.836 237.499 C 44.121 237.007 41.436 236.369 38.79 235.593 C 36.39 234.885 34.039 234.021 31.767 232.999 C 29.652 232.056 27.626 230.936 25.708 229.649 C 23.868 228.411 22.147 226.996 20.573 225.434 C 19.009 223.872 17.593 222.152 16.354 220.315 C 15.065 218.399 13.944 216.385 12.99 214.273 C 11.967 212.003 11.101 209.655 10.393 207.268 C 9.616 204.625 8.976 201.943 8.475 199.241 C 7.914 196.215 7.462 193.159 7.127 190.104 C 6.753 186.675 6.468 183.226 6.271 179.778 C 6.045 175.917 5.898 172.056 5.809 168.185 C 5.721 163.862 5.671 159.549 5.681 155.226 L 5.681 97.014 C 5.671 92.701 5.721 88.378 5.809 84.055 C 5.898 80.194 6.045 76.323 6.271 72.462 C 6.468 69.014 6.753 65.575 7.127 62.136 C 7.462 59.081 7.914 56.035 8.475 53.009 C 8.976 50.297 9.616 47.615 10.393 44.972 C 11.101 42.585 11.967 40.247 12.99 37.967 C 13.944 35.865 15.065 33.841 16.354 31.925 C 17.593 30.088 19.009 28.378 20.573 26.806 C 22.147 25.244 23.868 23.829 25.708 22.591 C 27.626 21.304 29.652 20.184 31.767 19.241 C 34.039 18.219 36.39 17.355 38.79 16.657 C 41.436 15.881 44.121 15.243 46.836 14.741 C 49.866 14.181 52.925 13.73 55.984 13.395 C 59.427 13.022 62.879 12.737 66.332 12.541 C 70.207 12.315 74.083 12.167 77.958 12.089 C 82.286 11.991 86.614 11.941 90.942 11.951 L 165.068 11.951 Z M 165.078 15.96 C 169.376 15.95 173.675 15.999 177.973 16.087 C 181.8 16.176 185.626 16.323 189.452 16.539 C 192.836 16.736 196.219 17.011 199.583 17.384 C 202.554 17.699 205.515 18.131 208.446 18.681 C 211.023 19.153 213.58 19.762 216.099 20.499 C 218.322 21.147 220.495 21.953 222.6 22.896 C 224.509 23.751 226.338 24.763 228.069 25.922 C 229.692 27.013 231.207 28.26 232.594 29.646 C 233.981 31.031 235.23 32.544 236.332 34.165 C 237.492 35.894 238.506 37.712 239.361 39.608 C 240.306 41.72 241.112 43.892 241.761 46.102 C 242.509 48.617 243.109 51.162 243.591 53.736 C 244.132 56.664 244.565 59.611 244.889 62.578 C 245.263 65.938 245.539 69.308 245.735 72.688 C 245.952 76.51 246.109 80.322 246.188 84.144 C 246.276 88.437 246.325 92.721 246.325 97.014 C 246.325 97.014 246.325 97.014 246.325 97.014 L 246.325 155.226 C 246.325 155.226 246.325 155.226 246.325 155.226 C 246.325 159.519 246.276 163.803 246.188 168.096 C 246.109 171.918 245.952 175.74 245.735 179.552 C 245.539 182.932 245.263 186.302 244.889 189.672 C 244.565 192.629 244.132 195.576 243.591 198.504 C 243.109 201.078 242.509 203.623 241.761 206.138 C 241.112 208.358 240.306 210.52 239.361 212.632 C 238.506 214.528 237.492 216.356 236.332 218.075 C 235.23 219.706 233.981 221.219 232.594 222.604 C 231.207 223.98 229.692 225.227 228.069 226.318 C 226.338 227.477 224.509 228.489 222.6 229.344 C 220.495 230.297 218.322 231.093 216.099 231.741 C 213.58 232.478 211.023 233.087 208.446 233.559 C 205.515 234.109 202.554 234.541 199.583 234.865 C 196.219 235.229 192.836 235.514 189.452 235.701 C 185.626 235.917 181.8 236.074 177.973 236.153 C 173.675 236.251 169.376 236.29 165.078 236.29 C 165.078 236.29 165.078 236.29 165.068 236.29 L 90.942 236.29 C 90.932 236.29 90.932 236.29 90.932 236.29 C 86.634 236.29 82.335 236.251 78.037 236.153 C 74.21 236.074 70.384 235.917 66.558 235.701 C 63.174 235.514 59.791 235.229 56.427 234.865 C 53.456 234.541 50.495 234.109 47.564 233.559 C 44.987 233.087 42.43 232.478 39.911 231.741 C 37.688 231.093 35.515 230.297 33.41 229.344 C 31.501 228.489 29.672 227.477 27.941 226.318 C 26.318 225.227 24.803 223.98 23.416 222.604 C 22.029 221.219 20.78 219.706 19.678 218.075 C 18.518 216.356 17.504 214.528 16.649 212.632 C 15.704 210.52 14.898 208.358 14.249 206.138 C 13.501 203.623 12.901 201.078 12.419 198.504 C 11.878 195.576 11.445 192.629 11.121 189.672 C 10.747 186.302 10.472 182.932 10.275 179.552 C 10.058 175.74 9.901 171.918 9.822 168.096 C 9.734 163.803 9.685 159.519 9.685 155.226 C 9.685 155.226 9.685 155.226 9.685 155.226 L 9.685 97.014 C 9.685 97.014 9.685 97.014 9.685 97.014 C 9.685 92.721 9.734 88.437 9.822 84.144 C 9.901 80.322 10.058 76.51 10.275 72.688 C 10.472 69.308 10.747 65.938 11.121 62.578 C 11.445 59.611 11.878 56.664 12.419 53.736 C 12.901 51.162 13.501 48.617 14.249 46.102 C 14.898 43.892 15.704 41.72 16.649 39.608 C 17.504 37.712 18.518 35.894 19.678 34.165 C 20.78 32.544 22.029 31.031 23.416 29.646 C 24.803 28.26 26.318 27.013 27.941 25.922 C 29.672 24.763 31.501 23.751 33.41 22.896 C 35.515 21.953 37.688 21.147 39.911 20.499 C 42.43 19.762 44.987 19.153 47.564 18.681 C 50.495 18.131 53.456 17.699 56.427 17.384 C 59.791 17.011 63.174 16.736 66.558 16.539 C 70.384 16.323 74.21 16.176 78.037 16.087 C 82.335 15.999 86.634 15.95 90.932 15.96 C 90.932 15.96 90.932 15.96 90.942 15.96 L 165.068 15.96 C 165.078 15.96 165.078 15.96 165.078 15.96 Z"/>
 </g>
 <g>
  <g opacity=".2">
   <path fill-rule="evenodd" d="M 128.012 144.536 L 153.432 195.38 L 102.592 195.38 L 128.012 144.536 Z"/>
  </g>
  <defs>
   <filter id="FtzlgsoD4oWRTJywi5ThTxA0cnaI3TVS" width="400%" height="400%" x="-200%" y="-200%" color-interpolation-filters="sRGB" filterUnits="objectBoundingBox">
    <feGaussianBlur xmlns="http://www.w3.org/2000/svg" stdDeviation="4.294"/>
   </filter>
  </defs>
  <g opacity=".4" filter="url(#FtzlgsoD4oWRTJywi5ThTxA0cnaI3TVS)">
   <path fill-rule="evenodd" d="M 102.562 200.5 L 128 144.536 L 153.438 200.5 L 166.422 200.5 C 180.466 200.5 180.466 155.029 183.964 144.536 L 72.036 144.536 C 75.534 155.029 75.375 200.482 89.509 200.5 L 102.562 200.5 Z"/>
  </g>
  <linearGradient id="_lgradient_119" x1="0" x2="0" y1="0" y2="1" gradientTransform="matrix(50.84,0,0,50.844,102.592,141.992)" gradientUnits="userSpaceOnUse">
   <stop offset="0%" style="stop-color:#4c5561"/>
   <stop offset="100%" style="stop-color:#2e3842"/>
  </linearGradient>
  <path fill="url(#_lgradient_119)" fill-rule="evenodd" d="M 153.432 192.836 L 102.592 192.836 L 128.012 141.992 L 153.432 192.836 Z"/>
  <linearGradient id="_lgradient_120" x1=".5" x2=".5" y1="0" y2="1" gradientTransform="matrix(111.928,0,0,55.964,72.036,141.992)" gradientUnits="userSpaceOnUse">
   <stop offset="0%" style="stop-color:#1ad6ab"/>
   <stop offset="100%" style="stop-color:#329db6"/>
  </linearGradient>
  <path fill="url(#_lgradient_120)" fill-rule="evenodd" d="M 102.562 197.956 L 128 141.992 L 153.438 197.956 L 166.422 197.956 C 180.466 197.956 180.466 152.486 183.964 141.992 L 72.036 141.992 C 75.534 152.486 75.375 197.938 89.509 197.956 L 102.562 197.956 Z"/>
  <g opacity=".1">
   <path fill-rule="evenodd" d="M 64.729 129.273 C 63.847 129.274 63.014 129.691 62.471 130.402 C 61.927 131.113 61.733 132.041 61.944 132.918 L 63.623 139.945 L 64.19 142.293 C 64.504 143.608 65.653 144.533 66.975 144.536 L 69.379 144.536 C 69.381 144.536 69.384 144.536 69.386 144.536 L 105.73 144.48 C 105.773 144.481 105.816 144.481 105.859 144.48 L 110.194 144.48 C 110.326 144.508 110.461 144.527 110.596 144.536 L 113.158 144.536 L 128 144.536 L 142.841 144.536 L 145.404 144.536 C 145.539 144.527 145.673 144.508 145.805 144.48 L 150.14 144.48 C 150.183 144.481 150.226 144.481 150.27 144.48 L 186.613 144.536 C 186.616 144.536 186.618 144.536 186.621 144.536 L 189.025 144.536 C 190.347 144.533 191.496 143.608 191.81 142.293 L 192.377 139.945 L 194.056 132.918 C 194.267 132.041 194.073 131.113 193.529 130.402 C 192.986 129.691 192.153 129.274 191.271 129.273 L 147.177 129.273 L 108.823 129.273 L 64.729 129.273 L 64.729 129.273 Z"/>
  </g>
  <g opacity=".2">
   <path fill-rule="evenodd" d="M 102.17 200.5 L 87.433 177.11 C 87.198 176.733 87.28 176.222 87.619 175.959 C 87.619 175.959 101.4 165.234 108.291 159.872 C 109.177 159.183 128 144.536 128 144.536 L 102.17 200.5 L 102.17 200.5 L 102.17 200.5 Z"/>
  </g>
  <path fill="#ffffff" fill-rule="evenodd" d="M 102.17 197.956 L 87.433 174.566 C 87.198 174.189 87.28 173.678 87.619 173.415 C 87.619 173.415 101.4 162.691 108.291 157.328 C 109.177 156.639 128 141.992 128 141.992 L 102.17 197.956 L 102.17 197.956 L 102.17 197.956 Z"/>
  <linearGradient id="_lgradient_121" x1=".5" x2=".5" y1="0" y2="1" gradientTransform="matrix(132.279,0,0,74.67,61.861,55.502)" gradientUnits="userSpaceOnUse">
   <stop offset="0%" style="stop-color:#1ad6ab"/>
   <stop offset="100%" style="stop-color:#329db6"/>
  </linearGradient>
  <path fill="url(#_lgradient_121)" fill-rule="evenodd" d="M 127.871 55.502 C 127.659 55.93 127.408 56.396 127.153 56.826 C 126.972 57.172 126.723 57.574 126.536 57.924 C 125.238 60.067 121.294 66.345 113.403 71.226 C 103.997 76.639 90.774 81.084 80.211 80.943 C 80.211 80.943 62.866 127.642 62.176 129.161 C 62.072 129.227 61.964 129.308 61.861 129.379 L 62.097 129.379 C 62.09 129.379 61.862 130.022 61.861 130.02 L 61.904 130.172 L 61.947 130.172 C 62.32 129.928 62.71 129.633 63.088 129.377 L 193.544 129.377 C 193.739 129.499 193.945 129.652 194.139 129.774 L 194.139 129.702 L 194.017 129.377 L 194.139 129.377 C 194.088 129.326 194.033 129.306 193.982 129.275 L 175.832 80.937 C 165.8 81.125 154.29 77.41 146.839 73.487 C 138.23 68.859 132.561 62.543 130.261 58.875 C 130.207 58.773 130.134 58.651 130.081 58.544 C 129.615 57.608 129.148 56.676 128.682 55.778 C 128.385 55.702 128.125 55.58 127.871 55.504 L 127.871 55.502 Z"/>
  <g opacity=".1">
   <path fill="#ffffff" fill-rule="evenodd" d="M 127.871 55.505 C 127.659 55.932 127.41 56.397 127.155 56.827 C 126.974 57.173 126.722 57.575 126.534 57.925 C 125.236 60.068 121.293 66.344 113.403 71.225 C 103.996 76.638 90.776 81.084 80.213 80.944 C 80.213 80.944 62.868 127.644 62.178 129.163 C 62.074 129.229 61.963 129.31 61.86 129.381 L 62.098 129.381 C 62.091 129.381 61.861 130.024 61.86 130.022 L 61.904 130.171 L 61.949 130.171 C 62.307 129.937 62.678 129.655 63.042 129.406 C 65.11 124.134 80.213 83.487 80.213 83.487 C 90.776 83.628 103.996 79.181 113.403 73.769 C 121.293 68.888 125.236 62.611 126.534 60.469 C 126.722 60.118 126.974 59.716 127.155 59.37 C 127.41 58.941 127.659 58.476 127.871 58.049 C 128.125 58.125 128.384 58.246 128.681 58.322 C 129.147 59.22 129.615 60.153 130.082 61.09 C 130.135 61.196 130.207 61.316 130.261 61.417 C 132.561 65.085 138.232 71.402 146.84 76.03 C 154.292 79.952 165.799 83.671 175.832 83.483 L 193.062 129.376 L 193.544 129.376 C 193.74 129.498 193.946 129.652 194.14 129.774 L 194.14 129.704 L 194.016 129.376 L 194.14 129.376 C 194.089 129.325 194.033 129.307 193.981 129.277 L 175.832 80.939 C 165.799 81.127 154.292 77.409 146.84 73.486 C 138.232 68.858 132.561 62.541 130.261 58.874 C 130.207 58.772 130.135 58.653 130.082 58.546 C 129.615 57.61 129.147 56.676 128.681 55.778 C 128.384 55.702 128.125 55.581 127.871 55.505 Z"/>
  </g>
  <linearGradient id="_lgradient_122" x1=".5" x2=".5" y1="0" y2="1" gradientTransform="matrix(132.279,0,0,73.879,61.861,55.5)" gradientUnits="userSpaceOnUse">
   <stop offset="0%" style="stop-color:#1ad6ab"/>
   <stop offset="100%" style="stop-color:#329db6"/>
  </linearGradient>
  <path fill="url(#_lgradient_122)" fill-rule="evenodd" d="M 194.139 129.379 L 194.139 129.379 C 183.703 122.862 171.4 111.734 158.673 98.466 C 144.8 84.027 135.848 69.745 130.079 58.546 C 129.612 57.609 129.145 56.673 128.679 55.775 C 128.382 55.698 128.127 55.581 127.873 55.5 C 127.661 55.927 127.406 56.398 127.152 56.827 C 121.127 68.26 111.879 82.738 97.836 97.528 C 85.067 110.991 72.509 122.509 61.861 129.378"/>
  <g opacity=".1">
   <path fill="#ffffff" fill-rule="evenodd" d="M 127.871 55.5 C 127.659 55.927 127.405 56.398 127.15 56.827 C 121.126 68.26 111.879 82.738 97.836 97.528 C 85.067 110.991 72.508 122.508 61.86 129.376 L 65.581 129.376 C 75.381 122.383 86.523 112 97.836 100.072 C 111.879 85.282 121.126 70.804 127.15 59.37 C 127.405 58.942 127.659 58.471 127.871 58.044 C 128.125 58.125 128.384 58.241 128.681 58.317 C 129.147 59.215 129.61 60.153 130.077 61.09 C 135.847 72.29 144.798 86.573 158.67 101.011 C 169.876 112.692 180.751 122.704 190.315 129.381 L 194.14 129.381 C 183.704 122.864 171.398 111.735 158.67 98.467 C 144.798 84.029 135.847 69.746 130.077 58.546 C 129.61 57.609 129.147 56.671 128.681 55.773 C 128.384 55.697 128.125 55.581 127.871 55.5 Z"/>
  </g>
  <path fill="#12a486" fill-rule="evenodd" d="M 64.729 126.729 C 63.847 126.731 63.014 127.147 62.471 127.858 C 61.927 128.57 61.733 129.497 61.944 130.374 L 63.623 137.401 L 64.19 139.749 C 64.504 141.064 65.653 141.989 66.975 141.992 L 69.379 141.992 C 69.381 141.992 69.384 141.992 69.386 141.992 L 105.73 141.936 C 105.773 141.937 105.816 141.937 105.859 141.936 L 110.194 141.936 C 110.326 141.965 110.461 141.983 110.596 141.992 L 113.158 141.992 L 128 141.992 L 142.841 141.992 L 145.404 141.992 C 145.539 141.983 145.673 141.965 145.805 141.936 L 150.14 141.936 C 150.183 141.937 150.226 141.937 150.27 141.936 L 186.613 141.992 C 186.616 141.992 186.618 141.992 186.621 141.992 L 189.025 141.992 C 190.347 141.989 191.496 141.064 191.81 139.749 L 192.377 137.401 L 194.056 130.374 C 194.267 129.497 194.073 128.569 193.529 127.858 C 192.986 127.147 192.153 126.73 191.271 126.729 L 147.177 126.729 L 108.823 126.729 L 64.729 126.729 L 64.729 126.729 Z"/>
  <g opacity=".2">
   <path fill-rule="evenodd" d="M 153.829 200.5 L 168.567 177.11 C 168.802 176.733 168.72 176.222 168.381 175.959 C 168.381 175.959 154.6 165.234 147.709 159.872 C 146.823 159.183 128 144.536 128 144.536 L 153.829 200.5 L 153.829 200.5 L 153.829 200.5 Z"/>
  </g>
  <path fill="#ffffff" fill-rule="evenodd" d="M 153.829 197.956 L 168.567 174.566 C 168.802 174.189 168.72 173.678 168.381 173.415 C 168.381 173.415 154.6 162.691 147.709 157.328 C 146.823 156.639 128 141.992 128 141.992 L 153.829 197.956 L 153.829 197.956 L 153.829 197.956 Z"/>
 </g>
</svg>
