<svg xmlns="http://www.w3.org/2000/svg" style="isolation:isolate" width="256" height="256" viewBox="0 0 256 256">
 <defs>
  <filter id="oVrT97mx0edWlWtesWZMEevwozovvB3u" width="400%" height="400%" x="-200%" y="-200%" color-interpolation-filters="sRGB" filterUnits="objectBoundingBox">
   <feGaussianBlur xmlns="http://www.w3.org/2000/svg" in="SourceGraphic" stdDeviation="4.294"/>
   <feOffset xmlns="http://www.w3.org/2000/svg" dx="0" dy="4" result="pf_100_offsetBlur"/>
   <feFlood xmlns="http://www.w3.org/2000/svg" flood-opacity=".4"/>
   <feComposite xmlns="http://www.w3.org/2000/svg" in2="pf_100_offsetBlur" operator="in" result="pf_100_dropShadow"/>
   <feBlend xmlns="http://www.w3.org/2000/svg" in="SourceGraphic" in2="pf_100_dropShadow" mode="normal"/>
  </filter>
 </defs>
 <g filter="url(#oVrT97mx0edWlWtesWZMEevwozovvB3u)">
  <linearGradient id="_lgradient_2" x1=".993" x2=".002" y1=".988" y2=".193" gradientTransform="matrix(244.648309,0,0,228.338396,5.681691,11.95)" gradientUnits="userSpaceOnUse">
   <stop offset="0%" style="stop-color:#343b40"/>
   <stop offset="100%" style="stop-color:#555e63"/>
  </linearGradient>
  <path fill="url(#_lgradient_2)" d="M 165.690609 11.95 C 239.746317 11.95 250.33 22.507198 250.33 96.493859 L 250.33 155.744653 C 250.33 229.73091 239.746317 240.288396 165.690609 240.288396 L 90.321084 240.288396 C 16.26538 240.288396 5.681691 229.73091 5.681691 155.744653 L 5.681691 96.493859 C 5.681691 22.507198 16.26538 11.95 90.321084 11.95 L 165.690609 11.95 Z"/>
 </g>
 <g opacity=".4">
  <linearGradient id="_lgradient_3" x1=".517" x2=".517" y1="0" y2="1" gradientTransform="matrix(244.65,0,0,228.34,5.68,11.95)" gradientUnits="userSpaceOnUse">
   <stop offset="0%" style="stop-color:#ffffff"/>
   <stop offset="12.5%" stop-opacity=".098" style="stop-color:#ffffff"/>
   <stop offset="92.5%" stop-opacity=".098" style="stop-color:#000000"/>
   <stop offset="100%" stop-opacity=".498" style="stop-color:#000000"/>
  </linearGradient>
  <path fill="url(#_lgradient_3)" fill-rule="evenodd" d="M 165.06803 11.951234 C 169.395994 11.941409 173.723944 11.990533 178.051908 12.088781 C 181.927398 12.167379 185.802873 12.31475 189.678362 12.540721 C 193.1309 12.737216 196.583423 13.022134 200.026115 13.395476 C 203.085193 13.729518 206.144271 14.181458 209.173842 14.741469 C 211.888645 15.242533 214.57394 15.881143 217.219897 16.6573 C 219.619947 17.354858 221.970814 18.219439 224.242988 19.241215 C 226.357793 20.184394 228.384061 21.304417 230.302129 22.591462 C 232.141505 23.829383 233.862851 25.244151 235.436659 26.80629 C 237.000621 28.378252 238.417046 30.087764 239.656409 31.924995 C 240.944972 33.840824 242.066305 35.864728 243.020409 37.967229 C 244.043389 40.246576 244.908985 42.584873 245.617197 44.972292 C 246.394255 47.615155 247.033606 50.297317 247.535265 53.008956 C 248.095924 56.034984 248.548399 59.080665 248.882828 62.13617 C 249.256611 65.574836 249.541856 69.013506 249.738578 72.462003 C 249.964823 76.323139 250.112361 80.194101 250.200884 84.055237 C 250.289421 88.378131 250.338591 92.701032 250.32876 97.014106 L 250.32876 155.225886 C 250.338591 159.54878 250.289421 163.861854 250.200884 168.184747 C 250.112361 172.05571 249.964823 175.916853 249.738578 179.777981 C 249.541856 183.226485 249.256611 186.674975 248.882828 190.103826 C 248.548399 193.15933 248.095924 196.214835 247.535265 199.240851 C 247.033606 201.942664 246.394255 204.624837 245.617197 207.267703 C 244.908985 209.655115 244.043389 212.003235 243.020409 214.272755 C 242.066305 216.38509 240.944972 218.399156 239.656409 220.314999 C 238.417046 222.152226 237.000621 223.871561 235.436659 225.433697 C 233.862851 226.995832 232.141505 228.410601 230.302129 229.648532 C 228.384061 230.935575 226.357793 232.055598 224.242988 232.998768 C 221.970814 234.020552 219.619947 234.885137 217.219897 235.592507 C 214.57394 236.368672 211.888645 237.007276 209.173842 237.498515 C 206.144271 238.068354 203.085193 238.510465 200.026115 238.844519 C 196.583423 239.21785 193.1309 239.502777 189.678362 239.699269 C 185.802873 239.925235 181.927398 240.072615 178.051908 240.161035 C 173.723944 240.249454 169.395994 240.298581 165.06803 240.288762 L 90.941963 240.288762 C 86.614006 240.298581 82.286049 240.249454 77.9581 240.161035 C 74.08261 240.072615 70.20712 239.925235 66.331638 239.699269 C 62.879108 239.502777 59.426578 239.21785 55.983886 238.844519 C 52.924808 238.510465 49.865733 238.068354 46.836162 237.498515 C 44.121356 237.007276 41.436057 236.368672 38.7901 235.592507 C 36.390053 234.885137 34.039187 234.020552 31.767009 232.998768 C 29.652213 232.055598 27.625943 230.935575 25.707871 229.648532 C 23.868489 228.410601 22.147143 226.995832 20.573343 225.433697 C 19.009377 223.871561 17.592955 222.152226 16.353586 220.314999 C 15.065036 218.399156 13.943701 216.38509 12.989584 214.272755 C 11.966612 212.003235 11.101021 209.655115 10.392811 207.267703 C 9.615746 204.624837 8.976389 201.942664 8.47474 199.240851 C 7.914072 196.214835 7.461604 193.15933 7.127172 190.103826 C 6.753394 186.674975 6.468142 183.226485 6.271417 179.777981 C 6.045183 175.916853 5.897639 172.05571 5.809112 168.184747 C 5.720586 163.861854 5.671405 159.54878 5.681241 155.225886 L 5.681241 97.014106 C 5.671405 92.701032 5.720586 88.378131 5.809112 84.055237 C 5.897639 80.194101 6.045183 76.323139 6.271417 72.462003 C 6.468142 69.013506 6.753394 65.574836 7.127172 62.13617 C 7.461604 59.080665 7.914072 56.034984 8.47474 53.008956 C 8.976389 50.297317 9.615746 47.615155 10.392811 44.972292 C 11.101021 42.584873 11.966612 40.246576 12.989584 37.967229 C 13.943701 35.864728 15.065036 33.840824 16.353586 31.924995 C 17.592955 30.087764 19.009377 28.378252 20.573343 26.80629 C 22.147143 25.244151 23.868489 23.829383 25.707871 22.591462 C 27.625943 21.304417 29.652213 20.184394 31.767009 19.241215 C 34.039187 18.219439 36.390053 17.354858 38.7901 16.6573 C 41.436057 15.881143 44.121356 15.242533 46.836162 14.741469 C 49.865733 14.181458 52.924808 13.729518 55.983886 13.395476 C 59.426578 13.022134 62.879108 12.737216 66.331638 12.540721 C 70.20712 12.31475 74.08261 12.167379 77.9581 12.088781 C 82.286049 11.990533 86.614006 11.941409 90.941963 11.951234 L 165.06803 11.951234 Z M 165.077876 15.959741 C 169.376317 15.949916 173.674759 15.99904 177.973216 16.087463 C 181.799522 16.175886 185.625827 16.323257 189.452133 16.539402 C 192.835809 16.735898 196.219486 17.010992 199.583486 17.384332 C 202.554026 17.698726 205.514751 18.131016 208.445953 18.681203 C 211.023049 19.152792 213.580483 19.761928 216.098564 20.498786 C 218.321569 21.147221 220.495374 21.952852 222.600334 22.896029 C 224.508571 23.750785 226.338116 24.762737 228.069293 25.922059 C 229.692286 27.012609 231.207063 28.260355 232.59398 29.645648 C 233.980897 31.030941 235.230091 32.543956 236.331763 34.165043 C 237.492434 35.894202 238.505568 37.711787 239.361333 39.607968 C 240.305606 41.720292 241.112187 43.891565 241.761369 46.102139 C 242.508934 48.617282 243.108947 51.161898 243.590914 53.735987 C 244.131912 56.663768 244.564709 59.6112 244.889308 62.578282 C 245.263091 65.938355 245.538505 69.308252 245.735227 72.687976 C 245.951626 76.509812 246.10901 80.321821 246.187687 84.143656 C 246.276225 88.437084 246.325394 92.720685 246.325394 97.014106 C 246.325394 97.014106 246.325394 97.014106 246.325394 97.014106 L 246.325394 155.225886 C 246.325394 155.225886 246.325394 155.225886 246.325394 155.225886 C 246.325394 159.519306 246.276225 163.802907 246.187687 168.096328 C 246.10901 171.918164 245.951626 175.739999 245.735227 179.552015 C 245.538505 182.931739 245.263091 186.301629 244.889308 189.671533 C 244.564709 192.628784 244.131912 195.576216 243.590914 198.503994 C 243.108947 201.078094 242.508934 203.622706 241.761369 206.137845 C 241.112187 208.358253 240.305606 210.5197 239.361333 212.63202 C 238.505568 214.528209 237.492434 216.355617 236.331763 218.074952 C 235.230091 219.705853 233.980897 221.218876 232.59398 222.604172 C 231.207063 223.979634 229.692286 225.227385 228.069293 226.317935 C 226.338116 227.477251 224.508571 228.489201 222.600334 229.343951 C 220.495374 230.296956 218.321569 231.092775 216.098564 231.741198 C 213.580483 232.478056 211.023049 233.087202 208.445953 233.558787 C 205.514751 234.108972 202.554026 234.541264 199.583486 234.865483 C 196.219486 235.228995 192.835809 235.513922 189.452133 235.70058 C 185.625827 235.916726 181.799522 236.073926 177.973216 236.152526 C 173.674759 236.25078 169.376317 236.290072 165.077876 236.290072 C 165.077876 236.290072 165.077876 236.290072 165.06803 236.290072 L 90.941963 236.290072 C 90.932125 236.290072 90.932125 236.290072 90.932125 236.290072 C 86.633683 236.290072 82.335234 236.25078 78.036784 236.152526 C 74.210479 236.073926 70.384173 235.916726 66.557868 235.70058 C 63.174195 235.513922 59.790522 235.228995 56.426518 234.865483 C 53.455967 234.541264 50.495253 234.108972 47.564048 233.558787 C 44.986944 233.087202 42.429517 232.478056 39.911433 231.741198 C 37.688439 231.092775 35.514626 230.296956 33.409665 229.343951 C 31.501429 228.489201 29.671886 227.477251 27.940703 226.317935 C 26.31772 225.227385 24.802935 223.979634 23.416022 222.604172 C 22.029109 221.218876 20.779904 219.705853 19.678243 218.074952 C 18.517564 216.355617 17.504428 214.528209 16.648674 212.63202 C 15.704392 210.5197 14.897819 208.358253 14.248626 206.137845 C 13.50107 203.622706 12.901057 201.078094 12.419081 198.503994 C 11.878086 195.576216 11.445291 192.628784 11.120694 189.671533 C 10.746916 186.301629 10.471501 182.931739 10.274776 179.552015 C 10.058378 175.739999 9.900997 171.918164 9.822307 168.096328 C 9.733781 163.802907 9.6846 159.519306 9.6846 155.225886 C 9.6846 155.225886 9.6846 155.225886 9.6846 155.225886 L 9.6846 97.014106 C 9.6846 97.014106 9.6846 97.014106 9.6846 97.014106 C 9.6846 92.720685 9.733781 88.437084 9.822307 84.143656 C 9.900997 80.321821 10.058378 76.509812 10.274776 72.687976 C 10.471501 69.308252 10.746916 65.938355 11.120694 62.578282 C 11.445291 59.6112 11.878086 56.663768 12.419081 53.735987 C 12.901057 51.161898 13.50107 48.617282 14.248626 46.102139 C 14.897819 43.891565 15.704392 41.720292 16.648674 39.607968 C 17.504428 37.711787 18.517564 35.894202 19.678243 34.165043 C 20.779904 32.543956 22.029109 31.030941 23.416022 29.645648 C 24.802935 28.260355 26.31772 27.012609 27.940703 25.922059 C 29.671886 24.762737 31.501429 23.750785 33.409665 22.896029 C 35.514626 21.952852 37.688439 21.147221 39.911433 20.498786 C 42.429517 19.761928 44.986944 19.152792 47.564048 18.681203 C 50.495253 18.131016 53.455967 17.698726 56.426518 17.384332 C 59.790522 17.010992 63.174195 16.735898 66.557868 16.539402 C 70.384173 16.323257 74.210479 16.175886 78.036784 16.087463 C 82.335234 15.99904 86.633683 15.949916 90.932125 15.959741 C 90.932125 15.959741 90.932125 15.959741 90.941963 15.959741 L 165.06803 15.959741 C 165.077876 15.959741 165.077876 15.959741 165.077876 15.959741 Z"/>
 </g>
 <g>
  <defs>
   <filter id="Ja7mXnRqziMgmld3gU5xLg2y04KUWfP6" width="400%" height="400%" x="-200%" y="-200%" color-interpolation-filters="sRGB" filterUnits="objectBoundingBox">
    <feGaussianBlur xmlns="http://www.w3.org/2000/svg" stdDeviation="4.294"/>
   </filter>
  </defs>
  <g opacity=".4" filter="url(#Ja7mXnRqziMgmld3gU5xLg2y04KUWfP6)">
   <path fill="#333333" d="M 44.375 131.0495 C 44.375 177.2034 81.846107 214.6745 128 214.6745 C 174.1539 214.6745 211.625 177.2034 211.625 131.0495 C 211.625 84.895607 174.1539 47.4245 128 47.4245 C 81.846107 47.4245 44.375 84.895607 44.375 131.0495 Z"/>
  </g>
  <path fill="#5d5d5d" d="M 44.375 127.0495 C 44.375 173.2034 81.846107 210.6745 128 210.6745 C 174.1539 210.6745 211.625 173.2034 211.625 127.0495 C 211.625 80.895607 174.1539 43.4245 128 43.4245 C 81.846107 43.4245 44.375 80.895607 44.375 127.0495 Z"/>
  <g opacity=".2">
   <path d="M 128 200.221497 C 88.638 200.221497 56.729 168.3125 56.729 128.9505 C 56.729 89.588501 88.638 57.679501 128 57.679501 C 167.362 57.679501 199.270996 89.588501 199.270996 128.9505 C 199.270996 168.3125 167.362 200.221497 128 200.221497 Z"/>
  </g>
  <radialGradient id="_rgradient_0" cx=".5" cy=".5" r=".5" fx=".5" fy=".5" gradientTransform="matrix(140,-0.092097,0,142.550696,57.666667,55.816749)" gradientUnits="userSpaceOnUse">
   <stop offset="0%" style="stop-color:#e6548b"/>
   <stop offset="100%" style="stop-color:#f76363"/>
  </radialGradient>
  <path fill="url(#_rgradient_0)" d="M 129.292999 198.309494 C 95.053001 198.931503 65.210999 175.111496 58.226002 141.585495 C 51.242001 108.059502 69.089996 74.304497 100.730003 61.2015 C 132.371002 48.098499 168.856995 59.351501 187.621002 87.999504 L 128 127.050499 L 129.292999 198.309494 L 129.292999 198.309494 L 129.292999 198.309494 L 129.292999 198.309494 Z"/>
  <radialGradient id="_rgradient_1" cx=".5" cy=".5" r=".5" fx=".5" fy=".5" gradientTransform="matrix(141.333333,-0.267339,0,141.600672,57.666667,57.13367)" gradientUnits="userSpaceOnUse">
   <stop offset="0%" style="stop-color:#007de8"/>
   <stop offset="100%" style="stop-color:#07b3ff"/>
  </radialGradient>
  <path fill="url(#_rgradient_1)" d="M 182.597 81.237503 C 202.690994 105.184502 204.834 139.430496 187.884003 165.696503 L 128 127.050499 L 182.597 81.237503 L 182.597 81.237503 L 182.597 81.237503 L 182.597 81.237503 Z"/>
  <radialGradient id="_rgradient_2" cx=".5" cy=".5" r=".5" fx=".5" fy=".5" gradientTransform="matrix(104,92.843661,2.666667,143.156339,76.333333,9.57817)" gradientUnits="userSpaceOnUse">
   <stop offset="0%" style="stop-color:#f37e40"/>
   <stop offset="100%" style="stop-color:#fac82e"/>
  </radialGradient>
  <path fill="url(#_rgradient_2)" d="M 192.593994 157.170502 C 186.412003 170.426498 176.302002 181.459503 163.634995 188.772507 L 128 127.050499 L 192.593994 157.170502 L 192.593994 157.170502 L 192.593994 157.170502 L 192.593994 157.170502 Z"/>
  <radialGradient id="_rgradient_3" cx=".5" cy=".5" r=".5" fx=".5" fy=".498" gradientTransform="matrix(139.333333,-1.372095,0,144.038762,59.666667,56.686048)" gradientUnits="userSpaceOnUse">
   <stop offset="0%" style="stop-color:#2ea33c"/>
   <stop offset="100%" style="stop-color:#41d753"/>
  </radialGradient>
  <path fill="url(#_rgradient_3)" d="M 168.899002 185.418503 C 151.639008 197.512497 129.910995 201.347504 109.553001 195.892502 L 128 127.050499 L 168.899002 185.418503 L 168.899002 185.418503 L 168.899002 185.418503 L 168.899002 185.418503 Z"/>
  <g opacity=".2">
   <path fill="#f9f9f9" d="M 55.778 51.0275 C 53.679001 51.0275 51.977001 52.7295 51.977001 54.828499 C 51.977001 55.836502 52.377998 56.803501 53.09 57.516502 C 53.803001 58.2295 54.77 58.629501 55.778 58.629501 C 56.785999 58.629501 57.752998 58.2295 58.466 57.516502 C 59.179001 56.803501 59.578999 55.836502 59.578999 54.828499 C 59.578999 52.7295 57.877998 51.0275 55.778 51.0275 L 55.778 51.0275 L 55.778 51.0275 L 55.778 51.0275 L 55.778 51.0275 Z M 200.220993 51.0275 C 198.121994 51.0275 196.419998 52.7295 196.419998 54.828499 C 196.419998 55.836502 196.820999 56.803501 197.533997 57.516502 C 198.246002 58.2295 199.212997 58.629501 200.220993 58.629501 C 201.229996 58.629501 202.195999 58.2295 202.908997 57.516502 C 203.621994 56.803501 204.022995 55.836502 204.022995 54.828499 C 204.022995 52.7295 202.320999 51.0275 200.220993 51.0275 L 200.220993 51.0275 L 200.220993 51.0275 L 200.220993 51.0275 L 200.220993 51.0275 Z M 55.778 195.470505 C 53.679001 195.470505 51.977001 197.172501 51.977001 199.2715 C 51.977001 200.279495 52.377998 201.246506 53.09 201.959503 C 53.803001 202.672501 54.77 203.072495 55.778 203.072495 C 56.785999 203.072495 57.752998 202.672501 58.466 201.959503 C 59.179001 201.246506 59.578999 200.279495 59.578999 199.2715 C 59.578999 197.172501 57.877998 195.470505 55.778 195.470505 L 55.778 195.470505 L 55.778 195.470505 L 55.778 195.470505 L 55.778 195.470505 Z M 200.220993 195.470505 C 198.121994 195.470505 196.419998 197.172501 196.419998 199.2715 C 196.419998 200.279495 196.820999 201.246506 197.533997 201.959503 C 198.246002 202.672501 199.212997 203.072495 200.220993 203.072495 C 201.229996 203.072495 202.195999 202.672501 202.908997 201.959503 C 203.621994 201.246506 204.022995 200.279495 204.022995 199.2715 C 204.022995 197.172501 202.320999 195.470505 200.220993 195.470505 L 200.220993 195.470505 L 200.220993 195.470505 L 200.220993 195.470505 L 200.220993 195.470505 Z"/>
  </g>
  <g opacity=".2">
   <path fill="#ffffff" d="M 128 55.7785 C 88.638 55.7785 56.729 87.6875 56.729 127.0495 C 56.729 127.3685 56.749001 127.682503 56.752998 128.000504 C 57.264 89.078499 88.957001 57.679501 128 57.679501 C 167.042999 57.679501 198.735992 89.078499 199.246994 128.000504 C 199.251007 127.682503 199.270996 127.3685 199.270996 127.0495 C 199.270996 87.6875 167.362 55.7785 128 55.7785 L 128 55.7785 L 128 55.7785 L 128 55.7785 L 128 55.7785 Z"/>
  </g>
 </g>
</svg>
