<svg xmlns="http://www.w3.org/2000/svg" style="isolation:isolate" width="256" height="256" viewBox="0 0 256 256">
 <defs>
  <filter id="FjI0UYCnHyrlZH9vijprzsMyN7a8qrDQ" width="400%" height="400%" x="-200%" y="-200%" color-interpolation-filters="sRGB" filterUnits="objectBoundingBox">
   <feGaussianBlur xmlns="http://www.w3.org/2000/svg" in="SourceGraphic" stdDeviation="4.294"/>
   <feOffset xmlns="http://www.w3.org/2000/svg" dx="0" dy="4" result="pf_100_offsetBlur"/>
   <feFlood xmlns="http://www.w3.org/2000/svg" flood-opacity=".4"/>
   <feComposite xmlns="http://www.w3.org/2000/svg" in2="pf_100_offsetBlur" operator="in" result="pf_100_dropShadow"/>
   <feBlend xmlns="http://www.w3.org/2000/svg" in="SourceGraphic" in2="pf_100_dropShadow" mode="normal"/>
  </filter>
 </defs>
 <g filter="url(#FjI0UYCnHyrlZH9vijprzsMyN7a8qrDQ)">
  <linearGradient id="_lgradient_24" x1="0" x2="0" y1="0" y2="1" gradientTransform="matrix(244.648,0,0,228.338,5.43,11.577)" gradientUnits="userSpaceOnUse">
   <stop offset="0%" style="stop-color:#4c5561"/>
   <stop offset="100%" style="stop-color:#2e3842"/>
  </linearGradient>
  <path fill="url(#_lgradient_24)" d="M 165.439 11.577 C 239.495 11.577 250.078 22.134 250.078 96.12 L 250.078 155.371 C 250.078 229.358 239.495 239.915 165.439 239.915 L 90.069 239.915 C 16.014 239.915 5.43 229.358 5.43 155.371 L 5.43 96.12 C 5.43 22.134 16.014 11.577 90.069 11.577 L 165.439 11.577 Z"/>
 </g>
 <g opacity=".4">
  <linearGradient id="_lgradient_25" x1=".517" x2=".517" y1="0" y2="1" gradientTransform="matrix(244.65,0,0,228.34,5.68,11.95)" gradientUnits="userSpaceOnUse">
   <stop offset="0%" style="stop-color:#ffffff"/>
   <stop offset="12.5%" stop-opacity=".098" style="stop-color:#ffffff"/>
   <stop offset="92.5%" stop-opacity=".098" style="stop-color:#000000"/>
   <stop offset="100%" stop-opacity=".498" style="stop-color:#000000"/>
  </linearGradient>
  <path fill="url(#_lgradient_25)" fill-rule="evenodd" d="M 165.068 11.951 C 169.396 11.941 173.724 11.991 178.052 12.089 C 181.927 12.167 185.803 12.315 189.678 12.541 C 193.131 12.737 196.583 13.022 200.026 13.395 C 203.085 13.73 206.144 14.181 209.174 14.741 C 211.889 15.243 214.574 15.881 217.22 16.657 C 219.62 17.355 221.971 18.219 224.243 19.241 C 226.358 20.184 228.384 21.304 230.302 22.591 C 232.142 23.829 233.863 25.244 235.437 26.806 C 237.001 28.378 238.417 30.088 239.656 31.925 C 240.945 33.841 242.066 35.865 243.02 37.967 C 244.043 40.247 244.909 42.585 245.617 44.972 C 246.394 47.615 247.034 50.297 247.535 53.009 C 248.096 56.035 248.548 59.081 248.883 62.136 C 249.257 65.575 249.542 69.014 249.739 72.462 C 249.965 76.323 250.112 80.194 250.201 84.055 C 250.289 88.378 250.339 92.701 250.329 97.014 L 250.329 155.226 C 250.339 159.549 250.289 163.862 250.201 168.185 C 250.112 172.056 249.965 175.917 249.739 179.778 C 249.542 183.226 249.257 186.675 248.883 190.104 C 248.548 193.159 248.096 196.215 247.535 199.241 C 247.034 201.943 246.394 204.625 245.617 207.268 C 244.909 209.655 244.043 212.003 243.02 214.273 C 242.066 216.385 240.945 218.399 239.656 220.315 C 238.417 222.152 237.001 223.872 235.437 225.434 C 233.863 226.996 232.142 228.411 230.302 229.649 C 228.384 230.936 226.358 232.056 224.243 232.999 C 221.971 234.021 219.62 234.885 217.22 235.593 C 214.574 236.369 211.889 237.007 209.174 237.499 C 206.144 238.068 203.085 238.51 200.026 238.845 C 196.583 239.218 193.131 239.503 189.678 239.699 C 185.803 239.925 181.927 240.073 178.052 240.161 C 173.724 240.249 169.396 240.299 165.068 240.289 L 90.942 240.289 C 86.614 240.299 82.286 240.249 77.958 240.161 C 74.083 240.073 70.207 239.925 66.332 239.699 C 62.879 239.503 59.427 239.218 55.984 238.845 C 52.925 238.51 49.866 238.068 46.836 237.499 C 44.121 237.007 41.436 236.369 38.79 235.593 C 36.39 234.885 34.039 234.021 31.767 232.999 C 29.652 232.056 27.626 230.936 25.708 229.649 C 23.868 228.411 22.147 226.996 20.573 225.434 C 19.009 223.872 17.593 222.152 16.354 220.315 C 15.065 218.399 13.944 216.385 12.99 214.273 C 11.967 212.003 11.101 209.655 10.393 207.268 C 9.616 204.625 8.976 201.943 8.475 199.241 C 7.914 196.215 7.462 193.159 7.127 190.104 C 6.753 186.675 6.468 183.226 6.271 179.778 C 6.045 175.917 5.898 172.056 5.809 168.185 C 5.721 163.862 5.671 159.549 5.681 155.226 L 5.681 97.014 C 5.671 92.701 5.721 88.378 5.809 84.055 C 5.898 80.194 6.045 76.323 6.271 72.462 C 6.468 69.014 6.753 65.575 7.127 62.136 C 7.462 59.081 7.914 56.035 8.475 53.009 C 8.976 50.297 9.616 47.615 10.393 44.972 C 11.101 42.585 11.967 40.247 12.99 37.967 C 13.944 35.865 15.065 33.841 16.354 31.925 C 17.593 30.088 19.009 28.378 20.573 26.806 C 22.147 25.244 23.868 23.829 25.708 22.591 C 27.626 21.304 29.652 20.184 31.767 19.241 C 34.039 18.219 36.39 17.355 38.79 16.657 C 41.436 15.881 44.121 15.243 46.836 14.741 C 49.866 14.181 52.925 13.73 55.984 13.395 C 59.427 13.022 62.879 12.737 66.332 12.541 C 70.207 12.315 74.083 12.167 77.958 12.089 C 82.286 11.991 86.614 11.941 90.942 11.951 L 165.068 11.951 Z M 165.078 15.96 C 169.376 15.95 173.675 15.999 177.973 16.087 C 181.8 16.176 185.626 16.323 189.452 16.539 C 192.836 16.736 196.219 17.011 199.583 17.384 C 202.554 17.699 205.515 18.131 208.446 18.681 C 211.023 19.153 213.58 19.762 216.099 20.499 C 218.322 21.147 220.495 21.953 222.6 22.896 C 224.509 23.751 226.338 24.763 228.069 25.922 C 229.692 27.013 231.207 28.26 232.594 29.646 C 233.981 31.031 235.23 32.544 236.332 34.165 C 237.492 35.894 238.506 37.712 239.361 39.608 C 240.306 41.72 241.112 43.892 241.761 46.102 C 242.509 48.617 243.109 51.162 243.591 53.736 C 244.132 56.664 244.565 59.611 244.889 62.578 C 245.263 65.938 245.539 69.308 245.735 72.688 C 245.952 76.51 246.109 80.322 246.188 84.144 C 246.276 88.437 246.325 92.721 246.325 97.014 C 246.325 97.014 246.325 97.014 246.325 97.014 L 246.325 155.226 C 246.325 155.226 246.325 155.226 246.325 155.226 C 246.325 159.519 246.276 163.803 246.188 168.096 C 246.109 171.918 245.952 175.74 245.735 179.552 C 245.539 182.932 245.263 186.302 244.889 189.672 C 244.565 192.629 244.132 195.576 243.591 198.504 C 243.109 201.078 242.509 203.623 241.761 206.138 C 241.112 208.358 240.306 210.52 239.361 212.632 C 238.506 214.528 237.492 216.356 236.332 218.075 C 235.23 219.706 233.981 221.219 232.594 222.604 C 231.207 223.98 229.692 225.227 228.069 226.318 C 226.338 227.477 224.509 228.489 222.6 229.344 C 220.495 230.297 218.322 231.093 216.099 231.741 C 213.58 232.478 211.023 233.087 208.446 233.559 C 205.515 234.109 202.554 234.541 199.583 234.865 C 196.219 235.229 192.836 235.514 189.452 235.701 C 185.626 235.917 181.8 236.074 177.973 236.153 C 173.675 236.251 169.376 236.29 165.078 236.29 C 165.078 236.29 165.078 236.29 165.068 236.29 L 90.942 236.29 C 90.932 236.29 90.932 236.29 90.932 236.29 C 86.634 236.29 82.335 236.251 78.037 236.153 C 74.21 236.074 70.384 235.917 66.558 235.701 C 63.174 235.514 59.791 235.229 56.427 234.865 C 53.456 234.541 50.495 234.109 47.564 233.559 C 44.987 233.087 42.43 232.478 39.911 231.741 C 37.688 231.093 35.515 230.297 33.41 229.344 C 31.501 228.489 29.672 227.477 27.941 226.318 C 26.318 225.227 24.803 223.98 23.416 222.604 C 22.029 221.219 20.78 219.706 19.678 218.075 C 18.518 216.356 17.504 214.528 16.649 212.632 C 15.704 210.52 14.898 208.358 14.249 206.138 C 13.501 203.623 12.901 201.078 12.419 198.504 C 11.878 195.576 11.445 192.629 11.121 189.672 C 10.747 186.302 10.472 182.932 10.275 179.552 C 10.058 175.74 9.901 171.918 9.822 168.096 C 9.734 163.803 9.685 159.519 9.685 155.226 C 9.685 155.226 9.685 155.226 9.685 155.226 L 9.685 97.014 C 9.685 97.014 9.685 97.014 9.685 97.014 C 9.685 92.721 9.734 88.437 9.822 84.144 C 9.901 80.322 10.058 76.51 10.275 72.688 C 10.472 69.308 10.747 65.938 11.121 62.578 C 11.445 59.611 11.878 56.664 12.419 53.736 C 12.901 51.162 13.501 48.617 14.249 46.102 C 14.898 43.892 15.704 41.72 16.649 39.608 C 17.504 37.712 18.518 35.894 19.678 34.165 C 20.78 32.544 22.029 31.031 23.416 29.646 C 24.803 28.26 26.318 27.013 27.941 25.922 C 29.672 24.763 31.501 23.751 33.41 22.896 C 35.515 21.953 37.688 21.147 39.911 20.499 C 42.43 19.762 44.987 19.153 47.564 18.681 C 50.495 18.131 53.456 17.699 56.427 17.384 C 59.791 17.011 63.174 16.736 66.558 16.539 C 70.384 16.323 74.21 16.176 78.037 16.087 C 82.335 15.999 86.634 15.95 90.932 15.96 C 90.932 15.96 90.932 15.96 90.942 15.96 L 165.068 15.96 C 165.078 15.96 165.078 15.96 165.078 15.96 Z"/>
 </g>
 <g opacity=".2">
  <path fill="#ececec" d="M 111.323 53.5 L 111.323 64.694 C 134.732 64.694 130.831 56.869 144.764 53.5 C 124.142 53.5 126.929 60.776 111.323 53.5 Z M 139.191 64.694 L 96.341 77.641 C 113.062 94.432 107.488 127.97 107.488 128.536 L 155.912 123.464 C 155.912 123.464 166.49 84.855 139.191 64.694 Z M 155.912 70.291 C 155.912 70.291 170.414 90.973 169.845 118.393 C 183.211 117.823 200.5 115.069 200.5 115.069 C 200.5 115.069 174.304 83.713 155.912 70.291 Z M 61.161 115.069 C 57.26 115.069 55.019 118.349 55.588 121.718 L 58.898 139.204 C 59.461 141.437 61.73 143.055 63.948 143.055 C 66.735 143.055 68.936 144.806 70.045 147.605 C 70.045 147.605 73.222 158.71 77.882 166.495 C 72.877 170.408 65.62 171.566 61.161 171.566 C 58.943 171.566 57.26 171.611 55.588 171.04 L 55.588 181.188 C 57.26 181.188 58.943 181.709 61.161 181.709 C 70.636 181.709 74.526 179.436 77.882 176.637 C 82.887 180.556 90.144 181.709 94.602 181.709 C 99.061 181.709 106.318 180.55 111.323 176.637 C 116.328 180.556 123.585 181.709 128.044 181.709 C 132.503 181.709 139.759 180.55 144.764 176.637 C 149.769 180.556 157.026 181.709 161.485 181.709 C 165.944 181.709 173.201 180.55 178.206 176.637 C 183.211 180.556 190.468 181.709 194.926 181.709 C 197.145 181.709 198.828 181.054 200.5 180.488 L 200.5 170.514 C 198.828 171.085 197.145 171.566 194.926 171.566 C 190.468 171.566 183.211 170.408 178.206 166.49 C 177.203 167.279 176.032 167.85 174.895 168.415 C 191.421 156.018 199.976 126.263 199.976 126.263 C 201.091 124.035 199.458 121.192 196.671 121.192 L 176.467 124.517 C 169.216 126.744 161.441 128.009 159.222 133.607 C 158.108 135.84 155.912 137.457 153.125 137.457 L 108.012 137.457 C 103.554 137.457 101.854 134.592 100.176 130.108 L 97.913 123.464 C 96.235 118.438 91.771 115.069 86.766 115.069 L 61.161 115.069 Z M 77.882 183.287 C 72.877 187.199 65.62 188.358 61.161 188.358 C 58.943 188.358 57.26 188.403 55.588 187.832 L 55.588 197.979 C 57.26 197.979 58.943 198.5 61.161 198.5 C 70.636 198.5 74.526 196.228 77.882 193.429 C 82.887 197.347 90.144 198.5 94.602 198.5 C 99.061 198.5 106.318 197.341 111.323 193.429 C 116.328 197.347 123.585 198.5 128.044 198.5 C 132.503 198.5 139.759 197.341 144.764 193.429 C 149.769 197.347 157.026 198.5 161.485 198.5 C 165.944 198.5 173.201 197.341 178.206 193.429 C 183.211 197.347 190.468 198.5 194.926 198.5 C 197.145 198.5 198.828 197.845 200.5 197.28 L 200.5 187.306 C 198.828 187.877 197.145 188.358 194.926 188.358 C 190.468 188.358 183.211 187.199 178.206 183.281 C 173.201 187.199 165.944 188.358 161.485 188.358 C 157.026 188.358 149.769 187.199 144.764 183.281 C 139.759 187.199 132.503 188.358 128.044 188.358 C 123.585 188.358 116.328 187.199 111.323 183.281 C 106.318 187.199 99.061 188.358 94.602 188.358 C 90.144 188.358 82.887 187.199 77.882 183.281 L 77.882 183.287 Z"/>
 </g>
 <g>
  <g>
   <linearGradient id="_lgradient_26" x1="0" x2="0" y1="0" y2="1" gradientTransform="matrix(24.887,0,0,25.569,93.954,97.456)" gradientUnits="userSpaceOnUse">
    <stop offset="0%" style="stop-color:#ec57ff"/>
    <stop offset="50%" style="stop-color:#c551ff"/>
    <stop offset="100%" style="stop-color:#a90ff5"/>
   </linearGradient>
   <path fill="url(#_lgradient_26)" d="M 106.223 101.509 L 102.588 112.206 L 105.614 112.206 C 107.62 112.206 109.184 111.782 110.307 110.936 C 111.43 110.089 112.326 108.681 112.995 106.709 C 113.642 104.808 113.715 103.465 113.216 102.683 C 112.717 101.9 111.522 101.509 109.632 101.509 L 106.223 101.509 Z M 102.643 97.456 L 112.192 97.456 C 115.068 97.456 117.024 98.302 118.06 99.995 C 119.097 101.688 119.101 104.048 118.072 107.075 C 117.65 108.315 117.095 109.455 116.406 110.492 C 115.717 111.53 114.885 112.478 113.91 113.336 C 112.747 114.368 111.522 115.107 110.234 115.554 C 108.945 116 107.362 116.224 105.484 116.224 L 101.222 116.224 L 98.911 123.024 L 93.954 123.024 L 102.643 97.456 Z"/>
   <linearGradient id="_lgradient_27" x1="0" x2="0" y1="0" y2="1" gradientTransform="matrix(21.808,0,0,25.569,118.007,90.655)" gradientUnits="userSpaceOnUse">
    <stop offset="0%" style="stop-color:#ec57ff"/>
    <stop offset="50%" style="stop-color:#c551ff"/>
    <stop offset="100%" style="stop-color:#a90ff5"/>
   </linearGradient>
   <path fill="url(#_lgradient_27)" d="M 126.696 90.655 L 131.619 90.655 L 129.307 97.456 L 133.708 97.456 C 136.468 97.456 138.281 97.998 139.147 99.082 C 140.014 100.166 140.037 101.914 139.217 104.326 L 135.174 116.224 L 130.183 116.224 L 134.031 104.9 C 134.468 103.613 134.53 102.738 134.218 102.274 C 133.906 101.81 133.118 101.578 131.854 101.578 L 127.906 101.578 L 122.929 116.224 L 118.007 116.224 L 126.696 90.655 Z"/>
   <linearGradient id="_lgradient_28" x1="0" x2="0" y1="0" y2="1" gradientTransform="matrix(24.887,0,0,25.569,137.159,97.456)" gradientUnits="userSpaceOnUse">
    <stop offset="0%" style="stop-color:#ec57ff"/>
    <stop offset="50%" style="stop-color:#c551ff"/>
    <stop offset="100%" style="stop-color:#a90ff5"/>
   </linearGradient>
   <path fill="url(#_lgradient_28)" d="M 149.429 101.509 L 145.793 112.206 L 148.82 112.206 C 150.826 112.206 152.39 111.782 153.513 110.936 C 154.635 110.089 155.531 108.681 156.201 106.709 C 156.848 104.808 156.921 103.465 156.422 102.683 C 155.922 101.9 154.728 101.509 152.838 101.509 L 149.429 101.509 Z M 145.849 97.456 L 155.398 97.456 C 158.273 97.456 160.23 98.302 161.266 99.995 C 162.302 101.688 162.306 104.048 161.278 107.075 C 160.856 108.315 160.301 109.455 159.612 110.492 C 158.923 111.53 158.091 112.478 157.115 113.336 C 155.953 114.368 154.728 115.107 153.439 115.554 C 152.151 116 150.568 116.224 148.689 116.224 L 144.428 116.224 L 142.117 123.024 L 137.159 123.024 L 145.849 97.456 Z"/>
  </g>
  <g>
   <linearGradient id="_lgradient_29" x1="0" x2="0" y1="0" y2="1" gradientTransform="matrix(37.493,0,0,25.569,45.5,132.976)" gradientUnits="userSpaceOnUse">
    <stop offset="0%" style="stop-color:#ffb357"/>
    <stop offset="50%" style="stop-color:#ff8b51"/>
    <stop offset="100%" style="stop-color:#f55c0f"/>
   </linearGradient>
   <path fill="url(#_lgradient_29)" d="M 54.189 132.976 L 62.086 132.976 L 61.941 152.596 L 75.131 132.976 L 82.993 132.976 L 74.304 158.544 L 69.034 158.544 L 76.237 138.628 L 62.911 158.544 L 57.206 158.544 L 57.279 138.42 L 50.979 158.544 L 45.5 158.544 L 54.189 132.976 Z"/>
   <linearGradient id="_lgradient_30" x1="0" x2="0" y1="0" y2="1" gradientTransform="matrix(25.474,0,0,25.569,76.985,139.776)" gradientUnits="userSpaceOnUse">
    <stop offset="0%" style="stop-color:#ffb357"/>
    <stop offset="50%" style="stop-color:#ff8b51"/>
    <stop offset="100%" style="stop-color:#f55c0f"/>
   </linearGradient>
   <path fill="url(#_lgradient_30)" d="M 88.547 154.404 L 92.53 154.404 L 97.501 139.776 L 102.459 139.776 L 96.252 158.04 C 95.409 160.521 94.204 162.359 92.639 163.553 C 91.073 164.748 89.096 165.345 86.708 165.345 L 76.985 165.345 L 78.279 161.536 L 87.15 161.536 C 88.101 161.536 88.909 161.307 89.575 160.849 C 90.24 160.391 90.721 159.727 91.017 158.857 L 91.123 158.544 L 86.74 158.544 C 83.934 158.544 82.122 157.99 81.304 156.883 C 80.486 155.776 80.517 153.929 81.395 151.343 L 85.326 139.776 L 90.231 139.776 L 86.43 150.961 C 85.949 152.375 85.845 153.303 86.119 153.744 C 86.392 154.184 87.202 154.404 88.547 154.404 L 88.547 154.404 Z"/>
   <linearGradient id="_lgradient_31" x1="0" x2="0" y1="0" y2="1" gradientTransform="matrix(27.43,0,0,25.569,97.524,132.976)" gradientUnits="userSpaceOnUse">
    <stop offset="0%" style="stop-color:#ffb357"/>
    <stop offset="50%" style="stop-color:#ff8b51"/>
    <stop offset="100%" style="stop-color:#f55c0f"/>
   </linearGradient>
   <path fill="url(#_lgradient_31)" d="M 117.95 138.054 L 110.865 147.899 L 118.483 147.899 L 117.95 138.054 Z M 117.032 132.976 L 122.737 132.976 L 124.954 158.544 L 118.97 158.544 L 118.691 152.456 L 107.577 152.456 L 103.229 158.544 L 97.524 158.544 L 117.032 132.976 Z"/>
   <linearGradient id="_lgradient_32" x1="0" x2="0" y1="0" y2="1" gradientTransform="matrix(24.852,0,0,25.569,127.472,132.976)" gradientUnits="userSpaceOnUse">
    <stop offset="0%" style="stop-color:#ffb357"/>
    <stop offset="50%" style="stop-color:#ff8b51"/>
    <stop offset="100%" style="stop-color:#f55c0f"/>
   </linearGradient>
   <path fill="url(#_lgradient_32)" d="M 140.06 154.526 L 143.695 143.829 L 140.704 143.829 C 138.698 143.829 137.132 144.25 136.005 145.09 C 134.879 145.931 133.983 147.331 133.317 149.291 C 132.67 151.192 132.598 152.54 133.099 153.335 C 133.6 154.129 134.79 154.526 136.668 154.526 L 140.06 154.526 Z M 143.635 158.544 L 134.12 158.544 C 131.245 158.544 129.289 157.698 128.252 156.005 C 127.216 154.312 127.212 151.952 128.24 148.925 C 128.662 147.685 129.217 146.545 129.906 145.508 C 130.595 144.47 131.427 143.522 132.403 142.664 C 133.565 141.632 134.793 140.893 136.087 140.446 C 137.381 140 138.962 139.776 140.829 139.776 L 145.073 139.776 L 147.384 132.976 L 152.324 132.976 L 143.635 158.544 Z"/>
   <linearGradient id="_lgradient_33" x1="0" x2="0" y1="0" y2="1" gradientTransform="matrix(31.472,0,0,18.768,147.966,139.776)" gradientUnits="userSpaceOnUse">
    <stop offset="0%" style="stop-color:#ffb357"/>
    <stop offset="50%" style="stop-color:#ff8b51"/>
    <stop offset="100%" style="stop-color:#f55c0f"/>
   </linearGradient>
   <path fill="url(#_lgradient_33)" d="M 154.344 139.776 L 173.372 139.776 C 176.132 139.776 177.937 140.316 178.789 141.394 C 179.64 142.472 179.653 144.223 178.829 146.647 L 174.786 158.544 L 169.795 158.544 L 173.619 147.29 C 174.088 145.911 174.188 145 173.921 144.56 C 173.653 144.119 172.87 143.899 171.571 143.899 L 168.788 143.899 L 163.811 158.544 L 158.75 158.544 L 163.726 143.899 L 157.934 143.899 L 152.958 158.544 L 147.966 158.544 L 154.344 139.776 Z"/>
   <linearGradient id="_lgradient_34" x1="0" x2="0" y1="0" y2="1" gradientTransform="matrix(13.89,0,0,25.569,179.204,132.976)" gradientUnits="userSpaceOnUse">
    <stop offset="0%" style="stop-color:#ffb357"/>
    <stop offset="50%" style="stop-color:#ff8b51"/>
    <stop offset="100%" style="stop-color:#f55c0f"/>
   </linearGradient>
   <path fill="url(#_lgradient_34)" d="M 191.51 137.637 L 186.31 137.637 L 187.894 132.976 L 193.094 132.976 L 191.51 137.637 Z M 184.405 158.544 L 179.204 158.544 L 185.582 139.776 L 190.783 139.776 L 184.405 158.544 Z"/>
   <linearGradient id="_lgradient_35" x1="0" x2="0" y1="0" y2="1" gradientTransform="matrix(21.833,0,0,18.768,188.667,139.776)" gradientUnits="userSpaceOnUse">
    <stop offset="0%" style="stop-color:#ffb357"/>
    <stop offset="50%" style="stop-color:#ff8b51"/>
    <stop offset="100%" style="stop-color:#f55c0f"/>
   </linearGradient>
   <path fill="url(#_lgradient_35)" d="M 195.045 139.776 L 204.368 139.776 C 207.185 139.776 209.017 140.307 209.862 141.368 C 210.708 142.429 210.713 144.189 209.877 146.647 L 205.834 158.544 L 200.877 158.544 L 204.713 147.256 C 205.19 145.853 205.282 144.942 204.989 144.525 C 204.696 144.107 203.894 143.899 202.584 143.899 L 198.6 143.899 L 193.624 158.544 L 188.667 158.544 L 195.045 139.776 Z"/>
  </g>
 </g>
</svg>
