<svg xmlns="http://www.w3.org/2000/svg" style="isolation:isolate" width="256" height="256" viewBox="0 0 256 256">
 <defs>
  <filter id="KgpGqKK0foPccdX4I8O6aYMmA4qIP2pa" width="400%" height="400%" x="-200%" y="-200%" color-interpolation-filters="sRGB" filterUnits="objectBoundingBox">
   <feGaussianBlur xmlns="http://www.w3.org/2000/svg" in="SourceGraphic" stdDeviation="4.294"/>
   <feOffset xmlns="http://www.w3.org/2000/svg" dx="0" dy="4" result="pf_100_offsetBlur"/>
   <feFlood xmlns="http://www.w3.org/2000/svg" flood-opacity=".4"/>
   <feComposite xmlns="http://www.w3.org/2000/svg" in2="pf_100_offsetBlur" operator="in" result="pf_100_dropShadow"/>
   <feBlend xmlns="http://www.w3.org/2000/svg" in="SourceGraphic" in2="pf_100_dropShadow" mode="normal"/>
  </filter>
 </defs>
 <g filter="url(#KgpGqKK0foPccdX4I8O6aYMmA4qIP2pa)">
  <path fill="#f37e40" d="M 165.689 11.95 C 239.745 11.95 250.328 22.507 250.328 96.494 L 250.328 155.745 C 250.328 229.731 239.745 240.288 165.689 240.288 L 90.319 240.288 C 16.264 240.288 5.68 229.731 5.68 155.745 L 5.68 96.494 C 5.68 22.507 16.264 11.95 90.319 11.95 L 165.689 11.95 L 165.689 11.95 Z"/>
 </g>
 <path fill="#76c22b" d="M 165.684 11.615 C 239.74 11.615 250.324 22.141 250.324 95.914 L 250.324 154.991 C 250.324 228.764 239.74 239.29 165.684 239.29 L 90.316 239.29 C 16.26 239.29 5.676 228.764 5.676 154.991 L 5.676 95.914 C 5.676 22.141 16.26 11.615 90.316 11.615 L 165.684 11.615 L 165.684 11.615 Z"/>
 <path fill="#2086e7" d="M 128 11.95 L 128 125.788 L 250.324 125.788 L 250.324 96.247 C 250.324 22.476 239.742 11.95 165.686 11.95 L 128 11.95 L 128 11.95 Z"/>
 <path fill="#2b898f" d="M 5.676 126.5 L 128 126.5 L 128 240.336 L 90.315 240.336 C 16.259 240.336 5.676 229.811 5.676 156.039 L 5.676 126.5 L 5.676 126.5 Z"/>
 <path fill="#fdc92b" d="M 250.324 126.5 L 128 126.5 L 128 240.336 L 165.686 240.336 C 239.742 240.336 250.324 229.811 250.324 156.039 L 250.324 126.5 L 250.324 126.5 Z"/>
 <defs>
  <filter id="MSZv5JdHuqwFcHlYEZGwlWnG9YuRKyYo" width="400%" height="400%" x="-200%" y="-200%" color-interpolation-filters="sRGB" filterUnits="objectBoundingBox">
   <feGaussianBlur xmlns="http://www.w3.org/2000/svg" in="SourceGraphic" stdDeviation="4.294"/>
   <feOffset xmlns="http://www.w3.org/2000/svg" dx="0" dy="0" result="pf_100_offsetBlur"/>
   <feFlood xmlns="http://www.w3.org/2000/svg" flood-opacity=".4"/>
   <feComposite xmlns="http://www.w3.org/2000/svg" in2="pf_100_offsetBlur" operator="in" result="pf_100_dropShadow"/>
   <feBlend xmlns="http://www.w3.org/2000/svg" in="SourceGraphic" in2="pf_100_dropShadow" mode="normal"/>
  </filter>
 </defs>
 <g filter="url(#MSZv5JdHuqwFcHlYEZGwlWnG9YuRKyYo)">
  <path fill="#404040" d="M 154.186 46.685 C 205.645 46.685 213.001 54 213.001 105.261 L 213.001 146.314 C 213.001 197.575 205.645 204.891 154.186 204.891 L 101.814 204.891 C 50.355 204.891 43.001 197.575 43.001 146.314 L 43.001 105.261 C 43.001 54 50.355 46.685 101.814 46.685 L 154.186 46.685 L 154.186 46.685 Z"/>
 </g>
 <defs>
  <filter id="XXnExZA5ZUVO0o3rba1chcf3s0F2XNo8" width="400%" height="400%" x="-200%" y="-200%" color-interpolation-filters="sRGB" filterUnits="objectBoundingBox">
   <feGaussianBlur xmlns="http://www.w3.org/2000/svg" in="SourceGraphic" stdDeviation="4.294"/>
   <feOffset xmlns="http://www.w3.org/2000/svg" dx="0" dy="4" result="pf_100_offsetBlur"/>
   <feFlood xmlns="http://www.w3.org/2000/svg" flood-opacity=".4"/>
   <feComposite xmlns="http://www.w3.org/2000/svg" in2="pf_100_offsetBlur" operator="in" result="pf_100_dropShadow"/>
   <feBlend xmlns="http://www.w3.org/2000/svg" in="SourceGraphic" in2="pf_100_dropShadow" mode="normal"/>
  </filter>
 </defs>
 <g filter="url(#XXnExZA5ZUVO0o3rba1chcf3s0F2XNo8)">
  <path fill="#ffffff" d="M 142.692 170.668 C 144.67926 170.66162 146.587285 171.446725 147.99456 172.849872 C 149.401835 174.253019 150.192542 176.15873 150.192 178.146 C 150.189834 180.12977 149.398677 182.031208 147.993 183.431 C 146.585198 184.833747 144.679361 185.622184 142.692 185.624 L 82.743 185.624 C 80.756073 185.62001 78.851031 184.831903 77.442 183.431 C 76.036789 182.030895 75.245716 180.12966 75.243 178.146 C 75.243612 176.158984 76.034803 174.253865 77.442 172.851 C 78.852043 171.452841 80.757283 170.668246 82.743 170.668 L 142.692 170.668 L 142.692 170.668 Z"/>
 </g>
 <defs>
  <filter id="xoItPh3WBAKFev9qvQiNRXi7KzekIpzY" width="400%" height="400%" x="-200%" y="-200%" color-interpolation-filters="sRGB" filterUnits="objectBoundingBox">
   <feGaussianBlur xmlns="http://www.w3.org/2000/svg" in="SourceGraphic" stdDeviation="4.294"/>
   <feOffset xmlns="http://www.w3.org/2000/svg" dx="0" dy="4" result="pf_100_offsetBlur"/>
   <feFlood xmlns="http://www.w3.org/2000/svg" flood-opacity=".4"/>
   <feComposite xmlns="http://www.w3.org/2000/svg" in2="pf_100_offsetBlur" operator="in" result="pf_100_dropShadow"/>
   <feBlend xmlns="http://www.w3.org/2000/svg" in="SourceGraphic" in2="pf_100_dropShadow" mode="normal"/>
  </filter>
 </defs>
 <g filter="url(#xoItPh3WBAKFev9qvQiNRXi7KzekIpzY)">
  <path fill="#ffffff" d="M 176.581 120.515 L 167.107 116.917 C 166.384105 116.64096 165.582976 116.652052 164.868 116.948 C 164.149503 117.236474 163.568258 117.788389 163.243 118.491 C 162.728805 119.577927 162.120133 120.617589 161.424 121.598 C 160.983959 122.202585 160.472599 122.751885 159.901 123.234 C 159.612642 123.473702 159.304923 123.689105 158.981 123.878 C 158.705692 124.042692 158.414571 124.179375 158.112 124.286 C 157.821371 124.39803 157.520178 124.480448 157.213 124.532 C 156.874813 124.584306 156.533204 124.611381 156.191 124.613 C 155.441929 124.611373 154.696283 124.511863 153.973 124.317 C 153.355809 124.14909 152.766791 123.890973 152.225 123.551 C 151.627204 123.177859 151.086878 122.719727 150.621 122.191 C 149.949159 121.428112 149.366093 120.591422 148.883 119.697 C 148.393 118.767 147.953 117.817 147.585 116.836 C 147.187878 115.79585 146.860159 114.730513 146.604 113.647 C 146.316131 112.465794 146.104362 111.267331 145.97 110.059 C 145.815443 108.684719 145.73699 107.302943 145.735 105.92 C 145.735 104.264 145.838 102.619 146.042 100.973 C 146.216 99.512 146.492 98.071 146.87 96.64 C 147.21105 95.336 147.705149 94.076919 148.342 92.889 C 148.955281 91.744304 149.703259 90.677059 150.57 89.71 C 150.952676 89.286619 151.377167 88.903003 151.837 88.565 C 152.222196 88.271635 152.640777 88.024917 153.084 87.83 C 153.534 87.635 153.994 87.482 154.474 87.39 C 155.039216 87.275659 155.614336 87.217376 156.191 87.216 C 156.6 87.216 157.009 87.247 157.417 87.308 C 157.734 87.359 158.041 87.441 158.347 87.543 C 158.613 87.635 158.879 87.748 159.124 87.891 C 159.37 88.024 159.594 88.187 159.809 88.361 C 160.360404 88.809997 160.85475 89.324829 161.281 89.894 C 162.006 90.865 162.661 91.877 163.213 92.95 C 163.581801 93.655181 164.212737 94.187365 164.97 94.432 C 165.723043 94.682729 166.543999 94.631464 167.26 94.289 L 176.561 89.812 C 177.263033 89.47422 177.810861 88.882794 178.094 88.157 C 178.373774 87.428592 178.366267 86.621081 178.073 85.898 C 177.664591 84.878328 177.186461 83.887987 176.642 82.934 C 176.10857 81.985768 175.50769 81.077095 174.844 80.215 C 174.173197 79.343944 173.445969 78.517837 172.667 77.742 C 171.850117 76.935066 170.983056 76.180562 170.071 75.483 C 169.168652 74.791009 168.207679 74.179024 167.199 73.654 C 166.167125 73.121262 165.093577 72.673448 163.989 72.315 C 162.797355 71.936012 161.577531 71.652122 160.341 71.466 C 157.769627 71.100415 155.161446 71.073183 152.583 71.385 C 151.473049 71.527167 150.373668 71.7423 149.292 72.029 C 148.264244 72.298432 147.256749 72.639944 146.277 73.051 C 145.316 73.449 144.376 73.919 143.487 74.451 C 141.680855 75.495601 140.01796 76.770252 138.54 78.243 C 137.814 78.958 137.14 79.714 136.516 80.512 C 135.884919 81.32359 135.304804 82.173557 134.779 83.057 C 133.770338 84.739847 132.888882 86.495739 132.142 88.31 C 131.379416 90.149554 130.750779 92.041816 130.261 93.972 C 129.78316 95.890452 129.421503 97.835987 129.178 99.798 C 128.933086 101.829477 128.810198 103.873812 128.81 105.92 C 128.81 107.576 128.882 109.242 129.025 110.897 C 129.157 112.482 129.372 114.066 129.648 115.63 C 129.93506 117.22093 130.314028 118.793897 130.783 120.341 C 131.261848 121.904035 131.835238 123.436526 132.5 124.93 C 133.17123 126.452239 133.956811 127.921442 134.85 129.325 C 135.677088 130.610362 136.610705 131.823964 137.641 132.953 C 138.703689 134.113941 139.889306 135.156049 141.177 136.061 C 142.570017 137.032895 144.051575 137.871272 145.602 138.565 C 147.179581 139.260113 148.828354 139.780866 150.519 140.118 C 152.389 140.486 154.29 140.67 156.191 140.67 C 157.448 140.67 158.705 140.578 159.962 140.404 C 161.110888 140.238544 162.245504 139.985813 163.356 139.648 C 164.410179 139.319819 165.438373 138.913355 166.432 138.432 C 167.412613 137.953787 168.352712 137.396617 169.243 136.766 C 170.157243 136.124228 171.018355 135.409923 171.818 134.63 C 172.671943 133.802231 173.46125 132.910291 174.179 131.962 C 174.987664 130.909217 175.718597 129.798948 176.366 128.64 C 177.103733 127.314014 177.762546 125.945634 178.339 124.542 C 178.646053 123.775855 178.634896 122.918891 178.308 122.161 C 177.978165 121.401676 177.355281 120.808007 176.581 120.515 L 176.581 120.515 Z"/>
 </g>
 <defs>
  <filter id="P2o2luJrYp7qiH5NKYppaB5EgjSv1fnr" width="400%" height="400%" x="-200%" y="-200%" color-interpolation-filters="sRGB" filterUnits="objectBoundingBox">
   <feGaussianBlur xmlns="http://www.w3.org/2000/svg" in="SourceGraphic" stdDeviation="4.294"/>
   <feOffset xmlns="http://www.w3.org/2000/svg" dx="0" dy="4" result="pf_100_offsetBlur"/>
   <feFlood xmlns="http://www.w3.org/2000/svg" flood-opacity=".4"/>
   <feComposite xmlns="http://www.w3.org/2000/svg" in2="pf_100_offsetBlur" operator="in" result="pf_100_dropShadow"/>
   <feBlend xmlns="http://www.w3.org/2000/svg" in="SourceGraphic" in2="pf_100_dropShadow" mode="normal"/>
  </filter>
 </defs>
 <g filter="url(#P2o2luJrYp7qiH5NKYppaB5EgjSv1fnr)">
  <path fill="#ffffff" fill-rule="evenodd" d="M 92.202 137.191 L 92.202 116.057 L 100.843 116.057 C 102.873 116.057 104.903 115.877 106.903 115.528 C 108.571416 115.238839 110.203831 114.770806 111.772 114.132 C 113.167029 113.565304 114.495376 112.846635 115.733 111.989 C 116.931055 111.162574 118.028196 110.198675 119.002 109.117 C 120.009245 108.002436 120.916101 106.801104 121.712 105.527 C 122.464282 104.330586 123.100827 103.065199 123.613 101.748 C 124.123 100.442 124.502 99.096 124.752 97.72 C 125.011591 96.285559 125.142113 94.830741 125.142 93.373 C 125.142 91.817 125.012 90.262 124.743 88.726 C 124.501048 87.310113 124.122617 85.920969 123.613 84.578 C 123.124363 83.272657 122.511553 82.017233 121.783 80.829 C 121.03803 79.611206 120.184561 78.463206 119.233 77.399 C 118.230877 76.284764 117.087544 75.306157 115.832 74.488 C 114.483098 73.606383 113.036839 72.883589 111.522 72.334 C 109.99338 71.787199 108.416307 71.386736 106.812 71.138 C 104.832 70.838 102.843 70.689 100.843 70.689 L 78.368 70.689 C 76.713974 70.690104 75.373552 72.030974 75.373 73.685 L 75.373 137.191 C 75.373552 138.845026 76.713974 140.185896 78.368 140.187 L 89.207 140.187 C 90.861026 140.185896 92.201448 138.845026 92.202 137.191 L 92.202 137.191 Z M 92.202 86.832 L 101.392 86.832 C 102.113 86.832 102.843 86.902 103.553 87.031 C 104.012 87.111 104.452 87.241 104.882 87.43 C 105.202 87.57 105.512 87.749 105.793 87.969 C 106.043 88.148 106.272 88.367 106.462 88.617 C 106.743 88.966 106.993 89.335 107.212 89.733 C 107.413 90.082 107.582 90.461 107.712 90.84 C 107.853 91.229 107.952 91.618 108.022 92.027 C 108.173566 92.955132 108.170187 93.901973 108.012 94.829 C 107.942 95.237 107.832 95.636 107.692 96.025 C 107.553 96.394 107.382 96.763 107.183 97.102 C 106.964411 97.469332 106.713411 97.816381 106.433 98.139 C 106.223 98.398 105.973 98.628 105.702 98.817 C 105.392 99.036 105.062 99.216 104.723 99.355 C 104.303 99.535 103.863 99.655 103.413 99.734 C 102.743 99.854 102.072 99.904 101.392 99.904 L 92.202 99.904 L 92.202 86.832 L 92.202 86.832 Z"/>
 </g>
 <g opacity=".4">
  <linearGradient id="_lgradient_298" x1=".517" x2=".517" y1="0" y2="1" gradientTransform="matrix(244.65,0,0,228.34,5.68,11.95)" gradientUnits="userSpaceOnUse">
   <stop offset="0%" style="stop-color:#ffffff"/>
   <stop offset="12.5%" stop-opacity=".098" style="stop-color:#ffffff"/>
   <stop offset="92.5%" stop-opacity=".098" style="stop-color:#000000"/>
   <stop offset="100%" stop-opacity=".498" style="stop-color:#000000"/>
  </linearGradient>
  <path fill="url(#_lgradient_298)" fill-rule="evenodd" d="M 165.06803 11.951234 C 169.395994 11.941409 173.723944 11.990533 178.051908 12.088781 C 181.927398 12.167379 185.802873 12.31475 189.678362 12.540721 C 193.1309 12.737216 196.583423 13.022134 200.026115 13.395476 C 203.085193 13.729518 206.144271 14.181458 209.173842 14.741469 C 211.888645 15.242533 214.57394 15.881143 217.219897 16.6573 C 219.619947 17.354858 221.970814 18.219439 224.242988 19.241215 C 226.357793 20.184394 228.384061 21.304417 230.302129 22.591462 C 232.141505 23.829383 233.862851 25.244151 235.436659 26.80629 C 237.000621 28.378252 238.417046 30.087764 239.656409 31.924995 C 240.944972 33.840824 242.066305 35.864728 243.020409 37.967229 C 244.043389 40.246576 244.908985 42.584873 245.617197 44.972292 C 246.394255 47.615155 247.033606 50.297317 247.535265 53.008956 C 248.095924 56.034984 248.548399 59.080665 248.882828 62.13617 C 249.256611 65.574836 249.541856 69.013506 249.738578 72.462003 C 249.964823 76.323139 250.112361 80.194101 250.200884 84.055237 C 250.289421 88.378131 250.338591 92.701032 250.32876 97.014106 L 250.32876 155.225886 C 250.338591 159.54878 250.289421 163.861854 250.200884 168.184747 C 250.112361 172.05571 249.964823 175.916853 249.738578 179.777981 C 249.541856 183.226485 249.256611 186.674975 248.882828 190.103826 C 248.548399 193.15933 248.095924 196.214835 247.535265 199.240851 C 247.033606 201.942664 246.394255 204.624837 245.617197 207.267703 C 244.908985 209.655115 244.043389 212.003235 243.020409 214.272755 C 242.066305 216.38509 240.944972 218.399156 239.656409 220.314999 C 238.417046 222.152226 237.000621 223.871561 235.436659 225.433697 C 233.862851 226.995832 232.141505 228.410601 230.302129 229.648532 C 228.384061 230.935575 226.357793 232.055598 224.242988 232.998768 C 221.970814 234.020552 219.619947 234.885137 217.219897 235.592507 C 214.57394 236.368672 211.888645 237.007276 209.173842 237.498515 C 206.144271 238.068354 203.085193 238.510465 200.026115 238.844519 C 196.583423 239.21785 193.1309 239.502777 189.678362 239.699269 C 185.802873 239.925235 181.927398 240.072615 178.051908 240.161035 C 173.723944 240.249454 169.395994 240.298581 165.06803 240.288762 L 90.941963 240.288762 C 86.614006 240.298581 82.286049 240.249454 77.9581 240.161035 C 74.08261 240.072615 70.20712 239.925235 66.331638 239.699269 C 62.879108 239.502777 59.426578 239.21785 55.983886 238.844519 C 52.924808 238.510465 49.865733 238.068354 46.836162 237.498515 C 44.121356 237.007276 41.436057 236.368672 38.7901 235.592507 C 36.390053 234.885137 34.039187 234.020552 31.767009 232.998768 C 29.652213 232.055598 27.625943 230.935575 25.707871 229.648532 C 23.868489 228.410601 22.147143 226.995832 20.573343 225.433697 C 19.009377 223.871561 17.592955 222.152226 16.353586 220.314999 C 15.065036 218.399156 13.943701 216.38509 12.989584 214.272755 C 11.966612 212.003235 11.101021 209.655115 10.392811 207.267703 C 9.615746 204.624837 8.976389 201.942664 8.47474 199.240851 C 7.914072 196.214835 7.461604 193.15933 7.127172 190.103826 C 6.753394 186.674975 6.468142 183.226485 6.271417 179.777981 C 6.045183 175.916853 5.897639 172.05571 5.809112 168.184747 C 5.720586 163.861854 5.671405 159.54878 5.681241 155.225886 L 5.681241 97.014106 C 5.671405 92.701032 5.720586 88.378131 5.809112 84.055237 C 5.897639 80.194101 6.045183 76.323139 6.271417 72.462003 C 6.468142 69.013506 6.753394 65.574836 7.127172 62.13617 C 7.461604 59.080665 7.914072 56.034984 8.47474 53.008956 C 8.976389 50.297317 9.615746 47.615155 10.392811 44.972292 C 11.101021 42.584873 11.966612 40.246576 12.989584 37.967229 C 13.943701 35.864728 15.065036 33.840824 16.353586 31.924995 C 17.592955 30.087764 19.009377 28.378252 20.573343 26.80629 C 22.147143 25.244151 23.868489 23.829383 25.707871 22.591462 C 27.625943 21.304417 29.652213 20.184394 31.767009 19.241215 C 34.039187 18.219439 36.390053 17.354858 38.7901 16.6573 C 41.436057 15.881143 44.121356 15.242533 46.836162 14.741469 C 49.865733 14.181458 52.924808 13.729518 55.983886 13.395476 C 59.426578 13.022134 62.879108 12.737216 66.331638 12.540721 C 70.20712 12.31475 74.08261 12.167379 77.9581 12.088781 C 82.286049 11.990533 86.614006 11.941409 90.941963 11.951234 L 165.06803 11.951234 Z M 165.077876 15.959741 C 169.376317 15.949916 173.674759 15.99904 177.973216 16.087463 C 181.799522 16.175886 185.625827 16.323257 189.452133 16.539402 C 192.835809 16.735898 196.219486 17.010992 199.583486 17.384332 C 202.554026 17.698726 205.514751 18.131016 208.445953 18.681203 C 211.023049 19.152792 213.580483 19.761928 216.098564 20.498786 C 218.321569 21.147221 220.495374 21.952852 222.600334 22.896029 C 224.508571 23.750785 226.338116 24.762737 228.069293 25.922059 C 229.692286 27.012609 231.207063 28.260355 232.59398 29.645648 C 233.980897 31.030941 235.230091 32.543956 236.331763 34.165043 C 237.492434 35.894202 238.505568 37.711787 239.361333 39.607968 C 240.305606 41.720292 241.112187 43.891565 241.761369 46.102139 C 242.508934 48.617282 243.108947 51.161898 243.590914 53.735987 C 244.131912 56.663768 244.564709 59.6112 244.889308 62.578282 C 245.263091 65.938355 245.538505 69.308252 245.735227 72.687976 C 245.951626 76.509812 246.10901 80.321821 246.187687 84.143656 C 246.276225 88.437084 246.325394 92.720685 246.325394 97.014106 C 246.325394 97.014106 246.325394 97.014106 246.325394 97.014106 L 246.325394 155.225886 C 246.325394 155.225886 246.325394 155.225886 246.325394 155.225886 C 246.325394 159.519306 246.276225 163.802907 246.187687 168.096328 C 246.10901 171.918164 245.951626 175.739999 245.735227 179.552015 C 245.538505 182.931739 245.263091 186.301629 244.889308 189.671533 C 244.564709 192.628784 244.131912 195.576216 243.590914 198.503994 C 243.108947 201.078094 242.508934 203.622706 241.761369 206.137845 C 241.112187 208.358253 240.305606 210.5197 239.361333 212.63202 C 238.505568 214.528209 237.492434 216.355617 236.331763 218.074952 C 235.230091 219.705853 233.980897 221.218876 232.59398 222.604172 C 231.207063 223.979634 229.692286 225.227385 228.069293 226.317935 C 226.338116 227.477251 224.508571 228.489201 222.600334 229.343951 C 220.495374 230.296956 218.321569 231.092775 216.098564 231.741198 C 213.580483 232.478056 211.023049 233.087202 208.445953 233.558787 C 205.514751 234.108972 202.554026 234.541264 199.583486 234.865483 C 196.219486 235.228995 192.835809 235.513922 189.452133 235.70058 C 185.625827 235.916726 181.799522 236.073926 177.973216 236.152526 C 173.674759 236.25078 169.376317 236.290072 165.077876 236.290072 C 165.077876 236.290072 165.077876 236.290072 165.06803 236.290072 L 90.941963 236.290072 C 90.932125 236.290072 90.932125 236.290072 90.932125 236.290072 C 86.633683 236.290072 82.335234 236.25078 78.036784 236.152526 C 74.210479 236.073926 70.384173 235.916726 66.557868 235.70058 C 63.174195 235.513922 59.790522 235.228995 56.426518 234.865483 C 53.455967 234.541264 50.495253 234.108972 47.564048 233.558787 C 44.986944 233.087202 42.429517 232.478056 39.911433 231.741198 C 37.688439 231.092775 35.514626 230.296956 33.409665 229.343951 C 31.501429 228.489201 29.671886 227.477251 27.940703 226.317935 C 26.31772 225.227385 24.802935 223.979634 23.416022 222.604172 C 22.029109 221.218876 20.779904 219.705853 19.678243 218.074952 C 18.517564 216.355617 17.504428 214.528209 16.648674 212.63202 C 15.704392 210.5197 14.897819 208.358253 14.248626 206.137845 C 13.50107 203.622706 12.901057 201.078094 12.419081 198.503994 C 11.878086 195.576216 11.445291 192.628784 11.120694 189.671533 C 10.746916 186.301629 10.471501 182.931739 10.274776 179.552015 C 10.058378 175.739999 9.900997 171.918164 9.822307 168.096328 C 9.733781 163.802907 9.6846 159.519306 9.6846 155.225886 C 9.6846 155.225886 9.6846 155.225886 9.6846 155.225886 L 9.6846 97.014106 C 9.6846 97.014106 9.6846 97.014106 9.6846 97.014106 C 9.6846 92.720685 9.733781 88.437084 9.822307 84.143656 C 9.900997 80.321821 10.058378 76.509812 10.274776 72.687976 C 10.471501 69.308252 10.746916 65.938355 11.120694 62.578282 C 11.445291 59.6112 11.878086 56.663768 12.419081 53.735987 C 12.901057 51.161898 13.50107 48.617282 14.248626 46.102139 C 14.897819 43.891565 15.704392 41.720292 16.648674 39.607968 C 17.504428 37.711787 18.517564 35.894202 19.678243 34.165043 C 20.779904 32.543956 22.029109 31.030941 23.416022 29.645648 C 24.802935 28.260355 26.31772 27.012609 27.940703 25.922059 C 29.671886 24.762737 31.501429 23.750785 33.409665 22.896029 C 35.514626 21.952852 37.688439 21.147221 39.911433 20.498786 C 42.429517 19.761928 44.986944 19.152792 47.564048 18.681203 C 50.495253 18.131016 53.455967 17.698726 56.426518 17.384332 C 59.790522 17.010992 63.174195 16.735898 66.557868 16.539402 C 70.384173 16.323257 74.210479 16.175886 78.036784 16.087463 C 82.335234 15.99904 86.633683 15.949916 90.932125 15.959741 C 90.932125 15.959741 90.932125 15.959741 90.941963 15.959741 L 165.06803 15.959741 C 165.077876 15.959741 165.077876 15.959741 165.077876 15.959741 Z"/>
 </g>
</svg>
