<svg xmlns="http://www.w3.org/2000/svg" xmlns:xlink="http://www.w3.org/1999/xlink" style="isolation:isolate" width="256" height="256" version="1.1">
 <defs>
  <linearGradient id="linearGradient1087">
   <stop style="stop-color:#77a22c" offset="0"/>
   <stop style="stop-color:#649c2f" offset="1"/>
  </linearGradient>
  <linearGradient id="linearGradient1071">
   <stop style="stop-color:#f3eb66" offset="0"/>
   <stop style="stop-color:#f1e34c" offset="1"/>
  </linearGradient>
  <linearGradient id="linearGradient1013">
   <stop style="stop-color:#f0903a" offset="0"/>
   <stop style="stop-color:#ef7812" offset="1"/>
  </linearGradient>
  <filter id="a" width="400%" height="400%" x="-200%" y="-200%" color-interpolation-filters="sRGB" filterUnits="objectBoundingBox">
   <feGaussianBlur in="SourceGraphic" stdDeviation="4.294"/>
   <feOffset dy="4" result="pf_100_offsetBlur"/>
   <feFlood flood-opacity=".4"/>
   <feComposite in2="pf_100_offsetBlur" operator="in" result="pf_100_dropShadow"/>
   <feBlend in="SourceGraphic" in2="pf_100_dropShadow"/>
  </filter>
  <linearGradient id="linearGradient1015" x1="13.096" x2="327.489" y1="-47.277" y2="85.818" gradientUnits="userSpaceOnUse" xlink:href="#linearGradient1013"/>
  <linearGradient id="linearGradient1073" x1="265.502" x2="1.334" y1="144.023" y2="80.342" gradientUnits="userSpaceOnUse" xlink:href="#linearGradient1071"/>
  <linearGradient id="linearGradient1081" x1="6.783" x2="249.227" y1="205.891" y2="205.891" gradientUnits="userSpaceOnUse" xlink:href="#linearGradient1071"/>
  <linearGradient id="linearGradient1089" x1="5.681" x2="250.329" y1="139.234" y2="139.234" gradientUnits="userSpaceOnUse" xlink:href="#linearGradient1087"/>
 </defs>
 <path style="fill:url(#linearGradient1015)" d="M165.685 11.947c74.055 0 84.639 10.557 84.639 84.544v59.251c0 73.986-10.584 84.543-84.639 84.543h-75.37c-74.055 0-84.639-10.557-84.639-84.543V96.491c0-73.987 10.584-84.544 84.639-84.544h75.37z" filter="url(#a)"/>
 <path d="m 133.255,52 c 60,10 59.5,10.25 116.499,20.029 0.416,7.264 0.575,15.386 0.575,24.462 v 59.251 c 0,73.986 -10.584,84.543 -84.639,84.543 H 90.32 c -74.055,0 -84.639,-10.557 -84.639,-84.543 V 96.491 c 0,-31.437 1.911,-51.423 9.79,-64.013 C 65.255,40.75 77.505,43 133.255,52 Z" style="fill:url(#linearGradient1073)"/>
 <path d="m 39.755,42.75 c 98,17.042 168,28 210.278,35.258 0.21,5.673 0.296,11.821 0.296,18.483 v 59.251 c 0,73.986 -10.584,84.543 -84.639,84.543 H 90.32 c -74.055,0 -84.639,-10.557 -84.639,-84.543 V 96.491 C 5.681,69.434 7.096,50.86 12.514,38.183 19.255,39.75 26.755,41 39.755,42.75 Z" style="fill:url(#linearGradient1089)"/>
 <path d="m 217.10845,174.25 c 13.358,-1.582 31.5,-1.874 32.119,-2.754 -1.764,59.772 -15.992,68.789 -84.434,68.789 H 89.423451 c -57.816,0 -76.945,-6.434 -82.5549996,-44.463 -4.237,-0.737 149.3939986,-14.365 210.2399986,-21.572 z" style="fill:url(#linearGradient1081)"/>
 <path d="m 210.14727,182 c 21.499,-2.218 38.726,-3.411 38.379,-4.268 -2.614,54.171 -18.206,62.553 -84.194,62.553 H 88.962266 c -54.572,0 -74.676,-5.733 -81.4779997,-38.355 -1.02,-1.153 135.4940037,-12.999 202.6630037,-19.93 z" style="fill:#91b024"/>
 <g opacity=".4">
  <linearGradient id="b" x1=".517" x2=".517" y2="1" gradientTransform="matrix(244.65 0 0 228.34 5.68 11.95)" gradientUnits="userSpaceOnUse">
   <stop offset="0%" stop-color="#ffffff"/>
   <stop offset="12.5%" stop-color="#ffffff" stop-opacity=".098"/>
   <stop offset="92.5%" stop-opacity=".098"/>
   <stop offset="100%" stop-opacity=".498"/>
  </linearGradient>
  <path fill="url(#b)" fill-rule="evenodd" d="M165.068 11.951c4.328-.01 8.656.04 12.984.138 3.875.078 7.75.226 11.626.452 3.453.196 6.905.481 10.348.854 3.06.335 6.118.786 9.148 1.346a80.47 80.47 0 0 1 8.046 1.916 53.64 53.64 0 0 1 7.023 2.584 40.413 40.413 0 0 1 6.06 3.35 35.176 35.176 0 0 1 5.134 4.215 35.072 35.072 0 0 1 4.22 5.119 41.692 41.692 0 0 1 3.363 6.042 55.982 55.982 0 0 1 2.597 7.005 80.224 80.224 0 0 1 1.918 8.037 124.43 124.43 0 0 1 1.348 9.127c.374 3.439.659 6.878.856 10.326.226 3.861.373 7.732.462 11.593.088 4.323.138 8.646.128 12.96v58.21c.01 4.324-.04 8.637-.128 12.96a325.177 325.177 0 0 1-.462 11.593 200.984 200.984 0 0 1-.856 10.326 124.691 124.691 0 0 1-1.348 9.137 80.687 80.687 0 0 1-1.918 8.027 55.414 55.414 0 0 1-2.597 7.005 41.18 41.18 0 0 1-3.364 6.042 34.559 34.559 0 0 1-4.22 5.119 35.177 35.177 0 0 1-5.134 4.215 40.412 40.412 0 0 1-6.059 3.35 55.138 55.138 0 0 1-7.023 2.594 77.806 77.806 0 0 1-8.046 1.906 120 120 0 0 1-9.148 1.346c-3.443.373-6.895.658-10.348.854-3.875.226-7.75.374-11.626.462-4.328.088-8.656.138-12.984.128H90.942c-4.328.01-8.656-.04-12.984-.128a328.387 328.387 0 0 1-11.626-.462 203.003 203.003 0 0 1-10.348-.854 120 120 0 0 1-9.148-1.346 77.806 77.806 0 0 1-8.046-1.906 55.139 55.139 0 0 1-7.023-2.594 40.413 40.413 0 0 1-6.06-3.35 35.176 35.176 0 0 1-5.134-4.215 34.56 34.56 0 0 1-4.22-5.119 41.183 41.183 0 0 1-3.363-6.042 55.415 55.415 0 0 1-2.597-7.005 80.682 80.682 0 0 1-1.918-8.027 124.688 124.688 0 0 1-1.348-9.137 200.993 200.993 0 0 1-.856-10.326 325.212 325.212 0 0 1-.462-11.593 569.197 569.197 0 0 1-.128-12.96v-58.21c-.01-4.314.04-8.637.128-12.96.089-3.86.236-7.732.462-11.593.197-3.448.482-6.887.856-10.326.335-3.055.787-6.101 1.348-9.127a80.219 80.219 0 0 1 1.918-8.037 55.983 55.983 0 0 1 2.597-7.005 41.695 41.695 0 0 1 3.364-6.042 35.072 35.072 0 0 1 4.22-5.119 35.176 35.176 0 0 1 5.134-4.215 40.413 40.413 0 0 1 6.059-3.35 53.64 53.64 0 0 1 7.023-2.584 80.47 80.47 0 0 1 8.046-1.916 125.11 125.11 0 0 1 9.148-1.346c3.443-.373 6.895-.658 10.348-.854 3.875-.226 7.75-.374 11.626-.452 4.328-.098 8.656-.148 12.984-.138h74.126zm.01 4.009c4.298-.01 8.597.039 12.895.127 3.827.089 7.653.236 11.48.452 3.383.197 6.766.472 10.13.845 2.971.315 5.932.747 8.863 1.297a75.943 75.943 0 0 1 7.653 1.818 50.493 50.493 0 0 1 6.501 2.397 37.038 37.038 0 0 1 5.47 3.026 30.383 30.383 0 0 1 4.524 3.724 31.05 31.05 0 0 1 3.738 4.519 37.271 37.271 0 0 1 3.03 5.443 51.46 51.46 0 0 1 2.4 6.494 75.563 75.563 0 0 1 1.829 7.634c.54 2.928.974 5.875 1.298 8.842.374 3.36.65 6.73.846 10.11.217 3.822.374 7.634.453 11.456.088 4.293.137 8.577.137 12.87v58.212c0 4.293-.049 8.577-.137 12.87a317.503 317.503 0 0 1-.453 11.456c-.196 3.38-.472 6.75-.846 10.12a121.689 121.689 0 0 1-1.298 8.832 75.562 75.562 0 0 1-1.83 7.634 50.902 50.902 0 0 1-2.4 6.494 36.767 36.767 0 0 1-3.03 5.443 30.615 30.615 0 0 1-3.737 4.53 30.938 30.938 0 0 1-4.525 3.713 37.038 37.038 0 0 1-5.469 3.026 49.07 49.07 0 0 1-6.501 2.397 75.942 75.942 0 0 1-7.653 1.818c-2.931.55-5.892.982-8.863 1.306-3.364.364-6.747.649-10.13.836-3.827.216-7.653.373-11.48.452-4.298.098-8.597.137-12.895.137H90.932c-4.298 0-8.597-.04-12.895-.137a320.093 320.093 0 0 1-11.48-.452 193.696 193.696 0 0 1-10.13-.836 116.71 116.71 0 0 1-8.863-1.306 75.942 75.942 0 0 1-7.653-1.818 49.07 49.07 0 0 1-6.501-2.397 37.038 37.038 0 0 1-5.47-3.026 30.938 30.938 0 0 1-4.524-3.714 30.615 30.615 0 0 1-3.738-4.529 36.766 36.766 0 0 1-3.03-5.443 50.903 50.903 0 0 1-2.4-6.494 75.567 75.567 0 0 1-1.829-7.634 121.69 121.69 0 0 1-1.298-8.832c-.374-3.37-.65-6.74-.846-10.12a317.535 317.535 0 0 1-.453-11.456 623.851 623.851 0 0 1-.137-12.87V97.014c0-4.293.049-8.577.137-12.87.079-3.822.236-7.634.453-11.456.197-3.38.472-6.75.846-10.11.324-2.967.757-5.914 1.298-8.842a75.568 75.568 0 0 1 1.83-7.634 51.46 51.46 0 0 1 2.4-6.494 37.27 37.27 0 0 1 3.03-5.443 31.05 31.05 0 0 1 3.737-4.52 30.384 30.384 0 0 1 4.525-3.723 37.039 37.039 0 0 1 5.469-3.026 50.494 50.494 0 0 1 6.501-2.397 75.943 75.943 0 0 1 7.653-1.818c2.931-.55 5.892-.982 8.863-1.297 3.364-.373 6.747-.648 10.13-.845a344.71 344.71 0 0 1 11.48-.452c4.298-.088 8.597-.137 12.895-.127H165.078z"/>
 </g>
 <g style="isolation:isolate" transform="matrix(0.4489314,0,0,0.4489314,-264.87344,79.506847)">
  <path style="isolation:isolate;fill:#f9f9f9" d="m 886.28856,160.59395 c 0,-17.42188 0,-34.84376 0,-52.26564 l 41.26699,37.60834 5.76699,5.40594 c -0.1581,18.36308 -0.3462,36.72586 -0.53398,55.08866 -15.5,-15.2791 -31,-30.5582 -46.5,-45.8373 z"/>
  <path style="isolation:isolate;fill:#f9f9f9" d="m 933.13903,152.21908 c 17.77837,0 35.55673,0 53.3351,0 l -45.04062,-44.42475 c -18.38185,0.15773 -36.76339,0.34601 -55.14495,0.53398 z"/>
  <path d="m 917.72894,191.57553 -0.10456,-53.9142 148.13682,145.84079 -57.5,-1.25903 c -29.88682,-30.51333 -60.22119,-60.57771 -90.53226,-90.66756 z" style="fill:#f9f9f9"/>
  <path d="m 847.20468,274.68627 c -25.06595,-3.21339 -42.93683,-8.66891 -66.26077,-20.22772 -11.34597,-5.6228 -12.37173,-6.19907 -14.56109,-8.18041 -1.00959,-0.91367 -2.13665,-1.66122 -2.50457,-1.66122 -1.99323,0 -21.36417,-15.53988 -28.64203,-22.97739 -3.85303,-3.93755 -10.2656,-11.25057 -13.20468,-15.05889 -6.42353,-8.32327 -9.82686,-13.02228 -9.82686,-13.568 0,-0.32284 -0.84238,-1.78145 -1.87196,-3.24135 -3.04883,-4.32315 -8.06275,-14.09257 -11.65603,-22.71133 -11.96747,-28.70493 -16.51915,-60.24038 -12.99454,-90.030241 2.85535,-24.13331 9.75031,-47.00824 19.21818,-63.75887 1.81739,-3.21533 3.30435,-6.06109 3.30435,-6.32391 0,-0.98086 11.42802,-17.026427 15.81489,-22.204966 8.41375,-9.932125 24.45992,-25.23622 29.84271,-28.462585 6.05586,-3.629798 8.33043,-5.24307 8.33608,-5.912469 0.003,-0.4125 0.44758,-0.75 0.9869,-0.75 0.53932,0 3.35182,-1.473144 6.25,-3.273652 10.25596,-6.371565 37.85384,-18.734582 41.79167,-18.721402 0.81276,0.0027 3.50275,-0.626956 5.97775,-1.399276 14.59654,-4.55486 36.74774,-7.52438 56.5,-7.57423 23.2964,-0.0588 50.66774,4.361 69.5,11.22251 9.92799,3.617254 24.09512,9.854027 29.13776,12.827278 2.72264,1.605324 5.14027,2.918772 5.3725,2.918772 1.03956,0 12.98568,8.222184 20.61184,14.186576 6.70912,5.247111 20.26022,18.581946 29.28082,28.813424 8.4785,9.616671 23.6172,38.62015 27.9249,53.5 8.4497,29.18747 10.3542,51.80621 6.6519,79.000001 -1.8845,13.84206 -5.2907,26.71848 -11.6392,44 -2.5584,6.96421 -8.6527,18.5 -9.7735,18.5 -0.593,0 -13.61,-12.5528 -28.9266,-27.8951 l -27.84844,-27.89511 1.60401,-7.0523 c 1.14194,-5.02073 1.6006,-12.03671 1.59218,-24.354901 -0.0121,-17.67587 -1.33434,-26.27407 -6.28127,-40.84492 -3.93668,-11.59522 -14.64915,-30.29007 -20.68616,-36.10038 -0.93874,-0.9035 -2.56534,-2.7035 -3.61467,-4 -3.12416,-3.86009 -12.48954,-11.84244 -18.87022,-16.083568 -19.04301,-12.657554 -39.41615,-18.773722 -62.53585,-18.773722 -26.64325,0 -50.80032,8.42826 -72.38778,25.25566 -7.76403,6.05206 -23.61222,23.90891 -23.61222,26.60493 0,0.62668 -0.35069,1.13941 -0.77931,1.13941 -1.09206,0 -9.72325,17.45867 -11.6179,23.5 -0.86244,2.75 -2.27613,7.25 -3.14153,10 -4.15781,13.21231 -4.12136,46.076531 0.066,59.500001 4.06278,13.02417 5.52704,16.90139 8.97272,23.75897 9.12035,18.15129 22.68516,33.56902 39.24107,44.60128 6.93257,4.61961 18.43423,10.35276 25.25897,12.59065 16.17589,5.30422 17.80867,5.5491 37,5.5491 10.175,0 20.14767,-0.35042 22.1615,-0.77871 l 3.66149,-0.77871 25.60325,25.2183 25.60326,25.2183 -4.76475,1.87155 c -26.69105,10.48403 -67.32751,14.91289 -99.26475,10.81862 z" style="fill:#f9f9f9"/>
  <path d="m 847.7612,122.6039 c 0,-17.42188 0,-34.843761 0,-52.265641 l 41.26699,37.608341 5.76699,5.40594 c -0.1581,18.36308 -0.3462,36.72586 -0.53398,55.08866 -15.5,-15.2791 -31,-30.5582 -46.5,-45.8373 z" style="fill:#f9f9f9"/>
  <path d="m 1062.2191,228.30471 3.5421,55.19741 C 1015.0479,237.33483 964.41401,191.022 917.62438,137.66133 c 19.16667,0.0217 34.89583,-0.0459 54.0625,-0.0242 z" style="isolation:isolate;fill:#f9f9f9"/>
  <path d="m 889.29224,125.93178 58.65453,-11.70275 -45.04062,-44.424751 c -18.38185,0.157737 -36.76339,0.346011 -55.14495,0.53398 z" style="isolation:isolate;fill:#f9f9f9"/>
 </g>
</svg>
