<svg xmlns="http://www.w3.org/2000/svg" style="isolation:isolate" width="256" height="256" viewBox="0 0 256 256">
 <defs>
  <filter id="Niz3OLK4gypqOg7NvgibbVSPqcvPCHic" width="400%" height="400%" x="-200%" y="-200%" color-interpolation-filters="sRGB" filterUnits="objectBoundingBox">
   <feGaussianBlur xmlns="http://www.w3.org/2000/svg" in="SourceGraphic" stdDeviation="4.294"/>
   <feOffset xmlns="http://www.w3.org/2000/svg" dx="0" dy="4" result="pf_100_offsetBlur"/>
   <feFlood xmlns="http://www.w3.org/2000/svg" flood-opacity=".4"/>
   <feComposite xmlns="http://www.w3.org/2000/svg" in2="pf_100_offsetBlur" operator="in" result="pf_100_dropShadow"/>
   <feBlend xmlns="http://www.w3.org/2000/svg" in="SourceGraphic" in2="pf_100_dropShadow" mode="normal"/>
  </filter>
 </defs>
 <g filter="url(#Niz3OLK4gypqOg7NvgibbVSPqcvPCHic)">
  <path fill="#e7b870" d="M 165.689 11.95 C 239.745 11.95 250.328 22.507 250.328 96.494 L 250.328 155.745 C 250.328 229.731 239.745 240.288 165.689 240.288 L 90.319 240.288 C 16.264 240.288 5.68 229.731 5.68 155.745 L 5.68 96.494 C 5.68 22.507 16.264 11.95 90.319 11.95 L 165.689 11.95 L 165.689 11.95 Z"/>
 </g>
 <g opacity=".1">
  <path fill="#ffffff" d="M 5.676 126.116 L 5.676 155.742 C 5.676 229.728 16.26 240.285 90.315 240.285 L 165.685 240.285 C 239.74 240.285 250.324 229.728 250.324 155.742 L 250.324 126.116 L 5.676 126.116 L 5.676 126.116 Z"/>
 </g>
 <g opacity=".2">
  <path fill="#ffffff" d="M 128 11.947 L 128 240.285 L 165.685 240.285 C 239.74 240.285 250.324 229.728 250.324 155.742 L 250.324 96.491 C 250.324 22.504 239.74 11.947 165.685 11.947 L 128 11.947 L 128 11.947 Z"/>
 </g>
 <g filter="url(#yMnBBhvzf8o3Hl2vOOYIikst1c2SpPfc)">
  <path fill="#f1f0e9" d="M 142.598 35 L 113.402 35 L 113.402 56.687 L 142.598 56.687 L 142.598 35 L 142.598 35 Z"/>
  <path fill="#2b898f" d="M 171.795 35.309 C 167.605 35.178 163.636 35 158.808 35 L 142.598 35 L 142.598 56.687 L 171.795 56.687 L 171.795 35.309 L 171.795 35.309 Z M 113.402 35 L 97.192 35 C 92.364 35 88.395 35.178 84.205 35.309 L 84.205 56.687 L 113.402 56.687 L 113.402 35 L 113.402 35 Z"/>
  <path fill="#f1f0e9" d="M 84.205 35.309 C 81.828 35.383 79.02 35.357 76.838 35.484 C 73.822 35.66 70.988 35.889 68.326 36.184 C 65.663 36.478 63.172 36.838 60.84 37.272 C 58.876423 37.642984 56.930744 38.103127 55.009 38.651 L 55.009 56.687 L 84.205 56.687 L 84.205 35.309 L 84.205 35.309 Z"/>
  <path fill="#2b898f" d="M 55.009 38.651 C 54.792 38.712 54.532 38.751 54.318 38.814 C 52.399246 39.370328 50.520573 40.05658 48.695 40.868 C 47.028106 41.608663 45.426748 42.488791 43.908 43.499 C 42.468729 44.458804 41.124603 45.554129 39.894 46.77 C 38.667556 47.985719 37.5608 49.316505 36.589 50.744 C 35.569524 52.244483 34.679963 53.829233 33.93 55.481 C 33.76 55.853 33.641 56.303 33.48 56.687 L 55.009 56.687 L 55.009 38.651 L 55.009 38.651 Z"/>
  <path fill="#f1f0e9" d="M 200.991 38.651 C 199.068947 38.103019 197.12293 37.642875 195.159 37.272 C 192.678265 36.81719 190.181559 36.454275 187.674 36.184 C 184.843199 35.877081 182.00491 35.643669 179.162 35.484 C 176.98 35.357 174.172 35.383 171.795 35.309 L 171.795 56.687 L 200.991 56.687 L 200.991 38.651 L 200.991 38.651 Z"/>
  <path fill="#2b898f" d="M 222.52 56.687 C 222.359 56.303 222.24 55.853 222.07 55.481 C 221.320037 53.829233 220.430476 52.244483 219.411 50.744 C 218.4392 49.316505 217.332444 47.985719 216.106 46.77 C 214.875397 45.554129 213.531271 44.458804 212.092 43.499 C 210.573252 42.488791 208.971894 41.608663 207.305 40.868 C 205.479427 40.05658 203.600754 39.370328 201.682 38.814 C 201.468 38.751 201.208 38.712 200.991 38.651 L 200.991 56.687 L 222.52 56.687 L 222.52 56.687 Z"/>
  <path fill="#f1f0e9" d="M 84.2 56.69 L 113.396 56.69 L 113.396 85.626 L 84.2 85.626 L 84.2 56.69 Z"/>
  <path fill="#2b898f" d="M 113.4 56.69 L 142.596 56.69 L 142.596 85.626 L 113.4 85.626 L 113.4 56.69 Z M 55.01 56.69 L 84.206 56.69 L 84.206 85.626 L 55.01 85.626 L 55.01 56.69 Z"/>
  <path fill="#f1f0e9" d="M 33.48 56.687 C 32.897 58.077 32.326 59.481 31.854 61.048 C 31.224075 63.172329 30.704711 65.327889 30.298 67.506 C 29.837602 69.96151 29.470671 72.433626 29.198 74.917 C 28.9 77.553 28.668 80.358 28.49 83.343 C 28.45 84.018 28.469 84.928 28.434 85.622 L 55.009 85.622 L 55.009 56.687 L 33.48 56.687 L 33.48 56.687 Z M 227.566 85.622 C 227.531 84.928 227.55 84.018 227.51 83.343 C 227.332 80.358 227.1 77.553 226.802 74.917 C 226.529329 72.433626 226.162398 69.96151 225.702 67.506 C 225.295289 65.327889 224.775925 63.172329 224.146 61.048 C 223.674 59.481 223.103 58.077 222.52 56.687 L 200.991 56.687 L 200.991 85.622 L 227.566 85.622 L 227.566 85.622 Z M 142.6 56.69 L 171.796 56.69 L 171.796 85.626 L 142.6 85.626 L 142.6 56.69 Z"/>
  <path fill="#2b898f" d="M 171.79 56.69 L 200.986 56.69 L 200.986 85.626 L 171.79 85.626 L 171.79 56.69 Z"/>
  <path fill="#f1f0e9" d="M 113.4 85.62 L 142.596 85.62 L 142.596 114.556 L 113.4 114.556 L 113.4 85.62 Z"/>
  <path fill="#2b898f" d="M 142.6 85.62 L 171.796 85.62 L 171.796 114.556 L 142.6 114.556 L 142.6 85.62 Z M 84.2 85.62 L 113.396 85.62 L 113.396 114.556 L 84.2 114.556 L 84.2 85.62 Z"/>
  <path fill="#f1f0e9" d="M 55.01 85.62 L 84.206 85.62 L 84.206 114.556 L 55.01 114.556 L 55.01 85.62 Z"/>
  <path fill="#2b898f" d="M 28.434 85.622 C 28.138936 91.575732 27.994224 97.535964 28 103.497 L 28 114.558 L 55.009 114.558 L 55.009 85.622 L 28.434 85.622 L 28.434 85.622 Z"/>
  <path fill="#f1f0e9" d="M 171.79 85.62 L 200.986 85.62 L 200.986 114.556 L 171.79 114.556 L 171.79 85.62 Z"/>
  <path fill="#2b898f" d="M 228 114.558 L 228 103.497 C 228 96.851 227.837 91.063 227.566 85.622 L 200.991 85.622 L 200.991 114.558 L 228 114.558 L 228 114.558 Z"/>
  <path fill="#f1f0e9" d="M 84.2 114.56 L 113.396 114.56 L 113.396 143.496 L 84.2 143.496 L 84.2 114.56 Z"/>
  <path fill="#2b898f" d="M 113.4 114.56 L 142.596 114.56 L 142.596 143.496 L 113.4 143.496 L 113.4 114.56 Z M 55.01 114.56 L 84.206 114.56 L 84.206 143.496 L 55.01 143.496 L 55.01 114.56 Z"/>
  <path fill="#f1f0e9" d="M 28 114.558 L 28 143.493 L 55.009 143.493 L 55.009 114.558 L 28 114.558 L 28 114.558 Z M 228 143.493 L 228 114.558 L 200.991 114.558 L 200.991 143.493 L 228 143.493 L 228 143.493 Z M 142.6 114.56 L 171.796 114.56 L 171.796 143.496 L 142.6 143.496 L 142.6 114.56 Z"/>
  <path fill="#2b898f" d="M 171.79 114.56 L 200.986 114.56 L 200.986 143.496 L 171.79 143.496 L 171.79 114.56 Z"/>
  <path fill="#f1f0e9" d="M 113.4 143.49 L 142.596 143.49 L 142.596 172.426 L 113.4 172.426 L 113.4 143.49 Z"/>
  <path fill="#2b898f" d="M 142.6 143.49 L 171.796 143.49 L 171.796 172.426 L 142.6 172.426 L 142.6 143.49 Z M 84.2 143.49 L 113.396 143.49 L 113.396 172.426 L 84.2 172.426 L 84.2 143.49 Z"/>
  <path fill="#f1f0e9" d="M 55.01 143.49 L 84.206 143.49 L 84.206 172.426 L 55.01 172.426 L 55.01 143.49 Z"/>
  <path fill="#2b898f" d="M 28 143.493 L 28 151.503 C 28 158.996 28.135 165.686 28.49 171.657 C 28.506 171.93 28.538 172.158 28.556 172.429 L 55.009 172.429 L 55.009 143.493 L 28 143.493 L 28 143.493 Z"/>
  <path fill="#f1f0e9" d="M 171.79 143.49 L 200.986 143.49 L 200.986 172.426 L 171.79 172.426 L 171.79 143.49 Z"/>
  <path fill="#2b898f" d="M 227.444 172.429 C 227.462 172.158 227.494 171.93 227.51 171.657 C 227.865 165.686 228 158.996 228 151.503 L 228 143.493 L 200.991 143.493 L 200.991 172.429 L 227.444 172.429 L 227.444 172.429 Z"/>
  <path fill="#f1f0e9" d="M 84.2 172.43 L 113.396 172.43 L 113.396 201.366 L 84.2 201.366 L 84.2 172.43 Z"/>
  <path fill="#2b898f" d="M 113.4 172.43 L 142.596 172.43 L 142.596 201.366 L 113.4 201.366 L 113.4 172.43 Z M 55.01 172.43 L 84.206 172.43 L 84.206 201.366 L 55.01 201.366 L 55.01 172.43 Z"/>
  <path fill="#f1f0e9" d="M 28.556 172.431 C 28.726 175.112 28.927 177.689 29.198 180.083 C 29.495 182.719 29.858 185.186 30.298 187.494 C 30.704711 189.672111 31.224075 191.827671 31.854 193.952 C 32.456 195.952 33.144 197.805 33.93 199.519 C 34.236 200.187 34.63 200.739 34.966 201.365 L 55.009 201.365 L 55.009 172.431 L 28.556 172.431 L 28.556 172.431 Z M 221.034 201.365 C 221.37 200.739 221.764 200.187 222.07 199.519 C 222.888416 197.712959 223.582042 195.852931 224.146 193.952 C 224.775925 191.827671 225.295289 189.672111 225.702 187.494 C 226.142 185.186 226.505 182.719 226.802 180.083 C 227.073 177.689 227.274 175.112 227.444 172.431 L 200.991 172.431 L 200.991 201.365 L 221.034 201.365 L 221.034 201.365 Z M 142.6 172.43 L 171.796 172.43 L 171.796 201.366 L 142.6 201.366 L 142.6 172.43 Z"/>
  <path fill="#2b898f" d="M 171.79 172.43 L 200.986 172.43 L 200.986 201.366 L 171.79 201.366 L 171.79 172.43 Z"/>
  <path fill="#f1f0e9" d="M 113.402 220 L 142.598 220 L 142.598 201.365 L 113.402 201.365 L 113.402 220 L 113.402 220 Z"/>
  <path fill="#2b898f" d="M 142.598 220 L 158.808 220 C 163.636 220 167.605 219.822 171.795 219.691 L 171.795 201.365 L 142.598 201.365 L 142.598 220 L 142.598 220 Z M 84.205 219.691 C 88.395 219.822 92.364 220 97.192 220 L 113.402 220 L 113.402 201.365 L 84.205 201.365 L 84.205 219.691 L 84.205 219.691 Z"/>
  <path fill="#f1f0e9" d="M 55.009 216.349 C 56.845 216.866 58.756 217.339 60.84 217.728 C 63.172 218.162 65.663 218.522 68.326 218.816 C 70.988 219.111 73.822 219.34 76.838 219.516 C 79.02 219.643 81.828 219.617 84.205 219.691 L 84.205 201.365 L 55.009 201.365 L 55.009 216.349 L 55.009 216.349 Z"/>
  <path fill="#2b898f" d="M 34.966 201.365 C 35.493 202.347 35.984 203.373 36.589 204.256 C 37.5608 205.683495 38.667556 207.014281 39.894 208.23 C 41.124603 209.445871 42.468729 210.541196 43.908 211.501 C 45.426748 212.511209 47.028106 213.391337 48.695 214.132 C 50.520573 214.94342 52.399246 215.629672 54.318 216.186 C 54.532 216.249 54.792 216.288 55.009 216.349 L 55.009 201.365 L 34.966 201.365 L 34.966 201.365 Z"/>
  <path fill="#f1f0e9" d="M 171.795 219.691 C 174.172 219.617 176.98 219.643 179.162 219.516 C 182.178 219.34 185.012 219.111 187.674 218.816 C 190.337 218.522 192.828 218.162 195.159 217.728 C 197.12293 217.357125 199.068947 216.896981 200.991 216.349 L 200.991 201.365 L 171.795 201.365 L 171.795 219.691 L 171.795 219.691 Z"/>
  <path fill="#2b898f" d="M 200.991 216.349 C 201.208 216.288 201.468 216.249 201.682 216.186 C 203.600754 215.629672 205.479427 214.94342 207.305 214.132 C 208.971894 213.391337 210.573252 212.511209 212.092 211.501 C 213.531271 210.541196 214.875397 209.445871 216.106 208.23 C 217.332444 207.014281 218.4392 205.683495 219.411 204.256 C 220.016 203.373 220.507 202.347 221.034 201.365 L 200.991 201.365 L 200.991 216.349 L 200.991 216.349 Z"/>
 </g>
 <defs>
  <filter id="yMnBBhvzf8o3Hl2vOOYIikst1c2SpPfc" width="400%" height="400%" x="-200%" y="-200%" color-interpolation-filters="sRGB" filterUnits="objectBoundingBox">
   <feGaussianBlur xmlns="http://www.w3.org/2000/svg" in="SourceGraphic" stdDeviation="4.294"/>
   <feOffset xmlns="http://www.w3.org/2000/svg" dx="0" dy="0" result="pf_100_offsetBlur"/>
   <feFlood xmlns="http://www.w3.org/2000/svg" flood-opacity=".4"/>
   <feComposite xmlns="http://www.w3.org/2000/svg" in2="pf_100_offsetBlur" operator="in" result="pf_100_dropShadow"/>
   <feBlend xmlns="http://www.w3.org/2000/svg" in="SourceGraphic" in2="pf_100_dropShadow" mode="normal"/>
  </filter>
 </defs>
 <g opacity=".4">
  <linearGradient id="_lgradient_319" x1=".517" x2=".517" y1="0" y2="1" gradientTransform="matrix(244.65,0,0,228.34,5.68,11.95)" gradientUnits="userSpaceOnUse">
   <stop offset="0%" style="stop-color:#ffffff"/>
   <stop offset="12.5%" stop-opacity=".098" style="stop-color:#ffffff"/>
   <stop offset="92.5%" stop-opacity=".098" style="stop-color:#000000"/>
   <stop offset="100%" stop-opacity=".498" style="stop-color:#000000"/>
  </linearGradient>
  <path fill="url(#_lgradient_319)" fill-rule="evenodd" d="M 165.06803 11.951234 C 169.395994 11.941409 173.723944 11.990533 178.051908 12.088781 C 181.927398 12.167379 185.802873 12.31475 189.678362 12.540721 C 193.1309 12.737216 196.583423 13.022134 200.026115 13.395476 C 203.085193 13.729518 206.144271 14.181458 209.173842 14.741469 C 211.888645 15.242533 214.57394 15.881143 217.219897 16.6573 C 219.619947 17.354858 221.970814 18.219439 224.242988 19.241215 C 226.357793 20.184394 228.384061 21.304417 230.302129 22.591462 C 232.141505 23.829383 233.862851 25.244151 235.436659 26.80629 C 237.000621 28.378252 238.417046 30.087764 239.656409 31.924995 C 240.944972 33.840824 242.066305 35.864728 243.020409 37.967229 C 244.043389 40.246576 244.908985 42.584873 245.617197 44.972292 C 246.394255 47.615155 247.033606 50.297317 247.535265 53.008956 C 248.095924 56.034984 248.548399 59.080665 248.882828 62.13617 C 249.256611 65.574836 249.541856 69.013506 249.738578 72.462003 C 249.964823 76.323139 250.112361 80.194101 250.200884 84.055237 C 250.289421 88.378131 250.338591 92.701032 250.32876 97.014106 L 250.32876 155.225886 C 250.338591 159.54878 250.289421 163.861854 250.200884 168.184747 C 250.112361 172.05571 249.964823 175.916853 249.738578 179.777981 C 249.541856 183.226485 249.256611 186.674975 248.882828 190.103826 C 248.548399 193.15933 248.095924 196.214835 247.535265 199.240851 C 247.033606 201.942664 246.394255 204.624837 245.617197 207.267703 C 244.908985 209.655115 244.043389 212.003235 243.020409 214.272755 C 242.066305 216.38509 240.944972 218.399156 239.656409 220.314999 C 238.417046 222.152226 237.000621 223.871561 235.436659 225.433697 C 233.862851 226.995832 232.141505 228.410601 230.302129 229.648532 C 228.384061 230.935575 226.357793 232.055598 224.242988 232.998768 C 221.970814 234.020552 219.619947 234.885137 217.219897 235.592507 C 214.57394 236.368672 211.888645 237.007276 209.173842 237.498515 C 206.144271 238.068354 203.085193 238.510465 200.026115 238.844519 C 196.583423 239.21785 193.1309 239.502777 189.678362 239.699269 C 185.802873 239.925235 181.927398 240.072615 178.051908 240.161035 C 173.723944 240.249454 169.395994 240.298581 165.06803 240.288762 L 90.941963 240.288762 C 86.614006 240.298581 82.286049 240.249454 77.9581 240.161035 C 74.08261 240.072615 70.20712 239.925235 66.331638 239.699269 C 62.879108 239.502777 59.426578 239.21785 55.983886 238.844519 C 52.924808 238.510465 49.865733 238.068354 46.836162 237.498515 C 44.121356 237.007276 41.436057 236.368672 38.7901 235.592507 C 36.390053 234.885137 34.039187 234.020552 31.767009 232.998768 C 29.652213 232.055598 27.625943 230.935575 25.707871 229.648532 C 23.868489 228.410601 22.147143 226.995832 20.573343 225.433697 C 19.009377 223.871561 17.592955 222.152226 16.353586 220.314999 C 15.065036 218.399156 13.943701 216.38509 12.989584 214.272755 C 11.966612 212.003235 11.101021 209.655115 10.392811 207.267703 C 9.615746 204.624837 8.976389 201.942664 8.47474 199.240851 C 7.914072 196.214835 7.461604 193.15933 7.127172 190.103826 C 6.753394 186.674975 6.468142 183.226485 6.271417 179.777981 C 6.045183 175.916853 5.897639 172.05571 5.809112 168.184747 C 5.720586 163.861854 5.671405 159.54878 5.681241 155.225886 L 5.681241 97.014106 C 5.671405 92.701032 5.720586 88.378131 5.809112 84.055237 C 5.897639 80.194101 6.045183 76.323139 6.271417 72.462003 C 6.468142 69.013506 6.753394 65.574836 7.127172 62.13617 C 7.461604 59.080665 7.914072 56.034984 8.47474 53.008956 C 8.976389 50.297317 9.615746 47.615155 10.392811 44.972292 C 11.101021 42.584873 11.966612 40.246576 12.989584 37.967229 C 13.943701 35.864728 15.065036 33.840824 16.353586 31.924995 C 17.592955 30.087764 19.009377 28.378252 20.573343 26.80629 C 22.147143 25.244151 23.868489 23.829383 25.707871 22.591462 C 27.625943 21.304417 29.652213 20.184394 31.767009 19.241215 C 34.039187 18.219439 36.390053 17.354858 38.7901 16.6573 C 41.436057 15.881143 44.121356 15.242533 46.836162 14.741469 C 49.865733 14.181458 52.924808 13.729518 55.983886 13.395476 C 59.426578 13.022134 62.879108 12.737216 66.331638 12.540721 C 70.20712 12.31475 74.08261 12.167379 77.9581 12.088781 C 82.286049 11.990533 86.614006 11.941409 90.941963 11.951234 L 165.06803 11.951234 Z M 165.077876 15.959741 C 169.376317 15.949916 173.674759 15.99904 177.973216 16.087463 C 181.799522 16.175886 185.625827 16.323257 189.452133 16.539402 C 192.835809 16.735898 196.219486 17.010992 199.583486 17.384332 C 202.554026 17.698726 205.514751 18.131016 208.445953 18.681203 C 211.023049 19.152792 213.580483 19.761928 216.098564 20.498786 C 218.321569 21.147221 220.495374 21.952852 222.600334 22.896029 C 224.508571 23.750785 226.338116 24.762737 228.069293 25.922059 C 229.692286 27.012609 231.207063 28.260355 232.59398 29.645648 C 233.980897 31.030941 235.230091 32.543956 236.331763 34.165043 C 237.492434 35.894202 238.505568 37.711787 239.361333 39.607968 C 240.305606 41.720292 241.112187 43.891565 241.761369 46.102139 C 242.508934 48.617282 243.108947 51.161898 243.590914 53.735987 C 244.131912 56.663768 244.564709 59.6112 244.889308 62.578282 C 245.263091 65.938355 245.538505 69.308252 245.735227 72.687976 C 245.951626 76.509812 246.10901 80.321821 246.187687 84.143656 C 246.276225 88.437084 246.325394 92.720685 246.325394 97.014106 C 246.325394 97.014106 246.325394 97.014106 246.325394 97.014106 L 246.325394 155.225886 C 246.325394 155.225886 246.325394 155.225886 246.325394 155.225886 C 246.325394 159.519306 246.276225 163.802907 246.187687 168.096328 C 246.10901 171.918164 245.951626 175.739999 245.735227 179.552015 C 245.538505 182.931739 245.263091 186.301629 244.889308 189.671533 C 244.564709 192.628784 244.131912 195.576216 243.590914 198.503994 C 243.108947 201.078094 242.508934 203.622706 241.761369 206.137845 C 241.112187 208.358253 240.305606 210.5197 239.361333 212.63202 C 238.505568 214.528209 237.492434 216.355617 236.331763 218.074952 C 235.230091 219.705853 233.980897 221.218876 232.59398 222.604172 C 231.207063 223.979634 229.692286 225.227385 228.069293 226.317935 C 226.338116 227.477251 224.508571 228.489201 222.600334 229.343951 C 220.495374 230.296956 218.321569 231.092775 216.098564 231.741198 C 213.580483 232.478056 211.023049 233.087202 208.445953 233.558787 C 205.514751 234.108972 202.554026 234.541264 199.583486 234.865483 C 196.219486 235.228995 192.835809 235.513922 189.452133 235.70058 C 185.625827 235.916726 181.799522 236.073926 177.973216 236.152526 C 173.674759 236.25078 169.376317 236.290072 165.077876 236.290072 C 165.077876 236.290072 165.077876 236.290072 165.06803 236.290072 L 90.941963 236.290072 C 90.932125 236.290072 90.932125 236.290072 90.932125 236.290072 C 86.633683 236.290072 82.335234 236.25078 78.036784 236.152526 C 74.210479 236.073926 70.384173 235.916726 66.557868 235.70058 C 63.174195 235.513922 59.790522 235.228995 56.426518 234.865483 C 53.455967 234.541264 50.495253 234.108972 47.564048 233.558787 C 44.986944 233.087202 42.429517 232.478056 39.911433 231.741198 C 37.688439 231.092775 35.514626 230.296956 33.409665 229.343951 C 31.501429 228.489201 29.671886 227.477251 27.940703 226.317935 C 26.31772 225.227385 24.802935 223.979634 23.416022 222.604172 C 22.029109 221.218876 20.779904 219.705853 19.678243 218.074952 C 18.517564 216.355617 17.504428 214.528209 16.648674 212.63202 C 15.704392 210.5197 14.897819 208.358253 14.248626 206.137845 C 13.50107 203.622706 12.901057 201.078094 12.419081 198.503994 C 11.878086 195.576216 11.445291 192.628784 11.120694 189.671533 C 10.746916 186.301629 10.471501 182.931739 10.274776 179.552015 C 10.058378 175.739999 9.900997 171.918164 9.822307 168.096328 C 9.733781 163.802907 9.6846 159.519306 9.6846 155.225886 C 9.6846 155.225886 9.6846 155.225886 9.6846 155.225886 L 9.6846 97.014106 C 9.6846 97.014106 9.6846 97.014106 9.6846 97.014106 C 9.6846 92.720685 9.733781 88.437084 9.822307 84.143656 C 9.900997 80.321821 10.058378 76.509812 10.274776 72.687976 C 10.471501 69.308252 10.746916 65.938355 11.120694 62.578282 C 11.445291 59.6112 11.878086 56.663768 12.419081 53.735987 C 12.901057 51.161898 13.50107 48.617282 14.248626 46.102139 C 14.897819 43.891565 15.704392 41.720292 16.648674 39.607968 C 17.504428 37.711787 18.517564 35.894202 19.678243 34.165043 C 20.779904 32.543956 22.029109 31.030941 23.416022 29.645648 C 24.802935 28.260355 26.31772 27.012609 27.940703 25.922059 C 29.671886 24.762737 31.501429 23.750785 33.409665 22.896029 C 35.514626 21.952852 37.688439 21.147221 39.911433 20.498786 C 42.429517 19.761928 44.986944 19.152792 47.564048 18.681203 C 50.495253 18.131016 53.455967 17.698726 56.426518 17.384332 C 59.790522 17.010992 63.174195 16.735898 66.557868 16.539402 C 70.384173 16.323257 74.210479 16.175886 78.036784 16.087463 C 82.335234 15.99904 86.633683 15.949916 90.932125 15.959741 C 90.932125 15.959741 90.932125 15.959741 90.941963 15.959741 L 165.06803 15.959741 C 165.077876 15.959741 165.077876 15.959741 165.077876 15.959741 Z"/>
 </g>
</svg>
