<svg xmlns="http://www.w3.org/2000/svg" style="isolation:isolate" width="256" height="256" viewBox="0 0 256 256">
 <defs>
  <filter id="O3pQEIS9Br6AQ2PX9illwuSN0QiLE8Id" width="400%" height="400%" x="-200%" y="-200%" color-interpolation-filters="sRGB" filterUnits="objectBoundingBox">
   <feGaussianBlur xmlns="http://www.w3.org/2000/svg" in="SourceGraphic" stdDeviation="4.294"/>
   <feOffset xmlns="http://www.w3.org/2000/svg" dx="0" dy="4" result="pf_100_offsetBlur"/>
   <feFlood xmlns="http://www.w3.org/2000/svg" flood-opacity=".4"/>
   <feComposite xmlns="http://www.w3.org/2000/svg" in2="pf_100_offsetBlur" operator="in" result="pf_100_dropShadow"/>
   <feBlend xmlns="http://www.w3.org/2000/svg" in="SourceGraphic" in2="pf_100_dropShadow" mode="normal"/>
  </filter>
 </defs>
 <g filter="url(#O3pQEIS9Br6AQ2PX9illwuSN0QiLE8Id)">
  <linearGradient id="_lgradient_170" x1="0" x2="0" y1="0" y2="1" gradientTransform="matrix(244.648309,0,0,228.338396,5.68,11.95)" gradientUnits="userSpaceOnUse">
   <stop offset="0%" style="stop-color:#e6548b"/>
   <stop offset="100%" style="stop-color:#f76363"/>
  </linearGradient>
  <path fill="url(#_lgradient_170)" d="M 165.688919 11.95 C 239.744626 11.95 250.328309 22.507198 250.328309 96.493859 L 250.328309 155.744653 C 250.328309 229.73091 239.744626 240.288396 165.688919 240.288396 L 90.319393 240.288396 C 16.26369 240.288396 5.68 229.73091 5.68 155.744653 L 5.68 96.493859 C 5.68 22.507198 16.26369 11.95 90.319393 11.95 L 165.688919 11.95 Z"/>
 </g>
 <g opacity=".4">
  <linearGradient id="_lgradient_171" x1=".517" x2=".517" y1="0" y2="1" gradientTransform="matrix(244.65,0,0,228.34,5.68,11.95)" gradientUnits="userSpaceOnUse">
   <stop offset="0%" style="stop-color:#ffffff"/>
   <stop offset="12.5%" stop-opacity=".098" style="stop-color:#ffffff"/>
   <stop offset="92.5%" stop-opacity=".098" style="stop-color:#000000"/>
   <stop offset="100%" stop-opacity=".498" style="stop-color:#000000"/>
  </linearGradient>
  <path fill="url(#_lgradient_171)" fill-rule="evenodd" d="M 165.06803 11.951234 C 169.395994 11.941409 173.723944 11.990533 178.051908 12.088781 C 181.927398 12.167379 185.802873 12.31475 189.678362 12.540721 C 193.1309 12.737216 196.583423 13.022134 200.026115 13.395476 C 203.085193 13.729518 206.144271 14.181458 209.173842 14.741469 C 211.888645 15.242533 214.57394 15.881143 217.219897 16.6573 C 219.619947 17.354858 221.970814 18.219439 224.242988 19.241215 C 226.357793 20.184394 228.384061 21.304417 230.302129 22.591462 C 232.141505 23.829383 233.862851 25.244151 235.436659 26.80629 C 237.000621 28.378252 238.417046 30.087764 239.656409 31.924995 C 240.944972 33.840824 242.066305 35.864728 243.020409 37.967229 C 244.043389 40.246576 244.908985 42.584873 245.617197 44.972292 C 246.394255 47.615155 247.033606 50.297317 247.535265 53.008956 C 248.095924 56.034984 248.548399 59.080665 248.882828 62.13617 C 249.256611 65.574836 249.541856 69.013506 249.738578 72.462003 C 249.964823 76.323139 250.112361 80.194101 250.200884 84.055237 C 250.289421 88.378131 250.338591 92.701032 250.32876 97.014106 L 250.32876 155.225886 C 250.338591 159.54878 250.289421 163.861854 250.200884 168.184747 C 250.112361 172.05571 249.964823 175.916853 249.738578 179.777981 C 249.541856 183.226485 249.256611 186.674975 248.882828 190.103826 C 248.548399 193.15933 248.095924 196.214835 247.535265 199.240851 C 247.033606 201.942664 246.394255 204.624837 245.617197 207.267703 C 244.908985 209.655115 244.043389 212.003235 243.020409 214.272755 C 242.066305 216.38509 240.944972 218.399156 239.656409 220.314999 C 238.417046 222.152226 237.000621 223.871561 235.436659 225.433697 C 233.862851 226.995832 232.141505 228.410601 230.302129 229.648532 C 228.384061 230.935575 226.357793 232.055598 224.242988 232.998768 C 221.970814 234.020552 219.619947 234.885137 217.219897 235.592507 C 214.57394 236.368672 211.888645 237.007276 209.173842 237.498515 C 206.144271 238.068354 203.085193 238.510465 200.026115 238.844519 C 196.583423 239.21785 193.1309 239.502777 189.678362 239.699269 C 185.802873 239.925235 181.927398 240.072615 178.051908 240.161035 C 173.723944 240.249454 169.395994 240.298581 165.06803 240.288762 L 90.941963 240.288762 C 86.614006 240.298581 82.286049 240.249454 77.9581 240.161035 C 74.08261 240.072615 70.20712 239.925235 66.331638 239.699269 C 62.879108 239.502777 59.426578 239.21785 55.983886 238.844519 C 52.924808 238.510465 49.865733 238.068354 46.836162 237.498515 C 44.121356 237.007276 41.436057 236.368672 38.7901 235.592507 C 36.390053 234.885137 34.039187 234.020552 31.767009 232.998768 C 29.652213 232.055598 27.625943 230.935575 25.707871 229.648532 C 23.868489 228.410601 22.147143 226.995832 20.573343 225.433697 C 19.009377 223.871561 17.592955 222.152226 16.353586 220.314999 C 15.065036 218.399156 13.943701 216.38509 12.989584 214.272755 C 11.966612 212.003235 11.101021 209.655115 10.392811 207.267703 C 9.615746 204.624837 8.976389 201.942664 8.47474 199.240851 C 7.914072 196.214835 7.461604 193.15933 7.127172 190.103826 C 6.753394 186.674975 6.468142 183.226485 6.271417 179.777981 C 6.045183 175.916853 5.897639 172.05571 5.809112 168.184747 C 5.720586 163.861854 5.671405 159.54878 5.681241 155.225886 L 5.681241 97.014106 C 5.671405 92.701032 5.720586 88.378131 5.809112 84.055237 C 5.897639 80.194101 6.045183 76.323139 6.271417 72.462003 C 6.468142 69.013506 6.753394 65.574836 7.127172 62.13617 C 7.461604 59.080665 7.914072 56.034984 8.47474 53.008956 C 8.976389 50.297317 9.615746 47.615155 10.392811 44.972292 C 11.101021 42.584873 11.966612 40.246576 12.989584 37.967229 C 13.943701 35.864728 15.065036 33.840824 16.353586 31.924995 C 17.592955 30.087764 19.009377 28.378252 20.573343 26.80629 C 22.147143 25.244151 23.868489 23.829383 25.707871 22.591462 C 27.625943 21.304417 29.652213 20.184394 31.767009 19.241215 C 34.039187 18.219439 36.390053 17.354858 38.7901 16.6573 C 41.436057 15.881143 44.121356 15.242533 46.836162 14.741469 C 49.865733 14.181458 52.924808 13.729518 55.983886 13.395476 C 59.426578 13.022134 62.879108 12.737216 66.331638 12.540721 C 70.20712 12.31475 74.08261 12.167379 77.9581 12.088781 C 82.286049 11.990533 86.614006 11.941409 90.941963 11.951234 L 165.06803 11.951234 Z M 165.077876 15.959741 C 169.376317 15.949916 173.674759 15.99904 177.973216 16.087463 C 181.799522 16.175886 185.625827 16.323257 189.452133 16.539402 C 192.835809 16.735898 196.219486 17.010992 199.583486 17.384332 C 202.554026 17.698726 205.514751 18.131016 208.445953 18.681203 C 211.023049 19.152792 213.580483 19.761928 216.098564 20.498786 C 218.321569 21.147221 220.495374 21.952852 222.600334 22.896029 C 224.508571 23.750785 226.338116 24.762737 228.069293 25.922059 C 229.692286 27.012609 231.207063 28.260355 232.59398 29.645648 C 233.980897 31.030941 235.230091 32.543956 236.331763 34.165043 C 237.492434 35.894202 238.505568 37.711787 239.361333 39.607968 C 240.305606 41.720292 241.112187 43.891565 241.761369 46.102139 C 242.508934 48.617282 243.108947 51.161898 243.590914 53.735987 C 244.131912 56.663768 244.564709 59.6112 244.889308 62.578282 C 245.263091 65.938355 245.538505 69.308252 245.735227 72.687976 C 245.951626 76.509812 246.10901 80.321821 246.187687 84.143656 C 246.276225 88.437084 246.325394 92.720685 246.325394 97.014106 C 246.325394 97.014106 246.325394 97.014106 246.325394 97.014106 L 246.325394 155.225886 C 246.325394 155.225886 246.325394 155.225886 246.325394 155.225886 C 246.325394 159.519306 246.276225 163.802907 246.187687 168.096328 C 246.10901 171.918164 245.951626 175.739999 245.735227 179.552015 C 245.538505 182.931739 245.263091 186.301629 244.889308 189.671533 C 244.564709 192.628784 244.131912 195.576216 243.590914 198.503994 C 243.108947 201.078094 242.508934 203.622706 241.761369 206.137845 C 241.112187 208.358253 240.305606 210.5197 239.361333 212.63202 C 238.505568 214.528209 237.492434 216.355617 236.331763 218.074952 C 235.230091 219.705853 233.980897 221.218876 232.59398 222.604172 C 231.207063 223.979634 229.692286 225.227385 228.069293 226.317935 C 226.338116 227.477251 224.508571 228.489201 222.600334 229.343951 C 220.495374 230.296956 218.321569 231.092775 216.098564 231.741198 C 213.580483 232.478056 211.023049 233.087202 208.445953 233.558787 C 205.514751 234.108972 202.554026 234.541264 199.583486 234.865483 C 196.219486 235.228995 192.835809 235.513922 189.452133 235.70058 C 185.625827 235.916726 181.799522 236.073926 177.973216 236.152526 C 173.674759 236.25078 169.376317 236.290072 165.077876 236.290072 C 165.077876 236.290072 165.077876 236.290072 165.06803 236.290072 L 90.941963 236.290072 C 90.932125 236.290072 90.932125 236.290072 90.932125 236.290072 C 86.633683 236.290072 82.335234 236.25078 78.036784 236.152526 C 74.210479 236.073926 70.384173 235.916726 66.557868 235.70058 C 63.174195 235.513922 59.790522 235.228995 56.426518 234.865483 C 53.455967 234.541264 50.495253 234.108972 47.564048 233.558787 C 44.986944 233.087202 42.429517 232.478056 39.911433 231.741198 C 37.688439 231.092775 35.514626 230.296956 33.409665 229.343951 C 31.501429 228.489201 29.671886 227.477251 27.940703 226.317935 C 26.31772 225.227385 24.802935 223.979634 23.416022 222.604172 C 22.029109 221.218876 20.779904 219.705853 19.678243 218.074952 C 18.517564 216.355617 17.504428 214.528209 16.648674 212.63202 C 15.704392 210.5197 14.897819 208.358253 14.248626 206.137845 C 13.50107 203.622706 12.901057 201.078094 12.419081 198.503994 C 11.878086 195.576216 11.445291 192.628784 11.120694 189.671533 C 10.746916 186.301629 10.471501 182.931739 10.274776 179.552015 C 10.058378 175.739999 9.900997 171.918164 9.822307 168.096328 C 9.733781 163.802907 9.6846 159.519306 9.6846 155.225886 C 9.6846 155.225886 9.6846 155.225886 9.6846 155.225886 L 9.6846 97.014106 C 9.6846 97.014106 9.6846 97.014106 9.6846 97.014106 C 9.6846 92.720685 9.733781 88.437084 9.822307 84.143656 C 9.900997 80.321821 10.058378 76.509812 10.274776 72.687976 C 10.471501 69.308252 10.746916 65.938355 11.120694 62.578282 C 11.445291 59.6112 11.878086 56.663768 12.419081 53.735987 C 12.901057 51.161898 13.50107 48.617282 14.248626 46.102139 C 14.897819 43.891565 15.704392 41.720292 16.648674 39.607968 C 17.504428 37.711787 18.517564 35.894202 19.678243 34.165043 C 20.779904 32.543956 22.029109 31.030941 23.416022 29.645648 C 24.802935 28.260355 26.31772 27.012609 27.940703 25.922059 C 29.671886 24.762737 31.501429 23.750785 33.409665 22.896029 C 35.514626 21.952852 37.688439 21.147221 39.911433 20.498786 C 42.429517 19.761928 44.986944 19.152792 47.564048 18.681203 C 50.495253 18.131016 53.455967 17.698726 56.426518 17.384332 C 59.790522 17.010992 63.174195 16.735898 66.557868 16.539402 C 70.384173 16.323257 74.210479 16.175886 78.036784 16.087463 C 82.335234 15.99904 86.633683 15.949916 90.932125 15.959741 C 90.932125 15.959741 90.932125 15.959741 90.941963 15.959741 L 165.06803 15.959741 C 165.077876 15.959741 165.077876 15.959741 165.077876 15.959741 Z"/>
 </g>
 <g>
  <defs>
   <filter id="TKFthnPYb5Gf1nhw9z45VuEa9S6zXZFk" width="400%" height="400%" x="-200%" y="-200%" color-interpolation-filters="sRGB" filterUnits="objectBoundingBox">
    <feGaussianBlur xmlns="http://www.w3.org/2000/svg" in="SourceGraphic" stdDeviation="4.294"/>
    <feOffset xmlns="http://www.w3.org/2000/svg" dx="0" dy="4" result="pf_100_offsetBlur"/>
    <feFlood xmlns="http://www.w3.org/2000/svg" flood-opacity=".4"/>
    <feComposite xmlns="http://www.w3.org/2000/svg" in2="pf_100_offsetBlur" operator="in" result="pf_100_dropShadow"/>
    <feBlend xmlns="http://www.w3.org/2000/svg" in="SourceGraphic" in2="pf_100_dropShadow" mode="normal"/>
   </filter>
  </defs>
  <g filter="url(#TKFthnPYb5Gf1nhw9z45VuEa9S6zXZFk)">
   <linearGradient id="_lgradient_172" x1=".818" x2=".212" y1="-.071" y2=".984" gradientTransform="matrix(155,0,0,145,50.321383,54.5)" gradientUnits="userSpaceOnUse">
    <stop offset="0%" style="stop-color:#f2f2f2"/>
    <stop offset="100%" style="stop-color:#f9f9f9"/>
   </linearGradient>
   <path fill="url(#_lgradient_172)" d="M 151.697217 54.5 C 198.616383 54.5 205.321383 61.203943 205.321383 108.187428 L 205.321383 145.813207 C 205.321383 192.796057 198.616383 199.5 151.697217 199.5 L 103.945549 199.5 C 57.027017 199.5 50.321383 192.796057 50.321383 145.813207 L 50.321383 108.187428 C 50.321383 61.203943 57.027017 54.5 103.945549 54.5 L 151.697217 54.5 L 151.697217 54.5 Z"/>
  </g>
  <linearGradient id="_lgradient_173" x1="0" x2="0" y1=".5" y2="-.5" gradientTransform="matrix(114.041398,0,0,95.158274,72.065276,78.451182)" gradientUnits="userSpaceOnUse">
   <stop offset="50%" style="stop-color:#ff9191"/>
   <stop offset="100%" style="stop-color:#ffb100"/>
  </linearGradient>
  <path fill="url(#_lgradient_173)" d="M 76.370973 78.451182 L 181.800978 78.451182 C 184.178514 78.452233 186.105626 80.383786 186.106675 82.766802 L 186.106675 169.293836 C 186.105626 171.676852 184.178514 173.608405 181.800978 173.609456 L 76.370973 173.609456 C 73.993437 173.608405 72.066325 171.676852 72.065276 169.293836 L 72.065276 82.766802 C 72.066325 80.383786 73.993437 78.452233 76.370973 78.451182 L 76.370973 78.451182 Z"/>
  <path fill="#8173dd" fill-rule="evenodd" d="M 121.060629 119.30415 L 80.143209 173.609456 L 107.421911 173.609456 L 134.999656 137.803655 L 121.060629 119.30415 Z"/>
  <path fill="#89a1f6" fill-rule="evenodd" d="M 161.978683 173.609456 L 107.421911 173.609456 L 134.96481 137.757298 L 161.978683 173.609456 Z"/>
  <linearGradient id="_lgradient_174" x1="0" x2=".409" y1=".5" y2="1.412" gradientTransform="matrix(43.380714,0,0,46.159224,134.96481,127.450232)" gradientUnits="userSpaceOnUse">
   <stop offset="9.117%" style="stop-color:#ffd241"/>
   <stop offset="85.652%" style="stop-color:#ffc0c1"/>
  </linearGradient>
  <path fill="url(#_lgradient_174)" fill-rule="evenodd" d="M 142.883718 127.450232 L 178.345524 173.609456 L 161.978683 173.609456 L 134.96481 137.757298 L 142.883718 127.450232 Z"/>
 </g>
 <g>
  <defs>
   <filter id="XmJzAGMARvz4mfPdrBMaknWPGRF0gler" width="400%" height="400%" x="-200%" y="-200%" color-interpolation-filters="sRGB" filterUnits="objectBoundingBox">
    <feGaussianBlur xmlns="http://www.w3.org/2000/svg" stdDeviation="4.294"/>
   </filter>
  </defs>
  <g opacity=".4" filter="url(#XmJzAGMARvz4mfPdrBMaknWPGRF0gler)">
   <path d="M 49.855218 48.304712 C 47.150926 48.308006 44.580029 49.479956 42.803794 51.519121 C 41.027558 53.558287 40.219347 56.265642 40.587043 58.944822 L 40.587043 92.10294 C 40.541934 95.478818 42.317102 98.61774 45.233412 100.318835 C 48.149721 102.019929 51.755835 102.019929 54.672144 100.318835 C 57.588453 98.61774 59.363621 95.478818 59.318513 92.10294 L 59.318513 80.371383 L 87.037674 108.090544 C 89.387231 110.535019 92.874396 111.518907 96.155142 110.662997 C 99.435889 109.807087 101.997954 107.245022 102.853864 103.964275 C 103.709774 100.683529 102.725886 97.196364 100.281411 94.846807 L 72.56225 67.127646 L 84.293807 67.127646 C 87.669671 67.172733 90.808572 65.39756 92.509653 62.481259 C 94.210735 59.564958 94.210735 55.958862 92.509653 53.042561 C 90.808572 50.12626 87.669671 48.351087 84.293807 48.396174 L 51.1113 48.396174 C 50.695132 48.337541 50.27549 48.306984 49.855218 48.304712 Z M 162.244041 148.205889 C 158.433968 148.209267 155.005612 150.520209 153.57306 154.050714 C 152.140507 157.581219 152.989265 161.62766 155.719733 164.284955 L 183.438894 192.004116 L 171.707336 192.004116 C 168.331459 191.959008 165.192536 193.734176 163.491441 196.650485 C 161.790347 199.566794 161.790347 203.172908 163.491441 206.089218 C 165.192536 209.005527 168.331459 210.780695 171.707336 210.735587 L 204.889843 210.735587 C 207.787166 211.123669 210.699549 210.136826 212.764169 208.067422 C 214.828789 205.998017 215.808888 203.083358 215.414101 200.18694 L 215.414101 167.028822 C 215.459209 163.652945 213.684041 160.514022 210.767732 158.812927 C 207.851422 157.111833 204.245309 157.111833 201.328999 158.812927 C 198.41269 160.514022 196.637522 163.652945 196.68263 167.028822 L 196.68263 178.760379 L 168.963469 151.041219 C 167.198703 149.227115 164.774924 148.204377 162.244041 148.205889 Z"/>
  </g>
  <path fill="#e4e4e4" d="M 100.297618 91.731724 C 102.045889 93.479995 103.013681 95.852648 103.013681 98.350177 C 103.013681 100.816487 102.045889 103.220359 100.297618 104.96863 C 98.518128 106.716901 96.145475 107.715912 93.647946 107.715912 C 91.181636 107.715912 88.777764 106.716901 87.029493 104.96863 L 43.322729 61.261866 C 41.574458 59.513595 40.575446 57.109723 40.575446 54.643413 C 40.575446 52.145883 41.574458 49.77323 43.322729 48.02496 C 45.102218 46.24547 47.474871 45.277677 49.941181 45.277677 C 52.438711 45.277677 54.811364 46.24547 56.590853 48.02496 L 100.297618 91.731724 Z"/>
  <path fill="#e4e4e4" d="M 84.282211 64.009148 L 59.306917 64.009148 L 59.306917 88.984442 C 59.306917 91.450752 58.339124 93.854624 56.590853 95.602895 C 54.811364 97.351165 52.438711 98.350177 49.941181 98.350177 C 47.474871 98.350177 45.102218 97.351165 43.322729 95.602895 C 41.574458 93.854624 40.575446 91.450752 40.575446 88.984442 L 40.575446 53.246357 C 41.651403 48.556655 44.595106 45.931647 49.312897 45.277677 L 84.282211 45.277677 C 86.77974 45.277677 89.152393 46.24547 90.931883 48.02496 C 92.680153 49.77323 93.647946 52.145883 93.647946 54.643413 C 93.647946 57.109723 92.680153 59.513595 90.931883 61.261866 C 89.152393 63.010136 86.77974 64.009148 84.282211 64.009148 Z"/>
  <path fill="#e4e4e4" d="M 199.418316 204.869806 L 155.711552 161.163042 C 153.963281 159.414771 152.964269 157.010899 152.964269 154.544589 C 152.964269 152.047059 153.963281 149.674406 155.711552 147.926136 C 157.459822 146.146646 159.863694 145.178853 162.330004 145.178853 C 164.827534 145.178853 167.200187 146.146646 168.948457 147.926136 L 212.655222 191.6329 C 214.434712 193.381171 215.402504 195.753824 215.402504 198.251353 C 215.402504 200.717663 214.434712 203.121535 212.655222 204.869806 C 210.906951 206.618077 208.534298 207.617088 206.036769 207.617088 C 203.570459 207.617088 201.166587 206.618077 199.418316 204.869806 Z"/>
  <path fill="#e4e4e4" d="M 171.69574 188.885618 L 196.671034 188.885618 L 196.671034 163.910324 C 196.671034 161.412794 197.670045 159.040142 199.418316 157.291871 C 201.166587 155.512381 203.570459 154.544589 206.036769 154.544589 C 208.534298 154.544589 210.906951 155.512381 212.655222 157.291871 C 214.434712 159.040142 215.402504 161.412794 215.402504 163.910324 L 215.402504 198.317694 C 215.262018 203.58592 211.066949 207.683429 205.945063 207.617088 L 171.69574 207.617088 C 169.229429 207.617088 166.825557 206.618077 165.077287 204.869806 C 163.329016 203.121535 162.330004 200.717663 162.330004 198.251353 C 162.330004 195.753824 163.329016 193.381171 165.077287 191.6329 C 166.825557 189.853411 169.229429 188.885618 171.69574 188.885618 Z"/>
  <g opacity=".2">
   <path fill="#ffffff" d="M 49.855218 45.181418 C 47.150926 45.184713 44.58003 46.356663 42.803794 48.395828 C 41.027559 50.434993 40.219348 53.142348 40.587043 55.821528 L 40.587043 56.480056 C 41.184639 51.813725 45.15079 48.31464 49.855218 48.30333 C 50.27549 48.305603 50.695132 48.336159 51.1113 48.394793 L 84.293807 48.394793 C 88.916535 48.338581 92.888873 51.663535 93.647348 56.223962 C 94.11833 53.481372 93.345458 50.67136 91.538166 48.555391 C 89.730875 46.439423 87.076308 45.236605 84.293807 45.272881 L 51.1113 45.272881 C 50.695132 45.214248 50.27549 45.183691 49.855218 45.181418 Z M 72.56225 67.126263 L 100.281411 94.845424 C 101.731873 96.245308 102.692015 98.07578 103.01918 100.06487 C 103.546814 97.002414 102.521216 93.87765 100.281411 91.723512 L 75.684161 67.126263 L 72.56225 67.126263 Z M 162.244041 145.082594 C 159.496273 145.08888 156.889855 146.301398 155.115004 148.399057 C 153.340152 150.496716 152.575905 153.267914 153.024645 155.9788 C 153.798898 151.490534 157.689487 148.209779 162.244041 148.204506 C 164.774924 148.202994 167.198703 149.225732 168.963469 151.039836 L 196.68263 178.758996 L 196.68263 175.637085 L 168.963469 147.917924 C 167.198703 146.10382 164.774924 145.081083 162.244041 145.082594 Z M 205.902026 154.417844 C 200.73906 154.498539 196.615233 158.742371 196.68263 163.905527 L 196.68263 167.027439 C 196.637522 163.651562 198.41269 160.512639 201.328999 158.811544 C 204.245309 157.11045 207.851422 157.11045 210.767732 158.811544 C 213.684041 160.512639 215.459209 163.651562 215.414101 167.027439 L 215.414101 163.905527 C 215.447132 161.375008 214.45478 158.93881 212.662985 157.151609 C 210.87119 155.364409 208.432451 154.378315 205.902026 154.417844 L 205.902026 154.417844 Z M 171.707336 188.880821 C 168.93492 188.847123 166.290038 190.043444 164.484671 192.147744 C 162.679305 194.252043 161.898995 197.048059 162.353795 199.783124 C 163.133657 195.242118 167.100243 191.942663 171.707336 192.002733 L 183.438894 192.002733 L 180.316982 188.880821 L 171.707336 188.880821 Z M 215.414101 197.063645 L 215.414101 199.533124 C 215.523088 198.713572 215.523088 197.883198 215.414101 197.063645 Z"/>
  </g>
 </g>
</svg>
