<svg xmlns="http://www.w3.org/2000/svg" style="isolation:isolate" width="256" height="256" viewBox="0 0 256 256">
 <defs>
  <filter id="kR3OpVRqx1lmA9cbMh8hduS81OenWNGu" width="400%" height="400%" x="-200%" y="-200%" color-interpolation-filters="sRGB" filterUnits="objectBoundingBox">
   <feGaussianBlur xmlns="http://www.w3.org/2000/svg" in="SourceGraphic" stdDeviation="4.294"/>
   <feOffset xmlns="http://www.w3.org/2000/svg" dx="0" dy="4" result="pf_100_offsetBlur"/>
   <feFlood xmlns="http://www.w3.org/2000/svg" flood-opacity=".4"/>
   <feComposite xmlns="http://www.w3.org/2000/svg" in2="pf_100_offsetBlur" operator="in" result="pf_100_dropShadow"/>
   <feBlend xmlns="http://www.w3.org/2000/svg" in="SourceGraphic" in2="pf_100_dropShadow" mode="normal"/>
  </filter>
 </defs>
 <g filter="url(#kR3OpVRqx1lmA9cbMh8hduS81OenWNGu)">
  <linearGradient id="_lgradient_11" x1="0" x2="0" y1="0" y2="1" gradientTransform="matrix(244.648,0,0,228.338,5.43,11.577)" gradientUnits="userSpaceOnUse">
   <stop offset="0%" style="stop-color:#e0e5e7"/>
   <stop offset="100%" style="stop-color:#c7ced2"/>
  </linearGradient>
  <path fill="url(#_lgradient_11)" d="M 165.439 11.577 C 239.495 11.577 250.078 22.134 250.078 96.12 L 250.078 155.371 C 250.078 229.358 239.495 239.915 165.439 239.915 L 90.069 239.915 C 16.014 239.915 5.43 229.358 5.43 155.371 L 5.43 96.12 C 5.43 22.134 16.014 11.577 90.069 11.577 L 165.439 11.577 Z"/>
 </g>
 <g opacity=".4">
  <linearGradient id="_lgradient_12" x1=".517" x2=".517" y1="0" y2="1" gradientTransform="matrix(244.65,0,0,228.34,5.68,11.95)" gradientUnits="userSpaceOnUse">
   <stop offset="0%" style="stop-color:#ffffff"/>
   <stop offset="12.5%" stop-opacity=".098" style="stop-color:#ffffff"/>
   <stop offset="92.5%" stop-opacity=".098" style="stop-color:#000000"/>
   <stop offset="100%" stop-opacity=".498" style="stop-color:#000000"/>
  </linearGradient>
  <path fill="url(#_lgradient_12)" fill-rule="evenodd" d="M 165.068 11.951 C 169.396 11.941 173.724 11.991 178.052 12.089 C 181.927 12.167 185.803 12.315 189.678 12.541 C 193.131 12.737 196.583 13.022 200.026 13.395 C 203.085 13.73 206.144 14.181 209.174 14.741 C 211.889 15.243 214.574 15.881 217.22 16.657 C 219.62 17.355 221.971 18.219 224.243 19.241 C 226.358 20.184 228.384 21.304 230.302 22.591 C 232.142 23.829 233.863 25.244 235.437 26.806 C 237.001 28.378 238.417 30.088 239.656 31.925 C 240.945 33.841 242.066 35.865 243.02 37.967 C 244.043 40.247 244.909 42.585 245.617 44.972 C 246.394 47.615 247.034 50.297 247.535 53.009 C 248.096 56.035 248.548 59.081 248.883 62.136 C 249.257 65.575 249.542 69.014 249.739 72.462 C 249.965 76.323 250.112 80.194 250.201 84.055 C 250.289 88.378 250.339 92.701 250.329 97.014 L 250.329 155.226 C 250.339 159.549 250.289 163.862 250.201 168.185 C 250.112 172.056 249.965 175.917 249.739 179.778 C 249.542 183.226 249.257 186.675 248.883 190.104 C 248.548 193.159 248.096 196.215 247.535 199.241 C 247.034 201.943 246.394 204.625 245.617 207.268 C 244.909 209.655 244.043 212.003 243.02 214.273 C 242.066 216.385 240.945 218.399 239.656 220.315 C 238.417 222.152 237.001 223.872 235.437 225.434 C 233.863 226.996 232.142 228.411 230.302 229.649 C 228.384 230.936 226.358 232.056 224.243 232.999 C 221.971 234.021 219.62 234.885 217.22 235.593 C 214.574 236.369 211.889 237.007 209.174 237.499 C 206.144 238.068 203.085 238.51 200.026 238.845 C 196.583 239.218 193.131 239.503 189.678 239.699 C 185.803 239.925 181.927 240.073 178.052 240.161 C 173.724 240.249 169.396 240.299 165.068 240.289 L 90.942 240.289 C 86.614 240.299 82.286 240.249 77.958 240.161 C 74.083 240.073 70.207 239.925 66.332 239.699 C 62.879 239.503 59.427 239.218 55.984 238.845 C 52.925 238.51 49.866 238.068 46.836 237.499 C 44.121 237.007 41.436 236.369 38.79 235.593 C 36.39 234.885 34.039 234.021 31.767 232.999 C 29.652 232.056 27.626 230.936 25.708 229.649 C 23.868 228.411 22.147 226.996 20.573 225.434 C 19.009 223.872 17.593 222.152 16.354 220.315 C 15.065 218.399 13.944 216.385 12.99 214.273 C 11.967 212.003 11.101 209.655 10.393 207.268 C 9.616 204.625 8.976 201.943 8.475 199.241 C 7.914 196.215 7.462 193.159 7.127 190.104 C 6.753 186.675 6.468 183.226 6.271 179.778 C 6.045 175.917 5.898 172.056 5.809 168.185 C 5.721 163.862 5.671 159.549 5.681 155.226 L 5.681 97.014 C 5.671 92.701 5.721 88.378 5.809 84.055 C 5.898 80.194 6.045 76.323 6.271 72.462 C 6.468 69.014 6.753 65.575 7.127 62.136 C 7.462 59.081 7.914 56.035 8.475 53.009 C 8.976 50.297 9.616 47.615 10.393 44.972 C 11.101 42.585 11.967 40.247 12.99 37.967 C 13.944 35.865 15.065 33.841 16.354 31.925 C 17.593 30.088 19.009 28.378 20.573 26.806 C 22.147 25.244 23.868 23.829 25.708 22.591 C 27.626 21.304 29.652 20.184 31.767 19.241 C 34.039 18.219 36.39 17.355 38.79 16.657 C 41.436 15.881 44.121 15.243 46.836 14.741 C 49.866 14.181 52.925 13.73 55.984 13.395 C 59.427 13.022 62.879 12.737 66.332 12.541 C 70.207 12.315 74.083 12.167 77.958 12.089 C 82.286 11.991 86.614 11.941 90.942 11.951 L 165.068 11.951 Z M 165.078 15.96 C 169.376 15.95 173.675 15.999 177.973 16.087 C 181.8 16.176 185.626 16.323 189.452 16.539 C 192.836 16.736 196.219 17.011 199.583 17.384 C 202.554 17.699 205.515 18.131 208.446 18.681 C 211.023 19.153 213.58 19.762 216.099 20.499 C 218.322 21.147 220.495 21.953 222.6 22.896 C 224.509 23.751 226.338 24.763 228.069 25.922 C 229.692 27.013 231.207 28.26 232.594 29.646 C 233.981 31.031 235.23 32.544 236.332 34.165 C 237.492 35.894 238.506 37.712 239.361 39.608 C 240.306 41.72 241.112 43.892 241.761 46.102 C 242.509 48.617 243.109 51.162 243.591 53.736 C 244.132 56.664 244.565 59.611 244.889 62.578 C 245.263 65.938 245.539 69.308 245.735 72.688 C 245.952 76.51 246.109 80.322 246.188 84.144 C 246.276 88.437 246.325 92.721 246.325 97.014 C 246.325 97.014 246.325 97.014 246.325 97.014 L 246.325 155.226 C 246.325 155.226 246.325 155.226 246.325 155.226 C 246.325 159.519 246.276 163.803 246.188 168.096 C 246.109 171.918 245.952 175.74 245.735 179.552 C 245.539 182.932 245.263 186.302 244.889 189.672 C 244.565 192.629 244.132 195.576 243.591 198.504 C 243.109 201.078 242.509 203.623 241.761 206.138 C 241.112 208.358 240.306 210.52 239.361 212.632 C 238.506 214.528 237.492 216.356 236.332 218.075 C 235.23 219.706 233.981 221.219 232.594 222.604 C 231.207 223.98 229.692 225.227 228.069 226.318 C 226.338 227.477 224.509 228.489 222.6 229.344 C 220.495 230.297 218.322 231.093 216.099 231.741 C 213.58 232.478 211.023 233.087 208.446 233.559 C 205.515 234.109 202.554 234.541 199.583 234.865 C 196.219 235.229 192.836 235.514 189.452 235.701 C 185.626 235.917 181.8 236.074 177.973 236.153 C 173.675 236.251 169.376 236.29 165.078 236.29 C 165.078 236.29 165.078 236.29 165.068 236.29 L 90.942 236.29 C 90.932 236.29 90.932 236.29 90.932 236.29 C 86.634 236.29 82.335 236.251 78.037 236.153 C 74.21 236.074 70.384 235.917 66.558 235.701 C 63.174 235.514 59.791 235.229 56.427 234.865 C 53.456 234.541 50.495 234.109 47.564 233.559 C 44.987 233.087 42.43 232.478 39.911 231.741 C 37.688 231.093 35.515 230.297 33.41 229.344 C 31.501 228.489 29.672 227.477 27.941 226.318 C 26.318 225.227 24.803 223.98 23.416 222.604 C 22.029 221.219 20.78 219.706 19.678 218.075 C 18.518 216.356 17.504 214.528 16.649 212.632 C 15.704 210.52 14.898 208.358 14.249 206.138 C 13.501 203.623 12.901 201.078 12.419 198.504 C 11.878 195.576 11.445 192.629 11.121 189.672 C 10.747 186.302 10.472 182.932 10.275 179.552 C 10.058 175.74 9.901 171.918 9.822 168.096 C 9.734 163.803 9.685 159.519 9.685 155.226 C 9.685 155.226 9.685 155.226 9.685 155.226 L 9.685 97.014 C 9.685 97.014 9.685 97.014 9.685 97.014 C 9.685 92.721 9.734 88.437 9.822 84.144 C 9.901 80.322 10.058 76.51 10.275 72.688 C 10.472 69.308 10.747 65.938 11.121 62.578 C 11.445 59.611 11.878 56.664 12.419 53.736 C 12.901 51.162 13.501 48.617 14.249 46.102 C 14.898 43.892 15.704 41.72 16.649 39.608 C 17.504 37.712 18.518 35.894 19.678 34.165 C 20.78 32.544 22.029 31.031 23.416 29.646 C 24.803 28.26 26.318 27.013 27.941 25.922 C 29.672 24.763 31.501 23.751 33.41 22.896 C 35.515 21.953 37.688 21.147 39.911 20.499 C 42.43 19.762 44.987 19.153 47.564 18.681 C 50.495 18.131 53.456 17.699 56.427 17.384 C 59.791 17.011 63.174 16.736 66.558 16.539 C 70.384 16.323 74.21 16.176 78.037 16.087 C 82.335 15.999 86.634 15.95 90.932 15.96 C 90.932 15.96 90.932 15.96 90.942 15.96 L 165.068 15.96 C 165.078 15.96 165.078 15.96 165.078 15.96 Z"/>
 </g>
 <g>
  <path d="M 100.35 122 C 105.8 122.7 111.29 123.05 116.78 123.06 C 121.29 123.07 125.8 122.8 130.27 122.24 C 134.24 121.75 138.18 120.98 142.05 119.94 C 145.47 119.03 148.82 117.86 152.06 116.43 C 154.91 115.18 157.65 113.68 160.24 111.96 C 162.51 110.46 164.62 108.73 166.55 106.81 C 168.24 105.14 169.72 103.28 170.98 101.27 C 172.09 99.5 172.96 97.6 173.57 95.6 C 174.12 93.78 174.41 91.88 174.41 89.98 C 174.41 88.16 174.14 86.35 173.61 84.61 C 173.03 82.72 172.19 80.92 171.12 79.27 C 169.86 77.35 168.37 75.59 166.69 74.03 C 164.67 72.17 162.46 70.52 160.09 69.11 C 157.25 67.42 154.27 65.97 151.17 64.79 C 147.48 63.37 143.69 62.22 139.84 61.35 C 135.28 60.31 130.67 59.54 126.02 59.05 C 120.59 58.47 115.13 58.17 109.67 58.14 L 109.72 48.17 C 115.51 48.2 121.31 48.52 127.07 49.13 C 132.11 49.66 137.11 50.5 142.05 51.62 C 146.37 52.6 150.61 53.89 154.74 55.48 C 158.37 56.86 161.86 58.56 165.2 60.55 C 168.15 62.31 170.92 64.37 173.45 66.71 C 175.74 68.82 177.76 71.21 179.47 73.82 C 181.06 76.26 182.3 78.91 183.15 81.7 C 183.97 84.39 184.38 87.18 184.38 89.99 C 184.38 92.88 183.95 95.75 183.11 98.51 C 182.24 101.34 181 104.05 179.43 106.56 C 177.77 109.22 175.81 111.67 173.59 113.88 C 171.19 116.26 168.57 118.4 165.76 120.27 C 162.69 122.31 159.45 124.08 156.07 125.56 C 152.37 127.19 148.54 128.53 144.63 129.58 C 140.31 130.73 135.93 131.59 131.5 132.14 C 128.89 132.46 126.27 132.7 123.64 132.85 C 127.03 135.36 130.15 138.22 132.94 141.38 C 134.73 143.41 136.41 145.55 137.96 147.77 C 139.47 149.94 140.89 152.17 142.22 154.46 C 143.53 156.72 144.78 159 145.97 161.32 C 147.16 163.61 148.32 165.92 149.47 168.23 C 151.35 172.07 153.31 175.86 155.35 179.61 C 157.4 183.34 159.68 186.95 162.17 190.4 C 164.77 193.97 167.69 197.28 170.91 200.3 C 174.51 203.64 178.46 206.58 182.69 209.08 L 177.63 217.67 C 172.77 214.81 168.24 211.43 164.11 207.59 C 160.42 204.14 157.07 200.34 154.1 196.25 C 151.35 192.46 148.85 188.49 146.6 184.39 C 144.49 180.52 142.47 176.6 140.52 172.64 C 139.41 170.38 138.27 168.13 137.11 165.89 C 135.99 163.72 134.82 161.58 133.6 159.47 C 132.41 157.42 131.13 155.42 129.78 153.47 C 128.45 151.56 127 149.73 125.46 147.98 C 122.25 144.35 118.54 141.2 114.43 138.63 C 112.12 137.19 109.69 135.93 107.19 134.85 C 104.33 133.62 101.39 132.59 98.39 131.75 C 97.18 131.42 96.13 130.63 95.47 129.56 C 94.81 128.49 94.58 127.2 94.83 125.97 C 95.08 124.73 95.79 123.64 96.81 122.9 C 97.83 122.16 99.1 121.84 100.35 122 Z"/>
  <path d="M 75.71 188.81 L 74.12 188.68 L 74.22 187.08 L 75.84 187.19 L 90.49 188.16 L 108.12 50.85 L 87.33 49.55 L 75.84 187.19 M 74.12 188.68 L 72.53 188.54 L 84.41 46.17 L 111.71 47.88 L 93.27 191.54 L 74.01 190.26 L 74.12 188.68 Z"/>
  <path d="M 90.31 189.28 L 93.1 190.82 C 93.08 190.86 93.07 190.89 93.06 190.93 C 92.98 191.16 92.9 191.4 92.82 191.65 C 92.58 192.42 92.35 193.19 92.12 193.96 C 91.52 196 90.9 198.03 90.25 200.06 C 89.51 202.39 88.69 204.69 87.78 206.96 C 87.35 208.03 86.88 209.09 86.38 210.12 C 85.93 211.04 85.43 211.93 84.87 212.78 C 84.39 213.53 83.8 214.21 83.13 214.79 C 82.79 215.08 82.42 215.31 82.02 215.49 C 81.59 215.69 81.12 215.79 80.65 215.79 C 79.97 215.79 79.31 215.57 78.76 215.18 C 78.23 214.79 77.77 214.31 77.42 213.75 C 77 213.11 76.65 212.42 76.37 211.71 C 76.01 210.81 75.71 209.88 75.46 208.94 C 75.14 207.74 74.86 206.54 74.63 205.32 C 74.33 203.79 74.08 202.26 73.87 200.73 C 73.3 196.6 72.88 192.46 72.59 188.31 L 75.76 188.08 C 76.05 192.16 76.47 196.24 77.02 200.29 C 77.23 201.77 77.47 203.25 77.76 204.72 C 77.97 205.86 78.23 207 78.54 208.12 C 78.76 208.94 79.02 209.75 79.34 210.54 C 79.54 211.06 79.8 211.56 80.1 212.03 C 80.24 212.25 80.41 212.43 80.62 212.59 C 80.63 212.59 80.64 212.6 80.66 212.6 C 80.68 212.6 80.7 212.6 80.71 212.59 C 80.84 212.53 80.95 212.46 81.05 212.38 C 81.49 211.99 81.88 211.54 82.19 211.04 C 82.68 210.3 83.12 209.53 83.51 208.73 C 83.98 207.76 84.42 206.78 84.82 205.78 C 85.7 203.58 86.5 201.35 87.22 199.09 C 87.86 197.09 88.47 195.08 89.06 193.06 C 89.3 192.28 89.53 191.49 89.78 190.7 C 89.86 190.45 89.94 190.19 90.03 189.94 C 90.1 189.71 90.2 189.49 90.31 189.28 Z"/>
  <linearGradient id="_lgradient_13" x1="0" x2="0" y1="0" y2="1" gradientTransform="matrix(32.26,0,0,138.749,75.808,49.543)" gradientUnits="userSpaceOnUse">
   <stop offset="0%" style="stop-color:#ff4500"/>
   <stop offset="100%" style="stop-color:#dc153b"/>
  </linearGradient>
  <path fill="url(#_lgradient_13)" d="M 82.883 187.758 C 79.024 187.485 75.84 187.231 75.809 187.194 C 75.777 187.158 78.341 156.171 81.506 118.335 L 87.26 49.543 L 88.712 49.608 C 92.98 49.8 107.97 50.792 108.067 50.888 C 108.179 51 100.021 115.199 99.058 121.791 C 98.78 123.69 96.808 139.049 94.675 155.921 C 92.542 172.794 90.731 186.987 90.651 187.462 C 90.57 187.937 90.368 188.31 90.202 188.291 C 90.036 188.271 86.742 188.033 82.883 187.76 L 82.883 187.758 Z"/>
  <line stroke="#000000" stroke-width="2.784" x1="76.428" x2="86.921" y1="205.304" y2="206.161" vector-effect="non-scaling-stroke"/>
  <path fill="#fec589" d="M 80.297 204.319 L 77.635 204.084 L 77.473 203.472 C 77.068 201.952 75.807 190.597 76.021 190.401 C 76.221 190.219 89.596 191.259 89.571 191.454 C 89.499 192.013 87.182 199.48 86.333 201.889 L 85.371 204.619 L 84.165 204.587 C 83.502 204.57 81.762 204.449 80.297 204.32 L 80.297 204.319 Z"/>
  <path stroke="#000000" stroke-width="2.784" d="M 79.685 211.309 C 79.098 210.207 78.044 207 78.214 206.831 C 78.401 206.643 84.137 207.282 84.134 207.49 C 84.129 207.862 82.455 210.835 81.748 211.729 C 80.852 212.859 80.47 212.781 79.685 211.309 Z" vector-effect="non-scaling-stroke"/>
 </g>
</svg>
