<svg xmlns="http://www.w3.org/2000/svg" style="isolation:isolate" width="256" height="256" viewBox="0 0 256 256">
 <defs>
  <filter id="579Nrk1hAM76icJir0k6OheSQDxETnbx" width="400%" height="400%" x="-200%" y="-200%" color-interpolation-filters="sRGB" filterUnits="objectBoundingBox">
   <feGaussianBlur xmlns="http://www.w3.org/2000/svg" in="SourceGraphic" stdDeviation="4.294"/>
   <feOffset xmlns="http://www.w3.org/2000/svg" dx="0" dy="4" result="pf_100_offsetBlur"/>
   <feFlood xmlns="http://www.w3.org/2000/svg" flood-opacity=".4"/>
   <feComposite xmlns="http://www.w3.org/2000/svg" in2="pf_100_offsetBlur" operator="in" result="pf_100_dropShadow"/>
   <feBlend xmlns="http://www.w3.org/2000/svg" in="SourceGraphic" in2="pf_100_dropShadow" mode="normal"/>
  </filter>
 </defs>
 <g filter="url(#579Nrk1hAM76icJir0k6OheSQDxETnbx)">
  <linearGradient id="_lgradient_118" x1=".5" x2=".5" y1="1" y2="0" gradientTransform="matrix(244.648,0,0,228.338,5.43,11.452)" gradientUnits="userSpaceOnUse">
   <stop offset="0%" style="stop-color:#037164"/>
   <stop offset="100%" style="stop-color:#00ac98"/>
  </linearGradient>
  <path fill="url(#_lgradient_118)" d="M 165.439 11.452 C 239.495 11.452 250.078 22.009 250.078 95.995 L 250.078 155.246 C 250.078 229.233 239.495 239.79 165.439 239.79 L 90.069 239.79 C 16.014 239.79 5.43 229.233 5.43 155.246 L 5.43 95.995 C 5.43 22.009 16.014 11.452 90.069 11.452 L 165.439 11.452 Z"/>
 </g>
 <g opacity=".4">
  <linearGradient id="_lgradient_119" x1=".517" x2=".517" y1="0" y2="1" gradientTransform="matrix(244.65,0,0,228.34,5.68,11.95)" gradientUnits="userSpaceOnUse">
   <stop offset="0%" style="stop-color:#ffffff"/>
   <stop offset="12.5%" stop-opacity=".098" style="stop-color:#ffffff"/>
   <stop offset="92.5%" stop-opacity=".098" style="stop-color:#000000"/>
   <stop offset="100%" stop-opacity=".498" style="stop-color:#000000"/>
  </linearGradient>
  <path fill="url(#_lgradient_119)" fill-rule="evenodd" d="M 165.068 11.951 C 169.396 11.941 173.724 11.991 178.052 12.089 C 181.927 12.167 185.803 12.315 189.678 12.541 C 193.131 12.737 196.583 13.022 200.026 13.395 C 203.085 13.73 206.144 14.181 209.174 14.741 C 211.889 15.243 214.574 15.881 217.22 16.657 C 219.62 17.355 221.971 18.219 224.243 19.241 C 226.358 20.184 228.384 21.304 230.302 22.591 C 232.142 23.829 233.863 25.244 235.437 26.806 C 237.001 28.378 238.417 30.088 239.656 31.925 C 240.945 33.841 242.066 35.865 243.02 37.967 C 244.043 40.247 244.909 42.585 245.617 44.972 C 246.394 47.615 247.034 50.297 247.535 53.009 C 248.096 56.035 248.548 59.081 248.883 62.136 C 249.257 65.575 249.542 69.014 249.739 72.462 C 249.965 76.323 250.112 80.194 250.201 84.055 C 250.289 88.378 250.339 92.701 250.329 97.014 L 250.329 155.226 C 250.339 159.549 250.289 163.862 250.201 168.185 C 250.112 172.056 249.965 175.917 249.739 179.778 C 249.542 183.226 249.257 186.675 248.883 190.104 C 248.548 193.159 248.096 196.215 247.535 199.241 C 247.034 201.943 246.394 204.625 245.617 207.268 C 244.909 209.655 244.043 212.003 243.02 214.273 C 242.066 216.385 240.945 218.399 239.656 220.315 C 238.417 222.152 237.001 223.872 235.437 225.434 C 233.863 226.996 232.142 228.411 230.302 229.649 C 228.384 230.936 226.358 232.056 224.243 232.999 C 221.971 234.021 219.62 234.885 217.22 235.593 C 214.574 236.369 211.889 237.007 209.174 237.499 C 206.144 238.068 203.085 238.51 200.026 238.845 C 196.583 239.218 193.131 239.503 189.678 239.699 C 185.803 239.925 181.927 240.073 178.052 240.161 C 173.724 240.249 169.396 240.299 165.068 240.289 L 90.942 240.289 C 86.614 240.299 82.286 240.249 77.958 240.161 C 74.083 240.073 70.207 239.925 66.332 239.699 C 62.879 239.503 59.427 239.218 55.984 238.845 C 52.925 238.51 49.866 238.068 46.836 237.499 C 44.121 237.007 41.436 236.369 38.79 235.593 C 36.39 234.885 34.039 234.021 31.767 232.999 C 29.652 232.056 27.626 230.936 25.708 229.649 C 23.868 228.411 22.147 226.996 20.573 225.434 C 19.009 223.872 17.593 222.152 16.354 220.315 C 15.065 218.399 13.944 216.385 12.99 214.273 C 11.967 212.003 11.101 209.655 10.393 207.268 C 9.616 204.625 8.976 201.943 8.475 199.241 C 7.914 196.215 7.462 193.159 7.127 190.104 C 6.753 186.675 6.468 183.226 6.271 179.778 C 6.045 175.917 5.898 172.056 5.809 168.185 C 5.721 163.862 5.671 159.549 5.681 155.226 L 5.681 97.014 C 5.671 92.701 5.721 88.378 5.809 84.055 C 5.898 80.194 6.045 76.323 6.271 72.462 C 6.468 69.014 6.753 65.575 7.127 62.136 C 7.462 59.081 7.914 56.035 8.475 53.009 C 8.976 50.297 9.616 47.615 10.393 44.972 C 11.101 42.585 11.967 40.247 12.99 37.967 C 13.944 35.865 15.065 33.841 16.354 31.925 C 17.593 30.088 19.009 28.378 20.573 26.806 C 22.147 25.244 23.868 23.829 25.708 22.591 C 27.626 21.304 29.652 20.184 31.767 19.241 C 34.039 18.219 36.39 17.355 38.79 16.657 C 41.436 15.881 44.121 15.243 46.836 14.741 C 49.866 14.181 52.925 13.73 55.984 13.395 C 59.427 13.022 62.879 12.737 66.332 12.541 C 70.207 12.315 74.083 12.167 77.958 12.089 C 82.286 11.991 86.614 11.941 90.942 11.951 L 165.068 11.951 Z M 165.078 15.96 C 169.376 15.95 173.675 15.999 177.973 16.087 C 181.8 16.176 185.626 16.323 189.452 16.539 C 192.836 16.736 196.219 17.011 199.583 17.384 C 202.554 17.699 205.515 18.131 208.446 18.681 C 211.023 19.153 213.58 19.762 216.099 20.499 C 218.322 21.147 220.495 21.953 222.6 22.896 C 224.509 23.751 226.338 24.763 228.069 25.922 C 229.692 27.013 231.207 28.26 232.594 29.646 C 233.981 31.031 235.23 32.544 236.332 34.165 C 237.492 35.894 238.506 37.712 239.361 39.608 C 240.306 41.72 241.112 43.892 241.761 46.102 C 242.509 48.617 243.109 51.162 243.591 53.736 C 244.132 56.664 244.565 59.611 244.889 62.578 C 245.263 65.938 245.539 69.308 245.735 72.688 C 245.952 76.51 246.109 80.322 246.188 84.144 C 246.276 88.437 246.325 92.721 246.325 97.014 C 246.325 97.014 246.325 97.014 246.325 97.014 L 246.325 155.226 C 246.325 155.226 246.325 155.226 246.325 155.226 C 246.325 159.519 246.276 163.803 246.188 168.096 C 246.109 171.918 245.952 175.74 245.735 179.552 C 245.539 182.932 245.263 186.302 244.889 189.672 C 244.565 192.629 244.132 195.576 243.591 198.504 C 243.109 201.078 242.509 203.623 241.761 206.138 C 241.112 208.358 240.306 210.52 239.361 212.632 C 238.506 214.528 237.492 216.356 236.332 218.075 C 235.23 219.706 233.981 221.219 232.594 222.604 C 231.207 223.98 229.692 225.227 228.069 226.318 C 226.338 227.477 224.509 228.489 222.6 229.344 C 220.495 230.297 218.322 231.093 216.099 231.741 C 213.58 232.478 211.023 233.087 208.446 233.559 C 205.515 234.109 202.554 234.541 199.583 234.865 C 196.219 235.229 192.836 235.514 189.452 235.701 C 185.626 235.917 181.8 236.074 177.973 236.153 C 173.675 236.251 169.376 236.29 165.078 236.29 C 165.078 236.29 165.078 236.29 165.068 236.29 L 90.942 236.29 C 90.932 236.29 90.932 236.29 90.932 236.29 C 86.634 236.29 82.335 236.251 78.037 236.153 C 74.21 236.074 70.384 235.917 66.558 235.701 C 63.174 235.514 59.791 235.229 56.427 234.865 C 53.456 234.541 50.495 234.109 47.564 233.559 C 44.987 233.087 42.43 232.478 39.911 231.741 C 37.688 231.093 35.515 230.297 33.41 229.344 C 31.501 228.489 29.672 227.477 27.941 226.318 C 26.318 225.227 24.803 223.98 23.416 222.604 C 22.029 221.219 20.78 219.706 19.678 218.075 C 18.518 216.356 17.504 214.528 16.649 212.632 C 15.704 210.52 14.898 208.358 14.249 206.138 C 13.501 203.623 12.901 201.078 12.419 198.504 C 11.878 195.576 11.445 192.629 11.121 189.672 C 10.747 186.302 10.472 182.932 10.275 179.552 C 10.058 175.74 9.901 171.918 9.822 168.096 C 9.734 163.803 9.685 159.519 9.685 155.226 C 9.685 155.226 9.685 155.226 9.685 155.226 L 9.685 97.014 C 9.685 97.014 9.685 97.014 9.685 97.014 C 9.685 92.721 9.734 88.437 9.822 84.144 C 9.901 80.322 10.058 76.51 10.275 72.688 C 10.472 69.308 10.747 65.938 11.121 62.578 C 11.445 59.611 11.878 56.664 12.419 53.736 C 12.901 51.162 13.501 48.617 14.249 46.102 C 14.898 43.892 15.704 41.72 16.649 39.608 C 17.504 37.712 18.518 35.894 19.678 34.165 C 20.78 32.544 22.029 31.031 23.416 29.646 C 24.803 28.26 26.318 27.013 27.941 25.922 C 29.672 24.763 31.501 23.751 33.41 22.896 C 35.515 21.953 37.688 21.147 39.911 20.499 C 42.43 19.762 44.987 19.153 47.564 18.681 C 50.495 18.131 53.456 17.699 56.427 17.384 C 59.791 17.011 63.174 16.736 66.558 16.539 C 70.384 16.323 74.21 16.176 78.037 16.087 C 82.335 15.999 86.634 15.95 90.932 15.96 C 90.932 15.96 90.932 15.96 90.942 15.96 L 165.068 15.96 C 165.078 15.96 165.078 15.96 165.078 15.96 Z"/>
 </g>
 <g>
  <defs>
   <filter id="eeBLFmCb50Fz9QgjFWavAy1tMY05oho2" width="400%" height="400%" x="-200%" y="-200%" color-interpolation-filters="sRGB" filterUnits="objectBoundingBox">
    <feGaussianBlur xmlns="http://www.w3.org/2000/svg" stdDeviation="4.294"/>
   </filter>
  </defs>
  <g opacity=".4" filter="url(#eeBLFmCb50Fz9QgjFWavAy1tMY05oho2)">
   <circle cx="128" cy="129.295" r="72.5" vector-effect="non-scaling-stroke"/>
  </g>
  <linearGradient id="_lgradient_120" x1="0" x2="0" y1="0" y2="1" gradientTransform="matrix(145,0,0,145,55.5,54.205)" gradientUnits="userSpaceOnUse">
   <stop offset="0%" style="stop-color:#4c5561"/>
   <stop offset="100%" style="stop-color:#2e3842"/>
  </linearGradient>
  <circle fill="url(#_lgradient_120)" cx="128" cy="126.705" r="72.5" vector-effect="non-scaling-stroke"/>
  <g opacity=".2">
   <path d="M 128 67.152 C 122.28 67.152 117.643 71.789 117.643 77.509 C 117.643 83.229 122.28 87.866 128 87.866 C 133.72 87.866 138.357 83.229 138.357 77.509 C 138.357 71.789 133.72 67.152 128 67.152 Z M 101.864 74.09 C 100.129 74.131 98.432 74.608 96.929 75.476 C 94.549 76.849 92.812 79.111 92.101 81.765 C 91.39 84.419 91.762 87.247 93.136 89.626 C 94.509 92.006 96.771 93.742 99.425 94.454 C 102.079 95.165 104.906 94.793 107.286 93.419 C 109.665 92.046 111.402 89.783 112.113 87.13 C 112.825 84.476 112.453 81.648 111.079 79.269 C 109.185 75.987 105.652 74.001 101.864 74.09 Z M 153.407 74.1 C 149.883 74.265 146.685 76.213 144.921 79.269 C 143.547 81.648 143.175 84.476 143.887 87.13 C 144.598 89.783 146.335 92.046 148.714 93.419 C 151.094 94.793 153.921 95.165 156.575 94.454 C 159.229 93.742 161.491 92.006 162.864 89.626 C 164.238 87.247 164.61 84.419 163.899 81.765 C 163.188 79.111 161.451 76.849 159.071 75.476 C 157.354 74.485 155.388 74.007 153.407 74.1 L 153.407 74.1 Z M 172.604 93.045 C 170.869 93.086 169.172 93.562 167.669 94.43 C 165.289 95.803 163.552 98.066 162.841 100.72 C 162.13 103.373 162.502 106.201 163.876 108.58 C 165.249 110.96 167.511 112.697 170.165 113.408 C 172.819 114.119 175.647 113.747 178.026 112.373 C 180.406 111 182.142 108.738 182.853 106.084 C 183.565 103.43 183.193 100.602 181.819 98.223 C 179.926 94.942 176.392 92.956 172.604 93.045 Z M 82.667 93.055 C 79.143 93.22 75.945 95.168 74.181 98.223 C 72.807 100.602 72.435 103.43 73.147 106.084 C 73.858 108.738 75.594 111 77.974 112.373 C 80.353 113.747 83.181 114.119 85.835 113.408 C 88.489 112.697 90.751 110.96 92.124 108.58 C 93.498 106.201 93.87 103.373 93.159 100.72 C 92.448 98.066 90.711 95.803 88.331 94.43 C 86.614 93.439 84.648 92.962 82.667 93.055 L 82.667 93.055 Z M 76.214 118.938 C 70.494 118.938 65.857 123.575 65.857 129.295 C 65.857 135.015 70.494 139.652 76.214 139.652 C 81.934 139.652 86.571 135.015 86.571 129.295 C 86.571 123.575 81.934 118.938 76.214 118.938 Z M 179.786 118.938 C 174.066 118.938 169.429 123.575 169.429 129.295 C 169.429 135.015 174.066 139.652 179.786 139.652 C 185.506 139.652 190.143 135.015 190.143 129.295 C 190.143 123.575 185.506 118.938 179.786 118.938 Z M 82.91 144.83 C 81.175 144.871 79.477 145.348 77.974 146.216 C 75.594 147.589 73.858 149.852 73.147 152.505 C 72.435 155.159 72.807 157.987 74.181 160.366 C 75.554 162.746 77.817 164.482 80.471 165.194 C 83.124 165.905 85.952 165.533 88.331 164.159 C 90.711 162.786 92.448 160.523 93.159 157.87 C 93.87 155.216 93.498 152.388 92.124 150.009 C 90.231 146.727 86.697 144.741 82.91 144.83 Z M 172.362 144.841 C 168.837 145.006 165.64 146.953 163.876 150.009 C 162.502 152.388 162.13 155.216 162.841 157.87 C 163.552 160.523 165.289 162.786 167.669 164.159 C 170.048 165.533 172.876 165.905 175.529 165.194 C 178.183 164.482 180.446 162.746 181.819 160.366 C 183.193 157.987 183.565 155.159 182.853 152.505 C 182.142 149.852 180.406 147.589 178.026 146.216 C 176.308 145.225 174.343 144.747 172.362 144.84 L 172.362 144.841 Z M 153.65 163.785 C 151.915 163.826 150.217 164.302 148.714 165.17 C 146.335 166.544 144.598 168.806 143.887 171.46 C 143.175 174.113 143.547 176.941 144.921 179.32 C 146.295 181.7 148.557 183.437 151.211 184.148 C 153.864 184.859 156.692 184.487 159.071 183.113 C 161.451 181.74 163.188 179.478 163.899 176.824 C 164.61 174.17 164.238 171.343 162.864 168.963 C 160.971 165.682 157.437 163.696 153.65 163.785 L 153.65 163.785 Z M 101.622 163.795 C 98.097 163.96 94.899 165.908 93.136 168.963 C 91.762 171.343 91.39 174.17 92.101 176.824 C 92.812 179.478 94.549 181.74 96.929 183.113 C 99.308 184.487 102.136 184.859 104.789 184.148 C 107.443 183.437 109.705 181.7 111.079 179.32 C 112.453 176.941 112.825 174.113 112.113 171.46 C 111.402 168.806 109.665 166.544 107.286 165.17 C 105.568 164.179 103.602 163.702 101.622 163.795 L 101.622 163.795 Z M 128 170.723 C 122.28 170.723 117.643 175.36 117.643 181.08 C 117.643 186.8 122.28 191.437 128 191.437 C 133.72 191.437 138.357 186.8 138.357 181.08 C 138.357 175.36 133.72 170.723 128 170.723 Z"/>
  </g>
  <path fill="#ffffff" d="M 128 64.563 C 122.28 64.563 117.643 69.2 117.643 74.92 C 117.643 80.64 122.28 85.277 128 85.277 C 133.72 85.277 138.357 80.64 138.357 74.92 C 138.357 69.2 133.72 64.563 128 64.563 Z M 101.864 71.501 C 100.129 71.542 98.432 72.018 96.929 72.887 C 94.549 74.26 92.812 76.522 92.101 79.176 C 91.39 81.83 91.762 84.657 93.136 87.037 C 94.509 89.416 96.771 91.153 99.425 91.864 C 102.079 92.576 104.906 92.203 107.286 90.83 C 109.665 89.456 111.402 87.194 112.113 84.54 C 112.825 81.887 112.453 79.059 111.079 76.68 C 109.185 73.398 105.652 71.412 101.864 71.501 Z M 153.407 71.511 C 149.883 71.676 146.685 73.624 144.921 76.68 C 143.547 79.059 143.175 81.887 143.887 84.54 C 144.598 87.194 146.335 89.456 148.714 90.83 C 151.094 92.203 153.921 92.576 156.575 91.864 C 159.229 91.153 161.491 89.416 162.864 87.037 C 164.238 84.657 164.61 81.83 163.899 79.176 C 163.188 76.522 161.451 74.26 159.071 72.887 C 157.354 71.895 155.388 71.418 153.407 71.511 L 153.407 71.511 Z M 172.604 90.455 C 170.869 90.496 169.172 90.973 167.669 91.841 C 165.289 93.214 163.552 95.477 162.841 98.13 C 162.13 100.784 162.502 103.612 163.876 105.991 C 165.249 108.371 167.511 110.107 170.165 110.819 C 172.819 111.53 175.647 111.158 178.026 109.784 C 180.406 108.411 182.142 106.148 182.853 103.495 C 183.565 100.841 183.193 98.013 181.819 95.634 C 179.926 92.352 176.392 90.366 172.604 90.455 Z M 82.667 90.465 C 79.143 90.63 75.945 92.578 74.181 95.634 C 72.807 98.013 72.435 100.841 73.147 103.495 C 73.858 106.148 75.594 108.411 77.974 109.784 C 80.353 111.158 83.181 111.53 85.835 110.819 C 88.489 110.107 90.751 108.371 92.124 105.991 C 93.498 103.612 93.87 100.784 93.159 98.13 C 92.448 95.477 90.711 93.214 88.331 91.841 C 86.614 90.85 84.648 90.372 82.667 90.465 L 82.667 90.465 Z M 76.214 116.348 C 70.494 116.348 65.857 120.985 65.857 126.705 C 65.857 132.425 70.494 137.063 76.214 137.063 C 81.934 137.063 86.571 132.425 86.571 126.705 C 86.571 120.985 81.934 116.348 76.214 116.348 Z M 179.786 116.348 C 174.066 116.348 169.429 120.985 169.429 126.705 C 169.429 132.425 174.066 137.063 179.786 137.063 C 185.506 137.063 190.143 132.425 190.143 126.705 C 190.143 120.985 185.506 116.348 179.786 116.348 Z M 82.91 142.241 C 81.175 142.282 79.477 142.759 77.974 143.627 C 75.594 145 73.858 147.262 73.147 149.916 C 72.435 152.57 72.807 155.398 74.181 157.777 C 75.554 160.157 77.817 161.893 80.471 162.604 C 83.124 163.316 85.952 162.944 88.331 161.57 C 90.711 160.197 92.448 157.934 93.159 155.28 C 93.87 152.627 93.498 149.799 92.124 147.42 C 90.231 144.138 86.697 142.152 82.91 142.241 Z M 172.362 142.251 C 168.837 142.416 165.64 144.364 163.876 147.42 C 162.502 149.799 162.13 152.627 162.841 155.28 C 163.552 157.934 165.289 160.197 167.669 161.57 C 170.048 162.944 172.876 163.316 175.529 162.604 C 178.183 161.893 180.446 160.157 181.819 157.777 C 183.193 155.398 183.565 152.57 182.853 149.916 C 182.142 147.262 180.406 145 178.026 143.627 C 176.308 142.635 174.343 142.158 172.362 142.251 L 172.362 142.251 Z M 153.65 161.196 C 151.915 161.237 150.217 161.713 148.714 162.581 C 146.335 163.954 144.598 166.217 143.887 168.87 C 143.175 171.524 143.547 174.352 144.921 176.731 C 146.295 179.111 148.557 180.848 151.211 181.559 C 153.864 182.27 156.692 181.898 159.071 180.524 C 161.451 179.151 163.188 176.889 163.899 174.235 C 164.61 171.581 164.238 168.753 162.864 166.374 C 160.971 163.093 157.437 161.107 153.65 161.195 L 153.65 161.196 Z M 101.622 161.206 C 98.097 161.371 94.899 163.318 93.136 166.374 C 91.762 168.753 91.39 171.581 92.101 174.235 C 92.812 176.889 94.549 179.151 96.929 180.524 C 99.308 181.898 102.136 182.27 104.789 181.559 C 107.443 180.848 109.705 179.111 111.079 176.731 C 112.453 174.352 112.825 171.524 112.113 168.87 C 111.402 166.217 109.665 163.954 107.286 162.581 C 105.568 161.59 103.602 161.112 101.622 161.206 L 101.622 161.206 Z M 128 168.134 C 122.28 168.134 117.643 172.771 117.643 178.491 C 117.643 184.211 122.28 188.848 128 188.848 C 133.72 188.848 138.357 184.211 138.357 178.491 C 138.357 172.771 133.72 168.134 128 168.134 Z"/>
  <g opacity=".3">
   <circle cx="128" cy="126.705" r="25.893" vector-effect="non-scaling-stroke"/>
  </g>
  <g opacity=".2">
   <path d="M 112.464 85.277 C 112.464 101.007 99.712 113.759 83.982 113.759 C 68.252 113.759 55.5 101.007 55.5 85.277 C 55.5 69.547 68.252 56.795 83.982 56.795 C 91.536 56.795 98.781 59.795 104.122 65.137 C 109.463 70.478 112.464 77.723 112.464 85.277 Z"/>
  </g>
  <linearGradient id="_lgradient_121" x1="0" x2="0" y1="0" y2="1" gradientTransform="matrix(56.964,0,0,56.964,55.5,54.205)" gradientUnits="userSpaceOnUse">
   <stop offset="0%" style="stop-color:#edc268"/>
   <stop offset="100%" style="stop-color:#9b7424"/>
  </linearGradient>
  <path fill="url(#_lgradient_121)" d="M 112.464 82.688 C 112.464 98.418 99.712 111.17 83.982 111.17 C 68.252 111.17 55.5 98.418 55.5 82.688 C 55.5 66.957 68.252 54.205 83.982 54.205 C 91.536 54.205 98.781 57.206 104.122 62.548 C 109.463 67.889 112.464 75.134 112.464 82.688 Z"/>
  <g opacity=".2">
   <path d="M 156.753 139.654 C 154.959 139.597 154.72 140.544 154.191 143.053 C 151.526 159.573 167.064 168.738 187.478 175.879 C 193.445 176.393 194.679 167.986 196.596 163.421 C 199.08 157.505 203.059 152.199 198.209 149.761 L 159.129 140.03 C 158.115 139.809 157.351 139.673 156.753 139.654 L 156.753 139.654 Z"/>
  </g>
  <path fill="#888888" d="M 156.753 137.065 C 154.959 137.007 154.72 137.955 154.191 140.464 C 151.526 156.983 167.064 166.149 187.478 173.29 C 193.445 173.804 194.679 165.397 196.596 160.832 C 199.08 154.916 203.059 149.61 198.209 147.172 L 159.129 137.441 C 158.115 137.219 157.351 137.084 156.753 137.065 L 156.753 137.065 Z"/>
 </g>
</svg>
