<svg width="256" height="256" fill="none" viewBox="0 0 256 256" xmlns="http://www.w3.org/2000/svg">
 <g clip-path="url(#clip0)">
  <g filter="url(#filter0_d)">
   <path d="m165.685 11.947c74.055 0 84.639 10.5572 84.639 84.5438v59.2512c0 73.986-10.584 84.543-84.639 84.543h-75.3698c-74.0557 0-84.63934-10.557-84.63934-84.543v-59.2512c0-73.9866 10.58364-84.5438 84.63934-84.5438h75.3698z" fill="url(#paint0_linear)"/>
  </g>
  <path d="m113.71 49.3115-14.6056 25.5686c-0.1146 0.2006-0.2802 0.3673-0.4799 0.4833-0.1997 0.1161-0.4265 0.1773-0.6574 0.1776h-29.2162l-14.2418 24.918 14.6157 25.579c0.1132 0.198 0.1728 0.422 0.1728 0.651 0 0.228-0.0596 0.452-0.1728 0.65l-14.6157 25.579 14.2418 24.918h29.2162c0.2309 0 0.4577 0.062 0.6574 0.178s0.3653 0.282 0.4799 0.483l14.6106 25.569h28.453l14.611-25.569c0.114-0.201 0.28-0.367 0.479-0.483 0.2-0.116 0.427-0.178 0.658-0.178h29.216l14.242-24.918-14.616-25.579c-0.113-0.198-0.173-0.422-0.173-0.65 0-0.229 0.06-0.453 0.173-0.651l14.616-25.579-14.242-24.918h-29.216c-0.231-3e-4 -0.458-0.0615-0.658-0.1776-0.199-0.116-0.365-0.2827-0.479-0.4833l-14.611-25.5686h-28.458zm-0.758 49.836h29.979c0.231 3e-4 0.458 0.0616 0.658 0.1776 0.199 0.116 0.365 0.2828 0.48 0.4833l14.984 26.2296c0.113 0.198 0.173 0.422 0.173 0.651 0 0.228-0.06 0.452-0.173 0.65l-14.984 26.23c-0.115 0.2-0.281 0.367-0.48 0.483-0.2 0.116-0.427 0.177-0.658 0.178h-29.979c-0.231-1e-3 -0.458-0.062-0.658-0.178-0.199-0.116-0.365-0.283-0.48-0.483l-14.9842-26.23c-0.1132-0.198-0.1728-0.422-0.1728-0.65 0-0.229 0.0596-0.453 0.1728-0.651l14.9842-26.2296c0.115-0.2005 0.281-0.3673 0.48-0.4833 0.2-0.116 0.427-0.1773 0.658-0.1776z" fill="#e4e4e4"/>
  <path d="m187.895 76.8525 14.988 26.2295-14.988 26.229h-29.977l-14.988-26.229 14.988-26.2295h29.977z" opacity=".2"/>
  <path d="m142.93 155.541 14.988 26.229-14.988 26.23h-29.977l-14.9881-26.23 14.9881-26.229h29.977z" opacity=".2"/>
  <path d="m187.895 74.2295 14.988 26.2295-14.988 26.23h-29.977l-14.988-26.23 14.988-26.2295h29.977z" fill="url(#paint1_linear)"/>
  <path d="m142.93 152.918 14.988 26.23-14.988 26.229h-29.977l-14.9881-26.229 14.9881-26.23h29.977z" fill="url(#paint2_linear)"/>
  <path d="m187.895 129.311 14.988 26.23-14.988 26.229h-29.977l-14.988-26.229 14.988-26.23h29.977z" opacity=".2"/>
  <path d="m187.895 126.689 14.988 26.229-14.988 26.23h-29.977l-14.988-26.23 14.988-26.229h29.977z" fill="url(#paint3_linear)"/>
  <path d="M97.9649 129.311L112.953 155.541L97.9649 181.77H67.9883L53 155.541L67.9883 129.311H97.9649Z" opacity=".2"/>
  <path d="M97.9649 126.689L112.953 152.918L97.9649 179.148H67.9883L53 152.918L67.9883 126.689H97.9649Z" fill="url(#paint4_linear)"/>
  <path d="M97.9649 76.8525L112.953 103.082L97.9649 129.311H67.9883L53 103.082L67.9883 76.8525H97.9649Z" opacity=".2"/>
  <path d="M97.9649 74.2295L112.953 100.459L97.9649 126.689H67.9883L53 100.459L67.9883 74.2295H97.9649Z" fill="url(#paint5_linear)"/>
  <path d="M142.93 50.623L157.918 76.8525L142.93 103.082H112.953L97.9649 76.8525L112.953 50.623H142.93Z" opacity=".2"/>
  <path d="M142.93 48L157.918 74.2295L142.93 100.459H112.953L97.9649 74.2295L112.953 48H142.93Z" fill="url(#paint6_linear)"/>
  <path d="m112.952 48-14.9901 26.2295 0.748 1.3115 14.2421-24.918h29.979l14.242 24.918 0.748-1.3115-14.99-26.2295h-29.979z" fill="white" opacity=".2"/>
  <path d="m157.921 74.2295-1.496 2.623 0.748 1.3114 0.748-1.3114h29.969l14.242 24.9175 0.748-1.311-14.99-26.2295h-29.969z" fill="white" opacity=".2"/>
  <path d="m67.9927 74.2295-14.9898 26.2295 0.748 1.311 14.2418-24.9175h29.9692l0.748 1.3114 0.7479-1.3114-1.4959-2.623h-29.9692z" fill="white" opacity=".2"/>
  <path d="m157.921 126.689-14.99 26.229 0.748 1.312 14.242-24.919h29.969l14.242 24.919 0.748-1.312-14.99-26.229h-29.969z" fill="white" opacity=".2"/>
  <path d="m112.952 152.918-1.496 2.623 0.748 1.311 0.748-1.311h29.979l0.748 1.311 0.748-1.311-1.496-2.623h-29.979z" fill="white" opacity=".2"/>
  <path d="m165.068 11.9512c4.328-0.0098 8.656 0.0393 12.984 0.1376 3.875 0.0786 7.751 0.226 11.626 0.4519 3.453 0.1965 6.905 0.4814 10.348 0.8548 3.059 0.334 6.118 0.786 9.148 1.346 2.715 0.501 5.4 1.1397 8.046 1.9158 2.4 0.6976 4.751 1.5622 7.023 2.5839 2.115 0.9432 4.141 2.0632 6.059 3.3503 1.839 1.2379 3.561 2.6527 5.135 4.2148 1.564 1.572 2.98 3.2815 4.219 5.1187 1.289 1.9158 2.41 3.9397 3.364 6.0422 1.023 2.2794 1.889 4.6177 2.597 7.0051 0.777 2.6429 1.417 5.325 1.918 8.0367 0.561 3.026 1.013 6.0717 1.348 9.1272 0.374 3.4386 0.659 6.8773 0.856 10.3258 0.226 3.8612 0.373 7.7321 0.462 11.5933 0.088 4.3228 0.138 8.6457 0.128 12.9588v58.2119c0.01 4.323-0.04 8.636-0.128 12.959-0.089 3.871-0.236 7.732-0.462 11.593-0.197 3.449-0.482 6.897-0.856 10.326-0.335 3.055-0.787 6.111-1.348 9.137-0.501 2.702-1.141 5.384-1.918 8.027-0.708 2.387-1.574 4.735-2.597 7.005-0.954 2.112-2.075 4.126-3.364 6.042-1.239 1.837-2.655 3.557-4.219 5.119-1.574 1.562-3.296 2.977-5.135 4.215-1.918 1.287-3.944 2.407-6.059 3.35-2.272 1.022-4.623 1.886-7.023 2.594-2.646 0.776-5.331 1.414-8.046 1.906-3.03 0.569-6.089 1.011-9.148 1.346-3.443 0.373-6.895 0.658-10.348 0.854-3.875 0.226-7.751 0.374-11.626 0.462-4.328 0.088-8.656 0.138-12.984 0.128h-74.126c-4.328 0.01-8.656-0.04-12.9839-0.128-3.8755-0.088-7.751-0.236-11.6265-0.462-3.4525-0.196-6.905-0.481-10.3477-0.854-3.0591-0.335-6.1182-0.777-9.1477-1.346-2.7149-0.492-5.4001-1.13-8.0461-1.906-2.4001-0.708-4.7509-1.572-7.0231-2.594-2.1148-0.943-4.1411-2.063-6.0591-3.35-1.8394-1.238-3.5608-2.653-5.1346-4.215-1.5639-1.562-2.9804-3.282-4.2197-5.119-1.2886-1.916-2.4099-3.93-3.364-6.042-1.023-2.27-1.8886-4.618-2.5968-7.005-0.77706-2.643-1.41642-5.325-1.91807-8.027-0.56067-3.026-1.01313-6.082-1.34757-9.137-0.37377-3.429-0.65903-6.877-0.85575-10.326-0.22623-3.861-0.37378-7.722-0.46231-11.593-0.08852-4.323-0.1377-8.636-0.12787-12.959v-58.2119c-0.00983-4.3131 0.03935-8.636 0.12787-12.9588 0.08853-3.8612 0.23608-7.7321 0.46231-11.5933 0.19672-3.4485 0.48198-6.8872 0.85575-10.3258 0.33444-3.0555 0.7869-6.1012 1.34757-9.1272 0.50165-2.7117 1.14101-5.3938 1.91807-8.0367 0.7082-2.3874 1.5738-4.7257 2.5968-7.0051 0.9541-2.1025 2.0754-4.1264 3.364-6.0422 1.2393-1.8372 2.6558-3.5467 4.2197-5.1187 1.5738-1.5621 3.2952-2.9769 5.1346-4.2148 1.918-1.2871 3.9443-2.4071 6.0591-3.3503 2.2722-1.0217 4.623-1.8863 7.0231-2.5839 2.646-0.7761 5.3312-1.4148 8.0461-1.9158 3.0295-0.56 6.0886-1.012 9.1477-1.346 3.4427-0.3734 6.8952-0.6583 10.3477-0.8548 3.8755-0.2259 7.751-0.3733 11.6265-0.4519 4.3279-0.0983 8.6559-0.1474 12.9839-0.1376h74.126zm0.01 4.0086c4.298-0.0099 8.597 0.0393 12.895 0.1277 3.827 0.0884 7.653 0.2358 11.479 0.4519 3.384 0.1965 6.767 0.4716 10.131 0.8449 2.971 0.3144 5.932 0.7467 8.863 1.2969 2.577 0.4716 5.134 1.0807 7.653 1.8176 2.223 0.6484 4.396 1.4541 6.501 2.3972 1.909 0.8548 3.738 1.8667 5.469 3.0261 1.623 1.0905 3.138 2.3383 4.525 3.7236s2.636 2.8983 3.738 4.5194c1.16 1.7291 2.174 3.5467 3.029 5.4429 0.945 2.1123 1.751 4.2836 2.4 6.4941 0.748 2.5152 1.348 5.0598 1.83 7.6339 0.541 2.9278 0.974 5.8752 1.298 8.8423 0.374 3.3601 0.65 6.73 0.846 10.1097 0.217 3.8218 0.374 7.6338 0.453 11.4557 0.088 4.2934 0.137 8.577 0.137 12.8704v58.2119c0 4.293-0.049 8.577-0.137 12.87-0.079 3.822-0.236 7.644-0.453 11.456-0.196 3.38-0.472 6.75-0.846 10.12-0.324 2.957-0.757 5.904-1.298 8.832-0.482 2.574-1.082 5.119-1.83 7.634-0.649 2.22-1.455 4.382-2.4 6.494-0.855 1.896-1.869 3.724-3.029 5.443-1.102 1.631-2.351 3.144-3.738 4.529-1.387 1.376-2.902 2.623-4.525 3.714-1.731 1.159-3.56 2.171-5.469 3.026-2.105 0.953-4.278 1.749-6.501 2.397-2.519 0.737-5.076 1.346-7.653 1.818-2.931 0.55-5.892 0.982-8.863 1.306-3.364 0.364-6.747 0.649-10.131 0.836-3.826 0.216-7.652 0.373-11.479 0.452-4.298 0.098-8.597 0.137-12.895 0.137h-0.01-74.126-0.0099c-4.2984 0-8.5969-0.039-12.8953-0.137-3.8263-0.079-7.6526-0.236-11.4789-0.452-3.3837-0.187-6.7674-0.472-10.1314-0.836-2.9705-0.324-5.9313-0.756-8.8625-1.306-2.5771-0.472-5.1345-1.081-7.6526-1.818-2.223-0.648-4.3968-1.444-6.5017-2.397-1.9083-0.855-3.7378-1.867-5.469-3.026-1.623-1.091-3.1378-2.338-4.5247-3.714-1.3869-1.385-2.6361-2.898-3.7378-4.529-1.1606-1.719-2.1738-3.547-3.0295-5.443-0.9443-2.112-1.7509-4.274-2.4001-6.494-0.7475-2.515-1.3476-5.06-1.8295-7.634-0.541-2.928-0.9738-5.875-1.2984-8.832-0.3738-3.37-0.6492-6.74-0.8459-10.12-0.2164-3.812-0.37381-7.634-0.4525-11.456-0.08853-4.293-0.13771-8.577-0.13771-12.87v-58.2119c0-4.2934 0.04918-8.577 0.13771-12.8704 0.07869-3.8219 0.2361-7.6339 0.4525-11.4557 0.1967-3.3797 0.4721-6.7496 0.8459-10.1097 0.3246-2.9671 0.7574-5.9145 1.2984-8.8423 0.4819-2.5741 1.082-5.1187 1.8295-7.6339 0.6492-2.2105 1.4558-4.3818 2.4001-6.4941 0.8557-1.8962 1.8689-3.7138 3.0295-5.4429 1.1017-1.6211 2.3509-3.1341 3.7378-4.5194s2.9017-2.6331 4.5247-3.7236c1.7312-1.1594 3.5607-2.1713 5.469-3.0261 2.1049-0.9431 4.2787-1.7488 6.5017-2.3972 2.5181-0.7369 5.0755-1.346 7.6526-1.8176 2.9312-0.5502 5.892-0.9825 8.8625-1.2969 3.364-0.3733 6.7477-0.6484 10.1314-0.8449 3.8263-0.2161 7.6526-0.3635 11.4789-0.4519 4.2984-0.0884 8.5969-0.1376 12.8953-0.1277h0.0099 74.126 0.01z" clip-rule="evenodd" fill="url(#paint7_linear)" fill-rule="evenodd" opacity=".4"/>
 </g>
 <defs>
  <filter id="filter0_d" x="-4.32414" y="5.94696" width="264.648" height="248.338" color-interpolation-filters="sRGB" filterUnits="userSpaceOnUse">
   <feFlood flood-opacity="0" result="BackgroundImageFix"/>
   <feColorMatrix in="SourceAlpha" values="0 0 0 0 0 0 0 0 0 0 0 0 0 0 0 0 0 0 127 0"/>
   <feOffset dy="4"/>
   <feGaussianBlur stdDeviation="5"/>
   <feColorMatrix values="0 0 0 0 0 0 0 0 0 0 0 0 0 0 0 0 0 0 0.4 0"/>
   <feBlend in2="BackgroundImageFix" result="effect1_dropShadow"/>
   <feBlend in="SourceGraphic" in2="effect1_dropShadow" result="shape"/>
  </filter>
  <linearGradient id="paint0_linear" x1="5.67586" x2="5.67586" y1="11.947" y2="240.285" gradientUnits="userSpaceOnUse">
   <stop stop-color="#4c5561" offset="1e-7"/>
   <stop stop-color="#2e3842" offset="1"/>
  </linearGradient>
  <linearGradient id="paint1_linear" x1="142.93" x2="142.93" y1="74.2295" y2="126.689" gradientUnits="userSpaceOnUse">
   <stop stop-color="#ff9900" offset="1e-7"/>
   <stop stop-color="#dc5714" offset="1"/>
  </linearGradient>
  <linearGradient id="paint2_linear" x1="97.9649" x2="97.9649" y1="152.918" y2="205.377" gradientUnits="userSpaceOnUse">
   <stop stop-color="#e0e5e7" offset="1e-7"/>
   <stop stop-color="#c7ced2" offset="1"/>
  </linearGradient>
  <linearGradient id="paint3_linear" x1="142.93" x2="142.93" y1="126.689" y2="179.148" gradientUnits="userSpaceOnUse">
   <stop stop-color="#e0e5e7" offset="1e-7"/>
   <stop stop-color="#c7ced2" offset="1"/>
  </linearGradient>
  <linearGradient id="paint4_linear" x1="53" x2="53" y1="126.689" y2="179.148" gradientUnits="userSpaceOnUse">
   <stop stop-color="#e0e5e7" offset="1e-7"/>
   <stop stop-color="#c7ced2" offset="1"/>
  </linearGradient>
  <linearGradient id="paint5_linear" x1="53" x2="53" y1="74.2295" y2="126.689" gradientUnits="userSpaceOnUse">
   <stop stop-color="#e0e5e7" offset="1e-7"/>
   <stop stop-color="#c7ced2" offset="1"/>
  </linearGradient>
  <linearGradient id="paint6_linear" x1="97.9649" x2="97.9649" y1="48" y2="100.459" gradientUnits="userSpaceOnUse">
   <stop stop-color="#e0e5e7" offset="1e-7"/>
   <stop stop-color="#c7ced2" offset="1"/>
  </linearGradient>
  <linearGradient id="paint7_linear" x1="132.082" x2="132.082" y1="11.95" y2="240.29" gradientUnits="userSpaceOnUse">
   <stop stop-color="white" offset="0"/>
   <stop stop-color="white" stop-opacity=".0980392" offset=".125"/>
   <stop stop-opacity=".0980392" offset=".925"/>
   <stop stop-opacity=".498039" offset="1"/>
  </linearGradient>
  <clipPath id="clip0">
   <rect width="256" height="256" fill="white"/>
  </clipPath>
 </defs>
</svg>
