<svg xmlns="http://www.w3.org/2000/svg" style="isolation:isolate" width="256" height="256" viewBox="0 0 256 256">
 <defs>
  <clipPath id="_clipPath_EfpMgiar6pecX9e15bIyIGs4fjE0dFzv">
   <rect width="256" height="256"/>
  </clipPath>
 </defs>
 <g clip-path="url(#_clipPath_EfpMgiar6pecX9e15bIyIGs4fjE0dFzv)">
  <defs>
   <filter id="TX0p9r8kC602VnSpaDjigBBrVYk5ENSw" width="400%" height="400%" x="-200%" y="-200%" color-interpolation-filters="sRGB" filterUnits="objectBoundingBox">
    <feGaussianBlur xmlns="http://www.w3.org/2000/svg" in="SourceGraphic" stdDeviation="4.294"/>
    <feOffset xmlns="http://www.w3.org/2000/svg" dx="0" dy="4" result="pf_100_offsetBlur"/>
    <feFlood xmlns="http://www.w3.org/2000/svg" flood-opacity=".4"/>
    <feComposite xmlns="http://www.w3.org/2000/svg" in2="pf_100_offsetBlur" operator="in" result="pf_100_dropShadow"/>
    <feBlend xmlns="http://www.w3.org/2000/svg" in="SourceGraphic" in2="pf_100_dropShadow" mode="normal"/>
   </filter>
  </defs>
  <g filter="url(#TX0p9r8kC602VnSpaDjigBBrVYk5ENSw)">
   <linearGradient id="_lgradient_103" x1=".5" x2=".5" y1="0" y2="1" gradientTransform="matrix(244.648,0,0,228.338,5.68,11.95)" gradientUnits="userSpaceOnUse">
    <stop offset="0%" style="stop-color:#1ad6ab"/>
    <stop offset="100%" style="stop-color:#329db6"/>
   </linearGradient>
   <path fill="url(#_lgradient_103)" d="M 165.689 11.95 C 239.745 11.95 250.328 22.507 250.328 96.494 L 250.328 155.745 C 250.328 229.731 239.745 240.288 165.689 240.288 L 90.319 240.288 C 16.264 240.288 5.68 229.731 5.68 155.745 L 5.68 96.494 C 5.68 22.507 16.264 11.95 90.319 11.95 L 165.689 11.95 Z"/>
  </g>
  <g opacity=".4">
   <linearGradient id="_lgradient_104" x1=".517" x2=".517" y1="0" y2="1" gradientTransform="matrix(244.65,0,0,228.34,5.68,11.95)" gradientUnits="userSpaceOnUse">
    <stop offset="0%" style="stop-color:#ffffff"/>
    <stop offset="12.5%" stop-opacity=".098" style="stop-color:#ffffff"/>
    <stop offset="92.5%" stop-opacity=".098" style="stop-color:#000000"/>
    <stop offset="100%" stop-opacity=".498" style="stop-color:#000000"/>
   </linearGradient>
   <path fill="url(#_lgradient_104)" fill-rule="evenodd" d="M 165.068 11.951 C 169.396 11.941 173.724 11.991 178.052 12.089 C 181.927 12.167 185.803 12.315 189.678 12.541 C 193.131 12.737 196.583 13.022 200.026 13.395 C 203.085 13.73 206.144 14.181 209.174 14.741 C 211.889 15.243 214.574 15.881 217.22 16.657 C 219.62 17.355 221.971 18.219 224.243 19.241 C 226.358 20.184 228.384 21.304 230.302 22.591 C 232.142 23.829 233.863 25.244 235.437 26.806 C 237.001 28.378 238.417 30.088 239.656 31.925 C 240.945 33.841 242.066 35.865 243.02 37.967 C 244.043 40.247 244.909 42.585 245.617 44.972 C 246.394 47.615 247.034 50.297 247.535 53.009 C 248.096 56.035 248.548 59.081 248.883 62.136 C 249.257 65.575 249.542 69.014 249.739 72.462 C 249.965 76.323 250.112 80.194 250.201 84.055 C 250.289 88.378 250.339 92.701 250.329 97.014 L 250.329 155.226 C 250.339 159.549 250.289 163.862 250.201 168.185 C 250.112 172.056 249.965 175.917 249.739 179.778 C 249.542 183.226 249.257 186.675 248.883 190.104 C 248.548 193.159 248.096 196.215 247.535 199.241 C 247.034 201.943 246.394 204.625 245.617 207.268 C 244.909 209.655 244.043 212.003 243.02 214.273 C 242.066 216.385 240.945 218.399 239.656 220.315 C 238.417 222.152 237.001 223.872 235.437 225.434 C 233.863 226.996 232.142 228.411 230.302 229.649 C 228.384 230.936 226.358 232.056 224.243 232.999 C 221.971 234.021 219.62 234.885 217.22 235.593 C 214.574 236.369 211.889 237.007 209.174 237.499 C 206.144 238.068 203.085 238.51 200.026 238.845 C 196.583 239.218 193.131 239.503 189.678 239.699 C 185.803 239.925 181.927 240.073 178.052 240.161 C 173.724 240.249 169.396 240.299 165.068 240.289 L 90.942 240.289 C 86.614 240.299 82.286 240.249 77.958 240.161 C 74.083 240.073 70.207 239.925 66.332 239.699 C 62.879 239.503 59.427 239.218 55.984 238.845 C 52.925 238.51 49.866 238.068 46.836 237.499 C 44.121 237.007 41.436 236.369 38.79 235.593 C 36.39 234.885 34.039 234.021 31.767 232.999 C 29.652 232.056 27.626 230.936 25.708 229.649 C 23.868 228.411 22.147 226.996 20.573 225.434 C 19.009 223.872 17.593 222.152 16.354 220.315 C 15.065 218.399 13.944 216.385 12.99 214.273 C 11.967 212.003 11.101 209.655 10.393 207.268 C 9.616 204.625 8.976 201.943 8.475 199.241 C 7.914 196.215 7.462 193.159 7.127 190.104 C 6.753 186.675 6.468 183.226 6.271 179.778 C 6.045 175.917 5.898 172.056 5.809 168.185 C 5.721 163.862 5.671 159.549 5.681 155.226 L 5.681 97.014 C 5.671 92.701 5.721 88.378 5.809 84.055 C 5.898 80.194 6.045 76.323 6.271 72.462 C 6.468 69.014 6.753 65.575 7.127 62.136 C 7.462 59.081 7.914 56.035 8.475 53.009 C 8.976 50.297 9.616 47.615 10.393 44.972 C 11.101 42.585 11.967 40.247 12.99 37.967 C 13.944 35.865 15.065 33.841 16.354 31.925 C 17.593 30.088 19.009 28.378 20.573 26.806 C 22.147 25.244 23.868 23.829 25.708 22.591 C 27.626 21.304 29.652 20.184 31.767 19.241 C 34.039 18.219 36.39 17.355 38.79 16.657 C 41.436 15.881 44.121 15.243 46.836 14.741 C 49.866 14.181 52.925 13.73 55.984 13.395 C 59.427 13.022 62.879 12.737 66.332 12.541 C 70.207 12.315 74.083 12.167 77.958 12.089 C 82.286 11.991 86.614 11.941 90.942 11.951 L 165.068 11.951 Z M 165.078 15.96 C 169.376 15.95 173.675 15.999 177.973 16.087 C 181.8 16.176 185.626 16.323 189.452 16.539 C 192.836 16.736 196.219 17.011 199.583 17.384 C 202.554 17.699 205.515 18.131 208.446 18.681 C 211.023 19.153 213.58 19.762 216.099 20.499 C 218.322 21.147 220.495 21.953 222.6 22.896 C 224.509 23.751 226.338 24.763 228.069 25.922 C 229.692 27.013 231.207 28.26 232.594 29.646 C 233.981 31.031 235.23 32.544 236.332 34.165 C 237.492 35.894 238.506 37.712 239.361 39.608 C 240.306 41.72 241.112 43.892 241.761 46.102 C 242.509 48.617 243.109 51.162 243.591 53.736 C 244.132 56.664 244.565 59.611 244.889 62.578 C 245.263 65.938 245.539 69.308 245.735 72.688 C 245.952 76.51 246.109 80.322 246.188 84.144 C 246.276 88.437 246.325 92.721 246.325 97.014 C 246.325 97.014 246.325 97.014 246.325 97.014 L 246.325 155.226 C 246.325 155.226 246.325 155.226 246.325 155.226 C 246.325 159.519 246.276 163.803 246.188 168.096 C 246.109 171.918 245.952 175.74 245.735 179.552 C 245.539 182.932 245.263 186.302 244.889 189.672 C 244.565 192.629 244.132 195.576 243.591 198.504 C 243.109 201.078 242.509 203.623 241.761 206.138 C 241.112 208.358 240.306 210.52 239.361 212.632 C 238.506 214.528 237.492 216.356 236.332 218.075 C 235.23 219.706 233.981 221.219 232.594 222.604 C 231.207 223.98 229.692 225.227 228.069 226.318 C 226.338 227.477 224.509 228.489 222.6 229.344 C 220.495 230.297 218.322 231.093 216.099 231.741 C 213.58 232.478 211.023 233.087 208.446 233.559 C 205.515 234.109 202.554 234.541 199.583 234.865 C 196.219 235.229 192.836 235.514 189.452 235.701 C 185.626 235.917 181.8 236.074 177.973 236.153 C 173.675 236.251 169.376 236.29 165.078 236.29 C 165.078 236.29 165.078 236.29 165.068 236.29 L 90.942 236.29 C 90.932 236.29 90.932 236.29 90.932 236.29 C 86.634 236.29 82.335 236.251 78.037 236.153 C 74.21 236.074 70.384 235.917 66.558 235.701 C 63.174 235.514 59.791 235.229 56.427 234.865 C 53.456 234.541 50.495 234.109 47.564 233.559 C 44.987 233.087 42.43 232.478 39.911 231.741 C 37.688 231.093 35.515 230.297 33.41 229.344 C 31.501 228.489 29.672 227.477 27.941 226.318 C 26.318 225.227 24.803 223.98 23.416 222.604 C 22.029 221.219 20.78 219.706 19.678 218.075 C 18.518 216.356 17.504 214.528 16.649 212.632 C 15.704 210.52 14.898 208.358 14.249 206.138 C 13.501 203.623 12.901 201.078 12.419 198.504 C 11.878 195.576 11.445 192.629 11.121 189.672 C 10.747 186.302 10.472 182.932 10.275 179.552 C 10.058 175.74 9.901 171.918 9.822 168.096 C 9.734 163.803 9.685 159.519 9.685 155.226 C 9.685 155.226 9.685 155.226 9.685 155.226 L 9.685 97.014 C 9.685 97.014 9.685 97.014 9.685 97.014 C 9.685 92.721 9.734 88.437 9.822 84.144 C 9.901 80.322 10.058 76.51 10.275 72.688 C 10.472 69.308 10.747 65.938 11.121 62.578 C 11.445 59.611 11.878 56.664 12.419 53.736 C 12.901 51.162 13.501 48.617 14.249 46.102 C 14.898 43.892 15.704 41.72 16.649 39.608 C 17.504 37.712 18.518 35.894 19.678 34.165 C 20.78 32.544 22.029 31.031 23.416 29.646 C 24.803 28.26 26.318 27.013 27.941 25.922 C 29.672 24.763 31.501 23.751 33.41 22.896 C 35.515 21.953 37.688 21.147 39.911 20.499 C 42.43 19.762 44.987 19.153 47.564 18.681 C 50.495 18.131 53.456 17.699 56.427 17.384 C 59.791 17.011 63.174 16.736 66.558 16.539 C 70.384 16.323 74.21 16.176 78.037 16.087 C 82.335 15.999 86.634 15.95 90.932 15.96 C 90.932 15.96 90.932 15.96 90.942 15.96 L 165.068 15.96 C 165.078 15.96 165.078 15.96 165.078 15.96 Z"/>
  </g>
  <path fill="#ffffff" d="M 92.502 55.52 C 92.08 55.259 88.549 57.599 85.721 60.015 C 81.79 63.373 77.747 69.055 75.651 74.136 C 72.429 81.946 71.894 91.567 74.229 99.723 C 75.681 104.795 80.298 113.147 81.619 113.094 C 81.916 113.081 82.91 112.162 83.829 111.05 C 84.75 109.933 85.518 108.884 85.518 108.713 C 85.518 108.542 84.868 107.345 84.083 106.072 C 82.261 103.118 80.915 99.861 80.032 96.307 C 79.068 92.425 79.049 86.057 80.007 82.174 C 81.907 74.453 86.263 68.007 92.756 63.291 C 94.211 62.234 95.41 61.328 95.41 61.285 C 95.41 60.934 92.759 55.679 92.502 55.52 Z M 139.536 56.168 C 131.015 55.985 122.165 59.105 115.74 63.279 C 112.605 65.35 112.932 65.966 116.222 64.193 C 121.699 61.242 127.053 60.073 135.117 60.066 C 145.434 60.057 151.188 61.665 157.136 66.225 L 159.651 68.155 L 162.863 68.18 C 164.626 68.197 166.786 68.335 167.663 68.472 C 169.982 68.833 170.32 68.837 170.521 68.51 C 170.945 67.753 163.626 62.378 159.371 60.333 C 152.905 57.045 146.036 56.327 139.536 56.168 Z M 99.346 66.11 C 98.589 66.11 95.269 67.474 92.895 69.983 C 89.071 74.025 86.641 78.826 85.581 84.434 C 84.51 90.101 85.447 97.397 87.867 102.237 C 89.106 104.715 90.344 106.605 90.724 106.605 C 90.91 106.606 91.696 105.85 92.476 104.929 C 95.03 101.914 94.923 102.419 93.632 99.659 C 91.93 96.022 91.373 93.576 91.372 89.691 C 91.369 82.574 94.789 75.639 100.248 71.672 C 101.213 70.97 102.005 70.142 102.013 69.831 C 102.035 68.947 99.837 66.11 99.346 66.11 Z M 114.406 75.672 C 105.429 75.672 98.152 82.949 98.152 91.926 C 98.152 100.904 105.429 108.18 114.406 108.18 C 123.384 108.18 130.66 100.904 130.66 91.926 C 130.66 82.949 123.384 75.672 114.406 75.672 Z M 159.917 75.672 C 150.94 75.672 143.663 82.949 143.663 91.926 C 143.663 100.904 150.94 108.18 159.917 108.18 C 168.895 108.18 176.171 100.904 176.171 91.926 C 176.171 82.949 168.895 75.672 159.917 75.672 Z M 114.4 82.174 C 119.782 82.174 124.159 86.538 124.159 91.92 C 124.159 97.302 119.782 101.678 114.4 101.678 C 109.018 101.678 104.654 97.302 104.654 91.92 C 104.654 86.538 109.018 82.174 114.4 82.174 Z M 159.911 82.174 C 165.293 82.174 169.67 86.538 169.67 91.92 C 169.67 97.302 165.293 101.678 159.911 101.678 C 154.529 101.678 150.165 97.302 150.165 91.92 C 150.165 86.538 154.529 82.174 159.911 82.174 Z M 113.644 85.869 C 112.837 85.918 112.122 86.02 111.994 86.148 C 111.903 86.238 111.964 86.813 112.133 87.418 C 112.717 89.496 111.525 90.788 109.581 90.199 C 109.06 90.041 108.597 90.015 108.464 90.148 C 108.338 90.274 108.271 91.234 108.324 92.282 C 108.402 93.83 108.562 94.387 109.137 95.253 C 109.923 96.438 111.454 97.557 112.73 97.882 C 113.983 98.2 116.073 97.964 117.2 97.386 C 120.26 95.817 121.407 91.998 119.74 88.942 C 118.93 87.458 117.286 86.18 115.829 85.907 C 115.343 85.816 114.452 85.82 113.644 85.869 Z M 159.155 85.869 C 158.348 85.918 157.633 86.02 157.505 86.148 C 157.414 86.238 157.475 86.813 157.644 87.418 C 158.228 89.496 157.036 90.788 155.092 90.199 C 154.571 90.041 154.108 90.015 153.975 90.148 C 153.849 90.274 153.782 91.234 153.835 92.282 C 153.913 93.83 154.073 94.387 154.648 95.253 C 155.434 96.438 156.965 97.557 158.241 97.882 C 159.494 98.2 161.584 97.964 162.711 97.386 C 165.771 95.817 166.918 91.998 165.251 88.942 C 164.441 87.458 162.797 86.18 161.34 85.907 C 160.854 85.816 159.963 85.82 159.155 85.869 Z M 137.162 95.177 C 134.988 95.176 133.712 96.132 132.705 98.536 C 131.847 100.584 132.356 105.485 133.803 108.942 C 134.627 110.91 136.881 114.682 137.232 114.682 C 137.352 114.682 137.89 114.083 138.413 113.348 C 140.499 110.413 141.979 105.393 142.032 101.107 C 142.06 98.869 142.003 98.616 141.257 97.488 C 140.165 95.837 139.001 95.178 137.162 95.177 Z M 182.889 100.091 C 182.647 100.148 180.374 102.206 177.835 104.663 L 173.225 109.132 L 173.009 113.945 C 172.067 135.857 164.647 153.64 150.648 167.507 C 140.068 177.986 124.121 186.629 107.778 190.605 C 102.784 191.82 90.276 193.624 89.848 193.196 C 89.646 192.994 89.945 192.279 90.686 191.164 C 93.443 187.012 95.603 181.584 96.629 176.218 C 97.637 170.941 97.747 167.31 97.137 159.697 C 96.464 151.302 96.633 145.625 97.568 141.272 C 98.903 135.056 101.581 130.147 105.06 127.532 C 109.311 124.338 113.263 122.923 117.962 122.923 C 128.626 122.923 139.404 130.389 141.562 140.485 C 142.223 143.576 141.969 150.421 141.054 154.961 C 138.93 165.507 132.139 173.104 124.197 179.837 C 122.676 181.126 120.923 182.655 120.298 183.227 L 119.168 184.269 L 120.121 183.913 C 120.647 183.723 122.518 182.713 124.273 181.666 C 137.488 173.779 146.196 165.785 149.016 152.421 C 149.878 148.334 150.234 140.894 149.689 137.755 C 148.797 132.621 145.715 127.236 141.27 123.05 C 132.088 114.403 117.933 112.396 106.368 117.805 C 100.429 120.584 95.288 125.245 92.768 130.136 C 88.62 138.186 87.919 145.921 90.572 159.697 C 91.465 164.336 91.879 167.969 91.879 171.177 C 91.879 181.421 88.291 191.104 81.86 198.186 C 80.88 199.266 80.07 200.228 80.07 200.332 C 80.07 200.652 80.847 200.548 84.667 199.723 C 86.694 199.285 91.408 198.49 95.143 197.958 C 109.461 195.917 119.694 192.833 131.613 186.948 C 146.345 179.674 157.874 169.936 166.66 157.577 C 175.642 144.942 181.286 128.76 182.66 111.685 C 183.312 103.586 183.375 99.977 182.889 100.091 Z"/>
 </g>
</svg>
