<svg xmlns="http://www.w3.org/2000/svg" style="isolation:isolate" width="256" height="256" viewBox="0 0 256 256">
 <defs>
  <filter id="5BMnKcuC7aR9rgVOYqgIvm9S4hn6hCeD" width="400%" height="400%" x="-200%" y="-200%" color-interpolation-filters="sRGB" filterUnits="objectBoundingBox">
   <feGaussianBlur xmlns="http://www.w3.org/2000/svg" in="SourceGraphic" stdDeviation="4.294"/>
   <feOffset xmlns="http://www.w3.org/2000/svg" dx="0" dy="4" result="pf_100_offsetBlur"/>
   <feFlood xmlns="http://www.w3.org/2000/svg" flood-opacity=".4"/>
   <feComposite xmlns="http://www.w3.org/2000/svg" in2="pf_100_offsetBlur" operator="in" result="pf_100_dropShadow"/>
   <feBlend xmlns="http://www.w3.org/2000/svg" in="SourceGraphic" in2="pf_100_dropShadow" mode="normal"/>
  </filter>
 </defs>
 <g filter="url(#5BMnKcuC7aR9rgVOYqgIvm9S4hn6hCeD)">
  <linearGradient id="_lgradient_34" x1="0" x2="0" y1="0" y2="1" gradientTransform="matrix(244.648,0,0,228.338,5.68,11.95)" gradientUnits="userSpaceOnUse">
   <stop offset="0%" style="stop-color:#4c5561"/>
   <stop offset="100%" style="stop-color:#2e3842"/>
  </linearGradient>
  <path fill="url(#_lgradient_34)" d="M 165.689 11.95 C 239.745 11.95 250.328 22.507 250.328 96.494 L 250.328 155.745 C 250.328 229.731 239.745 240.288 165.689 240.288 L 90.319 240.288 C 16.264 240.288 5.68 229.731 5.68 155.745 L 5.68 96.494 C 5.68 22.507 16.264 11.95 90.319 11.95 L 165.689 11.95 Z"/>
 </g>
 <g opacity=".4">
  <linearGradient id="_lgradient_35" x1=".517" x2=".517" y1="0" y2="1" gradientTransform="matrix(244.65,0,0,228.34,5.68,11.95)" gradientUnits="userSpaceOnUse">
   <stop offset="0%" style="stop-color:#ffffff"/>
   <stop offset="12.5%" stop-opacity=".098" style="stop-color:#ffffff"/>
   <stop offset="92.5%" stop-opacity=".098" style="stop-color:#000000"/>
   <stop offset="100%" stop-opacity=".498" style="stop-color:#000000"/>
  </linearGradient>
  <path fill="url(#_lgradient_35)" fill-rule="evenodd" d="M 165.068 11.951 C 169.396 11.941 173.724 11.991 178.052 12.089 C 181.927 12.167 185.803 12.315 189.678 12.541 C 193.131 12.737 196.583 13.022 200.026 13.395 C 203.085 13.73 206.144 14.181 209.174 14.741 C 211.889 15.243 214.574 15.881 217.22 16.657 C 219.62 17.355 221.971 18.219 224.243 19.241 C 226.358 20.184 228.384 21.304 230.302 22.591 C 232.142 23.829 233.863 25.244 235.437 26.806 C 237.001 28.378 238.417 30.088 239.656 31.925 C 240.945 33.841 242.066 35.865 243.02 37.967 C 244.043 40.247 244.909 42.585 245.617 44.972 C 246.394 47.615 247.034 50.297 247.535 53.009 C 248.096 56.035 248.548 59.081 248.883 62.136 C 249.257 65.575 249.542 69.014 249.739 72.462 C 249.965 76.323 250.112 80.194 250.201 84.055 C 250.289 88.378 250.339 92.701 250.329 97.014 L 250.329 155.226 C 250.339 159.549 250.289 163.862 250.201 168.185 C 250.112 172.056 249.965 175.917 249.739 179.778 C 249.542 183.226 249.257 186.675 248.883 190.104 C 248.548 193.159 248.096 196.215 247.535 199.241 C 247.034 201.943 246.394 204.625 245.617 207.268 C 244.909 209.655 244.043 212.003 243.02 214.273 C 242.066 216.385 240.945 218.399 239.656 220.315 C 238.417 222.152 237.001 223.872 235.437 225.434 C 233.863 226.996 232.142 228.411 230.302 229.649 C 228.384 230.936 226.358 232.056 224.243 232.999 C 221.971 234.021 219.62 234.885 217.22 235.593 C 214.574 236.369 211.889 237.007 209.174 237.499 C 206.144 238.068 203.085 238.51 200.026 238.845 C 196.583 239.218 193.131 239.503 189.678 239.699 C 185.803 239.925 181.927 240.073 178.052 240.161 C 173.724 240.249 169.396 240.299 165.068 240.289 L 90.942 240.289 C 86.614 240.299 82.286 240.249 77.958 240.161 C 74.083 240.073 70.207 239.925 66.332 239.699 C 62.879 239.503 59.427 239.218 55.984 238.845 C 52.925 238.51 49.866 238.068 46.836 237.499 C 44.121 237.007 41.436 236.369 38.79 235.593 C 36.39 234.885 34.039 234.021 31.767 232.999 C 29.652 232.056 27.626 230.936 25.708 229.649 C 23.868 228.411 22.147 226.996 20.573 225.434 C 19.009 223.872 17.593 222.152 16.354 220.315 C 15.065 218.399 13.944 216.385 12.99 214.273 C 11.967 212.003 11.101 209.655 10.393 207.268 C 9.616 204.625 8.976 201.943 8.475 199.241 C 7.914 196.215 7.462 193.159 7.127 190.104 C 6.753 186.675 6.468 183.226 6.271 179.778 C 6.045 175.917 5.898 172.056 5.809 168.185 C 5.721 163.862 5.671 159.549 5.681 155.226 L 5.681 97.014 C 5.671 92.701 5.721 88.378 5.809 84.055 C 5.898 80.194 6.045 76.323 6.271 72.462 C 6.468 69.014 6.753 65.575 7.127 62.136 C 7.462 59.081 7.914 56.035 8.475 53.009 C 8.976 50.297 9.616 47.615 10.393 44.972 C 11.101 42.585 11.967 40.247 12.99 37.967 C 13.944 35.865 15.065 33.841 16.354 31.925 C 17.593 30.088 19.009 28.378 20.573 26.806 C 22.147 25.244 23.868 23.829 25.708 22.591 C 27.626 21.304 29.652 20.184 31.767 19.241 C 34.039 18.219 36.39 17.355 38.79 16.657 C 41.436 15.881 44.121 15.243 46.836 14.741 C 49.866 14.181 52.925 13.73 55.984 13.395 C 59.427 13.022 62.879 12.737 66.332 12.541 C 70.207 12.315 74.083 12.167 77.958 12.089 C 82.286 11.991 86.614 11.941 90.942 11.951 L 165.068 11.951 Z M 165.078 15.96 C 169.376 15.95 173.675 15.999 177.973 16.087 C 181.8 16.176 185.626 16.323 189.452 16.539 C 192.836 16.736 196.219 17.011 199.583 17.384 C 202.554 17.699 205.515 18.131 208.446 18.681 C 211.023 19.153 213.58 19.762 216.099 20.499 C 218.322 21.147 220.495 21.953 222.6 22.896 C 224.509 23.751 226.338 24.763 228.069 25.922 C 229.692 27.013 231.207 28.26 232.594 29.646 C 233.981 31.031 235.23 32.544 236.332 34.165 C 237.492 35.894 238.506 37.712 239.361 39.608 C 240.306 41.72 241.112 43.892 241.761 46.102 C 242.509 48.617 243.109 51.162 243.591 53.736 C 244.132 56.664 244.565 59.611 244.889 62.578 C 245.263 65.938 245.539 69.308 245.735 72.688 C 245.952 76.51 246.109 80.322 246.188 84.144 C 246.276 88.437 246.325 92.721 246.325 97.014 C 246.325 97.014 246.325 97.014 246.325 97.014 L 246.325 155.226 C 246.325 155.226 246.325 155.226 246.325 155.226 C 246.325 159.519 246.276 163.803 246.188 168.096 C 246.109 171.918 245.952 175.74 245.735 179.552 C 245.539 182.932 245.263 186.302 244.889 189.672 C 244.565 192.629 244.132 195.576 243.591 198.504 C 243.109 201.078 242.509 203.623 241.761 206.138 C 241.112 208.358 240.306 210.52 239.361 212.632 C 238.506 214.528 237.492 216.356 236.332 218.075 C 235.23 219.706 233.981 221.219 232.594 222.604 C 231.207 223.98 229.692 225.227 228.069 226.318 C 226.338 227.477 224.509 228.489 222.6 229.344 C 220.495 230.297 218.322 231.093 216.099 231.741 C 213.58 232.478 211.023 233.087 208.446 233.559 C 205.515 234.109 202.554 234.541 199.583 234.865 C 196.219 235.229 192.836 235.514 189.452 235.701 C 185.626 235.917 181.8 236.074 177.973 236.153 C 173.675 236.251 169.376 236.29 165.078 236.29 C 165.078 236.29 165.078 236.29 165.068 236.29 L 90.942 236.29 C 90.932 236.29 90.932 236.29 90.932 236.29 C 86.634 236.29 82.335 236.251 78.037 236.153 C 74.21 236.074 70.384 235.917 66.558 235.701 C 63.174 235.514 59.791 235.229 56.427 234.865 C 53.456 234.541 50.495 234.109 47.564 233.559 C 44.987 233.087 42.43 232.478 39.911 231.741 C 37.688 231.093 35.515 230.297 33.41 229.344 C 31.501 228.489 29.672 227.477 27.941 226.318 C 26.318 225.227 24.803 223.98 23.416 222.604 C 22.029 221.219 20.78 219.706 19.678 218.075 C 18.518 216.356 17.504 214.528 16.649 212.632 C 15.704 210.52 14.898 208.358 14.249 206.138 C 13.501 203.623 12.901 201.078 12.419 198.504 C 11.878 195.576 11.445 192.629 11.121 189.672 C 10.747 186.302 10.472 182.932 10.275 179.552 C 10.058 175.74 9.901 171.918 9.822 168.096 C 9.734 163.803 9.685 159.519 9.685 155.226 C 9.685 155.226 9.685 155.226 9.685 155.226 L 9.685 97.014 C 9.685 97.014 9.685 97.014 9.685 97.014 C 9.685 92.721 9.734 88.437 9.822 84.144 C 9.901 80.322 10.058 76.51 10.275 72.688 C 10.472 69.308 10.747 65.938 11.121 62.578 C 11.445 59.611 11.878 56.664 12.419 53.736 C 12.901 51.162 13.501 48.617 14.249 46.102 C 14.898 43.892 15.704 41.72 16.649 39.608 C 17.504 37.712 18.518 35.894 19.678 34.165 C 20.78 32.544 22.029 31.031 23.416 29.646 C 24.803 28.26 26.318 27.013 27.941 25.922 C 29.672 24.763 31.501 23.751 33.41 22.896 C 35.515 21.953 37.688 21.147 39.911 20.499 C 42.43 19.762 44.987 19.153 47.564 18.681 C 50.495 18.131 53.456 17.699 56.427 17.384 C 59.791 17.011 63.174 16.736 66.558 16.539 C 70.384 16.323 74.21 16.176 78.037 16.087 C 82.335 15.999 86.634 15.95 90.932 15.96 C 90.932 15.96 90.932 15.96 90.942 15.96 L 165.068 15.96 C 165.078 15.96 165.078 15.96 165.078 15.96 Z"/>
 </g>
 <linearGradient id="_lgradient_36" x1=".5" x2=".5" y1="0" y2="1" gradientTransform="matrix(170,0,0,115.948,40.568,70.458)" gradientUnits="userSpaceOnUse">
  <stop offset="0%" style="stop-color:#1ad6ab"/>
  <stop offset="100%" style="stop-color:#329db6"/>
 </linearGradient>
 <path fill="url(#_lgradient_36)" d="M 183.851 185.241 C 172.734 175.728 164.964 173.642 147.609 175.508 C 145.971 175.684 144.32 175.879 143.94 175.941 C 143.272 176.051 143.249 176.03 143.249 175.325 C 143.249 174.467 143.007 174.538 147.822 173.976 C 150.151 173.704 152.704 173.602 157.286 173.597 C 162.989 173.591 163.778 173.634 165.948 174.074 C 172.646 175.432 178.303 178.492 185.306 184.546 L 186.17 185.293 L 185.691 185.849 L 185.212 186.406 L 183.851 185.241 Z M 65.448 184.056 L 64.99 183.568 L 66.597 182.195 C 73.892 175.964 79.782 173.041 87.226 171.956 C 89.948 171.56 97.7 171.621 101.988 172.073 C 108.284 172.737 107.826 172.63 107.906 173.462 L 107.975 174.186 L 106.523 174.045 C 105.725 173.967 103.78 173.761 102.201 173.586 C 100.621 173.412 97.607 173.207 95.501 173.133 C 84.388 172.738 77.303 175.189 68.68 182.411 C 67.289 183.577 66.095 184.533 66.028 184.536 C 65.961 184.54 65.699 184.324 65.448 184.056 L 65.448 184.056 Z M 203.846 179.515 C 192.5 171.162 181.75 167.108 168.144 166.049 C 164.683 165.78 156.729 165.772 152.075 166.033 C 150.204 166.138 147.452 166.292 145.961 166.376 L 143.249 166.527 L 143.249 165.862 C 143.249 165.027 143.093 165.06 148.566 164.717 C 155.151 164.305 167.486 164.368 171.323 164.833 C 182.59 166.2 191.686 169.565 201.206 175.889 C 204.196 177.875 205.991 179.242 205.991 179.532 C 205.991 179.678 205.813 179.959 205.596 180.155 C 205.222 180.494 205.13 180.46 203.846 179.515 L 203.846 179.515 Z M 45.446 178.207 L 45.01 177.596 L 46.754 176.313 C 58.316 167.805 68.989 163.85 83.059 162.858 C 88.332 162.487 96.134 162.601 105.657 163.188 L 107.943 163.329 L 107.943 164.077 L 107.943 164.824 L 106.082 164.692 C 96.566 164.014 84.832 163.997 79.443 164.653 C 66.967 166.171 57.091 170.269 46.578 178.288 L 45.881 178.819 L 45.446 178.207 Z M 123.631 172.215 C 119.618 171.481 116.476 169.384 115.015 166.465 C 114.514 165.464 114.43 165.035 114.43 163.487 C 114.43 161.975 114.521 161.488 114.988 160.51 C 116.114 158.151 118.173 156.443 121.236 155.327 C 123.48 154.509 127.317 154.3 129.701 154.866 C 133.2 155.696 136.152 157.815 137.415 160.403 C 137.958 161.515 138.037 161.913 138.031 163.487 C 138.025 165.035 137.939 165.464 137.432 166.465 C 136.251 168.799 133.776 170.757 130.823 171.694 C 128.925 172.296 125.451 172.548 123.631 172.215 Z M 207.692 163.464 C 198.882 160.727 189.645 158.7 181.479 157.71 C 178.178 157.31 176.469 157.238 170.047 157.227 C 162.37 157.213 160.692 157.317 154.627 158.185 C 151.616 158.616 146.811 159.548 143.887 160.269 L 142.292 160.661 L 142.096 160.036 C 141.955 159.584 141.975 159.363 142.168 159.244 C 142.568 158.997 147.838 157.833 151.335 157.22 C 158.109 156.032 161.504 155.753 169.409 155.738 C 180.495 155.717 188.016 156.696 199.504 159.654 C 203.323 160.638 210.186 162.581 210.492 162.766 C 210.739 162.915 210.333 164.018 210.017 164.055 C 209.85 164.075 208.804 163.809 207.692 163.464 L 207.692 163.464 Z M 40.759 161.764 C 40.627 161.387 40.544 161.059 40.574 161.036 C 40.722 160.919 43.756 159.998 46.796 159.148 C 61.648 154.994 73.501 153.425 86.143 153.939 C 92.602 154.202 98.381 154.952 104.221 156.286 C 105.742 156.633 107.496 157.029 108.12 157.166 C 109.224 157.408 109.25 157.431 109.128 158.043 C 109.059 158.388 108.964 158.709 108.917 158.756 C 108.87 158.803 107.344 158.496 105.527 158.074 C 97.205 156.141 90.289 155.348 81.783 155.351 C 72.039 155.355 63.616 156.43 52.933 159.033 C 49.994 159.75 42.417 161.895 41.345 162.314 C 41.089 162.414 40.935 162.27 40.759 161.764 L 40.759 161.764 Z M 142.54 145.962 C 140.028 144.909 138.457 143.399 137.208 140.836 C 134.685 135.663 135.607 129.184 139.403 125.405 C 142.199 122.622 145.435 121.963 148.736 123.503 C 151.738 124.904 154.004 128.251 154.693 132.302 C 155.642 137.878 153.15 143.537 148.804 145.678 C 147.613 146.264 147.139 146.375 145.594 146.425 C 144.066 146.474 143.585 146.401 142.54 145.962 L 142.54 145.962 Z M 149.842 138.922 C 152.362 137.619 153.047 132.26 151.097 129.104 C 150.561 128.237 149.702 127.756 148.69 127.756 C 146.986 127.756 145.567 130.316 145.567 133.39 C 145.567 136.034 146.354 137.956 147.798 138.836 C 148.597 139.324 149.03 139.342 149.842 138.922 L 149.842 138.922 Z M 104.1 144.493 C 101.112 143.649 98.462 140.847 97.293 137.299 C 96.85 135.952 96.777 135.328 96.777 132.861 C 96.777 129.383 97.245 127.672 98.856 125.264 C 100.609 122.644 102.903 121.193 105.599 121 C 109.979 120.687 113.922 124.054 115.329 129.308 C 115.808 131.098 115.796 134.655 115.304 136.458 C 114 141.241 110.552 144.509 106.615 144.695 C 105.759 144.735 104.639 144.645 104.1 144.493 L 104.1 144.493 Z M 111.141 136.897 C 112.183 136.154 112.907 134.341 113.008 132.219 C 113.151 129.231 112.276 126.993 110.653 126.197 C 109.986 125.87 109.741 125.847 109.117 126.053 C 106.098 127.05 105.348 133.774 107.949 136.509 C 108.614 137.208 108.86 137.327 109.632 137.327 C 110.199 137.327 110.762 137.166 111.141 136.897 L 111.141 136.897 Z M 67.226 134.284 C 64.009 123.62 61.053 110.214 59.889 101.014 C 58.918 93.336 58.795 86.163 59.555 81.603 C 61.603 69.322 69.107 67.572 79.016 77.066 C 83.846 81.695 88.81 88.28 94.06 97.023 C 96.143 100.494 99.648 106.809 99.648 107.093 C 99.648 107.19 99.386 107.39 99.065 107.536 C 98.59 107.753 98.45 107.749 98.311 107.517 C 98.217 107.36 97.323 105.749 96.324 103.935 C 90.018 92.486 84.054 84.047 78.353 78.51 C 74.331 74.603 71.187 72.708 68.396 72.508 C 64.439 72.225 62.115 75.306 60.893 82.454 C 60.533 84.566 60.538 93.892 60.902 97.236 C 61.956 106.911 64.465 119.132 67.848 131.068 C 68.494 133.345 69.022 135.293 69.022 135.396 C 69.022 135.499 68.736 135.684 68.387 135.805 L 67.752 136.027 L 67.226 134.284 Z M 181.851 135.261 C 181.617 135.205 181.35 135.088 181.258 135.001 C 181.165 134.914 181.615 132.985 182.256 130.715 C 188.473 108.714 190.91 91.15 189.177 80.832 C 187.749 72.328 183.551 69.856 177.085 73.711 C 170.463 77.66 161.611 88.929 153.93 103.191 C 151.694 107.342 151.76 107.255 151.107 106.914 C 150.821 106.765 150.55 106.612 150.506 106.574 C 150.375 106.461 153.781 100.276 156.175 96.279 C 166.586 78.898 176.675 69.424 183.576 70.548 C 184.23 70.654 185.168 70.977 185.66 71.266 C 192.504 75.276 193.037 91.644 187.163 117.441 C 185.716 123.797 182.619 135.439 182.389 135.388 C 182.327 135.375 182.085 135.318 181.851 135.261 L 181.851 135.261 Z"/>
</svg>
