<svg xmlns="http://www.w3.org/2000/svg" style="isolation:isolate" width="256" height="256" version="1.1" viewBox="0 0 256 256">
 <defs>
  <filter id="1Zw2PMGaqJmUxF0cN93D3V0sW46KqpNZ" width="400%" height="400%" x="-200%" y="-200%" color-interpolation-filters="sRGB" filterUnits="objectBoundingBox">
   <feGaussianBlur in="SourceGraphic" stdDeviation="4.294"/>
   <feOffset dx="0" dy="4" result="pf_100_offsetBlur"/>
   <feFlood flood-opacity=".4"/>
   <feComposite in2="pf_100_offsetBlur" operator="in" result="pf_100_dropShadow"/>
   <feBlend in="SourceGraphic" in2="pf_100_dropShadow" mode="normal"/>
  </filter>
 </defs>
 <g style="filter:url(#1Zw2PMGaqJmUxF0cN93D3V0sW46KqpNZ)">
  <linearGradient id="_lgradient_179" x1=".547" x2=".53" y1="1.002" y2=".003" gradientTransform="matrix(244.648,0,0,228.338,5.619,11.952)" gradientUnits="userSpaceOnUse">
   <stop offset="0%" style="stop-color:#ebedee"/>
   <stop offset="100%" style="stop-color:#fdfbfb"/>
  </linearGradient>
  <path d="m 165.628,11.952 c 74.056,0 84.639,10.557 84.639,84.543 v 59.251 c 0,73.987 -10.583,84.544 -84.639,84.544 H 90.259 c -74.056,0 -84.64,-10.557 -84.64,-84.544 V 96.495 c 0,-73.986 10.584,-84.543 84.64,-84.543 z" style="fill:url(#_lgradient_179)"/>
 </g>
 <linearGradient id="_lgradient_180" x1=".444" x2=".447" y1="1.516" y2=".018" gradientTransform="matrix(243.153,0,0,57.429,6.344,11.952)" gradientUnits="userSpaceOnUse">
  <stop offset="0%" style="stop-color:#9269f4"/>
  <stop offset="100%" style="stop-color:#09d4df"/>
 </linearGradient>
 <path fill="url(#_lgradient_180)" d="M 165.628 11.952 C 229.299 11.952 246.051 19.755 249.497 68.965 C 247.834 69.268 3.607 69.524 6.367 69.29 C 9.763 19.79 26.448 11.952 90.259 11.952 L 165.628 11.952 Z"/>
 <g opacity=".4">
  <linearGradient id="_lgradient_181" x1=".517" x2=".517" y1="0" y2="1" gradientTransform="matrix(244.65,0,0,228.34,5.68,11.95)" gradientUnits="userSpaceOnUse">
   <stop offset="0%" style="stop-color:#ffffff"/>
   <stop offset="12.5%" stop-opacity=".098" style="stop-color:#ffffff"/>
   <stop offset="92.5%" stop-opacity=".098" style="stop-color:#000000"/>
   <stop offset="100%" stop-opacity=".498" style="stop-color:#000000"/>
  </linearGradient>
  <path fill="url(#_lgradient_181)" fill-rule="evenodd" d="M 165.068 11.951 C 169.396 11.941 173.724 11.991 178.052 12.089 C 181.927 12.167 185.803 12.315 189.678 12.541 C 193.131 12.737 196.583 13.022 200.026 13.395 C 203.085 13.73 206.144 14.181 209.174 14.741 C 211.889 15.243 214.574 15.881 217.22 16.657 C 219.62 17.355 221.971 18.219 224.243 19.241 C 226.358 20.184 228.384 21.304 230.302 22.591 C 232.142 23.829 233.863 25.244 235.437 26.806 C 237.001 28.378 238.417 30.088 239.656 31.925 C 240.945 33.841 242.066 35.865 243.02 37.967 C 244.043 40.247 244.909 42.585 245.617 44.972 C 246.394 47.615 247.034 50.297 247.535 53.009 C 248.096 56.035 248.548 59.081 248.883 62.136 C 249.257 65.575 249.542 69.014 249.739 72.462 C 249.965 76.323 250.112 80.194 250.201 84.055 C 250.289 88.378 250.339 92.701 250.329 97.014 L 250.329 155.226 C 250.339 159.549 250.289 163.862 250.201 168.185 C 250.112 172.056 249.965 175.917 249.739 179.778 C 249.542 183.226 249.257 186.675 248.883 190.104 C 248.548 193.159 248.096 196.215 247.535 199.241 C 247.034 201.943 246.394 204.625 245.617 207.268 C 244.909 209.655 244.043 212.003 243.02 214.273 C 242.066 216.385 240.945 218.399 239.656 220.315 C 238.417 222.152 237.001 223.872 235.437 225.434 C 233.863 226.996 232.142 228.411 230.302 229.649 C 228.384 230.936 226.358 232.056 224.243 232.999 C 221.971 234.021 219.62 234.885 217.22 235.593 C 214.574 236.369 211.889 237.007 209.174 237.499 C 206.144 238.068 203.085 238.51 200.026 238.845 C 196.583 239.218 193.131 239.503 189.678 239.699 C 185.803 239.925 181.927 240.073 178.052 240.161 C 173.724 240.249 169.396 240.299 165.068 240.289 L 90.942 240.289 C 86.614 240.299 82.286 240.249 77.958 240.161 C 74.083 240.073 70.207 239.925 66.332 239.699 C 62.879 239.503 59.427 239.218 55.984 238.845 C 52.925 238.51 49.866 238.068 46.836 237.499 C 44.121 237.007 41.436 236.369 38.79 235.593 C 36.39 234.885 34.039 234.021 31.767 232.999 C 29.652 232.056 27.626 230.936 25.708 229.649 C 23.868 228.411 22.147 226.996 20.573 225.434 C 19.009 223.872 17.593 222.152 16.354 220.315 C 15.065 218.399 13.944 216.385 12.99 214.273 C 11.967 212.003 11.101 209.655 10.393 207.268 C 9.616 204.625 8.976 201.943 8.475 199.241 C 7.914 196.215 7.462 193.159 7.127 190.104 C 6.753 186.675 6.468 183.226 6.271 179.778 C 6.045 175.917 5.898 172.056 5.809 168.185 C 5.721 163.862 5.671 159.549 5.681 155.226 L 5.681 97.014 C 5.671 92.701 5.721 88.378 5.809 84.055 C 5.898 80.194 6.045 76.323 6.271 72.462 C 6.468 69.014 6.753 65.575 7.127 62.136 C 7.462 59.081 7.914 56.035 8.475 53.009 C 8.976 50.297 9.616 47.615 10.393 44.972 C 11.101 42.585 11.967 40.247 12.99 37.967 C 13.944 35.865 15.065 33.841 16.354 31.925 C 17.593 30.088 19.009 28.378 20.573 26.806 C 22.147 25.244 23.868 23.829 25.708 22.591 C 27.626 21.304 29.652 20.184 31.767 19.241 C 34.039 18.219 36.39 17.355 38.79 16.657 C 41.436 15.881 44.121 15.243 46.836 14.741 C 49.866 14.181 52.925 13.73 55.984 13.395 C 59.427 13.022 62.879 12.737 66.332 12.541 C 70.207 12.315 74.083 12.167 77.958 12.089 C 82.286 11.991 86.614 11.941 90.942 11.951 L 165.068 11.951 Z M 165.078 15.96 C 169.376 15.95 173.675 15.999 177.973 16.087 C 181.8 16.176 185.626 16.323 189.452 16.539 C 192.836 16.736 196.219 17.011 199.583 17.384 C 202.554 17.699 205.515 18.131 208.446 18.681 C 211.023 19.153 213.58 19.762 216.099 20.499 C 218.322 21.147 220.495 21.953 222.6 22.896 C 224.509 23.751 226.338 24.763 228.069 25.922 C 229.692 27.013 231.207 28.26 232.594 29.646 C 233.981 31.031 235.23 32.544 236.332 34.165 C 237.492 35.894 238.506 37.712 239.361 39.608 C 240.306 41.72 241.112 43.892 241.761 46.102 C 242.509 48.617 243.109 51.162 243.591 53.736 C 244.132 56.664 244.565 59.611 244.889 62.578 C 245.263 65.938 245.539 69.308 245.735 72.688 C 245.952 76.51 246.109 80.322 246.188 84.144 C 246.276 88.437 246.325 92.721 246.325 97.014 C 246.325 97.014 246.325 97.014 246.325 97.014 L 246.325 155.226 C 246.325 155.226 246.325 155.226 246.325 155.226 C 246.325 159.519 246.276 163.803 246.188 168.096 C 246.109 171.918 245.952 175.74 245.735 179.552 C 245.539 182.932 245.263 186.302 244.889 189.672 C 244.565 192.629 244.132 195.576 243.591 198.504 C 243.109 201.078 242.509 203.623 241.761 206.138 C 241.112 208.358 240.306 210.52 239.361 212.632 C 238.506 214.528 237.492 216.356 236.332 218.075 C 235.23 219.706 233.981 221.219 232.594 222.604 C 231.207 223.98 229.692 225.227 228.069 226.318 C 226.338 227.477 224.509 228.489 222.6 229.344 C 220.495 230.297 218.322 231.093 216.099 231.741 C 213.58 232.478 211.023 233.087 208.446 233.559 C 205.515 234.109 202.554 234.541 199.583 234.865 C 196.219 235.229 192.836 235.514 189.452 235.701 C 185.626 235.917 181.8 236.074 177.973 236.153 C 173.675 236.251 169.376 236.29 165.078 236.29 C 165.078 236.29 165.078 236.29 165.068 236.29 L 90.942 236.29 C 90.932 236.29 90.932 236.29 90.932 236.29 C 86.634 236.29 82.335 236.251 78.037 236.153 C 74.21 236.074 70.384 235.917 66.558 235.701 C 63.174 235.514 59.791 235.229 56.427 234.865 C 53.456 234.541 50.495 234.109 47.564 233.559 C 44.987 233.087 42.43 232.478 39.911 231.741 C 37.688 231.093 35.515 230.297 33.41 229.344 C 31.501 228.489 29.672 227.477 27.941 226.318 C 26.318 225.227 24.803 223.98 23.416 222.604 C 22.029 221.219 20.78 219.706 19.678 218.075 C 18.518 216.356 17.504 214.528 16.649 212.632 C 15.704 210.52 14.898 208.358 14.249 206.138 C 13.501 203.623 12.901 201.078 12.419 198.504 C 11.878 195.576 11.445 192.629 11.121 189.672 C 10.747 186.302 10.472 182.932 10.275 179.552 C 10.058 175.74 9.901 171.918 9.822 168.096 C 9.734 163.803 9.685 159.519 9.685 155.226 C 9.685 155.226 9.685 155.226 9.685 155.226 L 9.685 97.014 C 9.685 97.014 9.685 97.014 9.685 97.014 C 9.685 92.721 9.734 88.437 9.822 84.144 C 9.901 80.322 10.058 76.51 10.275 72.688 C 10.472 69.308 10.747 65.938 11.121 62.578 C 11.445 59.611 11.878 56.664 12.419 53.736 C 12.901 51.162 13.501 48.617 14.249 46.102 C 14.898 43.892 15.704 41.72 16.649 39.608 C 17.504 37.712 18.518 35.894 19.678 34.165 C 20.78 32.544 22.029 31.031 23.416 29.646 C 24.803 28.26 26.318 27.013 27.941 25.922 C 29.672 24.763 31.501 23.751 33.41 22.896 C 35.515 21.953 37.688 21.147 39.911 20.499 C 42.43 19.762 44.987 19.153 47.564 18.681 C 50.495 18.131 53.456 17.699 56.427 17.384 C 59.791 17.011 63.174 16.736 66.558 16.539 C 70.384 16.323 74.21 16.176 78.037 16.087 C 82.335 15.999 86.634 15.95 90.932 15.96 C 90.932 15.96 90.932 15.96 90.942 15.96 L 165.068 15.96 C 165.078 15.96 165.078 15.96 165.078 15.96 Z"/>
 </g>
 <g transform="translate(2,6)" style="font-size:13.33333302px;line-height:1.25;font-family:'FuraCode Nerd Font';letter-spacing:0px;word-spacing:0px">
  <path d="m 27.076068,82.819878 c -2.12,0 -3.933334,1.64 -3.933334,4.733334 0,3.093333 1.746667,4.746666 3.986667,4.746666 1.306667,0 2.186667,-0.453333 2.746667,-1 l -0.6,-0.746666 c -0.493334,0.386666 -1.106667,0.76 -2.133334,0.76 -1.573333,0 -2.786666,-1.026667 -2.786666,-3.76 0,-2.8 1.306666,-3.76 2.8,-3.76 0.706666,0 1.346666,0.186666 1.933333,0.68 l 0.653333,-0.76 c -0.733333,-0.573334 -1.466666,-0.893334 -2.666666,-0.893334 z"/>
  <path d="m 34.316149,84.979878 c -1.973334,0 -3.04,1.506667 -3.04,3.666667 0,2.213333 1.053333,3.653333 3.026666,3.653333 1.96,0 3.026667,-1.506666 3.026667,-3.666666 0,-2.213334 -1.04,-3.653334 -3.013333,-3.653334 z m 0,0.92 c 1.2,0 1.8,0.88 1.8,2.733334 0,1.88 -0.6,2.746666 -1.813334,2.746666 -1.213333,0 -1.813333,-0.866666 -1.813333,-2.733333 0,-1.866667 0.613333,-2.746667 1.826667,-2.746667 z"/>
  <path d="m 44.382896,84.979878 c -1.266666,0 -1.986666,0.666667 -2.52,1.813334 l -0.213333,-1.666667 h -1.946667 v 0.866667 h 1.106667 v 5.293333 h -1.106667 v 0.866667 h 3.653334 v -0.866667 h -1.426667 v -2.96 c 0.453333,-1.546667 1.226667,-2.32 2.306667,-2.32 h 0.06667 v 1.506667 h 0.906667 l 0.16,-2.386667 c -0.306667,-0.08 -0.6,-0.146667 -0.986667,-0.146667 z"/>
  <path d="m 48.756312,85.126545 h -1.12 v 5.106667 c 0,1.306666 0.666666,2.066666 2.026666,2.066666 0.826667,0 1.693334,-0.386666 2.253334,-1.093333 l 0.09333,0.946667 h 0.96 v -7.026667 h -1.12 v 5.173333 c -0.386667,0.6 -1.133333,1.12 -1.906667,1.12 -0.813333,0 -1.186666,-0.4 -1.186666,-1.306666 z"/>
  <path d="m 58.036392,91.379878 c -0.826667,0 -1.573333,-0.306666 -2.12,-0.76 l -0.626667,0.733334 c 0.6,0.52 1.466667,0.946666 2.746667,0.946666 1.493333,0 2.946666,-0.586666 2.946666,-2.093333 0,-1.306667 -0.906666,-1.786667 -2.279999,-2.16 -1.413334,-0.386667 -1.853334,-0.6 -1.853334,-1.24 0,-0.533333 0.4,-0.92 1.52,-0.92 0.906667,0 1.506667,0.28 2.026667,0.64 l 0.506666,-0.773333 c -0.6,-0.426667 -1.426666,-0.773334 -2.559999,-0.773334 -1.586667,0 -2.666667,0.746667 -2.666667,1.92 0,1.226667 0.946667,1.666667 2.4,2.026667 1.493333,0.373333 1.693333,0.706667 1.693333,1.333333 0,0.68 -0.653333,1.12 -1.733333,1.12 z"/>
  <path d="m 66.823139,91.339878 c -1.213334,0 -2.093334,-0.786666 -2.093334,-2.666666 0,-1.853334 0.866667,-2.746667 2.08,-2.746667 0.626667,0 1.213334,0.213333 1.813334,0.613333 l 0.546666,-0.733333 c -0.653333,-0.546667 -1.44,-0.826667 -2.346666,-0.826667 -2.093334,0 -3.306667,1.586667 -3.306667,3.693334 0,2.2 1.2,3.626666 3.306667,3.626666 0.813333,0 1.76,-0.32 2.36,-0.84 l -0.533334,-0.733333 c -0.533333,0.36 -1.12,0.613333 -1.826666,0.613333 z"/>
  <path d="m 76.676556,90.619878 v -3.373333 c 0,-1.386667 -0.88,-2.266667 -2.626667,-2.266667 -0.693333,0 -1.44,0.133334 -2.306666,0.44 l 0.306666,0.853334 c 0.72,-0.253334 1.36,-0.36 1.826667,-0.36 1.04,0 1.666667,0.373333 1.666667,1.4 v 0.573333 h -1.04 c -2.12,0 -3.28,0.813333 -3.28,2.253333 0,1.306667 0.853333,2.16 2.266666,2.16 0.906667,0 1.693334,-0.333333 2.2,-0.986666 0.186667,0.64 0.68,0.92 1.28,1 l 0.28,-0.8 c -0.4,-0.12 -0.573333,-0.333334 -0.573333,-0.893334 z m -2.906667,0.84 c -0.92,0 -1.346666,-0.453333 -1.346666,-1.333333 0,-0.906667 0.56,-1.466667 2.106666,-1.466667 h 1.013334 v 1.8 c -0.413334,0.626667 -1.08,1 -1.773334,1 z"/>
  <path d="m 79.636636,92.153212 h 1.12 v -5.106667 c 0.373333,-0.56 1.08,-1.173333 1.906667,-1.173333 1.053333,0 1.2,0.573333 1.2,2.013333 v 4.266667 h 1.12 v -5.093334 c 0,-1.306666 -0.6,-2.08 -1.973334,-2.08 -0.826666,0 -1.76,0.413334 -2.32,1.133334 l -0.09333,-0.986667 h -0.96 z"/>
  <path d="m 93.223383,91.793212 -0.44,-0.76 c -0.373334,0.2 -0.826667,0.333333 -1.346667,0.333333 -0.96,0 -1.346667,-0.413333 -1.346667,-1.186667 v -4.173333 h 2.293334 l 0.146666,-0.88 h -2.44 v -1.72 l -1.12,0.133333 v 1.586667 h -1.613333 v 0.88 h 1.613333 v 4.186667 c 0,1.226666 0.853334,2.106666 2.36,2.106666 0.666667,0 1.4,-0.186666 1.893334,-0.506666 z"/>
  <path d="m 110.57579,89.033212 h 4.72 c 0.0133,-0.146667 0.0267,-0.36 0.0267,-0.6 0,-2.133334 -1.09333,-3.453334 -2.86666,-3.453334 -1.86667,0 -3.05334,1.546667 -3.05334,3.666667 0,2.186667 1.16,3.653333 3.21334,3.653333 0.86666,0 1.74666,-0.306666 2.4,-0.813333 l -0.52,-0.746667 c -0.62667,0.413334 -1.16,0.626667 -1.88,0.626667 -1.08,0 -1.98667,-0.706667 -2.04,-2.333333 z m 1.89333,-3.133334 c 1.06667,0 1.73333,0.773334 1.76,2.28 h -3.65333 c 0.0933,-1.546666 0.85333,-2.28 1.89333,-2.28 z"/>
  <path d="m 120.08253,91.379878 c -0.82667,0 -1.57333,-0.306666 -2.12,-0.76 l -0.62667,0.733334 c 0.6,0.52 1.46667,0.946666 2.74667,0.946666 1.49333,0 2.94667,-0.586666 2.94667,-2.093333 0,-1.306667 -0.90667,-1.786667 -2.28,-2.16 -1.41334,-0.386667 -1.85334,-0.6 -1.85334,-1.24 0,-0.533333 0.4,-0.92 1.52,-0.92 0.90667,0 1.50667,0.28 2.02667,0.64 l 0.50667,-0.773333 c -0.6,-0.426667 -1.42667,-0.773334 -2.56,-0.773334 -1.58667,0 -2.66667,0.746667 -2.66667,1.92 0,1.226667 0.94667,1.666667 2.4,2.026667 1.49333,0.373333 1.69333,0.706667 1.69333,1.333333 0,0.68 -0.65333,1.12 -1.73333,1.12 z"/>
  <path d="m 131.26928,91.793212 -0.44,-0.76 c -0.37333,0.2 -0.82667,0.333333 -1.34667,0.333333 -0.96,0 -1.34666,-0.413333 -1.34666,-1.186667 v -4.173333 h 2.29333 l 0.14667,-0.88 h -2.44 v -1.72 l -1.12,0.133333 v 1.586667 h -1.61334 v 0.88 h 1.61334 v 4.186667 c 0,1.226666 0.85333,2.106666 2.36,2.106666 0.66666,0 1.4,-0.186666 1.89333,-0.506666 z"/>
  <path d="m 150.87502,84.979878 c -0.84,0 -1.58667,0.413334 -2.09333,1.133334 l -0.0933,-0.986667 h -0.96 v 9.853333 l 1.12,-0.133333 v -3.346667 c 0.48,0.533334 1.09334,0.8 1.86667,0.8 1.82667,0 2.70667,-1.533333 2.70667,-3.666666 0,-2.2 -0.68,-3.653334 -2.54667,-3.653334 z m -0.26667,0.906667 c 1.10667,0 1.6,0.92 1.6,2.746667 0,1.866666 -0.58666,2.733333 -1.74666,2.733333 -0.66667,0 -1.24,-0.333333 -1.61334,-0.88 v -3.48 c 0.38667,-0.56 0.98667,-1.12 1.76,-1.12 z"/>
  <path d="m 158.4751,82.299878 h -3.28 v 0.893334 h 2.16 v 7.173333 c 0,1.213333 0.84,1.933333 2.08,1.933333 0.72,0 1.29333,-0.16 1.66666,-0.36 l -0.29333,-0.813333 c -0.38667,0.146667 -0.76,0.24 -1.17333,0.24 -0.68,0 -1.16,-0.253333 -1.16,-0.946667 z"/>
  <path d="m 168.76852,90.619878 v -3.373333 c 0,-1.386667 -0.88,-2.266667 -2.62667,-2.266667 -0.69333,0 -1.44,0.133334 -2.30666,0.44 l 0.30666,0.853334 c 0.72,-0.253334 1.36,-0.36 1.82667,-0.36 1.04,0 1.66667,0.373333 1.66667,1.4 v 0.573333 h -1.04 c -2.12,0 -3.28,0.813333 -3.28,2.253333 0,1.306667 0.85333,2.16 2.26666,2.16 0.90667,0 1.69334,-0.333333 2.2,-0.986666 0.18667,0.64 0.68,0.92 1.28,1 l 0.28,-0.8 c -0.4,-0.12 -0.57333,-0.333334 -0.57333,-0.893334 z m -2.90667,0.84 c -0.92,0 -1.34666,-0.453333 -1.34666,-1.333333 0,-0.906667 0.56,-1.466667 2.10666,-1.466667 h 1.01334 v 1.8 c -0.41334,0.626667 -1.08,1 -1.77334,1 z"/>
  <path d="m 171.7286,92.153212 h 1.12 v -5.106667 c 0.37333,-0.56 1.08,-1.173333 1.90666,-1.173333 1.05334,0 1.2,0.573333 1.2,2.013333 v 4.266667 h 1.12 v -5.093334 c 0,-1.306666 -0.6,-2.08 -1.97333,-2.08 -0.82667,0 -1.76,0.413334 -2.32,1.133334 l -0.0933,-0.986667 h -0.96 z"/>
  <path d="m 180.62201,89.033212 h 4.72 c 0.0133,-0.146667 0.0267,-0.36 0.0267,-0.6 0,-2.133334 -1.09333,-3.453334 -2.86666,-3.453334 -1.86667,0 -3.05334,1.546667 -3.05334,3.666667 0,2.186667 1.16,3.653333 3.21334,3.653333 0.86666,0 1.74666,-0.306666 2.4,-0.813333 l -0.52,-0.746667 c -0.62667,0.413334 -1.16,0.626667 -1.88,0.626667 -1.08,0 -1.98667,-0.706667 -2.04,-2.333333 z m 1.89333,-3.133334 c 1.06667,0 1.73333,0.773334 1.76,2.28 h -3.65333 c 0.0933,-1.546666 0.85333,-2.28 1.89333,-2.28 z"/>
  <path d="m 193.31542,91.793212 -0.44,-0.76 c -0.37334,0.2 -0.82667,0.333333 -1.34667,0.333333 -0.96,0 -1.34667,-0.413333 -1.34667,-1.186667 v -4.173333 h 2.29334 l 0.14666,-0.88 h -2.44 v -1.72 l -1.12,0.133333 v 1.586667 h -1.61333 v 0.88 h 1.61333 v 4.186667 c 0,1.226666 0.85334,2.106666 2.36,2.106666 0.66667,0 1.4,-0.186666 1.89334,-0.506666 z"/>
  <path d="m 200.76884,90.619878 v -3.373333 c 0,-1.386667 -0.88,-2.266667 -2.62667,-2.266667 -0.69333,0 -1.44,0.133334 -2.30666,0.44 l 0.30666,0.853334 c 0.72,-0.253334 1.36,-0.36 1.82667,-0.36 1.04,0 1.66667,0.373333 1.66667,1.4 v 0.573333 h -1.04 c -2.12,0 -3.28,0.813333 -3.28,2.253333 0,1.306667 0.85333,2.16 2.26666,2.16 0.90667,0 1.69334,-0.333333 2.2,-0.986666 0.18667,0.64 0.68,0.92 1.28,1 l 0.28,-0.8 c -0.4,-0.12 -0.57333,-0.333334 -0.57333,-0.893334 z m -2.90667,0.84 c -0.92,0 -1.34666,-0.453333 -1.34666,-1.333333 0,-0.906667 0.56,-1.466667 2.10666,-1.466667 h 1.01334 v 1.8 c -0.41334,0.626667 -1.08,1 -1.77334,1 z"/>
  <path d="m 220.44124,81.846545 c -0.48,0 -0.8,0.333333 -0.8,0.786667 0,0.453333 0.32,0.786666 0.8,0.786666 0.49333,0 0.82666,-0.333333 0.82666,-0.786666 0,-0.453334 -0.33333,-0.786667 -0.82666,-0.786667 z m 0.89333,3.28 h -3.21333 v 0.893333 h 2.09333 v 5.24 h -2.16 v 0.893334 h 5.25333 v -0.893334 h -1.97333 z"/>
  <path d="m 225.77465,92.153212 h 1.12 v -5.106667 c 0.37333,-0.56 1.08,-1.173333 1.90666,-1.173333 1.05334,0 1.2,0.573333 1.2,2.013333 v 4.266667 h 1.12 v -5.093334 c 0,-1.306666 -0.6,-2.08 -1.97333,-2.08 -0.82667,0 -1.76,0.413334 -2.32,1.133334 l -0.0933,-0.986667 h -0.96 z"/>
  <path d="m 24.756068,101.79321 h -1.12 v 5.10667 c 0,1.30666 0.666666,2.06666 2.026666,2.06666 0.826667,0 1.693334,-0.38666 2.253334,-1.09333 l 0.09333,0.94667 h 0.96 v -7.02667 h -1.12 v 5.17333 c -0.386667,0.6 -1.133333,1.12 -1.906667,1.12 -0.813333,0 -1.186666,-0.4 -1.186666,-1.30666 z"/>
  <path d="m 31.636149,108.81988 h 1.12 v -5.10667 c 0.373333,-0.56 1.08,-1.17333 1.906666,-1.17333 1.053334,0 1.2,0.57333 1.2,2.01333 v 4.26667 h 1.12 v -5.09334 c 0,-1.30666 -0.6,-2.08 -1.973333,-2.08 -0.826667,0 -1.76,0.41334 -2.32,1.13334 l -0.09333,-0.98667 h -0.96 z"/>
  <path d="m 42.302896,98.513209 c -0.48,0 -0.8,0.333334 -0.8,0.786667 0,0.453333 0.32,0.786664 0.8,0.786664 0.493334,0 0.826667,-0.333331 0.826667,-0.786664 0,-0.453333 -0.333333,-0.786667 -0.826667,-0.786667 z m 0.893334,3.280001 h -3.213334 v 0.89333 h 2.093334 v 5.24 h -2.16 v 0.89334 h 5.253333 v -0.89334 H 43.19623 Z"/>
  <path d="m 53.502978,101.79321 h -1.173333 l -2,6.01333 -2.026667,-6.01333 h -1.2 l 2.546667,7.02667 h 1.293333 z"/>
  <path d="m 56.529725,105.69988 h 4.72 c 0.01333,-0.14667 0.02667,-0.36 0.02667,-0.6 0,-2.13334 -1.093334,-3.45334 -2.866667,-3.45334 -1.866666,0 -3.053333,1.54667 -3.053333,3.66667 0,2.18667 1.16,3.65333 3.213333,3.65333 0.866667,0 1.746667,-0.30666 2.4,-0.81333 l -0.52,-0.74667 c -0.626667,0.41334 -1.16,0.62667 -1.88,0.62667 -1.08,0 -1.986666,-0.70667 -2.04,-2.33333 z m 1.893334,-3.13334 c 1.066666,0 1.733333,0.77334 1.759999,2.28 h -3.653333 c 0.09333,-1.54666 0.853334,-2.28 1.893334,-2.28 z"/>
  <path d="m 68.383139,101.64654 c -1.266667,0 -1.986667,0.66667 -2.52,1.81334 l -0.213334,-1.66667 h -1.946666 v 0.86667 h 1.106666 v 5.29333 h -1.106666 v 0.86667 h 3.653333 v -0.86667 h -1.426667 v -2.96 c 0.453334,-1.54667 1.226667,-2.32 2.306667,-2.32 h 0.06667 v 1.50667 h 0.906666 l 0.16,-2.38667 c -0.306666,-0.08 -0.6,-0.14667 -0.986666,-0.14667 z"/>
  <path d="m 74.036556,108.04654 c -0.826667,0 -1.573333,-0.30666 -2.12,-0.76 l -0.626667,0.73334 c 0.6,0.52 1.466667,0.94666 2.746667,0.94666 1.493333,0 2.946666,-0.58666 2.946666,-2.09333 0,-1.30667 -0.906666,-1.78667 -2.279999,-2.16 -1.413334,-0.38667 -1.853334,-0.6 -1.853334,-1.24 0,-0.53333 0.4,-0.92 1.52,-0.92 0.906667,0 1.506667,0.28 2.026667,0.64 l 0.506666,-0.77333 c -0.599999,-0.42667 -1.426666,-0.77334 -2.559999,-0.77334 -1.586667,0 -2.666667,0.74667 -2.666667,1.92 0,1.22667 0.946667,1.66667 2.4,2.02667 1.493333,0.37333 1.693333,0.70667 1.693333,1.33333 0,0.68 -0.653333,1.12 -1.733333,1.12 z"/>
  <path d="m 82.316636,101.64654 c -1.973333,0 -3.04,1.50667 -3.04,3.66667 0,2.21333 1.053333,3.65333 3.026667,3.65333 1.96,0 3.026666,-1.50666 3.026666,-3.66666 0,-2.21334 -1.04,-3.65334 -3.013333,-3.65334 z m 0,0.92 c 1.2,0 1.8,0.88 1.8,2.73334 0,1.88 -0.6,2.74666 -1.813333,2.74666 -1.213334,0 -1.813334,-0.86666 -1.813334,-2.73333 0,-1.86667 0.613334,-2.74667 1.826667,-2.74667 z"/>
  <path d="m 116.85191,98.833209 c -1.45333,0 -2.56,0.813334 -2.56,2.106671 v 1.4 h -1.66667 v 0.89333 h 1.66667 v 5.58667 h 1.13333 v -5.58667 h 2.25334 l 0.12,-0.89333 h -2.37334 v -1.42667 c 0,-0.77333 0.49334,-1.160001 1.46667,-1.160001 0.53333,0 1.05333,0.09333 1.50667,0.293331 l 0.36,-0.839997 c -0.54667,-0.226667 -1.14667,-0.373334 -1.90667,-0.373334 z"/>
  <path d="m 123.37199,98.513209 c -0.48,0 -0.8,0.333334 -0.8,0.786667 0,0.453333 0.32,0.786664 0.8,0.786664 0.49333,0 0.82666,-0.333331 0.82666,-0.786664 0,-0.453333 -0.33333,-0.786667 -0.82666,-0.786667 z m 0.89333,3.280001 h -3.21333 v 0.89333 h 2.09333 v 5.24 h -2.16 v 0.89334 h 5.25333 v -0.89334 h -1.97333 z"/>
  <path d="m 131.89207,108.00654 c -1.21333,0 -2.09333,-0.78666 -2.09333,-2.66666 0,-1.85334 0.86666,-2.74667 2.08,-2.74667 0.62666,0 1.21333,0.21333 1.81333,0.61333 l 0.54667,-0.73333 c -0.65334,-0.54667 -1.44,-0.82667 -2.34667,-0.82667 -2.09333,0 -3.30667,1.58667 -3.30667,3.69334 0,2.2 1.2,3.62666 3.30667,3.62666 0.81333,0 1.76,-0.32 2.36,-0.84 l -0.53333,-0.73333 c -0.53334,0.36 -1.12,0.61333 -1.82667,0.61333 z"/>
  <path d="m 142.29215,108.45988 -0.44,-0.76 c -0.37334,0.2 -0.82667,0.33333 -1.34667,0.33333 -0.96,0 -1.34667,-0.41333 -1.34667,-1.18667 v -4.17333 h 2.29334 l 0.14666,-0.88 h -2.44 v -1.72 l -1.12,0.13333 v 1.58667 h -1.61333 v 0.88 h 1.61333 v 4.18667 c 0,1.22666 0.85334,2.10666 2.36,2.10666 0.66667,0 1.4,-0.18666 1.89334,-0.50666 z"/>
  <path d="m 147.37223,98.513209 c -0.48,0 -0.8,0.333334 -0.8,0.786667 0,0.453333 0.32,0.786664 0.8,0.786664 0.49333,0 0.82667,-0.333331 0.82667,-0.786664 0,-0.453333 -0.33334,-0.786667 -0.82667,-0.786667 z m 0.89333,3.280001 h -3.21333 v 0.89333 h 2.09333 v 5.24 h -2.16 v 0.89334 h 5.25334 v -0.89334 h -1.97334 z"/>
  <path d="m 155.89231,108.00654 c -1.21333,0 -2.09333,-0.78666 -2.09333,-2.66666 0,-1.85334 0.86667,-2.74667 2.08,-2.74667 0.62667,0 1.21333,0.21333 1.81333,0.61333 l 0.54667,-0.73333 c -0.65333,-0.54667 -1.44,-0.82667 -2.34667,-0.82667 -2.09333,0 -3.30666,1.58667 -3.30666,3.69334 0,2.2 1.2,3.62666 3.30666,3.62666 0.81334,0 1.76,-0.32 2.36,-0.84 l -0.53333,-0.73333 c -0.53333,0.36 -1.12,0.61333 -1.82667,0.61333 z"/>
  <path d="m 163.37239,98.513209 c -0.48,0 -0.8,0.333334 -0.8,0.786667 0,0.453333 0.32,0.786664 0.8,0.786664 0.49333,0 0.82667,-0.333331 0.82667,-0.786664 0,-0.453333 -0.33334,-0.786667 -0.82667,-0.786667 z m 0.89333,3.280001 h -3.21333 v 0.89333 h 2.09333 v 5.24 h -2.16 v 0.89334 h 5.25334 v -0.89334 h -1.97334 z"/>
  <path d="m 171.3858,101.64654 c -1.97333,0 -3.04,1.50667 -3.04,3.66667 0,2.21333 1.05333,3.65333 3.02667,3.65333 1.96,0 3.02666,-1.50666 3.02666,-3.66666 0,-2.21334 -1.04,-3.65334 -3.01333,-3.65334 z m 0,0.92 c 1.2,0 1.8,0.88 1.8,2.73334 0,1.88 -0.6,2.74666 -1.81333,2.74666 -1.21334,0 -1.81334,-0.86666 -1.81334,-2.73333 0,-1.86667 0.61334,-2.74667 1.82667,-2.74667 z"/>
  <path d="m 207.60109,106.27321 c 0,-1.74667 -1.25334,-2.34667 -2.69334,-2.76 -1.74666,-0.50667 -2.30666,-0.90667 -2.30666,-1.69333 0,-0.92 0.82666,-1.36 1.84,-1.36 0.77333,0 1.54666,0.25333 2.2,0.82666 l 0.69333,-0.74666 c -0.77333,-0.666671 -1.68,-1.053337 -2.93333,-1.053337 -1.76,0 -2.97334,0.986667 -2.97334,2.373337 0,1.45333 1.13334,2.12 2.96,2.65333 1.57334,0.45333 2,0.89333 2,1.78667 0,1.16 -1.01333,1.70666 -2.13333,1.70666 -1.12,0 -1.90667,-0.38666 -2.54667,-0.98666 l -0.69333,0.78666 c 0.77333,0.74667 1.88,1.16 3.22667,1.16 2.13333,0 3.36,-1.10666 3.36,-2.69333 z"/>
  <path d="m 215.36116,108.45988 -0.44,-0.76 c -0.37333,0.2 -0.82666,0.33333 -1.34666,0.33333 -0.96,0 -1.34667,-0.41333 -1.34667,-1.18667 v -4.17333 h 2.29333 l 0.14667,-0.88 h -2.44 v -1.72 l -1.12,0.13333 v 1.58667 h -1.61333 v 0.88 h 1.61333 v 4.18667 c 0,1.22666 0.85333,2.10666 2.36,2.10666 0.66667,0 1.4,-0.18666 1.89333,-0.50666 z"/>
  <path d="m 222.81457,107.28654 v -3.37333 c 0,-1.38667 -0.88,-2.26667 -2.62667,-2.26667 -0.69333,0 -1.43999,0.13334 -2.30666,0.44 l 0.30667,0.85334 c 0.72,-0.25334 1.35999,-0.36 1.82666,-0.36 1.04,0 1.66667,0.37333 1.66667,1.4 v 0.57333 h -1.04 c -2.12,0 -3.28,0.81333 -3.28,2.25333 0,1.30667 0.85333,2.16 2.26666,2.16 0.90667,0 1.69334,-0.33333 2.2,-0.98666 0.18667,0.64 0.68,0.92 1.28,1 l 0.28,-0.8 c -0.4,-0.12 -0.57333,-0.33334 -0.57333,-0.89334 z m -2.90667,0.84 c -0.91999,0 -1.34666,-0.45333 -1.34666,-1.33333 0,-0.90667 0.56,-1.46667 2.10666,-1.46667 h 1.01334 v 1.8 c -0.41334,0.62667 -1.08,1 -1.77334,1 z"/>
  <path d="m 230.52133,101.64654 c -1.26667,0 -1.98667,0.66667 -2.52,1.81334 l -0.21333,-1.66667 h -1.94667 v 0.86667 h 1.10667 v 5.29333 h -1.10667 v 0.86667 h 3.65333 v -0.86667 H 228.068 v -2.96 c 0.45333,-1.54667 1.22666,-2.32 2.30666,-2.32 h 0.0667 v 1.50667 h 0.90667 l 0.16,-2.38667 c -0.30667,-0.08 -0.6,-0.14667 -0.98667,-0.14667 z"/>
  <path d="m 30.236068,116.29987 h -1.066667 l -1.093333,7.92 -1.053334,-6.85333 h -1.413333 l -1.106667,6.85333 -0.973333,-7.92 h -1.16 l 1.28,9.18667 h 1.56 l 1.066667,-6.93333 1.053333,6.93333 h 1.52 z"/>
  <path d="m 36.676149,123.95321 v -3.37334 c 0,-1.38666 -0.88,-2.26666 -2.626667,-2.26666 -0.693333,0 -1.44,0.13333 -2.306667,0.44 l 0.306667,0.85333 c 0.72,-0.25333 1.36,-0.36 1.826667,-0.36 1.04,0 1.666666,0.37333 1.666666,1.4 v 0.57333 h -1.04 c -2.12,0 -3.28,0.81334 -3.28,2.25334 0,1.30666 0.853334,2.16 2.266667,2.16 0.906667,0 1.693333,-0.33334 2.2,-0.98667 0.186667,0.64 0.68,0.92 1.28,1 l 0.28,-0.8 c -0.4,-0.12 -0.573333,-0.33333 -0.573333,-0.89333 z m -2.906667,0.84 c -0.92,0 -1.346667,-0.45334 -1.346667,-1.33334 0,-0.90666 0.56,-1.46666 2.106667,-1.46666 h 1.013333 v 1.8 c -0.413333,0.62666 -1.08,1 -1.773333,1 z"/>
  <path d="m 44.382896,118.31321 c -1.266666,0 -1.986666,0.66666 -2.52,1.81333 l -0.213333,-1.66667 h -1.946667 v 0.86667 h 1.106667 v 5.29333 h -1.106667 v 0.86667 h 3.653334 v -0.86667 h -1.426667 v -2.96 c 0.453333,-1.54666 1.226667,-2.32 2.306667,-2.32 h 0.06667 v 1.50667 h 0.906667 l 0.16,-2.38667 c -0.306667,-0.08 -0.6,-0.14666 -0.986667,-0.14666 z"/>
  <path d="m 50.036312,124.71321 c -0.826667,0 -1.573334,-0.30667 -2.12,-0.76 l -0.626667,0.73333 c 0.6,0.52 1.466667,0.94667 2.746667,0.94667 1.493333,0 2.946666,-0.58667 2.946666,-2.09334 0,-1.30666 -0.906666,-1.78666 -2.28,-2.16 -1.413333,-0.38666 -1.853333,-0.6 -1.853333,-1.24 0,-0.53333 0.4,-0.92 1.52,-0.92 0.906667,0 1.506667,0.28 2.026667,0.64 l 0.506666,-0.77333 c -0.6,-0.42667 -1.426666,-0.77333 -2.56,-0.77333 -1.586666,0 -2.666666,0.74666 -2.666666,1.92 0,1.22666 0.946666,1.66666 2.4,2.02666 1.493333,0.37334 1.693333,0.70667 1.693333,1.33334 0,0.68 -0.653333,1.12 -1.733333,1.12 z"/>
  <path d="m 70.21146,120.81987 c 0,-2.8 0.92,-4.21333 2.84,-5.92 l -0.573333,-0.61333 c -2.173334,1.77333 -3.44,3.49333 -3.44,6.53333 0,3.04 1.266666,4.76 3.44,6.53334 l 0.573333,-0.61334 c -1.893333,-1.69333 -2.84,-3.13333 -2.84,-5.92 z"/>
  <path d="m 77.758207,119.09987 h 0.986666 l 0.213334,-3.46666 h -1.4 z m 2.24,0 h 0.986666 l 0.2,-3.46666 h -1.4 z"/>
  <path d="m 90.571624,122.87321 c 0,-1.56 -1.093333,-2.08 -2.12,-2.25334 0.88,-0.2 1.72,-0.81333 1.72,-2 0,-1.8 -1.64,-2.32 -3.253333,-2.32 h -2.266667 v 9.18667 h 2.48 c 1.68,0 3.44,-0.61333 3.44,-2.61333 z m -1.586667,-4.18667 c 0,1.06667 -0.613333,1.52 -1.693333,1.52 h -1.48 v -2.96 h 1.373333 c 1.106667,0 1.8,0.38667 1.8,1.44 z m 0.36,4.22667 c 0,1.36 -1.12,1.61333 -2.013333,1.61333 h -1.52 v -3.36 h 1.56 c 1.08,0 1.973333,0.34667 1.973333,1.74667 z"/>
  <path d="m 93.598371,122.36654 h 4.72 c 0.01333,-0.14667 0.02667,-0.36 0.02667,-0.6 0,-2.13333 -1.093333,-3.45333 -2.866666,-3.45333 -1.866667,0 -3.053334,1.54666 -3.053334,3.66666 0,2.18667 1.16,3.65334 3.213334,3.65334 0.866666,0 1.746666,-0.30667 2.4,-0.81334 l -0.52,-0.74666 c -0.626667,0.41333 -1.16,0.62666 -1.88,0.62666 -1.08,0 -1.986667,-0.70666 -2.04,-2.33333 z m 1.893333,-3.13333 c 1.066667,0 1.733333,0.77333 1.76,2.28 h -3.653333 c 0.09333,-1.54667 0.853333,-2.28 1.893333,-2.28 z"/>
  <path d="m 103.45179,115.63321 h -3.28 v 0.89333 h 2.16 v 7.17333 c 0,1.21334 0.84,1.93334 2.08,1.93334 0.72,0 1.29333,-0.16 1.66666,-0.36 l -0.29333,-0.81334 c -0.38667,0.14667 -0.76,0.24 -1.17333,0.24 -0.68,0 -1.16,-0.25333 -1.16,-0.94666 z"/>
  <path d="m 111.45186,115.63321 h -3.28 v 0.89333 h 2.16 v 7.17333 c 0,1.21334 0.84,1.93334 2.08,1.93334 0.72,0 1.29334,-0.16 1.66667,-0.36 l -0.29333,-0.81334 c -0.38667,0.14667 -0.76,0.24 -1.17334,0.24 -0.68,0 -1.16,-0.25333 -1.16,-0.94666 z"/>
  <path d="m 121.74528,123.95321 v -3.37334 c 0,-1.38666 -0.88,-2.26666 -2.62667,-2.26666 -0.69333,0 -1.44,0.13333 -2.30666,0.44 l 0.30666,0.85333 c 0.72,-0.25333 1.36,-0.36 1.82667,-0.36 1.04,0 1.66667,0.37333 1.66667,1.4 v 0.57333 h -1.04 c -2.12,0 -3.28,0.81334 -3.28,2.25334 0,1.30666 0.85333,2.16 2.26666,2.16 0.90667,0 1.69334,-0.33334 2.2,-0.98667 0.18667,0.64 0.68,0.92 1.28,1 l 0.28,-0.8 c -0.4,-0.12 -0.57333,-0.33333 -0.57333,-0.89333 z m -2.90667,0.84 c -0.92,0 -1.34666,-0.45334 -1.34666,-1.33334 0,-0.90666 0.56,-1.46666 2.10666,-1.46666 h 1.01334 v 1.8 c -0.41334,0.62666 -1.08,1 -1.77334,1 z"/>
  <path d="m 143.60043,122.93987 c 0,-1.74666 -1.25333,-2.34666 -2.69333,-2.76 -1.74667,-0.50666 -2.30667,-0.90666 -2.30667,-1.69333 0,-0.92 0.82667,-1.36 1.84,-1.36 0.77333,0 1.54667,0.25333 2.2,0.82667 l 0.69333,-0.74667 c -0.77333,-0.66667 -1.68,-1.05333 -2.93333,-1.05333 -1.76,0 -2.97333,0.98666 -2.97333,2.37333 0,1.45333 1.13333,2.12 2.96,2.65333 1.57333,0.45334 2,0.89334 2,1.78667 0,1.16 -1.01334,1.70667 -2.13334,1.70667 -1.12,0 -1.90666,-0.38667 -2.54666,-0.98667 l -0.69334,0.78667 c 0.77334,0.74666 1.88,1.16 3.22667,1.16 2.13333,0 3.36,-1.10667 3.36,-2.69334 z"/>
  <path d="m 151.36051,125.12654 -0.44,-0.76 c -0.37333,0.2 -0.82666,0.33333 -1.34666,0.33333 -0.96,0 -1.34667,-0.41333 -1.34667,-1.18666 v -4.17334 h 2.29333 l 0.14667,-0.88 h -2.44 v -1.72 l -1.12,0.13334 v 1.58666 h -1.61333 v 0.88 h 1.61333 v 4.18667 c 0,1.22667 0.85333,2.10667 2.36,2.10667 0.66667,0 1.4,-0.18667 1.89333,-0.50667 z"/>
  <path d="m 154.66726,122.36654 h 4.72 c 0.0133,-0.14667 0.0267,-0.36 0.0267,-0.6 0,-2.13333 -1.09333,-3.45333 -2.86667,-3.45333 -1.86666,0 -3.05333,1.54666 -3.05333,3.66666 0,2.18667 1.16,3.65334 3.21333,3.65334 0.86667,0 1.74667,-0.30667 2.4,-0.81334 l -0.52,-0.74666 c -0.62666,0.41333 -1.16,0.62666 -1.88,0.62666 -1.08,0 -1.98666,-0.70666 -2.04,-2.33333 z m 1.89334,-3.13333 c 1.06666,0 1.73333,0.77333 1.76,2.28 h -3.65334 c 0.0933,-1.54667 0.85334,-2.28 1.89334,-2.28 z"/>
  <path d="m 164.52067,115.63321 h -3.28 v 0.89333 h 2.16 v 7.17333 c 0,1.21334 0.84,1.93334 2.08,1.93334 0.72,0 1.29334,-0.16 1.66667,-0.36 l -0.29333,-0.81334 c -0.38667,0.14667 -0.76,0.24 -1.17334,0.24 -0.68,0 -1.16,-0.25333 -1.16,-0.94666 z"/>
  <path d="m 172.52075,115.63321 h -3.28 v 0.89333 h 2.16 v 7.17333 c 0,1.21334 0.84,1.93334 2.08,1.93334 0.72,0 1.29333,-0.16 1.66667,-0.36 l -0.29334,-0.81334 c -0.38666,0.14667 -0.76,0.24 -1.17333,0.24 -0.68,0 -1.16,-0.25333 -1.16,-0.94666 z"/>
  <path d="m 182.81417,123.95321 v -3.37334 c 0,-1.38666 -0.88,-2.26666 -2.62666,-2.26666 -0.69334,0 -1.44,0.13333 -2.30667,0.44 l 0.30667,0.85333 c 0.72,-0.25333 1.36,-0.36 1.82666,-0.36 1.04,0 1.66667,0.37333 1.66667,1.4 v 0.57333 h -1.04 c -2.12,0 -3.28,0.81334 -3.28,2.25334 0,1.30666 0.85333,2.16 2.26667,2.16 0.90666,0 1.69333,-0.33334 2.2,-0.98667 0.18666,0.64 0.68,0.92 1.28,1 l 0.28,-0.8 c -0.4,-0.12 -0.57334,-0.33333 -0.57334,-0.89333 z m -2.90666,0.84 c -0.92,0 -1.34667,-0.45334 -1.34667,-1.33334 0,-0.90666 0.56,-1.46666 2.10667,-1.46666 h 1.01333 v 1.8 c -0.41333,0.62666 -1.08,1 -1.77333,1 z"/>
  <path d="m 190.52092,118.31321 c -1.26667,0 -1.98667,0.66666 -2.52,1.81333 l -0.21334,-1.66667 h -1.94666 v 0.86667 h 1.10666 v 5.29333 h -1.10666 v 0.86667 h 3.65333 v -0.86667 h -1.42667 v -2.96 c 0.45334,-1.54666 1.22667,-2.32 2.30667,-2.32 h 0.0667 v 1.50667 h 0.90666 l 0.16,-2.38667 c -0.30666,-0.08 -0.6,-0.14666 -0.98666,-0.14666 z"/>
  <path d="m 196.44099,115.17987 c -0.48,0 -0.8,0.33334 -0.8,0.78667 0,0.45333 0.32,0.78667 0.8,0.78667 0.49334,0 0.82667,-0.33334 0.82667,-0.78667 0,-0.45333 -0.33333,-0.78667 -0.82667,-0.78667 z m 0.89334,3.28 h -3.21334 v 0.89334 h 2.09334 v 5.24 h -2.16 v 0.89333 h 5.25333 v -0.89333 h -1.97333 z"/>
  <path d="m 206.81442,123.95321 v -3.37334 c 0,-1.38666 -0.88,-2.26666 -2.62667,-2.26666 -0.69333,0 -1.44,0.13333 -2.30666,0.44 l 0.30666,0.85333 c 0.72,-0.25333 1.36,-0.36 1.82667,-0.36 1.04,0 1.66667,0.37333 1.66667,1.4 v 0.57333 h -1.04 c -2.12,0 -3.28,0.81334 -3.28,2.25334 0,1.30666 0.85333,2.16 2.26666,2.16 0.90667,0 1.69334,-0.33334 2.2,-0.98667 0.18667,0.64 0.68,0.92 1.28,1 l 0.28,-0.8 c -0.4,-0.12 -0.57333,-0.33333 -0.57333,-0.89333 z m -2.90667,0.84 c -0.92,0 -1.34666,-0.45334 -1.34666,-1.33334 0,-0.90666 0.56,-1.46666 2.10666,-1.46666 h 1.01334 v 1.8 c -0.41334,0.62666 -1.08,1 -1.77334,1 z"/>
  <path d="m 210.82783,119.09987 h 0.98667 l 0.21333,-3.46666 h -1.4 z m 2.24,0 h 0.98667 l 0.2,-3.46666 h -1.4 z"/>
  <path d="m 221.60124,120.81987 c 0,2.78667 -0.94667,4.22667 -2.84,5.92 l 0.57333,0.61334 c 2.17333,-1.77334 3.44,-3.49334 3.44,-6.53334 0,-3.04 -1.26667,-4.76 -3.44,-6.53333 l -0.57333,0.61333 c 1.92,1.70667 2.84,3.12 2.84,5.92 z"/>
  <path d="m 228.44131,123.28654 c -0.6,0 -1.06666,0.48 -1.06666,1.08 0,0.34667 0.17333,0.69333 0.42666,0.88 l -0.62666,2.62667 h 1.01333 l 1.08,-2.46667 c 0.18667,-0.41333 0.25333,-0.72 0.25333,-1.05333 0,-0.58667 -0.46666,-1.06667 -1.08,-1.06667 z"/>
  <path d="m 26.302734,131.84655 c -0.48,0 -0.8,0.33333 -0.8,0.78666 0,0.45334 0.32,0.78667 0.8,0.78667 0.493334,0 0.826667,-0.33333 0.826667,-0.78667 0,-0.45333 -0.333333,-0.78666 -0.826667,-0.78666 z m 0.893334,3.28 h -3.213334 v 0.89333 h 2.093334 v 5.24 h -2.16 v 0.89333 h 5.253333 v -0.89333 h -1.973333 z"/>
  <path d="m 31.636149,142.15321 h 1.12 v -5.10667 c 0.373333,-0.56 1.08,-1.17333 1.906666,-1.17333 1.053334,0 1.2,0.57333 1.2,2.01333 v 4.26667 h 1.12 v -5.09333 c 0,-1.30667 -0.6,-2.08 -1.973333,-2.08 -0.826667,0 -1.76,0.41333 -2.32,1.13333 l -0.09333,-0.98666 h -0.96 z"/>
  <path d="m 50.748499,141.37988 c -0.826667,0 -1.573334,-0.30667 -2.12,-0.76 l -0.626667,0.73333 c 0.6,0.52 1.466667,0.94667 2.746667,0.94667 1.493333,0 2.946666,-0.58667 2.946666,-2.09334 0,-1.30666 -0.906666,-1.78666 -2.28,-2.16 -1.413333,-0.38666 -1.853333,-0.6 -1.853333,-1.24 0,-0.53333 0.4,-0.91999 1.52,-0.91999 0.906667,0 1.506667,0.27999 2.026667,0.63999 l 0.506666,-0.77333 c -0.6,-0.42666 -1.426666,-0.77333 -2.56,-0.77333 -1.586666,0 -2.666666,0.74667 -2.666666,1.92 0,1.22666 0.946666,1.66666 2.4,2.02666 1.493333,0.37334 1.693333,0.70667 1.693333,1.33334 0,0.68 -0.653333,1.12 -1.733333,1.12 z"/>
  <path d="m 62.188581,135.12655 h -1.16 l -1.986667,6.17333 -2.013333,-6.17333 h -1.186667 l 2.44,7.02666 h 0.373333 c -0.36,1.08 -0.786666,1.68 -2.226666,1.93333 l 0.16,0.89334 c 1.866666,-0.2 2.653333,-1.34667 3.146666,-2.78667 z"/>
  <path d="m 66.748661,141.37988 c -0.826667,0 -1.573334,-0.30667 -2.12,-0.76 l -0.626667,0.73333 c 0.6,0.52 1.466667,0.94667 2.746667,0.94667 1.493333,0 2.946666,-0.58667 2.946666,-2.09334 0,-1.30666 -0.906666,-1.78666 -2.28,-2.16 -1.413333,-0.38666 -1.853333,-0.6 -1.853333,-1.24 0,-0.53333 0.4,-0.91999 1.52,-0.91999 0.906667,0 1.506667,0.27999 2.026667,0.63999 l 0.506666,-0.77333 c -0.6,-0.42666 -1.426666,-0.77333 -2.56,-0.77333 -1.586666,0 -2.666666,0.74667 -2.666666,1.92 0,1.22666 0.946666,1.66666 2.4,2.02666 1.493333,0.37334 1.693333,0.70667 1.693333,1.33334 0,0.68 -0.653333,1.12 -1.733333,1.12 z"/>
  <path d="m 77.935407,141.79321 -0.44,-0.76 c -0.373333,0.2 -0.826666,0.33333 -1.346666,0.33333 -0.96,0 -1.346667,-0.41333 -1.346667,-1.18666 v -4.17334 h 2.293333 l 0.146667,-0.87999 h -2.44 v -1.72 l -1.12,0.13333 v 1.58667 h -1.613333 v 0.87999 h 1.613333 v 4.18667 c 0,1.22667 0.853333,2.10667 2.36,2.10667 0.666667,0 1.4,-0.18667 1.893333,-0.50667 z"/>
  <path d="m 81.242154,139.03321 h 4.72 c 0.01333,-0.14667 0.02667,-0.36 0.02667,-0.6 0,-2.13333 -1.093333,-3.45333 -2.866667,-3.45333 -1.866666,0 -3.053333,1.54666 -3.053333,3.66666 0,2.18667 1.16,3.65334 3.213333,3.65334 0.866667,0 1.746667,-0.30667 2.4,-0.81334 l -0.52,-0.74666 c -0.626666,0.41333 -1.16,0.62666 -1.88,0.62666 -1.08,0 -1.986666,-0.70666 -2.04,-2.33333 z m 1.893334,-3.13333 c 1.066666,0 1.733333,0.77333 1.76,2.28 h -3.653334 c 0.09333,-1.54667 0.853334,-2.28 1.893334,-2.28 z"/>
  <path d="m 92.975571,134.97988 c -0.706666,0 -1.16,0.37333 -1.546666,0.93333 -0.213334,-0.72 -0.733333,-0.93333 -1.266667,-0.93333 -0.706666,0 -1.146666,0.42667 -1.52,0.97333 l -0.08,-0.82666 h -0.866666 v 7.02666 h 1.026666 v -5.45333 c 0.386667,-0.6 0.786667,-0.84 1.226667,-0.84 0.506667,0 0.546667,0.36 0.546667,1.25333 v 5.04 h 1.039999 v -5.45333 c 0.386667,-0.6 0.8,-0.84 1.226667,-0.84 0.506667,0 0.546667,0.36 0.546667,1.25333 v 5.04 h 1.026666 v -5.22667 c 0,-1.61333 -0.68,-1.94666 -1.36,-1.94666 z"/>
  <path d="m 101.38898,140.61988 v -3.37334 c 0,-1.38666 -0.88,-2.26666 -2.626666,-2.26666 -0.693333,0 -1.44,0.13333 -2.306666,0.44 l 0.306667,0.85333 c 0.719999,-0.25333 1.359999,-0.36 1.826666,-0.36 1.04,0 1.666669,0.37333 1.666669,1.4 v 0.57333 h -1.040002 c -2.12,0 -3.28,0.81334 -3.28,2.25334 0,1.30666 0.853333,2.16 2.266666,2.16 0.906667,0 1.693334,-0.33334 2.199996,-0.98667 0.18667,0.64 0.68,0.92 1.28,1 l 0.28,-0.8 c -0.4,-0.12 -0.57333,-0.33333 -0.57333,-0.89333 z m -2.906666,0.84 c -0.92,0 -1.346666,-0.45334 -1.346666,-1.33334 0,-0.90666 0.56,-1.46666 2.106666,-1.46666 h 1.013336 v 1.8 c -0.413336,0.62666 -1.080002,1 -1.773336,1 z"/>
  <path d="m 109.93573,141.79321 -0.44,-0.76 c -0.37333,0.2 -0.82666,0.33333 -1.34666,0.33333 -0.96,0 -1.34667,-0.41333 -1.34667,-1.18666 v -4.17334 h 2.29333 l 0.14667,-0.87999 h -2.44 v -1.72 l -1.12,0.13333 v 1.58667 h -1.61333 v 0.87999 h 1.61333 v 4.18667 c 0,1.22667 0.85333,2.10667 2.36,2.10667 0.66667,0 1.4,-0.18667 1.89333,-0.50667 z"/>
  <path d="m 113.24248,139.03321 h 4.72 c 0.0133,-0.14667 0.0267,-0.36 0.0267,-0.6 0,-2.13333 -1.09333,-3.45333 -2.86667,-3.45333 -1.86666,0 -3.05333,1.54666 -3.05333,3.66666 0,2.18667 1.16,3.65334 3.21333,3.65334 0.86667,0 1.74667,-0.30667 2.4,-0.81334 l -0.52,-0.74666 c -0.62666,0.41333 -1.16,0.62666 -1.88,0.62666 -1.08,0 -1.98666,-0.70666 -2.04,-2.33333 z m 1.89334,-3.13333 c 1.06666,0 1.73333,0.77333 1.76,2.28 h -3.65334 c 0.0933,-1.54667 0.85334,-2.28 1.89334,-2.28 z"/>
  <path d="m 131.4615,141.37988 c -0.82667,0 -1.57334,-0.30667 -2.12,-0.76 l -0.62667,0.73333 c 0.6,0.52 1.46667,0.94667 2.74667,0.94667 1.49333,0 2.94666,-0.58667 2.94666,-2.09334 0,-1.30666 -0.90666,-1.78666 -2.28,-2.16 -1.41333,-0.38666 -1.85333,-0.6 -1.85333,-1.24 0,-0.53333 0.4,-0.91999 1.52,-0.91999 0.90667,0 1.50667,0.27999 2.02667,0.63999 l 0.50666,-0.77333 c -0.6,-0.42666 -1.42666,-0.77333 -2.56,-0.77333 -1.58666,0 -2.66666,0.74667 -2.66666,1.92 0,1.22666 0.94666,1.66666 2.4,2.02666 1.49333,0.37334 1.69333,0.70667 1.69333,1.33334 0,0.68 -0.65333,1.12 -1.73333,1.12 z"/>
  <path d="m 139.74157,134.97988 c -1.97333,0 -3.04,1.50666 -3.04,3.66666 0,2.21334 1.05334,3.65334 3.02667,3.65334 1.96,0 3.02667,-1.50667 3.02667,-3.66667 0,-2.21333 -1.04,-3.65333 -3.01334,-3.65333 z m 0,0.92 c 1.2,0 1.8,0.88 1.8,2.73333 0,1.88 -0.6,2.74667 -1.81333,2.74667 -1.21333,0 -1.81333,-0.86667 -1.81333,-2.73334 0,-1.86666 0.61333,-2.74666 1.82666,-2.74666 z"/>
  <path d="m 147.80832,132.29988 h -3.28 v 0.89333 h 2.16 v 7.17333 c 0,1.21334 0.84,1.93334 2.08,1.93334 0.72,0 1.29334,-0.16 1.66667,-0.36 l -0.29333,-0.81334 c -0.38667,0.14667 -0.76,0.24 -1.17334,0.24 -0.68,0 -1.16,-0.25333 -1.16,-0.94666 z"/>
  <path d="m 158.10174,140.61988 v -3.37334 c 0,-1.38666 -0.88,-2.26666 -2.62666,-2.26666 -0.69334,0 -1.44,0.13333 -2.30667,0.44 l 0.30667,0.85333 c 0.72,-0.25333 1.36,-0.36 1.82666,-0.36 1.04,0 1.66667,0.37333 1.66667,1.4 v 0.57333 h -1.04 c -2.12,0 -3.28,0.81334 -3.28,2.25334 0,1.30666 0.85333,2.16 2.26667,2.16 0.90666,0 1.69333,-0.33334 2.2,-0.98667 0.18666,0.64 0.68,0.92 1.28,1 l 0.28,-0.8 c -0.4,-0.12 -0.57334,-0.33333 -0.57334,-0.89333 z m -2.90666,0.84 c -0.92,0 -1.34667,-0.45334 -1.34667,-1.33334 0,-0.90666 0.56,-1.46666 2.10667,-1.46666 h 1.01333 v 1.8 c -0.41333,0.62666 -1.08,1 -1.77333,1 z"/>
  <path d="m 165.80848,134.97988 c -1.26666,0 -1.98666,0.66667 -2.51999,1.81333 l -0.21334,-1.66666 h -1.94666 v 0.86666 h 1.10666 v 5.29333 h -1.10666 v 0.86667 h 3.65333 v -0.86667 h -1.42667 v -2.96 c 0.45334,-1.54666 1.22667,-2.32 2.30667,-2.32 h 0.0667 v 1.50667 h 0.90667 l 0.16,-2.38666 c -0.30667,-0.08 -0.6,-0.14667 -0.98667,-0.14667 z"/>
  <path d="m 169.95523,139.03321 h 4.72 c 0.0133,-0.14667 0.0267,-0.36 0.0267,-0.6 0,-2.13333 -1.09333,-3.45333 -2.86666,-3.45333 -1.86667,0 -3.05334,1.54666 -3.05334,3.66666 0,2.18667 1.16,3.65334 3.21334,3.65334 0.86666,0 1.74666,-0.30667 2.4,-0.81334 l -0.52,-0.74666 c -0.62667,0.41333 -1.16,0.62666 -1.88,0.62666 -1.08,0 -1.98667,-0.70666 -2.04,-2.33333 z m 1.89333,-3.13333 c 1.06667,0 1.73333,0.77333 1.76,2.28 h -3.65333 c 0.0933,-1.54667 0.85333,-2.28 1.89333,-2.28 z"/>
  <path d="m 191.60092,139.60654 c 0,-1.74666 -1.25334,-2.34666 -2.69334,-2.76 -1.74666,-0.50666 -2.30666,-0.90666 -2.30666,-1.69333 0,-0.92 0.82666,-1.36 1.84,-1.36 0.77333,0 1.54666,0.25334 2.2,0.82667 l 0.69333,-0.74667 c -0.77333,-0.66666 -1.68,-1.05333 -2.93333,-1.05333 -1.76,0 -2.97334,0.98667 -2.97334,2.37333 0,1.45333 1.13334,2.12 2.96,2.65333 1.57334,0.45334 2,0.89334 2,1.78667 0,1.16 -1.01333,1.70667 -2.13333,1.70667 -1.12,0 -1.90667,-0.38667 -2.54667,-0.98667 l -0.69333,0.78667 c 0.77333,0.74666 1.88,1.16 3.22667,1.16 2.13333,0 3.36,-1.10667 3.36,-2.69334 z"/>
  <path d="m 199.61433,135.12655 h -1.16 l -1.98667,6.17333 -2.01333,-6.17333 h -1.18667 l 2.44,7.02666 h 0.37333 c -0.36,1.08 -0.78666,1.68 -2.22666,1.93333 l 0.16,0.89334 c 1.86666,-0.2 2.65333,-1.34667 3.14666,-2.78667 z"/>
  <path d="m 204.17442,141.37988 c -0.82667,0 -1.57333,-0.30667 -2.12,-0.76 l -0.62667,0.73333 c 0.6,0.52 1.46667,0.94667 2.74667,0.94667 1.49333,0 2.94667,-0.58667 2.94667,-2.09334 0,-1.30666 -0.90667,-1.78666 -2.28,-2.16 -1.41334,-0.38666 -1.85334,-0.6 -1.85334,-1.24 0,-0.53333 0.4,-0.91999 1.52,-0.91999 0.90667,0 1.50667,0.27999 2.02667,0.63999 l 0.50667,-0.77333 c -0.6,-0.42666 -1.42667,-0.77333 -2.56,-0.77333 -1.58667,0 -2.66667,0.74667 -2.66667,1.92 0,1.22666 0.94667,1.66666 2.4,2.02666 1.49333,0.37334 1.69333,0.70667 1.69333,1.33334 0,0.68 -0.65333,1.12 -1.73333,1.12 z"/>
  <path d="m 215.36116,141.79321 -0.44,-0.76 c -0.37333,0.2 -0.82666,0.33333 -1.34666,0.33333 -0.96,0 -1.34667,-0.41333 -1.34667,-1.18666 v -4.17334 h 2.29333 l 0.14667,-0.87999 h -2.44 v -1.72 l -1.12,0.13333 v 1.58667 h -1.61333 v 0.87999 h 1.61333 v 4.18667 c 0,1.22667 0.85333,2.10667 2.36,2.10667 0.66667,0 1.4,-0.18667 1.89333,-0.50667 z"/>
  <path d="m 218.66791,139.03321 h 4.71999 c 0.0133,-0.14667 0.0267,-0.36 0.0267,-0.6 0,-2.13333 -1.09333,-3.45333 -2.86667,-3.45333 -1.86666,0 -3.05333,1.54666 -3.05333,3.66666 0,2.18667 1.16,3.65334 3.21333,3.65334 0.86667,0 1.74667,-0.30667 2.4,-0.81334 l -0.52,-0.74666 c -0.62666,0.41333 -1.16,0.62666 -1.88,0.62666 -1.08,0 -1.98666,-0.70666 -2.03999,-2.33333 z m 1.89333,-3.13333 c 1.06666,0 1.73333,0.77333 1.76,2.28 h -3.65333 c 0.0933,-1.54667 0.85333,-2.28 1.89333,-2.28 z"/>
  <path d="m 225.77465,138.99321 h 5.33333 v -0.96 h -5.33333 z"/>
  <path d="m 28.262734,151.64655 c -0.706666,0 -1.16,0.37333 -1.546666,0.93333 -0.213334,-0.72 -0.733334,-0.93333 -1.266667,-0.93333 -0.706667,0 -1.146667,0.42667 -1.52,0.97333 l -0.08,-0.82666 h -0.866667 v 7.02666 h 1.026667 v -5.45333 c 0.386667,-0.6 0.786667,-0.84 1.226667,-0.84 0.506666,0 0.546666,0.36 0.546666,1.25333 v 5.04 h 1.04 v -5.45333 c 0.386667,-0.6 0.8,-0.84 1.226667,-0.84 0.506667,0 0.546667,0.36 0.546667,1.25333 v 5.04 h 1.026666 v -5.22666 c 0,-1.61334 -0.68,-1.94667 -1.36,-1.94667 z"/>
  <path d="m 36.676149,157.28655 v -3.37333 c 0,-1.38667 -0.88,-2.26667 -2.626667,-2.26667 -0.693333,0 -1.44,0.13333 -2.306667,0.44 l 0.306667,0.85333 c 0.72,-0.25333 1.36,-0.36 1.826667,-0.36 1.04,0 1.666666,0.37334 1.666666,1.4 v 0.57334 h -1.04 c -2.12,0 -3.28,0.81333 -3.28,2.25333 0,1.30667 0.853334,2.16 2.266667,2.16 0.906667,0 1.693333,-0.33333 2.2,-0.98667 0.186667,0.64 0.68,0.92 1.28,1 l 0.28,-0.8 c -0.4,-0.12 -0.573333,-0.33333 -0.573333,-0.89333 z m -2.906667,0.84 c -0.92,0 -1.346667,-0.45333 -1.346667,-1.33333 0,-0.90667 0.56,-1.46667 2.106667,-1.46667 h 1.013333 v 1.8 c -0.413333,0.62667 -1.08,1 -1.773333,1 z"/>
  <path d="m 62.455271,149.48655 c -2.12,0 -3.933333,1.64 -3.933333,4.73333 0,3.09334 1.746667,4.74667 3.986667,4.74667 1.306666,0 2.186666,-0.45333 2.746666,-1 l -0.6,-0.74667 c -0.493333,0.38667 -1.106666,0.76 -2.133333,0.76 -1.573333,0 -2.786667,-1.02666 -2.786667,-3.76 0,-2.8 1.306667,-3.76 2.8,-3.76 0.706667,0 1.346667,0.18667 1.933334,0.68 l 0.653333,-0.76 c -0.733333,-0.57333 -1.466667,-0.89333 -2.666667,-0.89333 z"/>
  <path d="m 69.695355,151.64655 c -1.973333,0 -3.04,1.50667 -3.04,3.66667 0,2.21333 1.053334,3.65333 3.026667,3.65333 1.96,0 3.026667,-1.50667 3.026667,-3.66667 0,-2.21333 -1.04,-3.65333 -3.013334,-3.65333 z m 0,0.92 c 1.2,0 1.8,0.88 1.8,2.73333 0,1.88 -0.6,2.74667 -1.813333,2.74667 -1.213333,0 -1.813333,-0.86667 -1.813333,-2.73333 0,-1.86667 0.613333,-2.74667 1.826666,-2.74667 z"/>
  <path d="m 79.762102,151.64655 c -1.266667,0 -1.986667,0.66667 -2.52,1.81333 l -0.213333,-1.66666 h -1.946667 v 0.86666 h 1.106667 v 5.29334 h -1.106667 v 0.86666 h 3.653333 v -0.86666 h -1.426666 v -2.96 c 0.453333,-1.54667 1.226666,-2.32 2.306666,-2.32 h 0.06667 v 1.50666 h 0.906667 l 0.16,-2.38666 c -0.306667,-0.08 -0.6,-0.14667 -0.986667,-0.14667 z"/>
  <path d="m 84.135516,151.79322 h -1.12 v 5.10666 c 0,1.30667 0.666666,2.06667 2.026666,2.06667 0.826667,0 1.693334,-0.38667 2.253334,-1.09333 l 0.09333,0.94666 h 0.96 v -7.02666 h -1.12 v 5.17333 c -0.386667,0.6 -1.133333,1.12 -1.906667,1.12 -0.813333,0 -1.186666,-0.4 -1.186666,-1.30667 z"/>
  <path d="m 93.415599,158.04655 c -0.826666,0 -1.573333,-0.30667 -2.119999,-0.76 l -0.626667,0.73333 c 0.6,0.52 1.466667,0.94667 2.746666,0.94667 1.493334,0 2.946667,-0.58667 2.946667,-2.09333 0,-1.30667 -0.906667,-1.78667 -2.28,-2.16 -1.413333,-0.38667 -1.853333,-0.6 -1.853333,-1.24 0,-0.53334 0.4,-0.92 1.52,-0.92 0.906666,0 1.506666,0.28 2.026666,0.64 l 0.506667,-0.77334 c -0.6,-0.42666 -1.426667,-0.77333 -2.56,-0.77333 -1.586666,0 -2.666666,0.74667 -2.666666,1.92 0,1.22667 0.946666,1.66667 2.399999,2.02667 1.493334,0.37333 1.693334,0.70666 1.693334,1.33333 0,0.68 -0.653334,1.12 -1.733334,1.12 z"/>
  <path d="m 102.20234,158.00655 c -1.21333,0 -2.09333,-0.78667 -2.09333,-2.66667 0,-1.85333 0.86667,-2.74666 2.08,-2.74666 0.62667,0 1.21333,0.21333 1.81333,0.61333 l 0.54667,-0.73333 c -0.65333,-0.54667 -1.44,-0.82667 -2.34667,-0.82667 -2.09333,0 -3.306664,1.58667 -3.306664,3.69333 0,2.2 1.200004,3.62667 3.306664,3.62667 0.81334,0 1.76,-0.32 2.36,-0.84 l -0.53333,-0.73333 c -0.53333,0.36 -1.12,0.61333 -1.82667,0.61333 z"/>
  <path d="m 112.05576,157.28655 v -3.37333 c 0,-1.38667 -0.88,-2.26667 -2.62667,-2.26667 -0.69333,0 -1.44,0.13333 -2.30666,0.44 l 0.30666,0.85333 c 0.72,-0.25333 1.36,-0.36 1.82667,-0.36 1.04,0 1.66667,0.37334 1.66667,1.4 v 0.57334 h -1.04 c -2.12,0 -3.28,0.81333 -3.28,2.25333 0,1.30667 0.85333,2.16 2.26666,2.16 0.90667,0 1.69334,-0.33333 2.2,-0.98667 0.18667,0.64 0.68,0.92 1.28,1 l 0.28,-0.8 c -0.4,-0.12 -0.57333,-0.33333 -0.57333,-0.89333 z m -2.90667,0.84 c -0.92,0 -1.34666,-0.45333 -1.34666,-1.33333 0,-0.90667 0.56,-1.46667 2.10666,-1.46667 h 1.01334 v 1.8 c -0.41334,0.62667 -1.08,1 -1.77334,1 z"/>
  <path d="m 115.01584,158.81988 h 1.12 v -5.10666 c 0.37334,-0.56 1.08,-1.17334 1.90667,-1.17334 1.05333,0 1.2,0.57334 1.2,2.01334 v 4.26666 h 1.12 v -5.09333 c 0,-1.30667 -0.6,-2.08 -1.97333,-2.08 -0.82667,0 -1.76,0.41333 -2.32,1.13333 l -0.0933,-0.98666 h -0.96 z"/>
  <path d="m 128.60259,158.45988 -0.44,-0.76 c -0.37334,0.2 -0.82667,0.33334 -1.34667,0.33334 -0.96,0 -1.34667,-0.41334 -1.34667,-1.18667 v -4.17333 h 2.29334 l 0.14666,-0.88 h -2.44 v -1.72 l -1.12,0.13333 v 1.58667 h -1.61333 v 0.88 h 1.61333 v 4.18666 c 0,1.22667 0.85334,2.10667 2.36,2.10667 0.66667,0 1.4,-0.18667 1.89334,-0.50667 z"/>
  <path d="m 152.79505,158.04655 c -0.82667,0 -1.57334,-0.30667 -2.12,-0.76 l -0.62667,0.73333 c 0.6,0.52 1.46667,0.94667 2.74667,0.94667 1.49333,0 2.94666,-0.58667 2.94666,-2.09333 0,-1.30667 -0.90666,-1.78667 -2.28,-2.16 -1.41333,-0.38667 -1.85333,-0.6 -1.85333,-1.24 0,-0.53334 0.4,-0.92 1.52,-0.92 0.90667,0 1.50667,0.28 2.02667,0.64 l 0.50666,-0.77334 c -0.6,-0.42666 -1.42666,-0.77333 -2.56,-0.77333 -1.58666,0 -2.66666,0.74667 -2.66666,1.92 0,1.22667 0.94666,1.66667 2.4,2.02667 1.49333,0.37333 1.69333,0.70666 1.69333,1.33333 0,0.68 -0.65333,1.12 -1.73333,1.12 z"/>
  <path d="m 161.0618,148.51322 c -0.48,0 -0.8,0.33333 -0.8,0.78666 0,0.45334 0.32,0.78667 0.8,0.78667 0.49333,0 0.82666,-0.33333 0.82666,-0.78667 0,-0.45333 -0.33333,-0.78666 -0.82666,-0.78666 z m 0.89333,3.28 h -3.21333 v 0.89333 h 2.09333 v 5.24 h -2.16 v 0.89333 h 5.25333 v -0.89333 h -1.97333 z"/>
  <path d="m 171.98187,158.45988 -0.44,-0.76 c -0.37333,0.2 -0.82666,0.33334 -1.34666,0.33334 -0.96,0 -1.34667,-0.41334 -1.34667,-1.18667 v -4.17333 h 2.29333 l 0.14667,-0.88 h -2.44 v -1.72 l -1.12,0.13333 v 1.58667 h -1.61333 v 0.88 h 1.61333 v 4.18666 c 0,1.22667 0.85333,2.10667 2.36,2.10667 0.66667,0 1.4,-0.18667 1.89333,-0.50667 z"/>
  <path d="m 175.51528,151.79322 h -1.12 v 5.10666 c 0,1.30667 0.66667,2.06667 2.02667,2.06667 0.82667,0 1.69333,-0.38667 2.25333,-1.09333 l 0.0933,0.94666 h 0.96 v -7.02666 h -1.12 v 5.17333 c -0.38667,0.6 -1.13334,1.12 -1.90667,1.12 -0.81333,0 -1.18667,-0.4 -1.18667,-1.30667 z"/>
  <path d="m 184.79538,158.04655 c -0.82667,0 -1.57334,-0.30667 -2.12,-0.76 l -0.62667,0.73333 c 0.6,0.52 1.46667,0.94667 2.74667,0.94667 1.49333,0 2.94666,-0.58667 2.94666,-2.09333 0,-1.30667 -0.90666,-1.78667 -2.28,-2.16 -1.41333,-0.38667 -1.85333,-0.6 -1.85333,-1.24 0,-0.53334 0.4,-0.92 1.52,-0.92 0.90667,0 1.50667,0.28 2.02667,0.64 l 0.50666,-0.77334 c -0.6,-0.42666 -1.42666,-0.77333 -2.56,-0.77333 -1.58666,0 -2.66666,0.74667 -2.66666,1.92 0,1.22667 0.94666,1.66667 2.4,2.02667 1.49333,0.37333 1.69333,0.70666 1.69333,1.33333 0,0.68 -0.65333,1.12 -1.73333,1.12 z"/>
  <path d="m 193.06212,156.61988 c -0.6,0 -1.06667,0.48 -1.06667,1.08 0,0.34667 0.17334,0.69334 0.42667,0.88 l -0.62667,2.62667 h 1.01334 l 1.08,-2.46667 c 0.18666,-0.41333 0.25333,-0.72 0.25333,-1.05333 0,-0.58667 -0.46667,-1.06667 -1.08,-1.06667 z"/>
  <path d="m 218.89457,151.79322 h -1.12 v 5.10666 c 0,1.30667 0.66667,2.06667 2.02667,2.06667 0.82666,0 1.69333,-0.38667 2.25333,-1.09333 l 0.0933,0.94666 h 0.96 v -7.02666 h -1.12 v 5.17333 c -0.38666,0.6 -1.13333,1.12 -1.90666,1.12 -0.81333,0 -1.18667,-0.4 -1.18667,-1.30667 z"/>
  <path d="m 231.36133,158.45988 -0.44,-0.76 c -0.37333,0.2 -0.82667,0.33334 -1.34667,0.33334 -0.96,0 -1.34666,-0.41334 -1.34666,-1.18667 v -4.17333 h 2.29333 l 0.14667,-0.88 h -2.44 v -1.72 l -1.12,0.13333 v 1.58667 h -1.61334 v 0.88 h 1.61334 v 4.18666 c 0,1.22667 0.85333,2.10667 2.36,2.10667 0.66666,0 1.4,-0.18667 1.89333,-0.50667 z"/>
  <path d="m 26.782734,168.31322 c -0.84,0 -1.586666,0.41334 -2.093333,1.13334 l -0.09333,-0.98667 h -0.96 v 9.85333 l 1.12,-0.13333 v -3.34667 c 0.48,0.53334 1.093333,0.8 1.866666,0.8 1.826667,0 2.706667,-1.53333 2.706667,-3.66666 0,-2.2 -0.68,-3.65334 -2.546667,-3.65334 z m -0.266666,0.90667 c 1.106666,0 1.6,0.92 1.6,2.74667 0,1.86666 -0.586667,2.73333 -1.746667,2.73333 -0.666667,0 -1.24,-0.33333 -1.613333,-0.88 v -3.48 c 0.386666,-0.56 0.986666,-1.12 1.76,-1.12 z"/>
  <path d="m 34.382815,165.63322 h -3.28 v 0.89334 h 2.16 v 7.17333 c 0,1.21333 0.84,1.93333 2.08,1.93333 0.72,0 1.293334,-0.16 1.666667,-0.36 l -0.293333,-0.81333 c -0.386667,0.14667 -0.76,0.24 -1.173334,0.24 -0.68,0 -1.16,-0.25333 -1.16,-0.94667 z"/>
  <path d="m 44.67623,173.95322 v -3.37333 c 0,-1.38667 -0.88,-2.26667 -2.626667,-2.26667 -0.693333,0 -1.44,0.13334 -2.306667,0.44 l 0.306667,0.85334 c 0.72,-0.25334 1.36,-0.36 1.826667,-0.36 1.04,0 1.666666,0.37333 1.666666,1.4 v 0.57333 h -1.04 c -2.12,0 -3.28,0.81333 -3.28,2.25333 0,1.30667 0.853334,2.16 2.266667,2.16 0.906667,0 1.693333,-0.33333 2.2,-0.98666 0.186667,0.64 0.68,0.92 1.28,1 l 0.28,-0.8 c -0.4,-0.12 -0.573333,-0.33334 -0.573333,-0.89334 z m -2.906667,0.84 c -0.92,0 -1.346667,-0.45333 -1.346667,-1.33333 0,-0.90667 0.56,-1.46667 2.106667,-1.46667 h 1.013333 v 1.8 c -0.413333,0.62667 -1.08,1 -1.773333,1 z"/>
  <path d="m 47.636312,175.48656 h 1.12 v -5.10667 c 0.373333,-0.56 1.08,-1.17333 1.906666,-1.17333 1.053334,0 1.2,0.57333 1.2,2.01333 v 4.26667 h 1.12 v -5.09334 c 0,-1.30666 -0.6,-2.08 -1.973333,-2.08 -0.826667,0 -1.76,0.41334 -2.32,1.13334 l -0.09333,-0.98667 h -0.96 z"/>
  <path d="m 56.529725,172.36656 h 4.72 c 0.01333,-0.14667 0.02667,-0.36 0.02667,-0.6 0,-2.13334 -1.093334,-3.45334 -2.866667,-3.45334 -1.866666,0 -3.053333,1.54667 -3.053333,3.66667 0,2.18667 1.16,3.65333 3.213333,3.65333 0.866667,0 1.746667,-0.30666 2.4,-0.81333 l -0.52,-0.74667 c -0.626667,0.41334 -1.16,0.62667 -1.88,0.62667 -1.08,0 -1.986666,-0.70667 -2.04,-2.33333 z m 1.893334,-3.13334 c 1.066666,0 1.733333,0.77334 1.759999,2.28 h -3.653333 c 0.09333,-1.54666 0.853334,-2.28 1.893334,-2.28 z"/>
  <path d="m 69.223139,175.12656 -0.44,-0.76 c -0.373334,0.2 -0.826667,0.33333 -1.346667,0.33333 -0.96,0 -1.346667,-0.41333 -1.346667,-1.18667 v -4.17333 h 2.293334 l 0.146666,-0.88 h -2.44 v -1.72 l -1.12,0.13333 v 1.58667 h -1.613333 v 0.88 h 1.613333 v 4.18667 c 0,1.22666 0.853334,2.10666 2.36,2.10666 0.666667,0 1.4,-0.18666 1.893334,-0.50666 z"/>
  <path d="m 76.676556,173.95322 v -3.37333 c 0,-1.38667 -0.88,-2.26667 -2.626667,-2.26667 -0.693333,0 -1.44,0.13334 -2.306666,0.44 l 0.306666,0.85334 c 0.72,-0.25334 1.36,-0.36 1.826667,-0.36 1.04,0 1.666667,0.37333 1.666667,1.4 v 0.57333 h -1.04 c -2.12,0 -3.28,0.81333 -3.28,2.25333 0,1.30667 0.853333,2.16 2.266666,2.16 0.906667,0 1.693334,-0.33333 2.2,-0.98666 0.186667,0.64 0.68,0.92 1.28,1 l 0.28,-0.8 c -0.4,-0.12 -0.573333,-0.33334 -0.573333,-0.89334 z m -2.906667,0.84 c -0.92,0 -1.346666,-0.45333 -1.346666,-1.33333 0,-0.90667 0.56,-1.46667 2.106666,-1.46667 h 1.013334 v 1.8 c -0.413334,0.62667 -1.08,1 -1.773334,1 z"/>
  <path d="m 98.748981,174.71322 c -0.826667,0 -1.573333,-0.30666 -2.12,-0.76 l -0.626666,0.73334 c 0.6,0.52 1.466666,0.94666 2.746666,0.94666 1.493329,0 2.946669,-0.58666 2.946669,-2.09333 0,-1.30667 -0.90667,-1.78667 -2.280002,-2.16 -1.413334,-0.38667 -1.853334,-0.6 -1.853334,-1.24 0,-0.53333 0.4,-0.92 1.52,-0.92 0.906667,0 1.506666,0.28 2.026666,0.64 l 0.50667,-0.77333 c -0.6,-0.42667 -1.42667,-0.77334 -2.560002,-0.77334 -1.586667,0 -2.666667,0.74667 -2.666667,1.92 0,1.22667 0.946667,1.66667 2.4,2.02667 1.493329,0.37333 1.693329,0.70667 1.693329,1.33333 0,0.68 -0.653329,1.12 -1.733329,1.12 z"/>
  <path d="m 105.2424,172.36656 h 4.72 c 0.0133,-0.14667 0.0267,-0.36 0.0267,-0.6 0,-2.13334 -1.09333,-3.45334 -2.86666,-3.45334 -1.86667,0 -3.05333,1.54667 -3.05333,3.66667 0,2.18667 1.16,3.65333 3.21333,3.65333 0.86667,0 1.74667,-0.30666 2.4,-0.81333 l -0.52,-0.74667 c -0.62667,0.41334 -1.16,0.62667 -1.88,0.62667 -1.08,0 -1.98667,-0.70667 -2.04,-2.33333 z m 1.89333,-3.13334 c 1.06667,0 1.73334,0.77334 1.76,2.28 h -3.65333 c 0.0933,-1.54666 0.85333,-2.28 1.89333,-2.28 z"/>
  <path d="m 113.04248,175.48656 1.93334,-3.01334 1.93333,3.01334 h 1.36 l -2.58667,-3.76 2.28,-3.26667 h -1.29333 l -1.64,2.61333 -1.62667,-2.61333 h -1.33333 l 2.28,3.32 -2.58667,3.70667 z"/>
  <path d="m 125.93589,175.12656 -0.44,-0.76 c -0.37333,0.2 -0.82666,0.33333 -1.34666,0.33333 -0.96,0 -1.34667,-0.41333 -1.34667,-1.18667 v -4.17333 h 2.29333 l 0.14667,-0.88 h -2.44 v -1.72 l -1.12,0.13333 v 1.58667 h -1.61333 v 0.88 h 1.61333 v 4.18667 c 0,1.22666 0.85333,2.10666 2.36,2.10666 0.66667,0 1.4,-0.18666 1.89333,-0.50666 z"/>
  <path d="m 129.46931,168.45989 h -1.12 v 5.10667 c 0,1.30666 0.66667,2.06666 2.02667,2.06666 0.82666,0 1.69333,-0.38666 2.25333,-1.09333 l 0.0933,0.94667 h 0.96 v -7.02667 h -1.12 v 5.17333 c -0.38666,0.6 -1.13333,1.12 -1.90666,1.12 -0.81334,0 -1.18667,-0.4 -1.18667,-1.30666 z"/>
  <path d="m 138.74939,174.71322 c -0.82666,0 -1.57333,-0.30666 -2.12,-0.76 l -0.62666,0.73334 c 0.6,0.52 1.46666,0.94666 2.74666,0.94666 1.49334,0 2.94667,-0.58666 2.94667,-2.09333 0,-1.30667 -0.90667,-1.78667 -2.28,-2.16 -1.41333,-0.38667 -1.85333,-0.6 -1.85333,-1.24 0,-0.53333 0.4,-0.92 1.52,-0.92 0.90666,0 1.50666,0.28 2.02666,0.64 l 0.50667,-0.77333 c -0.6,-0.42667 -1.42667,-0.77334 -2.56,-0.77334 -1.58667,0 -2.66667,0.74667 -2.66667,1.92 0,1.22667 0.94667,1.66667 2.4,2.02667 1.49334,0.37333 1.69334,0.70667 1.69334,1.33333 0,0.68 -0.65334,1.12 -1.73334,1.12 z"/>
  <path d="m 166.10182,173.95322 v -3.37333 c 0,-1.38667 -0.88,-2.26667 -2.62667,-2.26667 -0.69333,0 -1.44,0.13334 -2.30666,0.44 l 0.30666,0.85334 c 0.72,-0.25334 1.36,-0.36 1.82667,-0.36 1.04,0 1.66666,0.37333 1.66666,1.4 v 0.57333 h -1.03999 c -2.12,0 -3.28,0.81333 -3.28,2.25333 0,1.30667 0.85333,2.16 2.26666,2.16 0.90667,0 1.69333,-0.33333 2.2,-0.98666 0.18667,0.64 0.68,0.92 1.28,1 l 0.28,-0.8 c -0.4,-0.12 -0.57333,-0.33334 -0.57333,-0.89334 z m -2.90667,0.84 c -0.92,0 -1.34666,-0.45333 -1.34666,-1.33333 0,-0.90667 0.56,-1.46667 2.10666,-1.46667 h 1.01333 v 1.8 c -0.41333,0.62667 -1.07999,1 -1.77333,1 z"/>
  <path d="m 188.17425,174.71322 c -0.82667,0 -1.57333,-0.30666 -2.12,-0.76 l -0.62667,0.73334 c 0.6,0.52 1.46667,0.94666 2.74667,0.94666 1.49333,0 2.94667,-0.58666 2.94667,-2.09333 0,-1.30667 -0.90667,-1.78667 -2.28,-2.16 -1.41334,-0.38667 -1.85334,-0.6 -1.85334,-1.24 0,-0.53333 0.4,-0.92 1.52,-0.92 0.90667,0 1.50667,0.28 2.02667,0.64 l 0.50667,-0.77333 c -0.6,-0.42667 -1.42667,-0.77334 -2.56,-0.77334 -1.58667,0 -2.66667,0.74667 -2.66667,1.92 0,1.22667 0.94667,1.66667 2.4,2.02667 1.49333,0.37333 1.69333,0.70667 1.69333,1.33333 0,0.68 -0.65333,1.12 -1.73333,1.12 z"/>
  <path d="m 199.36099,175.12656 -0.44,-0.76 c -0.37333,0.2 -0.82666,0.33333 -1.34666,0.33333 -0.96,0 -1.34667,-0.41333 -1.34667,-1.18667 v -4.17333 h 2.29333 l 0.14667,-0.88 h -2.44 v -1.72 l -1.12,0.13333 v 1.58667 h -1.61333 v 0.88 h 1.61333 v 4.18667 c 0,1.22666 0.85333,2.10666 2.36,2.10666 0.66667,0 1.4,-0.18666 1.89333,-0.50666 z"/>
  <path d="m 202.66775,172.36656 h 4.72 c 0.0133,-0.14667 0.0267,-0.36 0.0267,-0.6 0,-2.13334 -1.09333,-3.45334 -2.86667,-3.45334 -1.86666,0 -3.05333,1.54667 -3.05333,3.66667 0,2.18667 1.16,3.65333 3.21333,3.65333 0.86667,0 1.74667,-0.30666 2.4,-0.81333 l -0.52,-0.74667 c -0.62666,0.41334 -1.16,0.62667 -1.88,0.62667 -1.08,0 -1.98666,-0.70667 -2.04,-2.33333 z m 1.89334,-3.13334 c 1.06666,0 1.73333,0.77334 1.76,2.28 h -3.65334 c 0.0933,-1.54666 0.85334,-2.28 1.89334,-2.28 z"/>
  <path d="m 212.52116,165.63322 h -3.28 v 0.89334 h 2.16 v 7.17333 c 0,1.21333 0.84,1.93333 2.08,1.93333 0.72,0 1.29334,-0.16 1.66667,-0.36 l -0.29333,-0.81333 c -0.38667,0.14667 -0.76,0.24 -1.17334,0.24 -0.68,0 -1.16,-0.25333 -1.16,-0.94667 z"/>
  <path d="m 220.52124,165.63322 h -3.28 v 0.89334 h 2.16 v 7.17333 c 0,1.21333 0.84,1.93333 2.08,1.93333 0.72,0 1.29333,-0.16 1.66666,-0.36 l -0.29333,-0.81333 c -0.38667,0.14667 -0.76,0.24 -1.17333,0.24 -0.68,0 -1.16,-0.25333 -1.16,-0.94667 z"/>
  <path d="m 230.81465,173.95322 v -3.37333 c 0,-1.38667 -0.88,-2.26667 -2.62667,-2.26667 -0.69333,0 -1.44,0.13334 -2.30667,0.44 l 0.30667,0.85334 c 0.72,-0.25334 1.36,-0.36 1.82667,-0.36 1.04,0 1.66666,0.37333 1.66666,1.4 v 0.57333 h -1.04 c -2.12,0 -3.28,0.81333 -3.28,2.25333 0,1.30667 0.85334,2.16 2.26667,2.16 0.90667,0 1.69333,-0.33333 2.2,-0.98666 0.18667,0.64 0.68,0.92 1.28,1 l 0.28,-0.8 c -0.4,-0.12 -0.57333,-0.33334 -0.57333,-0.89334 z m -2.90667,0.84 c -0.92,0 -1.34667,-0.45333 -1.34667,-1.33333 0,-0.90667 0.56,-1.46667 2.10667,-1.46667 h 1.01333 v 1.8 c -0.41333,0.62667 -1.08,1 -1.77333,1 z"/>
  <path d="m 27.076068,182.81989 c -2.12,0 -3.933334,1.64 -3.933334,4.73334 0,3.09333 1.746667,4.74666 3.986667,4.74666 1.306667,0 2.186667,-0.45333 2.746667,-1 l -0.6,-0.74666 c -0.493334,0.38666 -1.106667,0.76 -2.133334,0.76 -1.573333,0 -2.786666,-1.02667 -2.786666,-3.76 0,-2.8 1.306666,-3.76 2.8,-3.76 0.706666,0 1.346666,0.18666 1.933333,0.68 l 0.653333,-0.76 c -0.733333,-0.57334 -1.466666,-0.89334 -2.666666,-0.89334 z"/>
  <path d="m 34.316149,184.97989 c -1.973334,0 -3.04,1.50667 -3.04,3.66667 0,2.21333 1.053333,3.65333 3.026666,3.65333 1.96,0 3.026667,-1.50666 3.026667,-3.66666 0,-2.21334 -1.04,-3.65334 -3.013333,-3.65334 z m 0,0.92 c 1.2,0 1.8,0.88 1.8,2.73334 0,1.88 -0.6,2.74666 -1.813334,2.74666 -1.213333,0 -1.813333,-0.86666 -1.813333,-2.73333 0,-1.86667 0.613333,-2.74667 1.826667,-2.74667 z"/>
  <path d="m 44.382896,184.97989 c -1.266666,0 -1.986666,0.66667 -2.52,1.81334 l -0.213333,-1.66667 h -1.946667 v 0.86667 h 1.106667 v 5.29333 h -1.106667 v 0.86667 h 3.653334 v -0.86667 h -1.426667 v -2.96 c 0.453333,-1.54667 1.226667,-2.32 2.306667,-2.32 h 0.06667 v 1.50667 h 0.906667 l 0.16,-2.38667 c -0.306667,-0.08 -0.6,-0.14667 -0.986667,-0.14667 z"/>
  <path d="m 48.756312,185.12656 h -1.12 v 5.10667 c 0,1.30666 0.666666,2.06666 2.026666,2.06666 0.826667,0 1.693334,-0.38666 2.253334,-1.09333 l 0.09333,0.94667 h 0.96 v -7.02667 h -1.12 v 5.17333 c -0.386667,0.6 -1.133333,1.12 -1.906667,1.12 -0.813333,0 -1.186666,-0.4 -1.186666,-1.30666 z"/>
  <path d="m 58.036392,191.37989 c -0.826667,0 -1.573333,-0.30666 -2.12,-0.76 l -0.626667,0.73334 c 0.6,0.52 1.466667,0.94666 2.746667,0.94666 1.493333,0 2.946666,-0.58666 2.946666,-2.09333 0,-1.30667 -0.906666,-1.78667 -2.279999,-2.16 -1.413334,-0.38667 -1.853334,-0.6 -1.853334,-1.24 0,-0.53333 0.4,-0.92 1.52,-0.92 0.906667,0 1.506667,0.28 2.026667,0.64 l 0.506666,-0.77333 c -0.6,-0.42667 -1.426666,-0.77334 -2.559999,-0.77334 -1.586667,0 -2.666667,0.74667 -2.666667,1.92 0,1.22667 0.946667,1.66667 2.4,2.02667 1.493333,0.37333 1.693333,0.70667 1.693333,1.33333 0,0.68 -0.653333,1.12 -1.733333,1.12 z"/>
  <path d="m 66.823139,191.33989 c -1.213334,0 -2.093334,-0.78666 -2.093334,-2.66666 0,-1.85334 0.866667,-2.74667 2.08,-2.74667 0.626667,0 1.213334,0.21333 1.813334,0.61333 l 0.546666,-0.73333 c -0.653333,-0.54667 -1.44,-0.82667 -2.346666,-0.82667 -2.093334,0 -3.306667,1.58667 -3.306667,3.69334 0,2.2 1.2,3.62666 3.306667,3.62666 0.813333,0 1.76,-0.32 2.36,-0.84 l -0.533334,-0.73333 c -0.533333,0.36 -1.12,0.61333 -1.826666,0.61333 z"/>
  <path d="m 76.676556,190.61989 v -3.37333 c 0,-1.38667 -0.88,-2.26667 -2.626667,-2.26667 -0.693333,0 -1.44,0.13334 -2.306666,0.44 l 0.306666,0.85334 c 0.72,-0.25334 1.36,-0.36 1.826667,-0.36 1.04,0 1.666667,0.37333 1.666667,1.4 v 0.57333 h -1.04 c -2.12,0 -3.28,0.81333 -3.28,2.25333 0,1.30667 0.853333,2.16 2.266666,2.16 0.906667,0 1.693334,-0.33333 2.2,-0.98666 0.186667,0.64 0.68,0.92 1.28,1 l 0.28,-0.8 c -0.4,-0.12 -0.573333,-0.33334 -0.573333,-0.89334 z m -2.906667,0.84 c -0.92,0 -1.346666,-0.45333 -1.346666,-1.33333 0,-0.90667 0.56,-1.46667 2.106666,-1.46667 h 1.013334 v 1.8 c -0.413334,0.62667 -1.08,1 -1.773334,1 z"/>
  <path d="m 79.636636,192.15323 h 1.12 v -5.10667 c 0.373333,-0.56 1.08,-1.17333 1.906667,-1.17333 1.053333,0 1.2,0.57333 1.2,2.01333 v 4.26667 h 1.12 v -5.09334 c 0,-1.30666 -0.6,-2.08 -1.973334,-2.08 -0.826666,0 -1.76,0.41334 -2.32,1.13334 l -0.09333,-0.98667 h -0.96 z"/>
  <path d="m 93.223383,191.79323 -0.44,-0.76 c -0.373334,0.2 -0.826667,0.33333 -1.346667,0.33333 -0.96,0 -1.346667,-0.41333 -1.346667,-1.18667 v -4.17333 h 2.293334 l 0.146666,-0.88 h -2.44 v -1.72 l -1.12,0.13333 v 1.58667 h -1.613333 v 0.88 h 1.613333 v 4.18667 c 0,1.22666 0.853334,2.10666 2.36,2.10666 0.666667,0 1.4,-0.18666 1.893334,-0.50666 z"/>
  <path d="m 109.73021,185.79323 c 0,-1.92 -1.34667,-2.82667 -3.54667,-2.82667 h -2.33333 v 9.18667 h 1.14667 v -3.41334 h 1.18666 c 2.06667,0 3.54667,-0.8 3.54667,-2.94666 z m -1.24,0.0133 c 0,1.57333 -0.93333,2.01333 -2.2,2.01333 h -1.29333 v -3.93333 h 1.33333 c 1.24,0 2.16,0.50667 2.16,1.92 z"/>
  <path d="m 116.38363,184.97989 c -1.26667,0 -1.98667,0.66667 -2.52,1.81334 l -0.21334,-1.66667 h -1.94666 v 0.86667 h 1.10666 v 5.29333 h -1.10666 v 0.86667 h 3.65333 v -0.86667 h -1.42667 v -2.96 c 0.45334,-1.54667 1.22667,-2.32 2.30667,-2.32 h 0.0667 v 1.50667 h 0.90666 l 0.16,-2.38667 c -0.30666,-0.08 -0.6,-0.14667 -0.98666,-0.14667 z"/>
  <path d="m 122.30371,181.84656 c -0.48,0 -0.8,0.33333 -0.8,0.78667 0,0.45333 0.32,0.78666 0.8,0.78666 0.49333,0 0.82667,-0.33333 0.82667,-0.78666 0,-0.45334 -0.33334,-0.78667 -0.82667,-0.78667 z m 0.89333,3.28 h -3.21333 v 0.89333 h 2.09333 v 5.24 h -2.16 v 0.89334 h 5.25334 v -0.89334 h -1.97334 z"/>
  <path d="m 132.26379,184.97989 c -0.70667,0 -1.16,0.37334 -1.54667,0.93334 -0.21333,-0.72 -0.73333,-0.93334 -1.26667,-0.93334 -0.70666,0 -1.14666,0.42667 -1.52,0.97334 l -0.08,-0.82667 h -0.86666 v 7.02667 h 1.02666 v -5.45334 c 0.38667,-0.6 0.78667,-0.84 1.22667,-0.84 0.50667,0 0.54667,0.36 0.54667,1.25334 v 5.04 h 1.04 v -5.45334 c 0.38666,-0.6 0.8,-0.84 1.22666,-0.84 0.50667,0 0.54667,0.36 0.54667,1.25334 v 5.04 h 1.02667 v -5.22667 c 0,-1.61333 -0.68,-1.94667 -1.36,-1.94667 z"/>
  <path d="m 136.53054,189.03323 h 4.72 c 0.0133,-0.14667 0.0267,-0.36 0.0267,-0.6 0,-2.13334 -1.09333,-3.45334 -2.86666,-3.45334 -1.86667,0 -3.05334,1.54667 -3.05334,3.66667 0,2.18667 1.16,3.65333 3.21334,3.65333 0.86666,0 1.74666,-0.30666 2.4,-0.81333 l -0.52,-0.74667 c -0.62667,0.41334 -1.16,0.62667 -1.88,0.62667 -1.08,0 -1.98667,-0.70667 -2.04,-2.33333 z m 1.89333,-3.13334 c 1.06667,0 1.73333,0.77334 1.76,2.28 h -3.65333 c 0.0933,-1.54666 0.85333,-2.28 1.89333,-2.28 z"/>
  <path d="m 154.03736,191.37989 c -0.82666,0 -1.57333,-0.30666 -2.12,-0.76 l -0.62666,0.73334 c 0.6,0.52 1.46666,0.94666 2.74666,0.94666 1.49334,0 2.94667,-0.58666 2.94667,-2.09333 0,-1.30667 -0.90667,-1.78667 -2.28,-2.16 -1.41333,-0.38667 -1.85333,-0.6 -1.85333,-1.24 0,-0.53333 0.4,-0.92 1.52,-0.92 0.90666,0 1.50666,0.28 2.02666,0.64 l 0.50667,-0.77333 c -0.6,-0.42667 -1.42667,-0.77334 -2.56,-0.77334 -1.58667,0 -2.66667,0.74667 -2.66667,1.92 0,1.22667 0.94667,1.66667 2.4,2.02667 1.49334,0.37333 1.69334,0.70667 1.69334,1.33333 0,0.68 -0.65334,1.12 -1.73334,1.12 z"/>
  <path d="m 160.75744,185.12656 h -1.12 v 5.10667 c 0,1.30666 0.66667,2.06666 2.02667,2.06666 0.82666,0 1.69333,-0.38666 2.25333,-1.09333 l 0.0933,0.94667 h 0.96 v -7.02667 h -1.12 v 5.17333 c -0.38666,0.6 -1.13333,1.12 -1.90666,1.12 -0.81334,0 -1.18667,-0.4 -1.18667,-1.30666 z"/>
  <path d="m 172.67753,190.61989 v -3.37333 c 0,-1.38667 -0.88,-2.26667 -2.62666,-2.26667 -0.69334,0 -1.44,0.13334 -2.30667,0.44 l 0.30667,0.85334 c 0.72,-0.25334 1.36,-0.36 1.82666,-0.36 1.04,0 1.66667,0.37333 1.66667,1.4 v 0.57333 h -1.04 c -2.12,0 -3.28,0.81333 -3.28,2.25333 0,1.30667 0.85333,2.16 2.26667,2.16 0.90666,0 1.69333,-0.33333 2.2,-0.98666 0.18666,0.64 0.68,0.92 1.28,1 l 0.28,-0.8 c -0.4,-0.12 -0.57334,-0.33334 -0.57334,-0.89334 z m -2.90666,0.84 c -0.92,0 -1.34667,-0.45333 -1.34667,-1.33333 0,-0.90667 0.56,-1.46667 2.10667,-1.46667 h 1.01333 v 1.8 c -0.41333,0.62667 -1.08,1 -1.77333,1 z"/>
  <path d="m 177.11761,191.12656 c 0,0.66667 0.50667,1.17333 1.17333,1.17333 0.68,0 1.17334,-0.50666 1.17334,-1.17333 0,-0.65333 -0.49334,-1.17333 -1.17334,-1.17333 -0.66666,0 -1.17333,0.52 -1.17333,1.17333 z"/>
 </g>
</svg>
