<svg xmlns="http://www.w3.org/2000/svg" style="isolation:isolate" width="256" height="256" viewBox="0 0 256 256">
 <defs>
  <filter id="9Pmdq9PyYnIytoFrcS2lU2GMZDmNuSt4" width="400%" height="400%" x="-200%" y="-200%" color-interpolation-filters="sRGB" filterUnits="objectBoundingBox">
   <feGaussianBlur xmlns="http://www.w3.org/2000/svg" in="SourceGraphic" stdDeviation="4.294"/>
   <feOffset xmlns="http://www.w3.org/2000/svg" dx="0" dy="4" result="pf_100_offsetBlur"/>
   <feFlood xmlns="http://www.w3.org/2000/svg" flood-opacity=".4"/>
   <feComposite xmlns="http://www.w3.org/2000/svg" in2="pf_100_offsetBlur" operator="in" result="pf_100_dropShadow"/>
   <feBlend xmlns="http://www.w3.org/2000/svg" in="SourceGraphic" in2="pf_100_dropShadow" mode="normal"/>
  </filter>
 </defs>
 <g filter="url(#9Pmdq9PyYnIytoFrcS2lU2GMZDmNuSt4)">
  <linearGradient id="_lgradient_270" x1=".187" x2=".19" y1=".005" y2=".999" gradientTransform="matrix(244.648309,0,0,228.338396,5.68,11.95)" gradientUnits="userSpaceOnUse">
   <stop offset="0%" style="stop-color:#07b3ff"/>
   <stop offset="100%" style="stop-color:#007de8"/>
  </linearGradient>
  <path fill="url(#_lgradient_270)" d="M 165.688919 11.95 C 239.744626 11.95 250.328309 22.507198 250.328309 96.493859 L 250.328309 155.744653 C 250.328309 229.73091 239.744626 240.288396 165.688919 240.288396 L 90.319393 240.288396 C 16.26369 240.288396 5.68 229.73091 5.68 155.744653 L 5.68 96.493859 C 5.68 22.507198 16.26369 11.95 90.319393 11.95 L 165.688919 11.95 Z"/>
 </g>
 <g>
  <defs>
   <filter id="Ia9a7vCOj8U0BCY7g6sr1lVKarxACXAT" width="400%" height="400%" x="-200%" y="-200%" color-interpolation-filters="sRGB" filterUnits="objectBoundingBox">
    <feGaussianBlur xmlns="http://www.w3.org/2000/svg" stdDeviation="4.294"/>
   </filter>
  </defs>
  <g opacity=".4" filter="url(#Ia9a7vCOj8U0BCY7g6sr1lVKarxACXAT)">
   <path d="M 187.017539 186.485877 C 187.004819 196.938597 184.419128 200.424122 151.553932 200.424117 C 142.210778 200.424117 130.837533 201.244618 124.849878 197.489571 C 119.196124 193.943929 121.235302 188.740393 121.235297 183.44478 C 121.235297 172.54079 131.918668 164.885965 150.083932 164.885965 C 168.249202 164.885965 187.031102 175.570176 187.017539 186.485877 Z"/>
  </g>
  <path fill="#f34f17" d="M 187.017539 183.942018 C 187.004819 194.394737 184.419128 197.880262 151.553932 197.880257 C 142.210778 197.880257 130.837533 198.700759 124.849878 194.945711 C 119.196124 191.40007 121.235302 186.196534 121.235297 180.90092 C 121.235297 169.99693 131.918668 162.342105 150.083932 162.342105 C 168.249202 162.342105 187.031102 173.026316 187.017539 183.942018 Z"/>
  <g opacity=".2">
   <path d="M 128 58.04386 C 91.471693 58.04386 61.85965 87.655904 61.85965 124.184211 C 61.85965 160.712518 91.471693 190.324561 128 190.324561 C 164.528307 190.324561 194.140351 160.712518 194.140351 124.184211 C 194.140351 106.642699 187.172012 89.819642 174.76829 77.41592 C 162.364568 65.012198 145.541511 58.04386 127.999999 58.04386 L 128 58.04386 Z"/>
  </g>
  <path fill="#fdc92b" d="M 128 55.5 C 91.471693 55.5 61.85965 85.112044 61.85965 121.640351 C 61.85965 158.168658 91.471693 187.780702 128 187.780702 C 164.528307 187.780702 194.140351 158.168658 194.140351 121.640351 C 194.140351 104.098839 187.172012 87.275782 174.76829 74.87206 C 162.364568 62.468338 145.541511 55.5 127.999999 55.5 L 128 55.5 Z"/>
  <defs>
   <filter id="b8ntE5s9ppLeuXe7kaVVsymj3UQWFLzt" width="400%" height="400%" x="-200%" y="-200%" color-interpolation-filters="sRGB" filterUnits="objectBoundingBox">
    <feGaussianBlur xmlns="http://www.w3.org/2000/svg" stdDeviation="4.294"/>
   </filter>
  </defs>
  <g opacity=".4" filter="url(#b8ntE5s9ppLeuXe7kaVVsymj3UQWFLzt)">
   <path d="M 133.087714 186.485877 C 133.074995 196.938597 130.489299 200.424122 97.624103 200.424117 C 88.280957 200.424117 76.907709 201.244618 70.920051 197.489571 C 65.2663 193.943929 67.305473 188.740393 67.305472 183.44478 C 67.30547 172.54079 77.988846 164.885965 96.154105 164.885965 C 114.319372 164.885965 133.101273 175.570176 133.087714 186.485877 Z"/>
  </g>
  <path fill="#f34f17" d="M 133.087714 183.942018 C 133.074995 194.394737 130.489299 197.880262 97.624103 197.880257 C 88.280957 197.880257 76.907709 198.700759 70.920051 194.945711 C 65.2663 191.40007 67.305473 186.196534 67.305472 180.90092 C 67.30547 169.99693 77.988846 162.342105 96.154105 162.342105 C 114.319372 162.342105 133.101273 173.026316 133.087714 183.942018 Z"/>
  <ellipse fill="#3b3b3b" cx="117.825" cy="111.465" rx="10.175" ry="15.263" vector-effect="non-scaling-stroke"/>
  <ellipse fill="#3b3b3b" cx="148.351" cy="111.465" rx="10.175" ry="15.263" vector-effect="non-scaling-stroke"/>
  <g opacity=".2">
   <path fill="#ffffff" d="M 128 55.500001 C 91.471693 55.500001 61.859649 85.112044 61.859649 121.640351 C 61.875172 121.984969 61.89339 122.329461 61.914303 122.673794 C 62.734705 86.75791 92.074753 58.064177 128 58.04386 C 164.090096 58.068886 193.497399 87.020742 194.085698 123.106052 C 194.109333 122.617702 194.127551 122.129105 194.140351 121.640351 C 194.140351 85.112044 164.528307 55.500001 128 55.500001 Z"/>
  </g>
 </g>
</svg>
