<svg xmlns="http://www.w3.org/2000/svg" style="isolation:isolate" width="256" height="256" viewBox="0 0 256 256">
 <defs>
  <filter id="3Kl6i4F0DpeJn2Se1iw1hlXBSvuuE133" width="400%" height="400%" x="-200%" y="-200%" color-interpolation-filters="sRGB" filterUnits="objectBoundingBox">
   <feGaussianBlur xmlns="http://www.w3.org/2000/svg" in="SourceGraphic" stdDeviation="4.294"/>
   <feOffset xmlns="http://www.w3.org/2000/svg" dx="0" dy="4" result="pf_100_offsetBlur"/>
   <feFlood xmlns="http://www.w3.org/2000/svg" flood-opacity=".4"/>
   <feComposite xmlns="http://www.w3.org/2000/svg" in2="pf_100_offsetBlur" operator="in" result="pf_100_dropShadow"/>
   <feBlend xmlns="http://www.w3.org/2000/svg" in="SourceGraphic" in2="pf_100_dropShadow" mode="normal"/>
  </filter>
 </defs>
 <g filter="url(#3Kl6i4F0DpeJn2Se1iw1hlXBSvuuE133)">
  <linearGradient id="_lgradient_274" x1=".187" x2=".19" y1=".005" y2=".999" gradientTransform="matrix(244.648309,0,0,228.338396,5.68,11.95)" gradientUnits="userSpaceOnUse">
   <stop offset="0%" style="stop-color:#07b3ff"/>
   <stop offset="100%" style="stop-color:#007de8"/>
  </linearGradient>
  <path fill="url(#_lgradient_274)" d="M 165.688919 11.95 C 239.744626 11.95 250.328309 22.507198 250.328309 96.493859 L 250.328309 155.744653 C 250.328309 229.73091 239.744626 240.288396 165.688919 240.288396 L 90.319393 240.288396 C 16.26369 240.288396 5.68 229.73091 5.68 155.744653 L 5.68 96.493859 C 5.68 22.507198 16.26369 11.95 90.319393 11.95 L 165.688919 11.95 Z"/>
 </g>
 <g>
  <defs>
   <filter id="pRiQxd8Tax8XscGqiMGZTPpdwb4p4CnS" width="400%" height="400%" x="-200%" y="-200%" color-interpolation-filters="sRGB" filterUnits="objectBoundingBox">
    <feGaussianBlur xmlns="http://www.w3.org/2000/svg" stdDeviation="4.294"/>
   </filter>
  </defs>
  <g opacity=".4" filter="url(#pRiQxd8Tax8XscGqiMGZTPpdwb4p4CnS)">
   <path d="M 176.96857 116.389643 C 178.296873 111.894643 179.029641 107.153661 179.029641 102.234019 C 179.029641 74.280091 156.192142 51.618922 128.005178 51.618922 C 99.833751 51.618922 76.985894 74.274912 76.985894 102.234019 C 76.985894 107.153661 77.72384 111.894643 79.046965 116.389643 C 72.622948 121.51125 47.686418 143.69625 57.945064 172.463213 C 57.945064 172.463213 66.623314 171.727856 73.751876 158.651963 C 75.916519 167.020535 79.948037 174.620088 85.44768 180.974195 C 77.392412 183.327856 71.929019 187.892766 71.929019 193.130891 C 71.929019 200.777052 83.56009 206.973212 97.899554 206.973212 C 107.632679 206.973212 116.107411 204.114641 120.550625 199.896694 C 122.9975 200.217766 125.465089 200.437855 127.99741 200.437855 C 130.532321 200.437855 133.005089 200.217766 135.441607 199.896694 C 139.895178 204.112051 148.364731 206.973212 158.100445 206.973212 C 172.445088 206.973212 184.081338 200.771873 184.081338 193.130891 C 184.081338 187.897945 178.612766 183.327856 170.557499 180.974195 C 176.051963 174.620088 180.093838 167.020535 182.25848 158.651963 C 189.381605 171.722677 198.047944 172.463213 198.047944 172.463213 C 208.32223 143.688482 183.387409 121.503482 176.965981 116.389643 L 176.96857 116.389643 Z"/>
  </g>
  <path fill="#5d5d5d" d="M 176.968163 113.80078 C 178.295685 109.30471 179.02881 104.562765 179.02881 99.644181 C 179.02881 71.690893 156.191412 49.029048 128.004572 49.029048 C 99.833269 49.029048 76.986031 71.686232 76.986031 99.644181 C 76.986031 104.562817 77.724076 109.304762 79.046678 113.80078 C 72.622171 118.920862 47.686425 141.106229 57.945129 169.874101 C 57.945129 169.874101 66.623341 169.13704 73.751612 156.061878 C 75.916247 164.429895 79.948265 172.031486 85.446846 178.385047 C 77.39265 180.738697 71.928763 185.303587 71.928763 190.541688 C 71.928763 198.187297 83.559267 204.383432 97.899702 204.383432 C 107.633303 204.383432 116.108514 201.523631 120.55171 197.307463 C 122.998678 197.626875 125.465529 197.848 127.996908 197.848 C 130.533051 197.848 133.004825 197.626875 135.442106 197.307463 C 139.895245 201.523423 148.365692 204.383432 158.099293 204.383432 C 172.444391 204.383432 184.080071 198.182119 184.080071 190.541688 C 184.080071 185.308765 178.611523 180.738697 170.557328 178.385047 C 176.05073 172.031486 180.09259 164.429895 182.257222 156.061878 C 189.380316 169.132535 198.048687 169.874101 198.048687 169.874101 C 208.321893 141.099496 183.386663 118.914078 176.966817 113.80078 L 176.968163 113.80078 Z"/>
  <circle fill="#ffffff" cx="102.107" cy="85.277" r="10.357" vector-effect="non-scaling-stroke"/>
  <circle fill="#ffffff" cx="153.893" cy="85.277" r="10.357" vector-effect="non-scaling-stroke"/>
  <ellipse fill="#ffffff" cx="128" cy="142.241" rx="36.25" ry="41.429" vector-effect="non-scaling-stroke"/>
  <circle fill="#303030" cx="107.286" cy="87.866" r="5.179" vector-effect="non-scaling-stroke"/>
  <circle fill="#303030" cx="159.071" cy="87.866" r="5.179" vector-effect="non-scaling-stroke"/>
  <defs>
   <filter id="YWESEhCgvVNDujzJ45hJ9akqojXJKUqx" width="400%" height="400%" x="-200%" y="-200%" color-interpolation-filters="sRGB" filterUnits="objectBoundingBox">
    <feGaussianBlur xmlns="http://www.w3.org/2000/svg" stdDeviation="4.294"/>
   </filter>
  </defs>
  <g opacity=".4" filter="url(#YWESEhCgvVNDujzJ45hJ9akqojXJKUqx)">
   <path d="M 117.642857 93.044644 L 138.357142 93.044644 C 136.69741 109.002411 128 124.116072 128 124.116072 C 128 124.116072 117.642857 106.18009 117.642857 93.044644 Z"/>
  </g>
  <path fill="#da1636" d="M 117.642857 90.455358 C 124.375953 86.843214 131.300714 86.863214 138.357142 90.455358 C 136.69741 106.413126 128 121.526786 128 121.526786 C 128 121.526786 117.642857 103.590804 117.642857 90.455358 Z"/>
  <g opacity=".1">
   <path fill="#ffffff" d="M 128.005178 49.026788 C 99.833751 49.026788 76.988483 71.685627 76.988483 99.644733 C 76.988483 100.002054 77.019555 100.354197 77.027323 100.711519 C 77.842948 73.459287 100.349018 51.621252 128.005178 51.621252 C 155.676874 51.621252 178.172588 73.464466 178.985623 100.711519 C 178.993391 100.354197 179.027052 100.002054 179.027052 99.644733 C 179.027052 71.690805 156.192142 49.026788 128.005178 49.026788 Z M 78.500626 114.26384 C 72.550448 119.100625 54.864073 135.335446 55.530296 157.261517 C 56.273939 136.08375 73.808841 120.563572 79.046965 116.389643 C 78.839823 115.690536 78.676698 114.975893 78.500626 114.26384 Z M 177.514909 114.26384 C 177.338838 114.975893 177.175713 115.690536 176.96857 116.389643 C 182.206695 120.558393 199.728391 136.073393 200.468926 157.245981 C 201.139551 135.3225 183.459909 119.092857 177.514909 114.26384 Z M 83.795715 178.946784 C 76.67259 181.416963 71.931608 185.678927 71.931608 190.541605 C 71.931608 191.036159 71.983394 191.522945 72.076608 192.004552 C 72.801608 187.248034 77.98018 183.156963 85.44768 180.974195 C 84.878037 180.313927 84.334287 179.632945 83.795715 178.946784 Z M 172.209463 178.946784 C 171.670891 179.632945 171.127141 180.313927 170.557499 180.974195 C 178.022409 183.154373 183.206159 187.250623 183.933748 192.004552 C 184.026963 191.522945 184.078748 191.036159 184.078748 190.541605 C 184.078748 185.684106 179.332588 181.419552 172.209463 178.946784 Z"/>
  </g>
  <defs>
   <filter id="NtpEp8D19tytHSTFxuAWbzVK1kqGqwVF" width="400%" height="400%" x="-200%" y="-200%" color-interpolation-filters="sRGB" filterUnits="objectBoundingBox">
    <feGaussianBlur xmlns="http://www.w3.org/2000/svg" stdDeviation="0"/>
   </filter>
  </defs>
  <g opacity=".2" filter="url(#NtpEp8D19tytHSTFxuAWbzVK1kqGqwVF)">
   <path fill-rule="evenodd" d="M 133.56664 138.47712 L 133.56664 138.47712 L 133.56664 138.47712 Q 133.939189 135 138.471863 135 L 138.471863 135 L 138.471863 135 Q 140.893429 135 142.073166 135.372549 L 142.073166 135.372549 L 142.073166 135.372549 Q 143.252903 135.745097 143.718589 136.676469 L 143.718589 136.676469 L 143.718589 136.676469 Q 144.184274 137.60784 144.277411 138.321891 L 144.277411 138.321891 L 144.277411 138.321891 Q 144.370549 139.035943 144.370549 140.464046 L 144.370549 140.464046 L 144.370549 162.196046 L 144.370549 162.196046 Q 144.370549 163.624149 144.277411 164.3382 L 144.277411 164.3382 L 144.277411 164.3382 Q 144.184274 165.052251 143.749634 165.983623 L 143.749634 165.983623 L 143.749634 165.983623 Q 142.880354 167.598 139.496371 167.598 L 139.496371 167.598 L 139.496371 167.598 Q 136.112389 167.598 134.963697 166.759766 L 134.963697 166.759766 L 134.963697 166.759766 Q 133.815006 165.921531 133.628731 164.307154 L 133.628731 164.307154 L 133.628731 164.307154 Q 131.331349 167.598 125.96044 167.598 L 125.96044 167.598 L 125.96044 167.598 Q 120.589531 167.598 115.994766 162.692777 L 115.994766 162.692777 L 115.994766 162.692777 Q 111.4 157.787554 111.4 151.299 L 111.4 151.299 L 111.4 151.299 Q 111.4 144.810446 116.025811 139.936269 L 116.025811 139.936269 L 116.025811 139.936269 Q 120.651623 135.062091 126.17776 135.062091 L 126.17776 135.062091 L 126.17776 135.062091 Q 128.288869 135.062091 130.027429 135.807189 L 130.027429 135.807189 L 130.027429 135.807189 Q 131.765989 136.552286 132.448994 137.204246 L 132.448994 137.204246 L 132.448994 137.204246 Q 133.132 137.856206 133.56664 138.47712 Z M 122.266 151.392137 L 122.266 151.392137 L 122.266 151.392137 Q 122.266 153.441154 123.880377 155.086577 L 123.880377 155.086577 L 123.880377 155.086577 Q 125.494754 156.732 127.792137 156.732 L 127.792137 156.732 L 127.792137 156.732 Q 130.08952 156.732 131.61076 155.055531 L 131.61076 155.055531 L 131.61076 155.055531 Q 133.132 153.379063 133.132 151.361091 L 133.132 151.361091 L 133.132 151.361091 Q 133.132 149.34312 131.672851 147.60456 L 131.672851 147.60456 L 131.672851 147.60456 Q 130.213703 145.866 127.761091 145.866 L 127.761091 145.866 L 127.761091 145.866 Q 125.30848 145.866 123.78724 147.60456 L 123.78724 147.60456 L 123.78724 147.60456 Q 122.266 149.34312 122.266 151.392137 Z"/>
  </g>
  <linearGradient id="_lgradient_275" x1="0" x2="0" y1="0" y2="1" gradientTransform="matrix(32.970557,0,0,32.598036,111.400006,132.901972)" gradientUnits="userSpaceOnUse">
   <stop offset="0%" style="stop-color:#ff4500"/>
   <stop offset="100%" style="stop-color:#dc153b"/>
  </linearGradient>
  <path fill="url(#_lgradient_275)" fill-rule="evenodd" d="M 133.566638 136.379136 L 133.566638 136.379136 L 133.566638 136.379136 Q 133.939189 132.901972 138.471861 132.901972 L 138.471861 132.901972 L 138.471861 132.901972 Q 140.893429 132.901972 142.073169 133.274553 L 142.073169 133.274553 L 142.073169 133.274553 Q 143.252909 133.647074 143.718576 134.578467 L 143.718576 134.578467 L 143.718576 134.578467 Q 144.184273 135.50986 144.277418 136.223874 L 144.277418 136.223874 L 144.277418 136.223874 Q 144.370563 136.937948 144.370563 138.366036 L 144.370563 138.366036 L 144.370563 160.09806 L 144.370563 160.09806 Q 144.370563 161.526148 144.277418 162.240222 L 144.277418 162.240222 L 144.277418 162.240222 Q 144.184273 162.954236 143.749635 163.885629 L 143.749635 163.885629 L 143.749635 163.885629 Q 142.880358 165.500008 139.496369 165.500008 L 139.496369 165.500008 L 139.496369 165.500008 Q 136.11238 165.500008 134.963698 164.66176 L 134.963698 164.66176 L 134.963698 164.66176 Q 133.815015 163.823512 133.628725 162.209134 L 133.628725 162.209134 L 133.628725 162.209134 Q 131.331361 165.500008 125.960442 165.500008 L 125.960442 165.500008 L 125.960442 165.500008 Q 120.589523 165.500008 115.994764 160.594755 L 115.994764 160.594755 L 115.994764 160.594755 Q 111.400006 155.689562 111.400006 149.201019 L 111.400006 149.201019 L 111.400006 149.201019 Q 111.400006 142.712417 116.025823 137.838253 L 116.025823 137.838253 L 116.025823 137.838253 Q 120.65161 132.964089 126.177761 132.964089 L 126.177761 132.964089 L 126.177761 132.964089 Q 128.288864 132.964089 130.027417 133.709191 L 130.027417 133.709191 L 130.027417 133.709191 Q 131.765999 134.454293 132.448985 135.10625 L 132.448985 135.10625 L 132.448985 135.10625 Q 133.132 135.758208 133.566638 136.379136 Z M 122.265988 149.294165 L 122.265988 149.294165 L 122.265988 149.294165 Q 122.265988 151.343181 123.880367 152.988589 L 123.880367 152.988589 L 123.880367 152.988589 Q 125.494745 154.633996 127.792139 154.633996 L 127.792139 154.633996 L 127.792139 154.633996 Q 130.089533 154.633996 131.610767 152.95756 L 131.610767 152.95756 L 131.610767 152.95756 Q 133.132 151.281065 133.132 149.263077 L 133.132 149.263077 L 133.132 149.263077 Q 133.132 147.245148 131.672854 145.506536 L 131.672854 145.506536 L 131.672854 145.506536 Q 130.213707 143.767984 127.761081 143.767984 L 127.761081 143.767984 L 127.761081 143.767984 Q 125.308485 143.767984 123.787251 145.506536 L 123.787251 145.506536 L 123.787251 145.506536 Q 122.265988 147.245148 122.265988 149.294165 Z"/>
 </g>
</svg>
