<svg xmlns="http://www.w3.org/2000/svg" style="isolation:isolate" width="256" height="256" viewBox="0 0 256 256">
 <defs>
  <clipPath id="_clipPath_n53g14IZswymCDGTyIXyfNq5x9GaFVjC">
   <rect width="256" height="256"/>
  </clipPath>
 </defs>
 <g clip-path="url(#_clipPath_n53g14IZswymCDGTyIXyfNq5x9GaFVjC)">
  <defs>
   <filter id="V7pymvMO4uxPtRSkJXsKp8de0CY9NMmt" width="400%" height="400%" x="-200%" y="-200%" color-interpolation-filters="sRGB" filterUnits="objectBoundingBox">
    <feGaussianBlur xmlns="http://www.w3.org/2000/svg" in="SourceGraphic" stdDeviation="4.294"/>
    <feOffset xmlns="http://www.w3.org/2000/svg" dx="0" dy="4" result="pf_100_offsetBlur"/>
    <feFlood xmlns="http://www.w3.org/2000/svg" flood-opacity=".4"/>
    <feComposite xmlns="http://www.w3.org/2000/svg" in2="pf_100_offsetBlur" operator="in" result="pf_100_dropShadow"/>
    <feBlend xmlns="http://www.w3.org/2000/svg" in="SourceGraphic" in2="pf_100_dropShadow" mode="normal"/>
   </filter>
  </defs>
  <g filter="url(#V7pymvMO4uxPtRSkJXsKp8de0CY9NMmt)">
   <linearGradient id="_lgradient_100" x1="0" x2="0" y1="0" y2="1" gradientTransform="matrix(244.648309,0,0,228.338396,5.68,11.95)" gradientUnits="userSpaceOnUse">
    <stop offset="0%" style="stop-color:#ff6d57"/>
    <stop offset="50%" style="stop-color:#ff5160"/>
    <stop offset="100%" style="stop-color:#f50f22"/>
   </linearGradient>
   <path fill="url(#_lgradient_100)" d="M 165.688919 11.95 C 239.744626 11.95 250.328309 22.507198 250.328309 96.493859 L 250.328309 155.744653 C 250.328309 229.73091 239.744626 240.288396 165.688919 240.288396 L 90.319393 240.288396 C 16.26369 240.288396 5.68 229.73091 5.68 155.744653 L 5.68 96.493859 C 5.68 22.507198 16.26369 11.95 90.319393 11.95 L 165.688919 11.95 Z"/>
  </g>
  <g opacity=".4">
   <linearGradient id="_lgradient_101" x1=".517" x2=".517" y1="0" y2="1" gradientTransform="matrix(244.65,0,0,228.34,5.68,11.95)" gradientUnits="userSpaceOnUse">
    <stop offset="0%" style="stop-color:#ffffff"/>
    <stop offset="12.5%" stop-opacity=".098" style="stop-color:#ffffff"/>
    <stop offset="92.5%" stop-opacity=".098" style="stop-color:#000000"/>
    <stop offset="100%" stop-opacity=".498" style="stop-color:#000000"/>
   </linearGradient>
   <path fill="url(#_lgradient_101)" fill-rule="evenodd" d="M 165.06803 11.951234 C 169.395994 11.941409 173.723944 11.990533 178.051908 12.088781 C 181.927398 12.167379 185.802873 12.31475 189.678362 12.540721 C 193.1309 12.737216 196.583423 13.022134 200.026115 13.395476 C 203.085193 13.729518 206.144271 14.181458 209.173842 14.741469 C 211.888645 15.242533 214.57394 15.881143 217.219897 16.6573 C 219.619947 17.354858 221.970814 18.219439 224.242988 19.241215 C 226.357793 20.184394 228.384061 21.304417 230.302129 22.591462 C 232.141505 23.829383 233.862851 25.244151 235.436659 26.80629 C 237.000621 28.378252 238.417046 30.087764 239.656409 31.924995 C 240.944972 33.840824 242.066305 35.864728 243.020409 37.967229 C 244.043389 40.246576 244.908985 42.584873 245.617197 44.972292 C 246.394255 47.615155 247.033606 50.297317 247.535265 53.008956 C 248.095924 56.034984 248.548399 59.080665 248.882828 62.13617 C 249.256611 65.574836 249.541856 69.013506 249.738578 72.462003 C 249.964823 76.323139 250.112361 80.194101 250.200884 84.055237 C 250.289421 88.378131 250.338591 92.701032 250.32876 97.014106 L 250.32876 155.225886 C 250.338591 159.54878 250.289421 163.861854 250.200884 168.184747 C 250.112361 172.05571 249.964823 175.916853 249.738578 179.777981 C 249.541856 183.226485 249.256611 186.674975 248.882828 190.103826 C 248.548399 193.15933 248.095924 196.214835 247.535265 199.240851 C 247.033606 201.942664 246.394255 204.624837 245.617197 207.267703 C 244.908985 209.655115 244.043389 212.003235 243.020409 214.272755 C 242.066305 216.38509 240.944972 218.399156 239.656409 220.314999 C 238.417046 222.152226 237.000621 223.871561 235.436659 225.433697 C 233.862851 226.995832 232.141505 228.410601 230.302129 229.648532 C 228.384061 230.935575 226.357793 232.055598 224.242988 232.998768 C 221.970814 234.020552 219.619947 234.885137 217.219897 235.592507 C 214.57394 236.368672 211.888645 237.007276 209.173842 237.498515 C 206.144271 238.068354 203.085193 238.510465 200.026115 238.844519 C 196.583423 239.21785 193.1309 239.502777 189.678362 239.699269 C 185.802873 239.925235 181.927398 240.072615 178.051908 240.161035 C 173.723944 240.249454 169.395994 240.298581 165.06803 240.288762 L 90.941963 240.288762 C 86.614006 240.298581 82.286049 240.249454 77.9581 240.161035 C 74.08261 240.072615 70.20712 239.925235 66.331638 239.699269 C 62.879108 239.502777 59.426578 239.21785 55.983886 238.844519 C 52.924808 238.510465 49.865733 238.068354 46.836162 237.498515 C 44.121356 237.007276 41.436057 236.368672 38.7901 235.592507 C 36.390053 234.885137 34.039187 234.020552 31.767009 232.998768 C 29.652213 232.055598 27.625943 230.935575 25.707871 229.648532 C 23.868489 228.410601 22.147143 226.995832 20.573343 225.433697 C 19.009377 223.871561 17.592955 222.152226 16.353586 220.314999 C 15.065036 218.399156 13.943701 216.38509 12.989584 214.272755 C 11.966612 212.003235 11.101021 209.655115 10.392811 207.267703 C 9.615746 204.624837 8.976389 201.942664 8.47474 199.240851 C 7.914072 196.214835 7.461604 193.15933 7.127172 190.103826 C 6.753394 186.674975 6.468142 183.226485 6.271417 179.777981 C 6.045183 175.916853 5.897639 172.05571 5.809112 168.184747 C 5.720586 163.861854 5.671405 159.54878 5.681241 155.225886 L 5.681241 97.014106 C 5.671405 92.701032 5.720586 88.378131 5.809112 84.055237 C 5.897639 80.194101 6.045183 76.323139 6.271417 72.462003 C 6.468142 69.013506 6.753394 65.574836 7.127172 62.13617 C 7.461604 59.080665 7.914072 56.034984 8.47474 53.008956 C 8.976389 50.297317 9.615746 47.615155 10.392811 44.972292 C 11.101021 42.584873 11.966612 40.246576 12.989584 37.967229 C 13.943701 35.864728 15.065036 33.840824 16.353586 31.924995 C 17.592955 30.087764 19.009377 28.378252 20.573343 26.80629 C 22.147143 25.244151 23.868489 23.829383 25.707871 22.591462 C 27.625943 21.304417 29.652213 20.184394 31.767009 19.241215 C 34.039187 18.219439 36.390053 17.354858 38.7901 16.6573 C 41.436057 15.881143 44.121356 15.242533 46.836162 14.741469 C 49.865733 14.181458 52.924808 13.729518 55.983886 13.395476 C 59.426578 13.022134 62.879108 12.737216 66.331638 12.540721 C 70.20712 12.31475 74.08261 12.167379 77.9581 12.088781 C 82.286049 11.990533 86.614006 11.941409 90.941963 11.951234 L 165.06803 11.951234 Z M 165.077876 15.959741 C 169.376317 15.949916 173.674759 15.99904 177.973216 16.087463 C 181.799522 16.175886 185.625827 16.323257 189.452133 16.539402 C 192.835809 16.735898 196.219486 17.010992 199.583486 17.384332 C 202.554026 17.698726 205.514751 18.131016 208.445953 18.681203 C 211.023049 19.152792 213.580483 19.761928 216.098564 20.498786 C 218.321569 21.147221 220.495374 21.952852 222.600334 22.896029 C 224.508571 23.750785 226.338116 24.762737 228.069293 25.922059 C 229.692286 27.012609 231.207063 28.260355 232.59398 29.645648 C 233.980897 31.030941 235.230091 32.543956 236.331763 34.165043 C 237.492434 35.894202 238.505568 37.711787 239.361333 39.607968 C 240.305606 41.720292 241.112187 43.891565 241.761369 46.102139 C 242.508934 48.617282 243.108947 51.161898 243.590914 53.735987 C 244.131912 56.663768 244.564709 59.6112 244.889308 62.578282 C 245.263091 65.938355 245.538505 69.308252 245.735227 72.687976 C 245.951626 76.509812 246.10901 80.321821 246.187687 84.143656 C 246.276225 88.437084 246.325394 92.720685 246.325394 97.014106 C 246.325394 97.014106 246.325394 97.014106 246.325394 97.014106 L 246.325394 155.225886 C 246.325394 155.225886 246.325394 155.225886 246.325394 155.225886 C 246.325394 159.519306 246.276225 163.802907 246.187687 168.096328 C 246.10901 171.918164 245.951626 175.739999 245.735227 179.552015 C 245.538505 182.931739 245.263091 186.301629 244.889308 189.671533 C 244.564709 192.628784 244.131912 195.576216 243.590914 198.503994 C 243.108947 201.078094 242.508934 203.622706 241.761369 206.137845 C 241.112187 208.358253 240.305606 210.5197 239.361333 212.63202 C 238.505568 214.528209 237.492434 216.355617 236.331763 218.074952 C 235.230091 219.705853 233.980897 221.218876 232.59398 222.604172 C 231.207063 223.979634 229.692286 225.227385 228.069293 226.317935 C 226.338116 227.477251 224.508571 228.489201 222.600334 229.343951 C 220.495374 230.296956 218.321569 231.092775 216.098564 231.741198 C 213.580483 232.478056 211.023049 233.087202 208.445953 233.558787 C 205.514751 234.108972 202.554026 234.541264 199.583486 234.865483 C 196.219486 235.228995 192.835809 235.513922 189.452133 235.70058 C 185.625827 235.916726 181.799522 236.073926 177.973216 236.152526 C 173.674759 236.25078 169.376317 236.290072 165.077876 236.290072 C 165.077876 236.290072 165.077876 236.290072 165.06803 236.290072 L 90.941963 236.290072 C 90.932125 236.290072 90.932125 236.290072 90.932125 236.290072 C 86.633683 236.290072 82.335234 236.25078 78.036784 236.152526 C 74.210479 236.073926 70.384173 235.916726 66.557868 235.70058 C 63.174195 235.513922 59.790522 235.228995 56.426518 234.865483 C 53.455967 234.541264 50.495253 234.108972 47.564048 233.558787 C 44.986944 233.087202 42.429517 232.478056 39.911433 231.741198 C 37.688439 231.092775 35.514626 230.296956 33.409665 229.343951 C 31.501429 228.489201 29.671886 227.477251 27.940703 226.317935 C 26.31772 225.227385 24.802935 223.979634 23.416022 222.604172 C 22.029109 221.218876 20.779904 219.705853 19.678243 218.074952 C 18.517564 216.355617 17.504428 214.528209 16.648674 212.63202 C 15.704392 210.5197 14.897819 208.358253 14.248626 206.137845 C 13.50107 203.622706 12.901057 201.078094 12.419081 198.503994 C 11.878086 195.576216 11.445291 192.628784 11.120694 189.671533 C 10.746916 186.301629 10.471501 182.931739 10.274776 179.552015 C 10.058378 175.739999 9.900997 171.918164 9.822307 168.096328 C 9.733781 163.802907 9.6846 159.519306 9.6846 155.225886 C 9.6846 155.225886 9.6846 155.225886 9.6846 155.225886 L 9.6846 97.014106 C 9.6846 97.014106 9.6846 97.014106 9.6846 97.014106 C 9.6846 92.720685 9.733781 88.437084 9.822307 84.143656 C 9.900997 80.321821 10.058378 76.509812 10.274776 72.687976 C 10.471501 69.308252 10.746916 65.938355 11.120694 62.578282 C 11.445291 59.6112 11.878086 56.663768 12.419081 53.735987 C 12.901057 51.161898 13.50107 48.617282 14.248626 46.102139 C 14.897819 43.891565 15.704392 41.720292 16.648674 39.607968 C 17.504428 37.711787 18.517564 35.894202 19.678243 34.165043 C 20.779904 32.543956 22.029109 31.030941 23.416022 29.645648 C 24.802935 28.260355 26.31772 27.012609 27.940703 25.922059 C 29.671886 24.762737 31.501429 23.750785 33.409665 22.896029 C 35.514626 21.952852 37.688439 21.147221 39.911433 20.498786 C 42.429517 19.761928 44.986944 19.152792 47.564048 18.681203 C 50.495253 18.131016 53.455967 17.698726 56.426518 17.384332 C 59.790522 17.010992 63.174195 16.735898 66.557868 16.539402 C 70.384173 16.323257 74.210479 16.175886 78.036784 16.087463 C 82.335234 15.99904 86.633683 15.949916 90.932125 15.959741 C 90.932125 15.959741 90.932125 15.959741 90.941963 15.959741 L 165.06803 15.959741 C 165.077876 15.959741 165.077876 15.959741 165.077876 15.959741 Z"/>
  </g>
  <g>
   <path d="M 106.370102 65.198276 L 147.491967 65.198276 C 148.386125 65.198276 149.112069 65.924219 149.112069 66.818378 L 149.112069 73.733346 C 149.112069 74.627505 148.386125 75.353448 147.491967 75.353448 L 106.370102 75.353448 C 105.475943 75.353448 104.75 74.627505 104.75 73.733346 L 104.75 66.818378 C 104.75 65.924219 105.475943 65.198276 106.370102 65.198276 Z" style="fill:#3b3b3b"/>
   <defs>
    <filter id="7nAZKQeM9oazp3htXxyXrQ7fuVeOk3bB" width="400%" height="400%" x="-200%" y="-200%" color-interpolation-filters="sRGB" filterUnits="objectBoundingBox">
     <feGaussianBlur xmlns="http://www.w3.org/2000/svg" stdDeviation="4.294"/>
    </filter>
   </defs>
   <g opacity=".4" filter="url(#7nAZKQeM9oazp3htXxyXrQ7fuVeOk3bB)">
    <path d="M 188.931034 182.024644 L 188.931034 86.294532 C 188.931034 81.45033 184.998157 77.517452 180.153954 77.517452 L 75.846046 77.517452 C 71.001843 77.517452 67.068966 81.45033 67.068966 86.294532 L 67.068966 182.024644 C 67.068966 186.868846 71.001843 190.801724 75.846046 190.801724 L 180.153954 190.801724 C 184.998157 190.801724 188.931034 186.868846 188.931034 182.024644 Z"/>
   </g>
   <path d="M 188.931034 179.192537 L 188.931034 83.462425 C 188.931034 78.618223 184.998157 74.685345 180.153954 74.685345 L 75.846046 74.685345 C 71.001843 74.685345 67.068966 78.618223 67.068966 83.462425 L 67.068966 179.192537 C 67.068966 184.036739 71.001843 187.969617 75.846046 187.969617 L 180.153954 187.969617 C 184.998157 187.969617 188.931034 184.036739 188.931034 179.192537 Z" style="fill:#cccccc"/>
   <defs>
    <filter id="aFPmkhSRjvJ7WZevVcztKFrZCYdvXSKf" width="400%" height="400%" x="-200%" y="-200%" color-interpolation-filters="sRGB" filterUnits="objectBoundingBox">
     <feGaussianBlur xmlns="http://www.w3.org/2000/svg" stdDeviation="4.294"/>
    </filter>
   </defs>
   <g opacity=".4" filter="url(#aFPmkhSRjvJ7WZevVcztKFrZCYdvXSKf)">
    <path d="M 205.5 177.521883 L 205.5 79.156499 C 205.5 75.04367 202.160905 71.704576 198.048077 71.704576 L 57.951923 71.704576 C 53.839095 71.704576 50.5 75.04367 50.5 79.156499 L 50.5 177.521883 C 50.5 181.634712 53.839095 184.973806 57.951923 184.973806 L 198.048077 184.973806 C 202.160905 184.973806 205.5 181.634712 205.5 177.521883 Z"/>
   </g>
   <path d="M 205.5 174.541114 L 205.5 76.175729 C 205.5 72.062901 202.160905 68.723806 198.048077 68.723806 L 57.951923 68.723806 C 53.839095 68.723806 50.5 72.062901 50.5 76.175729 L 50.5 174.541114 C 50.5 178.653942 53.839095 181.993037 57.951923 181.993037 L 198.048077 181.993037 C 202.160905 181.993037 205.5 178.653942 205.5 174.541114 Z" style="fill:#3b3b3b"/>
   <g opacity=".4">
    <rect width="91.931" height="137.115" x="82.03" y="55.07" transform="matrix(0,1,-1,0,251.631631,-4.368369)"/>
   </g>
   <g opacity=".1">
    <path fill="#ffffff" d="M 57.951923 68.723806 C 53.823558 68.723806 50.5 72.047364 50.5 76.175729 L 50.5 79.156499 C 50.5 75.028133 53.823558 71.704576 57.951923 71.704576 L 198.048077 71.704576 C 202.176442 71.704576 205.5 75.028133 205.5 79.156499 L 205.5 76.175729 C 205.5 72.047364 202.176442 68.723806 198.048077 68.723806 L 57.951923 68.723806 Z"/>
   </g>
   <g opacity=".1">
    <rect fill="#ffffff" width="137.115" height="2.981" x="59.44" y="169.84" transform="matrix(1,0,0,1,0,0)"/>
   </g>
   <ellipse fill="#f22c42" cx="185.724" cy="177.239" rx="2.806" ry="2.739" vector-effect="non-scaling-stroke"/>
   <g opacity=".4">
    <path d="M 68.137931 174.5 L 90.051724 174.5 C 90.567955 174.5 90.987069 174.919114 90.987069 175.435345 L 90.987069 175.435345 C 90.987069 175.951576 90.567955 176.37069 90.051724 176.37069 L 68.137931 176.37069 C 67.6217 176.37069 67.202586 175.951576 67.202586 175.435345 L 67.202586 175.435345 C 67.202586 174.919114 67.6217 174.5 68.137931 174.5 Z" style="fill:#111111"/>
   </g>
   <g opacity=".4">
    <path d="M 68.137931 177.706897 L 90.051724 177.706897 C 90.567955 177.706897 90.987069 178.126011 90.987069 178.642241 L 90.987069 178.642241 C 90.987069 179.158472 90.567955 179.577586 90.051724 179.577586 L 68.137931 179.577586 C 67.6217 179.577586 67.202586 179.158472 67.202586 178.642241 L 67.202586 178.642241 C 67.202586 178.126011 67.6217 177.706897 68.137931 177.706897 Z" style="fill:#111111"/>
   </g>
   <g>
    <path fill="#a50034" d="M 128 180.507052 C 129.695623 180.507052 131.072761 179.133969 131.072761 177.437391 C 131.072761 175.740734 129.695623 174.366379 128 174.366379 C 126.301753 174.366379 124.927239 175.740734 124.927239 177.437391 C 124.927239 179.133969 126.301753 180.507052 128 180.507052 Z"/>
    <path fill="#ffffff" d="M 127.876374 176.08967 L 127.876374 178.783761 L 128.732852 178.783761 L 128.732852 178.541518 L 128.123228 178.541518 L 128.123228 176.08967 L 127.876374 176.08967 Z"/>
    <path fill="#ffffff" d="M 127.018784 176.824747 C 127.222548 176.824747 127.386799 176.659064 127.386799 176.456731 C 127.386799 176.254239 127.222548 176.087921 127.018784 176.087921 C 126.815019 176.087921 126.650768 176.254239 126.650768 176.456731 C 126.650768 176.659224 126.815019 176.824747 127.018784 176.824747 Z"/>
    <path fill="#ffffff" d="M 128.123149 174.867561 C 128.09103 174.865971 128.029972 174.863984 128.000795 174.863984 C 126.582475 174.863984 125.428182 176.018674 125.428182 177.436119 C 125.428182 178.124609 125.695707 178.769928 126.180274 179.25521 C 126.666827 179.739378 127.312465 180.006903 128.000795 180.006903 C 128.686502 180.006903 129.33198 179.739378 129.817659 179.25521 C 130.303418 178.769928 130.572215 178.124609 130.572215 177.436119 L 130.572215 177.321716 L 130.468147 177.321716 L 128.735237 177.321716 L 128.735237 177.558473 L 130.327189 177.558473 C 130.327189 177.563641 130.327189 177.588764 130.326076 177.595283 C 130.245143 178.807056 129.23308 179.766807 128.000795 179.766807 C 127.377021 179.766807 126.792123 179.524245 126.351919 179.083723 C 125.910284 178.64503 125.666928 178.060609 125.666928 177.43604 C 125.666928 176.815048 125.910284 176.227606 126.351919 175.787561 C 126.792123 175.347914 127.377021 175.105352 128.000795 175.105352 C 128.027667 175.105352 128.093018 175.105352 128.123149 175.106943 L 128.123149 174.867561 Z"/>
   </g>
  </g>
 </g>
</svg>
