<svg xmlns="http://www.w3.org/2000/svg" style="isolation:isolate" width="256" height="256" viewBox="0 0 256 256">
 <defs>
  <filter id="6vacn5XVACcg5CHVetuf5xivLCjuE6wo" width="400%" height="400%" x="-200%" y="-200%" color-interpolation-filters="sRGB" filterUnits="objectBoundingBox">
   <feGaussianBlur xmlns="http://www.w3.org/2000/svg" in="SourceGraphic" stdDeviation="4.294"/>
   <feOffset xmlns="http://www.w3.org/2000/svg" dx="0" dy="4" result="pf_100_offsetBlur"/>
   <feFlood xmlns="http://www.w3.org/2000/svg" flood-opacity=".4"/>
   <feComposite xmlns="http://www.w3.org/2000/svg" in2="pf_100_offsetBlur" operator="in" result="pf_100_dropShadow"/>
   <feBlend xmlns="http://www.w3.org/2000/svg" in="SourceGraphic" in2="pf_100_dropShadow" mode="normal"/>
  </filter>
 </defs>
 <g filter="url(#6vacn5XVACcg5CHVetuf5xivLCjuE6wo)">
  <linearGradient id="_lgradient_74" x1="0" x2="0" y1="0" y2="1" gradientTransform="matrix(244.648,0,0,228.338,5.43,11.452)" gradientUnits="userSpaceOnUse">
   <stop offset="0%" style="stop-color:#4c5561"/>
   <stop offset="100%" style="stop-color:#2e3842"/>
  </linearGradient>
  <path fill="url(#_lgradient_74)" d="M 165.439 11.452 C 239.495 11.452 250.078 22.009 250.078 95.995 L 250.078 155.246 C 250.078 229.233 239.495 239.79 165.439 239.79 L 90.069 239.79 C 16.014 239.79 5.43 229.233 5.43 155.246 L 5.43 95.995 C 5.43 22.009 16.014 11.452 90.069 11.452 L 165.439 11.452 Z"/>
 </g>
 <g opacity=".4">
  <linearGradient id="_lgradient_75" x1=".517" x2=".517" y1="0" y2="1" gradientTransform="matrix(244.65,0,0,228.34,5.68,11.95)" gradientUnits="userSpaceOnUse">
   <stop offset="0%" style="stop-color:#ffffff"/>
   <stop offset="12.5%" stop-opacity=".098" style="stop-color:#ffffff"/>
   <stop offset="92.5%" stop-opacity=".098" style="stop-color:#000000"/>
   <stop offset="100%" stop-opacity=".498" style="stop-color:#000000"/>
  </linearGradient>
  <path fill="url(#_lgradient_75)" fill-rule="evenodd" d="M 165.068 11.951 C 169.396 11.941 173.724 11.991 178.052 12.089 C 181.927 12.167 185.803 12.315 189.678 12.541 C 193.131 12.737 196.583 13.022 200.026 13.395 C 203.085 13.73 206.144 14.181 209.174 14.741 C 211.889 15.243 214.574 15.881 217.22 16.657 C 219.62 17.355 221.971 18.219 224.243 19.241 C 226.358 20.184 228.384 21.304 230.302 22.591 C 232.142 23.829 233.863 25.244 235.437 26.806 C 237.001 28.378 238.417 30.088 239.656 31.925 C 240.945 33.841 242.066 35.865 243.02 37.967 C 244.043 40.247 244.909 42.585 245.617 44.972 C 246.394 47.615 247.034 50.297 247.535 53.009 C 248.096 56.035 248.548 59.081 248.883 62.136 C 249.257 65.575 249.542 69.014 249.739 72.462 C 249.965 76.323 250.112 80.194 250.201 84.055 C 250.289 88.378 250.339 92.701 250.329 97.014 L 250.329 155.226 C 250.339 159.549 250.289 163.862 250.201 168.185 C 250.112 172.056 249.965 175.917 249.739 179.778 C 249.542 183.226 249.257 186.675 248.883 190.104 C 248.548 193.159 248.096 196.215 247.535 199.241 C 247.034 201.943 246.394 204.625 245.617 207.268 C 244.909 209.655 244.043 212.003 243.02 214.273 C 242.066 216.385 240.945 218.399 239.656 220.315 C 238.417 222.152 237.001 223.872 235.437 225.434 C 233.863 226.996 232.142 228.411 230.302 229.649 C 228.384 230.936 226.358 232.056 224.243 232.999 C 221.971 234.021 219.62 234.885 217.22 235.593 C 214.574 236.369 211.889 237.007 209.174 237.499 C 206.144 238.068 203.085 238.51 200.026 238.845 C 196.583 239.218 193.131 239.503 189.678 239.699 C 185.803 239.925 181.927 240.073 178.052 240.161 C 173.724 240.249 169.396 240.299 165.068 240.289 L 90.942 240.289 C 86.614 240.299 82.286 240.249 77.958 240.161 C 74.083 240.073 70.207 239.925 66.332 239.699 C 62.879 239.503 59.427 239.218 55.984 238.845 C 52.925 238.51 49.866 238.068 46.836 237.499 C 44.121 237.007 41.436 236.369 38.79 235.593 C 36.39 234.885 34.039 234.021 31.767 232.999 C 29.652 232.056 27.626 230.936 25.708 229.649 C 23.868 228.411 22.147 226.996 20.573 225.434 C 19.009 223.872 17.593 222.152 16.354 220.315 C 15.065 218.399 13.944 216.385 12.99 214.273 C 11.967 212.003 11.101 209.655 10.393 207.268 C 9.616 204.625 8.976 201.943 8.475 199.241 C 7.914 196.215 7.462 193.159 7.127 190.104 C 6.753 186.675 6.468 183.226 6.271 179.778 C 6.045 175.917 5.898 172.056 5.809 168.185 C 5.721 163.862 5.671 159.549 5.681 155.226 L 5.681 97.014 C 5.671 92.701 5.721 88.378 5.809 84.055 C 5.898 80.194 6.045 76.323 6.271 72.462 C 6.468 69.014 6.753 65.575 7.127 62.136 C 7.462 59.081 7.914 56.035 8.475 53.009 C 8.976 50.297 9.616 47.615 10.393 44.972 C 11.101 42.585 11.967 40.247 12.99 37.967 C 13.944 35.865 15.065 33.841 16.354 31.925 C 17.593 30.088 19.009 28.378 20.573 26.806 C 22.147 25.244 23.868 23.829 25.708 22.591 C 27.626 21.304 29.652 20.184 31.767 19.241 C 34.039 18.219 36.39 17.355 38.79 16.657 C 41.436 15.881 44.121 15.243 46.836 14.741 C 49.866 14.181 52.925 13.73 55.984 13.395 C 59.427 13.022 62.879 12.737 66.332 12.541 C 70.207 12.315 74.083 12.167 77.958 12.089 C 82.286 11.991 86.614 11.941 90.942 11.951 L 165.068 11.951 Z M 165.078 15.96 C 169.376 15.95 173.675 15.999 177.973 16.087 C 181.8 16.176 185.626 16.323 189.452 16.539 C 192.836 16.736 196.219 17.011 199.583 17.384 C 202.554 17.699 205.515 18.131 208.446 18.681 C 211.023 19.153 213.58 19.762 216.099 20.499 C 218.322 21.147 220.495 21.953 222.6 22.896 C 224.509 23.751 226.338 24.763 228.069 25.922 C 229.692 27.013 231.207 28.26 232.594 29.646 C 233.981 31.031 235.23 32.544 236.332 34.165 C 237.492 35.894 238.506 37.712 239.361 39.608 C 240.306 41.72 241.112 43.892 241.761 46.102 C 242.509 48.617 243.109 51.162 243.591 53.736 C 244.132 56.664 244.565 59.611 244.889 62.578 C 245.263 65.938 245.539 69.308 245.735 72.688 C 245.952 76.51 246.109 80.322 246.188 84.144 C 246.276 88.437 246.325 92.721 246.325 97.014 C 246.325 97.014 246.325 97.014 246.325 97.014 L 246.325 155.226 C 246.325 155.226 246.325 155.226 246.325 155.226 C 246.325 159.519 246.276 163.803 246.188 168.096 C 246.109 171.918 245.952 175.74 245.735 179.552 C 245.539 182.932 245.263 186.302 244.889 189.672 C 244.565 192.629 244.132 195.576 243.591 198.504 C 243.109 201.078 242.509 203.623 241.761 206.138 C 241.112 208.358 240.306 210.52 239.361 212.632 C 238.506 214.528 237.492 216.356 236.332 218.075 C 235.23 219.706 233.981 221.219 232.594 222.604 C 231.207 223.98 229.692 225.227 228.069 226.318 C 226.338 227.477 224.509 228.489 222.6 229.344 C 220.495 230.297 218.322 231.093 216.099 231.741 C 213.58 232.478 211.023 233.087 208.446 233.559 C 205.515 234.109 202.554 234.541 199.583 234.865 C 196.219 235.229 192.836 235.514 189.452 235.701 C 185.626 235.917 181.8 236.074 177.973 236.153 C 173.675 236.251 169.376 236.29 165.078 236.29 C 165.078 236.29 165.078 236.29 165.068 236.29 L 90.942 236.29 C 90.932 236.29 90.932 236.29 90.932 236.29 C 86.634 236.29 82.335 236.251 78.037 236.153 C 74.21 236.074 70.384 235.917 66.558 235.701 C 63.174 235.514 59.791 235.229 56.427 234.865 C 53.456 234.541 50.495 234.109 47.564 233.559 C 44.987 233.087 42.43 232.478 39.911 231.741 C 37.688 231.093 35.515 230.297 33.41 229.344 C 31.501 228.489 29.672 227.477 27.941 226.318 C 26.318 225.227 24.803 223.98 23.416 222.604 C 22.029 221.219 20.78 219.706 19.678 218.075 C 18.518 216.356 17.504 214.528 16.649 212.632 C 15.704 210.52 14.898 208.358 14.249 206.138 C 13.501 203.623 12.901 201.078 12.419 198.504 C 11.878 195.576 11.445 192.629 11.121 189.672 C 10.747 186.302 10.472 182.932 10.275 179.552 C 10.058 175.74 9.901 171.918 9.822 168.096 C 9.734 163.803 9.685 159.519 9.685 155.226 C 9.685 155.226 9.685 155.226 9.685 155.226 L 9.685 97.014 C 9.685 97.014 9.685 97.014 9.685 97.014 C 9.685 92.721 9.734 88.437 9.822 84.144 C 9.901 80.322 10.058 76.51 10.275 72.688 C 10.472 69.308 10.747 65.938 11.121 62.578 C 11.445 59.611 11.878 56.664 12.419 53.736 C 12.901 51.162 13.501 48.617 14.249 46.102 C 14.898 43.892 15.704 41.72 16.649 39.608 C 17.504 37.712 18.518 35.894 19.678 34.165 C 20.78 32.544 22.029 31.031 23.416 29.646 C 24.803 28.26 26.318 27.013 27.941 25.922 C 29.672 24.763 31.501 23.751 33.41 22.896 C 35.515 21.953 37.688 21.147 39.911 20.499 C 42.43 19.762 44.987 19.153 47.564 18.681 C 50.495 18.131 53.456 17.699 56.427 17.384 C 59.791 17.011 63.174 16.736 66.558 16.539 C 70.384 16.323 74.21 16.176 78.037 16.087 C 82.335 15.999 86.634 15.95 90.932 15.96 C 90.932 15.96 90.932 15.96 90.942 15.96 L 165.068 15.96 C 165.078 15.96 165.078 15.96 165.078 15.96 Z"/>
 </g>
 <g>
  <path d="M 167.411 58.727 L 172.791 61.833 C 173.747 62.385 174.075 63.609 173.523 64.565 L 160.205 87.634 C 159.653 88.59 158.428 88.918 157.472 88.366 L 152.092 85.259 C 151.136 84.708 150.808 83.483 151.36 82.527 L 164.679 59.459 C 165.231 58.503 166.455 58.175 167.411 58.727 Z" style="fill:#fdc92b"/>
  <radialGradient id="_rgradient_0" cx=".5" cy=".5" r=".5" fx=".5" fy=".5" gradientTransform="matrix(42.706,0,0,42.678,151.794,32.865)" gradientUnits="userSpaceOnUse">
   <stop offset="0%" style="stop-color:#ff4500"/>
   <stop offset="100%" style="stop-color:#dc153b"/>
  </radialGradient>
  <path fill="url(#_rgradient_0)" d="M 188.809 68.81 L 179.853 62.542 L 184.038 72.608 L 177.22 64.083 L 178.384 74.915 L 174.257 64.825 L 172.306 75.543 L 171.204 64.706 L 166.297 74.444 L 168.309 63.736 L 160.842 71.704 L 165.805 61.994 L 156.384 67.547 L 163.896 59.621 L 153.284 62.309 L 162.737 56.809 L 151.794 56.414 L 162.421 53.786 L 152.033 50.34 L 162.974 50.798 L 153.983 44.58 L 164.351 48.085 L 157.485 39.599 L 166.44 45.867 L 162.256 35.801 L 169.073 44.326 L 167.909 33.494 L 172.036 43.584 L 173.987 32.865 L 175.089 43.703 L 179.997 33.965 L 177.985 44.673 L 185.452 36.705 L 180.488 46.415 L 189.909 40.862 L 182.397 48.788 L 193.009 46.1 L 183.557 51.6 L 194.5 51.995 L 183.873 54.622 L 194.261 58.069 L 183.32 57.611 L 192.311 63.829 L 181.943 60.324 L 188.809 68.81 Z"/>
  <linearGradient id="_lgradient_76" x1="0" x2="0" y1="0" y2="1" gradientTransform="matrix(122.532,0,0,130.459,64.297,68.196)" gradientUnits="userSpaceOnUse">
   <stop offset="0%" style="stop-color:#2b2e30"/>
   <stop offset="100%" style="stop-color:#1e1f1f"/>
  </linearGradient>
  <path fill="url(#_lgradient_76)" d="M 149.534 68.655 C 147.9 67.712 145.827 68.268 144.883 69.901 L 140.255 77.916 C 113.778 71.377 86.166 83.125 72.517 106.736 C 55.597 136.042 65.637 173.515 94.943 190.436 C 124.249 207.356 161.723 197.315 178.643 168.01 C 192.258 144.386 188.624 114.607 169.728 94.951 L 174.362 86.924 C 175.305 85.291 174.749 83.217 173.116 82.274 L 149.532 68.657 L 149.534 68.655 Z"/>
  <path fill="#d9d9d9" d="M 120.406 91.415 C 119.503 91.408 118.681 91.446 117.962 91.502 C 111.197 92.105 102.375 98.13 94.895 107.27 C 87.665 116.105 85.578 123.165 88.662 128.363 C 92.136 134.217 96.158 137.546 101.767 139.224 C 106.565 140.659 107.998 141.529 112.108 145.507 C 118.742 151.926 121.028 152.649 134.976 152.687 C 140.868 152.706 147.962 152.463 150.743 152.158 C 154.855 151.708 156.591 151.183 159.988 149.326 C 168.997 144.401 170.45 141.053 167.796 131.405 C 166.969 128.395 165.617 122.037 164.794 117.273 C 163.972 112.509 162.939 107.872 162.491 106.97 C 160.496 102.959 154.08 99.098 143.024 95.252 C 136.965 93.145 126.724 91.457 120.406 91.413 L 120.406 91.415 Z M 116.486 111.84 C 121.846 112.066 123.057 116.765 123.029 120.786 C 123.029 126.464 122.211 128.658 119.279 130.829 C 117.089 132.45 111.735 132.784 110.134 131.397 C 108.46 129.948 107.71 127.235 107.71 122.631 C 107.71 115.697 110.842 111.842 116.486 111.84 L 116.486 111.84 Z M 143.682 111.84 L 143.693 111.84 C 145.015 111.821 146.429 112.238 148.121 113.087 C 149.871 113.965 151.835 115.386 152.489 116.238 C 154.047 118.271 154.055 122.844 152.519 127.937 C 150.196 135.623 145.573 138.722 139.215 136.833 C 136.769 136.105 133.881 132.658 133.361 129.832 C 132.521 125.265 136.263 115.593 139.784 113.227 C 141.125 112.324 142.361 111.865 143.683 111.84 L 143.682 111.84 Z M 98.904 142.478 C 96.757 142.466 94.475 143.178 92.283 144.632 C 89.596 146.413 84.351 152.605 82.958 155.652 C 80.322 161.418 84.698 170.329 91.265 172.556 C 93.576 173.34 93.612 173.335 95.703 172.327 C 98.189 171.128 99.41 169.516 103.721 161.715 C 106.634 156.445 107.41 154.474 107.621 151.792 C 107.859 148.758 107.702 148.222 106.015 146.048 C 104.193 143.7 101.665 142.492 98.904 142.477 L 98.904 142.478 Z M 120.146 157.796 C 115.19 157.796 111.669 160.91 109.376 167.301 C 107.388 172.839 107.163 177.542 108.807 179.188 C 111.672 182.057 122.285 184.376 125.522 182.839 C 126.873 182.197 127.293 181.243 127.935 177.353 C 128.55 173.63 127.695 165.314 126.369 162.105 C 125.187 159.243 123.095 157.796 120.146 157.796 Z M 143.403 157.796 C 142.958 157.793 142.443 157.815 141.827 157.864 C 138.155 158.145 136.17 159.393 134.397 162.541 C 133.216 164.64 133.107 165.409 133.35 169.662 C 133.654 174.967 134.471 177.685 135.903 178.079 C 137.442 178.503 144.357 177.881 147.392 177.042 C 151.125 176.01 153.665 173.982 153.665 172.046 C 153.665 169.978 148.291 160.165 146.395 158.771 C 145.444 158.073 144.736 157.805 143.403 157.794 L 143.403 157.796 Z"/>
 </g>
</svg>
