<svg xmlns="http://www.w3.org/2000/svg" xmlns:xlink="http://www.w3.org/1999/xlink" style="isolation:isolate" width="16" height="16" viewBox="0 0 16 16">
 <defs>
   <style id="current-color-scheme" type="text/css">
   .ColorScheme-Text { color:#eff0f2; } .ColorScheme-Highlight { color:#5294e2; }
  </style>
  <linearGradient id="arrongin" x1="0%" x2="0%" y1="0%" y2="100%">
   <stop offset="0%" style="stop-color:#dd9b44; stop-opacity:1"/>
   <stop offset="100%" style="stop-color:#ad6c16; stop-opacity:1"/>
  </linearGradient>
  <linearGradient id="aurora" x1="0%" x2="0%" y1="0%" y2="100%">
   <stop offset="0%" style="stop-color:#09D4DF; stop-opacity:1"/>
   <stop offset="100%" style="stop-color:#9269F4; stop-opacity:1"/>
  </linearGradient>
  <linearGradient id="fitdance" x1="0%" x2="0%" y1="0%" y2="100%">
   <stop offset="0%" style="stop-color:#1AD6AB; stop-opacity:1"/>
   <stop offset="100%" style="stop-color:#329DB6; stop-opacity:1"/>
  </linearGradient>
  <linearGradient id="oomox" x1="0%" x2="0%" y1="0%" y2="100%">
   <stop offset="0%" style="stop-color:#928374; stop-opacity:1"/>
   <stop offset="100%" style="stop-color:#928374; stop-opacity:1"/>
  </linearGradient>
  <linearGradient id="rainblue" x1="0%" x2="0%" y1="0%" y2="100%">
   <stop offset="0%" style="stop-color:#00F260; stop-opacity:1"/>
   <stop offset="100%" style="stop-color:#0575E6; stop-opacity:1"/>
  </linearGradient>
  <linearGradient id="sunrise" x1="0%" x2="0%" y1="0%" y2="100%">
   <stop offset="0%" style="stop-color: #FF8501; stop-opacity:1"/>
   <stop offset="100%" style="stop-color: #FFCB01; stop-opacity:1"/>
  </linearGradient>
  <linearGradient id="telinkrin" x1="0%" x2="0%" y1="0%" y2="100%">
   <stop offset="0%" style="stop-color: #b2ced6; stop-opacity:1"/>
   <stop offset="100%" style="stop-color: #6da5b7; stop-opacity:1"/>
  </linearGradient>
  <linearGradient id="60spsycho" x1="0%" x2="0%" y1="0%" y2="100%">
   <stop offset="0%" style="stop-color: #df5940; stop-opacity:1"/>
   <stop offset="25%" style="stop-color: #d8d15f; stop-opacity:1"/>
   <stop offset="50%" style="stop-color: #e9882a; stop-opacity:1"/>
   <stop offset="100%" style="stop-color: #279362; stop-opacity:1"/>
  </linearGradient>
  <linearGradient id="90ssummer" x1="0%" x2="0%" y1="0%" y2="100%">
   <stop offset="0%" style="stop-color: #f618c7; stop-opacity:1"/>
   <stop offset="20%" style="stop-color: #94ffab; stop-opacity:1"/>
   <stop offset="50%" style="stop-color: #fbfd54; stop-opacity:1"/>
   <stop offset="100%" style="stop-color: #0f83ae; stop-opacity:1"/>
  </linearGradient>
 </defs>
   <path style="fill:url(#oomox);" class="ColorScheme-Text" d="M 14.666282 15.619777 C 14.516761 15.597653 14.389874 15.531285 14.287143 15.420926 C 14.060831 15.178084 13.688305 14.464309 13.382909 13.687726 C 13.211269 13.25163 12.882988 12.291453 12.882988 12.225849 C 12.882988 12.205252 13.099637 12.062089 13.364347 11.907994 L 13.845706 11.627772 L 13.92123 11.698463 C 14.220266 11.979193 15.081018 13.265107 15.582974 14.180783 C 15.783859 14.546953 15.803948 14.599081 15.803184 14.750125 C 15.802167 14.951263 15.73885 15.091629 15.559836 15.290732 C 15.345474 15.529251 14.975744 15.665292 14.666282 15.619777 L 14.666282 15.619777 Z M 0.36001 15.38075 C 0.369164 15.356084 0.515632 14.695454 0.685748 13.912259 C 0.855609 13.129318 0.998517 12.483947 1.003094 12.478098 C 1.018351 12.458517 2.556514 13.537445 2.556006 13.567706 C 2.556006 13.584233 2.111263 13.966167 1.568113 14.416759 C 0.345007 15.431352 0.339921 15.43542 0.36001 15.38075 Z M 1.988953 12.618209 C 1.560484 12.321968 1.213133 12.066921 1.217201 12.051663 C 1.227373 12.015301 4.909151 5.7828 4.93941 5.751269 C 4.956192 5.733723 6.565047 6.745266 6.640316 6.820533 C 6.65659 6.836808 2.828598 13.14305 2.798084 13.15017 C 2.78181 13.153984 2.417676 12.914704 1.988953 12.618209 Z M 12.094198 10.97121 C 11.800246 10.475866 11.56427 10.067741 11.569611 10.063925 C 11.621994 10.027055 12.735249 9.387022 12.747199 9.387022 C 12.765507 9.387022 13.700256 11.248381 13.686524 11.258044 C 13.565994 11.342211 12.673965 11.874173 12.654895 11.873157 C 12.640401 11.872392 12.387896 11.466557 12.094198 10.97121 L 12.094198 10.97121 Z M 0.011641 10.877889 C 0.001469 10.791431 -0.002853 10.093931 0.001978 9.328028 L 0.011132 7.935569 L 1.554382 7.945232 C 2.403436 7.949809 3.101445 7.957691 3.105768 7.962014 C 3.110091 7.965828 2.701711 8.659516 2.197974 9.502722 L 1.282298 11.035546 L 0.65625 11.035546 L 0.030204 11.035546 L 0.011641 10.877889 Z M 4.641389 10.990791 C 4.641389 10.983163 5.060449 10.288458 5.572832 9.447542 L 6.504528 7.918532 L 8.158137 7.918532 L 9.811491 7.918532 L 10.695382 9.390582 C 11.181573 10.200222 11.596564 10.894926 11.61767 10.934086 L 11.656067 11.005285 L 8.148728 11.005285 C 6.21973 11.005285 4.641389 10.998419 4.641389 10.990791 L 4.641389 10.990791 Z M 13.66364 10.338552 C 13.48564 9.97162 13.150493 9.283783 12.919096 8.810051 L 12.498002 7.948282 L 13.642026 7.948282 C 14.271378 7.948282 15.05915 7.939637 15.393024 7.928449 L 16 7.908869 L 16 9.457205 L 16 11.005285 L 14.993544 11.005285 L 13.987342 11.005285 L 13.66364 10.338552 L 13.66364 10.338552 Z M 11.109356 9.349388 C 10.431691 8.281904 9.741309 7.027521 8.911834 5.356111 C 8.253748 4.030021 7.620326 2.659177 7.358922 1.994986 C 6.980294 1.032776 6.889768 0.434446 7.114556 0.378249 C 7.474113 0.287978 8.177716 1.104484 9.179595 2.774367 C 9.964315 4.082404 11.219971 6.368162 12.177858 8.233081 C 12.355856 8.579162 12.533093 8.918376 12.571743 8.986778 L 12.64218 9.111378 L 12.045121 9.458984 C 11.71684 9.649951 11.437128 9.806591 11.423651 9.806591 C 11.410429 9.806591 11.268793 9.600874 11.109356 9.349388 L 11.109356 9.349388 Z M 5.921709 6.041152 L 5.089184 5.492408 L 5.167757 5.36781 C 5.210986 5.299406 5.429161 4.951801 5.652423 4.595294 C 5.875684 4.239042 6.061819 3.943055 6.066142 3.937971 C 6.070465 3.93314 6.44528 4.173182 6.899431 4.471967 L 7.725091 5.015626 L 7.602018 5.215748 C 7.534632 5.325853 7.331205 5.65871 7.150409 5.955459 C 6.969359 6.251954 6.806109 6.516156 6.787801 6.542346 C 6.758812 6.583541 6.640061 6.514885 5.921709 6.041152 L 5.921709 6.041152 Z M 6.984108 4.259131 C 6.552841 3.977384 6.199641 3.733526 6.199641 3.717252 C 6.199641 3.598247 6.556402 3.267678 6.732112 3.223432 C 7.021487 3.150961 7.495726 3.336334 7.760182 3.625456 C 7.964372 3.848971 8.009127 3.958314 7.990055 4.187168 C 7.975561 4.359827 7.834942 4.771513 7.790188 4.771513 C 7.778236 4.771513 7.415627 4.541133 6.984108 4.259131 L 6.984108 4.259131 Z"/>
</svg>
