<svg xmlns="http://www.w3.org/2000/svg" xmlns:xlink="http://www.w3.org/1999/xlink" width="256" height="256" viewBox="0 0 67.733 67.733"><defs><linearGradient id="a"><stop offset="0" stop-color="#18a303"/><stop offset="1" stop-color="#106802"/></linearGradient><linearGradient id="c"><stop offset="0" stop-opacity="0"/><stop offset=".493"/><stop offset="1" stop-opacity="0"/></linearGradient><linearGradient id="b"><stop offset="0" stop-color="#125a00"/><stop offset="1" stop-color="#69ce00" stop-opacity="0"/></linearGradient><linearGradient id="d"><stop offset="0" stop-color="#fff"/><stop offset="1" stop-color="#f5ffaa" stop-opacity="0"/></linearGradient><linearGradient id="e"><stop offset="0" stop-color="gray"/><stop offset="1" stop-color="#b3b3b3"/></linearGradient><linearGradient id="f"><stop offset="0" stop-color="#f2f2f2"/><stop offset="1" stop-color="#fff"/></linearGradient><linearGradient id="g"><stop offset="0" stop-opacity=".502"/><stop offset="1" stop-opacity="0"/></linearGradient><linearGradient id="h"><stop offset="0"/><stop offset=".455" stop-opacity=".361"/><stop offset="1" stop-opacity="0"/></linearGradient><linearGradient id="i"><stop offset="0" stop-color="#63bbee"/><stop offset="1" stop-color="#aadcf7"/></linearGradient><linearGradient id="j"><stop offset="0" stop-color="#f09e6f"/><stop offset="1" stop-color="#f9cfb5"/></linearGradient><linearGradient id="k"><stop offset="0" stop-color="#f5ce53"/><stop offset="1" stop-color="#fde9a9"/></linearGradient><linearGradient id="l"><stop offset="0" stop-color="#8ee780"/><stop offset="1" stop-color="#ccf4c6"/></linearGradient><linearGradient id="m"><stop offset="0" stop-color="#4a00ff"/><stop offset="1" stop-color="#00a0c1" stop-opacity="0"/></linearGradient><linearGradient id="n"><stop offset="0" stop-color="maroon"/><stop offset="1" stop-color="#ffc600" stop-opacity="0"/></linearGradient><linearGradient id="o"><stop offset="0" stop-color="#fff" stop-opacity="0"/><stop offset=".493" stop-color="#fff"/><stop offset="1" stop-color="#fff" stop-opacity="0"/></linearGradient><linearGradient id="p"><stop offset="0" stop-color="#003362"/><stop offset="1" stop-color="#00ff8c" stop-opacity="0"/></linearGradient><linearGradient id="q"><stop offset="0" stop-color="red"/><stop offset="1" stop-color="#d3d300" stop-opacity="0"/></linearGradient><linearGradient id="r"><stop offset="0" stop-color="#259dd2"/><stop offset="1" stop-color="#025583"/></linearGradient><linearGradient id="s"><stop offset="0" stop-color="#259dd2"/><stop offset="1" stop-color="#065d8d"/></linearGradient><linearGradient id="t"><stop offset="0" stop-color="#000061"/><stop offset="1" stop-color="#006f86" stop-opacity="0"/></linearGradient><linearGradient id="u"><stop offset="0" stop-color="#44adeb"/><stop offset="1" stop-color="#aadcf7"/></linearGradient><linearGradient id="v"><stop offset="0" stop-color="#666"/><stop offset="1" stop-color="#333"/></linearGradient><linearGradient id="w"><stop offset="0" stop-color="#fff"/><stop offset="1" stop-color="#fff" stop-opacity="0"/></linearGradient><linearGradient id="x"><stop offset="0" stop-color="#666"/><stop offset="1" stop-color="#1a1a1a"/></linearGradient><linearGradient id="y"><stop offset="0" stop-color="#0369a3"/><stop offset="1" stop-color="#047fc6"/></linearGradient><linearGradient id="z"><stop offset="0" stop-color="#666"/><stop offset="1" stop-color="#666" stop-opacity=".5"/></linearGradient><linearGradient id="A"><stop offset="0" stop-color="#fff"/><stop offset="1" stop-color="#00a8ff" stop-opacity="0"/></linearGradient><linearGradient id="B"><stop offset="0" stop-color="gray"/><stop offset="1" stop-color="#666"/></linearGradient><linearGradient id="C"><stop offset="0" stop-color="#e9b913"/><stop offset="1" stop-color="#ff0"/></linearGradient><linearGradient gradientUnits="userSpaceOnUse" y2="119.093" x2="-35.31" y1="401.584" x1="529.655" id="I" xlink:href="#D" gradientTransform="matrix(0 -.11989 -.11989 0 67.016 292.548)"/><linearGradient id="D"><stop offset="0" stop-color="#fdc92b"/><stop offset="1" stop-color="#fee581"/></linearGradient><linearGradient xlink:href="#E" id="G" x1="88" y1="88" x2="488" y2="488" gradientUnits="userSpaceOnUse"/><linearGradient id="E"><stop offset="0" stop-opacity=".588"/><stop offset=".88" stop-opacity="0"/><stop offset="1"/></linearGradient><filter id="H" x="-.053" width="1.106" y="-.044" height="1.088" color-interpolation-filters="sRGB"><feGaussianBlur stdDeviation="8.48"/></filter><filter id="F" x="-.013" width="1.026" y="-.011" height="1.022" color-interpolation-filters="sRGB"><feGaussianBlur stdDeviation="2.12"/></filter></defs><g color="#000"><path style="marker:none" d="M189.843 74c-70.593 0-78.189 7.25-77.843 77.987v292.026c-.346 70.736 7.25 77.987 77.843 77.987h196.314c70.593 0 76.006-7.274 77.843-77.987V151.987C464 81.25 456.75 74 386.157 74z" transform="matrix(.1323 0 0 .1323 -4.41 -5.51)" overflow="visible" opacity=".1" filter="url(#F)" enable-background="accumulate"/><path d="M189.843 74c-70.593 0-78.189 7.25-77.843 77.987v292.026c-.346 70.736 7.25 77.987 77.843 77.987h196.314C456.75 522 464 514.75 464 444.013V151.987C464 81.25 456.75 74 386.157 74z" style="marker:none" transform="matrix(.1323 0 0 .1323 -4.41 -5.51)" overflow="visible" opacity=".3" fill="url(#G)" filter="url(#H)" enable-background="accumulate"/><path style="marker:none" d="M46.674 233.282c9.34 0 10.344.959 10.298 10.317v38.632c.046 9.358-.959 10.317-10.298 10.317h-25.97c-9.34 0-10.298-.959-10.298-10.317V243.6c0-9.358.959-10.317 10.298-10.317z" overflow="visible" fill="url(#I)" enable-background="accumulate" transform="translate(0 -229.267)"/><path style="marker:none" d="M31.574 32.59v6.88c0 .292.236.528.529.528h3.175c.293 0 .529-.236.529-.529V32.59zm1.058 4.233h2.117v2.117h-2.117zM33.69 4.015v2.117h2.117V4.015zm0 2.117h-2.116v2.116h2.116zm0 2.116v2.117h2.117V8.248zm0 2.117h-2.116v2.117h2.116zm0 2.117v2.116h2.117v-2.116zm0 2.116h-2.116v2.117h2.116zm0 2.117v2.117h2.117v-2.117zm0 2.117h-2.116v2.116h2.116zm0 2.116v2.117h2.117v-2.117zm0 2.117h-2.116v2.117h2.116zm0 2.117v2.116h2.117v-2.116zm0 2.116h-2.116v2.117h2.116zm0 2.117v2.117h2.117v-2.117z" overflow="visible" opacity=".5" fill="#111" enable-background="accumulate"/><path style="marker:none" d="M33.69 4.015v59.267h12.986c9.339 0 10.055-.963 10.298-10.317V14.332c0-9.358-.96-10.317-10.298-10.317z" overflow="visible" opacity=".08" fill="#fff" enable-background="accumulate"/><path style="marker:none" d="M10.407 33.648v19.317c-.046 9.358.96 10.317 10.298 10.317h25.97c9.34 0 10.056-.963 10.299-10.317V33.648z" overflow="visible" opacity=".08" fill="#fff" enable-background="accumulate"/><path style="marker:none" d="M41.099 63.282l15.875-15.875v5.949c-.014 8.994-1.006 9.926-10.1 9.926z" overflow="visible" opacity=".08" fill="#fff" enable-background="accumulate"/><path style="marker:none" d="M10.407 52.435v.53c-.046 9.357.96 10.317 10.298 10.317h25.97c9.34 0 10.056-.963 10.299-10.318v-.529c-.243 9.355-.96 10.317-10.298 10.317h-25.97c-9.34 0-10.345-.959-10.299-10.317z" overflow="visible" opacity=".2" enable-background="accumulate"/><path style="marker:none" d="M20.705 4.015c-9.339 0-10.344.96-10.298 10.317v.53c-.046-9.358.96-10.318 10.298-10.318h25.97c9.34 0 10.299.96 10.299 10.317v-.529c0-9.358-.96-10.317-10.298-10.317z" overflow="visible" opacity=".4" fill="#fff" enable-background="accumulate"/></g></svg>