<svg xmlns="http://www.w3.org/2000/svg" style="isolation:isolate" width="16" height="16" viewBox="0 0 16 16">
 <defs>
  <style id="current-color-scheme" type="text/css">
   .ColorScheme-Text { color:#eff0f2; } .ColorScheme-Highlight { color:#5294e2; }
  </style>
  <linearGradient id="arrongin" x1="0%" x2="0%" y1="0%" y2="100%">
   <stop offset="0%" style="stop-color:#dd9b44; stop-opacity:1"/>
   <stop offset="100%" style="stop-color:#ad6c16; stop-opacity:1"/>
  </linearGradient>
  <linearGradient id="aurora" x1="0%" x2="0%" y1="0%" y2="100%">
   <stop offset="0%" style="stop-color:#09D4DF; stop-opacity:1"/>
   <stop offset="100%" style="stop-color:#9269F4; stop-opacity:1"/>
  </linearGradient>
  <linearGradient id="fitdance" x1="0%" x2="0%" y1="0%" y2="100%">
   <stop offset="0%" style="stop-color:#1AD6AB; stop-opacity:1"/>
   <stop offset="100%" style="stop-color:#329DB6; stop-opacity:1"/>
  </linearGradient>
  <linearGradient id="oomox" x1="0%" x2="0%" y1="0%" y2="100%">
   <stop offset="0%" style="stop-color:#928374; stop-opacity:1"/>
   <stop offset="100%" style="stop-color:#928374; stop-opacity:1"/>
  </linearGradient>
  <linearGradient id="rainblue" x1="0%" x2="0%" y1="0%" y2="100%">
   <stop offset="0%" style="stop-color:#00F260; stop-opacity:1"/>
   <stop offset="100%" style="stop-color:#0575E6; stop-opacity:1"/>
  </linearGradient>
  <linearGradient id="sunrise" x1="0%" x2="0%" y1="0%" y2="100%">
   <stop offset="0%" style="stop-color: #FF8501; stop-opacity:1"/>
   <stop offset="100%" style="stop-color: #FFCB01; stop-opacity:1"/>
  </linearGradient>
  <linearGradient id="telinkrin" x1="0%" x2="0%" y1="0%" y2="100%">
   <stop offset="0%" style="stop-color: #b2ced6; stop-opacity:1"/>
   <stop offset="100%" style="stop-color: #6da5b7; stop-opacity:1"/>
  </linearGradient>
  <linearGradient id="60spsycho" x1="0%" x2="0%" y1="0%" y2="100%">
   <stop offset="0%" style="stop-color: #df5940; stop-opacity:1"/>
   <stop offset="25%" style="stop-color: #d8d15f; stop-opacity:1"/>
   <stop offset="50%" style="stop-color: #e9882a; stop-opacity:1"/>
   <stop offset="100%" style="stop-color: #279362; stop-opacity:1"/>
  </linearGradient>
  <linearGradient id="90ssummer" x1="0%" x2="0%" y1="0%" y2="100%">
   <stop offset="0%" style="stop-color: #f618c7; stop-opacity:1"/>
   <stop offset="20%" style="stop-color: #94ffab; stop-opacity:1"/>
   <stop offset="50%" style="stop-color: #fbfd54; stop-opacity:1"/>
   <stop offset="100%" style="stop-color: #0f83ae; stop-opacity:1"/>
  </linearGradient>
  <clipPath id="_clipPath_yYr2Jtc5GcwZoxCkDQTDIEKXT779e9bU">
   <rect width="16" height="16"/>
  </clipPath>
 </defs>
 <g clip-path="url(#_clipPath_yYr2Jtc5GcwZoxCkDQTDIEKXT779e9bU)">
  <rect style="fill:url(#oomox)" class="ColorScheme-Text" width="4.625" height="3.594" x="16.34" y=".34" transform="matrix(1,0,0,1,0,0)"/>
  <path style="fill:url(#oomox)" class="ColorScheme-Text" d="M 7.499 1 C 6.988 1 6.509 1.22 6.177 1.602 C 5.302 1.407 4.502 1.995 4.309 2.796 C 4.121 2.718 3.92 2.678 3.716 2.677 C 2.837 2.677 2.121 3.397 2.121 4.281 C 2.121 4.319 2.127 4.352 2.13 4.391 C 1.484 4.6 1.018 5.21 1.018 5.913 C 1.018 6.695 1.585 7.348 2.322 7.49 C 2.214 7.697 2.146 7.922 2.121 8.155 C 1.453 8.36 0.998 8.978 1 9.677 C 1 10.602 1.779 11.366 2.723 11.281 C 2.936 11.923 3.536 12.375 4.227 12.375 C 4.706 12.375 5.146 12.16 5.448 11.792 C 5.581 11.819 5.708 11.837 5.831 11.837 C 6.188 11.836 6.539 11.745 6.852 11.573 C 7.3 11.724 7.792 11.674 8.201 11.436 C 8.434 11.634 8.729 11.737 9.039 11.737 C 9.428 11.739 9.797 11.565 10.042 11.263 C 10.534 11.398 11.068 11.33 11.518 11.081 C 11.811 11.55 12.324 11.835 12.876 11.837 C 13.756 11.837 14.471 11.117 14.471 10.233 C 14.472 9.792 14.29 9.37 13.97 9.066 C 14.583 8.836 15 8.24 15 7.563 C 15 6.837 14.509 6.203 13.806 6.022 C 13.66 5.485 13.246 5.061 12.712 4.901 C 12.795 4.708 12.839 4.5 12.84 4.29 C 12.84 3.406 12.124 2.686 11.245 2.686 C 10.97 2.684 10.7 2.753 10.461 2.887 C 10.183 2.408 9.675 2.11 9.121 2.103 C 8.858 1.437 8.215 0.999 7.498 1 L 7.499 1 Z M 8.146 12.102 C 7.898 12.193 7.635 12.239 7.371 12.238 C 7.215 12.239 7.059 12.224 6.906 12.193 C 6.869 12.209 6.836 12.223 6.797 12.238 C 6.82 12.456 6.833 12.698 6.833 12.958 C 6.833 13.709 6.371 13.815 5.603 13.897 C 5.199 13.94 4.847 13.978 4.682 14.252 C 4.589 14.409 4.584 14.599 4.673 14.818 C 4.718 14.928 4.828 15 4.947 15 L 11.044 15 C 11.206 15 11.336 14.87 11.336 14.708 C 11.336 14.155 10.771 14.12 10.434 14.098 C 9.838 14.059 9.474 13.992 9.458 13.241 C 9.455 13.081 9.472 12.668 9.495 12.257 C 9.344 12.295 9.197 12.329 9.039 12.329 C 8.727 12.328 8.42 12.25 8.146 12.101 L 8.146 12.102 Z"/>
 </g>
</svg>
