<svg xmlns="http://www.w3.org/2000/svg" style="isolation:isolate" width="16" height="16" viewBox="0 0 16 16">
 <defs>
  <style id="current-color-scheme" type="text/css">
   .ColorScheme-Text { color:#eff0f2; } .ColorScheme-Highlight { color:#5294e2; }
  </style>
  <linearGradient id="arrongin" x1="0%" x2="0%" y1="0%" y2="100%">
   <stop offset="0%" style="stop-color:#dd9b44; stop-opacity:1"/>
   <stop offset="100%" style="stop-color:#ad6c16; stop-opacity:1"/>
  </linearGradient>
  <linearGradient id="aurora" x1="0%" x2="0%" y1="0%" y2="100%">
   <stop offset="0%" style="stop-color:#09D4DF; stop-opacity:1"/>
   <stop offset="100%" style="stop-color:#9269F4; stop-opacity:1"/>
  </linearGradient>
  <linearGradient id="fitdance" x1="0%" x2="0%" y1="0%" y2="100%">
   <stop offset="0%" style="stop-color:#1AD6AB; stop-opacity:1"/>
   <stop offset="100%" style="stop-color:#329DB6; stop-opacity:1"/>
  </linearGradient>
  <linearGradient id="oomox" x1="0%" x2="0%" y1="0%" y2="100%">
   <stop offset="0%" style="stop-color:#928374; stop-opacity:1"/>
   <stop offset="100%" style="stop-color:#928374; stop-opacity:1"/>
  </linearGradient>
  <linearGradient id="rainblue" x1="0%" x2="0%" y1="0%" y2="100%">
   <stop offset="0%" style="stop-color:#00F260; stop-opacity:1"/>
   <stop offset="100%" style="stop-color:#0575E6; stop-opacity:1"/>
  </linearGradient>
  <linearGradient id="sunrise" x1="0%" x2="0%" y1="0%" y2="100%">
   <stop offset="0%" style="stop-color: #FF8501; stop-opacity:1"/>
   <stop offset="100%" style="stop-color: #FFCB01; stop-opacity:1"/>
  </linearGradient>
  <linearGradient id="telinkrin" x1="0%" x2="0%" y1="0%" y2="100%">
   <stop offset="0%" style="stop-color: #b2ced6; stop-opacity:1"/>
   <stop offset="100%" style="stop-color: #6da5b7; stop-opacity:1"/>
  </linearGradient>
  <linearGradient id="60spsycho" x1="0%" x2="0%" y1="0%" y2="100%">
   <stop offset="0%" style="stop-color: #df5940; stop-opacity:1"/>
   <stop offset="25%" style="stop-color: #d8d15f; stop-opacity:1"/>
   <stop offset="50%" style="stop-color: #e9882a; stop-opacity:1"/>
   <stop offset="100%" style="stop-color: #279362; stop-opacity:1"/>
  </linearGradient>
  <linearGradient id="90ssummer" x1="0%" x2="0%" y1="0%" y2="100%">
   <stop offset="0%" style="stop-color: #f618c7; stop-opacity:1"/>
   <stop offset="20%" style="stop-color: #94ffab; stop-opacity:1"/>
   <stop offset="50%" style="stop-color: #fbfd54; stop-opacity:1"/>
   <stop offset="100%" style="stop-color: #0f83ae; stop-opacity:1"/>
  </linearGradient>
 </defs>
 <path style="fill:url(#oomox)" class="ColorScheme-Text" d="M 7.92 0 C 7.346 0.002 6.772 0.064 6.209 0.189 C 4.185 0.638 2.435 1.877 1.182 3.746 C 0.651 4.54 0.169 5.643 0.169 6.065 C 0.169 6.427 0.588 6.614 0.868 6.378 C 0.933 6.323 0.998 6.222 1.014 6.152 C 1.156 5.498 1.658 4.515 2.24 3.752 C 2.726 3.114 3.617 2.31 4.304 1.888 C 6.451 0.569 9.382 0.543 11.543 1.822 C 12.896 2.623 14.003 3.953 14.652 5.558 C 14.793 5.906 15.024 6.67 15.024 6.787 C 15.024 6.821 14.817 6.643 14.563 6.393 C 14.012 5.849 13.957 5.81 13.742 5.81 C 13.504 5.81 13.338 5.963 13.31 6.209 C 13.299 6.308 13.305 6.417 13.324 6.45 C 13.365 6.522 15.115 8.293 15.254 8.402 C 15.394 8.512 15.654 8.501 15.8 8.379 C 15.992 8.217 16.018 8.101 15.991 7.523 C 15.891 5.368 14.542 2.925 12.683 1.53 C 11.35 0.53 9.64 -0.005 7.92 0 L 7.92 0 Z M 0 7.892 L 0.024 8.449 C 0.064 9.398 0.332 10.375 0.832 11.398 C 1.84 13.46 3.494 14.951 5.501 15.608 C 6.083 15.798 6.509 15.887 7.283 15.979 C 7.615 16.019 8.679 15.999 9.093 15.945 C 11.444 15.64 13.522 14.282 14.899 12.151 C 15.345 11.461 15.781 10.461 15.835 10.003 C 15.856 9.824 15.849 9.804 15.719 9.674 C 15.602 9.557 15.553 9.535 15.41 9.536 C 15.142 9.537 15.077 9.615 14.901 10.143 C 14.299 11.95 12.841 13.606 11.12 14.44 C 9.725 15.115 8.133 15.303 6.538 14.981 C 4.727 14.617 3.159 13.515 2.079 11.848 C 1.673 11.221 1.249 10.279 1.091 9.653 C 1.055 9.513 1.017 9.362 1.005 9.319 C 0.993 9.276 1.222 9.477 1.515 9.765 L 2.047 10.29 L 2.248 10.271 C 2.521 10.244 2.642 10.124 2.668 9.848 L 2.687 9.645 L 1.672 8.629 L 0.657 7.613 C 0.657 7.613 0.464 7.484 0.226 7.591 C -0.013 7.697 0 7.891 0 7.891 L 0 7.892 Z"/>
</svg>
