<svg xmlns="http://www.w3.org/2000/svg" style="isolation:isolate" width="16" height="16" viewBox="0 0 16 16">
 <defs>
  <style id="current-color-scheme" type="text/css">
   .ColorScheme-Text { color:#eff0f2; } .ColorScheme-Highlight { color:#5294e2; }
  </style>
  <linearGradient id="arrongin" x1="0%" x2="0%" y1="0%" y2="100%">
   <stop offset="0%" style="stop-color:#dd9b44; stop-opacity:1"/>
   <stop offset="100%" style="stop-color:#ad6c16; stop-opacity:1"/>
  </linearGradient>
  <linearGradient id="aurora" x1="0%" x2="0%" y1="0%" y2="100%">
   <stop offset="0%" style="stop-color:#09D4DF; stop-opacity:1"/>
   <stop offset="100%" style="stop-color:#9269F4; stop-opacity:1"/>
  </linearGradient>
  <linearGradient id="fitdance" x1="0%" x2="0%" y1="0%" y2="100%">
   <stop offset="0%" style="stop-color:#1AD6AB; stop-opacity:1"/>
   <stop offset="100%" style="stop-color:#329DB6; stop-opacity:1"/>
  </linearGradient>
  <linearGradient id="oomox" x1="0%" x2="0%" y1="0%" y2="100%">
   <stop offset="0%" style="stop-color:#928374; stop-opacity:1"/>
   <stop offset="100%" style="stop-color:#928374; stop-opacity:1"/>
  </linearGradient>
  <linearGradient id="rainblue" x1="0%" x2="0%" y1="0%" y2="100%">
   <stop offset="0%" style="stop-color:#00F260; stop-opacity:1"/>
   <stop offset="100%" style="stop-color:#0575E6; stop-opacity:1"/>
  </linearGradient>
  <linearGradient id="sunrise" x1="0%" x2="0%" y1="0%" y2="100%">
   <stop offset="0%" style="stop-color: #FF8501; stop-opacity:1"/>
   <stop offset="100%" style="stop-color: #FFCB01; stop-opacity:1"/>
  </linearGradient>
  <linearGradient id="telinkrin" x1="0%" x2="0%" y1="0%" y2="100%">
   <stop offset="0%" style="stop-color: #b2ced6; stop-opacity:1"/>
   <stop offset="100%" style="stop-color: #6da5b7; stop-opacity:1"/>
  </linearGradient>
  <linearGradient id="60spsycho" x1="0%" x2="0%" y1="0%" y2="100%">
   <stop offset="0%" style="stop-color: #df5940; stop-opacity:1"/>
   <stop offset="25%" style="stop-color: #d8d15f; stop-opacity:1"/>
   <stop offset="50%" style="stop-color: #e9882a; stop-opacity:1"/>
   <stop offset="100%" style="stop-color: #279362; stop-opacity:1"/>
  </linearGradient>
  <linearGradient id="90ssummer" x1="0%" x2="0%" y1="0%" y2="100%">
   <stop offset="0%" style="stop-color: #f618c7; stop-opacity:1"/>
   <stop offset="20%" style="stop-color: #94ffab; stop-opacity:1"/>
   <stop offset="50%" style="stop-color: #fbfd54; stop-opacity:1"/>
   <stop offset="100%" style="stop-color: #0f83ae; stop-opacity:1"/>
  </linearGradient>
  <clipPath id="_clipPath_beEfOdP81yIbB1NOkY88FKhDOIgssriK">
   <rect width="16" height="16"/>
  </clipPath>
 </defs>
 <g clip-path="url(#_clipPath_beEfOdP81yIbB1NOkY88FKhDOIgssriK)">
  <rect style="fill:url(#oomox)" class="ColorScheme-Text" width="4.625" height="3.594" x="17.09" y="-.09" transform="matrix(1,0,0,1,0,0)"/>
  <g>
   <g>
    <path fill="none" stroke="#eff0f2" stroke-linecap="square" stroke-miterlimit="3" d="M 1.125 1.531 L 7.125 1.531 L 7.125 7.094 L 1.125 7.094 L 1.125 1.531 Z" vector-effect="non-scaling-stroke"/>
    <rect style="fill:url(#oomox)" class="ColorScheme-Text" width="6.063" height="1.063" x="1.03" y="1.63" transform="matrix(1,0,0,1,0,0)"/>
   </g>
   <g>
    <path fill="none" stroke="#eff0f2" stroke-linecap="square" stroke-miterlimit="3" d="M 8.969 3.25 L 14.969 3.25 L 14.969 7.75 L 8.969 7.75 L 8.969 3.25 Z" vector-effect="non-scaling-stroke"/>
    <rect style="fill:url(#oomox)" class="ColorScheme-Text" width="6.063" height=".987" x="8.88" y="3.33" transform="matrix(1,0,0,1,0,0)"/>
   </g>
   <g>
    <path fill="none" stroke="#eff0f2" stroke-linecap="square" stroke-miterlimit="3" d="M 2.888 9.344 L 11.687 9.344 L 11.687 14.906 L 2.888 14.906 L 2.888 9.344 Z" vector-effect="non-scaling-stroke"/>
    <rect style="fill:url(#oomox)" class="ColorScheme-Text" width="8.892" height="1.375" x="2.75" y="9.44" transform="matrix(1,0,0,1,0,0)"/>
   </g>
  </g>
 </g>
</svg>
