<svg xmlns="http://www.w3.org/2000/svg" width="16" height="16" version="1.1">
<defs>
  <style id="current-color-scheme" type="text/css">
   .ColorScheme-Text { color:#eff0f2; } .ColorScheme-Highlight { color:#5294e2; }
  </style>
  <linearGradient id="arrongin" x1="0%" x2="0%" y1="0%" y2="100%">
   <stop offset="0%" style="stop-color:#dd9b44; stop-opacity:1"/>
   <stop offset="100%" style="stop-color:#ad6c16; stop-opacity:1"/>
  </linearGradient>
  <linearGradient id="aurora" x1="0%" x2="0%" y1="0%" y2="100%">
   <stop offset="0%" style="stop-color:#09D4DF; stop-opacity:1"/>
   <stop offset="100%" style="stop-color:#9269F4; stop-opacity:1"/>
  </linearGradient>
  <linearGradient id="fitdance" x1="0%" x2="0%" y1="0%" y2="100%">
   <stop offset="0%" style="stop-color:#1AD6AB; stop-opacity:1"/>
   <stop offset="100%" style="stop-color:#329DB6; stop-opacity:1"/>
  </linearGradient>
  <linearGradient id="oomox" x1="0%" x2="0%" y1="0%" y2="100%">
   <stop offset="0%" style="stop-color:#928374; stop-opacity:1"/>
   <stop offset="100%" style="stop-color:#928374; stop-opacity:1"/>
  </linearGradient>
  <linearGradient id="rainblue" x1="0%" x2="0%" y1="0%" y2="100%">
   <stop offset="0%" style="stop-color:#00F260; stop-opacity:1"/>
   <stop offset="100%" style="stop-color:#0575E6; stop-opacity:1"/>
  </linearGradient>
  <linearGradient id="sunrise" x1="0%" x2="0%" y1="0%" y2="100%">
   <stop offset="0%" style="stop-color: #FF8501; stop-opacity:1"/>
   <stop offset="100%" style="stop-color: #FFCB01; stop-opacity:1"/>
  </linearGradient>
  <linearGradient id="telinkrin" x1="0%" x2="0%" y1="0%" y2="100%">
   <stop offset="0%" style="stop-color: #b2ced6; stop-opacity:1"/>
   <stop offset="100%" style="stop-color: #6da5b7; stop-opacity:1"/>
  </linearGradient>
  <linearGradient id="60spsycho" x1="0%" x2="0%" y1="0%" y2="100%">
   <stop offset="0%" style="stop-color: #df5940; stop-opacity:1"/>
   <stop offset="25%" style="stop-color: #d8d15f; stop-opacity:1"/>
   <stop offset="50%" style="stop-color: #e9882a; stop-opacity:1"/>
   <stop offset="100%" style="stop-color: #279362; stop-opacity:1"/>
  </linearGradient>
  <linearGradient id="90ssummer" x1="0%" x2="0%" y1="0%" y2="100%">
   <stop offset="0%" style="stop-color: #f618c7; stop-opacity:1"/>
   <stop offset="20%" style="stop-color: #94ffab; stop-opacity:1"/>
   <stop offset="50%" style="stop-color: #fbfd54; stop-opacity:1"/>
   <stop offset="100%" style="stop-color: #0f83ae; stop-opacity:1"/>
  </linearGradient>
 </defs>
 <g style="clip-rule:evenodd;fill:url(#oomox);fill-rule:evenodd" transform="matrix(0.00809061,0,0,-0.00809061,3.1213576,11.64887)">
  <path d="m 822,1290 c 96,0 184,-32 228,-87 108,109 209,139 296,139 140,0 184,-89 184,-148 0,-74 -47,-126 -118,-126 -77,0 -39,176 -148,176 -89,0 -163,-235 -200,-440 h 192 c 22,0 26,-16 26,-33 0,-46 -21,-85 -59,-85 h -189 c 0,0 -86.882,-411.191 -151,-668 -86.299,-345.65 -351,-442 -517,-442 -79,0 -163,28 -219,86 -75,-77 -189,-138 -311,-138 -60,0 -160,40 -160,116 0,43 43,108 89,108 81,0 91,-88 182,-88 44,0 74.498,12.138 111,144 80,289 201,882 201,882 H 116 c -23,0 -26,14 -26,29 0,40 15,89 66,89 h 133 c 73,251 235,486 533,486 z M 744,1190 C 603,1190 539,956 508,804 h 334 c 24,92 64,186 107,263 -48,76 -131,123 -205,123 z M 444,-302 c 78,0 140,26 178,162 90,324 190,826 190,826 H 482 C 434.075,464.729 381.246,226.205 334.818,47 303.225,-74.948 276.704,-143.428 249,-201 c 57,-67 131,-101 195,-101 z" style="fill:url(#oomox)" class="ColorScheme-Text"/>
 </g>
</svg>
