<svg xmlns="http://www.w3.org/2000/svg" style="isolation:isolate" width="16" height="16" viewBox="0 0 16 16">
 <defs>
  <style id="current-color-scheme" type="text/css">
   .ColorScheme-Text { color:#eff0f2; } .ColorScheme-Highlight { color:#5294e2; }
  </style>
  <linearGradient id="arrongin" x1="0%" x2="0%" y1="0%" y2="100%">
   <stop offset="0%" style="stop-color:#dd9b44; stop-opacity:1"/>
   <stop offset="100%" style="stop-color:#ad6c16; stop-opacity:1"/>
  </linearGradient>
  <linearGradient id="aurora" x1="0%" x2="0%" y1="0%" y2="100%">
   <stop offset="0%" style="stop-color:#09D4DF; stop-opacity:1"/>
   <stop offset="100%" style="stop-color:#9269F4; stop-opacity:1"/>
  </linearGradient>
  <linearGradient id="fitdance" x1="0%" x2="0%" y1="0%" y2="100%">
   <stop offset="0%" style="stop-color:#1AD6AB; stop-opacity:1"/>
   <stop offset="100%" style="stop-color:#329DB6; stop-opacity:1"/>
  </linearGradient>
  <linearGradient id="oomox" x1="0%" x2="0%" y1="0%" y2="100%">
   <stop offset="0%" style="stop-color:#928374; stop-opacity:1"/>
   <stop offset="100%" style="stop-color:#928374; stop-opacity:1"/>
  </linearGradient>
  <linearGradient id="rainblue" x1="0%" x2="0%" y1="0%" y2="100%">
   <stop offset="0%" style="stop-color:#00F260; stop-opacity:1"/>
   <stop offset="100%" style="stop-color:#0575E6; stop-opacity:1"/>
  </linearGradient>
  <linearGradient id="sunrise" x1="0%" x2="0%" y1="0%" y2="100%">
   <stop offset="0%" style="stop-color: #FF8501; stop-opacity:1"/>
   <stop offset="100%" style="stop-color: #FFCB01; stop-opacity:1"/>
  </linearGradient>
  <linearGradient id="telinkrin" x1="0%" x2="0%" y1="0%" y2="100%">
   <stop offset="0%" style="stop-color: #b2ced6; stop-opacity:1"/>
   <stop offset="100%" style="stop-color: #6da5b7; stop-opacity:1"/>
  </linearGradient>
  <linearGradient id="60spsycho" x1="0%" x2="0%" y1="0%" y2="100%">
   <stop offset="0%" style="stop-color: #df5940; stop-opacity:1"/>
   <stop offset="25%" style="stop-color: #d8d15f; stop-opacity:1"/>
   <stop offset="50%" style="stop-color: #e9882a; stop-opacity:1"/>
   <stop offset="100%" style="stop-color: #279362; stop-opacity:1"/>
  </linearGradient>
  <linearGradient id="90ssummer" x1="0%" x2="0%" y1="0%" y2="100%">
   <stop offset="0%" style="stop-color: #f618c7; stop-opacity:1"/>
   <stop offset="20%" style="stop-color: #94ffab; stop-opacity:1"/>
   <stop offset="50%" style="stop-color: #fbfd54; stop-opacity:1"/>
   <stop offset="100%" style="stop-color: #0f83ae; stop-opacity:1"/>
  </linearGradient>
 </defs>
 <path style="fill:url(#oomox)" class="ColorScheme-Text" fill-rule="evenodd" d="M 3.8 15.952 C 3.81 15.926 3.84 15.741 3.866 15.543 C 4.023 14.352 4.012 13.589 4.321 13.081 C 4.379 12.987 4.541 12.78 4.682 12.62 C 4.823 12.461 4.939 12.361 4.939 12.341 C 4.939 12.317 4.898 12.312 4.807 12.327 C 4.37 12.397 4.107 12.317 3.987 12.113 C 3.925 12.007 3.995 12.143 3.987 9.524 C 3.977 6.515 4.009 6.803 4.285 6.665 C 4.485 6.565 4.733 6.409 4.953 6.374 C 5.328 6.314 5.582 6.592 5.768 6.954 C 5.819 7.053 5.877 7.128 5.897 7.121 C 5.956 7.102 5.967 4.392 5.908 4.392 C 5.885 4.392 5.84 4.457 5.809 4.537 C 5.732 4.739 5.549 5.205 5.33 5.303 C 5.102 5.404 4.374 5.661 4.223 5.661 C 4.161 5.661 4.007 5.645 3.987 5.624 C 3.958 5.596 3.986 5.121 3.987 3.671 C 3.987 2.617 3.974 1.872 3.987 1.851 C 4.104 1.669 5.938 1.593 6.572 1.734 C 6.701 1.763 6.918 1.84 7.055 1.905 C 7.411 2.075 7.634 2.389 7.878 2.849 C 7.891 2.874 7.922 2.895 7.946 2.895 C 7.982 2.895 7.99 2.815 7.998 1.812 C 8.002 1.149 7.998 0.04 7.989 0 C 7.989 0 7.644 0.455 7.599 0.546 L 7.502 0.627 L 6.905 0.616 C 6.576 0.61 5.139 0.616 3.957 0.615 C 2.774 0.614 1.38 0.633 1.352 0.644 C 1.247 0.684 1.352 0.751 1.619 0.896 C 2.079 1.146 2.51 1.68 2.621 2.097 C 2.687 2.342 2.685 5.469 2.619 5.747 C 2.555 6.015 2.341 6.211 2.139 6.427 C 2.045 6.528 1.967 6.624 1.967 6.639 C 1.967 6.654 2.045 6.743 2.14 6.836 C 2.331 7.022 2.581 7.247 2.629 7.437 C 2.674 7.617 2.709 12.868 2.667 13.158 C 2.625 13.446 2.44 13.57 2.2 13.824 C 1.977 14.061 1.976 14.061 2.319 14.19 C 2.599 14.296 3.123 14.534 3.23 14.694 C 3.341 14.859 3.485 15.169 3.603 15.599 C 3.657 15.795 3.707 15.965 3.715 15.977 C 3.738 16.016 3.78 16.004 3.8 15.952 L 3.8 15.952 Z M 9.373 1.285 C 9.34 1.305 9.333 1.908 9.34 2.774 C 9.35 4.033 9.308 3.626 9.566 3.296 C 9.926 2.838 10.405 2.958 10.607 2.936 C 11.124 2.923 11.25 2.929 11.299 2.978 C 11.349 3.027 11.396 3.273 11.353 4.426 L 11.353 5.978 C 11.353 5.978 10.997 6.262 10.802 6.453 C 10.736 6.525 10.682 6.604 10.682 6.626 C 10.682 6.649 10.73 6.722 10.788 6.787 C 10.935 7.049 11.336 7.274 11.336 7.274 L 11.347 9.954 C 11.356 12.88 11.354 12.7 11.287 12.759 C 11.287 12.759 10.806 13.26 10.675 13.324 C 11.363 13.55 11.638 13.732 11.927 14.36 C 11.974 14.514 11.986 14.662 12.013 14.662 C 12.04 14.662 12.052 14.514 12.099 14.36 C 12.389 13.732 12.664 13.55 13.351 13.324 C 13.22 13.26 12.739 12.759 12.739 12.759 C 12.672 12.7 12.67 12.88 12.679 9.954 L 12.69 7.274 C 12.69 7.274 13.091 7.049 13.239 6.787 C 13.297 6.722 13.344 6.649 13.344 6.626 C 13.344 6.604 13.29 6.525 13.224 6.453 C 13.03 6.262 12.673 5.978 12.673 5.978 L 12.673 4.426 C 12.631 3.273 12.678 3.027 12.728 2.978 C 12.777 2.929 12.902 2.923 13.419 2.936 C 13.621 2.958 14.1 2.838 14.46 3.296 C 14.719 3.626 14.676 4.033 14.686 2.774 C 14.693 1.908 14.686 1.305 14.653 1.285 C 14.534 1.469 14.271 1.943 14.271 1.943 C 14.22 1.969 13.292 1.953 12.013 1.953 C 10.734 1.953 9.806 1.969 9.756 1.943 C 9.756 1.943 9.492 1.469 9.373 1.285 Z"/>
</svg>
