<svg xmlns="http://www.w3.org/2000/svg" style="isolation:isolate" width="16" height="16" viewBox="0 0 16 16">
 <defs>
  <style id="current-color-scheme" type="text/css">
   .ColorScheme-Text { color:#eff0f2; } .ColorScheme-Highlight { color:#5294e2; }
  </style>
  <linearGradient id="arrongin" x1="0%" x2="0%" y1="0%" y2="100%">
   <stop offset="0%" style="stop-color:#dd9b44; stop-opacity:1"/>
   <stop offset="100%" style="stop-color:#ad6c16; stop-opacity:1"/>
  </linearGradient>
  <linearGradient id="aurora" x1="0%" x2="0%" y1="0%" y2="100%">
   <stop offset="0%" style="stop-color:#09D4DF; stop-opacity:1"/>
   <stop offset="100%" style="stop-color:#9269F4; stop-opacity:1"/>
  </linearGradient>
  <linearGradient id="fitdance" x1="0%" x2="0%" y1="0%" y2="100%">
   <stop offset="0%" style="stop-color:#1AD6AB; stop-opacity:1"/>
   <stop offset="100%" style="stop-color:#329DB6; stop-opacity:1"/>
  </linearGradient>
  <linearGradient id="oomox" x1="0%" x2="0%" y1="0%" y2="100%">
   <stop offset="0%" style="stop-color:#928374; stop-opacity:1"/>
   <stop offset="100%" style="stop-color:#928374; stop-opacity:1"/>
  </linearGradient>
  <linearGradient id="rainblue" x1="0%" x2="0%" y1="0%" y2="100%">
   <stop offset="0%" style="stop-color:#00F260; stop-opacity:1"/>
   <stop offset="100%" style="stop-color:#0575E6; stop-opacity:1"/>
  </linearGradient>
  <linearGradient id="sunrise" x1="0%" x2="0%" y1="0%" y2="100%">
   <stop offset="0%" style="stop-color: #FF8501; stop-opacity:1"/>
   <stop offset="100%" style="stop-color: #FFCB01; stop-opacity:1"/>
  </linearGradient>
  <linearGradient id="telinkrin" x1="0%" x2="0%" y1="0%" y2="100%">
   <stop offset="0%" style="stop-color: #b2ced6; stop-opacity:1"/>
   <stop offset="100%" style="stop-color: #6da5b7; stop-opacity:1"/>
  </linearGradient>
  <linearGradient id="60spsycho" x1="0%" x2="0%" y1="0%" y2="100%">
   <stop offset="0%" style="stop-color: #df5940; stop-opacity:1"/>
   <stop offset="25%" style="stop-color: #d8d15f; stop-opacity:1"/>
   <stop offset="50%" style="stop-color: #e9882a; stop-opacity:1"/>
   <stop offset="100%" style="stop-color: #279362; stop-opacity:1"/>
  </linearGradient>
  <linearGradient id="90ssummer" x1="0%" x2="0%" y1="0%" y2="100%">
   <stop offset="0%" style="stop-color: #f618c7; stop-opacity:1"/>
   <stop offset="20%" style="stop-color: #94ffab; stop-opacity:1"/>
   <stop offset="50%" style="stop-color: #fbfd54; stop-opacity:1"/>
   <stop offset="100%" style="stop-color: #0f83ae; stop-opacity:1"/>
  </linearGradient>
 </defs>
 <g opacity=".6">
  <path style="fill:url(#oomox)" class="ColorScheme-Text" d="M 9 12.89 L 9 10.556 L 7 10.556 L 7 12.89 L 1.333 12.89 L 1.333 14.89 L 14.667 14.89 L 14.667 12.89 L 9 12.89 Z"/>
 </g>
 <path style="fill:url(#oomox)" class="ColorScheme-Text" fill-rule="evenodd" d="M 0 13.89 C 0 12.786 0.896 11.89 2 11.89 C 3.104 11.89 4 12.786 4 13.89 C 4 14.994 3.104 15.89 2 15.89 C 0.896 15.89 0 14.994 0 13.89 L 0 13.89 L 0 13.89 Z M 6 13.89 C 6 12.786 6.896 11.89 8 11.89 C 9.104 11.89 10 12.786 10 13.89 C 10 14.994 9.104 15.89 8 15.89 C 6.896 15.89 6 14.994 6 13.89 L 6 13.89 L 6 13.89 Z M 12 13.89 C 12 12.786 12.896 11.89 14 11.89 C 15.104 11.89 16 12.786 16 13.89 C 16 14.994 15.104 15.89 14 15.89 C 12.896 15.89 12 14.994 12 13.89 L 12 13.89 Z M 3.055 1.214 L 12.945 1.214 C 13.16 1.214 13.367 1.3 13.519 1.452 C 13.671 1.603 13.756 1.809 13.756 2.025 L 13.756 9.599 C 13.756 9.814 13.671 10.02 13.519 10.171 C 13.367 10.324 13.16 10.41 12.945 10.41 L 3.055 10.41 C 2.84 10.41 2.634 10.324 2.481 10.171 C 2.329 10.02 2.244 9.814 2.244 9.599 L 2.244 2.025 C 2.244 1.809 2.329 1.603 2.481 1.452 C 2.634 1.3 2.84 1.214 3.055 1.214 L 3.055 1.214 Z M 3.055 0.11 L 12.945 0.11 C 13.453 0.11 13.941 0.312 14.299 0.671 C 14.658 1.03 14.86 1.517 14.86 2.025 L 14.86 9.599 C 14.86 10.106 14.658 10.593 14.299 10.953 C 13.941 11.311 13.453 11.513 12.945 11.513 L 3.055 11.513 C 2.547 11.513 2.06 11.311 1.701 10.953 C 1.343 10.593 1.141 10.106 1.141 9.599 L 1.141 2.025 C 1.141 1.517 1.343 1.03 1.701 0.671 C 2.06 0.312 2.547 0.11 3.055 0.11 L 3.055 0.11 Z"/>
</svg>
