<svg xmlns="http://www.w3.org/2000/svg" style="isolation:isolate" width="16" height="16" viewBox="0 0 16 16">
 <defs>
  <style id="current-color-scheme" type="text/css">
   .ColorScheme-Text { color:#eff0f2; } .ColorScheme-Highlight { color:#5294e2; }
  </style>
  <linearGradient id="arrongin" x1="0%" x2="0%" y1="0%" y2="100%">
   <stop offset="0%" style="stop-color:#dd9b44; stop-opacity:1"/>
   <stop offset="100%" style="stop-color:#ad6c16; stop-opacity:1"/>
  </linearGradient>
  <linearGradient id="aurora" x1="0%" x2="0%" y1="0%" y2="100%">
   <stop offset="0%" style="stop-color:#09D4DF; stop-opacity:1"/>
   <stop offset="100%" style="stop-color:#9269F4; stop-opacity:1"/>
  </linearGradient>
  <linearGradient id="fitdance" x1="0%" x2="0%" y1="0%" y2="100%">
   <stop offset="0%" style="stop-color:#1AD6AB; stop-opacity:1"/>
   <stop offset="100%" style="stop-color:#329DB6; stop-opacity:1"/>
  </linearGradient>
  <linearGradient id="oomox" x1="0%" x2="0%" y1="0%" y2="100%">
   <stop offset="0%" style="stop-color:#928374; stop-opacity:1"/>
   <stop offset="100%" style="stop-color:#928374; stop-opacity:1"/>
  </linearGradient>
  <linearGradient id="rainblue" x1="0%" x2="0%" y1="0%" y2="100%">
   <stop offset="0%" style="stop-color:#00F260; stop-opacity:1"/>
   <stop offset="100%" style="stop-color:#0575E6; stop-opacity:1"/>
  </linearGradient>
  <linearGradient id="sunrise" x1="0%" x2="0%" y1="0%" y2="100%">
   <stop offset="0%" style="stop-color: #FF8501; stop-opacity:1"/>
   <stop offset="100%" style="stop-color: #FFCB01; stop-opacity:1"/>
  </linearGradient>
  <linearGradient id="telinkrin" x1="0%" x2="0%" y1="0%" y2="100%">
   <stop offset="0%" style="stop-color: #b2ced6; stop-opacity:1"/>
   <stop offset="100%" style="stop-color: #6da5b7; stop-opacity:1"/>
  </linearGradient>
  <linearGradient id="60spsycho" x1="0%" x2="0%" y1="0%" y2="100%">
   <stop offset="0%" style="stop-color: #df5940; stop-opacity:1"/>
   <stop offset="25%" style="stop-color: #d8d15f; stop-opacity:1"/>
   <stop offset="50%" style="stop-color: #e9882a; stop-opacity:1"/>
   <stop offset="100%" style="stop-color: #279362; stop-opacity:1"/>
  </linearGradient>
  <linearGradient id="90ssummer" x1="0%" x2="0%" y1="0%" y2="100%">
   <stop offset="0%" style="stop-color: #f618c7; stop-opacity:1"/>
   <stop offset="20%" style="stop-color: #94ffab; stop-opacity:1"/>
   <stop offset="50%" style="stop-color: #fbfd54; stop-opacity:1"/>
   <stop offset="100%" style="stop-color: #0f83ae; stop-opacity:1"/>
  </linearGradient>
 </defs>
 <path style="fill:url(#oomox)" class="ColorScheme-Text" fill-rule="evenodd" d="M 4 6.286 C 4.947 6.286 5.714 7.053 5.714 8 C 5.714 8.947 4.947 9.714 4 9.714 C 3.053 9.714 2.286 8.947 2.286 8 C 2.286 7.053 3.053 6.286 4 6.286 L 4 6.286 L 4 6.286 L 4 6.286 L 4 6.286 Z M 12 6.286 C 12.947 6.286 13.714 7.053 13.714 8 C 13.714 8.947 12.947 9.714 12 9.714 C 11.053 9.714 10.286 8.947 10.286 8 C 10.286 7.053 11.053 6.286 12 6.286 L 12 6.286 L 12 6.286 Z M 1.143 10.857 L 1.143 10.494 L 1.143 10.813 L 1.143 6.667 L 0 5.429 L 2 3.429 L 2.959 4.271 L 4.8 3.429 L 4.4 1.429 L 6.334 0.61 L 6.4 0.571 L 7.083 1.714 L 8.916 1.714 L 9.6 0.571 L 11.6 1.429 L 11.2 3.429 L 13.041 4.271 L 14 3.429 L 16 5.429 L 14.857 6.667 L 14.857 10.813 L 14.857 10.494 L 14.857 10.857 L 12 10.857 L 12 12 L 9.714 12 L 9.714 10.857 L 8 10.857 L 8 11.428 L 9.143 11.428 L 9.143 12.571 L 12.571 12.571 L 12.571 11.428 L 14.857 11.428 L 14.857 11.827 C 14.857 11.827 13.714 15.429 8 15.429 C 2.286 15.429 1.143 11.827 1.143 11.827 L 1.143 11.428 L 3.429 11.428 L 3.429 12.571 L 6.857 12.571 L 6.857 11.428 L 8 11.428 L 8 10.857 L 6.286 10.857 L 6.286 12 L 4 12 L 4 10.857 L 1.143 10.857 L 1.143 10.857 L 1.143 10.857 L 1.143 10.857 L 1.143 10.857 L 1.143 10.857 Z M 8 7.429 C 8.317 7.429 8.571 7.684 8.571 8 L 8.571 9.143 C 8.571 9.46 8.317 9.714 8 9.714 C 7.683 9.714 7.429 9.46 7.429 9.143 L 7.429 8 C 7.429 7.684 7.683 7.429 8 7.429 Z"/>
</svg>
