<svg xmlns="http://www.w3.org/2000/svg" style="isolation:isolate" width="16" height="16" viewBox="0 0 16 16">
 <defs>
  <style id="current-color-scheme" type="text/css">
   .ColorScheme-Text { color:#eff0f2; } .ColorScheme-Highlight { color:#5294e2; }
  </style>
  <linearGradient id="arrongin" x1="0%" x2="0%" y1="0%" y2="100%">
   <stop offset="0%" style="stop-color:#dd9b44; stop-opacity:1"/>
   <stop offset="100%" style="stop-color:#ad6c16; stop-opacity:1"/>
  </linearGradient>
  <linearGradient id="aurora" x1="0%" x2="0%" y1="0%" y2="100%">
   <stop offset="0%" style="stop-color:#09D4DF; stop-opacity:1"/>
   <stop offset="100%" style="stop-color:#9269F4; stop-opacity:1"/>
  </linearGradient>
  <linearGradient id="fitdance" x1="0%" x2="0%" y1="0%" y2="100%">
   <stop offset="0%" style="stop-color:#1AD6AB; stop-opacity:1"/>
   <stop offset="100%" style="stop-color:#329DB6; stop-opacity:1"/>
  </linearGradient>
  <linearGradient id="oomox" x1="0%" x2="0%" y1="0%" y2="100%">
   <stop offset="0%" style="stop-color:#928374; stop-opacity:1"/>
   <stop offset="100%" style="stop-color:#928374; stop-opacity:1"/>
  </linearGradient>
  <linearGradient id="rainblue" x1="0%" x2="0%" y1="0%" y2="100%">
   <stop offset="0%" style="stop-color:#00F260; stop-opacity:1"/>
   <stop offset="100%" style="stop-color:#0575E6; stop-opacity:1"/>
  </linearGradient>
  <linearGradient id="sunrise" x1="0%" x2="0%" y1="0%" y2="100%">
   <stop offset="0%" style="stop-color: #FF8501; stop-opacity:1"/>
   <stop offset="100%" style="stop-color: #FFCB01; stop-opacity:1"/>
  </linearGradient>
  <linearGradient id="telinkrin" x1="0%" x2="0%" y1="0%" y2="100%">
   <stop offset="0%" style="stop-color: #b2ced6; stop-opacity:1"/>
   <stop offset="100%" style="stop-color: #6da5b7; stop-opacity:1"/>
  </linearGradient>
  <linearGradient id="60spsycho" x1="0%" x2="0%" y1="0%" y2="100%">
   <stop offset="0%" style="stop-color: #df5940; stop-opacity:1"/>
   <stop offset="25%" style="stop-color: #d8d15f; stop-opacity:1"/>
   <stop offset="50%" style="stop-color: #e9882a; stop-opacity:1"/>
   <stop offset="100%" style="stop-color: #279362; stop-opacity:1"/>
  </linearGradient>
  <linearGradient id="90ssummer" x1="0%" x2="0%" y1="0%" y2="100%">
   <stop offset="0%" style="stop-color: #f618c7; stop-opacity:1"/>
   <stop offset="20%" style="stop-color: #94ffab; stop-opacity:1"/>
   <stop offset="50%" style="stop-color: #fbfd54; stop-opacity:1"/>
   <stop offset="100%" style="stop-color: #0f83ae; stop-opacity:1"/>
  </linearGradient>
 </defs>
 <path style="fill:url(#oomox)" class="ColorScheme-Text" fill-rule="evenodd" d="M -0.031 12.5 L 15.969 12.5 L 15.969 14.5 L -0.031 14.5 L -0.031 12.5 Z"/>
 <path style="fill:url(#oomox)" class="ColorScheme-Text" fill-rule="evenodd" d="M 6.979 10.33 L 5.461 10.33 L 5.461 6.452 L 1.558 6.452 L 1.558 10.33 L 0.027 10.33 L 0.027 1.4 L 1.558 1.4 L 1.558 5.01 L 5.461 5.01 L 5.461 1.4 L 6.979 1.4 L 6.979 10.33 Z M 9.148 10.33 L 9.148 1.4 L 12.797 1.4 L 12.797 1.4 Q 14.289 1.4 14.972 2.076 L 14.972 2.076 L 14.972 2.076 Q 15.654 2.752 15.654 3.786 L 15.654 3.786 L 15.654 3.786 Q 15.654 5.061 14.506 5.623 L 14.506 5.623 L 14.506 5.623 Q 15.246 5.891 15.61 6.458 L 15.61 6.458 L 15.61 6.458 Q 15.973 7.026 15.973 7.689 L 15.973 7.689 L 15.973 7.689 Q 15.973 8.761 15.24 9.545 L 15.24 9.545 L 15.24 9.545 Q 14.506 10.33 12.988 10.33 L 12.988 10.33 L 9.148 10.33 Z M 10.679 4.998 L 12.593 4.998 L 12.593 4.998 Q 13.332 4.998 13.722 4.704 L 13.722 4.704 L 13.722 4.704 Q 14.111 4.411 14.111 3.9 L 14.111 3.9 L 14.111 3.9 Q 14.111 2.816 12.835 2.816 L 12.835 2.816 L 10.679 2.816 L 10.679 4.998 Z M 10.679 8.914 L 13.077 8.914 L 13.077 8.914 Q 13.792 8.914 14.104 8.563 L 14.104 8.563 L 14.104 8.563 Q 14.417 8.212 14.417 7.728 L 14.417 7.728 L 14.417 7.728 Q 14.417 6.414 12.707 6.414 L 12.707 6.414 L 10.679 6.414 L 10.679 8.914 Z"/>
</svg>
