<svg xmlns="http://www.w3.org/2000/svg" style="isolation:isolate" width="16" height="16" viewBox="0 0 16 16">
 <defs>
  <style id="current-color-scheme" type="text/css">
   .ColorScheme-Text { color:#eff0f2; } .ColorScheme-Highlight { color:#5294e2; }
  </style>
  <linearGradient id="arrongin" x1="0%" x2="0%" y1="0%" y2="100%">
   <stop offset="0%" style="stop-color:#dd9b44; stop-opacity:1"/>
   <stop offset="100%" style="stop-color:#ad6c16; stop-opacity:1"/>
  </linearGradient>
  <linearGradient id="aurora" x1="0%" x2="0%" y1="0%" y2="100%">
   <stop offset="0%" style="stop-color:#09D4DF; stop-opacity:1"/>
   <stop offset="100%" style="stop-color:#9269F4; stop-opacity:1"/>
  </linearGradient>
  <linearGradient id="fitdance" x1="0%" x2="0%" y1="0%" y2="100%">
   <stop offset="0%" style="stop-color:#1AD6AB; stop-opacity:1"/>
   <stop offset="100%" style="stop-color:#329DB6; stop-opacity:1"/>
  </linearGradient>
  <linearGradient id="oomox" x1="0%" x2="0%" y1="0%" y2="100%">
   <stop offset="0%" style="stop-color:#928374; stop-opacity:1"/>
   <stop offset="100%" style="stop-color:#928374; stop-opacity:1"/>
  </linearGradient>
  <linearGradient id="rainblue" x1="0%" x2="0%" y1="0%" y2="100%">
   <stop offset="0%" style="stop-color:#00F260; stop-opacity:1"/>
   <stop offset="100%" style="stop-color:#0575E6; stop-opacity:1"/>
  </linearGradient>
  <linearGradient id="sunrise" x1="0%" x2="0%" y1="0%" y2="100%">
   <stop offset="0%" style="stop-color: #FF8501; stop-opacity:1"/>
   <stop offset="100%" style="stop-color: #FFCB01; stop-opacity:1"/>
  </linearGradient>
  <linearGradient id="telinkrin" x1="0%" x2="0%" y1="0%" y2="100%">
   <stop offset="0%" style="stop-color: #b2ced6; stop-opacity:1"/>
   <stop offset="100%" style="stop-color: #6da5b7; stop-opacity:1"/>
  </linearGradient>
  <linearGradient id="60spsycho" x1="0%" x2="0%" y1="0%" y2="100%">
   <stop offset="0%" style="stop-color: #df5940; stop-opacity:1"/>
   <stop offset="25%" style="stop-color: #d8d15f; stop-opacity:1"/>
   <stop offset="50%" style="stop-color: #e9882a; stop-opacity:1"/>
   <stop offset="100%" style="stop-color: #279362; stop-opacity:1"/>
  </linearGradient>
  <linearGradient id="90ssummer" x1="0%" x2="0%" y1="0%" y2="100%">
   <stop offset="0%" style="stop-color: #f618c7; stop-opacity:1"/>
   <stop offset="20%" style="stop-color: #94ffab; stop-opacity:1"/>
   <stop offset="50%" style="stop-color: #fbfd54; stop-opacity:1"/>
   <stop offset="100%" style="stop-color: #0f83ae; stop-opacity:1"/>
  </linearGradient>
 </defs>
 <path style="fill:url(#oomox)" class="ColorScheme-Text" d="M 0 5.354 L 0 10.646 L 1.271 10.646 L 1.271 8.5 C 1.274 8.413 1.312 8.331 1.375 8.271 C 1.442 8.206 1.531 8.169 1.625 8.167 L 2.354 8.167 C 2.443 8.167 2.515 8.211 2.583 8.271 C 2.651 8.331 2.68 8.412 2.687 8.5 L 2.687 10.646 L 3.959 10.646 L 3.959 8.334 C 3.959 8.016 3.896 7.764 3.771 7.563 C 3.643 7.375 3.461 7.23 3.25 7.146 C 3.021 7.044 2.772 6.994 2.521 7 L 1.687 7 L 1.375 7.042 C 1.302 7.062 1.271 7.084 1.271 7.084 L 1.271 5.354 L 0 5.354 Z M 9.792 5.354 L 9.792 10.646 L 11.063 10.646 L 11.063 5.354 L 9.792 5.354 Z M 4.874 7 L 4.874 9.25 C 4.874 9.547 4.921 9.792 5.041 10 C 5.161 10.209 5.346 10.376 5.562 10.48 C 5.784 10.584 6.016 10.646 6.312 10.646 L 7.562 10.646 L 7.562 10.626 C 7.828 10.626 8.065 10.57 8.25 10.459 C 8.434 10.339 8.583 10.167 8.687 9.959 C 8.784 9.75 8.825 9.516 8.833 9.25 L 8.833 7 L 7.562 7 L 7.562 9.126 C 7.556 9.218 7.519 9.305 7.458 9.375 C 7.397 9.436 7.315 9.473 7.229 9.48 L 6.48 9.48 C 6.393 9.475 6.311 9.438 6.25 9.376 C 6.186 9.308 6.149 9.219 6.146 9.125 L 6.146 7 L 4.874 7 Z M 12.041 7 L 12.041 9.25 C 12.049 9.547 12.104 9.792 12.229 10 C 12.354 10.209 12.516 10.376 12.729 10.48 C 12.951 10.584 13.19 10.646 13.479 10.646 L 14.729 10.646 L 14.729 10.626 C 14.995 10.626 15.224 10.57 15.417 10.459 C 15.601 10.339 15.758 10.167 15.854 9.959 C 15.956 9.752 16 9.516 16 9.25 L 16 7 L 14.729 7 L 14.729 9.126 C 14.726 9.219 14.689 9.308 14.625 9.375 C 14.564 9.437 14.482 9.474 14.396 9.48 L 13.646 9.48 C 13.559 9.476 13.476 9.439 13.417 9.376 C 13.352 9.308 13.315 9.219 13.313 9.125 L 13.313 7 L 12.041 7 Z"/>
</svg>
