<svg xmlns="http://www.w3.org/2000/svg" width="16" height="16" version="1.1">
<defs>
  <style id="current-color-scheme" type="text/css">
   .ColorScheme-Text { color:#eff0f2; } .ColorScheme-Highlight { color:#5294e2; }
  </style>
  <linearGradient id="arrongin" x1="0%" x2="0%" y1="0%" y2="100%">
   <stop offset="0%" style="stop-color:#dd9b44; stop-opacity:1"/>
   <stop offset="100%" style="stop-color:#ad6c16; stop-opacity:1"/>
  </linearGradient>
  <linearGradient id="aurora" x1="0%" x2="0%" y1="0%" y2="100%">
   <stop offset="0%" style="stop-color:#09D4DF; stop-opacity:1"/>
   <stop offset="100%" style="stop-color:#9269F4; stop-opacity:1"/>
  </linearGradient>
  <linearGradient id="fitdance" x1="0%" x2="0%" y1="0%" y2="100%">
   <stop offset="0%" style="stop-color:#1AD6AB; stop-opacity:1"/>
   <stop offset="100%" style="stop-color:#329DB6; stop-opacity:1"/>
  </linearGradient>
  <linearGradient id="oomox" x1="0%" x2="0%" y1="0%" y2="100%">
   <stop offset="0%" style="stop-color:#928374; stop-opacity:1"/>
   <stop offset="100%" style="stop-color:#928374; stop-opacity:1"/>
  </linearGradient>
  <linearGradient id="rainblue" x1="0%" x2="0%" y1="0%" y2="100%">
   <stop offset="0%" style="stop-color:#00F260; stop-opacity:1"/>
   <stop offset="100%" style="stop-color:#0575E6; stop-opacity:1"/>
  </linearGradient>
  <linearGradient id="sunrise" x1="0%" x2="0%" y1="0%" y2="100%">
   <stop offset="0%" style="stop-color: #FF8501; stop-opacity:1"/>
   <stop offset="100%" style="stop-color: #FFCB01; stop-opacity:1"/>
  </linearGradient>
  <linearGradient id="telinkrin" x1="0%" x2="0%" y1="0%" y2="100%">
   <stop offset="0%" style="stop-color: #b2ced6; stop-opacity:1"/>
   <stop offset="100%" style="stop-color: #6da5b7; stop-opacity:1"/>
  </linearGradient>
  <linearGradient id="60spsycho" x1="0%" x2="0%" y1="0%" y2="100%">
   <stop offset="0%" style="stop-color: #df5940; stop-opacity:1"/>
   <stop offset="25%" style="stop-color: #d8d15f; stop-opacity:1"/>
   <stop offset="50%" style="stop-color: #e9882a; stop-opacity:1"/>
   <stop offset="100%" style="stop-color: #279362; stop-opacity:1"/>
  </linearGradient>
  <linearGradient id="90ssummer" x1="0%" x2="0%" y1="0%" y2="100%">
   <stop offset="0%" style="stop-color: #f618c7; stop-opacity:1"/>
   <stop offset="20%" style="stop-color: #94ffab; stop-opacity:1"/>
   <stop offset="50%" style="stop-color: #fbfd54; stop-opacity:1"/>
   <stop offset="100%" style="stop-color: #0f83ae; stop-opacity:1"/>
  </linearGradient>
 </defs>
 <path d="M 8.6294511,0.2447117 C 5.9203878,0.7271306 3.2098543,1.3671936 0.50079111,1.8408062 c 0,4.1210456 -0.00178,8.2437918 0,12.3666138 C 3.1957189,14.679257 5.8920829,15.308737 8.5817081,15.8 H 9.3889887 V 0.2447117 Z M 6.8212155,5.0935431 C 6.3494133,6.0600817 5.8758196,7.0267714 5.3951847,7.989795 5.8811223,8.9793509 6.3777296,9.96165 6.8654284,10.951169 6.439574,10.924712 6.0155374,10.899767 5.5896792,10.869909 5.2892823,10.133052 4.9233825,9.4211399 4.7078058,8.650721 4.4675034,9.3681131 4.1246436,10.044838 3.8489875,10.748132 3.4620055,10.744353 3.074963,10.725455 2.6879809,10.710337 3.1421101,9.821543 3.5803727,8.9254549 4.0486373,8.0419147 3.6510537,7.1319179 3.2145787,6.2397226 2.8046247,5.3350171 3.1933756,5.3123401 3.5823079,5.2892851 3.9710549,5.2681191 4.2343368,5.9590167 4.522197,6.6409191 4.7395425,7.3495049 4.9727771,6.5985128 5.3208905,5.8918167 5.6195185,5.1655805 6.018871,5.1391235 6.4200943,5.1126675 6.8212155,5.0930135 Z" style="fill:url(#oomox)" class="ColorScheme-Text"/>
 <path d="M 9.9445338,2.4668849 V 3.5779904 H 11.611173 V 4.6890581 H 9.9445338 V 5.2446108 H 11.611173 V 6.3576061 H 9.9445338 v 0.553663 H 11.611173 V 8.0223368 H 9.9445338 V 8.5778895 H 11.611173 V 9.688995 H 9.9445338 v 0.555553 h 1.6666392 v 1.111068 H 9.9445338 v 0.555553 h 1.6666392 v 1.111105 H 9.9445338 v 1.111105 H 15.499997 V 2.4668849 Z m 2.2221842,1.1111055 h 2.222185 v 1.1110677 h -2.222185 z m 0,1.6666204 h 2.222185 v 1.1129953 h -2.222185 z m 0,1.6666583 h 2.222185 v 1.1110677 h -2.222185 z m 0,1.6666204 h 2.222185 V 9.688995 h -2.222185 z m 0,1.6666585 h 2.222185 v 1.111068 h -2.222185 z m 0,1.666621 h 2.222185 v 1.111105 h -2.222185 z" style="fill:url(#oomox)" class="ColorScheme-Text"/>
</svg>
