<svg xmlns="http://www.w3.org/2000/svg" width="16" height="16" version="1.1">
<defs>
  <style id="current-color-scheme" type="text/css">
   .ColorScheme-Text { color:#eff0f2; } .ColorScheme-Highlight { color:#5294e2; }
  </style>
  <linearGradient id="arrongin" x1="0%" x2="0%" y1="0%" y2="100%">
   <stop offset="0%" style="stop-color:#dd9b44; stop-opacity:1"/>
   <stop offset="100%" style="stop-color:#ad6c16; stop-opacity:1"/>
  </linearGradient>
  <linearGradient id="aurora" x1="0%" x2="0%" y1="0%" y2="100%">
   <stop offset="0%" style="stop-color:#09D4DF; stop-opacity:1"/>
   <stop offset="100%" style="stop-color:#9269F4; stop-opacity:1"/>
  </linearGradient>
  <linearGradient id="fitdance" x1="0%" x2="0%" y1="0%" y2="100%">
   <stop offset="0%" style="stop-color:#1AD6AB; stop-opacity:1"/>
   <stop offset="100%" style="stop-color:#329DB6; stop-opacity:1"/>
  </linearGradient>
  <linearGradient id="oomox" x1="0%" x2="0%" y1="0%" y2="100%">
   <stop offset="0%" style="stop-color:#928374; stop-opacity:1"/>
   <stop offset="100%" style="stop-color:#928374; stop-opacity:1"/>
  </linearGradient>
  <linearGradient id="rainblue" x1="0%" x2="0%" y1="0%" y2="100%">
   <stop offset="0%" style="stop-color:#00F260; stop-opacity:1"/>
   <stop offset="100%" style="stop-color:#0575E6; stop-opacity:1"/>
  </linearGradient>
  <linearGradient id="sunrise" x1="0%" x2="0%" y1="0%" y2="100%">
   <stop offset="0%" style="stop-color: #FF8501; stop-opacity:1"/>
   <stop offset="100%" style="stop-color: #FFCB01; stop-opacity:1"/>
  </linearGradient>
  <linearGradient id="telinkrin" x1="0%" x2="0%" y1="0%" y2="100%">
   <stop offset="0%" style="stop-color: #b2ced6; stop-opacity:1"/>
   <stop offset="100%" style="stop-color: #6da5b7; stop-opacity:1"/>
  </linearGradient>
  <linearGradient id="60spsycho" x1="0%" x2="0%" y1="0%" y2="100%">
   <stop offset="0%" style="stop-color: #df5940; stop-opacity:1"/>
   <stop offset="25%" style="stop-color: #d8d15f; stop-opacity:1"/>
   <stop offset="50%" style="stop-color: #e9882a; stop-opacity:1"/>
   <stop offset="100%" style="stop-color: #279362; stop-opacity:1"/>
  </linearGradient>
  <linearGradient id="90ssummer" x1="0%" x2="0%" y1="0%" y2="100%">
   <stop offset="0%" style="stop-color: #f618c7; stop-opacity:1"/>
   <stop offset="20%" style="stop-color: #94ffab; stop-opacity:1"/>
   <stop offset="50%" style="stop-color: #fbfd54; stop-opacity:1"/>
   <stop offset="100%" style="stop-color: #0f83ae; stop-opacity:1"/>
  </linearGradient>
 </defs>
 <g transform="matrix(-0.29355554,0,0,-0.29355554,37.904973,79.793259)" style="fill:url(#oomox)" class="ColorScheme-Text">
  <path style="fill:url(#oomox);fill-opacity:0.90196078;fill-rule:evenodd" d="m 105.99041,271.8163 c 4.40392,-0.12875 8.46773,-2.94928 9.9512,-7.36669 1.89881,-5.65393 -1.14587,-11.78385 -6.79996,-13.68265 -0.65464,-0.22531 -1.31637,-0.37981 -1.97649,-0.47123 -0.33586,-0.0257 -0.66142,-0.10299 -0.99502,-0.19312 -1.33959,-0.44805 -2.30978,-1.51165 -2.70882,-2.76555 -0.41161,-0.93859 -0.48961,-2.02099 -0.1386,-3.0685 0.17729,-0.53174 0.4448,-1.0094 0.78776,-1.40852 0.0255,-0.0258 0.0581,-0.0644 0.0838,-0.103 0.0315,-0.0258 0.0645,-0.0644 0.0967,-0.0901 2.35684,-2.14343 3.98094,-5.07211 4.45041,-8.37531 0.0354,-0.19312 0.0902,-0.37982 0.1515,-0.56779 0.73941,-2.2369 3.15394,-3.44831 5.39023,-2.70749 0.38486,0.12874 0.73071,0.32189 1.05046,0.5253 h 0.0139 c 0.56633,0.37724 1.18874,0.68624 1.86594,0.91284 4.06938,1.34415 8.46782,-0.86391 9.81298,-4.93408 1.34506,-4.0694 -0.8648,-8.46789 -4.93415,-9.81294 -3.80143,-1.25661 -7.89089,0.58066 -9.5089,4.14613 -0.83256,2.07249 -3.15749,3.17163 -5.3073,2.45926 -0.77455,-0.2575 -1.41694,-0.70555 -1.9072,-1.28622 -2.56892,-2.91052 -6.322254,-4.74044 -10.504004,-4.74044 -7.733374,0 -14.000784,6.28119 -14.000784,14.01444 0,2.89442 0.886391,5.57783 2.391002,7.80894 0.453512,0.7931 0.660761,1.72126 0.525069,2.69461 -0.09024,0.65147 -0.322324,1.25402 -0.663346,1.76954 l -0.870595,1.17677 c -0.625313,0.75705 -1.495261,1.28931 -2.473839,1.47947 l -0.01397,0.0129 c -2.178845,0.44804 -3.946054,2.23368 -4.270637,4.56083 -0.412259,2.95572 1.647726,5.6829 4.60241,6.09516 2.95475,0.412 5.696895,-1.64697 6.108957,-4.60243 0.0838,-0.60641 0.06772,-1.2154 -0.04183,-1.78241 -0.04841,-0.3708 -0.05485,-0.74418 0,-1.13429 0.09347,-0.67336 0.343918,-1.29896 0.704919,-1.82426 l 0.843197,-1.14716 c 0.913149,-1.09309 2.342981,-1.70504 3.856067,-1.49234 0.07416,0.007 0.148252,0.0257 0.222411,0.0257 0.828699,0.19313 1.679631,0.28969 2.556999,0.33218 0.05485,2.5e-4 0.109567,0.007 0.167607,0.0129 0.05485,10e-4 0.109567,-0.001 0.167608,0 0.332295,0.0257 0.664934,0.0901 0.994997,0.19312 1.335391,0.44805 2.293661,1.48912 2.695278,2.73658 0.41645,0.94117 0.50509,2.03065 0.15149,3.08138 -0.15471,0.46092 -0.395174,0.89223 -0.6772,1.2566 -1.04433,1.1021 -1.862069,2.44638 -2.377145,3.9803 -1.898815,5.65393 1.145862,11.78398 6.799949,13.68278 1.23676,0.41586 2.49866,0.5871 3.73172,0.55491 z m -0.40064,-3.52428 c -0.71395,-0.0129 -1.42984,-0.12875 -2.14218,-0.37337 -3.798814,-1.27591 -5.850538,-5.39218 -4.574744,-9.19108 1.275764,-3.79864 5.392164,-5.85053 9.191014,-4.57474 3.79883,1.27591 5.85055,5.39218 4.57479,9.19107 -1.03659,3.08781 -3.95521,5.017 -7.04876,4.94799 z M 81.015832,255.71495 c -0.209535,0.0129 -0.407419,0.002 -0.622083,-0.0257 -1.716057,-0.22532 -2.920582,-1.82117 -2.681418,-3.53818 0.238524,-1.71482 1.822102,-2.90743 3.53822,-2.66886 1.71606,0.22531 2.920585,1.82117 2.681421,3.53818 -0.209501,1.502 -1.459486,2.60114 -2.916392,2.69461 z m 13.848745,-13.50317 c -5.467466,0 -9.895919,-4.42849 -9.895919,-9.89598 3.4e-5,-5.46737 4.428453,-9.90963 9.895919,-9.90963 5.467473,0 9.909743,4.44226 9.909743,9.90963 0,5.46749 -4.44227,9.89598 -9.909743,9.89598 z m 24.974713,-12.3421 c -0.16116,0.007 -0.31911,-0.004 -0.48382,-0.0129 -2.63565,-0.16092 -4.65723,-2.40775 -4.50564,-5.04468 0.1515,-2.63667 2.40905,-4.6435 5.0447,-4.49196 2.63565,0.16101 4.65724,2.40782 4.50565,5.04475 -0.14181,2.47226 -2.14024,4.39939 -4.56096,4.50574 z"/>
 </g>
</svg>
