<svg xmlns="http://www.w3.org/2000/svg" style="isolation:isolate" width="16" height="16" viewBox="0 0 16 16">
 <defs>
  <style id="current-color-scheme" type="text/css">
   .ColorScheme-Text { color:#eff0f2; } .ColorScheme-Highlight { color:#5294e2; }
  </style>
  <linearGradient id="arrongin" x1="0%" x2="0%" y1="0%" y2="100%">
   <stop offset="0%" style="stop-color:#dd9b44; stop-opacity:1"/>
   <stop offset="100%" style="stop-color:#ad6c16; stop-opacity:1"/>
  </linearGradient>
  <linearGradient id="aurora" x1="0%" x2="0%" y1="0%" y2="100%">
   <stop offset="0%" style="stop-color:#09D4DF; stop-opacity:1"/>
   <stop offset="100%" style="stop-color:#9269F4; stop-opacity:1"/>
  </linearGradient>
  <linearGradient id="fitdance" x1="0%" x2="0%" y1="0%" y2="100%">
   <stop offset="0%" style="stop-color:#1AD6AB; stop-opacity:1"/>
   <stop offset="100%" style="stop-color:#329DB6; stop-opacity:1"/>
  </linearGradient>
  <linearGradient id="oomox" x1="0%" x2="0%" y1="0%" y2="100%">
   <stop offset="0%" style="stop-color:#928374; stop-opacity:1"/>
   <stop offset="100%" style="stop-color:#928374; stop-opacity:1"/>
  </linearGradient>
  <linearGradient id="rainblue" x1="0%" x2="0%" y1="0%" y2="100%">
   <stop offset="0%" style="stop-color:#00F260; stop-opacity:1"/>
   <stop offset="100%" style="stop-color:#0575E6; stop-opacity:1"/>
  </linearGradient>
  <linearGradient id="sunrise" x1="0%" x2="0%" y1="0%" y2="100%">
   <stop offset="0%" style="stop-color: #FF8501; stop-opacity:1"/>
   <stop offset="100%" style="stop-color: #FFCB01; stop-opacity:1"/>
  </linearGradient>
  <linearGradient id="telinkrin" x1="0%" x2="0%" y1="0%" y2="100%">
   <stop offset="0%" style="stop-color: #b2ced6; stop-opacity:1"/>
   <stop offset="100%" style="stop-color: #6da5b7; stop-opacity:1"/>
  </linearGradient>
  <linearGradient id="60spsycho" x1="0%" x2="0%" y1="0%" y2="100%">
   <stop offset="0%" style="stop-color: #df5940; stop-opacity:1"/>
   <stop offset="25%" style="stop-color: #d8d15f; stop-opacity:1"/>
   <stop offset="50%" style="stop-color: #e9882a; stop-opacity:1"/>
   <stop offset="100%" style="stop-color: #279362; stop-opacity:1"/>
  </linearGradient>
  <linearGradient id="90ssummer" x1="0%" x2="0%" y1="0%" y2="100%">
   <stop offset="0%" style="stop-color: #f618c7; stop-opacity:1"/>
   <stop offset="20%" style="stop-color: #94ffab; stop-opacity:1"/>
   <stop offset="50%" style="stop-color: #fbfd54; stop-opacity:1"/>
   <stop offset="100%" style="stop-color: #0f83ae; stop-opacity:1"/>
  </linearGradient>
 </defs>
 <path style="fill:url(#oomox)" class="ColorScheme-Text" fill-rule="evenodd" d="M 15.382 4.285 C 15.35 4.267 15.317 4.251 15.285 4.233 C 14.761 3.971 14.184 3.798 13.572 3.738 C 12.49 3.631 11.455 3.89 10.581 4.417 C 9.983 4.064 9.305 3.833 8.575 3.761 C 7.57 3.662 6.606 3.88 5.772 4.334 C 5.764 4.337 5.756 4.343 5.748 4.348 C 5.728 4.364 5.714 4.389 5.714 4.418 C 5.714 4.468 5.753 4.508 5.8 4.508 C 5.805 4.508 5.81 4.507 5.814 4.507 C 5.817 4.506 5.819 4.506 5.82 4.506 C 6.268 4.42 6.736 4.395 7.212 4.442 C 8.548 4.574 9.712 5.002 10.53 5.967 C 10.572 6.013 10.61 6.01 10.653 5.965 C 11.682 4.725 13.257 4.235 14.951 4.401 C 15.045 4.411 15.139 4.423 15.231 4.438 C 15.263 4.443 15.313 4.451 15.342 4.454 C 15.398 4.461 15.429 4.414 15.429 4.365 C 15.428 4.33 15.414 4.302 15.382 4.285 L 15.382 4.285 Z M 12.749 8.286 C 10.957 8.286 9.297 8.846 7.942 9.799 C 6.906 9.34 5.759 9.086 4.551 9.086 C 3.797 9.086 3.067 9.185 2.373 9.371 C 2.378 9.395 2.367 9.348 2.373 9.371 C 1.519 9.637 0.753 10.097 0.058 10.589 C 0.054 10.592 0.049 10.595 0.045 10.598 C 0.01 10.626 -0.008 10.673 0.003 10.719 C 0.019 10.784 0.084 10.825 0.15 10.809 C 0.153 10.809 0.266 10.774 0.319 10.757 C 0.505 10.7 0.696 10.649 0.888 10.605 C 1.48 10.468 2.068 10.354 2.65 10.35 C 4.505 10.336 6.817 11.109 8.087 12.246 C 8.09 12.25 8.094 12.253 8.098 12.255 C 8.119 12.275 8.146 12.286 8.177 12.286 C 8.215 12.286 8.25 12.268 8.272 12.241 C 8.273 12.241 8.32 12.175 8.344 12.143 C 9.853 10.108 12.342 9.106 15.111 9.106 C 15.308 9.106 15.506 9.113 15.7 9.127 C 15.756 9.13 15.874 9.14 15.877 9.14 C 15.945 9.14 16 9.085 16 9.019 C 16 8.971 15.971 8.93 15.931 8.91 C 15.925 8.908 15.921 8.906 15.916 8.904 C 14.941 8.505 13.871 8.286 12.749 8.286 L 12.749 8.286 Z"/>
</svg>
