<svg xmlns="http://www.w3.org/2000/svg" width="16" height="16" version="1.1" viewBox="0 0 4.23 4.23">
<defs>
  <style id="current-color-scheme" type="text/css">
   .ColorScheme-Text { color:#eff0f2; } .ColorScheme-Highlight { color:#5294e2; }
  </style>
  <linearGradient id="arrongin" x1="0%" x2="0%" y1="0%" y2="100%">
   <stop offset="0%" style="stop-color:#dd9b44; stop-opacity:1"/>
   <stop offset="100%" style="stop-color:#ad6c16; stop-opacity:1"/>
  </linearGradient>
  <linearGradient id="aurora" x1="0%" x2="0%" y1="0%" y2="100%">
   <stop offset="0%" style="stop-color:#09D4DF; stop-opacity:1"/>
   <stop offset="100%" style="stop-color:#9269F4; stop-opacity:1"/>
  </linearGradient>
  <linearGradient id="fitdance" x1="0%" x2="0%" y1="0%" y2="100%">
   <stop offset="0%" style="stop-color:#1AD6AB; stop-opacity:1"/>
   <stop offset="100%" style="stop-color:#329DB6; stop-opacity:1"/>
  </linearGradient>
  <linearGradient id="oomox" x1="0%" x2="0%" y1="0%" y2="100%">
   <stop offset="0%" style="stop-color:#928374; stop-opacity:1"/>
   <stop offset="100%" style="stop-color:#928374; stop-opacity:1"/>
  </linearGradient>
  <linearGradient id="rainblue" x1="0%" x2="0%" y1="0%" y2="100%">
   <stop offset="0%" style="stop-color:#00F260; stop-opacity:1"/>
   <stop offset="100%" style="stop-color:#0575E6; stop-opacity:1"/>
  </linearGradient>
  <linearGradient id="sunrise" x1="0%" x2="0%" y1="0%" y2="100%">
   <stop offset="0%" style="stop-color: #FF8501; stop-opacity:1"/>
   <stop offset="100%" style="stop-color: #FFCB01; stop-opacity:1"/>
  </linearGradient>
  <linearGradient id="telinkrin" x1="0%" x2="0%" y1="0%" y2="100%">
   <stop offset="0%" style="stop-color: #b2ced6; stop-opacity:1"/>
   <stop offset="100%" style="stop-color: #6da5b7; stop-opacity:1"/>
  </linearGradient>
  <linearGradient id="60spsycho" x1="0%" x2="0%" y1="0%" y2="100%">
   <stop offset="0%" style="stop-color: #df5940; stop-opacity:1"/>
   <stop offset="25%" style="stop-color: #d8d15f; stop-opacity:1"/>
   <stop offset="50%" style="stop-color: #e9882a; stop-opacity:1"/>
   <stop offset="100%" style="stop-color: #279362; stop-opacity:1"/>
  </linearGradient>
  <linearGradient id="90ssummer" x1="0%" x2="0%" y1="0%" y2="100%">
   <stop offset="0%" style="stop-color: #f618c7; stop-opacity:1"/>
   <stop offset="20%" style="stop-color: #94ffab; stop-opacity:1"/>
   <stop offset="50%" style="stop-color: #fbfd54; stop-opacity:1"/>
   <stop offset="100%" style="stop-color: #0f83ae; stop-opacity:1"/>
  </linearGradient>
 </defs>
<defs>
  <style id="current-color-scheme" type="text/css">
   .ColorScheme-Text { color:#eff0f2; } .ColorScheme-Highlight { color:#5294e2; }
  </style>
  <linearGradient id="arrongin" x1="0%" x2="0%" y1="0%" y2="100%">
   <stop offset="0%" style="stop-color:#dd9b44; stop-opacity:1"/>
   <stop offset="100%" style="stop-color:#ad6c16; stop-opacity:1"/>
  </linearGradient>
  <linearGradient id="aurora" x1="0%" x2="0%" y1="0%" y2="100%">
   <stop offset="0%" style="stop-color:#09D4DF; stop-opacity:1"/>
   <stop offset="100%" style="stop-color:#9269F4; stop-opacity:1"/>
  </linearGradient>
  <linearGradient id="fitdance" x1="0%" x2="0%" y1="0%" y2="100%">
   <stop offset="0%" style="stop-color:#1AD6AB; stop-opacity:1"/>
   <stop offset="100%" style="stop-color:#329DB6; stop-opacity:1"/>
  </linearGradient>
  <linearGradient id="oomox" x1="0%" x2="0%" y1="0%" y2="100%">
   <stop offset="0%" style="stop-color:#928374; stop-opacity:1"/>
   <stop offset="100%" style="stop-color:#928374; stop-opacity:1"/>
  </linearGradient>
  <linearGradient id="rainblue" x1="0%" x2="0%" y1="0%" y2="100%">
   <stop offset="0%" style="stop-color:#00F260; stop-opacity:1"/>
   <stop offset="100%" style="stop-color:#0575E6; stop-opacity:1"/>
  </linearGradient>
  <linearGradient id="sunrise" x1="0%" x2="0%" y1="0%" y2="100%">
   <stop offset="0%" style="stop-color: #FF8501; stop-opacity:1"/>
   <stop offset="100%" style="stop-color: #FFCB01; stop-opacity:1"/>
  </linearGradient>
  <linearGradient id="telinkrin" x1="0%" x2="0%" y1="0%" y2="100%">
   <stop offset="0%" style="stop-color: #b2ced6; stop-opacity:1"/>
   <stop offset="100%" style="stop-color: #6da5b7; stop-opacity:1"/>
  </linearGradient>
  <linearGradient id="60spsycho" x1="0%" x2="0%" y1="0%" y2="100%">
   <stop offset="0%" style="stop-color: #df5940; stop-opacity:1"/>
   <stop offset="25%" style="stop-color: #d8d15f; stop-opacity:1"/>
   <stop offset="50%" style="stop-color: #e9882a; stop-opacity:1"/>
   <stop offset="100%" style="stop-color: #279362; stop-opacity:1"/>
  </linearGradient>
  <linearGradient id="90ssummer" x1="0%" x2="0%" y1="0%" y2="100%">
   <stop offset="0%" style="stop-color: #f618c7; stop-opacity:1"/>
   <stop offset="20%" style="stop-color: #94ffab; stop-opacity:1"/>
   <stop offset="50%" style="stop-color: #fbfd54; stop-opacity:1"/>
   <stop offset="100%" style="stop-color: #0f83ae; stop-opacity:1"/>
  </linearGradient>
 </defs>>
 <g transform="translate(0,-292.76665)">
  <path d="m 1.6422661,292.95156 c -0.90428533,0.21307 -1.55259443,1.04995 -1.50778696,1.9882 0.008814,0.18374 0.0823207,0.50267 0.15453729,0.67029 0.0998041,0.23165 0.35870154,0.60142 0.39633042,0.56607 0.0185148,-0.0174 0.24260679,-0.25106 0.24971184,-0.26039 0.002652,-0.003 -0.0309185,-0.053 -0.0746352,-0.11007 -0.14549795,-0.18984 -0.2459998,-0.39648 -0.29403517,-0.60455 -0.21396958,-0.92679 0.44461388,-1.82295 1.40230788,-1.90814 0.3450906,-0.0307 0.7687289,0.0857 1.0404046,0.28585 l 0.090448,0.0667 0.1334523,-0.14086 c 0.1186038,-0.1252 0.1305655,-0.14308 0.1079733,-0.16139 -0.4294543,-0.34814 -0.9697292,-0.50005 -1.5145726,-0.42582 -0.062432,0.009 -0.1238499,0.0199 -0.1841361,0.0341 z m -0.6055557,1.16206 c -0.012885,10e-4 -0.00483,0.0523 0.032749,0.21399 l 0.051283,0.22051 0.2587934,0.0962 c 0.1423417,0.0529 0.2591189,0.0977 0.2595213,0.0994 4.052e-4,0.002 -0.085094,0.0925 -0.1900105,0.20169 l -0.1907496,0.19848 0.050564,0.22063 c 0.039585,0.17258 0.054148,0.21734 0.066811,0.2053 0.065055,-0.0618 0.925011,-0.97056 0.9237237,-0.97613 -0.00128,-0.006 -1.173156,-0.45182 -1.2598438,-0.47976 -0.00104,-2.6e-4 -0.00198,-5.2e-4 -0.00284,-3.9e-4 z m 2.5155084,-0.52513 c -0.0016,2.6e-4 -0.003,0.001 -0.00418,0.002 -0.018516,0.0174 -0.2425996,0.25111 -0.2497004,0.26043 -0.00264,0.003 0.030918,0.053 0.074635,0.11007 0.1454982,0.18985 0.2459884,0.39644 0.2940238,0.6045 0.2139699,0.9268 -0.4446017,1.82301 -1.4022963,1.90819 -0.3450915,0.0307 -0.7686796,-0.0857 -1.0403547,-0.28586 l -0.090498,-0.0666 -0.133464,0.14081 c -0.11860043,0.1252 -0.13055382,0.14312 -0.10796151,0.16144 0.42945371,0.34813 0.96972931,0.50004 1.51457241,0.42582 0.9989079,-0.13608 1.7396546,-1.02158 1.6918607,-2.02238 -0.00879,-0.18375 -0.08226,-0.50263 -0.1544739,-0.67025 -0.096685,-0.22442 -0.3426709,-0.57846 -0.3921607,-0.56823 z m -0.692092,0.60688 c -7.997e-4,2.6e-4 -0.00162,7.8e-4 -0.0024,0.002 -0.065055,0.0618 -0.925023,0.97051 -0.9237358,0.97609 0.00128,0.006 1.1731566,0.45182 1.2598442,0.47975 0.016687,0.005 0.010133,-0.0411 -0.029897,-0.21359 l -0.05123,-0.22053 -0.2587936,-0.0962 c -0.1423412,-0.0529 -0.2591188,-0.0976 -0.2595211,-0.0994 -4.053e-4,-0.002 0.085094,-0.0925 0.1900101,-0.20169 l 0.1907499,-0.19849 -0.050618,-0.22061 c -0.03711,-0.1618 -0.052232,-0.21122 -0.06441,-0.20684 z" style="fill:url(#oomox)" class="ColorScheme-Text"/>
 </g>
</svg>
