<svg xmlns="http://www.w3.org/2000/svg" style="isolation:isolate" width="16" height="16" viewBox="0 0 16 16">
 <defs>
  <style id="current-color-scheme" type="text/css">
   .ColorScheme-Text { color:#eff0f2; } .ColorScheme-Highlight { color:#5294e2; }
  </style>
  <linearGradient id="arrongin" x1="0%" x2="0%" y1="0%" y2="100%">
   <stop offset="0%" style="stop-color:#dd9b44; stop-opacity:1"/>
   <stop offset="100%" style="stop-color:#ad6c16; stop-opacity:1"/>
  </linearGradient>
  <linearGradient id="aurora" x1="0%" x2="0%" y1="0%" y2="100%">
   <stop offset="0%" style="stop-color:#09D4DF; stop-opacity:1"/>
   <stop offset="100%" style="stop-color:#9269F4; stop-opacity:1"/>
  </linearGradient>
  <linearGradient id="fitdance" x1="0%" x2="0%" y1="0%" y2="100%">
   <stop offset="0%" style="stop-color:#1AD6AB; stop-opacity:1"/>
   <stop offset="100%" style="stop-color:#329DB6; stop-opacity:1"/>
  </linearGradient>
  <linearGradient id="oomox" x1="0%" x2="0%" y1="0%" y2="100%">
   <stop offset="0%" style="stop-color:#928374; stop-opacity:1"/>
   <stop offset="100%" style="stop-color:#928374; stop-opacity:1"/>
  </linearGradient>
  <linearGradient id="rainblue" x1="0%" x2="0%" y1="0%" y2="100%">
   <stop offset="0%" style="stop-color:#00F260; stop-opacity:1"/>
   <stop offset="100%" style="stop-color:#0575E6; stop-opacity:1"/>
  </linearGradient>
  <linearGradient id="sunrise" x1="0%" x2="0%" y1="0%" y2="100%">
   <stop offset="0%" style="stop-color: #FF8501; stop-opacity:1"/>
   <stop offset="100%" style="stop-color: #FFCB01; stop-opacity:1"/>
  </linearGradient>
  <linearGradient id="telinkrin" x1="0%" x2="0%" y1="0%" y2="100%">
   <stop offset="0%" style="stop-color: #b2ced6; stop-opacity:1"/>
   <stop offset="100%" style="stop-color: #6da5b7; stop-opacity:1"/>
  </linearGradient>
  <linearGradient id="60spsycho" x1="0%" x2="0%" y1="0%" y2="100%">
   <stop offset="0%" style="stop-color: #df5940; stop-opacity:1"/>
   <stop offset="25%" style="stop-color: #d8d15f; stop-opacity:1"/>
   <stop offset="50%" style="stop-color: #e9882a; stop-opacity:1"/>
   <stop offset="100%" style="stop-color: #279362; stop-opacity:1"/>
  </linearGradient>
  <linearGradient id="90ssummer" x1="0%" x2="0%" y1="0%" y2="100%">
   <stop offset="0%" style="stop-color: #f618c7; stop-opacity:1"/>
   <stop offset="20%" style="stop-color: #94ffab; stop-opacity:1"/>
   <stop offset="50%" style="stop-color: #fbfd54; stop-opacity:1"/>
   <stop offset="100%" style="stop-color: #0f83ae; stop-opacity:1"/>
  </linearGradient>
  <clipPath id="_clipPath_EP43kt8VjoM84VjxG2rlGCMO6DvaTIg5">
   <rect width="16" height="16"/>
  </clipPath>
 </defs>
 <g clip-path="url(#_clipPath_EP43kt8VjoM84VjxG2rlGCMO6DvaTIg5)">
  <rect style="fill:url(#oomox)" class="ColorScheme-Text" fill-opacity="0" width="16" height="16"/>
  <path style="fill:url(#oomox)" class="ColorScheme-Text" d="M 7.269 15.973 C 4.878 15.742 2.672 14.429 1.36 12.456 C 0.129 10.604 -0.284 8.41 0.194 6.267 C 0.372 5.469 0.821 4.314 0.913 4.416 C 0.933 4.439 0.997 4.647 1.054 4.879 C 1.39 6.249 2.266 7.25 3.739 7.95 C 4.679 8.396 5.577 8.656 7.414 9.014 C 9.117 9.346 9.557 9.52 10.245 9.864 C 10.996 10.241 11.465 10.677 11.747 11.26 C 12.003 11.79 12.063 12.136 12.038 12.925 C 12.019 13.527 12.001 13.648 11.88 13.98 C 11.443 15.11 10.52 15.572 9.682 15.781 C 8.93 15.967 8.031 16.046 7.269 15.973 Z M 15.012 11.435 C 14.713 9.664 13.728 8.369 12.044 7.532 C 11.068 7.046 10.383 6.846 8.107 6.383 C 6.396 6.034 5.272 5.836 4.642 5.535 C 3.891 5.176 3.43 4.617 3.277 3.88 C 3.202 3.516 3.213 2.628 3.297 2.298 C 3.466 1.632 3.958 0.926 4.428 0.672 C 4.554 0.605 4.852 0.484 5.091 0.405 C 8.486 -0.725 12.657 0.569 14.646 3.551 C 15.87 5.386 16.285 7.596 15.806 9.73 C 15.627 10.53 15.212 11.611 15.085 11.611 C 15.061 11.611 15.028 11.532 15.012 11.435 L 15.012 11.435 Z"/>
 </g>
</svg>
