<svg xmlns="http://www.w3.org/2000/svg" style="isolation:isolate" width="16" height="16" viewBox="0 0 16 16">
 <defs>
  <style id="current-color-scheme" type="text/css">
   .ColorScheme-Text { color:#eff0f2; } .ColorScheme-Highlight { color:#5294e2; }
  </style>
  <linearGradient id="arrongin" x1="0%" x2="0%" y1="0%" y2="100%">
   <stop offset="0%" style="stop-color:#dd9b44; stop-opacity:1"/>
   <stop offset="100%" style="stop-color:#ad6c16; stop-opacity:1"/>
  </linearGradient>
  <linearGradient id="aurora" x1="0%" x2="0%" y1="0%" y2="100%">
   <stop offset="0%" style="stop-color:#09D4DF; stop-opacity:1"/>
   <stop offset="100%" style="stop-color:#9269F4; stop-opacity:1"/>
  </linearGradient>
  <linearGradient id="fitdance" x1="0%" x2="0%" y1="0%" y2="100%">
   <stop offset="0%" style="stop-color:#1AD6AB; stop-opacity:1"/>
   <stop offset="100%" style="stop-color:#329DB6; stop-opacity:1"/>
  </linearGradient>
  <linearGradient id="oomox" x1="0%" x2="0%" y1="0%" y2="100%">
   <stop offset="0%" style="stop-color:#928374; stop-opacity:1"/>
   <stop offset="100%" style="stop-color:#928374; stop-opacity:1"/>
  </linearGradient>
  <linearGradient id="rainblue" x1="0%" x2="0%" y1="0%" y2="100%">
   <stop offset="0%" style="stop-color:#00F260; stop-opacity:1"/>
   <stop offset="100%" style="stop-color:#0575E6; stop-opacity:1"/>
  </linearGradient>
  <linearGradient id="sunrise" x1="0%" x2="0%" y1="0%" y2="100%">
   <stop offset="0%" style="stop-color: #FF8501; stop-opacity:1"/>
   <stop offset="100%" style="stop-color: #FFCB01; stop-opacity:1"/>
  </linearGradient>
  <linearGradient id="telinkrin" x1="0%" x2="0%" y1="0%" y2="100%">
   <stop offset="0%" style="stop-color: #b2ced6; stop-opacity:1"/>
   <stop offset="100%" style="stop-color: #6da5b7; stop-opacity:1"/>
  </linearGradient>
  <linearGradient id="60spsycho" x1="0%" x2="0%" y1="0%" y2="100%">
   <stop offset="0%" style="stop-color: #df5940; stop-opacity:1"/>
   <stop offset="25%" style="stop-color: #d8d15f; stop-opacity:1"/>
   <stop offset="50%" style="stop-color: #e9882a; stop-opacity:1"/>
   <stop offset="100%" style="stop-color: #279362; stop-opacity:1"/>
  </linearGradient>
  <linearGradient id="90ssummer" x1="0%" x2="0%" y1="0%" y2="100%">
   <stop offset="0%" style="stop-color: #f618c7; stop-opacity:1"/>
   <stop offset="20%" style="stop-color: #94ffab; stop-opacity:1"/>
   <stop offset="50%" style="stop-color: #fbfd54; stop-opacity:1"/>
   <stop offset="100%" style="stop-color: #0f83ae; stop-opacity:1"/>
  </linearGradient>
 </defs>
 <path style="fill:url(#oomox)" class="ColorScheme-Text" fill-rule="evenodd" d="M 15.225 12.766 C 15.227 12.758 15.228 12.749 15.23 12.74 C 15.3 12.34 15.34 11.94 15.36 11.53 C 15.39 11 15.4 10.47 15.4 9.94 C 15.4 9.94 15.4 9.94 15.4 9.94 L 15.4 6.06 C 15.4 6.06 15.4 6.06 15.4 6.06 C 15.4 5.53 15.39 5 15.36 4.47 C 15.34 4.06 15.3 3.66 15.23 3.26 C 15.18 2.97 15.09 2.69 14.98 2.43 C 14.89 2.24 14.77 2.06 14.62 1.91 C 14.47 1.76 14.3 1.64 14.1 1.56 C 13.84 1.44 13.56 1.36 13.27 1.31 C 12.87 1.24 12.47 1.19 12.06 1.17 C 11.53 1.14 11 1.13 10.47 1.13 L 10.47 1.13 C 10.47 1.13 10.47 1.13 10.46 1.13 L 5.54 1.13 C 5.53 1.13 5.53 1.13 5.53 1.13 C 5 1.13 4.47 1.14 3.94 1.17 C 3.53 1.19 3.13 1.24 2.73 1.31 C 2.44 1.36 2.16 1.44 1.9 1.56 C 1.7 1.64 1.53 1.76 1.38 1.91 C 1.23 2.06 1.11 2.24 1.02 2.43 C 0.91 2.69 0.82 2.97 0.77 3.26 C 0.7 3.66 0.66 4.06 0.64 4.47 C 0.61 5 0.6 5.53 0.6 6.06 C 0.6 6.06 0.6 6.06 0.6 6.06 L 0.6 9.94 C 0.6 9.94 0.6 9.94 0.6 9.94 C 0.6 10.47 0.61 11 0.64 11.53 C 0.66 11.94 0.7 12.34 0.77 12.74 C 0.772 12.749 0.773 12.758 0.775 12.766 L 15.225 12.766 L 15.225 12.766 L 15.225 12.766 L 15.225 12.766 Z M 4.576 13.053 L 11.424 13.053 C 11.687 13.053 11.9 13.266 11.9 13.529 L 11.9 14.742 C 11.9 15.005 11.687 15.219 11.424 15.219 L 4.576 15.219 C 4.313 15.219 4.1 15.005 4.1 14.742 L 4.1 13.529 C 4.1 13.266 4.313 13.053 4.576 13.053 L 4.576 13.053 Z M 10.465 0.533 C 15.308 0.533 16 1.224 16 6.063 L 16 9.938 C 16 14.776 15.308 15.467 10.465 15.467 L 5.535 15.467 L 5.535 15.467 C 0.692 15.467 0 14.776 0 9.938 L 0 6.063 C 0 1.224 0.692 0.533 5.535 0.533 L 10.465 0.533 L 10.465 0.533 L 10.465 0.533 L 10.465 0.533 L 10.465 0.533 Z M 5.568 13.277 C 6.124 13.277 6.204 13.356 6.204 13.913 L 6.204 14.358 C 6.204 14.915 6.124 14.994 5.568 14.994 L 5.001 14.994 C 4.444 14.994 4.364 14.915 4.364 14.358 L 4.364 13.913 C 4.364 13.356 4.444 13.277 5.001 13.277 L 5.568 13.277 Z"/>
</svg>
