<svg xmlns="http://www.w3.org/2000/svg" style="isolation:isolate" width="16" height="16" viewBox="0 0 16 16">
 <defs>
  <style id="current-color-scheme" type="text/css">
   .ColorScheme-Text { color:#eff0f2; } .ColorScheme-Highlight { color:#5294e2; }
  </style>
  <linearGradient id="arrongin" x1="0%" x2="0%" y1="0%" y2="100%">
   <stop offset="0%" style="stop-color:#dd9b44; stop-opacity:1"/>
   <stop offset="100%" style="stop-color:#ad6c16; stop-opacity:1"/>
  </linearGradient>
  <linearGradient id="aurora" x1="0%" x2="0%" y1="0%" y2="100%">
   <stop offset="0%" style="stop-color:#09D4DF; stop-opacity:1"/>
   <stop offset="100%" style="stop-color:#9269F4; stop-opacity:1"/>
  </linearGradient>
  <linearGradient id="fitdance" x1="0%" x2="0%" y1="0%" y2="100%">
   <stop offset="0%" style="stop-color:#1AD6AB; stop-opacity:1"/>
   <stop offset="100%" style="stop-color:#329DB6; stop-opacity:1"/>
  </linearGradient>
  <linearGradient id="oomox" x1="0%" x2="0%" y1="0%" y2="100%">
   <stop offset="0%" style="stop-color:#928374; stop-opacity:1"/>
   <stop offset="100%" style="stop-color:#928374; stop-opacity:1"/>
  </linearGradient>
  <linearGradient id="rainblue" x1="0%" x2="0%" y1="0%" y2="100%">
   <stop offset="0%" style="stop-color:#00F260; stop-opacity:1"/>
   <stop offset="100%" style="stop-color:#0575E6; stop-opacity:1"/>
  </linearGradient>
  <linearGradient id="sunrise" x1="0%" x2="0%" y1="0%" y2="100%">
   <stop offset="0%" style="stop-color: #FF8501; stop-opacity:1"/>
   <stop offset="100%" style="stop-color: #FFCB01; stop-opacity:1"/>
  </linearGradient>
  <linearGradient id="telinkrin" x1="0%" x2="0%" y1="0%" y2="100%">
   <stop offset="0%" style="stop-color: #b2ced6; stop-opacity:1"/>
   <stop offset="100%" style="stop-color: #6da5b7; stop-opacity:1"/>
  </linearGradient>
  <linearGradient id="60spsycho" x1="0%" x2="0%" y1="0%" y2="100%">
   <stop offset="0%" style="stop-color: #df5940; stop-opacity:1"/>
   <stop offset="25%" style="stop-color: #d8d15f; stop-opacity:1"/>
   <stop offset="50%" style="stop-color: #e9882a; stop-opacity:1"/>
   <stop offset="100%" style="stop-color: #279362; stop-opacity:1"/>
  </linearGradient>
  <linearGradient id="90ssummer" x1="0%" x2="0%" y1="0%" y2="100%">
   <stop offset="0%" style="stop-color: #f618c7; stop-opacity:1"/>
   <stop offset="20%" style="stop-color: #94ffab; stop-opacity:1"/>
   <stop offset="50%" style="stop-color: #fbfd54; stop-opacity:1"/>
   <stop offset="100%" style="stop-color: #0f83ae; stop-opacity:1"/>
  </linearGradient>
  <clipPath id="_clipPath_yUeZEEgjiDjiAgs3HJiH6SNb7mychrRz">
   <rect width="16" height="16"/>
  </clipPath>
 </defs>
 <g clip-path="url(#_clipPath_yUeZEEgjiDjiAgs3HJiH6SNb7mychrRz)">
  <rect style="fill:url(#oomox)" class="ColorScheme-Text" fill-opacity="0" width="16" height="16"/>
  <g>
   <path style="fill:url(#oomox)" class="ColorScheme-Text" fill-rule="evenodd" d="M 15.517 14.737 C 15.727 15.326 15.307 16 14.633 16 L 1.382 16 C 0.709 16 0.246 15.368 0.498 14.737 L 4.714 4.211 L 4.714 0.842 L 11.286 0.842 L 11.286 4.211 L 15.517 14.737 Z M 14.86 14.98 C 14.87 15 14.87 15.03 14.87 15.05 C 14.87 15.12 14.85 15.18 14.8 15.23 C 14.76 15.27 14.7 15.3 14.63 15.3 L 1.38 15.3 C 1.38 15.3 1.37 15.3 1.37 15.3 C 1.31 15.3 1.25 15.28 1.2 15.24 C 1.16 15.2 1.13 15.14 1.13 15.08 C 1.13 15.06 1.14 15.03 1.15 15 C 1.15 15 1.15 15 1.15 15 L 5.41 4.35 L 5.41 1.54 L 10.59 1.54 L 10.59 4.35 L 14.86 14.98 Z"/>
   <path style="fill:url(#oomox)" class="ColorScheme-Text" d="M 11.543 1.714 L 4.457 1.714 C 3.97 1.714 3.571 1.329 3.571 0.857 C 3.571 0.386 3.97 0 4.457 0 L 11.543 0 C 12.03 0 12.429 0.386 12.429 0.857 C 12.429 1.329 12.03 1.714 11.543 1.714 Z"/>
   <path style="fill:url(#oomox)" class="ColorScheme-Text" d="M 6.494 9.337 C 5.234 8.643 4.429 7.489 4.429 7.489 C 4.429 7.489 6.258 6.005 8.238 6.333 C 10.193 6.658 11.538 8.549 11.563 8.585 C 11.571 8.586 11.571 8.586 11.571 8.586 C 11.571 8.586 11.571 8.586 11.571 8.597 C 11.571 8.586 11.571 8.586 11.571 8.597 C 11.571 8.628 11.545 10.28 9.956 11.393 C 11.634 11.975 12.943 13.01 12.943 13.01 C 12.943 13.01 11.398 14.702 8.931 14.563 L 8.931 14.563 C 6.533 14.428 4.27 12.637 4.175 12.561 C 4.144 12.559 4.143 12.559 4.143 12.559 C 4.143 12.559 4.089 10.617 6.165 9.501 C 6.272 9.443 6.382 9.389 6.494 9.337 Z"/>
  </g>
 </g>
</svg>
