<?xml version="1.0" standalone="no"?><!-- Generator: Gravit.io --><svg xmlns="http://www.w3.org/2000/svg" xmlns:xlink="http://www.w3.org/1999/xlink" style="isolation:isolate" viewBox="0 0 256 256" width="256" height="256"><defs><filter id="ERLyq9l7MmU6MahHMIe9Dd5B43gdzfyV" x="-200%" y="-200%" width="400%" height="400%" filterUnits="objectBoundingBox" color-interpolation-filters="sRGB"><feGaussianBlur xmlns="http://www.w3.org/2000/svg" in="SourceGraphic" stdDeviation="4.293609062839028"/><feOffset xmlns="http://www.w3.org/2000/svg" dx="0" dy="4" result="pf_100_offsetBlur"/><feFlood xmlns="http://www.w3.org/2000/svg" flood-color="#000000" flood-opacity="0.4"/><feComposite xmlns="http://www.w3.org/2000/svg" in2="pf_100_offsetBlur" operator="in" result="pf_100_dropShadow"/><feBlend xmlns="http://www.w3.org/2000/svg" in="SourceGraphic" in2="pf_100_dropShadow" mode="normal"/></filter></defs><g filter="url(#ERLyq9l7MmU6MahHMIe9Dd5B43gdzfyV)"><path d=" M 165.628 11.952 C 239.684 11.952 250.267 22.509 250.267 96.495 L 250.267 155.746 C 250.267 229.733 239.684 240.29 165.628 240.29 L 90.259 240.29 C 16.203 240.29 5.619 229.733 5.619 155.746 L 5.619 96.495 C 5.619 22.509 16.203 11.952 90.259 11.952 L 165.628 11.952 Z " id="shape" fill="rgb(188,25,56)"/></g><g id="albania"><path d=" M 193.629 154.162 C 192.902 154.056 192.379 153.71 191.864 153.231 C 190.436 151.891 188.91 151.794 187.233 152.814 C 186.665 153.16 186.151 153.568 185.69 154.074 C 185.406 154.384 185.095 154.508 184.678 154.517 L 177.785 154.704 C 177.608 154.712 177.386 154.819 177.262 154.562 C 178.291 153.568 179.364 152.592 180.385 151.59 C 180.899 151.075 181.378 150.933 182.123 151.111 C 184.386 151.661 186.08 150.942 186.985 149.124 C 187.508 148.086 188.333 147.518 189.389 147.234 C 189.859 147.11 190.338 147.065 190.906 146.95 C 189.54 145.646 188.076 145.655 186.541 146.267 C 186.08 146.453 185.698 146.533 185.211 146.356 C 183.073 145.54 182.088 146.001 181.263 148.121 C 181.103 148.52 180.952 148.919 180.544 149.177 C 178.415 150.57 176.295 151.98 174.175 153.417 C 173.811 153.674 173.465 153.728 173.021 153.595 C 170.138 152.814 167.237 152.087 164.345 151.324 C 162.509 150.845 160.682 150.357 158.623 149.789 C 159.75 148.671 160.761 147.704 161.755 146.711 C 162.562 145.903 162.332 145.025 161.232 144.706 C 160.327 144.448 159.413 144.262 158.49 144.031 C 151.287 142.293 146.727 137.751 144.527 130.742 C 144.279 129.962 144.128 129.19 144.359 128.374 C 144.527 127.833 144.829 127.416 145.414 127.318 C 145.964 127.229 146.39 127.54 146.656 127.975 C 146.931 128.418 147.144 128.906 147.339 129.385 C 148.626 132.463 150.32 135.205 153.088 137.183 C 153.789 137.689 154.525 137.866 155.35 137.786 C 156.042 137.724 156.823 137.644 157.08 136.881 C 157.328 136.127 156.743 135.622 156.184 135.249 C 153.771 133.572 152.538 131.168 151.89 128.383 C 151.58 127.096 152.192 125.819 153.327 125.508 C 154.365 125.224 155.439 125.97 155.838 127.265 C 156.326 128.853 156.752 130.458 157.328 132.011 C 158.694 135.719 161.214 138.416 164.833 140.057 C 166.164 140.669 167.787 140.261 168.701 139.214 C 169.402 138.425 169.402 137.529 168.692 136.748 C 168.258 136.269 167.699 135.967 167.104 135.719 C 165.126 134.867 163.299 133.767 161.977 132.011 C 160.522 130.059 160.069 127.859 160.46 125.499 C 160.655 124.275 161.365 124 162.447 124.559 C 162.953 124.807 163.352 125.198 163.733 125.615 C 168.08 130.396 172.401 135.205 177.031 139.693 C 179.418 142.027 182.39 143.011 185.716 142.355 C 187.765 141.956 189.646 141.131 190.764 139.205 C 191.243 138.38 191.518 137.484 190.915 136.615 C 190.312 135.755 189.38 135.684 188.44 135.781 C 183.942 136.313 179.932 135.107 176.428 132.295 C 173.119 129.633 170.653 126.28 168.453 122.696 C 167.912 121.844 167.592 120.878 167.601 119.857 C 167.628 118.988 168.018 118.775 168.79 119.183 C 169.34 119.467 169.748 119.902 170.129 120.39 C 172.587 123.45 175.497 125.97 178.983 127.806 C 181.733 129.261 184.607 130.166 187.757 129.775 C 190.072 129.491 191.145 128.729 191.58 125.854 C 191.873 123.903 190.897 123.113 189.034 123.681 C 185.104 124.878 181.378 124.311 177.83 122.324 C 174.414 120.398 171.744 117.622 169.375 114.57 C 168.692 113.683 168.435 112.565 168.568 111.421 C 168.666 110.684 169.118 110.365 169.863 110.454 C 170.529 110.525 171.043 110.88 171.54 111.288 C 174.29 113.506 177.2 115.466 180.438 116.885 C 182.691 117.879 184.989 118.686 187.508 118.287 C 189.859 117.923 191.607 115.874 191.438 113.674 C 191.358 112.397 190.595 111.58 189.336 111.421 C 188.599 111.341 187.899 111.465 187.18 111.545 C 183.516 111.953 180.065 111.412 176.934 109.345 C 174.592 107.792 172.445 106 170.334 104.164 C 170.147 104.004 169.979 103.809 169.854 103.596 C 169.375 102.869 169.287 101.902 169.713 101.591 C 170.36 101.104 170.928 101.565 171.442 101.893 C 174.308 103.694 177.377 104.971 180.677 105.717 C 183.215 106.293 185.752 106.63 188.324 105.974 C 190.081 105.53 191.163 104.413 191.491 102.621 C 191.855 100.651 190.533 99.294 188.555 99.595 C 187.925 99.702 187.313 99.879 186.754 100.19 C 184.439 101.494 182.008 101.707 179.444 101.05 C 176.925 100.403 174.663 99.196 172.471 97.83 C 171.363 97.147 170.2 96.535 169.287 95.586 C 168.55 94.805 168.471 93.847 168.994 93.173 C 169.5 92.534 170.227 92.463 171.256 92.986 C 172.516 93.625 173.776 94.246 175.115 94.725 C 178.282 95.87 181.502 96.553 184.891 95.994 C 188.449 95.408 191.066 92.871 191.66 89.465 C 191.758 88.985 191.758 88.533 191.624 88.063 C 191.332 86.998 190.551 86.528 189.478 86.777 C 188.635 86.972 187.987 87.468 187.34 88.001 C 184.084 90.715 180.393 91.496 176.295 90.387 C 174.397 89.881 172.711 88.985 171.043 87.956 C 170.2 87.442 169.491 86.901 169.189 85.943 C 168.87 84.905 169.304 84.31 170.396 84.319 C 170.804 84.319 171.212 84.372 171.629 84.452 C 175.94 85.313 180.26 85.588 184.536 84.328 C 187.952 83.326 190.56 81.436 191.518 77.79 C 191.846 76.566 191.447 75.173 190.551 74.57 C 189.726 74.002 188.688 74.144 187.57 75.004 C 187.047 75.412 186.568 75.883 186.062 76.308 C 181.804 79.866 176.73 80.034 171.567 79.786 C 170.227 79.724 169.331 78.438 169.464 77.24 C 169.588 76.158 170.449 75.59 171.886 75.492 C 178.318 75.049 183.889 72.547 188.679 68.324 C 190.347 66.852 191.474 64.953 191.962 62.753 C 192.361 61.014 191.882 59.444 190.631 58.176 C 189.575 57.111 188.351 57.218 187.428 58.389 C 187.136 58.761 186.914 59.178 186.648 59.568 C 182.709 65.521 177.218 69.167 170.2 70.569 C 169.446 70.72 169.074 70.533 168.657 69.921 C 167.921 68.812 167.246 68.573 166.297 68.936 C 161.01 70.995 155.873 73.425 150.888 76.122 C 150.347 76.415 150.151 76.823 150.169 77.4 C 150.196 78.278 150.444 79.094 150.719 79.901 C 151.296 81.676 151.163 83.405 150.524 85.109 C 149.69 87.362 147.756 88.569 145.255 88.453 C 143.241 88.364 141.449 86.803 140.881 84.594 C 140.304 82.305 140.482 80.043 141.6 77.967 C 143.516 74.419 146.319 71.766 150.063 70.214 C 152.884 69.034 155.9 68.52 158.863 67.836 C 160.469 67.482 162.083 67.242 163.458 66.231 C 163.902 65.903 164.292 65.539 164.372 64.847 C 163.121 65.219 161.986 65.619 160.824 65.911 C 159.236 66.311 157.94 65.69 156.761 64.634 C 157.177 64.527 157.577 64.51 157.976 64.527 C 160.407 64.652 162.837 64.705 165.25 64.199 C 167.255 63.782 169.136 63.259 170.342 61.431 C 170.6 61.023 170.786 60.606 170.777 60.118 C 170.768 59.01 170.023 58.566 169.056 59.134 C 168.373 59.533 167.876 60.145 167.388 60.748 C 166.448 61.893 165.233 62.549 163.831 62.895 C 162.243 63.303 160.628 63.472 158.978 63.365 C 158.544 63.339 158.127 63.277 157.648 63.055 C 158.623 62.035 159.599 61.183 160.824 60.668 C 162.216 60.092 163.068 60.278 164.124 61.36 C 164.239 61.476 164.31 61.724 164.558 61.635 C 164.922 59.604 163.955 58.238 161.924 57.883 C 160.753 57.688 159.599 57.803 158.437 57.927 C 158.233 57.945 157.94 58.158 157.834 57.768 C 157.497 56.694 156.539 56.366 155.634 56.064 C 152.964 55.186 150.311 55.417 147.747 56.455 C 145.476 57.368 143.152 58.043 140.739 58.468 C 139.311 58.726 137.874 58.885 136.357 59.107 C 137.67 60.376 139.213 61.21 140.686 62.336 C 138.042 63.454 135.904 65.042 134.236 67.224 L 134.29 67.508 L 138.317 67.508 L 138.299 67.739 C 137.049 68.191 135.789 68.599 134.565 69.096 C 133.305 69.611 132.187 70.347 131.22 71.447 C 131.912 71.616 132.524 71.749 133.136 71.908 C 133.624 72.033 133.722 72.308 133.332 72.654 C 131.575 74.188 130.111 76.016 128.515 77.701 C 128.106 78.127 127.902 77.941 127.592 77.621 C 126.022 75.989 124.602 74.197 122.881 72.698 C 122.385 72.263 122.597 71.997 123.13 71.864 C 123.706 71.713 124.283 71.589 124.948 71.438 C 123.014 69.247 120.362 68.617 117.834 67.739 L 117.896 67.455 L 122.11 67.455 C 120.264 65.024 118.109 63.454 115.492 62.327 C 116.964 61.192 118.534 60.376 119.83 59.045 C 115.758 58.672 111.925 57.874 108.244 56.384 C 105.582 55.301 102.859 55.186 100.127 56.189 C 99.426 56.455 98.698 56.756 98.423 57.528 C 98.273 57.945 98.095 57.972 97.696 57.918 C 96.33 57.732 94.946 57.599 93.58 58.034 C 91.93 58.557 91.176 60.003 91.655 61.715 C 92.258 61.121 92.79 60.456 93.686 60.358 C 95.114 60.189 97.758 61.76 98.37 63.126 C 97.261 63.463 96.117 63.419 94.981 63.321 C 92.347 63.108 89.898 62.443 88.239 60.136 C 88.035 59.843 87.76 59.595 87.485 59.382 C 86.988 59.001 86.447 58.593 85.835 59.036 C 85.241 59.471 85.312 60.163 85.498 60.793 C 85.658 61.307 86.004 61.715 86.358 62.106 C 87.361 63.188 88.656 63.685 90.058 64.013 C 92.755 64.643 95.487 64.705 98.237 64.527 C 98.618 64.501 99.044 64.421 99.479 64.678 C 97.873 66.044 96.17 66.346 94.254 65.645 C 93.464 65.353 92.684 65.015 91.805 64.865 C 91.859 65.539 92.249 65.885 92.675 66.204 C 93.597 66.905 94.68 67.242 95.789 67.499 C 97.98 68.005 100.153 68.52 102.344 68.99 C 106.789 69.957 110.435 72.183 113.229 75.803 C 115.066 78.18 115.9 80.806 115.447 83.805 C 115.075 86.324 113.247 88.347 111.029 88.409 C 108.084 88.489 106.265 87.3 105.476 84.656 C 104.988 83.068 104.899 81.454 105.449 79.839 C 105.733 79.005 105.99 78.154 105.99 77.249 C 105.982 76.761 105.822 76.397 105.378 76.158 C 100.313 73.399 95.114 70.95 89.738 68.848 C 89.171 68.626 88.656 68.732 88.186 69.114 C 87.813 69.416 87.485 69.762 87.272 70.17 C 87.05 70.587 86.784 70.657 86.323 70.578 C 81.009 69.699 76.52 67.251 72.688 63.498 C 71.268 62.123 70.115 60.544 69.086 58.85 C 67.915 56.916 66.203 56.889 64.952 58.779 C 64.056 60.145 63.799 61.635 64.305 63.223 C 65.387 66.603 67.685 68.972 70.63 70.764 C 74.986 73.408 79.572 75.395 84.797 75.466 C 85.596 75.475 86.225 75.918 86.545 76.672 C 86.864 77.426 86.731 78.145 86.208 78.775 C 85.675 79.422 84.966 79.795 84.123 79.804 C 82.792 79.813 81.462 79.821 80.131 79.768 C 75.961 79.591 72.182 78.402 69.122 75.395 C 68.669 74.951 68.146 74.57 67.534 74.339 C 66.389 73.922 65.378 74.33 64.828 75.421 C 64.473 76.131 64.42 76.876 64.597 77.613 C 65.138 79.768 66.292 81.498 68.181 82.722 C 70.248 84.062 72.564 84.683 74.977 84.949 C 78.268 85.322 81.497 85.02 84.726 84.355 C 85.48 84.204 86.367 83.929 86.926 84.78 C 87.272 85.304 86.855 86.502 86.172 87.185 C 86.092 87.264 86.012 87.344 85.915 87.398 C 84.629 88.143 83.395 89.012 82.012 89.58 C 77.141 91.594 72.608 91.248 68.518 87.69 C 67.977 87.211 67.347 86.856 66.629 86.697 C 65.6 86.466 64.828 86.927 64.535 87.948 C 64.393 88.435 64.393 88.923 64.491 89.429 C 65.192 93.261 68.43 95.905 72.617 96.091 C 75.633 96.233 78.507 95.595 81.311 94.548 C 82.659 94.042 83.937 93.386 85.223 92.738 C 85.844 92.427 86.465 92.427 86.997 92.933 C 87.538 93.457 87.583 94.095 87.317 94.77 C 87.113 95.293 86.74 95.728 86.27 96.038 C 84.061 97.564 81.79 99.001 79.306 100.066 C 75.837 101.565 72.386 101.964 68.962 99.906 C 68.43 99.587 67.809 99.507 67.197 99.462 C 65.502 99.347 64.331 100.66 64.606 102.417 C 64.899 104.244 65.972 105.406 67.755 105.885 C 69.272 106.293 70.825 106.32 72.377 106.151 C 76.857 105.654 80.982 104.138 84.779 101.742 C 84.948 101.636 85.108 101.529 85.285 101.458 C 85.658 101.316 86.03 101.183 86.385 101.476 C 86.731 101.76 86.713 102.168 86.642 102.558 C 86.536 103.242 86.154 103.774 85.64 104.226 C 84.07 105.592 82.455 106.905 80.814 108.165 C 77.567 110.658 73.948 111.935 69.814 111.545 C 69.068 111.474 68.323 111.385 67.578 111.332 C 65.644 111.164 64.509 112.29 64.677 114.224 C 64.846 116.167 66.505 117.852 68.563 118.207 C 70.106 118.482 71.606 118.216 73.069 117.773 C 77.381 116.451 81.045 113.976 84.54 111.226 C 84.966 110.889 85.383 110.578 85.897 110.436 C 86.908 110.143 87.556 110.569 87.574 111.634 C 87.592 112.707 87.352 113.754 86.669 114.597 C 84.806 116.983 82.721 119.174 80.264 120.966 C 77.292 123.14 74.027 124.399 70.284 124.195 C 69.024 124.124 67.826 123.805 66.62 123.486 C 65.591 123.211 64.819 123.61 64.562 124.488 C 63.985 126.44 65.449 129.048 67.418 129.518 C 69.964 130.148 72.439 129.696 74.817 128.764 C 79.315 127.025 82.925 124.053 85.95 120.345 C 86.358 119.84 86.775 119.361 87.361 119.077 C 88.088 118.695 88.479 118.926 88.488 119.742 C 88.505 120.86 88.133 121.88 87.556 122.803 C 85.64 125.863 83.511 128.764 80.841 131.221 C 77.425 134.371 73.451 136.038 68.758 135.817 C 68.146 135.79 67.543 135.666 66.939 135.701 C 65.28 135.772 64.5 136.934 65.032 138.487 C 65.298 139.294 65.751 139.977 66.443 140.501 C 70.789 143.836 75.944 142.648 78.978 139.711 C 83.644 135.205 87.973 130.37 92.338 125.579 C 92.728 125.145 93.145 124.737 93.668 124.47 C 94.724 123.947 95.407 124.231 95.62 125.384 C 95.939 127.105 95.744 128.808 95.008 130.414 C 93.801 133.049 91.548 134.513 89.011 135.63 C 88.479 135.861 87.955 136.118 87.529 136.535 C 86.633 137.405 86.616 138.451 87.529 139.285 C 88.629 140.279 89.907 140.634 91.3 139.986 C 94.875 138.309 97.403 135.63 98.76 131.913 C 99.337 130.325 99.763 128.693 100.269 127.079 C 100.641 125.908 101.723 125.18 102.708 125.437 C 103.755 125.686 104.5 126.883 104.243 128.037 C 103.64 130.787 102.575 133.271 100.153 134.956 C 99.789 135.187 99.452 135.488 99.204 135.861 C 98.725 136.562 98.849 137.165 99.639 137.476 C 100.712 137.901 101.794 137.919 102.815 137.227 C 105.698 135.258 107.428 132.446 108.741 129.287 C 108.945 128.808 109.158 128.32 109.433 127.886 C 109.708 127.442 110.142 127.158 110.692 127.265 C 111.242 127.371 111.544 127.77 111.695 128.267 C 111.934 129.075 111.801 129.864 111.553 130.645 C 109.335 137.724 104.74 142.275 97.447 143.996 C 96.551 144.2 95.664 144.413 94.786 144.652 C 93.739 144.963 93.526 145.841 94.28 146.613 C 95.114 147.473 95.966 148.299 96.8 149.159 C 96.968 149.319 97.217 149.425 97.199 149.753 C 96.968 149.842 96.738 149.913 96.498 149.966 C 92.027 151.146 87.556 152.308 83.094 153.506 C 82.615 153.63 82.269 153.586 81.861 153.302 C 80.051 152.078 78.241 150.845 76.396 149.674 C 75.553 149.141 74.941 148.52 74.586 147.536 C 74.063 146.107 73.131 145.566 71.712 146.036 C 70.603 146.391 69.681 146.24 68.625 145.921 C 67.365 145.531 66.194 145.85 65.174 146.888 C 65.378 146.932 65.476 146.959 65.582 146.968 C 67.188 147.11 68.483 147.704 69.228 149.292 C 69.76 150.41 70.754 151.013 72.005 151.137 C 72.75 151.217 73.495 151.199 74.223 150.969 C 74.693 150.818 75.039 150.898 75.402 151.253 C 76.494 152.317 77.629 153.337 78.738 154.384 C 78.774 154.42 78.765 154.526 78.756 154.446 C 76.565 154.446 74.373 154.42 72.191 154.455 C 71.277 154.482 70.612 154.216 69.92 153.577 C 67.889 151.678 65.759 151.359 63.692 153.63 C 63.435 153.905 63.134 153.941 62.805 153.985 C 61.617 154.145 60.774 154.766 60.313 156.025 C 61.98 154.908 63.364 155.644 64.748 156.504 C 64.837 156.575 64.943 156.602 65.05 156.646 C 66.806 157.365 68.501 157.409 70.062 156.15 C 70.248 155.999 70.452 155.954 70.674 155.963 C 73.344 156.141 76.023 156.291 78.862 156.487 C 78.259 157.108 77.594 157.321 77.061 157.711 C 75.961 158.527 74.861 158.838 73.406 158.545 C 71.473 158.128 69.627 158.696 68.607 160.559 C 67.578 162.466 66.868 164.497 66.948 166.724 C 66.957 166.875 66.895 167.052 67.072 167.194 C 67.312 166.724 67.516 166.245 67.782 165.801 C 68.447 164.675 69.246 163.779 70.772 164.32 C 71.047 164.426 71.366 164.4 71.677 164.4 C 73.495 164.382 74.648 163.557 75.003 161.88 C 75.154 161.117 75.544 160.718 76.174 160.425 C 76.627 160.213 77.061 159.964 77.514 159.76 C 78.933 159.139 80.424 158.678 81.701 157.746 C 81.976 157.551 82.216 157.649 82.482 157.737 L 87.042 159.281 C 87.308 159.361 87.521 159.467 87.671 159.751 C 88.949 162.155 90.005 162.67 92.701 162.315 C 93.659 162.191 94.582 162.262 95.451 162.732 C 96.214 163.14 96.161 163.956 96.33 164.71 C 97.235 163.486 97.119 162.067 96.001 161.002 C 95.443 160.452 94.964 159.893 94.564 159.219 C 93.81 157.924 92.506 157.445 91.131 157.986 C 90.306 158.323 89.65 158.19 88.922 157.844 C 87.813 157.312 86.758 156.646 85.391 156.212 C 86.296 155.928 86.997 155.688 87.716 155.502 C 91.663 154.429 95.709 153.737 99.621 152.486 C 100.029 152.362 100.286 152.512 100.579 152.77 C 101.635 153.701 102.682 154.65 103.764 155.564 C 104.713 156.336 105.432 156.212 106.097 155.2 C 106.478 154.624 106.851 154.02 107.224 153.444 C 108.723 151.031 109.965 148.449 111.57 146.081 C 113.123 143.81 114.844 141.645 117.142 140.093 C 119.244 138.691 121.196 139.534 121.71 141.982 C 122.154 144.129 121.657 146.161 120.788 148.121 C 118.659 152.965 115.199 156.566 110.648 159.192 C 109.06 160.106 107.445 160.514 105.636 160.168 C 104.473 159.955 103.32 159.955 102.211 160.452 C 101.067 160.967 100.836 161.809 101.537 162.856 C 102.176 163.797 103.098 164.293 104.145 164.657 C 107.064 165.633 109.752 165.553 112.023 163.149 C 112.573 162.563 113.194 162.058 113.815 161.534 C 114.312 161.126 114.879 161.082 115.456 161.384 C 116.015 161.703 116.246 162.209 116.192 162.847 C 116.166 163.282 115.971 163.646 115.704 163.965 C 114.808 165.03 113.877 166.05 112.83 166.964 C 110.914 168.631 108.749 169.714 106.15 169.749 C 105.547 169.758 104.944 169.935 104.411 170.255 C 103.533 170.734 103.391 171.479 104.021 172.242 C 104.403 172.712 104.899 173.005 105.423 173.253 C 108.022 174.442 110.444 173.892 112.777 172.499 C 114.241 171.621 115.429 170.414 116.618 169.217 C 117.097 168.72 117.647 167.904 118.401 168.374 C 119.138 168.827 118.942 169.776 118.712 170.512 C 118.277 172.011 117.647 173.422 116.707 174.682 C 115.758 175.941 114.516 176.775 112.981 177.165 C 112.227 177.352 111.446 177.352 110.666 177.396 C 109.37 177.485 108.882 178.416 109.512 179.543 C 109.637 179.765 109.778 179.969 109.947 180.146 C 111.65 182.071 114.356 182.355 116.388 180.794 C 118.437 179.232 119.617 177.041 120.699 174.779 C 121.009 174.14 121.284 173.333 122.163 173.413 C 123.059 173.493 123.272 174.318 123.493 175.028 C 123.635 175.453 123.68 175.897 123.671 176.34 C 123.618 178.239 123.032 179.924 121.976 181.477 C 121.027 182.887 119.821 184.094 118.543 185.203 C 118.18 185.504 118.126 185.735 118.392 186.152 C 121.506 190.827 124.602 195.529 127.681 200.222 C 127.947 200.63 128.089 200.559 128.302 200.204 C 128.878 199.281 129.455 198.377 130.058 197.472 C 132.533 193.728 134.999 189.984 137.501 186.25 C 137.838 185.753 137.812 185.487 137.341 185.105 C 136.454 184.387 135.674 183.562 134.92 182.692 C 133.314 180.812 132.285 178.682 132.303 176.145 C 132.303 175.311 132.498 174.531 133.003 173.874 C 133.5 173.218 134.121 173.2 134.68 173.803 C 134.964 174.123 135.132 174.504 135.31 174.877 C 136.392 177.139 137.581 179.33 139.657 180.856 C 141.821 182.444 144.909 181.903 146.337 179.729 C 147.144 178.478 146.63 177.361 145.166 177.378 C 141.475 177.432 139.24 175.489 137.9 172.251 C 137.51 171.319 137.022 170.388 137.128 169.314 C 137.164 168.933 137.182 168.507 137.572 168.303 C 138.007 168.072 138.397 168.321 138.69 168.596 C 139.364 169.217 139.994 169.882 140.668 170.503 C 142.389 172.135 144.27 173.448 146.692 173.803 C 148.501 174.061 150.178 173.697 151.615 172.544 C 152.733 171.639 152.556 170.592 151.243 170.069 C 150.781 169.9 150.285 169.74 149.788 169.731 C 145.361 169.581 142.62 166.786 140.083 163.655 C 139.524 162.954 139.683 162.04 140.269 161.543 C 140.872 161.011 141.644 161.073 142.363 161.712 C 143.196 162.439 144.013 163.193 144.864 163.894 C 145.592 164.488 146.381 164.985 147.357 165.118 C 149.229 165.384 150.985 165.021 152.706 164.284 C 153.389 163.992 153.913 163.522 154.356 162.945 C 155.199 161.827 154.933 160.931 153.656 160.39 C 152.529 159.902 151.376 159.964 150.222 160.159 C 148.546 160.47 146.967 160.195 145.521 159.272 C 144.438 158.563 143.303 157.906 142.274 157.117 C 138.619 154.358 136.02 150.791 134.591 146.436 C 134.05 144.785 133.82 143.064 134.423 141.379 C 135.07 139.551 136.632 138.939 138.362 139.791 C 138.956 140.075 139.506 140.465 139.985 140.935 C 141.662 142.559 143.25 144.253 144.518 146.223 C 146.381 149.106 147.872 152.211 149.797 155.067 C 150.595 156.256 151.278 156.345 152.369 155.404 C 153.372 154.544 154.383 153.683 155.368 152.778 C 155.705 152.459 156.015 152.344 156.468 152.495 C 159.262 153.382 162.136 153.994 164.993 154.65 C 166.812 155.067 168.621 155.52 170.555 156.194 C 169.047 156.637 167.921 157.462 166.643 157.986 C 166.102 158.199 165.641 158.243 165.064 158.004 C 163.645 157.427 162.332 157.791 161.551 158.997 C 161.045 159.778 160.495 160.443 159.848 161.109 C 158.828 162.146 158.792 163.601 159.635 164.604 C 159.928 162.333 161.028 162.306 162.899 162.244 C 163.174 162.235 163.441 162.315 163.724 162.351 C 165.818 162.652 167.353 161.836 168.231 159.911 C 168.408 159.512 168.666 159.334 169.056 159.192 C 170.351 158.784 171.646 158.385 172.906 157.906 C 173.634 157.631 174.21 157.587 174.902 158.092 C 175.523 158.536 176.277 158.793 176.978 159.104 C 178.051 159.574 179.134 159.964 180.136 160.576 C 180.553 160.825 180.819 161.1 180.926 161.65 C 181.236 163.317 182.159 164.098 183.844 164.338 C 184.545 164.444 185.237 164.373 185.903 164.187 C 186.488 164.027 186.852 164.24 187.233 164.577 C 188.049 165.287 188.484 166.236 188.954 167.168 C 189.043 166.768 189.043 166.396 189.043 166.005 C 189.043 164.586 188.484 163.3 188.076 161.987 C 187.26 159.423 185.53 158.075 182.877 158.518 C 181.068 158.811 179.755 158.279 178.397 157.374 C 178.007 157.117 177.519 156.975 177.209 156.46 C 179.95 156.291 182.567 156.114 185.193 155.937 C 185.441 155.928 185.672 155.919 185.894 156.087 C 187.757 157.613 189.762 157.374 191.624 156.256 C 192.937 155.458 194.153 155.289 195.519 155.91 C 195.554 155.928 195.608 155.866 195.687 155.821 C 195.324 155.014 194.676 154.313 193.629 154.162 L 193.629 154.162 Z " fill-rule="evenodd" id="Path" fill="rgb(0,0,0)"/><path d=" M 149.034 60.269 C 149.797 59.799 150.657 59.746 151.518 59.746 C 152.316 59.746 153.114 59.817 153.833 60.234 C 154.694 60.722 154.711 61.414 153.904 61.99 C 152.804 62.78 150.116 62.806 148.972 62.035 C 148.182 61.502 148.209 60.766 149.034 60.269 Z  M 107.055 62.079 C 105.503 62.833 103.906 62.815 102.344 62.044 C 101.963 61.857 101.644 61.547 101.652 61.085 C 101.67 60.606 102.025 60.358 102.398 60.172 C 103.107 59.817 103.879 59.728 104.358 59.746 C 105.494 59.746 106.319 59.799 107.064 60.234 C 107.969 60.766 107.995 61.627 107.055 62.079 Z " fill-rule="evenodd" id="Compound Path" fill="rgb(188,25,56)"/></g><g opacity="0.4"><linearGradient id="_lgradient_1" x1="0.5166666666666668" y1="0" x2="0.5166666666666666" y2="1.0000000000000002" gradientTransform="matrix(244.65,0,0,228.34,5.68,11.95)" gradientUnits="userSpaceOnUse"><stop offset="0%" stop-opacity="1" style="stop-color:rgb(255,255,255)"/><stop offset="12.5%" stop-opacity="0.09803922" style="stop-color:rgb(255,255,255)"/><stop offset="92.500001%" stop-opacity="0.09803922" style="stop-color:rgb(0,0,0)"/><stop offset="100%" stop-opacity="0.49803922" style="stop-color:rgb(0,0,0)"/></linearGradient><path d=" M 165.068 11.951 C 169.396 11.941 173.724 11.991 178.052 12.089 C 181.927 12.167 185.803 12.315 189.678 12.541 C 193.131 12.737 196.583 13.022 200.026 13.395 C 203.085 13.73 206.144 14.181 209.174 14.741 C 211.889 15.243 214.574 15.881 217.22 16.657 C 219.62 17.355 221.971 18.219 224.243 19.241 C 226.358 20.184 228.384 21.304 230.302 22.591 C 232.142 23.829 233.863 25.244 235.437 26.806 C 237.001 28.378 238.417 30.088 239.656 31.925 C 240.945 33.841 242.066 35.865 243.02 37.967 C 244.043 40.247 244.909 42.585 245.617 44.972 C 246.394 47.615 247.034 50.297 247.535 53.009 C 248.096 56.035 248.548 59.081 248.883 62.136 C 249.257 65.575 249.542 69.014 249.739 72.462 C 249.965 76.323 250.112 80.194 250.201 84.055 C 250.289 88.378 250.339 92.701 250.329 97.014 L 250.329 155.226 C 250.339 159.549 250.289 163.862 250.201 168.185 C 250.112 172.056 249.965 175.917 249.739 179.778 C 249.542 183.226 249.257 186.675 248.883 190.104 C 248.548 193.159 248.096 196.215 247.535 199.241 C 247.034 201.943 246.394 204.625 245.617 207.268 C 244.909 209.655 244.043 212.003 243.02 214.273 C 242.066 216.385 240.945 218.399 239.656 220.315 C 238.417 222.152 237.001 223.872 235.437 225.434 C 233.863 226.996 232.142 228.411 230.302 229.649 C 228.384 230.936 226.358 232.056 224.243 232.999 C 221.971 234.021 219.62 234.885 217.22 235.593 C 214.574 236.369 211.889 237.007 209.174 237.499 C 206.144 238.068 203.085 238.51 200.026 238.845 C 196.583 239.218 193.131 239.503 189.678 239.699 C 185.803 239.925 181.927 240.073 178.052 240.161 C 173.724 240.249 169.396 240.299 165.068 240.289 L 90.942 240.289 C 86.614 240.299 82.286 240.249 77.958 240.161 C 74.083 240.073 70.207 239.925 66.332 239.699 C 62.879 239.503 59.427 239.218 55.984 238.845 C 52.925 238.51 49.866 238.068 46.836 237.499 C 44.121 237.007 41.436 236.369 38.79 235.593 C 36.39 234.885 34.039 234.021 31.767 232.999 C 29.652 232.056 27.626 230.936 25.708 229.649 C 23.868 228.411 22.147 226.996 20.573 225.434 C 19.009 223.872 17.593 222.152 16.354 220.315 C 15.065 218.399 13.944 216.385 12.99 214.273 C 11.967 212.003 11.101 209.655 10.393 207.268 C 9.616 204.625 8.976 201.943 8.475 199.241 C 7.914 196.215 7.462 193.159 7.127 190.104 C 6.753 186.675 6.468 183.226 6.271 179.778 C 6.045 175.917 5.898 172.056 5.809 168.185 C 5.721 163.862 5.671 159.549 5.681 155.226 L 5.681 97.014 C 5.671 92.701 5.721 88.378 5.809 84.055 C 5.898 80.194 6.045 76.323 6.271 72.462 C 6.468 69.014 6.753 65.575 7.127 62.136 C 7.462 59.081 7.914 56.035 8.475 53.009 C 8.976 50.297 9.616 47.615 10.393 44.972 C 11.101 42.585 11.967 40.247 12.99 37.967 C 13.944 35.865 15.065 33.841 16.354 31.925 C 17.593 30.088 19.009 28.378 20.573 26.806 C 22.147 25.244 23.868 23.829 25.708 22.591 C 27.626 21.304 29.652 20.184 31.767 19.241 C 34.039 18.219 36.39 17.355 38.79 16.657 C 41.436 15.881 44.121 15.243 46.836 14.741 C 49.866 14.181 52.925 13.73 55.984 13.395 C 59.427 13.022 62.879 12.737 66.332 12.541 C 70.207 12.315 74.083 12.167 77.958 12.089 C 82.286 11.991 86.614 11.941 90.942 11.951 L 165.068 11.951 Z  M 165.078 15.96 C 169.376 15.95 173.675 15.999 177.973 16.087 C 181.8 16.176 185.626 16.323 189.452 16.539 C 192.836 16.736 196.219 17.011 199.583 17.384 C 202.554 17.699 205.515 18.131 208.446 18.681 C 211.023 19.153 213.58 19.762 216.099 20.499 C 218.322 21.147 220.495 21.953 222.6 22.896 C 224.509 23.751 226.338 24.763 228.069 25.922 C 229.692 27.013 231.207 28.26 232.594 29.646 C 233.981 31.031 235.23 32.544 236.332 34.165 C 237.492 35.894 238.506 37.712 239.361 39.608 C 240.306 41.72 241.112 43.892 241.761 46.102 C 242.509 48.617 243.109 51.162 243.591 53.736 C 244.132 56.664 244.565 59.611 244.889 62.578 C 245.263 65.938 245.539 69.308 245.735 72.688 C 245.952 76.51 246.109 80.322 246.188 84.144 C 246.276 88.437 246.325 92.721 246.325 97.014 C 246.325 97.014 246.325 97.014 246.325 97.014 L 246.325 155.226 C 246.325 155.226 246.325 155.226 246.325 155.226 C 246.325 159.519 246.276 163.803 246.188 168.096 C 246.109 171.918 245.952 175.74 245.735 179.552 C 245.539 182.932 245.263 186.302 244.889 189.672 C 244.565 192.629 244.132 195.576 243.591 198.504 C 243.109 201.078 242.509 203.623 241.761 206.138 C 241.112 208.358 240.306 210.52 239.361 212.632 C 238.506 214.528 237.492 216.356 236.332 218.075 C 235.23 219.706 233.981 221.219 232.594 222.604 C 231.207 223.98 229.692 225.227 228.069 226.318 C 226.338 227.477 224.509 228.489 222.6 229.344 C 220.495 230.297 218.322 231.093 216.099 231.741 C 213.58 232.478 211.023 233.087 208.446 233.559 C 205.515 234.109 202.554 234.541 199.583 234.865 C 196.219 235.229 192.836 235.514 189.452 235.701 C 185.626 235.917 181.8 236.074 177.973 236.153 C 173.675 236.251 169.376 236.29 165.078 236.29 C 165.078 236.29 165.078 236.29 165.068 236.29 L 90.942 236.29 C 90.932 236.29 90.932 236.29 90.932 236.29 C 86.634 236.29 82.335 236.251 78.037 236.153 C 74.21 236.074 70.384 235.917 66.558 235.701 C 63.174 235.514 59.791 235.229 56.427 234.865 C 53.456 234.541 50.495 234.109 47.564 233.559 C 44.987 233.087 42.43 232.478 39.911 231.741 C 37.688 231.093 35.515 230.297 33.41 229.344 C 31.501 228.489 29.672 227.477 27.941 226.318 C 26.318 225.227 24.803 223.98 23.416 222.604 C 22.029 221.219 20.78 219.706 19.678 218.075 C 18.518 216.356 17.504 214.528 16.649 212.632 C 15.704 210.52 14.898 208.358 14.249 206.138 C 13.501 203.623 12.901 201.078 12.419 198.504 C 11.878 195.576 11.445 192.629 11.121 189.672 C 10.747 186.302 10.472 182.932 10.275 179.552 C 10.058 175.74 9.901 171.918 9.822 168.096 C 9.734 163.803 9.685 159.519 9.685 155.226 C 9.685 155.226 9.685 155.226 9.685 155.226 L 9.685 97.014 C 9.685 97.014 9.685 97.014 9.685 97.014 C 9.685 92.721 9.734 88.437 9.822 84.144 C 9.901 80.322 10.058 76.51 10.275 72.688 C 10.472 69.308 10.747 65.938 11.121 62.578 C 11.445 59.611 11.878 56.664 12.419 53.736 C 12.901 51.162 13.501 48.617 14.249 46.102 C 14.898 43.892 15.704 41.72 16.649 39.608 C 17.504 37.712 18.518 35.894 19.678 34.165 C 20.78 32.544 22.029 31.031 23.416 29.646 C 24.803 28.26 26.318 27.013 27.941 25.922 C 29.672 24.763 31.501 23.751 33.41 22.896 C 35.515 21.953 37.688 21.147 39.911 20.499 C 42.43 19.762 44.987 19.153 47.564 18.681 C 50.495 18.131 53.456 17.699 56.427 17.384 C 59.791 17.011 63.174 16.736 66.558 16.539 C 70.384 16.323 74.21 16.176 78.037 16.087 C 82.335 15.999 86.634 15.95 90.932 15.96 C 90.932 15.96 90.932 15.96 90.942 15.96 L 165.068 15.96 C 165.078 15.96 165.078 15.96 165.078 15.96 Z " fill-rule="evenodd" id="highlight" fill="url(#_lgradient_1)"/></g></svg>