<svg xmlns="http://www.w3.org/2000/svg" fill="none" width="16" height="16" viewBox="0 0 16 16">
 <g clip-path="url(#clip0)">
  <path fill="#928374" d="M0 2.34493H3.41089C3.92343 2.34493 4.37995 2.66893 4.54912 3.15274L8.90435 15.6087L7.69855 11.4812L13.4957 3.87536L16 6.24058L11.3159 1H15.258C15.6678 1 16 1.33222 16 1.74203V6.24058L8.90435 15.6087H5.4714C4.99956 15.6087 4.579 15.3112 4.42188 14.8663L0 2.34493Z"/>
  <path fill="url(#paint0_linear)" d="M13.6496 8.06447C13.5389 8.44095 13.3922 8.80723 13.2344 9.1668C12.4311 10.9467 11.2054 12.1477 11.0671 13.2806C11.0638 13.2975 11.0554 13.3158 11.0525 13.3327L11.0622 13.3363C11.0589 13.3753 11.0509 13.4142 11.0501 13.4532C11.0224 14.8587 12.1158 16.0273 13.4921 16.0629C14.8684 16.0985 16.0066 14.9877 16.0343 13.5821C16.0351 13.5432 16.0286 13.5038 16.0269 13.4647L16.0367 13.4616C16.0345 13.4447 16.0269 13.4259 16.0241 13.4088C15.9306 12.2699 14.7534 11.0067 14.021 9.18715C13.8775 8.81977 13.7453 8.44627 13.6496 8.06447Z"/>
 </g>
 <defs>
  <linearGradient id="paint0_linear" x1="13.619" x2="13.443" y1="8.061" y2="16.088" gradientUnits="userSpaceOnUse">
   <stop stop-color="#1ad6ab"/>
   <stop offset="1" stop-color="#329db6"/>
  </linearGradient>
  <clipPath id="clip0">
   <rect fill="#ffffff" width="16" height="16"/>
  </clipPath>
 </defs>
</svg>
