<svg xmlns="http://www.w3.org/2000/svg" style="isolation:isolate" width="256" height="256" viewBox="0 0 256 256">
 <defs>
  <filter id="e0ARVDf2j4NkDNYb1IeHZlHmk4ASsgUa" width="400%" height="400%" x="-200%" y="-200%" color-interpolation-filters="sRGB" filterUnits="objectBoundingBox">
   <feGaussianBlur xmlns="http://www.w3.org/2000/svg" in="SourceGraphic" stdDeviation="4.294"/>
   <feOffset xmlns="http://www.w3.org/2000/svg" dx="0" dy="4" result="pf_100_offsetBlur"/>
   <feFlood xmlns="http://www.w3.org/2000/svg" flood-opacity=".4"/>
   <feComposite xmlns="http://www.w3.org/2000/svg" in2="pf_100_offsetBlur" operator="in" result="pf_100_dropShadow"/>
   <feBlend xmlns="http://www.w3.org/2000/svg" in="SourceGraphic" in2="pf_100_dropShadow" mode="normal"/>
  </filter>
 </defs>
 <g filter="url(#e0ARVDf2j4NkDNYb1IeHZlHmk4ASsgUa)">
  <linearGradient id="_lgradient_73" x1=".567" x2=".567" y1="1.071" y2="-.742" gradientTransform="matrix(244.648,0,0,228.338,5.619,11.952)" gradientUnits="userSpaceOnUse">
   <stop offset="0%" style="stop-color:#333333"/>
   <stop offset="100%" style="stop-color:#4d4d4d"/>
  </linearGradient>
  <path fill="url(#_lgradient_73)" d="M 165.628 11.952 C 239.684 11.952 250.267 22.509 250.267 96.495 L 250.267 155.746 C 250.267 229.733 239.684 240.29 165.628 240.29 L 90.259 240.29 C 16.203 240.29 5.619 229.733 5.619 155.746 L 5.619 96.495 C 5.619 22.509 16.203 11.952 90.259 11.952 L 165.628 11.952 Z"/>
 </g>
 <g opacity=".4">
  <linearGradient id="_lgradient_74" x1=".517" x2=".517" y1="0" y2="1" gradientTransform="matrix(244.65,0,0,228.34,5.68,11.95)" gradientUnits="userSpaceOnUse">
   <stop offset="0%" style="stop-color:#ffffff"/>
   <stop offset="12.5%" stop-opacity=".098" style="stop-color:#ffffff"/>
   <stop offset="92.5%" stop-opacity=".098" style="stop-color:#000000"/>
   <stop offset="100%" stop-opacity=".498" style="stop-color:#000000"/>
  </linearGradient>
  <path fill="url(#_lgradient_74)" fill-rule="evenodd" d="M 165.068 11.951 C 169.396 11.941 173.724 11.991 178.052 12.089 C 181.927 12.167 185.803 12.315 189.678 12.541 C 193.131 12.737 196.583 13.022 200.026 13.395 C 203.085 13.73 206.144 14.181 209.174 14.741 C 211.889 15.243 214.574 15.881 217.22 16.657 C 219.62 17.355 221.971 18.219 224.243 19.241 C 226.358 20.184 228.384 21.304 230.302 22.591 C 232.142 23.829 233.863 25.244 235.437 26.806 C 237.001 28.378 238.417 30.088 239.656 31.925 C 240.945 33.841 242.066 35.865 243.02 37.967 C 244.043 40.247 244.909 42.585 245.617 44.972 C 246.394 47.615 247.034 50.297 247.535 53.009 C 248.096 56.035 248.548 59.081 248.883 62.136 C 249.257 65.575 249.542 69.014 249.739 72.462 C 249.965 76.323 250.112 80.194 250.201 84.055 C 250.289 88.378 250.339 92.701 250.329 97.014 L 250.329 155.226 C 250.339 159.549 250.289 163.862 250.201 168.185 C 250.112 172.056 249.965 175.917 249.739 179.778 C 249.542 183.226 249.257 186.675 248.883 190.104 C 248.548 193.159 248.096 196.215 247.535 199.241 C 247.034 201.943 246.394 204.625 245.617 207.268 C 244.909 209.655 244.043 212.003 243.02 214.273 C 242.066 216.385 240.945 218.399 239.656 220.315 C 238.417 222.152 237.001 223.872 235.437 225.434 C 233.863 226.996 232.142 228.411 230.302 229.649 C 228.384 230.936 226.358 232.056 224.243 232.999 C 221.971 234.021 219.62 234.885 217.22 235.593 C 214.574 236.369 211.889 237.007 209.174 237.499 C 206.144 238.068 203.085 238.51 200.026 238.845 C 196.583 239.218 193.131 239.503 189.678 239.699 C 185.803 239.925 181.927 240.073 178.052 240.161 C 173.724 240.249 169.396 240.299 165.068 240.289 L 90.942 240.289 C 86.614 240.299 82.286 240.249 77.958 240.161 C 74.083 240.073 70.207 239.925 66.332 239.699 C 62.879 239.503 59.427 239.218 55.984 238.845 C 52.925 238.51 49.866 238.068 46.836 237.499 C 44.121 237.007 41.436 236.369 38.79 235.593 C 36.39 234.885 34.039 234.021 31.767 232.999 C 29.652 232.056 27.626 230.936 25.708 229.649 C 23.868 228.411 22.147 226.996 20.573 225.434 C 19.009 223.872 17.593 222.152 16.354 220.315 C 15.065 218.399 13.944 216.385 12.99 214.273 C 11.967 212.003 11.101 209.655 10.393 207.268 C 9.616 204.625 8.976 201.943 8.475 199.241 C 7.914 196.215 7.462 193.159 7.127 190.104 C 6.753 186.675 6.468 183.226 6.271 179.778 C 6.045 175.917 5.898 172.056 5.809 168.185 C 5.721 163.862 5.671 159.549 5.681 155.226 L 5.681 97.014 C 5.671 92.701 5.721 88.378 5.809 84.055 C 5.898 80.194 6.045 76.323 6.271 72.462 C 6.468 69.014 6.753 65.575 7.127 62.136 C 7.462 59.081 7.914 56.035 8.475 53.009 C 8.976 50.297 9.616 47.615 10.393 44.972 C 11.101 42.585 11.967 40.247 12.99 37.967 C 13.944 35.865 15.065 33.841 16.354 31.925 C 17.593 30.088 19.009 28.378 20.573 26.806 C 22.147 25.244 23.868 23.829 25.708 22.591 C 27.626 21.304 29.652 20.184 31.767 19.241 C 34.039 18.219 36.39 17.355 38.79 16.657 C 41.436 15.881 44.121 15.243 46.836 14.741 C 49.866 14.181 52.925 13.73 55.984 13.395 C 59.427 13.022 62.879 12.737 66.332 12.541 C 70.207 12.315 74.083 12.167 77.958 12.089 C 82.286 11.991 86.614 11.941 90.942 11.951 L 165.068 11.951 Z M 165.078 15.96 C 169.376 15.95 173.675 15.999 177.973 16.087 C 181.8 16.176 185.626 16.323 189.452 16.539 C 192.836 16.736 196.219 17.011 199.583 17.384 C 202.554 17.699 205.515 18.131 208.446 18.681 C 211.023 19.153 213.58 19.762 216.099 20.499 C 218.322 21.147 220.495 21.953 222.6 22.896 C 224.509 23.751 226.338 24.763 228.069 25.922 C 229.692 27.013 231.207 28.26 232.594 29.646 C 233.981 31.031 235.23 32.544 236.332 34.165 C 237.492 35.894 238.506 37.712 239.361 39.608 C 240.306 41.72 241.112 43.892 241.761 46.102 C 242.509 48.617 243.109 51.162 243.591 53.736 C 244.132 56.664 244.565 59.611 244.889 62.578 C 245.263 65.938 245.539 69.308 245.735 72.688 C 245.952 76.51 246.109 80.322 246.188 84.144 C 246.276 88.437 246.325 92.721 246.325 97.014 C 246.325 97.014 246.325 97.014 246.325 97.014 L 246.325 155.226 C 246.325 155.226 246.325 155.226 246.325 155.226 C 246.325 159.519 246.276 163.803 246.188 168.096 C 246.109 171.918 245.952 175.74 245.735 179.552 C 245.539 182.932 245.263 186.302 244.889 189.672 C 244.565 192.629 244.132 195.576 243.591 198.504 C 243.109 201.078 242.509 203.623 241.761 206.138 C 241.112 208.358 240.306 210.52 239.361 212.632 C 238.506 214.528 237.492 216.356 236.332 218.075 C 235.23 219.706 233.981 221.219 232.594 222.604 C 231.207 223.98 229.692 225.227 228.069 226.318 C 226.338 227.477 224.509 228.489 222.6 229.344 C 220.495 230.297 218.322 231.093 216.099 231.741 C 213.58 232.478 211.023 233.087 208.446 233.559 C 205.515 234.109 202.554 234.541 199.583 234.865 C 196.219 235.229 192.836 235.514 189.452 235.701 C 185.626 235.917 181.8 236.074 177.973 236.153 C 173.675 236.251 169.376 236.29 165.078 236.29 C 165.078 236.29 165.078 236.29 165.068 236.29 L 90.942 236.29 C 90.932 236.29 90.932 236.29 90.932 236.29 C 86.634 236.29 82.335 236.251 78.037 236.153 C 74.21 236.074 70.384 235.917 66.558 235.701 C 63.174 235.514 59.791 235.229 56.427 234.865 C 53.456 234.541 50.495 234.109 47.564 233.559 C 44.987 233.087 42.43 232.478 39.911 231.741 C 37.688 231.093 35.515 230.297 33.41 229.344 C 31.501 228.489 29.672 227.477 27.941 226.318 C 26.318 225.227 24.803 223.98 23.416 222.604 C 22.029 221.219 20.78 219.706 19.678 218.075 C 18.518 216.356 17.504 214.528 16.649 212.632 C 15.704 210.52 14.898 208.358 14.249 206.138 C 13.501 203.623 12.901 201.078 12.419 198.504 C 11.878 195.576 11.445 192.629 11.121 189.672 C 10.747 186.302 10.472 182.932 10.275 179.552 C 10.058 175.74 9.901 171.918 9.822 168.096 C 9.734 163.803 9.685 159.519 9.685 155.226 C 9.685 155.226 9.685 155.226 9.685 155.226 L 9.685 97.014 C 9.685 97.014 9.685 97.014 9.685 97.014 C 9.685 92.721 9.734 88.437 9.822 84.144 C 9.901 80.322 10.058 76.51 10.275 72.688 C 10.472 69.308 10.747 65.938 11.121 62.578 C 11.445 59.611 11.878 56.664 12.419 53.736 C 12.901 51.162 13.501 48.617 14.249 46.102 C 14.898 43.892 15.704 41.72 16.649 39.608 C 17.504 37.712 18.518 35.894 19.678 34.165 C 20.78 32.544 22.029 31.031 23.416 29.646 C 24.803 28.26 26.318 27.013 27.941 25.922 C 29.672 24.763 31.501 23.751 33.41 22.896 C 35.515 21.953 37.688 21.147 39.911 20.499 C 42.43 19.762 44.987 19.153 47.564 18.681 C 50.495 18.131 53.456 17.699 56.427 17.384 C 59.791 17.011 63.174 16.736 66.558 16.539 C 70.384 16.323 74.21 16.176 78.037 16.087 C 82.335 15.999 86.634 15.95 90.932 15.96 C 90.932 15.96 90.932 15.96 90.942 15.96 L 165.068 15.96 C 165.078 15.96 165.078 15.96 165.078 15.96 Z"/>
 </g>
 <g>
  <g opacity=".2">
   <circle cx="127.667" cy="180.482" r="20.352" vector-effect="non-scaling-stroke"/>
  </g>
  <circle fill="#8e8e8e" cx="127.667" cy="177.935" r="20.352" vector-effect="non-scaling-stroke"/>
  <g opacity=".2">
   <path d="M 68.888 58.404 C 68.352 58.359 67.871 58.375 67.437 58.454 C 66.858 58.559 66.364 58.766 65.956 59.09 C 62.614 61.738 63.659 72.258 69.444 94.139 C 72.688 106.409 75.362 112.937 79.968 119.857 C 82.992 124.4 84.453 126.13 89.448 131.066 C 93.921 135.994 99.568 142.885 99.683 148.685 C 98.399 160.132 90.016 166.128 89.507 175.873 C 89.507 187.672 95.007 195.748 106.808 195.748 C 114.211 196.488 121.039 186.907 127.667 185.572 C 134.294 186.907 141.123 196.488 148.525 195.748 C 160.327 195.748 165.826 187.672 165.826 175.873 C 165.317 166.128 156.935 160.132 155.65 148.685 C 155.766 142.885 161.412 135.994 165.886 131.066 C 170.881 126.13 172.341 124.4 175.366 119.857 C 179.971 112.937 182.646 106.409 185.889 94.139 C 191.674 72.258 192.719 61.738 189.377 59.09 C 188.969 58.766 188.476 58.559 187.897 58.454 C 187.462 58.375 186.981 58.359 186.446 58.404 C 184.84 58.539 182.771 59.231 180.185 60.491 C 175.058 62.991 170.044 66.679 164.395 72.118 C 155.919 80.279 152.89 84.958 142.91 105.269 C 139.93 111.32 136.272 117.204 131.801 123.633 C 130.501 124.527 127.667 124.517 127.667 124.517 C 127.667 124.517 124.832 124.527 123.533 123.633 C 119.061 117.204 115.404 111.32 112.423 105.269 C 102.443 84.958 99.415 80.279 90.938 72.118 C 85.29 66.679 80.276 62.991 75.148 60.491 C 72.563 59.231 70.494 58.539 68.888 58.404 Z"/>
  </g>
  <g opacity=".2">
   <path d="M 121.943 177.938 L 125.759 177.938 C 126.816 177.938 127.667 178.789 127.667 179.846 L 127.667 189.767 C 127.667 190.824 126.816 193.201 125.759 193.201 L 121.943 193.201 C 120.886 193.201 120.035 192.351 120.035 191.294 L 120.035 179.846 C 120.035 178.789 120.886 177.938 121.943 177.938 Z"/>
  </g>
  <path fill="#ffffff" d="M 121.943 175.394 L 125.759 175.394 C 126.816 175.394 127.667 176.245 127.667 177.302 L 127.667 187.223 C 127.667 188.28 126.816 190.658 125.759 190.658 L 121.943 190.658 C 120.886 190.658 120.035 189.807 120.035 188.75 L 120.035 177.302 C 120.035 176.245 120.886 175.394 121.943 175.394 Z"/>
  <g opacity=".2">
   <path d="M 129.575 177.938 L 133.391 177.938 C 134.448 177.938 135.299 178.789 135.299 179.846 L 135.299 191.294 C 135.299 192.351 134.448 193.201 133.391 193.201 L 129.575 193.201 C 128.518 193.201 127.667 190.824 127.667 189.767 L 127.667 179.846 C 127.667 178.789 128.518 177.938 129.575 177.938 Z"/>
  </g>
  <path fill="#ffffff" d="M 129.575 175.394 L 133.391 175.394 C 134.448 175.394 135.299 176.245 135.299 177.302 L 135.299 188.75 C 135.299 189.807 134.448 190.658 133.391 190.658 L 129.575 190.658 C 128.518 190.658 127.667 188.28 127.667 187.223 L 127.667 177.302 C 127.667 176.245 128.518 175.394 129.575 175.394 Z"/>
  <path fill="#e4e4e4" d="M 68.888 55.858 C 68.352 55.813 67.871 55.829 67.437 55.908 C 66.858 56.013 66.364 56.22 65.956 56.544 C 62.614 59.192 63.659 69.711 69.444 91.593 C 72.688 103.863 75.362 110.391 79.968 117.31 C 82.992 121.854 84.453 123.583 89.448 128.52 C 93.921 133.448 99.568 140.339 99.683 146.138 C 98.399 157.586 90.016 163.582 89.507 173.327 C 89.507 185.125 95.007 193.201 106.808 193.201 C 114.211 193.942 121.039 184.361 127.667 183.026 C 134.294 184.361 141.123 193.942 148.525 193.201 C 160.327 193.201 165.826 185.125 165.826 173.327 C 165.317 163.582 156.935 157.586 155.65 146.138 C 155.766 140.339 161.412 133.448 165.886 128.52 C 170.881 123.583 172.341 121.854 175.366 117.31 C 179.971 110.391 182.646 103.863 185.889 91.593 C 191.674 69.711 192.719 59.192 189.377 56.544 C 188.969 56.22 188.476 56.013 187.897 55.908 C 187.462 55.829 186.981 55.813 186.446 55.858 C 184.84 55.993 182.771 56.684 180.185 57.945 C 175.058 60.445 170.044 64.133 164.395 69.572 C 155.919 77.733 152.89 82.411 142.91 102.722 C 139.93 108.774 136.272 114.658 131.801 121.087 C 130.501 121.981 127.667 121.971 127.667 121.971 C 127.667 121.971 124.832 121.981 123.533 121.087 C 119.061 114.658 115.404 108.774 112.423 102.722 C 102.443 82.411 99.415 77.733 90.938 69.572 C 85.29 64.133 80.276 60.445 75.148 57.945 C 72.563 56.684 70.494 55.993 68.888 55.858 Z"/>
  <g opacity=".3">
   <path d="M 71.343 64.051 C 71.354 64.818 71.259 65.1 71.364 66.159 C 71.856 71.116 73.483 79.008 76.33 89.781 C 79.486 101.723 81.737 107.131 85.902 113.39 L 85.895 113.39 C 88.793 117.745 89.558 118.633 94.457 123.476 L 94.596 123.608 L 94.722 123.754 C 96.817 126.064 99.389 128.725 101.636 131.851 C 105.296 127.745 109.858 124.543 114.963 122.495 C 111.368 116.688 108.43 110.748 106.032 105.878 L 106.032 105.87 C 96.114 85.679 94.108 82.525 85.999 74.715 C 80.706 69.617 76.311 66.434 72.025 64.344 C 71.433 64.055 71.816 64.223 71.343 64.051 Z M 185.003 64.086 C 184.685 64.225 184.681 64.168 184.321 64.344 C 180.035 66.434 175.64 69.617 170.347 74.715 C 162.238 82.525 160.232 85.679 150.314 105.871 L 150.314 105.878 C 147.914 110.75 144.973 116.692 141.375 122.502 C 146.483 124.549 151.047 127.751 154.71 131.858 C 156.957 128.73 159.527 126.065 161.624 123.754 L 161.749 123.608 L 161.888 123.476 C 166.788 118.633 167.553 117.745 170.451 113.39 L 170.444 113.39 C 174.609 107.132 176.859 101.723 180.015 89.782 C 182.863 79.009 184.49 71.116 184.982 66.159 C 185.086 65.118 184.991 64.846 185.003 64.086 L 185.003 64.086 Z"/>
  </g>
  <path fill="#bc1938" d="M 127.665 183.026 C 121.113 182.523 115.487 175.227 118.176 171.631 C 121.046 168.795 124.648 167.729 127.665 167.763 C 130.681 167.729 134.283 168.795 137.153 171.631 C 139.842 175.227 134.216 182.523 127.665 183.026 Z"/>
  <g opacity=".2">
   <path d="M 111.518 165.218 C 106.681 165.218 99.693 161.801 99.693 157.586 C 99.693 153.371 99.235 149.954 104.073 149.954 C 116.508 151.243 117.212 165.218 111.518 165.218 Z"/>
  </g>
  <path fill="#ffffff" d="M 111.518 162.673 C 106.681 162.673 99.693 159.256 99.693 155.041 C 99.693 150.826 99.235 147.409 104.073 147.409 C 116.508 148.698 117.212 162.673 111.518 162.673 Z"/>
  <circle fill="#323232" cx="111.129" cy="158.858" r="3.816" vector-effect="non-scaling-stroke"/>
  <g opacity=".2">
   <path d="M 143.815 165.218 C 148.653 165.218 155.64 161.801 155.64 157.586 C 155.64 153.371 156.098 149.954 151.261 149.954 C 138.826 151.243 138.121 165.218 143.815 165.218 Z"/>
  </g>
  <path fill="#ffffff" d="M 143.815 162.673 C 148.653 162.673 155.64 159.256 155.64 155.041 C 155.64 150.826 156.098 147.409 151.261 147.409 C 138.826 148.698 138.121 162.673 143.815 162.673 Z"/>
  <circle fill="#323232" cx="144.2" cy="158.858" r="3.816" vector-effect="non-scaling-stroke"/>
  <g opacity=".2">
   <path fill="#ffffff" d="M 68.885 55.858 C 68.35 55.813 67.869 55.829 67.435 55.908 C 66.855 56.013 66.362 56.22 65.954 56.544 C 64.545 57.661 63.968 60.28 64.145 64.459 C 64.285 61.772 64.858 59.957 65.954 59.088 C 66.362 58.764 66.855 58.556 67.435 58.452 C 67.869 58.373 68.35 58.357 68.885 58.402 C 70.491 58.537 72.56 59.228 75.146 60.489 C 80.273 62.989 85.288 66.677 90.936 72.116 C 99.413 80.277 102.441 84.955 112.421 105.266 C 115.402 111.318 119.059 117.202 123.531 123.63 C 124.83 124.525 127.665 124.515 127.665 124.515 C 127.665 124.515 130.499 124.525 131.799 123.63 C 136.27 117.202 139.928 111.318 142.908 105.266 C 152.888 84.955 155.917 80.277 164.393 72.116 C 170.042 66.677 175.056 62.989 180.183 60.489 C 182.769 59.228 184.838 58.537 186.444 58.402 C 186.979 58.357 187.46 58.373 187.895 58.452 C 188.474 58.556 188.967 58.764 189.375 59.088 C 190.472 59.957 191.049 61.772 191.189 64.459 C 191.366 60.28 190.785 57.661 189.375 56.544 C 188.967 56.22 188.474 56.013 187.895 55.908 C 187.46 55.829 186.979 55.813 186.444 55.858 C 184.838 55.993 182.769 56.684 180.183 57.945 C 175.056 60.445 170.042 64.133 164.393 69.572 C 155.917 77.733 152.888 82.411 142.908 102.722 C 139.928 108.774 136.27 114.658 131.799 121.087 C 130.499 121.981 127.665 121.971 127.665 121.971 C 127.665 121.971 124.83 121.981 123.531 121.087 C 119.059 114.658 115.402 108.774 112.421 102.722 C 102.441 82.411 99.413 77.733 90.936 69.572 C 85.288 64.133 80.273 60.445 75.146 57.945 C 72.56 56.684 70.491 55.993 68.885 55.858 Z M 99.502 147.306 C 97.801 157.996 89.996 163.923 89.505 173.327 C 89.505 173.998 89.529 174.653 89.565 175.299 C 90.367 165.893 98.422 159.901 99.681 148.682 C 99.672 148.233 99.575 147.767 99.502 147.306 Z M 155.827 147.311 C 155.755 147.77 155.657 148.235 155.648 148.682 C 156.907 159.901 164.962 165.893 165.764 175.299 C 165.8 174.653 165.824 173.998 165.824 173.327 C 165.333 163.924 157.529 157.999 155.827 147.311 Z"/>
  </g>
 </g>
</svg>
