<svg xmlns="http://www.w3.org/2000/svg" style="isolation:isolate" width="256" height="256" viewBox="0 0 256 256">
 <defs>
  <filter id="hVfC9u96VvJCxHLlfAU4s7lQjBQbfhbl" width="400%" height="400%" x="-200%" y="-200%" color-interpolation-filters="sRGB" filterUnits="objectBoundingBox">
   <feGaussianBlur xmlns="http://www.w3.org/2000/svg" in="SourceGraphic" stdDeviation="4.294"/>
   <feOffset xmlns="http://www.w3.org/2000/svg" dx="0" dy="4" result="pf_100_offsetBlur"/>
   <feFlood xmlns="http://www.w3.org/2000/svg" flood-opacity=".4"/>
   <feComposite xmlns="http://www.w3.org/2000/svg" in2="pf_100_offsetBlur" operator="in" result="pf_100_dropShadow"/>
   <feBlend xmlns="http://www.w3.org/2000/svg" in="SourceGraphic" in2="pf_100_dropShadow" mode="normal"/>
  </filter>
 </defs>
 <g filter="url(#hVfC9u96VvJCxHLlfAU4s7lQjBQbfhbl)">
  <linearGradient id="_lgradient_17" x1="0" x2="0" y1="0" y2="1" gradientTransform="matrix(244.648,0,0,228.338,5.7,11.9)" gradientUnits="userSpaceOnUse">
   <stop offset="0%" style="stop-color:#e0e5e7"/>
   <stop offset="100%" style="stop-color:#c7ced2"/>
  </linearGradient>
  <path fill="url(#_lgradient_17)" d="M 165.709 11.9 C 239.765 11.9 250.348 22.457 250.348 96.444 L 250.348 155.695 C 250.348 229.681 239.765 240.238 165.709 240.238 L 90.339 240.238 C 16.284 240.238 5.7 229.681 5.7 155.695 L 5.7 96.444 C 5.7 22.457 16.284 11.9 90.339 11.9 L 165.709 11.9 Z"/>
 </g>
 <g opacity=".4">
  <linearGradient id="_lgradient_18" x1=".517" x2=".517" y1="0" y2="1" gradientTransform="matrix(244.65,0,0,228.34,5.68,11.95)" gradientUnits="userSpaceOnUse">
   <stop offset="0%" style="stop-color:#ffffff"/>
   <stop offset="12.5%" stop-opacity=".098" style="stop-color:#ffffff"/>
   <stop offset="92.5%" stop-opacity=".098" style="stop-color:#000000"/>
   <stop offset="100%" stop-opacity=".498" style="stop-color:#000000"/>
  </linearGradient>
  <path fill="url(#_lgradient_18)" fill-rule="evenodd" d="M 165.068 11.951 C 169.396 11.941 173.724 11.991 178.052 12.089 C 181.927 12.167 185.803 12.315 189.678 12.541 C 193.131 12.737 196.583 13.022 200.026 13.395 C 203.085 13.73 206.144 14.181 209.174 14.741 C 211.889 15.243 214.574 15.881 217.22 16.657 C 219.62 17.355 221.971 18.219 224.243 19.241 C 226.358 20.184 228.384 21.304 230.302 22.591 C 232.142 23.829 233.863 25.244 235.437 26.806 C 237.001 28.378 238.417 30.088 239.656 31.925 C 240.945 33.841 242.066 35.865 243.02 37.967 C 244.043 40.247 244.909 42.585 245.617 44.972 C 246.394 47.615 247.034 50.297 247.535 53.009 C 248.096 56.035 248.548 59.081 248.883 62.136 C 249.257 65.575 249.542 69.014 249.739 72.462 C 249.965 76.323 250.112 80.194 250.201 84.055 C 250.289 88.378 250.339 92.701 250.329 97.014 L 250.329 155.226 C 250.339 159.549 250.289 163.862 250.201 168.185 C 250.112 172.056 249.965 175.917 249.739 179.778 C 249.542 183.226 249.257 186.675 248.883 190.104 C 248.548 193.159 248.096 196.215 247.535 199.241 C 247.034 201.943 246.394 204.625 245.617 207.268 C 244.909 209.655 244.043 212.003 243.02 214.273 C 242.066 216.385 240.945 218.399 239.656 220.315 C 238.417 222.152 237.001 223.872 235.437 225.434 C 233.863 226.996 232.142 228.411 230.302 229.649 C 228.384 230.936 226.358 232.056 224.243 232.999 C 221.971 234.021 219.62 234.885 217.22 235.593 C 214.574 236.369 211.889 237.007 209.174 237.499 C 206.144 238.068 203.085 238.51 200.026 238.845 C 196.583 239.218 193.131 239.503 189.678 239.699 C 185.803 239.925 181.927 240.073 178.052 240.161 C 173.724 240.249 169.396 240.299 165.068 240.289 L 90.942 240.289 C 86.614 240.299 82.286 240.249 77.958 240.161 C 74.083 240.073 70.207 239.925 66.332 239.699 C 62.879 239.503 59.427 239.218 55.984 238.845 C 52.925 238.51 49.866 238.068 46.836 237.499 C 44.121 237.007 41.436 236.369 38.79 235.593 C 36.39 234.885 34.039 234.021 31.767 232.999 C 29.652 232.056 27.626 230.936 25.708 229.649 C 23.868 228.411 22.147 226.996 20.573 225.434 C 19.009 223.872 17.593 222.152 16.354 220.315 C 15.065 218.399 13.944 216.385 12.99 214.273 C 11.967 212.003 11.101 209.655 10.393 207.268 C 9.616 204.625 8.976 201.943 8.475 199.241 C 7.914 196.215 7.462 193.159 7.127 190.104 C 6.753 186.675 6.468 183.226 6.271 179.778 C 6.045 175.917 5.898 172.056 5.809 168.185 C 5.721 163.862 5.671 159.549 5.681 155.226 L 5.681 97.014 C 5.671 92.701 5.721 88.378 5.809 84.055 C 5.898 80.194 6.045 76.323 6.271 72.462 C 6.468 69.014 6.753 65.575 7.127 62.136 C 7.462 59.081 7.914 56.035 8.475 53.009 C 8.976 50.297 9.616 47.615 10.393 44.972 C 11.101 42.585 11.967 40.247 12.99 37.967 C 13.944 35.865 15.065 33.841 16.354 31.925 C 17.593 30.088 19.009 28.378 20.573 26.806 C 22.147 25.244 23.868 23.829 25.708 22.591 C 27.626 21.304 29.652 20.184 31.767 19.241 C 34.039 18.219 36.39 17.355 38.79 16.657 C 41.436 15.881 44.121 15.243 46.836 14.741 C 49.866 14.181 52.925 13.73 55.984 13.395 C 59.427 13.022 62.879 12.737 66.332 12.541 C 70.207 12.315 74.083 12.167 77.958 12.089 C 82.286 11.991 86.614 11.941 90.942 11.951 L 165.068 11.951 Z M 165.078 15.96 C 169.376 15.95 173.675 15.999 177.973 16.087 C 181.8 16.176 185.626 16.323 189.452 16.539 C 192.836 16.736 196.219 17.011 199.583 17.384 C 202.554 17.699 205.515 18.131 208.446 18.681 C 211.023 19.153 213.58 19.762 216.099 20.499 C 218.322 21.147 220.495 21.953 222.6 22.896 C 224.509 23.751 226.338 24.763 228.069 25.922 C 229.692 27.013 231.207 28.26 232.594 29.646 C 233.981 31.031 235.23 32.544 236.332 34.165 C 237.492 35.894 238.506 37.712 239.361 39.608 C 240.306 41.72 241.112 43.892 241.761 46.102 C 242.509 48.617 243.109 51.162 243.591 53.736 C 244.132 56.664 244.565 59.611 244.889 62.578 C 245.263 65.938 245.539 69.308 245.735 72.688 C 245.952 76.51 246.109 80.322 246.188 84.144 C 246.276 88.437 246.325 92.721 246.325 97.014 C 246.325 97.014 246.325 97.014 246.325 97.014 L 246.325 155.226 C 246.325 155.226 246.325 155.226 246.325 155.226 C 246.325 159.519 246.276 163.803 246.188 168.096 C 246.109 171.918 245.952 175.74 245.735 179.552 C 245.539 182.932 245.263 186.302 244.889 189.672 C 244.565 192.629 244.132 195.576 243.591 198.504 C 243.109 201.078 242.509 203.623 241.761 206.138 C 241.112 208.358 240.306 210.52 239.361 212.632 C 238.506 214.528 237.492 216.356 236.332 218.075 C 235.23 219.706 233.981 221.219 232.594 222.604 C 231.207 223.98 229.692 225.227 228.069 226.318 C 226.338 227.477 224.509 228.489 222.6 229.344 C 220.495 230.297 218.322 231.093 216.099 231.741 C 213.58 232.478 211.023 233.087 208.446 233.559 C 205.515 234.109 202.554 234.541 199.583 234.865 C 196.219 235.229 192.836 235.514 189.452 235.701 C 185.626 235.917 181.8 236.074 177.973 236.153 C 173.675 236.251 169.376 236.29 165.078 236.29 C 165.078 236.29 165.078 236.29 165.068 236.29 L 90.942 236.29 C 90.932 236.29 90.932 236.29 90.932 236.29 C 86.634 236.29 82.335 236.251 78.037 236.153 C 74.21 236.074 70.384 235.917 66.558 235.701 C 63.174 235.514 59.791 235.229 56.427 234.865 C 53.456 234.541 50.495 234.109 47.564 233.559 C 44.987 233.087 42.43 232.478 39.911 231.741 C 37.688 231.093 35.515 230.297 33.41 229.344 C 31.501 228.489 29.672 227.477 27.941 226.318 C 26.318 225.227 24.803 223.98 23.416 222.604 C 22.029 221.219 20.78 219.706 19.678 218.075 C 18.518 216.356 17.504 214.528 16.649 212.632 C 15.704 210.52 14.898 208.358 14.249 206.138 C 13.501 203.623 12.901 201.078 12.419 198.504 C 11.878 195.576 11.445 192.629 11.121 189.672 C 10.747 186.302 10.472 182.932 10.275 179.552 C 10.058 175.74 9.901 171.918 9.822 168.096 C 9.734 163.803 9.685 159.519 9.685 155.226 C 9.685 155.226 9.685 155.226 9.685 155.226 L 9.685 97.014 C 9.685 97.014 9.685 97.014 9.685 97.014 C 9.685 92.721 9.734 88.437 9.822 84.144 C 9.901 80.322 10.058 76.51 10.275 72.688 C 10.472 69.308 10.747 65.938 11.121 62.578 C 11.445 59.611 11.878 56.664 12.419 53.736 C 12.901 51.162 13.501 48.617 14.249 46.102 C 14.898 43.892 15.704 41.72 16.649 39.608 C 17.504 37.712 18.518 35.894 19.678 34.165 C 20.78 32.544 22.029 31.031 23.416 29.646 C 24.803 28.26 26.318 27.013 27.941 25.922 C 29.672 24.763 31.501 23.751 33.41 22.896 C 35.515 21.953 37.688 21.147 39.911 20.499 C 42.43 19.762 44.987 19.153 47.564 18.681 C 50.495 18.131 53.456 17.699 56.427 17.384 C 59.791 17.011 63.174 16.736 66.558 16.539 C 70.384 16.323 74.21 16.176 78.037 16.087 C 82.335 15.999 86.634 15.95 90.932 15.96 C 90.932 15.96 90.932 15.96 90.942 15.96 L 165.068 15.96 C 165.078 15.96 165.078 15.96 165.078 15.96 Z"/>
 </g>
 <g>
  <defs>
   <filter id="cyXIta9A0iuiUxuoBIwTlKqxcXX4LDit" width="400%" height="400%" x="-200%" y="-200%" color-interpolation-filters="sRGB" filterUnits="objectBoundingBox">
    <feGaussianBlur xmlns="http://www.w3.org/2000/svg" stdDeviation="4.294"/>
   </filter>
  </defs>
  <g opacity=".4" filter="url(#cyXIta9A0iuiUxuoBIwTlKqxcXX4LDit)">
   <path d="M 56.44 102.27 L 55.915 103.179 C 55.143 104.546 55.479 106.438 56.67 107.461 L 67.529 116.991 C 67.639 115.49 67.795 114.004 68.016 112.526 L 56.67 102.566 C 56.574 102.478 56.525 102.361 56.44 102.268 L 56.44 102.27 Z M 187.935 102.27 C 187.85 102.363 187.801 102.484 187.705 102.567 L 176.358 112.528 C 176.579 114.006 176.735 115.491 176.846 116.992 L 187.705 107.461 C 188.895 106.438 189.232 104.546 188.46 103.179 L 187.937 102.268 L 187.935 102.27 Z M 67.482 123.111 C 67.441 123.924 67.377 124.73 67.377 125.558 C 67.377 126.8 67.44 128.018 67.53 129.229 L 68.017 128.799 C 67.736 126.924 67.578 125.03 67.482 123.112 L 67.482 123.111 Z M 176.893 123.111 C 176.797 125.029 176.638 126.924 176.358 128.799 L 176.845 129.229 C 176.935 128.018 176.998 126.8 176.998 125.558 C 176.998 124.73 176.934 123.924 176.893 123.111 L 176.893 123.111 Z M 56.44 143.952 C 55.475 145.014 55.205 146.678 55.915 147.936 L 69.623 171.701 C 70.417 173.049 72.206 173.712 73.685 173.202 L 87.928 168.381 C 92.208 171.807 97.087 174.601 102.276 176.631 L 105.163 191.295 C 105.456 192.83 106.917 194.056 108.48 194.077 L 135.896 194.077 C 137.459 194.057 138.92 192.83 139.213 191.295 L 142.099 176.631 C 147.283 174.599 152.162 171.805 156.44 168.379 L 170.683 173.197 C 172.162 173.707 173.951 173.044 174.746 171.696 L 188.454 147.931 C 189.163 146.674 188.894 145.006 187.928 143.944 L 174.746 166.801 C 173.951 168.149 172.162 168.812 170.683 168.302 L 156.436 163.481 C 152.156 166.907 147.277 169.691 142.088 171.721 L 139.201 186.395 C 138.912 187.927 137.449 189.155 135.887 189.175 L 108.472 189.175 C 106.909 189.154 105.448 187.928 105.155 186.393 L 102.272 171.719 C 97.079 169.688 92.201 166.903 87.922 163.477 L 73.679 168.293 C 72.2 168.807 70.411 168.141 69.616 166.796 L 56.434 143.938 L 56.44 143.952 Z"/>
  </g>
  <linearGradient id="_lgradient_19" x1="0" x2="0" y1=".5" y2="1" gradientTransform="matrix(133.375,0,0,137.046,55.501,54.585)" gradientUnits="userSpaceOnUse">
   <stop offset="0%" style="stop-color:#4c5561"/>
   <stop offset="100%" style="stop-color:#2e3842"/>
  </linearGradient>
  <path fill="url(#_lgradient_19)" d="M 108.162 54.589 C 106.709 54.747 105.429 55.936 105.164 57.373 L 102.273 72.04 C 97.084 74.07 92.207 76.858 87.927 80.285 L 73.689 75.466 C 72.21 74.956 70.416 75.617 69.621 76.965 L 55.917 100.733 C 55.145 102.1 55.476 103.992 56.666 105.016 L 68.015 114.973 C 67.615 117.642 67.372 120.329 67.372 123.11 C 67.372 125.891 67.615 128.577 68.015 131.247 L 56.666 141.204 C 55.476 142.227 55.145 144.119 55.917 145.486 L 69.621 169.254 C 70.416 170.602 72.21 171.263 73.689 170.753 L 87.928 165.935 C 92.208 169.361 97.085 172.15 102.275 174.179 L 105.165 188.847 C 105.458 190.382 106.921 191.609 108.484 191.631 L 135.892 191.631 C 137.455 191.611 138.918 190.382 139.211 188.847 L 142.101 174.179 C 147.291 172.15 152.168 169.361 156.448 165.935 L 170.687 170.753 C 172.166 171.263 173.96 170.602 174.755 169.254 L 188.459 145.486 C 189.231 144.119 188.9 142.227 187.71 141.204 L 176.361 131.247 C 176.761 128.577 177.004 125.891 177.004 123.11 C 177.004 120.329 176.76 117.643 176.361 114.973 L 187.71 105.016 C 188.9 103.992 189.231 102.1 188.459 100.733 L 174.755 76.965 C 173.96 75.617 172.166 74.956 170.687 75.466 L 156.448 80.284 C 152.165 76.856 147.29 74.067 142.102 72.038 L 139.212 57.37 C 138.919 55.835 137.456 54.608 135.893 54.587 L 108.485 54.587 C 108.378 54.584 108.271 54.584 108.164 54.587 L 108.162 54.589 Z"/>
  <g opacity=".2">
   <path d="M 122.188 96.187 C 138.407 96.187 151.555 109.335 151.555 125.554 C 151.555 141.773 138.407 154.921 122.188 154.921 C 105.969 154.921 92.821 141.773 92.821 125.554 C 92.821 109.335 105.969 96.187 122.188 96.187 Z"/>
  </g>
  <path fill="#ffffff" d="M 122.191 93.74 C 138.41 93.74 151.558 106.888 151.558 123.107 C 151.558 139.326 138.41 152.474 122.191 152.474 C 105.972 152.474 92.824 139.326 92.824 123.107 C 92.824 106.888 105.972 93.74 122.191 93.74 Z"/>
  <g opacity=".2">
   <path fill="#ffffff" d="M 108.121 54.583 C 106.668 54.741 105.48 55.899 105.215 57.336 L 102.309 72.02 C 97.119 74.049 92.211 76.853 87.931 80.279 L 73.706 75.538 C 72.227 75.028 70.371 75.567 69.577 76.914 L 56.422 99.857 C 56.516 99.963 56.621 100.071 56.728 100.163 L 57.335 100.708 L 69.577 79.362 C 70.371 78.014 72.227 77.475 73.706 77.985 L 87.931 82.727 C 92.211 79.301 97.119 76.497 102.309 74.467 L 105.215 59.784 C 105.48 58.347 106.668 57.189 108.121 57.03 C 108.228 57.028 108.32 57.028 108.427 57.03 L 135.958 57.03 C 137.521 57.052 138.877 58.248 139.17 59.784 L 142.077 74.467 C 147.266 76.497 152.174 79.301 156.454 82.727 L 170.679 77.985 C 172.158 77.475 174.014 78.014 174.809 79.362 L 187.05 100.708 L 187.657 100.163 C 187.764 100.071 187.87 99.963 187.963 99.857 L 174.809 76.914 C 174.014 75.566 172.158 75.028 170.679 75.538 L 156.454 80.279 C 152.174 76.853 147.266 74.05 142.077 72.02 L 139.17 57.336 C 138.877 55.801 137.521 54.604 135.958 54.583 L 108.427 54.583 C 108.32 54.581 108.228 54.581 108.121 54.583 Z M 55.653 101.846 C 55.57 102.299 55.558 102.616 55.653 103.07 C 55.583 102.684 55.595 102.231 55.653 101.846 Z M 188.727 101.846 C 188.785 102.232 188.797 102.684 188.727 103.07 C 188.823 102.616 188.81 102.299 188.727 101.846 Z M 67.588 131.672 L 56.728 141.155 C 56.621 141.247 56.516 141.356 56.422 141.461 L 57.34 143.067 L 67.588 134.119 C 67.643 134.863 67.741 135.583 67.813 136.308 L 68.047 136.107 C 67.825 134.624 67.699 133.178 67.588 131.672 Z M 176.792 131.672 C 176.682 133.178 176.555 134.624 176.333 136.107 L 176.568 136.308 C 176.639 135.583 176.738 134.863 176.792 134.119 L 187.04 143.067 L 187.958 141.461 C 187.864 141.356 187.759 141.247 187.652 141.155 L 176.792 131.672 Z"/>
  </g>
  <defs>
   <filter id="WQJXy6bboGww0PGLOw6acn8R4WCKiape" width="400%" height="400%" x="-200%" y="-200%" color-interpolation-filters="sRGB" filterUnits="objectBoundingBox">
    <feGaussianBlur xmlns="http://www.w3.org/2000/svg" stdDeviation="4.294"/>
   </filter>
  </defs>
  <g opacity=".4" filter="url(#WQJXy6bboGww0PGLOw6acn8R4WCKiape)">
   <path fill-rule="evenodd" d="M 200.397 159.443 C 199.295 180.215 182.144 196.499 161.344 196.524 C 140.813 196.524 123.769 180.665 122.291 160.187 C 122.238 160.878 122.204 161.57 122.188 162.263 C 122.188 183.888 139.719 201.419 161.344 201.419 C 182.969 201.419 200.5 183.888 200.5 162.263 C 200.499 161.322 200.464 160.381 200.395 159.442 L 200.397 159.443 Z"/>
  </g>
  <linearGradient id="_lgradient_20" x1="0" x2=".004" y1="0" y2="1.684" gradientTransform="matrix(78.312,0,0,78.312,122.188,120.659)" gradientUnits="userSpaceOnUse">
   <stop offset="0%" style="stop-color:#00f260"/>
   <stop offset="100%" style="stop-color:#0575e6"/>
  </linearGradient>
  <circle fill="url(#_lgradient_20)" cx="161.344" cy="159.815" r="39.156" vector-effect="non-scaling-stroke"/>
  <path fill="#ffffff" d="M 141.766 170.671 L 141.766 179.393 L 150.487 179.393 L 172.515 157.366 L 163.793 148.645 L 141.766 170.671 Z M 180.23 149.678 C 181.152 148.756 181.152 147.302 180.23 146.38 L 174.779 140.929 C 173.856 140.006 172.403 140.006 171.48 140.929 L 166.923 145.515 L 175.646 154.237 L 180.23 149.678 Z"/>
 </g>
</svg>
