<svg xmlns="http://www.w3.org/2000/svg" style="isolation:isolate" width="256" height="256">
 <g filter="url(#a)">
  <linearGradient id="b" x1=".5" x2=".5" y1="1" gradientTransform="matrix(244.648 0 0 228.338 5.676 11.947)" gradientUnits="userSpaceOnUse">
   <stop offset="0%" stop-color="#f37e40"/>
   <stop offset="100%" stop-color="#fac82e"/>
  </linearGradient>
  <path fill="url(#b)" d="M165.685 11.947c74.055 0 84.639 10.557 84.639 84.544v59.251c0 73.986-10.584 84.543-84.639 84.543h-75.37c-74.055 0-84.639-10.557-84.639-84.543V96.491c0-73.987 10.584-84.544 84.639-84.544h75.37z"/>
 </g>
 <defs>
  <filter id="a" width="400%" height="400%" x="-200%" y="-200%" color-interpolation-filters="sRGB" filterUnits="objectBoundingBox">
   <feGaussianBlur xmlns="http://www.w3.org/2000/svg" in="SourceGraphic" stdDeviation="4.294"/>
   <feOffset xmlns="http://www.w3.org/2000/svg" dy="4" result="pf_100_offsetBlur"/>
   <feFlood xmlns="http://www.w3.org/2000/svg" flood-opacity=".4"/>
   <feComposite xmlns="http://www.w3.org/2000/svg" in2="pf_100_offsetBlur" operator="in" result="pf_100_dropShadow"/>
   <feBlend xmlns="http://www.w3.org/2000/svg" in="SourceGraphic" in2="pf_100_dropShadow"/>
  </filter>
 </defs>
 <g opacity=".65">
  <path fill="#f1ebda" opacity=".65" d="M23.787 229.01c.468.365.856.806 1.348 1.15a39.24 39.24 0 0 0 5.855 3.365c2.118.994 4.407 1.865 6.879 2.627 2.472.761 5.127 1.415 7.979 1.971 2.851.556 5.899 1.015 9.156 1.392.663.077 1.44.112 2.121.182 21.412-6.07 43.739-9.226 66.539-9.226 23.443 0 46.361 3.409 68.322 9.819 3.14-.211 6.192-.449 9.01-.775 3.257-.377 6.305-.836 9.156-1.392 2.852-.556 5.507-1.21 7.979-1.971 2.472-.762 4.761-1.633 6.879-2.627 1.44-.676 2.695-1.494 3.982-2.289-33.373-14.579-68.808-21.98-105.328-21.98-34.546 0-68.099 6.699-99.877 19.754z"/>
  <path fill="#f1ebda" opacity=".65" d="M6.932 187.389c.078.837.121 1.782.209 2.594.364 3.371.808 6.525 1.345 9.477.538 2.951 1.168 5.7 1.905 8.258.119.415.287.75.412 1.155 34.58-18.092 72.996-27.727 112.861-27.727 42.682 0 83.671 11.1 120.098 31.754.653-1.666 1.311-3.32 1.847-5.182.737-2.558 1.367-5.307 1.905-8.258.449-2.47.8-5.169 1.127-7.931-6.324-3.402-12.76-6.61-19.366-9.505-33.456-14.661-68.988-22.094-105.611-22.094-36.623 0-72.156 7.433-105.611 22.094-3.78 1.656-7.434 3.542-11.121 5.365z"/>
  <path fill="#f1ebda" opacity=".65" d="M5.676 138.729v14.706c0 3.306.163 5.827.207 8.893 35.85-19.823 75.995-30.51 117.781-30.51 45.122 0 88.402 12.306 126.342 35.308.109-4.526.318-8.601.318-13.691v-10.298c-6.858-3.759-13.851-7.284-21.049-10.438-33.455-14.661-68.988-22.096-105.611-22.096-36.623 0-72.156 7.435-105.611 22.096-4.216 1.847-8.277 3.974-12.377 6.03z"/>
  <path fill="#f1ebda" opacity=".65" d="M5.738 89.373c-.003.971-.062 1.678-.062 2.671v21.074c35.903-19.897 76.121-30.625 117.988-30.625 45.246 0 88.646 12.36 126.66 35.484V93.811c-6.858-3.759-13.851-7.286-21.049-10.44-33.455-14.661-68.988-22.094-105.611-22.094-36.623 0-72.156 7.433-105.611 22.094-4.195 1.838-8.235 3.957-12.315 6.002z"/>
  <path fill="#f1ebda" opacity=".65" d="M10.402 37.731l-.011.03c-.737 2.558-1.367 5.307-1.905 8.258-.537 2.952-.981 6.106-1.345 9.477-.265 2.448-.444 5.144-.629 7.825 35.691-19.598 75.611-30.155 117.152-30.155 45.032 0 88.225 12.263 126.109 35.176-.031-.625-.014-1.457-.048-2.07a212.339 212.339 0 0 0-.866-10.776c-.364-3.371-.808-6.525-1.345-9.477-.232-1.272-.555-2.363-.823-3.561a266.324 266.324 0 0 0-17.416-8.412C195.82 19.384 160.287 11.95 123.664 11.95c-36.623 0-72.156 7.434-105.611 22.096-2.599 1.139-5.095 2.466-7.651 3.685z"/>
 </g>
 <path fill="#ffffff" opacity=".1" d="M5.676 126.116v29.626c0 73.986 10.584 84.543 84.639 84.543h75.37c74.055 0 84.639-10.557 84.639-84.543v-29.626H5.676z"/>
 <g opacity=".4">
  <linearGradient id="c" x1=".517" x2=".517" y2="1" gradientTransform="matrix(244.65 0 0 228.34 5.68 11.95)" gradientUnits="userSpaceOnUse">
   <stop offset="0%" stop-color="#ffffff"/>
   <stop offset="12.5%" stop-color="#ffffff" stop-opacity=".098"/>
   <stop offset="92.5%" stop-opacity=".098"/>
   <stop offset="100%" stop-opacity=".498"/>
  </linearGradient>
  <path fill="url(#c)" fill-rule="evenodd" d="M165.068 11.951c4.328-.01 8.656.04 12.984.138 3.875.078 7.75.226 11.626.452 3.453.196 6.905.481 10.348.854 3.06.335 6.118.786 9.148 1.346a80.47 80.47 0 0 1 8.046 1.916 53.64 53.64 0 0 1 7.023 2.584 40.413 40.413 0 0 1 6.06 3.35 35.176 35.176 0 0 1 5.134 4.215 35.072 35.072 0 0 1 4.22 5.119 41.692 41.692 0 0 1 3.363 6.042 55.982 55.982 0 0 1 2.597 7.005 80.224 80.224 0 0 1 1.918 8.037 124.43 124.43 0 0 1 1.348 9.127c.374 3.439.659 6.878.856 10.326.226 3.861.373 7.732.462 11.593.088 4.323.138 8.646.128 12.96v58.21c.01 4.324-.04 8.637-.128 12.96a325.177 325.177 0 0 1-.462 11.593 200.984 200.984 0 0 1-.856 10.326 124.691 124.691 0 0 1-1.348 9.137 80.687 80.687 0 0 1-1.918 8.027 55.414 55.414 0 0 1-2.597 7.005 41.18 41.18 0 0 1-3.364 6.042 34.559 34.559 0 0 1-4.22 5.119 35.177 35.177 0 0 1-5.134 4.215 40.412 40.412 0 0 1-6.059 3.35 55.138 55.138 0 0 1-7.023 2.594 77.806 77.806 0 0 1-8.046 1.906 120 120 0 0 1-9.148 1.346c-3.443.373-6.895.658-10.348.854-3.875.226-7.75.374-11.626.462-4.328.088-8.656.138-12.984.128H90.942c-4.328.01-8.656-.04-12.984-.128a328.387 328.387 0 0 1-11.626-.462 203.003 203.003 0 0 1-10.348-.854 120 120 0 0 1-9.148-1.346 77.806 77.806 0 0 1-8.046-1.906 55.139 55.139 0 0 1-7.023-2.594 40.413 40.413 0 0 1-6.06-3.35 35.176 35.176 0 0 1-5.134-4.215 34.56 34.56 0 0 1-4.22-5.119 41.183 41.183 0 0 1-3.363-6.042 55.415 55.415 0 0 1-2.597-7.005 80.682 80.682 0 0 1-1.918-8.027 124.688 124.688 0 0 1-1.348-9.137 200.993 200.993 0 0 1-.856-10.326 325.212 325.212 0 0 1-.462-11.593 569.197 569.197 0 0 1-.128-12.96v-58.21c-.01-4.314.04-8.637.128-12.96.089-3.86.236-7.732.462-11.593.197-3.448.482-6.887.856-10.326.335-3.055.787-6.101 1.348-9.127a80.219 80.219 0 0 1 1.918-8.037 55.983 55.983 0 0 1 2.597-7.005 41.695 41.695 0 0 1 3.364-6.042 35.072 35.072 0 0 1 4.22-5.119 35.176 35.176 0 0 1 5.134-4.215 40.413 40.413 0 0 1 6.059-3.35 53.64 53.64 0 0 1 7.023-2.584 80.47 80.47 0 0 1 8.046-1.916 125.11 125.11 0 0 1 9.148-1.346c3.443-.373 6.895-.658 10.348-.854 3.875-.226 7.75-.374 11.626-.452 4.328-.098 8.656-.148 12.984-.138h74.126zm.01 4.009c4.298-.01 8.597.039 12.895.127 3.827.089 7.653.236 11.48.452 3.383.197 6.766.472 10.13.845 2.971.315 5.932.747 8.863 1.297a75.943 75.943 0 0 1 7.653 1.818 50.493 50.493 0 0 1 6.501 2.397 37.038 37.038 0 0 1 5.47 3.026 30.383 30.383 0 0 1 4.524 3.724 31.05 31.05 0 0 1 3.738 4.519 37.271 37.271 0 0 1 3.03 5.443 51.46 51.46 0 0 1 2.4 6.494 75.563 75.563 0 0 1 1.829 7.634c.54 2.928.974 5.875 1.298 8.842.374 3.36.65 6.73.846 10.11.217 3.822.374 7.634.453 11.456.088 4.293.137 8.577.137 12.87v58.212c0 4.293-.049 8.577-.137 12.87a317.503 317.503 0 0 1-.453 11.456c-.196 3.38-.472 6.75-.846 10.12a121.689 121.689 0 0 1-1.298 8.832 75.562 75.562 0 0 1-1.83 7.634 50.902 50.902 0 0 1-2.4 6.494 36.767 36.767 0 0 1-3.03 5.443 30.615 30.615 0 0 1-3.737 4.53 30.938 30.938 0 0 1-4.525 3.713 37.038 37.038 0 0 1-5.469 3.026 49.07 49.07 0 0 1-6.501 2.397 75.942 75.942 0 0 1-7.653 1.818c-2.931.55-5.892.982-8.863 1.306-3.364.364-6.747.649-10.13.836-3.827.216-7.653.373-11.48.452-4.298.098-8.597.137-12.895.137H90.932c-4.298 0-8.597-.04-12.895-.137a320.093 320.093 0 0 1-11.48-.452 193.696 193.696 0 0 1-10.13-.836 116.71 116.71 0 0 1-8.863-1.306 75.942 75.942 0 0 1-7.653-1.818 49.07 49.07 0 0 1-6.501-2.397 37.038 37.038 0 0 1-5.47-3.026 30.938 30.938 0 0 1-4.524-3.714 30.615 30.615 0 0 1-3.738-4.529 36.766 36.766 0 0 1-3.03-5.443 50.903 50.903 0 0 1-2.4-6.494 75.567 75.567 0 0 1-1.829-7.634 121.69 121.69 0 0 1-1.298-8.832c-.374-3.37-.65-6.74-.846-10.12a317.535 317.535 0 0 1-.453-11.456 623.851 623.851 0 0 1-.137-12.87V97.014c0-4.293.049-8.577.137-12.87.079-3.822.236-7.634.453-11.456.197-3.38.472-6.75.846-10.11.324-2.967.757-5.914 1.298-8.842a75.568 75.568 0 0 1 1.83-7.634 51.46 51.46 0 0 1 2.4-6.494 37.27 37.27 0 0 1 3.03-5.443 31.05 31.05 0 0 1 3.737-4.52 30.384 30.384 0 0 1 4.525-3.723 37.039 37.039 0 0 1 5.469-3.026 50.494 50.494 0 0 1 6.501-2.397 75.943 75.943 0 0 1 7.653-1.818c2.931-.55 5.892-.982 8.863-1.297 3.364-.373 6.747-.648 10.13-.845a344.71 344.71 0 0 1 11.48-.452c4.298-.088 8.597-.137 12.895-.127H165.078z"/>
 </g>
</svg>
