<svg xmlns="http://www.w3.org/2000/svg" style="isolation:isolate" width="256" height="256">
 <defs>
  <filter id="a" width="400%" height="400%" x="-200%" y="-200%" color-interpolation-filters="sRGB" filterUnits="objectBoundingBox">
   <feGaussianBlur xmlns="http://www.w3.org/2000/svg" in="SourceGraphic" stdDeviation="4.294"/>
   <feOffset xmlns="http://www.w3.org/2000/svg" dy="4" result="pf_100_offsetBlur"/>
   <feFlood xmlns="http://www.w3.org/2000/svg" flood-opacity=".4"/>
   <feComposite xmlns="http://www.w3.org/2000/svg" in2="pf_100_offsetBlur" operator="in" result="pf_100_dropShadow"/>
   <feBlend xmlns="http://www.w3.org/2000/svg" in="SourceGraphic" in2="pf_100_dropShadow"/>
  </filter>
 </defs>
 <path fill="#c8c4b7" d="M165.685 11.947c74.055 0 84.639 10.557 84.639 84.544v59.251c0 73.986-10.584 84.543-84.639 84.543h-75.37c-74.055 0-84.639-10.557-84.639-84.543V96.491c0-73.987 10.584-84.544 84.639-84.544h75.37z" filter="url(#a)"/>
 <path fill="#ffffff" opacity=".1" d="M5.676 126.116v29.626c0 73.986 10.584 84.543 84.639 84.543h75.37c74.055 0 84.639-10.557 84.639-84.543v-29.626H5.676z"/>
 <path fill="#895c33" d="M199.818 19.513c-2.207.281-5.126 5.578-7.379 10.265-5.135 10.684-10.445 22.328-15.205 36.72-4.734 14.312-5.431 13.768-.661 41.691 4.993-.429 15.857.691 20.811 2.35.51-1.259.899-3.266 1.345-4.605 6.999-21.03 4.858-51.238 4.285-75.357-.202-8.477-1.479-11.285-3.196-11.064zM96.155 72.105c-7.209 1.497 12.017 26.765 17.52 33.102 4.992 5.747 16.686 15.093 26.054 22.667a429.325 429.325 0 0 0 5.485 4.349s1.135 1.173 1.676.525c3.056-3.669 12.706-17.6 16.817-19.892l-.705-.827c-14.448-16.043-36.205-28.769-62.021-38.982-2.226-.881-3.796-1.156-4.826-.942z"/>
 <path fill="#c37e3f" d="M163.015 240.453h2.535c9.257 0 17.522-.165 24.898-.598 3.689-.217 7.155-.5 10.413-.863 1.959-.219 3.698-.529 5.509-.809 2.447-.53 5.274-1.14 7.118-1.504a46.55 46.55 0 0 0 4.777-1.213c4.878-1.506 9.583-3.806 13.806-6.687l.03-.002c.204-.144.376-.318.578-.463.402-.283.757-.612 1.152-.902.588-.509 1.261-.939 1.809-1.487a33.316 33.316 0 0 0 4.043-4.904 39.552 39.552 0 0 0 3.252-5.848c.961-2.115 1.803-4.402 2.539-6.871.736-2.469 1.367-5.122 1.904-7.97.418-2.218.735-4.66 1.047-7.122-1.127-4.015-3.234-8.043-6.641-11.957-13.941-16.017-29.423-35.911-33.414-59.4-.834-3.386-2.478-6.209-4.72-8.498-7.582-7.001-20.842-7.781-29.854-6.545l.002.006c-16.201 3.858-25.822 14.118-30.486 27.408-.56 3.234-.613 6.743-.08 10.496 1.842 12.982 7.321 22.434 8.031 35.787.962 18.099-10.919 30.794-2.67 46.106.18.378.268.733.471 1.115 1.714 3.241 4.661 6.432 8.66 9.891.647.56 1.388 1.023 2.142 1.474.938.574 2.072.936 3.149 1.36z"/>
 <path fill="none" d="M208.38 121.904c-6.975-28.311-70.859-17.678-65.112 22.825 1.839 12.962 7.321 22.403 8.028 35.737 1.177 22.19-17.071 36.242 6.444 56.988 11.876 10.477 42.683 1.798 55.751-.795 25.058-4.97 48.527-32.202 28.279-55.445-13.932-15.991-29.405-35.856-33.39-59.31z"/>
 <path fill="#8e8e8e" d="M233.554 227.64c.685-.58 1.454-1.083 2.086-1.715a33.316 33.316 0 0 0 4.043-4.904 39.552 39.552 0 0 0 3.252-5.848c.961-2.115 1.803-4.402 2.539-6.871.736-2.469 1.367-5.122 1.904-7.97.408-2.16.714-4.545 1.02-6.936-1.159-3.766-3.239-7.536-6.489-11.201-3.669-5.193-8.627-8.406-14.285-10.25 2.062 1.745 3.579 4.427 4.201 8.812.944 6.653-8.023 17.88-9.806 27.438 2.147 7.689 5.769 15.091 10.086 20.582.511-.35.953-.771 1.449-1.137zm-70.816 12.813h2.812c6.537 0 11.998-.221 17.582-.422-.541-4.309-.915-8.64-1.59-12.725-.068-.414-.14-.828-.215-1.236-2.635-10.811-23.096-10.055-25.283-25.465-.453-3.196.214-6.099 1.717-8.729.229-.4.64-.737.906-1.125-4.491 3.303-8.288 6.539-10.119 9.229-.026 4.411-6.254 14.861.559 27.746 1.713 3.241 4.659 6.425 8.656 9.885 1.4 1.211 3.105 2.116 4.975 2.842z"/>
 <path fill="#e4e4e4" d="M183.132 240.031c2.324-.084 5.149-.049 7.316-.176 3.689-.217 7.155-.5 10.413-.863 2.037-.228 3.85-.547 5.726-.84 2.347-.512 5.126-1.116 6.906-1.467a46.199 46.199 0 0 0 4.776-1.211c4.886-1.509 9.605-3.809 13.834-6.699-4.317-5.491-7.937-12.893-10.084-20.582a59.513 59.513 0 0 1-1.615-7.633c-1.127-7.939-.129-22.309 2.466-30.947-4.3-.847-9.772.058-15.707.9-13.831 1.963-41.937 8.292-49.404 21.361 7.273 7.05 13.14 13.662 18.703 21.477 2.644 3.715 4.003 8.058 4.863 12.717.097.396.167.808.215 1.236.675 4.086 1.051 8.417 1.592 12.727z"/>
 <path fill="#3f3f3f" d="M176.462 213.351c-5.563-7.815-11.43-14.428-18.702-21.477-1.503 2.63-2.169 5.533-1.716 8.728 2.187 15.41 22.646 14.655 25.282 25.466-.86-4.658-2.22-9.003-4.864-12.717zm46.409-43.737c-2.595 8.638-3.593 23.008-2.466 30.947.36 2.537.907 5.101 1.615 7.633 1.783-9.558 10.749-20.784 9.805-27.437-1.032-7.274-4.312-10.229-8.954-11.143z"/>
 <path fill="#ffffff" d="M195.354 134.495c-3.033 1.34-6.189 15.809-5.556 20.305.826 5.875 3.003 7.863 6.932 10.029 3.928 2.167 21.474 3.009 20.628-3.251-.833-6.166-1.801-11.365-3.12-14.711-1.319-3.346-3.934-9.668-7.731-12.012-2.385-1.473-8.12-1.699-11.153-.36z"/>
 <path fill="#3f3f3f" d="M193.668 155.303a5.649 5.649 0 0 1 4.797-6.383 5.649 5.649 0 0 1 6.383 4.797 5.649 5.649 0 0 1-4.797 6.383 5.649 5.649 0 0 1-6.383-4.797z"/>
 <path fill="#ffffff" d="M177.999 153.663c-1.269-4.515-8.413-11.444-12.581-13.371-10.528-4.869-15.46 6.882-13.376 15.778 1.549 6.611 7.753 24.567 15.424 19.508 7.671-5.059 13.789-10.328 10.533-21.915z"/>
 <path fill="#3f3f3f" d="M163.864 159.532a5.649 5.649 0 0 1 4.797-6.383 5.649 5.649 0 0 1 6.383 4.797 5.649 5.649 0 0 1-4.797 6.383 5.649 5.649 0 0 1-6.383-4.797z"/>
 <g opacity=".4">
  <linearGradient id="b" x1=".517" x2=".517" y2="1" gradientTransform="matrix(244.65 0 0 228.34 5.68 11.95)" gradientUnits="userSpaceOnUse">
   <stop offset="0%" stop-color="#ffffff"/>
   <stop offset="12.5%" stop-color="#ffffff" stop-opacity=".098"/>
   <stop offset="92.5%" stop-opacity=".098"/>
   <stop offset="100%" stop-opacity=".498"/>
  </linearGradient>
  <path fill="url(#b)" fill-rule="evenodd" d="M165.068 11.951c4.328-.01 8.656.04 12.984.138 3.875.078 7.75.226 11.626.452 3.453.196 6.905.481 10.348.854 3.06.335 6.118.786 9.148 1.346a80.47 80.47 0 0 1 8.046 1.916 53.64 53.64 0 0 1 7.023 2.584 40.413 40.413 0 0 1 6.06 3.35 35.176 35.176 0 0 1 5.134 4.215 35.072 35.072 0 0 1 4.22 5.119 41.692 41.692 0 0 1 3.363 6.042 55.982 55.982 0 0 1 2.597 7.005 80.224 80.224 0 0 1 1.918 8.037 124.43 124.43 0 0 1 1.348 9.127c.374 3.439.659 6.878.856 10.326.226 3.861.373 7.732.462 11.593.088 4.323.138 8.646.128 12.96v58.21c.01 4.324-.04 8.637-.128 12.96a325.177 325.177 0 0 1-.462 11.593 200.984 200.984 0 0 1-.856 10.326 124.691 124.691 0 0 1-1.348 9.137 80.687 80.687 0 0 1-1.918 8.027 55.414 55.414 0 0 1-2.597 7.005 41.18 41.18 0 0 1-3.364 6.042 34.559 34.559 0 0 1-4.22 5.119 35.177 35.177 0 0 1-5.134 4.215 40.412 40.412 0 0 1-6.059 3.35 55.138 55.138 0 0 1-7.023 2.594 77.806 77.806 0 0 1-8.046 1.906 120 120 0 0 1-9.148 1.346c-3.443.373-6.895.658-10.348.854-3.875.226-7.75.374-11.626.462-4.328.088-8.656.138-12.984.128H90.942c-4.328.01-8.656-.04-12.984-.128a328.387 328.387 0 0 1-11.626-.462 203.003 203.003 0 0 1-10.348-.854 120 120 0 0 1-9.148-1.346 77.806 77.806 0 0 1-8.046-1.906 55.139 55.139 0 0 1-7.023-2.594 40.413 40.413 0 0 1-6.06-3.35 35.176 35.176 0 0 1-5.134-4.215 34.56 34.56 0 0 1-4.22-5.119 41.183 41.183 0 0 1-3.363-6.042 55.415 55.415 0 0 1-2.597-7.005 80.682 80.682 0 0 1-1.918-8.027 124.688 124.688 0 0 1-1.348-9.137 200.993 200.993 0 0 1-.856-10.326 325.212 325.212 0 0 1-.462-11.593 569.197 569.197 0 0 1-.128-12.96v-58.21c-.01-4.314.04-8.637.128-12.96.089-3.86.236-7.732.462-11.593.197-3.448.482-6.887.856-10.326.335-3.055.787-6.101 1.348-9.127a80.219 80.219 0 0 1 1.918-8.037 55.983 55.983 0 0 1 2.597-7.005 41.695 41.695 0 0 1 3.364-6.042 35.072 35.072 0 0 1 4.22-5.119 35.176 35.176 0 0 1 5.134-4.215 40.413 40.413 0 0 1 6.059-3.35 53.64 53.64 0 0 1 7.023-2.584 80.47 80.47 0 0 1 8.046-1.916 125.11 125.11 0 0 1 9.148-1.346c3.443-.373 6.895-.658 10.348-.854 3.875-.226 7.75-.374 11.626-.452 4.328-.098 8.656-.148 12.984-.138h74.126zm.01 4.009c4.298-.01 8.597.039 12.895.127 3.827.089 7.653.236 11.48.452 3.383.197 6.766.472 10.13.845 2.971.315 5.932.747 8.863 1.297a75.943 75.943 0 0 1 7.653 1.818 50.493 50.493 0 0 1 6.501 2.397 37.038 37.038 0 0 1 5.47 3.026 30.383 30.383 0 0 1 4.524 3.724 31.05 31.05 0 0 1 3.738 4.519 37.271 37.271 0 0 1 3.03 5.443 51.46 51.46 0 0 1 2.4 6.494 75.563 75.563 0 0 1 1.829 7.634c.54 2.928.974 5.875 1.298 8.842.374 3.36.65 6.73.846 10.11.217 3.822.374 7.634.453 11.456.088 4.293.137 8.577.137 12.87v58.212c0 4.293-.049 8.577-.137 12.87a317.503 317.503 0 0 1-.453 11.456c-.196 3.38-.472 6.75-.846 10.12a121.689 121.689 0 0 1-1.298 8.832 75.562 75.562 0 0 1-1.83 7.634 50.902 50.902 0 0 1-2.4 6.494 36.767 36.767 0 0 1-3.03 5.443 30.615 30.615 0 0 1-3.737 4.53 30.938 30.938 0 0 1-4.525 3.713 37.038 37.038 0 0 1-5.469 3.026 49.07 49.07 0 0 1-6.501 2.397 75.942 75.942 0 0 1-7.653 1.818c-2.931.55-5.892.982-8.863 1.306-3.364.364-6.747.649-10.13.836-3.827.216-7.653.373-11.48.452-4.298.098-8.597.137-12.895.137H90.932c-4.298 0-8.597-.04-12.895-.137a320.093 320.093 0 0 1-11.48-.452 193.696 193.696 0 0 1-10.13-.836 116.71 116.71 0 0 1-8.863-1.306 75.942 75.942 0 0 1-7.653-1.818 49.07 49.07 0 0 1-6.501-2.397 37.038 37.038 0 0 1-5.47-3.026 30.938 30.938 0 0 1-4.524-3.714 30.615 30.615 0 0 1-3.738-4.529 36.766 36.766 0 0 1-3.03-5.443 50.903 50.903 0 0 1-2.4-6.494 75.567 75.567 0 0 1-1.829-7.634 121.69 121.69 0 0 1-1.298-8.832c-.374-3.37-.65-6.74-.846-10.12a317.535 317.535 0 0 1-.453-11.456 623.851 623.851 0 0 1-.137-12.87V97.014c0-4.293.049-8.577.137-12.87.079-3.822.236-7.634.453-11.456.197-3.38.472-6.75.846-10.11.324-2.967.757-5.914 1.298-8.842a75.568 75.568 0 0 1 1.83-7.634 51.46 51.46 0 0 1 2.4-6.494 37.27 37.27 0 0 1 3.03-5.443 31.05 31.05 0 0 1 3.737-4.52 30.384 30.384 0 0 1 4.525-3.723 37.039 37.039 0 0 1 5.469-3.026 50.494 50.494 0 0 1 6.501-2.397 75.943 75.943 0 0 1 7.653-1.818c2.931-.55 5.892-.982 8.863-1.297 3.364-.373 6.747-.648 10.13-.845a344.71 344.71 0 0 1 11.48-.452c4.298-.088 8.597-.137 12.895-.127H165.078z"/>
 </g>
</svg>
