<svg xmlns="http://www.w3.org/2000/svg" style="isolation:isolate" width="256" height="256" viewBox="0 0 256 256">
 <defs>
  <filter id="KRfuirNv7PgfwMLx1998EEY8RPvyqxhP" width="400%" height="400%" x="-200%" y="-200%" color-interpolation-filters="sRGB" filterUnits="objectBoundingBox">
   <feGaussianBlur xmlns="http://www.w3.org/2000/svg" in="SourceGraphic" stdDeviation="4.294"/>
   <feOffset xmlns="http://www.w3.org/2000/svg" dx="0" dy="4" result="pf_100_offsetBlur"/>
   <feFlood xmlns="http://www.w3.org/2000/svg" flood-opacity=".4"/>
   <feComposite xmlns="http://www.w3.org/2000/svg" in2="pf_100_offsetBlur" operator="in" result="pf_100_dropShadow"/>
   <feBlend xmlns="http://www.w3.org/2000/svg" in="SourceGraphic" in2="pf_100_dropShadow" mode="normal"/>
  </filter>
 </defs>
 <g filter="url(#KRfuirNv7PgfwMLx1998EEY8RPvyqxhP)">
  <linearGradient id="_lgradient_53" x1="0" x2="0" y1="0" y2="1" gradientTransform="matrix(244.648309,0,0,228.338396,5.68,11.951604)" gradientUnits="userSpaceOnUse">
   <stop offset="0%" style="stop-color:#545e63"/>
   <stop offset="100%" style="stop-color:#343b40"/>
  </linearGradient>
  <path fill="url(#_lgradient_53)" d="M 165.688919 11.951604 C 239.744626 11.951604 250.328309 22.508801 250.328309 96.495462 L 250.328309 155.746257 C 250.328309 229.732514 239.744626 240.29 165.688919 240.29 L 90.319393 240.29 C 16.26369 240.29 5.68 229.732514 5.68 155.746257 L 5.68 96.495462 C 5.68 22.508801 16.26369 11.951604 90.319393 11.951604 L 165.688919 11.951604 Z"/>
 </g>
 <g opacity=".4">
  <linearGradient id="_lgradient_54" x1=".517" x2=".517" y1="0" y2="1" gradientTransform="matrix(244.65,0,0,228.34,5.68,11.95)" gradientUnits="userSpaceOnUse">
   <stop offset="0%" style="stop-color:#ffffff"/>
   <stop offset="12.5%" stop-opacity=".098" style="stop-color:#ffffff"/>
   <stop offset="92.5%" stop-opacity=".098" style="stop-color:#000000"/>
   <stop offset="100%" stop-opacity=".498" style="stop-color:#000000"/>
  </linearGradient>
  <path fill="url(#_lgradient_54)" fill-rule="evenodd" d="M 165.06803 11.951234 C 169.395994 11.941409 173.723944 11.990533 178.051908 12.088781 C 181.927398 12.167379 185.802873 12.31475 189.678362 12.540721 C 193.1309 12.737216 196.583423 13.022134 200.026115 13.395476 C 203.085193 13.729518 206.144271 14.181458 209.173842 14.741469 C 211.888645 15.242533 214.57394 15.881143 217.219897 16.6573 C 219.619947 17.354858 221.970814 18.219439 224.242988 19.241215 C 226.357793 20.184394 228.384061 21.304417 230.302129 22.591462 C 232.141505 23.829383 233.862851 25.244151 235.436659 26.80629 C 237.000621 28.378252 238.417046 30.087764 239.656409 31.924995 C 240.944972 33.840824 242.066305 35.864728 243.020409 37.967229 C 244.043389 40.246576 244.908985 42.584873 245.617197 44.972292 C 246.394255 47.615155 247.033606 50.297317 247.535265 53.008956 C 248.095924 56.034984 248.548399 59.080665 248.882828 62.13617 C 249.256611 65.574836 249.541856 69.013506 249.738578 72.462003 C 249.964823 76.323139 250.112361 80.194101 250.200884 84.055237 C 250.289421 88.378131 250.338591 92.701032 250.32876 97.014106 L 250.32876 155.225886 C 250.338591 159.54878 250.289421 163.861854 250.200884 168.184747 C 250.112361 172.05571 249.964823 175.916853 249.738578 179.777981 C 249.541856 183.226485 249.256611 186.674975 248.882828 190.103826 C 248.548399 193.15933 248.095924 196.214835 247.535265 199.240851 C 247.033606 201.942664 246.394255 204.624837 245.617197 207.267703 C 244.908985 209.655115 244.043389 212.003235 243.020409 214.272755 C 242.066305 216.38509 240.944972 218.399156 239.656409 220.314999 C 238.417046 222.152226 237.000621 223.871561 235.436659 225.433697 C 233.862851 226.995832 232.141505 228.410601 230.302129 229.648532 C 228.384061 230.935575 226.357793 232.055598 224.242988 232.998768 C 221.970814 234.020552 219.619947 234.885137 217.219897 235.592507 C 214.57394 236.368672 211.888645 237.007276 209.173842 237.498515 C 206.144271 238.068354 203.085193 238.510465 200.026115 238.844519 C 196.583423 239.21785 193.1309 239.502777 189.678362 239.699269 C 185.802873 239.925235 181.927398 240.072615 178.051908 240.161035 C 173.723944 240.249454 169.395994 240.298581 165.06803 240.288762 L 90.941963 240.288762 C 86.614006 240.298581 82.286049 240.249454 77.9581 240.161035 C 74.08261 240.072615 70.20712 239.925235 66.331638 239.699269 C 62.879108 239.502777 59.426578 239.21785 55.983886 238.844519 C 52.924808 238.510465 49.865733 238.068354 46.836162 237.498515 C 44.121356 237.007276 41.436057 236.368672 38.7901 235.592507 C 36.390053 234.885137 34.039187 234.020552 31.767009 232.998768 C 29.652213 232.055598 27.625943 230.935575 25.707871 229.648532 C 23.868489 228.410601 22.147143 226.995832 20.573343 225.433697 C 19.009377 223.871561 17.592955 222.152226 16.353586 220.314999 C 15.065036 218.399156 13.943701 216.38509 12.989584 214.272755 C 11.966612 212.003235 11.101021 209.655115 10.392811 207.267703 C 9.615746 204.624837 8.976389 201.942664 8.47474 199.240851 C 7.914072 196.214835 7.461604 193.15933 7.127172 190.103826 C 6.753394 186.674975 6.468142 183.226485 6.271417 179.777981 C 6.045183 175.916853 5.897639 172.05571 5.809112 168.184747 C 5.720586 163.861854 5.671405 159.54878 5.681241 155.225886 L 5.681241 97.014106 C 5.671405 92.701032 5.720586 88.378131 5.809112 84.055237 C 5.897639 80.194101 6.045183 76.323139 6.271417 72.462003 C 6.468142 69.013506 6.753394 65.574836 7.127172 62.13617 C 7.461604 59.080665 7.914072 56.034984 8.47474 53.008956 C 8.976389 50.297317 9.615746 47.615155 10.392811 44.972292 C 11.101021 42.584873 11.966612 40.246576 12.989584 37.967229 C 13.943701 35.864728 15.065036 33.840824 16.353586 31.924995 C 17.592955 30.087764 19.009377 28.378252 20.573343 26.80629 C 22.147143 25.244151 23.868489 23.829383 25.707871 22.591462 C 27.625943 21.304417 29.652213 20.184394 31.767009 19.241215 C 34.039187 18.219439 36.390053 17.354858 38.7901 16.6573 C 41.436057 15.881143 44.121356 15.242533 46.836162 14.741469 C 49.865733 14.181458 52.924808 13.729518 55.983886 13.395476 C 59.426578 13.022134 62.879108 12.737216 66.331638 12.540721 C 70.20712 12.31475 74.08261 12.167379 77.9581 12.088781 C 82.286049 11.990533 86.614006 11.941409 90.941963 11.951234 L 165.06803 11.951234 Z M 165.077876 15.959741 C 169.376317 15.949916 173.674759 15.99904 177.973216 16.087463 C 181.799522 16.175886 185.625827 16.323257 189.452133 16.539402 C 192.835809 16.735898 196.219486 17.010992 199.583486 17.384332 C 202.554026 17.698726 205.514751 18.131016 208.445953 18.681203 C 211.023049 19.152792 213.580483 19.761928 216.098564 20.498786 C 218.321569 21.147221 220.495374 21.952852 222.600334 22.896029 C 224.508571 23.750785 226.338116 24.762737 228.069293 25.922059 C 229.692286 27.012609 231.207063 28.260355 232.59398 29.645648 C 233.980897 31.030941 235.230091 32.543956 236.331763 34.165043 C 237.492434 35.894202 238.505568 37.711787 239.361333 39.607968 C 240.305606 41.720292 241.112187 43.891565 241.761369 46.102139 C 242.508934 48.617282 243.108947 51.161898 243.590914 53.735987 C 244.131912 56.663768 244.564709 59.6112 244.889308 62.578282 C 245.263091 65.938355 245.538505 69.308252 245.735227 72.687976 C 245.951626 76.509812 246.10901 80.321821 246.187687 84.143656 C 246.276225 88.437084 246.325394 92.720685 246.325394 97.014106 C 246.325394 97.014106 246.325394 97.014106 246.325394 97.014106 L 246.325394 155.225886 C 246.325394 155.225886 246.325394 155.225886 246.325394 155.225886 C 246.325394 159.519306 246.276225 163.802907 246.187687 168.096328 C 246.10901 171.918164 245.951626 175.739999 245.735227 179.552015 C 245.538505 182.931739 245.263091 186.301629 244.889308 189.671533 C 244.564709 192.628784 244.131912 195.576216 243.590914 198.503994 C 243.108947 201.078094 242.508934 203.622706 241.761369 206.137845 C 241.112187 208.358253 240.305606 210.5197 239.361333 212.63202 C 238.505568 214.528209 237.492434 216.355617 236.331763 218.074952 C 235.230091 219.705853 233.980897 221.218876 232.59398 222.604172 C 231.207063 223.979634 229.692286 225.227385 228.069293 226.317935 C 226.338116 227.477251 224.508571 228.489201 222.600334 229.343951 C 220.495374 230.296956 218.321569 231.092775 216.098564 231.741198 C 213.580483 232.478056 211.023049 233.087202 208.445953 233.558787 C 205.514751 234.108972 202.554026 234.541264 199.583486 234.865483 C 196.219486 235.228995 192.835809 235.513922 189.452133 235.70058 C 185.625827 235.916726 181.799522 236.073926 177.973216 236.152526 C 173.674759 236.25078 169.376317 236.290072 165.077876 236.290072 C 165.077876 236.290072 165.077876 236.290072 165.06803 236.290072 L 90.941963 236.290072 C 90.932125 236.290072 90.932125 236.290072 90.932125 236.290072 C 86.633683 236.290072 82.335234 236.25078 78.036784 236.152526 C 74.210479 236.073926 70.384173 235.916726 66.557868 235.70058 C 63.174195 235.513922 59.790522 235.228995 56.426518 234.865483 C 53.455967 234.541264 50.495253 234.108972 47.564048 233.558787 C 44.986944 233.087202 42.429517 232.478056 39.911433 231.741198 C 37.688439 231.092775 35.514626 230.296956 33.409665 229.343951 C 31.501429 228.489201 29.671886 227.477251 27.940703 226.317935 C 26.31772 225.227385 24.802935 223.979634 23.416022 222.604172 C 22.029109 221.218876 20.779904 219.705853 19.678243 218.074952 C 18.517564 216.355617 17.504428 214.528209 16.648674 212.63202 C 15.704392 210.5197 14.897819 208.358253 14.248626 206.137845 C 13.50107 203.622706 12.901057 201.078094 12.419081 198.503994 C 11.878086 195.576216 11.445291 192.628784 11.120694 189.671533 C 10.746916 186.301629 10.471501 182.931739 10.274776 179.552015 C 10.058378 175.739999 9.900997 171.918164 9.822307 168.096328 C 9.733781 163.802907 9.6846 159.519306 9.6846 155.225886 C 9.6846 155.225886 9.6846 155.225886 9.6846 155.225886 L 9.6846 97.014106 C 9.6846 97.014106 9.6846 97.014106 9.6846 97.014106 C 9.6846 92.720685 9.733781 88.437084 9.822307 84.143656 C 9.900997 80.321821 10.058378 76.509812 10.274776 72.687976 C 10.471501 69.308252 10.746916 65.938355 11.120694 62.578282 C 11.445291 59.6112 11.878086 56.663768 12.419081 53.735987 C 12.901057 51.161898 13.50107 48.617282 14.248626 46.102139 C 14.897819 43.891565 15.704392 41.720292 16.648674 39.607968 C 17.504428 37.711787 18.517564 35.894202 19.678243 34.165043 C 20.779904 32.543956 22.029109 31.030941 23.416022 29.645648 C 24.802935 28.260355 26.31772 27.012609 27.940703 25.922059 C 29.671886 24.762737 31.501429 23.750785 33.409665 22.896029 C 35.514626 21.952852 37.688439 21.147221 39.911433 20.498786 C 42.429517 19.761928 44.986944 19.152792 47.564048 18.681203 C 50.495253 18.131016 53.455967 17.698726 56.426518 17.384332 C 59.790522 17.010992 63.174195 16.735898 66.557868 16.539402 C 70.384173 16.323257 74.210479 16.175886 78.036784 16.087463 C 82.335234 15.99904 86.633683 15.949916 90.932125 15.959741 C 90.932125 15.959741 90.932125 15.959741 90.941963 15.959741 L 165.06803 15.959741 C 165.077876 15.959741 165.077876 15.959741 165.077876 15.959741 Z"/>
 </g>
 <g>
  <defs>
   <filter id="H3V7PE1au9NIiz5s35PWkILxh2yPQouK" width="400%" height="400%" x="-200%" y="-200%" color-interpolation-filters="sRGB" filterUnits="objectBoundingBox">
    <feGaussianBlur xmlns="http://www.w3.org/2000/svg" stdDeviation="4.294"/>
   </filter>
  </defs>
  <g opacity=".4" filter="url(#H3V7PE1au9NIiz5s35PWkILxh2yPQouK)">
   <path d="M 56.441061 154.282932 C 55.923476 153.748202 55.5 144.050589 55.5 132.732688 L 55.5 112.154694 L 62.13085 109.212462 C 73.45396 104.188214 78.421793 96.07018 76.780028 84.052071 C 76.383068 81.146394 76.469534 78.101309 76.972488 77.285209 C 78.148694 75.375704 110.353972 56.794606 112.52395 56.794606 C 113.426769 56.794606 114.709816 57.50274 115.375173 58.368237 C 119.643429 63.920284 124.002779 84.88058 122.528823 92.763661 C 121.865544 96.310852 120.837856 97.260849 115.164623 99.57111 C 107.17097 102.826272 100.463208 109.457459 96.846378 117.680247 C 94.678385 122.609085 94.237999 125.6679 94.588669 133.361509 L 95.024309 142.919515 L 90.830035 145.760357 C 81.786828 151.885395 59.473161 157.415392 56.441235 154.282932 L 56.441061 154.282932 Z"/>
  </g>
  <defs>
   <filter id="N94XWsUmAdWHF9OhdjNmmZSkFDV9UBp2" width="400%" height="400%" x="-200%" y="-200%" color-interpolation-filters="sRGB" filterUnits="objectBoundingBox">
    <feGaussianBlur xmlns="http://www.w3.org/2000/svg" stdDeviation="4.294"/>
   </filter>
  </defs>
  <g opacity=".4" filter="url(#N94XWsUmAdWHF9OhdjNmmZSkFDV9UBp2)">
   <path d="M 199.558936 154.282932 C 200.076539 153.748202 200.5 144.050589 200.5 132.732688 L 200.5 112.154694 L 193.869153 109.212462 C 182.546036 104.188214 177.935214 96.07018 179.576986 84.052071 C 179.973917 81.146394 179.88749 78.101309 179.384546 77.285209 C 178.208323 75.375704 145.646038 56.794606 143.476055 56.794606 C 142.573237 56.794606 141.2902 57.50274 140.624842 58.368237 C 136.356586 63.920284 131.997232 84.88058 133.471188 92.763661 C 134.134461 96.310852 135.162149 97.260849 140.835388 99.57111 C 148.829041 102.826272 155.536802 109.457459 159.153628 117.680247 C 161.321625 122.609085 161.762007 125.6679 161.411331 133.361509 L 160.975711 142.919515 L 165.169986 145.760357 C 174.213195 151.885395 196.526869 157.415392 199.558788 154.282932 L 199.558936 154.282932 Z"/>
  </g>
  <defs>
   <filter id="LgfDUuhjhxkWBmmesdxTKklqUH2Hcave" width="400%" height="400%" x="-200%" y="-200%" color-interpolation-filters="sRGB" filterUnits="objectBoundingBox">
    <feGaussianBlur xmlns="http://www.w3.org/2000/svg" stdDeviation="4.294"/>
   </filter>
  </defs>
  <g opacity=".4" filter="url(#LgfDUuhjhxkWBmmesdxTKklqUH2Hcave)">
   <path d="M 89.869325 192.756667 C 71.088969 181.576771 70.296156 180.887244 71.322634 176.624589 C 72.339991 172.399754 87.689979 157.366016 95.207065 153.232289 L 101.068654 150.008928 L 106.408108 154.416691 C 113.132315 159.967599 119.311847 162.28666 127.57647 162.36078 C 135.87149 162.435195 141.175356 160.529303 148.908445 154.6954 L 155.111642 150.015664 L 160.986833 153.212979 C 164.218205 154.971511 171.059617 160.665808 176.189997 165.866979 C 189.071936 178.926641 189.043796 179.010915 167.505068 191.904173 C 161.510658 195.492483 155.941862 198.66633 152.469898 200.504216 C 148.639465 203.000862 148.181314 201.241589 146.005405 198.614217 C 142.803557 195.341952 136.879661 191.437459 128 191.437459 C 118.319381 191.437459 112.480233 196.161327 109.733201 199.469535 C 107.767289 203.02601 106.578225 201.753127 103.891895 200.544052 C 100.471164 198.845198 95.290222 195.983703 89.869325 192.756667 Z"/>
  </g>
  <linearGradient id="_lgradient_55" x1="0" x2="0" y1="0" y2="1" gradientTransform="matrix(113.928574,0,0,51.785707,71.035715,147.419681)" gradientUnits="userSpaceOnUse">
   <stop offset="0%" style="stop-color:#1f5dd1"/>
   <stop offset="100%" style="stop-color:#007fff"/>
  </linearGradient>
  <path fill="url(#_lgradient_55)" d="M 89.869325 190.167421 C 71.088969 178.987525 70.296156 178.297988 71.322634 174.035342 C 72.339991 169.810507 87.689979 154.776769 95.207065 150.643043 L 101.068654 147.419681 L 106.408108 151.827435 C 113.132315 157.378343 119.311847 159.697404 127.57647 159.771533 C 135.87149 159.845949 141.175356 157.940047 148.908445 152.106154 L 155.111642 147.426408 L 160.986833 150.623733 C 164.218205 152.382265 171.059617 158.076562 176.189997 163.277733 C 189.071936 176.337395 189.043796 176.421659 167.505068 189.314927 C 161.510658 192.903227 155.941862 196.077083 152.469898 197.91497 C 148.639465 200.411616 148.181314 198.652333 146.005405 196.024971 C 142.803557 192.752696 136.879661 188.848213 128 188.848213 C 118.319381 188.848213 112.480233 193.572081 109.733201 196.880279 C 107.767289 200.436754 106.578225 199.163871 103.891895 197.954805 C 100.471164 196.255942 95.290222 193.394457 89.869325 190.167421 Z"/>
  <linearGradient id="_lgradient_56" x1=".187" x2=".19" y1=".005" y2=".999" gradientTransform="matrix(67.321427,0,0,98.392859,55.5,54.205356)" gradientUnits="userSpaceOnUse">
   <stop offset="0%" style="stop-color:#07b3ff"/>
   <stop offset="100%" style="stop-color:#007de8"/>
  </linearGradient>
  <path fill="url(#_lgradient_56)" d="M 56.441061 151.693686 C 55.923476 151.158946 55.5 141.461333 55.5 130.143441 L 55.5 109.565443 L 62.13085 106.623215 C 73.45396 101.598963 78.421793 93.480929 76.780028 81.462823 C 76.383068 78.557146 76.469534 75.51206 76.972488 74.69596 C 78.148702 72.786453 110.353982 54.205356 112.52396 54.205356 C 113.426774 54.205356 114.709826 54.913489 115.375183 55.778987 C 119.643439 61.331035 124.002784 82.291329 122.528827 90.17441 C 121.865554 93.721595 120.837866 94.671598 115.164633 96.981859 C 107.170979 100.237021 100.463218 106.868213 96.846387 115.090996 C 94.678395 120.019838 94.238009 123.078653 94.588679 130.772262 L 95.024314 140.330269 L 90.830045 143.171111 C 81.786828 149.296139 59.473161 154.826146 56.441235 151.693686 L 56.441061 151.693686 Z"/>
  <linearGradient id="_lgradient_57" x1="0" x2="0" y1="0" y2="1" gradientTransform="matrix(67.321431,0,0,98.392859,133.178569,54.205356)" gradientUnits="userSpaceOnUse">
   <stop offset="0%" style="stop-color:#00bbff"/>
   <stop offset="100%" style="stop-color:#14dcdc"/>
  </linearGradient>
  <path fill="url(#_lgradient_57)" d="M 199.558936 151.693686 C 200.076539 151.158946 200.5 141.461333 200.5 130.143441 L 200.5 109.565443 L 193.869153 106.623215 C 182.546036 101.598963 177.935214 93.480929 179.576986 81.462823 C 179.973947 78.557146 179.887481 75.51206 179.384517 74.69596 C 178.208303 72.786453 145.646018 54.205356 143.476036 54.205356 C 142.573217 54.205356 141.29018 54.913489 140.624823 55.778987 C 136.356567 61.331035 131.997212 82.291329 133.471168 90.17441 C 134.134442 93.721595 135.162129 94.671598 140.835368 96.981859 C 148.829021 100.237021 155.536783 106.868213 159.153608 115.090996 C 161.321606 120.019838 161.761987 123.078653 161.411312 130.772262 L 160.975691 140.330269 L 165.169966 143.171111 C 174.213175 149.296139 196.526849 154.826146 199.558768 151.693686 L 199.558936 151.693686 Z"/>
  <g opacity=".4" filter="url(#g8e9CNolX9rVwMkbAS9akLj5LtDZLHyu)">
   <circle cx="128" cy="129.295" r="36.25" vector-effect="non-scaling-stroke"/>
  </g>
  <circle fill="#ececec" cx="128" cy="126.705" r="36.25" vector-effect="non-scaling-stroke"/>
  <g opacity=".2">
   <path fill="#ffffff" d="M 112.524972 54.205356 C 110.354995 54.205356 78.14908 72.787616 76.972866 74.697123 C 76.590946 75.31683 76.455767 77.221811 76.583462 79.375034 C 76.642674 78.419471 76.761338 77.629639 76.972866 77.286409 C 78.14908 75.376901 110.354995 56.794642 112.524972 56.794642 C 113.427786 56.794642 114.711875 57.501934 115.377233 58.367431 C 118.954529 63.020695 122.54838 78.422194 122.7658 87.952043 C 123.274428 78.919721 119.294334 60.873416 115.377233 55.778145 C 114.711875 54.912648 113.427786 54.205356 112.524972 54.205356 Z M 77.03861 87.051862 C 76.604826 96.048327 71.596526 102.422763 62.129988 106.62322 L 55.500001 109.56651 L 55.500001 112.155796 L 62.129988 109.212506 C 72.480207 104.619943 77.502813 97.430191 77.03861 87.051862 Z M 94.53146 127.81794 C 94.481273 129.407984 94.487175 131.168522 94.587089 133.36063 L 94.905692 140.405307 L 95.022008 140.329449 L 94.587089 130.771344 C 94.535322 129.635588 94.545737 128.772615 94.53146 127.81794 Z"/>
  </g>
  <g opacity=".2">
   <path fill="#ffffff" d="M 143.475028 54.205356 C 142.57221 54.205356 141.288126 54.912648 140.622768 55.778145 C 136.705671 60.873416 132.725577 78.919721 133.234201 87.952043 C 133.451621 78.422194 137.045472 63.020695 140.622768 58.367431 C 141.288126 57.501934 142.57221 56.794642 143.475028 56.794642 C 145.645001 56.794642 178.209972 75.376901 179.386196 77.286409 C 179.599319 77.632224 179.717136 78.429202 179.7756 79.395263 C 179.905329 77.233985 179.769278 75.318719 179.386196 74.697123 C 178.209972 72.787616 145.645001 54.205356 143.475028 54.205356 Z M 179.300223 87.279436 C 178.865176 97.53498 183.59576 104.653654 193.870013 109.212506 L 200.5 112.155796 L 200.5 109.56651 L 193.870013 106.62322 C 184.482923 102.458015 179.722865 96.156597 179.300223 87.279436 Z M 161.468541 127.81794 C 161.454268 128.772615 161.464679 129.635588 161.412912 130.771344 L 160.977993 140.329449 L 161.094308 140.405307 L 161.412912 133.36063 C 161.512831 131.168522 161.518728 129.407984 161.468541 127.81794 Z"/>
  </g>
 </g>
</svg>
