<svg xmlns="http://www.w3.org/2000/svg" style="isolation:isolate" width="256" height="256" viewBox="0 0 256 256">
 <defs>
  <filter id="9Z3p9LBfXGVfv9l7CIUvP171pGJxcoOQ" width="400%" height="400%" x="-200%" y="-200%" color-interpolation-filters="sRGB" filterUnits="objectBoundingBox">
   <feGaussianBlur xmlns="http://www.w3.org/2000/svg" in="SourceGraphic" stdDeviation="4.294"/>
   <feOffset xmlns="http://www.w3.org/2000/svg" dx="0" dy="4" result="pf_100_offsetBlur"/>
   <feFlood xmlns="http://www.w3.org/2000/svg" flood-opacity=".4"/>
   <feComposite xmlns="http://www.w3.org/2000/svg" in2="pf_100_offsetBlur" operator="in" result="pf_100_dropShadow"/>
   <feBlend xmlns="http://www.w3.org/2000/svg" in="SourceGraphic" in2="pf_100_dropShadow" mode="normal"/>
  </filter>
 </defs>
 <g filter="url(#9Z3p9LBfXGVfv9l7CIUvP171pGJxcoOQ)">
  <path fill="#8e8e8e" d="M 165.685 11.952 C 239.74 11.952 250.324 22.509 250.324 96.495 L 250.324 155.746 C 250.324 229.733 239.74 240.29 165.685 240.29 L 90.315 240.29 C 16.26 240.29 5.676 229.733 5.676 155.746 L 5.676 96.495 C 5.676 22.509 16.26 11.952 90.315 11.952 L 165.685 11.952 Z"/>
 </g>
 <linearGradient id="_lgradient_30" x1="0" x2="0" y1="0" y2="1" gradientTransform="matrix(186,0,0,145,35,44)" gradientUnits="userSpaceOnUse">
  <stop offset="0%" style="stop-color:#2b2e30"/>
  <stop offset="100%" style="stop-color:#1e1f1f"/>
 </linearGradient>
 <path fill="url(#_lgradient_30)" d="M 38.84 44 L 217.16 44 C 219.279 44 221 45.721 221 47.84 L 221 185.16 C 221 187.279 219.279 189 217.16 189 L 38.84 189 C 36.721 189 35 187.279 35 185.16 L 35 47.84 C 35 45.721 36.721 44 38.84 44 Z"/>
 <path fill="#27292a" d="M 93 25 L 163 25 C 164.932 25 166.5 26.568 166.5 28.5 L 166.5 28.5 C 166.5 30.432 164.932 32 163 32 L 93 32 C 91.068 32 89.5 30.432 89.5 28.5 L 89.5 28.5 C 89.5 26.568 91.068 25 93 25 Z"/>
 <circle fill="#222324" cx="128" cy="217" r="15" vector-effect="non-scaling-stroke"/>
 <g>
  <defs>
   <filter id="7sMuuzw7WMjShfnDeqHjXJt30ejwwyCI" width="400%" height="400%" x="-200%" y="-200%" color-interpolation-filters="sRGB" filterUnits="objectBoundingBox">
    <feGaussianBlur xmlns="http://www.w3.org/2000/svg" stdDeviation="4.294"/>
   </filter>
  </defs>
  <g opacity=".4" filter="url(#7sMuuzw7WMjShfnDeqHjXJt30ejwwyCI)">
   <path d="M 134.93 63.177 L 114.215 66.786 L 114.215 138.134 L 134.822 135.477 L 134.715 103.319 L 159.025 138.912 L 182.906 135.477 L 155.43 98.636 L 183 67.725 L 158.824 63.271 L 134.715 94.182 L 134.93 63.177 Z M 91.367 81.396 C 91.168 81.413 90.98 81.5 90.83 81.651 L 83.72 88.842 C 83.411 89.154 83.359 89.639 83.599 90.01 L 92.185 103.198 C 90.565 106.072 89.342 109.224 88.549 112.522 L 73.724 116.158 C 73.313 116.259 73 116.631 73 117.057 L 73 121.739 L 73 126.421 C 73 126.847 73.313 127.219 73.724 127.32 L 88.549 130.956 C 89.342 134.254 90.565 137.406 92.185 140.28 L 83.599 153.469 C 83.359 153.839 83.411 154.325 83.72 154.636 L 90.83 161.827 C 91.13 162.129 91.595 162.154 91.957 161.934 L 105.414 153.683 C 108.054 155.221 112.183 156.459 115.194 157.279 L 118.347 172.506 C 118.435 172.946 118.784 173.258 119.219 173.258 L 124.518 173.258 L 129.818 173.258 C 130.253 173.258 130.602 172.946 130.69 172.506 L 133.843 157.279 C 136.854 156.459 140.983 155.221 143.623 153.683 L 157.08 161.934 C 157.442 162.154 157.907 162.129 158.207 161.827 L 165.317 154.636 C 165.626 154.325 165.678 153.84 165.438 153.469 L 158.287 142.481 L 157.402 142.615 L 152.384 135.263 C 147.259 146.006 136.421 152.852 124.519 152.865 C 107.447 152.865 93.607 139.025 93.607 121.954 C 93.617 110.22 100.269 99.504 110.78 94.289 L 110.78 87.541 C 108.821 88.194 106.896 88.932 105.414 89.795 L 91.957 81.544 C 91.776 81.434 91.566 81.38 91.367 81.396 L 91.367 81.396 Z"/>
  </g>
  <linearGradient id="_lgradient_31" x1="0" x2="0" y1="0" y2="1" gradientTransform="matrix(110,0,0,110.081,73,59.742)" gradientUnits="userSpaceOnUse">
   <stop offset="0%" style="stop-color:#e0e5e7"/>
   <stop offset="100%" style="stop-color:#c7ced2"/>
  </linearGradient>
  <path fill="url(#_lgradient_31)" d="M 134.93 59.742 L 114.215 63.351 L 114.215 134.699 L 134.822 132.043 L 134.715 99.884 L 159.025 135.477 L 182.906 132.043 L 155.43 95.202 L 183 64.291 L 158.824 59.836 L 134.715 90.747 L 134.93 59.742 Z M 91.367 77.962 C 91.168 77.978 90.98 78.066 90.83 78.217 L 83.72 85.408 C 83.411 85.719 83.359 86.204 83.599 86.575 L 92.185 99.763 C 90.565 102.638 89.342 105.79 88.549 109.088 L 73.724 112.723 C 73.313 112.824 73 113.196 73 113.622 L 73 118.304 L 73 122.987 C 73 123.413 73.313 123.785 73.724 123.886 L 88.549 127.521 C 89.342 130.819 90.565 133.971 92.185 136.846 L 83.599 150.034 C 83.359 150.405 83.411 150.89 83.72 151.201 L 90.83 158.392 C 91.13 158.695 91.595 158.719 91.957 158.5 L 105.414 150.249 C 108.054 151.787 112.183 153.024 115.194 153.844 L 118.347 169.072 C 118.435 169.511 118.784 169.823 119.219 169.823 L 124.518 169.823 L 129.818 169.823 C 130.253 169.823 130.602 169.511 130.69 169.072 L 133.843 153.844 C 136.854 153.024 140.983 151.787 143.623 150.249 L 157.08 158.5 C 157.442 158.719 157.907 158.695 158.207 158.392 L 165.317 151.201 C 165.626 150.89 165.678 150.405 165.438 150.034 L 158.287 139.046 L 157.402 139.18 L 152.384 131.828 C 147.259 142.571 136.421 149.417 124.519 149.43 C 107.447 149.43 93.607 135.591 93.607 118.519 C 93.617 106.786 100.269 96.07 110.78 90.855 L 110.78 84.106 C 108.821 84.76 106.896 85.497 105.414 86.36 L 91.957 78.109 C 91.776 77.999 91.566 77.945 91.367 77.962 L 91.367 77.962 Z"/>
 </g>
</svg>
