<svg xmlns="http://www.w3.org/2000/svg" style="isolation:isolate" width="256" height="256" viewBox="0 0 256 256">
 <defs>
  <filter id="XQHqJj27srlvQ9nrRFfZigCvFiwoHK0q" width="400%" height="400%" x="-200%" y="-200%" color-interpolation-filters="sRGB" filterUnits="objectBoundingBox">
   <feGaussianBlur xmlns="http://www.w3.org/2000/svg" in="SourceGraphic" stdDeviation="4.294"/>
   <feOffset xmlns="http://www.w3.org/2000/svg" dx="0" dy="4" result="pf_100_offsetBlur"/>
   <feFlood xmlns="http://www.w3.org/2000/svg" flood-opacity=".4"/>
   <feComposite xmlns="http://www.w3.org/2000/svg" in2="pf_100_offsetBlur" operator="in" result="pf_100_dropShadow"/>
   <feBlend xmlns="http://www.w3.org/2000/svg" in="SourceGraphic" in2="pf_100_dropShadow" mode="normal"/>
  </filter>
 </defs>
 <g filter="url(#XQHqJj27srlvQ9nrRFfZigCvFiwoHK0q)">
  <linearGradient id="_lgradient_6" x1="0" x2="0" y1="0" y2="1" gradientTransform="matrix(244.648,0,0,228.338,5.43,11.452)" gradientUnits="userSpaceOnUse">
   <stop offset="0%" style="stop-color:#4c5561"/>
   <stop offset="100%" style="stop-color:#2e3842"/>
  </linearGradient>
  <path fill="url(#_lgradient_6)" d="M 165.439 11.452 C 239.495 11.452 250.078 22.009 250.078 95.995 L 250.078 155.246 C 250.078 229.233 239.495 239.79 165.439 239.79 L 90.069 239.79 C 16.014 239.79 5.43 229.233 5.43 155.246 L 5.43 95.995 C 5.43 22.009 16.014 11.452 90.069 11.452 L 165.439 11.452 Z"/>
 </g>
 <g opacity=".4">
  <linearGradient id="_lgradient_7" x1=".517" x2=".517" y1="0" y2="1" gradientTransform="matrix(244.65,0,0,228.34,5.68,11.95)" gradientUnits="userSpaceOnUse">
   <stop offset="0%" style="stop-color:#ffffff"/>
   <stop offset="12.5%" stop-opacity=".098" style="stop-color:#ffffff"/>
   <stop offset="92.5%" stop-opacity=".098" style="stop-color:#000000"/>
   <stop offset="100%" stop-opacity=".498" style="stop-color:#000000"/>
  </linearGradient>
  <path fill="url(#_lgradient_7)" fill-rule="evenodd" d="M 165.068 11.951 C 169.396 11.941 173.724 11.991 178.052 12.089 C 181.927 12.167 185.803 12.315 189.678 12.541 C 193.131 12.737 196.583 13.022 200.026 13.395 C 203.085 13.73 206.144 14.181 209.174 14.741 C 211.889 15.243 214.574 15.881 217.22 16.657 C 219.62 17.355 221.971 18.219 224.243 19.241 C 226.358 20.184 228.384 21.304 230.302 22.591 C 232.142 23.829 233.863 25.244 235.437 26.806 C 237.001 28.378 238.417 30.088 239.656 31.925 C 240.945 33.841 242.066 35.865 243.02 37.967 C 244.043 40.247 244.909 42.585 245.617 44.972 C 246.394 47.615 247.034 50.297 247.535 53.009 C 248.096 56.035 248.548 59.081 248.883 62.136 C 249.257 65.575 249.542 69.014 249.739 72.462 C 249.965 76.323 250.112 80.194 250.201 84.055 C 250.289 88.378 250.339 92.701 250.329 97.014 L 250.329 155.226 C 250.339 159.549 250.289 163.862 250.201 168.185 C 250.112 172.056 249.965 175.917 249.739 179.778 C 249.542 183.226 249.257 186.675 248.883 190.104 C 248.548 193.159 248.096 196.215 247.535 199.241 C 247.034 201.943 246.394 204.625 245.617 207.268 C 244.909 209.655 244.043 212.003 243.02 214.273 C 242.066 216.385 240.945 218.399 239.656 220.315 C 238.417 222.152 237.001 223.872 235.437 225.434 C 233.863 226.996 232.142 228.411 230.302 229.649 C 228.384 230.936 226.358 232.056 224.243 232.999 C 221.971 234.021 219.62 234.885 217.22 235.593 C 214.574 236.369 211.889 237.007 209.174 237.499 C 206.144 238.068 203.085 238.51 200.026 238.845 C 196.583 239.218 193.131 239.503 189.678 239.699 C 185.803 239.925 181.927 240.073 178.052 240.161 C 173.724 240.249 169.396 240.299 165.068 240.289 L 90.942 240.289 C 86.614 240.299 82.286 240.249 77.958 240.161 C 74.083 240.073 70.207 239.925 66.332 239.699 C 62.879 239.503 59.427 239.218 55.984 238.845 C 52.925 238.51 49.866 238.068 46.836 237.499 C 44.121 237.007 41.436 236.369 38.79 235.593 C 36.39 234.885 34.039 234.021 31.767 232.999 C 29.652 232.056 27.626 230.936 25.708 229.649 C 23.868 228.411 22.147 226.996 20.573 225.434 C 19.009 223.872 17.593 222.152 16.354 220.315 C 15.065 218.399 13.944 216.385 12.99 214.273 C 11.967 212.003 11.101 209.655 10.393 207.268 C 9.616 204.625 8.976 201.943 8.475 199.241 C 7.914 196.215 7.462 193.159 7.127 190.104 C 6.753 186.675 6.468 183.226 6.271 179.778 C 6.045 175.917 5.898 172.056 5.809 168.185 C 5.721 163.862 5.671 159.549 5.681 155.226 L 5.681 97.014 C 5.671 92.701 5.721 88.378 5.809 84.055 C 5.898 80.194 6.045 76.323 6.271 72.462 C 6.468 69.014 6.753 65.575 7.127 62.136 C 7.462 59.081 7.914 56.035 8.475 53.009 C 8.976 50.297 9.616 47.615 10.393 44.972 C 11.101 42.585 11.967 40.247 12.99 37.967 C 13.944 35.865 15.065 33.841 16.354 31.925 C 17.593 30.088 19.009 28.378 20.573 26.806 C 22.147 25.244 23.868 23.829 25.708 22.591 C 27.626 21.304 29.652 20.184 31.767 19.241 C 34.039 18.219 36.39 17.355 38.79 16.657 C 41.436 15.881 44.121 15.243 46.836 14.741 C 49.866 14.181 52.925 13.73 55.984 13.395 C 59.427 13.022 62.879 12.737 66.332 12.541 C 70.207 12.315 74.083 12.167 77.958 12.089 C 82.286 11.991 86.614 11.941 90.942 11.951 L 165.068 11.951 Z M 165.078 15.96 C 169.376 15.95 173.675 15.999 177.973 16.087 C 181.8 16.176 185.626 16.323 189.452 16.539 C 192.836 16.736 196.219 17.011 199.583 17.384 C 202.554 17.699 205.515 18.131 208.446 18.681 C 211.023 19.153 213.58 19.762 216.099 20.499 C 218.322 21.147 220.495 21.953 222.6 22.896 C 224.509 23.751 226.338 24.763 228.069 25.922 C 229.692 27.013 231.207 28.26 232.594 29.646 C 233.981 31.031 235.23 32.544 236.332 34.165 C 237.492 35.894 238.506 37.712 239.361 39.608 C 240.306 41.72 241.112 43.892 241.761 46.102 C 242.509 48.617 243.109 51.162 243.591 53.736 C 244.132 56.664 244.565 59.611 244.889 62.578 C 245.263 65.938 245.539 69.308 245.735 72.688 C 245.952 76.51 246.109 80.322 246.188 84.144 C 246.276 88.437 246.325 92.721 246.325 97.014 C 246.325 97.014 246.325 97.014 246.325 97.014 L 246.325 155.226 C 246.325 155.226 246.325 155.226 246.325 155.226 C 246.325 159.519 246.276 163.803 246.188 168.096 C 246.109 171.918 245.952 175.74 245.735 179.552 C 245.539 182.932 245.263 186.302 244.889 189.672 C 244.565 192.629 244.132 195.576 243.591 198.504 C 243.109 201.078 242.509 203.623 241.761 206.138 C 241.112 208.358 240.306 210.52 239.361 212.632 C 238.506 214.528 237.492 216.356 236.332 218.075 C 235.23 219.706 233.981 221.219 232.594 222.604 C 231.207 223.98 229.692 225.227 228.069 226.318 C 226.338 227.477 224.509 228.489 222.6 229.344 C 220.495 230.297 218.322 231.093 216.099 231.741 C 213.58 232.478 211.023 233.087 208.446 233.559 C 205.515 234.109 202.554 234.541 199.583 234.865 C 196.219 235.229 192.836 235.514 189.452 235.701 C 185.626 235.917 181.8 236.074 177.973 236.153 C 173.675 236.251 169.376 236.29 165.078 236.29 C 165.078 236.29 165.078 236.29 165.068 236.29 L 90.942 236.29 C 90.932 236.29 90.932 236.29 90.932 236.29 C 86.634 236.29 82.335 236.251 78.037 236.153 C 74.21 236.074 70.384 235.917 66.558 235.701 C 63.174 235.514 59.791 235.229 56.427 234.865 C 53.456 234.541 50.495 234.109 47.564 233.559 C 44.987 233.087 42.43 232.478 39.911 231.741 C 37.688 231.093 35.515 230.297 33.41 229.344 C 31.501 228.489 29.672 227.477 27.941 226.318 C 26.318 225.227 24.803 223.98 23.416 222.604 C 22.029 221.219 20.78 219.706 19.678 218.075 C 18.518 216.356 17.504 214.528 16.649 212.632 C 15.704 210.52 14.898 208.358 14.249 206.138 C 13.501 203.623 12.901 201.078 12.419 198.504 C 11.878 195.576 11.445 192.629 11.121 189.672 C 10.747 186.302 10.472 182.932 10.275 179.552 C 10.058 175.74 9.901 171.918 9.822 168.096 C 9.734 163.803 9.685 159.519 9.685 155.226 C 9.685 155.226 9.685 155.226 9.685 155.226 L 9.685 97.014 C 9.685 97.014 9.685 97.014 9.685 97.014 C 9.685 92.721 9.734 88.437 9.822 84.144 C 9.901 80.322 10.058 76.51 10.275 72.688 C 10.472 69.308 10.747 65.938 11.121 62.578 C 11.445 59.611 11.878 56.664 12.419 53.736 C 12.901 51.162 13.501 48.617 14.249 46.102 C 14.898 43.892 15.704 41.72 16.649 39.608 C 17.504 37.712 18.518 35.894 19.678 34.165 C 20.78 32.544 22.029 31.031 23.416 29.646 C 24.803 28.26 26.318 27.013 27.941 25.922 C 29.672 24.763 31.501 23.751 33.41 22.896 C 35.515 21.953 37.688 21.147 39.911 20.499 C 42.43 19.762 44.987 19.153 47.564 18.681 C 50.495 18.131 53.456 17.699 56.427 17.384 C 59.791 17.011 63.174 16.736 66.558 16.539 C 70.384 16.323 74.21 16.176 78.037 16.087 C 82.335 15.999 86.634 15.95 90.932 15.96 C 90.932 15.96 90.932 15.96 90.942 15.96 L 165.068 15.96 C 165.078 15.96 165.078 15.96 165.078 15.96 Z"/>
 </g>
 <g>
  <defs>
   <filter id="lFtxdCe5ZCxk48cFraOR2l7D1j7ZnllC" width="400%" height="400%" x="-200%" y="-200%" color-interpolation-filters="sRGB" filterUnits="objectBoundingBox">
    <feGaussianBlur xmlns="http://www.w3.org/2000/svg" stdDeviation="4.294"/>
   </filter>
  </defs>
  <g opacity=".4" filter="url(#lFtxdCe5ZCxk48cFraOR2l7D1j7ZnllC)">
   <path d="M 110.5 78 L 156.095 78 C 159.906 78 163 81.094 163 84.905 L 163 111.095 C 163 114.906 159.906 118 156.095 118 L 110.5 118 L 110.5 125.838 C 110.5 128.397 109.3 130.761 107.351 132.04 C 105.402 133.32 103.002 133.32 101.053 132.041 L 79.852 118.117 L 58.651 104.201 C 56.701 102.922 55.5 100.557 55.5 97.998 C 55.5 95.438 56.701 93.074 58.651 91.795 L 79.852 77.878 L 101.053 63.961 C 101.956 63.368 102.975 63.038 104.017 63.003 L 104.017 63.003 C 105.719 62.947 107.369 63.676 108.59 65.025 C 109.812 66.374 110.501 68.228 110.5 70.164 L 110.5 78 Z"/>
  </g>
  <defs>
   <filter id="jLPUnztvIXHbjbzg3guJCLbQLpAU2VvQ" width="400%" height="400%" x="-200%" y="-200%" color-interpolation-filters="sRGB" filterUnits="objectBoundingBox">
    <feGaussianBlur xmlns="http://www.w3.org/2000/svg" stdDeviation="4.294"/>
   </filter>
  </defs>
  <g opacity=".4" filter="url(#jLPUnztvIXHbjbzg3guJCLbQLpAU2VvQ)">
   <path d="M 145.5 140.5 L 99.905 140.5 C 96.094 140.5 93 143.594 93 147.405 L 93 173.595 C 93 177.406 96.094 180.5 99.905 180.5 L 145.5 180.5 L 145.5 188.338 C 145.5 190.897 146.7 193.261 148.649 194.54 C 150.598 195.82 152.998 195.82 154.947 194.541 L 176.148 180.617 L 197.349 166.701 C 199.299 165.422 200.5 163.057 200.5 160.498 C 200.5 157.938 199.299 155.574 197.349 154.295 L 176.148 140.378 L 154.947 126.461 C 154.044 125.868 153.025 125.538 151.983 125.503 L 151.983 125.503 C 150.281 125.447 148.631 126.176 147.41 127.525 C 146.188 128.874 145.499 130.728 145.5 132.664 L 145.5 140.5 Z"/>
  </g>
  <path d="M 158.929 138.333 L 100.238 138.333 C 96.427 138.333 93.333 141.427 93.333 145.238 L 93.333 171.429 C 93.333 175.239 96.427 178.333 100.238 178.333 L 158.929 178.333 C 162.739 178.333 165.833 175.239 165.833 171.429 L 165.833 145.238 C 165.833 141.427 162.739 138.333 158.929 138.333 Z" style="fill:#2daaaa"/>
  <g opacity=".1">
   <path fill="#ffffff" d="M 99.904 138 C 96.079 138 93 140.972 93 144.665 L 93 147.165 C 93 143.472 96.079 140.5 99.904 140.5 L 158.596 140.5 C 162.421 140.5 165.5 143.472 165.5 147.165 L 165.5 144.665 C 165.5 140.972 162.421 138 158.596 138 L 99.904 138 Z"/>
  </g>
  <path d="M 97.405 75.5 L 156.095 75.5 C 159.906 75.5 163 78.594 163 82.405 L 163 108.595 C 163 112.406 159.906 115.5 156.095 115.5 L 97.405 115.5 C 93.594 115.5 90.5 112.406 90.5 108.595 L 90.5 82.405 C 90.5 78.594 93.594 75.5 97.405 75.5 Z" style="fill:#46a926"/>
  <g opacity=".1">
   <path fill="#ffffff" d="M 97.404 75.5 C 93.579 75.5 90.5 78.472 90.5 82.165 L 90.5 84.665 C 90.5 80.972 93.579 78 97.404 78 L 156.096 78 C 159.921 78 163 80.972 163 84.665 L 163 82.165 C 163 78.472 159.921 75.5 156.096 75.5 L 97.404 75.5 Z"/>
  </g>
  <path fill="#31c6b7" d="M 151.983 123.003 C 153.025 123.038 154.044 123.368 154.947 123.961 L 176.148 137.878 L 197.349 151.795 C 199.299 153.074 200.5 155.438 200.5 157.998 C 200.5 160.557 199.299 162.922 197.349 164.201 L 176.148 178.117 L 154.947 192.041 C 152.998 193.32 150.598 193.32 148.649 192.04 C 146.7 190.761 145.5 188.397 145.5 185.838 L 145.5 130.164 C 145.499 128.228 146.188 126.374 147.41 125.025 C 148.631 123.676 150.281 122.947 151.983 123.003 L 151.983 123.003 Z"/>
  <path fill="#76c22b" d="M 104.017 60.503 C 102.975 60.538 101.956 60.868 101.053 61.461 L 79.852 75.378 L 58.651 89.295 C 56.701 90.574 55.5 92.938 55.5 95.498 C 55.5 98.057 56.701 100.422 58.651 101.701 L 79.852 115.617 L 101.053 129.541 C 103.002 130.82 105.402 130.82 107.351 129.54 C 109.3 128.261 110.5 125.897 110.5 123.338 L 110.5 67.664 C 110.501 65.728 109.812 63.874 108.59 62.525 C 107.369 61.176 105.719 60.447 104.017 60.503 L 104.017 60.503 Z"/>
 </g>
</svg>
