<svg xmlns="http://www.w3.org/2000/svg" style="isolation:isolate" width="256" height="256" viewBox="0 0 256 256">
 <defs>
  <filter id="zkuDkSHhHr6YGpzB8O2tGvn9s0cOMPsr" width="400%" height="400%" x="-200%" y="-200%" color-interpolation-filters="sRGB" filterUnits="objectBoundingBox">
   <feGaussianBlur xmlns="http://www.w3.org/2000/svg" in="SourceGraphic" stdDeviation="4.294"/>
   <feOffset xmlns="http://www.w3.org/2000/svg" dx="0" dy="4" result="pf_100_offsetBlur"/>
   <feFlood xmlns="http://www.w3.org/2000/svg" flood-opacity=".4"/>
   <feComposite xmlns="http://www.w3.org/2000/svg" in2="pf_100_offsetBlur" operator="in" result="pf_100_dropShadow"/>
   <feBlend xmlns="http://www.w3.org/2000/svg" in="SourceGraphic" in2="pf_100_dropShadow" mode="normal"/>
  </filter>
 </defs>
 <g filter="url(#zkuDkSHhHr6YGpzB8O2tGvn9s0cOMPsr)">
  <linearGradient id="_lgradient_135" x1="0" x2="0" y1="0" y2="1" gradientTransform="matrix(244.648,0,0,228.338,5.43,11.577)" gradientUnits="userSpaceOnUse">
   <stop offset="0%" style="stop-color:#4c5561"/>
   <stop offset="100%" style="stop-color:#2e3842"/>
  </linearGradient>
  <path fill="url(#_lgradient_135)" d="M 165.439 11.577 C 239.495 11.577 250.078 22.134 250.078 96.12 L 250.078 155.371 C 250.078 229.358 239.495 239.915 165.439 239.915 L 90.069 239.915 C 16.014 239.915 5.43 229.358 5.43 155.371 L 5.43 96.12 C 5.43 22.134 16.014 11.577 90.069 11.577 L 165.439 11.577 Z"/>
 </g>
 <g opacity=".4">
  <linearGradient id="_lgradient_136" x1=".517" x2=".517" y1="0" y2="1" gradientTransform="matrix(244.65,0,0,228.34,5.68,11.95)" gradientUnits="userSpaceOnUse">
   <stop offset="0%" style="stop-color:#ffffff"/>
   <stop offset="12.5%" stop-opacity=".098" style="stop-color:#ffffff"/>
   <stop offset="92.5%" stop-opacity=".098" style="stop-color:#000000"/>
   <stop offset="100%" stop-opacity=".498" style="stop-color:#000000"/>
  </linearGradient>
  <path fill="url(#_lgradient_136)" fill-rule="evenodd" d="M 165.068 11.951 C 169.396 11.941 173.724 11.991 178.052 12.089 C 181.927 12.167 185.803 12.315 189.678 12.541 C 193.131 12.737 196.583 13.022 200.026 13.395 C 203.085 13.73 206.144 14.181 209.174 14.741 C 211.889 15.243 214.574 15.881 217.22 16.657 C 219.62 17.355 221.971 18.219 224.243 19.241 C 226.358 20.184 228.384 21.304 230.302 22.591 C 232.142 23.829 233.863 25.244 235.437 26.806 C 237.001 28.378 238.417 30.088 239.656 31.925 C 240.945 33.841 242.066 35.865 243.02 37.967 C 244.043 40.247 244.909 42.585 245.617 44.972 C 246.394 47.615 247.034 50.297 247.535 53.009 C 248.096 56.035 248.548 59.081 248.883 62.136 C 249.257 65.575 249.542 69.014 249.739 72.462 C 249.965 76.323 250.112 80.194 250.201 84.055 C 250.289 88.378 250.339 92.701 250.329 97.014 L 250.329 155.226 C 250.339 159.549 250.289 163.862 250.201 168.185 C 250.112 172.056 249.965 175.917 249.739 179.778 C 249.542 183.226 249.257 186.675 248.883 190.104 C 248.548 193.159 248.096 196.215 247.535 199.241 C 247.034 201.943 246.394 204.625 245.617 207.268 C 244.909 209.655 244.043 212.003 243.02 214.273 C 242.066 216.385 240.945 218.399 239.656 220.315 C 238.417 222.152 237.001 223.872 235.437 225.434 C 233.863 226.996 232.142 228.411 230.302 229.649 C 228.384 230.936 226.358 232.056 224.243 232.999 C 221.971 234.021 219.62 234.885 217.22 235.593 C 214.574 236.369 211.889 237.007 209.174 237.499 C 206.144 238.068 203.085 238.51 200.026 238.845 C 196.583 239.218 193.131 239.503 189.678 239.699 C 185.803 239.925 181.927 240.073 178.052 240.161 C 173.724 240.249 169.396 240.299 165.068 240.289 L 90.942 240.289 C 86.614 240.299 82.286 240.249 77.958 240.161 C 74.083 240.073 70.207 239.925 66.332 239.699 C 62.879 239.503 59.427 239.218 55.984 238.845 C 52.925 238.51 49.866 238.068 46.836 237.499 C 44.121 237.007 41.436 236.369 38.79 235.593 C 36.39 234.885 34.039 234.021 31.767 232.999 C 29.652 232.056 27.626 230.936 25.708 229.649 C 23.868 228.411 22.147 226.996 20.573 225.434 C 19.009 223.872 17.593 222.152 16.354 220.315 C 15.065 218.399 13.944 216.385 12.99 214.273 C 11.967 212.003 11.101 209.655 10.393 207.268 C 9.616 204.625 8.976 201.943 8.475 199.241 C 7.914 196.215 7.462 193.159 7.127 190.104 C 6.753 186.675 6.468 183.226 6.271 179.778 C 6.045 175.917 5.898 172.056 5.809 168.185 C 5.721 163.862 5.671 159.549 5.681 155.226 L 5.681 97.014 C 5.671 92.701 5.721 88.378 5.809 84.055 C 5.898 80.194 6.045 76.323 6.271 72.462 C 6.468 69.014 6.753 65.575 7.127 62.136 C 7.462 59.081 7.914 56.035 8.475 53.009 C 8.976 50.297 9.616 47.615 10.393 44.972 C 11.101 42.585 11.967 40.247 12.99 37.967 C 13.944 35.865 15.065 33.841 16.354 31.925 C 17.593 30.088 19.009 28.378 20.573 26.806 C 22.147 25.244 23.868 23.829 25.708 22.591 C 27.626 21.304 29.652 20.184 31.767 19.241 C 34.039 18.219 36.39 17.355 38.79 16.657 C 41.436 15.881 44.121 15.243 46.836 14.741 C 49.866 14.181 52.925 13.73 55.984 13.395 C 59.427 13.022 62.879 12.737 66.332 12.541 C 70.207 12.315 74.083 12.167 77.958 12.089 C 82.286 11.991 86.614 11.941 90.942 11.951 L 165.068 11.951 Z M 165.078 15.96 C 169.376 15.95 173.675 15.999 177.973 16.087 C 181.8 16.176 185.626 16.323 189.452 16.539 C 192.836 16.736 196.219 17.011 199.583 17.384 C 202.554 17.699 205.515 18.131 208.446 18.681 C 211.023 19.153 213.58 19.762 216.099 20.499 C 218.322 21.147 220.495 21.953 222.6 22.896 C 224.509 23.751 226.338 24.763 228.069 25.922 C 229.692 27.013 231.207 28.26 232.594 29.646 C 233.981 31.031 235.23 32.544 236.332 34.165 C 237.492 35.894 238.506 37.712 239.361 39.608 C 240.306 41.72 241.112 43.892 241.761 46.102 C 242.509 48.617 243.109 51.162 243.591 53.736 C 244.132 56.664 244.565 59.611 244.889 62.578 C 245.263 65.938 245.539 69.308 245.735 72.688 C 245.952 76.51 246.109 80.322 246.188 84.144 C 246.276 88.437 246.325 92.721 246.325 97.014 C 246.325 97.014 246.325 97.014 246.325 97.014 L 246.325 155.226 C 246.325 155.226 246.325 155.226 246.325 155.226 C 246.325 159.519 246.276 163.803 246.188 168.096 C 246.109 171.918 245.952 175.74 245.735 179.552 C 245.539 182.932 245.263 186.302 244.889 189.672 C 244.565 192.629 244.132 195.576 243.591 198.504 C 243.109 201.078 242.509 203.623 241.761 206.138 C 241.112 208.358 240.306 210.52 239.361 212.632 C 238.506 214.528 237.492 216.356 236.332 218.075 C 235.23 219.706 233.981 221.219 232.594 222.604 C 231.207 223.98 229.692 225.227 228.069 226.318 C 226.338 227.477 224.509 228.489 222.6 229.344 C 220.495 230.297 218.322 231.093 216.099 231.741 C 213.58 232.478 211.023 233.087 208.446 233.559 C 205.515 234.109 202.554 234.541 199.583 234.865 C 196.219 235.229 192.836 235.514 189.452 235.701 C 185.626 235.917 181.8 236.074 177.973 236.153 C 173.675 236.251 169.376 236.29 165.078 236.29 C 165.078 236.29 165.078 236.29 165.068 236.29 L 90.942 236.29 C 90.932 236.29 90.932 236.29 90.932 236.29 C 86.634 236.29 82.335 236.251 78.037 236.153 C 74.21 236.074 70.384 235.917 66.558 235.701 C 63.174 235.514 59.791 235.229 56.427 234.865 C 53.456 234.541 50.495 234.109 47.564 233.559 C 44.987 233.087 42.43 232.478 39.911 231.741 C 37.688 231.093 35.515 230.297 33.41 229.344 C 31.501 228.489 29.672 227.477 27.941 226.318 C 26.318 225.227 24.803 223.98 23.416 222.604 C 22.029 221.219 20.78 219.706 19.678 218.075 C 18.518 216.356 17.504 214.528 16.649 212.632 C 15.704 210.52 14.898 208.358 14.249 206.138 C 13.501 203.623 12.901 201.078 12.419 198.504 C 11.878 195.576 11.445 192.629 11.121 189.672 C 10.747 186.302 10.472 182.932 10.275 179.552 C 10.058 175.74 9.901 171.918 9.822 168.096 C 9.734 163.803 9.685 159.519 9.685 155.226 C 9.685 155.226 9.685 155.226 9.685 155.226 L 9.685 97.014 C 9.685 97.014 9.685 97.014 9.685 97.014 C 9.685 92.721 9.734 88.437 9.822 84.144 C 9.901 80.322 10.058 76.51 10.275 72.688 C 10.472 69.308 10.747 65.938 11.121 62.578 C 11.445 59.611 11.878 56.664 12.419 53.736 C 12.901 51.162 13.501 48.617 14.249 46.102 C 14.898 43.892 15.704 41.72 16.649 39.608 C 17.504 37.712 18.518 35.894 19.678 34.165 C 20.78 32.544 22.029 31.031 23.416 29.646 C 24.803 28.26 26.318 27.013 27.941 25.922 C 29.672 24.763 31.501 23.751 33.41 22.896 C 35.515 21.953 37.688 21.147 39.911 20.499 C 42.43 19.762 44.987 19.153 47.564 18.681 C 50.495 18.131 53.456 17.699 56.427 17.384 C 59.791 17.011 63.174 16.736 66.558 16.539 C 70.384 16.323 74.21 16.176 78.037 16.087 C 82.335 15.999 86.634 15.95 90.932 15.96 C 90.932 15.96 90.932 15.96 90.942 15.96 L 165.068 15.96 C 165.078 15.96 165.078 15.96 165.078 15.96 Z"/>
 </g>
 <g>
  <linearGradient id="_lgradient_137" x1=".625" x2=".713" y1=".796" y2=".222" gradientTransform="matrix(145,0,0,112.404,55.5,83.419)" gradientUnits="userSpaceOnUse">
   <stop offset="0%" style="stop-color:#b58b00"/>
   <stop offset="100%" style="stop-color:#e4af00"/>
  </linearGradient>
  <path fill="url(#_lgradient_137)" fill-rule="evenodd" d="M 104.12 85.738 C 106.86 85.181 109.63 84.729 112.401 84.413 C 115.111 84.112 117.852 83.961 120.577 83.961 C 123.046 83.961 125.516 84.081 127.97 84.307 C 130.349 84.548 132.743 84.849 135.107 85.241 C 137.456 84.654 139.85 84.187 142.244 83.856 C 144.367 83.57 146.49 83.419 148.628 83.419 C 150.766 83.419 152.889 83.57 154.997 83.856 C 156.865 84.127 158.717 84.443 160.569 84.819 L 161.577 85 C 161.577 85 161.577 85 161.577 85 C 164.408 85.557 167.164 86.385 169.829 87.469 C 172.9 88.719 175.836 90.27 178.607 92.107 C 181.618 94.079 184.374 96.413 186.828 99.048 C 189.448 101.864 191.631 105.056 193.303 108.504 C 195.697 113.458 197.534 118.653 198.783 123.998 C 199.913 128.831 200.485 133.77 200.5 138.724 C 200.5 143.723 199.883 148.692 198.663 153.525 C 197.534 157.967 195.862 162.243 193.649 166.248 C 191.646 169.937 189.132 173.34 186.211 176.336 C 183.531 179.107 180.414 181.441 176.996 183.217 C 174.948 184.286 172.659 184.859 170.341 184.874 C 169.422 184.874 168.519 184.783 167.615 184.588 C 167.043 185.356 166.396 186.078 165.688 186.726 C 164.438 187.915 163.038 188.954 161.532 189.797 C 157.994 191.77 154.049 192.884 149.998 193.035 C 149.998 193.05 149.983 193.05 149.968 193.05 L 149.562 193.05 C 149.532 193.05 149.517 193.05 149.487 193.05 C 148.493 193.035 147.514 192.929 146.55 192.734 C 145.677 192.553 144.819 192.342 143.976 192.071 C 143.524 191.936 143.072 191.8 142.621 191.634 C 142.003 192.131 141.341 192.568 140.648 192.959 C 139.428 193.622 138.149 194.164 136.839 194.555 C 133.857 195.429 130.756 195.865 127.654 195.82 C 127.639 195.82 127.639 195.82 127.639 195.82 L 126.344 195.79 C 126.344 195.79 126.344 195.79 126.329 195.79 C 124.477 195.745 122.625 195.624 120.788 195.414 C 119.056 195.218 117.34 194.902 115.653 194.465 C 114.027 194.043 112.461 193.456 110.97 192.718 C 109.841 192.161 108.772 191.499 107.778 190.731 C 106.544 190.957 105.279 191.062 104.029 191.047 C 101.65 191.047 99.286 190.716 96.997 190.053 C 94.634 189.406 92.42 188.307 90.478 186.816 C 89.183 185.807 87.978 184.693 86.864 183.473 C 86.834 183.443 86.804 183.398 86.759 183.353 C 86.759 183.368 86.759 183.368 86.759 183.368 C 85.268 183.955 83.687 184.256 82.091 184.241 C 80.42 184.226 78.763 183.925 77.212 183.353 C 75.526 182.54 73.93 181.546 72.454 180.387 C 70.949 179.197 69.548 177.887 68.269 176.457 C 65.528 173.37 63.255 169.907 61.478 166.173 C 59.52 162.107 58.045 157.816 57.081 153.404 C 56.027 148.676 55.5 143.858 55.5 139.01 C 55.485 131.316 56.84 123.682 59.505 116.469 C 60.906 112.735 62.758 109.197 65.001 105.899 C 67.245 102.602 69.834 99.56 72.741 96.835 C 75.556 94.155 78.673 91.806 82.031 89.833 C 85.238 87.921 88.686 86.461 92.27 85.497 C 94.061 85.03 95.898 84.804 97.735 84.804 C 99.407 84.804 101.093 84.985 102.719 85.361 C 103.201 85.467 103.668 85.587 104.12 85.738 Z M 104.406 90.3 L 104.406 90.3 C 104.421 90.3 104.436 90.285 104.451 90.285 C 107.251 89.683 110.067 89.231 112.913 88.9 C 115.457 88.614 118.017 88.478 120.577 88.478 C 122.896 88.478 125.214 88.584 127.533 88.809 C 130.138 89.065 132.728 89.412 135.318 89.848 C 137.802 89.186 140.317 88.674 142.861 88.328 C 144.774 88.072 146.701 87.936 148.628 87.936 C 150.556 87.936 152.468 88.072 154.365 88.328 C 156.157 88.584 157.934 88.9 159.71 89.246 C 159.71 89.246 159.71 89.246 159.725 89.246 L 160.734 89.442 C 163.264 89.924 165.733 90.677 168.112 91.655 C 170.913 92.784 173.593 94.2 176.123 95.871 C 178.833 97.648 181.317 99.756 183.531 102.135 C 185.834 104.619 187.762 107.42 189.237 110.477 C 191.481 115.114 193.212 120.008 194.387 125.022 C 195.441 129.524 195.968 134.116 195.983 138.739 C 195.983 143.346 195.426 147.939 194.281 152.411 C 193.258 156.491 191.707 160.406 189.689 164.08 C 187.882 167.407 185.609 170.479 182.974 173.189 C 180.625 175.614 177.899 177.646 174.903 179.212 C 173.488 179.95 171.922 180.342 170.326 180.357 C 169.603 180.357 168.88 180.266 168.187 180.086 C 167.194 179.86 166.335 179.242 165.808 178.354 C 165.191 180.296 164.092 182.043 162.601 183.443 C 161.608 184.377 160.508 185.19 159.319 185.852 C 156.413 187.479 153.16 188.382 149.833 188.533 L 149.502 188.533 C 148.809 188.533 148.131 188.442 147.454 188.307 C 146.731 188.156 145.993 187.975 145.286 187.75 C 144.006 187.373 142.756 186.876 141.551 186.274 C 140.738 187.403 139.684 188.322 138.465 188.999 C 137.546 189.511 136.552 189.918 135.544 190.234 C 132.999 190.972 130.364 191.333 127.714 191.303 L 126.434 191.273 C 124.718 191.243 123.001 191.122 121.285 190.927 C 119.764 190.746 118.258 190.475 116.783 190.083 C 115.473 189.752 114.193 189.27 112.973 188.668 C 111.482 187.93 110.142 186.952 108.983 185.747 C 107.402 186.289 105.731 186.56 104.059 186.53 C 102.072 186.53 100.114 186.259 98.217 185.702 C 96.41 185.22 94.724 184.377 93.233 183.248 C 92.149 182.389 91.125 181.441 90.192 180.417 C 89.138 179.288 88.264 177.978 87.617 176.577 C 87.24 177.767 86.322 178.715 85.132 179.152 C 84.184 179.528 83.145 179.724 82.106 179.724 C 81.037 179.724 79.983 179.544 78.974 179.197 C 77.649 178.535 76.399 177.737 75.24 176.833 C 73.945 175.809 72.741 174.695 71.641 173.46 C 69.187 170.69 67.139 167.573 65.558 164.23 C 63.751 160.466 62.381 156.506 61.493 152.426 C 60.514 148.014 60.017 143.527 60.017 139.01 C 60.002 131.858 61.267 124.766 63.736 118.05 C 65.016 114.662 66.703 111.44 68.735 108.444 C 70.798 105.417 73.177 102.632 75.842 100.117 C 78.417 97.663 81.263 95.525 84.334 93.718 C 87.18 92.017 90.237 90.722 93.429 89.863 C 94.844 89.502 96.275 89.321 97.735 89.321 C 99.09 89.321 100.431 89.472 101.74 89.773 C 102.237 89.878 102.704 90.014 103.171 90.195 C 103.562 90.345 103.984 90.375 104.406 90.3 Z"/>
  <linearGradient id="_lgradient_138" x1=".912" x2=".842" y1=".237" y2=".705" gradientTransform="matrix(140.479,0,0,107.885,57.759,85.676)" gradientUnits="userSpaceOnUse">
   <stop offset="0%" style="stop-color:#ffe627"/>
   <stop offset="48.058%" style="stop-color:#ffc200"/>
   <stop offset="72.481%" style="stop-color:#f4ac00"/>
   <stop offset="100%" style="stop-color:#d78b00"/>
  </linearGradient>
  <path fill="url(#_lgradient_138)" d="M 103.975 88.081 C 103.975 88.081 98.964 86.079 92.855 87.681 C 79.734 91.12 66.876 103.162 61.624 117.26 C 51.794 143.649 61.963 173.433 78.09 181.276 C 83.673 183.228 87.35 180.525 87.35 180.525 C 87.35 180.525 89.005 182.814 91.854 185.029 C 96.325 188.586 103.795 189.497 108.371 188.283 C 112.725 192.136 118.924 193.316 126.389 193.538 C 133.209 193.773 139.077 192.155 142.155 189.034 C 142.155 189.034 146.654 190.948 149.913 190.785 C 158.104 190.378 164.173 186.244 166.658 181.956 C 166.658 181.956 170.806 183.842 175.951 181.213 C 193.711 172.14 206.942 142.123 191.268 109.49 C 184.813 96.053 170.674 89.007 161.155 87.221 C 154.16 85.909 147.576 84.381 135.211 87.546 C 124.453 85.789 115.853 85.575 103.977 88.08 L 103.975 88.081 Z"/>
  <linearGradient id="_lgradient_139" x1=".327" x2=".281" y1=".071" y2=".841" gradientTransform="matrix(66.551,0,0,107.235,57.759,86.211)" gradientUnits="userSpaceOnUse">
   <stop offset="0%" style="stop-color:#ffdc10"/>
   <stop offset="36.213%" style="stop-color:#f4b908"/>
   <stop offset="75%" style="stop-color:#eea704"/>
   <stop offset="100%" style="stop-color:#da9302"/>
  </linearGradient>
  <path fill="url(#_lgradient_139)" d="M 120.944 86.212 C 115.669 86.185 110.283 86.749 103.973 88.08 C 103.973 88.08 98.964 86.081 92.855 87.682 C 79.733 91.122 66.877 103.161 61.625 117.26 C 51.795 143.649 61.962 173.434 78.09 181.274 C 83.672 183.227 87.35 180.525 87.35 180.525 C 87.35 180.525 89.004 182.813 91.853 185.029 C 96.324 188.585 103.794 189.497 108.369 188.283 C 112.312 191.772 117.772 193.067 124.31 193.446 L 124.31 86.31 C 123.188 86.252 122.069 86.218 120.944 86.212 L 120.944 86.212 Z"/>
  <linearGradient id="_lgradient_140" x1=".751" x2=".62" y1=".172" y2="1.041" gradientTransform="matrix(49.422,0,0,102.404,128.514,88.6)" gradientUnits="userSpaceOnUse">
   <stop offset="0%" style="stop-color:#ffe627"/>
   <stop offset="44.962%" style="stop-color:#ffc200"/>
   <stop offset="72.481%" style="stop-color:#f4ac00"/>
   <stop offset="100%" style="stop-color:#d78b00"/>
  </linearGradient>
  <path fill="url(#_lgradient_140)" d="M 135.55 88.6 C 134.014 88.594 132.458 88.67 130.882 88.82 L 128.514 91.185 C 128.514 91.185 140.341 110.629 143.756 133.492 C 146.35 150.85 141.83 178.621 139.501 191.004 C 140.527 190.436 141.422 189.782 142.155 189.038 C 142.155 189.038 146.654 190.951 149.913 190.789 C 158.104 190.381 164.172 186.248 166.658 181.959 L 166.696 181.973 C 172.252 167.07 178.839 147.251 177.833 133.764 C 174.101 99.434 153.675 88.683 135.55 88.602 L 135.55 88.6 Z"/>
  <linearGradient id="_lgradient_141" x1=".484" x2=".464" y1=".111" y2=".934" gradientTransform="matrix(46.25,0,0,104.14,75.163,87.598)" gradientUnits="userSpaceOnUse">
   <stop offset="0%" style="stop-color:#ffdc10"/>
   <stop offset="39.532%" style="stop-color:#f4b908"/>
   <stop offset="75%" style="stop-color:#eea704"/>
   <stop offset="100%" style="stop-color:#c68000"/>
  </linearGradient>
  <path fill="url(#_lgradient_141)" d="M 120.514 87.598 C 118.553 87.627 114.063 89.869 114.063 89.869 C 114.063 89.869 74.385 87.243 75.174 131.651 C 75.602 155.758 81.763 171.344 87.304 180.559 L 87.351 180.526 C 87.351 180.526 89.005 182.814 91.854 185.03 C 96.325 188.586 103.795 189.497 108.37 188.283 C 110.115 189.827 112.157 190.942 114.456 191.738 C 112.571 187.207 110.2 178.853 108.548 163.711 C 105.395 134.807 112.488 99.067 119.32 91.447 C 121.989 88.47 121.771 87.58 120.514 87.599 L 120.514 87.598 Z"/>
  <linearGradient id="_lgradient_142" x1=".857" x2=".652" y1=".217" y2="1.034" gradientTransform="matrix(48.313,0,0,107.033,100.083,86.529)" gradientUnits="userSpaceOnUse">
   <stop offset="0%" style="stop-color:#ffe627"/>
   <stop offset="44.962%" style="stop-color:#ffc200"/>
   <stop offset="72.481%" style="stop-color:#f4ac00"/>
   <stop offset="100%" style="stop-color:#d78b00"/>
  </linearGradient>
  <path fill="url(#_lgradient_142)" d="M 124.38 86.53 C 122.404 86.555 120.082 87.562 117.166 90.004 C 107.87 97.786 99.856 107.209 100.088 141.022 C 100.27 167.589 105.659 182.206 109.423 189.134 C 113.699 192.313 119.505 193.335 126.388 193.539 C 133.208 193.774 139.077 192.157 142.156 189.036 L 142.212 189.059 C 144.895 181.014 149.662 162.344 148.082 134.538 C 146.328 103.656 133.381 93.031 130.139 89.572 C 128.416 87.735 126.619 86.501 124.38 86.529 L 124.38 86.53 Z"/>
  <linearGradient id="_lgradient_143" x1=".426" x2=".767" y1=".4" y2=".324" gradientTransform="matrix(30.218,0,0,34.16,106.97,60.177)" gradientUnits="userSpaceOnUse">
   <stop offset="0%" style="stop-color:#398c24"/>
   <stop offset="100%" style="stop-color:#63c44b"/>
  </linearGradient>
  <path fill="url(#_lgradient_143)" d="M 113.276 94.074 C 113.276 94.074 118.269 92.498 121.948 92.235 C 121.948 92.235 130.093 93.286 131.933 93.549 C 131.933 93.549 134.823 94.337 134.823 94.337 C 134.823 94.337 134.298 91.71 135.349 90.658 C 135.349 90.658 137.188 88.556 137.188 88.556 C 137.188 88.556 125.101 85.929 127.728 74.63 C 129.039 68.993 133.247 63.593 133.247 63.593 C 133.247 63.593 133.099 61.257 131.67 60.966 C 130.357 60.698 127.728 60.177 127.728 60.177 L 125.889 61.228 C 125.889 61.228 119.399 70.777 117.743 79.885 C 116.692 85.666 114.065 88.031 114.065 88.031 L 106.97 90.133 C 106.97 90.133 111.174 90.659 112.225 91.71 C 112.225 91.71 113.276 94.075 113.276 94.075 L 113.276 94.074 Z"/>
  <linearGradient id="_lgradient_144" x1=".223" x2=".418" y1=".976" y2=".2" gradientTransform="matrix(21.399,0,0,32.743,113.276,61.53)" gradientUnits="userSpaceOnUse">
   <stop offset="0%" style="stop-color:#398c24"/>
   <stop offset="100%" style="stop-color:#63c44b"/>
  </linearGradient>
  <path fill="url(#_lgradient_144)" d="M 127.671 61.53 C 127.671 61.53 125.688 63.173 124.778 65.144 C 123.334 68.274 120.087 73.208 119.605 80.19 C 119.147 86.834 115.463 91.703 113.276 94.043 C 113.276 94.054 113.276 94.076 113.276 94.076 C 113.276 94.076 118.267 92.499 121.946 92.236 C 125.625 91.973 130.092 93.289 131.932 93.551 C 133.419 93.764 134.358 94.133 134.675 94.272 C 133.659 93.323 132.153 91.896 130.316 90.059 C 127.066 86.809 126.324 81.354 126.225 77.662 C 126.104 73.209 130.799 65.867 131.641 64.784 C 132.484 63.7 132.245 62.134 132.245 62.134 L 127.671 61.53 L 127.671 61.53 Z"/>
  <linearGradient id="_lgradient_145" x1="0" x2="1" y1="-1.233" y2="-1.233" gradientTransform="matrix(7.495,0,0,3.441,125.753,60.177)" gradientUnits="userSpaceOnUse">
   <stop offset="0%" style="stop-color:#cfe96d"/>
   <stop offset="100%" style="stop-color:#dfff57"/>
  </linearGradient>
  <path fill="url(#_lgradient_145)" d="M 127.728 60.177 L 125.889 61.23 L 125.753 61.436 C 125.785 61.511 125.829 61.567 125.889 61.59 C 126.316 61.761 126.25 62.379 126.656 62.705 C 127.084 63.047 128.198 62.53 129.053 63.215 C 129.909 63.899 132.218 63.388 132.218 63.388 L 133.229 63.617 L 133.248 63.594 C 133.248 63.594 133.099 61.259 131.67 60.968 C 130.357 60.7 127.728 60.177 127.728 60.177 L 127.728 60.177 Z"/>
 </g>
</svg>
