<svg xmlns="http://www.w3.org/2000/svg" style="isolation:isolate" width="256" height="256" viewBox="0 0 256 256">
 <defs>
  <filter id="5nlOpVNH4KSgTiBmtXC28vaRBWTEdYEe" width="400%" height="400%" x="-200%" y="-200%" color-interpolation-filters="sRGB" filterUnits="objectBoundingBox">
   <feGaussianBlur xmlns="http://www.w3.org/2000/svg" in="SourceGraphic" stdDeviation="4.294"/>
   <feOffset xmlns="http://www.w3.org/2000/svg" dx="0" dy="4" result="pf_100_offsetBlur"/>
   <feFlood xmlns="http://www.w3.org/2000/svg" flood-opacity=".4"/>
   <feComposite xmlns="http://www.w3.org/2000/svg" in2="pf_100_offsetBlur" operator="in" result="pf_100_dropShadow"/>
   <feBlend xmlns="http://www.w3.org/2000/svg" in="SourceGraphic" in2="pf_100_dropShadow" mode="normal"/>
  </filter>
 </defs>
 <g filter="url(#5nlOpVNH4KSgTiBmtXC28vaRBWTEdYEe)">
  <linearGradient id="_lgradient_16" x1=".568" x2=".567" y1="1.005" y2="-.071" gradientTransform="matrix(244.648309,0,0,228.338396,5.619191,11.951604)" gradientUnits="userSpaceOnUse">
   <stop offset="0%" style="stop-color:#00979c"/>
   <stop offset="100%" style="stop-color:#20b6bb"/>
  </linearGradient>
  <path fill="url(#_lgradient_16)" d="M 165.628109 11.951604 C 239.683817 11.951604 250.2675 22.508801 250.2675 96.495462 L 250.2675 155.746257 C 250.2675 229.732514 239.683817 240.29 165.628109 240.29 L 90.258584 240.29 C 16.20288 240.29 5.619191 229.732514 5.619191 155.746257 L 5.619191 96.495462 C 5.619191 22.508801 16.20288 11.951604 90.258584 11.951604 L 165.628109 11.951604 Z"/>
 </g>
 <g>
  <g opacity=".4">
   <rect fill="#333333" width="111.583" height="128.833" x="74.75" y="56.5" transform="matrix(1,0,0,1,0,0)"/>
  </g>
  <rect fill="#ebebeb" width="113.333" height="129.667" x="71" y="53.67" transform="matrix(1,0,0,1,0,0)"/>
  <path fill="#37474f" d="M 116.547178 105.593716 L 116.547178 106.967996 L 142.085876 138.748215 L 141.914091 139.034523 L 107.728883 139.034523 L 106.869958 129.471826 L 97.25 129.471826 L 97.25 147.910079 L 155.943197 147.910079 L 155.943197 139.492616 L 128.514864 106.223594 L 155.943197 72.954573 L 155.943197 64.537109 L 100.055821 64.537109 L 100.055821 82.975362 L 109.733041 82.975362 L 110.591966 73.412666 L 141.914091 73.412666 L 142.085876 73.698974 L 116.547178 105.593716 Z"/>
  <path fill="#cbe667" d="M 124.22 111.49 C 127.38 110.9 130.54 110.34 133.71 109.83 C 135.76 109.5 137.81 109.23 139.87 109.01 C 141.75 108.8 143.64 108.69 145.53 108.67 C 146.53 108.67 147.52 108.71 148.51 108.81 C 149.5 108.91 150.48 109.1 151.44 109.38 C 152.61 109.72 153.72 110.27 154.7 111 C 156.01 112 156.98 113.38 157.48 114.96 C 157.49 115 157.5 115.03 157.51 115.07 L 166.76 146.82 C 167.21 148.35 167.03 149.99 166.26 151.39 C 165.49 152.78 164.21 153.82 162.68 154.26 C 161.15 154.71 159.51 154.53 158.11 153.76 C 156.72 152.99 155.68 151.71 155.24 150.18 L 146.65 120.7 C 146.31 120.68 145.96 120.67 145.62 120.67 C 144.13 120.68 142.65 120.77 141.18 120.94 C 139.32 121.14 137.46 121.38 135.62 121.68 C 131.54 122.34 127.47 123.07 123.41 123.87 C 121.2 124.3 118.99 124.71 116.78 125.11 C 114.93 125.45 113.08 125.73 111.21 125.96 C 111.1 125.97 110.99 125.98 110.87 125.99 L 110.59 126.01 C 109.22 126.09 107.86 125.77 106.69 125.08 C 104.69 123.87 103.49 121.67 103.58 119.33 C 103.61 118.59 103.75 117.85 104 117.15 C 104.18 116.64 104.4 116.15 104.66 115.68 C 105.15 114.82 105.7 113.99 106.31 113.22 C 107.09 112.22 107.91 111.25 108.76 110.3 C 109.95 108.97 111.17 107.66 112.41 106.38 C 114.11 104.63 115.83 102.9 117.57 101.19 C 119.86 98.95 122.17 96.72 124.5 94.51 C 126.19 92.91 127.89 91.32 129.58 89.73 C 123.3 90.65 117.07 91.84 110.89 93.31 C 104.61 94.81 98.37 96.46 92.17 98.26 C 90.64 98.71 89 98.52 87.61 97.76 C 86.21 96.99 85.18 95.7 84.74 94.17 C 84.29 92.64 84.48 91 85.24 89.61 C 86.01 88.21 87.3 87.18 88.83 86.74 C 95.21 84.88 101.64 83.18 108.11 81.64 C 114.73 80.06 121.42 78.79 128.15 77.81 C 148.113861 72.773651 150.693861 88.243651 132.75 103.22 C 130.47 105.38 128.21 107.56 125.97 109.76 C 125.39 110.34 124.8 110.91 124.22 111.49 Z" style="mix-blend-mode:multiply"/>
  <g filter="url(#gJNXX3Rx7Q5mMPyD4vK8wV3wYK9YJoPg)">
   <path fill="#cbe667" d="M 184.988204 196.85803 C 184.749809 198.298399 183.389113 199.272952 181.948671 199.034993 L 114.829976 192.770829 L 121.006993 157.294083 L 186.549452 171.211225 C 187.24148 171.32505 187.859832 171.709413 188.268198 172.279585 C 188.676564 172.849757 188.841416 173.558924 188.726414 174.250757 L 184.988204 196.85803 Z M 66.774155 175.201664 C 66.678616 175.071354 66.61094 174.922763 66.575346 174.765151 L 62.765938 159.674328 C 62.663343 159.249715 62.777121 158.801835 63.069932 158.477669 C 63.370306 158.157237 63.809511 158.005762 64.243554 158.072906 L 79.723774 160.492395 C 80.060056 160.546515 80.360786 160.732727 80.559115 161.009639 C 80.757444 161.286551 80.836937 161.631216 80.779924 161.96702 L 78.31965 176.077974 C 78.200494 176.7847 77.533144 177.262667 76.825679 177.147981 L 67.601315 175.711758 C 67.268212 175.659894 66.97005 175.476023 66.774155 175.201664 Z"/>
   <path fill="#37474f" d="M 78.95352 157.850335 L 89.442372 159.512701 L 108.019756 155.303874 L 101.868186 190.729872 L 85.71886 180.873584 L 75.240786 179.226265 L 78.95352 157.850335 Z"/>
   <path fill="#46a926" d="M 108.019756 155.303874 L 101.869725 190.732022 L 114.829976 192.770829 L 121.006993 157.294083 L 108.019756 155.303874 Z"/>
  </g>
  <defs>
   <filter id="gJNXX3Rx7Q5mMPyD4vK8wV3wYK9YJoPg" width="400%" height="400%" x="-200%" y="-200%" color-interpolation-filters="sRGB" filterUnits="objectBoundingBox">
    <feGaussianBlur xmlns="http://www.w3.org/2000/svg" in="SourceGraphic" stdDeviation="4.294"/>
    <feOffset xmlns="http://www.w3.org/2000/svg" dx="0" dy="4" result="pf_100_offsetBlur"/>
    <feFlood xmlns="http://www.w3.org/2000/svg" flood-opacity=".4"/>
    <feComposite xmlns="http://www.w3.org/2000/svg" in2="pf_100_offsetBlur" operator="in" result="pf_100_dropShadow"/>
    <feBlend xmlns="http://www.w3.org/2000/svg" in="SourceGraphic" in2="pf_100_dropShadow" mode="normal"/>
   </filter>
  </defs>
 </g>
 <g opacity=".4">
  <linearGradient id="_lgradient_17" x1=".517" x2=".517" y1="0" y2="1" gradientTransform="matrix(244.65,0,0,228.34,5.68,11.95)" gradientUnits="userSpaceOnUse">
   <stop offset="0%" style="stop-color:#ffffff"/>
   <stop offset="12.5%" stop-opacity=".098" style="stop-color:#ffffff"/>
   <stop offset="92.5%" stop-opacity=".098" style="stop-color:#000000"/>
   <stop offset="100%" stop-opacity=".498" style="stop-color:#000000"/>
  </linearGradient>
  <path fill="url(#_lgradient_17)" fill-rule="evenodd" d="M 165.06803 11.951234 C 169.395994 11.941409 173.723944 11.990533 178.051908 12.088781 C 181.927398 12.167379 185.802873 12.31475 189.678362 12.540721 C 193.1309 12.737216 196.583423 13.022134 200.026115 13.395476 C 203.085193 13.729518 206.144271 14.181458 209.173842 14.741469 C 211.888645 15.242533 214.57394 15.881143 217.219897 16.6573 C 219.619947 17.354858 221.970814 18.219439 224.242988 19.241215 C 226.357793 20.184394 228.384061 21.304417 230.302129 22.591462 C 232.141505 23.829383 233.862851 25.244151 235.436659 26.80629 C 237.000621 28.378252 238.417046 30.087764 239.656409 31.924995 C 240.944972 33.840824 242.066305 35.864728 243.020409 37.967229 C 244.043389 40.246576 244.908985 42.584873 245.617197 44.972292 C 246.394255 47.615155 247.033606 50.297317 247.535265 53.008956 C 248.095924 56.034984 248.548399 59.080665 248.882828 62.13617 C 249.256611 65.574836 249.541856 69.013506 249.738578 72.462003 C 249.964823 76.323139 250.112361 80.194101 250.200884 84.055237 C 250.289421 88.378131 250.338591 92.701032 250.32876 97.014106 L 250.32876 155.225886 C 250.338591 159.54878 250.289421 163.861854 250.200884 168.184747 C 250.112361 172.05571 249.964823 175.916853 249.738578 179.777981 C 249.541856 183.226485 249.256611 186.674975 248.882828 190.103826 C 248.548399 193.15933 248.095924 196.214835 247.535265 199.240851 C 247.033606 201.942664 246.394255 204.624837 245.617197 207.267703 C 244.908985 209.655115 244.043389 212.003235 243.020409 214.272755 C 242.066305 216.38509 240.944972 218.399156 239.656409 220.314999 C 238.417046 222.152226 237.000621 223.871561 235.436659 225.433697 C 233.862851 226.995832 232.141505 228.410601 230.302129 229.648532 C 228.384061 230.935575 226.357793 232.055598 224.242988 232.998768 C 221.970814 234.020552 219.619947 234.885137 217.219897 235.592507 C 214.57394 236.368672 211.888645 237.007276 209.173842 237.498515 C 206.144271 238.068354 203.085193 238.510465 200.026115 238.844519 C 196.583423 239.21785 193.1309 239.502777 189.678362 239.699269 C 185.802873 239.925235 181.927398 240.072615 178.051908 240.161035 C 173.723944 240.249454 169.395994 240.298581 165.06803 240.288762 L 90.941963 240.288762 C 86.614006 240.298581 82.286049 240.249454 77.9581 240.161035 C 74.08261 240.072615 70.20712 239.925235 66.331638 239.699269 C 62.879108 239.502777 59.426578 239.21785 55.983886 238.844519 C 52.924808 238.510465 49.865733 238.068354 46.836162 237.498515 C 44.121356 237.007276 41.436057 236.368672 38.7901 235.592507 C 36.390053 234.885137 34.039187 234.020552 31.767009 232.998768 C 29.652213 232.055598 27.625943 230.935575 25.707871 229.648532 C 23.868489 228.410601 22.147143 226.995832 20.573343 225.433697 C 19.009377 223.871561 17.592955 222.152226 16.353586 220.314999 C 15.065036 218.399156 13.943701 216.38509 12.989584 214.272755 C 11.966612 212.003235 11.101021 209.655115 10.392811 207.267703 C 9.615746 204.624837 8.976389 201.942664 8.47474 199.240851 C 7.914072 196.214835 7.461604 193.15933 7.127172 190.103826 C 6.753394 186.674975 6.468142 183.226485 6.271417 179.777981 C 6.045183 175.916853 5.897639 172.05571 5.809112 168.184747 C 5.720586 163.861854 5.671405 159.54878 5.681241 155.225886 L 5.681241 97.014106 C 5.671405 92.701032 5.720586 88.378131 5.809112 84.055237 C 5.897639 80.194101 6.045183 76.323139 6.271417 72.462003 C 6.468142 69.013506 6.753394 65.574836 7.127172 62.13617 C 7.461604 59.080665 7.914072 56.034984 8.47474 53.008956 C 8.976389 50.297317 9.615746 47.615155 10.392811 44.972292 C 11.101021 42.584873 11.966612 40.246576 12.989584 37.967229 C 13.943701 35.864728 15.065036 33.840824 16.353586 31.924995 C 17.592955 30.087764 19.009377 28.378252 20.573343 26.80629 C 22.147143 25.244151 23.868489 23.829383 25.707871 22.591462 C 27.625943 21.304417 29.652213 20.184394 31.767009 19.241215 C 34.039187 18.219439 36.390053 17.354858 38.7901 16.6573 C 41.436057 15.881143 44.121356 15.242533 46.836162 14.741469 C 49.865733 14.181458 52.924808 13.729518 55.983886 13.395476 C 59.426578 13.022134 62.879108 12.737216 66.331638 12.540721 C 70.20712 12.31475 74.08261 12.167379 77.9581 12.088781 C 82.286049 11.990533 86.614006 11.941409 90.941963 11.951234 L 165.06803 11.951234 Z M 165.077876 15.959741 C 169.376317 15.949916 173.674759 15.99904 177.973216 16.087463 C 181.799522 16.175886 185.625827 16.323257 189.452133 16.539402 C 192.835809 16.735898 196.219486 17.010992 199.583486 17.384332 C 202.554026 17.698726 205.514751 18.131016 208.445953 18.681203 C 211.023049 19.152792 213.580483 19.761928 216.098564 20.498786 C 218.321569 21.147221 220.495374 21.952852 222.600334 22.896029 C 224.508571 23.750785 226.338116 24.762737 228.069293 25.922059 C 229.692286 27.012609 231.207063 28.260355 232.59398 29.645648 C 233.980897 31.030941 235.230091 32.543956 236.331763 34.165043 C 237.492434 35.894202 238.505568 37.711787 239.361333 39.607968 C 240.305606 41.720292 241.112187 43.891565 241.761369 46.102139 C 242.508934 48.617282 243.108947 51.161898 243.590914 53.735987 C 244.131912 56.663768 244.564709 59.6112 244.889308 62.578282 C 245.263091 65.938355 245.538505 69.308252 245.735227 72.687976 C 245.951626 76.509812 246.10901 80.321821 246.187687 84.143656 C 246.276225 88.437084 246.325394 92.720685 246.325394 97.014106 C 246.325394 97.014106 246.325394 97.014106 246.325394 97.014106 L 246.325394 155.225886 C 246.325394 155.225886 246.325394 155.225886 246.325394 155.225886 C 246.325394 159.519306 246.276225 163.802907 246.187687 168.096328 C 246.10901 171.918164 245.951626 175.739999 245.735227 179.552015 C 245.538505 182.931739 245.263091 186.301629 244.889308 189.671533 C 244.564709 192.628784 244.131912 195.576216 243.590914 198.503994 C 243.108947 201.078094 242.508934 203.622706 241.761369 206.137845 C 241.112187 208.358253 240.305606 210.5197 239.361333 212.63202 C 238.505568 214.528209 237.492434 216.355617 236.331763 218.074952 C 235.230091 219.705853 233.980897 221.218876 232.59398 222.604172 C 231.207063 223.979634 229.692286 225.227385 228.069293 226.317935 C 226.338116 227.477251 224.508571 228.489201 222.600334 229.343951 C 220.495374 230.296956 218.321569 231.092775 216.098564 231.741198 C 213.580483 232.478056 211.023049 233.087202 208.445953 233.558787 C 205.514751 234.108972 202.554026 234.541264 199.583486 234.865483 C 196.219486 235.228995 192.835809 235.513922 189.452133 235.70058 C 185.625827 235.916726 181.799522 236.073926 177.973216 236.152526 C 173.674759 236.25078 169.376317 236.290072 165.077876 236.290072 C 165.077876 236.290072 165.077876 236.290072 165.06803 236.290072 L 90.941963 236.290072 C 90.932125 236.290072 90.932125 236.290072 90.932125 236.290072 C 86.633683 236.290072 82.335234 236.25078 78.036784 236.152526 C 74.210479 236.073926 70.384173 235.916726 66.557868 235.70058 C 63.174195 235.513922 59.790522 235.228995 56.426518 234.865483 C 53.455967 234.541264 50.495253 234.108972 47.564048 233.558787 C 44.986944 233.087202 42.429517 232.478056 39.911433 231.741198 C 37.688439 231.092775 35.514626 230.296956 33.409665 229.343951 C 31.501429 228.489201 29.671886 227.477251 27.940703 226.317935 C 26.31772 225.227385 24.802935 223.979634 23.416022 222.604172 C 22.029109 221.218876 20.779904 219.705853 19.678243 218.074952 C 18.517564 216.355617 17.504428 214.528209 16.648674 212.63202 C 15.704392 210.5197 14.897819 208.358253 14.248626 206.137845 C 13.50107 203.622706 12.901057 201.078094 12.419081 198.503994 C 11.878086 195.576216 11.445291 192.628784 11.120694 189.671533 C 10.746916 186.301629 10.471501 182.931739 10.274776 179.552015 C 10.058378 175.739999 9.900997 171.918164 9.822307 168.096328 C 9.733781 163.802907 9.6846 159.519306 9.6846 155.225886 C 9.6846 155.225886 9.6846 155.225886 9.6846 155.225886 L 9.6846 97.014106 C 9.6846 97.014106 9.6846 97.014106 9.6846 97.014106 C 9.6846 92.720685 9.733781 88.437084 9.822307 84.143656 C 9.900997 80.321821 10.058378 76.509812 10.274776 72.687976 C 10.471501 69.308252 10.746916 65.938355 11.120694 62.578282 C 11.445291 59.6112 11.878086 56.663768 12.419081 53.735987 C 12.901057 51.161898 13.50107 48.617282 14.248626 46.102139 C 14.897819 43.891565 15.704392 41.720292 16.648674 39.607968 C 17.504428 37.711787 18.517564 35.894202 19.678243 34.165043 C 20.779904 32.543956 22.029109 31.030941 23.416022 29.645648 C 24.802935 28.260355 26.31772 27.012609 27.940703 25.922059 C 29.671886 24.762737 31.501429 23.750785 33.409665 22.896029 C 35.514626 21.952852 37.688439 21.147221 39.911433 20.498786 C 42.429517 19.761928 44.986944 19.152792 47.564048 18.681203 C 50.495253 18.131016 53.455967 17.698726 56.426518 17.384332 C 59.790522 17.010992 63.174195 16.735898 66.557868 16.539402 C 70.384173 16.323257 74.210479 16.175886 78.036784 16.087463 C 82.335234 15.99904 86.633683 15.949916 90.932125 15.959741 C 90.932125 15.959741 90.932125 15.959741 90.941963 15.959741 L 165.06803 15.959741 C 165.077876 15.959741 165.077876 15.959741 165.077876 15.959741 Z"/>
 </g>
</svg>
