<svg xmlns="http://www.w3.org/2000/svg" style="isolation:isolate" width="256" height="256" viewBox="0 0 256 256">
 <defs>
  <filter id="gY7e5bSM5Q3rDWdHlvbt1A2wA4AiguH3" width="400%" height="400%" x="-200%" y="-200%" color-interpolation-filters="sRGB" filterUnits="objectBoundingBox">
   <feGaussianBlur xmlns="http://www.w3.org/2000/svg" in="SourceGraphic" stdDeviation="4.294"/>
   <feOffset xmlns="http://www.w3.org/2000/svg" dx="0" dy="4" result="pf_100_offsetBlur"/>
   <feFlood xmlns="http://www.w3.org/2000/svg" flood-opacity=".4"/>
   <feComposite xmlns="http://www.w3.org/2000/svg" in2="pf_100_offsetBlur" operator="in" result="pf_100_dropShadow"/>
   <feBlend xmlns="http://www.w3.org/2000/svg" in="SourceGraphic" in2="pf_100_dropShadow" mode="normal"/>
  </filter>
 </defs>
 <g filter="url(#gY7e5bSM5Q3rDWdHlvbt1A2wA4AiguH3)">
  <linearGradient id="_lgradient_7" x1="1" x2="1" y1="1" y2="0" gradientTransform="matrix(244.648,0,0,228.338,5.807,12.075)" gradientUnits="userSpaceOnUse">
   <stop offset="0%" style="stop-color:#1f5dd1"/>
   <stop offset="100%" style="stop-color:#007fff"/>
  </linearGradient>
  <path fill="url(#_lgradient_7)" d="M 165.816 12.075 C 239.871 12.075 250.455 22.632 250.455 96.619 L 250.455 155.87 C 250.455 229.856 239.871 240.413 165.816 240.413 L 90.446 240.413 C 16.39 240.413 5.807 229.856 5.807 155.87 L 5.807 96.619 C 5.807 22.632 16.39 12.075 90.446 12.075 L 165.816 12.075 Z"/>
 </g>
 <g opacity=".2">
  <path fill="#ececec" fill-rule="evenodd" d="M 165.816 12.075 C 239.871 12.075 250.455 22.632 250.455 96.619 L 250.455 155.87 C 250.455 229.856 239.871 240.413 165.816 240.413 L 90.446 240.413 C 16.39 240.413 5.807 229.856 5.807 155.87 L 5.807 96.619 C 5.807 22.632 16.39 12.075 90.446 12.075 L 165.816 12.075 Z M 165.84 32.07 C 170.07 32.07 174.3 32.11 178.54 32.21 C 182.22 32.29 185.9 32.43 189.58 32.64 C 192.71 32.82 195.84 33.08 198.96 33.42 C 201.53 33.7 204.1 34.08 206.65 34.55 C 208.67 34.92 210.67 35.4 212.63 35.97 C 214.11 36.41 215.55 36.94 216.96 37.57 C 217.96 38.02 218.92 38.55 219.84 39.16 C 220.53 39.63 221.18 40.16 221.77 40.75 C 222.36 41.35 222.9 41.99 223.37 42.69 C 223.98 43.6 224.51 44.56 224.96 45.56 C 225.59 46.96 226.12 48.4 226.55 49.87 C 227.13 51.83 227.61 53.82 227.98 55.84 C 228.45 58.38 228.83 60.95 229.11 63.52 C 229.45 66.63 229.71 69.75 229.89 72.88 C 230.1 76.56 230.24 80.23 230.32 83.91 C 230.42 88.14 230.46 92.37 230.46 96.6 C 230.46 96.6 230.46 96.61 230.46 96.62 L 230.46 155.87 C 230.46 155.88 230.46 155.88 230.46 155.89 C 230.46 160.12 230.42 164.35 230.32 168.58 C 230.24 172.26 230.1 175.93 229.89 179.61 C 229.71 182.73 229.45 185.86 229.11 188.97 C 228.83 191.54 228.45 194.1 227.98 196.65 C 227.61 198.66 227.13 200.66 226.55 202.62 C 226.12 204.09 225.59 205.53 224.96 206.93 C 224.51 207.93 223.98 208.89 223.37 209.8 C 222.9 210.49 222.36 211.14 221.77 211.74 C 221.18 212.32 220.53 212.86 219.84 213.33 C 218.92 213.94 217.96 214.47 216.96 214.92 C 215.55 215.55 214.11 216.08 212.63 216.51 C 210.67 217.09 208.67 217.57 206.65 217.94 C 204.1 218.41 201.53 218.79 198.96 219.07 C 195.84 219.41 192.71 219.67 189.58 219.85 C 185.9 220.06 182.22 220.2 178.54 220.28 C 174.3 220.37 170.07 220.42 165.84 220.41 C 165.83 220.41 165.82 220.41 165.82 220.41 L 90.45 220.41 C 90.44 220.41 90.43 220.41 90.42 220.41 C 86.19 220.42 81.96 220.37 77.72 220.28 C 74.04 220.2 70.36 220.06 66.68 219.85 C 63.55 219.67 60.42 219.41 57.3 219.07 C 54.73 218.79 52.16 218.41 49.61 217.94 C 47.59 217.57 45.6 217.09 43.63 216.51 C 42.15 216.08 40.71 215.55 39.31 214.92 C 38.3 214.47 37.34 213.94 36.43 213.33 C 35.73 212.86 35.08 212.32 34.49 211.74 C 33.9 211.14 33.37 210.49 32.9 209.8 C 32.29 208.89 31.75 207.93 31.3 206.93 C 30.67 205.53 30.14 204.09 29.71 202.62 C 29.13 200.66 28.65 198.66 28.28 196.65 C 27.81 194.1 27.43 191.54 27.15 188.97 C 26.81 185.86 26.55 182.73 26.37 179.61 C 26.16 175.93 26.02 172.26 25.94 168.58 C 25.85 164.35 25.8 160.12 25.81 155.89 C 25.81 155.88 25.81 155.88 25.81 155.87 L 25.81 96.62 C 25.81 96.61 25.81 96.6 25.81 96.6 C 25.8 92.37 25.85 88.14 25.94 83.91 C 26.02 80.23 26.16 76.56 26.37 72.88 C 26.55 69.75 26.81 66.63 27.15 63.52 C 27.43 60.95 27.81 58.38 28.28 55.84 C 28.65 53.82 29.13 51.83 29.71 49.87 C 30.14 48.4 30.67 46.96 31.3 45.56 C 31.75 44.56 32.29 43.6 32.9 42.69 C 33.37 41.99 33.9 41.35 34.49 40.75 C 35.08 40.16 35.73 39.63 36.43 39.16 C 37.34 38.55 38.3 38.02 39.31 37.57 C 40.71 36.94 42.15 36.41 43.63 35.97 C 45.6 35.4 47.59 34.92 49.61 34.55 C 52.16 34.08 54.73 33.7 57.3 33.42 C 60.42 33.08 63.55 32.82 66.68 32.64 C 70.36 32.43 74.04 32.29 77.72 32.21 C 81.96 32.11 86.19 32.07 90.42 32.07 C 90.43 32.07 90.44 32.07 90.45 32.07 L 165.82 32.08 C 165.82 32.08 165.83 32.07 165.84 32.07 Z"/>
 </g>
 <g opacity=".4">
  <linearGradient id="_lgradient_8" x1=".517" x2=".517" y1="0" y2="1" gradientTransform="matrix(244.65,0,0,228.34,5.68,11.95)" gradientUnits="userSpaceOnUse">
   <stop offset="0%" style="stop-color:#ffffff"/>
   <stop offset="12.5%" stop-opacity=".098" style="stop-color:#ffffff"/>
   <stop offset="92.5%" stop-opacity=".098" style="stop-color:#000000"/>
   <stop offset="100%" stop-opacity=".498" style="stop-color:#000000"/>
  </linearGradient>
  <path fill="url(#_lgradient_8)" fill-rule="evenodd" d="M 165.068 11.951 C 169.396 11.941 173.724 11.991 178.052 12.089 C 181.927 12.167 185.803 12.315 189.678 12.541 C 193.131 12.737 196.583 13.022 200.026 13.395 C 203.085 13.73 206.144 14.181 209.174 14.741 C 211.889 15.243 214.574 15.881 217.22 16.657 C 219.62 17.355 221.971 18.219 224.243 19.241 C 226.358 20.184 228.384 21.304 230.302 22.591 C 232.142 23.829 233.863 25.244 235.437 26.806 C 237.001 28.378 238.417 30.088 239.656 31.925 C 240.945 33.841 242.066 35.865 243.02 37.967 C 244.043 40.247 244.909 42.585 245.617 44.972 C 246.394 47.615 247.034 50.297 247.535 53.009 C 248.096 56.035 248.548 59.081 248.883 62.136 C 249.257 65.575 249.542 69.014 249.739 72.462 C 249.965 76.323 250.112 80.194 250.201 84.055 C 250.289 88.378 250.339 92.701 250.329 97.014 L 250.329 155.226 C 250.339 159.549 250.289 163.862 250.201 168.185 C 250.112 172.056 249.965 175.917 249.739 179.778 C 249.542 183.226 249.257 186.675 248.883 190.104 C 248.548 193.159 248.096 196.215 247.535 199.241 C 247.034 201.943 246.394 204.625 245.617 207.268 C 244.909 209.655 244.043 212.003 243.02 214.273 C 242.066 216.385 240.945 218.399 239.656 220.315 C 238.417 222.152 237.001 223.872 235.437 225.434 C 233.863 226.996 232.142 228.411 230.302 229.649 C 228.384 230.936 226.358 232.056 224.243 232.999 C 221.971 234.021 219.62 234.885 217.22 235.593 C 214.574 236.369 211.889 237.007 209.174 237.499 C 206.144 238.068 203.085 238.51 200.026 238.845 C 196.583 239.218 193.131 239.503 189.678 239.699 C 185.803 239.925 181.927 240.073 178.052 240.161 C 173.724 240.249 169.396 240.299 165.068 240.289 L 90.942 240.289 C 86.614 240.299 82.286 240.249 77.958 240.161 C 74.083 240.073 70.207 239.925 66.332 239.699 C 62.879 239.503 59.427 239.218 55.984 238.845 C 52.925 238.51 49.866 238.068 46.836 237.499 C 44.121 237.007 41.436 236.369 38.79 235.593 C 36.39 234.885 34.039 234.021 31.767 232.999 C 29.652 232.056 27.626 230.936 25.708 229.649 C 23.868 228.411 22.147 226.996 20.573 225.434 C 19.009 223.872 17.593 222.152 16.354 220.315 C 15.065 218.399 13.944 216.385 12.99 214.273 C 11.967 212.003 11.101 209.655 10.393 207.268 C 9.616 204.625 8.976 201.943 8.475 199.241 C 7.914 196.215 7.462 193.159 7.127 190.104 C 6.753 186.675 6.468 183.226 6.271 179.778 C 6.045 175.917 5.898 172.056 5.809 168.185 C 5.721 163.862 5.671 159.549 5.681 155.226 L 5.681 97.014 C 5.671 92.701 5.721 88.378 5.809 84.055 C 5.898 80.194 6.045 76.323 6.271 72.462 C 6.468 69.014 6.753 65.575 7.127 62.136 C 7.462 59.081 7.914 56.035 8.475 53.009 C 8.976 50.297 9.616 47.615 10.393 44.972 C 11.101 42.585 11.967 40.247 12.99 37.967 C 13.944 35.865 15.065 33.841 16.354 31.925 C 17.593 30.088 19.009 28.378 20.573 26.806 C 22.147 25.244 23.868 23.829 25.708 22.591 C 27.626 21.304 29.652 20.184 31.767 19.241 C 34.039 18.219 36.39 17.355 38.79 16.657 C 41.436 15.881 44.121 15.243 46.836 14.741 C 49.866 14.181 52.925 13.73 55.984 13.395 C 59.427 13.022 62.879 12.737 66.332 12.541 C 70.207 12.315 74.083 12.167 77.958 12.089 C 82.286 11.991 86.614 11.941 90.942 11.951 L 165.068 11.951 Z M 165.078 15.96 C 169.376 15.95 173.675 15.999 177.973 16.087 C 181.8 16.176 185.626 16.323 189.452 16.539 C 192.836 16.736 196.219 17.011 199.583 17.384 C 202.554 17.699 205.515 18.131 208.446 18.681 C 211.023 19.153 213.58 19.762 216.099 20.499 C 218.322 21.147 220.495 21.953 222.6 22.896 C 224.509 23.751 226.338 24.763 228.069 25.922 C 229.692 27.013 231.207 28.26 232.594 29.646 C 233.981 31.031 235.23 32.544 236.332 34.165 C 237.492 35.894 238.506 37.712 239.361 39.608 C 240.306 41.72 241.112 43.892 241.761 46.102 C 242.509 48.617 243.109 51.162 243.591 53.736 C 244.132 56.664 244.565 59.611 244.889 62.578 C 245.263 65.938 245.539 69.308 245.735 72.688 C 245.952 76.51 246.109 80.322 246.188 84.144 C 246.276 88.437 246.325 92.721 246.325 97.014 C 246.325 97.014 246.325 97.014 246.325 97.014 L 246.325 155.226 C 246.325 155.226 246.325 155.226 246.325 155.226 C 246.325 159.519 246.276 163.803 246.188 168.096 C 246.109 171.918 245.952 175.74 245.735 179.552 C 245.539 182.932 245.263 186.302 244.889 189.672 C 244.565 192.629 244.132 195.576 243.591 198.504 C 243.109 201.078 242.509 203.623 241.761 206.138 C 241.112 208.358 240.306 210.52 239.361 212.632 C 238.506 214.528 237.492 216.356 236.332 218.075 C 235.23 219.706 233.981 221.219 232.594 222.604 C 231.207 223.98 229.692 225.227 228.069 226.318 C 226.338 227.477 224.509 228.489 222.6 229.344 C 220.495 230.297 218.322 231.093 216.099 231.741 C 213.58 232.478 211.023 233.087 208.446 233.559 C 205.515 234.109 202.554 234.541 199.583 234.865 C 196.219 235.229 192.836 235.514 189.452 235.701 C 185.626 235.917 181.8 236.074 177.973 236.153 C 173.675 236.251 169.376 236.29 165.078 236.29 C 165.078 236.29 165.078 236.29 165.068 236.29 L 90.942 236.29 C 90.932 236.29 90.932 236.29 90.932 236.29 C 86.634 236.29 82.335 236.251 78.037 236.153 C 74.21 236.074 70.384 235.917 66.558 235.701 C 63.174 235.514 59.791 235.229 56.427 234.865 C 53.456 234.541 50.495 234.109 47.564 233.559 C 44.987 233.087 42.43 232.478 39.911 231.741 C 37.688 231.093 35.515 230.297 33.41 229.344 C 31.501 228.489 29.672 227.477 27.941 226.318 C 26.318 225.227 24.803 223.98 23.416 222.604 C 22.029 221.219 20.78 219.706 19.678 218.075 C 18.518 216.356 17.504 214.528 16.649 212.632 C 15.704 210.52 14.898 208.358 14.249 206.138 C 13.501 203.623 12.901 201.078 12.419 198.504 C 11.878 195.576 11.445 192.629 11.121 189.672 C 10.747 186.302 10.472 182.932 10.275 179.552 C 10.058 175.74 9.901 171.918 9.822 168.096 C 9.734 163.803 9.685 159.519 9.685 155.226 C 9.685 155.226 9.685 155.226 9.685 155.226 L 9.685 97.014 C 9.685 97.014 9.685 97.014 9.685 97.014 C 9.685 92.721 9.734 88.437 9.822 84.144 C 9.901 80.322 10.058 76.51 10.275 72.688 C 10.472 69.308 10.747 65.938 11.121 62.578 C 11.445 59.611 11.878 56.664 12.419 53.736 C 12.901 51.162 13.501 48.617 14.249 46.102 C 14.898 43.892 15.704 41.72 16.649 39.608 C 17.504 37.712 18.518 35.894 19.678 34.165 C 20.78 32.544 22.029 31.031 23.416 29.646 C 24.803 28.26 26.318 27.013 27.941 25.922 C 29.672 24.763 31.501 23.751 33.41 22.896 C 35.515 21.953 37.688 21.147 39.911 20.499 C 42.43 19.762 44.987 19.153 47.564 18.681 C 50.495 18.131 53.456 17.699 56.427 17.384 C 59.791 17.011 63.174 16.736 66.558 16.539 C 70.384 16.323 74.21 16.176 78.037 16.087 C 82.335 15.999 86.634 15.95 90.932 15.96 C 90.932 15.96 90.932 15.96 90.942 15.96 L 165.068 15.96 C 165.078 15.96 165.078 15.96 165.078 15.96 Z"/>
 </g>
 <g>
  <defs>
   <filter id="4KkBcz8RPbHnoAWbArVGgamlzKZwpsvJ" width="400%" height="400%" x="-200%" y="-200%" color-interpolation-filters="sRGB" filterUnits="objectBoundingBox">
    <feGaussianBlur xmlns="http://www.w3.org/2000/svg" stdDeviation="4.294"/>
   </filter>
  </defs>
  <g opacity=".4" filter="url(#4KkBcz8RPbHnoAWbArVGgamlzKZwpsvJ)">
   <path d="M 70.5 56.389 L 101.722 56.389 C 110.001 56.389 116.722 63.11 116.722 71.389 L 116.722 163.833 C 116.722 172.112 110.001 178.833 101.722 178.833 L 70.5 178.833 C 62.221 178.833 55.5 172.112 55.5 163.833 L 55.5 71.389 C 55.5 63.11 62.221 56.389 70.5 56.389 Z"/>
  </g>
  <path fill="#ffffff" d="M 70.5 53.167 L 101.722 53.167 C 110.001 53.167 116.722 59.888 116.722 68.167 L 116.722 160.611 C 116.722 168.89 110.001 175.611 101.722 175.611 L 70.5 175.611 C 62.221 175.611 55.5 168.89 55.5 160.611 L 55.5 68.167 C 55.5 59.888 62.221 53.167 70.5 53.167 Z"/>
  <defs>
   <filter id="fw6dpQwfwGZODPPf4g8x1fHqAMfUjTmI" width="400%" height="400%" x="-200%" y="-200%" color-interpolation-filters="sRGB" filterUnits="objectBoundingBox">
    <feGaussianBlur xmlns="http://www.w3.org/2000/svg" stdDeviation="4.294"/>
   </filter>
  </defs>
  <g opacity=".4" filter="url(#fw6dpQwfwGZODPPf4g8x1fHqAMfUjTmI)">
   <path d="M 151.056 56.389 L 185.5 56.389 C 193.779 56.389 200.5 63.11 200.5 71.389 L 200.5 105.833 C 200.5 114.112 193.779 120.833 185.5 120.833 L 151.056 120.833 C 142.777 120.833 136.056 114.112 136.056 105.833 L 136.056 71.389 C 136.056 63.11 142.777 56.389 151.056 56.389 Z"/>
  </g>
  <path fill="#ffffff" d="M 151.056 53.167 L 185.5 53.167 C 193.779 53.167 200.5 59.888 200.5 68.167 L 200.5 102.611 C 200.5 110.89 193.779 117.611 185.5 117.611 L 151.056 117.611 C 142.777 117.611 136.056 110.89 136.056 102.611 L 136.056 68.167 C 136.056 59.888 142.777 53.167 151.056 53.167 Z"/>
 </g>
</svg>
