<svg xmlns="http://www.w3.org/2000/svg" style="isolation:isolate" width="256" height="256" viewBox="0 0 256 256">
 <g filter="url(#ggAYyoED2Url4bEx69y1Ra3yPk4EAoIV)">
  <linearGradient id="_lgradient_543" x1=".5" x2=".5" y1=".999" y2="-.001" gradientTransform="matrix(244.648,0,0,228.338,5.676,11.947)" gradientUnits="userSpaceOnUse">
   <stop offset="1.739%" style="stop-color:#ad4f8d"/>
   <stop offset="100%" style="stop-color:#6b8ccb"/>
  </linearGradient>
  <path fill="url(#_lgradient_543)" d="M 165.685 11.947 C 239.74 11.947 250.324 22.504 250.324 96.491 L 250.324 155.742 C 250.324 229.728 239.74 240.285 165.685 240.285 L 90.315 240.285 C 16.26 240.285 5.676 229.728 5.676 155.742 L 5.676 96.491 C 5.676 22.504 16.26 11.947 90.315 11.947 L 165.685 11.947 L 165.685 11.947 Z"/>
 </g>
 <defs>
  <filter id="ggAYyoED2Url4bEx69y1Ra3yPk4EAoIV" width="400%" height="400%" x="-200%" y="-200%" color-interpolation-filters="sRGB" filterUnits="objectBoundingBox">
   <feGaussianBlur xmlns="http://www.w3.org/2000/svg" in="SourceGraphic" stdDeviation="4.294"/>
   <feOffset xmlns="http://www.w3.org/2000/svg" dx="0" dy="4" result="pf_100_offsetBlur"/>
   <feFlood xmlns="http://www.w3.org/2000/svg" flood-opacity=".4"/>
   <feComposite xmlns="http://www.w3.org/2000/svg" in2="pf_100_offsetBlur" operator="in" result="pf_100_dropShadow"/>
   <feBlend xmlns="http://www.w3.org/2000/svg" in="SourceGraphic" in2="pf_100_dropShadow" mode="normal"/>
  </filter>
 </defs>
 <g filter="url(#tJXRi8UyWJb7UBCbh8RAbWkdDDFlsGzx)">
  <path fill="#fefefe" d="M 143.03 127.72 C 144.26 128.33 145.44 129.07 146.53 129.91 C 148.01 131.05 149.38 132.32 150.65 133.69 C 152.238636 135.39338 153.740535 137.175634 155.15 139.03 C 156.97 141.42 158.73 143.85 160.43 146.33 C 161.99 148.6 163.58 150.84 165.21 153.05 C 166.53 154.86 167.91 156.62 169.33 158.35 C 170.47 159.74 171.68 161.07 172.96 162.34 C 173.98 163.37 175.08 164.32 176.24 165.19 C 177.22 165.92 178.27 166.55 179.37 167.08 C 180.41 167.58 181.5 167.98 182.62 168.26 C 183.83 168.57 185.07 168.78 186.32 168.9 C 187.79 169.03 189.27 169.1 190.74 169.09 C 192.14 169.08 193.54 169.13 194.94 169.23 C 196.03 169.31 197.13 169.45 198.2 169.68 C 198.66 169.77 199.1 169.89 199.54 170.04 C 199.96 170.19 200.37 170.37 200.75 170.6 C 201.21 170.86 201.61 171.22 201.94 171.64 C 202.38 172.22 202.61 172.94 202.6 173.67 C 202.57 174.5 202.25 175.3 201.7 175.93 C 201.29 176.41 200.81 176.83 200.28 177.17 C 199.84 177.44 199.36 177.65 198.85 177.76 C 198.41 177.87 197.96 177.96 197.5 178.01 C 196.42 178.13 195.33 178.18 194.24 178.17 C 192.74 178.16 191.25 178.1 189.75 177.99 C 188.15 177.87 186.56 177.71 184.97 177.49 C 183.480344 177.296727 181.99913 177.043185 180.53 176.73 C 179.29 176.48 178.07 176.13 176.9 175.66 C 175.15 174.92 173.49 173.96 171.96 172.83 C 170.194208 171.531995 168.538586 170.090433 167.01 168.52 C 165.188256 166.661578 163.469045 164.70535 161.86 162.66 C 159.93 160.23 158.1 157.73 156.36 155.16 C 154.89 153.01 153.38 150.87 151.84 148.77 C 150.56 147.02 149.24 145.31 147.86 143.64 C 146.73 142.26 145.55 140.94 144.3 139.67 C 143.28 138.63 142.2 137.66 141.05 136.76 C 140.09 136 139.07 135.33 138 134.75 C 137.03 134.23 136.01 133.81 134.96 133.48 C 133.89 133.15 132.79 132.91 131.68 132.77 C 130.44 132.62 129.19 132.55 127.94 132.55 C 126.69 132.55 125.44 132.62 124.19 132.77 C 123.08 132.91 121.99 133.15 120.92 133.48 C 119.87 133.81 118.85 134.23 117.88 134.75 C 116.81 135.33 115.78 136 114.82 136.76 C 113.68 137.66 112.59 138.63 111.58 139.67 C 110.330648 140.935753 109.142621 142.260604 108.02 143.64 C 106.639953 145.307911 105.312632 147.018754 104.04 148.77 C 102.5 150.87 100.99 153 99.52 155.16 C 97.77 157.75 95.92 160.27 93.99 162.73 C 92.4 164.75 90.69 166.68 88.88 168.51 C 87.351886 170.060549 85.692351 171.475838 83.92 172.74 C 82.343309 173.867758 80.646239 174.81691 78.86 175.57 C 77.61 176.07 76.33 176.46 75.01 176.74 C 73.49 177.08 71.96 177.37 70.42 177.58 C 68.8 177.82 67.18 178 65.55 178.13 C 64.06 178.25 62.56 178.32 61.06 178.32 C 59.88 178.34 58.7 178.27 57.54 178.11 C 57.04 178.04 56.56 177.92 56.09 177.76 C 55.36 177.52 54.73 177.06 54.29 176.43 C 54.04 176.05 53.83 175.64 53.67 175.22 C 53.49 174.75 53.4 174.24 53.4 173.73 C 53.42 172.54 54 171.43 54.96 170.73 C 55.35 170.45 55.77 170.22 56.21 170.05 C 56.65 169.88 57.1 169.74 57.56 169.64 C 58.63 169.41 59.72 169.27 60.81 169.21 C 62.25 169.12 63.7 169.08 65.14 169.09 C 66.6 169.1 68.06 169.03 69.52 168.9 C 70.76 168.78 71.99 168.56 73.2 168.25 C 74.32 167.96 75.41 167.56 76.45 167.05 C 77.56 166.51 78.62 165.86 79.61 165.12 C 80.78643 164.228753 81.899141 163.256385 82.94 162.21 C 84.24 160.91 85.47 159.55 86.64 158.13 C 88.1 156.37 89.5 154.57 90.86 152.73 C 92.53 150.47 94.17 148.19 95.77 145.88 C 97.41 143.51 99.14 141.21 100.94 138.97 C 102.510642 137.009499 104.168997 135.120909 105.91 133.31 C 107.37 131.78 108.94 130.35 110.6 129.03 C 111.13 128.6 111.68 128.2 112.25 127.82 C 111.67 127.43 111.12 127.02 110.58 126.59 C 108.911427 125.261309 107.337604 123.817803 105.87 122.27 C 104.115968 120.442071 102.444308 118.536846 100.86 116.56 C 99.036987 114.280431 97.29263 111.939057 95.63 109.54 C 94.03 107.24 92.4 104.95 90.75 102.68 C 89.43 100.87 88.07 99.1 86.67 97.36 C 85.57 96 84.4 94.68 83.18 93.42 C 82.22 92.43 81.18 91.51 80.08 90.68 C 79.15 89.98 78.16 89.37 77.12 88.86 C 76.1 88.37 75.03 87.98 73.94 87.69 C 72.69 87.37 71.42 87.12 70.14 86.97 C 68.57 86.77 67 86.63 65.43 86.55 C 63.88 86.46 62.34 86.35 60.8 86.2 C 59.74 86.1 58.68 85.94 57.64 85.71 C 57.21 85.62 56.8 85.49 56.39 85.34 C 55.97 85.18 55.57 84.96 55.21 84.69 C 54.323013 84.041699 53.787306 83.018314 53.76 81.92 C 53.74 80.93 54.12 79.98 54.83 79.29 C 55.46 78.73 56.24 78.35 57.07 78.19 C 57.84 78.03 58.63 77.93 59.42 77.89 C 60.53 77.84 61.65 77.81 62.76 77.82 C 63.52 77.82 64.28 77.82 65.04 77.84 C 66.81 77.85 68.56 77.94 70.32 78.1 C 71.91 78.25 73.49 78.5 75.05 78.86 C 76.54 79.2 77.99 79.67 79.39 80.27 C 80.81 80.88 82.16 81.61 83.44 82.47 C 84.8 83.38 86.08 84.4 87.28 85.52 C 88.63 86.76 89.91 88.09 91.11 89.47 C 92.51 91.09 93.85 92.75 95.13 94.45 C 96.656948 96.46372 98.143906 98.507453 99.59 100.58 C 101.11 102.76 102.67 104.92 104.26 107.06 C 105.56 108.82 106.91 110.54 108.3 112.22 C 109.43 113.59 110.62 114.91 111.86 116.18 C 112.85 117.2 113.92 118.16 115.04 119.05 C 115.97 119.78 116.96 120.43 117.99 121 C 118.92 121.5 119.9 121.9 120.91 122.22 C 121.93 122.53 122.99 122.75 124.05 122.89 C 125.26 123.03 126.48 123.11 127.7 123.1 L 127.89 123.1 C 129.11 123.11 130.32 123.04 131.53 122.9 C 132.6 122.78 133.66 122.57 134.69 122.28 C 136.74 121.68 138.67 120.72 140.39 119.45 C 141.42 118.69 142.39 117.87 143.3 116.98 C 144.39 115.92 145.42 114.81 146.4 113.65 C 147.57 112.25 148.7 110.81 149.78 109.34 C 151.07 107.58 152.33 105.8 153.54 103.99 C 155.61 100.9 157.79 97.89 160.07 94.95 C 161.95 92.52 163.95 90.19 166.08 87.97 C 167.81 86.15 169.69 84.48 171.7 82.97 C 173.37 81.7 175.2 80.67 177.15 79.89 C 178.26 79.48 179.39 79.15 180.54 78.89 C 181.79 78.61 183.05 78.39 184.32 78.22 C 186.92 77.86 189.54 77.68 192.16 77.68 C 193.19 77.67 194.23 77.71 195.26 77.79 C 196.15 77.85 197.03 77.96 197.9 78.13 C 198.7 78.27 199.47 78.53 200.19 78.89 C 200.64 79.13 201.05 79.46 201.38 79.85 C 201.85 80.41 202.12 81.13 202.12 81.86 C 202.10784 83.009054 201.541784 84.081581 200.6 84.74 C 200.22 85 199.82 85.21 199.39 85.36 C 198.97 85.51 198.53 85.63 198.1 85.72 C 196.99 85.95 195.88 86.11 194.75 86.2 C 193.1 86.35 191.44 86.46 189.79 86.55 C 188.03 86.63 186.27 86.76 184.51 86.94 C 183.41 87.04 182.31 87.22 181.23 87.48 C 180.46 87.68 179.71 87.96 179 88.32 C 178.15 88.77 177.33 89.28 176.55 89.84 C 175.85 90.34 175.19 90.9 174.57 91.5 C 173.65 92.37 172.77 93.26 171.92 94.19 C 169.999025 96.268792 168.202561 98.459276 166.54 100.75 C 162.92 105.78 159.29 110.8 155.65 115.81 C 154.08904 117.92918 152.367289 119.925074 150.5 121.78 C 149.62 122.66 148.71 123.52 147.76 124.33 C 146.95 125.04 146.09 125.7 145.19 126.29 C 144.45 126.74 143.73 127.22 143.03 127.72 L 143.03 127.72 Z"/>
  <path fill="#fefefe" d="M 123.37 127.84 C 122.04 128.02 120.73 128.31 119.44 128.7 C 119.4 128.71 119.37 128.73 119.33 128.74 C 119.44 128.44 119.49 128.13 119.5 127.82 C 119.49 127.53 119.44 127.24 119.35 126.97 L 119.44 127 C 120.72 127.39 122.04 127.67 123.37 127.84 L 123.37 127.84 Z M 136.42 127.84 L 136.42 127.85 C 136.421469 128.151289 136.465229 128.450879 136.55 128.74 C 136.51 128.73 136.47 128.71 136.43 128.7 C 135.13 128.3 133.79 128.01 132.44 127.83 C 133.67 127.67 134.88 127.42 136.07 127.08 C 136.26 127.03 136.44 126.98 136.62 126.92 C 136.56 127.08 136.51 127.25 136.47 127.42 C 136.44 127.56 136.43 127.7 136.42 127.84 L 136.42 127.84 Z"/>
 </g>
 <defs>
  <filter id="tJXRi8UyWJb7UBCbh8RAbWkdDDFlsGzx" width="400%" height="400%" x="-200%" y="-200%" color-interpolation-filters="sRGB" filterUnits="objectBoundingBox">
   <feGaussianBlur xmlns="http://www.w3.org/2000/svg" in="SourceGraphic" stdDeviation="4.294"/>
   <feOffset xmlns="http://www.w3.org/2000/svg" dx="0" dy="4" result="pf_100_offsetBlur"/>
   <feFlood xmlns="http://www.w3.org/2000/svg" flood-opacity=".4"/>
   <feComposite xmlns="http://www.w3.org/2000/svg" in2="pf_100_offsetBlur" operator="in" result="pf_100_dropShadow"/>
   <feBlend xmlns="http://www.w3.org/2000/svg" in="SourceGraphic" in2="pf_100_dropShadow" mode="normal"/>
  </filter>
 </defs>
 <g opacity=".4">
  <linearGradient id="_lgradient_544" x1=".517" x2=".517" y1="0" y2="1" gradientTransform="matrix(244.65,0,0,228.34,5.68,11.95)" gradientUnits="userSpaceOnUse">
   <stop offset="0%" style="stop-color:#ffffff"/>
   <stop offset="12.5%" stop-opacity=".098" style="stop-color:#ffffff"/>
   <stop offset="92.5%" stop-opacity=".098" style="stop-color:#000000"/>
   <stop offset="100%" stop-opacity=".498" style="stop-color:#000000"/>
  </linearGradient>
  <path fill="url(#_lgradient_544)" fill-rule="evenodd" d="M 165.06803 11.951234 C 169.395994 11.941409 173.723944 11.990533 178.051908 12.088781 C 181.927398 12.167379 185.802873 12.31475 189.678362 12.540721 C 193.1309 12.737216 196.583423 13.022134 200.026115 13.395476 C 203.085193 13.729518 206.144271 14.181458 209.173842 14.741469 C 211.888645 15.242533 214.57394 15.881143 217.219897 16.6573 C 219.619947 17.354858 221.970814 18.219439 224.242988 19.241215 C 226.357793 20.184394 228.384061 21.304417 230.302129 22.591462 C 232.141505 23.829383 233.862851 25.244151 235.436659 26.80629 C 237.000621 28.378252 238.417046 30.087764 239.656409 31.924995 C 240.944972 33.840824 242.066305 35.864728 243.020409 37.967229 C 244.043389 40.246576 244.908985 42.584873 245.617197 44.972292 C 246.394255 47.615155 247.033606 50.297317 247.535265 53.008956 C 248.095924 56.034984 248.548399 59.080665 248.882828 62.13617 C 249.256611 65.574836 249.541856 69.013506 249.738578 72.462003 C 249.964823 76.323139 250.112361 80.194101 250.200884 84.055237 C 250.289421 88.378131 250.338591 92.701032 250.32876 97.014106 L 250.32876 155.225886 C 250.338591 159.54878 250.289421 163.861854 250.200884 168.184747 C 250.112361 172.05571 249.964823 175.916853 249.738578 179.777981 C 249.541856 183.226485 249.256611 186.674975 248.882828 190.103826 C 248.548399 193.15933 248.095924 196.214835 247.535265 199.240851 C 247.033606 201.942664 246.394255 204.624837 245.617197 207.267703 C 244.908985 209.655115 244.043389 212.003235 243.020409 214.272755 C 242.066305 216.38509 240.944972 218.399156 239.656409 220.314999 C 238.417046 222.152226 237.000621 223.871561 235.436659 225.433697 C 233.862851 226.995832 232.141505 228.410601 230.302129 229.648532 C 228.384061 230.935575 226.357793 232.055598 224.242988 232.998768 C 221.970814 234.020552 219.619947 234.885137 217.219897 235.592507 C 214.57394 236.368672 211.888645 237.007276 209.173842 237.498515 C 206.144271 238.068354 203.085193 238.510465 200.026115 238.844519 C 196.583423 239.21785 193.1309 239.502777 189.678362 239.699269 C 185.802873 239.925235 181.927398 240.072615 178.051908 240.161035 C 173.723944 240.249454 169.395994 240.298581 165.06803 240.288762 L 90.941963 240.288762 C 86.614006 240.298581 82.286049 240.249454 77.9581 240.161035 C 74.08261 240.072615 70.20712 239.925235 66.331638 239.699269 C 62.879108 239.502777 59.426578 239.21785 55.983886 238.844519 C 52.924808 238.510465 49.865733 238.068354 46.836162 237.498515 C 44.121356 237.007276 41.436057 236.368672 38.7901 235.592507 C 36.390053 234.885137 34.039187 234.020552 31.767009 232.998768 C 29.652213 232.055598 27.625943 230.935575 25.707871 229.648532 C 23.868489 228.410601 22.147143 226.995832 20.573343 225.433697 C 19.009377 223.871561 17.592955 222.152226 16.353586 220.314999 C 15.065036 218.399156 13.943701 216.38509 12.989584 214.272755 C 11.966612 212.003235 11.101021 209.655115 10.392811 207.267703 C 9.615746 204.624837 8.976389 201.942664 8.47474 199.240851 C 7.914072 196.214835 7.461604 193.15933 7.127172 190.103826 C 6.753394 186.674975 6.468142 183.226485 6.271417 179.777981 C 6.045183 175.916853 5.897639 172.05571 5.809112 168.184747 C 5.720586 163.861854 5.671405 159.54878 5.681241 155.225886 L 5.681241 97.014106 C 5.671405 92.701032 5.720586 88.378131 5.809112 84.055237 C 5.897639 80.194101 6.045183 76.323139 6.271417 72.462003 C 6.468142 69.013506 6.753394 65.574836 7.127172 62.13617 C 7.461604 59.080665 7.914072 56.034984 8.47474 53.008956 C 8.976389 50.297317 9.615746 47.615155 10.392811 44.972292 C 11.101021 42.584873 11.966612 40.246576 12.989584 37.967229 C 13.943701 35.864728 15.065036 33.840824 16.353586 31.924995 C 17.592955 30.087764 19.009377 28.378252 20.573343 26.80629 C 22.147143 25.244151 23.868489 23.829383 25.707871 22.591462 C 27.625943 21.304417 29.652213 20.184394 31.767009 19.241215 C 34.039187 18.219439 36.390053 17.354858 38.7901 16.6573 C 41.436057 15.881143 44.121356 15.242533 46.836162 14.741469 C 49.865733 14.181458 52.924808 13.729518 55.983886 13.395476 C 59.426578 13.022134 62.879108 12.737216 66.331638 12.540721 C 70.20712 12.31475 74.08261 12.167379 77.9581 12.088781 C 82.286049 11.990533 86.614006 11.941409 90.941963 11.951234 L 165.06803 11.951234 Z M 165.077876 15.959741 C 169.376317 15.949916 173.674759 15.99904 177.973216 16.087463 C 181.799522 16.175886 185.625827 16.323257 189.452133 16.539402 C 192.835809 16.735898 196.219486 17.010992 199.583486 17.384332 C 202.554026 17.698726 205.514751 18.131016 208.445953 18.681203 C 211.023049 19.152792 213.580483 19.761928 216.098564 20.498786 C 218.321569 21.147221 220.495374 21.952852 222.600334 22.896029 C 224.508571 23.750785 226.338116 24.762737 228.069293 25.922059 C 229.692286 27.012609 231.207063 28.260355 232.59398 29.645648 C 233.980897 31.030941 235.230091 32.543956 236.331763 34.165043 C 237.492434 35.894202 238.505568 37.711787 239.361333 39.607968 C 240.305606 41.720292 241.112187 43.891565 241.761369 46.102139 C 242.508934 48.617282 243.108947 51.161898 243.590914 53.735987 C 244.131912 56.663768 244.564709 59.6112 244.889308 62.578282 C 245.263091 65.938355 245.538505 69.308252 245.735227 72.687976 C 245.951626 76.509812 246.10901 80.321821 246.187687 84.143656 C 246.276225 88.437084 246.325394 92.720685 246.325394 97.014106 C 246.325394 97.014106 246.325394 97.014106 246.325394 97.014106 L 246.325394 155.225886 C 246.325394 155.225886 246.325394 155.225886 246.325394 155.225886 C 246.325394 159.519306 246.276225 163.802907 246.187687 168.096328 C 246.10901 171.918164 245.951626 175.739999 245.735227 179.552015 C 245.538505 182.931739 245.263091 186.301629 244.889308 189.671533 C 244.564709 192.628784 244.131912 195.576216 243.590914 198.503994 C 243.108947 201.078094 242.508934 203.622706 241.761369 206.137845 C 241.112187 208.358253 240.305606 210.5197 239.361333 212.63202 C 238.505568 214.528209 237.492434 216.355617 236.331763 218.074952 C 235.230091 219.705853 233.980897 221.218876 232.59398 222.604172 C 231.207063 223.979634 229.692286 225.227385 228.069293 226.317935 C 226.338116 227.477251 224.508571 228.489201 222.600334 229.343951 C 220.495374 230.296956 218.321569 231.092775 216.098564 231.741198 C 213.580483 232.478056 211.023049 233.087202 208.445953 233.558787 C 205.514751 234.108972 202.554026 234.541264 199.583486 234.865483 C 196.219486 235.228995 192.835809 235.513922 189.452133 235.70058 C 185.625827 235.916726 181.799522 236.073926 177.973216 236.152526 C 173.674759 236.25078 169.376317 236.290072 165.077876 236.290072 C 165.077876 236.290072 165.077876 236.290072 165.06803 236.290072 L 90.941963 236.290072 C 90.932125 236.290072 90.932125 236.290072 90.932125 236.290072 C 86.633683 236.290072 82.335234 236.25078 78.036784 236.152526 C 74.210479 236.073926 70.384173 235.916726 66.557868 235.70058 C 63.174195 235.513922 59.790522 235.228995 56.426518 234.865483 C 53.455967 234.541264 50.495253 234.108972 47.564048 233.558787 C 44.986944 233.087202 42.429517 232.478056 39.911433 231.741198 C 37.688439 231.092775 35.514626 230.296956 33.409665 229.343951 C 31.501429 228.489201 29.671886 227.477251 27.940703 226.317935 C 26.31772 225.227385 24.802935 223.979634 23.416022 222.604172 C 22.029109 221.218876 20.779904 219.705853 19.678243 218.074952 C 18.517564 216.355617 17.504428 214.528209 16.648674 212.63202 C 15.704392 210.5197 14.897819 208.358253 14.248626 206.137845 C 13.50107 203.622706 12.901057 201.078094 12.419081 198.503994 C 11.878086 195.576216 11.445291 192.628784 11.120694 189.671533 C 10.746916 186.301629 10.471501 182.931739 10.274776 179.552015 C 10.058378 175.739999 9.900997 171.918164 9.822307 168.096328 C 9.733781 163.802907 9.6846 159.519306 9.6846 155.225886 C 9.6846 155.225886 9.6846 155.225886 9.6846 155.225886 L 9.6846 97.014106 C 9.6846 97.014106 9.6846 97.014106 9.6846 97.014106 C 9.6846 92.720685 9.733781 88.437084 9.822307 84.143656 C 9.900997 80.321821 10.058378 76.509812 10.274776 72.687976 C 10.471501 69.308252 10.746916 65.938355 11.120694 62.578282 C 11.445291 59.6112 11.878086 56.663768 12.419081 53.735987 C 12.901057 51.161898 13.50107 48.617282 14.248626 46.102139 C 14.897819 43.891565 15.704392 41.720292 16.648674 39.607968 C 17.504428 37.711787 18.517564 35.894202 19.678243 34.165043 C 20.779904 32.543956 22.029109 31.030941 23.416022 29.645648 C 24.802935 28.260355 26.31772 27.012609 27.940703 25.922059 C 29.671886 24.762737 31.501429 23.750785 33.409665 22.896029 C 35.514626 21.952852 37.688439 21.147221 39.911433 20.498786 C 42.429517 19.761928 44.986944 19.152792 47.564048 18.681203 C 50.495253 18.131016 53.455967 17.698726 56.426518 17.384332 C 59.790522 17.010992 63.174195 16.735898 66.557868 16.539402 C 70.384173 16.323257 74.210479 16.175886 78.036784 16.087463 C 82.335234 15.99904 86.633683 15.949916 90.932125 15.959741 C 90.932125 15.959741 90.932125 15.959741 90.941963 15.959741 L 165.06803 15.959741 C 165.077876 15.959741 165.077876 15.959741 165.077876 15.959741 Z"/>
 </g>
</svg>
