<svg xmlns="http://www.w3.org/2000/svg" style="isolation:isolate" width="16" height="16" viewBox="0 0 16 16">
 <defs>
  <style id="current-color-scheme" type="text/css">
   .ColorScheme-Text { color:#eff0f2; } .ColorScheme-Highlight { color:#5294e2; }
  </style>
  <linearGradient id="arrongin" x1="0%" x2="0%" y1="0%" y2="100%">
   <stop offset="0%" style="stop-color:#dd9b44; stop-opacity:1"/>
   <stop offset="100%" style="stop-color:#ad6c16; stop-opacity:1"/>
  </linearGradient>
  <linearGradient id="aurora" x1="0%" x2="0%" y1="0%" y2="100%">
   <stop offset="0%" style="stop-color:#09D4DF; stop-opacity:1"/>
   <stop offset="100%" style="stop-color:#9269F4; stop-opacity:1"/>
  </linearGradient>
  <linearGradient id="fitdance" x1="0%" x2="0%" y1="0%" y2="100%">
   <stop offset="0%" style="stop-color:#1AD6AB; stop-opacity:1"/>
   <stop offset="100%" style="stop-color:#329DB6; stop-opacity:1"/>
  </linearGradient>
  <linearGradient id="oomox" x1="0%" x2="0%" y1="0%" y2="100%">
   <stop offset="0%" style="stop-color:#928374; stop-opacity:1"/>
   <stop offset="100%" style="stop-color:#928374; stop-opacity:1"/>
  </linearGradient>
  <linearGradient id="rainblue" x1="0%" x2="0%" y1="0%" y2="100%">
   <stop offset="0%" style="stop-color:#00F260; stop-opacity:1"/>
   <stop offset="100%" style="stop-color:#0575E6; stop-opacity:1"/>
  </linearGradient>
  <linearGradient id="sunrise" x1="0%" x2="0%" y1="0%" y2="100%">
   <stop offset="0%" style="stop-color: #FF8501; stop-opacity:1"/>
   <stop offset="100%" style="stop-color: #FFCB01; stop-opacity:1"/>
  </linearGradient>
  <linearGradient id="telinkrin" x1="0%" x2="0%" y1="0%" y2="100%">
   <stop offset="0%" style="stop-color: #b2ced6; stop-opacity:1"/>
   <stop offset="100%" style="stop-color: #6da5b7; stop-opacity:1"/>
  </linearGradient>
  <linearGradient id="60spsycho" x1="0%" x2="0%" y1="0%" y2="100%">
   <stop offset="0%" style="stop-color: #df5940; stop-opacity:1"/>
   <stop offset="25%" style="stop-color: #d8d15f; stop-opacity:1"/>
   <stop offset="50%" style="stop-color: #e9882a; stop-opacity:1"/>
   <stop offset="100%" style="stop-color: #279362; stop-opacity:1"/>
  </linearGradient>
  <linearGradient id="90ssummer" x1="0%" x2="0%" y1="0%" y2="100%">
   <stop offset="0%" style="stop-color: #f618c7; stop-opacity:1"/>
   <stop offset="20%" style="stop-color: #94ffab; stop-opacity:1"/>
   <stop offset="50%" style="stop-color: #fbfd54; stop-opacity:1"/>
   <stop offset="100%" style="stop-color: #0f83ae; stop-opacity:1"/>
  </linearGradient>
  <clipPath id="_clipPath_EkjP0Oh8c2QCAYfhPrPQmXxe0nNpg9dN">
   <rect width="16" height="16"/>
  </clipPath>
 </defs>
 <g clip-path="url(#_clipPath_EkjP0Oh8c2QCAYfhPrPQmXxe0nNpg9dN)">
  <rect style="fill:url(#oomox)" class="ColorScheme-Text" width="4.625" height="3.594" x="16.38" y="0" transform="matrix(1,0,0,1,0,0)"/>
  <path style="fill:url(#oomox)" class="ColorScheme-Text" fill-rule="evenodd" d="M 6.423 5.307 C 5.74 5.402 5.649 7.886 5.151 8.366 C 4.653 8.845 2.207 8.824 2.085 9.508 C 1.963 10.189 4.26 11.049 4.563 11.677 C 4.864 12.302 4.089 14.636 4.697 14.963 C 5.307 15.291 6.832 13.347 7.515 13.253 C 8.199 13.158 10.176 14.622 10.672 14.142 C 11.173 13.662 9.801 11.608 9.923 10.924 C 10.045 10.239 12.041 8.81 11.74 8.188 C 11.439 7.563 9.078 8.241 8.47 7.912 C 7.86 7.584 7.109 5.215 6.423 5.313 M 12.319 1.011 C 11.968 1.108 11.379 1.884 11.08 1.941 C 10.737 2.006 9.715 1.331 9.477 1.581 C 9.241 1.834 9.99 2.822 9.948 3.165 C 9.904 3.505 8.926 4.277 9.094 4.578 C 9.263 4.877 10.445 4.475 10.758 4.62 C 11.074 4.765 11.507 5.907 11.847 5.842 C 12.188 5.777 12.165 4.555 12.402 4.303 C 12.64 4.052 13.877 3.992 13.919 3.649 C 13.961 3.308 12.785 2.959 12.615 2.658 C 12.446 2.357 12.76 1.156 12.444 1.011 C 12.407 0.994 12.366 0.999 12.316 1.011"/>
 </g>
</svg>
