<svg xmlns="http://www.w3.org/2000/svg" width="16" height="16" version="1.1">
 <defs>
  <style id="current-color-scheme" type="text/css">
   .ColorScheme-Text { color:#eff0f2; } .ColorScheme-Highlight { color:#5294e2; }
  </style>
  <linearGradient id="arrongin" x1="0%" x2="0%" y1="0%" y2="100%">
   <stop offset="0%" style="stop-color:#dd9b44; stop-opacity:1"/>
   <stop offset="100%" style="stop-color:#ad6c16; stop-opacity:1"/>
  </linearGradient>
  <linearGradient id="aurora" x1="0%" x2="0%" y1="0%" y2="100%">
   <stop offset="0%" style="stop-color:#09D4DF; stop-opacity:1"/>
   <stop offset="100%" style="stop-color:#9269F4; stop-opacity:1"/>
  </linearGradient>
  <linearGradient id="fitdance" x1="0%" x2="0%" y1="0%" y2="100%">
   <stop offset="0%" style="stop-color:#1AD6AB; stop-opacity:1"/>
   <stop offset="100%" style="stop-color:#329DB6; stop-opacity:1"/>
  </linearGradient>
  <linearGradient id="oomox" x1="0%" x2="0%" y1="0%" y2="100%">
   <stop offset="0%" style="stop-color:#928374; stop-opacity:1"/>
   <stop offset="100%" style="stop-color:#928374; stop-opacity:1"/>
  </linearGradient>
  <linearGradient id="rainblue" x1="0%" x2="0%" y1="0%" y2="100%">
   <stop offset="0%" style="stop-color:#00F260; stop-opacity:1"/>
   <stop offset="100%" style="stop-color:#0575E6; stop-opacity:1"/>
  </linearGradient>
  <linearGradient id="sunrise" x1="0%" x2="0%" y1="0%" y2="100%">
   <stop offset="0%" style="stop-color: #FF8501; stop-opacity:1"/>
   <stop offset="100%" style="stop-color: #FFCB01; stop-opacity:1"/>
  </linearGradient>
  <linearGradient id="telinkrin" x1="0%" x2="0%" y1="0%" y2="100%">
   <stop offset="0%" style="stop-color: #b2ced6; stop-opacity:1"/>
   <stop offset="100%" style="stop-color: #6da5b7; stop-opacity:1"/>
  </linearGradient>
  <linearGradient id="60spsycho" x1="0%" x2="0%" y1="0%" y2="100%">
   <stop offset="0%" style="stop-color: #df5940; stop-opacity:1"/>
   <stop offset="25%" style="stop-color: #d8d15f; stop-opacity:1"/>
   <stop offset="50%" style="stop-color: #e9882a; stop-opacity:1"/>
   <stop offset="100%" style="stop-color: #279362; stop-opacity:1"/>
  </linearGradient>
  <linearGradient id="90ssummer" x1="0%" x2="0%" y1="0%" y2="100%">
   <stop offset="0%" style="stop-color: #f618c7; stop-opacity:1"/>
   <stop offset="20%" style="stop-color: #94ffab; stop-opacity:1"/>
   <stop offset="50%" style="stop-color: #fbfd54; stop-opacity:1"/>
   <stop offset="100%" style="stop-color: #0f83ae; stop-opacity:1"/>
  </linearGradient>
  <style id="current-color-scheme" type="text/css">
   .ColorScheme-Text { color:#eff0f2; } .ColorScheme-Highlight { color:#eff0f2; } .ColorScheme-ButtonBackground { color:#eff0f2; }
  </style>
 </defs>
 <g style="fill:url(#oomox)" class="ColorScheme-Text" transform="matrix(0.33595793,0,0,0.33595793,-0.19848674,-78.37577)">
  <rect style="fill:url(#oomox)" class="ColorScheme-Text" width="3.702" height="7.404" x="2.48" y="269.05" rx="1.481" ry="1.481"/>
  <rect style="fill:url(#oomox)" class="ColorScheme-Text" width="3.702" height="16.196" x="15.8" y="260.25" rx="1.481" ry="1.481"/>
  <rect style="fill:url(#oomox)" class="ColorScheme-Text" width="3.702" height="11.106" x="9.14" y="265.35" rx="1.481" ry="1.481"/>
  <rect style="fill:url(#oomox)" class="ColorScheme-Text" width="3.702" height="11.476" x="22.47" y="264.97" rx="1.481" ry="1.481"/>
  <rect style="fill:url(#oomox)" class="ColorScheme-Text" width="3.702" height="12.587" x="29.13" y="263.86" rx="1.481" ry="1.481"/>
  <rect style="fill:url(#oomox)" class="ColorScheme-Text" width="3.702" height="18.51" x="35.61" y="257.94" rx="1.481" ry="1.481"/>
  <rect style="fill:url(#oomox)" class="ColorScheme-Text" width="3.702" height="24.988" x="42.27" y="251.46" rx="1.481" ry="1.481"/>
  <path style="solid-color:#eff0f2;fill:url(#oomox)" class="ColorScheme-Text" d="m 46.11941,237.83787 a 2.0363025,2.0363025 0 0 0 -1.400546,0.61624 l -17.995319,17.99531 -7.815734,-7.81573 a 2.0363025,2.0363025 0 0 0 -2.878978,0 l -14.8075364,14.8089 a 2.0363025,2.0363025 0 1 0 2.8789779,2.87898 l 13.3673635,-13.36736 7.815736,7.81436 a 2.0363025,2.0363025 0 0 0 2.880342,0 l 19.435492,-19.43549 a 2.0363025,2.0363025 0 0 0 -1.479798,-3.49521 z"/>
 </g>
</svg>
