<svg xmlns="http://www.w3.org/2000/svg" style="isolation:isolate" width="16" height="16" viewBox="0 0 16 16">
 <defs>
  <style id="current-color-scheme" type="text/css">
   .ColorScheme-Text { color:#eff0f2; } .ColorScheme-Highlight { color:#5294e2; }
  </style>
  <linearGradient id="arrongin" x1="0%" x2="0%" y1="0%" y2="100%">
   <stop offset="0%" style="stop-color:#dd9b44; stop-opacity:1"/>
   <stop offset="100%" style="stop-color:#ad6c16; stop-opacity:1"/>
  </linearGradient>
  <linearGradient id="aurora" x1="0%" x2="0%" y1="0%" y2="100%">
   <stop offset="0%" style="stop-color:#09D4DF; stop-opacity:1"/>
   <stop offset="100%" style="stop-color:#9269F4; stop-opacity:1"/>
  </linearGradient>
  <linearGradient id="fitdance" x1="0%" x2="0%" y1="0%" y2="100%">
   <stop offset="0%" style="stop-color:#1AD6AB; stop-opacity:1"/>
   <stop offset="100%" style="stop-color:#329DB6; stop-opacity:1"/>
  </linearGradient>
  <linearGradient id="oomox" x1="0%" x2="0%" y1="0%" y2="100%">
   <stop offset="0%" style="stop-color:#928374; stop-opacity:1"/>
   <stop offset="100%" style="stop-color:#928374; stop-opacity:1"/>
  </linearGradient>
  <linearGradient id="rainblue" x1="0%" x2="0%" y1="0%" y2="100%">
   <stop offset="0%" style="stop-color:#00F260; stop-opacity:1"/>
   <stop offset="100%" style="stop-color:#0575E6; stop-opacity:1"/>
  </linearGradient>
  <linearGradient id="sunrise" x1="0%" x2="0%" y1="0%" y2="100%">
   <stop offset="0%" style="stop-color: #FF8501; stop-opacity:1"/>
   <stop offset="100%" style="stop-color: #FFCB01; stop-opacity:1"/>
  </linearGradient>
  <linearGradient id="telinkrin" x1="0%" x2="0%" y1="0%" y2="100%">
   <stop offset="0%" style="stop-color: #b2ced6; stop-opacity:1"/>
   <stop offset="100%" style="stop-color: #6da5b7; stop-opacity:1"/>
  </linearGradient>
  <linearGradient id="60spsycho" x1="0%" x2="0%" y1="0%" y2="100%">
   <stop offset="0%" style="stop-color: #df5940; stop-opacity:1"/>
   <stop offset="25%" style="stop-color: #d8d15f; stop-opacity:1"/>
   <stop offset="50%" style="stop-color: #e9882a; stop-opacity:1"/>
   <stop offset="100%" style="stop-color: #279362; stop-opacity:1"/>
  </linearGradient>
  <linearGradient id="90ssummer" x1="0%" x2="0%" y1="0%" y2="100%">
   <stop offset="0%" style="stop-color: #f618c7; stop-opacity:1"/>
   <stop offset="20%" style="stop-color: #94ffab; stop-opacity:1"/>
   <stop offset="50%" style="stop-color: #fbfd54; stop-opacity:1"/>
   <stop offset="100%" style="stop-color: #0f83ae; stop-opacity:1"/>
  </linearGradient>
  <clipPath id="_clipPath_yLOtitHqWUvUy0POS86k1KavCAP2J9f0">
   <rect width="16" height="16"/>
  </clipPath>
 </defs>
 <g clip-path="url(#_clipPath_yLOtitHqWUvUy0POS86k1KavCAP2J9f0)">
  <g>
   <path style="fill:url(#oomox)" class="ColorScheme-Text" fill-opacity=".4" d="M 2.188 2.167 L 13.81 2.167 C 13.822 2.167 13.832 2.177 13.832 2.189 L 13.832 12.062 C 13.832 12.074 13.822 12.084 13.81 12.084 L 13.82 13.327 L 12.65 13.804 L 12.65 14.343 L 3.35 14.251 L 3.304 13.142 L 2.149 13.142 L 2.188 12.084 C 2.176 12.084 2.166 12.074 2.166 12.062 L 2.166 2.189 C 2.166 2.177 2.176 2.167 2.188 2.167 Z"/>
   <path style="fill:url(#oomox)" class="ColorScheme-Text" d="M 3.333 13.833 L 2.167 13.833 L 2.167 12.667 L 1 12.667 L 1 3.333 L 2.167 3.333 L 2.167 2.167 L 3.333 2.167 L 3.333 1 L 12.667 1 L 12.667 2.167 L 13.833 2.167 L 13.833 3.333 L 15 3.333 L 15 12.667 L 13.833 12.667 L 13.833 13.833 L 12.667 13.833 L 12.667 15 L 3.333 15 L 3.333 13.833 Z M 12.667 12.667 L 13.833 12.667 L 13.833 3.333 L 12.667 3.333 L 12.667 2.167 L 3.333 2.167 L 3.333 3.333 L 2.167 3.333 L 2.167 12.667 L 3.333 12.667 L 3.333 13.833 L 12.667 13.833 L 12.667 12.667 Z M 5.083 4.5 L 6.25 4.5 L 6.25 8.583 L 5.083 8.583 L 5.083 4.5 Z M 9.75 4.5 L 10.917 4.5 L 10.917 8.583 L 9.75 8.583 L 9.75 4.5 Z"/>
  </g>
  <rect style="fill:url(#oomox)" class="ColorScheme-Text" width="4.625" height="3.594" x="17.09" y="-.09" transform="matrix(1,0,0,1,0,0)"/>
 </g>
</svg>
