<svg xmlns="http://www.w3.org/2000/svg" style="isolation:isolate" width="16" height="16" viewBox="0 0 16 16">
 <defs>
  <style id="current-color-scheme" type="text/css">
   .ColorScheme-Text { color:#eff0f2; } .ColorScheme-Highlight { color:#5294e2; }
  </style>
  <linearGradient id="arrongin" x1="0%" x2="0%" y1="0%" y2="100%">
   <stop offset="0%" style="stop-color:#dd9b44; stop-opacity:1"/>
   <stop offset="100%" style="stop-color:#ad6c16; stop-opacity:1"/>
  </linearGradient>
  <linearGradient id="aurora" x1="0%" x2="0%" y1="0%" y2="100%">
   <stop offset="0%" style="stop-color:#09D4DF; stop-opacity:1"/>
   <stop offset="100%" style="stop-color:#9269F4; stop-opacity:1"/>
  </linearGradient>
  <linearGradient id="fitdance" x1="0%" x2="0%" y1="0%" y2="100%">
   <stop offset="0%" style="stop-color:#1AD6AB; stop-opacity:1"/>
   <stop offset="100%" style="stop-color:#329DB6; stop-opacity:1"/>
  </linearGradient>
  <linearGradient id="oomox" x1="0%" x2="0%" y1="0%" y2="100%">
   <stop offset="0%" style="stop-color:#928374; stop-opacity:1"/>
   <stop offset="100%" style="stop-color:#928374; stop-opacity:1"/>
  </linearGradient>
  <linearGradient id="rainblue" x1="0%" x2="0%" y1="0%" y2="100%">
   <stop offset="0%" style="stop-color:#00F260; stop-opacity:1"/>
   <stop offset="100%" style="stop-color:#0575E6; stop-opacity:1"/>
  </linearGradient>
  <linearGradient id="sunrise" x1="0%" x2="0%" y1="0%" y2="100%">
   <stop offset="0%" style="stop-color: #FF8501; stop-opacity:1"/>
   <stop offset="100%" style="stop-color: #FFCB01; stop-opacity:1"/>
  </linearGradient>
  <linearGradient id="telinkrin" x1="0%" x2="0%" y1="0%" y2="100%">
   <stop offset="0%" style="stop-color: #b2ced6; stop-opacity:1"/>
   <stop offset="100%" style="stop-color: #6da5b7; stop-opacity:1"/>
  </linearGradient>
  <linearGradient id="60spsycho" x1="0%" x2="0%" y1="0%" y2="100%">
   <stop offset="0%" style="stop-color: #df5940; stop-opacity:1"/>
   <stop offset="25%" style="stop-color: #d8d15f; stop-opacity:1"/>
   <stop offset="50%" style="stop-color: #e9882a; stop-opacity:1"/>
   <stop offset="100%" style="stop-color: #279362; stop-opacity:1"/>
  </linearGradient>
  <linearGradient id="90ssummer" x1="0%" x2="0%" y1="0%" y2="100%">
   <stop offset="0%" style="stop-color: #f618c7; stop-opacity:1"/>
   <stop offset="20%" style="stop-color: #94ffab; stop-opacity:1"/>
   <stop offset="50%" style="stop-color: #fbfd54; stop-opacity:1"/>
   <stop offset="100%" style="stop-color: #0f83ae; stop-opacity:1"/>
  </linearGradient>
  <clipPath id="_clipPath_ro08920C0AL2b4uwF9cfOwFBM0VjPUU7">
   <rect width="16" height="16"/>
  </clipPath>
 </defs>
 <g clip-path="url(#_clipPath_ro08920C0AL2b4uwF9cfOwFBM0VjPUU7)">
  <rect style="fill:url(#oomox)" class="ColorScheme-Text" fill-opacity="0" width="16" height="16"/>
  <path style="fill:url(#oomox)" class="ColorScheme-Text" d="M 2.8 0 L 2.8 15.994 L 5.6 16 L 5.6 10.275 C 5.78 10.411 6.064 10.694 6.258 10.8 L 10.462 10.8 C 12.13 9.888 13.198 7.747 13.2 5.577 C 13.2 2.497 11.085 0 8.476 0 C 7.573 0.002 6.36 0.31 5.6 0.887 L 5.6 0 L 2.8 0 Z M 5.49 1.598 C 5.79 1.606 6.063 1.777 6.383 2.028 C 6.93 2.46 7.612 3.036 8.21 3.638 C 8.565 3.581 9.021 3.565 9.637 3.599 C 10.296 3.054 10.884 3.186 11.448 3.536 C 11.624 4.244 11.352 4.442 11.383 4.672 L 11.465 5.273 C 11.035 5.478 10.652 5.207 10.269 4.95 L 10.285 4.986 L 10.048 6.038 C 9.989 7.069 10.148 7.846 10.61 8.703 L 10.231 8.877 C 9.976 8.232 9.658 7.618 9.623 6.864 C 9.071 7.492 9.495 8.331 9.71 9.124 L 9.17 9.484 C 8.856 9.112 8.753 7.941 8.667 6.709 C 8.481 7.125 8.3 7.543 8.001 7.902 C 8.131 8.48 8.131 9.058 7.799 9.636 L 7.285 9.982 L 7.097 7.798 C 6.921 8.284 6.799 9.249 6.569 9.245 C 6.334 8.032 7.026 7.147 7.646 6.237 L 7.496 6.309 L 6.427 7.266 C 5.591 7.705 2.17 9.487 5.29 5.202 C 5.597 4.781 6.052 5.256 6.604 4.709 C 6.645 4.663 6.681 4.622 6.72 4.578 C 5.834 4.273 4.501 3.724 4.399 3.04 C 4.399 3.04 4.368 2.287 4.587 2.019 C 4.941 1.712 5.225 1.591 5.49 1.598 Z"/>
 </g>
</svg>
