<svg xmlns="http://www.w3.org/2000/svg" width="16" height="16" version="1.1">
<defs>
  <style id="current-color-scheme" type="text/css">
   .ColorScheme-Text { color:#eff0f2; } .ColorScheme-Highlight { color:#5294e2; }
  </style>
  <linearGradient id="arrongin" x1="0%" x2="0%" y1="0%" y2="100%">
   <stop offset="0%" style="stop-color:#dd9b44; stop-opacity:1"/>
   <stop offset="100%" style="stop-color:#ad6c16; stop-opacity:1"/>
  </linearGradient>
  <linearGradient id="aurora" x1="0%" x2="0%" y1="0%" y2="100%">
   <stop offset="0%" style="stop-color:#09D4DF; stop-opacity:1"/>
   <stop offset="100%" style="stop-color:#9269F4; stop-opacity:1"/>
  </linearGradient>
  <linearGradient id="fitdance" x1="0%" x2="0%" y1="0%" y2="100%">
   <stop offset="0%" style="stop-color:#1AD6AB; stop-opacity:1"/>
   <stop offset="100%" style="stop-color:#329DB6; stop-opacity:1"/>
  </linearGradient>
  <linearGradient id="oomox" x1="0%" x2="0%" y1="0%" y2="100%">
   <stop offset="0%" style="stop-color:#928374; stop-opacity:1"/>
   <stop offset="100%" style="stop-color:#928374; stop-opacity:1"/>
  </linearGradient>
  <linearGradient id="rainblue" x1="0%" x2="0%" y1="0%" y2="100%">
   <stop offset="0%" style="stop-color:#00F260; stop-opacity:1"/>
   <stop offset="100%" style="stop-color:#0575E6; stop-opacity:1"/>
  </linearGradient>
  <linearGradient id="sunrise" x1="0%" x2="0%" y1="0%" y2="100%">
   <stop offset="0%" style="stop-color: #FF8501; stop-opacity:1"/>
   <stop offset="100%" style="stop-color: #FFCB01; stop-opacity:1"/>
  </linearGradient>
  <linearGradient id="telinkrin" x1="0%" x2="0%" y1="0%" y2="100%">
   <stop offset="0%" style="stop-color: #b2ced6; stop-opacity:1"/>
   <stop offset="100%" style="stop-color: #6da5b7; stop-opacity:1"/>
  </linearGradient>
  <linearGradient id="60spsycho" x1="0%" x2="0%" y1="0%" y2="100%">
   <stop offset="0%" style="stop-color: #df5940; stop-opacity:1"/>
   <stop offset="25%" style="stop-color: #d8d15f; stop-opacity:1"/>
   <stop offset="50%" style="stop-color: #e9882a; stop-opacity:1"/>
   <stop offset="100%" style="stop-color: #279362; stop-opacity:1"/>
  </linearGradient>
  <linearGradient id="90ssummer" x1="0%" x2="0%" y1="0%" y2="100%">
   <stop offset="0%" style="stop-color: #f618c7; stop-opacity:1"/>
   <stop offset="20%" style="stop-color: #94ffab; stop-opacity:1"/>
   <stop offset="50%" style="stop-color: #fbfd54; stop-opacity:1"/>
   <stop offset="100%" style="stop-color: #0f83ae; stop-opacity:1"/>
  </linearGradient>
 </defs>
 <g transform="translate(0,-32)">
  <g transform="translate(1.2397766e-5,0.49999956)">
   <path d="m 3.5857105,33.785647 v 1.378575 h 5.4857368 c 2.2994077,0 4.1071627,1.80777 4.1071627,4.107182 0,2.299413 -1.807755,4.107142 -4.1071627,4.107142 H 3.5857105 v 1.378575 h 5.4857368 c 3.0390977,0 5.4857367,-2.446643 5.4857367,-5.485717 0,-3.039114 -2.446639,-5.485757 -5.4857367,-5.485757 z" style="fill:url(#oomox)" class="ColorScheme-Text"/>
   <rect width=".457" height="13.257" x="4.5" y="32.41" style="fill:url(#oomox)" class="ColorScheme-Text"/>
   <rect width="9.143" height=".457" x="-10.44" y="39.27" transform="scale(-1,1)" style="fill:url(#oomox)" class="ColorScheme-Text"/>
   <path d="m 12.271463,39.49995 -1.828581,0.914307 v -1.828572 z" style="fill:url(#oomox)" class="ColorScheme-Text"/>
   <path d="M 4.7285708,47.5 3.8142845,45.671427 h 1.8285766 z" style="fill:url(#oomox)" class="ColorScheme-Text"/>
   <rect width="1.371" height="1.371" x="4.04" y="31.5" style="fill:url(#oomox)" class="ColorScheme-Text"/>
   <rect width=".914" height=".914" x="4.27" y="31.73" style="fill:url(#oomox)" class="ColorScheme-Text"/>
   <path d="M 7.700012,36.985658 9.9857375,41.55711 H 5.4142865 Z" style="fill:url(#oomox)" class="ColorScheme-Text"/>
  </g>
 </g>
</svg>
