<svg xmlns="http://www.w3.org/2000/svg" style="isolation:isolate" width="16" height="16" viewBox="0 0 16 16">
 <defs>
  <style id="current-color-scheme" type="text/css">
   .ColorScheme-Text { color:#eff0f2; } .ColorScheme-Highlight { color:#5294e2; }
  </style>
  <linearGradient id="arrongin" x1="0%" x2="0%" y1="0%" y2="100%">
   <stop offset="0%" style="stop-color:#dd9b44; stop-opacity:1"/>
   <stop offset="100%" style="stop-color:#ad6c16; stop-opacity:1"/>
  </linearGradient>
  <linearGradient id="aurora" x1="0%" x2="0%" y1="0%" y2="100%">
   <stop offset="0%" style="stop-color:#09D4DF; stop-opacity:1"/>
   <stop offset="100%" style="stop-color:#9269F4; stop-opacity:1"/>
  </linearGradient>
  <linearGradient id="fitdance" x1="0%" x2="0%" y1="0%" y2="100%">
   <stop offset="0%" style="stop-color:#1AD6AB; stop-opacity:1"/>
   <stop offset="100%" style="stop-color:#329DB6; stop-opacity:1"/>
  </linearGradient>
  <linearGradient id="oomox" x1="0%" x2="0%" y1="0%" y2="100%">
   <stop offset="0%" style="stop-color:#928374; stop-opacity:1"/>
   <stop offset="100%" style="stop-color:#928374; stop-opacity:1"/>
  </linearGradient>
  <linearGradient id="rainblue" x1="0%" x2="0%" y1="0%" y2="100%">
   <stop offset="0%" style="stop-color:#00F260; stop-opacity:1"/>
   <stop offset="100%" style="stop-color:#0575E6; stop-opacity:1"/>
  </linearGradient>
  <linearGradient id="sunrise" x1="0%" x2="0%" y1="0%" y2="100%">
   <stop offset="0%" style="stop-color: #FF8501; stop-opacity:1"/>
   <stop offset="100%" style="stop-color: #FFCB01; stop-opacity:1"/>
  </linearGradient>
  <linearGradient id="telinkrin" x1="0%" x2="0%" y1="0%" y2="100%">
   <stop offset="0%" style="stop-color: #b2ced6; stop-opacity:1"/>
   <stop offset="100%" style="stop-color: #6da5b7; stop-opacity:1"/>
  </linearGradient>
  <linearGradient id="60spsycho" x1="0%" x2="0%" y1="0%" y2="100%">
   <stop offset="0%" style="stop-color: #df5940; stop-opacity:1"/>
   <stop offset="25%" style="stop-color: #d8d15f; stop-opacity:1"/>
   <stop offset="50%" style="stop-color: #e9882a; stop-opacity:1"/>
   <stop offset="100%" style="stop-color: #279362; stop-opacity:1"/>
  </linearGradient>
  <linearGradient id="90ssummer" x1="0%" x2="0%" y1="0%" y2="100%">
   <stop offset="0%" style="stop-color: #f618c7; stop-opacity:1"/>
   <stop offset="20%" style="stop-color: #94ffab; stop-opacity:1"/>
   <stop offset="50%" style="stop-color: #fbfd54; stop-opacity:1"/>
   <stop offset="100%" style="stop-color: #0f83ae; stop-opacity:1"/>
  </linearGradient>
 </defs>
 <path style="fill:url(#oomox)" class="ColorScheme-Text" fill-rule="evenodd" d="M 13.997 10.016 L 13.953 10.269 L 13.953 10.695 L 14.083 11.772 L 14.305 12.068 L 14.398 12.31 L 14.268 12.291 L 14.268 12.347 L 14.046 12.31 L 14.046 12.402 L 13.879 12.365 L 13.786 12.328 L 13.786 12.477 L 13.637 12.421 C 13.637 12.421 13.252 12.338 13.192 12.18 C 13.148 12.063 13.321 11.952 13.322 11.827 C 13.322 11.735 13.245 11.658 13.229 11.567 C 13.203 11.415 13.248 11.257 13.229 11.104 C 13.217 11.002 13.155 10.807 13.155 10.807 L 12.951 10.677 C 12.951 10.677 12.689 10.653 12.561 10.677 C 12.444 10.699 12.345 10.785 12.227 10.807 C 12.16 10.819 12.091 10.807 12.023 10.807 C 11.949 10.807 11.874 10.796 11.801 10.807 C 11.717 10.819 11.643 10.874 11.559 10.881 C 11.472 10.888 11.3 10.844 11.3 10.844 C 11.3 10.844 11.138 10.973 11.114 11.066 C 11.083 11.189 11.167 11.313 11.188 11.438 C 11.226 11.665 11.281 12.124 11.281 12.124 L 11.726 12.458 L 11.726 12.625 L 11.615 12.588 L 11.522 12.588 L 11.522 12.718 L 11.355 12.644 L 11.318 12.699 L 11.318 12.811 L 11.151 12.736 L 11.095 12.736 L 11.077 12.885 L 10.873 12.792 C 10.873 12.792 10.651 12.763 10.595 12.681 C 10.549 12.614 10.595 12.439 10.595 12.439 C 10.595 12.439 10.275 12.516 10.112 12.514 C 9.942 12.511 9.611 12.421 9.611 12.421 C 9.611 12.421 9.575 12.186 9.555 12.068 C 9.538 11.963 9.535 11.854 9.5 11.753 C 9.457 11.633 9.342 11.543 9.314 11.419 C 9.292 11.322 9.333 11.122 9.333 11.122 L 9.221 10.862 L 8.832 10.825 L 7.978 10.658 L 7.886 10.788 L 7.867 11.066 C 7.867 11.066 7.813 11.467 7.756 11.66 C 7.723 11.769 7.641 11.863 7.626 11.976 C 7.619 12.025 7.644 12.124 7.644 12.124 L 7.83 12.254 L 8.053 12.402 L 8.053 12.551 L 8.034 12.551 L 7.96 12.495 L 7.923 12.662 L 7.774 12.569 L 7.719 12.551 L 7.737 12.699 L 7.589 12.699 L 7.496 12.644 L 7.422 12.681 L 7.459 12.792 L 7.31 12.736 L 7.199 12.718 L 6.939 12.644 L 6.698 12.477 L 6.698 12.347 L 6.847 11.901 C 6.865 11.846 6.906 11.793 6.902 11.734 C 6.896 11.652 6.806 11.593 6.791 11.512 C 6.77 11.396 6.828 11.159 6.828 11.159 L 6.847 10.862 L 6.327 10.937 L 5.9 11.252 L 5.455 11.605 C 5.455 11.605 4.869 12 4.564 12.18 C 4.395 12.279 4.228 12.386 4.045 12.458 C 3.711 12.59 3.361 12.69 3.006 12.736 C 2.822 12.761 2.634 12.754 2.449 12.736 C 2.123 12.705 1.806 12.614 1.484 12.551 C 1.113 12.478 0.714 12.488 0.371 12.328 C 0.228 12.261 0 12.031 0 12.031 L 0.037 11.957 C 0.037 11.957 0.235 11.951 0.334 11.957 C 0.434 11.963 0.532 11.982 0.631 11.994 C 0.742 12.007 0.853 12.023 0.965 12.031 C 1.273 12.055 1.586 12.112 1.893 12.068 C 2.086 12.041 2.274 11.97 2.449 11.883 C 2.664 11.776 2.861 11.631 3.043 11.475 C 3.249 11.298 3.435 11.097 3.6 10.881 C 3.758 10.673 3.886 10.444 4.008 10.213 C 4.191 9.865 4.49 9.137 4.49 9.137 C 4.49 9.137 4.654 8.81 4.75 8.654 C 4.942 8.345 5.149 8.045 5.381 7.764 C 5.62 7.473 5.877 7.195 6.16 6.947 C 6.413 6.726 6.699 6.544 6.976 6.354 C 7.183 6.212 7.372 6.031 7.607 5.946 C 7.912 5.835 8.242 5.794 8.569 5.792 L 8.569 5.792 L 8.569 5.792 C 8.645 5.792 8.72 5.794 8.795 5.797 C 9.2 5.815 9.601 5.919 9.982 6.057 C 10.284 6.166 10.558 6.341 10.836 6.502 C 11.192 6.709 11.536 6.937 11.875 7.17 C 12.115 7.336 12.348 7.512 12.58 7.69 C 12.705 7.786 12.801 7.934 12.951 7.986 C 13.03 8.014 13.181 8 13.249 7.991 L 13.248 7.986 C 13.248 7.986 13.809 7.954 14.046 7.819 C 14.316 7.666 14.515 7.399 14.676 7.133 C 14.789 6.947 14.845 6.731 14.899 6.521 C 14.929 6.405 14.941 6.286 14.955 6.168 C 14.973 6.014 15.004 5.859 14.992 5.704 C 14.971 5.438 14.884 5.18 14.806 4.925 C 14.76 4.773 14.725 4.613 14.639 4.48 C 14.616 4.443 14.577 4.418 14.547 4.387 C 14.452 4.289 14.268 4.09 14.268 4.09 L 14.101 3.96 C 14.101 3.96 13.926 4.019 13.841 3.997 C 13.752 3.974 13.619 3.83 13.619 3.83 C 13.619 3.83 13.331 3.857 13.229 3.775 C 13.173 3.729 13.155 3.571 13.155 3.571 L 13.433 3.589 L 13.229 3.496 C 13.229 3.496 13.3 3.358 13.359 3.311 C 13.396 3.281 13.447 3.276 13.489 3.255 C 13.571 3.215 13.642 3.148 13.73 3.125 C 13.808 3.106 13.891 3.12 13.971 3.125 C 14.065 3.131 14.16 3.137 14.25 3.162 C 14.367 3.195 14.477 3.252 14.584 3.311 C 14.72 3.386 14.973 3.571 14.973 3.571 L 15.27 3.923 C 15.27 3.923 15.489 4.327 15.586 4.535 C 15.687 4.754 15.803 4.97 15.864 5.203 C 15.943 5.505 15.953 5.82 15.975 6.131 C 15.992 6.366 16.01 6.602 15.994 6.836 C 15.978 7.067 15.94 7.298 15.882 7.523 C 15.823 7.758 15.736 7.986 15.641 8.209 C 15.55 8.426 15.452 8.642 15.326 8.84 C 15.203 9.033 15.06 9.216 14.899 9.378 C 14.726 9.553 14.53 9.707 14.324 9.842 C 14.216 9.912 13.997 10.016 13.997 10.016 Z M 10.335 11.4 L 10.483 12.161 L 10.205 11.623 L 10.335 11.4 L 10.335 11.4 Z"/>
</svg>
