<svg xmlns="http://www.w3.org/2000/svg" style="isolation:isolate" width="16" height="16" viewBox="0 0 16 16">
 <defs>
  <style id="current-color-scheme" type="text/css">
   .ColorScheme-Text { color:#eff0f2; } .ColorScheme-Highlight { color:#5294e2; }
  </style>
  <linearGradient id="arrongin" x1="0%" x2="0%" y1="0%" y2="100%">
   <stop offset="0%" style="stop-color:#dd9b44; stop-opacity:1"/>
   <stop offset="100%" style="stop-color:#ad6c16; stop-opacity:1"/>
  </linearGradient>
  <linearGradient id="aurora" x1="0%" x2="0%" y1="0%" y2="100%">
   <stop offset="0%" style="stop-color:#09D4DF; stop-opacity:1"/>
   <stop offset="100%" style="stop-color:#9269F4; stop-opacity:1"/>
  </linearGradient>
  <linearGradient id="fitdance" x1="0%" x2="0%" y1="0%" y2="100%">
   <stop offset="0%" style="stop-color:#1AD6AB; stop-opacity:1"/>
   <stop offset="100%" style="stop-color:#329DB6; stop-opacity:1"/>
  </linearGradient>
  <linearGradient id="oomox" x1="0%" x2="0%" y1="0%" y2="100%">
   <stop offset="0%" style="stop-color:#928374; stop-opacity:1"/>
   <stop offset="100%" style="stop-color:#928374; stop-opacity:1"/>
  </linearGradient>
  <linearGradient id="rainblue" x1="0%" x2="0%" y1="0%" y2="100%">
   <stop offset="0%" style="stop-color:#00F260; stop-opacity:1"/>
   <stop offset="100%" style="stop-color:#0575E6; stop-opacity:1"/>
  </linearGradient>
  <linearGradient id="sunrise" x1="0%" x2="0%" y1="0%" y2="100%">
   <stop offset="0%" style="stop-color: #FF8501; stop-opacity:1"/>
   <stop offset="100%" style="stop-color: #FFCB01; stop-opacity:1"/>
  </linearGradient>
  <linearGradient id="telinkrin" x1="0%" x2="0%" y1="0%" y2="100%">
   <stop offset="0%" style="stop-color: #b2ced6; stop-opacity:1"/>
   <stop offset="100%" style="stop-color: #6da5b7; stop-opacity:1"/>
  </linearGradient>
  <linearGradient id="60spsycho" x1="0%" x2="0%" y1="0%" y2="100%">
   <stop offset="0%" style="stop-color: #df5940; stop-opacity:1"/>
   <stop offset="25%" style="stop-color: #d8d15f; stop-opacity:1"/>
   <stop offset="50%" style="stop-color: #e9882a; stop-opacity:1"/>
   <stop offset="100%" style="stop-color: #279362; stop-opacity:1"/>
  </linearGradient>
  <linearGradient id="90ssummer" x1="0%" x2="0%" y1="0%" y2="100%">
   <stop offset="0%" style="stop-color: #f618c7; stop-opacity:1"/>
   <stop offset="20%" style="stop-color: #94ffab; stop-opacity:1"/>
   <stop offset="50%" style="stop-color: #fbfd54; stop-opacity:1"/>
   <stop offset="100%" style="stop-color: #0f83ae; stop-opacity:1"/>
  </linearGradient>
 </defs>
 <path style="fill:url(#oomox)" class="ColorScheme-Text" fill-rule="evenodd" d="M 14.401 13.867 L 14.401 14.666 C 14.401 14.879 14.316 15.082 14.167 15.234 C 14.017 15.383 13.812 15.468 13.602 15.468 C 13.388 15.468 13.186 15.383 13.034 15.234 C 12.885 15.082 12.799 14.879 12.799 14.666 L 12.799 11.735 L 11.734 11.735 L 11.734 12.015 C 11.734 13.632 10.402 14.934 8.747 14.934 L 7.253 14.934 C 5.599 14.934 4.266 13.632 4.266 12.015 L 4.266 11.735 L 3.201 11.735 L 3.201 14.666 C 3.201 14.879 3.115 15.082 2.966 15.234 C 2.814 15.383 2.612 15.468 2.398 15.468 C 2.188 15.468 1.983 15.383 1.833 15.234 C 1.684 15.082 1.599 14.879 1.599 14.666 L 1.599 13.867 L 0.799 13.867 C 0.586 13.867 0.384 13.784 0.235 13.632 C 0.083 13.483 0 13.28 0 13.067 C 0 12.854 0.083 12.652 0.235 12.502 C 0.384 12.35 0.586 12.268 0.799 12.268 L 1.599 12.268 L 1.599 10.933 C 1.599 10.491 1.957 10.133 2.398 10.133 L 4.266 10.133 L 4.266 5.867 L 2.398 5.867 C 1.957 5.867 1.599 5.509 1.599 5.067 L 1.599 3.732 L 0.799 3.732 C 0.586 3.732 0.384 3.65 0.235 3.498 C 0.083 3.348 0 3.146 0 2.933 C 0 2.72 0.083 2.517 0.235 2.368 C 0.384 2.216 0.586 2.133 0.799 2.133 L 1.599 2.133 L 1.599 1.334 C 1.599 1.121 1.684 0.915 1.833 0.766 C 1.983 0.617 2.188 0.532 2.398 0.532 C 2.612 0.532 2.814 0.617 2.966 0.766 C 3.115 0.915 3.201 1.121 3.201 1.334 L 3.201 4.265 L 4.266 4.265 L 4.266 3.985 C 4.266 2.368 5.599 1.066 7.253 1.066 L 8.747 1.066 C 10.402 1.066 11.734 2.368 11.734 3.985 L 11.734 4.265 L 12.799 4.265 L 12.799 1.334 C 12.799 1.121 12.885 0.915 13.034 0.766 C 13.186 0.617 13.388 0.532 13.602 0.532 C 13.812 0.532 14.017 0.617 14.167 0.766 C 14.316 0.915 14.401 1.121 14.401 1.334 L 14.401 2.133 L 15.201 2.133 C 15.414 2.133 15.616 2.216 15.765 2.368 C 15.917 2.517 16 2.72 16 2.933 C 16 3.146 15.917 3.348 15.765 3.498 C 15.616 3.65 15.414 3.732 15.201 3.732 L 14.401 3.732 L 14.401 5.067 C 14.401 5.509 14.043 5.867 13.602 5.867 L 11.734 5.867 L 11.734 10.133 L 13.602 10.133 C 14.043 10.133 14.401 10.491 14.401 10.933 L 14.401 12.268 L 15.201 12.268 C 15.414 12.268 15.616 12.35 15.765 12.502 C 15.917 12.652 16 12.854 16 13.067 C 16 13.28 15.917 13.483 15.765 13.632 C 15.616 13.784 15.414 13.867 15.201 13.867 L 14.401 13.867 Z"/>
</svg>
