<svg xmlns="http://www.w3.org/2000/svg" style="isolation:isolate" width="16" height="16" viewBox="0 0 16 16">
 <defs>
  <style id="current-color-scheme" type="text/css">
   .ColorScheme-Text { color:#eff0f2; } .ColorScheme-Highlight { color:#5294e2; }
  </style>
  <linearGradient id="arrongin" x1="0%" x2="0%" y1="0%" y2="100%">
   <stop offset="0%" style="stop-color:#dd9b44; stop-opacity:1"/>
   <stop offset="100%" style="stop-color:#ad6c16; stop-opacity:1"/>
  </linearGradient>
  <linearGradient id="aurora" x1="0%" x2="0%" y1="0%" y2="100%">
   <stop offset="0%" style="stop-color:#09D4DF; stop-opacity:1"/>
   <stop offset="100%" style="stop-color:#9269F4; stop-opacity:1"/>
  </linearGradient>
  <linearGradient id="fitdance" x1="0%" x2="0%" y1="0%" y2="100%">
   <stop offset="0%" style="stop-color:#1AD6AB; stop-opacity:1"/>
   <stop offset="100%" style="stop-color:#329DB6; stop-opacity:1"/>
  </linearGradient>
  <linearGradient id="oomox" x1="0%" x2="0%" y1="0%" y2="100%">
   <stop offset="0%" style="stop-color:#928374; stop-opacity:1"/>
   <stop offset="100%" style="stop-color:#928374; stop-opacity:1"/>
  </linearGradient>
  <linearGradient id="rainblue" x1="0%" x2="0%" y1="0%" y2="100%">
   <stop offset="0%" style="stop-color:#00F260; stop-opacity:1"/>
   <stop offset="100%" style="stop-color:#0575E6; stop-opacity:1"/>
  </linearGradient>
  <linearGradient id="sunrise" x1="0%" x2="0%" y1="0%" y2="100%">
   <stop offset="0%" style="stop-color: #FF8501; stop-opacity:1"/>
   <stop offset="100%" style="stop-color: #FFCB01; stop-opacity:1"/>
  </linearGradient>
  <linearGradient id="telinkrin" x1="0%" x2="0%" y1="0%" y2="100%">
   <stop offset="0%" style="stop-color: #b2ced6; stop-opacity:1"/>
   <stop offset="100%" style="stop-color: #6da5b7; stop-opacity:1"/>
  </linearGradient>
  <linearGradient id="60spsycho" x1="0%" x2="0%" y1="0%" y2="100%">
   <stop offset="0%" style="stop-color: #df5940; stop-opacity:1"/>
   <stop offset="25%" style="stop-color: #d8d15f; stop-opacity:1"/>
   <stop offset="50%" style="stop-color: #e9882a; stop-opacity:1"/>
   <stop offset="100%" style="stop-color: #279362; stop-opacity:1"/>
  </linearGradient>
  <linearGradient id="90ssummer" x1="0%" x2="0%" y1="0%" y2="100%">
   <stop offset="0%" style="stop-color: #f618c7; stop-opacity:1"/>
   <stop offset="20%" style="stop-color: #94ffab; stop-opacity:1"/>
   <stop offset="50%" style="stop-color: #fbfd54; stop-opacity:1"/>
   <stop offset="100%" style="stop-color: #0f83ae; stop-opacity:1"/>
  </linearGradient>
 </defs>
 <path style="fill:url(#oomox)" class="ColorScheme-Text" d="M 14.655 6.696 C 16.498 4.734 16.291 1.284 14.973 0 L 14.973 0 C 14.973 1.095 14.165 2.978 12.547 3.949 C 12.425 3.702 12.33 3.404 12.138 3.265 C 11.863 3.065 11.339 3.155 11.036 3.001 C 10.733 2.847 10.499 2.37 10.175 2.265 C 9.852 2.16 9.382 2.408 9.046 2.354 C 8.711 2.301 8.34 1.92 8 1.92 C 7.66 1.92 7.289 2.301 6.954 2.354 C 6.618 2.408 6.148 2.16 5.824 2.265 C 5.501 2.37 5.266 2.847 4.964 3.001 C 4.661 3.155 4.137 3.065 3.862 3.265 C 3.67 3.404 3.575 3.702 3.453 3.949 C 1.835 2.978 1.027 1.095 1.027 0 L 1.027 0 C -0.291 1.284 -0.498 4.733 1.345 6.696 C 1.327 6.725 1.314 6.754 1.305 6.785 C 1.199 7.108 1.447 7.578 1.394 7.914 C 1.341 8.249 0.96 8.62 0.96 8.96 C 0.96 9.3 1.341 9.671 1.394 10.006 C 1.447 10.342 1.199 10.812 1.305 11.135 C 1.41 11.459 1.887 11.693 2.041 11.996 C 2.195 12.299 2.105 12.823 2.304 13.098 C 2.504 13.373 3.031 13.449 3.271 13.689 C 3.511 13.929 3.587 14.456 3.862 14.655 C 4.137 14.855 4.661 14.765 4.964 14.919 C 5.266 15.073 5.501 15.55 5.824 15.655 C 6.148 15.76 6.618 15.512 6.954 15.566 C 7.289 15.619 7.66 16 8 16 C 8.34 16 8.711 15.619 9.046 15.566 C 9.382 15.512 9.852 15.76 10.175 15.655 C 10.499 15.55 10.733 15.073 11.036 14.919 C 11.339 14.765 11.863 14.855 12.138 14.655 C 12.413 14.456 12.489 13.929 12.729 13.689 C 12.969 13.449 13.496 13.373 13.695 13.098 C 13.895 12.823 13.805 12.299 13.959 11.996 C 14.113 11.693 14.59 11.459 14.695 11.135 C 14.8 10.812 14.552 10.342 14.606 10.006 C 14.659 9.671 15.04 9.3 15.04 8.96 C 15.04 8.62 14.659 8.249 14.606 7.914 C 14.552 7.578 14.8 7.108 14.695 6.785 C 14.686 6.754 14.672 6.725 14.655 6.696 Z"/>
</svg>
