<svg xmlns="http://www.w3.org/2000/svg" xmlns:xlink="http://www.w3.org/1999/xlink" style="isolation:isolate" width="16" height="16" viewBox="0 0 16 16">
 <defs>
  <style id="current-color-scheme" type="text/css">
   .ColorScheme-Text { color:#eff0f2; } .ColorScheme-Highlight { color:#5294e2; }
  </style>
  <linearGradient id="arrongin" x1="0%" x2="0%" y1="0%" y2="100%">
   <stop offset="0%" style="stop-color:#dd9b44; stop-opacity:1"/>
   <stop offset="100%" style="stop-color:#ad6c16; stop-opacity:1"/>
  </linearGradient>
  <linearGradient id="aurora" x1="0%" x2="0%" y1="0%" y2="100%">
   <stop offset="0%" style="stop-color:#09D4DF; stop-opacity:1"/>
   <stop offset="100%" style="stop-color:#9269F4; stop-opacity:1"/>
  </linearGradient>
  <linearGradient id="fitdance" x1="0%" x2="0%" y1="0%" y2="100%">
   <stop offset="0%" style="stop-color:#1AD6AB; stop-opacity:1"/>
   <stop offset="100%" style="stop-color:#329DB6; stop-opacity:1"/>
  </linearGradient>
  <linearGradient id="oomox" x1="0%" x2="0%" y1="0%" y2="100%">
   <stop offset="0%" style="stop-color:#928374; stop-opacity:1"/>
   <stop offset="100%" style="stop-color:#928374; stop-opacity:1"/>
  </linearGradient>
  <linearGradient id="rainblue" x1="0%" x2="0%" y1="0%" y2="100%">
   <stop offset="0%" style="stop-color:#00F260; stop-opacity:1"/>
   <stop offset="100%" style="stop-color:#0575E6; stop-opacity:1"/>
  </linearGradient>
  <linearGradient id="sunrise" x1="0%" x2="0%" y1="0%" y2="100%">
   <stop offset="0%" style="stop-color: #FF8501; stop-opacity:1"/>
   <stop offset="100%" style="stop-color: #FFCB01; stop-opacity:1"/>
  </linearGradient>
  <linearGradient id="telinkrin" x1="0%" x2="0%" y1="0%" y2="100%">
   <stop offset="0%" style="stop-color: #b2ced6; stop-opacity:1"/>
   <stop offset="100%" style="stop-color: #6da5b7; stop-opacity:1"/>
  </linearGradient>
  <linearGradient id="60spsycho" x1="0%" x2="0%" y1="0%" y2="100%">
   <stop offset="0%" style="stop-color: #df5940; stop-opacity:1"/>
   <stop offset="25%" style="stop-color: #d8d15f; stop-opacity:1"/>
   <stop offset="50%" style="stop-color: #e9882a; stop-opacity:1"/>
   <stop offset="100%" style="stop-color: #279362; stop-opacity:1"/>
  </linearGradient>
  <linearGradient id="90ssummer" x1="0%" x2="0%" y1="0%" y2="100%">
   <stop offset="0%" style="stop-color: #f618c7; stop-opacity:1"/>
   <stop offset="20%" style="stop-color: #94ffab; stop-opacity:1"/>
   <stop offset="50%" style="stop-color: #fbfd54; stop-opacity:1"/>
   <stop offset="100%" style="stop-color: #0f83ae; stop-opacity:1"/>
  </linearGradient>
 </defs>
   <path style="fill:url(#oomox)" class="ColorScheme-Text" fill-rule="evenodd" d="M 14.555 11.143 C 14.566 11.143 14.577 11.143 14.588 11.143 C 14.713 11.143 14.833 11.19 14.921 11.272 C 15.009 11.355 15.059 11.467 15.059 11.585 C 15.059 11.702 15.009 11.814 14.921 11.897 C 14.833 11.979 14.713 12.026 14.588 12.026 C 14.328 12.026 14.118 11.828 14.118 11.585 C 14.117 11.352 14.308 11.159 14.555 11.143 L 14.555 11.143 L 14.555 11.143 L 14.555 11.143 L 14.555 11.143 L 14.555 11.143 L 14.555 11.143 L 14.555 11.143 L 14.555 11.143 Z M 1.379 11.143 C 1.39 11.143 1.401 11.143 1.412 11.143 C 1.537 11.143 1.656 11.19 1.745 11.272 C 1.833 11.355 1.882 11.467 1.882 11.585 C 1.882 11.702 1.833 11.814 1.745 11.897 C 1.656 11.979 1.537 12.026 1.412 12.026 C 1.287 12.026 1.167 11.979 1.079 11.897 C 0.991 11.814 0.941 11.702 0.941 11.585 C 0.941 11.352 1.132 11.159 1.379 11.143 L 1.379 11.143 L 1.379 11.143 L 1.379 11.143 L 1.379 11.143 L 1.379 11.143 L 1.379 11.143 Z M 1.978 6.347 C 1.791 6.4 1.596 6.427 1.399 6.428 C 1.281 6.428 1.163 6.418 1.046 6.398 L 1.046 9.785 C 1.163 9.764 1.281 9.754 1.399 9.754 C 1.596 9.754 1.791 9.781 1.978 9.835 L 1.978 6.347 L 1.978 6.347 L 1.978 6.347 L 1.978 6.347 L 1.978 6.347 L 1.978 6.347 L 1.978 6.347 L 1.978 6.347 L 1.978 6.347 L 1.978 6.347 Z M 14.028 6.355 L 14.028 9.826 C 14.206 9.778 14.391 9.753 14.576 9.753 C 14.733 9.754 14.89 9.773 15.043 9.808 L 15.043 6.374 C 14.89 6.409 14.733 6.427 14.576 6.427 C 14.391 6.427 14.206 6.403 14.028 6.355 L 14.028 6.355 L 14.028 6.355 L 14.028 6.355 L 14.028 6.355 L 14.028 6.355 L 14.028 6.355 L 14.028 6.355 L 14.028 6.355 L 14.028 6.355 Z M 3.355 12.005 C 3.292 12.289 3.159 12.555 2.967 12.783 L 6.026 14.44 C 6.058 14.147 6.164 13.866 6.333 13.619 L 3.355 12.005 L 3.355 12.005 L 3.355 12.005 L 3.355 12.005 L 3.355 12.005 L 3.355 12.005 L 3.355 12.005 L 3.355 12.005 L 3.355 12.005 Z M 12.625 12.02 L 9.692 13.609 C 9.87 13.868 9.977 14.164 10.004 14.472 L 13.045 12.825 C 12.838 12.593 12.694 12.317 12.625 12.021 L 12.625 12.02 L 12.625 12.02 L 12.625 12.02 L 12.625 12.02 L 12.625 12.02 L 12.625 12.02 L 12.625 12.02 L 12.625 12.02 L 12.625 12.02 Z M 6.015 1.472 L 2.795 3.217 C 3.035 3.438 3.212 3.712 3.309 4.014 L 6.306 2.39 C 6.126 2.113 6.026 1.797 6.015 1.472 L 6.015 1.472 L 6.015 1.472 L 6.015 1.472 L 6.015 1.472 L 6.015 1.472 L 6.015 1.472 L 6.015 1.472 L 6.015 1.472 Z M 10.021 1.443 C 10.014 1.782 9.911 2.112 9.721 2.4 L 12.67 3.998 C 12.775 3.684 12.966 3.402 13.225 3.179 L 10.021 1.443 L 10.021 1.443 L 10.021 1.443 L 10.021 1.443 L 10.021 1.443 L 10.021 1.443 L 10.021 1.443 L 10.021 1.443 L 10.021 1.443 Z M 7.942 0.883 C 7.953 0.882 7.964 0.882 7.975 0.883 C 8.1 0.883 8.219 0.929 8.307 1.012 C 8.396 1.095 8.445 1.207 8.445 1.324 C 8.445 1.441 8.396 1.553 8.307 1.636 C 8.219 1.719 8.1 1.766 7.975 1.766 C 7.85 1.766 7.73 1.719 7.642 1.636 C 7.554 1.553 7.504 1.441 7.504 1.324 C 7.504 1.092 7.695 0.899 7.942 0.883 L 7.942 0.883 L 7.942 0.883 L 7.942 0.883 L 7.942 0.883 L 7.942 0.883 L 7.942 0.883 L 7.942 0.883 L 7.942 0.883 L 7.942 0.883 Z M 14.555 4.072 C 14.566 4.071 14.577 4.071 14.588 4.072 C 14.713 4.072 14.833 4.118 14.921 4.201 C 15.009 4.284 15.059 4.396 15.059 4.513 C 15.059 4.63 15.009 4.742 14.921 4.825 C 14.833 4.908 14.713 4.955 14.588 4.955 C 14.328 4.955 14.118 4.757 14.118 4.513 C 14.117 4.281 14.308 4.088 14.555 4.072 L 14.555 4.072 L 14.555 4.072 L 14.555 4.072 L 14.555 4.072 L 14.555 4.072 L 14.555 4.072 L 14.555 4.072 Z M 1.379 4.072 C 1.39 4.071 1.401 4.071 1.412 4.072 C 1.537 4.072 1.656 4.118 1.745 4.201 C 1.833 4.284 1.882 4.396 1.882 4.513 C 1.882 4.63 1.833 4.742 1.745 4.825 C 1.656 4.908 1.537 4.955 1.412 4.955 C 1.287 4.955 1.167 4.908 1.079 4.825 C 0.991 4.742 0.941 4.63 0.941 4.513 C 0.941 4.281 1.132 4.088 1.379 4.072 L 1.379 4.072 L 1.379 4.072 L 1.379 4.072 L 1.379 4.072 L 1.379 4.072 Z M 7.942 14.234 C 7.953 14.234 7.964 14.234 7.975 14.234 C 8.1 14.234 8.219 14.281 8.307 14.364 C 8.396 14.447 8.445 14.559 8.445 14.676 C 8.445 14.793 8.396 14.905 8.307 14.988 C 8.219 15.071 8.1 15.117 7.975 15.117 C 7.85 15.117 7.73 15.071 7.642 14.988 C 7.554 14.905 7.504 14.793 7.504 14.676 C 7.504 14.444 7.695 14.251 7.942 14.234 L 7.942 14.234 L 7.942 14.234 L 7.942 14.234 L 7.942 14.234 Z M 2.929 5.76 C 2.722 5.989 2.46 6.169 2.164 6.283 L 6.53 13.376 C 6.743 13.153 7.009 12.982 7.307 12.876 L 2.929 5.76 L 2.929 5.76 Z M 14.588 10.26 C 13.809 10.26 13.176 10.853 13.176 11.585 C 13.176 12.316 13.809 12.909 14.588 12.909 C 14.963 12.909 15.322 12.769 15.587 12.521 C 15.851 12.273 16 11.936 16 11.585 C 16 11.233 15.851 10.897 15.587 10.648 C 15.322 10.4 14.963 10.26 14.588 10.26 L 14.588 10.26 L 14.588 10.26 L 14.588 10.26 L 14.588 10.26 L 14.588 10.26 L 14.588 10.26 L 14.588 10.26 L 14.588 10.26 Z M 1.412 10.26 C 0.632 10.26 0 10.853 0 11.585 C 0 12.316 0.632 12.909 1.412 12.909 C 1.786 12.909 2.145 12.769 2.41 12.521 C 2.675 12.273 2.824 11.936 2.824 11.585 C 2.824 11.233 2.675 10.897 2.41 10.648 C 2.145 10.4 1.786 10.26 1.412 10.26 L 1.412 10.26 L 1.412 10.26 L 1.412 10.26 L 1.412 10.26 L 1.412 10.26 L 1.412 10.26 Z M 7.975 0 C 7.195 0 6.563 0.593 6.563 1.324 C 6.563 2.055 7.195 2.648 7.975 2.648 C 8.349 2.648 8.708 2.509 8.973 2.26 C 9.238 2.012 9.386 1.675 9.386 1.324 C 9.386 0.973 9.238 0.636 8.973 0.388 C 8.708 0.14 8.349 0 7.975 0 L 7.975 0 L 7.975 0 L 7.975 0 L 7.975 0 L 7.975 0 L 7.975 0 L 7.975 0 L 7.975 0 L 7.975 0 Z M 1.412 3.189 C 0.632 3.189 0 3.782 0 4.513 C 0 4.864 0.149 5.201 0.413 5.449 C 0.678 5.698 1.037 5.837 1.412 5.837 C 1.786 5.837 2.145 5.698 2.41 5.449 C 2.675 5.201 2.824 4.864 2.824 4.513 C 2.824 4.162 2.675 3.825 2.41 3.577 C 2.145 3.329 1.786 3.189 1.412 3.189 L 1.412 3.189 L 1.412 3.189 L 1.412 3.189 L 1.412 3.189 L 1.412 3.189 Z M 14.588 3.189 C 13.809 3.189 13.176 3.782 13.176 4.513 C 13.176 4.864 13.325 5.201 13.59 5.449 C 13.855 5.698 14.214 5.837 14.588 5.837 C 14.963 5.837 15.322 5.698 15.587 5.449 C 15.851 5.201 16 4.864 16 4.513 C 16 4.162 15.851 3.825 15.587 3.577 C 15.322 3.329 14.963 3.189 14.588 3.189 L 14.588 3.189 L 14.588 3.189 L 14.588 3.189 L 14.588 3.189 L 14.588 3.189 L 14.588 3.189 L 14.588 3.189 Z M 7.975 13.352 C 7.6 13.352 7.241 13.491 6.976 13.74 C 6.712 13.988 6.563 14.325 6.563 14.676 C 6.563 15.407 7.195 16 7.975 16 C 8.349 16 8.708 15.86 8.973 15.612 C 9.238 15.364 9.386 15.027 9.386 14.676 C 9.386 14.325 9.238 13.988 8.973 13.74 C 8.708 13.491 8.349 13.352 7.975 13.352 L 7.975 13.352 L 7.975 13.352 L 7.975 13.352 L 7.975 13.352 Z M 13.079 5.793 L 8.719 12.878 C 9.018 12.983 9.285 13.155 9.499 13.378 L 13.855 6.298 C 13.557 6.19 13.291 6.017 13.079 5.793 L 13.079 5.793 Z"/>
</svg>
