<svg xmlns="http://www.w3.org/2000/svg" width="16" height="16" version="1.1" viewBox="0 0 16 16" style="isolation:isolate">
<defs>
  <style id="current-color-scheme" type="text/css">
   .ColorScheme-Text { color:#eff0f2; } .ColorScheme-Highlight { color:#5294e2; }
  </style>
  <linearGradient id="arrongin" x1="0%" x2="0%" y1="0%" y2="100%">
   <stop offset="0%" style="stop-color:#dd9b44; stop-opacity:1"/>
   <stop offset="100%" style="stop-color:#ad6c16; stop-opacity:1"/>
  </linearGradient>
  <linearGradient id="aurora" x1="0%" x2="0%" y1="0%" y2="100%">
   <stop offset="0%" style="stop-color:#09D4DF; stop-opacity:1"/>
   <stop offset="100%" style="stop-color:#9269F4; stop-opacity:1"/>
  </linearGradient>
  <linearGradient id="fitdance" x1="0%" x2="0%" y1="0%" y2="100%">
   <stop offset="0%" style="stop-color:#1AD6AB; stop-opacity:1"/>
   <stop offset="100%" style="stop-color:#329DB6; stop-opacity:1"/>
  </linearGradient>
  <linearGradient id="oomox" x1="0%" x2="0%" y1="0%" y2="100%">
   <stop offset="0%" style="stop-color:#928374; stop-opacity:1"/>
   <stop offset="100%" style="stop-color:#928374; stop-opacity:1"/>
  </linearGradient>
  <linearGradient id="rainblue" x1="0%" x2="0%" y1="0%" y2="100%">
   <stop offset="0%" style="stop-color:#00F260; stop-opacity:1"/>
   <stop offset="100%" style="stop-color:#0575E6; stop-opacity:1"/>
  </linearGradient>
  <linearGradient id="sunrise" x1="0%" x2="0%" y1="0%" y2="100%">
   <stop offset="0%" style="stop-color: #FF8501; stop-opacity:1"/>
   <stop offset="100%" style="stop-color: #FFCB01; stop-opacity:1"/>
  </linearGradient>
  <linearGradient id="telinkrin" x1="0%" x2="0%" y1="0%" y2="100%">
   <stop offset="0%" style="stop-color: #b2ced6; stop-opacity:1"/>
   <stop offset="100%" style="stop-color: #6da5b7; stop-opacity:1"/>
  </linearGradient>
  <linearGradient id="60spsycho" x1="0%" x2="0%" y1="0%" y2="100%">
   <stop offset="0%" style="stop-color: #df5940; stop-opacity:1"/>
   <stop offset="25%" style="stop-color: #d8d15f; stop-opacity:1"/>
   <stop offset="50%" style="stop-color: #e9882a; stop-opacity:1"/>
   <stop offset="100%" style="stop-color: #279362; stop-opacity:1"/>
  </linearGradient>
  <linearGradient id="90ssummer" x1="0%" x2="0%" y1="0%" y2="100%">
   <stop offset="0%" style="stop-color: #f618c7; stop-opacity:1"/>
   <stop offset="20%" style="stop-color: #94ffab; stop-opacity:1"/>
   <stop offset="50%" style="stop-color: #fbfd54; stop-opacity:1"/>
   <stop offset="100%" style="stop-color: #0f83ae; stop-opacity:1"/>
  </linearGradient>
 </defs>
 <path style="fill:url(#oomox)" class="ColorScheme-Text" d="M 5.571367 15.965556 C 3.783711 15.801248 2.398014 15.224746 1.357745 14.21254 C 0.473985 13.352615 0.002305 11.944838 0.000105 10.905848 C -0.001621 10.177584 0.208008 9.59575 0.63023 9.155385 C 1.110225 8.654756 1.658945 8.425813 2.389739 8.42127 C 3.305196 8.415558 4.088448 8.735208 4.426974 9.444112 C 4.569814 9.743236 4.578157 9.79439 4.60798 10.553706 C 4.641807 11.415214 4.684477 12.054019 4.892683 12.462934 C 5.191517 13.049832 6.007041 13.42126 6.841144 13.502798 C 8.102692 13.626118 9.292812 12.909998 9.600362 11.711409 C 9.678915 11.40525 9.685732 11.015768 9.685732 7.042804 C 9.685732 2.792947 9.684006 3.08939 9.587904 2.92319 C 9.418351 2.630542 9.208974 2.556693 8.402665 2.537987 L 7.578953 2.537987 L 7.578953 0 L 15.999906 0 L 15.999906 2.537987 L 15.167214 2.537987 C 14.401958 2.568289 14.266021 2.603037 14.097015 2.78541 C 13.86381 3.037061 13.926822 2.563936 13.893992 7.187537 C 13.861419 11.773709 13.859252 11.818763 13.641054 12.425375 C 13.095307 13.942617 11.600414 15.210769 9.726648 15.697616 C 8.768854 15.946474 6.634801 16.063308 5.57135 15.965558 L 5.571367 15.965556 Z"/>
</svg>
