<svg xmlns="http://www.w3.org/2000/svg" style="isolation:isolate" width="16" height="16" viewBox="0 0 16 16">
 <defs>
  <style id="current-color-scheme" type="text/css">
   .ColorScheme-Text { color:#eff0f2; } .ColorScheme-Highlight { color:#5294e2; }
  </style>
  <linearGradient id="arrongin" x1="0%" x2="0%" y1="0%" y2="100%">
   <stop offset="0%" style="stop-color:#dd9b44; stop-opacity:1"/>
   <stop offset="100%" style="stop-color:#ad6c16; stop-opacity:1"/>
  </linearGradient>
  <linearGradient id="aurora" x1="0%" x2="0%" y1="0%" y2="100%">
   <stop offset="0%" style="stop-color:#09D4DF; stop-opacity:1"/>
   <stop offset="100%" style="stop-color:#9269F4; stop-opacity:1"/>
  </linearGradient>
  <linearGradient id="fitdance" x1="0%" x2="0%" y1="0%" y2="100%">
   <stop offset="0%" style="stop-color:#1AD6AB; stop-opacity:1"/>
   <stop offset="100%" style="stop-color:#329DB6; stop-opacity:1"/>
  </linearGradient>
  <linearGradient id="oomox" x1="0%" x2="0%" y1="0%" y2="100%">
   <stop offset="0%" style="stop-color:#928374; stop-opacity:1"/>
   <stop offset="100%" style="stop-color:#928374; stop-opacity:1"/>
  </linearGradient>
  <linearGradient id="rainblue" x1="0%" x2="0%" y1="0%" y2="100%">
   <stop offset="0%" style="stop-color:#00F260; stop-opacity:1"/>
   <stop offset="100%" style="stop-color:#0575E6; stop-opacity:1"/>
  </linearGradient>
  <linearGradient id="sunrise" x1="0%" x2="0%" y1="0%" y2="100%">
   <stop offset="0%" style="stop-color: #FF8501; stop-opacity:1"/>
   <stop offset="100%" style="stop-color: #FFCB01; stop-opacity:1"/>
  </linearGradient>
  <linearGradient id="telinkrin" x1="0%" x2="0%" y1="0%" y2="100%">
   <stop offset="0%" style="stop-color: #b2ced6; stop-opacity:1"/>
   <stop offset="100%" style="stop-color: #6da5b7; stop-opacity:1"/>
  </linearGradient>
  <linearGradient id="60spsycho" x1="0%" x2="0%" y1="0%" y2="100%">
   <stop offset="0%" style="stop-color: #df5940; stop-opacity:1"/>
   <stop offset="25%" style="stop-color: #d8d15f; stop-opacity:1"/>
   <stop offset="50%" style="stop-color: #e9882a; stop-opacity:1"/>
   <stop offset="100%" style="stop-color: #279362; stop-opacity:1"/>
  </linearGradient>
  <linearGradient id="90ssummer" x1="0%" x2="0%" y1="0%" y2="100%">
   <stop offset="0%" style="stop-color: #f618c7; stop-opacity:1"/>
   <stop offset="20%" style="stop-color: #94ffab; stop-opacity:1"/>
   <stop offset="50%" style="stop-color: #fbfd54; stop-opacity:1"/>
   <stop offset="100%" style="stop-color: #0f83ae; stop-opacity:1"/>
  </linearGradient>
  <clipPath id="_clipPath_GxwGoPiLLqpEFwLFnNqVWb9Lajk47j0p">
   <rect width="16" height="16"/>
  </clipPath>
 </defs>
 <g clip-path="url(#_clipPath_GxwGoPiLLqpEFwLFnNqVWb9Lajk47j0p)">
  <rect style="fill:url(#oomox)" class="ColorScheme-Text" fill-opacity="0" width="16" height="16"/>
  <path style="fill:url(#oomox)" class="ColorScheme-Text" d="M 12.382 1.25 C 12.096 1.25 11.737 1.296 11.584 1.353 C 10.93 1.597 10.422 2.354 10.132 3.517 C 9.665 5.39 8.863 6.224 7.53 6.224 C 7.123 6.224 7.119 6.306 7.508 6.67 C 8.265 7.377 8.724 8.436 8.849 9.758 C 8.898 10.277 8.971 10.507 9.154 10.722 C 9.287 10.877 9.45 11.004 9.519 11.004 C 9.587 11.004 9.721 10.773 9.815 10.492 C 9.942 10.113 10.007 9.445 10.065 7.931 C 10.132 6.176 10.175 5.802 10.361 5.321 C 10.838 4.089 11.905 3.43 12.991 3.917 C 13.513 4.151 13.964 4.83 14.625 5.987 C 15.115 6.845 15.667 7.493 15.907 7.493 C 16.029 7.493 16.032 7.326 15.911 7.253 C 15.667 7.104 15.484 6.158 15.453 4.876 C 15.422 3.594 15.411 3.525 15.095 2.914 C 14.562 1.884 13.528 1.25 12.382 1.25 Z M 5.325 6.038 C 5.23 6.039 5.122 6.047 4.988 6.059 C 4.352 6.118 4.036 6.201 4.036 6.31 C 4.036 6.346 4.43 6.769 4.911 7.251 C 5.866 8.209 6.323 8.971 6.531 9.955 C 6.603 10.202 6.632 10.638 6.653 10.991 C 5.921 11.292 5.443 12.005 5.442 12.796 C 5.442 13.875 6.317 14.75 7.396 14.75 C 8.475 14.75 9.35 13.875 9.35 12.796 C 9.35 12.089 8.967 11.437 8.349 11.092 C 8.308 10.745 8.289 10.316 8.289 10.132 C 8.289 8.497 7.435 6.992 6.102 6.276 C 5.764 6.095 5.608 6.035 5.325 6.038 Z M 3.233 6.689 L 2.694 7.054 C 1.902 7.592 1.131 8.465 0.716 9.293 C 0.387 9.949 0.347 10.118 0.308 10.976 C 0.281 11.573 0.206 12.044 0.109 12.233 C -0.102 12.644 0.002 13.03 0.349 13.115 C 0.495 13.151 0.839 13.408 1.114 13.684 C 2.034 14.608 3.784 14.986 5.347 14.6 C 5.752 14.5 5.801 14.412 5.562 14.217 C 5.476 14.146 5.293 13.869 5.155 13.6 C 4.681 12.677 4.857 11.53 5.588 10.79 C 5.92 10.454 5.94 10.4 5.882 9.986 C 5.848 9.742 5.708 9.321 5.569 9.051 C 5.286 8.5 4.094 7.213 3.573 6.895 L 3.233 6.689 Z M 2.245 10.842 C 2.637 10.842 2.955 11.16 2.955 11.553 C 2.955 11.945 2.637 12.263 2.245 12.263 C 1.852 12.263 1.534 11.945 1.534 11.553 C 1.534 11.16 1.852 10.842 2.245 10.842 Z M 7.396 11.908 C 7.887 11.908 8.284 12.306 8.284 12.796 C 8.284 13.287 7.887 13.684 7.396 13.684 C 6.905 13.684 6.508 13.287 6.508 12.796 C 6.508 12.306 6.905 11.908 7.396 11.908 Z"/>
 </g>
</svg>
