<svg xmlns="http://www.w3.org/2000/svg" style="isolation:isolate" width="16" height="16" viewBox="0 0 16 16">
 <defs>
  <style id="current-color-scheme" type="text/css">
   .ColorScheme-Text { color:#eff0f2; } .ColorScheme-Highlight { color:#5294e2; }
  </style>
  <linearGradient id="arrongin" x1="0%" x2="0%" y1="0%" y2="100%">
   <stop offset="0%" style="stop-color:#dd9b44; stop-opacity:1"/>
   <stop offset="100%" style="stop-color:#ad6c16; stop-opacity:1"/>
  </linearGradient>
  <linearGradient id="aurora" x1="0%" x2="0%" y1="0%" y2="100%">
   <stop offset="0%" style="stop-color:#09D4DF; stop-opacity:1"/>
   <stop offset="100%" style="stop-color:#9269F4; stop-opacity:1"/>
  </linearGradient>
  <linearGradient id="fitdance" x1="0%" x2="0%" y1="0%" y2="100%">
   <stop offset="0%" style="stop-color:#1AD6AB; stop-opacity:1"/>
   <stop offset="100%" style="stop-color:#329DB6; stop-opacity:1"/>
  </linearGradient>
  <linearGradient id="oomox" x1="0%" x2="0%" y1="0%" y2="100%">
   <stop offset="0%" style="stop-color:#928374; stop-opacity:1"/>
   <stop offset="100%" style="stop-color:#928374; stop-opacity:1"/>
  </linearGradient>
  <linearGradient id="rainblue" x1="0%" x2="0%" y1="0%" y2="100%">
   <stop offset="0%" style="stop-color:#00F260; stop-opacity:1"/>
   <stop offset="100%" style="stop-color:#0575E6; stop-opacity:1"/>
  </linearGradient>
  <linearGradient id="sunrise" x1="0%" x2="0%" y1="0%" y2="100%">
   <stop offset="0%" style="stop-color: #FF8501; stop-opacity:1"/>
   <stop offset="100%" style="stop-color: #FFCB01; stop-opacity:1"/>
  </linearGradient>
  <linearGradient id="telinkrin" x1="0%" x2="0%" y1="0%" y2="100%">
   <stop offset="0%" style="stop-color: #b2ced6; stop-opacity:1"/>
   <stop offset="100%" style="stop-color: #6da5b7; stop-opacity:1"/>
  </linearGradient>
  <linearGradient id="60spsycho" x1="0%" x2="0%" y1="0%" y2="100%">
   <stop offset="0%" style="stop-color: #df5940; stop-opacity:1"/>
   <stop offset="25%" style="stop-color: #d8d15f; stop-opacity:1"/>
   <stop offset="50%" style="stop-color: #e9882a; stop-opacity:1"/>
   <stop offset="100%" style="stop-color: #279362; stop-opacity:1"/>
  </linearGradient>
  <linearGradient id="90ssummer" x1="0%" x2="0%" y1="0%" y2="100%">
   <stop offset="0%" style="stop-color: #f618c7; stop-opacity:1"/>
   <stop offset="20%" style="stop-color: #94ffab; stop-opacity:1"/>
   <stop offset="50%" style="stop-color: #fbfd54; stop-opacity:1"/>
   <stop offset="100%" style="stop-color: #0f83ae; stop-opacity:1"/>
  </linearGradient>
 </defs>
 <path style="fill:url(#oomox)" class="ColorScheme-Text" d="M 9.799 3.767 C 9.709 3.787 9.628 3.834 9.567 3.902 L 8.777 4.713 C 8.672 4.757 8.589 4.84 8.545 4.944 L 7.716 5.754 C 7.633 5.836 7.587 5.947 7.587 6.063 C 7.587 6.179 7.633 6.29 7.716 6.371 C 7.797 6.454 7.908 6.5 8.024 6.5 C 8.14 6.5 8.251 6.454 8.333 6.371 L 8.95 5.754 L 10.416 7.201 C 9.835 7.538 8.868 7.914 7.407 7.914 C 4.753 7.914 3.703 6.68 3.703 6.68 L 3.703 6.313 C 3.704 5.591 3.42 4.898 2.913 4.384 C 2.763 4.23 2.543 4.165 2.333 4.211 C 2.103 4.252 1.916 4.42 1.852 4.645 C 1.787 4.871 1.854 5.113 2.025 5.272 C 2.274 5.52 2.469 5.939 2.469 6.313 L 2.469 6.68 L 1.659 6.68 C 1.105 6.68 0.617 7.105 0.617 7.722 L 0.617 9.149 L 0.559 9.149 C 0.251 9.149 0 9.4 0 9.708 L 0 10.383 C 0 10.755 0.251 11.001 0.559 11.001 L 1.234 11.001 L 1.234 10.692 C 1.234 11.555 1.915 12.235 2.778 12.235 C 3.511 12.24 4.144 11.721 4.282 11.001 L 11.728 11.001 C 11.728 10.877 11.67 10.816 11.67 10.692 C 11.67 10.343 11.771 10.022 11.959 9.766 L 12.036 9.766 C 11.846 10.022 11.728 10.343 11.728 10.692 C 11.728 11.555 12.408 12.235 13.271 12.235 C 14.004 12.24 14.637 11.721 14.776 11.001 L 15.431 11.001 C 15.74 11.001 15.99 10.75 15.99 10.441 L 15.99 9.766 C 16.053 9.395 15.798 9.149 15.489 9.149 L 15.238 9.149 C 14.426 7.724 11.11 6.68 11.11 6.68 L 9.567 5.137 L 10.185 4.52 C 10.32 4.396 10.364 4.204 10.296 4.035 C 10.226 3.867 10.058 3.759 9.876 3.767 C 9.85 3.764 9.824 3.764 9.799 3.767 L 9.799 3.767 Z M 2.778 10.133 C 2.978 10.133 3.162 10.24 3.262 10.413 C 3.362 10.586 3.362 10.8 3.262 10.973 C 3.162 11.146 2.977 11.253 2.777 11.253 C 2.468 11.252 2.217 11.002 2.217 10.692 C 2.218 10.383 2.468 10.133 2.778 10.133 L 2.778 10.133 Z M 13.271 10.133 C 13.471 10.133 13.656 10.24 13.755 10.413 C 13.855 10.586 13.855 10.8 13.755 10.973 C 13.655 11.146 13.47 11.253 13.27 11.253 C 12.961 11.252 12.71 11.002 12.711 10.692 C 12.711 10.383 12.962 10.133 13.271 10.133 L 13.271 10.133 Z M 4.321 10.692 C 4.321 10.786 4.308 10.846 4.282 10.924 C 4.294 10.846 4.321 10.774 4.321 10.692 Z M 14.814 10.692 C 14.814 10.786 14.802 10.846 14.775 10.924 C 14.787 10.846 14.814 10.774 14.814 10.692 Z"/>
</svg>
