<svg xmlns="http://www.w3.org/2000/svg" width="16" height="16">
 <defs>
  <style id="current-color-scheme" type="text/css">
   .ColorScheme-Text { color:#eff0f2; } .ColorScheme-Highlight { color:#5294e2; }
  </style>
  <linearGradient id="arrongin" x1="0%" x2="0%" y1="0%" y2="100%">
   <stop offset="0%" style="stop-color:#dd9b44; stop-opacity:1"/>
   <stop offset="100%" style="stop-color:#ad6c16; stop-opacity:1"/>
  </linearGradient>
  <linearGradient id="aurora" x1="0%" x2="0%" y1="0%" y2="100%">
   <stop offset="0%" style="stop-color:#09D4DF; stop-opacity:1"/>
   <stop offset="100%" style="stop-color:#9269F4; stop-opacity:1"/>
  </linearGradient>
  <linearGradient id="fitdance" x1="0%" x2="0%" y1="0%" y2="100%">
   <stop offset="0%" style="stop-color:#1AD6AB; stop-opacity:1"/>
   <stop offset="100%" style="stop-color:#329DB6; stop-opacity:1"/>
  </linearGradient>
  <linearGradient id="oomox" x1="0%" x2="0%" y1="0%" y2="100%">
   <stop offset="0%" style="stop-color:#928374; stop-opacity:1"/>
   <stop offset="100%" style="stop-color:#928374; stop-opacity:1"/>
  </linearGradient>
  <linearGradient id="rainblue" x1="0%" x2="0%" y1="0%" y2="100%">
   <stop offset="0%" style="stop-color:#00F260; stop-opacity:1"/>
   <stop offset="100%" style="stop-color:#0575E6; stop-opacity:1"/>
  </linearGradient>
  <linearGradient id="sunrise" x1="0%" x2="0%" y1="0%" y2="100%">
   <stop offset="0%" style="stop-color: #FF8501; stop-opacity:1"/>
   <stop offset="100%" style="stop-color: #FFCB01; stop-opacity:1"/>
  </linearGradient>
  <linearGradient id="telinkrin" x1="0%" x2="0%" y1="0%" y2="100%">
   <stop offset="0%" style="stop-color: #b2ced6; stop-opacity:1"/>
   <stop offset="100%" style="stop-color: #6da5b7; stop-opacity:1"/>
  </linearGradient>
  <linearGradient id="60spsycho" x1="0%" x2="0%" y1="0%" y2="100%">
   <stop offset="0%" style="stop-color: #df5940; stop-opacity:1"/>
   <stop offset="25%" style="stop-color: #d8d15f; stop-opacity:1"/>
   <stop offset="50%" style="stop-color: #e9882a; stop-opacity:1"/>
   <stop offset="100%" style="stop-color: #279362; stop-opacity:1"/>
  </linearGradient>
  <linearGradient id="90ssummer" x1="0%" x2="0%" y1="0%" y2="100%">
   <stop offset="0%" style="stop-color: #f618c7; stop-opacity:1"/>
   <stop offset="20%" style="stop-color: #94ffab; stop-opacity:1"/>
   <stop offset="50%" style="stop-color: #fbfd54; stop-opacity:1"/>
   <stop offset="100%" style="stop-color: #0f83ae; stop-opacity:1"/>
  </linearGradient>
 </defs>
 <g transform="translate(-612 -160)">
  <path style="fill:url(#oomox)" class="ColorScheme-Text" d="M620.5 160c-4.136 0-7.5 3.364-7.5 7.5s3.364 7.5 7.5 7.5 7.5-3.364 7.5-7.5-3.364-7.5-7.5-7.5zm0 1c3.596 0 6.5 2.904 6.5 6.5s-2.904 6.5-6.5 6.5a6.492 6.492 0 0 1-6.5-6.5c0-3.596 2.904-6.5 6.5-6.5z"  font-family="sans-serif" font-weight="400" overflow="visible"/>
  <path style="fill:url(#oomox)" class="ColorScheme-Text" fill-rule="evenodd" d="M613.5 167v1h14v-1z"  font-family="sans-serif" font-weight="400" overflow="visible"/>
  <path style="fill:url(#oomox)" class="ColorScheme-Text" fill-rule="evenodd" d="M620.854 160.146l-.708.708c2.075 2.074 3.11 4.52 3.084 6.681-.025 2.197-1.007 4.535-3.084 6.611l.708.708c2.23-2.232 3.347-4.82 3.376-7.307.03-2.487-1.143-5.167-3.376-7.4z"  font-family="sans-serif" font-weight="400" overflow="visible"/>
  <path style="fill:url(#oomox)" class="ColorScheme-Text" fill-rule="evenodd" d="M620.146 160.146c-2.233 2.234-3.405 4.914-3.376 7.4.029 2.488 1.145 5.076 3.376 7.308l.708-.708c-2.077-2.076-3.059-4.414-3.084-6.61-.026-2.162 1.01-4.608 3.084-6.682z"  font-family="sans-serif" font-weight="400" overflow="visible"/>
 </g>
</svg>
