<svg xmlns="http://www.w3.org/2000/svg" style="isolation:isolate" width="16" height="16" viewBox="0 0 16 16">
 <defs>
  <style id="current-color-scheme" type="text/css">
   .ColorScheme-Text { color:#eff0f2; } .ColorScheme-Highlight { color:#5294e2; }
  </style>
  <linearGradient id="arrongin" x1="0%" x2="0%" y1="0%" y2="100%">
   <stop offset="0%" style="stop-color:#dd9b44; stop-opacity:1"/>
   <stop offset="100%" style="stop-color:#ad6c16; stop-opacity:1"/>
  </linearGradient>
  <linearGradient id="aurora" x1="0%" x2="0%" y1="0%" y2="100%">
   <stop offset="0%" style="stop-color:#09D4DF; stop-opacity:1"/>
   <stop offset="100%" style="stop-color:#9269F4; stop-opacity:1"/>
  </linearGradient>
  <linearGradient id="fitdance" x1="0%" x2="0%" y1="0%" y2="100%">
   <stop offset="0%" style="stop-color:#1AD6AB; stop-opacity:1"/>
   <stop offset="100%" style="stop-color:#329DB6; stop-opacity:1"/>
  </linearGradient>
  <linearGradient id="oomox" x1="0%" x2="0%" y1="0%" y2="100%">
   <stop offset="0%" style="stop-color:#928374; stop-opacity:1"/>
   <stop offset="100%" style="stop-color:#928374; stop-opacity:1"/>
  </linearGradient>
  <linearGradient id="rainblue" x1="0%" x2="0%" y1="0%" y2="100%">
   <stop offset="0%" style="stop-color:#00F260; stop-opacity:1"/>
   <stop offset="100%" style="stop-color:#0575E6; stop-opacity:1"/>
  </linearGradient>
  <linearGradient id="sunrise" x1="0%" x2="0%" y1="0%" y2="100%">
   <stop offset="0%" style="stop-color: #FF8501; stop-opacity:1"/>
   <stop offset="100%" style="stop-color: #FFCB01; stop-opacity:1"/>
  </linearGradient>
  <linearGradient id="telinkrin" x1="0%" x2="0%" y1="0%" y2="100%">
   <stop offset="0%" style="stop-color: #b2ced6; stop-opacity:1"/>
   <stop offset="100%" style="stop-color: #6da5b7; stop-opacity:1"/>
  </linearGradient>
  <linearGradient id="60spsycho" x1="0%" x2="0%" y1="0%" y2="100%">
   <stop offset="0%" style="stop-color: #df5940; stop-opacity:1"/>
   <stop offset="25%" style="stop-color: #d8d15f; stop-opacity:1"/>
   <stop offset="50%" style="stop-color: #e9882a; stop-opacity:1"/>
   <stop offset="100%" style="stop-color: #279362; stop-opacity:1"/>
  </linearGradient>
  <linearGradient id="90ssummer" x1="0%" x2="0%" y1="0%" y2="100%">
   <stop offset="0%" style="stop-color: #f618c7; stop-opacity:1"/>
   <stop offset="20%" style="stop-color: #94ffab; stop-opacity:1"/>
   <stop offset="50%" style="stop-color: #fbfd54; stop-opacity:1"/>
   <stop offset="100%" style="stop-color: #0f83ae; stop-opacity:1"/>
  </linearGradient>
  <clipPath id="_clipPath_8BBN0ral4Rbu4BQOcxs2jLesEEFQDAVA">
   <rect width="16" height="16"/>
  </clipPath>
 </defs>
 <g clip-path="url(#_clipPath_8BBN0ral4Rbu4BQOcxs2jLesEEFQDAVA)">
  <rect style="fill:url(#oomox)" class="ColorScheme-Text" width="4.625" height="3.594" x="17.09" y="-.09" transform="matrix(1,0,0,1,0,0)"/>
  <g>
   <path style="fill:url(#oomox)" class="ColorScheme-Text" d="M 0.984 0.734 L 0.984 12.734 L 8.172 12.734 L 8.25 11.766 L 11.188 8.469 Q 11.305 8.517 11.672 8.516 Q 13.703 9.781 14.984 10.609 L 14.984 0.734 L 0.984 0.734 Z M 2.691 1.734 L 13.277 1.734 L 7.984 7.027 L 2.691 1.734 Z M 1.984 2.441 L 5.918 6.375 L 1.984 10.965 L 1.984 2.441 Z M 13.984 2.441 L 13.984 9.766 L 11.745 8.353 L 10.051 6.375 L 13.984 2.441 Z M 6.627 7.084 L 7.984 8.441 L 9.342 7.084 L 10.79 8.774 L 8.172 11.734 L 2.641 11.734 L 6.627 7.084 Z"/>
   <path style="fill:url(#oomox)" class="ColorScheme-Text" fill-rule="evenodd" d="M 7.5 11.875 C 7.5 9.667 9.292 7.875 11.5 7.875 C 13.708 7.875 15.5 9.667 15.5 11.875 C 15.5 14.083 13.708 15.875 11.5 15.875 C 9.292 15.875 7.5 14.083 7.5 11.875 Z M 14.181 12.32 L 11.942 12.32 L 11.942 14.553 L 11.046 14.553 L 11.046 12.32 L 8.819 12.32 L 8.819 11.43 L 11.046 11.43 L 11.046 9.197 L 11.942 9.197 L 11.942 11.43 L 14.181 11.43 L 14.181 12.32 Z"/>
  </g>
 </g>
</svg>
