<svg xmlns="http://www.w3.org/2000/svg" style="isolation:isolate" width="16" height="16" viewBox="0 0 16 16">
 <defs>
  <style id="current-color-scheme" type="text/css">
   .ColorScheme-Text { color:#eff0f2; } .ColorScheme-Highlight { color:#5294e2; }
  </style>
  <linearGradient id="arrongin" x1="0%" x2="0%" y1="0%" y2="100%">
   <stop offset="0%" style="stop-color:#dd9b44; stop-opacity:1"/>
   <stop offset="100%" style="stop-color:#ad6c16; stop-opacity:1"/>
  </linearGradient>
  <linearGradient id="aurora" x1="0%" x2="0%" y1="0%" y2="100%">
   <stop offset="0%" style="stop-color:#09D4DF; stop-opacity:1"/>
   <stop offset="100%" style="stop-color:#9269F4; stop-opacity:1"/>
  </linearGradient>
  <linearGradient id="fitdance" x1="0%" x2="0%" y1="0%" y2="100%">
   <stop offset="0%" style="stop-color:#1AD6AB; stop-opacity:1"/>
   <stop offset="100%" style="stop-color:#329DB6; stop-opacity:1"/>
  </linearGradient>
  <linearGradient id="oomox" x1="0%" x2="0%" y1="0%" y2="100%">
   <stop offset="0%" style="stop-color:#928374; stop-opacity:1"/>
   <stop offset="100%" style="stop-color:#928374; stop-opacity:1"/>
  </linearGradient>
  <linearGradient id="rainblue" x1="0%" x2="0%" y1="0%" y2="100%">
   <stop offset="0%" style="stop-color:#00F260; stop-opacity:1"/>
   <stop offset="100%" style="stop-color:#0575E6; stop-opacity:1"/>
  </linearGradient>
  <linearGradient id="sunrise" x1="0%" x2="0%" y1="0%" y2="100%">
   <stop offset="0%" style="stop-color: #FF8501; stop-opacity:1"/>
   <stop offset="100%" style="stop-color: #FFCB01; stop-opacity:1"/>
  </linearGradient>
  <linearGradient id="telinkrin" x1="0%" x2="0%" y1="0%" y2="100%">
   <stop offset="0%" style="stop-color: #b2ced6; stop-opacity:1"/>
   <stop offset="100%" style="stop-color: #6da5b7; stop-opacity:1"/>
  </linearGradient>
  <linearGradient id="60spsycho" x1="0%" x2="0%" y1="0%" y2="100%">
   <stop offset="0%" style="stop-color: #df5940; stop-opacity:1"/>
   <stop offset="25%" style="stop-color: #d8d15f; stop-opacity:1"/>
   <stop offset="50%" style="stop-color: #e9882a; stop-opacity:1"/>
   <stop offset="100%" style="stop-color: #279362; stop-opacity:1"/>
  </linearGradient>
  <linearGradient id="90ssummer" x1="0%" x2="0%" y1="0%" y2="100%">
   <stop offset="0%" style="stop-color: #f618c7; stop-opacity:1"/>
   <stop offset="20%" style="stop-color: #94ffab; stop-opacity:1"/>
   <stop offset="50%" style="stop-color: #fbfd54; stop-opacity:1"/>
   <stop offset="100%" style="stop-color: #0f83ae; stop-opacity:1"/>
  </linearGradient>
 </defs>
 <path style="fill:url(#oomox)" class="ColorScheme-Text" d="M 7.991 0 C 3.576 0.006 0 3.585 0 8 C 0 12.418 3.582 16 8 16 C 12.418 16 16 12.418 16 8 C 15.996 5.13 14.455 2.482 11.962 1.061 C 11.976 1.157 11.984 1.253 11.984 1.35 L 11.984 2.871 C 13.018 3.917 13.598 5.329 13.6 6.8 C 13.6 9.892 11.093 12.4 8 12.4 C 4.907 12.4 2.4 9.892 2.4 6.8 C 2.402 4.122 4.3 1.821 6.927 1.308 C 7.183 0.99 7.47 0.634 7.598 0.471 C 7.715 0.322 7.828 0.184 7.938 0.057 C 7.954 0.039 7.974 0.019 7.991 0 Z M 9.699 1.2 C 9.661 1.198 9.627 1.201 9.604 1.211 C 9.563 1.23 9.369 1.455 9.17 1.707 C 8.972 1.96 8.538 2.5 8.206 2.91 C 7.875 3.319 7.244 4.104 6.808 4.651 C 5.95 5.727 5.813 5.943 5.672 6.454 C 5.584 6.773 5.576 7.289 5.655 7.588 C 5.871 8.408 6.593 9.024 7.525 9.182 C 7.567 9.189 7.714 9.198 7.849 9.2 C 8.414 9.208 8.895 9.009 9.302 8.599 C 9.516 8.382 9.575 8.297 9.707 8.021 C 9.792 7.843 9.884 7.605 9.913 7.494 C 9.988 7.209 10.023 6.621 9.984 5.274 L 9.984 1.35 C 9.969 1.27 9.814 1.209 9.699 1.2 Z"/>
</svg>
