<svg xmlns="http://www.w3.org/2000/svg" style="isolation:isolate" width="16" height="16" viewBox="0 0 16 16">
 <defs>
  <style id="current-color-scheme" type="text/css">
   .ColorScheme-Text { color:#eff0f2; } .ColorScheme-Highlight { color:#5294e2; }
  </style>
  <linearGradient id="arrongin" x1="0%" x2="0%" y1="0%" y2="100%">
   <stop offset="0%" style="stop-color:#dd9b44; stop-opacity:1"/>
   <stop offset="100%" style="stop-color:#ad6c16; stop-opacity:1"/>
  </linearGradient>
  <linearGradient id="aurora" x1="0%" x2="0%" y1="0%" y2="100%">
   <stop offset="0%" style="stop-color:#09D4DF; stop-opacity:1"/>
   <stop offset="100%" style="stop-color:#9269F4; stop-opacity:1"/>
  </linearGradient>
  <linearGradient id="fitdance" x1="0%" x2="0%" y1="0%" y2="100%">
   <stop offset="0%" style="stop-color:#1AD6AB; stop-opacity:1"/>
   <stop offset="100%" style="stop-color:#329DB6; stop-opacity:1"/>
  </linearGradient>
  <linearGradient id="oomox" x1="0%" x2="0%" y1="0%" y2="100%">
   <stop offset="0%" style="stop-color:#928374; stop-opacity:1"/>
   <stop offset="100%" style="stop-color:#928374; stop-opacity:1"/>
  </linearGradient>
  <linearGradient id="rainblue" x1="0%" x2="0%" y1="0%" y2="100%">
   <stop offset="0%" style="stop-color:#00F260; stop-opacity:1"/>
   <stop offset="100%" style="stop-color:#0575E6; stop-opacity:1"/>
  </linearGradient>
  <linearGradient id="sunrise" x1="0%" x2="0%" y1="0%" y2="100%">
   <stop offset="0%" style="stop-color: #FF8501; stop-opacity:1"/>
   <stop offset="100%" style="stop-color: #FFCB01; stop-opacity:1"/>
  </linearGradient>
  <linearGradient id="telinkrin" x1="0%" x2="0%" y1="0%" y2="100%">
   <stop offset="0%" style="stop-color: #b2ced6; stop-opacity:1"/>
   <stop offset="100%" style="stop-color: #6da5b7; stop-opacity:1"/>
  </linearGradient>
  <linearGradient id="60spsycho" x1="0%" x2="0%" y1="0%" y2="100%">
   <stop offset="0%" style="stop-color: #df5940; stop-opacity:1"/>
   <stop offset="25%" style="stop-color: #d8d15f; stop-opacity:1"/>
   <stop offset="50%" style="stop-color: #e9882a; stop-opacity:1"/>
   <stop offset="100%" style="stop-color: #279362; stop-opacity:1"/>
  </linearGradient>
  <linearGradient id="90ssummer" x1="0%" x2="0%" y1="0%" y2="100%">
   <stop offset="0%" style="stop-color: #f618c7; stop-opacity:1"/>
   <stop offset="20%" style="stop-color: #94ffab; stop-opacity:1"/>
   <stop offset="50%" style="stop-color: #fbfd54; stop-opacity:1"/>
   <stop offset="100%" style="stop-color: #0f83ae; stop-opacity:1"/>
  </linearGradient>
  <clipPath id="_clipPath_Rmyhxyx8nacM8hoMX7qF9emynFN51hVl">
   <rect width="16" height="16"/>
  </clipPath>
 </defs>
 <g clip-path="url(#_clipPath_Rmyhxyx8nacM8hoMX7qF9emynFN51hVl)">
  <rect style="fill:url(#oomox)" class="ColorScheme-Text" fill-opacity="0" width="16" height="16"/>
  <g opacity=".4">
   <path style="fill:url(#oomox)" class="ColorScheme-Text" fill-rule="evenodd" d="M 3.804 15.38 C 3.84 15.383 3.871 15.387 3.907 15.389 C 3.935 15.39 3.974 15.389 4.003 15.391 L 4 14.897 L 5.733 13.304 L 5.733 12.773 L 6.533 11.977 L 6.533 11.579 L 6.933 11.181 L 6.933 10.119 L 6.4 9.588 L 5.333 9.588 L 4.8 9.058 L 3.467 9.058 L 2.933 9.588 L 2.933 10.916 L 4.004 11.849 L 4 13.039 L 3.6 13.437 L 3.6 15.162 L 3.804 15.38 L 3.804 15.38 L 3.804 15.38 L 3.804 15.38 L 3.804 15.38 L 3.804 15.38 L 3.804 15.38 L 3.804 15.38 L 3.804 15.38 L 3.804 15.38 Z M 6.133 5.077 L 5.733 5.475 L 6.133 5.475 L 6.267 5.607 L 6.4 5.607 L 6.533 5.475 L 6.133 5.077 L 6.133 5.077 L 6.133 5.077 L 6.133 5.077 L 6.133 5.077 L 6.133 5.077 L 6.133 5.077 L 6.133 5.077 L 6.133 5.077 L 6.133 5.077 Z M 11.2 6.934 L 9.6 6.934 L 8.667 7.863 L 8.667 9.19 L 9.333 9.854 L 10.267 9.854 L 10.667 10.252 L 10.667 10.65 L 10.933 10.916 L 10.933 12.508 L 11.946 13.573 L 13.618 11.909 L 13.6 10.385 L 14.933 9.058 L 14.4 9.058 L 13.067 7.731 L 13.067 7.2 L 11.467 7.2 L 11.2 6.934 L 11.2 6.934 L 11.2 6.934 L 11.2 6.934 L 11.2 6.934 L 11.2 6.934 L 11.2 6.934 L 11.2 6.934 L 11.2 6.934 Z M 16 7.465 L 16 6.068 C 16 5.466 15.989 4.928 15.961 4.448 C 15.947 4.209 15.928 3.983 15.904 3.771 C 15.88 3.56 15.851 3.362 15.816 3.176 C 15.781 2.991 15.74 2.818 15.692 2.657 C 15.643 2.497 15.588 2.348 15.526 2.21 C 15.486 2.122 15.437 2.047 15.39 1.968 L 15.2 2.157 L 14.4 2.157 L 13.6 2.953 L 13.067 2.422 L 11.467 2.422 L 10.667 3.219 L 10.667 3.882 L 11.467 3.882 L 11.467 3.484 L 12 3.484 L 12 4.015 L 11.733 4.28 L 10.667 4.298 L 10.267 4.678 L 9.733 4.678 L 9.733 5.209 L 9.333 5.607 L 9.333 6.403 L 10.133 6.403 L 10.667 5.873 L 11.2 5.873 L 11.2 6.138 L 11.733 6.669 L 12 6.669 L 12 6.403 L 11.467 5.873 L 12 5.873 L 12.533 6.403 L 13.2 6.403 L 12.8 6.005 L 13.2 5.607 L 13.6 5.607 L 14 6.005 L 13.6 6.005 L 13.2 6.403 L 13.593 6.794 L 13.6 7.2 L 13.067 7.2 L 14.667 8.792 L 14.933 8.792 L 15.2 8.527 L 15.733 7.996 L 15.2 7.465 L 16 7.465 L 16 7.465 L 16 7.465 L 16 7.465 L 16 7.465 L 16 7.465 L 16 7.465 L 16 7.465 Z M 9.867 4.413 L 9.867 4.015 L 10.267 3.617 L 10.267 4.413 L 9.867 4.413 L 9.867 4.413 L 9.867 4.413 L 9.867 4.413 L 9.867 4.413 L 9.867 4.413 L 9.867 4.413 Z M 14 12.243 L 14 11.411 L 14.533 10.916 L 14.533 12.243 L 14 12.243 L 14 12.243 L 14 12.243 L 14 12.243 L 14 12.243 L 14 12.243 Z M 8.533 0.565 L 5.535 0.565 C 5.484 0.565 5.448 0.568 5.397 0.568 L 4.933 1.095 L 5.733 1.892 L 5.733 2.724 L 6.667 3.749 L 7.2 3.749 L 7.2 3.219 L 8 2.422 L 8 1.892 L 8.533 1.361 L 8.533 0.565 L 8.533 0.565 L 8.533 0.565 L 8.533 0.565 L 8.533 0.565 Z M 7.867 3.484 L 8.267 3.484 L 8.667 3.882 L 7.867 3.882 L 7.867 3.484 L 7.867 3.484 L 7.867 3.484 L 7.867 3.484 Z M 4.267 7.863 L 3.867 7.863 L 3.467 8.262 L 4.267 8.262 L 4.267 7.863 L 4.267 7.863 L 4.267 7.863 Z M 0.71 1.802 C 0.703 1.812 0.694 1.819 0.687 1.829 C 0.608 1.946 0.537 2.072 0.474 2.21 C 0.412 2.348 0.357 2.497 0.308 2.657 C 0.26 2.818 0.219 2.991 0.184 3.176 C 0.149 3.362 0.12 3.56 0.096 3.771 C 0.072 3.983 0.053 4.209 0.039 4.448 C 0.011 4.928 0 5.466 0 6.068 L 0 7.465 L 0.533 7.996 L 1.333 7.996 L 2.667 9.323 L 2.667 7.731 L 3.467 6.934 L 4 6.934 L 4.8 6.138 L 5.6 6.138 L 5.2 5.74 L 6 4.811 L 5.2 4.015 L 4 4.015 L 4 5.077 L 3.467 5.077 L 2.933 4.546 L 2.933 4.015 L 3.733 3.219 L 4.4 3.219 L 4.4 2.688 L 3.6 1.892 L 2.267 1.892 L 2.267 2.688 L 1.6 2.688 L 0.71 1.802 L 0.71 1.802 Z M 4 0.601 C 3.972 0.603 3.935 0.602 3.907 0.603 C 3.666 0.618 3.439 0.636 3.226 0.66 C 3.013 0.683 2.814 0.712 2.627 0.747 C 2.461 0.778 2.308 0.816 2.161 0.858 L 2.667 1.361 L 4 1.361 L 4 0.601 Z"/>
  </g>
  <path style="fill:url(#oomox)" class="ColorScheme-Text" fill-rule="evenodd" d="M 8.843 7.115 L 8.843 10.341 C 8.843 10.607 9.058 10.823 9.324 10.823 L 11.058 10.823 C 11.324 10.823 11.539 10.607 11.539 10.341 L 11.539 7.115 L 12.068 7.115 C 12.24 7.115 12.4 7.034 12.486 6.903 C 12.572 6.771 12.572 6.609 12.486 6.478 L 11.547 5.049 L 10.609 3.619 C 10.523 3.488 10.363 3.407 10.191 3.407 C 10.018 3.407 9.859 3.488 9.773 3.619 L 8.834 5.049 L 7.896 6.478 C 7.856 6.539 7.834 6.608 7.832 6.678 C 7.828 6.793 7.877 6.904 7.968 6.986 C 8.059 7.069 8.184 7.115 8.314 7.115 L 8.843 7.115 Z M 4.461 9.138 L 4.461 5.911 C 4.461 5.645 4.676 5.43 4.942 5.43 L 6.676 5.43 C 6.941 5.43 7.157 5.645 7.157 5.911 L 7.157 9.138 L 7.686 9.138 C 7.858 9.138 8.018 9.218 8.104 9.35 C 8.19 9.481 8.19 9.643 8.104 9.774 L 7.165 11.204 L 6.227 12.633 C 6.141 12.764 5.981 12.845 5.809 12.845 C 5.636 12.845 5.477 12.764 5.391 12.633 L 4.452 11.204 L 3.514 9.774 C 3.474 9.714 3.452 9.645 3.45 9.575 C 3.446 9.46 3.495 9.349 3.586 9.266 C 3.677 9.184 3.802 9.137 3.932 9.138 L 4.461 9.138 Z"/>
 </g>
</svg>
