<svg xmlns="http://www.w3.org/2000/svg" width="16" height="16" version="1.1">
<defs>
  <style id="current-color-scheme" type="text/css">
   .ColorScheme-Text { color:#eff0f2; } .ColorScheme-Highlight { color:#5294e2; }
  </style>
  <linearGradient id="arrongin" x1="0%" x2="0%" y1="0%" y2="100%">
   <stop offset="0%" style="stop-color:#dd9b44; stop-opacity:1"/>
   <stop offset="100%" style="stop-color:#ad6c16; stop-opacity:1"/>
  </linearGradient>
  <linearGradient id="aurora" x1="0%" x2="0%" y1="0%" y2="100%">
   <stop offset="0%" style="stop-color:#09D4DF; stop-opacity:1"/>
   <stop offset="100%" style="stop-color:#9269F4; stop-opacity:1"/>
  </linearGradient>
  <linearGradient id="fitdance" x1="0%" x2="0%" y1="0%" y2="100%">
   <stop offset="0%" style="stop-color:#1AD6AB; stop-opacity:1"/>
   <stop offset="100%" style="stop-color:#329DB6; stop-opacity:1"/>
  </linearGradient>
  <linearGradient id="oomox" x1="0%" x2="0%" y1="0%" y2="100%">
   <stop offset="0%" style="stop-color:#928374; stop-opacity:1"/>
   <stop offset="100%" style="stop-color:#928374; stop-opacity:1"/>
  </linearGradient>
  <linearGradient id="rainblue" x1="0%" x2="0%" y1="0%" y2="100%">
   <stop offset="0%" style="stop-color:#00F260; stop-opacity:1"/>
   <stop offset="100%" style="stop-color:#0575E6; stop-opacity:1"/>
  </linearGradient>
  <linearGradient id="sunrise" x1="0%" x2="0%" y1="0%" y2="100%">
   <stop offset="0%" style="stop-color: #FF8501; stop-opacity:1"/>
   <stop offset="100%" style="stop-color: #FFCB01; stop-opacity:1"/>
  </linearGradient>
  <linearGradient id="telinkrin" x1="0%" x2="0%" y1="0%" y2="100%">
   <stop offset="0%" style="stop-color: #b2ced6; stop-opacity:1"/>
   <stop offset="100%" style="stop-color: #6da5b7; stop-opacity:1"/>
  </linearGradient>
  <linearGradient id="60spsycho" x1="0%" x2="0%" y1="0%" y2="100%">
   <stop offset="0%" style="stop-color: #df5940; stop-opacity:1"/>
   <stop offset="25%" style="stop-color: #d8d15f; stop-opacity:1"/>
   <stop offset="50%" style="stop-color: #e9882a; stop-opacity:1"/>
   <stop offset="100%" style="stop-color: #279362; stop-opacity:1"/>
  </linearGradient>
  <linearGradient id="90ssummer" x1="0%" x2="0%" y1="0%" y2="100%">
   <stop offset="0%" style="stop-color: #f618c7; stop-opacity:1"/>
   <stop offset="20%" style="stop-color: #94ffab; stop-opacity:1"/>
   <stop offset="50%" style="stop-color: #fbfd54; stop-opacity:1"/>
   <stop offset="100%" style="stop-color: #0f83ae; stop-opacity:1"/>
  </linearGradient>
 </defs>
 <path d="m 7.555177,15.495776 c 0.021543,-0.003 0.037795,-0.0076 0.043238,-0.01512 0.011339,-0.01512 0.00605,-0.05669 -0.011339,-0.09071 -0.014362,-0.02646 -0.016252,-0.048 -0.00529,-0.0548 0.00416,-0.0026 0.043276,-0.0076 0.08708,-0.0076 0.089537,-0.0038 0.1340976,-0.0189 0.168,-0.04536 0.050305,-0.04157 0.05862,-0.104692 0.023055,-0.176126 C 7.832331,15.0505 7.781156,14.985116 7.7181509,14.924643 7.6192789,14.829773 7.5376785,14.776864 7.4317383,14.73869 7.3462453,14.70845 7.3315809,14.69485 7.3152155,14.63362 7.3114355,14.6185 7.2966955,14.59091 7.2827115,14.57012 7.2381505,14.50473 7.2157385,14.401554 7.1975585,14.178183 7.1779045,13.934782 7.1741255,13.77642 7.1707235,13.053736 l -0.00333,-0.738141 0.037946,-0.07559 c 0.069317,-0.138331 0.1325859,-0.277795 0.1493292,-0.329197 0.028346,-0.08655 0.042671,-0.176882 0.061304,-0.386343 0.034394,-0.384378 0.07166,-0.504227 0.3718677,-1.190703 C 8.0406573,9.7557318 8.2029805,9.3562735 8.3025937,9.0671018 8.3947767,8.7995113 8.4708582,8.6424341 8.5410063,8.5749696 c 0.025323,-0.022677 0.062022,-0.043087 0.084586,-0.043087 0.036661,0 0.092901,0.048378 0.1393512,0.1201889 0.04543,0.070299 0.1419968,0.2747717 0.2051527,0.4345323 0.1134614,0.2868661 0.2039055,0.5761134 0.2880756,0.9209572 0.1092284,0.44761 0.1692851,0.627516 0.3032693,0.90875 0.098343,0.206362 0.1128947,0.255118 0.1344007,0.449159 0.02532,0.228662 0.07434,0.412838 0.149707,0.562734 0.02948,0.05896 0.05363,0.09373 0.09725,0.140599 0.05397,0.0582 0.06051,0.0703 0.08239,0.151937 0.01134,0.04195 0.05684,0.199937 0.101404,0.351496 0.127597,0.433927 0.2095,0.737499 0.303345,1.124182 0.05435,0.224126 0.09698,0.380674 0.13765,0.506003 0.04362,0.134552 0.04656,0.164788 0.02797,0.288756 -0.0155,0.103559 -0.01398,0.167055 0.0068,0.24189 0.03814,0.137575 0.126274,0.220725 0.274583,0.25852 0.113877,0.03024 0.19011,0.03402 0.506819,0.03402 0.311433,3.02e-4 0.35161,-0.0023 0.431388,-0.03024 0.04626,-0.01512 0.08606,-0.04724 0.09921,-0.08013 0.0053,-0.01134 0.01172,-0.04611 0.01398,-0.07294 0.0057,-0.05972 0.01134,-0.06614 0.05019,-0.05631 0.03213,0.0076 0.05443,0.0023 0.07861,-0.0189 0.06301,-0.05858 0.06637,-0.235465 0.0057,-0.294425 -0.04721,-0.04573 -0.122116,-0.06161 -0.337133,-0.07105 -0.221594,-0.01134 -0.298432,-0.02646 -0.407358,-0.08693 -0.06584,-0.03779 -0.115956,-0.08126 -0.134324,-0.119055 -0.0076,-0.01512 -0.02079,-0.06274 -0.0291,-0.104693 -0.0083,-0.04195 -0.02268,-0.09827 -0.03175,-0.125102 -0.02305,-0.06841 -0.112214,-0.249827 -0.214979,-0.438765 -0.155641,-0.286111 -0.207836,-0.411213 -0.269027,-0.645506 -0.02116,-0.08164 -0.07703,-0.281953 -0.123742,-0.444888 -0.04671,-0.162898 -0.0909,-0.325417 -0.09823,-0.360945 -0.0189,-0.0926 -0.02154,-0.182551 -0.01172,-0.392806 0.01058,-0.22148 0.01058,-0.383093 1.81e-4,-0.447799 -0.0042,-0.02646 -0.02192,-0.09751 -0.03893,-0.158362 -0.04596,-0.162897 -0.05276,-0.212031 -0.05295,-0.379993 -2.08e-4,-0.192756 0.0155,-0.345827 0.08481,-0.829721 0.07109,-0.4959492 0.08836,-0.6742295 0.0929,-0.9595082 0.0019,-0.1182992 0.0053,-0.2173228 0.0076,-0.2199685 0.0023,-0.00265 0.153827,-0.057071 0.336567,-0.1213228 0.18274,-0.064252 0.37217,-0.1311496 0.420953,-0.1492914 0.423311,-0.1557165 0.624264,-0.2668346 0.834251,-0.4606488 0.481742,-0.4446992 0.790231,-1.0848378 1.077585,-2.2360818 0.140863,-0.5643213 0.205455,-0.9246614 0.238148,-1.3285418 0.0064,-0.07748 0.01398,-0.2486929 0.0257,-0.5598614 0.01398,-0.3824881 0.03553,-0.4565669 0.221707,-0.7733291 0.07835,-0.1334173 0.156397,-0.2823307 0.184101,-0.351496 0.01096,-0.026457 0.02683,-0.084661 0.03515,-0.1266142 0.0083,-0.041953 0.01776,-0.082394 0.02117,-0.089953 0.0068,-0.015118 0.161272,-0.093354 0.288491,-0.1447559 0.09514,-0.038551 0.284302,-0.1322834 0.338803,-0.167811 0.02268,-0.015118 0.06255,-0.043843 0.08867,-0.065008 0.02608,-0.022677 0.05072,-0.040819 0.05465,-0.043465 0.0042,-0.0034 0.03798,0.00756 0.08549,0.030236 0.04309,0.018898 0.102576,0.042709 0.132208,0.052158 0.04989,0.015118 0.0627,0.015118 0.174198,0.015118 0.135459,3.023e-4 0.186293,-0.00756 0.272353,-0.050268 0.09539,-0.045732 0.12412,-0.081638 0.136479,-0.1704567 0.01172,-0.084661 -7.18e-4,-0.1315276 -0.05412,-0.2040945 -0.01361,-0.018898 -0.0072,-0.030236 0.02948,-0.056693 0.05061,-0.037795 0.059,-0.061606 0.059,-0.1772599 0,-0.1235905 -0.0027,-0.1292598 -0.106054,-0.2362204 -0.09218,-0.095244 -0.166677,-0.1931339 -0.2208,-0.2891339 -0.100271,-0.1783937 -0.135193,-0.2256378 -0.184554,-0.2490708 -0.0562,-0.026457 -0.200693,-0.037795 -0.644103,-0.045354 -0.465457,-0.00756 -0.613331,-0.018898 -0.7508,-0.054425 -0.113272,-0.030236 -0.18051,-0.066898 -0.309845,-0.176126 -0.08617,-0.072945 -0.09653,-0.075968 -0.269745,-0.076346 -0.15394,-3.023e-4 -0.246236,0.00756 -0.380013,0.034016 -0.101669,0.018898 -0.162142,0.018898 -0.205833,0.00378 -0.01739,-0.00756 -0.06731,-0.026457 -0.110853,-0.047622 -0.04356,-0.018906 -0.09345,-0.041205 -0.110878,-0.046496 -0.123704,-0.039307 -0.233802,-0.026457 -0.327685,0.041953 -0.08598,0.061228 -0.144151,0.1424882 -0.258142,0.3594331 -0.03935,0.074835 -0.105864,0.1972913 -0.147855,0.2721259 -0.16029,0.2861103 -0.210935,0.440126 -0.217549,0.6618709 -0.0053,0.1708346 0.0091,0.2411338 0.09853,0.4887685 0.04838,0.1337953 0.04834,0.1334173 0.0483,0.5214236 -1.1e-5,0.2226142 -0.0029,0.382337 -0.0083,0.4496882 -0.02835,0.3643464 -0.06187,0.6618708 -0.09955,0.8835401 -0.03923,0.2309292 -0.06573,0.3065197 -0.1296,0.3707717 -0.08039,0.080882 -0.194532,0.1073386 -0.465668,0.1073386 -0.229077,0 -0.332938,-0.015118 -0.440292,-0.070299 C 10.082011,4.3233035 9.8608438,4.103335 9.6662058,3.8223271 9.5838875,3.70365 9.5106025,3.583461 9.3930592,3.3750956 9.050445,2.7676122 8.8672664,2.5363807 8.5000286,2.247776 8.2787373,2.0739177 8.1679971,1.9083744 8.0771033,1.6161791 7.9846943,1.3191083 7.8453805,1.1057162 7.6231367,0.9212374 7.3554705,0.6990012 7.124772,0.6230327 6.7153244,0.6226547 6.5487606,0.6223524 6.476685,0.6302147 6.368515,0.6566707 6.1415921,0.7144977 5.9883096,0.8309069 5.8959153,1.0153478 5.8607653,1.0856468 5.8417923,1.1608597 5.7740633,1.5017352 5.7056543,1.8460502 5.6680098,1.9785604 5.5977862,2.1224092 5.5488792,2.2225667 5.4955877,2.2962675 5.410057,2.3816848 5.3064224,2.4852439 5.2347625,2.5207714 5.1715688,2.499984 5.1196758,2.4810864 5.0927658,2.4387557 4.8994051,2.0529415 4.7216539,1.6984218 4.6745232,1.6087337 4.6022586,1.4882045 4.4774964,1.2803305 4.3732193,1.1858423 4.2312224,1.1525825 4.1904034,1.1412435 4.1561984,1.1412435 4.0330618,1.1412435 3.8612823,1.1419994 3.8416665,1.1450235 3.7132004,1.2005825 3.3761043,1.3453384 3.1142284,1.5596376 3.0325717,1.7576848 2.9892587,1.8627557 2.8220142,2.386636 2.7225371,2.7289478 2.6658061,2.9239714 2.6429401,2.9874675 2.5950158,3.0834675 2.5345438,3.2044124 2.5027958,3.2448533 2.3479859,3.3986801 2.2463544,3.4995935 2.1881878,3.5630895 2.1480488,3.6171368 2.0017438,3.8136722 1.8742978,4.0471714 1.7220398,4.397647 c -0.231194,0.5321575 -0.311396,0.8054551 -0.336756,1.1473512 -0.01096,0.1462677 -0.0045,0.4765228 0.01625,0.8208755 0.02041,0.3424252 0.01965,0.4858961 -0.0032,0.557367 -0.01663,0.052535 -0.06694,0.1545826 -0.104315,0.2120315 -0.05,0.076724 -0.07948,0.1009133 -0.310488,0.2528503 -0.08217,0.054047 -0.157229,0.1092284 -0.196347,0.144378 -0.164069,0.1470236 -0.272088,0.3322205 -0.28611,0.4899779 -0.0045,0.052158 0.0053,0.086551 0.02646,0.091843 0.04052,0.011338 0.276019,-0.1012914 0.565814,-0.2679685 0.152013,-0.087307 0.241965,-0.1455118 0.354746,-0.2294174 0.114218,-0.084661 0.151181,-0.1077165 0.181002,-0.1126299 0.01776,-0.00302 0.02268,-0.00113 0.0291,0.011339 0.03848,0.071811 0.193436,0.7046929 0.319143,1.3033701 0.112668,0.5365039 0.136366,0.7225322 0.136479,1.0721763 9.1e-5,0.27515 -0.01739,0.468208 -0.06074,0.669543 -0.03795,0.176504 -0.04244,0.226772 -0.03851,0.431396 0.0036,0.187464 0.01096,0.291779 0.05786,0.832856 0.04528,0.521122 0.05378,0.737462 0.04195,1.067225 -0.01323,0.37493 -0.06599,1.178608 -0.09902,1.513701 -0.02154,0.216945 -0.03704,0.292914 -0.08489,0.417222 -0.04702,0.121701 -0.0641,0.185197 -0.06811,0.253985 -0.0061,0.102425 0.01739,0.164787 0.08682,0.23433 0.08651,0.08655 0.20897,0.11074 0.4844901,0.09562 0.3739465,-0.0189 0.4333606,-0.03779 0.414463,-0.119055 -0.00945,-0.04044 -0.00718,-0.06425 0.00643,-0.07143 0.0068,-0.0038 0.035905,-0.0076 0.064932,-0.0076 0.068258,-7.6e-5 0.1245354,-0.01134 0.1444535,-0.02268 0.00869,-0.0076 0.023055,-0.02268 0.031748,-0.03969 0.01285,-0.02268 0.015874,-0.0378 0.015874,-0.07559 0,-0.04233 -0.00249,-0.05216 -0.022299,-0.08882 -0.026457,-0.04913 -0.095698,-0.120945 -0.1709859,-0.177259 -0.228737,-0.171213 -0.3894311,-0.362835 -0.4145801,-0.494854 -0.040025,-0.209764 -0.033638,-0.815698 0.015496,-1.493858 0.026835,-0.371528 0.037039,-0.547881 0.044372,-0.778999 0.00756,-0.238866 0.012472,-0.266078 0.072756,-0.405354 0.032126,-0.0737 0.068901,-0.202961 0.094942,-0.33222 0.03137,-0.154961 0.037039,-0.204095 0.037039,-0.307654 -5.67e-5,-0.106205 -0.01285,-0.173858 -0.049512,-0.264945 -0.03137,-0.07748 -0.037039,-0.119055 -0.028347,-0.212409 0.021539,-0.238441 0.06712,-0.459468 0.1363991,-0.662655 0.052876,-0.1549607 0.099061,-0.2604095 0.2102929,-0.4803024 0.1532598,-0.3027402 0.2099906,-0.4352882 0.2318362,-0.541304 0.037417,-0.1817952 0.043502,-0.5470488 0.011717,-0.7201133 -0.00605,-0.034016 -0.010961,-0.088819 -0.010583,-0.1235906 2.003e-4,-0.055937 0.00242,-0.068032 0.01852,-0.1031811 0.023055,-0.050268 0.067616,-0.09222 0.1128944,-0.1058268 0.06017,-0.018898 0.093884,-0.00756 0.1326237,0.034016 0.047735,0.052913 0.083187,0.1402205 0.1601385,0.3944315 0.079408,0.2622992 0.1965355,0.6225638 0.3231874,0.9937889 0.2830111,0.8297198 0.3501355,1.0939088 0.4272,1.6815498 0.060661,0.46235 0.107452,0.642255 0.2504693,0.962683 0.045392,0.10167 0.2142236,0.43612 0.3229229,0.639686 0.2225763,0.41673 0.3366803,0.716371 0.4401751,1.155892 0.064592,0.274394 0.1058267,0.403616 0.1665259,0.52252 0.028347,0.05594 0.040517,0.07143 0.1006867,0.130394 0.075893,0.07446 0.077518,0.07861 0.054538,0.130016 -0.010961,0.02268 -0.014362,0.04687 -0.01663,0.104314 -0.00367,0.09789 0.00643,0.133796 0.046753,0.169701 0.037417,0.03402 0.1333039,0.08013 0.1887874,0.09298 0.05382,0.01134 0.2040189,0.02268 0.356296,0.02268 0.1182237,2.27e-4 0.2419654,0.01134 0.2514898,0.0189 0.00869,0.0076 6.05e-5,0.02646 -0.054047,0.112252 -0.065424,0.103559 -0.081033,0.137197 -0.081109,0.173481 -9.07e-5,0.03893 0.026457,0.09071 0.077518,0.151181 0.110589,0.131149 0.238715,0.187086 0.4955905,0.215055 0.1485355,0.01512 0.4349632,0.02268 0.5095446,0.01134 z M 6.5741855,14.257603 C 6.5100845,14.223583 6.4366485,14.162733 6.3168753,14.042925 6.1948343,13.920847 6.1477414,13.864532 6.0659525,13.741697 5.9074769,13.503965 5.7899714,13.185351 5.6209698,12.535045 5.4785194,11.986938 5.4084848,11.642661 5.3722769,11.312784 c -0.015874,-0.142866 -0.015496,-0.615421 6.047e-4,-0.820196 0.013984,-0.181795 0.02041,-0.56296 0.010961,-0.6776688 -0.00378,-0.047244 -0.011339,-0.1296378 -0.01663,-0.1836851 -0.029102,-0.295559 -0.022299,-0.7987275 0.012095,-0.8983937 0.00605,-0.018898 0.011716,-0.022677 0.025323,-0.026457 0.027591,-0.0034 0.096038,0.018898 0.2172851,0.075591 0.185726,0.084283 0.3159307,0.1228346 0.4672478,0.1390866 0.1530331,0.015118 0.3516851,-0.015118 0.4803893,-0.073323 0.026835,-0.011339 0.051175,-0.022677 0.054085,-0.018898 0.010205,0.00756 0.013984,0.1024252 0.019653,0.4777701 0.00718,0.4772787 0.014362,0.5799689 0.063421,0.9395529 0.041839,0.305764 0.04645,0.359811 0.046828,0.54652 3.704e-4,0.185575 -0.00491,0.237354 -0.040857,0.399005 -0.035527,0.159118 -0.044523,0.244913 -0.044447,0.417864 6.05e-5,0.197292 0.018898,0.35452 0.067351,0.567005 0.1205291,0.526526 0.1347779,0.985587 0.047093,1.51782 -0.034772,0.21052 -0.1145197,0.55287 -0.1345134,0.576983 -0.010583,0.01134 -0.029102,0.0076 -0.074306,-0.01512 z" style="fill:url(#oomox)" class="ColorScheme-Text"/>
</svg>
