<svg xmlns="http://www.w3.org/2000/svg" style="isolation:isolate" width="16" height="16" viewBox="0 0 16 16">
 <defs>
  <style id="current-color-scheme" type="text/css">
   .ColorScheme-Text { color:#eff0f2; } .ColorScheme-Highlight { color:#5294e2; }
  </style>
  <linearGradient id="arrongin" x1="0%" x2="0%" y1="0%" y2="100%">
   <stop offset="0%" style="stop-color:#dd9b44; stop-opacity:1"/>
   <stop offset="100%" style="stop-color:#ad6c16; stop-opacity:1"/>
  </linearGradient>
  <linearGradient id="aurora" x1="0%" x2="0%" y1="0%" y2="100%">
   <stop offset="0%" style="stop-color:#09D4DF; stop-opacity:1"/>
   <stop offset="100%" style="stop-color:#9269F4; stop-opacity:1"/>
  </linearGradient>
  <linearGradient id="fitdance" x1="0%" x2="0%" y1="0%" y2="100%">
   <stop offset="0%" style="stop-color:#1AD6AB; stop-opacity:1"/>
   <stop offset="100%" style="stop-color:#329DB6; stop-opacity:1"/>
  </linearGradient>
  <linearGradient id="oomox" x1="0%" x2="0%" y1="0%" y2="100%">
   <stop offset="0%" style="stop-color:#928374; stop-opacity:1"/>
   <stop offset="100%" style="stop-color:#928374; stop-opacity:1"/>
  </linearGradient>
  <linearGradient id="rainblue" x1="0%" x2="0%" y1="0%" y2="100%">
   <stop offset="0%" style="stop-color:#00F260; stop-opacity:1"/>
   <stop offset="100%" style="stop-color:#0575E6; stop-opacity:1"/>
  </linearGradient>
  <linearGradient id="sunrise" x1="0%" x2="0%" y1="0%" y2="100%">
   <stop offset="0%" style="stop-color: #FF8501; stop-opacity:1"/>
   <stop offset="100%" style="stop-color: #FFCB01; stop-opacity:1"/>
  </linearGradient>
  <linearGradient id="telinkrin" x1="0%" x2="0%" y1="0%" y2="100%">
   <stop offset="0%" style="stop-color: #b2ced6; stop-opacity:1"/>
   <stop offset="100%" style="stop-color: #6da5b7; stop-opacity:1"/>
  </linearGradient>
  <linearGradient id="60spsycho" x1="0%" x2="0%" y1="0%" y2="100%">
   <stop offset="0%" style="stop-color: #df5940; stop-opacity:1"/>
   <stop offset="25%" style="stop-color: #d8d15f; stop-opacity:1"/>
   <stop offset="50%" style="stop-color: #e9882a; stop-opacity:1"/>
   <stop offset="100%" style="stop-color: #279362; stop-opacity:1"/>
  </linearGradient>
  <linearGradient id="90ssummer" x1="0%" x2="0%" y1="0%" y2="100%">
   <stop offset="0%" style="stop-color: #f618c7; stop-opacity:1"/>
   <stop offset="20%" style="stop-color: #94ffab; stop-opacity:1"/>
   <stop offset="50%" style="stop-color: #fbfd54; stop-opacity:1"/>
   <stop offset="100%" style="stop-color: #0f83ae; stop-opacity:1"/>
  </linearGradient>
 </defs>
 <path style="fill:url(#oomox)" class="ColorScheme-Text" fill-rule="evenodd" d="M 4.857 7.143 C 3.44 7.144 2.199 8.063 1.828 9.386 C 1.756 9.546 1.714 9.733 1.714 9.958 C 1.714 9.992 1.72 10.026 1.72 10.06 C 1.718 10.101 1.715 10.142 1.714 10.183 C 1.714 10.564 1.789 10.942 1.933 11.296 C 2.649 13.51 5.091 15.143 8 15.143 C 10.926 15.143 13.378 13.491 14.079 11.258 C 14.214 10.915 14.284 10.551 14.286 10.183 C 14.285 10.136 14.283 10.089 14.28 10.041 C 14.281 10.013 14.286 9.986 14.286 9.958 C 14.286 9.74 14.246 9.558 14.178 9.401 C 13.812 8.07 12.567 7.144 11.143 7.143 C 9.581 7.145 8.257 8.256 8.035 9.752 C 8.032 9.753 8 9.766 8 9.766 C 8 9.766 7.968 9.753 7.965 9.752 C 7.743 8.256 6.419 7.145 4.857 7.143 L 4.857 7.143 L 4.857 7.143 Z M 0 8 C 0 3.585 3.585 0 8 0 C 12.415 0 16 3.585 16 8 C 16 12.415 12.415 16 8 16 C 3.585 16 0 12.415 0 8 L 0 8 Z M 4.857 10.571 C 4.857 10.098 5.241 9.714 5.714 9.714 C 6.187 9.714 6.571 10.098 6.571 10.571 C 6.571 11.044 6.187 11.429 5.714 11.429 C 5.241 11.429 4.857 11.044 4.857 10.571 L 4.857 10.571 L 4.857 10.571 Z M 9.429 10.571 C 9.429 10.098 9.813 9.714 10.286 9.714 C 10.759 9.714 11.143 10.098 11.143 10.571 C 11.143 11.044 10.759 11.429 10.286 11.429 C 9.813 11.429 9.429 11.044 9.429 10.571 L 9.429 10.571 L 9.429 10.571 Z M 6.279 11.721 C 7.44 11.474 8.584 11.475 9.707 11.721 C 9.304 12.779 8.733 13.637 7.993 14.293 C 7.185 13.562 6.615 12.706 6.279 11.721 L 6.279 11.721 Z"/>
</svg>
