<svg xmlns="http://www.w3.org/2000/svg" style="isolation:isolate" width="16" height="16" viewBox="0 0 16 16">
 <defs>
  <style id="current-color-scheme" type="text/css">
   .ColorScheme-Text { color:#eff0f2; } .ColorScheme-Highlight { color:#5294e2; }
  </style>
  <linearGradient id="arrongin" x1="0%" x2="0%" y1="0%" y2="100%">
   <stop offset="0%" style="stop-color:#dd9b44; stop-opacity:1"/>
   <stop offset="100%" style="stop-color:#ad6c16; stop-opacity:1"/>
  </linearGradient>
  <linearGradient id="aurora" x1="0%" x2="0%" y1="0%" y2="100%">
   <stop offset="0%" style="stop-color:#09D4DF; stop-opacity:1"/>
   <stop offset="100%" style="stop-color:#9269F4; stop-opacity:1"/>
  </linearGradient>
  <linearGradient id="fitdance" x1="0%" x2="0%" y1="0%" y2="100%">
   <stop offset="0%" style="stop-color:#1AD6AB; stop-opacity:1"/>
   <stop offset="100%" style="stop-color:#329DB6; stop-opacity:1"/>
  </linearGradient>
  <linearGradient id="oomox" x1="0%" x2="0%" y1="0%" y2="100%">
   <stop offset="0%" style="stop-color:#928374; stop-opacity:1"/>
   <stop offset="100%" style="stop-color:#928374; stop-opacity:1"/>
  </linearGradient>
  <linearGradient id="rainblue" x1="0%" x2="0%" y1="0%" y2="100%">
   <stop offset="0%" style="stop-color:#00F260; stop-opacity:1"/>
   <stop offset="100%" style="stop-color:#0575E6; stop-opacity:1"/>
  </linearGradient>
  <linearGradient id="sunrise" x1="0%" x2="0%" y1="0%" y2="100%">
   <stop offset="0%" style="stop-color: #FF8501; stop-opacity:1"/>
   <stop offset="100%" style="stop-color: #FFCB01; stop-opacity:1"/>
  </linearGradient>
  <linearGradient id="telinkrin" x1="0%" x2="0%" y1="0%" y2="100%">
   <stop offset="0%" style="stop-color: #b2ced6; stop-opacity:1"/>
   <stop offset="100%" style="stop-color: #6da5b7; stop-opacity:1"/>
  </linearGradient>
  <linearGradient id="60spsycho" x1="0%" x2="0%" y1="0%" y2="100%">
   <stop offset="0%" style="stop-color: #df5940; stop-opacity:1"/>
   <stop offset="25%" style="stop-color: #d8d15f; stop-opacity:1"/>
   <stop offset="50%" style="stop-color: #e9882a; stop-opacity:1"/>
   <stop offset="100%" style="stop-color: #279362; stop-opacity:1"/>
  </linearGradient>
  <linearGradient id="90ssummer" x1="0%" x2="0%" y1="0%" y2="100%">
   <stop offset="0%" style="stop-color: #f618c7; stop-opacity:1"/>
   <stop offset="20%" style="stop-color: #94ffab; stop-opacity:1"/>
   <stop offset="50%" style="stop-color: #fbfd54; stop-opacity:1"/>
   <stop offset="100%" style="stop-color: #0f83ae; stop-opacity:1"/>
  </linearGradient>
 </defs>
 <path style="fill:url(#oomox)" class="ColorScheme-Text" fill-rule="evenodd" d="M 6.232 15.953 L 6.232 15.953 C 6.249 15.962 6.267 15.97 6.286 15.976 L 6.286 10.965 C 6.791 11.258 7.375 11.429 8 11.429 C 9.894 11.429 11.429 9.894 11.429 8 C 11.429 6.106 9.894 4.571 8 4.571 L 8 4.571 C 6.107 4.571 4.572 6.106 4.572 8 L 4.572 13.401 C 4.92 13.62 5.289 13.812 5.675 13.963 L 5.803 14.609 L 6.012 15.675 C 6.02 15.713 6.033 15.748 6.048 15.783 L 6.048 15.783 C 6.066 15.81 6.086 15.837 6.115 15.855 L 6.115 15.855 C 6.143 15.899 6.185 15.93 6.232 15.953 Z M 5.675 13.963 L 5.675 13.963 C 5.069 13.726 4.5 13.4 4 13 L 2.338 13.563 C 2.165 13.622 1.956 13.545 1.863 13.388 L 0.263 10.613 C 0.173 10.453 0.211 10.232 0.35 10.113 L 1.675 8.95 C 1.629 8.638 1.6 8.325 1.6 8 C 1.6 7.676 1.629 7.362 1.675 7.05 L 0.35 5.888 C 0.211 5.768 0.173 5.547 0.263 5.388 L 1.863 2.613 C 1.956 2.456 2.165 2.378 2.338 2.438 L 4 3 C 4.5 2.6 5.069 2.275 5.675 2.038 L 6.012 0.326 C 6.043 0.158 6.193 0.019 6.362 0.001 L 6.363 0 C 6.375 0 6.388 0 6.4 0 L 9.6 0 C 9.782 0.003 9.953 0.146 9.988 0.325 L 10.325 2.038 C 10.931 2.275 11.5 2.6 12 3 L 13.662 2.438 C 13.835 2.378 14.044 2.456 14.137 2.613 L 15.737 5.388 C 15.827 5.547 15.789 5.768 15.65 5.888 L 14.325 7.05 C 14.371 7.362 14.4 7.676 14.4 8 C 14.4 8.325 14.371 8.639 14.325 8.95 L 15.65 10.113 C 15.789 10.232 15.827 10.453 15.737 10.613 L 14.137 13.388 C 14.044 13.545 13.835 13.622 13.662 13.563 L 12 13 C 11.5 13.4 10.931 13.726 10.325 13.963 L 9.987 15.675 C 9.953 15.854 9.782 15.998 9.6 16 L 6.4 16 C 6.34 15.999 6.281 15.983 6.232 15.953 L 6.232 15.953 C 6.183 15.932 6.142 15.9 6.115 15.855 L 6.115 15.855 C 6.086 15.838 6.066 15.81 6.048 15.783 L 6.048 15.783 C 6.033 15.748 6.02 15.712 6.013 15.675 L 5.803 14.609 L 5.675 13.963 C 5.675 13.963 5.675 13.963 5.675 13.963 L 5.675 13.963 Z M 8 6.286 C 8.947 6.286 9.714 7.053 9.714 8 C 9.714 8.947 8.947 9.714 8 9.714 C 7.545 9.714 7.109 9.534 6.788 9.212 C 6.466 8.891 6.286 8.455 6.286 8 C 6.286 7.053 7.053 6.286 8 6.286 L 8 6.286 L 8 6.286 L 8 6.286 Z"/>
</svg>
