<svg xmlns="http://www.w3.org/2000/svg" width="16" height="16" version="1.1">
<defs>
  <style id="current-color-scheme" type="text/css">
   .ColorScheme-Text { color:#eff0f2; } .ColorScheme-Highlight { color:#5294e2; }
  </style>
  <linearGradient id="arrongin" x1="0%" x2="0%" y1="0%" y2="100%">
   <stop offset="0%" style="stop-color:#dd9b44; stop-opacity:1"/>
   <stop offset="100%" style="stop-color:#ad6c16; stop-opacity:1"/>
  </linearGradient>
  <linearGradient id="aurora" x1="0%" x2="0%" y1="0%" y2="100%">
   <stop offset="0%" style="stop-color:#09D4DF; stop-opacity:1"/>
   <stop offset="100%" style="stop-color:#9269F4; stop-opacity:1"/>
  </linearGradient>
  <linearGradient id="fitdance" x1="0%" x2="0%" y1="0%" y2="100%">
   <stop offset="0%" style="stop-color:#1AD6AB; stop-opacity:1"/>
   <stop offset="100%" style="stop-color:#329DB6; stop-opacity:1"/>
  </linearGradient>
  <linearGradient id="oomox" x1="0%" x2="0%" y1="0%" y2="100%">
   <stop offset="0%" style="stop-color:#928374; stop-opacity:1"/>
   <stop offset="100%" style="stop-color:#928374; stop-opacity:1"/>
  </linearGradient>
  <linearGradient id="rainblue" x1="0%" x2="0%" y1="0%" y2="100%">
   <stop offset="0%" style="stop-color:#00F260; stop-opacity:1"/>
   <stop offset="100%" style="stop-color:#0575E6; stop-opacity:1"/>
  </linearGradient>
  <linearGradient id="sunrise" x1="0%" x2="0%" y1="0%" y2="100%">
   <stop offset="0%" style="stop-color: #FF8501; stop-opacity:1"/>
   <stop offset="100%" style="stop-color: #FFCB01; stop-opacity:1"/>
  </linearGradient>
  <linearGradient id="telinkrin" x1="0%" x2="0%" y1="0%" y2="100%">
   <stop offset="0%" style="stop-color: #b2ced6; stop-opacity:1"/>
   <stop offset="100%" style="stop-color: #6da5b7; stop-opacity:1"/>
  </linearGradient>
  <linearGradient id="60spsycho" x1="0%" x2="0%" y1="0%" y2="100%">
   <stop offset="0%" style="stop-color: #df5940; stop-opacity:1"/>
   <stop offset="25%" style="stop-color: #d8d15f; stop-opacity:1"/>
   <stop offset="50%" style="stop-color: #e9882a; stop-opacity:1"/>
   <stop offset="100%" style="stop-color: #279362; stop-opacity:1"/>
  </linearGradient>
  <linearGradient id="90ssummer" x1="0%" x2="0%" y1="0%" y2="100%">
   <stop offset="0%" style="stop-color: #f618c7; stop-opacity:1"/>
   <stop offset="20%" style="stop-color: #94ffab; stop-opacity:1"/>
   <stop offset="50%" style="stop-color: #fbfd54; stop-opacity:1"/>
   <stop offset="100%" style="stop-color: #0f83ae; stop-opacity:1"/>
  </linearGradient>
 </defs>
 <g transform="translate(0,-32)">
  <g transform="translate(1.2397766e-5,0.49999956)">
   <g style="fill:url(#oomox)" class="ColorScheme-Text" transform="matrix(3.7795275,0,0,3.7795275,-28.000009,-1044.4257)">
    <g style="fill:url(#oomox)" class="ColorScheme-Text" transform="matrix(0.08,0,0,0.08,6.8743042,265.76417)">
     <circle cx="33.134" cy="262.994" r="8.467" style="fill:url(#oomox)" class="ColorScheme-Text"/>
     <path d="m 38.498943,246.72416 a 13.363795,17.777362 0 0 1 7.998685,16.27064 13.363795,17.777362 0 0 1 -8.011501,16.26526 17.145,17.145 0 0 0 11.792562,-16.26526 17.145,17.145 0 0 0 -11.779746,-16.27064 z m -10.717693,0.005 a 17.145,17.145 0 0 0 -11.792561,16.26568 17.145,17.145 0 0 0 11.778504,16.26939 13.363795,17.777362 0 0 1 -7.997444,-16.26939 13.363795,17.777362 0 0 1 8.011501,-16.26568 z" style="fill:url(#oomox)" class="ColorScheme-Text"/>
     <path d="m 40.998428,236.72374 a 28.539447,20.467194 89.418507 0 1 12.602847,26.27023 28.539447,20.467194 89.418507 0 1 -12.036473,26.04658 26.458334,27.516667 0 0 0 18.02722,-26.04658 26.458334,27.516667 0 0 0 -18.593594,-26.27023 z m -16.29668,0.22448 A 26.458334,27.516667 0 0 0 6.6753549,262.99397 26.458334,27.516667 0 0 0 25.270189,289.26461 28.539447,20.467194 89.418507 0 1 12.666099,262.99397 28.539447,20.467194 89.418507 0 1 24.701748,236.94822 Z" style="fill:url(#oomox)" class="ColorScheme-Text"/>
    </g>
   </g>
  </g>
 </g>
</svg>
