<svg xmlns="http://www.w3.org/2000/svg" style="isolation:isolate" width="16" height="16" viewBox="0 0 16 16">
 <defs>
  <style id="current-color-scheme" type="text/css">
   .ColorScheme-Text { color:#eff0f2; } .ColorScheme-Highlight { color:#5294e2; }
  </style>
  <linearGradient id="arrongin" x1="0%" x2="0%" y1="0%" y2="100%">
   <stop offset="0%" style="stop-color:#dd9b44; stop-opacity:1"/>
   <stop offset="100%" style="stop-color:#ad6c16; stop-opacity:1"/>
  </linearGradient>
  <linearGradient id="aurora" x1="0%" x2="0%" y1="0%" y2="100%">
   <stop offset="0%" style="stop-color:#09D4DF; stop-opacity:1"/>
   <stop offset="100%" style="stop-color:#9269F4; stop-opacity:1"/>
  </linearGradient>
  <linearGradient id="fitdance" x1="0%" x2="0%" y1="0%" y2="100%">
   <stop offset="0%" style="stop-color:#1AD6AB; stop-opacity:1"/>
   <stop offset="100%" style="stop-color:#329DB6; stop-opacity:1"/>
  </linearGradient>
  <linearGradient id="oomox" x1="0%" x2="0%" y1="0%" y2="100%">
   <stop offset="0%" style="stop-color:#928374; stop-opacity:1"/>
   <stop offset="100%" style="stop-color:#928374; stop-opacity:1"/>
  </linearGradient>
  <linearGradient id="rainblue" x1="0%" x2="0%" y1="0%" y2="100%">
   <stop offset="0%" style="stop-color:#00F260; stop-opacity:1"/>
   <stop offset="100%" style="stop-color:#0575E6; stop-opacity:1"/>
  </linearGradient>
  <linearGradient id="sunrise" x1="0%" x2="0%" y1="0%" y2="100%">
   <stop offset="0%" style="stop-color: #FF8501; stop-opacity:1"/>
   <stop offset="100%" style="stop-color: #FFCB01; stop-opacity:1"/>
  </linearGradient>
  <linearGradient id="telinkrin" x1="0%" x2="0%" y1="0%" y2="100%">
   <stop offset="0%" style="stop-color: #b2ced6; stop-opacity:1"/>
   <stop offset="100%" style="stop-color: #6da5b7; stop-opacity:1"/>
  </linearGradient>
  <linearGradient id="60spsycho" x1="0%" x2="0%" y1="0%" y2="100%">
   <stop offset="0%" style="stop-color: #df5940; stop-opacity:1"/>
   <stop offset="25%" style="stop-color: #d8d15f; stop-opacity:1"/>
   <stop offset="50%" style="stop-color: #e9882a; stop-opacity:1"/>
   <stop offset="100%" style="stop-color: #279362; stop-opacity:1"/>
  </linearGradient>
  <linearGradient id="90ssummer" x1="0%" x2="0%" y1="0%" y2="100%">
   <stop offset="0%" style="stop-color: #f618c7; stop-opacity:1"/>
   <stop offset="20%" style="stop-color: #94ffab; stop-opacity:1"/>
   <stop offset="50%" style="stop-color: #fbfd54; stop-opacity:1"/>
   <stop offset="100%" style="stop-color: #0f83ae; stop-opacity:1"/>
  </linearGradient>
 </defs>
 <path style="fill:url(#oomox)" class="ColorScheme-Text" d="M 9.143 0.381 C 8.721 0.381 8.381 0.721 8.381 1.143 L 8.381 6.617 L 7.572 7.427 C 7.289 5.567 5.691 4.192 3.81 4.19 C 1.706 4.19 0 5.896 0 8 C 0 10.104 1.706 11.809 3.81 11.809 C 4.634 11.808 5.437 11.538 6.095 11.042 L 6.095 14.857 C 6.095 15.279 6.435 15.619 6.857 15.619 C 7.279 15.619 7.619 15.279 7.619 14.857 L 7.619 9.534 L 8.449 8.704 C 8.788 10.504 10.359 11.808 12.19 11.81 C 14.294 11.81 16 10.104 16 8 C 16 5.896 14.294 4.19 12.19 4.19 C 11.366 4.192 10.563 4.462 9.905 4.958 L 9.905 1.143 C 9.905 0.721 9.565 0.381 9.143 0.381 L 9.143 0.381 Z M 3.81 5.714 C 5.072 5.714 6.096 6.738 6.096 8 C 6.096 9.262 5.072 10.286 3.81 10.286 C 2.548 10.286 1.524 9.262 1.524 8 C 1.524 6.738 2.548 5.714 3.81 5.714 Z M 12.191 5.714 C 13.453 5.714 14.477 6.738 14.477 8 C 14.477 9.262 13.453 10.286 12.191 10.286 C 10.929 10.286 9.905 9.262 9.905 8 C 9.905 6.738 10.929 5.714 12.191 5.714 Z"/>
</svg>
