<svg xmlns="http://www.w3.org/2000/svg" style="isolation:isolate" width="16" height="16" viewBox="0 0 16 16">
 <defs>
  <style id="current-color-scheme" type="text/css">
   .ColorScheme-Text { color:#eff0f2; } .ColorScheme-Highlight { color:#5294e2; }
  </style>
  <linearGradient id="arrongin" x1="0%" x2="0%" y1="0%" y2="100%">
   <stop offset="0%" style="stop-color:#dd9b44; stop-opacity:1"/>
   <stop offset="100%" style="stop-color:#ad6c16; stop-opacity:1"/>
  </linearGradient>
  <linearGradient id="aurora" x1="0%" x2="0%" y1="0%" y2="100%">
   <stop offset="0%" style="stop-color:#09D4DF; stop-opacity:1"/>
   <stop offset="100%" style="stop-color:#9269F4; stop-opacity:1"/>
  </linearGradient>
  <linearGradient id="fitdance" x1="0%" x2="0%" y1="0%" y2="100%">
   <stop offset="0%" style="stop-color:#1AD6AB; stop-opacity:1"/>
   <stop offset="100%" style="stop-color:#329DB6; stop-opacity:1"/>
  </linearGradient>
  <linearGradient id="oomox" x1="0%" x2="0%" y1="0%" y2="100%">
   <stop offset="0%" style="stop-color:#928374; stop-opacity:1"/>
   <stop offset="100%" style="stop-color:#928374; stop-opacity:1"/>
  </linearGradient>
  <linearGradient id="rainblue" x1="0%" x2="0%" y1="0%" y2="100%">
   <stop offset="0%" style="stop-color:#00F260; stop-opacity:1"/>
   <stop offset="100%" style="stop-color:#0575E6; stop-opacity:1"/>
  </linearGradient>
  <linearGradient id="sunrise" x1="0%" x2="0%" y1="0%" y2="100%">
   <stop offset="0%" style="stop-color: #FF8501; stop-opacity:1"/>
   <stop offset="100%" style="stop-color: #FFCB01; stop-opacity:1"/>
  </linearGradient>
  <linearGradient id="telinkrin" x1="0%" x2="0%" y1="0%" y2="100%">
   <stop offset="0%" style="stop-color: #b2ced6; stop-opacity:1"/>
   <stop offset="100%" style="stop-color: #6da5b7; stop-opacity:1"/>
  </linearGradient>
  <linearGradient id="60spsycho" x1="0%" x2="0%" y1="0%" y2="100%">
   <stop offset="0%" style="stop-color: #df5940; stop-opacity:1"/>
   <stop offset="25%" style="stop-color: #d8d15f; stop-opacity:1"/>
   <stop offset="50%" style="stop-color: #e9882a; stop-opacity:1"/>
   <stop offset="100%" style="stop-color: #279362; stop-opacity:1"/>
  </linearGradient>
  <linearGradient id="90ssummer" x1="0%" x2="0%" y1="0%" y2="100%">
   <stop offset="0%" style="stop-color: #f618c7; stop-opacity:1"/>
   <stop offset="20%" style="stop-color: #94ffab; stop-opacity:1"/>
   <stop offset="50%" style="stop-color: #fbfd54; stop-opacity:1"/>
   <stop offset="100%" style="stop-color: #0f83ae; stop-opacity:1"/>
  </linearGradient>
 </defs>
 <path style="fill:url(#oomox)" class="ColorScheme-Text" fill-rule="evenodd" d="M 4.4 0.894 L 4.4 3.203 L 4.4 3.203 C 4.852 3.207 5.17 3.216 5.589 3.312 C 6.016 3.411 6.4 3.494 6.4 4.027 L 5.841 4.4 C 5.841 4.4 5.548 4.073 5.28 4.027 C 5.173 4.009 5.054 4.022 4.8 4.227 L 4.8 14.636 L 3.6 16 L 2.4 14.636 L 2.4 10 L 2.4 10 L 2.4 10 L 1.2 8.8 L 2.4 7.6 L 2.4 7.6 L 2.4 4.092 L 2.4 4.092 L 2.4 4.092 C 2.24 4.032 2.076 4.001 1.92 4.027 C 1.652 4.073 1.359 4.4 1.359 4.4 L 0.8 4.027 C 0.8 3.494 1.184 3.411 1.611 3.313 C 2.018 3.219 2.365 3.209 2.8 3.205 L 2.8 0.894 C 2.555 0.675 2.4 0.355 2.4 0 L 4.8 0 C 4.8 0.355 4.646 0.675 4.4 0.894 Z M 6.928 3.2 C 7.088 3.443 7.2 3.74 7.2 4.027 C 7.2 4.244 7.032 4.452 6.875 4.603 C 7.532 5.061 8 5.889 8 6.706 C 8 8.22 7.156 8.353 5.6 8.8 C 6.534 11.083 8.395 13.103 10.236 14.148 C 11.806 15.098 13.246 15.766 15.2 16 C 13.042 13.365 9.681 12.206 8 9.6 C 9.123 9.011 10.4 8.502 10.4 6.556 C 10.4 4.977 8.96 3.2 7.889 3.2 L 6.928 3.2 L 6.928 3.2 L 6.928 3.2 L 6.928 3.2 L 6.928 3.2 Z"/>
</svg>
