<svg xmlns="http://www.w3.org/2000/svg" style="isolation:isolate" width="16" height="16" viewBox="0 0 16 16">
 <defs>
  <style id="current-color-scheme" type="text/css">
   .ColorScheme-Text { color:#eff0f2; } .ColorScheme-Highlight { color:#5294e2; }
  </style>
  <linearGradient id="arrongin" x1="0%" x2="0%" y1="0%" y2="100%">
   <stop offset="0%" style="stop-color:#dd9b44; stop-opacity:1"/>
   <stop offset="100%" style="stop-color:#ad6c16; stop-opacity:1"/>
  </linearGradient>
  <linearGradient id="aurora" x1="0%" x2="0%" y1="0%" y2="100%">
   <stop offset="0%" style="stop-color:#09D4DF; stop-opacity:1"/>
   <stop offset="100%" style="stop-color:#9269F4; stop-opacity:1"/>
  </linearGradient>
  <linearGradient id="fitdance" x1="0%" x2="0%" y1="0%" y2="100%">
   <stop offset="0%" style="stop-color:#1AD6AB; stop-opacity:1"/>
   <stop offset="100%" style="stop-color:#329DB6; stop-opacity:1"/>
  </linearGradient>
  <linearGradient id="oomox" x1="0%" x2="0%" y1="0%" y2="100%">
   <stop offset="0%" style="stop-color:#928374; stop-opacity:1"/>
   <stop offset="100%" style="stop-color:#928374; stop-opacity:1"/>
  </linearGradient>
  <linearGradient id="rainblue" x1="0%" x2="0%" y1="0%" y2="100%">
   <stop offset="0%" style="stop-color:#00F260; stop-opacity:1"/>
   <stop offset="100%" style="stop-color:#0575E6; stop-opacity:1"/>
  </linearGradient>
  <linearGradient id="sunrise" x1="0%" x2="0%" y1="0%" y2="100%">
   <stop offset="0%" style="stop-color: #FF8501; stop-opacity:1"/>
   <stop offset="100%" style="stop-color: #FFCB01; stop-opacity:1"/>
  </linearGradient>
  <linearGradient id="telinkrin" x1="0%" x2="0%" y1="0%" y2="100%">
   <stop offset="0%" style="stop-color: #b2ced6; stop-opacity:1"/>
   <stop offset="100%" style="stop-color: #6da5b7; stop-opacity:1"/>
  </linearGradient>
  <linearGradient id="60spsycho" x1="0%" x2="0%" y1="0%" y2="100%">
   <stop offset="0%" style="stop-color: #df5940; stop-opacity:1"/>
   <stop offset="25%" style="stop-color: #d8d15f; stop-opacity:1"/>
   <stop offset="50%" style="stop-color: #e9882a; stop-opacity:1"/>
   <stop offset="100%" style="stop-color: #279362; stop-opacity:1"/>
  </linearGradient>
  <linearGradient id="90ssummer" x1="0%" x2="0%" y1="0%" y2="100%">
   <stop offset="0%" style="stop-color: #f618c7; stop-opacity:1"/>
   <stop offset="20%" style="stop-color: #94ffab; stop-opacity:1"/>
   <stop offset="50%" style="stop-color: #fbfd54; stop-opacity:1"/>
   <stop offset="100%" style="stop-color: #0f83ae; stop-opacity:1"/>
  </linearGradient>
 </defs>
 <path style="fill:url(#oomox)" class="ColorScheme-Text" fill-rule="evenodd" d="M 10.466 1.841 C 10.743 1.841 11.02 1.844 11.297 1.85 C 11.537 1.855 11.778 1.865 12.019 1.878 C 12.223 1.89 12.428 1.907 12.632 1.929 C 12.801 1.948 12.968 1.972 13.135 2.003 C 13.267 2.028 13.398 2.058 13.527 2.096 C 13.623 2.124 13.718 2.159 13.809 2.2 C 13.875 2.23 13.938 2.265 13.998 2.305 C 14.043 2.336 14.085 2.37 14.124 2.409 C 14.163 2.447 14.198 2.49 14.228 2.535 C 14.268 2.595 14.303 2.657 14.332 2.723 C 14.374 2.814 14.408 2.909 14.437 3.005 C 14.474 3.134 14.506 3.264 14.53 3.396 C 14.561 3.562 14.586 3.729 14.604 3.897 C 14.626 4.101 14.643 4.305 14.655 4.51 C 14.669 4.75 14.678 4.991 14.684 5.232 C 14.69 5.508 14.692 5.784 14.692 6.061 C 14.692 6.061 14.692 6.062 14.692 6.063 L 14.692 9.938 C 14.692 9.938 14.692 9.938 14.692 9.939 C 14.692 10.216 14.69 10.492 14.684 10.768 C 14.678 11.009 14.669 11.25 14.655 11.49 C 14.643 11.694 14.626 11.898 14.604 12.102 C 14.586 12.271 14.561 12.438 14.53 12.605 C 14.506 12.736 14.474 12.866 14.437 12.995 C 14.408 13.091 14.374 13.186 14.332 13.277 C 14.303 13.342 14.268 13.405 14.228 13.465 C 14.198 13.51 14.163 13.552 14.124 13.591 C 14.085 13.63 14.043 13.664 13.998 13.695 C 13.938 13.735 13.875 13.77 13.809 13.8 C 13.718 13.841 13.623 13.875 13.527 13.904 C 13.398 13.942 13.267 13.973 13.135 13.997 C 12.968 14.028 12.801 14.053 12.632 14.071 C 12.428 14.093 12.223 14.11 12.019 14.121 C 11.778 14.135 11.537 14.145 11.297 14.15 C 11.02 14.156 10.743 14.159 10.466 14.159 C 10.465 14.159 10.465 14.159 10.465 14.159 L 5.535 14.159 C 5.535 14.159 5.534 14.159 5.534 14.159 C 5.257 14.159 4.98 14.156 4.704 14.15 C 4.463 14.145 4.222 14.135 3.982 14.121 C 3.776 14.11 3.572 14.093 3.368 14.071 C 3.199 14.053 3.031 14.028 2.865 13.997 C 2.733 13.973 2.602 13.942 2.473 13.904 C 2.377 13.875 2.282 13.841 2.191 13.8 C 2.126 13.77 2.062 13.735 2.003 13.695 C 1.957 13.664 1.915 13.63 1.876 13.591 C 1.837 13.552 1.802 13.51 1.772 13.465 C 1.732 13.405 1.696 13.342 1.667 13.277 C 1.627 13.186 1.591 13.091 1.563 12.995 C 1.525 12.866 1.494 12.736 1.47 12.605 C 1.439 12.438 1.415 12.271 1.396 12.102 C 1.373 11.898 1.356 11.694 1.345 11.49 C 1.332 11.25 1.322 11.009 1.317 10.768 C 1.311 10.492 1.308 10.216 1.308 9.939 C 1.308 9.938 1.308 9.938 1.308 9.938 L 1.308 6.063 C 1.308 6.062 1.308 6.061 1.308 6.061 C 1.308 5.784 1.311 5.508 1.317 5.232 C 1.322 4.991 1.332 4.75 1.345 4.51 C 1.356 4.305 1.373 4.101 1.396 3.897 C 1.415 3.729 1.439 3.562 1.47 3.396 C 1.494 3.264 1.525 3.134 1.563 3.005 C 1.591 2.909 1.627 2.814 1.667 2.723 C 1.696 2.657 1.732 2.595 1.772 2.535 C 1.802 2.49 1.837 2.447 1.876 2.409 C 1.915 2.37 1.957 2.336 2.003 2.305 C 2.062 2.265 2.126 2.23 2.191 2.2 C 2.282 2.159 2.377 2.124 2.473 2.096 C 2.602 2.058 2.733 2.028 2.865 2.003 C 3.031 1.972 3.199 1.948 3.368 1.929 C 3.572 1.907 3.776 1.89 3.982 1.878 C 4.222 1.865 4.463 1.855 4.704 1.85 C 4.98 1.844 5.257 1.841 5.534 1.841 C 5.534 1.841 5.535 1.841 5.535 1.841 L 10.465 1.841 C 10.465 1.841 10.465 1.841 10.466 1.841 L 10.466 1.841 Z M 10.465 0.533 C 15.308 0.533 16 1.224 16 6.062 L 16 9.937 C 16 14.776 15.308 15.467 10.465 15.467 L 5.535 15.467 C 0.692 15.467 0 14.776 0 9.937 L 0 6.062 C 0 1.224 0.692 0.533 5.535 0.533 L 10.465 0.533 L 10.465 0.533 Z M 10.246 3.262 L 12.534 3.262 C 12.673 3.262 12.786 3.374 12.786 3.513 L 12.786 12.535 C 12.786 12.674 12.673 12.787 12.534 12.787 L 10.246 12.787 C 10.107 12.787 9.994 12.674 9.994 12.535 L 9.994 3.513 C 9.994 3.374 10.107 3.262 10.246 3.262 Z"/>
</svg>
