<svg xmlns="http://www.w3.org/2000/svg" style="isolation:isolate" width="16" height="16" viewBox="0 0 16 16">
 <defs>
  <style id="current-color-scheme" type="text/css">
   .ColorScheme-Text { color:#eff0f2; } .ColorScheme-Highlight { color:#5294e2; }
  </style>
  <linearGradient id="arrongin" x1="0%" x2="0%" y1="0%" y2="100%">
   <stop offset="0%" style="stop-color:#dd9b44; stop-opacity:1"/>
   <stop offset="100%" style="stop-color:#ad6c16; stop-opacity:1"/>
  </linearGradient>
  <linearGradient id="aurora" x1="0%" x2="0%" y1="0%" y2="100%">
   <stop offset="0%" style="stop-color:#09D4DF; stop-opacity:1"/>
   <stop offset="100%" style="stop-color:#9269F4; stop-opacity:1"/>
  </linearGradient>
  <linearGradient id="fitdance" x1="0%" x2="0%" y1="0%" y2="100%">
   <stop offset="0%" style="stop-color:#1AD6AB; stop-opacity:1"/>
   <stop offset="100%" style="stop-color:#329DB6; stop-opacity:1"/>
  </linearGradient>
  <linearGradient id="oomox" x1="0%" x2="0%" y1="0%" y2="100%">
   <stop offset="0%" style="stop-color:#928374; stop-opacity:1"/>
   <stop offset="100%" style="stop-color:#928374; stop-opacity:1"/>
  </linearGradient>
  <linearGradient id="rainblue" x1="0%" x2="0%" y1="0%" y2="100%">
   <stop offset="0%" style="stop-color:#00F260; stop-opacity:1"/>
   <stop offset="100%" style="stop-color:#0575E6; stop-opacity:1"/>
  </linearGradient>
  <linearGradient id="sunrise" x1="0%" x2="0%" y1="0%" y2="100%">
   <stop offset="0%" style="stop-color: #FF8501; stop-opacity:1"/>
   <stop offset="100%" style="stop-color: #FFCB01; stop-opacity:1"/>
  </linearGradient>
  <linearGradient id="telinkrin" x1="0%" x2="0%" y1="0%" y2="100%">
   <stop offset="0%" style="stop-color: #b2ced6; stop-opacity:1"/>
   <stop offset="100%" style="stop-color: #6da5b7; stop-opacity:1"/>
  </linearGradient>
  <linearGradient id="60spsycho" x1="0%" x2="0%" y1="0%" y2="100%">
   <stop offset="0%" style="stop-color: #df5940; stop-opacity:1"/>
   <stop offset="25%" style="stop-color: #d8d15f; stop-opacity:1"/>
   <stop offset="50%" style="stop-color: #e9882a; stop-opacity:1"/>
   <stop offset="100%" style="stop-color: #279362; stop-opacity:1"/>
  </linearGradient>
  <linearGradient id="90ssummer" x1="0%" x2="0%" y1="0%" y2="100%">
   <stop offset="0%" style="stop-color: #f618c7; stop-opacity:1"/>
   <stop offset="20%" style="stop-color: #94ffab; stop-opacity:1"/>
   <stop offset="50%" style="stop-color: #fbfd54; stop-opacity:1"/>
   <stop offset="100%" style="stop-color: #0f83ae; stop-opacity:1"/>
  </linearGradient>
 </defs>
 <path style="fill:url(#oomox)" class="ColorScheme-Text" fill-rule="evenodd" d="M 6.857143 2.352941 L 9.142857 2.352941 L 9.142857 4.235294 L 6.857143 4.235294 L 6.857143 2.352941 L 6.857143 2.352941 L 6.857143 2.352941 L 6.857143 2.352941 L 6.857143 2.352941 L 6.857143 2.352941 Z M 5.028571 5.176471 L 7.314286 5.176471 L 7.314286 7.058824 L 5.028571 7.058824 L 5.028571 5.176471 L 5.028571 5.176471 L 5.028571 5.176471 L 5.028571 5.176471 L 5.028571 5.176471 Z M 8.685714 5.176471 L 10.971429 5.176471 L 10.971429 7.058824 L 8.685714 7.058824 L 8.685714 5.176471 L 8.685714 5.176471 L 8.685714 5.176471 L 8.685714 5.176471 Z M 6.857143 8 L 9.142857 8 L 9.142857 9.882353 L 6.857143 9.882353 L 6.857143 8 L 6.857143 8 L 6.857143 8 Z M 3.2 8 L 5.485714 8 L 5.485714 9.882353 L 3.2 9.882353 L 3.2 8 L 3.2 8 Z M 1.371429 1.411765 L 14.628571 1.411765 L 14.628571 11.294118 L 1.371429 11.294118 L 1.371429 1.411765 L 1.371429 1.411765 L 1.371429 1.411765 L 1.371429 1.411765 L 1.371429 1.411765 L 1.371429 1.411765 L 1.371429 1.411765 L 1.371429 1.411765 L 1.371429 1.411765 Z M 8.685714 14.588235 L 8.685714 12.705882 L 14.666964 12.705882 C 15.405631 12.705882 16 12.10952 16 11.368566 L 16 1.337316 C 16 0.596363 15.405631 0 14.666964 0 L 1.333036 0 L 1.333036 0 C 0.594369 0 0 0.596363 0 1.337316 L 0 11.368566 C 0 12.10952 0.594369 12.705882 1.333036 12.705882 L 7.314286 12.705882 L 7.314286 12.705882 L 7.314286 14.588235 L 4.810011 14.588235 C 4.42603 14.588235 4.114286 14.899979 4.114286 15.283961 L 4.114286 15.304275 C 4.114286 15.688256 4.42603 16 4.810011 16 L 11.189989 16 C 11.57397 16 11.885714 15.688256 11.885714 15.304275 L 11.885714 15.283961 C 11.885714 14.899979 11.57397 14.588235 11.189989 14.588235 L 8.685714 14.588235 L 8.685714 14.588235 L 8.685714 14.588235 L 8.685714 14.588235 L 8.685714 14.588235 L 8.685714 14.588235 L 8.685714 14.588235 Z M 10.514286 8 L 12.8 8 L 12.8 9.882353 L 10.514286 9.882353 L 10.514286 8 Z"/>
</svg>
