<svg xmlns="http://www.w3.org/2000/svg" style="isolation:isolate" width="16" height="16" viewBox="0 0 16 16">
 <defs>
  <style id="current-color-scheme" type="text/css">
   .ColorScheme-Text { color:#eff0f2; } .ColorScheme-Highlight { color:#5294e2; }
  </style>
  <linearGradient id="arrongin" x1="0%" x2="0%" y1="0%" y2="100%">
   <stop offset="0%" style="stop-color:#dd9b44; stop-opacity:1"/>
   <stop offset="100%" style="stop-color:#ad6c16; stop-opacity:1"/>
  </linearGradient>
  <linearGradient id="aurora" x1="0%" x2="0%" y1="0%" y2="100%">
   <stop offset="0%" style="stop-color:#09D4DF; stop-opacity:1"/>
   <stop offset="100%" style="stop-color:#9269F4; stop-opacity:1"/>
  </linearGradient>
  <linearGradient id="fitdance" x1="0%" x2="0%" y1="0%" y2="100%">
   <stop offset="0%" style="stop-color:#1AD6AB; stop-opacity:1"/>
   <stop offset="100%" style="stop-color:#329DB6; stop-opacity:1"/>
  </linearGradient>
  <linearGradient id="oomox" x1="0%" x2="0%" y1="0%" y2="100%">
   <stop offset="0%" style="stop-color:#928374; stop-opacity:1"/>
   <stop offset="100%" style="stop-color:#928374; stop-opacity:1"/>
  </linearGradient>
  <linearGradient id="rainblue" x1="0%" x2="0%" y1="0%" y2="100%">
   <stop offset="0%" style="stop-color:#00F260; stop-opacity:1"/>
   <stop offset="100%" style="stop-color:#0575E6; stop-opacity:1"/>
  </linearGradient>
  <linearGradient id="sunrise" x1="0%" x2="0%" y1="0%" y2="100%">
   <stop offset="0%" style="stop-color: #FF8501; stop-opacity:1"/>
   <stop offset="100%" style="stop-color: #FFCB01; stop-opacity:1"/>
  </linearGradient>
  <linearGradient id="telinkrin" x1="0%" x2="0%" y1="0%" y2="100%">
   <stop offset="0%" style="stop-color: #b2ced6; stop-opacity:1"/>
   <stop offset="100%" style="stop-color: #6da5b7; stop-opacity:1"/>
  </linearGradient>
  <linearGradient id="60spsycho" x1="0%" x2="0%" y1="0%" y2="100%">
   <stop offset="0%" style="stop-color: #df5940; stop-opacity:1"/>
   <stop offset="25%" style="stop-color: #d8d15f; stop-opacity:1"/>
   <stop offset="50%" style="stop-color: #e9882a; stop-opacity:1"/>
   <stop offset="100%" style="stop-color: #279362; stop-opacity:1"/>
  </linearGradient>
  <linearGradient id="90ssummer" x1="0%" x2="0%" y1="0%" y2="100%">
   <stop offset="0%" style="stop-color: #f618c7; stop-opacity:1"/>
   <stop offset="20%" style="stop-color: #94ffab; stop-opacity:1"/>
   <stop offset="50%" style="stop-color: #fbfd54; stop-opacity:1"/>
   <stop offset="100%" style="stop-color: #0f83ae; stop-opacity:1"/>
  </linearGradient>
 </defs>
 <path style="fill:url(#oomox)" class="ColorScheme-Text" d="M 2.696 15.235 C 2.63 15.129 2.84 14.822 3.096 14.554 C 3.353 14.286 3.815 13.927 3.815 13.757 C 3.815 13.587 2.896 11.457 2.193 9.023 C 1.149 5.41 0.927 4.537 0.51 4.092 C 0.23 3.791 0 3.471 0 3.402 C 0 3.333 0.906 3.232 2.013 3.236 L 3.279 3.24 C 3.983 3.212 3.861 3.311 3.373 3.71 C 3.103 3.932 3.042 4.227 3.042 4.365 C 3.042 4.64 3.762 7.303 4.317 9.223 C 4.534 9.961 4.737 10.601 5.093 11.251 C 5.217 11.281 5.384 10.762 6.173 7.821 C 7.432 3.131 7.453 3.238 8.046 3.238 L 8.548 3.238 L 9.593 7.285 C 10.2 9.635 10.719 11.293 10.821 11.26 C 11.022 11.196 12.297 6.16 12.592 4.368 C 12.748 3.42 12.623 3.141 12.372 2.612 C 12.198 2.245 12.14 1.918 12.233 1.828 C 12.483 1.584 15.357 0.571 15.744 0.571 C 16.181 0.571 16.067 0.938 15.339 1.873 C 14.541 2.899 14.606 4.002 13.802 6.747 C 13.398 8.125 12.786 9.973 12.488 10.853 C 12.212 11.668 12.242 12.289 12.229 12.784 C 12.208 13.564 12.354 14.028 12.788 14.444 C 13.156 14.797 13.35 15.025 13.314 15.172 C 13.26 15.389 11.903 15.429 10.656 15.429 C 9.22 15.429 8.413 15.349 8.396 15.083 C 8.389 14.964 8.671 14.807 8.908 14.602 C 9.486 14.174 9.643 13.969 9.506 13.426 C 9.083 11.858 8.194 7.731 8.05 7.469 C 7.979 7.34 7.751 7.416 7.632 8.1 C 7.277 9.943 6.561 11.973 6.4 13.637 C 6.445 13.975 6.611 14.186 6.965 14.456 C 7.362 14.759 7.585 14.97 7.6 15.116 C 7.626 15.369 6.239 15.429 4.841 15.429 C 3.631 15.429 2.77 15.355 2.696 15.235 L 2.696 15.235 Z"/>
</svg>
