<svg xmlns="http://www.w3.org/2000/svg" fill="none" width="22" height="22" viewBox="0 0 22 22">
 <path fill="#928374" d="M3 5.33312H6.38095C6.88899 5.33312 7.3415 5.65428 7.50919 6.13384L11.8262 18.4805L10.631 14.3892L16.3772 6.85012L18.8595 9.19458L14.2166 4H18.1241C18.5303 4 18.8595 4.3293 18.8595 4.73552V9.19458L11.8262 18.4805H8.42337C7.95567 18.4805 7.5388 18.1856 7.38306 17.7446L3 5.33312Z"/>
 <path fill="url(#paint0_linear)" d="M16.5298 11.0025C16.4201 11.3756 16.2747 11.7387 16.1182 12.0951C15.322 13.8594 14.1071 15.0499 13.97 16.1728C13.9667 16.1895 13.9584 16.2077 13.9555 16.2244L13.9651 16.228C13.9618 16.2667 13.9539 16.3052 13.9531 16.3439C13.9257 17.7371 15.0094 18.8954 16.3737 18.9307C17.7379 18.966 18.8661 17.8649 18.8936 16.4717C18.8943 16.4331 18.8879 16.3941 18.8862 16.3553L18.8959 16.3522C18.8938 16.3355 18.8862 16.3168 18.8834 16.2999C18.7907 15.171 17.6239 13.9189 16.8979 12.1153C16.7556 11.7511 16.6247 11.3809 16.5298 11.0025Z"/>
 <defs>
  <linearGradient id="paint0_linear" x1="16.499" x2="16.325" y1="10.999" y2="18.956" gradientUnits="userSpaceOnUse">
   <stop stop-color="#1ad6ab"/>
   <stop offset="1" stop-color="#329db6"/>
  </linearGradient>
 </defs>
</svg>
