<svg xmlns="http://www.w3.org/2000/svg" xmlns:xlink="http://www.w3.org/1999/xlink" style="isolation:isolate" width="16" height="16" viewBox="0 0 16 16">
 <defs>
   <style id="current-color-scheme" type="text/css">
   .ColorScheme-Text { color:#eff0f2; } .ColorScheme-Highlight { color:#5294e2; }
  </style>
  <linearGradient id="arrongin" x1="0%" x2="0%" y1="0%" y2="100%">
   <stop offset="0%" style="stop-color:#dd9b44; stop-opacity:1"/>
   <stop offset="100%" style="stop-color:#ad6c16; stop-opacity:1"/>
  </linearGradient>
  <linearGradient id="aurora" x1="0%" x2="0%" y1="0%" y2="100%">
   <stop offset="0%" style="stop-color:#09D4DF; stop-opacity:1"/>
   <stop offset="100%" style="stop-color:#9269F4; stop-opacity:1"/>
  </linearGradient>
  <linearGradient id="fitdance" x1="0%" x2="0%" y1="0%" y2="100%">
   <stop offset="0%" style="stop-color:#1AD6AB; stop-opacity:1"/>
   <stop offset="100%" style="stop-color:#329DB6; stop-opacity:1"/>
  </linearGradient>
  <linearGradient id="oomox" x1="0%" x2="0%" y1="0%" y2="100%">
   <stop offset="0%" style="stop-color:#928374; stop-opacity:1"/>
   <stop offset="100%" style="stop-color:#928374; stop-opacity:1"/>
  </linearGradient>
  <linearGradient id="rainblue" x1="0%" x2="0%" y1="0%" y2="100%">
   <stop offset="0%" style="stop-color:#00F260; stop-opacity:1"/>
   <stop offset="100%" style="stop-color:#0575E6; stop-opacity:1"/>
  </linearGradient>
  <linearGradient id="sunrise" x1="0%" x2="0%" y1="0%" y2="100%">
   <stop offset="0%" style="stop-color: #FF8501; stop-opacity:1"/>
   <stop offset="100%" style="stop-color: #FFCB01; stop-opacity:1"/>
  </linearGradient>
  <linearGradient id="telinkrin" x1="0%" x2="0%" y1="0%" y2="100%">
   <stop offset="0%" style="stop-color: #b2ced6; stop-opacity:1"/>
   <stop offset="100%" style="stop-color: #6da5b7; stop-opacity:1"/>
  </linearGradient>
  <linearGradient id="60spsycho" x1="0%" x2="0%" y1="0%" y2="100%">
   <stop offset="0%" style="stop-color: #df5940; stop-opacity:1"/>
   <stop offset="25%" style="stop-color: #d8d15f; stop-opacity:1"/>
   <stop offset="50%" style="stop-color: #e9882a; stop-opacity:1"/>
   <stop offset="100%" style="stop-color: #279362; stop-opacity:1"/>
  </linearGradient>
  <linearGradient id="90ssummer" x1="0%" x2="0%" y1="0%" y2="100%">
   <stop offset="0%" style="stop-color: #f618c7; stop-opacity:1"/>
   <stop offset="20%" style="stop-color: #94ffab; stop-opacity:1"/>
   <stop offset="50%" style="stop-color: #fbfd54; stop-opacity:1"/>
   <stop offset="100%" style="stop-color: #0f83ae; stop-opacity:1"/>
  </linearGradient>
 </defs>
   <path style="fill:url(#oomox);" class="ColorScheme-Text" fill-rule="evenodd" d="M 7.343428 14.970571 L 7.348001 10.912285 L 3.776572 10.912285 L 4.397143 9.827714 L 5.54 9.827714 L 3.884001 6.942 L 0.263429 6.942 L 1.053714 7.399714 L 0 9.243714 L 2.830286 14.187715 L 3.102857 14.65857 L 3.294858 14.973429 L 7.343428 14.970571 L 7.343428 14.970571 Z M 13.856572 5.816285 L 10.597715 7.715715 L 12.378858 10.829427 L 11.137715 10.829427 L 10.566286 9.836285 L 8.910287 12.721999 L 10.722857 15.887143 L 10.722857 14.967713 L 12.830285 14.967713 L 15.665144 10.019142 L 15.933143 9.552858 L 16 9.432285 L 13.856572 5.816285 L 13.856572 5.816285 Z M 2.953715 3.796285 L 6.212571 5.695714 L 7.998286 2.577429 L 8.618857 3.661999 L 7.998286 4.684286 L 11.350858 4.684286 L 13.167999 1.499142 L 12.382285 1.956857 L 11.324001 0.112857 L 4.986858 0.112857 L 2.953715 3.796285 Z"/>
</svg>
