<svg xmlns="http://www.w3.org/2000/svg" style="isolation:isolate" width="256" height="256">
 <path fill="#957552" d="M53.705 21c-36.315 0-40.038 2.055-40.038 38.371v52.167h230V79.563c0-36.316-3.724-42.102-40.04-42.102h-89.335L97.864 21H53.705z"/>
 <path fill="#ae8e6c" d="M53.705 70.384c-36.317 0-40.038 3.73-40.038 40.045v84.524c0 36.316 3.721 40.047 40.038 40.047h149.923c36.317 0 40.039-3.731 40.039-40.047V93.969c0-36.316-3.722-40.047-40.04-40.047h-83.43l-16.438 16.462H53.705z"/>
 <linearGradient id="a" x2="0" y1=".5" y2="-.5" gradientTransform="matrix(230 0 0 181.07847 13.667 53.922)" gradientUnits="userSpaceOnUse">
  <stop offset="0%" stop-color="#ffffff" stop-opacity=".07"/>
  <stop offset="67.282%" stop-color="#fcefe8" stop-opacity="0"/>
 </linearGradient>
 <path fill="url(#a)" d="M53.705 70.384c-36.317 0-40.038 3.73-40.038 40.045v84.524c0 36.316 3.721 40.047 40.038 40.047h149.923c36.317 0 40.039-3.731 40.039-40.047V93.969c0-36.316-3.722-40.047-40.04-40.047h-83.43l-16.438 16.462H53.705z"/>
 <g opacity=".4">
  <radialGradient id="b" cx=".5" cy=".5" r=".272" fx=".5" fy=".136" gradientTransform="matrix(230 0 0 60.62014 13.667 21)" gradientUnits="userSpaceOnUse">
   <stop offset="0%" stop-color="#ffffff"/>
   <stop offset="100%" stop-color="#ffffff" stop-opacity=".204"/>
  </radialGradient>
  <path fill="url(#b)" d="M53.705 21c-36.315 0-40.038 2.055-40.038 38.371v2.06c0-36.317 3.723-38.374 40.038-38.374h44.16l16.427 16.46h89.336c36.315 0 40.039 5.787 40.039 42.103v-2.057c0-36.316-3.724-42.102-40.04-42.102h-89.335L97.864 21H53.705z"/>
 </g>
 <g opacity=".4">
  <radialGradient id="c" cx=".5" cy=".5" r=".272" fx=".482" fy=".211" gradientTransform="matrix(230 0 0 58.56504 13.667 53.922)" gradientUnits="userSpaceOnUse">
   <stop offset="0%" stop-color="#ffffff"/>
   <stop offset="100%" stop-color="#ffffff" stop-opacity=".204"/>
  </radialGradient>
  <path fill="url(#c)" d="M120.197 53.922l-16.438 16.462H53.705c-36.315 0-40.038 3.728-40.038 40.043v2.06c0-36.316 3.723-40.046 40.038-40.046h50.054l16.438-16.46h83.43c36.316 0 40.04 3.727 40.04 40.043v-2.057c0-36.316-3.724-40.045-40.04-40.045h-83.43z"/>
 </g>
 <path fill="#ffffff" opacity=".1" d="M243.667 167.096l-65.715 65.845h25.676c36.315 0 40.039-3.727 40.039-40.043v-25.802z"/>
 <path opacity=".2" d="M13.667 192.898v2.057C13.667 231.27 17.39 235 53.705 235h149.923c36.315 0 40.039-3.73 40.039-40.045v-2.057c0 36.316-3.724 40.043-40.04 40.043H53.706c-36.315 0-40.038-3.727-40.038-40.043z"/>
 <g fill="#e2d7cb">
  <path d="M127.995 92C94.865 92 68 119.544 68 153.523c0 27.175 17.19 50.234 41.035 58.37 3 .563 4.095-1.333 4.095-2.964 0-1.46-.05-5.331-.08-10.463-16.69 3.717-20.21-8.248-20.21-8.248-2.73-7.105-6.66-8.997-6.66-8.997-5.45-3.82.41-3.737.41-3.737 6.02.435 9.19 6.341 9.19 6.341 5.35 9.402 14.045 6.685 17.46 5.111.545-3.973 2.095-6.685 3.81-8.223-13.325-1.553-27.33-6.828-27.33-30.405 0-6.715 2.34-12.206 6.175-16.507-.615-1.558-2.675-7.813.59-16.281 0 0 5.04-1.656 16.5 6.305a56.248 56.248 0 0 1 15.02-2.071c5.095.026 10.23.707 15.02 2.071 11.455-7.961 16.485-6.305 16.485-6.305 3.275 8.468 1.215 14.723.595 16.281 3.845 4.301 6.165 9.792 6.165 16.507 0 23.633-14.03 28.832-27.395 30.354 2.155 1.897 4.075 5.655 4.075 11.391 0 8.223-.075 14.857-.075 16.876 0 1.646 1.08 3.558 4.125 2.958 23.825-8.156 41-31.194 41-58.364C188 119.544 161.135 92 127.995 92z"/>
 </g>
</svg>
