<svg xmlns="http://www.w3.org/2000/svg" style="isolation:isolate" width="256" height="256">
 <path fill="#bc1938" d="M53.039 21C16.724 21 13 23.055 13 59.371v52.167h230V79.563c0-36.316-3.724-42.102-40.039-42.102h-89.336L97.198 21H53.039z"/>
 <path fill="#f22c42" d="M53.039 70.384C16.722 70.384 13 74.114 13 110.429v84.524C13 231.269 16.722 235 53.039 235h149.922c36.317 0 40.039-3.731 40.039-40.047V93.969c0-36.316-3.722-40.047-40.039-40.047H119.53l-16.438 16.462H53.039z"/>
 <linearGradient id="a" x2="0" y1=".5" y2="-.5" gradientTransform="matrix(230 0 0 181.078 13 53.922)" gradientUnits="userSpaceOnUse">
  <stop offset="0%" stop-color="#ffffff" stop-opacity=".07"/>
  <stop offset="67.282%" stop-color="#fcefe8" stop-opacity="0"/>
 </linearGradient>
 <path fill="url(#a)" d="M53.039 70.384C16.722 70.384 13 74.114 13 110.429v84.524C13 231.269 16.722 235 53.039 235h149.922c36.317 0 40.039-3.731 40.039-40.047V93.969c0-36.316-3.722-40.047-40.039-40.047H119.53l-16.438 16.462H53.039z"/>
 <g opacity=".4">
  <radialGradient id="b" cx=".5" cy=".5" r=".272" fx=".5" fy=".136" gradientTransform="matrix(230 0 0 60.62 13 21)" gradientUnits="userSpaceOnUse">
   <stop offset="0%" stop-color="#ffffff"/>
   <stop offset="100%" stop-color="#ffffff" stop-opacity=".204"/>
  </radialGradient>
  <path fill="url(#b)" d="M53.039 21C16.724 21 13 23.055 13 59.371v2.059c0-36.316 3.724-38.373 40.039-38.373h44.159l16.427 16.461h89.336c36.315 0 40.039 5.786 40.039 42.102v-2.057c0-36.316-3.724-42.102-40.039-42.102h-89.336L97.198 21H53.039z"/>
 </g>
 <g opacity=".4">
  <radialGradient id="c" cx=".5" cy=".5" r=".272" fx=".482" fy=".211" gradientTransform="matrix(230 0 0 58.565 13 53.922)" gradientUnits="userSpaceOnUse">
   <stop offset="0%" stop-color="#ffffff"/>
   <stop offset="100%" stop-color="#ffffff" stop-opacity=".204"/>
  </radialGradient>
  <path fill="url(#c)" d="M119.53 53.922l-16.438 16.462H53.039C16.724 70.384 13 74.112 13 110.427v2.06c0-36.316 3.724-40.046 40.039-40.046h50.053l16.438-16.46h83.431c36.315 0 40.039 3.727 40.039 40.043v-2.057c0-36.316-3.724-40.045-40.039-40.045H119.53z"/>
 </g>
 <path fill="#ffffff" opacity=".1" d="M243 167.096l-65.715 65.845h25.676c36.315 0 40.039-3.727 40.039-40.043v-25.802z"/>
 <path opacity=".2" d="M13 192.898v2.057C13 231.271 16.724 235 53.039 235h149.922c36.315 0 40.039-3.729 40.039-40.045v-2.057c0 36.316-3.724 40.043-40.039 40.043H53.039c-36.315 0-40.039-3.727-40.039-40.043z"/>
 <g fill="#fab4bc">
  <path d="M96.385 107.048a13.039 13.039 0 0 0-6.045 1.646c-7.777 4.103-14.94 17.556-18.825 34.992-3.322 14.813-4.537 35.067-2.565 43.213C70.675 193.904 73.653 197 78.948 197c7.845-.135 17.7-8.883 23.947-20.667 4.522-6.524 15-9.492 25.102-9.162 10.103-.353 20.588 2.638 25.11 9.162 6.247 11.784 16.102 20.532 23.94 20.667 5.295 0 8.28-3.096 9.997-10.101 1.98-8.146.765-28.4-2.55-43.213-3.9-17.436-11.055-30.889-18.832-34.992-4.275-2.292-7.8-2.225-10.927 0-3.953 2.826-12.195 5.862-26.738 5.869-14.535.015-22.777-3.043-26.73-5.869a7.95 7.95 0 0 0-4.882-1.646zm1.86 22.546h7.44v7.516h7.44v7.515h-7.44v7.515h-7.44v-7.515h-7.44v-7.515h7.44v-7.516zm55.792 0c2.055 0 3.72 1.684 3.72 3.758s-1.665 3.758-3.72 3.758a3.73 3.73 0 0 1-2.637-1.107 3.75 3.75 0 0 1-1.083-2.651c0-2.074 1.665-3.758 3.72-3.758zm-7.44 7.516c2.055 0 3.72 1.683 3.72 3.757 0 2.075-1.665 3.758-3.72 3.758a3.733 3.733 0 0 1-2.637-1.107 3.747 3.747 0 0 1-1.083-2.651c0-2.074 1.665-3.757 3.72-3.757zm14.88 0c2.055 0 3.72 1.683 3.72 3.757 0 2.075-1.665 3.758-3.72 3.758a3.73 3.73 0 0 1-2.637-1.107 3.747 3.747 0 0 1-1.083-2.651c0-2.074 1.665-3.757 3.72-3.757zm-7.44 7.515c2.055 0 3.72 1.684 3.72 3.758s-1.665 3.757-3.72 3.757a3.73 3.73 0 0 1-2.637-1.106 3.75 3.75 0 0 1-1.083-2.651c0-2.074 1.665-3.758 3.72-3.758z"/>
 </g>
</svg>
