<svg xmlns="http://www.w3.org/2000/svg" style="isolation:isolate" width="16" height="16" viewBox="0 0 16 16">
 <path fill="#d4be98" d="M 8 0 C 3.581913 0 0 3.581913 0 8 C 0 12.418782 3.581913 16 8 16 C 12.418782 16 16 12.418782 16 8 C 16 3.581913 12.418782 0 8 0 Z M 8 1.36413 C 11.665391 1.36413 14.63587 4.334609 14.63587 8 C 14.63587 8.563754 14.558964 9.10777 14.42663 9.630435 L 11.27038 6.122283 L 7.235054 10.713315 L 9.182065 6.817935 L 8.209239 5.078804 L 2.472826 11.671196 C 1.773008 10.61959 1.36413 9.357685 1.36413 8 C 1.36413 4.334609 4.334609 1.36413 8 1.36413 Z"/>
</svg>
