<svg xmlns="http://www.w3.org/2000/svg" style="isolation:isolate" width="16" height="16" viewBox="0 0 16 16">
 <defs>
  <clipPath id="_clipPath_EkjP0Oh8c2QCAYfhPrPQmXxe0nNpg9dN">
   <rect width="16" height="16"/>
  </clipPath>
 </defs>
 <g clip-path="url(#_clipPath_EkjP0Oh8c2QCAYfhPrPQmXxe0nNpg9dN)">
  <rect fill="#eff0f2" width="4.625" height="3.594" x="16.38" y="0" transform="matrix(1,0,0,1,0,0)"/>
  <path fill="#eff0f2" fill-rule="evenodd" d="M 6.423 5.307 C 5.74 5.402 5.649 7.886 5.151 8.366 C 4.653 8.845 2.207 8.824 2.085 9.508 C 1.963 10.189 4.26 11.049 4.563 11.677 C 4.864 12.302 4.089 14.636 4.697 14.963 C 5.307 15.291 6.832 13.347 7.515 13.253 C 8.199 13.158 10.176 14.622 10.672 14.142 C 11.173 13.662 9.801 11.608 9.923 10.924 C 10.045 10.239 12.041 8.81 11.74 8.188 C 11.439 7.563 9.078 8.241 8.47 7.912 C 7.86 7.584 7.109 5.215 6.423 5.313 M 12.319 1.011 C 11.968 1.108 11.379 1.884 11.08 1.941 C 10.737 2.006 9.715 1.331 9.477 1.581 C 9.241 1.834 9.99 2.822 9.948 3.165 C 9.904 3.505 8.926 4.277 9.094 4.578 C 9.263 4.877 10.445 4.475 10.758 4.62 C 11.074 4.765 11.507 5.907 11.847 5.842 C 12.188 5.777 12.165 4.555 12.402 4.303 C 12.64 4.052 13.877 3.992 13.919 3.649 C 13.961 3.308 12.785 2.959 12.615 2.658 C 12.446 2.357 12.76 1.156 12.444 1.011 C 12.407 0.994 12.366 0.999 12.316 1.011"/>
 </g>
</svg>
