<svg xmlns="http://www.w3.org/2000/svg" style="isolation:isolate" width="16" height="16" viewBox="0 0 16 16">
 <path fill="#eff0f2" fill-rule="evenodd" d="M 0 0.889 L 4.197 0.889 L 4.197 5.085 L 0 5.085 L 0 0.889 L 0 0.889 L 0 0.889 L 0 0.889 Z M 5.928 0.915 L 10.125 0.915 L 10.125 5.111 L 5.928 5.111 L 5.928 0.915 L 5.928 0.915 L 5.928 0.915 L 5.928 0.915 Z M 11.803 0.915 L 16 0.915 L 16 5.111 L 11.803 5.111 L 11.803 0.915 L 11.803 0.915 L 11.803 0.915 Z M 0 5.889 L 4.197 5.889 L 4.197 10.085 L 0 10.085 L 0 5.889 L 0 5.889 L 0 5.889 L 0 5.889 Z M 5.928 5.915 L 10.125 5.915 L 10.125 10.111 L 5.928 10.111 L 5.928 5.915 L 5.928 5.915 L 5.928 5.915 L 5.928 5.915 Z M 11.803 5.915 L 16 5.915 L 16 10.111 L 11.803 10.111 L 11.803 5.915 L 11.803 5.915 L 11.803 5.915 Z M 0 10.889 L 4.197 10.889 L 4.197 15.085 L 0 15.085 L 0 10.889 L 0 10.889 L 0 10.889 Z M 5.928 10.915 L 10.125 10.915 L 10.125 15.111 L 5.928 15.111 L 5.928 10.915 L 5.928 10.915 L 5.928 10.915 Z M 11.803 10.915 L 16 10.915 L 16 15.111 L 11.803 15.111 L 11.803 10.915 L 11.803 10.915 Z"/>
</svg>
