<svg xmlns="http://www.w3.org/2000/svg" width="16" height="16" version="1.1">
 <path style="fill:#eff0f2" d="M 7.171875 0.51367188 C 6.916255 0.51367188 6.6607138 0.61267375 6.4648438 0.80859375 C 6.0731037 1.2003238 6.0731038 1.8308562 6.4648438 2.2226562 L 9.2421875 5 L 2 5 C 1.446 5 1 5.446 1 6 C 1 6.554 1.446 7 2 7 C 3.2758 6.997 4.2728875 6.99917 5.9296875 7 L 0.80664062 12.121094 C 0.41490063 12.512834 0.41490063 13.143356 0.80664062 13.535156 C 1.1983806 13.926896 1.8309562 13.926896 2.2226562 13.535156 C 3.1397362 12.613116 3.8684875 11.888125 5.0546875 10.703125 A 5 5 0 0 0 10 15 A 5 5 0 0 0 15 10 A 5 5 0 0 0 13.533203 6.4667969 L 13.535156 6.4648438 C 13.535156 6.4648438 9.7105062 2.6500938 7.8789062 0.80859375 C 7.6833063 0.61267375 7.427475 0.51367188 7.171875 0.51367188 z M 10 7 A 3 3 0 0 1 13 10 A 3 3 0 0 1 10 13 A 3 3 0 0 1 7 10 A 3 3 0 0 1 10 7 z"/>
 <circle cx="10" cy="10" r="2" style="fill:#eff0f2"/>
</svg>
