<svg xmlns="http://www.w3.org/2000/svg" width="16" height="16" version="1.1" viewBox="0 0 4.23 4.23">
 <g transform="translate(0,-292.76665)">
  <path d="m 2.389329,296.467 c 3.3e-4,-0.003 0.02482,-0.0852 0.05443,-0.18352 0.02961,-0.0983 0.05001,-0.18516 0.04535,-0.19293 -0.0047,-0.008 -0.04398,-0.0143 -0.08737,-0.0144 -0.04339,-2.1e-4 -0.138066,-0.0129 -0.210399,-0.0282 -0.396124,-0.0839 -0.798359,-0.28919 -1.172611,-0.59843 -0.07618,-0.063 -0.143554,-0.10567 -0.151574,-0.0961 -0.0079,0.009 -0.05179,0.0669 -0.09745,0.12767 -0.161401,0.21477 -0.405904,0.37096 -0.639633,0.40861 -0.06471,0.0104 -0.120007,0.0165 -0.122882,0.0135 -0.0029,-0.003 0.04046,-0.0987 0.0963,-0.21254 0.232458,-0.47406 0.229747,-0.75224 -0.01206,-1.23758 L 0,294.26957 h 0.05166 c 0.08368,0 0.26616,0.0539 0.365359,0.10786 0.121894,0.0663 0.318012,0.2478 0.393156,0.36377 0.03316,0.0512 0.06447,0.093 0.06957,0.093 0.0051,0 0.07356,-0.0497 0.152114,-0.11039 0.248001,-0.19166 0.575375,-0.38826 0.80685,-0.48453 0.0029,-0.001 -0.0032,-0.0245 -0.0136,-0.0517 -0.02853,-0.075 -0.167882,-0.21698 -0.270638,-0.27567 l -0.09155,-0.0523 0.09116,-0.0302 c 0.337566,-0.11182 0.863066,-0.15815 1.09816,-0.0968 0.199782,0.0521 0.36934,0.15187 0.532129,0.31304 0.08846,0.0876 0.177732,0.15725 0.225869,0.17627 0.248233,0.0981 0.526472,0.28959 0.668153,0.45983 0.07672,0.0922 0.15493,0.19997 0.15493,0.21351 0,0.005 -0.08046,0.0662 -0.178812,0.13706 -0.09835,0.0709 -0.178813,0.13512 -0.178813,0.14277 0,0.008 0.07623,0.0622 0.169401,0.12128 0.09317,0.0591 0.169402,0.11378 0.169402,0.12158 0,0.0558 -0.335674,0.28576 -0.590276,0.4044 -0.167321,0.078 -0.50142,0.19766 -0.551732,0.19766 -0.01374,0 -0.02498,0.007 -0.02498,0.0162 0,0.0375 -0.159835,0.19333 -0.268477,0.26169 -0.126201,0.0794 -0.393031,0.19524 -0.389706,0.16917 z m 1.07663,-1.46654 c 0.131424,-0.0936 0.142593,-0.24245 0.02766,-0.36864 -0.04772,-0.0524 -0.06923,-0.0542 -0.0563,-0.005 0.01665,0.0637 -0.04278,0.13179 -0.115012,0.13179 -0.07236,0 -0.104713,-0.0309 -0.123183,-0.11776 l -0.01299,-0.061 -0.05741,0.0605 c -0.09574,0.10089 -0.09573,0.21877 4.3e-5,0.32305 0.09228,0.10049 0.227131,0.11523 0.337198,0.0369 z" style="fill:#eff0f2"/>
 </g>
</svg>
