<svg xmlns="http://www.w3.org/2000/svg" style="isolation:isolate" width="16" height="16" viewBox="0 0 16 16">
 <path fill="#eff0f2" fill-rule="evenodd" d="M 0.909 0 L 6.364 0 C 6.865 0 7.273 0.407 7.273 0.909 L 7.273 3.455 C 7.273 3.956 6.865 4.364 6.364 4.364 L 0.909 4.364 C 0.407 4.364 0 3.956 0 3.455 L 0 0.909 C 0 0.407 0.407 0 0.909 0 L 0.909 0 L 0.909 0 L 0.909 0 L 0.909 0 Z M 9.636 0 L 15.091 0 C 15.593 0 16 0.407 16 0.909 L 16 3.455 C 16 3.956 15.593 4.364 15.091 4.364 L 9.636 4.364 C 9.135 4.364 8.727 3.956 8.727 3.455 L 8.727 0.909 C 8.727 0.407 9.135 0 9.636 0 L 9.636 0 L 9.636 0 L 9.636 0 L 9.636 0 Z M 5.273 5.818 L 10.727 5.818 C 11.229 5.818 11.636 6.226 11.636 6.727 L 11.636 9.273 C 11.636 9.774 11.229 10.182 10.727 10.182 L 5.273 10.182 C 4.771 10.182 4.364 9.774 4.364 9.273 L 4.364 6.727 C 4.364 6.226 4.771 5.818 5.273 5.818 L 5.273 5.818 L 5.273 5.818 L 5.273 5.818 Z M 13.455 5.818 L 15.636 5.818 C 15.837 5.818 16 5.981 16 6.182 L 16 9.818 C 16 10.019 15.837 10.182 15.636 10.182 L 13.455 10.182 C 13.254 10.182 13.091 10.019 13.091 9.818 L 13.091 6.182 C 13.091 5.981 13.254 5.818 13.455 5.818 L 13.455 5.818 L 13.455 5.818 Z M 0.909 11.636 L 6.364 11.636 C 6.865 11.636 7.273 12.044 7.273 12.545 L 7.273 15.091 C 7.273 15.593 6.865 16 6.364 16 L 0.909 16 C 0.407 16 0 15.593 0 15.091 L 0 12.545 C 0 12.044 0.407 11.636 0.909 11.636 L 0.909 11.636 Z M 9.636 11.636 L 15.091 11.636 C 15.593 11.636 16 12.044 16 12.545 L 16 15.091 C 16 15.593 15.593 16 15.091 16 L 9.636 16 C 9.135 16 8.727 15.593 8.727 15.091 L 8.727 12.545 C 8.727 12.044 9.135 11.636 9.636 11.636 Z"/>
</svg>
