<svg xmlns="http://www.w3.org/2000/svg" style="isolation:isolate" width="16" height="16" viewBox="0 0 16 16">
 <path fill="#eff0f2" fill-rule="evenodd" d="M 2.029 0 C 1.696 0 1.429 0.268 1.429 0.6 L 1.429 2.543 C 1.429 2.875 1.696 3.143 2.029 3.143 L 2.857 3.143 L 2.857 12.857 L 2.029 12.857 C 1.696 12.857 1.429 13.125 1.429 13.457 L 1.429 15.4 C 1.429 15.732 1.696 16 2.029 16 L 2.971 16 L 3.971 16 L 6.171 16 L 6.571 16 C 10.99 16 14.571 12.418 14.571 8 C 14.571 3.582 10.99 0 6.571 0 L 6.171 0 L 3.971 0 L 2.029 0 Z M 6 3.143 L 6.171 3.143 L 6.571 3.143 C 9.291 3.143 11.429 5.28 11.429 8 C 11.429 10.72 9.291 12.857 6.571 12.857 L 6.171 12.857 L 6 12.857 L 6 3.143 Z"/>
</svg>
