<svg xmlns="http://www.w3.org/2000/svg" width="16" height="16" version="1.1" viewBox="0 0 4.23 4.23">
 <g transform="translate(0,-292.76665)">
  <path style="fill:#eff0f2" d="m 3.9864334,296.99998 c 0.3130371,-2.01154 -0.5280501,-2.66944 -0.37129,-2.939 0.113991,-0.19551 0.6181899,-0.10783 0.6181899,-0.10783 -0.3935909,-0.32891 -0.7445319,-0.34352 -1.0823289,-0.25764 -0.4114149,-0.62215 -2.094283,-1.44306 -2.78539397,-0.30933 0,0 -0.396036,0.13075 -0.363737,0.27643 0.03184,0.14246 0.626148,-0.0674 1.46999797,0.3312 -0.04993,0.58221 0.208074,0.95421 0.683203,1.17787 -0.129888,-0.23199 -0.314482,-0.44578 -0.126984,-0.82288 0.598828,0.39215 0.9046939,0.89722 1.16324,1.40393 -0.0579,-0.52412 -0.577215,-1.82543 -2.22413797,-2.20461 1.30903997,-1.06915 3.20592707,1.3064 3.01924097,3.45186 z"/>
 </g>
</svg>
