<svg xmlns="http://www.w3.org/2000/svg" style="isolation:isolate" width="16" height="16" viewBox="0 0 16 16">
 <defs>
  <clipPath id="_clipPath_q8JK7jhvCk6B2vHUswknY4omjoxKJ0CP">
   <rect width="16" height="16"/>
  </clipPath>
 </defs>
 <g clip-path="url(#_clipPath_q8JK7jhvCk6B2vHUswknY4omjoxKJ0CP)">
  <rect style="fill:#000000" fill-opacity="0" width="16" height="16"/>
  <path fill="#eff0f2" fill-rule="evenodd" d="M -0.031 12.5 L 15.969 12.5 L 15.969 14.5 L -0.031 14.5 L -0.031 12.5 Z"/>
  <path fill="#eff0f2" fill-rule="evenodd" d="M 0.91 10.304 L 0.91 2.2 L 3.411 2.2 L 3.411 2.2 Q 4.233 2.2 4.904 2.432 L 4.904 2.432 L 4.904 2.432 Q 5.575 2.663 6.015 3.045 L 6.015 3.045 L 6.015 3.045 Q 6.455 3.427 6.75 3.954 L 6.75 3.954 L 6.75 3.954 Q 7.046 4.481 7.179 5.054 L 7.179 5.054 L 7.179 5.054 Q 7.312 5.627 7.312 6.252 L 7.312 6.252 L 7.312 6.252 Q 7.312 6.831 7.19 7.386 L 7.19 7.386 L 7.19 7.386 Q 7.069 7.942 6.774 8.48 L 6.774 8.48 L 6.774 8.48 Q 6.478 9.019 6.039 9.418 L 6.039 9.418 L 6.039 9.418 Q 5.599 9.818 4.91 10.061 L 4.91 10.061 L 4.91 10.061 Q 4.221 10.304 3.364 10.304 L 3.364 10.304 L 0.91 10.304 Z M 2.299 8.996 L 3.561 8.996 L 3.561 8.996 Q 4.175 8.996 4.644 8.752 L 4.644 8.752 L 4.644 8.752 Q 5.112 8.509 5.373 8.098 L 5.373 8.098 L 5.373 8.098 Q 5.633 7.687 5.755 7.224 L 5.755 7.224 L 5.755 7.224 Q 5.876 6.761 5.876 6.252 L 5.876 6.252 L 5.876 6.252 Q 5.876 5.117 5.321 4.313 L 5.321 4.313 L 5.321 4.313 Q 4.765 3.508 3.688 3.508 L 3.688 3.508 L 2.299 3.508 L 2.299 8.996 Z M 10.38 10.304 L 8.991 10.304 L 8.991 2.2 L 12.359 2.2 L 12.359 2.2 Q 13.76 2.2 14.42 2.929 L 14.42 2.929 L 14.42 2.929 Q 15.08 3.659 15.08 4.712 L 15.08 4.712 L 15.08 4.712 Q 15.08 5.708 14.391 6.472 L 14.391 6.472 L 14.391 6.472 Q 13.702 7.236 12.359 7.236 L 12.359 7.236 L 10.38 7.236 L 10.38 10.304 Z M 10.38 5.916 L 12.429 5.916 L 12.429 5.916 Q 13.042 5.916 13.343 5.557 L 13.343 5.557 L 13.343 5.557 Q 13.644 5.198 13.644 4.712 L 13.644 4.712 L 13.644 4.712 Q 13.644 4.249 13.361 3.884 L 13.361 3.884 L 13.361 3.884 Q 13.077 3.52 12.429 3.52 L 12.429 3.52 L 10.38 3.52 L 10.38 5.916 Z"/>
 </g>
</svg>
