<svg xmlns="http://www.w3.org/2000/svg" style="isolation:isolate" width="16" height="16" viewBox="0 0 16 16">
 <g opacity=".6">
  <path fill="#eff0f2" d="M 7.273 3.636 L 7.273 12.364 L 0.727 12.364 L 0.727 13.091 L 8 13.091 L 8 8.727 L 15.273 8.727 L 15.273 8 L 8 8 L 8 3.636 L 7.273 3.636 Z"/>
 </g>
 <path fill="#eff0f2" d="M 7.636 2.182 C 7.034 2.182 6.545 2.67 6.545 3.273 C 6.545 3.875 7.034 4.364 7.636 4.364 C 8.239 4.364 8.727 3.875 8.727 3.273 C 8.727 2.67 8.239 2.182 7.636 2.182 Z M 7.636 7.273 C 7.034 7.273 6.545 7.761 6.545 8.364 C 6.545 8.966 7.034 9.455 7.636 9.455 C 8.239 9.455 8.727 8.966 8.727 8.364 C 8.727 7.761 8.239 7.273 7.636 7.273 Z M 14.909 7.273 C 14.307 7.273 13.818 7.761 13.818 8.364 C 13.818 8.966 14.307 9.455 14.909 9.455 C 15.512 9.455 16 8.966 16 8.364 C 16 7.761 15.512 7.273 14.909 7.273 Z M 1.091 11.636 C 0.488 11.636 0 12.125 0 12.727 C 0 13.33 0.488 13.818 1.091 13.818 C 1.693 13.818 2.182 13.33 2.182 12.727 C 2.182 12.125 1.693 11.636 1.091 11.636 Z M 7.636 11.636 C 7.034 11.636 6.545 12.125 6.545 12.727 C 6.545 13.33 7.034 13.818 7.636 13.818 C 8.239 13.818 8.727 13.33 8.727 12.727 C 8.727 12.125 8.239 11.636 7.636 11.636 Z"/>
</svg>
