<svg xmlns="http://www.w3.org/2000/svg" style="isolation:isolate" width="16" height="16" viewBox="0 0 16 16">
 <path fill="#eff0f2" fill-rule="evenodd" d="M 7.591 0 C 7.591 0 8.571 2.605 8.337 3.535 C 8.04 4.714 7.26 5.696 6.303 5.893 C 6.051 5.944 5.55 5.727 5.181 5.492 C 4.586 5.146 4.434 4.474 4.273 3.839 C 4.273 3.839 4.074 4.92 4.165 5.756 C 4.257 6.593 4.717 7.818 4.687 8.461 C 4.656 9.156 4.37 9.917 4.37 9.917 C 4.37 9.917 3.918 9.106 3.632 8.565 C 3.346 8.023 2.59 7.293 2.59 7.293 C 2.59 7.293 3.096 8.188 3.11 9.026 C 3.124 9.863 1.663 11.633 3.198 13.935 C 4.75 16.262 7.074 15.99 7.074 15.99 L 7.639 15.783 L 5.47 14.72 L 8.269 13.348 L 5.47 11.977 L 8.269 10.606 L 11.068 11.977 L 13.505 10.783 L 13.437 10.396 L 11.068 9.235 L 13.131 8.224 L 13.047 7.545 L 12.706 5.037 C 12.706 5.037 12.314 5.872 11.879 6.165 C 11.593 6.358 11.102 6.427 11.102 6.427 C 11.102 6.427 10.716 4.369 10.31 3.299 C 9.584 1.387 7.591 0 7.591 0 Z M 11.068 11.977 L 8.269 13.348 L 10.838 14.607 L 11.852 14.235 L 12.988 12.919 L 11.068 11.977 Z"/>
</svg>
