<svg xmlns="http://www.w3.org/2000/svg" width="16" height="16" version="1.1" viewBox="0 0 4.23 4.23">
 <g transform="translate(0,-292.76665)">
  <path d="m 0.99046773,296.58222 c -0.1252484,-0.045 -0.35461846,-0.1776 -0.46028246,-0.26607 -0.1870921,-0.15664 -0.324739,-0.36717 -0.2400644,-0.36717 0.01397,0 0.1110748,0.0681 0.215781,0.15129 0.34420976,0.27353 0.61429633,0.36995 0.86052023,0.30721 0.2799848,-0.0713 0.6977009,-0.33009 0.79992,-0.49548 0.065519,-0.10601 0.063746,-0.17264 -0.00593,-0.22222 -0.053745,-0.0383 -0.048906,-0.0398 0.1063598,-0.0343 l 0.1626685,0.006 0.00717,0.0876 c 0.00505,0.0617 -0.022675,0.14914 -0.093845,0.29592 -0.05556,0.11458 -0.1010179,0.22822 -0.1010179,0.25254 0,0.0545 -0.1808189,0.15592 -0.3879028,0.2176 -0.1586892,0.0473 -0.5856394,0.0626 -0.7238657,0.026 -0.064534,-0.0171 -0.069353,-0.0148 -0.04073,0.0197 0.027498,0.0331 0.025294,0.0388 -0.014393,0.0371 -0.02577,-10e-4 -0.063751,-0.008 -0.084397,-0.0154 z m 1.01938927,-0.0648 c 0.3111606,-0.12945 0.5100426,-0.27381 0.6444482,-0.46775 0.066424,-0.0959 0.071652,-0.16943 0.00749,-0.10525 -0.067133,0.0671 -0.094684,0.0321 -0.094684,-0.12054 0,-0.19795 -0.051988,-0.25739 -0.2067164,-0.23635 l -0.1061058,0.0144 0.1251294,-0.0663 c 0.068821,-0.0365 0.142023,-0.081 0.1626685,-0.0988 0.020638,-0.0179 0.085024,-0.0564 0.1430628,-0.0856 0.125648,-0.0632 0.1572472,-0.11437 0.1572472,-0.2548 0,-0.17835 -0.052694,-0.302 -0.1885844,-0.4425 -0.074467,-0.077 -0.1115325,-0.13139 -0.089532,-0.13139 0.020637,0 0.096528,0.0609 0.1686243,0.13534 0.1037828,0.10715 0.1418669,0.17025 0.1828535,0.30295 0.060754,0.19669 0.06772,0.47912 0.017119,0.69413 -0.018627,0.0792 -0.03007,0.1439 -0.025427,0.1439 0.00463,0 0.025215,-0.031 0.045762,-0.0688 0.020532,-0.0378 0.037788,-0.0553 0.038338,-0.0389 0.00159,0.046 -0.1127654,0.24992 -0.2176278,0.38822 -0.183007,0.24135 -0.570013,0.47743 -0.8325034,0.50783 l -0.1375965,0.0159 z M 1.7412441,295.52171 C 1.4983646,295.41215 1.254596,295.08384 1.2267274,294.82877 l -0.012965,-0.11855 0.080058,0.16109 c 0.151929,0.3057 0.3812487,0.46579 0.5601494,0.39104 0.076359,-0.0319 0.1625494,-0.12346 0.1625494,-0.17268 0,-0.0123 -0.027758,-0.004 -0.061685,0.0181 -0.099155,0.065 -0.2308145,0.0521 -0.3136,-0.0307 -0.1780143,-0.17802 -0.1398799,-0.48816 0.088053,-0.71609 0.1303867,-0.13039 0.227203,-0.17089 0.4384807,-0.18343 0.1560883,-0.009 0.2111455,-0.002 0.3178731,0.0443 0.2489068,0.10708 0.4983269,0.45064 0.5252059,0.72344 l 0.011351,0.11528 -0.086077,-0.17518 c -0.1101884,-0.22426 -0.1926193,-0.32067 -0.3317372,-0.38801 -0.1384459,-0.067 -0.236347,-0.0507 -0.3244242,0.0539 -0.080542,0.0957 -0.081317,0.13897 -0.00159,0.0867 0.099155,-0.065 0.2308172,-0.0521 0.3136001,0.0307 0.2482823,0.24828 0.054086,0.73727 -0.3477366,0.8756 -0.1341888,0.0462 -0.3744463,0.0354 -0.5030391,-0.0226 z m 0.5591783,-0.0811 c 0.050353,-0.0384 0.1084289,-0.10247 0.1290611,-0.14237 0.077084,-0.14906 0.025665,-0.40195 -0.089135,-0.43839 -0.069694,-0.0221 -0.1309555,0.0366 -0.2487401,0.23823 -0.1258145,0.21542 -0.1736539,0.25506 -0.3254744,0.26965 -0.1092359,0.0105 -0.1216105,0.0171 -0.09411,0.0502 0.061555,0.0742 0.1779932,0.10636 0.3593438,0.0993 0.1496483,-0.006 0.1918758,-0.0178 0.2690548,-0.0767 z M 2.009341,294.84157 c 0.028374,-0.031 0.086574,-0.11904 0.1293363,-0.1957 0.1112785,-0.1995 0.1773185,-0.25338 0.3284194,-0.26789 0.1211289,-0.0116 0.1249891,-0.0143 0.085381,-0.058 -0.063918,-0.0706 -0.1997022,-0.1043 -0.3754861,-0.0931 -0.1771121,0.0113 -0.2604187,0.0572 -0.3544119,0.19529 -0.1507252,0.22146 0.018971,0.60258 0.1867613,0.41944 z m -0.4808272,0.27886 c -0.2218743,-0.20452 -0.3147615,-0.54377 -0.2493671,-0.91077 0.044849,-0.2517 0.044799,-0.25762 -0.00159,-0.19873 -0.033557,0.0425 -0.033412,0.0361 0.00106,-0.0515 0.1292305,-0.32756 0.5240047,-0.67004 0.8942307,-0.77577 0.2010014,-0.0574 0.3016515,-0.0394 0.1189567,0.0213 -0.3204316,0.10643 -0.6529016,0.35295 -0.7626905,0.56552 l -0.044585,0.0863 0.064908,-0.0425 c 0.1025075,-0.0672 0.1167209,-0.0541 0.1167209,0.10763 0,0.19856 0.052118,0.25787 0.206719,0.23523 l 0.1061057,-0.0155 -0.1126171,0.061 c -0.2062745,0.1117 -0.4125569,0.24528 -0.444209,0.28764 -0.039926,0.0534 -0.040185,0.23443 -5.291e-4,0.36725 0.018759,0.0628 0.080301,0.15423 0.1578292,0.23439 0.1499341,0.15503 0.1103233,0.17727 -0.050953,0.0286 z M 1.80798,294.08036 c -0.040521,-0.0405 -0.0087,-0.18692 0.083421,-0.38373 0.054761,-0.117 0.099684,-0.23064 0.099832,-0.25254 2.646e-4,-0.05 0.1913123,-0.15469 0.3881729,-0.21279 0.1608693,-0.0475 0.5271797,-0.0612 0.6992118,-0.0262 0.088196,0.0179 0.095131,0.0159 0.065757,-0.0195 -0.110625,-0.1333 0.3457045,0.0656 0.5576702,0.24307 0.1880208,0.15742 0.3259958,0.36804 0.2411016,0.36804 -0.01397,0 -0.1125115,-0.0694 -0.2189772,-0.15415 -0.2165455,-0.17245 -0.3709775,-0.3158 -0.600022,-0.3582 -0.1687354,-0.0312 -0.3518218,0.0154 -0.507201,0.0882 -0.2455916,0.11512 -0.6199611,0.37453 -0.6199611,0.52704 0,0.0238 0.044191,0.11835 0.074316,0.14642 l 0.054771,0.051 H 1.9753686 c -0.082889,0 -0.1582129,-0.008 -0.1673886,-0.0167 z" style="fill:#eff0f2"/>
 </g>
</svg>
