<svg xmlns="http://www.w3.org/2000/svg" style="isolation:isolate" width="16" height="16" viewBox="0 0 16 16">
 <path fill="#eff0f2" fill-rule="evenodd" d="M 7.946 6.855 C 8.165 6.845 8.382 6.897 8.571 7.007 C 9.118 7.322 9.305 8.021 8.99 8.568 C 8.674 9.114 7.975 9.301 7.429 8.986 C 6.882 8.67 6.695 7.971 7.01 7.425 C 7.205 7.088 7.558 6.873 7.946 6.855 L 7.946 6.855 Z M 8.063 5.331 C 7.088 5.308 6.178 5.819 5.69 6.663 C 5.337 7.275 5.241 8.003 5.424 8.687 C 5.607 9.37 6.054 9.952 6.667 10.306 C 7.279 10.659 8.007 10.755 8.69 10.572 C 9.373 10.389 9.956 9.942 10.31 9.33 C 10.663 8.717 10.759 7.989 10.576 7.306 C 10.393 6.623 9.946 6.04 9.333 5.687 C 8.946 5.464 8.509 5.341 8.063 5.331 L 8.063 5.331 Z M 11.146 3.234 L 9.616 4.764 L 11.232 6.38 L 12.767 4.845 C 13.38 5.773 13.714 6.868 13.714 7.996 C 13.714 9.512 13.112 10.965 12.041 12.037 C 10.969 13.109 9.516 13.711 8 13.711 C 6.484 13.711 5.031 13.109 3.959 12.037 C 2.888 10.965 2.286 9.512 2.286 7.996 C 2.286 6.481 2.888 5.027 3.959 3.956 C 5.231 2.687 7.025 2.091 8.803 2.345 L 10.679 0.469 C 7.772 -0.568 4.528 0.16 2.343 2.339 C -0.781 5.464 -0.781 10.529 2.343 13.653 C 5.467 16.777 10.533 16.777 13.657 13.653 C 16.781 10.529 16.781 5.464 13.657 2.339 C 13.418 2.105 13.165 1.886 12.899 1.683 L 12.849 1.532 L 12.784 1.597 C 12.784 1.597 12.784 1.597 12.783 1.597 L 11.146 3.234 C 11.146 3.234 11.146 3.234 11.146 3.234 Z"/>
</svg>
