<svg xmlns="http://www.w3.org/2000/svg" width="16" height="16" version="1.1">
 <path d="M 7.222157,15.461034 C 6.1107784,15.345518 4.7955123,14.878604 3.9031939,14.282957 3.1965955,13.811259 2.5054586,13.168166 2.0204928,12.531061 1.1919211,11.442634 0.67318878,10.118994 0.52676639,8.7195612 0.4744618,8.2196928 0.50175038,7.2866431 0.58306391,6.7953852 0.84118693,5.2357903 1.5799127,3.7957146 2.6926245,2.6829786 3.8171744,1.5584432 5.2265849,0.83774975 6.8275959,0.56859251 c 0.5470374,-0.0917745 1.8734839,-0.0914201 2.371431,8.5043e-4 2.1891051,0.40582641 3.9267381,1.53858256 5.0992371,3.32421136 0.230144,0.3504429 0.329147,0.5333535 0.302218,0.5581928 -0.0082,0.00709 -1.108587,0.3104024 -2.445242,0.6731763 C 10.81859,5.4876557 8.5905326,6.0927278 7.2040041,6.4696044 4.1768224,7.2924897 3.4894987,7.4759673 3.4751706,7.4650891 3.4461148,7.4438288 3.5620511,6.9164988 3.6709827,6.5758357 3.8008451,6.169726 4.1061244,5.5336845 4.1947805,5.4845021 4.2540155,5.4526111 10.819626,3.6622345 11.403497,3.519825 11.488787,3.498565 11.552958,3.464547 11.546084,3.442933 11.523054,3.371002 10.998504,3.028709 10.631778,2.8461173 10.188297,2.6253628 9.6397226,2.4327787 9.1499512,2.3260513 8.8339218,2.2573092 8.67157,2.2459703 8.0019974,2.2459703 c -0.8798863,0 -1.193651,0.048191 -1.8915465,0.2909137 C 5.2467857,2.8373649 4.5691052,3.263176 3.921305,3.9126115 3.2478281,4.5877721 2.8260866,5.2688503 2.5262878,6.1655448 2.2928872,6.8636313 2.2224939,7.3672201 2.2455793,8.1737703 c 0.020587,0.7196658 0.088837,1.1137989 0.298617,1.7246817 0.6161306,1.79424 2.1271132,3.194701 3.9677843,3.677631 0.5941417,0.15591 0.9989552,0.196659 1.7197996,0.173272 0.902766,-0.02835 1.5758021,-0.198076 2.3637238,-0.591571 0.864329,-0.431835 1.68825,-1.159898 2.217032,-1.959079 0.271637,-0.410574 0.592564,-1.043391 0.550464,-1.085486 -0.02019,-0.02126 -0.969164,0.230321 -3.7649993,0.994279 -0.9476273,0.259024 -2.1604049,0.58693 -2.6950605,0.728949 L 5.9308381,12.094762 5.7348204,11.982436 C 5.4689906,11.830424 5.1227299,11.572357 4.8863545,11.350256 4.6722761,11.148991 4.3266055,10.748976 4.3482213,10.727361 4.3556913,10.720261 5.0869751,10.519009 5.9733207,10.280857 6.8596667,10.04274 8.2704146,9.660158 9.1083168,9.4306874 9.9462181,9.2010747 11.211232,8.8581084 11.919459,8.6681818 12.627687,8.4782552 13.68842,8.1912393 14.276647,8.0303687 14.86487,7.869498 15.370876,7.7337855 15.401105,7.7291791 c 0.147937,-0.024804 0.126747,0.9610072 -0.03809,1.7686913 -0.101731,0.4985566 -0.361322,1.2629406 -0.591278,1.7410886 -0.724698,1.506904 -1.964996,2.758293 -3.450779,3.481715 -1.286273,0.626262 -2.7150739,0.884399 -4.0988255,0.740501 z M 3.8025389,9.778827 C 3.6298864,9.3730716 3.5405854,9.0119276 3.4530279,8.3652914 3.444562,8.3029271 3.467343,8.2767064 3.5547733,8.2490677 3.667528,8.2132795 5.5902516,7.6936033 8.3828891,6.9440665 9.2008412,6.7247297 10.53115,6.3662433 11.339124,6.1478277 c 2.123492,-0.5739964 3.56506,-0.9564716 3.625383,-0.9618576 0.09383,-0.00709 0.411375,0.962708 0.491346,1.502546 l 0.02445,0.1651227 -1.408614,0.3733333 C 13.296948,7.4324897 11.944869,7.7954408 11.067069,8.0339475 10.189268,8.2724187 9.0385097,8.5821833 8.5098331,8.7222541 7.9811565,8.8622188 6.7398216,9.1961139 5.7513101,9.4640308 4.7627984,9.731912 3.9364275,9.951179 3.9149308,9.951179 c -0.021509,0 -0.072076,-0.0776 -0.1124004,-0.17221 z" style="fill:#eff0f2"/>
</svg>
