<svg xmlns="http://www.w3.org/2000/svg" style="isolation:isolate" width="16" height="16" viewBox="0 0 16 16">
 <path fill="#eff0f2" d="M 6.006 0.131 C 5.887 0.236 5.857 0.394 5.857 0.579 C 5.857 0.921 5.976 1.342 6.036 1.5 C 6.036 1.5 6.271 3.269 6.301 3.479 C 6.032 3.506 5.701 3.532 5.522 3.585 L 5.283 3.585 C 4.776 3.611 4.298 3.637 4.089 3.822 L 4 3.9 L 4.089 4.006 C 4.239 4.164 4.298 4.611 4.358 5.085 C 4.507 6.058 4.686 7.342 5.581 7.815 L 5.76 7.894 L 5.76 7.71 C 5.76 7.71 5.79 7.631 5.79 7.526 C 5.79 7.447 5.76 7.315 5.731 7.131 C 5.969 7.158 6.331 7.21 6.51 7.21 C 6.54 7.421 7.461 16 7.461 16 L 7.759 16 C 7.759 16 8.197 7.527 8.197 7.263 C 8.405 7.263 9.221 7.29 9.49 7.316 C 9.43 7.474 9.191 8.132 9.191 8.132 L 9.609 7.79 C 9.728 7.711 12.324 5.559 11.966 4.19 C 11.847 3.743 11.429 3.427 10.743 3.269 L 10.683 3.269 C 10.295 3.269 9.211 3.296 8.316 3.348 C 8.346 2.664 8.346 2.368 8.346 2.184 L 8.346 1.947 C 8.346 1.816 8.386 1.632 8.505 1.5 C 8.624 1.342 8.774 1.211 8.774 1.053 C 8.774 1 8.744 0.947 8.714 0.895 C 8.535 0.658 6.931 0.053 6.364 0 C 6.185 0.026 6.066 0.053 6.006 0.132 L 6.006 0.131 Z M 6.182 4.374 L 6.331 4.374 C 6.331 4.611 6.42 6.342 6.45 6.579 C 6.211 6.552 5.79 6.5 5.611 6.5 C 5.522 6.157 5.492 5.789 5.462 5.421 C 5.432 5.105 5.402 4.716 5.343 4.427 C 5.611 4.427 6.182 4.374 6.182 4.374 L 6.182 4.374 Z M 8.256 5.263 C 8.256 5.263 8.286 4.558 8.286 4.348 C 8.674 4.4 9.072 4.427 9.549 4.427 L 10.087 4.427 C 10.087 4.532 10.057 4.664 10.057 4.664 C 9.997 5.243 9.907 6 9.639 6.684 C 9.46 6.684 8.465 6.631 8.226 6.605 C 8.226 6.421 8.256 5.263 8.256 5.263 L 8.256 5.263 Z"/>
</svg>
