<svg xmlns="http://www.w3.org/2000/svg" style="isolation:isolate" width="16" height="16" viewBox="0 0 16 16">
 <path fill="#eff0f2" d="M 3.324 1 C 2.609 1 1.988 1.513 1.852 2.215 L 0.5 9.2 L 0.5 11.5 C 0.5 12.323 1.177 13 2 13 L 5.5 13 L 5.5 12 L 2 12 C 1.867 12.002 1.739 11.95 1.644 11.856 C 1.55 11.761 1.498 11.633 1.5 11.5 L 1.5 9.5 C 1.5 9.219 1.719 9 2 9 L 7.5 9 L 7.5 8 L 2 8 C 1.913 8 1.83 8.013 1.746 8.027 L 2.834 2.404 C 2.878 2.168 3.084 1.998 3.324 2 L 11.676 2 C 11.915 2 12.12 2.17 12.166 2.404 L 13.062 7 L 14.076 7 L 13.148 2.215 C 13.011 1.51 12.394 1.001 11.676 1 L 3.325 1 L 3.324 1 Z M 12 8 C 10.244 8 8.797 9.31 8.55 11 L 6 11 L 9 14 L 12 11 L 9.55 11 C 9.784 9.834 10.81 8.996 12 9 C 13.387 9 14.5 10.113 14.5 11.5 C 14.5 12.887 13.387 14 12 14 L 11.479 14 L 11.479 15 L 12 15 C 13.927 15 15.5 13.427 15.5 11.5 C 15.5 9.573 13.927 8 12 8 Z"/>
</svg>
