<svg xmlns="http://www.w3.org/2000/svg" fill="none" width="16" height="16" viewBox="0 0 16 16">
<defs>
  <style id="current-color-scheme" type="text/css">
   .ColorScheme-Text { color:#eff0f2; } .ColorScheme-Highlight { color:#5294e2; }
  </style>
  <linearGradient id="arrongin" x1="0%" x2="0%" y1="0%" y2="100%">
   <stop offset="0%" style="stop-color:#dd9b44; stop-opacity:1"/>
   <stop offset="100%" style="stop-color:#ad6c16; stop-opacity:1"/>
  </linearGradient>
  <linearGradient id="aurora" x1="0%" x2="0%" y1="0%" y2="100%">
   <stop offset="0%" style="stop-color:#09D4DF; stop-opacity:1"/>
   <stop offset="100%" style="stop-color:#9269F4; stop-opacity:1"/>
  </linearGradient>
  <linearGradient id="fitdance" x1="0%" x2="0%" y1="0%" y2="100%">
   <stop offset="0%" style="stop-color:#1AD6AB; stop-opacity:1"/>
   <stop offset="100%" style="stop-color:#329DB6; stop-opacity:1"/>
  </linearGradient>
  <linearGradient id="oomox" x1="0%" x2="0%" y1="0%" y2="100%">
   <stop offset="0%" style="stop-color:#efefe7; stop-opacity:1"/>
   <stop offset="100%" style="stop-color:#8f8f8b; stop-opacity:1"/>
  </linearGradient>
  <linearGradient id="rainblue" x1="0%" x2="0%" y1="0%" y2="100%">
   <stop offset="0%" style="stop-color:#00F260; stop-opacity:1"/>
   <stop offset="100%" style="stop-color:#0575E6; stop-opacity:1"/>
  </linearGradient>
  <linearGradient id="sunrise" x1="0%" x2="0%" y1="0%" y2="100%">
   <stop offset="0%" style="stop-color: #FF8501; stop-opacity:1"/>
   <stop offset="100%" style="stop-color: #FFCB01; stop-opacity:1"/>
  </linearGradient>
  <linearGradient id="telinkrin" x1="0%" x2="0%" y1="0%" y2="100%">
   <stop offset="0%" style="stop-color: #b2ced6; stop-opacity:1"/>
   <stop offset="100%" style="stop-color: #6da5b7; stop-opacity:1"/>
  </linearGradient>
  <linearGradient id="60spsycho" x1="0%" x2="0%" y1="0%" y2="100%">
   <stop offset="0%" style="stop-color: #df5940; stop-opacity:1"/>
   <stop offset="25%" style="stop-color: #d8d15f; stop-opacity:1"/>
   <stop offset="50%" style="stop-color: #e9882a; stop-opacity:1"/>
   <stop offset="100%" style="stop-color: #279362; stop-opacity:1"/>
  </linearGradient>
  <linearGradient id="90ssummer" x1="0%" x2="0%" y1="0%" y2="100%">
   <stop offset="0%" style="stop-color: #f618c7; stop-opacity:1"/>
   <stop offset="20%" style="stop-color: #94ffab; stop-opacity:1"/>
   <stop offset="50%" style="stop-color: #fbfd54; stop-opacity:1"/>
   <stop offset="100%" style="stop-color: #0f83ae; stop-opacity:1"/>
  </linearGradient>
 </defs>
 <path class="ColorScheme-Text" fill="currentColor" d="M5.58838 4.00013C5.51353 3.99853 5.439 4.01151 5.36912 4.03844C5.2994 4.06536 5.23593 4.10591 5.18223 4.15736C5.12854 4.20881 5.08591 4.27036 5.05674 4.33832C5.02757 4.40627 5.01266 4.4792 5.0125 4.55292L5.00625 7.9987L5 11.4458C4.99984 11.5429 5.02565 11.6384 5.07501 11.7226C5.12422 11.8067 5.19506 11.8767 5.28048 11.9255C5.36591 11.9742 5.46272 11.9998 5.56145 12C5.66018 12.0002 5.75715 11.9748 5.84273 11.9264L8.87997 10.2083L11.917 8.48995C12.0028 8.44171 12.0743 8.37183 12.124 8.28768C12.1736 8.20354 12.1999 8.10801 12.2001 8.01056C12.2002 7.91328 12.1743 7.81759 12.1248 7.73329C12.0754 7.64898 12.0042 7.57894 11.9185 7.53038L8.88766 5.80292L5.85684 4.07386C5.7751 4.02754 5.68278 4.00222 5.58838 4.00013Z"/>
 <path class="ColorScheme-Text" fill="currentColor" fill-rule="evenodd" d="M6.95572 0.0675939C7.29771 0.0229844 7.64629 0 8 0C8.35371 0 8.70229 0.0229844 9.04428 0.0675939C9.302 0.101211 9.48366 0.337382 9.45005 0.595098C9.41643 0.852813 9.18026 1.03448 8.92254 1.00086C8.62081 0.961506 8.3129 0.941176 8 0.941176C7.6871 0.941176 7.37919 0.961506 7.07746 1.00086C6.81974 1.03448 6.58357 0.852813 6.54995 0.595098C6.51634 0.337382 6.698 0.101211 6.95572 0.0675939ZM12.2106 1.73943C12.369 1.53335 12.6644 1.49467 12.8705 1.65303C13.4246 2.07878 13.9212 2.57544 14.347 3.12947C14.5053 3.33555 14.4667 3.63099 14.2606 3.78935C14.0545 3.94772 13.7591 3.90903 13.6007 3.70296C13.2248 3.21378 12.7862 2.77522 12.297 2.39931C12.091 2.24094 12.0523 1.94551 12.2106 1.73943ZM3.78935 1.73943C3.94772 1.94551 3.90903 2.24094 3.70296 2.39931C3.21378 2.77522 2.77522 3.21378 2.39931 3.70296C2.24094 3.90903 1.94551 3.94772 1.73943 3.78935C1.53335 3.63099 1.49467 3.33555 1.65303 3.12947C2.07878 2.57544 2.57544 2.07878 3.12947 1.65303C3.33555 1.49467 3.63099 1.53335 3.78935 1.73943ZM0.595098 6.54995C0.852813 6.58357 1.03448 6.81974 1.00086 7.07746C0.961506 7.37919 0.941176 7.6871 0.941176 8C0.941176 8.3129 0.961506 8.62081 1.00086 8.92254C1.03448 9.18026 0.852813 9.41643 0.595098 9.45005C0.337382 9.48366 0.101211 9.30199 0.0675939 9.04428C0.0229844 8.70229 0 8.35371 0 8C0 7.64629 0.0229844 7.29771 0.0675939 6.95572C0.101211 6.698 0.337382 6.51634 0.595098 6.54995ZM15.4049 6.54995C15.6626 6.51634 15.8988 6.698 15.9324 6.95572C15.977 7.29771 16 7.64629 16 8C16 8.35371 15.977 8.70229 15.9324 9.04428C15.8988 9.302 15.6626 9.48366 15.4049 9.45005C15.1472 9.41643 14.9655 9.18026 14.9991 8.92254C15.0385 8.62081 15.0588 8.3129 15.0588 8C15.0588 7.6871 15.0385 7.37919 14.9991 7.07746C14.9655 6.81974 15.1472 6.58357 15.4049 6.54995ZM14.2606 12.2106C14.4667 12.369 14.5053 12.6644 14.347 12.8705C13.9212 13.4246 13.4246 13.9212 12.8705 14.347C12.6645 14.5053 12.369 14.4667 12.2106 14.2606C12.0523 14.0545 12.091 13.7591 12.297 13.6007C12.7862 13.2248 13.2248 12.7862 13.6007 12.297C13.7591 12.091 14.0545 12.0523 14.2606 12.2106ZM1.73943 12.2106C1.94551 12.0523 2.24094 12.091 2.39931 12.297C2.77522 12.7862 3.21378 13.2248 3.70296 13.6007C3.90903 13.7591 3.94772 14.0545 3.78935 14.2606C3.63099 14.4667 3.33555 14.5053 3.12947 14.347C2.57544 13.9212 2.07878 13.4246 1.65303 12.8705C1.49467 12.6645 1.53335 12.369 1.73943 12.2106ZM6.54995 15.4049C6.58357 15.1472 6.81974 14.9655 7.07746 14.9991C7.37919 15.0385 7.6871 15.0588 8 15.0588C8.3129 15.0588 8.62081 15.0385 8.92254 14.9991C9.18026 14.9655 9.41643 15.1472 9.45005 15.4049C9.48366 15.6626 9.30199 15.8988 9.04428 15.9324C8.70229 15.977 8.35371 16 8 16C7.64629 16 7.29771 15.977 6.95572 15.9324C6.698 15.8988 6.51634 15.6626 6.54995 15.4049Z" clip-rule="evenodd"/>
</svg>
