<svg xmlns="http://www.w3.org/2000/svg" style="isolation:isolate" width="16" height="16" viewBox="0 0 16 16">
 <path fill="#eff0f2" d="M 5.176 4.704 L 5.176 0 L 2.353 0 L 2.353 0 L 2.353 4.708 L 2.353 4.708 L 2.353 6.59 C 2.353 6.591 2.353 6.592 2.353 6.592 L 2.353 16 L 5.176 16 L 5.176 11.475 C 6.009 11.959 6.974 12.237 8 12.237 C 9.026 12.237 9.991 11.959 10.824 11.475 L 10.824 12.235 L 13.647 12.235 L 13.647 0 L 10.824 0 L 10.824 0 L 10.824 4.706 L 10.824 4.706 L 10.824 6.588 C 10.824 8.177 9.589 9.412 8 9.412 C 6.411 9.412 5.176 8.177 5.176 6.588 L 5.176 4.704 L 5.176 4.704 Z"/>
</svg>
