<svg xmlns="http://www.w3.org/2000/svg" style="isolation:isolate" width="16" height="16" viewBox="0 0 16 16">
 <path fill="#eff0f2" fill-rule="evenodd" d="M 6.069 6.759 L 6.069 6.759 L 11.1 6.759 C 11.521 6.759 11.862 6.417 11.862 5.997 L 11.862 3.107 C 11.862 2.686 11.521 2.345 11.1 2.345 L 6.069 2.345 L 6.069 1.48 C 6.069 1.267 5.993 1.062 5.858 0.913 C 5.723 0.764 5.541 0.684 5.354 0.69 L 5.354 0.69 C 5.239 0.694 5.126 0.73 5.027 0.796 L 2.687 2.331 L 0.348 3.867 C 0.133 4.008 0 4.269 0 4.551 C 0 4.834 0.133 5.095 0.348 5.236 L 2.687 6.772 L 5.027 8.308 C 5.242 8.449 5.506 8.449 5.721 8.308 C 5.937 8.167 6.069 7.906 6.069 7.623 L 6.069 6.759 Z M 9.931 9.278 L 4.937 9.278 C 4.516 9.278 4.175 9.62 4.175 10.04 L 4.175 12.93 C 4.175 13.351 4.516 13.692 4.937 13.692 L 9.931 13.692 L 9.931 13.692 L 9.931 14.52 C 9.931 14.802 10.063 15.063 10.279 15.204 C 10.494 15.346 10.758 15.346 10.973 15.205 L 13.313 13.668 L 15.652 12.133 C 15.867 11.991 16 11.73 16 11.448 C 16 11.166 15.867 10.905 15.652 10.764 L 13.313 9.228 L 10.973 7.692 C 10.874 7.627 10.761 7.59 10.646 7.587 L 10.646 7.587 C 10.459 7.58 10.277 7.661 10.142 7.81 C 10.007 7.959 9.931 8.163 9.931 8.377 L 9.931 9.278 L 9.931 9.278 Z"/>
</svg>
