<svg xmlns="http://www.w3.org/2000/svg" style="isolation:isolate" width="16" height="16" viewBox="0 0 16 16">
 <path fill="#eff0f2" d="M 3.275 0 C 2.715 0 2.243 0.318 1.925 0.8 L 0.15 3.675 C 0.069 3.834 0 4.159 0 4.4 L 0 14.4 C 0 15.282 0.718 16 1.6 16 L 14.4 16 C 15.282 16 16 15.282 16 14.4 L 16 4.4 C 16 4.16 15.931 3.84 15.85 3.6 L 14.076 0.8 C 13.757 0.318 13.285 0 12.726 0 L 3.275 0 Z M 3.275 1.6 L 12.725 1.6 L 13.675 3.2 L 2.325 3.2 L 3.275 1.6 Z M 1.6 4.8 L 14.4 4.8 L 14.4 14.4 L 1.6 14.4 L 1.6 4.8 Z M 6.25 6.4 C 5.81 6.44 5.484 6.834 5.525 7.275 C 5.566 7.715 5.959 8.041 6.4 8 L 9.6 8 C 9.888 8.003 10.156 7.853 10.303 7.603 C 10.447 7.354 10.447 7.046 10.303 6.797 C 10.156 6.547 9.887 6.397 9.6 6.4 L 6.25 6.4 L 6.25 6.4 Z"/>
</svg>
