<svg xmlns="http://www.w3.org/2000/svg" style="isolation:isolate" width="16" height="16" viewBox="0 0 16 16">
 <path fill="#eff0f2" d="M 3.018 0.5 C 1.783 0.486 0.311 1.777 0.045 5.445 C -0.239 9.358 0.873 9.744 2.08 9.744 C 3.085 9.744 3.892 9.241 4.777 8.207 C 4.911 8.051 5.061 7.969 5.119 8.027 C 5.178 8.086 5.222 8.131 5.217 8.127 C 5.212 8.123 5.147 8.277 5.084 8.475 C 4.91 9.018 4.645 10.074 4.912 10.816 C 4.982 11.011 5.128 10.983 5.188 10.785 C 5.329 10.313 5.602 9.501 5.898 9.092 C 6.019 8.925 6.159 9.02 6.152 9.227 C 6.114 10.486 6.52 12.78 8.373 14.238 C 10.311 15.764 13.135 15.724 14.666 15.072 C 14.853 14.992 15.146 14.997 15.346 15.033 C 15.469 15.056 15.625 15.069 15.82 15.059 C 16.387 15.026 15.44 14.545 15.377 14.287 C 15.314 14.029 15.82 13.979 15.922 13.158 C 16.025 12.336 15.379 13.127 15.379 13.127 C 15.379 13.127 14.904 13.684 13.012 13.562 C 11.268 13.452 9.19 12.553 9.26 9.393 C 9.265 9.185 9.329 9 9.391 8.975 C 9.452 8.95 9.624 9.043 9.73 9.219 C 9.994 9.653 10.229 10.358 10.357 10.785 C 10.417 10.983 10.562 11.012 10.633 10.818 C 10.865 10.173 10.695 9.289 10.531 8.713 C 10.476 8.514 10.535 8.263 10.666 8.139 C 10.797 8.014 10.998 8.035 11.131 8.191 C 12.021 9.235 12.832 9.746 13.842 9.746 C 15.048 9.746 16.161 9.36 15.877 5.447 C 15.593 1.534 13.935 0.326 12.658 0.52 C 11.835 0.644 11.265 1.068 10.965 1.355 C 10.816 1.497 10.715 1.642 10.715 1.658 C 10.715 1.674 10.597 1.569 10.439 1.438 C 9.751 0.863 8.887 0.52 7.947 0.52 C 7.02 0.52 6.165 0.854 5.48 1.414 C 5.322 1.544 5.206 1.654 5.205 1.646 C 5.205 1.638 5.103 1.499 4.955 1.357 C 4.654 1.071 4.085 0.644 3.262 0.52 C 3.182 0.507 3.1 0.501 3.018 0.5 Z M 6.5 3.5 C 6.776 3.5 7 3.724 7 4 C 7 4.276 6.776 4.5 6.5 4.5 C 6.224 4.5 6 4.276 6 4 C 6 3.724 6.224 3.5 6.5 3.5 Z M 9.5 3.5 C 9.776 3.5 10 3.724 10 4 C 10 4.276 9.776 4.5 9.5 4.5 C 9.224 4.5 9 4.276 9 4 C 9 3.724 9.224 3.5 9.5 3.5 Z"/>
</svg>
