<svg xmlns="http://www.w3.org/2000/svg" width="16" height="16" version="1.1">
 <g transform="translate(-371.99997,-159.99994)">
  <path d="m 375,160 v 4 0.0254 c -0.7495,0.0179 -1.41066,0.0687 -1.9375,0.35938 -0.37637,0.20766 -0.67323,0.55938 -0.83789,0.99804 C 372.05994,165.82148 372,166.34239 372,167 v 3 c 0,0.65761 0.0599,1.17853 0.22461,1.61719 0.16467,0.43866 0.46152,0.79039 0.83789,0.99804 0.28228,0.15575 0.59904,0.23344 0.9375,0.28711 v -1.02539 c -0.18721,-0.0355 -0.34724,-0.0792 -0.45508,-0.13867 -0.18341,-0.10119 -0.2872,-0.21274 -0.38476,-0.47266 C 373.06261,171.00572 373,170.59239 373,170 v -3 c 0,-0.59239 0.0626,-1.00572 0.16016,-1.26562 0.0976,-0.25991 0.20135,-0.37147 0.38476,-0.47266 C 373.91088,165.05981 374.74147,165.01471 376,165 h 8 c 1.25852,0.0147 2.08718,0.0598 2.45312,0.26172 0.18341,0.1012 0.28916,0.21274 0.38672,0.47266 C 386.93741,165.99429 387,166.40761 387,167 v 3 c 0,0.59239 -0.0626,1.00572 -0.16016,1.26562 -0.0976,0.25991 -0.2033,0.37147 -0.38672,0.47266 -0.10756,0.0593 -0.26682,0.10322 -0.45312,0.13867 v 1.02539 c 0.33846,-0.0537 0.65522,-0.13134 0.9375,-0.28711 0.37637,-0.20766 0.67322,-0.55938 0.83789,-0.99804 C 387.94008,171.17852 388,170.65761 388,170 v -3 c 0,-0.65761 -0.0599,-1.17852 -0.22461,-1.61719 -0.16466,-0.43866 -0.46152,-0.79038 -0.83789,-0.99804 -0.52684,-0.29069 -1.188,-0.34148 -1.9375,-0.35938 V 164 160 Z m 1,1 h 8 v 3 h -8 z m 9.5,5 a 0.5,0.5 0 0 0 -0.5,0.5 0.5,0.5 0 0 0 0.5,0.5 0.5,0.5 0 0 0 0.5,-0.5 0.5,0.5 0 0 0 -0.5,-0.5 z m -10.5,4 v 0.5 5.5 h 10 v -5.5 -0.5 h -1 v 0.5 4.5 h -8 v -4.5 -0.5 z m 2,1 v 1 h 6 v -1 z m 0,2 v 1 h 6 v -1 z" style="solid-color:#eff0f2;fill:#eff0f2"/>
 </g>
</svg>
