<svg xmlns="http://www.w3.org/2000/svg" width="16" height="16" version="1.1">
 <g transform="translate(0,-32)">
  <g transform="translate(1.2397766e-5,0.49999956)">
   <g style="fill:#eff0f2" transform="matrix(3.7795275,0,0,3.7795275,-28.000009,-1044.4257)">
    <g style="fill:#eff0f2" transform="matrix(0.08,0,0,0.08,6.8743042,265.76417)">
     <circle cx="33.134" cy="262.994" r="8.467" style="fill:#eff0f2"/>
     <path d="m 38.498943,246.72416 a 13.363795,17.777362 0 0 1 7.998685,16.27064 13.363795,17.777362 0 0 1 -8.011501,16.26526 17.145,17.145 0 0 0 11.792562,-16.26526 17.145,17.145 0 0 0 -11.779746,-16.27064 z m -10.717693,0.005 a 17.145,17.145 0 0 0 -11.792561,16.26568 17.145,17.145 0 0 0 11.778504,16.26939 13.363795,17.777362 0 0 1 -7.997444,-16.26939 13.363795,17.777362 0 0 1 8.011501,-16.26568 z" style="fill:#eff0f2"/>
     <path d="m 40.998428,236.72374 a 28.539447,20.467194 89.418507 0 1 12.602847,26.27023 28.539447,20.467194 89.418507 0 1 -12.036473,26.04658 26.458334,27.516667 0 0 0 18.02722,-26.04658 26.458334,27.516667 0 0 0 -18.593594,-26.27023 z m -16.29668,0.22448 A 26.458334,27.516667 0 0 0 6.6753549,262.99397 26.458334,27.516667 0 0 0 25.270189,289.26461 28.539447,20.467194 89.418507 0 1 12.666099,262.99397 28.539447,20.467194 89.418507 0 1 24.701748,236.94822 Z" style="fill:#eff0f2"/>
    </g>
   </g>
  </g>
 </g>
</svg>
