<svg xmlns="http://www.w3.org/2000/svg" style="isolation:isolate" width="16" height="16" viewBox="0 0 16 16">
 <path fill="#eff0f2" fill-rule="evenodd" d="M 0 8 C 0 5.88 0.844 3.844 2.344 2.344 C 3.844 0.844 5.88 0 8 0 C 10.12 0 12.156 0.844 13.656 2.344 C 15.156 3.844 16 5.88 16 8 C 16 10.12 15.156 12.156 13.656 13.656 C 12.156 15.156 10.12 16 8 16 C 5.88 16 3.844 15.156 2.344 13.656 C 0.844 12.156 0 10.12 0 8 Z M 2.4 8 C 2.4 6.516 2.992 5.088 4.04 4.04 C 5.088 2.992 6.516 2.4 8 2.4 C 9.484 2.4 10.912 2.992 11.96 4.04 C 13.008 5.088 13.6 6.516 13.6 8 C 13.6 9.484 13.008 10.912 11.96 11.96 C 10.912 13.008 9.484 13.6 8 13.6 C 6.516 13.6 5.088 13.008 4.04 11.96 C 2.992 10.912 2.4 9.484 2.4 8 Z"/>
</svg>
