<svg xmlns="http://www.w3.org/2000/svg" style="isolation:isolate" width="16" height="16" viewBox="0 0 16 16">
 <path fill="#eff0f2" fill-rule="evenodd" d="M 5.307 0 C 5.898 0.472 6.286 1.19 6.286 2 C 6.286 3.413 5.127 4.571 3.714 4.571 C 2.904 4.571 2.187 4.184 1.714 3.593 L 1.714 14.286 C 1.714 15.348 2.652 16 3.714 16 C 4.777 16 5.714 15.349 5.714 14.286 L 5.714 10.286 L 6.549 10.286 L 6.187 9.769 L 6.187 9.768 L 6.186 9.767 C 5.88 9.334 5.715 8.817 5.714 8.287 L 5.714 8.286 C 5.714 6.873 6.873 5.714 8.286 5.714 C 9.17 5.715 9.994 6.171 10.463 6.919 L 12.057 9.195 C 13.406 8.126 14.285 6.469 14.286 5.143 C 14.286 2.303 11.983 0 9.143 0 L 5.307 0 L 5.307 0 L 5.307 0 Z M 1.714 2 C 1.714 0.896 2.61 0 3.714 0 C 4.818 0 5.714 0.896 5.714 2 C 5.714 3.104 4.818 4 3.714 4 C 2.61 4 1.714 3.104 1.714 2 L 1.714 2 Z M 8.286 6.286 C 7.181 6.286 6.286 7.181 6.286 8.286 C 6.286 8.696 6.414 9.096 6.649 9.432 L 10.649 15.146 C 11.023 15.68 11.634 15.999 12.286 16 C 13.39 16 14.286 15.104 14.286 14 C 14.285 13.59 14.158 13.189 13.922 12.854 L 9.922 7.139 C 9.548 6.605 8.938 6.287 8.286 6.286 Z"/>
</svg>
