<svg xmlns="http://www.w3.org/2000/svg" style="isolation:isolate" width="16" height="16" viewBox="0 0 16 16">
 <path fill="#eff0f2" d="M 8 0 C 5.493 0 3.556 2.039 3.556 4.571 L 3.556 6.667 L 2.569 6.667 C 2.131 6.667 1.778 7.087 1.778 7.529 L 1.778 15.2 C 1.778 15.642 2.131 16 2.569 16 L 13.431 16 C 13.869 16 14.222 15.642 14.222 15.2 L 14.222 7.529 C 14.222 7.087 13.868 6.638 13.431 6.667 L 12.444 6.667 L 12.444 4.572 C 12.444 2.039 10.507 0 8 0 Z M 8 1.778 C 9.567 1.778 10.667 2.988 10.667 4.571 L 10.667 6.667 L 5.333 6.667 L 5.333 4.571 C 5.333 2.988 6.433 1.778 8 1.778 Z M 8 8 C 9.227 8 10.222 8.995 10.222 10.222 C 10.221 11.105 9.698 11.903 8.889 12.256 L 8.889 13.778 C 8.889 14.27 8.492 14.667 8 14.667 C 7.508 14.667 7.111 14.27 7.111 13.778 L 7.111 12.258 C 6.302 11.905 5.778 11.105 5.778 10.222 C 5.778 8.995 6.773 8 8 8 Z"/>
</svg>
