<svg xmlns="http://www.w3.org/2000/svg" style="isolation:isolate" width="16" height="16" viewBox="0 0 16 16">
 <defs>
  <clipPath id="_clipPath_4QJgi7yqLDZczRBSE95jzSE251lzL6t0">
   <rect width="16" height="16"/>
  </clipPath>
 </defs>
 <g clip-path="url(#_clipPath_4QJgi7yqLDZczRBSE95jzSE251lzL6t0)">
  <rect style="fill:#eff0f2" fill-opacity="0" width="16" height="16"/>
  <g opacity=".6">
   <path fill="#eff0f2" d="M 10.616 8.672 L 10.588 8.633 L 10.612 8.555 L 10.677 8.567 L 10.737 8.601 L 10.745 8.595 L 10.725 8.648 L 10.672 8.674 L 10.616 8.672 Z M 10.954 9.032 L 10.93 8.947 L 10.411 8.611 L 10.286 8.603 L 10.172 8.726 L 10.116 8.879 L 10.162 8.963 L 10.954 9.032 Z M 2.978 8.626 L 2.918 8.841 L 3.113 8.621 L 3.129 8.553 L 3.046 8.519 L 2.978 8.626 Z M 3.095 8.279 L 3.095 8.29 L 2.763 8.448 L 3.183 8.364 L 3.095 8.279 Z M 3.348 8.696 L 3.39 8.665 L 3.426 8.581 L 3.42 8.591 L 3.447 8.494 L 3.37 8.481 L 3.309 8.498 L 3.269 8.539 L 3.248 8.611 L 3.302 8.678 L 3.348 8.696 Z M 10.001 7.196 L 9.941 7.164 L 9.675 7.146 L 9.563 7.053 L 9.699 6.554 L 9.036 7.626 L 8.861 7.755 L 9.186 7.879 L 10.001 7.196 Z M 10.626 10.171 L 11.287 11.217 L 10.753 10.226 L 10.626 10.171 Z M 12.235 9.888 C 12.235 13.264 9.5 16 6.124 16 C 2.749 16 0.012 13.264 0.012 9.888 C 0.012 6.512 2.749 3.776 6.124 3.776 C 9.5 3.776 12.235 6.512 12.235 9.888 Z M 7.789 7.419 L 7.791 7.94 L 7.896 8.205 L 8.147 8.147 L 8.161 7.976 L 7.789 7.419 Z M 8.161 6.488 L 8.071 6.452 L 7.883 6.494 L 7.701 6.454 L 7.693 6.679 L 7.714 6.729 L 7.958 6.753 L 8.113 6.629 L 8.161 6.488 Z M 4.538 4.868 L 4.842 4.856 L 5.437 4.468 C 5.246 4.492 5.061 4.524 4.878 4.568 L 4.771 4.711 L 4.538 4.868 Z M 4.158 5.045 L 4.359 5.207 L 4.615 5.24 L 4.776 5.088 L 4.68 5.073 L 4.283 4.847 L 4.168 4.825 L 4.158 5.045 Z M 3.632 5.021 L 3.654 5.051 L 3.768 5.043 L 3.889 4.992 L 3.955 4.91 L 3.931 4.876 C 3.83 4.92 3.732 4.972 3.632 5.021 Z M 3.34 5.64 L 3.491 5.662 L 3.599 5.537 L 3.629 5.39 L 3.547 5.348 L 3.342 5.575 L 3.34 5.64 Z M 2.246 6.06 L 2.514 6.213 L 2.91 6.03 L 3.219 5.7 L 3.227 5.401 L 2.96 5.453 L 2.932 5.443 C 2.745 5.577 2.568 5.724 2.399 5.881 L 2.427 5.911 L 2.266 6.023 L 2.246 6.06 Z M 0.742 10.379 L 0.622 10.176 C 0.622 10.195 0.624 10.212 0.626 10.23 L 0.738 10.479 L 0.742 10.379 Z M 6.169 12.753 L 5.893 12.548 L 5.103 12.313 L 4.641 11.708 L 4.07 11.491 L 2.731 11.445 L 2.326 10.762 L 2.218 10.748 L 1.886 10.909 L 1.764 10.779 L 1.742 10.592 L 1.783 10.437 L 1.993 10.153 L 2.242 10.013 L 2.865 10.129 L 2.957 10.391 L 3.147 10.435 L 3.145 10.037 L 3.667 9.279 L 4.817 8.637 L 4.649 8.616 L 4.353 8.396 L 5.109 8.181 L 5.137 8.248 L 5.125 8.312 L 5.079 8.374 L 4.995 8.432 L 5.055 8.513 L 5.24 8.521 L 5.39 8.465 L 4.894 7.268 L 4.824 7.276 L 4.22 6.985 L 4.084 7.117 L 3.732 8.018 L 3.563 7.865 L 3.159 7.68 L 2.91 7.397 L 3.203 6.955 L 4.098 6.263 L 4.231 5.889 L 4.643 6.15 L 4.709 6.293 L 4.275 6.647 L 4.707 6.918 L 4.8 6.868 L 4.846 6.87 L 5.03 6.582 L 4.988 6.534 L 5.24 6.257 L 5.047 5.923 L 4.546 5.497 L 4.81 5.449 L 4.797 5.379 L 4.651 5.348 L 4.233 5.582 L 4.369 5.362 L 4.088 5.451 L 4.038 6.138 L 3.816 6.289 L 3.658 6.141 L 4.068 5.376 L 4.036 5.344 L 3.999 5.328 L 3.955 5.328 L 3.907 5.346 L 3.255 6.255 L 3.269 6.199 L 3.334 6.074 L 3.311 6.022 L 3.198 6.088 L 2.26 6.281 L 2.089 6.187 C 1.129 7.214 0.6 8.57 0.611 9.976 C 0.611 9.993 0.615 10.011 0.615 10.029 L 0.617 10.021 L 0.752 10.071 L 1.249 10.915 L 2.743 11.573 L 2.948 11.8 L 2.952 12.101 L 2.765 12.546 L 2.755 12.789 L 3.404 14.042 L 3.424 14.738 C 3.776 14.938 4.149 15.099 4.536 15.218 L 5.214 14.349 L 5.817 13.905 L 6.169 12.753 Z M 3.911 6.627 L 3.86 6.553 L 3.81 6.542 L 3.623 6.779 L 3.654 6.814 L 3.885 6.814 L 3.957 6.768 L 3.911 6.627 Z M 6.205 7.12 L 7.758 5.778 L 8.123 4.801 C 7.474 4.546 6.781 4.418 6.084 4.423 C 5.988 4.423 5.897 4.433 5.801 4.438 L 5.73 4.479 L 5.584 4.687 L 5.555 4.828 L 5.612 4.932 L 6.01 4.984 L 6.127 5.756 L 5.928 6.221 L 5.881 6.562 L 6.006 6.923 L 6.205 7.12 Z M 11.41 11.362 L 11.452 11.337 C 11.573 10.877 11.641 10.393 11.636 9.896 C 11.634 9.54 11.595 9.196 11.529 8.859 L 11.499 8.8 L 11.511 8.76 C 11.342 7.986 11.006 7.258 10.527 6.627 L 10.493 6.641 L 10.292 6.436 L 10.365 6.414 C 10.192 6.207 10.004 6.016 9.802 5.837 L 9.633 5.825 L 9.327 5.957 L 8.521 7.051 L 8.559 7.192 L 8.937 7.483 L 8.937 7.632 L 7.875 8.416 L 7.882 8.517 L 7.968 8.663 L 7.998 8.792 L 7.536 8.975 L 7.5 9.212 L 7.536 9.502 L 6.832 10.887 L 6.8 11.5 L 7.325 11.81 L 8.193 11.808 L 8.585 11.919 L 9.329 14.416 C 10.357 13.681 11.101 12.613 11.436 11.394 L 11.41 11.362 Z M 10.668 9.468 L 9.842 9.245 L 9.759 9.144 L 9.776 9.385 L 9.755 9.403 L 9.108 8.728 L 9.108 8.732 L 9.002 8.758 L 8.987 8.732 L 9.019 8.863 L 9.273 9.049 L 9.291 9.186 L 9.241 9.269 L 9.205 9.295 L 9.16 9.313 L 8.915 8.931 L 8.551 8.933 L 7.789 9.498 L 8.787 9.46 L 9.239 9.87 L 9.456 9.946 L 10.654 9.705 L 10.668 9.468 Z"/>
  </g>
  <path fill="#eff0f2" fill-rule="evenodd" d="M 10.225 7.821 C 10.898 7.246 11.559 6.599 12.129 5.969 C 13.404 4.556 14.191 3.151 14.437 2.259 C 14.63 1.541 14.088 1.199 13.267 1.25 C 12.623 1.289 11.748 1.63 11.322 1.815 C 10.374 2.227 9.221 3.199 8.183 4.078 C 8.05 4.031 7.917 3.986 7.782 3.949 C 9.879 1.901 12.344 0.121 14.061 0.007 C 14.16 0.001 14.256 -0.001 14.348 0.001 C 14.625 0.007 14.873 0.052 15.086 0.137 C 16.821 0.824 15.979 3.87 13.206 6.941 C 12.522 7.699 11.784 8.432 11.031 9.075 C 11.144 9.398 11.204 9.746 11.204 10.107 C 11.204 11.869 9.774 13.299 8.012 13.299 C 6.251 13.299 4.821 11.869 4.821 10.107 L 4.821 10.107 L 4.821 10.107 C 4.821 8.346 6.251 6.915 8.012 6.915 C 8.874 6.915 9.657 7.258 10.225 7.821 Z M 9.394 8.516 C 9.082 8.753 8.773 8.975 8.479 9.164 C 8.342 9.083 8.182 9.043 8.012 9.043 C 7.425 9.043 6.948 9.52 6.948 10.107 L 6.948 10.107 C 6.948 10.694 7.425 11.171 8.012 11.171 C 8.295 11.171 8.552 11.06 8.734 10.871 C 9.188 10.578 9.654 10.238 10.123 9.858 C 10.135 9.94 10.14 10.023 10.14 10.107 C 10.14 11.282 9.187 12.235 8.012 12.235 C 6.838 12.235 5.885 11.282 5.885 10.107 L 5.885 10.107 L 5.885 10.107 C 5.885 8.933 6.838 7.979 8.012 7.979 C 8.546 7.979 9.035 8.176 9.394 8.516 Z"/>
 </g>
</svg>
