<svg width="16" height="16" fill="none" viewBox="0 0 16 16" xmlns="http://www.w3.org/2000/svg">
 <defs>
  <style id="current-color-scheme" type="text/css">
   .ColorScheme-Text { color:#eff0f2; } .ColorScheme-Highlight { color:#5294e2; }
  </style>
  <linearGradient id="arrongin" x1="0%" x2="0%" y1="0%" y2="100%">
   <stop offset="0%" style="stop-color:#dd9b44; stop-opacity:1"/>
   <stop offset="100%" style="stop-color:#ad6c16; stop-opacity:1"/>
  </linearGradient>
  <linearGradient id="aurora" x1="0%" x2="0%" y1="0%" y2="100%">
   <stop offset="0%" style="stop-color:#09D4DF; stop-opacity:1"/>
   <stop offset="100%" style="stop-color:#9269F4; stop-opacity:1"/>
  </linearGradient>
  <linearGradient id="fitdance" x1="0%" x2="0%" y1="0%" y2="100%">
   <stop offset="0%" style="stop-color:#1AD6AB; stop-opacity:1"/>
   <stop offset="100%" style="stop-color:#329DB6; stop-opacity:1"/>
  </linearGradient>
  <linearGradient id="oomox" x1="0%" x2="0%" y1="0%" y2="100%">
   <stop offset="0%" style="stop-color:#efefe7; stop-opacity:1"/>
   <stop offset="100%" style="stop-color:#8f8f8b; stop-opacity:1"/>
  </linearGradient>
  <linearGradient id="rainblue" x1="0%" x2="0%" y1="0%" y2="100%">
   <stop offset="0%" style="stop-color:#00F260; stop-opacity:1"/>
   <stop offset="100%" style="stop-color:#0575E6; stop-opacity:1"/>
  </linearGradient>
  <linearGradient id="sunrise" x1="0%" x2="0%" y1="0%" y2="100%">
   <stop offset="0%" style="stop-color: #FF8501; stop-opacity:1"/>
   <stop offset="100%" style="stop-color: #FFCB01; stop-opacity:1"/>
  </linearGradient>
  <linearGradient id="telinkrin" x1="0%" x2="0%" y1="0%" y2="100%">
   <stop offset="0%" style="stop-color: #b2ced6; stop-opacity:1"/>
   <stop offset="100%" style="stop-color: #6da5b7; stop-opacity:1"/>
  </linearGradient>
  <linearGradient id="60spsycho" x1="0%" x2="0%" y1="0%" y2="100%">
   <stop offset="0%" style="stop-color: #df5940; stop-opacity:1"/>
   <stop offset="25%" style="stop-color: #d8d15f; stop-opacity:1"/>
   <stop offset="50%" style="stop-color: #e9882a; stop-opacity:1"/>
   <stop offset="100%" style="stop-color: #279362; stop-opacity:1"/>
  </linearGradient>
  <linearGradient id="90ssummer" x1="0%" x2="0%" y1="0%" y2="100%">
   <stop offset="0%" style="stop-color: #f618c7; stop-opacity:1"/>
   <stop offset="20%" style="stop-color: #94ffab; stop-opacity:1"/>
   <stop offset="50%" style="stop-color: #fbfd54; stop-opacity:1"/>
   <stop offset="100%" style="stop-color: #0f83ae; stop-opacity:1"/>
  </linearGradient>
  <clipPath id="clip0">
   <rect width="16" height="16" fill="white"/>
  </clipPath>
 </defs>
 <g clip-path="url(#clip0)">
  <path d="m0.703759 2.8943c0.038062-0.04742 0.088503-0.07077 0.15292-0.07077h1.524121c0.06442 0 0.11507 0.02167 0.15166 0.06572 0.0366 0.04404 0.05561 0.10533 0.05561 0.18325v0.39051h-0.61925v-0.15165h-0.70268v0.07835l1.20313 0.41705c0.04538 0.01524 0.07616 0.03942 0.09225 0.0733 0.01758 0.03218 0.02655 0.07429 0.02655 0.12512v0.50298c0 0.07791-0.01881 0.14088-0.05688 0.1883-0.03806 0.04573-0.08976 0.06825-0.15418 0.06825h-1.520331c-0.064417 0-0.114858-0.02252-0.15292-0.06825-0.03806-0.04742-0.056863-0.11039-0.056863-0.1883v-0.42968h0.619244v0.19841h0.70268v-0.08089l-1.205657-0.4221c-0.045383-0.01524-0.07616-0.03776-0.092258-0.06824-0.016105-0.03219-0.024009-0.0743-0.024009-0.12512v-0.50045c0-0.07793 0.018803-0.14005 0.056863-0.18579zm2.531361 1.87041v-1.94118h1.73771c0.06442 0 0.11273 0.02334 0.14786 0.07077 0.0366 0.04574 0.05561 0.10786 0.05561 0.18579v0.93646c0 0.07792-0.01881 0.14087-0.05687 0.1883-0.0366 0.04575-0.08725 0.0695-0.15165 0.0695h-1.1134v0.49036h-0.61926zm2.5882 0v-1.94118h1.92349v0.55101h-1.29154v0.15672h0.98444v0.5093h-0.98444v0.17314h1.30929v0.55101h-1.94124zm2.63884-1.87041c0.035-0.04742 0.08368-0.07077 0.14536-0.07077h1.54558c0.0616 0 0.1103 0.02334 0.1453 0.07077 0.0364 0.04574 0.0544 0.10786 0.0544 0.18579v0.56237h-0.5928v-0.2932h-0.75568v0.88971h0.75568v-0.2932h0.5928v0.56239c0 0.07791-0.0192 0.14088-0.0557 0.1883-0.035 0.04573-0.0824 0.06825-0.144 0.06825h-1.54558c-0.06168 0-0.11036-0.02252-0.14536-0.06825-0.03365-0.04742-0.05052-0.11039-0.05052-0.1883v-1.42807c0-0.07793 0.01687-0.14005 0.05052-0.18579zm-3.90512 0.45496h-0.70266v0.41706h0.70266v-0.41706zm3.90512 2.13328c0.035-0.04742 0.08368-0.07079 0.14536-0.07079h1.54938c0.0616 0 0.1104 0.02337 0.1441 0.07079 0.035 0.04577 0.0518 0.10783 0.0518 0.18579v1.42807c0 0.07787-0.0181 0.1409-0.0532 0.18832-0.0335 0.04567-0.0811 0.06827-0.1427 0.06827h-1.54938c-0.06168 0-0.11036-0.0226-0.14536-0.06827-0.03365-0.04742-0.05052-0.11045-0.05052-0.18832v-1.42807c0-0.07796 0.01687-0.14002 0.05052-0.18579zm2.53774 1.87045v-1.94124h1.7364c0.0644 0 0.1139 0.02337 0.1491 0.07079 0.0366 0.04577 0.0556 0.10783 0.0556 0.18579v0.9377c0 0.07796-0.0188 0.13964-0.0568 0.18705-0.0367 0.04577-0.0873 0.06953-0.1517 0.06953h-1.1134v0.49038h-0.6192zm2.645-1.87045c0.0381-0.04742 0.0885-0.07079 0.1529-0.07079h1.5242c0.0644 0 0.115 0.02298 0.1516 0.06701 0.0366 0.04402 0.0556 0.10531 0.0556 0.18327v0.3905h-0.6192v-0.15293h-0.7027v0.07962l1.2031 0.4158c0.0454 0.01523 0.0761 0.03937 0.0922 0.07331 0.0177 0.0321 0.0266 0.07428 0.0266 0.12509v0.50298c0 0.07787-0.0188 0.1409-0.0568 0.18832-0.0381 0.04567-0.0898 0.06827-0.1542 0.06827h-1.5204c-0.0644 0-0.1148-0.0226-0.1529-0.06827-0.038-0.04742-0.0568-0.11045-0.0568-0.18832v-0.42967h0.6192v0.1984h0.7039v-0.08087l-1.2056-0.42211c-0.0454-0.01522-0.0775-0.03772-0.0936-0.06827-0.0161-0.03219-0.0239-0.07301-0.0239-0.12383v-0.50172c0-0.07796 0.0188-0.14002 0.0568-0.18579zm-3.8849 0.45498h-0.75568v0.8897h0.75568v-0.8897zm2.5617 0h-0.7026v0.41707h0.7026v-0.41707zm-12.319341 3.65576 0.01011481-0.29896h1.9708661l0.01075 0.26036c0.0064 0.15719-0.00518 0.27976-0.0297 0.30904-0.02564 0.03055-0.13566 0.05159-0.29762 0.05809l-0.25656 0.01076 0.01075 0.99633c6e-3 0.3704 0.01739 1.0076 0.02528 1.4161 0.00962 0.4984 0.00123 0.7577-0.02465 0.7885-0.02721 0.0325-0.13961 0.0453-0.38293 0.0424-0.189725-0.0022-0.372739-0.0114-0.4063-0.0202s-0.069661-0.0447-0.08088-0.0797c-0.011221-0.0349-0.013761-0.6791-0.005054-1.4324l0.015796-1.69328-0.238855-6.8e-4c-0.131431-2.9e-4 -0.2594993-0.01367-0.2849846-0.02967-0.033357-0.02095-0.04357835-0.1121-0.03602331-0.32669zm2.3095709-0.12325 0.02527-0.17571h0.75133l0.01832 0.60354 0.0177 0.92614 0.30962 0.0108 0.30963 0.0101 0.02591-0.2193c0.01416-0.1207 0.01984-0.72028 0.01263-0.93691l-0.01326-0.39437 0.3943 0.00446 0.39365 0.00378v1.69144c0 0.7524-0.01207 1.3809-0.02717 1.3959-0.01511 0.0149-0.04618 0.0078-0.0695-0.0152-0.06472-0.0641-0.16451-0.0501-0.20727 0.029-0.05603 0.1037-0.10805 0.0868-0.10805-0.0353 0-0.0839-0.01567-0.1062-0.07393-0.1062-0.06124 0-0.07186 0.0184-0.06256 0.1099 0.0105 0.1032 0.02811 0.1159 0.26097 0.1877l0.24897 0.0765 0.00129 0.2654 0.00188 0.2647h-0.86l-0.00696-0.3722c-0.00418-0.2049 0.00677-0.4841 0.02464-0.6199 0.02976-0.2257 0.02242-0.3133-0.05497-0.6811-0.01426-0.0678-0.03366-0.0739-0.16872-0.0569-0.11702 0.0147-0.18612 0.022-0.22611 0.0599-0.05911 0.0561-0.05468 0.1792-0.0475 0.4924l0.01138 0.4657-0.08847 0.0202-0.08846 0.0215 0.08088 0.0682c0.0674 0.0572 0.08025 0.1037 0.08025 0.2863 0 0.1321-0.01715 0.233-0.04423 0.2546-0.0542 0.0433-0.2564 0.089-0.28182 0.0638-0.01002-0.0099-0.14613-0.0223-0.30268-0.0277l-0.28435-0.0102 0.01074-1.581c0.00598-0.8694 0.02268-1.98329 0.03665-2.07997zm7.93087 0.06128c0-0.07845 0.4369-0.23234 0.6306-0.23699 0.0277-5.8e-4 0.0506 0.00223 0.0664 0.00824 0.0484 0.01862 0.0545 0.1247 0.0461 0.81584l-1e-4 0.0087c-0.0083 0.6835-0.0132 1.0901-0.063 1.0957l-0.5846 0.0132c-0.014-0.0031-0.0209-0.0055-0.0278-8e-3 -0.0089-0.0031-0.0178-0.0062-0.0417-0.011l-0.2072-0.0404 0.0101-0.6514 0.0088-0.97614 0.0809 0.00882c0.0444 0.00466 0.0815-0.00747 0.0815-0.02657zm1.6825-0.23479c0.0385-1e-3 0.0688-0.00178 0.0861-0.0022 0.083-0.00194 0.1126 0.03394 0.2365 0.28441 0.0776 0.15719 0.1725 0.40136 0.211 0.54277 0.0286 0.1054 0.0571 0.2335 0.0842 0.3549 0.0512 0.2302 0.097 0.436 0.128 0.4165 0.0196-0.0124 0.0348-0.6016 0.0348-0.942 0-0.38392-0.0111-0.53839 0.0592-0.6 0.0563-0.04934 0.1648-0.03913 0.373-0.03951l0.2717-0.00127 0.0241 0.73678c0.0164 0.5195 0.011 1.0742-0.0171 1.1088-0.0011 0.0013-0.0038 0.0025-0.0065 0.0036-0.0021 9e-4 -0.0043 0.0018-0.0055 0.0028l-1.9582 0.0442c-0.0072-0.0031-0.015-0.0047-0.0224-0.0063-0.0098-2e-3 -0.019-0.0039-0.0256-0.0089-0.0572-0.0425-0.0626-0.0763-0.0379-0.2464 0.0392-0.2697 0.0382-0.6805-0.0115-1.12713-0.0236-0.21324-0.0325-0.41455-0.0201-0.44742 0.0178-0.04732 0.0805-0.0609 0.3051-0.06633 0.1038-0.00246 0.2139-0.0053 0.2911-0.0073zm-7.05547 0.02941c0.02363-0.02347 0.48814-0.03336 0.95795-0.03093v-1e-4c0.46982 0.00242 0.94478 0.01658 0.98958 0.04044 0.05469 0.02918 0.06633 0.07815 0.06633 0.28315 0 0.13643-0.00446 0.25066-0.00951 0.25338-0.00484 0.00262-0.26666 0.01445-0.58191 0.02647l-0.57319 0.02153-0.01067 0.59443c-0.00746 0.1938 0.0033 0.2818 0.03792 0.3103 0.02667 0.022 0.21537 0.0449 0.42269 0.0505l0.37411 0.0101 0.01067 0.3109c0.01027 0.3081 0.00911 0.3108-0.08272 0.3337-0.051 0.0127-0.15612 0.013-0.23379 6e-4 -0.07768-0.0123-0.23011-0.0121-0.33872 6e-4l-0.19714 0.0228v0.4562c0 0.295-0.01416 0.4651-0.03985 0.4809-0.09736 0.0599 0.09396 0.0855 0.63951 0.0859l0.5826 7e-4v0.2812c0 0.2235-0.01183 0.2855-0.05683 0.3027-0.05663 0.0216-1.12737 0.0188-1.61831-0.0044-0.14288-0.0068-0.26035-0.0283-0.26035-0.0481 0-0.0197 0.02478-0.0827 0.05435-0.1396 0.04229-0.0813 0.04517-0.1218 0.01328-0.1914-0.07366-0.1608-0.02434-0.2004 0.25215-0.2004 0.25949 0 0.36654-0.0516 0.19268-0.0929-0.1664-0.0395-0.19501-0.081-0.16999-0.2471 0.01978-0.1307 0.01222-0.1575-0.06-0.2079-0.04567-0.0318-0.1164-0.058-0.15734-0.058-0.13292 0-0.16114-0.069-0.16114-0.4032 0-0.1749-0.01686-0.9935-0.03854-1.4241-0.02622-0.52019-0.02753-0.79471-0.00382-0.81837zm9.13027-0.01135c0.017-0.01202 0.1393-0.01794 0.314-0.01958 0.524-0.00514 1.5204 0.03025 1.5664 0.06885 0.0318 0.02666 0.0481 0.12518 0.0481 0.28945v0.24892h-0.6275c-0.5702-0.05876-0.7031 0.0193-0.5902 0.0897 0.0198 0.01228 0.0358 0.44608 0.0361 0.56918 3e-4 0.1232 0.012 0.2432 0.0265 0.266 0.0155 0.0246 0.1786 0.0499 0.3987 0.0614 0.2047 0.0107 0.3876 0.0347 0.4063 0.0536 0.0188 0.0189 0.0288 0.0711 0.0222 0.1163-0.0032 0.022-0.0089 0.0374-0.0203 0.0493l-1.6688 0.0392 0.0208-1.0576c0.0156-0.55324 0.0324-0.7497 0.0677-0.77472zm-5.91168 0.58253c-0.00298-0.49403-0.00355-0.58811 0.18222-0.60085v-1e-4c0.04375-3e-3 0.09756-0.00151 0.16423 3.4e-4 0.04107 0.00114 0.08702 0.00242 0.13851 0.00286l0.35831 0.0032 0.00756 1.16874c0.00339 0.4091 0.01648 0.7165 0.03025 0.8032l-0.2685 0.0063c-0.02754-0.0061-0.06992-0.0071-0.14284 0.0026-0.09697 0.013-0.24126 0.013-0.32165 0l-0.1472-0.0234v-1.129c0-0.0865-4.7e-4 -0.16419-8.9e-4 -0.23389zm5.94138 1.39579 1.6486-0.0051v0.0739c0 0.1147-0.0096 0.1245-0.1346 0.1441-0.0739 0.0115-0.2842 0.0253-0.4664 0.0304l-0.3304 0.0094v0.4025c-1e-4 0.2816-7e-4 0.4231 0.0697 0.4955 0.0717 0.0736 0.2169 0.0756 0.511 0.0808 0.3309 0.0059 0.4768 0.0236 0.5598 0.067 0.1082 0.0564 0.1125 0.0679 0.1125 0.2913 0 0.1276-0.0112 0.2393-0.0259 0.2483-0.0528 0.0323-1.9276 0.0636-1.9715 0.0329-0.0356-0.0249-0.0364-0.0939-0.0032-0.3312 0.0367-0.2613 0.0343-0.3203-0.0189-0.4701-0.0527-0.1478-0.0555-0.2294-0.0266-0.5946 0.0184-0.2315 0.0517-0.4439 0.0759-0.4751zm-2.4284 0.0095 1.811-7e-3c0.0624 0.0075 0.1019 0.0181 0.115 0.0341 0.0299 0.0368 0.0381 0.2916 0.0303 0.8973-0.0081 0.6348-0.0051 0.8456-0.1027 0.9152-0.0537 0.0384-0.138 0.0339-0.2714 0.0339-0.1862 0-0.2385-0.0147-0.3026-0.0828-0.1242-0.1319-0.211-0.2934-0.211-0.3918-1e-4 -0.1128-0.3949-1.2783-0.4329-1.2783-0.0467 0-0.0805 0.6861-0.06 1.212 0.0163 0.4207 0.0112 0.5032-0.0336 0.5207-0.0674 0.0263-0.513 0.0214-0.5844-0.0064-0.0988-0.0383-0.1096-0.0982-0.1125-0.6855-0.0017-0.3214-0.0046-0.7075-0.0076-0.8582-0.0055-0.2732-0.0054-0.2735 0.0928-0.2849 0.0299-0.0036 0.0535-0.0102 0.0696-0.0183zm-0.9023 0.0031c0.0414 0.0052 0.0924 0.0069 0.1547-6e-4h0.1599c0.0226 0.0104 0.0356 0.0298 0.05 0.0676 0.048 0.1265 0.0593 1.6002 0.0132 1.7118-0.0367 0.0889-0.0409 0.0897-0.4903 0.0916-0.2496 0.0011-0.4622-0.0052-0.4714-0.0145-0.0425-0.0425-0.0129-0.6627 0.0372-0.783 0.0296-0.0707 0.0538-0.1822 0.0538-0.2482 0-0.0991 0.0114-0.1166 0.0632-0.098 0.0344 0.0124 0.0914 0.0543 0.1276 0.0916 0.1358 0.1401 0.2227-0.0732 0.115-0.2824-0.0427-0.0828-0.0828-0.1069-0.206-0.1214l-0.1536-0.0171v-0.3588l0.2149-0.0196c0.059-0.0054 0.1014-0.0115 0.1276-0.0177l0.2042-0.0013zm-1.9918 0.0082 0.26541-0.0012h9e-5c3.2e-4 1e-3 5.7e-4 0.0065 8.3e-4 0.012 3e-4 0.0064 6e-4 0.0129 0.00101 0.0133 0.01591 0.0117 0.03365 0.2087 0.0385 0.4372s0.01222 0.4556 0.01707 0.5049c0.00737 0.0736-0.01329 0.0968-0.11627 0.1314-0.12005 0.0403-0.12111 0.0434-0.03539 0.062 0.14177 0.0305 0.53837 0.0708 0.73425 0.0744l0.17891 0.0039 0.02211 0.2698c0.01183 0.149 0.01338 0.2918 0.00436 0.3166-0.00931 0.0256-0.06506 0.0418-0.12887 0.0373-0.06196-0.0043-0.42647-0.016-0.81076-0.0265l-0.69886-0.0196-0.00951-0.8442c-0.00669-0.5924 0.00233-0.8593 0.03103-0.8942 0.02745-0.0333 0.12141-0.0493 0.28684-0.0493 0.12441 0 0.18996-0.0113 0.21925-0.0278z" clip-rule="evenodd" style="fill:currentColor" class="ColorScheme-Text" fill-rule="evenodd"/>
 </g>
</svg>
