<svg xmlns="http://www.w3.org/2000/svg" style="isolation:isolate" width="16" height="16" viewBox="0 0 16 16">
 <path fill="#eff0f2" d="M 9.646 11.993 C 9.641 11.988 9.638 11.945 9.638 11.895 C 9.638 11.753 9.615 11.67 9.518 11.443 C 9.485 11.368 9.433 11.237 9.401 11.152 C 9.32 10.939 9.162 10.58 9.123 10.523 C 9.106 10.497 9.079 10.446 9.064 10.41 C 9.049 10.374 9.027 10.326 9.015 10.304 C 8.942 10.159 8.732 9.62 8.629 9.312 C 8.598 9.221 8.543 9.075 8.506 8.988 C 8.469 8.901 8.412 8.749 8.38 8.65 C 8.347 8.551 8.281 8.374 8.232 8.256 C 8.125 7.994 7.969 7.522 7.942 7.378 C 7.932 7.319 7.918 7.248 7.911 7.221 C 7.905 7.194 7.9 7.132 7.9 7.085 C 7.9 6.999 7.926 6.803 7.941 6.779 C 7.957 6.753 7.98 6.769 8.027 6.835 C 8.153 7.016 8.242 7.049 8.679 7.075 C 8.922 7.09 9.054 7.111 9.126 7.145 C 9.246 7.204 9.342 7.347 9.463 7.647 C 9.665 8.146 9.731 8.319 9.843 8.648 C 9.891 8.787 9.923 8.863 9.934 8.865 C 9.979 8.874 10.217 8.502 10.329 8.25 C 10.469 7.933 10.71 7.298 10.761 7.111 C 10.801 6.965 10.935 6.763 11.157 6.515 C 11.223 6.442 11.299 6.364 11.327 6.343 C 11.439 6.257 11.723 6.218 11.916 6.263 C 11.958 6.272 12.086 6.284 12.201 6.288 C 12.35 6.293 12.413 6.3 12.422 6.311 C 12.438 6.33 12.411 6.43 12.357 6.547 C 12.336 6.593 12.307 6.671 12.292 6.719 C 12.278 6.768 12.262 6.813 12.257 6.82 C 12.252 6.826 12.231 6.882 12.21 6.944 C 12.189 7.006 12.168 7.063 12.163 7.069 C 12.131 7.109 11.915 7.761 11.845 8.029 C 11.82 8.128 11.785 8.262 11.768 8.327 C 11.751 8.393 11.716 8.521 11.69 8.612 C 11.665 8.704 11.64 8.797 11.635 8.82 C 11.63 8.844 11.612 8.889 11.595 8.921 C 11.503 9.094 11.331 9.487 11.137 9.971 C 10.929 10.492 10.889 10.582 10.799 10.742 C 10.714 10.893 10.439 11.322 10.403 11.358 C 10.392 11.369 10.368 11.402 10.349 11.431 C 10.288 11.526 10.148 11.696 10.065 11.776 C 9.969 11.869 9.91 11.909 9.787 11.961 C 9.696 12 9.661 12.008 9.646 11.993 L 9.646 11.993 Z M 7.918 11.462 C 7.909 11.455 7.89 11.42 7.876 11.384 C 7.862 11.348 7.83 11.285 7.805 11.244 C 7.78 11.204 7.759 11.166 7.759 11.161 C 7.759 11.155 7.742 11.125 7.722 11.092 C 7.702 11.06 7.661 10.978 7.633 10.909 C 7.493 10.575 7.391 10.346 7.334 10.233 L 7.272 10.108 L 6.978 10.104 C 6.817 10.102 6.652 10.104 6.611 10.108 C 6.5 10.119 6.488 10.135 6.432 10.339 C 6.405 10.434 6.377 10.538 6.367 10.571 C 6.333 10.692 6.22 10.998 6.189 11.051 C 6.15 11.119 6.05 11.219 5.979 11.261 C 5.906 11.304 5.785 11.336 5.697 11.336 C 5.657 11.336 5.545 11.32 5.448 11.301 C 5.341 11.279 5.235 11.265 5.178 11.265 C 5.085 11.265 5.084 11.265 5.013 11.211 C 4.938 11.154 4.929 11.136 4.96 11.109 C 5.002 11.075 5.066 10.874 5.105 10.661 C 5.118 10.592 5.139 10.485 5.152 10.423 C 5.18 10.293 5.182 10.229 5.16 10.21 C 5.151 10.203 5.106 10.192 5.059 10.186 C 5.012 10.18 4.968 10.17 4.962 10.163 C 4.954 10.155 4.962 10.134 4.989 10.1 C 5.019 10.063 5.029 10.038 5.029 10.003 C 5.029 9.962 5.022 9.95 4.973 9.907 L 4.918 9.859 L 4.965 9.781 C 4.991 9.739 5.022 9.689 5.033 9.671 C 5.105 9.551 5.213 9.403 5.247 9.38 C 5.282 9.356 5.295 9.353 5.346 9.361 C 5.379 9.366 5.42 9.37 5.439 9.371 C 5.477 9.372 5.465 9.4 5.581 9.057 C 5.61 8.969 5.655 8.838 5.68 8.767 C 5.705 8.695 5.745 8.575 5.768 8.499 C 5.792 8.424 5.842 8.264 5.881 8.143 C 5.919 8.023 5.961 7.884 5.974 7.835 C 5.987 7.786 6.021 7.692 6.049 7.627 C 6.077 7.562 6.134 7.428 6.175 7.33 C 6.252 7.147 6.446 6.75 6.526 6.612 C 6.576 6.528 6.684 6.399 6.706 6.399 C 6.714 6.399 6.727 6.41 6.736 6.424 C 6.757 6.458 6.798 6.45 6.949 6.381 C 7.09 6.317 7.254 6.274 7.254 6.301 C 7.254 6.307 7.228 6.341 7.196 6.377 C 7.112 6.473 7.034 6.594 7.013 6.664 C 7.003 6.698 6.992 6.778 6.988 6.844 L 6.982 6.962 L 7.043 7.14 C 7.11 7.336 7.19 7.514 7.362 7.847 C 7.496 8.107 7.732 8.585 7.772 8.678 C 7.826 8.802 7.969 9.088 8.026 9.183 C 8.057 9.235 8.095 9.304 8.112 9.335 C 8.146 9.402 8.267 9.521 8.338 9.557 C 8.426 9.603 8.452 9.629 8.47 9.691 C 8.5 9.794 8.495 9.819 8.423 9.902 C 8.387 9.943 8.358 9.988 8.358 10.001 C 8.358 10.014 8.393 10.094 8.436 10.179 C 8.644 10.595 8.828 10.967 8.828 10.972 C 8.828 10.975 8.776 10.98 8.713 10.984 C 8.53 10.996 8.468 11.035 8.184 11.316 C 8.054 11.444 8.034 11.46 7.987 11.467 C 7.955 11.472 7.928 11.47 7.918 11.462 L 7.918 11.462 Z M 6.968 9.377 C 6.977 9.362 6.93 9.244 6.864 9.117 C 6.807 9.008 6.8 8.998 6.772 8.998 C 6.744 8.998 6.743 9.001 6.696 9.166 C 6.657 9.308 6.648 9.366 6.664 9.382 C 6.677 9.396 6.959 9.391 6.968 9.377 L 6.968 9.377 Z M 12.597 11.376 C 12.546 11.365 12.382 11.282 12.325 11.238 C 12.245 11.175 12.202 11.156 12.127 11.149 C 12.037 11.141 12.01 11.15 11.946 11.206 C 11.886 11.258 11.884 11.258 11.842 11.242 C 11.801 11.226 11.796 11.199 11.811 11.062 C 11.837 10.818 11.908 10.613 12.013 10.478 C 12.043 10.44 12.077 10.381 12.09 10.348 C 12.155 10.177 12.248 9.702 12.305 9.259 C 12.324 9.106 12.353 8.903 12.369 8.808 C 12.443 8.365 12.466 7.972 12.427 7.838 C 12.409 7.778 12.357 7.714 12.272 7.648 C 12.211 7.602 12.212 7.581 12.277 7.51 C 12.358 7.42 12.431 7.283 12.579 6.939 C 12.587 6.919 12.611 6.85 12.632 6.784 C 12.686 6.612 12.742 6.471 12.758 6.465 C 12.766 6.462 12.82 6.483 12.879 6.512 C 13.066 6.604 13.119 6.612 13.516 6.612 C 13.866 6.612 14.234 6.586 14.385 6.55 C 14.484 6.526 14.916 6.531 15.04 6.557 C 15.166 6.584 15.461 6.677 15.543 6.716 C 15.612 6.749 15.799 6.921 15.879 7.028 C 15.944 7.112 16.007 7.217 15.999 7.225 C 15.996 7.229 15.957 7.209 15.913 7.182 C 15.839 7.136 15.828 7.133 15.769 7.139 C 15.691 7.146 15.679 7.158 15.561 7.329 C 15.437 7.509 15.28 7.721 15.232 7.772 C 15.196 7.811 15.189 7.814 15.143 7.806 C 15.115 7.802 15.037 7.782 14.969 7.761 C 14.805 7.712 14.709 7.708 14.506 7.74 C 14.23 7.783 14.077 7.799 13.941 7.799 C 13.765 7.8 13.772 7.79 13.72 8.079 C 13.697 8.202 13.673 8.354 13.665 8.415 C 13.653 8.513 13.653 8.527 13.67 8.544 C 13.69 8.565 13.71 8.566 14.277 8.594 C 14.475 8.603 14.538 8.611 14.635 8.637 C 14.699 8.654 14.758 8.673 14.765 8.679 C 14.777 8.688 14.794 8.774 14.811 8.904 C 14.826 9.027 14.957 9.21 15.045 9.233 C 15.098 9.247 15.093 9.281 15.034 9.302 C 14.816 9.383 14.825 9.381 14.559 9.391 C 14.342 9.398 14.006 9.43 13.696 9.473 C 13.65 9.479 13.604 9.484 13.593 9.485 C 13.582 9.485 13.556 9.5 13.537 9.517 C 13.508 9.544 13.495 9.572 13.472 9.661 C 13.434 9.811 13.415 9.996 13.436 10.017 C 13.447 10.028 13.522 10.036 13.703 10.043 C 14.22 10.065 14.513 10.08 14.77 10.097 C 14.915 10.106 15.154 10.114 15.299 10.114 C 15.552 10.114 15.566 10.115 15.587 10.138 C 15.608 10.163 15.608 10.163 15.568 10.194 C 15.487 10.256 15.359 10.396 15.328 10.457 C 15.29 10.533 15.26 10.633 15.234 10.767 C 15.192 10.985 15.149 11.098 15.085 11.153 C 14.991 11.233 14.783 11.301 14.629 11.301 C 14.574 11.301 14.461 11.306 14.377 11.312 C 14.066 11.336 13.765 11.349 13.285 11.361 C 13.013 11.367 12.754 11.375 12.709 11.377 C 12.664 11.38 12.614 11.38 12.598 11.376 L 12.597 11.376 Z M 2.094 11.299 C 1.831 11.26 1.767 11.246 1.552 11.174 C 1.306 11.092 1.067 10.983 1.044 10.942 C 1.034 10.924 1.019 10.909 1.011 10.909 C 1.004 10.909 0.986 10.894 0.972 10.876 C 0.958 10.858 0.917 10.823 0.88 10.799 C 0.844 10.774 0.748 10.688 0.668 10.608 C 0.434 10.374 0.347 10.253 0.247 10.02 C 0.169 9.837 0.147 9.753 0.122 9.538 C 0.111 9.446 0.094 9.315 0.084 9.246 C 0.058 9.064 0.047 8.934 0.027 8.564 C -0.005 8.001 -0.008 7.763 0.014 7.62 C 0.025 7.551 0.047 7.402 0.063 7.288 C 0.079 7.174 0.1 7.029 0.11 6.967 C 0.12 6.905 0.139 6.785 0.151 6.7 C 0.191 6.428 0.238 6.232 0.295 6.1 C 0.324 6.032 0.369 5.923 0.397 5.858 C 0.458 5.711 0.619 5.321 0.783 5.084 C 0.881 4.942 1.004 4.815 1.135 4.702 C 1.316 4.546 1.586 4.368 1.727 4.299 C 1.863 4.232 2.121 4.127 2.328 4.077 C 2.549 4.025 2.82 3.995 3.004 4 C 3.39 4.011 3.432 4.009 3.64 4.053 C 3.786 4.083 3.933 4.124 4.063 4.196 C 4.274 4.313 4.465 4.472 4.624 4.654 C 4.733 4.779 4.98 5.147 5.05 5.29 C 5.079 5.348 5.114 5.432 5.129 5.478 C 5.143 5.524 5.168 5.591 5.183 5.629 C 5.198 5.666 5.227 5.778 5.248 5.878 C 5.281 6.046 5.284 6.072 5.277 6.22 C 5.269 6.414 5.248 6.527 5.197 6.652 C 5.163 6.734 5.145 6.76 5.054 6.851 C 4.944 6.961 4.828 7.046 4.665 7.137 C 4.527 7.213 4.11 7.419 4.093 7.419 C 4.082 7.419 4.07 7.424 4.066 7.43 C 4.058 7.445 3.931 7.484 3.86 7.495 C 3.81 7.502 3.802 7.499 3.767 7.467 C 3.735 7.436 3.731 7.426 3.738 7.392 C 3.749 7.337 3.758 7.331 3.829 7.334 C 3.89 7.337 3.893 7.335 3.933 7.286 C 4.015 7.183 4.018 7.176 4.015 7.058 C 4.011 6.896 3.981 6.667 3.955 6.6 C 3.921 6.515 3.819 6.311 3.764 6.22 C 3.7 6.116 3.658 6.072 3.491 5.938 C 3.413 5.875 3.345 5.818 3.338 5.81 C 3.332 5.803 3.287 5.774 3.238 5.747 C 3.084 5.662 2.933 5.655 2.793 5.727 C 2.666 5.792 2.383 6.107 2.249 6.332 C 2.068 6.639 1.96 6.969 1.924 7.334 C 1.917 7.401 1.911 7.624 1.911 7.828 C 1.911 8.306 1.924 8.375 2.047 8.594 C 2.076 8.646 2.099 8.692 2.099 8.698 C 2.099 8.704 2.11 8.721 2.123 8.737 C 2.136 8.753 2.181 8.818 2.223 8.883 C 2.268 8.953 2.337 9.037 2.394 9.094 C 2.447 9.145 2.492 9.187 2.495 9.187 C 2.498 9.187 2.536 9.219 2.581 9.257 C 2.673 9.338 2.783 9.394 2.951 9.447 C 3.149 9.51 3.243 9.521 3.601 9.523 C 3.882 9.525 3.938 9.522 4.019 9.503 C 4.07 9.491 4.142 9.476 4.177 9.47 C 4.247 9.459 4.296 9.45 4.342 9.441 C 4.358 9.437 4.385 9.435 4.401 9.434 C 4.417 9.434 4.439 9.429 4.449 9.424 C 4.46 9.418 4.508 9.41 4.555 9.407 C 4.603 9.404 4.671 9.398 4.707 9.394 C 4.77 9.386 4.824 9.4 4.824 9.423 C 4.824 9.428 4.805 9.463 4.781 9.502 C 4.694 9.649 4.516 9.996 4.486 10.077 C 4.457 10.158 4.46 10.3 4.493 10.355 C 4.527 10.414 4.525 10.433 4.477 10.489 C 4.455 10.516 4.436 10.544 4.436 10.55 C 4.436 10.557 4.429 10.567 4.42 10.572 C 4.411 10.577 4.398 10.595 4.389 10.61 C 4.346 10.694 4.017 11.068 3.95 11.109 C 3.844 11.175 3.48 11.256 3.068 11.306 C 2.967 11.318 2.791 11.327 2.61 11.329 C 2.34 11.332 2.299 11.329 2.093 11.299 L 2.094 11.299 Z M 10.107 6.571 C 10.102 6.567 9.701 6.522 9.409 6.493 C 9.106 6.463 8.916 6.419 8.875 6.369 C 8.852 6.341 8.877 6.221 9.002 5.745 C 9.022 5.67 9.049 5.534 9.063 5.443 C 9.076 5.351 9.098 5.229 9.112 5.171 C 9.129 5.095 9.134 5.04 9.13 4.978 C 9.126 4.906 9.128 4.891 9.142 4.891 C 9.152 4.891 9.221 4.901 9.296 4.914 C 9.371 4.927 9.517 4.946 9.62 4.956 C 9.724 4.967 9.842 4.98 9.884 4.986 C 9.926 4.992 10.082 5.003 10.23 5.01 C 10.378 5.017 10.503 5.025 10.509 5.029 C 10.515 5.032 10.548 5.094 10.584 5.167 C 10.643 5.286 10.647 5.3 10.631 5.317 C 10.582 5.366 10.143 5.351 9.796 5.289 C 9.579 5.251 9.591 5.247 9.569 5.359 C 9.539 5.518 9.552 5.537 9.709 5.556 C 9.889 5.576 9.99 5.595 9.991 5.608 C 9.992 5.615 9.991 5.651 9.99 5.688 C 9.989 5.747 9.993 5.759 10.025 5.797 C 10.046 5.82 10.059 5.846 10.054 5.853 C 10.048 5.862 9.985 5.863 9.827 5.857 C 9.568 5.845 9.521 5.847 9.5 5.868 C 9.478 5.89 9.459 6.068 9.477 6.086 C 9.507 6.116 9.819 6.172 10.027 6.185 C 10.139 6.192 10.291 6.206 10.366 6.215 C 10.44 6.225 10.523 6.232 10.55 6.232 C 10.61 6.232 10.623 6.249 10.59 6.284 C 10.577 6.299 10.565 6.316 10.565 6.323 C 10.565 6.33 10.552 6.355 10.536 6.379 C 10.493 6.444 10.489 6.474 10.517 6.521 C 10.531 6.543 10.538 6.564 10.534 6.569 C 10.526 6.577 10.115 6.58 10.106 6.572 L 10.107 6.571 Z M 8.399 6.261 C 8.33 6.212 8.289 6.209 8.176 6.245 C 8.059 6.281 8.058 6.279 8.059 6.045 C 8.06 5.933 8.069 5.797 8.081 5.707 L 8.103 5.556 L 8.064 5.511 C 8.009 5.446 7.942 5.404 7.853 5.377 C 7.76 5.349 7.743 5.348 7.726 5.369 C 7.719 5.378 7.705 5.451 7.695 5.532 C 7.655 5.857 7.649 5.868 7.48 5.924 C 7.417 5.945 7.35 5.969 7.33 5.978 C 7.188 6.041 7.101 6.067 7.101 6.047 C 7.101 6.043 7.128 5.991 7.16 5.931 C 7.228 5.802 7.235 5.775 7.26 5.517 C 7.28 5.307 7.275 5.246 7.234 5.208 C 7.195 5.173 7.092 5.128 7.05 5.128 C 7.022 5.128 7.008 5.123 7.008 5.112 C 7.008 5.095 7.186 4.973 7.286 4.922 C 7.357 4.886 7.348 4.911 7.412 4.564 C 7.463 4.291 7.461 4.297 7.475 4.297 C 7.481 4.297 7.528 4.337 7.58 4.385 C 7.632 4.433 7.711 4.495 7.757 4.522 C 7.803 4.55 7.846 4.579 7.852 4.587 C 7.861 4.598 7.86 4.631 7.847 4.702 C 7.837 4.757 7.826 4.827 7.822 4.858 L 7.815 4.914 L 7.905 4.97 C 7.955 5.002 8.031 5.05 8.073 5.078 C 8.115 5.105 8.157 5.128 8.165 5.128 C 8.2 5.128 8.239 4.992 8.24 4.871 C 8.241 4.765 8.248 4.763 8.4 4.826 C 8.504 4.869 8.542 4.879 8.601 4.879 C 8.641 4.879 8.676 4.883 8.679 4.888 C 8.682 4.893 8.674 4.979 8.663 5.081 C 8.651 5.182 8.636 5.369 8.629 5.496 C 8.612 5.791 8.608 5.826 8.573 5.928 C 8.528 6.061 8.509 6.138 8.504 6.212 C 8.496 6.32 8.488 6.323 8.399 6.261 L 8.399 6.261 Z M 6.215 6.14 C 6.202 6.137 6.181 6.126 6.169 6.117 C 6.156 6.108 6.12 6.101 6.089 6.101 C 6.037 6.101 6.033 6.099 6.039 6.074 C 6.061 5.978 6.103 5.738 6.109 5.674 C 6.113 5.631 6.124 5.463 6.133 5.3 C 6.142 5.137 6.154 4.95 6.158 4.884 C 6.167 4.747 6.152 4.673 6.112 4.65 C 6.092 4.639 6.006 4.636 5.753 4.639 C 5.4 4.643 5.386 4.641 5.413 4.589 C 5.421 4.576 5.423 4.532 5.42 4.489 C 5.415 4.426 5.406 4.402 5.37 4.349 C 5.346 4.314 5.306 4.266 5.281 4.243 C 5.256 4.22 5.235 4.196 5.235 4.189 C 5.235 4.167 5.626 4.175 5.816 4.202 C 5.993 4.227 6.039 4.227 6.298 4.204 C 6.412 4.194 6.531 4.163 6.545 4.141 C 6.549 4.135 6.561 4.13 6.573 4.13 C 6.59 4.13 6.596 4.143 6.602 4.194 C 6.607 4.229 6.616 4.267 6.624 4.277 C 6.645 4.305 6.779 4.319 7.029 4.32 C 7.267 4.32 7.271 4.322 7.242 4.394 C 7.234 4.416 7.199 4.468 7.165 4.511 C 7.075 4.624 7.033 4.642 6.821 4.656 C 6.727 4.662 6.646 4.671 6.642 4.675 C 6.633 4.682 6.602 5.056 6.589 5.299 C 6.585 5.382 6.59 5.514 6.603 5.662 C 6.618 5.841 6.62 5.909 6.61 5.962 C 6.595 6.043 6.561 6.097 6.51 6.119 C 6.471 6.135 6.254 6.151 6.215 6.14 L 6.215 6.14 Z"/>
</svg>
