<svg xmlns="http://www.w3.org/2000/svg" width="16" height="16" version="1.1">
 <path style="fill:#eff0f2" d="M 10.451501,14.648985 C 7.8168808,13.925596 5.8061528,11.191961 6.3715298,9.1021557 c 0.109846,-0.406032 0.161186,-0.46018 0.436299,-0.46018 0.171492,0 0.382776,-0.02724 0.469524,-0.06052 0.128685,-0.04938 0.166613,0.115069 0.206014,0.893287 0.0361,0.7129813 0.110775,1.0746073 0.295747,1.4322243 0.507691,0.981547 1.7862334,1.928683 3.1405192,2.326472 2.036528,0.598182 3.842487,-0.451769 3.82579,-2.224247 -0.007,-0.74327 -0.335276,-1.5125643 -0.953792,-2.2351613 -0.530996,-0.620347 -0.654927,-0.574575 -0.302081,0.111572 0.738689,1.4364533 0.04788,2.8147013 -1.413884,2.8208713 -1.591875,0.0067 -3.0255002,-1.105979 -3.1789442,-2.4673193 -0.04734,-0.419991 -0.0053,-0.575888 0.279014,-1.033149 0.184118,-0.296189 0.2928924,-0.538523 0.2417184,-0.538523 -0.05117,0 -0.6630644,0.09745 -1.3597544,0.216554 -2.111612,0.360997 -3.186492,0.263422 -4.655928,-0.422651 C 1.0338628,6.3558127 -0.07707023,4.2053727 0.79688279,2.4190778 1.3421068,1.3046817 2.4205778,0.74975669 4.0557568,0.74223469 c 2.098001,-0.0097 3.557971,0.72606601 4.180972,2.10690411 0.202057,0.447847 0.242365,0.719114 0.233283,1.5700219 -0.006,0.565749 -0.07877,1.247896 -0.161625,1.515884 -0.133054,0.430341 -0.190943,0.491186 -0.495686,0.520972 l -0.345037,0.03373 0.160678,-0.384562 c 0.08838,-0.211512 0.230497,-0.683837 0.315827,-1.049614 l 0.155147,-0.665052 -0.351088,0.383299 c -0.627237,0.684783 -1.718767,0.779389 -2.77307,0.24035 -1.975214,-1.00987 -2.019616,-3.321456 -0.07485,-3.896927 l 0.450461,-0.13329505 -0.361888,-0.07976 c -0.429344,-0.09463 -1.221754,0.0087 -1.748042,0.22799505 -1.226222,0.510896 -1.645128,1.9136871 -0.973084,3.258569 0.417598,0.835688 1.110903,1.473254 2.091923,1.923741 1.0926,0.501728 1.688545,0.596158 4.424298,0.701041 2.5305272,0.09701 2.7075732,0.125118 3.6624822,0.581343 2.430928,1.161423 3.678569,3.6970173 2.741309,5.5711963 -0.363895,0.727654 -0.985081,1.240081 -1.794765,1.480533 -0.679156,0.201686 -2.207627,0.201889 -2.941498,4.41e-4 z m 2.129996,-4.6986123 c 0.429774,-0.1634 0.619376,-0.428808 0.619376,-0.867008 0,-1.095146 -1.496775,-1.983836 -2.482634,-1.474028 -1.0932838,0.565361 -0.0743,2.3796645 1.365743,2.4316963 0.130118,0.0047 0.354,-0.0361 0.497515,-0.09066 z M 7.5787798,3.5612688 c 0.353798,-0.353795 0.402265,-0.71946 0.157977,-1.191858 -0.576154,-1.1141631 -2.287626,-1.42795211 -2.729892,-0.500513 -0.21797,0.45709 -0.134404,0.80543 0.316383,1.318849 0.422627,0.481345 0.848949,0.6801639 1.470523,0.6857869 0.376663,0.0034 0.530552,-0.05781 0.785009,-0.3122649 z"/>
</svg>
