<svg xmlns="http://www.w3.org/2000/svg" style="isolation:isolate" width="16" height="16" viewBox="0 0 16 16">
 <path fill="#eff0f2" d="M 4.343 14.452 C 3.257 14.27 2.039 13.604 1.26 12.765 C 0.835 12.308 -0.002 11.118 0 10.975 C 0 10.941 0.434 10.91 0.963 10.903 C 2.175 10.884 7.067 10.151 7.261 9.957 C 7.337 9.881 6.795 7.115 6.705 7.115 C 6.531 7.115 5.911 7.978 5.707 8.505 C 5.445 9.179 5.345 9.214 4.047 9.08 C 2.153 8.883 1.088 8.218 0.635 6.948 C 0.473 6.491 0.452 4.993 0.601 4.402 C 0.697 4.02 0.762 3.949 1.169 3.774 C 1.701 3.546 5.396 2.376 5.586 2.376 C 5.656 2.376 5.741 2.333 5.774 2.279 C 5.852 2.152 5.639 0.98 5.508 0.823 C 5.367 0.652 5.493 0.38 5.696 0.419 C 5.826 0.446 5.89 0.636 5.981 1.271 C 6.045 1.722 6.119 2.112 6.146 2.138 C 6.172 2.165 6.788 2.031 7.514 1.843 C 8.241 1.654 9.546 1.317 10.415 1.094 C 11.284 0.872 12.079 0.664 12.181 0.634 C 12.302 0.596 12.176 0.813 11.818 1.256 C 11.123 2.117 10.79 2.781 10.6 3.685 C 10.346 4.895 10.682 6.343 11.504 7.583 C 11.693 7.867 11.847 8.123 11.847 8.151 C 11.847 8.253 10.197 8.191 9.477 8.061 C 8.714 7.923 7.693 7.525 7.382 7.243 C 7.285 7.155 7.177 7.112 7.142 7.147 C 7.091 7.198 7.312 8.534 7.557 9.658 C 7.586 9.794 7.678 9.88 7.794 9.88 C 8.252 9.88 13.402 8.673 14.303 8.354 C 15.114 8.067 15.147 8.141 14.761 9.364 C 14.119 11.396 12.524 12.843 10.02 13.666 C 8.225 14.257 5.462 14.639 4.343 14.452 L 4.343 14.452 Z"/>
</svg>
