<svg xmlns="http://www.w3.org/2000/svg" style="isolation:isolate" width="16" height="16" viewBox="0 0 16 16">
 <path fill="#eff0f2" d="M 7.091 0 C 4.492 0 4.021 1.336 3.607 2.581 C 3.243 3.671 0.343 11.302 0.314 11.379 L 0.295 11.418 C 0.111 11.803 0.013 12.223 0.006 12.65 C 0.006 13.483 0.276 14.303 0.853 14.941 C 1.431 15.579 2.321 16 3.395 16 C 4.456 16 5.284 15.788 5.878 15.345 C 6.448 14.918 6.783 14.248 6.783 13.535 C 6.783 12.79 6.364 12.163 5.84 11.745 C 5.315 11.326 4.661 11.071 3.992 11.071 C 3.448 11.071 2.969 11.175 2.567 11.418 C 2.165 11.66 1.854 12.111 1.854 12.611 C 1.854 13.1 2.119 13.533 2.471 13.786 C 2.822 14.038 3.257 14.152 3.703 14.152 C 3.925 14.154 4.131 14.038 4.244 13.846 C 4.355 13.654 4.355 13.417 4.244 13.225 C 4.131 13.033 3.924 12.917 3.703 12.919 C 3.486 12.919 3.301 12.855 3.202 12.784 C 3.103 12.715 3.087 12.681 3.087 12.611 C 3.087 12.553 3.07 12.556 3.203 12.476 C 3.334 12.397 3.612 12.303 3.991 12.303 C 4.326 12.303 4.761 12.46 5.069 12.707 C 5.377 12.956 5.551 13.256 5.551 13.535 C 5.551 13.884 5.45 14.118 5.147 14.344 C 4.844 14.571 4.282 14.768 3.395 14.768 C 2.62 14.768 2.124 14.515 1.777 14.133 C 1.431 13.75 1.238 13.208 1.238 12.65 C 1.238 11.952 1.888 10.455 4.165 10.455 C 5.236 10.455 5.845 10.729 6.36 11.167 C 6.875 11.605 7.286 12.253 7.765 12.958 C 8.244 13.663 8.798 14.446 9.672 15.038 C 10.545 15.629 11.71 16 13.311 16 C 13.623 16.003 13.888 15.771 13.927 15.461 L 13.927 15.442 C 13.933 15.405 15.837 5.261 15.948 4.775 C 16.237 3.514 15.062 3.697 15.062 3.697 C 9.335 3.697 11.2 0 7.091 0 Z"/>
</svg>
