<svg xmlns="http://www.w3.org/2000/svg" style="isolation:isolate" width="16" height="16" viewBox="0 0 16 16">
 <path fill="#eff0f2" fill-rule="evenodd" d="M 8.044 0.001 C 7.699 -0.008 7.357 0.076 7.058 0.243 L 1.513 3.334 C 0.931 3.659 0.571 4.259 0.571 4.909 L 0.571 11.09 C 0.571 11.74 0.931 12.341 1.513 12.666 L 7.058 15.756 C 7.641 16.081 8.359 16.081 8.942 15.756 L 14.486 12.666 C 15.07 12.341 15.429 11.74 15.429 11.09 L 15.429 4.909 C 15.429 4.259 15.069 3.658 14.486 3.333 L 8.942 0.243 C 8.669 0.09 8.36 0.007 8.045 0 L 8.044 0.001 Z M 10.165 3.429 C 9.307 3.429 8.534 3.866 7.993 4.531 C 7.452 3.866 6.679 3.429 5.82 3.429 C 4.184 3.429 2.857 4.94 2.857 6.806 C 2.857 7.307 2.935 7.789 3.071 8.249 C 3.071 8.249 3.194 8.665 3.303 8.894 C 4.553 11.818 7.993 13.714 7.993 13.714 C 7.993 13.714 11.433 11.818 12.682 8.894 C 13.931 5.969 12.843 8.504 12.915 8.249 C 13.045 7.787 13.128 7.307 13.128 6.806 C 13.128 4.94 11.802 3.429 10.165 3.429 L 10.165 3.429 Z"/>
</svg>
