<svg xmlns="http://www.w3.org/2000/svg" style="isolation:isolate" width="16" height="16" viewBox="0 0 16 16">
 <path fill="#eff0f2" fill-rule="evenodd" d="M 10.182 5.091 L 10.182 13.818 C 12.592 13.818 14.545 11.864 14.545 9.455 C 14.545 7.045 12.592 5.091 10.182 5.091 L 10.182 5.091 Z M 10.182 3.636 C 13.395 3.636 16 6.241 16 9.455 C 16 12.668 13.395 15.273 10.182 15.273 L 8.727 15.273 L 8.727 15.08 L 8.727 13.564 L 8.727 5.347 L 8.727 3.825 L 8.727 3.636 L 10.182 3.636 L 10.182 3.636 Z M 5.818 2.182 L 5.818 10.909 C 3.408 10.909 1.455 8.955 1.455 6.545 C 1.455 4.136 3.408 2.182 5.818 2.182 L 5.818 2.182 Z M 5.818 0.727 C 2.605 0.727 0 3.332 0 6.545 C 0 9.759 2.605 12.364 5.818 12.364 L 7.273 12.364 L 7.273 12.17 L 7.273 10.655 L 7.273 2.438 L 7.273 0.916 L 7.273 0.727 L 5.818 0.727 L 5.818 0.727 Z"/>
</svg>
