<svg xmlns="http://www.w3.org/2000/svg" style="isolation:isolate" width="16" height="16" viewBox="0 0 16 16">
 <path fill="#F7F7F7" d="M 7.898 5.927 L 7.457 5.927 Q 7.399 5.696 7.246 5.383 Q 7.099 5.064 6.914 4.783 Q 6.722 4.489 6.492 4.272 Q 6.268 4.048 6.058 4.016 Q 5.859 3.99 5.559 3.978 Q 5.259 3.965 5.003 3.965 L 4.633 3.965 L 4.633 11.217 Q 4.633 11.428 4.722 11.607 Q 4.812 11.78 5.035 11.875 Q 5.15 11.92 5.514 11.997 Q 5.885 12.073 6.089 12.08 L 6.089 12.534 L 1.808 12.534 L 1.808 12.08 Q 1.987 12.067 2.351 12.029 Q 2.722 11.99 2.863 11.933 Q 3.073 11.85 3.169 11.696 Q 3.272 11.537 3.272 11.275 L 3.272 3.965 L 2.901 3.965 Q 2.703 3.965 2.409 3.978 Q 2.115 3.984 1.847 4.016 Q 1.636 4.042 1.406 4.272 Q 1.182 4.495 0.99 4.783 Q 0.799 5.07 0.652 5.396 Q 0.505 5.716 0.447 5.927 L 0 5.927 L 0 3.466 L 7.898 3.466 L 7.898 5.927 Z"/>
 <path fill="#F7F7F7" d="M 16 5.927 L 15.559 5.927 Q 15.502 5.696 15.348 5.383 Q 15.201 5.064 15.016 4.783 Q 14.824 4.489 14.594 4.272 Q 14.371 4.048 14.16 4.016 Q 13.962 3.99 13.661 3.978 Q 13.361 3.965 13.105 3.965 L 12.735 3.965 L 12.735 11.217 Q 12.735 11.428 12.824 11.607 Q 12.914 11.78 13.137 11.875 Q 13.252 11.92 13.617 11.997 Q 13.987 12.073 14.192 12.08 L 14.192 12.534 L 9.911 12.534 L 9.911 12.08 Q 10.089 12.067 10.454 12.029 Q 10.824 11.99 10.965 11.933 Q 11.176 11.85 11.272 11.696 Q 11.374 11.537 11.374 11.275 L 11.374 3.965 L 11.003 3.965 Q 10.805 3.965 10.511 3.978 Q 10.217 3.984 9.949 4.016 Q 9.738 4.042 9.508 4.272 Q 9.284 4.495 9.093 4.783 Q 8.901 5.07 8.754 5.396 Q 8.607 5.716 8.55 5.927 L 8.102 5.927 L 8.102 3.466 L 16 3.466 L 16 5.927 Z"/>
</svg>
