<?xml version="1.0" standalone="no"?><!-- Generator: Gravit.io --><svg xmlns="http://www.w3.org/2000/svg" xmlns:xlink="http://www.w3.org/1999/xlink" style="isolation:isolate" viewBox="0 0 22 22" width="22" height="22"><path d=" M 6 4.009766 C 4.892 4.009766 4 4.901766 4 6.009766 L 4 16.009766 C 4 17.117766 4.892 18.009766 6 18.009766 L 16 18.009766 C 17.108 18.009766 18 17.117766 18 16.009766 L 18 6.009766 C 18 4.901766 17.108 4.009766 16 4.009766 L 6 4.009766 Z  M 10.78712 12.182666 L 10.78712 12.182666 L 10.78712 12.182666 Q 11.260186 12.182666 11.56768 11.750993 L 11.56768 11.750993 L 11.56768 11.750993 Q 11.875173 11.31932 11.875173 10.78712 L 11.875173 10.78712 L 11.875173 10.78712 Q 11.875173 10.373187 11.685946 10.130741 L 11.685946 10.130741 L 11.685946 10.130741 Q 11.49672 9.888294 11.153747 9.888294 L 11.153747 9.888294 L 11.153747 9.888294 Q 10.68068 9.888294 10.367274 10.290401 L 10.367274 10.290401 L 10.367274 10.290401 Q 10.053867 10.692507 10.053867 11.260186 L 10.053867 11.260186 L 10.053867 11.260186 Q 10.053867 11.674119 10.254921 11.928393 L 10.254921 11.928393 L 10.254921 11.928393 Q 10.455974 12.182666 10.78712 12.182666 L 10.78712 12.182666 L 10.78712 12.182666 Z  M 11.082787 15.28125 L 11.082787 15.28125 L 11.082787 15.28125 Q 9.155041 15.28125 7.984202 14.187284 L 7.984202 14.187284 L 7.984202 14.187284 Q 6.813363 13.093318 6.813363 11.14192 L 6.813363 11.14192 L 6.813363 11.14192 Q 6.813363 9.226001 8.084729 7.972376 L 8.084729 7.972376 L 8.084729 7.972376 Q 9.356095 6.71875 11.201053 6.71875 L 11.201053 6.71875 L 11.201053 6.71875 Q 12.986878 6.71875 14.086758 7.741756 L 14.086758 7.741756 L 14.086758 7.741756 Q 15.186637 8.764762 15.186637 10.266747 L 15.186637 10.266747 L 15.186637 10.266747 Q 15.186637 11.544026 14.494777 12.395546 L 14.494777 12.395546 L 14.494777 12.395546 Q 13.802918 13.247065 12.809479 13.247065 L 12.809479 13.247065 L 12.809479 13.247065 Q 12.501985 13.247065 12.235886 13.075578 L 12.235886 13.075578 L 12.235886 13.075578 Q 11.969786 12.904092 11.898826 12.584772 L 11.898826 12.584772 L 11.898826 12.584772 Q 11.484893 13.270718 10.621547 13.270718 L 10.621547 13.270718 L 10.621547 13.270718 Q 9.864641 13.270718 9.391575 12.714865 L 9.391575 12.714865 L 9.391575 12.714865 Q 8.918508 12.159012 8.918508 11.24836 L 8.918508 11.24836 L 8.918508 11.24836 Q 8.918508 10.302227 9.533494 9.551234 L 9.533494 9.551234 L 9.533494 9.551234 Q 10.148481 8.800242 11.094613 8.800242 L 11.094613 8.800242 L 11.094613 8.800242 Q 11.851519 8.800242 12.159012 9.379748 L 12.159012 9.379748 L 12.241799 8.953988 L 13.353505 8.953988 L 12.963225 11 L 12.963225 11 Q 12.809479 11.804213 12.809479 12.017093 L 12.809479 12.017093 L 12.809479 12.017093 Q 12.809479 12.265452 13.010532 12.265452 L 13.010532 12.265452 L 13.010532 12.265452 Q 13.436291 12.265452 13.773351 11.697773 L 13.773351 11.697773 L 13.773351 11.697773 Q 14.110411 11.130093 14.110411 10.290401 L 14.110411 10.290401 L 14.110411 10.290401 Q 14.110411 9.202348 13.359418 8.492749 L 13.359418 8.492749 L 13.359418 8.492749 Q 12.608425 7.783149 11.24836 7.783149 L 11.24836 7.783149 L 11.24836 7.783149 Q 9.805508 7.783149 8.888942 8.741108 L 8.888942 8.741108 L 8.888942 8.741108 Q 7.972376 9.699068 7.972376 11.153747 L 7.972376 11.153747 L 7.972376 11.153747 Q 7.972376 12.608425 8.817982 13.412638 L 8.817982 13.412638 L 8.817982 13.412638 Q 9.663588 14.216851 11.130093 14.216851 L 11.130093 14.216851 L 11.130093 14.216851 Q 11.886999 14.216851 12.667559 14.015798 L 12.667559 14.015798 L 12.371892 15.198463 L 12.371892 15.198463 Q 11.792386 15.28125 11.082787 15.28125 L 11.082787 15.28125 L 11.082787 15.28125 Z " fill-rule="evenodd" id="Compound Path" fill="#eff0f2"/></svg>