<svg xmlns="http://www.w3.org/2000/svg" xmlns:xlink="http://www.w3.org/1999/xlink" width="256" height="256" viewBox="0 0 67.733 67.733"><defs><linearGradient id="a"><stop offset="0" stop-color="#919caf"/><stop offset=".262" stop-color="#68758e"/><stop offset=".705" stop-color="#485a6c"/><stop offset="1" stop-color="#444c5c"/></linearGradient><linearGradient gradientUnits="userSpaceOnUse" y2="119.093" x2="-35.31" y1="401.584" x1="529.655" id="g" xlink:href="#b" gradientTransform="matrix(0 -.11989 .11989 0 .363 292.548)"/><linearGradient id="b"><stop offset="0" stop-color="#f2f2f2"/><stop offset="1" stop-color="#f9f9f9"/></linearGradient><linearGradient xlink:href="#c" id="e" x1="88" y1="88" x2="488" y2="488" gradientUnits="userSpaceOnUse"/><linearGradient id="c"><stop offset="0" stop-opacity=".588"/><stop offset=".88" stop-opacity="0"/><stop offset="1"/></linearGradient><filter id="f" x="-.053" width="1.106" y="-.044" height="1.088" color-interpolation-filters="sRGB"><feGaussianBlur stdDeviation="8.48"/></filter><filter id="d" x="-.013" width="1.026" y="-.011" height="1.022" color-interpolation-filters="sRGB"><feGaussianBlur stdDeviation="2.12"/></filter></defs><path d="M20.705 4.015c-9.339 0-10.344.96-10.298 10.317V52.965c-.046 9.357.96 10.317 10.298 10.317h25.97c9.34 0 10.299-.96 10.299-10.317V14.332c0-9.358-.96-10.317-10.298-10.317z" style="marker:none" color="#000" overflow="visible" opacity=".2" fill="none" stroke="#000" stroke-width="1.058" enable-background="accumulate"/><path style="marker:none" d="M189.843 74c-70.593 0-78.189 7.25-77.843 77.987v292.026c-.346 70.736 7.25 77.987 77.843 77.987h196.314c70.593 0 76.006-7.274 77.843-77.987V151.987C464 81.25 456.75 74 386.157 74z" transform="matrix(.1323 0 0 .1323 -4.41 -5.51)" color="#000" overflow="visible" opacity=".1" filter="url(#d)" enable-background="accumulate"/><path d="M189.843 74c-70.593 0-78.189 7.25-77.843 77.987v292.026c-.346 70.736 7.25 77.987 77.843 77.987h196.314C456.75 522 464 514.75 464 444.013V151.987C464 81.25 456.75 74 386.157 74z" style="marker:none" transform="matrix(.1323 0 0 .1323 -4.41 -5.51)" color="#000" overflow="visible" opacity=".3" fill="url(#e)" filter="url(#f)" enable-background="accumulate"/><path style="marker:none" d="M20.705 233.282c-9.339 0-10.344.959-10.298 10.317v38.632c-.046 9.358.96 10.317 10.298 10.317h25.97c9.34 0 10.299-.959 10.299-10.317V243.6c0-9.358-.96-10.317-10.298-10.317z" color="#000" overflow="visible" fill="url(#g)" enable-background="accumulate" transform="translate(0 -229.267)"/><path style="marker:none" d="M20.705 4.015c-9.339 0-10.344.96-10.298 10.317v.53c-.046-9.358.96-10.318 10.298-10.318h25.97c9.34 0 10.299.96 10.299 10.317v-.529c0-9.358-.96-10.317-10.298-10.317z" color="#000" overflow="visible" opacity=".6" fill="#fff" enable-background="accumulate"/><path d="M43.663 24.328c1.073.269 1.891.745 2.642 1.523.389.415.966 1.173 1.013 1.354.013.054-1.824 1.287-2.937 1.978-.04.027-.202-.147-.383-.416-.543-.79-1.113-1.133-1.984-1.193-1.281-.087-2.106.583-2.1 1.703 0 .329.048.523.182.791.281.584.804.932 2.447 1.643 3.024 1.301 4.319 2.16 5.123 3.38.899 1.36 1.1 3.533.49 5.15-.67 1.756-2.334 2.95-4.674 3.346-.724.127-2.44.107-3.219-.034-1.696-.302-3.305-1.14-4.298-2.24-.389-.429-1.146-1.549-1.1-1.629.02-.027.195-.134.39-.248.187-.107.898-.516 1.569-.905l1.213-.704.255.375c.355.543 1.133 1.287 1.603 1.536 1.347.71 3.198.61 4.11-.208.389-.356.55-.724.55-1.268 0-.49-.06-.704-.315-1.072-.329-.47-1-.865-2.904-1.69-2.179-.939-3.118-1.522-3.976-2.448-.496-.536-.966-1.395-1.16-2.112-.161-.597-.201-2.092-.074-2.696.45-2.105 2.039-3.574 4.332-4.01.744-.14 2.474-.087 3.205.094zm-9.917 1.764l.013 1.73h-5.498v15.624h-3.89V27.822h-5.498v-1.697c0-.938.02-1.723.047-1.743.02-.027 3.366-.04 7.423-.033l7.383.02z" class="st1" fill="#1a7fd4" enable-background="new"/><path style="marker:none" d="M33.69 4.015v59.267h12.986c9.339 0 10.055-.963 10.298-10.317V14.332c0-9.358-.96-10.317-10.298-10.317z" color="#000" overflow="visible" opacity=".1" fill="#fff" enable-background="accumulate"/><path style="marker:none" d="M10.407 33.648v19.317c-.046 9.358.96 10.317 10.298 10.317h25.97c9.34 0 10.056-.963 10.299-10.317V33.648z" color="#000" overflow="visible" opacity=".2" fill="#fff" enable-background="accumulate"/><path style="marker:none" d="M41.099 63.282l15.875-15.875v5.949c-.014 8.994-1.006 9.926-10.1 9.926z" color="#000" overflow="visible" opacity=".4" fill="#fff" enable-background="accumulate"/></svg>