<svg xmlns="http://www.w3.org/2000/svg" xmlns:xlink="http://www.w3.org/1999/xlink" width="256" height="256" viewBox="0 0 67.733 67.733"><defs><linearGradient id="a"><stop offset="0" stop-color="#919caf"/><stop offset=".262" stop-color="#68758e"/><stop offset=".705" stop-color="#485a6c"/><stop offset="1" stop-color="#444c5c"/></linearGradient><linearGradient gradientUnits="userSpaceOnUse" y2="119.093" x2="-35.31" y1="401.584" x1="529.655" id="g" xlink:href="#b" gradientTransform="matrix(0 -.11989 .11989 0 .363 292.548)"/><linearGradient id="b"><stop offset="0" stop-color="#f2f2f2"/><stop offset="1" stop-color="#f9f9f9"/></linearGradient><linearGradient xlink:href="#c" id="e" x1="88" y1="88" x2="488" y2="488" gradientUnits="userSpaceOnUse"/><linearGradient id="c"><stop offset="0" stop-opacity=".588"/><stop offset=".88" stop-opacity="0"/><stop offset="1"/></linearGradient><filter id="f" x="-.053" width="1.106" y="-.044" height="1.088" color-interpolation-filters="sRGB"><feGaussianBlur stdDeviation="8.48"/></filter><filter id="d" x="-.013" width="1.026" y="-.011" height="1.022" color-interpolation-filters="sRGB"><feGaussianBlur stdDeviation="2.12"/></filter></defs><path d="M20.705 4.015c-9.339 0-10.344.96-10.298 10.317V52.965c-.046 9.357.96 10.317 10.298 10.317h25.97c9.34 0 10.299-.96 10.299-10.317V14.332c0-9.358-.96-10.317-10.298-10.317z" style="marker:none" color="#000" overflow="visible" opacity=".2" fill="none" stroke="#000" stroke-width="1.058" enable-background="accumulate"/><path style="marker:none" d="M189.843 74c-70.593 0-78.189 7.25-77.843 77.987v292.026c-.346 70.736 7.25 77.987 77.843 77.987h196.314c70.593 0 76.006-7.274 77.843-77.987V151.987C464 81.25 456.75 74 386.157 74z" transform="matrix(.1323 0 0 .1323 -4.41 -5.51)" color="#000" overflow="visible" opacity=".1" filter="url(#d)" enable-background="accumulate"/><path d="M189.843 74c-70.593 0-78.189 7.25-77.843 77.987v292.026c-.346 70.736 7.25 77.987 77.843 77.987h196.314C456.75 522 464 514.75 464 444.013V151.987C464 81.25 456.75 74 386.157 74z" style="marker:none" transform="matrix(.1323 0 0 .1323 -4.41 -5.51)" color="#000" overflow="visible" opacity=".3" fill="url(#e)" filter="url(#f)" enable-background="accumulate"/><path style="marker:none" d="M20.705 233.282c-9.339 0-10.344.959-10.298 10.317v38.632c-.046 9.358.96 10.317 10.298 10.317h25.97c9.34 0 10.299-.959 10.299-10.317V243.6c0-9.358-.96-10.317-10.298-10.317z" color="#000" overflow="visible" fill="url(#g)" enable-background="accumulate" transform="translate(0 -229.267)"/><path d="M35.807 18.832v1.058h12.7v-1.058zm0 4.233v1.058h12.7v-1.058zm0 4.233v1.059h12.7v-1.059zm0 4.234v1.058h12.7v-1.058zm-16.933 4.233v1.058h29.633v-1.058zm0 4.233v1.059h29.633v-1.059zm0 4.234v1.058h29.633v-1.058zm0 4.233v1.058h19.05v-1.058z" fill="#37a6e6" enable-background="new"/><path d="M25.377 17.773l-5.22 13.759h-1.283v1.058h3.704v-1.058h-1.186l1.237-3.178h6.139l1.235 3.178h-1.602v1.058h5.314v-1.058h-1.466l-5.223-13.759zm.321 2.382l2.703 7.146h-5.36z" font-size="13.717" font-weight="400" letter-spacing="0" overflow="visible" style="line-height:125%;-inkscape-font-specification:'DejaVu Serif';marker:none" word-spacing="0" color="#bebebe" font-family="DejaVu Serif" fill="#1463a5" enable-background="new"/><path style="marker:none" d="M33.69 4.015v59.267h12.986c9.339 0 10.055-.963 10.298-10.317V14.332c0-9.358-.96-10.317-10.298-10.317z" color="#000" overflow="visible" opacity=".1" fill="#fff" enable-background="accumulate"/><path style="marker:none" d="M10.407 33.648v19.317c-.046 9.358.96 10.317 10.298 10.317h25.97c9.34 0 10.056-.963 10.299-10.317V33.648z" color="#000" overflow="visible" opacity=".2" fill="#fff" enable-background="accumulate"/><path style="marker:none" d="M41.099 63.282l15.875-15.875v5.949c-.014 8.994-1.006 9.926-10.1 9.926z" color="#000" overflow="visible" opacity=".4" fill="#fff" enable-background="accumulate"/><path style="marker:none" d="M20.705 4.015c-9.339 0-10.344.96-10.298 10.317v.53c-.046-9.358.96-10.318 10.298-10.318h25.97c9.34 0 10.299.96 10.299 10.317v-.529c0-9.358-.96-10.317-10.298-10.317z" color="#000" overflow="visible" opacity=".6" fill="#fff" enable-background="accumulate"/></svg>