<svg xmlns="http://www.w3.org/2000/svg" xmlns:xlink="http://www.w3.org/1999/xlink" width="256" height="256" viewBox="0 0 67.733 67.733"><defs><linearGradient id="a"><stop offset="0" stop-color="#919caf"/><stop offset=".262" stop-color="#68758e"/><stop offset=".705" stop-color="#485a6c"/><stop offset="1" stop-color="#444c5c"/></linearGradient><linearGradient id="c"><stop offset="0" stop-color="#077467"/><stop offset="1" stop-color="#169283"/></linearGradient><linearGradient xlink:href="#b" id="e" x1="88" y1="88" x2="488" y2="488" gradientUnits="userSpaceOnUse"/><linearGradient id="b"><stop offset="0" stop-opacity=".588"/><stop offset=".88" stop-opacity="0"/><stop offset="1"/></linearGradient><filter id="f" x="-.053" width="1.106" y="-.044" height="1.088" color-interpolation-filters="sRGB"><feGaussianBlur stdDeviation="8.48"/></filter><filter id="d" x="-.013" width="1.026" y="-.011" height="1.022" color-interpolation-filters="sRGB"><feGaussianBlur stdDeviation="2.12"/></filter><linearGradient xlink:href="#c" id="g" gradientUnits="userSpaceOnUse" gradientTransform="matrix(0 -.11989 -.11989 0 67.016 292.813)" x1="529.655" y1="401.584" x2="-35.31" y2="119.093"/></defs><path style="marker:none" d="M189.843 74c-70.593 0-78.189 7.25-77.843 77.987v292.026c-.346 70.736 7.25 77.987 77.843 77.987h196.314c70.593 0 76.006-7.274 77.843-77.987V151.987C464 81.25 456.75 74 386.157 74z" transform="matrix(.1323 0 0 .1323 -4.41 -5.245)" color="#000" overflow="visible" opacity=".1" filter="url(#d)" enable-background="accumulate"/><path d="M189.843 74c-70.593 0-78.189 7.25-77.843 77.987v292.026c-.346 70.736 7.25 77.987 77.843 77.987h196.314C456.75 522 464 514.75 464 444.013V151.987C464 81.25 456.75 74 386.157 74z" style="marker:none" transform="matrix(.1323 0 0 .1323 -4.41 -5.245)" color="#000" overflow="visible" opacity=".3" fill="url(#e)" filter="url(#f)" enable-background="accumulate"/><path style="marker:none" d="M46.674 233.546c9.34 0 10.344.96 10.298 10.317V282.496c.046 9.358-.959 10.317-10.298 10.317h-25.97c-9.34 0-10.298-.96-10.298-10.317V243.863c0-9.358.959-10.317 10.298-10.317z" color="#000" overflow="visible" fill="url(#g)" enable-background="accumulate" transform="translate(0 -229.267)"/><path style="marker:none" d="M41.099 63.546l15.875-15.875v5.95c-.014 8.994-1.006 9.925-10.1 9.925z" color="#000" overflow="visible" opacity=".08" fill="#fff" enable-background="accumulate"/><path style="marker:none" d="M10.407 52.7v.529c-.046 9.358.96 10.317 10.298 10.317h25.97c9.34 0 10.056-.962 10.299-10.317v-.53c-.243 9.356-.96 10.318-10.298 10.318h-25.97c-9.34 0-10.345-.96-10.299-10.317z" color="#000" overflow="visible" opacity=".2" enable-background="accumulate"/><path style="marker:none" d="M20.705 4.28c-9.339 0-10.344.959-10.298 10.317v.529c-.046-9.358.96-10.317 10.298-10.317h25.97c9.34 0 10.299.959 10.299 10.317v-.53c0-9.357-.96-10.316-10.298-10.316z" color="#000" overflow="visible" opacity=".4" fill="#fff" enable-background="accumulate"/><path d="M33.559 19.99c-5.074.896-10.153 1.766-15.227 2.649-.003 7.716-.003 15.432 0 23.148 5.047.886 10.1 1.73 15.144 2.646h2.047v-3.308c2.319-.007 4.634.01 6.952.003.672-.02 1.591.017 1.872-.757.235-1.495.056-3.026.106-4.534 1.032-.03 2.11.132 3.112-.195.202-.576.192-1.198.205-1.8-.02-4.517-.013-9.038-.003-13.556-.023-.5 0-1.019-.175-1.492-.615-.697-1.66-.426-2.477-.499-2.07.086-4.158-.132-6.215.11-1.488.482-.955 2.357-1.048 3.538h-2.329V19.99zm8.634 3.294c1.524-.008 3.052.046 4.575.013V38.51h-2.315c-.006-3.975.01-7.947-.007-11.922-1.554-1.23-3.64-1.743-4.994-3.192a32.99 32.99 0 0 1 2.74-.112zm-6.67 3.65h7.607v17.199h-7.607c-.003-.662-.003-1.323 0-1.985h5.623c-.003-.44-.003-.883 0-1.323h-5.623c-.003-.552-.003-1.1 0-1.653h5.623c-.003-.44-.003-.883 0-1.323h-5.623c-.003-.552-.003-1.101 0-1.654h5.623c-.003-.44-.003-.883 0-1.323h-5.623a138.11 138.11 0 0 1 0-1.653h5.623v-4.63h-5.623a138.11 138.11 0 0 1 0-1.654zm-9.047 1.636c.96-.02 1.88.122 2.628.799 1.419 1.736 1.039 4.905-1.075 5.94-.75.384-1.61.334-2.424.3a765.041 765.041 0 0 0-.003 3.894c-.669-.067-1.337-.133-2.001-.206.033-3.519.003-7.034.016-10.553.901.028 1.9-.154 2.859-.174zm-.097 1.918c-.263-.007-.532.018-.777.032-.007 1.108-.017 2.216.05 3.32.66-.076 1.507-.01 1.891-.688.308-.664.334-1.508-.03-2.156-.273-.395-.695-.496-1.134-.508z" fill="#fff"/><path style="marker:none" d="M33.69 4.28v59.266h12.986c9.339 0 10.055-.962 10.298-10.317V14.597c0-9.358-.96-10.317-10.298-10.317z" color="#000" overflow="visible" opacity=".08" fill="#fff" enable-background="accumulate"/><path style="marker:none" d="M10.407 33.913v19.316c-.046 9.358.96 10.317 10.298 10.317h25.97c9.34 0 10.056-.962 10.299-10.317V33.913z" color="#000" overflow="visible" opacity=".08" fill="#fff" enable-background="accumulate"/></svg>