<svg xmlns="http://www.w3.org/2000/svg" xmlns:xlink="http://www.w3.org/1999/xlink" width="256" height="256" viewBox="0 0 67.733 67.733"><defs><linearGradient id="a"><stop offset="0" stop-color="#919caf"/><stop offset=".262" stop-color="#68758e"/><stop offset=".705" stop-color="#485a6c"/><stop offset="1" stop-color="#444c5c"/></linearGradient><linearGradient id="b"><stop offset="0" stop-color="#3b3b3b"/><stop offset="1" stop-color="#fff"/></linearGradient><linearGradient gradientUnits="userSpaceOnUse" y2="119.093" x2="-35.31" y1="401.584" x1="529.655" id="h" xlink:href="#c" gradientTransform="matrix(0 -.11989 .11989 0 .363 292.548)"/><linearGradient id="c"><stop offset="0" stop-color="#f2f2f2"/><stop offset="1" stop-color="#f9f9f9"/></linearGradient><linearGradient xlink:href="#d" id="f" x1="88" y1="88" x2="488" y2="488" gradientUnits="userSpaceOnUse"/><linearGradient id="d"><stop offset="0" stop-opacity=".588"/><stop offset=".88" stop-opacity="0"/><stop offset="1"/></linearGradient><filter id="g" x="-.053" width="1.106" y="-.044" height="1.088" color-interpolation-filters="sRGB"><feGaussianBlur stdDeviation="8.48"/></filter><filter id="e" x="-.013" width="1.026" y="-.011" height="1.022" color-interpolation-filters="sRGB"><feGaussianBlur stdDeviation="2.12"/></filter></defs><path d="M20.705 4.015c-9.339 0-10.344.96-10.298 10.317V52.965c-.046 9.357.96 10.317 10.298 10.317h25.97c9.34 0 10.299-.96 10.299-10.317V14.332c0-9.358-.96-10.317-10.298-10.317z" style="marker:none" color="#000" overflow="visible" opacity=".2" fill="none" stroke="#000" stroke-width="1.058" enable-background="accumulate"/><path style="marker:none" d="M189.843 74c-70.593 0-78.189 7.25-77.843 77.987v292.026c-.346 70.736 7.25 77.987 77.843 77.987h196.314c70.593 0 76.006-7.274 77.843-77.987V151.987C464 81.25 456.75 74 386.157 74z" transform="matrix(.1323 0 0 .1323 -4.41 -5.51)" color="#000" overflow="visible" opacity=".1" filter="url(#e)" enable-background="accumulate"/><path d="M189.843 74c-70.593 0-78.189 7.25-77.843 77.987v292.026c-.346 70.736 7.25 77.987 77.843 77.987h196.314C456.75 522 464 514.75 464 444.013V151.987C464 81.25 456.75 74 386.157 74z" style="marker:none" transform="matrix(.1323 0 0 .1323 -4.41 -5.51)" color="#000" overflow="visible" opacity=".3" fill="url(#f)" filter="url(#g)" enable-background="accumulate"/><path style="marker:none" d="M20.705 233.282c-9.339 0-10.344.959-10.298 10.317V281.967c-.046 9.358.96 10.222 10.298 10.317l25.97.264c9.34.095 10.299-.959 10.299-10.317V243.6c0-9.358-.96-10.317-10.298-10.317z" color="#000" overflow="visible" fill="url(#h)" enable-background="accumulate" transform="translate(0 -229.267)"/><path style="marker:none" d="M20.705 4.015c-9.339 0-10.344.96-10.298 10.317v.53c-.046-9.358.96-10.318 10.298-10.318h25.97c9.34 0 10.299.96 10.299 10.317v-.529c0-9.358-.96-10.317-10.298-10.317z" color="#000" overflow="visible" opacity=".6" fill="#fff" enable-background="accumulate"/><path d="M19.932 18.834v2.117h1.587c.735 0 1.335-.049 1.919.139.584.187 1.054.698 1.293 1.461.48 1.527.49 4.274.492 10.055-.001 2.2-.015 3.856-.047 5.278h.024l-.008.538c-.036 2.249-.101 4.53-.23 5.314-.13.784-.397 1.196-.648 1.486-.284.327-.618.618-1.065.809-.447.19-.982.284-1.704.32-.745.036-1.235.01-1.613 0v2.117h14.817V46.35c-.386.009-.9.03-1.61 0-1.32-.056-2.078-.459-2.663-1.044-.394-.394-.669-.929-.804-1.774-.135-.846-.183-3.113-.215-5.11v-3.714h1.587c2.168 0 3.945.479 4.96 1.799l.035.046.025.053c.694 1.485.765 3.066.777 4.452h2.141V27.301h-2.117l-.001.611c-.001 1.632-.59 2.881-1.644 3.64-1.053.76-2.572 1.575-4.176 1.04h-1.587V20.951h4.762c4.202 0 5.998-.03 7.148.642l.046.026.04.036c1.352 1.206 2.082 2.5 2.445 3.877.32 1.218.357 2.507.364 3.885h2.128V18.834z" fill="#aea795" enable-background="new"/><path style="marker:none" d="M33.69 4.015v59.267h12.986c9.339 0 10.055-.963 10.298-10.317V14.332c0-9.358-.96-10.317-10.298-10.317z" color="#000" overflow="visible" opacity=".1" fill="#fff" enable-background="accumulate"/><path style="marker:none" d="M10.407 33.648v19.317c-.046 9.358.96 10.317 10.298 10.317h25.97c9.34 0 10.056-.963 10.299-10.317V33.648z" color="#000" overflow="visible" opacity=".2" fill="#fff" enable-background="accumulate"/><path style="marker:none" d="M41.099 63.282l15.875-15.875v5.949c-.014 8.994-1.006 9.926-10.1 9.926z" color="#000" overflow="visible" opacity=".4" fill="#fff" enable-background="accumulate"/></svg>