<svg xmlns="http://www.w3.org/2000/svg" xmlns:xlink="http://www.w3.org/1999/xlink" width="256" height="256" viewBox="0 0 67.733 67.733"><defs><linearGradient gradientUnits="userSpaceOnUse" y2="119.093" x2="-35.31" y1="401.584" x1="529.655" id="f" xlink:href="#a" gradientTransform="matrix(0 -.11989 .11989 0 .363 292.548)"/><linearGradient id="a"><stop offset="0" stop-color="#f2f2f2"/><stop offset="1" stop-color="#f9f9f9"/></linearGradient><linearGradient xlink:href="#b" id="d" x1="88" y1="88" x2="488" y2="488" gradientUnits="userSpaceOnUse"/><linearGradient id="b"><stop offset="0" stop-opacity=".588"/><stop offset=".88" stop-opacity="0"/><stop offset="1"/></linearGradient><filter id="e" x="-.053" width="1.106" y="-.044" height="1.088" color-interpolation-filters="sRGB"><feGaussianBlur stdDeviation="8.48"/></filter><filter id="c" x="-.013" width="1.026" y="-.011" height="1.022" color-interpolation-filters="sRGB"><feGaussianBlur stdDeviation="2.12"/></filter></defs><path d="M20.705 4.015c-9.339 0-10.344.96-10.298 10.317V52.965c-.046 9.357.96 10.317 10.298 10.317h25.97c9.34 0 10.299-.96 10.299-10.317V14.332c0-9.358-.96-10.317-10.298-10.317z" style="marker:none" color="#000" overflow="visible" opacity=".2" fill="none" stroke="#000" stroke-width="1.058" enable-background="accumulate"/><path style="marker:none" d="M189.843 74c-70.593 0-78.189 7.25-77.843 77.987v292.026c-.346 70.736 7.25 77.987 77.843 77.987h196.314c70.593 0 76.006-7.274 77.843-77.987V151.987C464 81.25 456.75 74 386.157 74z" transform="matrix(.1323 0 0 .1323 -4.41 -5.51)" color="#000" overflow="visible" opacity=".1" filter="url(#c)" enable-background="accumulate"/><path d="M189.843 74c-70.593 0-78.189 7.25-77.843 77.987v292.026c-.346 70.736 7.25 77.987 77.843 77.987h196.314C456.75 522 464 514.75 464 444.013V151.987C464 81.25 456.75 74 386.157 74z" style="marker:none" transform="matrix(.1323 0 0 .1323 -4.41 -5.51)" color="#000" overflow="visible" opacity=".3" fill="url(#d)" filter="url(#e)" enable-background="accumulate"/><path style="marker:none" d="M20.705 233.282c-9.339 0-10.344.959-10.298 10.317v38.632c-.046 9.358.96 10.317 10.298 10.317h25.97c9.34 0 10.299-.959 10.299-10.317V243.6c0-9.358-.96-10.317-10.298-10.317z" color="#000" overflow="visible" fill="url(#f)" enable-background="accumulate" transform="translate(0 -229.267)"/><path style="marker:none" d="M20.705 4.015c-9.339 0-10.344.96-10.298 10.317v.53c-.046-9.358.96-10.318 10.298-10.318h25.97c9.34 0 10.299.96 10.299 10.317v-.529c0-9.358-.96-10.317-10.298-10.317z" color="#000" overflow="visible" opacity=".6" fill="#fff" enable-background="accumulate"/><g transform="matrix(.03208 0 0 .03208 18.498 18.46)" enable-background="new"><path d="M877.794 267.488a453.73 453.73 0 0 1 35.499 317.671 453.638 453.638 0 0 1-182.741 262.215 453.42 453.42 0 0 1-310.237 76.577c-109.281-12.964-210.141-65.22-283.795-147.017-152.352-169.197-155.81-425.03-7.983-598.14 141.02-165.138 378.02-206.176 565.325-101.96a458.264 458.264 0 0 1 26.771 16.117" fill="none" stroke="#888" stroke-width="16.496" stroke-dasharray="62.038"/><circle r="362.919" cx="473.602" cy="473.461" fill="#1a7fd4"/><circle r="82.482" cx="622.069" cy="324.994" fill="#fff"/><circle r="82.482" cx="820.024" cy="127.039" fill="#1a7fd4"/></g><path style="marker:none" d="M33.69 4.015v59.267h12.986c9.339 0 10.055-.963 10.298-10.317V14.332c0-9.358-.96-10.317-10.298-10.317z" color="#000" overflow="visible" opacity=".1" fill="#fff" enable-background="accumulate"/><path style="marker:none" d="M10.407 33.648v19.317c-.046 9.358.96 10.317 10.298 10.317h25.97c9.34 0 10.056-.963 10.299-10.317V33.648z" color="#000" overflow="visible" opacity=".2" fill="#fff" enable-background="accumulate"/><path style="marker:none" d="M41.099 63.282l15.875-15.875v5.949c-.014 8.994-1.006 9.926-10.1 9.926z" color="#000" overflow="visible" opacity=".4" fill="#fff" enable-background="accumulate"/></svg>