<svg xmlns="http://www.w3.org/2000/svg" xmlns:xlink="http://www.w3.org/1999/xlink" width="256" height="256" viewBox="0 0 67.733 67.733"><defs><linearGradient id="a"><stop offset="0" stop-color="#919caf"/><stop offset=".262" stop-color="#68758e"/><stop offset=".705" stop-color="#485a6c"/><stop offset="1" stop-color="#444c5c"/></linearGradient><linearGradient id="b"><stop offset="0" stop-color="#3b3b3b"/><stop offset="1" stop-color="#fff"/></linearGradient><linearGradient gradientUnits="userSpaceOnUse" y2="119.093" x2="-35.31" y1="401.584" x1="529.655" id="h" xlink:href="#c" gradientTransform="matrix(0 -.11989 .11989 0 .363 292.548)"/><linearGradient id="c"><stop offset="0" stop-color="#f2f2f2"/><stop offset="1" stop-color="#f9f9f9"/></linearGradient><linearGradient xlink:href="#d" id="f" x1="88" y1="88" x2="488" y2="488" gradientUnits="userSpaceOnUse"/><linearGradient id="d"><stop offset="0" stop-opacity=".588"/><stop offset=".88" stop-opacity="0"/><stop offset="1"/></linearGradient><filter id="g" x="-.053" width="1.106" y="-.044" height="1.088" color-interpolation-filters="sRGB"><feGaussianBlur stdDeviation="8.48"/></filter><filter id="e" x="-.013" width="1.026" y="-.011" height="1.022" color-interpolation-filters="sRGB"><feGaussianBlur stdDeviation="2.12"/></filter></defs><path d="M20.705 4.015c-9.339 0-10.344.96-10.298 10.317V52.965c-.046 9.357.96 10.317 10.298 10.317h25.97c9.34 0 10.299-.96 10.299-10.317V14.332c0-9.358-.96-10.317-10.298-10.317z" style="marker:none" color="#000" overflow="visible" opacity=".2" fill="none" stroke="#000" stroke-width="1.058" enable-background="accumulate"/><path style="marker:none" d="M189.843 74c-70.593 0-78.189 7.25-77.843 77.987v292.026c-.346 70.736 7.25 77.987 77.843 77.987h196.314c70.593 0 76.006-7.274 77.843-77.987V151.987C464 81.25 456.75 74 386.157 74z" transform="matrix(.1323 0 0 .1323 -4.41 -5.51)" color="#000" overflow="visible" opacity=".1" filter="url(#e)" enable-background="accumulate"/><path d="M189.843 74c-70.593 0-78.189 7.25-77.843 77.987v292.026c-.346 70.736 7.25 77.987 77.843 77.987h196.314C456.75 522 464 514.75 464 444.013V151.987C464 81.25 456.75 74 386.157 74z" style="marker:none" transform="matrix(.1323 0 0 .1323 -4.41 -5.51)" color="#000" overflow="visible" opacity=".3" fill="url(#f)" filter="url(#g)" enable-background="accumulate"/><path style="marker:none" d="M20.705 233.282c-9.339 0-10.344.959-10.298 10.317V281.967c-.046 9.358.96 10.222 10.298 10.317l25.97.264c9.34.095 10.299-.959 10.299-10.317V243.6c0-9.358-.96-10.317-10.298-10.317z" color="#000" overflow="visible" fill="url(#h)" enable-background="accumulate" transform="translate(0 -229.267)"/><path style="marker:none" d="M20.705 4.015c-9.339 0-10.344.96-10.298 10.317v.53c-.046-9.358.96-10.318 10.298-10.318h25.97c9.34 0 10.299.96 10.299 10.317v-.529c0-9.358-.96-10.317-10.298-10.317z" color="#000" overflow="visible" opacity=".6" fill="#fff" enable-background="accumulate"/><path style="line-height:1000%;-inkscape-font-specification:Ubuntu;text-align:center" d="M26.591 16.715c-.837.008-1.549.104-2.13.292-.59.18-1.066.45-1.427.812-.36.344-.615.78-.763 1.304-.148.525-.221 1.124-.221 1.796v9.457c0 .295-.05.59-.148.885a2.051 2.051 0 0 1-.418.763c-.18.213-.41.394-.69.541a2.254 2.254 0 0 1-.862.19v1.786c.33.017.62.086.862.214.28.131.51.312.69.542.197.213.336.467.418.763.098.278.148.566.148.861v9.456c0 .672.073 1.272.22 1.797.149.524.403.967.764 1.328.361.36.836.632 1.427.812.581.173 1.293.26 2.13.268h.75v-1.8h-.75c-.826-.023-1.431-.193-1.81-.51-.394-.329-.59-.968-.59-1.92v-8.816c0-1.083-.148-1.92-.444-2.51a3.187 3.187 0 0 0-1.205-1.378 3.188 3.188 0 0 0 1.205-1.378c.296-.59.443-1.427.443-2.51v-8.816c0-.952.197-1.591.59-1.92.38-.317.985-.487 1.811-.511h.75v-1.798zM40.04 16.715v1.798h.75c.826.024 1.431.194 1.81.512.394.328.59.967.59 1.919v8.816c0 1.083.148 1.92.443 2.51.28.59.681 1.05 1.206 1.378a3.187 3.187 0 0 0-1.206 1.378c-.295.59-.442 1.427-.442 2.51v8.816c0 .952-.197 1.591-.591 1.92-.379.317-.984.486-1.81.51h-.75v1.8h.75c.836-.007 1.549-.095 2.13-.268.59-.18 1.066-.451 1.427-.812.36-.361.615-.804.763-1.328.147-.525.221-1.125.221-1.797V36.92c0-.295.05-.583.148-.861.082-.296.221-.55.418-.763.18-.23.41-.41.69-.542.242-.128.531-.197.862-.214v-1.785a2.254 2.254 0 0 1-.863-.19 2.297 2.297 0 0 1-.69-.542 2.051 2.051 0 0 1-.417-.763 2.787 2.787 0 0 1-.148-.885v-9.457c0-.672-.074-1.271-.221-1.796a2.816 2.816 0 0 0-.763-1.304c-.361-.361-.837-.632-1.427-.812-.581-.188-1.294-.284-2.13-.292z" font-weight="400" font-family="Ubuntu" letter-spacing="0" word-spacing="0" text-anchor="middle" fill="#5884f4" enable-background="new"/><path style="marker:none" d="M33.69 4.015v59.267h12.986c9.339 0 10.055-.963 10.298-10.317V14.332c0-9.358-.96-10.317-10.298-10.317z" color="#000" overflow="visible" opacity=".1" fill="#fff" enable-background="accumulate"/><path style="marker:none" d="M10.407 33.648v19.317c-.046 9.358.96 10.317 10.298 10.317h25.97c9.34 0 10.056-.963 10.299-10.317V33.648z" color="#000" overflow="visible" opacity=".2" fill="#fff" enable-background="accumulate"/><path style="marker:none" d="M41.099 63.282l15.875-15.875v5.949c-.014 8.994-1.006 9.926-10.1 9.926z" color="#000" overflow="visible" opacity=".4" fill="#fff" enable-background="accumulate"/></svg>