<svg xmlns="http://www.w3.org/2000/svg" style="isolation:isolate" width="256" height="256" viewBox="0 0 256 256">
 <defs>
  <clipPath id="_clipPath_4Q2CZvke5Ra54jMlRlSjiNZ6hd33f7af">
   <rect width="256" height="256"/>
  </clipPath>
 </defs>
 <g clip-path="url(#_clipPath_4Q2CZvke5Ra54jMlRlSjiNZ6hd33f7af)">
  <defs>
   <filter id="k1DIQsY17AFflBe2i5wz18cgalpzk2cJ" width="400%" height="400%" x="-200%" y="-200%" color-interpolation-filters="sRGB" filterUnits="objectBoundingBox">
    <feGaussianBlur xmlns="http://www.w3.org/2000/svg" in="SourceGraphic" stdDeviation="4.294"/>
    <feOffset xmlns="http://www.w3.org/2000/svg" dx="0" dy="4" result="pf_100_offsetBlur"/>
    <feFlood xmlns="http://www.w3.org/2000/svg" flood-opacity=".4"/>
    <feComposite xmlns="http://www.w3.org/2000/svg" in2="pf_100_offsetBlur" operator="in" result="pf_100_dropShadow"/>
    <feBlend xmlns="http://www.w3.org/2000/svg" in="SourceGraphic" in2="pf_100_dropShadow" mode="normal"/>
   </filter>
  </defs>
  <g filter="url(#k1DIQsY17AFflBe2i5wz18cgalpzk2cJ)">
   <linearGradient id="_lgradient_40" x1=".5" x2=".5" y1="0" y2="1" gradientTransform="matrix(244.648,0,0,228.338,5.68,11.95)" gradientUnits="userSpaceOnUse">
    <stop offset="0%" style="stop-color:rgb(26,214,171)"/>
    <stop offset="100%" style="stop-color:rgb(50,157,182)"/>
   </linearGradient>
   <path fill="url(#_lgradient_40)" d="M 165.689 11.95 C 239.745 11.95 250.328 22.507 250.328 96.494 L 250.328 155.745 C 250.328 229.731 239.745 240.288 165.689 240.288 L 90.319 240.288 C 16.264 240.288 5.68 229.731 5.68 155.745 L 5.68 96.494 C 5.68 22.507 16.264 11.95 90.319 11.95 L 165.689 11.95 Z"/>
  </g>
  <g opacity=".4">
   <linearGradient id="_lgradient_41" x1=".517" x2=".517" y1="0" y2="1" gradientTransform="matrix(244.65,0,0,228.34,5.68,11.95)" gradientUnits="userSpaceOnUse">
    <stop offset="0%" style="stop-color:rgb(255,255,255)"/>
    <stop offset="12.5%" stop-opacity=".098" style="stop-color:rgb(255,255,255)"/>
    <stop offset="92.5%" stop-opacity=".098" style="stop-color:rgb(0,0,0)"/>
    <stop offset="100%" stop-opacity=".498" style="stop-color:rgb(0,0,0)"/>
   </linearGradient>
   <path fill="url(#_lgradient_41)" fill-rule="evenodd" d="M 165.068 11.951 C 169.396 11.941 173.724 11.991 178.052 12.089 C 181.927 12.167 185.803 12.315 189.678 12.541 C 193.131 12.737 196.583 13.022 200.026 13.395 C 203.085 13.73 206.144 14.181 209.174 14.741 C 211.889 15.243 214.574 15.881 217.22 16.657 C 219.62 17.355 221.971 18.219 224.243 19.241 C 226.358 20.184 228.384 21.304 230.302 22.591 C 232.142 23.829 233.863 25.244 235.437 26.806 C 237.001 28.378 238.417 30.088 239.656 31.925 C 240.945 33.841 242.066 35.865 243.02 37.967 C 244.043 40.247 244.909 42.585 245.617 44.972 C 246.394 47.615 247.034 50.297 247.535 53.009 C 248.096 56.035 248.548 59.081 248.883 62.136 C 249.257 65.575 249.542 69.014 249.739 72.462 C 249.965 76.323 250.112 80.194 250.201 84.055 C 250.289 88.378 250.339 92.701 250.329 97.014 L 250.329 155.226 C 250.339 159.549 250.289 163.862 250.201 168.185 C 250.112 172.056 249.965 175.917 249.739 179.778 C 249.542 183.226 249.257 186.675 248.883 190.104 C 248.548 193.159 248.096 196.215 247.535 199.241 C 247.034 201.943 246.394 204.625 245.617 207.268 C 244.909 209.655 244.043 212.003 243.02 214.273 C 242.066 216.385 240.945 218.399 239.656 220.315 C 238.417 222.152 237.001 223.872 235.437 225.434 C 233.863 226.996 232.142 228.411 230.302 229.649 C 228.384 230.936 226.358 232.056 224.243 232.999 C 221.971 234.021 219.62 234.885 217.22 235.593 C 214.574 236.369 211.889 237.007 209.174 237.499 C 206.144 238.068 203.085 238.51 200.026 238.845 C 196.583 239.218 193.131 239.503 189.678 239.699 C 185.803 239.925 181.927 240.073 178.052 240.161 C 173.724 240.249 169.396 240.299 165.068 240.289 L 90.942 240.289 C 86.614 240.299 82.286 240.249 77.958 240.161 C 74.083 240.073 70.207 239.925 66.332 239.699 C 62.879 239.503 59.427 239.218 55.984 238.845 C 52.925 238.51 49.866 238.068 46.836 237.499 C 44.121 237.007 41.436 236.369 38.79 235.593 C 36.39 234.885 34.039 234.021 31.767 232.999 C 29.652 232.056 27.626 230.936 25.708 229.649 C 23.868 228.411 22.147 226.996 20.573 225.434 C 19.009 223.872 17.593 222.152 16.354 220.315 C 15.065 218.399 13.944 216.385 12.99 214.273 C 11.967 212.003 11.101 209.655 10.393 207.268 C 9.616 204.625 8.976 201.943 8.475 199.241 C 7.914 196.215 7.462 193.159 7.127 190.104 C 6.753 186.675 6.468 183.226 6.271 179.778 C 6.045 175.917 5.898 172.056 5.809 168.185 C 5.721 163.862 5.671 159.549 5.681 155.226 L 5.681 97.014 C 5.671 92.701 5.721 88.378 5.809 84.055 C 5.898 80.194 6.045 76.323 6.271 72.462 C 6.468 69.014 6.753 65.575 7.127 62.136 C 7.462 59.081 7.914 56.035 8.475 53.009 C 8.976 50.297 9.616 47.615 10.393 44.972 C 11.101 42.585 11.967 40.247 12.99 37.967 C 13.944 35.865 15.065 33.841 16.354 31.925 C 17.593 30.088 19.009 28.378 20.573 26.806 C 22.147 25.244 23.868 23.829 25.708 22.591 C 27.626 21.304 29.652 20.184 31.767 19.241 C 34.039 18.219 36.39 17.355 38.79 16.657 C 41.436 15.881 44.121 15.243 46.836 14.741 C 49.866 14.181 52.925 13.73 55.984 13.395 C 59.427 13.022 62.879 12.737 66.332 12.541 C 70.207 12.315 74.083 12.167 77.958 12.089 C 82.286 11.991 86.614 11.941 90.942 11.951 L 165.068 11.951 Z M 165.078 15.96 C 169.376 15.95 173.675 15.999 177.973 16.087 C 181.8 16.176 185.626 16.323 189.452 16.539 C 192.836 16.736 196.219 17.011 199.583 17.384 C 202.554 17.699 205.515 18.131 208.446 18.681 C 211.023 19.153 213.58 19.762 216.099 20.499 C 218.322 21.147 220.495 21.953 222.6 22.896 C 224.509 23.751 226.338 24.763 228.069 25.922 C 229.692 27.013 231.207 28.26 232.594 29.646 C 233.981 31.031 235.23 32.544 236.332 34.165 C 237.492 35.894 238.506 37.712 239.361 39.608 C 240.306 41.72 241.112 43.892 241.761 46.102 C 242.509 48.617 243.109 51.162 243.591 53.736 C 244.132 56.664 244.565 59.611 244.889 62.578 C 245.263 65.938 245.539 69.308 245.735 72.688 C 245.952 76.51 246.109 80.322 246.188 84.144 C 246.276 88.437 246.325 92.721 246.325 97.014 C 246.325 97.014 246.325 97.014 246.325 97.014 L 246.325 155.226 C 246.325 155.226 246.325 155.226 246.325 155.226 C 246.325 159.519 246.276 163.803 246.188 168.096 C 246.109 171.918 245.952 175.74 245.735 179.552 C 245.539 182.932 245.263 186.302 244.889 189.672 C 244.565 192.629 244.132 195.576 243.591 198.504 C 243.109 201.078 242.509 203.623 241.761 206.138 C 241.112 208.358 240.306 210.52 239.361 212.632 C 238.506 214.528 237.492 216.356 236.332 218.075 C 235.23 219.706 233.981 221.219 232.594 222.604 C 231.207 223.98 229.692 225.227 228.069 226.318 C 226.338 227.477 224.509 228.489 222.6 229.344 C 220.495 230.297 218.322 231.093 216.099 231.741 C 213.58 232.478 211.023 233.087 208.446 233.559 C 205.515 234.109 202.554 234.541 199.583 234.865 C 196.219 235.229 192.836 235.514 189.452 235.701 C 185.626 235.917 181.8 236.074 177.973 236.153 C 173.675 236.251 169.376 236.29 165.078 236.29 C 165.078 236.29 165.078 236.29 165.068 236.29 L 90.942 236.29 C 90.932 236.29 90.932 236.29 90.932 236.29 C 86.634 236.29 82.335 236.251 78.037 236.153 C 74.21 236.074 70.384 235.917 66.558 235.701 C 63.174 235.514 59.791 235.229 56.427 234.865 C 53.456 234.541 50.495 234.109 47.564 233.559 C 44.987 233.087 42.43 232.478 39.911 231.741 C 37.688 231.093 35.515 230.297 33.41 229.344 C 31.501 228.489 29.672 227.477 27.941 226.318 C 26.318 225.227 24.803 223.98 23.416 222.604 C 22.029 221.219 20.78 219.706 19.678 218.075 C 18.518 216.356 17.504 214.528 16.649 212.632 C 15.704 210.52 14.898 208.358 14.249 206.138 C 13.501 203.623 12.901 201.078 12.419 198.504 C 11.878 195.576 11.445 192.629 11.121 189.672 C 10.747 186.302 10.472 182.932 10.275 179.552 C 10.058 175.74 9.901 171.918 9.822 168.096 C 9.734 163.803 9.685 159.519 9.685 155.226 C 9.685 155.226 9.685 155.226 9.685 155.226 L 9.685 97.014 C 9.685 97.014 9.685 97.014 9.685 97.014 C 9.685 92.721 9.734 88.437 9.822 84.144 C 9.901 80.322 10.058 76.51 10.275 72.688 C 10.472 69.308 10.747 65.938 11.121 62.578 C 11.445 59.611 11.878 56.664 12.419 53.736 C 12.901 51.162 13.501 48.617 14.249 46.102 C 14.898 43.892 15.704 41.72 16.649 39.608 C 17.504 37.712 18.518 35.894 19.678 34.165 C 20.78 32.544 22.029 31.031 23.416 29.646 C 24.803 28.26 26.318 27.013 27.941 25.922 C 29.672 24.763 31.501 23.751 33.41 22.896 C 35.515 21.953 37.688 21.147 39.911 20.499 C 42.43 19.762 44.987 19.153 47.564 18.681 C 50.495 18.131 53.456 17.699 56.427 17.384 C 59.791 17.011 63.174 16.736 66.558 16.539 C 70.384 16.323 74.21 16.176 78.037 16.087 C 82.335 15.999 86.634 15.95 90.932 15.96 C 90.932 15.96 90.932 15.96 90.942 15.96 L 165.068 15.96 C 165.078 15.96 165.078 15.96 165.078 15.96 Z"/>
  </g>
  <g>
   <g>
    <g opacity=".2">
     <path d="M 200.495 187.786 L 200.495 165.179 C 200.495 158.556 195.118 153.179 188.495 153.179 L 67.495 153.179 C 60.872 153.179 55.495 158.556 55.495 165.179 L 55.495 187.786 C 55.495 194.409 60.872 199.786 67.495 199.786 L 188.495 199.786 C 195.118 199.786 200.495 194.409 200.495 187.786 Z"/>
    </g>
    <linearGradient id="_lgradient_42" x1=".146" x2=".146" y1="1" y2="-.254" gradientTransform="matrix(-145,0,0,46.607,200.495,150.589)" gradientUnits="userSpaceOnUse">
     <stop offset="0%" style="stop-color:rgb(191,193,193)"/>
     <stop offset="100%" style="stop-color:rgb(241,242,243)"/>
    </linearGradient>
    <path fill="url(#_lgradient_42)" d="M 200.495 184.846 L 200.495 162.94 C 200.495 156.124 194.961 150.589 188.144 150.589 L 67.846 150.589 C 61.029 150.589 55.495 156.124 55.495 162.94 L 55.495 184.846 C 55.495 191.662 61.029 197.196 67.846 197.196 L 188.144 197.196 C 194.961 197.196 200.495 191.662 200.495 184.846 Z"/>
    <g opacity=".2">
     <circle cx="186.254" cy="167.42" r="6.473" vector-effect="non-scaling-stroke"/>
    </g>
    <g opacity=".2">
     <circle cx="166.254" cy="167.42" r="6.473" vector-effect="non-scaling-stroke"/>
    </g>
    <g opacity=".2">
     <circle cx="146.254" cy="167.42" r="6.473" vector-effect="non-scaling-stroke"/>
    </g>
    <linearGradient id="_lgradient_43" x1="0" x2="0" y1="0" y2="1" gradientTransform="matrix(-12.946,0,0,12.946,192.727,158.357)" gradientUnits="userSpaceOnUse">
     <stop offset="0%" style="stop-color:rgb(255,208,87)"/>
     <stop offset="50%" style="stop-color:rgb(255,168,81)"/>
     <stop offset="100%" style="stop-color:rgb(245,130,15)"/>
    </linearGradient>
    <circle fill="url(#_lgradient_43)" cx="186.254" cy="164.83" r="6.473" vector-effect="non-scaling-stroke"/>
    <linearGradient id="_lgradient_44" x1="0" x2="0" y1="0" y2="1" gradientTransform="matrix(-12.946,0,0,12.946,172.727,158.357)" gradientUnits="userSpaceOnUse">
     <stop offset="0%" style="stop-color:rgb(255,236,87)"/>
     <stop offset="50%" style="stop-color:rgb(255,197,81)"/>
     <stop offset="100%" style="stop-color:rgb(245,169,15)"/>
    </linearGradient>
    <circle fill="url(#_lgradient_44)" cx="166.254" cy="164.83" r="6.473" vector-effect="non-scaling-stroke"/>
    <linearGradient id="_lgradient_45" x1=".5" x2=".5" y1="0" y2="1" gradientTransform="matrix(-12.946,0,0,12.946,152.727,158.357)" gradientUnits="userSpaceOnUse">
     <stop offset="0%" style="stop-color:rgb(26,214,171)"/>
     <stop offset="100%" style="stop-color:rgb(50,157,182)"/>
    </linearGradient>
    <circle fill="url(#_lgradient_45)" cx="146.254" cy="164.83" r="6.473" vector-effect="non-scaling-stroke"/>
    <g opacity=".5">
     <linearGradient id="_lgradient_46" x1="0" x2="0" y1="0" y2="1" gradientTransform="matrix(59.97,0,0,18.535,64.35,164.625)" gradientUnits="userSpaceOnUse">
      <stop offset="0%" style="stop-color:rgb(76,85,97)"/>
      <stop offset="100%" style="stop-color:rgb(46,56,66)"/>
     </linearGradient>
     <path fill="url(#_lgradient_46)" fill-rule="evenodd" d="M 106.03 165.29 L 95.68 180.83 C 95.45 181.16 95.37 181.56 95.45 181.95 C 95.53 182.34 95.76 182.69 96.09 182.91 C 96.42 183.13 96.83 183.21 97.22 183.13 C 97.61 183.05 97.95 182.82 98.17 182.49 L 108.53 166.96 C 108.75 166.63 108.83 166.22 108.75 165.83 C 108.67 165.44 108.44 165.1 108.11 164.88 C 107.78 164.66 107.38 164.58 106.99 164.65 C 106.6 164.73 106.25 164.96 106.03 165.29 L 106.03 165.29 L 106.03 165.29 Z M 82.64 182.49 L 92.99 166.96 C 93.21 166.63 93.29 166.22 93.22 165.83 C 93.14 165.44 92.91 165.1 92.58 164.88 C 92.25 164.66 91.84 164.58 91.45 164.65 C 91.06 164.73 90.72 164.96 90.5 165.29 L 80.14 180.83 C 79.92 181.16 79.84 181.56 79.92 181.95 C 79.99 182.34 80.22 182.69 80.56 182.91 C 80.89 183.13 81.29 183.21 81.68 183.13 C 82.07 183.05 82.42 182.82 82.64 182.49 L 82.64 182.49 L 82.64 182.49 Z M 67.1 182.49 L 77.46 166.96 C 77.68 166.63 77.76 166.22 77.68 165.83 C 77.6 165.44 77.37 165.1 77.04 164.88 C 76.71 164.66 76.31 164.58 75.92 164.65 C 75.53 164.73 75.18 164.96 74.96 165.29 L 64.6 180.83 C 64.38 181.16 64.3 181.56 64.38 181.95 C 64.46 182.34 64.69 182.69 65.02 182.91 C 65.35 183.13 65.76 183.21 66.15 183.13 C 66.54 183.05 66.88 182.82 67.1 182.49 L 67.1 182.49 Z M 113.71 182.49 L 124.06 166.96 C 124.29 166.63 124.37 166.22 124.29 165.83 C 124.21 165.44 123.98 165.1 123.65 164.88 C 123.32 164.66 122.91 164.58 122.52 164.65 C 122.13 164.73 121.79 164.96 121.57 165.29 L 111.21 180.83 C 110.99 181.16 110.91 181.56 110.99 181.95 C 111.07 182.34 111.3 182.69 111.63 182.91 C 111.96 183.13 112.36 183.21 112.75 183.13 C 113.14 183.05 113.49 182.82 113.71 182.49 Z"/>
    </g>
   </g>
   <g>
    <g opacity=".2">
     <path d="M 200.495 140.786 L 200.495 118.179 C 200.495 111.556 195.118 106.179 188.495 106.179 L 67.495 106.179 C 60.872 106.179 55.495 111.556 55.495 118.179 L 55.495 140.786 C 55.495 147.409 60.872 152.786 67.495 152.786 L 188.495 152.786 C 195.118 152.786 200.495 147.409 200.495 140.786 Z"/>
    </g>
    <linearGradient id="_lgradient_47" x1=".146" x2=".146" y1="1" y2="-.254" gradientTransform="matrix(-145,0,0,46.607,200.495,103.589)" gradientUnits="userSpaceOnUse">
     <stop offset="0%" style="stop-color:rgb(191,193,193)"/>
     <stop offset="100%" style="stop-color:rgb(241,242,243)"/>
    </linearGradient>
    <path fill="url(#_lgradient_47)" d="M 200.495 137.846 L 200.495 115.94 C 200.495 109.124 194.961 103.589 188.144 103.589 L 67.846 103.589 C 61.029 103.589 55.495 109.124 55.495 115.94 L 55.495 137.846 C 55.495 144.662 61.029 150.196 67.846 150.196 L 188.144 150.196 C 194.961 150.196 200.495 144.662 200.495 137.846 Z"/>
    <g opacity=".2">
     <circle cx="186.254" cy="120.42" r="6.473" vector-effect="non-scaling-stroke"/>
    </g>
    <g opacity=".2">
     <circle cx="166.254" cy="120.42" r="6.473" vector-effect="non-scaling-stroke"/>
    </g>
    <linearGradient id="_lgradient_48" x1="0" x2="0" y1="0" y2="1" gradientTransform="matrix(-12.946,0,0,12.946,192.727,111.357)" gradientUnits="userSpaceOnUse">
     <stop offset="0%" style="stop-color:rgb(255,208,87)"/>
     <stop offset="50%" style="stop-color:rgb(255,168,81)"/>
     <stop offset="100%" style="stop-color:rgb(245,130,15)"/>
    </linearGradient>
    <circle fill="url(#_lgradient_48)" cx="186.254" cy="117.83" r="6.473" vector-effect="non-scaling-stroke"/>
    <linearGradient id="_lgradient_49" x1="0" x2="0" y1="0" y2="1" gradientTransform="matrix(-12.946,0,0,12.946,172.727,111.357)" gradientUnits="userSpaceOnUse">
     <stop offset="0%" style="stop-color:rgb(255,236,87)"/>
     <stop offset="50%" style="stop-color:rgb(255,197,81)"/>
     <stop offset="100%" style="stop-color:rgb(245,169,15)"/>
    </linearGradient>
    <circle fill="url(#_lgradient_49)" cx="166.254" cy="117.83" r="6.473" vector-effect="non-scaling-stroke"/>
    <g opacity=".5">
     <linearGradient id="_lgradient_50" x1="0" x2="0" y1="0" y2="1" gradientTransform="matrix(59.97,0,0,18.535,64.35,117.625)" gradientUnits="userSpaceOnUse">
      <stop offset="0%" style="stop-color:rgb(76,85,97)"/>
      <stop offset="100%" style="stop-color:rgb(46,56,66)"/>
     </linearGradient>
     <path fill="url(#_lgradient_50)" fill-rule="evenodd" d="M 106.03 118.29 L 95.68 133.83 C 95.45 134.16 95.37 134.56 95.45 134.95 C 95.53 135.34 95.76 135.69 96.09 135.91 C 96.42 136.13 96.83 136.21 97.22 136.13 C 97.61 136.05 97.95 135.82 98.17 135.49 L 108.53 119.96 C 108.75 119.63 108.83 119.22 108.75 118.83 C 108.67 118.44 108.44 118.1 108.11 117.88 C 107.78 117.66 107.38 117.58 106.99 117.65 C 106.6 117.73 106.25 117.96 106.03 118.29 L 106.03 118.29 L 106.03 118.29 Z M 82.64 135.49 L 92.99 119.96 C 93.21 119.63 93.29 119.22 93.22 118.83 C 93.14 118.44 92.91 118.1 92.58 117.88 C 92.25 117.66 91.84 117.58 91.45 117.65 C 91.06 117.73 90.72 117.96 90.5 118.29 L 80.14 133.83 C 79.92 134.16 79.84 134.56 79.92 134.95 C 79.99 135.34 80.22 135.69 80.56 135.91 C 80.89 136.13 81.29 136.21 81.68 136.13 C 82.07 136.05 82.42 135.82 82.64 135.49 L 82.64 135.49 L 82.64 135.49 Z M 67.1 135.49 L 77.46 119.96 C 77.68 119.63 77.76 119.22 77.68 118.83 C 77.6 118.44 77.37 118.1 77.04 117.88 C 76.71 117.66 76.31 117.58 75.92 117.65 C 75.53 117.73 75.18 117.96 74.96 118.29 L 64.6 133.83 C 64.38 134.16 64.3 134.56 64.38 134.95 C 64.46 135.34 64.69 135.69 65.02 135.91 C 65.35 136.13 65.76 136.21 66.15 136.13 C 66.54 136.05 66.88 135.82 67.1 135.49 L 67.1 135.49 Z M 113.71 135.49 L 124.06 119.96 C 124.29 119.63 124.37 119.22 124.29 118.83 C 124.21 118.44 123.98 118.1 123.65 117.88 C 123.32 117.66 122.91 117.58 122.52 117.65 C 122.13 117.73 121.79 117.96 121.57 118.29 L 111.21 133.83 C 110.99 134.16 110.91 134.56 110.99 134.95 C 111.07 135.34 111.3 135.69 111.63 135.91 C 111.96 136.13 112.36 136.21 112.75 136.13 C 113.14 136.05 113.49 135.82 113.71 135.49 Z"/>
    </g>
   </g>
   <g>
    <g opacity=".2">
     <path d="M 200.495 93.786 L 200.495 71.179 C 200.495 64.556 195.118 59.179 188.495 59.179 L 67.495 59.179 C 60.872 59.179 55.495 64.556 55.495 71.179 L 55.495 93.786 C 55.495 100.409 60.872 105.786 67.495 105.786 L 188.495 105.786 C 195.118 105.786 200.495 100.409 200.495 93.786 Z"/>
    </g>
    <linearGradient id="_lgradient_51" x1=".146" x2=".146" y1="1" y2="-.254" gradientTransform="matrix(-145,0,0,46.607,200.495,56.589)" gradientUnits="userSpaceOnUse">
     <stop offset="0%" style="stop-color:rgb(191,193,193)"/>
     <stop offset="100%" style="stop-color:rgb(241,242,243)"/>
    </linearGradient>
    <path fill="url(#_lgradient_51)" d="M 200.495 90.846 L 200.495 68.94 C 200.495 62.124 194.961 56.589 188.144 56.589 L 67.846 56.589 C 61.029 56.589 55.495 62.124 55.495 68.94 L 55.495 90.846 C 55.495 97.662 61.029 103.196 67.846 103.196 L 188.144 103.196 C 194.961 103.196 200.495 97.662 200.495 90.846 Z"/>
    <g opacity=".2">
     <circle cx="186.254" cy="73.42" r="6.473" vector-effect="non-scaling-stroke"/>
    </g>
    <linearGradient id="_lgradient_52" x1="0" x2="0" y1="0" y2="1" gradientTransform="matrix(-12.946,0,0,12.946,192.727,64.357)" gradientUnits="userSpaceOnUse">
     <stop offset="0%" style="stop-color:rgb(255,208,87)"/>
     <stop offset="50%" style="stop-color:rgb(255,168,81)"/>
     <stop offset="100%" style="stop-color:rgb(245,130,15)"/>
    </linearGradient>
    <circle fill="url(#_lgradient_52)" cx="186.254" cy="70.83" r="6.473" vector-effect="non-scaling-stroke"/>
    <g opacity=".5">
     <linearGradient id="_lgradient_53" x1="0" x2="0" y1="0" y2="1" gradientTransform="matrix(59.97,0,0,18.535,64.35,70.625)" gradientUnits="userSpaceOnUse">
      <stop offset="0%" style="stop-color:rgb(76,85,97)"/>
      <stop offset="100%" style="stop-color:rgb(46,56,66)"/>
     </linearGradient>
     <path fill="url(#_lgradient_53)" fill-rule="evenodd" d="M 106.03 71.29 L 95.68 86.83 C 95.45 87.16 95.37 87.56 95.45 87.95 C 95.53 88.34 95.76 88.69 96.09 88.91 C 96.42 89.13 96.83 89.21 97.22 89.13 C 97.61 89.05 97.95 88.82 98.17 88.49 L 108.53 72.96 C 108.75 72.63 108.83 72.22 108.75 71.83 C 108.67 71.44 108.44 71.1 108.11 70.88 C 107.78 70.66 107.38 70.58 106.99 70.65 C 106.6 70.73 106.25 70.96 106.03 71.29 L 106.03 71.29 L 106.03 71.29 Z M 82.64 88.49 L 92.99 72.96 C 93.21 72.63 93.29 72.22 93.22 71.83 C 93.14 71.44 92.91 71.1 92.58 70.88 C 92.25 70.66 91.84 70.58 91.45 70.65 C 91.06 70.73 90.72 70.96 90.5 71.29 L 80.14 86.83 C 79.92 87.16 79.84 87.56 79.92 87.95 C 79.99 88.34 80.22 88.69 80.56 88.91 C 80.89 89.13 81.29 89.21 81.68 89.13 C 82.07 89.05 82.42 88.82 82.64 88.49 L 82.64 88.49 L 82.64 88.49 Z M 67.1 88.49 L 77.46 72.96 C 77.68 72.63 77.76 72.22 77.68 71.83 C 77.6 71.44 77.37 71.1 77.04 70.88 C 76.71 70.66 76.31 70.58 75.92 70.65 C 75.53 70.73 75.18 70.96 74.96 71.29 L 64.6 86.83 C 64.38 87.16 64.3 87.56 64.38 87.95 C 64.46 88.34 64.69 88.69 65.02 88.91 C 65.35 89.13 65.76 89.21 66.15 89.13 C 66.54 89.05 66.88 88.82 67.1 88.49 L 67.1 88.49 Z M 113.71 88.49 L 124.06 72.96 C 124.29 72.63 124.37 72.22 124.29 71.83 C 124.21 71.44 123.98 71.1 123.65 70.88 C 123.32 70.66 122.91 70.58 122.52 70.65 C 122.13 70.73 121.79 70.96 121.57 71.29 L 111.21 86.83 C 110.99 87.16 110.91 87.56 110.99 87.95 C 111.07 88.34 111.3 88.69 111.63 88.91 C 111.96 89.13 112.36 89.21 112.75 89.13 C 113.14 89.05 113.49 88.82 113.71 88.49 Z"/>
    </g>
   </g>
  </g>
 </g>
</svg>
