<svg xmlns="http://www.w3.org/2000/svg" style="isolation:isolate" width="16" height="16" viewBox="0 0 16 16">
 <defs>
  <style id="current-color-scheme" type="text/css">
   .ColorScheme-Text { color:#eff0f2; } .ColorScheme-Highlight { color:#5294e2; }
  </style>
  <linearGradient id="arrongin" x1="0%" x2="0%" y1="0%" y2="100%">
   <stop offset="0%" style="stop-color:#dd9b44; stop-opacity:1"/>
   <stop offset="100%" style="stop-color:#ad6c16; stop-opacity:1"/>
  </linearGradient>
  <linearGradient id="aurora" x1="0%" x2="0%" y1="0%" y2="100%">
   <stop offset="0%" style="stop-color:#09D4DF; stop-opacity:1"/>
   <stop offset="100%" style="stop-color:#9269F4; stop-opacity:1"/>
  </linearGradient>
  <linearGradient id="fitdance" x1="0%" x2="0%" y1="0%" y2="100%">
   <stop offset="0%" style="stop-color:#1AD6AB; stop-opacity:1"/>
   <stop offset="100%" style="stop-color:#329DB6; stop-opacity:1"/>
  </linearGradient>
  <linearGradient id="oomox" x1="0%" x2="0%" y1="0%" y2="100%">
   <stop offset="0%" style="stop-color:#928374; stop-opacity:1"/>
   <stop offset="100%" style="stop-color:#928374; stop-opacity:1"/>
  </linearGradient>
  <linearGradient id="rainblue" x1="0%" x2="0%" y1="0%" y2="100%">
   <stop offset="0%" style="stop-color:#00F260; stop-opacity:1"/>
   <stop offset="100%" style="stop-color:#0575E6; stop-opacity:1"/>
  </linearGradient>
  <linearGradient id="sunrise" x1="0%" x2="0%" y1="0%" y2="100%">
   <stop offset="0%" style="stop-color: #FF8501; stop-opacity:1"/>
   <stop offset="100%" style="stop-color: #FFCB01; stop-opacity:1"/>
  </linearGradient>
  <linearGradient id="telinkrin" x1="0%" x2="0%" y1="0%" y2="100%">
   <stop offset="0%" style="stop-color: #b2ced6; stop-opacity:1"/>
   <stop offset="100%" style="stop-color: #6da5b7; stop-opacity:1"/>
  </linearGradient>
  <linearGradient id="60spsycho" x1="0%" x2="0%" y1="0%" y2="100%">
   <stop offset="0%" style="stop-color: #df5940; stop-opacity:1"/>
   <stop offset="25%" style="stop-color: #d8d15f; stop-opacity:1"/>
   <stop offset="50%" style="stop-color: #e9882a; stop-opacity:1"/>
   <stop offset="100%" style="stop-color: #279362; stop-opacity:1"/>
  </linearGradient>
  <linearGradient id="90ssummer" x1="0%" x2="0%" y1="0%" y2="100%">
   <stop offset="0%" style="stop-color: #f618c7; stop-opacity:1"/>
   <stop offset="20%" style="stop-color: #94ffab; stop-opacity:1"/>
   <stop offset="50%" style="stop-color: #fbfd54; stop-opacity:1"/>
   <stop offset="100%" style="stop-color: #0f83ae; stop-opacity:1"/>
  </linearGradient>
  <clipPath id="_clipPath_Pq8gi0UFH0yVcqOiKSjNhmu1ToEQ47bH">
   <rect width="16" height="16"/>
  </clipPath>
 </defs>
 <path style="fill:url(#oomox)" class="ColorScheme-Text" d="M 4.162 2.854 L 5.22 2.854 L 5.22 4.705 L 4.162 4.705 L 4.162 2.854 Z M 5.951 1.126 L 7.049 1.126 L 7.049 2.977 L 5.951 2.977 L 5.951 1.126 Z M 8.927 2.977 L 7.768 2.977 L 7.768 1.126 L 8.927 1.126 L 8.927 2.977 Z M 10.775 2.977 L 9.646 2.977 L 9.646 1.126 L 10.773 1.126 L 10.773 2.977 L 10.775 2.977 Z M 12.623 2.977 L 11.493 2.977 L 11.493 1.126 L 12.623 1.126 L 12.623 2.977 Z M 2.864 6.974 L 2.392 6.974 L 2.392 15.119 C 2.392 15.605 2.751 16 3.192 16 L 12.808 16 C 13.25 16 13.608 15.605 13.608 15.119 L 13.608 8.05 L 13.01 8.05 C 12.789 8.05 12.61 7.853 12.61 7.61 L 12.61 4.883 C 12.61 4.64 12.789 4.443 13.01 4.443 L 13.608 4.443 L 13.608 0.881 C 13.608 0.395 13.25 0 12.808 0 L 6.307 0 C 5.988 0 5.681 0.141 5.455 0.391 L 2.739 3.412 C 2.517 3.659 2.392 3.993 2.392 4.342 L 2.392 5.521 L 2.864 5.521 C 3.085 5.521 3.031 5.807 3.264 5.961 L 3.264 6.533 C 3.264 6.777 3.074 6.659 2.864 6.974 Z"/>
</svg>
