<svg xmlns="http://www.w3.org/2000/svg" style="isolation:isolate" width="16" height="16" viewBox="0 0 16 16">
 <defs>
  <style id="current-color-scheme" type="text/css">
   .ColorScheme-Text { color:#d4be98; } .ColorScheme-Highlight { color:#5294e2; }
  </style>
  <linearGradient id="arrongin" x1="0%" x2="0%" y1="0%" y2="100%">
   <stop offset="0%" style="stop-color:#dd9b44; stop-opacity:1"/>
   <stop offset="100%" style="stop-color:#ad6c16; stop-opacity:1"/>
  </linearGradient>
  <linearGradient id="aurora" x1="0%" x2="0%" y1="0%" y2="100%">
   <stop offset="0%" style="stop-color:#09D4DF; stop-opacity:1"/>
   <stop offset="100%" style="stop-color:#9269F4; stop-opacity:1"/>
  </linearGradient>
  <linearGradient id="fitdance" x1="0%" x2="0%" y1="0%" y2="100%">
   <stop offset="0%" style="stop-color:#1AD6AB; stop-opacity:1"/>
   <stop offset="100%" style="stop-color:#329DB6; stop-opacity:1"/>
  </linearGradient>
  <linearGradient id="oomox" x1="0%" x2="0%" y1="0%" y2="100%">
   <stop offset="0%" style="stop-color:#efefe7; stop-opacity:1"/>
   <stop offset="100%" style="stop-color:#8f8f8b; stop-opacity:1"/>
  </linearGradient>
  <linearGradient id="rainblue" x1="0%" x2="0%" y1="0%" y2="100%">
   <stop offset="0%" style="stop-color:#00F260; stop-opacity:1"/>
   <stop offset="100%" style="stop-color:#0575E6; stop-opacity:1"/>
  </linearGradient>
  <linearGradient id="sunrise" x1="0%" x2="0%" y1="0%" y2="100%">
   <stop offset="0%" style="stop-color: #FF8501; stop-opacity:1"/>
   <stop offset="100%" style="stop-color: #FFCB01; stop-opacity:1"/>
  </linearGradient>
  <linearGradient id="telinkrin" x1="0%" x2="0%" y1="0%" y2="100%">
   <stop offset="0%" style="stop-color: #b2ced6; stop-opacity:1"/>
   <stop offset="100%" style="stop-color: #6da5b7; stop-opacity:1"/>
  </linearGradient>
  <linearGradient id="60spsycho" x1="0%" x2="0%" y1="0%" y2="100%">
   <stop offset="0%" style="stop-color: #df5940; stop-opacity:1"/>
   <stop offset="25%" style="stop-color: #d8d15f; stop-opacity:1"/>
   <stop offset="50%" style="stop-color: #e9882a; stop-opacity:1"/>
   <stop offset="100%" style="stop-color: #279362; stop-opacity:1"/>
  </linearGradient>
  <linearGradient id="90ssummer" x1="0%" x2="0%" y1="0%" y2="100%">
   <stop offset="0%" style="stop-color: #f618c7; stop-opacity:1"/>
   <stop offset="20%" style="stop-color: #94ffab; stop-opacity:1"/>
   <stop offset="50%" style="stop-color: #fbfd54; stop-opacity:1"/>
   <stop offset="100%" style="stop-color: #0f83ae; stop-opacity:1"/>
  </linearGradient>
  <clipPath id="_clipPath_Pq8gi0UFH0yVcqOiKSjNhmu1ToEQ47bH">
   <rect width="16" height="16"/>
  </clipPath>
 </defs>
 <path style="fill:currentColor" class="ColorScheme-Text" d="M 3.692 0 C 2.673 0 1.846 0.827 1.846 1.846 L 0 11.711 C 0.517 11.322 1.151 11.077 1.846 11.077 L 14.154 11.077 C 14.849 11.077 15.483 11.322 16 11.711 L 14.154 1.846 C 14.154 0.827 13.327 0 12.308 0 L 3.692 0 Z M 8 1.942 C 10.658 1.942 12.808 3.561 12.808 5.558 C 12.808 7.555 10.658 9.173 8 9.173 C 5.342 9.173 3.192 7.555 3.192 5.558 C 3.192 3.56 5.342 1.942 8 1.942 Z M 8 4.366 C 7.351 4.366 6.827 4.767 6.827 5.25 C 6.827 5.733 7.351 6.135 8 6.135 C 8.649 6.135 9.173 5.734 9.173 5.25 C 9.173 4.767 8.649 4.366 8 4.366 L 8 4.366 Z M 5.096 4.673 C 4.934 4.933 4.848 5.232 4.846 5.538 C 4.846 6.772 6.265 7.558 8 7.558 C 7.228 7.471 4.906 6.476 5.096 4.673 Z M 1.846 11.692 C 0.827 11.692 0 12.519 0 13.538 L 0 14.154 C 0 15.173 0.827 16 1.846 16 L 14.154 16 C 15.173 16 16 15.173 16 14.154 L 16 13.538 C 16 12.519 15.173 11.692 14.154 11.692 L 1.846 11.692 Z M 13.231 12.923 C 13.741 12.923 14.154 13.336 14.154 13.846 C 14.154 14.356 13.741 14.769 13.231 14.769 C 12.721 14.769 12.308 14.356 12.308 13.846 C 12.308 13.336 12.721 12.923 13.231 12.923 Z"/>
</svg>
