<svg xmlns="http://www.w3.org/2000/svg" style="isolation:isolate" width="16" height="16" viewBox="0 0 16 16">
 <defs>
  <style id="current-color-scheme" type="text/css">
   .ColorScheme-Text { color:#d4be98; } .ColorScheme-Highlight { color:#5294e2; }
  </style>
  <linearGradient id="arrongin" x1="0%" x2="0%" y1="0%" y2="100%">
   <stop offset="0%" style="stop-color:#dd9b44; stop-opacity:1"/>
   <stop offset="100%" style="stop-color:#ad6c16; stop-opacity:1"/>
  </linearGradient>
  <linearGradient id="aurora" x1="0%" x2="0%" y1="0%" y2="100%">
   <stop offset="0%" style="stop-color:#09D4DF; stop-opacity:1"/>
   <stop offset="100%" style="stop-color:#9269F4; stop-opacity:1"/>
  </linearGradient>
  <linearGradient id="fitdance" x1="0%" x2="0%" y1="0%" y2="100%">
   <stop offset="0%" style="stop-color:#1AD6AB; stop-opacity:1"/>
   <stop offset="100%" style="stop-color:#329DB6; stop-opacity:1"/>
  </linearGradient>
  <linearGradient id="oomox" x1="0%" x2="0%" y1="0%" y2="100%">
   <stop offset="0%" style="stop-color:#efefe7; stop-opacity:1"/>
   <stop offset="100%" style="stop-color:#8f8f8b; stop-opacity:1"/>
  </linearGradient>
  <linearGradient id="rainblue" x1="0%" x2="0%" y1="0%" y2="100%">
   <stop offset="0%" style="stop-color:#00F260; stop-opacity:1"/>
   <stop offset="100%" style="stop-color:#0575E6; stop-opacity:1"/>
  </linearGradient>
  <linearGradient id="sunrise" x1="0%" x2="0%" y1="0%" y2="100%">
   <stop offset="0%" style="stop-color: #FF8501; stop-opacity:1"/>
   <stop offset="100%" style="stop-color: #FFCB01; stop-opacity:1"/>
  </linearGradient>
  <linearGradient id="telinkrin" x1="0%" x2="0%" y1="0%" y2="100%">
   <stop offset="0%" style="stop-color: #b2ced6; stop-opacity:1"/>
   <stop offset="100%" style="stop-color: #6da5b7; stop-opacity:1"/>
  </linearGradient>
  <linearGradient id="60spsycho" x1="0%" x2="0%" y1="0%" y2="100%">
   <stop offset="0%" style="stop-color: #df5940; stop-opacity:1"/>
   <stop offset="25%" style="stop-color: #d8d15f; stop-opacity:1"/>
   <stop offset="50%" style="stop-color: #e9882a; stop-opacity:1"/>
   <stop offset="100%" style="stop-color: #279362; stop-opacity:1"/>
  </linearGradient>
  <linearGradient id="90ssummer" x1="0%" x2="0%" y1="0%" y2="100%">
   <stop offset="0%" style="stop-color: #f618c7; stop-opacity:1"/>
   <stop offset="20%" style="stop-color: #94ffab; stop-opacity:1"/>
   <stop offset="50%" style="stop-color: #fbfd54; stop-opacity:1"/>
   <stop offset="100%" style="stop-color: #0f83ae; stop-opacity:1"/>
  </linearGradient>
  <clipPath id="_clipPath_U9ppEYP0b4hw7NhACI4TC0gkPdAdnpqW">
   <rect width="16" height="16"/>
  </clipPath>
 </defs>
 <g clip-path="url(#_clipPath_U9ppEYP0b4hw7NhACI4TC0gkPdAdnpqW)">
  <rect style="fill:currentColor" class="ColorScheme-Text" width="4.625" height="3.594" x="18.19" y="-.16" transform="matrix(1,0,0,1,0,0)"/>
  <path style="fill:currentColor" class="ColorScheme-Text" fill-rule="evenodd" d="M 10.367 12.361 C 10.069 12.62 9.736 12.837 9.376 13.01 C 7.537 13.806 5.409 13.726 3.534 13.131 C 2.594 12.828 1.555 12.367 1.147 11.398 C 0.815 10.151 1.09 8.833 1.535 7.653 C 2.156 6.019 3.155 4.385 4.779 3.584 C 4.907 3.52 5.037 3.462 5.167 3.406 C 5.221 3.39 5.274 3.37 5.328 3.354 C 5.276 3.364 5.223 3.381 5.167 3.406 C 5.155 3.408 5.142 3.413 5.129 3.419 C 5.122 3.428 5.152 2.757 5.676 2.628 C 7.914 1.921 10.499 2.971 11.852 4.933 C 12.626 4.098 14.362 3.691 14.747 4.166 C 15.166 4.683 14.967 5.592 14.839 5.7 C 14.712 5.808 13.882 5.148 13.159 5.48 C 12.866 5.614 12.625 5.749 12.408 5.885 C 13.32 7.807 13.228 10.209 11.357 12.223 C 10.935 12.708 10.382 12.378 10.363 12.366 C 10.364 12.365 10.366 12.363 10.367 12.361 Z M 10.368 9.985 C 10.319 10.085 10.264 10.182 10.205 10.276 C 9.861 10.875 9.352 11.34 8.753 11.654 C 8.019 11.954 7.225 12.103 6.431 12.089 C 5.593 12.089 4.769 11.954 3.975 11.699 C 3.601 11.594 3.241 11.43 2.912 11.235 C 2.777 11.145 2.642 11.025 2.568 10.875 C 2.523 10.681 2.493 10.471 2.493 10.261 C 2.523 9.543 2.657 8.854 2.927 8.195 C 3.197 7.476 3.556 6.802 3.99 6.188 C 4.38 5.649 4.874 5.215 5.458 4.915 C 5.922 4.69 6.431 4.571 6.955 4.586 C 7.052 4.586 7.149 4.589 7.246 4.598 C 7.328 4.703 7.416 4.813 7.508 4.925 C 8.536 6.181 9.559 7.959 10.222 9.599 C 10.274 9.729 10.325 9.858 10.368 9.985 Z"/>
 </g>
</svg>
