<svg xmlns="http://www.w3.org/2000/svg" width="16" height="16" version="1.1" viewBox="0 0 4.23 4.23">
<defs>
  <style id="current-color-scheme" type="text/css">
   .ColorScheme-Text { color:#d4be98; } .ColorScheme-Highlight { color:#5294e2; }
  </style>
  <linearGradient id="arrongin" x1="0%" x2="0%" y1="0%" y2="100%">
   <stop offset="0%" style="stop-color:#dd9b44; stop-opacity:1"/>
   <stop offset="100%" style="stop-color:#ad6c16; stop-opacity:1"/>
  </linearGradient>
  <linearGradient id="aurora" x1="0%" x2="0%" y1="0%" y2="100%">
   <stop offset="0%" style="stop-color:#09D4DF; stop-opacity:1"/>
   <stop offset="100%" style="stop-color:#9269F4; stop-opacity:1"/>
  </linearGradient>
  <linearGradient id="fitdance" x1="0%" x2="0%" y1="0%" y2="100%">
   <stop offset="0%" style="stop-color:#1AD6AB; stop-opacity:1"/>
   <stop offset="100%" style="stop-color:#329DB6; stop-opacity:1"/>
  </linearGradient>
  <linearGradient id="oomox" x1="0%" x2="0%" y1="0%" y2="100%">
   <stop offset="0%" style="stop-color:#efefe7; stop-opacity:1"/>
   <stop offset="100%" style="stop-color:#8f8f8b; stop-opacity:1"/>
  </linearGradient>
  <linearGradient id="rainblue" x1="0%" x2="0%" y1="0%" y2="100%">
   <stop offset="0%" style="stop-color:#00F260; stop-opacity:1"/>
   <stop offset="100%" style="stop-color:#0575E6; stop-opacity:1"/>
  </linearGradient>
  <linearGradient id="sunrise" x1="0%" x2="0%" y1="0%" y2="100%">
   <stop offset="0%" style="stop-color: #FF8501; stop-opacity:1"/>
   <stop offset="100%" style="stop-color: #FFCB01; stop-opacity:1"/>
  </linearGradient>
  <linearGradient id="telinkrin" x1="0%" x2="0%" y1="0%" y2="100%">
   <stop offset="0%" style="stop-color: #b2ced6; stop-opacity:1"/>
   <stop offset="100%" style="stop-color: #6da5b7; stop-opacity:1"/>
  </linearGradient>
  <linearGradient id="60spsycho" x1="0%" x2="0%" y1="0%" y2="100%">
   <stop offset="0%" style="stop-color: #df5940; stop-opacity:1"/>
   <stop offset="25%" style="stop-color: #d8d15f; stop-opacity:1"/>
   <stop offset="50%" style="stop-color: #e9882a; stop-opacity:1"/>
   <stop offset="100%" style="stop-color: #279362; stop-opacity:1"/>
  </linearGradient>
  <linearGradient id="90ssummer" x1="0%" x2="0%" y1="0%" y2="100%">
   <stop offset="0%" style="stop-color: #f618c7; stop-opacity:1"/>
   <stop offset="20%" style="stop-color: #94ffab; stop-opacity:1"/>
   <stop offset="50%" style="stop-color: #fbfd54; stop-opacity:1"/>
   <stop offset="100%" style="stop-color: #0f83ae; stop-opacity:1"/>
  </linearGradient>
 </defs>
 <g transform="translate(0,-292.76665)">
  <g transform="matrix(0.00775147,0,0,0.00775147,0.13229167,292.89894)" style="fill:currentColor" class="ColorScheme-Text">
   <path style="fill:currentColor" class="st0 ColorScheme-Text" d="m 269.183,243.32 c 0,-2.781 -0.839,-4.984 -2.57,-6.714 -1.73,-1.68 -4.09,-2.516 -7.133,-2.516 h -12.325 v 18.406 h 12.325 c 3.042,0 5.402,-0.84 7.133,-2.519 1.731,-1.626 2.57,-3.879 2.57,-6.657 z"/>
   <path style="fill:currentColor" class="st0 ColorScheme-Text" d="M 371.344,89.156 H 140.66 c -28.961,0 -52.442,23.481 -52.442,52.438 v 228.809 c 0,28.965 23.481,52.438 52.442,52.438 h 230.684 c 28.961,0 52.438,-23.473 52.438,-52.438 V 141.594 c 0,-28.957 -23.477,-52.438 -52.438,-52.438 z M 218.45,244.582 h -18.466 l -0.414,-1.676 c -0.633,-2.512 -1.746,-4.598 -3.309,-6.199 -1.445,-1.461 -3.535,-2.172 -6.386,-2.172 -1.602,0 -3.027,0.27 -4.226,0.801 -1.192,0.531 -2.192,1.254 -2.973,2.137 -0.535,0.582 -0.95,1.214 -1.301,1.961 -0.344,0.73 -0.633,1.762 -0.871,3.043 -0.254,1.382 -0.438,3.129 -0.558,5.246 -0.137,2.192 -0.195,4.95 -0.195,8.274 0,3.328 0.058,6.09 0.195,8.274 0.121,2.121 0.305,3.875 0.558,5.258 0.238,1.278 0.527,2.305 0.879,3.047 0.343,0.734 0.758,1.367 1.269,1.93 0.813,0.922 1.786,1.613 3,2.156 1.196,0.531 2.622,0.805 4.223,0.805 2.863,0 4.969,-0.718 6.449,-2.191 1.59,-1.598 2.715,-3.672 3.34,-6.18 l 0.414,-1.676 h 15.843 l 2.539,0.028 -0.457,2.57 c -1.41,7.922 -4.711,14.011 -9.793,18.09 -5.055,4.05 -11.223,6.102 -18.336,6.102 -4.394,0 -8.293,-0.707 -11.602,-2.118 -3.282,-1.386 -6.293,-3.39 -8.934,-5.961 -1.992,-1.992 -3.52,-4.062 -4.566,-6.176 -1.047,-2.078 -1.817,-4.402 -2.286,-6.886 -0.445,-2.367 -0.722,-4.93 -0.828,-7.832 -0.098,-2.746 -0.152,-5.824 -0.152,-9.238 0,-3.406 0.054,-6.484 0.152,-9.226 0.106,-2.867 0.387,-5.508 0.836,-7.844 0.461,-2.473 1.23,-4.797 2.282,-6.89 1.042,-2.102 2.57,-4.168 4.535,-6.141 2.679,-2.598 5.687,-4.606 8.961,-5.992 3.301,-1.402 7.207,-2.114 11.602,-2.114 7.113,0 13.281,2.055 18.336,6.102 5.082,4.082 8.382,10.172 9.793,18.094 l 0.418,2.34 z m -96.344,-41.738 c -0.031,0.007 -0.066,0.011 -0.098,0.019 -4.118,0.902 -8.691,-2.043 -8.691,-6.977 V 146.93 c 0,-16.586 13.566,-30.152 30.152,-30.152 h 39.211 c 6.105,0 9.386,7.175 5.394,11.793 l -62.234,71.984 c -1.066,1.234 -2.375,1.968 -3.734,2.289 z m 127.308,63.55 v 0 h -0.157 v 25.375 H 231.95 v -71.527 h 28.16 c 3.726,0 7.133,0.629 10.175,1.785 3.039,1.207 5.61,2.938 7.707,5.035 2.047,2.094 3.672,4.614 4.774,7.39 1.102,2.832 1.68,5.77 1.68,8.867 0,3.094 -0.578,6.078 -1.68,8.86 -1.102,2.832 -2.726,5.297 -4.774,7.394 -2.098,2.148 -4.668,3.828 -7.707,5.031 -3.042,1.211 -6.449,1.789 -10.175,1.789 h -10.629 -0.067 z m 65.824,7.426 c 1.691,1.762 3.98,2.618 6.996,2.618 3.031,0 5.336,-0.859 7.054,-2.629 1.734,-1.782 2.574,-4.29 2.574,-7.664 v -45.871 h 17.246 v 46.347 c 0,3.875 -0.715,7.442 -2.126,10.594 -1.398,3.136 -3.343,5.867 -5.785,8.109 -2.434,2.226 -5.301,3.969 -8.527,5.192 -3.215,1.218 -6.722,1.835 -10.438,1.835 -3.703,0 -7.211,-0.617 -10.426,-1.835 -3.242,-1.227 -6.11,-2.973 -8.527,-5.192 -2.446,-2.242 -4.398,-4.969 -5.79,-8.113 -1.41,-3.157 -2.121,-6.723 -2.121,-10.59 v -46.347 h 17.34 v 45.871 c 0.003,3.378 0.827,5.89 2.53,7.675 z"/>
   <path style="fill:currentColor" class="st0 ColorScheme-Text" d="m 120.66,67.988 v 0.161 h 2.914 46.859 2.91 V 65.235 46.07 43.156 h -2.91 -9.031 c -2.23,0 -4.039,-1.808 -4.039,-4.039 V 2.91 0 h -2.914 -14.914 -2.914 v 2.91 36.206 c 0,2.231 -1.808,4.039 -4.035,4.039 h -9.011 -2.914 v 2.914 19.164 2.746 0.009 z"/>
   <path style="fill:currentColor" class="st0 ColorScheme-Text" d="m 243.098,68.149 h 2.914 V 65.235 46.07 43.156 h -2.914 -9 c -2.23,0 -4.035,-1.808 -4.035,-4.039 V 2.91 0 h -2.914 -14.919 -2.914 v 2.91 36.206 c 0,2.231 -1.805,4.039 -4.035,4.039 h -9.043 -2.914 v 2.914 19.164 2.914 h 2.914 46.86 z"/>
   <path style="fill:currentColor" class="st0 ColorScheme-Text" d="m 265.992,67.988 v 0.161 h 2.91 46.859 2.914 V 65.235 46.07 43.156 h -2.914 -9.027 c -2.226,0 -4.035,-1.808 -4.035,-4.039 V 2.91 0 h -2.914 -14.914 -2.914 v 2.91 36.206 c 0,2.231 -1.808,4.039 -4.039,4.039 h -9.015 -2.91 v 2.914 19.164 2.746 0.009 z"/>
   <path style="fill:currentColor" class="st0 ColorScheme-Text" d="m 388.426,68.149 h 2.914 V 65.235 46.07 43.156 h -2.914 -9.05 c -2.23,0 -4.039,-1.808 -4.039,-4.039 V 2.91 0 h -2.91 -14.859 -2.914 v 2.91 36.206 c 0,2.231 -1.808,4.039 -4.035,4.039 h -9.046 -2.914 v 2.914 19.164 2.914 h 2.914 46.853 z"/>
   <path style="fill:currentColor" class="st0 ColorScheme-Text" d="m 341.57,443.848 h -2.914 v 2.914 19.168 2.914 h 2.914 9.031 c 2.226,0 4.035,1.805 4.035,4.035 V 509.085 512 h 2.914 14.918 2.91 v -2.914 -36.206 c 0,-2.23 1.808,-4.035 4.038,-4.035 h 9.008 2.738 0.016 v 0 h 0.16 v -2.914 -19.168 -2.914 h -2.914 -46.854 z"/>
   <path style="fill:currentColor" class="st0 ColorScheme-Text" d="m 268.902,443.848 h -2.91 v 2.914 19.168 2.746 0.007 0 0.161 h 2.91 9 c 2.23,0 4.039,1.805 4.039,4.035 V 509.085 512 h 2.91 14.918 2.914 v -2.914 -36.206 c 0,-2.23 1.809,-4.035 4.035,-4.035 h 9.043 2.738 0.016 v 0 h 0.16 v -2.914 -19.168 -2.914 h -2.914 -46.859 z"/>
   <path style="fill:currentColor" class="st0 ColorScheme-Text" d="m 196.238,443.848 h -2.914 v 2.914 19.168 2.914 h 2.914 9.027 c 2.23,0 4.035,1.805 4.035,4.035 V 509.085 512 h 2.914 14.918 2.914 v -2.914 -36.206 c 0,-2.23 1.804,-4.035 4.035,-4.035 h 9.015 2.738 0.015 v 0 h 0.161 v -2.914 -19.168 -2.914 h -2.914 -46.858 z"/>
   <path style="fill:currentColor" class="st0 ColorScheme-Text" d="m 123.574,443.848 h -2.914 v 2.914 19.168 2.746 0.007 0 0.161 h 2.914 9.05 c 2.23,0 4.039,1.805 4.039,4.035 v 36.206 2.746 0.008 0 0.161 h 2.914 14.855 2.914 v -2.914 -36.206 c 0,-2.23 1.808,-4.035 4.035,-4.035 h 9.05 2.734 0.019 v 0 h 0.157 v -2.914 -19.168 -2.914 h -2.91 -46.857 z"/>
   <path style="fill:currentColor" class="st0 ColorScheme-Text" d="m 509.086,136.617 h -36.202 c -2.231,0 -4.039,-1.804 -4.039,-4.034 v -9.008 -2.914 h -2.91 -19.172 -2.91 v 2.914 46.859 2.914 h 2.91 19.172 2.91 v -2.914 -9.035 c 0,-2.23 1.808,-4.035 4.039,-4.035 h 36.202 2.746 0.008 v 0 H 512 v -2.914 -14.918 -2.914 h -2.914 z"/>
   <path style="fill:currentColor" class="st0 ColorScheme-Text" d="m 472.883,209.317 c -2.231,0 -4.039,-1.809 -4.039,-4.039 v -9.039 -2.914 h -2.91 -19.172 -2.742 -0.011 v 0 h -0.157 v 2.914 46.855 2.914 h 2.91 19.172 2.91 v -2.914 -8.996 c 0,-2.23 1.808,-4.039 4.039,-4.039 H 509.085 512 v -2.914 -14.915 -2.914 h -2.914 -36.203 z"/>
   <path style="fill:currentColor" class="st0 ColorScheme-Text" d="m 472.883,281.957 c -2.231,0 -4.039,-1.808 -4.039,-4.039 v -9.015 -2.914 h -2.91 -19.172 -2.91 v 2.914 46.859 2.914 h 2.91 19.172 2.91 v -2.914 -9.027 c 0,-2.23 1.808,-4.039 4.039,-4.039 h 36.202 2.746 l 0.008,0.004 v -0.004 H 512 v -2.91 -14.914 -2.914 h -2.914 -36.203 z"/>
   <path style="fill:currentColor" class="ColorScheme-Text" d="m 472.883,354.652 c -2.231,0 -4.039,-1.804 -4.039,-4.035 v -9.046 -2.914 h -2.91 -19.172 -2.91 v 2.914 46.855 2.91 h 2.91 19.172 2.91 v -2.91 -9.05 c 0,-2.23 1.808,-4.039 4.039,-4.039 H 509.085 512 v -2.914 -14.855 -2.914 h -2.914 -36.203 z"/>
   <path style="fill:currentColor" class="st0 ColorScheme-Text" d="m 46.07,338.656 h -2.914 v 2.914 9.027 c 0,2.23 -1.808,4.039 -4.039,4.039 H 2.914 0 v 2.914 14.914 2.914 h 2.914 36.202 c 2.231,0 4.039,1.808 4.039,4.038 v 9.008 2.91 h 2.914 19.168 2.914 v -2.91 -46.854 -2.914 h -2.914 z"/>
   <path style="fill:currentColor" class="st0 ColorScheme-Text" d="m 46.07,265.988 h -2.914 v 2.914 9 c 0,2.23 -1.808,4.035 -4.039,4.035 H 2.914 0 v 2.914 14.918 2.914 h 2.914 36.202 c 2.231,0 4.039,1.805 4.039,4.035 v 9.043 2.914 h 2.914 19.168 2.914 v -2.914 -46.859 -2.914 h -2.914 z"/>
   <path style="fill:currentColor" class="st0 ColorScheme-Text" d="m 46.07,193.324 h -2.746 -0.007 v 0 h -0.161 v 2.914 9.027 c 0,2.23 -1.808,4.035 -4.039,4.035 H 2.914 0 v 2.914 14.914 2.914 h 2.914 36.202 c 2.231,0 4.039,1.805 4.039,4.035 v 9.015 2.914 h 2.914 19.168 2.914 v -2.914 -46.855 -2.914 H 65.237 46.07 Z"/>
   <path style="fill:currentColor" class="st0 ColorScheme-Text" d="m 46.07,120.66 h -2.914 v 2.914 9.05 c 0,2.23 -1.808,4.035 -4.039,4.035 H 2.914 0 v 2.914 14.859 2.914 h 2.914 36.202 c 2.231,0 4.039,1.804 4.039,4.038 v 9.047 2.914 h 2.914 19.168 2.914 v -2.914 -46.859 -2.914 H 65.237 46.07 Z"/>
  </g>
 </g>
</svg>
