<svg xmlns="http://www.w3.org/2000/svg" style="isolation:isolate" width="16" height="16" viewBox="0 0 16 16">
 <defs>
  <style id="current-color-scheme" type="text/css">
   .ColorScheme-Text { color:#d4be98; } .ColorScheme-Highlight { color:#5294e2; }
  </style>
  <linearGradient id="arrongin" x1="0%" x2="0%" y1="0%" y2="100%">
   <stop offset="0%" style="stop-color:#dd9b44; stop-opacity:1"/>
   <stop offset="100%" style="stop-color:#ad6c16; stop-opacity:1"/>
  </linearGradient>
  <linearGradient id="aurora" x1="0%" x2="0%" y1="0%" y2="100%">
   <stop offset="0%" style="stop-color:#09D4DF; stop-opacity:1"/>
   <stop offset="100%" style="stop-color:#9269F4; stop-opacity:1"/>
  </linearGradient>
  <linearGradient id="fitdance" x1="0%" x2="0%" y1="0%" y2="100%">
   <stop offset="0%" style="stop-color:#1AD6AB; stop-opacity:1"/>
   <stop offset="100%" style="stop-color:#329DB6; stop-opacity:1"/>
  </linearGradient>
  <linearGradient id="oomox" x1="0%" x2="0%" y1="0%" y2="100%">
   <stop offset="0%" style="stop-color:#efefe7; stop-opacity:1"/>
   <stop offset="100%" style="stop-color:#8f8f8b; stop-opacity:1"/>
  </linearGradient>
  <linearGradient id="rainblue" x1="0%" x2="0%" y1="0%" y2="100%">
   <stop offset="0%" style="stop-color:#00F260; stop-opacity:1"/>
   <stop offset="100%" style="stop-color:#0575E6; stop-opacity:1"/>
  </linearGradient>
  <linearGradient id="sunrise" x1="0%" x2="0%" y1="0%" y2="100%">
   <stop offset="0%" style="stop-color: #FF8501; stop-opacity:1"/>
   <stop offset="100%" style="stop-color: #FFCB01; stop-opacity:1"/>
  </linearGradient>
  <linearGradient id="telinkrin" x1="0%" x2="0%" y1="0%" y2="100%">
   <stop offset="0%" style="stop-color: #b2ced6; stop-opacity:1"/>
   <stop offset="100%" style="stop-color: #6da5b7; stop-opacity:1"/>
  </linearGradient>
  <linearGradient id="60spsycho" x1="0%" x2="0%" y1="0%" y2="100%">
   <stop offset="0%" style="stop-color: #df5940; stop-opacity:1"/>
   <stop offset="25%" style="stop-color: #d8d15f; stop-opacity:1"/>
   <stop offset="50%" style="stop-color: #e9882a; stop-opacity:1"/>
   <stop offset="100%" style="stop-color: #279362; stop-opacity:1"/>
  </linearGradient>
  <linearGradient id="90ssummer" x1="0%" x2="0%" y1="0%" y2="100%">
   <stop offset="0%" style="stop-color: #f618c7; stop-opacity:1"/>
   <stop offset="20%" style="stop-color: #94ffab; stop-opacity:1"/>
   <stop offset="50%" style="stop-color: #fbfd54; stop-opacity:1"/>
   <stop offset="100%" style="stop-color: #0f83ae; stop-opacity:1"/>
  </linearGradient>
 </defs>
 <path style="fill:currentColor" class="ColorScheme-Text" d="M 8 1.412 C 4.621 1.412 1.882 4.151 1.882 7.529 L 1.882 9.513 C 0.77 9.828 0.001 10.843 0 12 C 0 13.429 1.159 14.588 2.588 14.588 C 2.998 14.587 3.401 14.489 3.765 14.302 L 3.765 14.588 L 5.176 14.588 L 5.176 12 L 5.176 9.412 L 3.765 9.412 L 3.765 9.695 C 3.614 9.618 3.457 9.557 3.294 9.511 L 3.294 7.529 C 3.294 4.93 5.401 2.824 8 2.824 C 10.599 2.824 12.706 4.93 12.706 7.529 L 12.706 9.513 C 11.593 9.828 10.825 10.843 10.824 12 C 10.824 13.429 11.982 14.588 13.412 14.588 C 14.841 14.588 16 13.429 16 12 C 15.999 10.843 15.231 9.827 14.118 9.511 L 14.118 7.529 C 14.118 4.151 11.379 1.412 8 1.412 Z M 2.588 10.824 C 3.238 10.824 3.765 11.35 3.765 12 C 3.765 12.65 3.238 13.176 2.588 13.176 C 1.939 13.176 1.412 12.65 1.412 12 C 1.412 11.35 1.939 10.824 2.588 10.824 Z M 13.412 10.824 C 14.061 10.824 14.588 11.35 14.588 12 C 14.588 12.65 14.061 13.176 13.412 13.176 C 12.762 13.176 12.235 12.65 12.235 12 C 12.235 11.35 12.762 10.824 13.412 10.824 Z"/>
</svg>
