<svg xmlns="http://www.w3.org/2000/svg" width="16" height="16" version="1.1">
<defs>
  <style id="current-color-scheme" type="text/css">
   .ColorScheme-Text { color:#d4be98; } .ColorScheme-Highlight { color:#5294e2; }
  </style>
  <linearGradient id="arrongin" x1="0%" x2="0%" y1="0%" y2="100%">
   <stop offset="0%" style="stop-color:#dd9b44; stop-opacity:1"/>
   <stop offset="100%" style="stop-color:#ad6c16; stop-opacity:1"/>
  </linearGradient>
  <linearGradient id="aurora" x1="0%" x2="0%" y1="0%" y2="100%">
   <stop offset="0%" style="stop-color:#09D4DF; stop-opacity:1"/>
   <stop offset="100%" style="stop-color:#9269F4; stop-opacity:1"/>
  </linearGradient>
  <linearGradient id="fitdance" x1="0%" x2="0%" y1="0%" y2="100%">
   <stop offset="0%" style="stop-color:#1AD6AB; stop-opacity:1"/>
   <stop offset="100%" style="stop-color:#329DB6; stop-opacity:1"/>
  </linearGradient>
  <linearGradient id="oomox" x1="0%" x2="0%" y1="0%" y2="100%">
   <stop offset="0%" style="stop-color:#efefe7; stop-opacity:1"/>
   <stop offset="100%" style="stop-color:#8f8f8b; stop-opacity:1"/>
  </linearGradient>
  <linearGradient id="rainblue" x1="0%" x2="0%" y1="0%" y2="100%">
   <stop offset="0%" style="stop-color:#00F260; stop-opacity:1"/>
   <stop offset="100%" style="stop-color:#0575E6; stop-opacity:1"/>
  </linearGradient>
  <linearGradient id="sunrise" x1="0%" x2="0%" y1="0%" y2="100%">
   <stop offset="0%" style="stop-color: #FF8501; stop-opacity:1"/>
   <stop offset="100%" style="stop-color: #FFCB01; stop-opacity:1"/>
  </linearGradient>
  <linearGradient id="telinkrin" x1="0%" x2="0%" y1="0%" y2="100%">
   <stop offset="0%" style="stop-color: #b2ced6; stop-opacity:1"/>
   <stop offset="100%" style="stop-color: #6da5b7; stop-opacity:1"/>
  </linearGradient>
  <linearGradient id="60spsycho" x1="0%" x2="0%" y1="0%" y2="100%">
   <stop offset="0%" style="stop-color: #df5940; stop-opacity:1"/>
   <stop offset="25%" style="stop-color: #d8d15f; stop-opacity:1"/>
   <stop offset="50%" style="stop-color: #e9882a; stop-opacity:1"/>
   <stop offset="100%" style="stop-color: #279362; stop-opacity:1"/>
  </linearGradient>
  <linearGradient id="90ssummer" x1="0%" x2="0%" y1="0%" y2="100%">
   <stop offset="0%" style="stop-color: #f618c7; stop-opacity:1"/>
   <stop offset="20%" style="stop-color: #94ffab; stop-opacity:1"/>
   <stop offset="50%" style="stop-color: #fbfd54; stop-opacity:1"/>
   <stop offset="100%" style="stop-color: #0f83ae; stop-opacity:1"/>
  </linearGradient>
 </defs>
 <g transform="translate(-283 -215)" style="fill:currentColor" class="ColorScheme-Text">
  <path style="fill:currentColor" class="ColorScheme-Text" d="m286.16 216c-1.1872 0-2.1562 0.892-2.1562 2v10c0 1.108 0.9691 2 2.1562 2h10.844s1 0 1-1v-12c0-1-1-1-1-1zm0.21875 1h10.25c0.21139 0 0.375 0.17565 0.375 0.40625v11.188c0 0.23064-0.16361 0.40625-0.375 0.40625h-10.25c-0.21137 0-0.375-0.17561-0.375-0.40625v-11.188c0-0.2306 0.16363-0.40625 0.375-0.40625zm1 1c-0.20679 0-0.34375 0.17516-0.34375 0.40625v9.1875c0 0.23108 0.13696 0.40625 0.34375 0.40625h8.25c0.20678 0 0.375-0.17517 0.375-0.40625v-9.1875c0-0.23109-0.16822-0.40625-0.375-0.40625zm4.0625 2c0.47901-0.0152 0.93858 0.10167 1.375 0.375l0.0312 0.0312c1.1645 0.74186 1.4919 2.273 0.75 3.4375-0.74186 1.1645-2.273 1.4919-3.4375 0.75-1.1645-0.74186-1.4919-2.273-0.75-3.4375 0.46114-0.72384 1.2329-1.131 2.0312-1.1562zm-0.0625 1.5c-0.2655 0.0385-0.50061 0.1932-0.65625 0.4375-0.2782 0.43668-0.15543 1.003 0.28125 1.2812s1.003 0.15543 1.2812-0.28125 0.15543-1.003-0.28125-1.2812c-0.10911-0.0683-0.22413-0.13677-0.34375-0.15625-0.0897-0.0146-0.19275-0.0128-0.28125 0z"/>
  <rect style="fill:currentColor" class="ColorScheme-Text" width="2.004" height="2" x="283" y="219" rx=".416" ry=".416"/>
  <rect style="fill:currentColor" class="ColorScheme-Text" width="2.004" height="2" x="283" y="225" rx=".416" ry=".416"/>
 </g>
</svg>
