<svg xmlns="http://www.w3.org/2000/svg" style="isolation:isolate" width="16" height="16" viewBox="0 0 16 16">
 <defs>
  <style id="current-color-scheme" type="text/css">
   .ColorScheme-Text { color:#d4be98; } .ColorScheme-Highlight { color:#5294e2; }
  </style>
  <linearGradient id="arrongin" x1="0%" x2="0%" y1="0%" y2="100%">
   <stop offset="0%" style="stop-color:#dd9b44; stop-opacity:1"/>
   <stop offset="100%" style="stop-color:#ad6c16; stop-opacity:1"/>
  </linearGradient>
  <linearGradient id="aurora" x1="0%" x2="0%" y1="0%" y2="100%">
   <stop offset="0%" style="stop-color:#09D4DF; stop-opacity:1"/>
   <stop offset="100%" style="stop-color:#9269F4; stop-opacity:1"/>
  </linearGradient>
  <linearGradient id="fitdance" x1="0%" x2="0%" y1="0%" y2="100%">
   <stop offset="0%" style="stop-color:#1AD6AB; stop-opacity:1"/>
   <stop offset="100%" style="stop-color:#329DB6; stop-opacity:1"/>
  </linearGradient>
  <linearGradient id="oomox" x1="0%" x2="0%" y1="0%" y2="100%">
   <stop offset="0%" style="stop-color:#efefe7; stop-opacity:1"/>
   <stop offset="100%" style="stop-color:#8f8f8b; stop-opacity:1"/>
  </linearGradient>
  <linearGradient id="rainblue" x1="0%" x2="0%" y1="0%" y2="100%">
   <stop offset="0%" style="stop-color:#00F260; stop-opacity:1"/>
   <stop offset="100%" style="stop-color:#0575E6; stop-opacity:1"/>
  </linearGradient>
  <linearGradient id="sunrise" x1="0%" x2="0%" y1="0%" y2="100%">
   <stop offset="0%" style="stop-color: #FF8501; stop-opacity:1"/>
   <stop offset="100%" style="stop-color: #FFCB01; stop-opacity:1"/>
  </linearGradient>
  <linearGradient id="telinkrin" x1="0%" x2="0%" y1="0%" y2="100%">
   <stop offset="0%" style="stop-color: #b2ced6; stop-opacity:1"/>
   <stop offset="100%" style="stop-color: #6da5b7; stop-opacity:1"/>
  </linearGradient>
  <linearGradient id="60spsycho" x1="0%" x2="0%" y1="0%" y2="100%">
   <stop offset="0%" style="stop-color: #df5940; stop-opacity:1"/>
   <stop offset="25%" style="stop-color: #d8d15f; stop-opacity:1"/>
   <stop offset="50%" style="stop-color: #e9882a; stop-opacity:1"/>
   <stop offset="100%" style="stop-color: #279362; stop-opacity:1"/>
  </linearGradient>
  <linearGradient id="90ssummer" x1="0%" x2="0%" y1="0%" y2="100%">
   <stop offset="0%" style="stop-color: #f618c7; stop-opacity:1"/>
   <stop offset="20%" style="stop-color: #94ffab; stop-opacity:1"/>
   <stop offset="50%" style="stop-color: #fbfd54; stop-opacity:1"/>
   <stop offset="100%" style="stop-color: #0f83ae; stop-opacity:1"/>
  </linearGradient>
 </defs>
 <path style="fill:currentColor" class="ColorScheme-Text" fill-rule="evenodd" d="M 3.312 7.97 C 4.358 7.939 4.969 8.543 4.969 9.682 C 4.969 10.965 4.815 11.114 3.719 10.873 C 2.685 10.644 2.052 10.262 1.759 9.693 C 1.292 8.789 1.371 8.48 2.128 8.215 C 2.567 8.062 2.963 7.98 3.312 7.97 L 3.312 7.97 L 3.312 7.97 L 3.312 7.97 L 3.312 7.97 L 3.312 7.97 Z M 12.657 8.001 C 11.61 7.97 11 8.574 11 9.713 C 11 10.996 11.154 11.145 12.25 10.904 C 13.284 10.676 13.917 10.293 14.21 9.724 C 14.677 8.82 14.598 8.511 13.841 8.247 C 13.402 8.093 13.006 8.011 12.657 8.001 L 12.657 8.001 L 12.657 8.001 L 12.657 8.001 Z M 15.839 6.573 C 15.85 6.59 15.855 6.609 15.858 6.629 C 15.937 7.164 15.975 7.663 15.968 8.133 C 15.933 10.583 14.279 12.639 11.375 14.568 C 9.96 15.508 8.959 15.919 7.969 15.969 C 6.978 15.919 5.977 15.508 4.563 14.568 C 1.659 12.639 0.005 10.583 -0.03 8.133 C -0.043 7.293 0.088 6.361 0.343 5.297 C 1.318 1.225 2.131 -0.045 3.1 -0.031 C 3.596 -0.025 4.135 -0.013 4.756 0.818 C 5.473 1.779 6.181 2.941 6.879 3.524 C 7.878 4.154 8.225 4.265 9.242 3.362 C 9.379 3.236 9.516 3.087 9.653 2.923 L 9.641 2.959 C 10.678 4.754 13.535 6.06 15.891 6.951 C 15.876 6.827 15.859 6.702 15.839 6.573 L 15.839 6.573 L 15.839 6.573 L 15.839 6.573 L 15.839 6.573 Z M 8 12 C 9.103 12.018 10 12.066 10 12.14 C 10 12.222 9.467 13.063 8.816 13.81 L 8 15 L 7.184 13.81 C 6.533 13.063 6 12.223 6 12.14 C 6 12.066 6.897 12.012 8 12 Z"/>
 <g opacity=".7">
  <path style="fill:currentColor" class="ColorScheme-Text" d="M 12.869 0 C 12.373 0.01 11.834 0.018 11.213 0.85 C 10.7 1.536 10.192 2.337 9.689 2.94 L 9.672 2.99 C 10.71 4.786 13.566 6.091 15.922 6.982 C 15.86 6.465 15.769 5.921 15.627 5.328 C 14.651 1.257 13.838 -0.014 12.869 0 Z"/>
 </g>
 <g opacity=".6">
  <path style="fill:currentColor" class="ColorScheme-Text" d="M 3.312 7.978 C 4.358 7.947 4.969 8.551 4.969 9.69 C 4.969 10.973 4.815 11.122 3.719 10.88 C 2.685 10.652 2.052 10.27 1.759 9.701 C 1.292 8.796 1.371 8.488 2.128 8.223 C 2.567 8.07 2.963 7.988 3.312 7.978 L 3.312 7.978 Z"/>
 </g>
 <g opacity=".6">
  <path style="fill:currentColor" class="ColorScheme-Text" d="M 12.657 8.001 C 11.61 7.97 11 8.574 11 9.713 C 11 10.996 11.154 11.145 12.25 10.904 C 13.284 10.676 13.917 10.293 14.21 9.724 C 14.677 8.82 14.598 8.511 13.841 8.247 C 13.402 8.093 13.006 8.011 12.657 8.001 L 12.657 8.001 Z"/>
 </g>
 <g opacity=".6">
  <path style="fill:currentColor" class="ColorScheme-Text" d="M 8 12 C 9.103 12.018 10 12.066 10 12.14 C 10 12.222 9.467 13.063 8.816 13.81 L 8 15 L 7.184 13.81 C 6.533 13.063 6 12.223 6 12.14 C 6 12.066 6.897 12.012 8 12 Z"/>
 </g>
</svg>
