<svg xmlns="http://www.w3.org/2000/svg" style="isolation:isolate" width="16" height="16" viewBox="0 0 16 16">
 <defs>
  <style id="current-color-scheme" type="text/css">
   .ColorScheme-Text { color:#d4be98; } .ColorScheme-Highlight { color:#5294e2; }
  </style>
  <linearGradient id="arrongin" x1="0%" x2="0%" y1="0%" y2="100%">
   <stop offset="0%" style="stop-color:#dd9b44; stop-opacity:1"/>
   <stop offset="100%" style="stop-color:#ad6c16; stop-opacity:1"/>
  </linearGradient>
  <linearGradient id="aurora" x1="0%" x2="0%" y1="0%" y2="100%">
   <stop offset="0%" style="stop-color:#09D4DF; stop-opacity:1"/>
   <stop offset="100%" style="stop-color:#9269F4; stop-opacity:1"/>
  </linearGradient>
  <linearGradient id="fitdance" x1="0%" x2="0%" y1="0%" y2="100%">
   <stop offset="0%" style="stop-color:#1AD6AB; stop-opacity:1"/>
   <stop offset="100%" style="stop-color:#329DB6; stop-opacity:1"/>
  </linearGradient>
  <linearGradient id="oomox" x1="0%" x2="0%" y1="0%" y2="100%">
   <stop offset="0%" style="stop-color:#efefe7; stop-opacity:1"/>
   <stop offset="100%" style="stop-color:#8f8f8b; stop-opacity:1"/>
  </linearGradient>
  <linearGradient id="rainblue" x1="0%" x2="0%" y1="0%" y2="100%">
   <stop offset="0%" style="stop-color:#00F260; stop-opacity:1"/>
   <stop offset="100%" style="stop-color:#0575E6; stop-opacity:1"/>
  </linearGradient>
  <linearGradient id="sunrise" x1="0%" x2="0%" y1="0%" y2="100%">
   <stop offset="0%" style="stop-color: #FF8501; stop-opacity:1"/>
   <stop offset="100%" style="stop-color: #FFCB01; stop-opacity:1"/>
  </linearGradient>
  <linearGradient id="telinkrin" x1="0%" x2="0%" y1="0%" y2="100%">
   <stop offset="0%" style="stop-color: #b2ced6; stop-opacity:1"/>
   <stop offset="100%" style="stop-color: #6da5b7; stop-opacity:1"/>
  </linearGradient>
  <linearGradient id="60spsycho" x1="0%" x2="0%" y1="0%" y2="100%">
   <stop offset="0%" style="stop-color: #df5940; stop-opacity:1"/>
   <stop offset="25%" style="stop-color: #d8d15f; stop-opacity:1"/>
   <stop offset="50%" style="stop-color: #e9882a; stop-opacity:1"/>
   <stop offset="100%" style="stop-color: #279362; stop-opacity:1"/>
  </linearGradient>
  <linearGradient id="90ssummer" x1="0%" x2="0%" y1="0%" y2="100%">
   <stop offset="0%" style="stop-color: #f618c7; stop-opacity:1"/>
   <stop offset="20%" style="stop-color: #94ffab; stop-opacity:1"/>
   <stop offset="50%" style="stop-color: #fbfd54; stop-opacity:1"/>
   <stop offset="100%" style="stop-color: #0f83ae; stop-opacity:1"/>
  </linearGradient>
 </defs>
 <path style="fill:currentColor" class="ColorScheme-Text" d="M 3.594 6.539 C 3.164 6.969 2.771 7.398 1.944 7.775 C 1.392 8.027 0.788 8.304 0.29 8.715 C -0.191 8.996 -0.015 9.452 0.395 9.467 L 3.923 9.467 C 3.64 9.73 3.484 6.93 3.594 6.539 Z"/>
 <path style="fill:currentColor" class="ColorScheme-Text" d="M 12.134 2.09 Q 12.138 2.076 12.141 2.063 Q 13.453 2.453 13.313 3.125 C 13.172 3.797 12.74 3.693 12.234 3.672 C 11.742 3.586 11.695 4.504 11.945 5.008 C 12.195 5.512 12.375 5.756 12.614 6.028 C 13.782 7.349 14.869 9.01 15.92 10.551 C 16.107 10.89 15.955 11.319 15.599 11.457 C 15.599 11.457 11.037 13.25 7.716 13.977 C 7.716 13.977 8.96 11.777 9.254 10.567 C 9.332 10.245 9.392 9.862 9.438 9.451 C 8.781 10.153 8.015 10.754 7.141 11.266 C 6.391 11.578 6.156 10.875 6.844 10.438 C 8.406 9.188 8.305 6.441 9.359 4.563 C 9.371 4.54 9.383 4.518 9.396 4.501 C 9.022 4.59 7.8 4.933 6.75 4.933 C 5.933 4.933 4.45 4.29 4.45 4.29 C 4.934 3.448 5.599 2.715 6.664 2.145 C 7.477 1.764 8.396 1.525 9.29 1.467 L 9.29 1.467 C 10.048 1.473 10.862 1.655 11.581 1.87 C 11.752 1.921 11.938 1.977 12.124 2.041 C 12.129 2.056 12.132 2.072 12.134 2.09 Z"/>
 <g opacity=".6">
  <path style="fill:currentColor" class="ColorScheme-Text" d="M 4.523 4.164 C 4.224 4.687 3.797 5.516 3.702 6.253 C 3.652 6.377 3.599 6.488 3.543 6.594 C 3.477 7.386 3.522 8.554 3.798 9.467 L 3.923 9.467 C 3.975 9.685 4.028 9.98 4.086 10.215 C 4.231 10.818 4.277 11.318 4.191 11.783 C 4.188 11.82 4.189 11.859 4.185 11.896 C 4.161 12.128 4.107 12.351 4.019 12.569 C 3.93 12.787 3.806 12.999 3.641 13.21 C 3.598 13.264 3.565 13.329 3.537 13.398 C 3.529 13.418 3.524 13.439 3.517 13.46 C 3.501 13.511 3.487 13.563 3.478 13.617 C 3.473 13.645 3.469 13.673 3.466 13.702 C 3.465 13.705 3.465 13.708 3.465 13.71 C 3.498 13.974 3.621 14.202 3.846 14.249 C 3.846 14.249 5.631 14.311 6.494 14.202 C 6.919 14.143 7.324 14.065 7.816 13.953 C 8.152 13.336 9.021 11.791 9.254 10.834 C 9.362 10.389 9.428 9.934 9.48 9.344 C 8.82 10.051 7.242 11.148 7.145 11.203 C 7.047 11.258 6.855 11.293 6.816 11.293 C 6.606 11.293 6.477 11.181 6.477 10.973 C 6.455 10.799 6.715 10.543 6.969 10.379 C 8.809 8.661 8.463 5.955 9.422 4.484 C 9.062 4.569 7.816 4.933 6.75 4.933 C 6.122 4.933 5.037 4.341 4.523 4.164 Z"/>
 </g>
 <circle fill="currentColor" cx="6.667" cy="6.533" r=".8" vector-effect="non-scaling-stroke"/>
</svg>
