<svg xmlns="http://www.w3.org/2000/svg" style="isolation:isolate" width="16" height="16" viewBox="0 0 16 16">
 <defs>
  <style id="current-color-scheme" type="text/css">
   .ColorScheme-Text { color:#d4be98; } .ColorScheme-Highlight { color:#5294e2; }
  </style>
  <linearGradient id="arrongin" x1="0%" x2="0%" y1="0%" y2="100%">
   <stop offset="0%" style="stop-color:#dd9b44; stop-opacity:1"/>
   <stop offset="100%" style="stop-color:#ad6c16; stop-opacity:1"/>
  </linearGradient>
  <linearGradient id="aurora" x1="0%" x2="0%" y1="0%" y2="100%">
   <stop offset="0%" style="stop-color:#09D4DF; stop-opacity:1"/>
   <stop offset="100%" style="stop-color:#9269F4; stop-opacity:1"/>
  </linearGradient>
  <linearGradient id="fitdance" x1="0%" x2="0%" y1="0%" y2="100%">
   <stop offset="0%" style="stop-color:#1AD6AB; stop-opacity:1"/>
   <stop offset="100%" style="stop-color:#329DB6; stop-opacity:1"/>
  </linearGradient>
  <linearGradient id="oomox" x1="0%" x2="0%" y1="0%" y2="100%">
   <stop offset="0%" style="stop-color:#efefe7; stop-opacity:1"/>
   <stop offset="100%" style="stop-color:#8f8f8b; stop-opacity:1"/>
  </linearGradient>
  <linearGradient id="rainblue" x1="0%" x2="0%" y1="0%" y2="100%">
   <stop offset="0%" style="stop-color:#00F260; stop-opacity:1"/>
   <stop offset="100%" style="stop-color:#0575E6; stop-opacity:1"/>
  </linearGradient>
  <linearGradient id="sunrise" x1="0%" x2="0%" y1="0%" y2="100%">
   <stop offset="0%" style="stop-color: #FF8501; stop-opacity:1"/>
   <stop offset="100%" style="stop-color: #FFCB01; stop-opacity:1"/>
  </linearGradient>
  <linearGradient id="telinkrin" x1="0%" x2="0%" y1="0%" y2="100%">
   <stop offset="0%" style="stop-color: #b2ced6; stop-opacity:1"/>
   <stop offset="100%" style="stop-color: #6da5b7; stop-opacity:1"/>
  </linearGradient>
  <linearGradient id="60spsycho" x1="0%" x2="0%" y1="0%" y2="100%">
   <stop offset="0%" style="stop-color: #df5940; stop-opacity:1"/>
   <stop offset="25%" style="stop-color: #d8d15f; stop-opacity:1"/>
   <stop offset="50%" style="stop-color: #e9882a; stop-opacity:1"/>
   <stop offset="100%" style="stop-color: #279362; stop-opacity:1"/>
  </linearGradient>
  <linearGradient id="90ssummer" x1="0%" x2="0%" y1="0%" y2="100%">
   <stop offset="0%" style="stop-color: #f618c7; stop-opacity:1"/>
   <stop offset="20%" style="stop-color: #94ffab; stop-opacity:1"/>
   <stop offset="50%" style="stop-color: #fbfd54; stop-opacity:1"/>
   <stop offset="100%" style="stop-color: #0f83ae; stop-opacity:1"/>
  </linearGradient>
  <clipPath id="_clipPath_iQBmmYePv40S5L8z5R5x7RBufk46ZXel">
   <rect width="16" height="16"/>
  </clipPath>
 </defs>
 <g clip-path="url(#_clipPath_iQBmmYePv40S5L8z5R5x7RBufk46ZXel)">
  <path style="fill:currentColor" class="ColorScheme-Text" d="M 3.998 1 C 2.74 1.015 1.82 0.97 1.067 1.385 C 0.678 1.607 0.38 1.961 0.229 2.383 C 0.064 2.821 0.004 3.343 0.004 4 L 0.004 10 C 0.004 10.658 0.064 11.179 0.229 11.617 C 0.394 12.056 0.69 12.407 1.067 12.615 C 1.82 13.031 2.74 12.985 3.998 13 L 12.002 13 C 13.26 12.985 14.182 13.03 14.934 12.615 C 15.323 12.393 15.621 12.039 15.772 11.617 C 15.936 11.179 15.996 10.657 15.996 10 L 15.996 4 C 15.996 3.342 15.936 2.821 15.772 2.383 C 15.621 1.961 15.323 1.607 14.934 1.385 C 14.181 0.969 13.26 1.015 12.002 1 L 3.998 1 Z M 4.008 2 L 12.008 2 C 13.267 2.015 14.096 2.06 14.462 2.262 C 14.645 2.362 14.751 2.474 14.848 2.734 C 14.945 2.994 15.008 3.408 15.008 4 L 15.008 10 C 15.008 10.592 14.945 11.006 14.848 11.266 C 14.75 11.526 14.645 11.637 14.461 11.738 C 14.095 11.94 13.267 11.985 12.008 12 L 4.004 12 C 2.746 11.985 1.915 11.94 1.549 11.738 C 1.366 11.638 1.262 11.526 1.164 11.266 C 1.066 11.006 1.004 10.592 1.004 10 L 1.004 4 C 1.004 3.408 1.067 2.994 1.164 2.734 C 1.262 2.474 1.366 2.363 1.549 2.262 C 1.915 2.06 2.746 2.015 4.004 2 L 4.008 2 Z"/>
  <path style="fill:currentColor" class="ColorScheme-Text" d="M 7.004 15 L 10.504 12.5 L 10.004 12 L 4.004 12 L 3.504 12.5 L 7.004 15 Z"/>
  <path style="fill:currentColor" class="ColorScheme-Text" d="M 3.202 9.374 L 7.461 4.689 L 9.59 6.818 L 13.423 4.689 L 9.164 9.374 L 7.035 7.244 L 3.202 9.374 Z"/>
 </g>
</svg>
