<svg xmlns="http://www.w3.org/2000/svg" style="isolation:isolate" width="16" height="16" viewBox="0 0 16 16">
 <defs>
  <style id="current-color-scheme" type="text/css">
   .ColorScheme-Text { color:#d4be98; } .ColorScheme-Highlight { color:#5294e2; }
  </style>
  <linearGradient id="arrongin" x1="0%" x2="0%" y1="0%" y2="100%">
   <stop offset="0%" style="stop-color:#dd9b44; stop-opacity:1"/>
   <stop offset="100%" style="stop-color:#ad6c16; stop-opacity:1"/>
  </linearGradient>
  <linearGradient id="aurora" x1="0%" x2="0%" y1="0%" y2="100%">
   <stop offset="0%" style="stop-color:#09D4DF; stop-opacity:1"/>
   <stop offset="100%" style="stop-color:#9269F4; stop-opacity:1"/>
  </linearGradient>
  <linearGradient id="fitdance" x1="0%" x2="0%" y1="0%" y2="100%">
   <stop offset="0%" style="stop-color:#1AD6AB; stop-opacity:1"/>
   <stop offset="100%" style="stop-color:#329DB6; stop-opacity:1"/>
  </linearGradient>
  <linearGradient id="oomox" x1="0%" x2="0%" y1="0%" y2="100%">
   <stop offset="0%" style="stop-color:#efefe7; stop-opacity:1"/>
   <stop offset="100%" style="stop-color:#8f8f8b; stop-opacity:1"/>
  </linearGradient>
  <linearGradient id="rainblue" x1="0%" x2="0%" y1="0%" y2="100%">
   <stop offset="0%" style="stop-color:#00F260; stop-opacity:1"/>
   <stop offset="100%" style="stop-color:#0575E6; stop-opacity:1"/>
  </linearGradient>
  <linearGradient id="sunrise" x1="0%" x2="0%" y1="0%" y2="100%">
   <stop offset="0%" style="stop-color: #FF8501; stop-opacity:1"/>
   <stop offset="100%" style="stop-color: #FFCB01; stop-opacity:1"/>
  </linearGradient>
  <linearGradient id="telinkrin" x1="0%" x2="0%" y1="0%" y2="100%">
   <stop offset="0%" style="stop-color: #b2ced6; stop-opacity:1"/>
   <stop offset="100%" style="stop-color: #6da5b7; stop-opacity:1"/>
  </linearGradient>
  <linearGradient id="60spsycho" x1="0%" x2="0%" y1="0%" y2="100%">
   <stop offset="0%" style="stop-color: #df5940; stop-opacity:1"/>
   <stop offset="25%" style="stop-color: #d8d15f; stop-opacity:1"/>
   <stop offset="50%" style="stop-color: #e9882a; stop-opacity:1"/>
   <stop offset="100%" style="stop-color: #279362; stop-opacity:1"/>
  </linearGradient>
  <linearGradient id="90ssummer" x1="0%" x2="0%" y1="0%" y2="100%">
   <stop offset="0%" style="stop-color: #f618c7; stop-opacity:1"/>
   <stop offset="20%" style="stop-color: #94ffab; stop-opacity:1"/>
   <stop offset="50%" style="stop-color: #fbfd54; stop-opacity:1"/>
   <stop offset="100%" style="stop-color: #0f83ae; stop-opacity:1"/>
  </linearGradient>
 </defs>
 <path style="fill:currentColor" class="ColorScheme-Text" fill-rule="evenodd" d="M 2.72 0.8 L 13.28 0.8 C 13.79 0.8 14.28 1 14.64 1.36 C 15 1.72 15.2 2.21 15.2 2.72 L 15.2 13.28 C 15.2 13.79 15 14.28 14.64 14.64 C 14.28 15 13.79 15.2 13.28 15.2 L 2.72 15.2 C 2.21 15.2 1.72 15 1.36 14.64 C 1 14.28 0.8 13.79 0.8 13.28 L 0.8 2.72 C 0.8 2.21 1 1.72 1.36 1.36 C 1.72 1 2.21 0.8 2.72 0.8 L 2.72 0.8 Z M 2.72 0 L 13.28 0 C 14.781 0 16 1.219 16 2.72 L 16 13.28 C 16 14.781 14.781 16 13.28 16 L 2.72 16 C 1.219 16 0 14.781 0 13.28 L 0 2.72 C 0 1.219 1.219 0 2.72 0 L 2.72 0 Z M 8 2 C 6.428 2.001 4.919 2.618 3.797 3.72 L 5.864 7.299 C 6.167 6.376 7.028 5.751 8 5.75 L 13.559 5.75 C 12.643 3.485 10.444 2.001 8 2 L 8 2 L 8 2 Z M 3.274 4.314 C 2.451 5.367 2.003 6.664 2 8 C 2.003 10.695 3.802 13.057 6.399 13.776 L 8.463 10.201 C 8.311 10.233 8.156 10.25 8 10.25 C 7.197 10.249 6.456 9.819 6.055 9.124 L 6.052 9.125 L 3.274 4.314 L 3.274 4.314 L 3.274 4.314 Z M 9.672 6.5 C 10.043 6.912 10.249 7.446 10.25 8 C 10.249 8.395 10.145 8.782 9.947 9.124 L 9.948 9.125 L 7.171 13.935 C 7.445 13.976 7.722 13.998 8 14 C 11.314 14 14 11.314 14 8 C 13.999 7.494 13.933 6.99 13.805 6.5 L 9.672 6.5 L 9.672 6.5 L 9.672 6.5 Z M 8 6.5 C 7.172 6.5 6.5 7.172 6.5 8 C 6.5 8.398 6.658 8.779 6.939 9.061 C 7.221 9.342 7.602 9.5 8 9.5 C 8.398 9.5 8.779 9.342 9.061 9.061 C 9.342 8.779 9.5 8.398 9.5 8 C 9.5 7.602 9.342 7.221 9.061 6.939 C 8.779 6.658 8.398 6.5 8 6.5 L 8 6.5 L 8 6.5 Z"/>
</svg>
