<svg xmlns="http://www.w3.org/2000/svg" style="isolation:isolate" width="16" height="16" viewBox="0 0 16 16">
 <defs>
  <style id="current-color-scheme" type="text/css">
   .ColorScheme-Text { color:#d4be98; } .ColorScheme-Highlight { color:#5294e2; }
  </style>
  <linearGradient id="arrongin" x1="0%" x2="0%" y1="0%" y2="100%">
   <stop offset="0%" style="stop-color:#dd9b44; stop-opacity:1"/>
   <stop offset="100%" style="stop-color:#ad6c16; stop-opacity:1"/>
  </linearGradient>
  <linearGradient id="aurora" x1="0%" x2="0%" y1="0%" y2="100%">
   <stop offset="0%" style="stop-color:#09D4DF; stop-opacity:1"/>
   <stop offset="100%" style="stop-color:#9269F4; stop-opacity:1"/>
  </linearGradient>
  <linearGradient id="fitdance" x1="0%" x2="0%" y1="0%" y2="100%">
   <stop offset="0%" style="stop-color:#1AD6AB; stop-opacity:1"/>
   <stop offset="100%" style="stop-color:#329DB6; stop-opacity:1"/>
  </linearGradient>
  <linearGradient id="oomox" x1="0%" x2="0%" y1="0%" y2="100%">
   <stop offset="0%" style="stop-color:#efefe7; stop-opacity:1"/>
   <stop offset="100%" style="stop-color:#8f8f8b; stop-opacity:1"/>
  </linearGradient>
  <linearGradient id="rainblue" x1="0%" x2="0%" y1="0%" y2="100%">
   <stop offset="0%" style="stop-color:#00F260; stop-opacity:1"/>
   <stop offset="100%" style="stop-color:#0575E6; stop-opacity:1"/>
  </linearGradient>
  <linearGradient id="sunrise" x1="0%" x2="0%" y1="0%" y2="100%">
   <stop offset="0%" style="stop-color: #FF8501; stop-opacity:1"/>
   <stop offset="100%" style="stop-color: #FFCB01; stop-opacity:1"/>
  </linearGradient>
  <linearGradient id="telinkrin" x1="0%" x2="0%" y1="0%" y2="100%">
   <stop offset="0%" style="stop-color: #b2ced6; stop-opacity:1"/>
   <stop offset="100%" style="stop-color: #6da5b7; stop-opacity:1"/>
  </linearGradient>
  <linearGradient id="60spsycho" x1="0%" x2="0%" y1="0%" y2="100%">
   <stop offset="0%" style="stop-color: #df5940; stop-opacity:1"/>
   <stop offset="25%" style="stop-color: #d8d15f; stop-opacity:1"/>
   <stop offset="50%" style="stop-color: #e9882a; stop-opacity:1"/>
   <stop offset="100%" style="stop-color: #279362; stop-opacity:1"/>
  </linearGradient>
  <linearGradient id="90ssummer" x1="0%" x2="0%" y1="0%" y2="100%">
   <stop offset="0%" style="stop-color: #f618c7; stop-opacity:1"/>
   <stop offset="20%" style="stop-color: #94ffab; stop-opacity:1"/>
   <stop offset="50%" style="stop-color: #fbfd54; stop-opacity:1"/>
   <stop offset="100%" style="stop-color: #0f83ae; stop-opacity:1"/>
  </linearGradient>
 </defs>
 <path style="fill:currentColor" class="ColorScheme-Text" fill-rule="evenodd" d="M 5.308 7.117 L 1.6 4.8 L 1.6 12.8 L 14.4 12.8 L 14.4 12.8 L 14.4 4.8 L 10.87 7.006 L 10.87 6.92 C 10.87 6.457 10.751 6.012 10.53 5.619 L 14.4 3.2 L 1.6 3.2 L 5.781 5.813 C 5.624 6.156 5.54 6.532 5.54 6.92 L 5.54 7.04 C 5.459 7.057 5.381 7.083 5.308 7.117 L 5.308 7.117 Z M 14.4 1.6 L 1.6 1.6 C 0.72 1.6 0.008 2.32 0.008 3.2 L 0 12.8 C 0 13.68 0.72 14.4 1.6 14.4 L 14.4 14.4 C 15.28 14.4 16 13.68 16 12.8 L 16 3.2 C 16 2.32 15.28 1.6 14.4 1.6 L 14.4 1.6 L 14.4 1.6 Z M 8.208 9.149 C 8.501 9.149 8.738 9.386 8.738 9.68 C 8.738 9.853 8.654 10.004 8.526 10.101 L 8.526 10.528 C 8.526 10.703 8.383 10.846 8.208 10.846 C 8.033 10.846 7.889 10.703 7.889 10.528 L 7.889 10.101 C 7.756 10.002 7.678 9.846 7.677 9.68 C 7.677 9.386 7.914 9.149 8.208 9.149 L 8.208 9.149 L 8.208 9.149 L 8.208 9.149 Z M 8.208 6.179 C 8.61 6.179 8.95 6.519 8.95 6.922 L 8.95 7.664 L 7.465 7.664 L 7.465 6.922 C 7.465 6.519 7.805 6.179 8.208 6.179 L 8.208 6.179 Z M 8.208 4.906 C 7.098 4.906 6.192 5.812 6.192 6.922 L 6.192 7.664 L 5.768 7.664 C 5.534 7.664 5.344 7.855 5.344 8.088 L 5.344 11.695 C 5.344 11.929 5.534 12.119 5.768 12.119 L 10.647 12.119 C 10.881 12.119 11.072 11.929 11.072 11.695 L 11.072 8.088 C 11.072 7.855 10.881 7.664 10.647 7.664 L 10.223 7.664 L 10.223 6.922 C 10.223 5.812 9.317 4.906 8.208 4.906 L 8.208 4.906 L 8.208 4.906 L 8.208 4.906 Z"/>
</svg>
