<svg xmlns="http://www.w3.org/2000/svg" style="isolation:isolate" width="16" height="16" viewBox="0 0 16 16">
 <defs>
  <style id="current-color-scheme" type="text/css">
   .ColorScheme-Text { color:#d4be98; } .ColorScheme-Highlight { color:#5294e2; }
  </style>
  <linearGradient id="arrongin" x1="0%" x2="0%" y1="0%" y2="100%">
   <stop offset="0%" style="stop-color:#dd9b44; stop-opacity:1"/>
   <stop offset="100%" style="stop-color:#ad6c16; stop-opacity:1"/>
  </linearGradient>
  <linearGradient id="aurora" x1="0%" x2="0%" y1="0%" y2="100%">
   <stop offset="0%" style="stop-color:#09D4DF; stop-opacity:1"/>
   <stop offset="100%" style="stop-color:#9269F4; stop-opacity:1"/>
  </linearGradient>
  <linearGradient id="fitdance" x1="0%" x2="0%" y1="0%" y2="100%">
   <stop offset="0%" style="stop-color:#1AD6AB; stop-opacity:1"/>
   <stop offset="100%" style="stop-color:#329DB6; stop-opacity:1"/>
  </linearGradient>
  <linearGradient id="oomox" x1="0%" x2="0%" y1="0%" y2="100%">
   <stop offset="0%" style="stop-color:#efefe7; stop-opacity:1"/>
   <stop offset="100%" style="stop-color:#8f8f8b; stop-opacity:1"/>
  </linearGradient>
  <linearGradient id="rainblue" x1="0%" x2="0%" y1="0%" y2="100%">
   <stop offset="0%" style="stop-color:#00F260; stop-opacity:1"/>
   <stop offset="100%" style="stop-color:#0575E6; stop-opacity:1"/>
  </linearGradient>
  <linearGradient id="sunrise" x1="0%" x2="0%" y1="0%" y2="100%">
   <stop offset="0%" style="stop-color: #FF8501; stop-opacity:1"/>
   <stop offset="100%" style="stop-color: #FFCB01; stop-opacity:1"/>
  </linearGradient>
  <linearGradient id="telinkrin" x1="0%" x2="0%" y1="0%" y2="100%">
   <stop offset="0%" style="stop-color: #b2ced6; stop-opacity:1"/>
   <stop offset="100%" style="stop-color: #6da5b7; stop-opacity:1"/>
  </linearGradient>
  <linearGradient id="60spsycho" x1="0%" x2="0%" y1="0%" y2="100%">
   <stop offset="0%" style="stop-color: #df5940; stop-opacity:1"/>
   <stop offset="25%" style="stop-color: #d8d15f; stop-opacity:1"/>
   <stop offset="50%" style="stop-color: #e9882a; stop-opacity:1"/>
   <stop offset="100%" style="stop-color: #279362; stop-opacity:1"/>
  </linearGradient>
  <linearGradient id="90ssummer" x1="0%" x2="0%" y1="0%" y2="100%">
   <stop offset="0%" style="stop-color: #f618c7; stop-opacity:1"/>
   <stop offset="20%" style="stop-color: #94ffab; stop-opacity:1"/>
   <stop offset="50%" style="stop-color: #fbfd54; stop-opacity:1"/>
   <stop offset="100%" style="stop-color: #0f83ae; stop-opacity:1"/>
  </linearGradient>
 </defs>
 <path style="fill:currentColor" class="ColorScheme-Text" d="M 6 2 C 2.667 2 0 4.667 0 8 C 0 11.333 2.667 14 6 14 C 9.333 14 12 11.333 12 8 C 12 4.667 9.333 2 6 2 Z M 9.604 2.209 C 11.525 3.509 12.674 5.68 12.667 8 C 12.674 10.32 11.526 12.492 9.604 13.792 C 12.138 13.057 14 10.799 14 8 C 14 5.2 12.138 2.943 9.604 2.208 L 9.604 2.209 Z M 11.604 2.209 C 13.525 3.509 14.674 5.68 14.667 8 C 14.674 10.32 13.526 12.492 11.604 13.792 C 14.138 13.057 16 10.799 16 8 C 16 5.2 14.138 2.943 11.604 2.208 L 11.604 2.209 Z M 5.792 3.333 L 6.541 3.333 L 6.541 4.396 C 7.011 4.45 7.438 4.691 7.729 5.063 C 7.995 5.396 8.209 5.943 8.209 6.541 L 6.791 6.541 C 6.791 6.208 6.737 5.867 6.605 5.667 C 6.471 5.467 6.328 5.458 6.063 5.458 C 5.862 5.458 5.672 5.529 5.604 5.729 C 5.509 5.939 5.459 6.166 5.458 6.396 C 5.458 6.596 5.537 6.805 5.605 6.937 C 5.737 7.071 5.938 7.257 6.271 7.458 C 6.938 7.724 7.401 8 7.667 8.333 C 8 8.667 8.125 9.13 8.125 9.729 C 8.125 10.263 8 10.729 7.667 11.063 C 7.333 11.396 6.93 11.599 6.396 11.667 L 6.396 12.667 L 5.729 12.667 L 5.729 11.667 C 5.195 11.599 4.729 11.401 4.396 11 C 4.063 10.667 3.875 10.13 3.875 9.396 L 5.208 9.396 C 5.208 9.797 5.258 10.133 5.458 10.333 C 5.591 10.533 5.797 10.667 6.063 10.667 C 6.328 10.667 6.471 10.597 6.604 10.396 C 6.737 10.263 6.791 9.995 6.791 9.729 C 6.791 9.463 6.737 9.263 6.605 9.063 C 6.471 8.929 6.265 8.737 6 8.604 C 5.333 8.339 4.875 8.063 4.541 7.729 C 4.208 7.396 4.063 6.932 4.063 6.333 C 4.063 5.8 4.208 5.333 4.541 5 C 4.875 4.667 5.258 4.396 5.791 4.396 L 5.792 3.333 Z"/>
</svg>
