<svg xmlns="http://www.w3.org/2000/svg" style="isolation:isolate" width="16" height="16" viewBox="0 0 16 16">
 <defs>
  <style id="current-color-scheme" type="text/css">
   .ColorScheme-Text { color:#d4be98; } .ColorScheme-Highlight { color:#5294e2; }
  </style>
  <linearGradient id="arrongin" x1="0%" x2="0%" y1="0%" y2="100%">
   <stop offset="0%" style="stop-color:#dd9b44; stop-opacity:1"/>
   <stop offset="100%" style="stop-color:#ad6c16; stop-opacity:1"/>
  </linearGradient>
  <linearGradient id="aurora" x1="0%" x2="0%" y1="0%" y2="100%">
   <stop offset="0%" style="stop-color:#09D4DF; stop-opacity:1"/>
   <stop offset="100%" style="stop-color:#9269F4; stop-opacity:1"/>
  </linearGradient>
  <linearGradient id="fitdance" x1="0%" x2="0%" y1="0%" y2="100%">
   <stop offset="0%" style="stop-color:#1AD6AB; stop-opacity:1"/>
   <stop offset="100%" style="stop-color:#329DB6; stop-opacity:1"/>
  </linearGradient>
  <linearGradient id="oomox" x1="0%" x2="0%" y1="0%" y2="100%">
   <stop offset="0%" style="stop-color:#efefe7; stop-opacity:1"/>
   <stop offset="100%" style="stop-color:#8f8f8b; stop-opacity:1"/>
  </linearGradient>
  <linearGradient id="rainblue" x1="0%" x2="0%" y1="0%" y2="100%">
   <stop offset="0%" style="stop-color:#00F260; stop-opacity:1"/>
   <stop offset="100%" style="stop-color:#0575E6; stop-opacity:1"/>
  </linearGradient>
  <linearGradient id="sunrise" x1="0%" x2="0%" y1="0%" y2="100%">
   <stop offset="0%" style="stop-color: #FF8501; stop-opacity:1"/>
   <stop offset="100%" style="stop-color: #FFCB01; stop-opacity:1"/>
  </linearGradient>
  <linearGradient id="telinkrin" x1="0%" x2="0%" y1="0%" y2="100%">
   <stop offset="0%" style="stop-color: #b2ced6; stop-opacity:1"/>
   <stop offset="100%" style="stop-color: #6da5b7; stop-opacity:1"/>
  </linearGradient>
  <linearGradient id="60spsycho" x1="0%" x2="0%" y1="0%" y2="100%">
   <stop offset="0%" style="stop-color: #df5940; stop-opacity:1"/>
   <stop offset="25%" style="stop-color: #d8d15f; stop-opacity:1"/>
   <stop offset="50%" style="stop-color: #e9882a; stop-opacity:1"/>
   <stop offset="100%" style="stop-color: #279362; stop-opacity:1"/>
  </linearGradient>
  <linearGradient id="90ssummer" x1="0%" x2="0%" y1="0%" y2="100%">
   <stop offset="0%" style="stop-color: #f618c7; stop-opacity:1"/>
   <stop offset="20%" style="stop-color: #94ffab; stop-opacity:1"/>
   <stop offset="50%" style="stop-color: #fbfd54; stop-opacity:1"/>
   <stop offset="100%" style="stop-color: #0f83ae; stop-opacity:1"/>
  </linearGradient>
  <clipPath id="_clipPath_JSfSSIK2HzOp5dixcFx80fdhrURdjoom">
   <rect width="16" height="16"/>
  </clipPath>
 </defs>
 <g clip-path="url(#_clipPath_JSfSSIK2HzOp5dixcFx80fdhrURdjoom)">
  <rect style="fill:currentColor" class="ColorScheme-Text" fill-opacity="0" width="16" height="16"/>
  <path style="fill:currentColor" class="ColorScheme-Text" d="M 14.718 5.76 L 16 2.4 C 16 1.04 14.96 0 13.6 0 L 2.4 0 C 1.04 0 0 1.04 0 2.4 L 1.04 5.282 C 0.4 5.759 0 6.482 0 7.359 L 0 16 L 16 16 L 16 8 C 16 7.118 15.518 6.318 14.718 5.76 Z M 1.6 8 L 1.6 7.36 C 1.6 6.56 2.8 5.918 3.84 6.24 L 4.64 6.482 L 4.882 5.682 C 5.04 5.2 5.682 4.8 6.4 4.8 C 6.96 4.8 7.518 5.04 7.76 5.44 L 8.16 5.918 L 8.8 5.682 C 9.76 5.2 10.96 5.682 11.2 6.4 L 11.44 7.2 L 12.24 6.96 C 13.2 6.56 14.4 7.2 14.4 8 L 1.6 8 Z M 8.8 10.4 C 8.8 10.882 8.482 11.2 8 11.2 C 7.518 11.2 7.2 10.882 7.2 10.4 C 7.2 9.918 7.518 9.6 8 9.6 C 8.482 9.6 8.8 9.918 8.8 10.4 Z M 14.56 2.4 L 13.36 5.282 C 13.2 5.282 12.96 5.2 12.8 5.2 L 12.318 5.2 C 11.759 4.4 10.718 3.84 9.6 3.84 C 9.282 3.84 8.96 3.918 8.64 4 C 8.082 3.518 7.282 3.2 6.4 3.2 C 5.282 3.2 4.24 3.76 3.682 4.56 L 3.2 4.56 C 2.882 4.56 2.64 4.64 2.318 4.64 L 1.441 2.4 L 14.56 2.4 Z M 3.2 14.4 C 3.2 13.518 2.482 12.8 1.6 12.8 L 1.6 9.6 L 5.6 9.6 L 5.6 11.2 C 5.6 12.082 6.318 12.8 7.2 12.8 L 8.8 12.8 C 9.682 12.8 10.4 12.082 10.4 11.2 L 10.4 9.6 L 14.4 9.6 L 14.4 12.8 C 13.518 12.8 12.8 13.518 12.8 14.4 L 3.2 14.4 Z"/>
 </g>
</svg>
