<svg xmlns="http://www.w3.org/2000/svg" width="16" height="16" version="1.1">
 <defs>
  <style id="current-color-scheme" type="text/css">
   .ColorScheme-Text { color:#d4be98; } .ColorScheme-Highlight { color:#5294e2; }
  </style>
  <linearGradient id="arrongin" x1="0%" x2="0%" y1="0%" y2="100%">
   <stop offset="0%" style="stop-color:#dd9b44; stop-opacity:1"/>
   <stop offset="100%" style="stop-color:#ad6c16; stop-opacity:1"/>
  </linearGradient>
  <linearGradient id="aurora" x1="0%" x2="0%" y1="0%" y2="100%">
   <stop offset="0%" style="stop-color:#09D4DF; stop-opacity:1"/>
   <stop offset="100%" style="stop-color:#9269F4; stop-opacity:1"/>
  </linearGradient>
  <linearGradient id="fitdance" x1="0%" x2="0%" y1="0%" y2="100%">
   <stop offset="0%" style="stop-color:#1AD6AB; stop-opacity:1"/>
   <stop offset="100%" style="stop-color:#329DB6; stop-opacity:1"/>
  </linearGradient>
  <linearGradient id="oomox" x1="0%" x2="0%" y1="0%" y2="100%">
   <stop offset="0%" style="stop-color:#efefe7; stop-opacity:1"/>
   <stop offset="100%" style="stop-color:#8f8f8b; stop-opacity:1"/>
  </linearGradient>
  <linearGradient id="rainblue" x1="0%" x2="0%" y1="0%" y2="100%">
   <stop offset="0%" style="stop-color:#00F260; stop-opacity:1"/>
   <stop offset="100%" style="stop-color:#0575E6; stop-opacity:1"/>
  </linearGradient>
  <linearGradient id="sunrise" x1="0%" x2="0%" y1="0%" y2="100%">
   <stop offset="0%" style="stop-color: #FF8501; stop-opacity:1"/>
   <stop offset="100%" style="stop-color: #FFCB01; stop-opacity:1"/>
  </linearGradient>
  <linearGradient id="telinkrin" x1="0%" x2="0%" y1="0%" y2="100%">
   <stop offset="0%" style="stop-color: #b2ced6; stop-opacity:1"/>
   <stop offset="100%" style="stop-color: #6da5b7; stop-opacity:1"/>
  </linearGradient>
  <linearGradient id="60spsycho" x1="0%" x2="0%" y1="0%" y2="100%">
   <stop offset="0%" style="stop-color: #df5940; stop-opacity:1"/>
   <stop offset="25%" style="stop-color: #d8d15f; stop-opacity:1"/>
   <stop offset="50%" style="stop-color: #e9882a; stop-opacity:1"/>
   <stop offset="100%" style="stop-color: #279362; stop-opacity:1"/>
  </linearGradient>
  <linearGradient id="90ssummer" x1="0%" x2="0%" y1="0%" y2="100%">
   <stop offset="0%" style="stop-color: #f618c7; stop-opacity:1"/>
   <stop offset="20%" style="stop-color: #94ffab; stop-opacity:1"/>
   <stop offset="50%" style="stop-color: #fbfd54; stop-opacity:1"/>
   <stop offset="100%" style="stop-color: #0f83ae; stop-opacity:1"/>
  </linearGradient>
  <filter id="filter7554" style="color-interpolation-filters:sRGB">
   <feBlend in2="BackgroundImage" mode="darken"/>
  </filter>
 </defs>
 <g style="filter:url(#filter7554);enable-background:new;fill:#d4be98" transform="translate(-324.86451,154.86049)">
  <path style="fill:currentColor" class="ColorScheme-Text" d="M 7.0019531 1.9980469 L 7.0019531 2.0019531 L 2.0019531 2.0019531 C 2.0019531 2.0019531 1.0019531 2.0019531 1.0019531 3.0019531 L 1.0019531 13.001953 C 1.0019531 14.001953 2.0019531 14.001953 2.0019531 14.001953 L 7.0058594 14.001953 L 7.0058594 13.998047 L 10.001953 13.998047 L 10.005859 13.998047 L 14.001953 14.001953 C 15.005313 14.002933 15.001953 13.001953 15.001953 13.001953 L 15.001953 3.0019531 C 15.001953 3.0019531 15.004953 2.0029331 14.001953 2.0019531 L 10.005859 1.9980469 L 10.001953 1.9980469 L 7.0019531 1.9980469 z M 2.0058594 2.9980469 L 3.9511719 2.9980469 L 7.0019531 2.9980469 L 10.005859 2.9980469 L 11.001953 2.9980469 L 14.005859 2.9980469 L 14.005859 12.998047 L 11.001953 12.998047 L 10.005859 12.998047 L 9.515625 12.998047 L 6.4277344 8.2773438 L 9.4023438 8.2773438 L 4 4 L 4 10.884766 L 5.8066406 8.6230469 L 7.6484375 12.998047 L 7.0019531 12.998047 L 3.9511719 12.998047 L 2.0058594 12.998047 L 2.0058594 2.9980469 z" transform="translate(324.86451,-154.86049)"/>
 </g>
</svg>
