<svg xmlns="http://www.w3.org/2000/svg" style="isolation:isolate" width="16" height="16" viewBox="0 0 16 16">
 <defs>
  <style id="current-color-scheme" type="text/css">
   .ColorScheme-Text { color:#d4be98; } .ColorScheme-Highlight { color:#5294e2; }
  </style>
  <linearGradient id="arrongin" x1="0%" x2="0%" y1="0%" y2="100%">
   <stop offset="0%" style="stop-color:#dd9b44; stop-opacity:1"/>
   <stop offset="100%" style="stop-color:#ad6c16; stop-opacity:1"/>
  </linearGradient>
  <linearGradient id="aurora" x1="0%" x2="0%" y1="0%" y2="100%">
   <stop offset="0%" style="stop-color:#09D4DF; stop-opacity:1"/>
   <stop offset="100%" style="stop-color:#9269F4; stop-opacity:1"/>
  </linearGradient>
  <linearGradient id="fitdance" x1="0%" x2="0%" y1="0%" y2="100%">
   <stop offset="0%" style="stop-color:#1AD6AB; stop-opacity:1"/>
   <stop offset="100%" style="stop-color:#329DB6; stop-opacity:1"/>
  </linearGradient>
  <linearGradient id="oomox" x1="0%" x2="0%" y1="0%" y2="100%">
   <stop offset="0%" style="stop-color:#efefe7; stop-opacity:1"/>
   <stop offset="100%" style="stop-color:#8f8f8b; stop-opacity:1"/>
  </linearGradient>
  <linearGradient id="rainblue" x1="0%" x2="0%" y1="0%" y2="100%">
   <stop offset="0%" style="stop-color:#00F260; stop-opacity:1"/>
   <stop offset="100%" style="stop-color:#0575E6; stop-opacity:1"/>
  </linearGradient>
  <linearGradient id="sunrise" x1="0%" x2="0%" y1="0%" y2="100%">
   <stop offset="0%" style="stop-color: #FF8501; stop-opacity:1"/>
   <stop offset="100%" style="stop-color: #FFCB01; stop-opacity:1"/>
  </linearGradient>
  <linearGradient id="telinkrin" x1="0%" x2="0%" y1="0%" y2="100%">
   <stop offset="0%" style="stop-color: #b2ced6; stop-opacity:1"/>
   <stop offset="100%" style="stop-color: #6da5b7; stop-opacity:1"/>
  </linearGradient>
  <linearGradient id="60spsycho" x1="0%" x2="0%" y1="0%" y2="100%">
   <stop offset="0%" style="stop-color: #df5940; stop-opacity:1"/>
   <stop offset="25%" style="stop-color: #d8d15f; stop-opacity:1"/>
   <stop offset="50%" style="stop-color: #e9882a; stop-opacity:1"/>
   <stop offset="100%" style="stop-color: #279362; stop-opacity:1"/>
  </linearGradient>
  <linearGradient id="90ssummer" x1="0%" x2="0%" y1="0%" y2="100%">
   <stop offset="0%" style="stop-color: #f618c7; stop-opacity:1"/>
   <stop offset="20%" style="stop-color: #94ffab; stop-opacity:1"/>
   <stop offset="50%" style="stop-color: #fbfd54; stop-opacity:1"/>
   <stop offset="100%" style="stop-color: #0f83ae; stop-opacity:1"/>
  </linearGradient>
  <clipPath id="_clipPath_qLp8g79IQOGzeu1QjyGXRGWhAVa7vmsw">
   <rect width="16" height="16"/>
  </clipPath>
 </defs>
 <g clip-path="url(#_clipPath_qLp8g79IQOGzeu1QjyGXRGWhAVa7vmsw)">
  <rect style="fill:#000000" fill-opacity="0" width="16" height="16"/>
  <path style="fill:currentColor" class="ColorScheme-Text" fill-rule="evenodd" d="M 10.779 15.961 C 10.571 15.858 10.397 15.703 10.177 15.424 C 9.995 15.193 9.919 15.102 9.818 14.991 C 9.725 14.888 9.692 14.77 9.665 14.434 C 9.654 14.296 9.645 14.241 9.628 14.213 C 9.615 14.192 9.605 14.155 9.605 14.129 C 9.605 14.083 9.603 14.082 9.512 14.039 C 9.437 14.003 9.415 13.985 9.39 13.944 C 9.374 13.916 9.305 13.713 9.237 13.493 C 9.081 12.986 8.95 12.599 8.902 12.5 C 8.865 12.427 8.864 12.42 8.879 12.367 C 8.888 12.336 8.925 12.266 8.961 12.212 L 9.027 12.113 L 9.009 12.007 C 8.98 11.836 8.967 11.674 8.958 11.359 C 8.949 11.004 8.954 11.019 8.761 10.84 C 8.687 10.771 8.606 10.682 8.573 10.633 C 8.46 10.464 8.301 10.122 8.185 9.797 C 8.106 9.574 8.098 9.558 8.052 9.539 C 7.91 9.48 7.801 9.664 7.661 10.199 C 7.577 10.521 7.46 10.723 7.229 10.941 C 7.068 11.093 7.068 11.091 7.089 11.506 C 7.096 11.645 7.093 11.745 7.078 11.905 C 7.058 12.109 7.058 12.12 7.079 12.132 C 7.124 12.157 7.209 12.245 7.232 12.289 C 7.284 12.391 7.282 12.399 6.956 13.21 L 6.656 13.954 L 6.59 13.981 C 6.554 13.996 6.495 14.014 6.459 14.022 C 6.397 14.035 6.395 14.037 6.395 14.075 C 6.395 14.097 6.39 14.12 6.384 14.127 C 6.378 14.133 6.37 14.21 6.366 14.298 C 6.363 14.386 6.351 14.507 6.34 14.567 C 6.3 14.785 6.247 14.883 6.112 14.983 C 6.068 15.015 5.999 15.067 5.958 15.097 C 5.917 15.127 5.757 15.266 5.601 15.405 C 5.197 15.769 5.157 15.794 4.999 15.792 C 4.877 15.79 4.792 15.767 4.775 15.731 C 4.751 15.684 4.755 15.488 4.784 15.309 C 4.828 15.039 4.918 14.763 5.17 14.132 L 5.32 13.757 L 5.277 13.653 C 5.233 13.548 5.233 13.548 5.235 13.364 C 5.236 13.197 5.241 13.153 5.292 12.902 C 5.362 12.557 5.443 12.101 5.461 11.952 C 5.469 11.89 5.483 11.826 5.493 11.81 C 5.516 11.772 5.576 11.737 5.633 11.728 C 5.678 11.72 5.681 11.717 5.706 11.639 C 5.749 11.504 5.798 11.409 5.952 11.155 C 6.098 10.915 6.1 10.91 6.113 10.809 C 6.12 10.753 6.125 10.616 6.123 10.504 C 6.116 9.972 6.122 9.913 6.218 9.625 C 6.315 9.331 6.499 8.928 6.718 8.534 C 6.79 8.403 6.798 8.381 6.806 8.294 C 6.822 8.123 6.919 7.795 7.053 7.463 L 7.108 7.325 L 7.089 7.267 C 7.071 7.215 7.071 7.206 7.089 7.172 C 7.106 7.139 7.106 7.122 7.088 6.99 L 7.068 6.845 L 6.915 6.693 C 6.832 6.61 6.759 6.545 6.753 6.549 C 6.735 6.559 6.657 6.726 6.611 6.85 C 6.565 6.972 6.538 7.01 6.436 7.086 C 6.387 7.122 6.368 7.147 6.352 7.192 C 6.309 7.313 6.3 7.327 6.241 7.355 C 6.209 7.371 6.144 7.389 6.096 7.397 C 6.014 7.41 6.007 7.413 5.959 7.47 C 5.895 7.546 5.872 7.558 5.721 7.588 C 5.599 7.613 5.598 7.613 5.506 7.59 C 5.455 7.577 5.364 7.546 5.304 7.521 C 5.172 7.467 4.883 7.312 4.765 7.231 C 4.718 7.199 4.656 7.167 4.627 7.159 C 4.57 7.144 4.449 7.058 4.39 6.99 C 4.349 6.944 4.349 6.943 4.372 6.832 C 4.378 6.801 4.37 6.779 4.329 6.716 C 4.271 6.626 4.267 6.591 4.31 6.548 C 4.327 6.532 4.341 6.508 4.341 6.496 C 4.341 6.484 4.316 6.433 4.285 6.383 C 4.223 6.279 4.219 6.253 4.256 6.188 C 4.283 6.143 4.283 6.142 4.261 6.05 C 4.237 5.946 4.244 5.916 4.31 5.855 C 4.328 5.838 4.37 5.787 4.403 5.742 C 4.515 5.591 4.627 5.588 4.824 5.728 C 4.879 5.767 4.886 5.769 4.905 5.751 C 4.936 5.723 5.035 5.726 5.1 5.758 C 5.148 5.781 5.159 5.795 5.207 5.896 C 5.236 5.958 5.272 6.042 5.287 6.082 L 5.313 6.156 L 5.506 6.158 C 5.613 6.159 5.715 6.166 5.733 6.173 C 5.764 6.185 5.768 6.183 5.774 6.153 C 5.795 6.052 5.811 6.017 5.859 5.968 L 5.912 5.916 L 5.91 5.826 C 5.909 5.744 5.912 5.73 5.95 5.67 C 5.987 5.609 5.989 5.6 5.978 5.554 C 5.955 5.459 5.949 5.333 5.964 5.257 C 6.002 5.072 6.208 4.809 6.345 4.772 C 6.44 4.747 6.591 4.735 6.836 4.733 L 7.086 4.732 L 7.11 4.678 C 7.142 4.605 7.169 4.593 7.241 4.619 L 7.299 4.64 L 7.376 4.568 L 7.454 4.496 L 7.465 4.336 C 7.471 4.248 7.48 4.158 7.483 4.136 C 7.49 4.099 7.488 4.096 7.458 4.096 C 7.44 4.096 7.405 4.085 7.38 4.072 C 7.356 4.059 7.283 4.028 7.219 4.003 C 6.985 3.913 6.76 3.78 6.576 3.623 C 6.489 3.549 6.374 3.423 6.384 3.413 C 6.387 3.411 6.45 3.419 6.524 3.432 C 6.665 3.456 6.776 3.463 6.776 3.447 C 6.776 3.442 6.746 3.413 6.709 3.384 C 6.672 3.354 6.589 3.277 6.526 3.211 L 6.411 3.092 L 6.286 2.718 C 6.217 2.512 6.161 2.338 6.161 2.332 C 6.161 2.327 6.196 2.355 6.24 2.396 C 6.283 2.436 6.355 2.495 6.399 2.527 C 6.483 2.587 6.69 2.697 6.7 2.688 C 6.703 2.684 6.685 2.65 6.659 2.611 C 6.589 2.505 6.472 2.278 6.438 2.18 C 6.422 2.133 6.402 2.059 6.395 2.016 C 6.38 1.923 6.378 1.144 6.392 1.144 C 6.398 1.144 6.43 1.183 6.463 1.232 C 6.535 1.337 6.69 1.501 6.718 1.501 C 6.729 1.501 6.798 1.531 6.871 1.568 C 6.944 1.605 7.006 1.636 7.01 1.636 C 7.013 1.636 7.014 1.583 7.012 1.518 C 7.003 1.263 7.035 1.179 7.313 0.715 L 7.471 0.452 L 7.479 0.672 C 7.484 0.812 7.493 0.91 7.504 0.941 C 7.52 0.987 7.634 1.155 7.65 1.156 C 7.654 1.156 7.667 1.123 7.679 1.083 C 7.716 0.96 7.797 0.838 7.953 0.674 C 8.033 0.59 8.115 0.491 8.135 0.454 C 8.171 0.389 8.172 0.382 8.176 0.194 C 8.178 0.087 8.184 0 8.188 0 C 8.193 0 8.23 0.037 8.27 0.082 C 8.553 0.398 8.755 0.673 8.864 0.892 C 8.935 1.034 8.953 1.104 8.953 1.244 C 8.953 1.311 8.956 1.365 8.961 1.365 C 8.981 1.365 9.13 1.248 9.208 1.17 C 9.305 1.074 9.355 1.007 9.407 0.901 L 9.443 0.831 L 9.45 0.886 C 9.454 0.916 9.477 1.14 9.501 1.384 C 9.548 1.867 9.547 1.892 9.486 2.004 C 9.47 2.033 9.459 2.06 9.461 2.062 C 9.473 2.074 9.675 1.918 9.746 1.844 C 9.79 1.797 9.826 1.765 9.826 1.774 C 9.826 1.782 9.807 1.966 9.783 2.183 C 9.751 2.471 9.731 2.604 9.709 2.678 C 9.68 2.773 9.674 2.783 9.598 2.85 C 9.553 2.889 9.523 2.923 9.53 2.925 C 9.553 2.933 9.749 2.832 9.8 2.786 C 9.828 2.761 9.851 2.745 9.851 2.752 C 9.851 2.782 9.65 3.32 9.623 3.36 C 9.606 3.386 9.535 3.446 9.456 3.501 C 9.33 3.589 9.321 3.598 9.354 3.601 C 9.373 3.603 9.434 3.597 9.488 3.587 C 9.542 3.578 9.589 3.572 9.592 3.575 C 9.601 3.583 9.282 3.899 9.246 3.918 C 9.228 3.928 9.136 3.957 9.041 3.984 C 8.927 4.016 8.853 4.043 8.825 4.065 C 8.801 4.083 8.759 4.101 8.731 4.105 C 8.687 4.111 8.681 4.115 8.687 4.138 C 8.691 4.152 8.695 4.258 8.695 4.373 L 8.696 4.582 L 8.765 4.622 C 8.802 4.644 8.85 4.662 8.869 4.662 C 8.926 4.662 8.972 4.693 9.014 4.761 L 9.053 4.824 L 9.141 4.818 C 9.19 4.814 9.271 4.805 9.322 4.797 C 9.564 4.76 9.836 4.84 9.97 4.987 C 10.077 5.105 10.093 5.123 10.114 5.139 C 10.125 5.147 10.134 5.17 10.134 5.189 C 10.134 5.209 10.148 5.256 10.165 5.295 C 10.208 5.392 10.216 5.49 10.189 5.576 L 10.168 5.644 L 10.206 5.723 C 10.237 5.786 10.244 5.817 10.244 5.881 C 10.244 5.944 10.249 5.966 10.267 5.982 C 10.31 6.021 10.36 6.138 10.365 6.212 L 10.37 6.283 L 10.415 6.276 C 10.44 6.272 10.512 6.248 10.576 6.223 C 10.665 6.188 10.694 6.171 10.697 6.152 C 10.7 6.136 10.692 6.125 10.677 6.12 C 10.627 6.104 10.623 6.084 10.625 5.884 C 10.627 5.666 10.637 5.63 10.706 5.602 C 10.729 5.592 10.775 5.584 10.808 5.584 C 10.862 5.584 10.882 5.575 11.014 5.488 C 11.213 5.357 11.207 5.36 11.283 5.369 C 11.36 5.379 11.368 5.383 11.551 5.532 C 11.724 5.672 11.741 5.703 11.707 5.817 C 11.694 5.858 11.697 5.869 11.731 5.934 C 11.778 6.021 11.779 6.064 11.738 6.142 C 11.71 6.195 11.708 6.207 11.721 6.235 C 11.765 6.33 11.757 6.388 11.689 6.47 C 11.639 6.53 11.629 6.563 11.638 6.631 C 11.647 6.702 11.627 6.758 11.576 6.803 C 11.503 6.867 11.45 6.94 11.45 6.977 C 11.45 6.998 11.44 7.017 11.424 7.026 C 11.411 7.035 11.382 7.072 11.361 7.109 C 11.252 7.301 11.101 7.5 11.034 7.542 C 10.992 7.569 10.976 7.57 10.798 7.57 C 10.615 7.57 10.604 7.569 10.539 7.537 C 10.474 7.505 10.467 7.504 10.395 7.517 C 10.341 7.527 10.283 7.528 10.191 7.519 C 10.077 7.508 10.053 7.502 9.992 7.465 C 9.954 7.442 9.871 7.374 9.807 7.315 C 9.719 7.232 9.69 7.197 9.686 7.167 C 9.682 7.145 9.676 7.107 9.672 7.081 C 9.667 7.047 9.646 7.013 9.597 6.959 C 9.519 6.875 9.494 6.826 9.453 6.67 C 9.436 6.609 9.415 6.544 9.405 6.526 L 9.388 6.492 L 9.366 6.548 C 9.35 6.591 9.308 6.64 9.186 6.757 C 9.053 6.886 9.027 6.916 9.027 6.947 C 9.027 6.967 9.016 6.996 9.004 7.012 C 8.987 7.034 8.979 7.07 8.975 7.146 C 8.967 7.263 8.965 7.253 9.096 7.655 C 9.18 7.914 9.262 8.217 9.286 8.356 C 9.294 8.405 9.333 8.516 9.38 8.626 C 9.611 9.17 9.795 9.635 9.897 9.938 L 9.966 10.141 L 9.971 10.345 C 9.976 10.529 9.974 10.559 9.948 10.653 C 9.911 10.792 9.905 10.907 9.931 10.988 C 9.942 11.023 9.986 11.098 10.029 11.156 C 10.141 11.308 10.223 11.434 10.269 11.524 C 10.303 11.592 10.311 11.628 10.329 11.78 L 10.349 11.958 L 10.438 11.986 C 10.602 12.038 10.641 12.079 10.668 12.225 C 10.716 12.494 10.789 13.167 10.829 13.714 L 10.836 13.819 L 10.774 13.909 L 10.712 13.999 L 10.736 14.03 C 10.749 14.046 10.769 14.103 10.781 14.155 C 10.795 14.221 10.848 14.349 10.961 14.587 C 11.148 14.985 11.15 14.992 11.162 15.401 C 11.171 15.693 11.162 15.779 11.111 15.88 C 11.071 15.959 11.02 15.993 10.934 15.999 C 10.876 16.003 10.853 15.997 10.779 15.961 L 10.779 15.961 Z"/>
 </g>
</svg>
