<svg xmlns="http://www.w3.org/2000/svg" xmlns:xlink="http://www.w3.org/1999/xlink" style="isolation:isolate" width="16" height="16" viewBox="0 0 16 16">
 <defs>
  <style id="current-color-scheme" type="text/css">
   .ColorScheme-Text { color:#d4be98; } .ColorScheme-Highlight { color:#5294e2; }
  </style>
  <linearGradient id="arrongin" x1="0%" x2="0%" y1="0%" y2="100%">
   <stop offset="0%" style="stop-color:#dd9b44; stop-opacity:1"/>
   <stop offset="100%" style="stop-color:#ad6c16; stop-opacity:1"/>
  </linearGradient>
  <linearGradient id="aurora" x1="0%" x2="0%" y1="0%" y2="100%">
   <stop offset="0%" style="stop-color:#09D4DF; stop-opacity:1"/>
   <stop offset="100%" style="stop-color:#9269F4; stop-opacity:1"/>
  </linearGradient>
  <linearGradient id="fitdance" x1="0%" x2="0%" y1="0%" y2="100%">
   <stop offset="0%" style="stop-color:#1AD6AB; stop-opacity:1"/>
   <stop offset="100%" style="stop-color:#329DB6; stop-opacity:1"/>
  </linearGradient>
  <linearGradient id="oomox" x1="0%" x2="0%" y1="0%" y2="100%">
   <stop offset="0%" style="stop-color:#efefe7; stop-opacity:1"/>
   <stop offset="100%" style="stop-color:#8f8f8b; stop-opacity:1"/>
  </linearGradient>
  <linearGradient id="rainblue" x1="0%" x2="0%" y1="0%" y2="100%">
   <stop offset="0%" style="stop-color:#00F260; stop-opacity:1"/>
   <stop offset="100%" style="stop-color:#0575E6; stop-opacity:1"/>
  </linearGradient>
  <linearGradient id="sunrise" x1="0%" x2="0%" y1="0%" y2="100%">
   <stop offset="0%" style="stop-color: #FF8501; stop-opacity:1"/>
   <stop offset="100%" style="stop-color: #FFCB01; stop-opacity:1"/>
  </linearGradient>
  <linearGradient id="telinkrin" x1="0%" x2="0%" y1="0%" y2="100%">
   <stop offset="0%" style="stop-color: #b2ced6; stop-opacity:1"/>
   <stop offset="100%" style="stop-color: #6da5b7; stop-opacity:1"/>
  </linearGradient>
  <linearGradient id="60spsycho" x1="0%" x2="0%" y1="0%" y2="100%">
   <stop offset="0%" style="stop-color: #df5940; stop-opacity:1"/>
   <stop offset="25%" style="stop-color: #d8d15f; stop-opacity:1"/>
   <stop offset="50%" style="stop-color: #e9882a; stop-opacity:1"/>
   <stop offset="100%" style="stop-color: #279362; stop-opacity:1"/>
  </linearGradient>
  <linearGradient id="90ssummer" x1="0%" x2="0%" y1="0%" y2="100%">
   <stop offset="0%" style="stop-color: #f618c7; stop-opacity:1"/>
   <stop offset="20%" style="stop-color: #94ffab; stop-opacity:1"/>
   <stop offset="50%" style="stop-color: #fbfd54; stop-opacity:1"/>
   <stop offset="100%" style="stop-color: #0f83ae; stop-opacity:1"/>
  </linearGradient>
 </defs>
   <path style="fill:currentColor" class="ColorScheme-Text" fill-rule="evenodd" d="M 2.358 7.323 L 2.358 7.323 L 2.358 3.868 L 2.358 0.397 C 2.358 0.397 2.357 0.291 2.381 0.247 C 2.431 0.153 2.515 0.075 2.616 0.033 C 2.677 0.008 2.748 -0.001 2.812 0 C 2.876 0.001 2.935 0.011 2.972 0.023 C 3.073 0.055 4.244 0.832 5.574 1.749 C 6.885 2.652 7.944 3.371 7.994 3.392 L 7.994 3.392 C 7.995 3.392 8.029 3.415 8.029 3.415 C 8.049 3.415 9.166 2.656 10.511 1.727 C 12.044 0.668 13.033 0.039 13.164 0.039 L 13.164 0.039 C 13.474 0.039 13.561 0.039 13.598 1.42 L 13.598 7.313 L 13.597 7.313 L 13.597 7.313 L 13.598 7.313 L 13.598 7.313 L 13.926 7.536 C 13.926 7.536 13.929 7.515 13.929 7.515 L 14.68 8.037 C 15.988 8.947 16 8.958 16 9.253 C 16 9.477 15.605 9.83 12.116 12.729 C 9.979 14.504 8.162 15.974 8.078 15.996 C 8.051 16.003 8.013 15.999 7.978 15.997 L 7.978 15.997 L 7.978 15.997 C 7.904 15.994 7.823 15.98 7.763 15.946 C 7.445 15.769 0.139 9.593 0.051 9.427 C 0.002 9.334 -0.015 9.182 0.014 9.089 C 0.044 8.996 0.583 8.564 1.213 8.129 L 2.354 7.341 L 2.354 7.341 L 2.358 7.338 L 2.358 7.338 L 2.358 7.338 L 2.358 7.323 Z M 7.978 3.537 C 7.978 3.537 7.978 3.537 7.978 3.537 C 7.979 3.537 7.983 3.534 7.988 3.53 L 7.988 3.53 L 7.988 3.53 C 7.985 3.533 7.981 3.535 7.98 3.535 C 7.979 3.536 7.978 3.537 7.978 3.537 Z M 8.003 3.52 C 8.005 3.519 8.007 3.517 8.007 3.517 C 8.009 3.516 8.009 3.516 8.009 3.516 C 8.009 3.516 8.009 3.516 8.009 3.516 L 8.009 3.516 L 7.994 3.526 L 8.003 3.52 L 8.003 3.52 L 8.003 3.52 Z"/>
</svg>
