<svg xmlns="http://www.w3.org/2000/svg" style="isolation:isolate" width="16" height="16" viewBox="0 0 16 16">
 <defs>
  <style id="current-color-scheme" type="text/css">
   .ColorScheme-Text { color:#d4be98; } .ColorScheme-Highlight { color:#5294e2; }
  </style>
  <linearGradient id="arrongin" x1="0%" x2="0%" y1="0%" y2="100%">
   <stop offset="0%" style="stop-color:#dd9b44; stop-opacity:1"/>
   <stop offset="100%" style="stop-color:#ad6c16; stop-opacity:1"/>
  </linearGradient>
  <linearGradient id="aurora" x1="0%" x2="0%" y1="0%" y2="100%">
   <stop offset="0%" style="stop-color:#09D4DF; stop-opacity:1"/>
   <stop offset="100%" style="stop-color:#9269F4; stop-opacity:1"/>
  </linearGradient>
  <linearGradient id="fitdance" x1="0%" x2="0%" y1="0%" y2="100%">
   <stop offset="0%" style="stop-color:#1AD6AB; stop-opacity:1"/>
   <stop offset="100%" style="stop-color:#329DB6; stop-opacity:1"/>
  </linearGradient>
  <linearGradient id="oomox" x1="0%" x2="0%" y1="0%" y2="100%">
   <stop offset="0%" style="stop-color:#efefe7; stop-opacity:1"/>
   <stop offset="100%" style="stop-color:#8f8f8b; stop-opacity:1"/>
  </linearGradient>
  <linearGradient id="rainblue" x1="0%" x2="0%" y1="0%" y2="100%">
   <stop offset="0%" style="stop-color:#00F260; stop-opacity:1"/>
   <stop offset="100%" style="stop-color:#0575E6; stop-opacity:1"/>
  </linearGradient>
  <linearGradient id="sunrise" x1="0%" x2="0%" y1="0%" y2="100%">
   <stop offset="0%" style="stop-color: #FF8501; stop-opacity:1"/>
   <stop offset="100%" style="stop-color: #FFCB01; stop-opacity:1"/>
  </linearGradient>
  <linearGradient id="telinkrin" x1="0%" x2="0%" y1="0%" y2="100%">
   <stop offset="0%" style="stop-color: #b2ced6; stop-opacity:1"/>
   <stop offset="100%" style="stop-color: #6da5b7; stop-opacity:1"/>
  </linearGradient>
  <linearGradient id="60spsycho" x1="0%" x2="0%" y1="0%" y2="100%">
   <stop offset="0%" style="stop-color: #df5940; stop-opacity:1"/>
   <stop offset="25%" style="stop-color: #d8d15f; stop-opacity:1"/>
   <stop offset="50%" style="stop-color: #e9882a; stop-opacity:1"/>
   <stop offset="100%" style="stop-color: #279362; stop-opacity:1"/>
  </linearGradient>
  <linearGradient id="90ssummer" x1="0%" x2="0%" y1="0%" y2="100%">
   <stop offset="0%" style="stop-color: #f618c7; stop-opacity:1"/>
   <stop offset="20%" style="stop-color: #94ffab; stop-opacity:1"/>
   <stop offset="50%" style="stop-color: #fbfd54; stop-opacity:1"/>
   <stop offset="100%" style="stop-color: #0f83ae; stop-opacity:1"/>
  </linearGradient>
  <clipPath id="_clipPath_WPSmlWLVvGL5ZnFoDTyGqF00FImrHCqK">
   <rect width="16" height="16"/>
  </clipPath>
 </defs>
 <g clip-path="url(#_clipPath_WPSmlWLVvGL5ZnFoDTyGqF00FImrHCqK)">
  <rect style="fill:currentColor" class="ColorScheme-Text" fill-opacity="0" width="16" height="16"/>
  <path style="fill:currentColor" class="ColorScheme-Text" fill-rule="evenodd" d="M 10.462 7.077 L 12.225 7.077 L 14.086 7.077 L 15.942 7.077 C 15.978 7.383 15.997 7.692 16 8 C 16 8.308 15.983 8.616 15.951 8.923 L 14.084 8.923 C 13.621 12.441 10.625 15.072 7.077 15.077 C 3.168 15.077 0 11.908 0 8 C 0 4.092 3.168 0.923 7.077 0.923 C 8.838 0.925 10.534 1.583 11.835 2.769 L 7.077 2.769 C 4.188 2.769 1.846 5.111 1.846 8 C 1.846 10.889 4.188 13.231 7.077 13.231 C 9.608 13.229 11.774 11.414 12.221 8.923 L 10.462 8.923 L 10.462 11.385 L 8.615 11.385 L 8.615 11.011 C 8.139 11.255 7.612 11.383 7.077 11.385 C 5.208 11.385 3.692 9.869 3.692 8 C 3.692 6.131 5.208 4.615 7.077 4.615 L 7.077 4.615 C 7.612 4.615 8.139 4.742 8.615 4.986 L 8.615 4.615 L 10.462 4.615 L 10.462 7.077 Z M 7.077 6.462 C 7.927 6.462 8.615 7.15 8.615 8 C 8.615 8.85 7.927 9.538 7.077 9.538 C 6.227 9.538 5.538 8.85 5.538 8 C 5.538 7.15 6.227 6.462 7.077 6.462 L 7.077 6.462 Z"/>
 </g>
</svg>
