<svg xmlns="http://www.w3.org/2000/svg" width="16" height="16" version="1.1" viewBox="0 0 4.23 4.23">
<defs>
  <style id="current-color-scheme" type="text/css">
   .ColorScheme-Text { color:#d4be98; } .ColorScheme-Highlight { color:#5294e2; }
  </style>
  <linearGradient id="arrongin" x1="0%" x2="0%" y1="0%" y2="100%">
   <stop offset="0%" style="stop-color:#dd9b44; stop-opacity:1"/>
   <stop offset="100%" style="stop-color:#ad6c16; stop-opacity:1"/>
  </linearGradient>
  <linearGradient id="aurora" x1="0%" x2="0%" y1="0%" y2="100%">
   <stop offset="0%" style="stop-color:#09D4DF; stop-opacity:1"/>
   <stop offset="100%" style="stop-color:#9269F4; stop-opacity:1"/>
  </linearGradient>
  <linearGradient id="fitdance" x1="0%" x2="0%" y1="0%" y2="100%">
   <stop offset="0%" style="stop-color:#1AD6AB; stop-opacity:1"/>
   <stop offset="100%" style="stop-color:#329DB6; stop-opacity:1"/>
  </linearGradient>
  <linearGradient id="oomox" x1="0%" x2="0%" y1="0%" y2="100%">
   <stop offset="0%" style="stop-color:#efefe7; stop-opacity:1"/>
   <stop offset="100%" style="stop-color:#8f8f8b; stop-opacity:1"/>
  </linearGradient>
  <linearGradient id="rainblue" x1="0%" x2="0%" y1="0%" y2="100%">
   <stop offset="0%" style="stop-color:#00F260; stop-opacity:1"/>
   <stop offset="100%" style="stop-color:#0575E6; stop-opacity:1"/>
  </linearGradient>
  <linearGradient id="sunrise" x1="0%" x2="0%" y1="0%" y2="100%">
   <stop offset="0%" style="stop-color: #FF8501; stop-opacity:1"/>
   <stop offset="100%" style="stop-color: #FFCB01; stop-opacity:1"/>
  </linearGradient>
  <linearGradient id="telinkrin" x1="0%" x2="0%" y1="0%" y2="100%">
   <stop offset="0%" style="stop-color: #b2ced6; stop-opacity:1"/>
   <stop offset="100%" style="stop-color: #6da5b7; stop-opacity:1"/>
  </linearGradient>
  <linearGradient id="60spsycho" x1="0%" x2="0%" y1="0%" y2="100%">
   <stop offset="0%" style="stop-color: #df5940; stop-opacity:1"/>
   <stop offset="25%" style="stop-color: #d8d15f; stop-opacity:1"/>
   <stop offset="50%" style="stop-color: #e9882a; stop-opacity:1"/>
   <stop offset="100%" style="stop-color: #279362; stop-opacity:1"/>
  </linearGradient>
  <linearGradient id="90ssummer" x1="0%" x2="0%" y1="0%" y2="100%">
   <stop offset="0%" style="stop-color: #f618c7; stop-opacity:1"/>
   <stop offset="20%" style="stop-color: #94ffab; stop-opacity:1"/>
   <stop offset="50%" style="stop-color: #fbfd54; stop-opacity:1"/>
   <stop offset="100%" style="stop-color: #0f83ae; stop-opacity:1"/>
  </linearGradient>
 </defs>
<defs>
  <style id="current-color-scheme" type="text/css">
   .ColorScheme-Text { color:#d4be98; } .ColorScheme-Highlight { color:#5294e2; }
  </style>
  <linearGradient id="arrongin" x1="0%" x2="0%" y1="0%" y2="100%">
   <stop offset="0%" style="stop-color:#dd9b44; stop-opacity:1"/>
   <stop offset="100%" style="stop-color:#ad6c16; stop-opacity:1"/>
  </linearGradient>
  <linearGradient id="aurora" x1="0%" x2="0%" y1="0%" y2="100%">
   <stop offset="0%" style="stop-color:#09D4DF; stop-opacity:1"/>
   <stop offset="100%" style="stop-color:#9269F4; stop-opacity:1"/>
  </linearGradient>
  <linearGradient id="fitdance" x1="0%" x2="0%" y1="0%" y2="100%">
   <stop offset="0%" style="stop-color:#1AD6AB; stop-opacity:1"/>
   <stop offset="100%" style="stop-color:#329DB6; stop-opacity:1"/>
  </linearGradient>
  <linearGradient id="oomox" x1="0%" x2="0%" y1="0%" y2="100%">
   <stop offset="0%" style="stop-color:#efefe7; stop-opacity:1"/>
   <stop offset="100%" style="stop-color:#8f8f8b; stop-opacity:1"/>
  </linearGradient>
  <linearGradient id="rainblue" x1="0%" x2="0%" y1="0%" y2="100%">
   <stop offset="0%" style="stop-color:#00F260; stop-opacity:1"/>
   <stop offset="100%" style="stop-color:#0575E6; stop-opacity:1"/>
  </linearGradient>
  <linearGradient id="sunrise" x1="0%" x2="0%" y1="0%" y2="100%">
   <stop offset="0%" style="stop-color: #FF8501; stop-opacity:1"/>
   <stop offset="100%" style="stop-color: #FFCB01; stop-opacity:1"/>
  </linearGradient>
  <linearGradient id="telinkrin" x1="0%" x2="0%" y1="0%" y2="100%">
   <stop offset="0%" style="stop-color: #b2ced6; stop-opacity:1"/>
   <stop offset="100%" style="stop-color: #6da5b7; stop-opacity:1"/>
  </linearGradient>
  <linearGradient id="60spsycho" x1="0%" x2="0%" y1="0%" y2="100%">
   <stop offset="0%" style="stop-color: #df5940; stop-opacity:1"/>
   <stop offset="25%" style="stop-color: #d8d15f; stop-opacity:1"/>
   <stop offset="50%" style="stop-color: #e9882a; stop-opacity:1"/>
   <stop offset="100%" style="stop-color: #279362; stop-opacity:1"/>
  </linearGradient>
  <linearGradient id="90ssummer" x1="0%" x2="0%" y1="0%" y2="100%">
   <stop offset="0%" style="stop-color: #f618c7; stop-opacity:1"/>
   <stop offset="20%" style="stop-color: #94ffab; stop-opacity:1"/>
   <stop offset="50%" style="stop-color: #fbfd54; stop-opacity:1"/>
   <stop offset="100%" style="stop-color: #0f83ae; stop-opacity:1"/>
  </linearGradient>
 </defs>>
 <g transform="translate(0,-292.76666)">
  <g transform="matrix(0.06521738,0,0,0.06521738,2.1499587,278.2931)" style="fill:currentColor" class="ColorScheme-Text">
   <path d="m -26.046967,284.60617 c -1.182188,-0.33208 -1.969147,-0.80678 -2.927824,-1.76611 -1.348836,-1.34975 -1.962775,-2.79007 -1.962775,-4.60474 0,-2.26662 1.449746,-4.63746 3.47661,-5.68548 l 0.869585,-0.44963 5.02e-4,-17.73816 5.03e-4,-17.73817 -0.713212,-0.31941 c -0.948929,-0.42497 -2.515017,-1.99731 -2.977521,-2.98942 -1.759244,-3.77373 0.282073,-8.1171 4.307714,-9.16564 2.806806,-0.73108 5.948667,0.67798 7.288174,3.2686 l 0.44963,0.86958 H -0.507159 17.22126 l 0.44963,-0.86958 c 0.80857,-1.56378 2.401242,-2.80662 4.19553,-3.27397 4.628174,-1.20549 9.056627,3.23763 7.848801,7.87479 -0.465148,1.78582 -1.926018,3.60764 -3.45554,4.30932 l -0.683647,0.31363 5.3e-4,17.72922 5.29e-4,17.72921 0.869585,0.44963 c 0.508193,0.26277 1.17892,0.77394 1.61391,1.22998 2.561966,2.68595 2.454051,6.71316 -0.247618,9.24043 -2.048573,1.91634 -4.718243,2.31528 -7.331257,1.09553 -0.903333,-0.42167 -2.50711,-2.03149 -2.930981,-2.94201 l -0.329416,-0.70765 h -17.728407 -17.72842 l -0.329422,0.70765 c -0.413029,0.88724 -2.022287,2.51821 -2.897821,2.93691 -1.415164,0.67676 -3.237558,0.87374 -4.584131,0.49549 z m 43.678538,-9.31928 0.39235,-0.82089 -2.710783,-2.70488 -2.710786,-2.70488 -0.815099,0.27991 c -1.003374,0.34455 -2.276237,0.29263 -3.236211,-0.13202 -0.357879,-0.1583 -0.980832,-0.62598 -1.384345,-1.03928 L 6.433041,267.41339 H -0.50717 -7.447384 l -0.733655,0.75146 c -0.403514,0.4133 -1.026467,0.88098 -1.384343,1.03928 -0.959977,0.42465 -2.23284,0.47657 -3.236214,0.13202 l -0.815099,-0.27991 -2.710785,2.70488 -2.710784,2.70488 0.392351,0.82089 0.392352,0.8209 H -0.50717 17.239217 Z m -33.103094,-8.62068 c -0.572422,-1.66692 -0.138148,-3.34146 1.202119,-4.63533 l 0.720635,-0.69569 v -6.9634 -6.9634 l -0.720635,-0.69569 c -1.340264,-1.29387 -1.774538,-2.9684 -1.202122,-4.63533 l 0.279902,-0.8151 -2.699502,-2.70541 -2.6995,-2.70541 -0.824485,0.39596 -0.824486,0.39596 -0.0014,17.72842 -0.0014,17.72842 0.78075,0.41753 0.780752,0.41753 2.744637,-2.72698 2.744638,-2.72698 -0.279906,-0.8151 z m 36.699249,-12.29908 0.0011,-17.73307 -0.825521,-0.39206 -0.825522,-0.39205 -2.70025,2.70616 -2.700253,2.70616 0.279903,0.8151 c 0.572416,1.66693 0.138142,3.34146 -1.202124,4.63533 l -0.720635,0.69569 v 6.9634 6.9634 l 0.720635,0.69569 c 1.340078,1.29369 1.774389,2.96798 1.202407,4.63533 l -0.279622,0.8151 2.720525,2.72836 2.720523,2.72836 0.80387,-0.41891 0.803868,-0.41891 0.0011,-17.73308 z m -14.358601,8.30153 c 0.129154,-0.21864 0.478562,-0.59057 0.776462,-0.82651 l 0.541639,-0.42899 v -6.99383 -6.99383 L 7.300168,246.55145 6.41311,245.67739 h -6.92028 -6.920283 l -0.887058,0.87406 -0.887058,0.87405 v 6.99383 6.99383 l 0.541639,0.42899 c 0.2979,0.23594 0.647308,0.60787 0.776465,0.82651 l 0.234825,0.39753 h 7.14147 7.141467 z m 0.05597,-21.8053 c 0.606933,-0.9372 2.15974,-1.70677 3.443869,-1.70677 0.372843,0 1.026925,0.12268 1.453518,0.27261 l 0.775621,0.27261 2.738551,-2.73611 2.738551,-2.7361 -0.393017,-0.61973 c -0.216157,-0.34084 -0.393015,-0.69945 -0.393015,-0.7969 0,-0.14477 -3.255259,-0.17718 -17.796346,-0.17718 -14.541091,0 -17.796348,0.0324 -17.796348,0.17718 0,0.0975 -0.176858,0.45606 -0.393017,0.7969 l -0.393017,0.61973 2.738553,2.7361 2.738551,2.73611 0.77562,-0.27261 c 0.426593,-0.14993 1.080675,-0.27261 1.453518,-0.27261 1.284129,0 2.836937,0.76957 3.44387,1.70677 l 0.300146,0.46347 h 7.132124 7.132122 z" style="fill:currentColor" class="ColorScheme-Text"/>
  </g>
 </g>
</svg>
