<svg xmlns="http://www.w3.org/2000/svg" style="isolation:isolate" width="16" height="16" viewBox="0 0 16 16">
 <defs>
  <style id="current-color-scheme" type="text/css">
   .ColorScheme-Text { color:#d4be98; } .ColorScheme-Highlight { color:#5294e2; }
  </style>
  <linearGradient id="arrongin" x1="0%" x2="0%" y1="0%" y2="100%">
   <stop offset="0%" style="stop-color:#dd9b44; stop-opacity:1"/>
   <stop offset="100%" style="stop-color:#ad6c16; stop-opacity:1"/>
  </linearGradient>
  <linearGradient id="aurora" x1="0%" x2="0%" y1="0%" y2="100%">
   <stop offset="0%" style="stop-color:#09D4DF; stop-opacity:1"/>
   <stop offset="100%" style="stop-color:#9269F4; stop-opacity:1"/>
  </linearGradient>
  <linearGradient id="fitdance" x1="0%" x2="0%" y1="0%" y2="100%">
   <stop offset="0%" style="stop-color:#1AD6AB; stop-opacity:1"/>
   <stop offset="100%" style="stop-color:#329DB6; stop-opacity:1"/>
  </linearGradient>
  <linearGradient id="oomox" x1="0%" x2="0%" y1="0%" y2="100%">
   <stop offset="0%" style="stop-color:#efefe7; stop-opacity:1"/>
   <stop offset="100%" style="stop-color:#8f8f8b; stop-opacity:1"/>
  </linearGradient>
  <linearGradient id="rainblue" x1="0%" x2="0%" y1="0%" y2="100%">
   <stop offset="0%" style="stop-color:#00F260; stop-opacity:1"/>
   <stop offset="100%" style="stop-color:#0575E6; stop-opacity:1"/>
  </linearGradient>
  <linearGradient id="sunrise" x1="0%" x2="0%" y1="0%" y2="100%">
   <stop offset="0%" style="stop-color: #FF8501; stop-opacity:1"/>
   <stop offset="100%" style="stop-color: #FFCB01; stop-opacity:1"/>
  </linearGradient>
  <linearGradient id="telinkrin" x1="0%" x2="0%" y1="0%" y2="100%">
   <stop offset="0%" style="stop-color: #b2ced6; stop-opacity:1"/>
   <stop offset="100%" style="stop-color: #6da5b7; stop-opacity:1"/>
  </linearGradient>
  <linearGradient id="60spsycho" x1="0%" x2="0%" y1="0%" y2="100%">
   <stop offset="0%" style="stop-color: #df5940; stop-opacity:1"/>
   <stop offset="25%" style="stop-color: #d8d15f; stop-opacity:1"/>
   <stop offset="50%" style="stop-color: #e9882a; stop-opacity:1"/>
   <stop offset="100%" style="stop-color: #279362; stop-opacity:1"/>
  </linearGradient>
  <linearGradient id="90ssummer" x1="0%" x2="0%" y1="0%" y2="100%">
   <stop offset="0%" style="stop-color: #f618c7; stop-opacity:1"/>
   <stop offset="20%" style="stop-color: #94ffab; stop-opacity:1"/>
   <stop offset="50%" style="stop-color: #fbfd54; stop-opacity:1"/>
   <stop offset="100%" style="stop-color: #0f83ae; stop-opacity:1"/>
  </linearGradient>
 </defs>
 <path style="fill:currentColor" class="ColorScheme-Text" fill-rule="evenodd" d="M 7.995 3.429 C 7.995 3.008 8.337 2.667 8.757 2.667 C 9.178 2.667 9.519 3.008 9.519 3.429 C 9.519 3.849 9.178 4.19 8.757 4.19 C 8.337 4.19 7.995 3.849 7.995 3.429 Z M 7.233 3.81 C 7.233 2.758 8.087 1.905 9.138 1.905 C 10.189 1.905 11.043 2.758 11.043 3.81 C 11.043 4.861 10.189 5.714 9.138 5.714 C 8.087 5.714 7.233 4.861 7.233 3.81 L 7.233 3.81 L 7.233 3.81 L 7.233 3.81 Z M 14.07 3.596 C 14.156 4.009 13.965 4.434 13.642 4.545 L 13.329 3.048 C 13.651 2.937 13.983 3.182 14.07 3.596 L 14.07 3.596 Z M 6.707 15.932 C 5.795 15.758 4.822 15.337 4.008 14.761 C 3.094 14.116 2.149 12.979 1.694 11.979 C 1.238 10.974 1.053 9.759 1.174 8.56 C 1.266 7.654 1.371 7.233 1.683 6.511 C 2.549 4.508 4.243 3.128 6.488 2.596 C 6.855 2.509 7.11 2.406 7.268 2.281 C 7.501 2.097 7.502 2.095 7.642 1.185 C 7.818 0.049 7.815 0.058 7.995 0.013 C 8.237 -0.048 9.366 0.113 9.918 0.287 C 10.807 0.567 11.442 0.931 12.199 1.594 C 12.432 1.799 13.036 1.967 13.074 1.967 C 13.302 1.967 13.938 2.265 14.194 2.514 C 14.96 3.257 15.063 4.192 14.479 5.1 C 14.323 5.344 14.114 5.235 14.114 5.549 C 14.114 5.758 14.078 5.977 14.034 6.035 C 13.97 6.119 13.397 6.165 12.159 6.272 C 11.032 6.369 10.35 6.658 10.281 6.727 C 10.075 6.933 10.55 6.976 12.742 7.149 C 14.79 7.31 14.975 7.366 14.82 7.522 C 14.786 7.555 13.888 7.712 12.638 7.964 L 10.366 8.422 L 8.938 7.872 C 8.153 7.569 7.486 7.397 7.456 7.397 C 7.362 7.397 6.675 8.538 6.697 8.656 C 6.725 8.802 7.013 8.723 7.387 8.774 C 7.645 8.809 7.717 8.79 7.984 8.613 C 8.579 8.22 9.112 8.219 9.443 8.612 C 9.645 8.852 9.652 9.015 9.465 9.145 C 9.279 9.276 9.143 9.271 8.868 9.124 C 8.482 8.917 8.237 9.187 8.377 9.557 C 8.467 9.796 8.416 9.927 8.232 9.927 C 8.129 9.927 8.056 9.863 7.984 9.712 C 7.882 9.499 7.881 9.392 7.321 9.354 C 6.714 9.313 6.428 9.523 6.048 9.284 C 5.749 9.095 5.469 8.767 5.469 8.604 C 5.469 8.449 5.766 7.858 6.071 7.407 C 6.354 6.988 6.362 6.886 6.115 6.886 C 5.984 6.886 5.877 6.947 5.752 7.094 C 5.534 7.351 5.021 8.415 5.021 8.611 C 5.021 8.882 5.228 9.181 5.779 9.543 C 6.215 9.83 6.348 9.848 6.442 10.06 C 6.582 10.378 6.828 10.923 6.882 11.42 C 6.926 11.832 7.016 11.725 7.18 11.437 C 7.347 11.144 7.808 11.087 7.808 11.359 C 7.808 11.424 7.737 11.516 7.649 11.563 C 7.36 11.717 7.381 11.978 7.694 12.146 C 7.787 12.195 7.88 12.173 8.095 12.047 C 8.249 11.956 8.419 11.883 8.472 11.883 C 8.598 11.883 8.768 12.128 8.768 12.309 C 8.768 12.714 8.449 12.969 7.942 12.969 C 7.336 12.969 6.872 12.643 6.62 12.042 C 6.486 11.722 5.962 11.143 5.745 10.91 C 5.531 10.681 5.418 10.641 5.238 10.667 C 5.038 10.695 4.94 10.885 4.939 11.372 C 4.937 12.313 5.234 13.276 6.303 13.803 C 8.06 14.669 9.746 14.679 11.562 13.834 C 12.902 13.211 13.935 12.18 14.01 11.098 C 14.037 10.701 14.021 10.595 13.893 10.348 C 13.626 9.835 12.799 9.537 12.235 9.792 C 12.052 9.875 11.912 10.113 11.822 10.372 C 11.56 11.182 11.945 11.515 12.389 11.708 C 12.571 11.788 12.892 11.731 12.949 11.505 C 13.013 11.252 12.889 11.151 12.544 11.172 C 12.283 11.188 12.248 11.174 12.23 11.05 C 12.203 10.864 12.482 10.684 12.784 10.692 C 12.962 10.698 13.065 10.693 13.227 10.87 C 13.478 11.143 13.435 11.463 13.303 11.714 C 13.144 12.016 12.849 12.219 12.41 12.218 C 11.785 12.216 11.28 11.868 11.132 11.339 C 11.044 11.022 11.048 10.514 11.16 10.139 C 11.484 9.052 13.313 8.829 14.183 9.673 C 14.603 10.08 14.816 10.542 14.776 11.275 C 14.691 12.863 13.09 14.394 11.262 15.29 C 10.179 15.821 9.571 15.963 8.254 15.994 C 7.504 16.011 7.023 15.992 6.707 15.932 L 6.707 15.932 L 6.707 15.932 L 6.707 15.932 L 6.707 15.932 Z"/>
</svg>
