<svg xmlns="http://www.w3.org/2000/svg" width="16" height="16" version="1.1">
<defs>
  <style id="current-color-scheme" type="text/css">
   .ColorScheme-Text { color:#d4be98; } .ColorScheme-Highlight { color:#5294e2; }
  </style>
  <linearGradient id="arrongin" x1="0%" x2="0%" y1="0%" y2="100%">
   <stop offset="0%" style="stop-color:#dd9b44; stop-opacity:1"/>
   <stop offset="100%" style="stop-color:#ad6c16; stop-opacity:1"/>
  </linearGradient>
  <linearGradient id="aurora" x1="0%" x2="0%" y1="0%" y2="100%">
   <stop offset="0%" style="stop-color:#09D4DF; stop-opacity:1"/>
   <stop offset="100%" style="stop-color:#9269F4; stop-opacity:1"/>
  </linearGradient>
  <linearGradient id="fitdance" x1="0%" x2="0%" y1="0%" y2="100%">
   <stop offset="0%" style="stop-color:#1AD6AB; stop-opacity:1"/>
   <stop offset="100%" style="stop-color:#329DB6; stop-opacity:1"/>
  </linearGradient>
  <linearGradient id="oomox" x1="0%" x2="0%" y1="0%" y2="100%">
   <stop offset="0%" style="stop-color:#efefe7; stop-opacity:1"/>
   <stop offset="100%" style="stop-color:#8f8f8b; stop-opacity:1"/>
  </linearGradient>
  <linearGradient id="rainblue" x1="0%" x2="0%" y1="0%" y2="100%">
   <stop offset="0%" style="stop-color:#00F260; stop-opacity:1"/>
   <stop offset="100%" style="stop-color:#0575E6; stop-opacity:1"/>
  </linearGradient>
  <linearGradient id="sunrise" x1="0%" x2="0%" y1="0%" y2="100%">
   <stop offset="0%" style="stop-color: #FF8501; stop-opacity:1"/>
   <stop offset="100%" style="stop-color: #FFCB01; stop-opacity:1"/>
  </linearGradient>
  <linearGradient id="telinkrin" x1="0%" x2="0%" y1="0%" y2="100%">
   <stop offset="0%" style="stop-color: #b2ced6; stop-opacity:1"/>
   <stop offset="100%" style="stop-color: #6da5b7; stop-opacity:1"/>
  </linearGradient>
  <linearGradient id="60spsycho" x1="0%" x2="0%" y1="0%" y2="100%">
   <stop offset="0%" style="stop-color: #df5940; stop-opacity:1"/>
   <stop offset="25%" style="stop-color: #d8d15f; stop-opacity:1"/>
   <stop offset="50%" style="stop-color: #e9882a; stop-opacity:1"/>
   <stop offset="100%" style="stop-color: #279362; stop-opacity:1"/>
  </linearGradient>
  <linearGradient id="90ssummer" x1="0%" x2="0%" y1="0%" y2="100%">
   <stop offset="0%" style="stop-color: #f618c7; stop-opacity:1"/>
   <stop offset="20%" style="stop-color: #94ffab; stop-opacity:1"/>
   <stop offset="50%" style="stop-color: #fbfd54; stop-opacity:1"/>
   <stop offset="100%" style="stop-color: #0f83ae; stop-opacity:1"/>
  </linearGradient>
 </defs>
 <path d="m 5.8447254,2.9996973 c -1.562166,0.00196 -3.12333,9.807e-4 -4.684297,0.00196 -0.118711,0 -0.23092405,0.025008 -0.33403305,0.08801 -0.26553,0.1610154 -0.351438,0.3980419 -0.320334,0.6870763 9.81e-4,0.015005 0.002,0.03001 0.002,0.045015 -0.0012,1.5481673 -0.0034,2.4322614 -0.0039,3.9794235 0,0.3930402 0.276527,1.189124 0.67977105,1.1951261 0.107511,0.00196 0.214924,0.00196 0.322335,0.00196 0.987804,0.00196 2.007311,0.00392 2.994414,0.00598 -0.07901,0.4340482 -0.28303,0.9541074 -0.625065,1.2621378 -0.285031,0.256028 -0.484051,0.370037 -0.85009,0.451045 -0.289031,0.06401 -0.513054,0.16002 -0.514053,0.385042 0,0.06401 0.003,0.128014 0.004,0.193022 l -0.008,0.879092 c 0.002,0.163016 0.002,0.327032 0.004,0.490053 0.003,0.233026 0.07501,0.364036 0.315033,0.330034 0.314034,-0.04398 0.719074,-0.114009 1.024106,-0.197023 0.01101,-0.006 0.02401,-0.01098 0.035,-0.018 0.02001,-0.005 0.039,-0.01 0.05801,-0.01501 0.036,-0.018 0.07101,-0.038 0.108012,-0.053 1.456154,-0.587066 2.4442592,-2.017219 2.4452595,-3.5453785 0.00196,-1.7101782 0,-3.419361 0,-5.1295393 l 0.00221,-0.4548013 C 6.4740029,3.2675333 6.1831943,2.9992119 5.8447294,2.9996189 Z m 9.0009506,0 c -1.562166,0.00196 -3.123331,9.807e-4 -4.684496,0.00196 -0.118011,0 -0.2310236,0.025008 -0.3340356,0.08801 -0.265027,0.1610154 -0.351036,0.3980419 -0.320032,0.6870763 9.81e-4,0.015005 0.002,0.03001 0.002,0.045015 -9.81e-4,1.5481673 -0.004,2.4322614 -0.004,3.9794235 0,0.3930402 0.27603,1.189124 0.6800726,1.1951261 0.10701,0.00196 0.214021,0.00196 0.322031,0.00196 0.988107,0.00196 2.007215,0.00392 2.994318,0.00598 -0.07901,0.4340444 -0.283031,0.9541034 -0.625065,1.2621338 -0.285031,0.256028 -0.484051,0.370037 -0.850092,0.451045 -0.28903,0.06401 -0.513054,0.16002 -0.514054,0.385043 0,0.06401 0.003,0.128014 0.004,0.193021 l -0.008,0.879092 c 0.002,0.163016 0.002,0.327033 0.004,0.490054 0.003,0.233025 0.07501,0.364035 0.315035,0.330033 0.314031,-0.04398 0.719075,-0.114009 1.024107,-0.197022 0.01101,-0.006 0.02401,-0.01098 0.035,-0.018 0.02001,-0.005 0.039,-0.01 0.05801,-0.01501 0.036,-0.018 0.07101,-0.038 0.108012,-0.053 1.456156,-0.587067 2.44426,-2.017219 2.44526,-3.5453793 0.002,-1.7101782 0,-3.419361 0,-5.1295393 0.005,-0.037022 2.3e-4,-0.474509 2.3e-4,-0.474509 -0.03536,-0.3058163 -0.32105,-0.5629967 -0.652418,-0.5625995 z" style="fill:currentColor" class="ColorScheme-Text"/>
</svg>
