<svg xmlns="http://www.w3.org/2000/svg" width="16" height="16" version="1.1">
<defs>
  <style id="current-color-scheme" type="text/css">
   .ColorScheme-Text { color:#d4be98; } .ColorScheme-Highlight { color:#5294e2; }
  </style>
  <linearGradient id="arrongin" x1="0%" x2="0%" y1="0%" y2="100%">
   <stop offset="0%" style="stop-color:#dd9b44; stop-opacity:1"/>
   <stop offset="100%" style="stop-color:#ad6c16; stop-opacity:1"/>
  </linearGradient>
  <linearGradient id="aurora" x1="0%" x2="0%" y1="0%" y2="100%">
   <stop offset="0%" style="stop-color:#09D4DF; stop-opacity:1"/>
   <stop offset="100%" style="stop-color:#9269F4; stop-opacity:1"/>
  </linearGradient>
  <linearGradient id="fitdance" x1="0%" x2="0%" y1="0%" y2="100%">
   <stop offset="0%" style="stop-color:#1AD6AB; stop-opacity:1"/>
   <stop offset="100%" style="stop-color:#329DB6; stop-opacity:1"/>
  </linearGradient>
  <linearGradient id="oomox" x1="0%" x2="0%" y1="0%" y2="100%">
   <stop offset="0%" style="stop-color:#efefe7; stop-opacity:1"/>
   <stop offset="100%" style="stop-color:#8f8f8b; stop-opacity:1"/>
  </linearGradient>
  <linearGradient id="rainblue" x1="0%" x2="0%" y1="0%" y2="100%">
   <stop offset="0%" style="stop-color:#00F260; stop-opacity:1"/>
   <stop offset="100%" style="stop-color:#0575E6; stop-opacity:1"/>
  </linearGradient>
  <linearGradient id="sunrise" x1="0%" x2="0%" y1="0%" y2="100%">
   <stop offset="0%" style="stop-color: #FF8501; stop-opacity:1"/>
   <stop offset="100%" style="stop-color: #FFCB01; stop-opacity:1"/>
  </linearGradient>
  <linearGradient id="telinkrin" x1="0%" x2="0%" y1="0%" y2="100%">
   <stop offset="0%" style="stop-color: #b2ced6; stop-opacity:1"/>
   <stop offset="100%" style="stop-color: #6da5b7; stop-opacity:1"/>
  </linearGradient>
  <linearGradient id="60spsycho" x1="0%" x2="0%" y1="0%" y2="100%">
   <stop offset="0%" style="stop-color: #df5940; stop-opacity:1"/>
   <stop offset="25%" style="stop-color: #d8d15f; stop-opacity:1"/>
   <stop offset="50%" style="stop-color: #e9882a; stop-opacity:1"/>
   <stop offset="100%" style="stop-color: #279362; stop-opacity:1"/>
  </linearGradient>
  <linearGradient id="90ssummer" x1="0%" x2="0%" y1="0%" y2="100%">
   <stop offset="0%" style="stop-color: #f618c7; stop-opacity:1"/>
   <stop offset="20%" style="stop-color: #94ffab; stop-opacity:1"/>
   <stop offset="50%" style="stop-color: #fbfd54; stop-opacity:1"/>
   <stop offset="100%" style="stop-color: #0f83ae; stop-opacity:1"/>
  </linearGradient>
 </defs>
 <rect style="fill:currentColor" class="ColorScheme-Text" width="1.957" height="3.913" x="9.83" y="11.39"/>
 <circle style="fill:currentColor" class="ColorScheme-Text" cx="10.805" cy="9.104" r=".978"/>
 <path style="fill:currentColor" class="ColorScheme-Text" d="m 10.478515,2.908485 c -3.233954,3e-7 -5.869154,2.6351863 -5.86914,5.8691406 V 9.4299693 H 5.914062 V 8.7776256 c -1e-5,-2.5290309 2.035422,-4.5644528 4.564453,-4.5644531 h 0.652344 V 2.908485 Z"/>
 <path style="fill:currentColor" class="ColorScheme-Text" d="m 10.478515,5.51786 c -1.7932078,0 -3.259773,1.4665576 -3.259765,3.2597656 V 9.4299693 H 8.5234371 V 8.7776256 C 8.5234327,7.689341 9.3902306,6.8225475 10.478515,6.8225475 h 0.652344 V 5.51786 Z"/>
 <path style="fill:currentColor" class="ColorScheme-Text" d="M 10.478515,0.29910999 C 5.803831,0.29911064 2.000003,4.1029409 2,8.7776256 V 9.4299693 H 3.304687 V 8.7776256 c 3e-6,-3.9697635 3.204065,-7.1738276 7.173828,-7.1738281 h 0.652344 V 0.29910999 Z"/>
 <rect style="fill:currentColor" class="ColorScheme-Text" width="1.957" height="3.913" x="9.83" y="11.39"/>
 <circle style="fill:currentColor" class="ColorScheme-Text" cx="10.805" cy="9.104" r=".978"/>
</svg>
