<svg xmlns="http://www.w3.org/2000/svg" style="isolation:isolate" width="16" height="16" viewBox="0 0 16 16">
 <defs>
  <style id="current-color-scheme" type="text/css">
   .ColorScheme-Text { color:#d4be98; } .ColorScheme-Highlight { color:#5294e2; }
  </style>
  <linearGradient id="arrongin" x1="0%" x2="0%" y1="0%" y2="100%">
   <stop offset="0%" style="stop-color:#dd9b44; stop-opacity:1"/>
   <stop offset="100%" style="stop-color:#ad6c16; stop-opacity:1"/>
  </linearGradient>
  <linearGradient id="aurora" x1="0%" x2="0%" y1="0%" y2="100%">
   <stop offset="0%" style="stop-color:#09D4DF; stop-opacity:1"/>
   <stop offset="100%" style="stop-color:#9269F4; stop-opacity:1"/>
  </linearGradient>
  <linearGradient id="fitdance" x1="0%" x2="0%" y1="0%" y2="100%">
   <stop offset="0%" style="stop-color:#1AD6AB; stop-opacity:1"/>
   <stop offset="100%" style="stop-color:#329DB6; stop-opacity:1"/>
  </linearGradient>
  <linearGradient id="oomox" x1="0%" x2="0%" y1="0%" y2="100%">
   <stop offset="0%" style="stop-color:#efefe7; stop-opacity:1"/>
   <stop offset="100%" style="stop-color:#8f8f8b; stop-opacity:1"/>
  </linearGradient>
  <linearGradient id="rainblue" x1="0%" x2="0%" y1="0%" y2="100%">
   <stop offset="0%" style="stop-color:#00F260; stop-opacity:1"/>
   <stop offset="100%" style="stop-color:#0575E6; stop-opacity:1"/>
  </linearGradient>
  <linearGradient id="sunrise" x1="0%" x2="0%" y1="0%" y2="100%">
   <stop offset="0%" style="stop-color: #FF8501; stop-opacity:1"/>
   <stop offset="100%" style="stop-color: #FFCB01; stop-opacity:1"/>
  </linearGradient>
  <linearGradient id="telinkrin" x1="0%" x2="0%" y1="0%" y2="100%">
   <stop offset="0%" style="stop-color: #b2ced6; stop-opacity:1"/>
   <stop offset="100%" style="stop-color: #6da5b7; stop-opacity:1"/>
  </linearGradient>
  <linearGradient id="60spsycho" x1="0%" x2="0%" y1="0%" y2="100%">
   <stop offset="0%" style="stop-color: #df5940; stop-opacity:1"/>
   <stop offset="25%" style="stop-color: #d8d15f; stop-opacity:1"/>
   <stop offset="50%" style="stop-color: #e9882a; stop-opacity:1"/>
   <stop offset="100%" style="stop-color: #279362; stop-opacity:1"/>
  </linearGradient>
  <linearGradient id="90ssummer" x1="0%" x2="0%" y1="0%" y2="100%">
   <stop offset="0%" style="stop-color: #f618c7; stop-opacity:1"/>
   <stop offset="20%" style="stop-color: #94ffab; stop-opacity:1"/>
   <stop offset="50%" style="stop-color: #fbfd54; stop-opacity:1"/>
   <stop offset="100%" style="stop-color: #0f83ae; stop-opacity:1"/>
  </linearGradient>
 </defs>
 <path style="fill:currentColor" class="ColorScheme-Text" d="M 4.8 0 L 4.8 1.6 C 5.116 1.6 5.847 1.778 6.375 2.1 C 6.556 2.212 6.7 2.325 6.825 2.45 C 3.747 2.794 1.718 4.568 1.6 8 C 0.716 8 0 8.716 0 9.6 C 0 10.484 0.716 11.2 1.6 11.2 C 1.747 11.2 1.89 11.187 2.025 11.15 C 2.906 13.932 5.088 16 8 16 C 10.912 16 13.094 13.931 13.975 11.15 C 14.11 11.187 14.253 11.2 14.4 11.2 C 15.284 11.2 16 10.484 16 9.6 C 16 8.716 15.284 8 14.4 8 C 14.278 4.506 12.175 2.747 9 2.45 C 9.331 1.826 9.95 1.525 9.95 1.525 L 9.25 0.075 C 9.25 0.075 8.472 0.45 7.875 1.25 C 7.669 1.052 7.443 0.875 7.2 0.724 C 6.387 0.229 5.525 0 4.8 0 Z M 6.4 6.4 C 6.96 6.4 7.518 6.556 8 6.875 C 8.482 6.634 9.04 6.4 9.6 6.4 C 11.36 6.4 12.8 7.84 12.8 9.6 C 12.8 10.8 12.16 11.84 11.2 12.4 C 11.04 14 9.682 15.2 8 15.2 C 6.318 15.2 5.04 14 4.8 12.4 C 3.84 11.84 3.2 10.8 3.2 9.6 C 3.2 7.84 4.64 6.4 6.4 6.4 Z M 5.6 9.6 C 5.16 9.6 4.8 9.96 4.8 10.4 C 4.8 10.84 5.16 11.2 5.6 11.2 C 6.04 11.2 6.4 10.84 6.4 10.4 C 6.4 9.96 6.04 9.6 5.6 9.6 Z M 10.4 9.6 C 9.96 9.6 9.6 9.96 9.6 10.4 C 9.6 10.84 9.96 11.2 10.4 11.2 C 10.84 11.2 11.2 10.84 11.2 10.4 C 11.2 9.96 10.84 9.6 10.4 9.6 Z"/>
</svg>
