<svg xmlns="http://www.w3.org/2000/svg" style="isolation:isolate" width="16" height="16" viewBox="0 0 16 16">
 <defs>
  <style id="current-color-scheme" type="text/css">
   .ColorScheme-Text { color:#d4be98; } .ColorScheme-Highlight { color:#5294e2; }
  </style>
  <linearGradient id="arrongin" x1="0%" x2="0%" y1="0%" y2="100%">
   <stop offset="0%" style="stop-color:#dd9b44; stop-opacity:1"/>
   <stop offset="100%" style="stop-color:#ad6c16; stop-opacity:1"/>
  </linearGradient>
  <linearGradient id="aurora" x1="0%" x2="0%" y1="0%" y2="100%">
   <stop offset="0%" style="stop-color:#09D4DF; stop-opacity:1"/>
   <stop offset="100%" style="stop-color:#9269F4; stop-opacity:1"/>
  </linearGradient>
  <linearGradient id="fitdance" x1="0%" x2="0%" y1="0%" y2="100%">
   <stop offset="0%" style="stop-color:#1AD6AB; stop-opacity:1"/>
   <stop offset="100%" style="stop-color:#329DB6; stop-opacity:1"/>
  </linearGradient>
  <linearGradient id="oomox" x1="0%" x2="0%" y1="0%" y2="100%">
   <stop offset="0%" style="stop-color:#efefe7; stop-opacity:1"/>
   <stop offset="100%" style="stop-color:#8f8f8b; stop-opacity:1"/>
  </linearGradient>
  <linearGradient id="rainblue" x1="0%" x2="0%" y1="0%" y2="100%">
   <stop offset="0%" style="stop-color:#00F260; stop-opacity:1"/>
   <stop offset="100%" style="stop-color:#0575E6; stop-opacity:1"/>
  </linearGradient>
  <linearGradient id="sunrise" x1="0%" x2="0%" y1="0%" y2="100%">
   <stop offset="0%" style="stop-color: #FF8501; stop-opacity:1"/>
   <stop offset="100%" style="stop-color: #FFCB01; stop-opacity:1"/>
  </linearGradient>
  <linearGradient id="telinkrin" x1="0%" x2="0%" y1="0%" y2="100%">
   <stop offset="0%" style="stop-color: #b2ced6; stop-opacity:1"/>
   <stop offset="100%" style="stop-color: #6da5b7; stop-opacity:1"/>
  </linearGradient>
  <linearGradient id="60spsycho" x1="0%" x2="0%" y1="0%" y2="100%">
   <stop offset="0%" style="stop-color: #df5940; stop-opacity:1"/>
   <stop offset="25%" style="stop-color: #d8d15f; stop-opacity:1"/>
   <stop offset="50%" style="stop-color: #e9882a; stop-opacity:1"/>
   <stop offset="100%" style="stop-color: #279362; stop-opacity:1"/>
  </linearGradient>
  <linearGradient id="90ssummer" x1="0%" x2="0%" y1="0%" y2="100%">
   <stop offset="0%" style="stop-color: #f618c7; stop-opacity:1"/>
   <stop offset="20%" style="stop-color: #94ffab; stop-opacity:1"/>
   <stop offset="50%" style="stop-color: #fbfd54; stop-opacity:1"/>
   <stop offset="100%" style="stop-color: #0f83ae; stop-opacity:1"/>
  </linearGradient>
 </defs>
 <path style="fill:currentColor" class="ColorScheme-Text" fill-rule="evenodd" d="M 4.113 10.028 C 3.951 10.052 3.784 10.064 3.615 10.064 C 1.64 10.064 0.037 8.461 0.037 6.486 C 0.037 4.852 1.135 3.472 2.634 3.047 C 3.063 1.385 4.572 0.156 6.367 0.156 C 7.711 0.156 8.895 0.846 9.583 1.892 C 10.001 1.498 10.564 1.257 11.183 1.257 C 12.134 1.257 12.954 1.825 13.318 2.642 C 14.816 2.747 16 3.998 16 5.523 C 16 6.563 15.449 7.476 14.624 7.985 C 14.624 7.99 14.624 7.995 14.624 8 C 14.624 9.595 13.329 10.89 11.734 10.89 C 11.269 10.89 10.829 10.78 10.44 10.584 C 9.736 11.444 8.665 11.991 7.468 11.991 C 6.029 11.991 4.773 11.2 4.113 10.028 L 4.113 10.028 L 4.113 10.028 L 4.113 10.028 Z M 8.844 13.367 C 8.844 12.607 9.461 11.991 10.22 11.991 C 10.98 11.991 11.596 12.607 11.596 13.367 C 11.596 14.126 10.98 14.743 10.22 14.743 C 9.461 14.743 8.844 14.126 8.844 13.367 L 8.844 13.367 L 8.844 13.367 L 8.844 13.367 Z M 4.991 14.468 C 4.991 13.86 5.484 13.367 6.092 13.367 C 6.699 13.367 7.193 13.86 7.193 14.468 C 7.193 15.076 6.699 15.569 6.092 15.569 C 5.484 15.569 4.991 15.076 4.991 14.468 L 4.991 14.468 L 4.991 14.468 Z M 7.04 5.385 L 8.807 3.922 C 8.807 3.714 8.807 3.527 8.807 3.399 C 8.807 3.28 8.89 3.183 8.992 3.183 C 9.671 3.183 11.522 3.183 12.201 3.183 L 12.201 3.183 L 12.201 3.183 C 12.303 3.183 12.385 3.28 12.385 3.399 C 12.385 3.797 12.385 4.772 12.385 5.169 C 12.385 5.289 12.303 5.385 12.201 5.385 C 11.522 5.385 9.671 5.385 8.992 5.385 C 8.89 5.385 8.807 5.289 8.807 5.169 C 8.807 5.011 8.807 4.762 8.807 4.493 L 7.486 5.588 C 7.495 5.616 7.499 5.645 7.499 5.676 C 7.499 6.059 7.499 6.914 7.499 7.296 C 7.499 7.327 7.495 7.357 7.486 7.385 L 8.807 8.479 C 8.807 8.211 8.807 7.961 8.807 7.803 C 8.807 7.684 8.89 7.587 8.992 7.587 C 9.671 7.587 11.522 7.587 12.201 7.587 L 12.201 7.587 C 12.303 7.587 12.385 7.684 12.385 7.803 C 12.385 8.2 12.385 9.176 12.385 9.573 C 12.385 9.692 12.303 9.789 12.201 9.789 C 11.522 9.789 9.671 9.789 8.992 9.789 C 8.89 9.789 8.807 9.692 8.807 9.573 C 8.807 9.446 8.807 9.259 8.807 9.051 L 7.04 7.587 C 5.93 7.587 3.474 7.587 2.539 7.587 C 2.391 7.587 2.27 7.457 2.27 7.296 C 2.27 6.914 2.27 6.059 2.27 5.676 C 2.27 5.516 2.391 5.385 2.539 5.385 C 3.474 5.385 5.93 5.385 7.04 5.385 L 7.04 5.385 Z"/>
</svg>
