<svg xmlns="http://www.w3.org/2000/svg" style="isolation:isolate" width="16" height="16" viewBox="0 0 16 16">
 <defs>
  <style id="current-color-scheme" type="text/css">
   .ColorScheme-Text { color:#d4be98; } .ColorScheme-Highlight { color:#5294e2; }
  </style>
  <linearGradient id="arrongin" x1="0%" x2="0%" y1="0%" y2="100%">
   <stop offset="0%" style="stop-color:#dd9b44; stop-opacity:1"/>
   <stop offset="100%" style="stop-color:#ad6c16; stop-opacity:1"/>
  </linearGradient>
  <linearGradient id="aurora" x1="0%" x2="0%" y1="0%" y2="100%">
   <stop offset="0%" style="stop-color:#09D4DF; stop-opacity:1"/>
   <stop offset="100%" style="stop-color:#9269F4; stop-opacity:1"/>
  </linearGradient>
  <linearGradient id="fitdance" x1="0%" x2="0%" y1="0%" y2="100%">
   <stop offset="0%" style="stop-color:#1AD6AB; stop-opacity:1"/>
   <stop offset="100%" style="stop-color:#329DB6; stop-opacity:1"/>
  </linearGradient>
  <linearGradient id="oomox" x1="0%" x2="0%" y1="0%" y2="100%">
   <stop offset="0%" style="stop-color:#efefe7; stop-opacity:1"/>
   <stop offset="100%" style="stop-color:#8f8f8b; stop-opacity:1"/>
  </linearGradient>
  <linearGradient id="rainblue" x1="0%" x2="0%" y1="0%" y2="100%">
   <stop offset="0%" style="stop-color:#00F260; stop-opacity:1"/>
   <stop offset="100%" style="stop-color:#0575E6; stop-opacity:1"/>
  </linearGradient>
  <linearGradient id="sunrise" x1="0%" x2="0%" y1="0%" y2="100%">
   <stop offset="0%" style="stop-color: #FF8501; stop-opacity:1"/>
   <stop offset="100%" style="stop-color: #FFCB01; stop-opacity:1"/>
  </linearGradient>
  <linearGradient id="telinkrin" x1="0%" x2="0%" y1="0%" y2="100%">
   <stop offset="0%" style="stop-color: #b2ced6; stop-opacity:1"/>
   <stop offset="100%" style="stop-color: #6da5b7; stop-opacity:1"/>
  </linearGradient>
  <linearGradient id="60spsycho" x1="0%" x2="0%" y1="0%" y2="100%">
   <stop offset="0%" style="stop-color: #df5940; stop-opacity:1"/>
   <stop offset="25%" style="stop-color: #d8d15f; stop-opacity:1"/>
   <stop offset="50%" style="stop-color: #e9882a; stop-opacity:1"/>
   <stop offset="100%" style="stop-color: #279362; stop-opacity:1"/>
  </linearGradient>
  <linearGradient id="90ssummer" x1="0%" x2="0%" y1="0%" y2="100%">
   <stop offset="0%" style="stop-color: #f618c7; stop-opacity:1"/>
   <stop offset="20%" style="stop-color: #94ffab; stop-opacity:1"/>
   <stop offset="50%" style="stop-color: #fbfd54; stop-opacity:1"/>
   <stop offset="100%" style="stop-color: #0f83ae; stop-opacity:1"/>
  </linearGradient>
  <clipPath id="_clipPath_hkxr8RvBjfVThWuhHC1B7gOfIPcyCGnN">
   <rect width="16" height="16"/>
  </clipPath>
 </defs>
 <g clip-path="url(#_clipPath_hkxr8RvBjfVThWuhHC1B7gOfIPcyCGnN)">
  <rect style="fill:#000000" fill-opacity="0" width="16" height="16"/>
  <path style="fill:currentColor" class="ColorScheme-Text" d="M 6.752 0.001 C 3.022 0.001 0 1.344 0 3.005 C 0 4.666 3.022 6.01 6.752 6.01 C 8.137 6.01 9.425 5.822 10.498 5.503 L 11.006 5.132 C 11.283 4.919 11.637 4.834 11.981 4.898 C 12.927 4.381 13.503 3.724 13.503 3.005 C 13.503 1.344 10.481 0 6.752 0 L 6.752 0.001 Z M 0 3.825 L 0 6.127 C 0 7.788 3.022 9.132 6.752 9.132 C 6.822 9.132 6.895 9.134 6.966 9.132 C 7.255 8.809 7.692 8.661 8.118 8.741 L 8.274 8.761 C 8.101 8.545 8.004 8.277 8 8 C 8 7.607 8.193 7.242 8.508 7.005 L 8.937 6.673 C 8.249 6.778 7.52 6.83 6.752 6.83 C 3.022 6.83 0 5.486 0 3.824 L 0 3.825 Z M 13.503 3.825 C 13.503 4.354 13.2 4.856 12.664 5.288 C 12.874 5.515 12.996 5.807 12.996 6.127 L 12.996 6.381 C 13.147 6.415 13.298 6.471 13.444 6.517 C 13.483 6.386 13.503 6.264 13.503 6.127 L 13.503 3.824 L 13.503 3.825 Z M 11.747 6.127 L 9.249 8 L 11.747 9.873 L 11.747 8.585 C 13.295 8.591 14.613 9.712 14.869 11.239 C 15.154 12.961 13.976 14.583 12.254 14.868 C 11.428 15.007 10.582 14.811 9.901 14.324 C 9.22 13.837 8.761 13.099 8.625 12.274 C 8.5 11.524 8.664 10.797 9.015 10.186 L 7.883 9.971 C 7.525 10.744 7.41 11.608 7.552 12.449 C 7.935 14.765 10.132 16.326 12.449 15.942 C 14.766 15.557 16.325 13.361 15.942 11.044 C 15.601 8.993 13.826 7.491 11.747 7.493 L 11.747 6.127 Z M 0 6.947 L 0 9.249 C 0 10.839 2.774 12.127 6.283 12.234 C 6.21 11.462 6.303 10.684 6.557 9.951 C 2.917 9.905 0.001 8.578 0.001 6.946 L 0 6.947 Z M 0 10.069 L 0 12.371 C 0 14.032 3.022 15.376 6.752 15.376 C 7.035 15.376 7.317 15.371 7.591 15.356 C 7.02 14.7 6.612 13.918 6.401 13.073 C 2.832 12.993 0.001 11.676 0.001 10.068 L 0 10.069 Z"/>
 </g>
</svg>
