<svg xmlns="http://www.w3.org/2000/svg" style="isolation:isolate" width="16" height="16" viewBox="0 0 16 16">
 <defs>
  <style id="current-color-scheme" type="text/css">
   .ColorScheme-Text { color:#d4be98; } .ColorScheme-Highlight { color:#5294e2; }
  </style>
  <linearGradient id="arrongin" x1="0%" x2="0%" y1="0%" y2="100%">
   <stop offset="0%" style="stop-color:#dd9b44; stop-opacity:1"/>
   <stop offset="100%" style="stop-color:#ad6c16; stop-opacity:1"/>
  </linearGradient>
  <linearGradient id="aurora" x1="0%" x2="0%" y1="0%" y2="100%">
   <stop offset="0%" style="stop-color:#09D4DF; stop-opacity:1"/>
   <stop offset="100%" style="stop-color:#9269F4; stop-opacity:1"/>
  </linearGradient>
  <linearGradient id="fitdance" x1="0%" x2="0%" y1="0%" y2="100%">
   <stop offset="0%" style="stop-color:#1AD6AB; stop-opacity:1"/>
   <stop offset="100%" style="stop-color:#329DB6; stop-opacity:1"/>
  </linearGradient>
  <linearGradient id="oomox" x1="0%" x2="0%" y1="0%" y2="100%">
   <stop offset="0%" style="stop-color:#efefe7; stop-opacity:1"/>
   <stop offset="100%" style="stop-color:#8f8f8b; stop-opacity:1"/>
  </linearGradient>
  <linearGradient id="rainblue" x1="0%" x2="0%" y1="0%" y2="100%">
   <stop offset="0%" style="stop-color:#00F260; stop-opacity:1"/>
   <stop offset="100%" style="stop-color:#0575E6; stop-opacity:1"/>
  </linearGradient>
  <linearGradient id="sunrise" x1="0%" x2="0%" y1="0%" y2="100%">
   <stop offset="0%" style="stop-color: #FF8501; stop-opacity:1"/>
   <stop offset="100%" style="stop-color: #FFCB01; stop-opacity:1"/>
  </linearGradient>
  <linearGradient id="telinkrin" x1="0%" x2="0%" y1="0%" y2="100%">
   <stop offset="0%" style="stop-color: #b2ced6; stop-opacity:1"/>
   <stop offset="100%" style="stop-color: #6da5b7; stop-opacity:1"/>
  </linearGradient>
  <linearGradient id="60spsycho" x1="0%" x2="0%" y1="0%" y2="100%">
   <stop offset="0%" style="stop-color: #df5940; stop-opacity:1"/>
   <stop offset="25%" style="stop-color: #d8d15f; stop-opacity:1"/>
   <stop offset="50%" style="stop-color: #e9882a; stop-opacity:1"/>
   <stop offset="100%" style="stop-color: #279362; stop-opacity:1"/>
  </linearGradient>
  <linearGradient id="90ssummer" x1="0%" x2="0%" y1="0%" y2="100%">
   <stop offset="0%" style="stop-color: #f618c7; stop-opacity:1"/>
   <stop offset="20%" style="stop-color: #94ffab; stop-opacity:1"/>
   <stop offset="50%" style="stop-color: #fbfd54; stop-opacity:1"/>
   <stop offset="100%" style="stop-color: #0f83ae; stop-opacity:1"/>
  </linearGradient>
 </defs>
 <path style="fill:currentColor" class="ColorScheme-Text" d="M 13.809 16 L 1.617 16 C 1.355 16 0.977 15.818 0.977 15.487 C 0.977 15.412 1.003 15.34 1.051 15.283 C 3.057 12.883 5.064 10.496 7.184 7.996 C 5.144 5.501 3.099 3.011 1.05 0.524 C 0.971 0.428 0.954 0.296 1.007 0.183 C 1.06 0.071 1.173 0 1.297 0 L 13.745 0 C 13.921 0 14.065 0.143 14.065 0.32 L 14.065 4 C 14.065 4.177 13.921 4.32 13.745 4.32 L 13.329 4.32 C 13.001 4.32 12.8 4.165 12.731 3.858 C 12.713 3.8 12.702 3.742 12.693 3.685 C 12.687 3.654 12.684 3.621 12.673 3.59 C 12.291 2.314 12.164 1.888 10.512 1.888 C 9.368 1.914 7.407 1.919 6.365 1.92 L 7.392 3.269 C 8.355 4.531 9.298 5.77 10.318 7.101 C 10.408 7.22 10.406 7.385 10.312 7.5 L 5.686 13.12 L 11.32 13.121 C 12.327 13.121 13.004 12.683 13.386 11.779 C 13.397 11.741 13.427 11.679 13.458 11.618 C 13.476 11.582 13.493 11.549 13.506 11.514 C 13.662 10.976 14.071 10.647 14.596 10.647 C 14.7 10.647 14.765 10.661 14.765 10.661 C 14.934 10.698 15.051 10.865 15.018 11.036 L 14.124 15.74 C 14.095 15.891 13.962 16 13.808 16 L 13.809 16 Z"/>
</svg>
