<svg xmlns="http://www.w3.org/2000/svg" style="isolation:isolate" width="16" height="16" viewBox="0 0 16 16">
 <defs>
  <style id="current-color-scheme" type="text/css">
   .ColorScheme-Text { color:#d4be98; } .ColorScheme-Highlight { color:#5294e2; }
  </style>
  <linearGradient id="arrongin" x1="0%" x2="0%" y1="0%" y2="100%">
   <stop offset="0%" style="stop-color:#dd9b44; stop-opacity:1"/>
   <stop offset="100%" style="stop-color:#ad6c16; stop-opacity:1"/>
  </linearGradient>
  <linearGradient id="aurora" x1="0%" x2="0%" y1="0%" y2="100%">
   <stop offset="0%" style="stop-color:#09D4DF; stop-opacity:1"/>
   <stop offset="100%" style="stop-color:#9269F4; stop-opacity:1"/>
  </linearGradient>
  <linearGradient id="fitdance" x1="0%" x2="0%" y1="0%" y2="100%">
   <stop offset="0%" style="stop-color:#1AD6AB; stop-opacity:1"/>
   <stop offset="100%" style="stop-color:#329DB6; stop-opacity:1"/>
  </linearGradient>
  <linearGradient id="oomox" x1="0%" x2="0%" y1="0%" y2="100%">
   <stop offset="0%" style="stop-color:#efefe7; stop-opacity:1"/>
   <stop offset="100%" style="stop-color:#8f8f8b; stop-opacity:1"/>
  </linearGradient>
  <linearGradient id="rainblue" x1="0%" x2="0%" y1="0%" y2="100%">
   <stop offset="0%" style="stop-color:#00F260; stop-opacity:1"/>
   <stop offset="100%" style="stop-color:#0575E6; stop-opacity:1"/>
  </linearGradient>
  <linearGradient id="sunrise" x1="0%" x2="0%" y1="0%" y2="100%">
   <stop offset="0%" style="stop-color: #FF8501; stop-opacity:1"/>
   <stop offset="100%" style="stop-color: #FFCB01; stop-opacity:1"/>
  </linearGradient>
  <linearGradient id="telinkrin" x1="0%" x2="0%" y1="0%" y2="100%">
   <stop offset="0%" style="stop-color: #b2ced6; stop-opacity:1"/>
   <stop offset="100%" style="stop-color: #6da5b7; stop-opacity:1"/>
  </linearGradient>
  <linearGradient id="60spsycho" x1="0%" x2="0%" y1="0%" y2="100%">
   <stop offset="0%" style="stop-color: #df5940; stop-opacity:1"/>
   <stop offset="25%" style="stop-color: #d8d15f; stop-opacity:1"/>
   <stop offset="50%" style="stop-color: #e9882a; stop-opacity:1"/>
   <stop offset="100%" style="stop-color: #279362; stop-opacity:1"/>
  </linearGradient>
  <linearGradient id="90ssummer" x1="0%" x2="0%" y1="0%" y2="100%">
   <stop offset="0%" style="stop-color: #f618c7; stop-opacity:1"/>
   <stop offset="20%" style="stop-color: #94ffab; stop-opacity:1"/>
   <stop offset="50%" style="stop-color: #fbfd54; stop-opacity:1"/>
   <stop offset="100%" style="stop-color: #0f83ae; stop-opacity:1"/>
  </linearGradient>
 </defs>
 <path style="fill:currentColor" class="ColorScheme-Text" fill-rule="evenodd" d="M 8 6.4 C 8.883656 6.4 9.6 7.116344 9.6 8 C 9.6 8.883656 8.883656 9.6 8 9.6 C 7.116344 9.6 6.4 8.883656 6.4 8 C 6.4 7.116344 7.116344 6.4 8 6.4 L 8 6.4 L 8 6.4 Z M 2.4 7.2 C 2.841828 7.2 3.2 7.558172 3.2 8 C 3.2 8.441827 2.841828 8.8 2.4 8.8 C 1.958172 8.8 1.6 8.441827 1.6 8 C 1.6 7.558172 1.958172 7.2 2.4 7.2 L 2.4 7.2 L 2.4 7.2 Z M 8 4.8 C 6.232689 4.8 4.8 6.232689 4.8 8 L 4.8 8 C 4.8 9.767311 6.232689 11.2 8 11.2 C 9.767311 11.2 11.2 9.767311 11.2 8 L 11.2 8 C 11.2 6.232689 9.767311 4.8 8 4.8 L 8 4.8 L 8 4.8 Z M 2.4 5.6 C 1.074517 5.6 0 6.674516 0 8 C 0 9.325484 1.074517 10.4 2.4 10.4 C 3.725484 10.4 4.8 9.325484 4.8 8 L 4.8 8 C 4.8 6.674516 3.725484 5.6 2.4 5.6 L 2.4 5.6 L 2.4 5.6 Z M 13.6 7.2 C 14.041827 7.2 14.4 7.558172 14.4 8 C 14.4 8.441827 14.041827 8.8 13.6 8.8 C 13.158173 8.8 12.8 8.441827 12.8 8 C 12.8 7.558172 13.158173 7.2 13.6 7.2 L 13.6 7.2 Z M 13.6 5.6 C 12.274516 5.6 11.2 6.674516 11.2 8 L 11.2 8 C 11.2 9.325484 12.274516 10.4 13.6 10.4 C 14.925484 10.4 16 9.325484 16 8 C 16 6.674516 14.925484 5.6 13.6 5.6 L 13.6 5.6 Z"/>
</svg>
