<svg xmlns="http://www.w3.org/2000/svg" style="isolation:isolate" width="16" height="16" viewBox="0 0 16 16">
 <defs>
  <style id="current-color-scheme" type="text/css">
   .ColorScheme-Text { color:#d4be98; } .ColorScheme-Highlight { color:#5294e2; }
  </style>
  <linearGradient id="arrongin" x1="0%" x2="0%" y1="0%" y2="100%">
   <stop offset="0%" style="stop-color:#dd9b44; stop-opacity:1"/>
   <stop offset="100%" style="stop-color:#ad6c16; stop-opacity:1"/>
  </linearGradient>
  <linearGradient id="aurora" x1="0%" x2="0%" y1="0%" y2="100%">
   <stop offset="0%" style="stop-color:#09D4DF; stop-opacity:1"/>
   <stop offset="100%" style="stop-color:#9269F4; stop-opacity:1"/>
  </linearGradient>
  <linearGradient id="fitdance" x1="0%" x2="0%" y1="0%" y2="100%">
   <stop offset="0%" style="stop-color:#1AD6AB; stop-opacity:1"/>
   <stop offset="100%" style="stop-color:#329DB6; stop-opacity:1"/>
  </linearGradient>
  <linearGradient id="oomox" x1="0%" x2="0%" y1="0%" y2="100%">
   <stop offset="0%" style="stop-color:#efefe7; stop-opacity:1"/>
   <stop offset="100%" style="stop-color:#8f8f8b; stop-opacity:1"/>
  </linearGradient>
  <linearGradient id="rainblue" x1="0%" x2="0%" y1="0%" y2="100%">
   <stop offset="0%" style="stop-color:#00F260; stop-opacity:1"/>
   <stop offset="100%" style="stop-color:#0575E6; stop-opacity:1"/>
  </linearGradient>
  <linearGradient id="sunrise" x1="0%" x2="0%" y1="0%" y2="100%">
   <stop offset="0%" style="stop-color: #FF8501; stop-opacity:1"/>
   <stop offset="100%" style="stop-color: #FFCB01; stop-opacity:1"/>
  </linearGradient>
  <linearGradient id="telinkrin" x1="0%" x2="0%" y1="0%" y2="100%">
   <stop offset="0%" style="stop-color: #b2ced6; stop-opacity:1"/>
   <stop offset="100%" style="stop-color: #6da5b7; stop-opacity:1"/>
  </linearGradient>
  <linearGradient id="60spsycho" x1="0%" x2="0%" y1="0%" y2="100%">
   <stop offset="0%" style="stop-color: #df5940; stop-opacity:1"/>
   <stop offset="25%" style="stop-color: #d8d15f; stop-opacity:1"/>
   <stop offset="50%" style="stop-color: #e9882a; stop-opacity:1"/>
   <stop offset="100%" style="stop-color: #279362; stop-opacity:1"/>
  </linearGradient>
  <linearGradient id="90ssummer" x1="0%" x2="0%" y1="0%" y2="100%">
   <stop offset="0%" style="stop-color: #f618c7; stop-opacity:1"/>
   <stop offset="20%" style="stop-color: #94ffab; stop-opacity:1"/>
   <stop offset="50%" style="stop-color: #fbfd54; stop-opacity:1"/>
   <stop offset="100%" style="stop-color: #0f83ae; stop-opacity:1"/>
  </linearGradient>
  <clipPath id="_clipPath_xjxgxBEmFihNz9CctBxGjAdbBouKyMOI">
   <rect width="16" height="16"/>
  </clipPath>
 </defs>
 <g clip-path="url(#_clipPath_xjxgxBEmFihNz9CctBxGjAdbBouKyMOI)">
  <rect style="fill:currentColor" class="ColorScheme-Text" fill-opacity="0" width="16" height="16"/>
  <path style="fill:currentColor" class="ColorScheme-Text" fill-rule="evenodd" d="M 8.841 8.678 L 10.956 8.678 C 11.345 8.678 11.661 8.994 11.661 9.383 L 11.661 13.125 C 11.661 13.515 11.345 13.831 10.956 13.831 L 8.841 13.831 C 8.452 13.831 8.136 13.515 8.136 13.125 L 8.136 9.383 C 8.136 8.994 8.452 8.678 8.841 8.678 L 8.841 8.678 L 8.841 8.678 Z M 13.18 8.678 L 15.295 8.678 C 15.684 8.678 16 8.994 16 9.383 L 16 13.125 C 16 13.515 15.684 13.831 15.295 13.831 L 13.18 13.831 C 12.791 13.831 12.475 13.515 12.475 13.125 L 12.475 9.383 C 12.475 8.994 12.791 8.678 13.18 8.678 L 13.18 8.678 L 13.18 8.678 Z M 9.478 5.354 L 10.354 4.481 L 9.478 3.609 C 9.426 3.557 9.396 3.487 9.396 3.414 C 9.396 3.341 9.425 3.271 9.476 3.219 C 9.528 3.167 9.598 3.138 9.671 3.138 C 9.745 3.137 9.814 3.167 9.866 3.218 L 11.135 4.481 L 9.866 5.744 C 9.814 5.796 9.745 5.825 9.671 5.825 C 9.598 5.825 9.528 5.795 9.476 5.743 C 9.425 5.691 9.396 5.622 9.396 5.548 C 9.396 5.475 9.426 5.406 9.478 5.354 L 9.478 5.354 L 9.478 5.354 L 9.478 5.354 L 9.478 5.354 L 9.478 5.354 L 9.478 5.354 L 9.478 5.354 Z M 11.375 5.354 L 12.252 4.481 L 11.375 3.609 C 11.324 3.557 11.294 3.487 11.294 3.414 C 11.294 3.341 11.322 3.271 11.374 3.219 C 11.426 3.167 11.496 3.138 11.57 3.138 C 11.642 3.137 11.713 3.167 11.765 3.218 L 13.034 4.481 L 11.765 5.744 C 11.713 5.796 11.642 5.825 11.57 5.825 C 11.496 5.825 11.426 5.795 11.374 5.743 C 11.322 5.691 11.294 5.622 11.294 5.548 C 11.294 5.475 11.324 5.406 11.375 5.354 L 11.375 5.354 L 11.375 5.354 L 11.375 5.354 L 11.375 5.354 L 11.375 5.354 Z M 13.273 5.354 L 14.15 4.481 L 13.273 3.609 C 13.222 3.557 13.193 3.487 13.193 3.414 C 13.192 3.341 13.222 3.271 13.272 3.219 C 13.324 3.167 13.395 3.138 13.468 3.138 C 13.54 3.137 13.611 3.167 13.663 3.218 L 14.932 4.481 L 13.663 5.744 C 13.611 5.796 13.54 5.825 13.468 5.825 C 13.395 5.825 13.324 5.795 13.272 5.743 C 13.222 5.691 13.192 5.622 13.193 5.548 C 13.193 5.475 13.222 5.406 13.273 5.354 L 13.273 5.354 L 13.273 5.354 Z M 8.85 2.169 L 15.285 2.169 C 15.68 2.169 16 2.49 16 2.884 L 16 7.15 C 16 7.544 15.68 7.864 15.285 7.864 L 8.85 7.864 C 8.456 7.864 8.136 7.544 8.136 7.15 L 8.136 2.884 C 8.136 2.49 8.456 2.169 8.85 2.169 L 8.85 2.169 L 8.85 2.169 L 8.85 2.169 L 8.85 2.169 L 8.85 2.169 L 8.85 2.169 Z M 1.085 4.339 L 6.237 4.339 L 6.237 5.153 L 1.085 5.153 L 1.085 4.339 L 1.085 4.339 L 1.085 4.339 L 1.085 4.339 L 1.085 4.339 L 1.085 4.339 L 1.085 4.339 L 1.085 4.339 L 1.085 4.339 L 1.085 4.339 Z M 1.085 6.508 L 6.237 6.508 L 6.237 7.322 L 1.085 7.322 L 1.085 6.508 L 1.085 6.508 L 1.085 6.508 L 1.085 6.508 L 1.085 6.508 L 1.085 6.508 L 1.085 6.508 L 1.085 6.508 Z M 1.085 8.678 L 6.237 8.678 L 6.237 9.492 L 1.085 9.492 L 1.085 8.678 L 1.085 8.678 L 1.085 8.678 L 1.085 8.678 L 1.085 8.678 Z M 1.085 10.847 L 4.61 10.847 L 4.61 11.661 L 1.085 11.661 L 1.085 10.847 L 1.085 10.847 Z M 0.732 2.169 L 6.59 2.169 C 6.994 2.169 7.322 2.498 7.322 2.902 L 7.322 13.098 C 7.322 13.502 6.994 13.831 6.59 13.831 L 0.732 13.831 C 0.328 13.831 0 13.502 0 13.098 L 0 2.902 C 0 2.498 0.328 2.169 0.732 2.169 L 0.732 2.169 L 0.732 2.169 L 0.732 2.169 L 0.732 2.169 L 0.732 2.169 L 0.732 2.169 L 0.732 2.169 Z"/>
 </g>
</svg>
