<svg xmlns="http://www.w3.org/2000/svg" style="isolation:isolate" width="16" height="16" viewBox="0 0 16 16">
 <defs>
  <style id="current-color-scheme" type="text/css">
   .ColorScheme-Text { color:#d4be98; } .ColorScheme-Highlight { color:#5294e2; }
  </style>
  <linearGradient id="arrongin" x1="0%" x2="0%" y1="0%" y2="100%">
   <stop offset="0%" style="stop-color:#dd9b44; stop-opacity:1"/>
   <stop offset="100%" style="stop-color:#ad6c16; stop-opacity:1"/>
  </linearGradient>
  <linearGradient id="aurora" x1="0%" x2="0%" y1="0%" y2="100%">
   <stop offset="0%" style="stop-color:#09D4DF; stop-opacity:1"/>
   <stop offset="100%" style="stop-color:#9269F4; stop-opacity:1"/>
  </linearGradient>
  <linearGradient id="fitdance" x1="0%" x2="0%" y1="0%" y2="100%">
   <stop offset="0%" style="stop-color:#1AD6AB; stop-opacity:1"/>
   <stop offset="100%" style="stop-color:#329DB6; stop-opacity:1"/>
  </linearGradient>
  <linearGradient id="oomox" x1="0%" x2="0%" y1="0%" y2="100%">
   <stop offset="0%" style="stop-color:#efefe7; stop-opacity:1"/>
   <stop offset="100%" style="stop-color:#8f8f8b; stop-opacity:1"/>
  </linearGradient>
  <linearGradient id="rainblue" x1="0%" x2="0%" y1="0%" y2="100%">
   <stop offset="0%" style="stop-color:#00F260; stop-opacity:1"/>
   <stop offset="100%" style="stop-color:#0575E6; stop-opacity:1"/>
  </linearGradient>
  <linearGradient id="sunrise" x1="0%" x2="0%" y1="0%" y2="100%">
   <stop offset="0%" style="stop-color: #FF8501; stop-opacity:1"/>
   <stop offset="100%" style="stop-color: #FFCB01; stop-opacity:1"/>
  </linearGradient>
  <linearGradient id="telinkrin" x1="0%" x2="0%" y1="0%" y2="100%">
   <stop offset="0%" style="stop-color: #b2ced6; stop-opacity:1"/>
   <stop offset="100%" style="stop-color: #6da5b7; stop-opacity:1"/>
  </linearGradient>
  <linearGradient id="60spsycho" x1="0%" x2="0%" y1="0%" y2="100%">
   <stop offset="0%" style="stop-color: #df5940; stop-opacity:1"/>
   <stop offset="25%" style="stop-color: #d8d15f; stop-opacity:1"/>
   <stop offset="50%" style="stop-color: #e9882a; stop-opacity:1"/>
   <stop offset="100%" style="stop-color: #279362; stop-opacity:1"/>
  </linearGradient>
  <linearGradient id="90ssummer" x1="0%" x2="0%" y1="0%" y2="100%">
   <stop offset="0%" style="stop-color: #f618c7; stop-opacity:1"/>
   <stop offset="20%" style="stop-color: #94ffab; stop-opacity:1"/>
   <stop offset="50%" style="stop-color: #fbfd54; stop-opacity:1"/>
   <stop offset="100%" style="stop-color: #0f83ae; stop-opacity:1"/>
  </linearGradient>
 </defs>
 <path style="fill:currentColor" class="ColorScheme-Text" fill-rule="evenodd" d="M 6.958 0 L 7.266 0 C 7.494 0.068 7.726 0.148 7.91 0.304 C 8.438 0.732 8.826 1.312 9.118 1.92 C 9.35 2.452 9.442 3.028 9.514 3.6 C 9.542 4.04 9.646 4.476 9.626 4.92 C 9.626 5.256 9.602 5.6 9.494 5.92 C 9.322 6.404 9.222 6.908 9.046 7.392 C 8.866 7.936 8.646 8.472 8.386 8.984 C 8.274 9.228 8.05 9.392 7.906 9.612 C 7.766 9.812 7.626 10.024 7.442 10.188 C 7.282 10.332 7.126 10.488 6.958 10.624 C 6.658 10.848 6.37 11.096 6.03 11.256 C 5.77 11.372 5.506 11.524 5.21 11.512 C 5.106 11.516 4.998 11.504 4.894 11.5 C 4.958 11.324 5.034 11.156 5.13 11 C 5.198 10.88 5.314 10.808 5.414 10.728 C 5.734 10.484 6.03 10.22 6.338 9.968 C 6.442 9.88 6.57 9.82 6.654 9.712 C 6.69 9.624 6.634 9.476 6.526 9.492 C 6.402 9.488 6.306 9.572 6.214 9.644 C 5.862 9.932 5.522 10.236 5.158 10.508 C 5.042 10.6 4.914 10.692 4.842 10.828 C 4.758 10.988 4.686 11.152 4.594 11.308 C 4.266 11.252 3.922 11.276 3.602 11.172 C 3.294 11.088 3.014 10.876 2.858 10.6 C 2.734 10.296 2.702 9.964 2.718 9.64 C 2.934 9.52 3.17 9.44 3.394 9.34 C 4.202 8.968 5.062 8.732 5.918 8.5 C 6.03 8.484 6.106 8.356 6.042 8.256 C 5.986 8.164 5.858 8.176 5.77 8.196 C 5.118 8.372 4.474 8.572 3.838 8.792 C 3.442 8.952 3.05 9.132 2.654 9.296 C 2.486 9.104 2.33 8.904 2.202 8.684 C 2.074 8.48 2.042 8.236 1.97 8.012 L 1.97 7.104 C 2.078 6.728 2.258 6.38 2.458 6.044 C 2.682 6.052 2.906 6.1 3.13 6.128 C 3.686 6.192 4.242 6.24 4.798 6.304 C 5.23 6.36 5.662 6.428 6.094 6.484 C 6.186 6.508 6.31 6.456 6.314 6.352 C 6.342 6.216 6.186 6.16 6.082 6.148 C 5.606 6.096 5.138 6.02 4.662 5.956 C 3.942 5.892 3.222 5.816 2.506 5.7 C 2.422 5.436 2.402 5.156 2.394 4.88 C 2.378 4.22 2.622 3.572 3.03 3.06 C 3.202 2.816 3.442 2.636 3.682 2.46 C 3.958 2.716 4.23 2.972 4.506 3.224 C 4.774 3.48 5.082 3.688 5.37 3.92 C 5.622 4.128 5.926 4.248 6.21 4.404 C 6.382 4.488 6.546 4.6 6.734 4.648 C 6.882 4.68 6.966 4.452 6.834 4.376 C 6.49 4.144 6.094 4.004 5.746 3.784 C 5.522 3.624 5.31 3.448 5.09 3.284 C 4.798 3.068 4.55 2.808 4.282 2.568 C 4.158 2.452 4.026 2.352 3.914 2.224 C 3.918 2.148 3.946 2.076 3.97 2.004 C 4.09 1.692 4.154 1.348 4.37 1.08 C 4.522 0.836 4.762 0.672 4.99 0.5 C 5.326 0.288 5.738 0.332 6.118 0.336 C 6.314 0.876 6.45 1.44 6.626 1.984 C 6.674 2.116 6.758 2.224 6.834 2.336 C 7.138 2.78 7.442 3.224 7.738 3.672 C 7.89 3.904 8.13 4.056 8.346 4.224 C 8.426 4.296 8.534 4.268 8.63 4.256 C 8.626 4.176 8.666 4.076 8.598 4.012 C 8.418 3.828 8.17 3.724 8.026 3.504 C 7.746 3.092 7.466 2.676 7.182 2.264 C 7.074 2.104 6.946 1.952 6.894 1.76 C 6.774 1.32 6.638 0.884 6.514 0.448 C 6.502 0.392 6.47 0.324 6.526 0.276 C 6.65 0.16 6.826 0.108 6.958 0 L 6.958 0 L 6.958 0 L 6.958 0 L 6.958 0 L 6.958 0 L 6.958 0 Z M 9.926 5.48 C 10.362 5.928 10.854 6.32 11.406 6.608 C 11.562 6.696 11.738 6.776 11.846 6.92 C 11.966 7.088 12.118 7.26 12.098 7.48 C 12.11 7.732 11.886 7.88 11.714 8.024 C 11.598 8.044 11.478 8.06 11.362 8.096 C 11.006 8.124 10.642 8.068 10.286 8.14 C 9.878 8.144 9.482 8.256 9.078 8.288 C 9.182 7.976 9.31 7.672 9.41 7.356 C 9.57 6.912 9.638 6.444 9.818 6.008 C 9.886 5.84 9.894 5.656 9.926 5.48 L 9.926 5.48 L 9.926 5.48 L 9.926 5.48 L 9.926 5.48 L 9.926 5.48 L 9.926 5.48 Z M 12.378 7.132 C 12.614 7.18 12.858 7.3 12.942 7.54 C 12.978 7.728 12.954 7.924 12.938 8.116 C 12.934 8.216 13.034 8.26 13.11 8.3 C 13.114 8.392 13.11 8.488 13.11 8.58 C 12.922 8.684 12.918 8.92 12.906 9.112 C 12.83 9.36 12.73 9.624 12.79 9.884 C 12.822 10.144 12.706 10.404 12.798 10.656 C 12.842 10.744 12.898 10.828 12.934 10.92 C 12.81 10.832 12.702 10.712 12.566 10.644 C 12.398 10.556 12.222 10.48 12.082 10.356 C 12.062 10.204 12.182 10.088 12.262 9.976 C 12.334 9.708 12.158 9.468 12.146 9.204 C 12.122 9.028 12.154 8.852 12.15 8.68 C 12.162 8.572 12.022 8.56 11.986 8.476 C 11.938 8.392 11.946 8.272 12.018 8.204 C 12.146 8.068 12.33 7.96 12.378 7.768 C 12.458 7.564 12.418 7.344 12.378 7.132 L 12.378 7.132 L 12.378 7.132 L 12.378 7.132 L 12.378 7.132 L 12.378 7.132 L 12.378 7.132 Z M 10.254 10.96 C 10.318 10.96 10.382 10.96 10.446 10.964 C 10.438 10.988 10.426 11.032 10.418 11.052 C 10.366 11.056 10.314 11.06 10.266 11.068 C 10.262 11.044 10.254 10.988 10.254 10.96 L 10.254 10.96 L 10.254 10.96 L 10.254 10.96 Z M 7.014 11.436 C 7.21 11.316 7.406 11.204 7.614 11.108 C 7.758 11.32 7.926 11.544 8.182 11.628 C 8.534 11.816 8.922 11.9 9.298 12.028 C 9.554 12.1 9.826 12.088 10.09 12.128 C 10.41 12.176 10.73 12.184 11.05 12.212 C 11.55 12.176 12.066 12.176 12.53 11.96 C 12.694 11.852 12.882 11.756 12.998 11.596 C 13.078 11.44 13.09 11.264 13.118 11.096 C 13.278 11.12 13.422 11.188 13.582 11.216 C 13.638 11.232 13.71 11.224 13.746 11.276 C 13.034 11.812 12.306 12.332 11.59 12.86 C 11.53 12.904 11.474 12.948 11.41 12.98 C 11.27 12.976 11.138 12.916 11.006 12.88 C 9.854 12.536 8.706 12.188 7.55 11.852 C 7.278 11.756 6.998 11.68 6.722 11.596 C 6.798 11.512 6.922 11.496 7.014 11.436 L 7.014 11.436 L 7.014 11.436 L 7.014 11.436 Z M 13.442 11.912 C 13.498 11.872 13.554 11.836 13.61 11.8 C 13.618 12.076 13.658 12.364 13.558 12.628 C 13.498 12.744 13.598 12.88 13.53 12.992 C 13.462 13.088 13.362 13.152 13.278 13.228 C 12.75 13.684 12.218 14.14 11.686 14.596 C 11.554 14.708 11.43 14.836 11.286 14.932 C 11.182 14.948 11.086 14.888 10.986 14.864 C 9.55 14.404 8.122 13.928 6.682 13.484 C 6.678 13.38 6.658 13.272 6.698 13.172 C 6.754 13.008 6.658 12.844 6.662 12.68 C 6.654 12.516 6.762 12.368 6.758 12.204 C 6.77 12.1 6.702 12.012 6.662 11.92 C 8.178 12.384 9.694 12.832 11.206 13.288 C 11.286 13.308 11.366 13.34 11.45 13.332 C 11.546 13.3 11.626 13.24 11.71 13.18 C 12.286 12.756 12.866 12.336 13.442 11.912 L 13.442 11.912 L 13.442 11.912 Z M 9.942 10.6 C 9.722 10.616 9.49 10.644 9.314 10.784 C 9.21 10.892 9.266 11.072 9.382 11.148 C 9.598 11.308 9.874 11.308 10.122 11.372 C 10.294 11.416 10.474 11.424 10.65 11.412 C 10.862 11.388 11.086 11.38 11.266 11.256 C 11.378 11.196 11.442 11.032 11.362 10.924 C 11.246 10.736 11.002 10.696 10.802 10.648 C 10.518 10.608 10.23 10.552 9.942 10.6 L 9.942 10.6 L 9.942 10.6 L 9.942 10.6 L 9.942 10.6 L 9.942 10.6 L 9.942 10.6 Z M 9.434 10.076 C 10.018 10.02 10.61 10.072 11.19 10.152 C 11.338 10.176 11.478 10.224 11.622 10.26 C 11.914 10.336 12.15 10.54 12.418 10.668 C 12.642 10.772 12.838 10.94 12.99 11.14 C 13.03 11.348 12.95 11.596 12.754 11.704 C 12.454 11.94 12.074 12.04 11.702 12.072 C 10.99 12.176 10.274 12.06 9.57 11.992 C 9.334 11.972 9.118 11.864 8.894 11.804 C 8.602 11.732 8.326 11.608 8.062 11.468 C 7.846 11.316 7.642 11.076 7.682 10.796 C 7.73 10.66 7.846 10.564 7.958 10.472 C 8.398 10.2 8.926 10.124 9.434 10.076 L 9.434 10.076 L 9.434 10.076 L 9.434 10.076 L 9.434 10.076 L 9.434 10.076 Z M 11.47 15.216 C 12.234 14.568 12.986 13.9 13.754 13.26 C 13.854 13.364 13.978 13.46 14.03 13.604 C 14.03 13.7 13.986 13.796 13.91 13.864 C 13.598 14.16 13.306 14.484 12.966 14.76 C 12.598 15.124 12.222 15.484 11.834 15.828 C 11.758 15.908 11.658 15.964 11.55 16 L 11.038 16 C 10.714 15.876 10.386 15.764 10.054 15.672 C 9.038 15.292 8.014 14.936 6.994 14.572 C 6.722 14.492 6.454 14.388 6.21 14.24 C 5.99 14.076 6.214 13.664 6.47 13.748 C 8.01 14.248 9.55 14.748 11.09 15.244 C 11.214 15.288 11.362 15.324 11.47 15.216 L 11.47 15.216 Z"/>
</svg>
