<svg xmlns="http://www.w3.org/2000/svg" style="isolation:isolate" width="16" height="16" viewBox="0 0 16 16">
 <defs>
  <style id="current-color-scheme" type="text/css">
   .ColorScheme-Text { color:#d4be98; } .ColorScheme-Highlight { color:#5294e2; }
  </style>
  <linearGradient id="arrongin" x1="0%" x2="0%" y1="0%" y2="100%">
   <stop offset="0%" style="stop-color:#dd9b44; stop-opacity:1"/>
   <stop offset="100%" style="stop-color:#ad6c16; stop-opacity:1"/>
  </linearGradient>
  <linearGradient id="aurora" x1="0%" x2="0%" y1="0%" y2="100%">
   <stop offset="0%" style="stop-color:#09D4DF; stop-opacity:1"/>
   <stop offset="100%" style="stop-color:#9269F4; stop-opacity:1"/>
  </linearGradient>
  <linearGradient id="fitdance" x1="0%" x2="0%" y1="0%" y2="100%">
   <stop offset="0%" style="stop-color:#1AD6AB; stop-opacity:1"/>
   <stop offset="100%" style="stop-color:#329DB6; stop-opacity:1"/>
  </linearGradient>
  <linearGradient id="oomox" x1="0%" x2="0%" y1="0%" y2="100%">
   <stop offset="0%" style="stop-color:#efefe7; stop-opacity:1"/>
   <stop offset="100%" style="stop-color:#8f8f8b; stop-opacity:1"/>
  </linearGradient>
  <linearGradient id="rainblue" x1="0%" x2="0%" y1="0%" y2="100%">
   <stop offset="0%" style="stop-color:#00F260; stop-opacity:1"/>
   <stop offset="100%" style="stop-color:#0575E6; stop-opacity:1"/>
  </linearGradient>
  <linearGradient id="sunrise" x1="0%" x2="0%" y1="0%" y2="100%">
   <stop offset="0%" style="stop-color: #FF8501; stop-opacity:1"/>
   <stop offset="100%" style="stop-color: #FFCB01; stop-opacity:1"/>
  </linearGradient>
  <linearGradient id="telinkrin" x1="0%" x2="0%" y1="0%" y2="100%">
   <stop offset="0%" style="stop-color: #b2ced6; stop-opacity:1"/>
   <stop offset="100%" style="stop-color: #6da5b7; stop-opacity:1"/>
  </linearGradient>
  <linearGradient id="60spsycho" x1="0%" x2="0%" y1="0%" y2="100%">
   <stop offset="0%" style="stop-color: #df5940; stop-opacity:1"/>
   <stop offset="25%" style="stop-color: #d8d15f; stop-opacity:1"/>
   <stop offset="50%" style="stop-color: #e9882a; stop-opacity:1"/>
   <stop offset="100%" style="stop-color: #279362; stop-opacity:1"/>
  </linearGradient>
  <linearGradient id="90ssummer" x1="0%" x2="0%" y1="0%" y2="100%">
   <stop offset="0%" style="stop-color: #f618c7; stop-opacity:1"/>
   <stop offset="20%" style="stop-color: #94ffab; stop-opacity:1"/>
   <stop offset="50%" style="stop-color: #fbfd54; stop-opacity:1"/>
   <stop offset="100%" style="stop-color: #0f83ae; stop-opacity:1"/>
  </linearGradient>
  <clipPath id="_clipPath_zpqKNaSMqplQyFbTX6b0iPwJZk7yts8s">
   <rect width="16" height="16"/>
  </clipPath>
 </defs>
 <g clip-path="url(#_clipPath_zpqKNaSMqplQyFbTX6b0iPwJZk7yts8s)">
  <rect style="fill:currentColor" class="ColorScheme-Text" width="4.625" height="3.594" x="17.09" y="-.09" transform="matrix(1,0,0,1,0,0)"/>
  <path style="fill:currentColor" class="ColorScheme-Text" d="M 5.443 0 L 6.589 4.277 C 6.667 4.565 6.711 4.724 6.373 5.126 C 6.316 5.194 6.26 5.263 6.216 5.34 C 6.038 5.648 5.977 6.024 6.077 6.395 C 6.275 7.137 7.039 7.578 7.781 7.379 C 8.523 7.18 8.964 6.417 8.765 5.675 C 8.665 5.304 8.424 5.008 8.116 4.83 C 8.039 4.786 7.957 4.755 7.873 4.724 C 7.38 4.545 7.339 4.385 7.261 4.097 L 6.164 0 L 5.443 0 L 5.443 0 Z M 16 5.537 L 11.734 6.679 C 11.446 6.757 11.288 6.801 10.886 6.464 C 10.818 6.407 10.749 6.35 10.672 6.306 C 10.364 6.128 9.988 6.067 9.617 6.167 C 8.874 6.365 8.434 7.129 8.633 7.871 C 8.832 8.613 9.595 9.054 10.337 8.855 C 10.708 8.755 11.003 8.515 11.181 8.207 C 11.226 8.129 11.257 8.046 11.288 7.963 C 11.467 7.47 11.626 7.428 11.914 7.351 L 16 6.257 L 16 5.537 L 16 5.537 Z M 5.863 7.202 C 5.771 7.207 5.677 7.222 5.585 7.247 C 5.214 7.347 4.918 7.587 4.74 7.895 C 4.696 7.973 4.664 8.056 4.634 8.139 C 4.454 8.632 4.296 8.673 4.007 8.75 L 0 9.824 L 0 10.544 L 4.187 9.422 C 4.476 9.345 4.634 9.301 5.036 9.638 C 5.104 9.695 5.172 9.751 5.249 9.796 C 5.558 9.974 5.934 10.034 6.305 9.935 C 7.047 9.736 7.488 8.973 7.289 8.231 C 7.115 7.582 6.509 7.163 5.863 7.202 L 5.863 7.202 Z M 8.419 8.677 C 8.327 8.683 8.234 8.698 8.141 8.723 C 7.399 8.922 6.958 9.685 7.157 10.427 C 7.256 10.798 7.497 11.094 7.806 11.272 C 7.883 11.316 7.966 11.347 8.049 11.378 C 8.543 11.557 8.583 11.717 8.66 12.005 L 9.73 16 L 10.451 16 L 9.332 11.825 C 9.255 11.536 9.211 11.378 9.548 10.976 C 9.605 10.908 9.661 10.839 9.706 10.762 C 9.884 10.454 9.944 10.077 9.845 9.706 C 9.671 9.057 9.065 8.638 8.419 8.677 L 8.419 8.677 Z"/>
 </g>
</svg>
