<svg xmlns="http://www.w3.org/2000/svg" width="16.015" height="16.079">
<defs>
  <style id="current-color-scheme" type="text/css">
   .ColorScheme-Text { color:#d4be98; } .ColorScheme-Highlight { color:#5294e2; }
  </style>
  <linearGradient id="arrongin" x1="0%" x2="0%" y1="0%" y2="100%">
   <stop offset="0%" style="stop-color:#dd9b44; stop-opacity:1"/>
   <stop offset="100%" style="stop-color:#ad6c16; stop-opacity:1"/>
  </linearGradient>
  <linearGradient id="aurora" x1="0%" x2="0%" y1="0%" y2="100%">
   <stop offset="0%" style="stop-color:#09D4DF; stop-opacity:1"/>
   <stop offset="100%" style="stop-color:#9269F4; stop-opacity:1"/>
  </linearGradient>
  <linearGradient id="fitdance" x1="0%" x2="0%" y1="0%" y2="100%">
   <stop offset="0%" style="stop-color:#1AD6AB; stop-opacity:1"/>
   <stop offset="100%" style="stop-color:#329DB6; stop-opacity:1"/>
  </linearGradient>
  <linearGradient id="oomox" x1="0%" x2="0%" y1="0%" y2="100%">
   <stop offset="0%" style="stop-color:#efefe7; stop-opacity:1"/>
   <stop offset="100%" style="stop-color:#8f8f8b; stop-opacity:1"/>
  </linearGradient>
  <linearGradient id="rainblue" x1="0%" x2="0%" y1="0%" y2="100%">
   <stop offset="0%" style="stop-color:#00F260; stop-opacity:1"/>
   <stop offset="100%" style="stop-color:#0575E6; stop-opacity:1"/>
  </linearGradient>
  <linearGradient id="sunrise" x1="0%" x2="0%" y1="0%" y2="100%">
   <stop offset="0%" style="stop-color: #FF8501; stop-opacity:1"/>
   <stop offset="100%" style="stop-color: #FFCB01; stop-opacity:1"/>
  </linearGradient>
  <linearGradient id="telinkrin" x1="0%" x2="0%" y1="0%" y2="100%">
   <stop offset="0%" style="stop-color: #b2ced6; stop-opacity:1"/>
   <stop offset="100%" style="stop-color: #6da5b7; stop-opacity:1"/>
  </linearGradient>
  <linearGradient id="60spsycho" x1="0%" x2="0%" y1="0%" y2="100%">
   <stop offset="0%" style="stop-color: #df5940; stop-opacity:1"/>
   <stop offset="25%" style="stop-color: #d8d15f; stop-opacity:1"/>
   <stop offset="50%" style="stop-color: #e9882a; stop-opacity:1"/>
   <stop offset="100%" style="stop-color: #279362; stop-opacity:1"/>
  </linearGradient>
  <linearGradient id="90ssummer" x1="0%" x2="0%" y1="0%" y2="100%">
   <stop offset="0%" style="stop-color: #f618c7; stop-opacity:1"/>
   <stop offset="20%" style="stop-color: #94ffab; stop-opacity:1"/>
   <stop offset="50%" style="stop-color: #fbfd54; stop-opacity:1"/>
   <stop offset="100%" style="stop-color: #0f83ae; stop-opacity:1"/>
  </linearGradient>
 </defs>
 <g  transform="translate(-492 -259.92)">
  <path style="fill:currentColor" class="ColorScheme-Text" d="M500.182 261.004a6.99 6.99 0 0 0-6.248 3.492c-1.929 3.343-.776 7.63 2.57 9.563 3.346 1.933 7.634.792 9.562-2.551 1.929-3.343.776-7.633-2.57-9.567a6.98 6.98 0 0 0-3.314-.937zM500 262a6 6 0 0 1 6 6 6 6 0 0 1-6 6 6 6 0 0 1-6-6 6 6 0 0 1 6-6z" font-family="sans-serif" font-weight="400" overflow="visible"/>
  <path style="fill:currentColor" class="ColorScheme-Text" d="M501.322 259.92l-2.632.394v1.353a6.49 6.477 43.146 0 1 2.632.005v-1.751zm-5.385 1.191l-2.006 1.705.988 1.178a6.49 6.477 43.146 0 1 2.017-1.691zm8.128.013l-.993 1.183a6.49 6.477 43.146 0 1 .17.09 6.49 6.477 43.146 0 1 1.845 1.604l1.006-1.198zm-11.61 4.217l-.44 2.595 1.515.267a6.49 6.477 43.146 0 1 .455-2.592zm15.086.003l-1.523.268a6.49 6.477 43.146 0 1 .464 2.591l1.533-.27zm-13.683 4.694l-1.351.78 1.33 2.272 1.339-.773a6.49 6.477 43.146 0 1-1.318-2.279zm12.301.003a6.49 6.477 43.146 0 1-.534 1.215 6.49 6.477 43.146 0 1-.774 1.07l1.338.772 1.302-2.288zm-9.557 3.472l-.534 1.469 2.48.884.525-1.445a6.49 6.477 43.146 0 1-2.303-.8 6.49 6.477 43.146 0 1-.168-.108zm6.814.015a6.49 6.477 43.146 0 1-2.475.898l.53 1.456 2.468-.916z" overflow="visible"/>
  <path style="fill:currentColor" class="ColorScheme-Text" d="M499.648 263.014a4.989 4.989 0 0 0-3.982 2.482 5.013 5.013 0 0 0 1.836 6.834 5.002 5.002 0 0 0 6.83-1.826 5.01 5.01 0 0 0-1.836-6.832 4.976 4.976 0 0 0-2.848-.658zM500 264a4 4 0 0 1 4 4 4 4 0 0 1-4 4 4 4 0 0 1-4-4 4 4 0 0 1 4-4z" font-family="sans-serif" font-weight="400" overflow="visible"/>
 </g>
</svg>
