<svg xmlns="http://www.w3.org/2000/svg" style="isolation:isolate" width="16" height="16" viewBox="0 0 16 16">
 <defs>
  <style id="current-color-scheme" type="text/css">
   .ColorScheme-Text { color:#d4be98; } .ColorScheme-Highlight { color:#5294e2; }
  </style>
  <linearGradient id="arrongin" x1="0%" x2="0%" y1="0%" y2="100%">
   <stop offset="0%" style="stop-color:#dd9b44; stop-opacity:1"/>
   <stop offset="100%" style="stop-color:#ad6c16; stop-opacity:1"/>
  </linearGradient>
  <linearGradient id="aurora" x1="0%" x2="0%" y1="0%" y2="100%">
   <stop offset="0%" style="stop-color:#09D4DF; stop-opacity:1"/>
   <stop offset="100%" style="stop-color:#9269F4; stop-opacity:1"/>
  </linearGradient>
  <linearGradient id="fitdance" x1="0%" x2="0%" y1="0%" y2="100%">
   <stop offset="0%" style="stop-color:#1AD6AB; stop-opacity:1"/>
   <stop offset="100%" style="stop-color:#329DB6; stop-opacity:1"/>
  </linearGradient>
  <linearGradient id="oomox" x1="0%" x2="0%" y1="0%" y2="100%">
   <stop offset="0%" style="stop-color:#efefe7; stop-opacity:1"/>
   <stop offset="100%" style="stop-color:#8f8f8b; stop-opacity:1"/>
  </linearGradient>
  <linearGradient id="rainblue" x1="0%" x2="0%" y1="0%" y2="100%">
   <stop offset="0%" style="stop-color:#00F260; stop-opacity:1"/>
   <stop offset="100%" style="stop-color:#0575E6; stop-opacity:1"/>
  </linearGradient>
  <linearGradient id="sunrise" x1="0%" x2="0%" y1="0%" y2="100%">
   <stop offset="0%" style="stop-color: #FF8501; stop-opacity:1"/>
   <stop offset="100%" style="stop-color: #FFCB01; stop-opacity:1"/>
  </linearGradient>
  <linearGradient id="telinkrin" x1="0%" x2="0%" y1="0%" y2="100%">
   <stop offset="0%" style="stop-color: #b2ced6; stop-opacity:1"/>
   <stop offset="100%" style="stop-color: #6da5b7; stop-opacity:1"/>
  </linearGradient>
  <linearGradient id="60spsycho" x1="0%" x2="0%" y1="0%" y2="100%">
   <stop offset="0%" style="stop-color: #df5940; stop-opacity:1"/>
   <stop offset="25%" style="stop-color: #d8d15f; stop-opacity:1"/>
   <stop offset="50%" style="stop-color: #e9882a; stop-opacity:1"/>
   <stop offset="100%" style="stop-color: #279362; stop-opacity:1"/>
  </linearGradient>
  <linearGradient id="90ssummer" x1="0%" x2="0%" y1="0%" y2="100%">
   <stop offset="0%" style="stop-color: #f618c7; stop-opacity:1"/>
   <stop offset="20%" style="stop-color: #94ffab; stop-opacity:1"/>
   <stop offset="50%" style="stop-color: #fbfd54; stop-opacity:1"/>
   <stop offset="100%" style="stop-color: #0f83ae; stop-opacity:1"/>
  </linearGradient>
  <clipPath id="_clipPath_8k2UmKMAPXzsRz1Ep1OBRxjVfiqD24h3">
   <rect width="16" height="16"/>
  </clipPath>
 </defs>
 <g clip-path="url(#_clipPath_8k2UmKMAPXzsRz1Ep1OBRxjVfiqD24h3)">
  <rect style="fill:currentColor" class="ColorScheme-Text" fill-opacity="0" width="16" height="16"/>
  <g opacity=".3">
   <path style="fill:currentColor" class="ColorScheme-Text" d="M 9.123 0.067 C 12.779 -0.415 14.109 1.819 15.539 3.106 C 12.99 2.676 12.759 -0.424 8.065 1.567 C 4.317 3.156 4.91 6.429 3.896 8.621 L 2.085 7.642 C 3 4.231 5.911 0.49 9.123 0.067 Z"/>
  </g>
  <path style="fill:currentColor" class="ColorScheme-Text" fill-rule="evenodd" d="M 10.053 6.41 C 10.058 7.154 10.066 7.899 10.076 8.644 C 10.083 9.148 10.098 9.653 10.122 10.157 C 10.137 10.53 10.165 10.899 10.208 11.269 C 10.236 11.535 10.282 11.802 10.35 12.061 C 10.403 12.274 10.492 12.477 10.616 12.661 C 10.74 12.842 10.915 12.981 11.117 13.066 C 11.291 13.134 11.479 13.166 11.668 13.158 L 12.2 13.141 L 12.165 12.075 L 11.632 12.093 L 11.632 12.093 C 11.593 12.093 11.554 12.089 11.515 12.075 C 11.508 12.072 11.501 12.068 11.497 12.061 C 11.444 11.979 11.405 11.894 11.383 11.802 C 11.33 11.588 11.291 11.372 11.266 11.155 C 11.227 10.807 11.202 10.459 11.188 10.111 C 11.163 9.617 11.149 9.123 11.142 8.63 C 11.131 7.89 11.124 7.149 11.119 6.41 L 12.183 6.41 L 12.183 5.344 L 11.115 5.344 C 11.114 4.931 11.115 4.517 11.117 4.105 L 11.121 3.572 L 10.055 3.565 L 10.051 4.097 C 10.049 4.513 10.049 4.929 10.049 5.344 L 8.986 5.344 L 8.986 6.41 L 10.053 6.41 Z M 1.523 7.475 C 1.027 7.502 0.616 7.531 0.514 7.79 C 0.221 8.701 1.243 8.567 1.243 8.567 L 0.924 8.223 C 0.754 7.486 3.988 8.905 4.857 9.955 C 7.277 12.878 7.467 16.64 12.671 15.907 C 13.474 15.794 14.267 15.709 15.024 15.023 C 13.987 15.291 13.057 15.308 12.232 15.399 C 9.334 15.701 8.481 14.63 7.477 12.437 C 6.864 11.07 5.935 9.635 4.711 8.662 L 4.781 7.527 L 4.271 8.341 C 3.466 7.807 2.55 7.475 1.523 7.475 L 1.523 7.475 Z"/>
 </g>
</svg>
