<svg xmlns="http://www.w3.org/2000/svg" style="isolation:isolate" width="16" height="16" viewBox="0 0 16 16">
 <defs>
  <style id="current-color-scheme" type="text/css">
   .ColorScheme-Text { color:#d4be98; } .ColorScheme-Highlight { color:#5294e2; }
  </style>
  <linearGradient id="arrongin" x1="0%" x2="0%" y1="0%" y2="100%">
   <stop offset="0%" style="stop-color:#dd9b44; stop-opacity:1"/>
   <stop offset="100%" style="stop-color:#ad6c16; stop-opacity:1"/>
  </linearGradient>
  <linearGradient id="aurora" x1="0%" x2="0%" y1="0%" y2="100%">
   <stop offset="0%" style="stop-color:#09D4DF; stop-opacity:1"/>
   <stop offset="100%" style="stop-color:#9269F4; stop-opacity:1"/>
  </linearGradient>
  <linearGradient id="fitdance" x1="0%" x2="0%" y1="0%" y2="100%">
   <stop offset="0%" style="stop-color:#1AD6AB; stop-opacity:1"/>
   <stop offset="100%" style="stop-color:#329DB6; stop-opacity:1"/>
  </linearGradient>
  <linearGradient id="oomox" x1="0%" x2="0%" y1="0%" y2="100%">
   <stop offset="0%" style="stop-color:#efefe7; stop-opacity:1"/>
   <stop offset="100%" style="stop-color:#8f8f8b; stop-opacity:1"/>
  </linearGradient>
  <linearGradient id="rainblue" x1="0%" x2="0%" y1="0%" y2="100%">
   <stop offset="0%" style="stop-color:#00F260; stop-opacity:1"/>
   <stop offset="100%" style="stop-color:#0575E6; stop-opacity:1"/>
  </linearGradient>
  <linearGradient id="sunrise" x1="0%" x2="0%" y1="0%" y2="100%">
   <stop offset="0%" style="stop-color: #FF8501; stop-opacity:1"/>
   <stop offset="100%" style="stop-color: #FFCB01; stop-opacity:1"/>
  </linearGradient>
  <linearGradient id="telinkrin" x1="0%" x2="0%" y1="0%" y2="100%">
   <stop offset="0%" style="stop-color: #b2ced6; stop-opacity:1"/>
   <stop offset="100%" style="stop-color: #6da5b7; stop-opacity:1"/>
  </linearGradient>
  <linearGradient id="60spsycho" x1="0%" x2="0%" y1="0%" y2="100%">
   <stop offset="0%" style="stop-color: #df5940; stop-opacity:1"/>
   <stop offset="25%" style="stop-color: #d8d15f; stop-opacity:1"/>
   <stop offset="50%" style="stop-color: #e9882a; stop-opacity:1"/>
   <stop offset="100%" style="stop-color: #279362; stop-opacity:1"/>
  </linearGradient>
  <linearGradient id="90ssummer" x1="0%" x2="0%" y1="0%" y2="100%">
   <stop offset="0%" style="stop-color: #f618c7; stop-opacity:1"/>
   <stop offset="20%" style="stop-color: #94ffab; stop-opacity:1"/>
   <stop offset="50%" style="stop-color: #fbfd54; stop-opacity:1"/>
   <stop offset="100%" style="stop-color: #0f83ae; stop-opacity:1"/>
  </linearGradient>
 </defs>
 <path style="fill:currentColor" class="ColorScheme-Text" fill-rule="evenodd" d="M 0.883 0 L 4.174 0 C 4.528 0 4.814 0.287 4.814 0.64 L 4.814 3.931 C 4.814 4.285 4.528 4.571 4.174 4.571 L 0.883 4.571 C 0.53 4.571 0.243 4.285 0.243 3.931 L 0.243 0.64 C 0.243 0.287 0.53 0 0.883 0 L 0.883 0 L 0.883 0 L 0.883 0 Z M 6.369 0 L 9.66 0 C 10.013 0 10.3 0.287 10.3 0.64 L 10.3 3.931 C 10.3 4.285 10.013 4.571 9.66 4.571 L 6.369 4.571 C 6.015 4.571 5.729 4.285 5.729 3.931 L 5.729 0.64 C 5.729 0.287 6.015 0 6.369 0 L 6.369 0 L 6.369 0 L 6.369 0 Z M 11.826 0 L 15.117 0 C 15.47 0 15.757 0.287 15.757 0.64 L 15.757 3.931 C 15.757 4.285 15.47 4.571 15.117 4.571 L 11.826 4.571 C 11.472 4.571 11.186 4.285 11.186 3.931 L 11.186 0.64 C 11.186 0.287 11.472 0 11.826 0 L 11.826 0 L 11.826 0 Z M 6.34 5.486 L 9.631 5.486 C 9.985 5.486 10.271 5.772 10.271 6.126 L 10.271 9.417 C 10.271 9.77 9.985 10.057 9.631 10.057 L 6.34 10.057 C 5.987 10.057 5.7 9.77 5.7 9.417 L 5.7 6.126 C 5.7 5.772 5.987 5.486 6.34 5.486 L 6.34 5.486 Z M 6.34 10.971 L 9.631 10.971 C 9.985 10.971 10.271 11.258 10.271 11.611 L 10.271 14.903 C 10.271 15.256 9.985 15.543 9.631 15.543 L 6.34 15.543 C 5.987 15.543 5.7 15.256 5.7 14.903 L 5.7 11.611 C 5.7 11.258 5.987 10.971 6.34 10.971 Z"/>
</svg>
