<svg xmlns="http://www.w3.org/2000/svg" style="isolation:isolate" width="16" height="16" viewBox="0 0 16 16">
 <defs>
  <style id="current-color-scheme" type="text/css">
   .ColorScheme-Text { color:#d4be98; } .ColorScheme-Highlight { color:#5294e2; }
  </style>
  <linearGradient id="arrongin" x1="0%" x2="0%" y1="0%" y2="100%">
   <stop offset="0%" style="stop-color:#dd9b44; stop-opacity:1"/>
   <stop offset="100%" style="stop-color:#ad6c16; stop-opacity:1"/>
  </linearGradient>
  <linearGradient id="aurora" x1="0%" x2="0%" y1="0%" y2="100%">
   <stop offset="0%" style="stop-color:#09D4DF; stop-opacity:1"/>
   <stop offset="100%" style="stop-color:#9269F4; stop-opacity:1"/>
  </linearGradient>
  <linearGradient id="fitdance" x1="0%" x2="0%" y1="0%" y2="100%">
   <stop offset="0%" style="stop-color:#1AD6AB; stop-opacity:1"/>
   <stop offset="100%" style="stop-color:#329DB6; stop-opacity:1"/>
  </linearGradient>
  <linearGradient id="oomox" x1="0%" x2="0%" y1="0%" y2="100%">
   <stop offset="0%" style="stop-color:#efefe7; stop-opacity:1"/>
   <stop offset="100%" style="stop-color:#8f8f8b; stop-opacity:1"/>
  </linearGradient>
  <linearGradient id="rainblue" x1="0%" x2="0%" y1="0%" y2="100%">
   <stop offset="0%" style="stop-color:#00F260; stop-opacity:1"/>
   <stop offset="100%" style="stop-color:#0575E6; stop-opacity:1"/>
  </linearGradient>
  <linearGradient id="sunrise" x1="0%" x2="0%" y1="0%" y2="100%">
   <stop offset="0%" style="stop-color: #FF8501; stop-opacity:1"/>
   <stop offset="100%" style="stop-color: #FFCB01; stop-opacity:1"/>
  </linearGradient>
  <linearGradient id="telinkrin" x1="0%" x2="0%" y1="0%" y2="100%">
   <stop offset="0%" style="stop-color: #b2ced6; stop-opacity:1"/>
   <stop offset="100%" style="stop-color: #6da5b7; stop-opacity:1"/>
  </linearGradient>
  <linearGradient id="60spsycho" x1="0%" x2="0%" y1="0%" y2="100%">
   <stop offset="0%" style="stop-color: #df5940; stop-opacity:1"/>
   <stop offset="25%" style="stop-color: #d8d15f; stop-opacity:1"/>
   <stop offset="50%" style="stop-color: #e9882a; stop-opacity:1"/>
   <stop offset="100%" style="stop-color: #279362; stop-opacity:1"/>
  </linearGradient>
  <linearGradient id="90ssummer" x1="0%" x2="0%" y1="0%" y2="100%">
   <stop offset="0%" style="stop-color: #f618c7; stop-opacity:1"/>
   <stop offset="20%" style="stop-color: #94ffab; stop-opacity:1"/>
   <stop offset="50%" style="stop-color: #fbfd54; stop-opacity:1"/>
   <stop offset="100%" style="stop-color: #0f83ae; stop-opacity:1"/>
  </linearGradient>
 </defs>
 <path style="fill:currentColor" class="ColorScheme-Text" d="M 3.2 0 C 2.318 0 1.6 0.718 1.6 1.6 L 1.6 14.4 C 1.6 15.282 2.318 16 3.2 16 L 12.8 16 C 13.682 16 14.4 15.282 14.4 14.4 L 14.4 1.6 C 14.4 0.718 13.682 0 12.8 0 L 3.2 0 Z M 3.2 1.6 L 12.8 1.6 L 12.8 4.8 L 3.2 4.8 L 3.2 1.6 Z M 10.4 2.4 L 10.4 4 L 12 4 L 12 2.4 L 10.4 2.4 Z M 4 6.4 L 5.6 6.4 L 5.6 8 L 4 8 L 4 6.4 Z M 7.2 6.4 L 8.8 6.4 L 8.8 8 L 7.2 8 L 7.2 6.4 Z M 10.4 6.4 L 12 6.4 L 12 8 L 10.4 8 L 10.4 6.4 Z M 4 9.6 L 5.6 9.6 L 5.6 11.2 L 4 11.2 L 4 9.6 Z M 7.2 9.6 L 8.8 9.6 L 8.8 11.2 L 7.2 11.2 L 7.2 9.6 Z M 10.4 9.6 L 12 9.6 L 12 11.2 L 10.4 11.2 L 10.4 9.6 Z M 4 12.8 L 5.6 12.8 L 5.6 14.4 L 4 14.4 L 4 12.8 Z M 7.2 12.8 L 8.8 12.8 L 8.8 14.4 L 7.2 14.4 L 7.2 12.8 Z M 10.4 12.8 L 12 12.8 L 12 14.4 L 10.4 14.4 L 10.4 12.8 Z"/>
</svg>
