<svg xmlns="http://www.w3.org/2000/svg" style="isolation:isolate" width="16" height="16" viewBox="0 0 16 16">
 <defs>
  <style id="current-color-scheme" type="text/css">
   .ColorScheme-Text { color:#d4be98; } .ColorScheme-Highlight { color:#5294e2; }
  </style>
  <linearGradient id="arrongin" x1="0%" x2="0%" y1="0%" y2="100%">
   <stop offset="0%" style="stop-color:#dd9b44; stop-opacity:1"/>
   <stop offset="100%" style="stop-color:#ad6c16; stop-opacity:1"/>
  </linearGradient>
  <linearGradient id="aurora" x1="0%" x2="0%" y1="0%" y2="100%">
   <stop offset="0%" style="stop-color:#09D4DF; stop-opacity:1"/>
   <stop offset="100%" style="stop-color:#9269F4; stop-opacity:1"/>
  </linearGradient>
  <linearGradient id="fitdance" x1="0%" x2="0%" y1="0%" y2="100%">
   <stop offset="0%" style="stop-color:#1AD6AB; stop-opacity:1"/>
   <stop offset="100%" style="stop-color:#329DB6; stop-opacity:1"/>
  </linearGradient>
  <linearGradient id="oomox" x1="0%" x2="0%" y1="0%" y2="100%">
   <stop offset="0%" style="stop-color:#efefe7; stop-opacity:1"/>
   <stop offset="100%" style="stop-color:#8f8f8b; stop-opacity:1"/>
  </linearGradient>
  <linearGradient id="rainblue" x1="0%" x2="0%" y1="0%" y2="100%">
   <stop offset="0%" style="stop-color:#00F260; stop-opacity:1"/>
   <stop offset="100%" style="stop-color:#0575E6; stop-opacity:1"/>
  </linearGradient>
  <linearGradient id="sunrise" x1="0%" x2="0%" y1="0%" y2="100%">
   <stop offset="0%" style="stop-color: #FF8501; stop-opacity:1"/>
   <stop offset="100%" style="stop-color: #FFCB01; stop-opacity:1"/>
  </linearGradient>
  <linearGradient id="telinkrin" x1="0%" x2="0%" y1="0%" y2="100%">
   <stop offset="0%" style="stop-color: #b2ced6; stop-opacity:1"/>
   <stop offset="100%" style="stop-color: #6da5b7; stop-opacity:1"/>
  </linearGradient>
  <linearGradient id="60spsycho" x1="0%" x2="0%" y1="0%" y2="100%">
   <stop offset="0%" style="stop-color: #df5940; stop-opacity:1"/>
   <stop offset="25%" style="stop-color: #d8d15f; stop-opacity:1"/>
   <stop offset="50%" style="stop-color: #e9882a; stop-opacity:1"/>
   <stop offset="100%" style="stop-color: #279362; stop-opacity:1"/>
  </linearGradient>
  <linearGradient id="90ssummer" x1="0%" x2="0%" y1="0%" y2="100%">
   <stop offset="0%" style="stop-color: #f618c7; stop-opacity:1"/>
   <stop offset="20%" style="stop-color: #94ffab; stop-opacity:1"/>
   <stop offset="50%" style="stop-color: #fbfd54; stop-opacity:1"/>
   <stop offset="100%" style="stop-color: #0f83ae; stop-opacity:1"/>
  </linearGradient>
 </defs>
 <path style="fill:currentColor" class="ColorScheme-Text" d="M 15.247 7.273 C 15.058 5.788 14.304 4.434 13.142 3.491 C 12.905 3.58 12.655 3.636 12.389 3.636 C 11.474 3.636 10.687 3.059 10.365 2.253 C 10.072 2.207 9.776 2.183 9.48 2.182 C 8.705 2.182 7.937 2.337 7.223 2.638 L 8.329 4.555 C 8.7 4.43 9.088 4.365 9.48 4.363 C 11.206 4.365 12.694 5.581 13.039 7.273 L 15.247 7.273 L 15.247 7.273 Z M 15.246 8.727 L 13.043 8.727 C 12.697 10.42 11.208 11.636 9.48 11.636 C 9.089 11.635 8.7 11.571 8.33 11.446 L 7.226 13.358 C 7.939 13.66 8.705 13.816 9.48 13.818 C 9.777 13.816 10.074 13.79 10.368 13.742 C 10.691 12.939 11.476 12.364 12.389 12.364 C 12.655 12.364 12.908 12.42 13.145 12.509 C 14.305 11.565 15.057 10.211 15.246 8.728 L 15.246 8.727 Z M 13.844 1.455 C 13.844 0.651 13.192 0 12.389 0 C 11.586 0 10.935 0.651 10.935 1.455 C 10.935 2.258 11.586 2.909 12.389 2.909 C 13.192 2.909 13.844 2.258 13.844 1.455 Z M 13.844 14.545 C 13.844 13.742 13.192 13.091 12.389 13.091 C 11.586 13.091 10.935 13.742 10.935 14.545 C 10.935 15.349 11.586 16 12.389 16 C 13.192 16 13.844 15.349 13.844 14.545 Z M 7.071 5.283 L 5.967 3.371 C 4.916 4.169 4.168 5.3 3.845 6.58 C 4.179 6.963 4.389 7.457 4.389 8 C 4.389 8.543 4.18 9.036 3.847 9.419 C 4.168 10.7 4.915 11.833 5.966 12.632 L 7.071 10.719 C 6.292 10.03 5.845 9.04 5.844 8 C 5.846 6.961 6.293 5.972 7.071 5.283 L 7.071 5.283 Z M 3.662 8 C 3.662 7.197 3.011 6.545 2.207 6.545 C 1.404 6.545 0.753 7.197 0.753 8 C 0.753 8.803 1.404 9.455 2.207 9.455 C 3.011 9.455 3.662 8.803 3.662 8 Z"/>
</svg>
