<svg xmlns="http://www.w3.org/2000/svg" style="isolation:isolate" width="16" height="16" viewBox="0 0 16 16">
 <defs>
  <style id="current-color-scheme" type="text/css">
   .ColorScheme-Text { color:#d4be98; } .ColorScheme-Highlight { color:#5294e2; }
  </style>
  <linearGradient id="arrongin" x1="0%" x2="0%" y1="0%" y2="100%">
   <stop offset="0%" style="stop-color:#dd9b44; stop-opacity:1"/>
   <stop offset="100%" style="stop-color:#ad6c16; stop-opacity:1"/>
  </linearGradient>
  <linearGradient id="aurora" x1="0%" x2="0%" y1="0%" y2="100%">
   <stop offset="0%" style="stop-color:#09D4DF; stop-opacity:1"/>
   <stop offset="100%" style="stop-color:#9269F4; stop-opacity:1"/>
  </linearGradient>
  <linearGradient id="fitdance" x1="0%" x2="0%" y1="0%" y2="100%">
   <stop offset="0%" style="stop-color:#1AD6AB; stop-opacity:1"/>
   <stop offset="100%" style="stop-color:#329DB6; stop-opacity:1"/>
  </linearGradient>
  <linearGradient id="oomox" x1="0%" x2="0%" y1="0%" y2="100%">
   <stop offset="0%" style="stop-color:#efefe7; stop-opacity:1"/>
   <stop offset="100%" style="stop-color:#8f8f8b; stop-opacity:1"/>
  </linearGradient>
  <linearGradient id="rainblue" x1="0%" x2="0%" y1="0%" y2="100%">
   <stop offset="0%" style="stop-color:#00F260; stop-opacity:1"/>
   <stop offset="100%" style="stop-color:#0575E6; stop-opacity:1"/>
  </linearGradient>
  <linearGradient id="sunrise" x1="0%" x2="0%" y1="0%" y2="100%">
   <stop offset="0%" style="stop-color: #FF8501; stop-opacity:1"/>
   <stop offset="100%" style="stop-color: #FFCB01; stop-opacity:1"/>
  </linearGradient>
  <linearGradient id="telinkrin" x1="0%" x2="0%" y1="0%" y2="100%">
   <stop offset="0%" style="stop-color: #b2ced6; stop-opacity:1"/>
   <stop offset="100%" style="stop-color: #6da5b7; stop-opacity:1"/>
  </linearGradient>
  <linearGradient id="60spsycho" x1="0%" x2="0%" y1="0%" y2="100%">
   <stop offset="0%" style="stop-color: #df5940; stop-opacity:1"/>
   <stop offset="25%" style="stop-color: #d8d15f; stop-opacity:1"/>
   <stop offset="50%" style="stop-color: #e9882a; stop-opacity:1"/>
   <stop offset="100%" style="stop-color: #279362; stop-opacity:1"/>
  </linearGradient>
  <linearGradient id="90ssummer" x1="0%" x2="0%" y1="0%" y2="100%">
   <stop offset="0%" style="stop-color: #f618c7; stop-opacity:1"/>
   <stop offset="20%" style="stop-color: #94ffab; stop-opacity:1"/>
   <stop offset="50%" style="stop-color: #fbfd54; stop-opacity:1"/>
   <stop offset="100%" style="stop-color: #0f83ae; stop-opacity:1"/>
  </linearGradient>
 </defs>
 <path style="fill:currentColor" class="ColorScheme-Text" fill-rule="evenodd" d="M 0 2.545 L 0 7.928 C 0 8.021 0.012 8.113 0.036 8.203 C 0.036 8.203 0.198 8.824 0.68 9.395 C 1.163 9.966 2.07 10.545 3.273 10.545 C 4.475 10.545 5.383 9.966 5.865 9.395 C 6.347 8.824 6.51 8.203 6.51 8.203 C 6.534 8.113 6.545 8.021 6.545 7.928 L 6.545 5.928 C 6.83 6.251 6.808 6.266 7.131 6.61 C 7.338 6.831 7.574 7.016 7.791 7.235 C 7.787 7.256 7.78 7.275 7.776 7.296 C 7.284 9.762 7.273 12.92 7.273 13.455 L 9.455 13.455 C 9.455 13.095 9.61 11.284 9.797 9.678 C 10.4 10.13 11 10.512 11.811 10.544 C 13.063 10.593 14.169 10.119 14.899 9.354 C 15.629 8.589 16 7.574 16 6.545 C 16 4.36 14.185 2.545 12 2.545 C 9.403 2.577 9.197 4.352 8.514 4.874 C 7.6 3.873 6.859 2.93 6.545 2.545 L 4.364 2.545 C 4.364 2.545 4.363 3.054 4.364 3.636 L 4.364 7.71 C 4.35 7.75 4.333 7.829 4.199 7.987 C 4.036 8.18 3.852 8.364 3.273 8.364 C 2.694 8.364 2.51 8.18 2.347 7.987 C 2.213 7.829 2.195 7.75 2.182 7.71 L 2.182 2.545 L 0 2.545 Z M 12 4.727 C 12.869 4.727 13.818 5.676 13.818 6.545 C 13.818 7.044 13.633 7.521 13.321 7.848 C 13.009 8.175 12.589 8.392 11.898 8.365 C 11.932 8.366 11.335 8.153 10.713 7.659 C 10.582 7.555 10.432 7.381 10.294 7.261 C 10.475 6.664 10.625 5.984 10.862 5.591 C 11.259 4.935 11.558 4.727 12 4.727 Z"/>
</svg>
