<svg xmlns="http://www.w3.org/2000/svg" style="isolation:isolate" width="16" height="16" viewBox="0 0 16 16">
 <defs>
  <style id="current-color-scheme" type="text/css">
   .ColorScheme-Text { color:#d4be98; } .ColorScheme-Highlight { color:#5294e2; }
  </style>
  <linearGradient id="arrongin" x1="0%" x2="0%" y1="0%" y2="100%">
   <stop offset="0%" style="stop-color:#dd9b44; stop-opacity:1"/>
   <stop offset="100%" style="stop-color:#ad6c16; stop-opacity:1"/>
  </linearGradient>
  <linearGradient id="aurora" x1="0%" x2="0%" y1="0%" y2="100%">
   <stop offset="0%" style="stop-color:#09D4DF; stop-opacity:1"/>
   <stop offset="100%" style="stop-color:#9269F4; stop-opacity:1"/>
  </linearGradient>
  <linearGradient id="fitdance" x1="0%" x2="0%" y1="0%" y2="100%">
   <stop offset="0%" style="stop-color:#1AD6AB; stop-opacity:1"/>
   <stop offset="100%" style="stop-color:#329DB6; stop-opacity:1"/>
  </linearGradient>
  <linearGradient id="oomox" x1="0%" x2="0%" y1="0%" y2="100%">
   <stop offset="0%" style="stop-color:#efefe7; stop-opacity:1"/>
   <stop offset="100%" style="stop-color:#8f8f8b; stop-opacity:1"/>
  </linearGradient>
  <linearGradient id="rainblue" x1="0%" x2="0%" y1="0%" y2="100%">
   <stop offset="0%" style="stop-color:#00F260; stop-opacity:1"/>
   <stop offset="100%" style="stop-color:#0575E6; stop-opacity:1"/>
  </linearGradient>
  <linearGradient id="sunrise" x1="0%" x2="0%" y1="0%" y2="100%">
   <stop offset="0%" style="stop-color: #FF8501; stop-opacity:1"/>
   <stop offset="100%" style="stop-color: #FFCB01; stop-opacity:1"/>
  </linearGradient>
  <linearGradient id="telinkrin" x1="0%" x2="0%" y1="0%" y2="100%">
   <stop offset="0%" style="stop-color: #b2ced6; stop-opacity:1"/>
   <stop offset="100%" style="stop-color: #6da5b7; stop-opacity:1"/>
  </linearGradient>
  <linearGradient id="60spsycho" x1="0%" x2="0%" y1="0%" y2="100%">
   <stop offset="0%" style="stop-color: #df5940; stop-opacity:1"/>
   <stop offset="25%" style="stop-color: #d8d15f; stop-opacity:1"/>
   <stop offset="50%" style="stop-color: #e9882a; stop-opacity:1"/>
   <stop offset="100%" style="stop-color: #279362; stop-opacity:1"/>
  </linearGradient>
  <linearGradient id="90ssummer" x1="0%" x2="0%" y1="0%" y2="100%">
   <stop offset="0%" style="stop-color: #f618c7; stop-opacity:1"/>
   <stop offset="20%" style="stop-color: #94ffab; stop-opacity:1"/>
   <stop offset="50%" style="stop-color: #fbfd54; stop-opacity:1"/>
   <stop offset="100%" style="stop-color: #0f83ae; stop-opacity:1"/>
  </linearGradient>
 </defs>
 <path style="fill:currentColor" class="ColorScheme-Text" d="M 0 0 L 0 1.231 L 1.231 1.231 C 1.578 1.231 1.846 1.498 1.846 1.846 L 1.846 14.154 L 3.077 14.154 L 3.077 12.308 L 4.308 12.308 L 4.308 13.538 L 13.538 13.538 L 13.538 12.308 L 14.154 12.308 C 15.166 12.308 16 11.474 16 10.462 L 16 4.308 C 16 3.295 15.166 2.462 14.154 2.462 L 3.077 2.462 L 3.077 1.846 C 3.077 0.834 2.243 0 1.231 0 L 0 0 Z M 3.077 3.692 L 14.154 3.692 C 14.502 3.692 14.769 3.96 14.769 4.308 L 14.769 10.462 C 14.769 10.809 14.502 11.077 14.154 11.077 L 3.077 11.077 L 3.077 3.692 Z M 11.077 4.308 C 9.381 4.308 8 5.689 8 7.385 C 8 9.081 9.381 10.462 11.077 10.462 C 12.773 10.462 14.154 9.081 14.154 7.385 C 14.154 5.689 12.773 4.308 11.077 4.308 Z M 4.308 4.923 L 4.308 6.154 L 6.769 6.154 L 6.769 4.923 L 4.308 4.923 Z M 11.077 4.923 C 11.595 4.923 12.073 5.083 12.469 5.354 C 12.252 5.518 12.004 5.729 11.71 6.009 C 11.552 6.159 11.396 6.318 11.245 6.477 C 11.19 6.3 11.14 6.122 11.095 5.943 C 10.983 5.488 10.91 5.033 10.904 4.94 C 10.962 4.936 11.018 4.923 11.077 4.923 Z M 10.007 5.177 C 10.039 5.447 10.102 5.77 10.199 6.165 C 10.251 6.374 10.311 6.586 10.374 6.793 C 10.191 6.753 10.01 6.709 9.83 6.66 C 9.372 6.533 8.928 6.367 8.859 6.333 C 9.099 5.828 9.504 5.42 10.007 5.177 Z M 13.121 6.012 C 13.385 6.404 13.538 6.875 13.538 7.385 C 13.538 7.443 13.526 7.498 13.522 7.555 C 13.218 7.434 12.909 7.329 12.594 7.241 C 12.386 7.18 12.177 7.126 11.966 7.078 C 12.091 6.943 12.206 6.811 12.346 6.678 C 12.592 6.442 12.851 6.22 13.121 6.012 L 13.121 6.012 Z M 4.308 6.769 L 4.308 8 L 6.769 8 L 6.769 6.769 L 4.308 6.769 Z M 8.631 7.232 C 8.885 7.339 9.193 7.441 9.583 7.55 C 9.797 7.609 10.009 7.648 10.223 7.692 C 10.094 7.834 9.958 7.979 9.82 8.117 C 9.58 8.357 9.326 8.583 9.06 8.794 C 8.77 8.381 8.615 7.889 8.615 7.385 C 8.615 7.332 8.628 7.284 8.631 7.232 Z M 11.79 7.987 C 12.301 8.101 12.801 8.257 13.286 8.455 C 13.05 8.942 12.658 9.338 12.172 9.579 C 12.123 9.255 12.056 8.934 11.971 8.618 C 11.917 8.407 11.854 8.194 11.79 7.987 Z M 10.918 8.301 C 10.974 8.481 11.031 8.665 11.078 8.849 C 11.191 9.287 11.265 9.708 11.279 9.826 C 11.211 9.831 11.146 9.846 11.077 9.846 C 10.596 9.846 10.126 9.705 9.725 9.44 C 9.987 9.233 10.236 9.01 10.47 8.772 C 10.623 8.62 10.773 8.46 10.919 8.3 L 10.918 8.301 Z M 4.308 8.615 L 4.308 9.846 L 6.769 9.846 L 6.769 8.615 L 4.308 8.615 Z"/>
</svg>
