<svg xmlns="http://www.w3.org/2000/svg" style="isolation:isolate" width="16" height="16" viewBox="0 0 16 16">
 <defs>
  <style id="current-color-scheme" type="text/css">
   .ColorScheme-Text { color:#d4be98; } .ColorScheme-Highlight { color:#5294e2; }
  </style>
  <linearGradient id="arrongin" x1="0%" x2="0%" y1="0%" y2="100%">
   <stop offset="0%" style="stop-color:#dd9b44; stop-opacity:1"/>
   <stop offset="100%" style="stop-color:#ad6c16; stop-opacity:1"/>
  </linearGradient>
  <linearGradient id="aurora" x1="0%" x2="0%" y1="0%" y2="100%">
   <stop offset="0%" style="stop-color:#09D4DF; stop-opacity:1"/>
   <stop offset="100%" style="stop-color:#9269F4; stop-opacity:1"/>
  </linearGradient>
  <linearGradient id="fitdance" x1="0%" x2="0%" y1="0%" y2="100%">
   <stop offset="0%" style="stop-color:#1AD6AB; stop-opacity:1"/>
   <stop offset="100%" style="stop-color:#329DB6; stop-opacity:1"/>
  </linearGradient>
  <linearGradient id="oomox" x1="0%" x2="0%" y1="0%" y2="100%">
   <stop offset="0%" style="stop-color:#efefe7; stop-opacity:1"/>
   <stop offset="100%" style="stop-color:#8f8f8b; stop-opacity:1"/>
  </linearGradient>
  <linearGradient id="rainblue" x1="0%" x2="0%" y1="0%" y2="100%">
   <stop offset="0%" style="stop-color:#00F260; stop-opacity:1"/>
   <stop offset="100%" style="stop-color:#0575E6; stop-opacity:1"/>
  </linearGradient>
  <linearGradient id="sunrise" x1="0%" x2="0%" y1="0%" y2="100%">
   <stop offset="0%" style="stop-color: #FF8501; stop-opacity:1"/>
   <stop offset="100%" style="stop-color: #FFCB01; stop-opacity:1"/>
  </linearGradient>
  <linearGradient id="telinkrin" x1="0%" x2="0%" y1="0%" y2="100%">
   <stop offset="0%" style="stop-color: #b2ced6; stop-opacity:1"/>
   <stop offset="100%" style="stop-color: #6da5b7; stop-opacity:1"/>
  </linearGradient>
  <linearGradient id="60spsycho" x1="0%" x2="0%" y1="0%" y2="100%">
   <stop offset="0%" style="stop-color: #df5940; stop-opacity:1"/>
   <stop offset="25%" style="stop-color: #d8d15f; stop-opacity:1"/>
   <stop offset="50%" style="stop-color: #e9882a; stop-opacity:1"/>
   <stop offset="100%" style="stop-color: #279362; stop-opacity:1"/>
  </linearGradient>
  <linearGradient id="90ssummer" x1="0%" x2="0%" y1="0%" y2="100%">
   <stop offset="0%" style="stop-color: #f618c7; stop-opacity:1"/>
   <stop offset="20%" style="stop-color: #94ffab; stop-opacity:1"/>
   <stop offset="50%" style="stop-color: #fbfd54; stop-opacity:1"/>
   <stop offset="100%" style="stop-color: #0f83ae; stop-opacity:1"/>
  </linearGradient>
  <clipPath id="_clipPath_L7nYLg26Cs6TO7UIBJlePBvcGBanvtHn">
   <rect width="16" height="16"/>
  </clipPath>
 </defs>
 <g clip-path="url(#_clipPath_L7nYLg26Cs6TO7UIBJlePBvcGBanvtHn)">
  <rect style="fill:currentColor" class="ColorScheme-Text" fill-opacity="0" width="16" height="16"/>
  <path style="fill:currentColor" class="ColorScheme-Text" fill-rule="evenodd" d="M 0 4.414 L 1.015 8.756 L 1.674 11.586 L 3.146 11.586 L 3.806 8.756 L 3.866 8.502 L 4.821 4.414 L 3.349 4.414 L 3.346 4.414 L 2.41 8.429 L 1.475 4.414 L 1.472 4.414 L 0 4.414 L 0 4.414 Z M 5.254 4.414 L 3.849 11.445 L 3.821 11.586 L 5.282 11.586 L 6.038 7.802 L 6.92 11.586 L 8.392 11.586 L 9.273 7.802 L 10.03 11.586 L 11.491 11.586 L 11.463 11.445 L 10.058 4.414 L 8.591 4.414 L 7.656 8.429 L 6.72 4.414 L 5.254 4.414 L 5.254 4.414 Z M 13.134 6.03 C 13.307 6.072 13.336 6.034 13.531 6.131 C 14.076 6.404 14.567 6.805 14.567 8 C 14.567 9.195 14.076 9.596 13.531 9.869 C 13.336 9.966 13.307 9.928 13.134 9.97 L 13.134 6.03 L 13.134 6.03 Z M 11.702 4.414 L 11.702 5.131 L 11.702 11.586 L 12.418 11.586 C 12.418 11.586 13.283 11.596 14.171 11.152 C 15.058 10.708 16 9.674 16 8 C 16 6.326 15.058 5.292 14.171 4.848 C 13.283 4.404 12.418 4.414 12.418 4.414 L 11.702 4.414 L 11.702 4.414 Z"/>
 </g>
</svg>
