<svg xmlns="http://www.w3.org/2000/svg" style="isolation:isolate" width="16" height="16" viewBox="0 0 16 16">
 <defs>
  <style id="current-color-scheme" type="text/css">
   .ColorScheme-Text { color:#d4be98; } .ColorScheme-Highlight { color:#5294e2; }
  </style>
  <linearGradient id="arrongin" x1="0%" x2="0%" y1="0%" y2="100%">
   <stop offset="0%" style="stop-color:#dd9b44; stop-opacity:1"/>
   <stop offset="100%" style="stop-color:#ad6c16; stop-opacity:1"/>
  </linearGradient>
  <linearGradient id="aurora" x1="0%" x2="0%" y1="0%" y2="100%">
   <stop offset="0%" style="stop-color:#09D4DF; stop-opacity:1"/>
   <stop offset="100%" style="stop-color:#9269F4; stop-opacity:1"/>
  </linearGradient>
  <linearGradient id="fitdance" x1="0%" x2="0%" y1="0%" y2="100%">
   <stop offset="0%" style="stop-color:#1AD6AB; stop-opacity:1"/>
   <stop offset="100%" style="stop-color:#329DB6; stop-opacity:1"/>
  </linearGradient>
  <linearGradient id="oomox" x1="0%" x2="0%" y1="0%" y2="100%">
   <stop offset="0%" style="stop-color:#efefe7; stop-opacity:1"/>
   <stop offset="100%" style="stop-color:#8f8f8b; stop-opacity:1"/>
  </linearGradient>
  <linearGradient id="rainblue" x1="0%" x2="0%" y1="0%" y2="100%">
   <stop offset="0%" style="stop-color:#00F260; stop-opacity:1"/>
   <stop offset="100%" style="stop-color:#0575E6; stop-opacity:1"/>
  </linearGradient>
  <linearGradient id="sunrise" x1="0%" x2="0%" y1="0%" y2="100%">
   <stop offset="0%" style="stop-color: #FF8501; stop-opacity:1"/>
   <stop offset="100%" style="stop-color: #FFCB01; stop-opacity:1"/>
  </linearGradient>
  <linearGradient id="telinkrin" x1="0%" x2="0%" y1="0%" y2="100%">
   <stop offset="0%" style="stop-color: #b2ced6; stop-opacity:1"/>
   <stop offset="100%" style="stop-color: #6da5b7; stop-opacity:1"/>
  </linearGradient>
  <linearGradient id="60spsycho" x1="0%" x2="0%" y1="0%" y2="100%">
   <stop offset="0%" style="stop-color: #df5940; stop-opacity:1"/>
   <stop offset="25%" style="stop-color: #d8d15f; stop-opacity:1"/>
   <stop offset="50%" style="stop-color: #e9882a; stop-opacity:1"/>
   <stop offset="100%" style="stop-color: #279362; stop-opacity:1"/>
  </linearGradient>
  <linearGradient id="90ssummer" x1="0%" x2="0%" y1="0%" y2="100%">
   <stop offset="0%" style="stop-color: #f618c7; stop-opacity:1"/>
   <stop offset="20%" style="stop-color: #94ffab; stop-opacity:1"/>
   <stop offset="50%" style="stop-color: #fbfd54; stop-opacity:1"/>
   <stop offset="100%" style="stop-color: #0f83ae; stop-opacity:1"/>
  </linearGradient>
 </defs>
 <g opacity=".6">
  <path style="fill:currentColor" class="ColorScheme-Text" fill-rule="evenodd" d="M 8.222 6.667 L 14.222 6.667 C 14.958 6.667 15.556 7.264 15.556 8 L 15.556 8 C 15.556 8.736 14.958 9.333 14.222 9.333 L 8.222 9.333 C 7.486 9.333 6.889 8.736 6.889 8 L 6.889 8 C 6.889 7.264 7.486 6.667 8.222 6.667 L 8.222 6.667 Z M 2.222 12 L 14.222 12 C 14.958 12 15.556 12.597 15.556 13.333 L 15.556 13.333 C 15.556 14.069 14.958 14.667 14.222 14.667 L 2.222 14.667 C 1.486 14.667 0.889 14.069 0.889 13.333 L 0.889 13.333 C 0.889 12.597 1.486 12 2.222 12 L 2.222 12 Z M 2.222 1.333 L 14.222 1.333 C 14.958 1.333 15.556 1.931 15.556 2.667 L 15.556 2.667 C 15.556 3.403 14.958 4 14.222 4 L 2.222 4 C 1.486 4 0.889 3.403 0.889 2.667 L 0.889 2.667 C 0.889 1.931 1.486 1.333 2.222 1.333 Z"/>
 </g>
 <path style="fill:currentColor" class="ColorScheme-Text" fill-rule="evenodd" d="M 0.444 2.667 C 0.444 1.195 1.639 0 3.111 0 C 4.583 0 5.778 1.195 5.778 2.667 C 5.778 4.138 4.583 5.333 3.111 5.333 C 1.639 5.333 0.444 4.138 0.444 2.667 L 0.444 2.667 Z M 0.444 13.333 C 0.444 11.862 1.639 10.667 3.111 10.667 C 4.583 10.667 5.778 11.862 5.778 13.333 C 5.778 14.805 4.583 16 3.111 16 C 1.639 16 0.444 14.805 0.444 13.333 L 0.444 13.333 Z M 4.444 8 C 4.444 6.528 5.639 5.333 7.111 5.333 C 8.583 5.333 9.778 6.528 9.778 8 C 9.778 9.472 8.583 10.667 7.111 10.667 C 5.639 10.667 4.444 9.472 4.444 8 Z"/>
</svg>
