<svg xmlns="http://www.w3.org/2000/svg" style="isolation:isolate" width="16" height="16" viewBox="0 0 16 16">
 <defs>
  <clipPath id="_clipPath_PHWY2eawOAuQTyr6rOfQPfMhBfU0x6gV">
   <rect width="16" height="16"/>
  </clipPath>
 </defs>
 <g clip-path="url(#_clipPath_PHWY2eawOAuQTyr6rOfQPfMhBfU0x6gV)">
  <rect style="fill:#000000" fill-opacity="0" width="16" height="16"/>
  <path fill="#eff0f2" d="M 2.445 3 C 1.925 3 1.505 3.048 1.141 3.191 C 0.777 3.335 0.479 3.602 0.309 3.926 C -0.031 4.573 0.011 5.328 0 6.357 L 0 6.361 L 0 9.639 L 0 9.643 C 0.012 10.672 -0.031 11.427 0.309 12.074 C 0.478 12.398 0.777 12.665 1.141 12.809 C 1.505 12.952 1.925 13 2.445 13 L 5.557 13 C 6.077 13 6.497 12.952 6.861 12.809 C 7.225 12.665 7.521 12.398 7.691 12.074 C 7.987 11.511 7.988 10.833 7.992 9.998 L 9.938 9.994 L 10.5 9.5 L 11 10 L 11.5 9.5 L 12 10 L 12.5 9.5 L 13.5 10.5 L 16 8 L 14 6 L 7.992 6.002 C 7.992 5.167 7.982 4.489 7.691 3.926 C 7.522 3.602 7.223 3.335 6.859 3.191 C 6.495 3.048 6.077 3 5.557 3 L 2.445 3 Z M 2.445 4 L 5.557 4 C 6.008 4 6.313 4.052 6.492 4.123 C 6.672 4.194 6.736 4.256 6.807 4.391 C 6.947 4.659 6.988 5.335 7 6.369 L 7 7.002 L 13.586 7 L 14.586 8 L 13.5 9.086 L 12.5 8.086 L 12 8.586 L 11.5 8.086 L 11 8.586 L 10.545 8.131 L 9.56 8.994 L 7 9 L 7 9.631 C 6.989 10.665 6.947 11.341 6.807 11.609 C 6.737 11.743 6.672 11.806 6.492 11.877 C 6.313 11.948 6.008 12 5.557 12 L 2.445 12 C 1.993 12 1.687 11.948 1.508 11.877 C 1.328 11.806 1.266 11.743 1.195 11.609 C 1.055 11.342 1.012 10.666 1 9.637 L 1 9.631 L 1 6.369 L 1 6.363 C 1.012 5.334 1.055 4.658 1.195 4.39 C 1.265 4.256 1.328 4.194 1.508 4.123 C 1.687 4.052 1.993 4 2.445 4 L 2.445 4 Z M 3 7 C 2.448 7 2 7.448 2 8 C 2 8.552 2.448 9 3 9 C 3.552 9 4 8.552 4 8 C 4 7.448 3.552 7 3 7 Z"/>
 </g>
</svg>
