<?xml version="1.0" encoding="UTF-8" standalone="no"?>
<svg
   id="Foreground"
   width="26"
   height="26"
   enable-background="new 0 0 16 16"
   version="1.0"
   viewBox="0 0 18.909 18.909"
   sodipodi:docname="close-active.svg"
   inkscape:version="1.4.2 (ebf0e940d0, 2025-05-08)"
   xmlns:inkscape="http://www.inkscape.org/namespaces/inkscape"
   xmlns:sodipodi="http://sodipodi.sourceforge.net/DTD/sodipodi-0.dtd"
   xmlns="http://www.w3.org/2000/svg"
   xmlns:svg="http://www.w3.org/2000/svg">
  <sodipodi:namedview
     id="namedview2"
     pagecolor="#ffffff"
     bordercolor="#000000"
     borderopacity="0.25"
     inkscape:showpageshadow="2"
     inkscape:pageopacity="0.0"
     inkscape:pagecheckerboard="0"
     inkscape:deskcolor="#d1d1d1"
     inkscape:zoom="28.730769"
     inkscape:cx="13"
     inkscape:cy="12.982597"
     inkscape:window-width="1867"
     inkscape:window-height="1009"
     inkscape:window-x="0"
     inkscape:window-y="0"
     inkscape:window-maximized="1"
     inkscape:current-layer="Foreground" />
  <defs
     id="defs1">
    <filter
       id="filter839"
       x="-0.047999999"
       y="-0.047999999"
       width="1.096"
       height="1.096"
       color-interpolation-filters="sRGB">
      <feGaussianBlur
         stdDeviation="0.32"
         id="feGaussianBlur1" />
    </filter>
  </defs>
  <circle
     cx="9.4545"
     cy="10.182"
     r="8"
     fill="#000000"
     filter="url(#filter839)"
     opacity=".1"
     stroke-width="0"
     id="circle1" />
  <circle
     cx="9.4545"
     cy="9.4545"
     r="8"
     fill="#d8354a"
     stroke-width="0"
     id="circle2"
     style="fill:#ea6962;fill-opacity:1" />
  <path
     d="m6.1115 5.7478c-0.092952 1e-7 -0.18588 0.035309-0.2571 0.10653-0.14245 0.14245-0.14245 0.37175 0 0.5142l3.0852 3.0866-3.0852 3.0852c-0.14245 0.14245-0.14245 0.37175 0 0.5142 0.14245 0.14245 0.37317 0.14245 0.51562 0l3.0852-3.0852 3.0852 3.0852c0.14245 0.14245 0.37175 0.14245 0.5142 0 0.14245-0.14245 0.14245-0.37175 0-0.5142l-3.0852-3.0852 3.0852-3.0866c0.14245-0.14245 0.14245-0.37175 0-0.5142-0.14245-0.14245-0.37175-0.14245-0.5142 0l-3.0852 3.0852-3.0852-3.0852c-0.071224-0.071224-0.16557-0.10653-0.25852-0.10653z"
     fill="#ffffff"
     stroke-linecap="round"
     stroke-linejoin="round"
     stroke-width="1.3606"
     style="paint-order:markers stroke fill"
     id="path2" />
</svg>
