<svg xmlns="http://www.w3.org/2000/svg" width="16" height="16" version="1.1">
 <g transform="translate(-471.99997,-99.999939)">
  <path d="m 475.99414,103 c -1.2582,0.0145 -2.17889,-0.0306 -2.93164,0.38477 -0.37637,0.20766 -0.67323,0.55938 -0.83789,0.99804 C 472.05994,104.82148 472,105.34239 472,106 v 5 c 0,0.65761 0.0599,1.17853 0.22461,1.61719 0.16467,0.43866 0.46152,0.79039 0.83789,0.99804 0.75275,0.41532 1.67345,0.3702 2.93164,0.38477 h 0.004 7.0039 0.004 c 1.25819,-0.0145 2.17889,0.0306 2.93164,-0.38477 0.37637,-0.20766 0.67322,-0.55938 0.83789,-0.99804 C 486.94006,112.17852 487,111.65761 487,111 v -5 c 0,-0.65761 -0.0599,-1.17852 -0.22461,-1.61719 -0.16466,-0.43866 -0.46152,-0.79038 -0.83789,-0.99804 -0.75275,-0.41534 -1.67344,-0.37025 -2.93164,-0.38477 h -0.004 -7.0039 z m 0.006,1 h 7 c 1.25852,0.0147 2.08717,0.0598 2.45312,0.26172 0.18341,0.1012 0.28916,0.21274 0.38672,0.47266 C 485.93741,104.99429 486,105.40761 486,106 v 5 c 0,0.59239 -0.0626,1.00572 -0.16016,1.26562 -0.0976,0.25991 -0.20331,0.37147 -0.38672,0.47266 C 485.08717,112.94019 484.25852,112.98529 483,113 H 476.00586 476 c -1.25853,-0.0147 -2.08717,-0.0598 -2.45312,-0.26172 -0.18341,-0.10119 -0.28916,-0.21275 -0.38672,-0.47266 C 473.06259,112.00572 473,111.59239 473,111 v -5 c 0,-0.59239 0.0626,-1.00572 0.16016,-1.26562 0.0976,-0.25991 0.20331,-0.37147 0.38672,-0.47266 C 473.91283,104.05981 474.74147,104.01471 476,104 Z" style="solid-color:#d4be98;fill:#d4be98"/>
  <path d="m 475,106 v 1.00001 h 1.00001 V 106 Z m 2.00001,0 v 1.00001 h 1.00001 V 106 Z m 2.00002,0 v 1.00001 h 1 V 106 Z m 2.00001,0 v 1.00001 h 1.00001 V 106 Z m 2.00001,0 v 1.00001 h 1.00001 V 106 Z m -7.002,2.00001 0.004,1.00001 h 0.99796 v -1.00001 z m 2.00197,0 v 1.00001 h 1.00001 v -1.00001 z m 2.00001,0 v 1.00001 h 1.00001 v -1.00001 z m 2.00002,0 v 1.00001 h 1 v -1.00001 z M 475,110.00003 v 1 h 1.00001 v -1 z m 2.00001,0 v 1 h 5.00004 v -1 z m 6.00004,0 0.0117,1 h 0.99415 l -0.0117,-1 z" style="solid-color:#d4be98;fill:#d4be98;fill-rule:evenodd"/>
 </g>
</svg>
