<svg xmlns="http://www.w3.org/2000/svg" width="16" height="16" version="1.1">
 <g transform="translate(-391.99997,-159.99994)">
  <path d="m 395,160 v 4.02539 c -0.7495,0.0179 -1.41066,0.0687 -1.9375,0.35938 -0.37637,0.20766 -0.67323,0.55938 -0.83789,0.99804 C 392.05994,165.82148 392,166.34239 392,167 v 3 c 0,0.65761 0.0599,1.17853 0.22461,1.61719 0.16467,0.43866 0.46152,0.79039 0.83789,0.99804 0.75275,0.41532 1.67345,0.3702 2.93164,0.38477 h 0.004 H 399 v 1 h -5 v 1 h 12 v -1 h -5 v -1 h 3.00195 0.004 c 1.25819,-0.0145 2.17889,0.0306 2.93164,-0.38477 0.37637,-0.20766 0.67322,-0.55938 0.83789,-0.99804 C 407.93979,171.17852 408,170.65761 408,170 v -3 c 0,-0.65761 -0.0599,-1.17852 -0.22461,-1.61719 -0.16466,-0.43866 -0.46152,-0.79038 -0.83789,-0.99804 -0.52684,-0.29069 -1.188,-0.34148 -1.9375,-0.35938 V 160 Z m 1,1 h 8 v 3 h -8 z m 0,4 h 8 c 1.25852,0.0147 2.08718,0.0598 2.45312,0.26172 0.18341,0.1012 0.28916,0.21274 0.38672,0.47266 C 406.93727,165.99429 407,166.40761 407,167 v 3 c 0,0.59239 -0.0626,1.00572 -0.16016,1.26562 -0.0976,0.25991 -0.20331,0.37147 -0.38672,0.47266 C 406.08719,171.94019 405.25852,171.98529 404,172 H 396.00586 396 c -1.25853,-0.0147 -2.08912,-0.0598 -2.45508,-0.26172 -0.18341,-0.10119 -0.2872,-0.21274 -0.38476,-0.47266 C 393.06259,171.00572 393,170.59239 393,170 v -3 c 0,-0.59239 0.0626,-1.00572 0.16016,-1.26562 0.0976,-0.25991 0.20135,-0.37147 0.38476,-0.47266 C 393.91088,165.05981 394.74147,165.01471 396,165 Z m 9.5,1 c -0.27614,0 -0.5,0.22386 -0.5,0.5 0,0.27614 0.22386,0.5 0.5,0.5 0.27614,0 0.5,-0.22386 0.5,-0.5 0,-0.27614 -0.22386,-0.5 -0.5,-0.5 z m -10.5,4 v 1 h 10 v -1 z" style="solid-color:#d4be98;fill:#d4be98"/>
 </g>
</svg>
